<svg xmlns="http://www.w3.org/2000/svg" width="710pt" height="223pt" viewBox="0 0 710 223"><g id="graph0" class="graph" transform="translate(7.2 215.44)"><title>MarkdownPipelineOverview</title><g id="node1" class="node"><title>source</title><path fill="#193966" stroke="#6c8ebf" d="M77.76-203.2H12c-6 0-12 6-12 12v12c0 6 6 12 12 12h65.76c6 0 12-6 12-12v-12c0-6-6-12-12-12"/><text xml:space="preserve" x="44.88" y="-182.2" fill="#d9d9d9" font-family="Times,serif" font-size="10" text-anchor="middle">Markdown source</text></g><g id="node2" class="node"><title>remark</title><path fill="#193966" stroke="#6c8ebf" d="M221.82-208.24H119.94c-6 0-12 6-12 12v22.08c0 6 6 12 12 12h101.88c6 0 12-6 12-12v-22.08c0-6-6-12-12-12"/><text xml:space="preserve" x="170.88" y="-194.2" fill="#d9d9d9" font-family="Times,serif" font-size="10" text-anchor="middle">Built-in remark</text><text xml:space="preserve" x="170.88" y="-182.2" fill="#d9d9d9" font-family="Times,serif" font-size="10" text-anchor="middle">GFM, frontmatter, alerts,</text><text xml:space="preserve" x="170.88" y="-170.2" fill="#d9d9d9" font-family="Times,serif" font-size="10" text-anchor="middle">smartypants, optional math</text></g><g id="edge1" class="edge"><title>source-&gt;remark</title><path fill="none" stroke="#aaa" d="M90.16-185.2h5.96"/><path fill="#404040" stroke="#aaa" d="m95.99-188.7 10 3.5-10 3.5z"/></g><g id="node3" class="node"><title>userRemark</title><path fill="#193966" stroke="#6c8ebf" d="M334-208.24h-70.24c-6 0-12 6-12 12v22.08c0 6 6 12 12 12H334c6 0 12-6 12-12v-22.08c0-6-6-12-12-12"/><text xml:space="preserve" x="298.88" y="-194.2" fill="#d9d9d9" font-family="Times,serif" font-size="10" text-anchor="middle">Custom remark</text><text xml:space="preserve" x="298.88" y="-182.2" fill="#d9d9d9" font-family="Times,serif" font-size="10" text-anchor="middle">plugins</text><text xml:space="preserve" x="298.88" y="-170.2" fill="#d9d9d9" font-family="Times,serif" font-size="10" text-anchor="middle">(@pagesmith/core)</text></g><g id="edge2" class="edge"><title>remark-&gt;userRemark</title><path fill="none" stroke="#aaa" d="M233.88-185.2h6.02"/><path fill="#404040" stroke="#aaa" d="m239.89-188.7 10 3.5-10 3.5z"/></g><g id="node4" class="node"><title>alias</title><path fill="#193966" stroke="#6c8ebf" d="M325.64-122.12h-53.52c-6 0-12 6-12 12v12c0 6 6 12 12 12h53.52c6 0 12-6 12-12v-12c0-6-6-12-12-12"/><text xml:space="preserve" x="298.88" y="-107.12" fill="#d9d9d9" font-family="Times,serif" font-size="10" text-anchor="middle">Language alias</text><text xml:space="preserve" x="298.88" y="-95.12" fill="#d9d9d9" font-family="Times,serif" font-size="10" text-anchor="middle">transform</text></g><g id="edge3" class="edge"><title>userRemark-&gt;alias</title><path fill="none" stroke="#aaa" d="M298.88-161.75v27.78"/><path fill="#404040" stroke="#aaa" d="m302.38-134.11-3.5 10-3.5-10z"/></g><g id="node5" class="node"><title>bridge</title><path fill="#193966" stroke="#6c8ebf" d="M462.12-122.12h-94.48c-6 0-12 6-12 12v12c0 6 6 12 12 12h94.48c6 0 12-6 12-12v-12c0-6-6-12-12-12"/><text xml:space="preserve" x="414.88" y="-107.12" fill="#d9d9d9" font-family="Times,serif" font-size="10" text-anchor="middle">remark-rehype</text><text xml:space="preserve" x="414.88" y="-95.12" fill="#d9d9d9" font-family="Times,serif" font-size="10" text-anchor="middle">MD AST -&gt; HTML AST</text></g><g id="edge4" class="edge"><title>alias-&gt;bridge</title><path fill="none" stroke="#aaa" d="M337.85-104.12h6"/><path fill="#404040" stroke="#aaa" d="m343.79-107.62 10 3.5-10 3.5z"/></g><g id="node6" class="node"><title>rehype</title><path fill="#193966" stroke="#6c8ebf" d="M586.09-133.16h-82.42c-6 0-12 6-12 12v34.08c0 6 6 12 12 12h82.42c6 0 12-6 12-12v-34.08c0-6-6-12-12-12"/><text xml:space="preserve" x="544.88" y="-119.12" fill="#d9d9d9" font-family="Times,serif" font-size="10" text-anchor="middle">Built-in rehype</text><text xml:space="preserve" x="544.88" y="-107.12" fill="#d9d9d9" font-family="Times,serif" font-size="10" text-anchor="middle">MathJax, code, tables,</text><text xml:space="preserve" x="544.88" y="-95.12" fill="#d9d9d9" font-family="Times,serif" font-size="10" text-anchor="middle">slug, autolinks, emoji,</text><text xml:space="preserve" x="544.88" y="-83.12" fill="#d9d9d9" font-family="Times,serif" font-size="10" text-anchor="middle">images, headings</text></g><g id="edge5" class="edge"><title>bridge-&gt;rehype</title><path fill="none" stroke="#aaa" d="M474.55-104.12h5.5"/><path fill="#404040" stroke="#aaa" d="m479.79-107.62 10 3.5-10 3.5z"/></g><g id="node7" class="node"><title>post</title><path fill="#193966" stroke="#6c8ebf" d="M594.85-46.08h-99.93c-6 0-12 6-12 12V-12c0 6 6 12 12 12h99.93c6 0 12-6 12-12v-22.08c0-6-6-12-12-12"/><text xml:space="preserve" x="544.88" y="-32.04" fill="#d9d9d9" font-family="Times,serif" font-size="10" text-anchor="middle">Post-processing</text><text xml:space="preserve" x="544.88" y="-20.04" fill="#d9d9d9" font-family="Times,serif" font-size="10" text-anchor="middle">core: custom rehype</text><text xml:space="preserve" x="544.88" y="-8.04" fill="#d9d9d9" font-family="Times,serif" font-size="10" text-anchor="middle">docs: link/asset transforms</text></g><g id="edge6" class="edge"><title>rehype-&gt;post</title><path fill="none" stroke="#aaa" d="M544.88-75.02v17.27"/><path fill="#404040" stroke="#aaa" d="m548.38-57.85-3.5 10-3.5-10z"/></g><g id="node8" class="node"><title>output</title><path fill="#193966" stroke="#6c8ebf" d="M683.32-41.04h-46.88c-6 0-12 6-12 12v12c0 6 6 12 12 12h46.88c6 0 12-6 12-12v-12c0-6-6-12-12-12"/><text xml:space="preserve" x="659.88" y="-20.04" fill="#d9d9d9" font-family="Times,serif" font-size="10" text-anchor="middle">HTML string</text></g><g id="edge7" class="edge"><title>post-&gt;output</title><path fill="none" stroke="#aaa" d="M607.32-23.04h5.53"/><path fill="#404040" stroke="#aaa" d="m612.64-26.54 10 3.5-10 3.5z"/></g></g></svg>