<?xml version="1.0" encoding="UTF-8" standalone="no"?>
<!DOCTYPE svg PUBLIC "-//W3C//DTD SVG 1.1//EN"
 "http://www.w3.org/Graphics/SVG/1.1/DTD/svg11.dtd">
<!-- Generated by graphviz version 14.1.5 (20260411.2331)
 -->
<!-- Title: CodeBlockRenderingPipeline Pages: 1 -->
<svg width="857pt" height="200pt"
 viewBox="0.00 0.00 857.00 200.00" xmlns="http://www.w3.org/2000/svg" xmlns:xlink="http://www.w3.org/1999/xlink">
<g id="graph0" class="graph" transform="scale(1 1) rotate(0) translate(14.4 185.48)">
<title>CodeBlockRenderingPipeline</title>
<!-- source -->
<g id="node1" class="node">
<title>source</title>
<path fill="#193966" stroke="#6c8ebf" d="M158.64,-154.28C158.64,-154.28 12,-154.28 12,-154.28 6,-154.28 0,-148.28 0,-142.28 0,-142.28 0,-115.4 0,-115.4 0,-109.4 6,-103.4 12,-103.4 12,-103.4 158.64,-103.4 158.64,-103.4 164.64,-103.4 170.64,-109.4 170.64,-115.4 170.64,-115.4 170.64,-142.28 170.64,-142.28 170.64,-148.28 164.64,-154.28 158.64,-154.28"/>
<text xml:space="preserve" text-anchor="middle" x="85.32" y="-133.04" font-family="Times,serif" font-size="14.00" fill="#333333">Markdown source</text>
<text xml:space="preserve" text-anchor="middle" x="85.32" y="-116.24" font-family="Times,serif" font-size="14.00" fill="#333333">fenced code + meta string</text>
</g>
<!-- core -->
<g id="node2" class="node">
<title>core</title>
<path fill="#193966" stroke="#6c8ebf" d="M372.43,-171.08C372.43,-171.08 240.64,-171.08 240.64,-171.08 234.64,-171.08 228.64,-165.08 228.64,-159.08 228.64,-159.08 228.64,-98.6 228.64,-98.6 228.64,-92.6 234.64,-86.6 240.64,-86.6 240.64,-86.6 372.43,-86.6 372.43,-86.6 378.43,-86.6 384.43,-92.6 384.43,-98.6 384.43,-98.6 384.43,-159.08 384.43,-159.08 384.43,-165.08 378.43,-171.08 372.43,-171.08"/>
<text xml:space="preserve" text-anchor="middle" x="306.54" y="-149.84" font-family="Times,serif" font-size="14.00" fill="#333333">@pagesmith/core</text>
<text xml:space="preserve" text-anchor="middle" x="306.54" y="-133.04" font-family="Times,serif" font-size="14.00" fill="#333333">Shiki highlighting</text>
<text xml:space="preserve" text-anchor="middle" x="306.54" y="-116.24" font-family="Times,serif" font-size="14.00" fill="#333333">frame markup</text>
<text xml:space="preserve" text-anchor="middle" x="306.54" y="-99.44" font-family="Times,serif" font-size="14.00" fill="#333333">inline light/dark tokens</text>
</g>
<!-- source&#45;&gt;core -->
<g id="edge1" class="edge">
<title>source&#45;&gt;core</title>
<path fill="none" stroke="#7b7b7b" d="M171.08,-128.84C186.05,-128.84 201.69,-128.84 216.77,-128.84"/>
<polygon fill="#7b7b7b" stroke="#7b7b7b" points="216.66,-132.34 226.66,-128.84 216.66,-125.34 216.66,-132.34"/>
</g>
<!-- html -->
<g id="node3" class="node">
<title>html</title>
<path fill="#193966" stroke="#6c8ebf" d="M632.86,-154.28C632.86,-154.28 454.43,-154.28 454.43,-154.28 448.43,-154.28 442.43,-148.28 442.43,-142.28 442.43,-142.28 442.43,-115.4 442.43,-115.4 442.43,-109.4 448.43,-103.4 454.43,-103.4 454.43,-103.4 632.86,-103.4 632.86,-103.4 638.86,-103.4 644.86,-109.4 644.86,-115.4 644.86,-115.4 644.86,-142.28 644.86,-142.28 644.86,-148.28 638.86,-154.28 632.86,-154.28"/>
<text xml:space="preserve" text-anchor="middle" x="543.64" y="-133.04" font-family="Times,serif" font-size="14.00" fill="#333333">Rendered HTML</text>
<text xml:space="preserve" text-anchor="middle" x="543.64" y="-116.24" font-family="Times,serif" font-size="14.00" fill="#333333">Pagesmith code&#45;block structure</text>
</g>
<!-- core&#45;&gt;html -->
<g id="edge2" class="edge">
<title>core&#45;&gt;html</title>
<path fill="none" stroke="#7b7b7b" d="M384.85,-128.84C399.6,-128.84 415.32,-128.84 430.9,-128.84"/>
<polygon fill="#7b7b7b" stroke="#7b7b7b" points="430.69,-132.34 440.69,-128.84 430.69,-125.34 430.69,-132.34"/>
</g>
<!-- browser -->
<g id="node5" class="node">
<title>browser</title>
<path fill="#193966" stroke="#6c8ebf" d="M816.29,-114.68C816.29,-114.68 714.86,-114.68 714.86,-114.68 708.86,-114.68 702.86,-108.68 702.86,-102.68 702.86,-102.68 702.86,-59 702.86,-59 702.86,-53 708.86,-47 714.86,-47 714.86,-47 816.29,-47 816.29,-47 822.29,-47 828.29,-53 828.29,-59 828.29,-59 828.29,-102.68 828.29,-102.68 828.29,-108.68 822.29,-114.68 816.29,-114.68"/>
<text xml:space="preserve" text-anchor="middle" x="765.58" y="-93.44" font-family="Times,serif" font-size="14.00" fill="#333333">Browser result</text>
<text xml:space="preserve" text-anchor="middle" x="765.58" y="-76.64" font-family="Times,serif" font-size="14.00" fill="#333333">styled, interactive</text>
<text xml:space="preserve" text-anchor="middle" x="765.58" y="-59.84" font-family="Times,serif" font-size="14.00" fill="#333333">code blocks</text>
</g>
<!-- html&#45;&gt;browser -->
<g id="edge3" class="edge">
<title>html&#45;&gt;browser</title>
<path fill="none" stroke="#7b7b7b" d="M645.28,-106.88C660.78,-103.49 676.53,-100.06 691.29,-96.83"/>
<polygon fill="#7b7b7b" stroke="#7b7b7b" points="691.86,-100.29 700.88,-94.74 690.36,-93.45 691.86,-100.29"/>
</g>
<!-- site -->
<g id="node4" class="node">
<title>site</title>
<path fill="#193966" stroke="#6c8ebf" d="M626.83,-67.68C626.83,-67.68 460.46,-67.68 460.46,-67.68 454.46,-67.68 448.46,-61.68 448.46,-55.68 448.46,-55.68 448.46,-12 448.46,-12 448.46,-6 454.46,0 460.46,0 460.46,0 626.83,0 626.83,0 632.83,0 638.83,-6 638.83,-12 638.83,-12 638.83,-55.68 638.83,-55.68 638.83,-61.68 632.83,-67.68 626.83,-67.68"/>
<text xml:space="preserve" text-anchor="middle" x="543.64" y="-46.44" font-family="Times,serif" font-size="14.00" fill="#333333">@pagesmith/site</text>
<text xml:space="preserve" text-anchor="middle" x="543.64" y="-29.64" font-family="Times,serif" font-size="14.00" fill="#333333">shared CSS</text>
<text xml:space="preserve" text-anchor="middle" x="543.64" y="-12.84" font-family="Times,serif" font-size="14.00" fill="#333333">copy / collapse / tabs runtime</text>
</g>
<!-- site&#45;&gt;browser -->
<g id="edge4" class="edge">
<title>site&#45;&gt;browser</title>
<path fill="none" stroke="#7b7b7b" d="M639.19,-54.04C656.76,-57.8 674.87,-61.67 691.67,-65.26"/>
<polygon fill="#7b7b7b" stroke="#7b7b7b" points="690.52,-68.59 701.03,-67.26 691.98,-61.75 690.52,-68.59"/>
</g>
</g>
</svg>
