<svg xmlns="http://www.w3.org/2000/svg" id="ge88a5377-3bb6-411e-9373-60b8db1e9a28-light" width="100%" aria-roledescription="flowchart-v2" class="flowchart" role="graphics-document document" style="max-width:609.530517578125px" viewBox="0 0 609.531 1130.753"><style>#ge88a5377-3bb6-411e-9373-60b8db1e9a28-light{fill:#333}#ge88a5377-3bb6-411e-9373-60b8db1e9a28-light .edge-thickness-normal{stroke-width:1px}#ge88a5377-3bb6-411e-9373-60b8db1e9a28-light .edge-pattern-solid{stroke-dasharray:0}#ge88a5377-3bb6-411e-9373-60b8db1e9a28-light .marker{fill:#333;stroke:#333}#ge88a5377-3bb6-411e-9373-60b8db1e9a28-light .marker.cross{stroke:#333}#ge88a5377-3bb6-411e-9373-60b8db1e9a28-light,#ge88a5377-3bb6-411e-9373-60b8db1e9a28-light svg{font-family:&quot;trebuchet ms&quot;,verdana,arial,sans-serif;font-size:16px}#ge88a5377-3bb6-411e-9373-60b8db1e9a28-light .label{font-family:&quot;trebuchet ms&quot;,verdana,arial,sans-serif;color:#333}#ge88a5377-3bb6-411e-9373-60b8db1e9a28-light .label text,#ge88a5377-3bb6-411e-9373-60b8db1e9a28-light span{fill:#333;color:#333}#ge88a5377-3bb6-411e-9373-60b8db1e9a28-light .node circle,#ge88a5377-3bb6-411e-9373-60b8db1e9a28-light .node ellipse,#ge88a5377-3bb6-411e-9373-60b8db1e9a28-light .node path,#ge88a5377-3bb6-411e-9373-60b8db1e9a28-light .node polygon,#ge88a5377-3bb6-411e-9373-60b8db1e9a28-light .node rect{fill:#ececff;stroke:#9370db;stroke-width:1px}#ge88a5377-3bb6-411e-9373-60b8db1e9a28-light .icon-shape .label,#ge88a5377-3bb6-411e-9373-60b8db1e9a28-light .image-shape .label,#ge88a5377-3bb6-411e-9373-60b8db1e9a28-light .node .label text,#ge88a5377-3bb6-411e-9373-60b8db1e9a28-light .rough-node .label text{text-anchor:middle}#ge88a5377-3bb6-411e-9373-60b8db1e9a28-light .icon-shape .label,#ge88a5377-3bb6-411e-9373-60b8db1e9a28-light .image-shape .label,#ge88a5377-3bb6-411e-9373-60b8db1e9a28-light .node .label,#ge88a5377-3bb6-411e-9373-60b8db1e9a28-light .rough-node .label{text-align:center}#ge88a5377-3bb6-411e-9373-60b8db1e9a28-light .flowchart-link{stroke:#333;fill:none}#ge88a5377-3bb6-411e-9373-60b8db1e9a28-light .edgeLabel{background-color:rgba(232,232,232,.8);text-align:center}#ge88a5377-3bb6-411e-9373-60b8db1e9a28-light .edgeLabel rect{opacity:.5;background-color:rgba(232,232,232,.8);fill:rgba(232,232,232,.8)}#ge88a5377-3bb6-411e-9373-60b8db1e9a28-light [data-look=neo].cluster rect,#ge88a5377-3bb6-411e-9373-60b8db1e9a28-light [data-look=neo].node circle,#ge88a5377-3bb6-411e-9373-60b8db1e9a28-light [data-look=neo].node polygon,#ge88a5377-3bb6-411e-9373-60b8db1e9a28-light [data-look=neo].node rect{stroke:#9370db;filter:drop-shadow(1px 2px 2px #b9b9b9)}#ge88a5377-3bb6-411e-9373-60b8db1e9a28-light [data-look=neo].swimlane.cluster rect{filter:none}#ge88a5377-3bb6-411e-9373-60b8db1e9a28-light [data-look=neo].node path{stroke:#9370db;stroke-width:1px}#ge88a5377-3bb6-411e-9373-60b8db1e9a28-light [data-look=neo].node .outer-path{filter:drop-shadow(1px 2px 2px #b9b9b9)}#ge88a5377-3bb6-411e-9373-60b8db1e9a28-light [data-look=neo].node .neo-line path{stroke:#9370db;filter:none}#ge88a5377-3bb6-411e-9373-60b8db1e9a28-light [data-look=neo].node circle .state-start{fill:#000}#ge88a5377-3bb6-411e-9373-60b8db1e9a28-light [data-look=neo].icon-shape .icon{fill:#9370db;filter:drop-shadow(1px 2px 2px #b9b9b9)}#ge88a5377-3bb6-411e-9373-60b8db1e9a28-light [data-look=neo].icon-shape .icon-neo path{stroke:#9370db;filter:drop-shadow(1px 2px 2px #b9b9b9)}#ge88a5377-3bb6-411e-9373-60b8db1e9a28-light .edgeLabel .background{fill:#fff}#ge88a5377-3bb6-411e-9373-60b8db1e9a28-light :root{--mermaid-font-family:&quot;trebuchet ms&quot;,verdana,arial,sans-serif}</style><marker id="ge88a5377-3bb6-411e-9373-60b8db1e9a28-light_flowchart-v2-pointEnd" class="marker flowchart-v2" markerHeight="8" markerUnits="userSpaceOnUse" markerWidth="8" orient="auto" refX="5" refY="5" viewBox="0 0 10 10"><path d="m0 0 10 5-10 5z" class="arrowMarkerPath" style="stroke-width:1;stroke-dasharray:1,0"/></marker><marker id="ge88a5377-3bb6-411e-9373-60b8db1e9a28-light_flowchart-v2-pointStart" class="marker flowchart-v2" markerHeight="8" markerUnits="userSpaceOnUse" markerWidth="8" orient="auto" refX="4.5" refY="5" viewBox="0 0 10 10"><path d="m0 5 10 5V0z" class="arrowMarkerPath" style="stroke-width:1;stroke-dasharray:1,0"/></marker><marker id="ge88a5377-3bb6-411e-9373-60b8db1e9a28-light_flowchart-v2-pointEnd-margin" class="marker flowchart-v2" markerHeight="14" markerUnits="userSpaceOnUse" markerWidth="10.5" orient="auto" refX="11.5" refY="7" viewBox="0 0 11.5 14"><path d="m0 0 11.5 7L0 14z" class="arrowMarkerPath" style="stroke-width:0;stroke-dasharray:1,0"/></marker><marker id="ge88a5377-3bb6-411e-9373-60b8db1e9a28-light_flowchart-v2-pointStart-margin" class="marker flowchart-v2" markerHeight="14" markerUnits="userSpaceOnUse" markerWidth="11.5" orient="auto" refX="1" refY="7" viewBox="0 0 11.5 14"><path d="m0 7 11.5 7V0z" class="arrowMarkerPath" style="stroke-width:0;stroke-dasharray:1,0"/></marker><marker id="ge88a5377-3bb6-411e-9373-60b8db1e9a28-light_flowchart-v2-circleEnd" class="marker flowchart-v2" markerHeight="11" markerUnits="userSpaceOnUse" markerWidth="11" orient="auto" refX="11" refY="5" viewBox="0 0 10 10"><circle cx="5" cy="5" r="5" class="arrowMarkerPath" style="stroke-width:1;stroke-dasharray:1,0"/></marker><marker id="ge88a5377-3bb6-411e-9373-60b8db1e9a28-light_flowchart-v2-circleStart" class="marker flowchart-v2" markerHeight="11" markerUnits="userSpaceOnUse" markerWidth="11" orient="auto" refX="-1" refY="5" viewBox="0 0 10 10"><circle cx="5" cy="5" r="5" class="arrowMarkerPath" style="stroke-width:1;stroke-dasharray:1,0"/></marker><marker id="ge88a5377-3bb6-411e-9373-60b8db1e9a28-light_flowchart-v2-circleEnd-margin" class="marker flowchart-v2" markerHeight="14" markerUnits="userSpaceOnUse" markerWidth="14" orient="auto" refX="12.25" refY="5" viewBox="0 0 10 10"><circle cx="5" cy="5" r="5" class="arrowMarkerPath" style="stroke-width:0;stroke-dasharray:1,0"/></marker><marker id="ge88a5377-3bb6-411e-9373-60b8db1e9a28-light_flowchart-v2-circleStart-margin" class="marker flowchart-v2" markerHeight="14" markerUnits="userSpaceOnUse" markerWidth="14" orient="auto" refX="-2" refY="5" viewBox="0 0 10 10"><circle cx="5" cy="5" r="5" class="arrowMarkerPath" style="stroke-width:0;stroke-dasharray:1,0"/></marker><marker id="ge88a5377-3bb6-411e-9373-60b8db1e9a28-light_flowchart-v2-crossEnd" class="marker cross flowchart-v2" markerHeight="11" markerUnits="userSpaceOnUse" markerWidth="11" orient="auto" refX="12" refY="5.2" viewBox="0 0 11 11"><path d="m1 1 9 9m0-9-9 9" class="arrowMarkerPath" style="stroke-width:2;stroke-dasharray:1,0"/></marker><marker id="ge88a5377-3bb6-411e-9373-60b8db1e9a28-light_flowchart-v2-crossStart" class="marker cross flowchart-v2" markerHeight="11" markerUnits="userSpaceOnUse" markerWidth="11" orient="auto" refX="-1" refY="5.2" viewBox="0 0 11 11"><path d="m1 1 9 9m0-9-9 9" class="arrowMarkerPath" style="stroke-width:2;stroke-dasharray:1,0"/></marker><marker id="ge88a5377-3bb6-411e-9373-60b8db1e9a28-light_flowchart-v2-crossEnd-margin" class="marker cross flowchart-v2" markerHeight="12" markerUnits="userSpaceOnUse" markerWidth="12" orient="auto" refX="17.7" refY="7.5" viewBox="0 0 15 15"><path d="m1 1 13 13M1 14 14 1" class="arrowMarkerPath" style="stroke-width:2.5"/></marker><marker id="ge88a5377-3bb6-411e-9373-60b8db1e9a28-light_flowchart-v2-crossStart-margin" class="marker cross flowchart-v2" markerHeight="12" markerUnits="userSpaceOnUse" markerWidth="12" orient="auto" refX="-3.5" refY="7.5" viewBox="0 0 15 15"><path d="m1 1 13 13M1 14 14 1" class="arrowMarkerPath" style="stroke-width:2.5;stroke-dasharray:1,0"/></marker><g class="root"><g class="edgePaths"><path id="ge88a5377-3bb6-411e-9373-60b8db1e9a28-light-L_start_docsQ_0" marker-end="url(#ge88a5377-3bb6-411e-9373-60b8db1e9a28-light_flowchart-v2-pointEnd)" d="m223.314 42.5-.083 4.083c-.084 4.084-.25 12.25-.334 19.834-.083 7.583-.083 14.583-.083 18.083V88" class="edge-thickness-normal edge-pattern-solid edge-thickness-normal edge-pattern-solid flowchart-link" data-edge="true" data-et="edge" data-id="L_start_docsQ_0" data-look="classic" data-points="W3sieCI6MjIzLjMxNDA2NDAyNTg3ODksInkiOjQyLjV9LHsieCI6MjIyLjgxNDA2NDAyNTg3ODksInkiOjY3fSx7IngiOjIyMi44MTQwNjQwMjU4Nzg4OCwieSI6OTEuOTk5OTk5OTk5OTk5OTl9XQ=="/><path id="ge88a5377-3bb6-411e-9373-60b8db1e9a28-light-L_docsQ_docs_0" marker-end="url(#ge88a5377-3bb6-411e-9373-60b8db1e9a28-light_flowchart-v2-pointEnd)" d="m171.481 271.376-11.738 14.639c-11.738 14.639-35.213 43.917-46.951 76.633s-11.737 68.871-11.737 86.948v18.077" class="edge-thickness-normal edge-pattern-solid edge-thickness-normal edge-pattern-solid flowchart-link" data-edge="true" data-et="edge" data-id="L_docsQ_docs_0" data-look="classic" data-points="W3sieCI6MTcxLjQ4MDc1NzkwNzQzMjUyLCJ5IjoyNzEuMzc2MDU5NzI2MjgwMjN9LHsieCI6MTAxLjA1NDY4NzUsInkiOjM1OS4yMDkzNjU4NDQ3MjY1Nn0seyJ4IjoxMDEuMDU0Njg3NSwieSI6NDcxLjY3MzQzMTM5NjQ4NDR9XQ=="/><path id="ge88a5377-3bb6-411e-9373-60b8db1e9a28-light-L_docsQ_hostQ_0" marker-end="url(#ge88a5377-3bb6-411e-9373-60b8db1e9a28-light_flowchart-v2-pointEnd)" d="m274.147 271.376 11.738 14.639c11.738 14.639 35.213 43.917 46.951 63.972 11.737 20.056 11.737 30.889 11.737 36.306v5.416" class="edge-thickness-normal edge-pattern-solid edge-thickness-normal edge-pattern-solid flowchart-link" data-edge="true" data-et="edge" data-id="L_docsQ_hostQ_0" data-look="classic" data-points="W3sieCI6Mjc0LjE0NzM3MDE0NDMyNTMsInkiOjI3MS4zNzYwNTk3MjYyODAyM30seyJ4IjozNDQuNTczNDQwNTUxNzU3OCwieSI6MzU5LjIwOTM2NTg0NDcyNjU2fSx7IngiOjM0NC41NzM0NDA1NTE3NTc4LCJ5IjozOTUuNzA5MzY1ODQ0NzI2NTZ9XQ=="/><path id="ge88a5377-3bb6-411e-9373-60b8db1e9a28-light-L_hostQ_core_0" marker-end="url(#ge88a5377-3bb6-411e-9373-60b8db1e9a28-light_flowchart-v2-pointEnd)" d="m390.012 551.199 11.277 13.656c11.277 13.657 33.832 40.97 45.109 60.043s11.277 29.906 11.277 35.323v5.416" class="edge-thickness-normal edge-pattern-solid edge-thickness-normal edge-pattern-solid flowchart-link" data-edge="true" data-et="edge" data-id="L_hostQ_core_0" data-look="classic" data-points="W3sieCI6MzkwLjAxMjA4MzUwOTMzNTQ3LCJ5Ijo1NTEuMTk4ODUzOTkwNjY0Nn0seyJ4Ijo0NTcuNjc1MDAzMDUxNzU3OCwieSI6NjMzLjEzNzQ5Njk0ODI0MjJ9LHsieCI6NDU3LjY3NTAwMzA1MTc1NzgsInkiOjY2OS42Mzc0OTY5NDgyNDIyfV0="/><path id="ge88a5377-3bb6-411e-9373-60b8db1e9a28-light-L_core_siteQ_0" marker-end="url(#ge88a5377-3bb6-411e-9373-60b8db1e9a28-light_flowchart-v2-pointEnd)" d="M457.675 718.637v69" class="edge-thickness-normal edge-pattern-solid edge-thickness-normal edge-pattern-solid flowchart-link" data-edge="true" data-et="edge" data-id="L_core_siteQ_0" data-look="classic" data-points="W3sieCI6NDU3LjY3NTAwMzA1MTc1NzgsInkiOjcxOC42Mzc0OTY5NDgyNDIyfSx7IngiOjQ1Ny42NzUwMDMwNTE3NTc4LCJ5Ijo3NTUuMTM3NDk2OTQ4MjQyMn0seyJ4Ijo0NTcuNjc1MDAzMDUxNzU3OCwieSI6NzkxLjYzNzQ5Njk0ODI0MjN9XQ=="/><path id="ge88a5377-3bb6-411e-9373-60b8db1e9a28-light-L_hostQ_site_0" marker-end="url(#ge88a5377-3bb6-411e-9373-60b8db1e9a28-light_flowchart-v2-pointEnd)" d="m291.706 543.77-16.543 14.895c-16.544 14.894-49.631 44.683-66.175 69.745-16.543 25.061-16.543 45.394-16.543 65.727v193.258c0 44.086 0 88.172 1.297 115.65 1.298 27.478 3.893 38.348 5.19 43.783l1.298 5.434" class="edge-thickness-normal edge-pattern-solid edge-thickness-normal edge-pattern-solid flowchart-link" data-edge="true" data-et="edge" data-id="L_hostQ_site_0" data-look="classic" data-points="W3sieCI6MjkxLjcwNjQwNTAyODMyODgsInkiOjU0My43NzA0NjE0MjQ4MTMyfSx7IngiOjE5Mi40NDQ1MzQzMDE3NTc4LCJ5Ijo2MzMuMTM3NDk2OTQ4MjQyMn0seyJ4IjoxOTIuNDQ0NTM0MzAxNzU3OCwieSI6Njk0LjEzNzQ5Njk0ODI0MjJ9LHsieCI6MTkyLjQ0NDUzNDMwMTc1NzgsInkiOjc1NS4xMzc0OTY5NDgyNDIyfSx7IngiOjE5Mi40NDQ1MzQzMDE3NTc4LCJ5Ijo4ODcuMzk1MzA5NDQ4MjQyMn0seyJ4IjoxOTIuNDQ0NTM0MzAxNzU3OCwieSI6MTAxOS42NTMxMjE5NDgyNDIyfSx7IngiOjIwMS4xNTg1NDk4ODc2OTI4NiwieSI6MTA1Ni4xNTMxMjE5NDgyNDIyfV0="/><path id="ge88a5377-3bb6-411e-9373-60b8db1e9a28-light-L_siteQ_site_0" marker-end="url(#ge88a5377-3bb6-411e-9373-60b8db1e9a28-light_flowchart-v2-pointEnd)" d="m409.223 934.701-14.503 14.158c-14.502 14.159-43.506 42.477-67.298 62.369s-42.371 31.358-51.661 37.091l-9.29 5.733" class="edge-thickness-normal edge-pattern-solid edge-thickness-normal edge-pattern-solid flowchart-link" data-edge="true" data-et="edge" data-id="L_siteQ_site_0" data-look="classic" data-points="W3sieCI6NDA5LjIyMjU1ODY4MzIwNTE0LCJ5Ijo5MzQuNzAwNjc3NTc5Njg5Nn0seyJ4IjozMjIuMjEwMTU5MzAxNzU3OCwieSI6MTAxOS42NTMxMjE5NDgyNDIyfSx7IngiOjI2My4wNjY3OTE0NDU0MTM4NiwieSI6MTA1Ni4xNTMxMjE5NDgyNDIyfV0="/><path id="ge88a5377-3bb6-411e-9373-60b8db1e9a28-light-L_siteQ_coreOnly_0" marker-end="url(#ge88a5377-3bb6-411e-9373-60b8db1e9a28-light_flowchart-v2-pointEnd)" d="m471.525 969.303 1.419 8.392c1.419 8.392 4.256 25.175 5.675 40.45s1.419 29.041 1.419 35.925v6.883" class="edge-thickness-normal edge-pattern-solid edge-thickness-normal edge-pattern-solid flowchart-link" data-edge="true" data-et="edge" data-id="L_siteQ_coreOnly_0" data-look="classic" data-points="W3sieCI6NDcxLjUyNDcyMzI5OTQwMiwieSI6OTY5LjMwMzQwMTcwMDU5OH0seyJ4Ijo0ODAuMDM4Mjg0MzAxNzU3OCwieSI6MTAxOS42NTMxMjE5NDgyNDIyfSx7IngiOjQ4MC4wMzgyODQzMDE3NTc4LCJ5IjoxMDY0Ljk1MzEyMTE4NTMwMjd9XQ=="/></g><g class="edgeLabels"><g class="edgeLabel"><text y="-10.1" class="label" data-id="L_start_docsQ_0" text-anchor="middle"/></g><rect class="background" style="stroke:none"/><g class="edgeLabel"><g class="label" data-id="L_docsQ_docs_0"><path d="M87.727 347.71h26.656v23H87.727z" class="background"/><text y="-10.1" text-anchor="middle" transform="translate(101.055 348.71)"><tspan x="0" y="-.1em" class="text-outer-tspan row" dy="1.1em" text-anchor="middle"><tspan class="text-inner-tspan" font-style="normal" font-weight="normal">Yes</tspan></tspan></text></g></g><g class="edgeLabel"><g class="label" data-id="L_docsQ_hostQ_0"><path d="M333.175 347.71h22.797v23h-22.797z" class="background"/><text y="-10.1" text-anchor="middle" transform="translate(344.573 348.71)"><tspan x="0" y="-.1em" class="text-outer-tspan row" dy="1.1em" text-anchor="middle"><tspan class="text-inner-tspan" font-style="normal" font-weight="normal">No</tspan></tspan></text></g></g><g class="edgeLabel"><g class="label" data-id="L_hostQ_core_0"><path d="M444.347 621.637h26.656v23h-26.656z" class="background"/><text y="-10.1" text-anchor="middle" transform="translate(457.675 622.637)"><tspan x="0" y="-.1em" class="text-outer-tspan row" dy="1.1em" text-anchor="middle"><tspan class="text-inner-tspan" font-style="normal" font-weight="normal">Yes</tspan></tspan></text></g></g><g class="edgeLabel"><text y="-10.1" class="label" data-id="L_core_siteQ_0" text-anchor="middle"/></g><rect class="background" style="stroke:none"/><g class="edgeLabel"><g class="label" data-id="L_hostQ_site_0"><path d="M181.047 743.637h22.797v23h-22.797z" class="background"/><text y="-10.1" text-anchor="middle" transform="translate(192.445 744.637)"><tspan x="0" y="-.1em" class="text-outer-tspan row" dy="1.1em" text-anchor="middle"><tspan class="text-inner-tspan" font-style="normal" font-weight="normal">No</tspan></tspan></text></g></g><g class="edgeLabel"><g class="label" data-id="L_siteQ_site_0"><path d="M327.524 989.953h26.656v23h-26.656z" class="background"/><text y="-10.1" text-anchor="middle" transform="translate(340.852 990.953)"><tspan x="0" y="-.1em" class="text-outer-tspan row" dy="1.1em" text-anchor="middle"><tspan class="text-inner-tspan" font-style="normal" font-weight="normal">Yes</tspan></tspan></text></g></g><g class="edgeLabel"><g class="label" data-id="L_siteQ_coreOnly_0"><path d="M468.64 1008.153h22.797v23H468.64z" class="background"/><text y="-10.1" text-anchor="middle" transform="translate(480.038 1009.153)"><tspan x="0" y="-.1em" class="text-outer-tspan row" dy="1.1em" text-anchor="middle"><tspan class="text-inner-tspan" font-style="normal" font-weight="normal">No</tspan></tspan></text></g></g></g><g class="nodes"><g id="ge88a5377-3bb6-411e-9373-60b8db1e9a28-light-flowchart-start-0" class="node default" data-look="classic"><g class="basic label-container outer-path"><path fill="#ececff" stroke="none" stroke-width="0" d="M191.94 8h61.75l1.088.035 1.085.105 1.076.173 1.062.243 1.045.31 1.023.376.996.442.966.504c.233.14.465.281.932.565l.894.623.852.68.807.732.758.783.706.83.652.873.594.913.535.95.473.982.409 1.01.343 1.034.277 1.054.208 1.07.14 1.08c.017.28.035.56.07 1.088v1.09l-.07 1.087-.14 1.081-.208 1.07-.277 1.054-.343 1.034-.409 1.01c-.095.198-.19.397-.473.982l-.535.95-.594.913-.652.873-.706.83-.758.783-.807.733-.852.679-.894.623-.932.565c-.219.115-.438.23-.966.504l-.996.442-1.023.376-1.045.31-1.062.243-1.076.173-1.085.105-1.089.035h-61.75l-1.09-.035-1.084-.105-1.076-.173-1.062-.243-1.045-.31-1.022-.376-.997-.442-.966-.504-.932-.565-.894-.623-.852-.68-.807-.732-.758-.783-.706-.83-.652-.873-.594-.913-.535-.95-.473-.982-.409-1.01-.343-1.034-.277-1.054-.208-1.07c-.05-.39-.1-.78-.14-1.08-.02-.333-.042-.666-.07-1.088v-1.09l.07-1.087.14-1.081.208-1.07.277-1.054.343-1.034.409-1.01.473-.982.535-.95.594-.913.652-.873.706-.83.758-.783.807-.733.852-.679.894-.623.932-.565.966-.504.997-.442 1.022-.376 1.045-.31 1.062-.243 1.076-.173 1.085-.105L191.94 8"/><path fill="none" stroke="#9370db" stroke-dasharray="0 0" stroke-width="1.3" d="M191.94 8h61.75m-61.75 0h61.75m0 0 1.088.035M253.69 8l1.09.035m0 0 1.084.105m-1.085-.105 1.085.105m0 0 1.076.173m-1.076-.173 1.076.173m0 0 1.062.243m-1.062-.243 1.062.243m0 0 1.045.31M258 8.556l1.045.31m0 0 1.023.376m-1.023-.376 1.023.376m0 0 .996.442m-.996-.442.996.442m0 0 .966.504m-.966-.504c.2.103.398.207.966.504m0 0 .932.565m-.932-.565.932.565m0 0 .894.623m-.894-.623.894.623m0 0 .852.68m-.852-.68.852.68m0 0 .807.732m-.807-.733.807.733m0 0 .758.783m-.758-.783c.22.228.44.456.758.783m0 0 .706.83m-.706-.83.706.83m0 0 .652.873m-.652-.873.652.873m0 0 .594.913m-.594-.913.594.913m0 0 .535.95m-.535-.95.535.95m0 0 .473.982m-.473-.982.473.982m0 0 .409 1.01m-.409-1.01.409 1.01m0 0 .343 1.034m-.343-1.034.343 1.034m0 0 .277 1.054m-.277-1.054.277 1.054m0 0 .208 1.07m-.208-1.07.208 1.07m0 0 .14 1.08m-.14-1.08.14 1.08m0 0 .07 1.088m-.07-1.087.07 1.087m0 0v1.09m0-1.09v1.09m0 0-.07 1.087m.07-1.087c-.025.38-.05.759-.07 1.087m0 0-.14 1.081m.14-1.08-.14 1.08m0 0-.208 1.07m.208-1.07-.208 1.07m0 0-.277 1.054m.277-1.054-.277 1.054m0 0-.343 1.034m.343-1.034c-.12.365-.242.73-.343 1.034m0 0-.409 1.01m.409-1.01-.409 1.01m0 0-.473.982m.473-.982-.473.982m0 0-.535.95m.535-.95-.535.95m0 0-.594.913m.594-.913-.594.913m0 0-.652.873m.652-.873-.652.873m0 0-.706.83m.706-.83-.706.83m0 0-.758.783m.758-.783-.758.783m0 0-.807.733m.807-.733c-.287.26-.574.52-.807.733m0 0-.852.679m.852-.68-.852.68m0 0-.894.623m.894-.623-.894.623m0 0-.932.565m.932-.565-.932.565m0 0-.966.504m.966-.504-.966.504m0 0-.996.442m.996-.442-.996.442m0 0-1.023.376m1.023-.376-1.023.376m0 0-1.045.31m1.045-.31-1.045.31m0 0-1.062.243m1.062-.243-1.062.243m0 0-1.076.173m1.076-.173-1.076.173m0 0-1.085.105m1.085-.105-1.085.105m0 0L253.69 42m1.09-.035-1.09.035m0 0h-61.75m61.75 0h-61.75m0 0-1.09-.035m1.09.035-1.09-.035m0 0-1.084-.105m1.085.105-1.085-.105m0 0-1.076-.173m1.076.173-1.076-.173m0 0-1.062-.243m1.062.243-1.062-.243m0 0-1.045-.31m1.045.31-1.045-.31m0 0-1.022-.376m1.022.376-1.022-.376m0 0-.997-.442m.997.442-.997-.442m0 0-.966-.504m.966.504c-.348-.18-.695-.362-.966-.504m0 0-.932-.565m.932.565-.932-.565m0 0-.894-.623m.894.623-.894-.623m0 0-.852-.68m.852.68-.852-.68m0 0-.807-.732m.807.733-.807-.733m0 0-.758-.783m.758.783-.758-.783m0 0-.706-.83m.706.83-.706-.83m0 0-.652-.873m.652.873-.652-.873m0 0-.594-.913m.594.913-.594-.913m0 0-.535-.95m.535.95-.535-.95m0 0-.473-.982m.473.982-.473-.982m0 0-.409-1.01m.409 1.01-.409-1.01m0 0-.343-1.034m.343 1.034-.343-1.034m0 0-.277-1.054m.277 1.054-.277-1.054m0 0-.208-1.07m.208 1.07-.208-1.07m0 0-.14-1.08m.14 1.08-.14-1.08m0 0-.07-1.088m.07 1.087c-.025-.399-.05-.798-.07-1.087m0 0v-1.09m0 1.09v-1.09m0 0 .07-1.087m-.07 1.087c.02-.295.039-.59.07-1.087m0 0 .14-1.081m-.14 1.08.14-1.08m0 0 .208-1.07m-.208 1.07.208-1.07m0 0 .277-1.054m-.277 1.054.277-1.054m0 0 .343-1.034m-.343 1.034.343-1.034m0 0 .409-1.01m-.409 1.01.409-1.01m0 0 .473-.982m-.473.982.473-.982m0 0 .535-.95m-.535.95.535-.95m0 0 .594-.913m-.594.913.594-.913m0 0 .652-.873m-.652.873.652-.873m0 0 .706-.83m-.706.83.706-.83m0 0 .758-.783m-.758.783.758-.783m0 0 .807-.733m-.807.733.807-.733m0 0 .852-.679m-.852.68.852-.68m0 0 .894-.623m-.894.623.894-.623m0 0 .932-.565m-.932.565.932-.565m0 0c.354-.185.707-.37.966-.504m-.966.504.966-.504m0 0 .997-.442m-.997.442.997-.442m0 0 1.022-.376m-1.022.376 1.022-.376m0 0 1.045-.31m-1.045.31 1.045-.31m0 0 1.062-.243m-1.062.243 1.062-.243m0 0 1.076-.173m-1.076.173 1.076-.173m0 0 1.085-.105m-1.085.105 1.085-.105m0 0L191.94 8m-1.09.035L191.94 8m0 0"/></g><g class="label" transform="translate(222.814 15.5)"><rect/><rect class="background" style="stroke:none"/><text y="-10.1"><tspan x="0" y="-.1em" class="text-outer-tspan row" dy="1.1em"><tspan class="text-inner-tspan" font-style="normal" font-weight="normal">Start</tspan><tspan class="text-inner-tspan" font-style="normal" font-weight="normal"> here</tspan></tspan></text></g></g><g id="ge88a5377-3bb6-411e-9373-60b8db1e9a28-light-flowchart-docsQ-1" class="node default" data-look="classic"><path d="M223.314 322.71 338.67 207.354 223.314 92 107.96 207.355z" class="label-container"/><g class="label" transform="translate(222.814 189.055)"><rect/><rect class="background" style="stroke:none"/><text y="-10.1"><tspan x="0" y="-.1em" class="text-outer-tspan row" dy="1.1em"><tspan class="text-inner-tspan" font-style="normal" font-weight="normal">Need</tspan><tspan class="text-inner-tspan" font-style="normal" font-weight="normal"> built-in</tspan><tspan class="text-inner-tspan" font-style="normal" font-weight="normal"> docs</tspan><tspan class="text-inner-tspan" font-style="normal" font-weight="normal"> nav,</tspan></tspan><tspan x="0" y="1em" class="text-outer-tspan row" dy="1.1em"><tspan class="text-inner-tspan" font-style="normal" font-weight="normal">search,</tspan><tspan class="text-inner-tspan" font-style="normal" font-weight="normal"> theme?</tspan></tspan></text></g></g><g id="ge88a5377-3bb6-411e-9373-60b8db1e9a28-light-flowchart-docs-3" class="node default" data-look="classic"><path d="M8 471.673h186.109v49H7.999z" class="basic label-container"/><g class="label" transform="translate(101.055 486.673)"><rect/><rect class="background" style="stroke:none"/><text y="-10.1"><tspan x="0" y="-.1em" class="text-outer-tspan row" dy="1.1em"><tspan class="text-inner-tspan" font-style="normal" font-weight="normal">@pagesmith/docs</tspan></tspan></text></g></g><g id="ge88a5377-3bb6-411e-9373-60b8db1e9a28-light-flowchart-hostQ-5" class="node default" data-look="classic"><path d="m345.073 596.637 100.465-100.464L345.073 395.71 244.61 496.173z" class="label-container"/><g class="label" transform="translate(344.573 477.873)"><rect/><rect class="background" style="stroke:none"/><text y="-10.1"><tspan x="0" y="-.1em" class="text-outer-tspan row" dy="1.1em"><tspan class="text-inner-tspan" font-style="normal" font-weight="normal">Host</tspan><tspan class="text-inner-tspan" font-style="normal" font-weight="normal"> owns</tspan><tspan class="text-inner-tspan" font-style="normal" font-weight="normal"> routing,</tspan></tspan><tspan x="0" y="1em" class="text-outer-tspan row" dy="1.1em"><tspan class="text-inner-tspan" font-style="normal" font-weight="normal">layout,</tspan><tspan class="text-inner-tspan" font-style="normal" font-weight="normal"> build?</tspan></tspan></text></g></g><g id="ge88a5377-3bb6-411e-9373-60b8db1e9a28-light-flowchart-core-7" class="node default" data-look="classic"><path d="M364.847 669.637h185.656v49H364.847z" class="basic label-container"/><g class="label" transform="translate(457.675 684.637)"><rect/><rect class="background" style="stroke:none"/><text y="-10.1"><tspan x="0" y="-.1em" class="text-outer-tspan row" dy="1.1em"><tspan class="text-inner-tspan" font-style="normal" font-weight="normal">@pagesmith/core</tspan></tspan></text></g></g><g id="ge88a5377-3bb6-411e-9373-60b8db1e9a28-light-flowchart-siteQ-8" class="node default" data-look="classic"><path d="m458.175 983.153 95.758-95.758-95.758-95.758-95.758 95.758z" class="label-container"/><g class="label" transform="translate(457.675 877.895)"><rect/><rect class="background" style="stroke:none"/><text y="-10.1"><tspan x="0" y="-.1em" class="text-outer-tspan row" dy="1.1em"><tspan class="text-inner-tspan" font-style="normal" font-weight="normal">Need</tspan><tspan class="text-inner-tspan" font-style="normal" font-weight="normal"> site</tspan><tspan class="text-inner-tspan" font-style="normal" font-weight="normal"> layer</tspan><tspan class="text-inner-tspan" font-style="normal" font-weight="normal"> too?</tspan></tspan></text></g></g><g id="ge88a5377-3bb6-411e-9373-60b8db1e9a28-light-flowchart-site-10" class="node default" data-look="classic"><path d="M109.67 1056.153h198.876v66.6H109.67z" class="basic label-container"/><g class="label" transform="translate(209.109 1071.153)"><rect/><rect class="background" style="stroke:none"/><text y="-10.1"><tspan x="0" y="-.1em" class="text-outer-tspan row" dy="1.1em"><tspan class="text-inner-tspan" font-style="normal" font-weight="normal">@pagesmith/site</tspan></tspan><tspan x="0" y="1em" class="text-outer-tspan row" dy="1.1em"><tspan class="text-inner-tspan" font-style="normal" font-weight="normal">+</tspan><tspan class="text-inner-tspan" font-style="normal" font-weight="normal"> @pagesmith/core</tspan></tspan></text></g></g><g id="ge88a5377-3bb6-411e-9373-60b8db1e9a28-light-flowchart-coreOnly-14" class="node default" data-look="classic"><path d="M358.546 1064.953H601.53v49H358.546z" class="basic label-container"/><g class="label" transform="translate(480.038 1079.953)"><rect/><rect class="background" style="stroke:none"/><text y="-10.1"><tspan x="0" y="-.1em" class="text-outer-tspan row" dy="1.1em"><tspan class="text-inner-tspan" font-style="normal" font-weight="normal">Stay</tspan><tspan class="text-inner-tspan" font-style="normal" font-weight="normal"> on</tspan><tspan class="text-inner-tspan" font-style="normal" font-weight="normal"> @pagesmith/core</tspan></tspan></text></g></g></g></g><defs><filter id="ge88a5377-3bb6-411e-9373-60b8db1e9a28-light-drop-shadow" width="130%" height="130%"><feDropShadow dx="4" dy="4" flood-color="#000" flood-opacity=".06" stdDeviation="0"/></filter></defs><defs><filter id="ge88a5377-3bb6-411e-9373-60b8db1e9a28-light-drop-shadow-small" width="150%" height="150%"><feDropShadow dx="2" dy="2" flood-color="#000" flood-opacity=".06" stdDeviation="0"/></filter></defs></svg>