<svg id="g0376749c-d42e-4e1b-b138-dbb8856ca410-dark" width="100%" xmlns="http://www.w3.org/2000/svg" xmlns:xlink="http://www.w3.org/1999/xlink" class="flowchart" style="max-width: 715.0015869140625px;" viewBox="0 0 715.0015869140625 1468.5843505859375" role="graphics-document document" aria-roledescription="flowchart-v2"><rect x="0" y="0" width="715.0015869140625" height="1468.5843505859375" fill="#111111"/><style>#g0376749c-d42e-4e1b-b138-dbb8856ca410-dark{font-family:"trebuchet ms",verdana,arial,sans-serif;font-size:16px;fill:#e5e5e5;}@keyframes edge-animation-frame{from{stroke-dashoffset:0;}}@keyframes dash{to{stroke-dashoffset:0;}}#g0376749c-d42e-4e1b-b138-dbb8856ca410-dark .edge-animation-slow{stroke-dasharray:9,5!important;stroke-dashoffset:900;animation:dash 50s linear infinite;stroke-linecap:round;}#g0376749c-d42e-4e1b-b138-dbb8856ca410-dark .edge-animation-fast{stroke-dasharray:9,5!important;stroke-dashoffset:900;animation:dash 20s linear infinite;stroke-linecap:round;}#g0376749c-d42e-4e1b-b138-dbb8856ca410-dark .error-icon{fill:#252525;}#g0376749c-d42e-4e1b-b138-dbb8856ca410-dark .error-text{fill:#cccccc;stroke:#cccccc;}#g0376749c-d42e-4e1b-b138-dbb8856ca410-dark .edge-thickness-normal{stroke-width:1px;}#g0376749c-d42e-4e1b-b138-dbb8856ca410-dark .edge-thickness-thick{stroke-width:3.5px;}#g0376749c-d42e-4e1b-b138-dbb8856ca410-dark .edge-pattern-solid{stroke-dasharray:0;}#g0376749c-d42e-4e1b-b138-dbb8856ca410-dark .edge-thickness-invisible{stroke-width:0;fill:none;}#g0376749c-d42e-4e1b-b138-dbb8856ca410-dark .edge-pattern-dashed{stroke-dasharray:3;}#g0376749c-d42e-4e1b-b138-dbb8856ca410-dark .edge-pattern-dotted{stroke-dasharray:2;}#g0376749c-d42e-4e1b-b138-dbb8856ca410-dark .marker{fill:#cccccc;stroke:#cccccc;}#g0376749c-d42e-4e1b-b138-dbb8856ca410-dark .marker.cross{stroke:#cccccc;}#g0376749c-d42e-4e1b-b138-dbb8856ca410-dark svg{font-family:"trebuchet ms",verdana,arial,sans-serif;font-size:16px;}#g0376749c-d42e-4e1b-b138-dbb8856ca410-dark p{margin:0;}#g0376749c-d42e-4e1b-b138-dbb8856ca410-dark .label{font-family:"trebuchet ms",verdana,arial,sans-serif;color:#e5e5e5;}#g0376749c-d42e-4e1b-b138-dbb8856ca410-dark .cluster-label text{fill:#e5e5e5;}#g0376749c-d42e-4e1b-b138-dbb8856ca410-dark .cluster-label span{color:#e5e5e5;}#g0376749c-d42e-4e1b-b138-dbb8856ca410-dark .cluster-label span p{background-color:transparent;}#g0376749c-d42e-4e1b-b138-dbb8856ca410-dark .label text,#g0376749c-d42e-4e1b-b138-dbb8856ca410-dark span{fill:#e5e5e5;color:#e5e5e5;}#g0376749c-d42e-4e1b-b138-dbb8856ca410-dark .node rect,#g0376749c-d42e-4e1b-b138-dbb8856ca410-dark .node circle,#g0376749c-d42e-4e1b-b138-dbb8856ca410-dark .node ellipse,#g0376749c-d42e-4e1b-b138-dbb8856ca410-dark .node polygon,#g0376749c-d42e-4e1b-b138-dbb8856ca410-dark .node path{fill:#2d2d2d;stroke:#555555;stroke-width:1px;}#g0376749c-d42e-4e1b-b138-dbb8856ca410-dark .rough-node .label text,#g0376749c-d42e-4e1b-b138-dbb8856ca410-dark .node .label text,#g0376749c-d42e-4e1b-b138-dbb8856ca410-dark .image-shape .label,#g0376749c-d42e-4e1b-b138-dbb8856ca410-dark .icon-shape .label{text-anchor:middle;}#g0376749c-d42e-4e1b-b138-dbb8856ca410-dark .node .katex path{fill:#000;stroke:#000;stroke-width:1px;}#g0376749c-d42e-4e1b-b138-dbb8856ca410-dark .rough-node .label,#g0376749c-d42e-4e1b-b138-dbb8856ca410-dark .node .label,#g0376749c-d42e-4e1b-b138-dbb8856ca410-dark .image-shape .label,#g0376749c-d42e-4e1b-b138-dbb8856ca410-dark .icon-shape .label{text-align:center;}#g0376749c-d42e-4e1b-b138-dbb8856ca410-dark .node.clickable{cursor:pointer;}#g0376749c-d42e-4e1b-b138-dbb8856ca410-dark .root .anchor path{fill:#cccccc!important;stroke-width:0;stroke:#cccccc;}#g0376749c-d42e-4e1b-b138-dbb8856ca410-dark .arrowheadPath{fill:#cccccc;}#g0376749c-d42e-4e1b-b138-dbb8856ca410-dark .edgePath .path{stroke:#cccccc;stroke-width:1px;}#g0376749c-d42e-4e1b-b138-dbb8856ca410-dark .flowchart-link{stroke:#cccccc;fill:none;}#g0376749c-d42e-4e1b-b138-dbb8856ca410-dark .edgeLabel{background-color:#1e1e1e;text-align:center;}#g0376749c-d42e-4e1b-b138-dbb8856ca410-dark .edgeLabel p{background-color:#1e1e1e;}#g0376749c-d42e-4e1b-b138-dbb8856ca410-dark .edgeLabel rect{opacity:0.5;background-color:#1e1e1e;fill:#1e1e1e;}#g0376749c-d42e-4e1b-b138-dbb8856ca410-dark .labelBkg{background-color:rgba(30, 30, 30, 0.5);}#g0376749c-d42e-4e1b-b138-dbb8856ca410-dark .cluster rect{fill:#1e1e1e;stroke:#555555;stroke-width:1px;}#g0376749c-d42e-4e1b-b138-dbb8856ca410-dark .cluster text{fill:#e5e5e5;}#g0376749c-d42e-4e1b-b138-dbb8856ca410-dark .cluster span{color:#e5e5e5;}#g0376749c-d42e-4e1b-b138-dbb8856ca410-dark div.mermaidTooltip{position:absolute;text-align:center;max-width:200px;padding:2px;font-family:"trebuchet ms",verdana,arial,sans-serif;font-size:12px;background:#252525;border:1px solid #555555;border-radius:2px;pointer-events:none;z-index:100;}#g0376749c-d42e-4e1b-b138-dbb8856ca410-dark .flowchartTitleText{text-anchor:middle;font-size:18px;fill:#e5e5e5;}#g0376749c-d42e-4e1b-b138-dbb8856ca410-dark rect.text{fill:none;stroke-width:0;}#g0376749c-d42e-4e1b-b138-dbb8856ca410-dark .icon-shape,#g0376749c-d42e-4e1b-b138-dbb8856ca410-dark .image-shape{background-color:#1e1e1e;text-align:center;}#g0376749c-d42e-4e1b-b138-dbb8856ca410-dark .icon-shape p,#g0376749c-d42e-4e1b-b138-dbb8856ca410-dark .image-shape p{background-color:#1e1e1e;padding:2px;}#g0376749c-d42e-4e1b-b138-dbb8856ca410-dark .icon-shape .label rect,#g0376749c-d42e-4e1b-b138-dbb8856ca410-dark .image-shape .label rect{opacity:0.5;background-color:#1e1e1e;fill:#1e1e1e;}#g0376749c-d42e-4e1b-b138-dbb8856ca410-dark .label-icon{display:inline-block;height:1em;overflow:visible;vertical-align:-0.125em;}#g0376749c-d42e-4e1b-b138-dbb8856ca410-dark .node .label-icon path{fill:currentColor;stroke:revert;stroke-width:revert;}#g0376749c-d42e-4e1b-b138-dbb8856ca410-dark .node .neo-node{stroke:#555555;}#g0376749c-d42e-4e1b-b138-dbb8856ca410-dark [data-look="neo"].node rect,#g0376749c-d42e-4e1b-b138-dbb8856ca410-dark [data-look="neo"].cluster rect,#g0376749c-d42e-4e1b-b138-dbb8856ca410-dark [data-look="neo"].node polygon{stroke:url(#g0376749c-d42e-4e1b-b138-dbb8856ca410-dark-gradient);filter:drop-shadow( 1px 2px 2px rgba(185,185,185,1));}#g0376749c-d42e-4e1b-b138-dbb8856ca410-dark [data-look="neo"].node path{stroke:url(#g0376749c-d42e-4e1b-b138-dbb8856ca410-dark-gradient);stroke-width:1px;}#g0376749c-d42e-4e1b-b138-dbb8856ca410-dark [data-look="neo"].node .outer-path{filter:drop-shadow( 1px 2px 2px rgba(185,185,185,1));}#g0376749c-d42e-4e1b-b138-dbb8856ca410-dark [data-look="neo"].node .neo-line path{stroke:#555555;filter:none;}#g0376749c-d42e-4e1b-b138-dbb8856ca410-dark [data-look="neo"].node circle{stroke:url(#g0376749c-d42e-4e1b-b138-dbb8856ca410-dark-gradient);filter:drop-shadow( 1px 2px 2px rgba(185,185,185,1));}#g0376749c-d42e-4e1b-b138-dbb8856ca410-dark [data-look="neo"].node circle .state-start{fill:#000000;}#g0376749c-d42e-4e1b-b138-dbb8856ca410-dark [data-look="neo"].icon-shape .icon{fill:url(#g0376749c-d42e-4e1b-b138-dbb8856ca410-dark-gradient);filter:drop-shadow( 1px 2px 2px rgba(185,185,185,1));}#g0376749c-d42e-4e1b-b138-dbb8856ca410-dark [data-look="neo"].icon-shape .icon-neo path{stroke:url(#g0376749c-d42e-4e1b-b138-dbb8856ca410-dark-gradient);filter:drop-shadow( 1px 2px 2px rgba(185,185,185,1));}#g0376749c-d42e-4e1b-b138-dbb8856ca410-dark :root{--mermaid-font-family:"trebuchet ms",verdana,arial,sans-serif;}</style><g><marker id="g0376749c-d42e-4e1b-b138-dbb8856ca410-dark_flowchart-v2-pointEnd" class="marker flowchart-v2" viewBox="0 0 10 10" refX="5" refY="5" markerUnits="userSpaceOnUse" markerWidth="8" markerHeight="8" orient="auto"><path d="M 0 0 L 10 5 L 0 10 z" class="arrowMarkerPath" style="stroke-width: 1; stroke-dasharray: 1, 0;"></path></marker><marker id="g0376749c-d42e-4e1b-b138-dbb8856ca410-dark_flowchart-v2-pointStart" class="marker flowchart-v2" viewBox="0 0 10 10" refX="4.5" refY="5" markerUnits="userSpaceOnUse" markerWidth="8" markerHeight="8" orient="auto"><path d="M 0 5 L 10 10 L 10 0 z" class="arrowMarkerPath" style="stroke-width: 1; stroke-dasharray: 1, 0;"></path></marker><marker id="g0376749c-d42e-4e1b-b138-dbb8856ca410-dark_flowchart-v2-pointEnd-margin" class="marker flowchart-v2" viewBox="0 0 11.5 14" refX="11.5" refY="7" markerUnits="userSpaceOnUse" markerWidth="10.5" markerHeight="14" orient="auto"><path d="M 0 0 L 11.5 7 L 0 14 z" class="arrowMarkerPath" style="stroke-width: 0; stroke-dasharray: 1, 0;"></path></marker><marker id="g0376749c-d42e-4e1b-b138-dbb8856ca410-dark_flowchart-v2-pointStart-margin" class="marker flowchart-v2" viewBox="0 0 11.5 14" refX="1" refY="7" markerUnits="userSpaceOnUse" markerWidth="11.5" markerHeight="14" orient="auto"><polygon points="0,7 11.5,14 11.5,0" class="arrowMarkerPath" style="stroke-width: 0; stroke-dasharray: 1, 0;"></polygon></marker><marker id="g0376749c-d42e-4e1b-b138-dbb8856ca410-dark_flowchart-v2-circleEnd" class="marker flowchart-v2" viewBox="0 0 10 10" refX="11" refY="5" markerUnits="userSpaceOnUse" markerWidth="11" markerHeight="11" orient="auto"><circle cx="5" cy="5" r="5" class="arrowMarkerPath" style="stroke-width: 1; stroke-dasharray: 1, 0;"></circle></marker><marker id="g0376749c-d42e-4e1b-b138-dbb8856ca410-dark_flowchart-v2-circleStart" class="marker flowchart-v2" viewBox="0 0 10 10" refX="-1" refY="5" markerUnits="userSpaceOnUse" markerWidth="11" markerHeight="11" orient="auto"><circle cx="5" cy="5" r="5" class="arrowMarkerPath" style="stroke-width: 1; stroke-dasharray: 1, 0;"></circle></marker><marker id="g0376749c-d42e-4e1b-b138-dbb8856ca410-dark_flowchart-v2-circleEnd-margin" class="marker flowchart-v2" viewBox="0 0 10 10" refY="5" refX="12.25" markerUnits="userSpaceOnUse" markerWidth="14" markerHeight="14" orient="auto"><circle cx="5" cy="5" r="5" class="arrowMarkerPath" style="stroke-width: 0; stroke-dasharray: 1, 0;"></circle></marker><marker id="g0376749c-d42e-4e1b-b138-dbb8856ca410-dark_flowchart-v2-circleStart-margin" class="marker flowchart-v2" viewBox="0 0 10 10" refX="-2" refY="5" markerUnits="userSpaceOnUse" markerWidth="14" markerHeight="14" orient="auto"><circle cx="5" cy="5" r="5" class="arrowMarkerPath" style="stroke-width: 0; stroke-dasharray: 1, 0;"></circle></marker><marker id="g0376749c-d42e-4e1b-b138-dbb8856ca410-dark_flowchart-v2-crossEnd" class="marker cross flowchart-v2" viewBox="0 0 11 11" refX="12" refY="5.2" markerUnits="userSpaceOnUse" markerWidth="11" markerHeight="11" orient="auto"><path d="M 1,1 l 9,9 M 10,1 l -9,9" class="arrowMarkerPath" style="stroke-width: 2; stroke-dasharray: 1, 0;"></path></marker><marker id="g0376749c-d42e-4e1b-b138-dbb8856ca410-dark_flowchart-v2-crossStart" class="marker cross flowchart-v2" viewBox="0 0 11 11" refX="-1" refY="5.2" markerUnits="userSpaceOnUse" markerWidth="11" markerHeight="11" orient="auto"><path d="M 1,1 l 9,9 M 10,1 l -9,9" class="arrowMarkerPath" style="stroke-width: 2; stroke-dasharray: 1, 0;"></path></marker><marker id="g0376749c-d42e-4e1b-b138-dbb8856ca410-dark_flowchart-v2-crossEnd-margin" class="marker cross flowchart-v2" viewBox="0 0 15 15" refX="17.7" refY="7.5" markerUnits="userSpaceOnUse" markerWidth="12" markerHeight="12" orient="auto"><path d="M 1,1 L 14,14 M 1,14 L 14,1" class="arrowMarkerPath" style="stroke-width: 2.5;"></path></marker><marker id="g0376749c-d42e-4e1b-b138-dbb8856ca410-dark_flowchart-v2-crossStart-margin" class="marker cross flowchart-v2" viewBox="0 0 15 15" refX="-3.5" refY="7.5" markerUnits="userSpaceOnUse" markerWidth="12" markerHeight="12" orient="auto"><path d="M 1,1 L 14,14 M 1,14 L 14,1" class="arrowMarkerPath" style="stroke-width: 2.5; stroke-dasharray: 1, 0;"></path></marker><g class="root"><g class="clusters"></g><g class="edgePaths"><path d="M280.942,42.5L280.859,46.583C280.776,50.667,280.609,58.833,280.526,66.417C280.442,74,280.442,81,280.442,84.5L280.442,88" id="g0376749c-d42e-4e1b-b138-dbb8856ca410-dark-L_start_docsQ_0" class="edge-thickness-normal edge-pattern-solid edge-thickness-normal edge-pattern-solid flowchart-link" style=";" data-edge="true" data-et="edge" data-id="L_start_docsQ_0" data-points="W3sieCI6MjgwLjk0MjE4NDQ0ODI0MjIsInkiOjQyLjV9LHsieCI6MjgwLjQ0MjE4NDQ0ODI0MjIsInkiOjY3fSx7IngiOjI4MC40NDIxODQ0NDgyNDIyLCJ5Ijo5MS45OTk5OTk5OTk5OTk5N31d" data-look="classic" marker-end="url(#g0376749c-d42e-4e1b-b138-dbb8856ca410-dark_flowchart-v2-pointEnd)"></path><path d="M216.2,298.058L200.989,314.849C185.777,331.639,155.353,365.219,140.141,402.959C124.93,440.698,124.93,482.597,124.93,503.546L124.93,524.495" id="g0376749c-d42e-4e1b-b138-dbb8856ca410-dark-L_docsQ_docs_0" class="edge-thickness-normal edge-pattern-solid edge-thickness-normal edge-pattern-solid flowchart-link" style=";" data-edge="true" data-et="edge" data-id="L_docsQ_docs_0" data-points="W3sieCI6MjE2LjIwMDM2Mjc0MTI1MTMsInkiOjI5OC4wNTgxOTY2MDM1NTZ9LHsieCI6MTI0LjkyOTY4NzUsInkiOjM5OC44MDAwMTgzMTA1NDY5fSx7IngiOjEyNC45Mjk2ODc1LCJ5Ijo1MjguNDk1MzIzMTgxMTUyM31d" data-look="classic" marker-end="url(#g0376749c-d42e-4e1b-b138-dbb8856ca410-dark_flowchart-v2-pointEnd)"></path><path d="M344.684,298.058L359.896,314.849C375.108,331.639,405.531,365.219,420.743,387.426C435.955,409.633,435.955,420.467,435.955,425.883L435.955,431.3" id="g0376749c-d42e-4e1b-b138-dbb8856ca410-dark-L_docsQ_hostQ_0" class="edge-thickness-normal edge-pattern-solid edge-thickness-normal edge-pattern-solid flowchart-link" style=";" data-edge="true" data-et="edge" data-id="L_docsQ_hostQ_0" data-points="W3sieCI6MzQ0LjY4NDAwNjE1NTIzMzEsInkiOjI5OC4wNTgxOTY2MDM1NTZ9LHsieCI6NDM1Ljk1NDY4MTM5NjQ4NDQsInkiOjM5OC44MDAwMTgzMTA1NDY5fSx7IngiOjQzNS45NTQ2ODEzOTY0ODQzLCJ5Ijo0MzUuMzAwMDE4MzEwNTQ2OH1d" data-look="classic" marker-end="url(#g0376749c-d42e-4e1b-b138-dbb8856ca410-dark_flowchart-v2-pointEnd)"></path><path d="M495.501,663.944L506.776,679.952C518.05,695.959,540.598,727.975,551.872,749.4C563.146,770.824,563.146,781.657,563.146,787.074L563.146,792.491" id="g0376749c-d42e-4e1b-b138-dbb8856ca410-dark-L_hostQ_core_0" class="edge-thickness-normal edge-pattern-solid edge-thickness-normal edge-pattern-solid flowchart-link" style=";" data-edge="true" data-et="edge" data-id="L_hostQ_core_0" data-points="W3sieCI6NDk1LjUwMTM4NjYzNTk3OTc3LCJ5Ijo2NjMuOTQzOTI1ODY0MDIwMn0seyJ4Ijo1NjMuMTQ2MDg3NjQ2NDg0NCwieSI6NzU5Ljk5MDYzMTEwMzUxNTZ9LHsieCI6NTYzLjE0NjA4NzY0NjQ4NDQsInkiOjc5Ni40OTA2MzExMDM1MTU2fV0=" data-look="classic" marker-end="url(#g0376749c-d42e-4e1b-b138-dbb8856ca410-dark_flowchart-v2-pointEnd)"></path><path d="M366.894,654.43L350.701,672.023C334.508,689.617,302.122,724.804,285.929,758.43C269.736,792.057,269.736,824.124,269.736,856.191C269.736,888.257,269.736,920.324,269.736,964.248C269.736,1008.173,269.736,1063.955,269.736,1119.738C269.736,1175.52,269.736,1231.302,270.597,1264.618C271.458,1297.934,273.18,1308.784,274.041,1314.209L274.902,1319.634" id="g0376749c-d42e-4e1b-b138-dbb8856ca410-dark-L_hostQ_site_0" class="edge-thickness-normal edge-pattern-solid edge-thickness-normal edge-pattern-solid flowchart-link" style=";" data-edge="true" data-et="edge" data-id="L_hostQ_site_0" data-points="W3sieCI6MzY2Ljg5MzYzNDc5NzE4MjIsInkiOjY1NC40Mjk1ODQ1MDQyMTM0fSx7IngiOjI2OS43MzU5MzEzOTY0ODQ0LCJ5Ijo3NTkuOTkwNjMxMTAzNTE1Nn0seyJ4IjoyNjkuNzM1OTMxMzk2NDg0NCwieSI6ODU2LjE5MDYzMTg2NjQ1NTF9LHsieCI6MjY5LjczNTkzMTM5NjQ4NDQsInkiOjk1Mi4zOTA2MzI2MjkzOTQ1fSx7IngiOjI2OS43MzU5MzEzOTY0ODQ0LCJ5IjoxMTE5LjczNzUxMDY4MTE1MjN9LHsieCI6MjY5LjczNTkzMTM5NjQ4NDQsInkiOjEyODcuMDg0Mzg4NzMyOTEwMn0seyJ4IjoyNzUuNTI4Njc2OTMyMTk4NjYsInkiOjEzMjMuNTg0Mzg4NzMyOTEwMn1d" data-look="classic" marker-end="url(#g0376749c-d42e-4e1b-b138-dbb8856ca410-dark_flowchart-v2-pointEnd)"></path><path d="M563.146,915.891L563.146,921.974C563.146,928.057,563.146,940.224,563.146,951.724C563.146,963.224,563.146,974.057,563.146,979.474L563.146,984.891" id="g0376749c-d42e-4e1b-b138-dbb8856ca410-dark-L_core_siteQ_0" class="edge-thickness-normal edge-pattern-solid edge-thickness-normal edge-pattern-solid flowchart-link" style=";" data-edge="true" data-et="edge" data-id="L_core_siteQ_0" data-points="W3sieCI6NTYzLjE0NjA4NzY0NjQ4NDQsInkiOjkxNS44OTA2MzI2MjkzOTQ1fSx7IngiOjU2My4xNDYwODc2NDY0ODQ0LCJ5Ijo5NTIuMzkwNjMyNjI5Mzk0NX0seyJ4Ijo1NjMuMTQ2MDg3NjQ2NDg0NCwieSI6OTg4Ljg5MDYzMjYyOTM5NDR9XQ==" data-look="classic" marker-end="url(#g0376749c-d42e-4e1b-b138-dbb8856ca410-dark_flowchart-v2-pointEnd)"></path><path d="M501.396,1188.834L486.762,1205.209C472.128,1221.584,442.86,1254.334,421.371,1276.368C399.882,1298.402,386.172,1309.72,379.317,1315.379L372.462,1321.038" id="g0376749c-d42e-4e1b-b138-dbb8856ca410-dark-L_siteQ_site_0" class="edge-thickness-normal edge-pattern-solid edge-thickness-normal edge-pattern-solid flowchart-link" style=";" data-edge="true" data-et="edge" data-id="L_siteQ_site_0" data-points="W3sieCI6NTAxLjM5NTc5NjQzNzU3MiwieSI6MTE4OC44MzQwOTc1MjM5OTh9LHsieCI6NDEzLjU5MTQwMDE0NjQ4NDQsInkiOjEyODcuMDg0Mzg4NzMyOTEwMn0seyJ4IjozNjkuMzc3MjQ0NjQwNTMyLCJ5IjoxMzIzLjU4NDM4ODczMjkxMDJ9XQ==" data-look="classic" marker-end="url(#g0376749c-d42e-4e1b-b138-dbb8856ca410-dark_flowchart-v2-pointEnd)"></path><path d="M578.57,1235.16L579.727,1243.814C580.883,1252.468,583.196,1269.776,584.353,1291.18C585.509,1312.584,585.509,1338.084,585.509,1350.834L585.509,1363.584" id="g0376749c-d42e-4e1b-b138-dbb8856ca410-dark-L_siteQ_coreOnly_0" class="edge-thickness-normal edge-pattern-solid edge-thickness-normal edge-pattern-solid flowchart-link" style=";" data-edge="true" data-et="edge" data-id="L_siteQ_coreOnly_0" data-points="W3sieCI6NTc4LjU3MDQ4ODQ1NTIwMTcsInkiOjEyMzUuMTU5OTg3OTI0MTkzfSx7IngiOjU4NS41MDkzNjg4OTY0ODQ0LCJ5IjoxMjg3LjA4NDM4ODczMjkxMDJ9LHsieCI6NTg1LjUwOTM2ODg5NjQ4NDQsInkiOjEzNjcuNTg0Mzg4NzMyOTEwMn1d" data-look="classic" marker-end="url(#g0376749c-d42e-4e1b-b138-dbb8856ca410-dark_flowchart-v2-pointEnd)"></path></g><g class="edgeLabels"><g class="edgeLabel"><g class="label" data-id="L_start_docsQ_0" transform="translate(0, 0)"><text y="-10.1" text-anchor="middle"><tspan class="text-outer-tspan row" x="0" y="-0.1em" dy="1.1em" text-anchor="middle"></tspan></text></g></g><g><rect class="background" style="stroke: none"></rect></g><g class="edgeLabel" transform="translate(124.9296875, 398.8000183105469)"><g class="label" data-id="L_docsQ_docs_0" transform="translate(0, -10.5)"><g><rect class="background" style="" x="-13.328125" y="-1" width="26.65625" height="23"></rect><text y="-10.1" text-anchor="middle" style=""><tspan class="text-outer-tspan row" x="0" y="-0.1em" dy="1.1em" text-anchor="middle"><tspan font-style="normal" class="text-inner-tspan" font-weight="normal">Yes</tspan></tspan></text></g></g></g><g class="edgeLabel" transform="translate(435.9546813964844, 398.8000183105469)"><g class="label" data-id="L_docsQ_hostQ_0" transform="translate(0, -10.5)"><g><rect class="background" style="" x="-11.3984375" y="-1" width="22.796875" height="23"></rect><text y="-10.1" text-anchor="middle" style=""><tspan class="text-outer-tspan row" x="0" y="-0.1em" dy="1.1em" text-anchor="middle"><tspan font-style="normal" class="text-inner-tspan" font-weight="normal">No</tspan></tspan></text></g></g></g><g class="edgeLabel" transform="translate(563.1460876464844, 759.9906311035156)"><g class="label" data-id="L_hostQ_core_0" transform="translate(0, -10.5)"><g><rect class="background" style="" x="-13.328125" y="-1" width="26.65625" height="23"></rect><text y="-10.1" text-anchor="middle" style=""><tspan class="text-outer-tspan row" x="0" y="-0.1em" dy="1.1em" text-anchor="middle"><tspan font-style="normal" class="text-inner-tspan" font-weight="normal">Yes</tspan></tspan></text></g></g></g><g class="edgeLabel" transform="translate(269.7359313964844, 952.3906326293945)"><g class="label" data-id="L_hostQ_site_0" transform="translate(0, -10.5)"><g><rect class="background" style="" x="-11.3984375" y="-1" width="22.796875" height="23"></rect><text y="-10.1" text-anchor="middle" style=""><tspan class="text-outer-tspan row" x="0" y="-0.1em" dy="1.1em" text-anchor="middle"><tspan font-style="normal" class="text-inner-tspan" font-weight="normal">No</tspan></tspan></text></g></g></g><g class="edgeLabel"><g class="label" data-id="L_core_siteQ_0" transform="translate(0, 0)"><text y="-10.1" text-anchor="middle"><tspan class="text-outer-tspan row" x="0" y="-0.1em" dy="1.1em" text-anchor="middle"></tspan></text></g></g><g><rect class="background" style="stroke: none"></rect></g><g class="edgeLabel" transform="translate(438.39126, 1259.33414)"><g class="label" data-id="L_siteQ_site_0" transform="translate(0, -10.5)"><g><rect class="background" style="" x="-13.328125" y="-1" width="26.65625" height="23"></rect><text y="-10.1" text-anchor="middle" style=""><tspan class="text-outer-tspan row" x="0" y="-0.1em" dy="1.1em" text-anchor="middle"><tspan font-style="normal" class="text-inner-tspan" font-weight="normal">Yes</tspan></tspan></text></g></g></g><g class="edgeLabel" transform="translate(585.5093688964844, 1287.0843887329102)"><g class="label" data-id="L_siteQ_coreOnly_0" transform="translate(0, -10.5)"><g><rect class="background" style="" x="-11.3984375" y="-1" width="22.796875" height="23"></rect><text y="-10.1" text-anchor="middle" style=""><tspan class="text-outer-tspan row" x="0" y="-0.1em" dy="1.1em" text-anchor="middle"><tspan font-style="normal" class="text-inner-tspan" font-weight="normal">No</tspan></tspan></text></g></g></g></g><g class="nodes"><g class="node default" id="g0376749c-d42e-4e1b-b138-dbb8856ca410-dark-flowchart-start-0" data-look="classic" transform="translate(280.4421844482422, 25)"><g class="basic label-container outer-path"><path d="M-30.875 -17 C-15.1836291689826 -17, 0.5077416620347996 -17, 30.875 -17 C30.875 -17, 30.875 -17, 30.875 -17 C31.202141446474748 -16.989509210553752, 31.529282892949492 -16.9790184211075, 31.96419373967212 -16.965071676755716 C32.21766123098618 -16.940619972707907, 32.47112872230024 -16.916168268660098, 33.0489117486366 -16.860430234995185 C33.44204418493357 -16.79687163148227, 33.835176621230545 -16.733313027969352, 34.124696687923326 -16.686505668848113 C34.35754376489193 -16.63335984299921, 34.590390841860525 -16.580214017150304, 35.18712792646162 -16.4440126716635 C35.41388839708235 -16.376711354273265, 35.64064886770309 -16.309410036883033, 36.23183970640155 -16.133947699181366 C36.5291237560849 -16.024544420834264, 36.82640780576825 -15.91514114248716, 37.25453908294936 -15.757584874882369 C37.45647056759264 -15.668195796715452, 37.65840205223592 -15.578806718548535, 38.25102356499849 -15.316470754341125 C38.544237715341325 -15.163501119919895, 38.83745186568416 -15.010531485498666, 39.21719838406694 -14.812417970097622 C39.46645848692768 -14.661315030928483, 39.71571858978842 -14.510212091759346, 40.149093320579325 -14.247497783161291 C40.433921049272236 -14.04881428961877, 40.718748777965146 -13.850130796076249, 41.042879018350675 -13.624031571755262 C41.335854325098744 -13.390391561024018, 41.62882963184681 -13.156751550292775, 41.8948827202324 -12.944581292275288 C42.1960019443893 -12.671112780074074, 42.4971211685462 -12.397644267872861, 42.70160336025927 -12.21193895166137 C42.89226002886899 -12.015070288118231, 43.08291669747871 -11.81820162457509, 43.45972595028036 -11.42911513444239 C43.64406214471797 -11.212583351429368, 43.828398339155584 -10.996051568416346, 44.16613520195651 -10.59932663159847 C44.40150385280363 -10.283954081988538, 44.63687250365074 -9.968581532378606, 44.81792832814825 -9.725983222076888 C44.976751261721134 -9.481988546179716, 45.13557419529402 -9.237993870282544, 45.41242697109088 -8.812673661278927 C45.61036158227676 -8.461220716065625, 45.80829619346264 -8.109767770852324, 45.947188208341004 -7.863150934094199 C46.0554381459053 -7.638367622564324, 46.16368808346959 -7.413584311034449, 46.42001459126881 -6.881316833080699 C46.50278978225312 -6.676860511000014, 46.585564973237425 -6.47240418891933, 46.828963174845924 -5.871205925162238 C46.91322245778527 -5.6174303898425375, 46.997481740724616 -5.363654854522836, 47.172353501623235 -4.836968972727556 C47.25505040555432 -4.521609836973439, 47.33774730948541 -4.206250701219321, 47.448774507091 -3.7828558772573464 C47.49718488479232 -3.5342788192980237, 47.545595262493634 -3.285701761338701, 47.65709031804565 -2.713198215567453 C47.70163841415807 -2.3676919791361115, 47.74618651027049 -2.02218574270477, 47.796444920136366 -1.632391440430593 C47.81122031654256 -1.402252714918844, 47.82599571294875 -1.1721139894070949, 47.8662656754117 -0.5448768187181379 C47.8662656754117 -0.30402106995091194, 47.8662656754117 -0.06316532118368595, 47.8662656754117 0.5448768187181336 C47.84501374266774 0.8758928254565648, 47.82376180992379 1.206908832194996, 47.796444920136366 1.6323914404305815 C47.76209959935367 1.8987669661704671, 47.72775427857098 2.165142491910353, 47.657090318045654 2.7131982155674415 C47.59995551503871 3.0065733535632346, 47.542820712031755 3.299948491559028, 47.448774507091 3.782855877257343 C47.36975803687187 4.084179924157724, 47.290741566652734 4.385503971058105, 47.172353501623235 4.836968972727545 C47.038640675214005 5.239690701626435, 46.90492784880477 5.642412430525325, 46.828963174845924 5.871205925162227 C46.674021626361835 6.253914545508976, 46.51908007787775 6.636623165855724, 46.42001459126881 6.881316833080694 C46.31734665435942 7.0945090008149885, 46.21467871745003 7.307701168549283, 45.947188208341004 7.863150934094196 C45.80974366324988 8.107197641672869, 45.672299118158755 8.351244349251541, 45.41242697109089 8.812673661278923 C45.28134609515366 9.014049086862187, 45.15026521921642 9.215424512445448, 44.817928328148255 9.725983222076879 C44.66483580441679 9.931113256861217, 44.511743280685316 10.136243291645554, 44.16613520195651 10.599326631598467 C43.9407765500518 10.864045727396299, 43.715417898147095 11.12876482319413, 43.45972595028037 11.42911513444238 C43.28152402383792 11.613123254144469, 43.103322097395456 11.79713137384656, 42.70160336025927 12.211938951661365 C42.52472722744249 12.372573175599543, 42.3478510946257 12.533207399537723, 41.89488272023242 12.944581292275275 C41.60634094450357 13.174685679999905, 41.31779916877473 13.404790067724534, 41.042879018350675 13.62403157175526 C40.69086522460834 13.869581155838382, 40.33885143086601 14.115130739921506, 40.14909332057934 14.247497783161286 C39.93910454660575 14.37479421197509, 39.72911577263215 14.502090640788895, 39.21719838406695 14.81241797009762 C38.87512931085015 14.990875186489124, 38.53306023763335 15.169332402880627, 38.25102356499849 15.316470754341124 C37.888001039086454 15.477170057881763, 37.52497851317442 15.637869361422402, 37.254539082949364 15.757584874882367 C36.941626122976615 15.872739736688033, 36.62871316300386 15.9878945984937, 36.23183970640156 16.133947699181363 C35.873784664648554 16.24021655610439, 35.51572962289555 16.346485413027413, 35.18712792646164 16.444012671663497 C34.816110103141845 16.52869506871868, 34.44509227982204 16.61337746577386, 34.12469668792333 16.68650566884811 C33.753683048433665 16.74648827682705, 33.382669408944 16.806470884805996, 33.04891174863661 16.86043023499518 C32.815352732259925 16.882961392409225, 32.581793715883244 16.905492549823272, 31.96419373967212 16.965071676755716 C31.644525340579015 16.97532282011784, 31.324856941485912 16.985573963479965, 30.875000000000004 17 C30.875000000000004 17, 30.875 17, 30.875 17 C18.232804649845345 17, 5.590609299690691 17, -30.874999999999996 17 C-31.294477763844817 16.98654816457743, -31.713955527689635 16.973096329154863, -31.964193739672112 16.965071676755716 C-32.274985796252295 16.93508994083956, -32.58577785283247 16.905108204923405, -33.048911748636606 16.86043023499518 C-33.27249715349704 16.82428268066806, -33.49608255835747 16.788135126340933, -34.124696687923326 16.68650566884811 C-34.47571584499803 16.606387836859877, -34.82673500207273 16.526270004871645, -35.18712792646162 16.4440126716635 C-35.44778816491771 16.366650081123247, -35.708448403373794 16.289287490582993, -36.231839706401544 16.13394769918137 C-36.52345276552898 16.026631397780907, -36.81506582465641 15.919315096380442, -37.254539082949364 15.757584874882369 C-37.464851650916444 15.66448573974401, -37.67516421888352 15.571386604605651, -38.25102356499848 15.316470754341127 C-38.45501982705034 15.210046035094512, -38.65901608910221 15.1036213158479, -39.21719838406693 14.812417970097624 C-39.52757127825343 14.624268097688187, -39.83794417243993 14.43611822527875, -40.14909332057932 14.247497783161299 C-40.49148545171027 14.008659854400815, -40.833877582841225 13.76982192564033, -41.04287901835067 13.624031571755264 C-41.28829576297773 13.428318248729033, -41.5337125076048 13.232604925702802, -41.8948827202324 12.94458129227529 C-42.06577761061438 12.789379074461397, -42.23667250099636 12.634176856647505, -42.70160336025926 12.211938951661377 C-42.85884262677309 12.049576499401986, -43.016081893286916 11.887214047142594, -43.459725950280365 11.429115134442386 C-43.65269763704626 11.202439610767133, -43.845669323812146 10.97576408709188, -44.16613520195651 10.599326631598473 C-44.33749333666863 10.369722342131448, -44.50885147138076 10.140118052664423, -44.81792832814825 9.72598322207689 C-44.95047896813052 9.522349844233542, -45.08302960811279 9.318716466390192, -45.41242697109088 8.812673661278936 C-45.544509898184614 8.578147049377325, -45.67659282527835 8.343620437475714, -45.947188208341004 7.863150934094201 C-46.125323117842086 7.49324998303873, -46.30345802734316 7.123349031983258, -46.42001459126881 6.881316833080701 C-46.546505440869204 6.568881989033514, -46.672996290469605 6.256447144986326, -46.828963174845924 5.87120592516224 C-46.93100200793222 5.563881217586542, -47.03304084101851 5.256556510010845, -47.172353501623235 4.8369689727275516 C-47.28223251912482 4.417952657126589, -47.3921115366264 3.9989363415256265, -47.448774507091 3.782855877257349 C-47.52858276241273 3.3730573536609936, -47.60839101773446 2.963258830064638, -47.65709031804565 2.713198215567455 C-47.70986501999192 2.3038880488158138, -47.76263972193819 1.8945778820641723, -47.796444920136366 1.6323914404306026 C-47.81533139209523 1.3382193947855627, -47.83421786405409 1.0440473491405229, -47.8662656754117 0.54487681871814 C-47.8662656754117 0.30705486409888294, -47.8662656754117 0.06923290947962596, -47.8662656754117 -0.5448768187181317 C-47.84259304257993 -0.9135971832781766, -47.81892040974816 -1.2823175478382214, -47.796444920136366 -1.6323914404305793 C-47.76345151124937 -1.8882818044725995, -47.73045810236238 -2.14417216851462, -47.657090318045654 -2.713198215567447 C-47.586712209450106 -3.0745749287870527, -47.516334100854564 -3.4359516420066587, -47.448774507091 -3.782855877257341 C-47.34703101294665 -4.17084791633906, -47.2452875188023 -4.55883995542078, -47.172353501623235 -4.836968972727544 C-47.05001260483653 -5.205440261474312, -46.92767170804982 -5.57391155022108, -46.82896317484593 -5.871205925162218 C-46.73211209948696 -6.110429953787025, -46.63526102412799 -6.349653982411833, -46.42001459126881 -6.881316833080692 C-46.31094188436946 -7.107808642739257, -46.20186917747011 -7.334300452397821, -45.947188208341004 -7.863150934094194 C-45.73858781497067 -8.233542055603559, -45.52998742160033 -8.603933177112923, -45.41242697109088 -8.812673661278929 C-45.26941637100083 -9.032376346740396, -45.126405770910786 -9.252079032201861, -44.81792832814825 -9.725983222076884 C-44.5744781916384 -10.052184226236387, -44.33102805512855 -10.37838523039589, -44.16613520195651 -10.599326631598467 C-43.94069601442015 -10.86414032913185, -43.71525682688378 -11.128954026665232, -43.45972595028037 -11.42911513444238 C-43.20719794913366 -11.68987102856084, -42.954669947986936 -11.950626922679298, -42.70160336025928 -12.21193895166136 C-42.52823411082523 -12.36938831689839, -42.35486486139118 -12.526837682135417, -41.89488272023242 -12.944581292275274 C-41.70715245065398 -13.094291186551798, -41.51942218107554 -13.244001080828323, -41.042879018350675 -13.624031571755259 C-40.73993126281807 -13.835354811617837, -40.43698350728546 -14.046678051480416, -40.14909332057934 -14.247497783161284 C-39.87644999528096 -14.412775769187189, -39.603806669982575 -14.578053755213093, -39.21719838406695 -14.812417970097618 C-38.898190237131914 -14.978844316019156, -38.57918209019687 -15.145270661940694, -38.25102356499849 -15.316470754341124 C-38.023660744959955 -15.41711753029376, -37.79629792492141 -15.517764306246395, -37.25453908294937 -15.757584874882365 C-36.858208117618915 -15.903438333767257, -36.46187715228845 -16.04929179265215, -36.231839706401566 -16.133947699181363 C-35.97703904541943 -16.209571197884898, -35.722238384437304 -16.28519469658843, -35.18712792646164 -16.444012671663494 C-34.797163844618275 -16.53301942859079, -34.4071997627749 -16.622026185518084, -34.12469668792333 -16.68650566884811 C-33.869187782971096 -16.727814367099636, -33.61367887801887 -16.76912306535116, -33.04891174863661 -16.86043023499518 C-32.71524205612716 -16.892618948935052, -32.38157236361771 -16.924807662874922, -31.96419373967212 -16.965071676755716 C-31.741532638367868 -16.972211984891, -31.518871537063617 -16.979352293026288, -30.875000000000004 -17 C-30.875000000000004 -17, -30.875000000000004 -17, -30.875 -17" stroke="none" stroke-width="0" fill="#2d2d2d" style=""></path><path d="M-30.875 -17 C-11.826100849058683 -17, 7.222798301882634 -17, 30.875 -17 M-30.875 -17 C-14.540924168815597 -17, 1.7931516623688069 -17, 30.875 -17 M30.875 -17 C30.875 -17, 30.875 -17, 30.875 -17 M30.875 -17 C30.875 -17, 30.875 -17, 30.875 -17 M30.875 -17 C31.28267114774105 -16.986926779775697, 31.6903422954821 -16.97385355955139, 31.96419373967212 -16.965071676755716 M30.875 -17 C31.292676402441497 -16.9866059307315, 31.710352804882998 -16.973211861462996, 31.96419373967212 -16.965071676755716 M31.96419373967212 -16.965071676755716 C32.30346527830603 -16.932342559457428, 32.64273681693993 -16.899613442159136, 33.0489117486366 -16.860430234995185 M31.96419373967212 -16.965071676755716 C32.22757896840238 -16.93966322050719, 32.490964197132655 -16.914254764258665, 33.0489117486366 -16.860430234995185 M33.0489117486366 -16.860430234995185 C33.355594001748955 -16.810848226668373, 33.66227625486132 -16.76126621834156, 34.124696687923326 -16.686505668848113 M33.0489117486366 -16.860430234995185 C33.291183611348714 -16.821261599078248, 33.53345547406083 -16.782092963161308, 34.124696687923326 -16.686505668848113 M34.124696687923326 -16.686505668848113 C34.520086452277866 -16.59626053529353, 34.915476216632406 -16.506015401738946, 35.18712792646162 -16.4440126716635 M34.124696687923326 -16.686505668848113 C34.33783261101739 -16.637858785243772, 34.550968534111455 -16.58921190163943, 35.18712792646162 -16.4440126716635 M35.18712792646162 -16.4440126716635 C35.55983002593614 -16.333396644892705, 35.93253212541066 -16.22278061812191, 36.23183970640155 -16.133947699181366 M35.18712792646162 -16.4440126716635 C35.48520987151875 -16.355543515034604, 35.78329181657588 -16.267074358405704, 36.23183970640155 -16.133947699181366 M36.23183970640155 -16.133947699181366 C36.60310004861501 -15.99732046135383, 36.974360390828465 -15.860693223526296, 37.25453908294936 -15.757584874882369 M36.23183970640155 -16.133947699181366 C36.46839044080718 -16.046894842269076, 36.70494117521281 -15.959841985356785, 37.25453908294936 -15.757584874882369 M37.25453908294936 -15.757584874882369 C37.54562204742013 -15.62873108118051, 37.836705011890906 -15.499877287478649, 38.25102356499849 -15.316470754341125 M37.25453908294936 -15.757584874882369 C37.50165436212413 -15.648194271206007, 37.74876964129889 -15.538803667529644, 38.25102356499849 -15.316470754341125 M38.25102356499849 -15.316470754341125 C38.60126545307211 -15.133749785673752, 38.951507341145735 -14.95102881700638, 39.21719838406694 -14.812417970097622 M38.25102356499849 -15.316470754341125 C38.4686741807338 -15.202922567523887, 38.68632479646911 -15.089374380706648, 39.21719838406694 -14.812417970097622 M39.21719838406694 -14.812417970097622 C39.40628602291687 -14.697791932224483, 39.59537366176681 -14.583165894351346, 40.149093320579325 -14.247497783161291 M39.21719838406694 -14.812417970097622 C39.531875035995675 -14.62165913445315, 39.84655168792442 -14.430900298808679, 40.149093320579325 -14.247497783161291 M40.149093320579325 -14.247497783161291 C40.37085986516874 -14.092803041774706, 40.59262640975815 -13.938108300388121, 41.042879018350675 -13.624031571755262 M40.149093320579325 -14.247497783161291 C40.37016835421141 -14.093285409883514, 40.59124338784349 -13.939073036605734, 41.042879018350675 -13.624031571755262 M41.042879018350675 -13.624031571755262 C41.3393528923166 -13.387601546768565, 41.63582676628251 -13.151171521781869, 41.8948827202324 -12.944581292275288 M41.042879018350675 -13.624031571755262 C41.33966939035185 -13.387349148007814, 41.63645976235303 -13.150666724260367, 41.8948827202324 -12.944581292275288 M41.8948827202324 -12.944581292275288 C42.122266303075754 -12.738077538576876, 42.34964988591911 -12.531573784878464, 42.70160336025927 -12.21193895166137 M41.8948827202324 -12.944581292275288 C42.13058738818565 -12.730520549243916, 42.3662920561389 -12.516459806212545, 42.70160336025927 -12.21193895166137 M42.70160336025927 -12.21193895166137 C42.90749850575262 -11.99933530963366, 43.11339365124598 -11.78673166760595, 43.45972595028036 -11.42911513444239 M42.70160336025927 -12.21193895166137 C42.87551430924847 -12.032361618475566, 43.04942525823767 -11.852784285289763, 43.45972595028036 -11.42911513444239 M43.45972595028036 -11.42911513444239 C43.71702709572017 -11.126874568158856, 43.97432824115998 -10.824634001875323, 44.16613520195651 -10.59932663159847 M43.45972595028036 -11.42911513444239 C43.713105129719395 -11.131481532589554, 43.96648430915843 -10.833847930736717, 44.16613520195651 -10.59932663159847 M44.16613520195651 -10.59932663159847 C44.297455600033366 -10.423369261709862, 44.42877599811022 -10.247411891821253, 44.81792832814825 -9.725983222076888 M44.16613520195651 -10.59932663159847 C44.40337566541202 -10.281446023618921, 44.64061612886754 -9.963565415639371, 44.81792832814825 -9.725983222076888 M44.81792832814825 -9.725983222076888 C45.03361342611671 -9.39463299203902, 45.24929852408518 -9.06328276200115, 45.41242697109088 -8.812673661278927 M44.81792832814825 -9.725983222076888 C45.04950938205845 -9.370212535050667, 45.28109043596865 -9.014441848024449, 45.41242697109088 -8.812673661278927 M45.41242697109088 -8.812673661278927 C45.61839676562761 -8.446953434375654, 45.824366560164336 -8.08123320747238, 45.947188208341004 -7.863150934094199 M45.41242697109088 -8.812673661278927 C45.54481103650082 -8.57761234780334, 45.677195101910755 -8.342551034327753, 45.947188208341004 -7.863150934094199 M45.947188208341004 -7.863150934094199 C46.04914056523885 -7.651444683564839, 46.1510929221367 -7.439738433035478, 46.42001459126881 -6.881316833080699 M45.947188208341004 -7.863150934094199 C46.053650336718036 -7.642080046594657, 46.16011246509507 -7.4210091590951155, 46.42001459126881 -6.881316833080699 M46.42001459126881 -6.881316833080699 C46.57511952431048 -6.498204649717893, 46.73022445735215 -6.1150924663550885, 46.828963174845924 -5.871205925162238 M46.42001459126881 -6.881316833080699 C46.56817603567828 -6.51535520088266, 46.716337480087745 -6.149393568684623, 46.828963174845924 -5.871205925162238 M46.828963174845924 -5.871205925162238 C46.95535633476304 -5.490529865507128, 47.08174949468015 -5.109853805852016, 47.172353501623235 -4.836968972727556 M46.828963174845924 -5.871205925162238 C46.93597942527214 -5.548890029602469, 47.04299567569834 -5.2265741340427, 47.172353501623235 -4.836968972727556 M47.172353501623235 -4.836968972727556 C47.24334547443154 -4.566245812293841, 47.31433744723984 -4.295522651860128, 47.448774507091 -3.7828558772573464 M47.172353501623235 -4.836968972727556 C47.273921110581846 -4.449647660088186, 47.375488719540456 -4.062326347448814, 47.448774507091 -3.7828558772573464 M47.448774507091 -3.7828558772573464 C47.52206676238955 -3.406515636622926, 47.595359017688104 -3.030175395988506, 47.65709031804565 -2.713198215567453 M47.448774507091 -3.7828558772573464 C47.49223848683132 -3.559677527406184, 47.535702466571635 -3.3364991775550212, 47.65709031804565 -2.713198215567453 M47.65709031804565 -2.713198215567453 C47.68647203997421 -2.485319382366778, 47.71585376190277 -2.2574405491661027, 47.796444920136366 -1.632391440430593 M47.65709031804565 -2.713198215567453 C47.70516264830671 -2.3403587150179788, 47.753234978567775 -1.9675192144685048, 47.796444920136366 -1.632391440430593 M47.796444920136366 -1.632391440430593 C47.82226567728108 -1.2302123057617032, 47.84808643442579 -0.8280331710928134, 47.8662656754117 -0.5448768187181379 M47.796444920136366 -1.632391440430593 C47.81046294785341 -1.4140493435893524, 47.82448097557045 -1.195707246748112, 47.8662656754117 -0.5448768187181379 M47.8662656754117 -0.5448768187181379 C47.8662656754117 -0.11279199401556739, 47.8662656754117 0.3192928306870031, 47.8662656754117 0.5448768187181336 M47.8662656754117 -0.5448768187181379 C47.8662656754117 -0.14281450806584117, 47.8662656754117 0.2592478025864555, 47.8662656754117 0.5448768187181336 M47.8662656754117 0.5448768187181336 C47.840901630856024 0.9399422861609902, 47.81553758630035 1.3350077536038467, 47.796444920136366 1.6323914404305815 M47.8662656754117 0.5448768187181336 C47.850648978833924 0.7881194734875666, 47.835032282256144 1.0313621282569996, 47.796444920136366 1.6323914404305815 M47.796444920136366 1.6323914404305815 C47.76605418932454 1.8680959472785135, 47.73566345851272 2.1038004541264455, 47.657090318045654 2.7131982155674415 M47.796444920136366 1.6323914404305815 C47.75658542011257 1.9415338514665703, 47.71672592008878 2.250676262502559, 47.657090318045654 2.7131982155674415 M47.657090318045654 2.7131982155674415 C47.59039876924634 3.055645223388096, 47.52370722044702 3.398092231208751, 47.448774507091 3.782855877257343 M47.657090318045654 2.7131982155674415 C47.59986637088475 3.0070310899531734, 47.54264242372384 3.3008639643389053, 47.448774507091 3.782855877257343 M47.448774507091 3.782855877257343 C47.344004700189465 4.182388558494442, 47.239234893287936 4.581921239731542, 47.172353501623235 4.836968972727545 M47.448774507091 3.782855877257343 C47.35458660750892 4.1420351596577225, 47.26039870792684 4.501214442058103, 47.172353501623235 4.836968972727545 M47.172353501623235 4.836968972727545 C47.05143923626833 5.2011434749045815, 46.930524970913424 5.565317977081617, 46.828963174845924 5.871205925162227 M47.172353501623235 4.836968972727545 C47.09928250129422 5.057047183435696, 47.026211500965196 5.277125394143845, 46.828963174845924 5.871205925162227 M46.828963174845924 5.871205925162227 C46.718199727982494 6.144793780380466, 46.607436281119064 6.418381635598706, 46.42001459126881 6.881316833080694 M46.828963174845924 5.871205925162227 C46.70011150791119 6.189472033668535, 46.57125984097645 6.507738142174844, 46.42001459126881 6.881316833080694 M46.42001459126881 6.881316833080694 C46.274605344925384 7.183262244372282, 46.12919609858196 7.485207655663869, 45.947188208341004 7.863150934094196 M46.42001459126881 6.881316833080694 C46.234632440836606 7.266266834995762, 46.0492502904044 7.65121683691083, 45.947188208341004 7.863150934094196 M45.947188208341004 7.863150934094196 C45.79692311636749 8.129961820883706, 45.646658024393965 8.396772707673216, 45.41242697109089 8.812673661278923 M45.947188208341004 7.863150934094196 C45.81172589827145 8.103677982669014, 45.67626358820189 8.344205031243833, 45.41242697109089 8.812673661278923 M45.41242697109089 8.812673661278923 C45.22898411539121 9.09449114893761, 45.04554125969154 9.376308636596297, 44.817928328148255 9.725983222076879 M45.41242697109089 8.812673661278923 C45.207328653415296 9.127759753838381, 45.0022303357397 9.442845846397837, 44.817928328148255 9.725983222076879 M44.817928328148255 9.725983222076879 C44.68686941349469 9.90159022799991, 44.55581049884112 10.077197233922941, 44.16613520195651 10.599326631598467 M44.817928328148255 9.725983222076879 C44.672442166555 9.920921424549856, 44.52695600496175 10.115859627022834, 44.16613520195651 10.599326631598467 M44.16613520195651 10.599326631598467 C43.91371891128759 10.895829169512002, 43.66130262061867 11.192331707425538, 43.45972595028037 11.42911513444238 M44.16613520195651 10.599326631598467 C43.95727745641449 10.844662823854517, 43.74841971087247 11.089999016110564, 43.45972595028037 11.42911513444238 M43.45972595028037 11.42911513444238 C43.22301000160622 11.67354378618926, 42.986294052932074 11.917972437936141, 42.70160336025927 12.211938951661365 M43.45972595028037 11.42911513444238 C43.23030859941272 11.666007384728024, 43.000891248545074 11.902899635013668, 42.70160336025927 12.211938951661365 M42.70160336025927 12.211938951661365 C42.442510228055305 12.447240479100385, 42.18341709585134 12.682542006539403, 41.89488272023242 12.944581292275275 M42.70160336025927 12.211938951661365 C42.48179709779862 12.411561183473118, 42.26199083533797 12.611183415284872, 41.89488272023242 12.944581292275275 M41.89488272023242 12.944581292275275 C41.57713920533008 13.197973289899851, 41.25939569042774 13.451365287524427, 41.042879018350675 13.62403157175526 M41.89488272023242 12.944581292275275 C41.606331414175585 13.174693280182861, 41.317780108118754 13.404805268090447, 41.042879018350675 13.62403157175526 M41.042879018350675 13.62403157175526 C40.70364987114631 13.860663139851923, 40.36442072394195 14.097294707948587, 40.14909332057934 14.247497783161286 M41.042879018350675 13.62403157175526 C40.74637816128076 13.830857734332001, 40.449877304210844 14.037683896908744, 40.14909332057934 14.247497783161286 M40.14909332057934 14.247497783161286 C39.877879126409326 14.411909421498667, 39.60666493223931 14.576321059836047, 39.21719838406695 14.81241797009762 M40.14909332057934 14.247497783161286 C39.78112560094451 14.470561977222262, 39.413157881309694 14.693626171283237, 39.21719838406695 14.81241797009762 M39.21719838406695 14.81241797009762 C38.88078121161522 14.987926593480202, 38.54436403916349 15.163435216862785, 38.25102356499849 15.316470754341124 M39.21719838406695 14.81241797009762 C38.85687115536051 15.000400454513164, 38.49654392665406 15.188382938928708, 38.25102356499849 15.316470754341124 M38.25102356499849 15.316470754341124 C37.958354879732234 15.446026499600409, 37.66568619446597 15.575582244859696, 37.254539082949364 15.757584874882367 M38.25102356499849 15.316470754341124 C38.00637736956989 15.424768367885827, 37.76173117414128 15.533065981430529, 37.254539082949364 15.757584874882367 M37.254539082949364 15.757584874882367 C36.84546113769596 15.908129340210692, 36.436383192442555 16.058673805539016, 36.23183970640156 16.133947699181363 M37.254539082949364 15.757584874882367 C36.98168015644941 15.857999482114618, 36.70882122994945 15.95841408934687, 36.23183970640156 16.133947699181363 M36.23183970640156 16.133947699181363 C35.91711430555496 16.227356546125293, 35.602388904708356 16.320765393069227, 35.18712792646164 16.444012671663497 M36.23183970640156 16.133947699181363 C35.959412671428574 16.214802613162657, 35.68698563645559 16.295657527143952, 35.18712792646164 16.444012671663497 M35.18712792646164 16.444012671663497 C34.79840651978109 16.532735796094094, 34.40968511310053 16.621458920524688, 34.12469668792333 16.68650566884811 M35.18712792646164 16.444012671663497 C34.962564719402806 16.4952677582628, 34.73800151234398 16.546522844862103, 34.12469668792333 16.68650566884811 M34.12469668792333 16.68650566884811 C33.77501621393918 16.74303929606929, 33.425335739955024 16.799572923290473, 33.04891174863661 16.86043023499518 M34.12469668792333 16.68650566884811 C33.866688121432105 16.728218492992095, 33.60867955494088 16.76993131713608, 33.04891174863661 16.86043023499518 M33.04891174863661 16.86043023499518 C32.7555688783251 16.888728668897716, 32.46222600801359 16.91702710280025, 31.96419373967212 16.965071676755716 M33.04891174863661 16.86043023499518 C32.686558828732906 16.895385985385147, 32.32420590882921 16.930341735775112, 31.96419373967212 16.965071676755716 M31.96419373967212 16.965071676755716 C31.654324346418548 16.975008585073173, 31.34445495316498 16.984945493390633, 30.875000000000004 17 M31.96419373967212 16.965071676755716 C31.59294839026695 16.976976792525903, 31.22170304086178 16.988881908296094, 30.875000000000004 17 M30.875000000000004 17 C30.875000000000004 17, 30.875 17, 30.875 17 M30.875000000000004 17 C30.875000000000004 17, 30.875 17, 30.875 17 M30.875 17 C17.97745031230717 17, 5.079900624614336 17, -30.874999999999996 17 M30.875 17 C7.364538435541583 17, -16.145923128916834 17, -30.874999999999996 17 M-30.874999999999996 17 C-31.15981095241517 16.990866667106932, -31.444621904830345 16.981733334213867, -31.964193739672112 16.965071676755716 M-30.874999999999996 17 C-31.10649785932282 16.992576314234764, -31.33799571864564 16.98515262846953, -31.964193739672112 16.965071676755716 M-31.964193739672112 16.965071676755716 C-32.35379834433751 16.927486989111735, -32.74340294900291 16.889902301467757, -33.048911748636606 16.86043023499518 M-31.964193739672112 16.965071676755716 C-32.205829859083295 16.94176133092607, -32.44746597849448 16.918450985096424, -33.048911748636606 16.86043023499518 M-33.048911748636606 16.86043023499518 C-33.46199743267564 16.793645745127076, -33.87508311671466 16.72686125525897, -34.124696687923326 16.68650566884811 M-33.048911748636606 16.86043023499518 C-33.38579546429559 16.80596548841967, -33.72267917995457 16.75150074184416, -34.124696687923326 16.68650566884811 M-34.124696687923326 16.68650566884811 C-34.347036197070665 16.635758126786122, -34.569375706218004 16.58501058472413, -35.18712792646162 16.4440126716635 M-34.124696687923326 16.68650566884811 C-34.484184597033895 16.604454899471463, -34.84367250614446 16.52240413009482, -35.18712792646162 16.4440126716635 M-35.18712792646162 16.4440126716635 C-35.4560904729197 16.364185999687958, -35.725053019377775 16.28435932771242, -36.231839706401544 16.13394769918137 M-35.18712792646162 16.4440126716635 C-35.50481700956289 16.34972421938307, -35.82250609266417 16.25543576710264, -36.231839706401544 16.13394769918137 M-36.231839706401544 16.13394769918137 C-36.575276813153934 16.007559669198677, -36.918713919906324 15.881171639215985, -37.254539082949364 15.757584874882369 M-36.231839706401544 16.13394769918137 C-36.51645701014007 16.02920590043208, -36.8010743138786 15.924464101682783, -37.254539082949364 15.757584874882369 M-37.254539082949364 15.757584874882369 C-37.578579789830236 15.61414166627225, -37.90262049671111 15.470698457662131, -38.25102356499848 15.316470754341127 M-37.254539082949364 15.757584874882369 C-37.49514639319141 15.651075156000482, -37.73575370343346 15.544565437118596, -38.25102356499848 15.316470754341127 M-38.25102356499848 15.316470754341127 C-38.56389140158767 15.153247804393963, -38.87675923817685 14.9900248544468, -39.21719838406693 14.812417970097624 M-38.25102356499848 15.316470754341127 C-38.503128305290296 15.184947872811682, -38.7552330455821 15.053424991282238, -39.21719838406693 14.812417970097624 M-39.21719838406693 14.812417970097624 C-39.44014303097293 14.677267614975033, -39.66308767787894 14.542117259852443, -40.14909332057932 14.247497783161299 M-39.21719838406693 14.812417970097624 C-39.525530978642 14.625504939302767, -39.83386357321707 14.43859190850791, -40.14909332057932 14.247497783161299 M-40.14909332057932 14.247497783161299 C-40.45855383662394 14.031631523498396, -40.768014352668565 13.815765263835493, -41.04287901835067 13.624031571755264 M-40.14909332057932 14.247497783161299 C-40.39562779752177 14.075526004351744, -40.64216227446422 13.903554225542191, -41.04287901835067 13.624031571755264 M-41.04287901835067 13.624031571755264 C-41.3739134886927 13.360040390854714, -41.70494795903473 13.096049209954165, -41.8948827202324 12.94458129227529 M-41.04287901835067 13.624031571755264 C-41.366861379458975 13.365664260304102, -41.69084374056728 13.107296948852943, -41.8948827202324 12.94458129227529 M-41.8948827202324 12.94458129227529 C-42.156314761608435 12.707155629410343, -42.417746802984475 12.469729966545394, -42.70160336025926 12.211938951661377 M-41.8948827202324 12.94458129227529 C-42.18465726746206 12.681415715495694, -42.47443181469172 12.418250138716099, -42.70160336025926 12.211938951661377 M-42.70160336025926 12.211938951661377 C-42.94585815176228 11.95972582574318, -43.1901129432653 11.707512699824981, -43.459725950280365 11.429115134442386 M-42.70160336025926 12.211938951661377 C-42.982356119042215 11.922038677987805, -43.26310887782517 11.632138404314233, -43.459725950280365 11.429115134442386 M-43.459725950280365 11.429115134442386 C-43.703031442898926 11.143314658337898, -43.946336935517486 10.85751418223341, -44.16613520195651 10.599326631598473 M-43.459725950280365 11.429115134442386 C-43.66178249983332 11.191768013994107, -43.86383904938628 10.954420893545828, -44.16613520195651 10.599326631598473 M-44.16613520195651 10.599326631598473 C-44.35024227723576 10.352639923223874, -44.534349352515015 10.105953214849276, -44.81792832814825 9.72598322207689 M-44.16613520195651 10.599326631598473 C-44.402247822396625 10.282957230510942, -44.63836044283675 9.96658782942341, -44.81792832814825 9.72598322207689 M-44.81792832814825 9.72598322207689 C-44.95178568121653 9.520342382031837, -45.08564303428481 9.314701541986784, -45.41242697109088 8.812673661278936 M-44.81792832814825 9.72598322207689 C-44.9954807770091 9.453214981118343, -45.17303322586995 9.180446740159795, -45.41242697109088 8.812673661278936 M-45.41242697109088 8.812673661278936 C-45.55015027382207 8.568131991283057, -45.68787357655326 8.323590321287178, -45.947188208341004 7.863150934094201 M-45.41242697109088 8.812673661278936 C-45.62537692851878 8.434559448344235, -45.83832688594669 8.056445235409534, -45.947188208341004 7.863150934094201 M-45.947188208341004 7.863150934094201 C-46.06341430559969 7.621804956296432, -46.17964040285838 7.380458978498663, -46.42001459126881 6.881316833080701 M-45.947188208341004 7.863150934094201 C-46.10595835401793 7.533461329459153, -46.264728499694854 7.203771724824106, -46.42001459126881 6.881316833080701 M-46.42001459126881 6.881316833080701 C-46.56842518112684 6.514739806807804, -46.71683577098488 6.148162780534907, -46.828963174845924 5.87120592516224 M-46.42001459126881 6.881316833080701 C-46.51393284029487 6.649336942200523, -46.607851089320924 6.4173570513203435, -46.828963174845924 5.87120592516224 M-46.828963174845924 5.87120592516224 C-46.90888348280468 5.6304986911622725, -46.98880379076345 5.389791457162305, -47.172353501623235 4.8369689727275516 M-46.828963174845924 5.87120592516224 C-46.95283701592829 5.498117652438456, -47.07671085701065 5.125029379714671, -47.172353501623235 4.8369689727275516 M-47.172353501623235 4.8369689727275516 C-47.249167732028184 4.544043020695426, -47.32598196243313 4.2511170686633, -47.448774507091 3.782855877257349 M-47.172353501623235 4.8369689727275516 C-47.2377899586239 4.587431401844165, -47.30322641562456 4.337893830960777, -47.448774507091 3.782855877257349 M-47.448774507091 3.782855877257349 C-47.524839627188896 3.3922775619234837, -47.60090474728679 3.001699246589618, -47.65709031804565 2.713198215567455 M-47.448774507091 3.782855877257349 C-47.53184914005739 3.3562851948048396, -47.614923773023776 2.9297145123523305, -47.65709031804565 2.713198215567455 M-47.65709031804565 2.713198215567455 C-47.68875005659105 2.4676515353318633, -47.72040979513644 2.222104855096272, -47.796444920136366 1.6323914404306026 M-47.65709031804565 2.713198215567455 C-47.695581557020574 2.414667767032776, -47.7340727959955 2.1161373184980965, -47.796444920136366 1.6323914404306026 M-47.796444920136366 1.6323914404306026 C-47.82013592227002 1.263384959166251, -47.84382692440367 0.8943784779018993, -47.8662656754117 0.54487681871814 M-47.796444920136366 1.6323914404306026 C-47.819215118534856 1.2777272206007733, -47.84198531693335 0.9230630007709439, -47.8662656754117 0.54487681871814 M-47.8662656754117 0.54487681871814 C-47.8662656754117 0.3139454913988443, -47.8662656754117 0.0830141640795487, -47.8662656754117 -0.5448768187181317 M-47.8662656754117 0.54487681871814 C-47.8662656754117 0.24576725206393069, -47.8662656754117 -0.053342314590278606, -47.8662656754117 -0.5448768187181317 M-47.8662656754117 -0.5448768187181317 C-47.84382962178345 -0.8943364640345677, -47.8213935681552 -1.2437961093510035, -47.796444920136366 -1.6323914404305793 M-47.8662656754117 -0.5448768187181317 C-47.83970962408039 -0.9585087538620312, -47.81315357274908 -1.3721406890059307, -47.796444920136366 -1.6323914404305793 M-47.796444920136366 -1.6323914404305793 C-47.761131620530996 -1.9062744187700922, -47.725818320925626 -2.180157397109605, -47.657090318045654 -2.713198215567447 M-47.796444920136366 -1.6323914404305793 C-47.75601821322224 -1.9459329961002936, -47.71559150630812 -2.259474551770008, -47.657090318045654 -2.713198215567447 M-47.657090318045654 -2.713198215567447 C-47.58048829931818 -3.106533391890607, -47.50388628059071 -3.4998685682137665, -47.448774507091 -3.782855877257341 M-47.657090318045654 -2.713198215567447 C-47.611379643632695 -2.9479128677235362, -47.565668969219736 -3.1826275198796257, -47.448774507091 -3.782855877257341 M-47.448774507091 -3.782855877257341 C-47.35052159292371 -4.1575368220595745, -47.25226867875643 -4.532217766861809, -47.172353501623235 -4.836968972727544 M-47.448774507091 -3.782855877257341 C-47.372801188967536 -4.072575066306492, -47.29682787084406 -4.362294255355643, -47.172353501623235 -4.836968972727544 M-47.172353501623235 -4.836968972727544 C-47.03713310676207 -5.244231257605242, -46.901912711900906 -5.651493542482941, -46.82896317484593 -5.871205925162218 M-47.172353501623235 -4.836968972727544 C-47.058828652271785 -5.178887731245729, -46.945303802920336 -5.520806489763915, -46.82896317484593 -5.871205925162218 M-46.82896317484593 -5.871205925162218 C-46.73373686045459 -6.106416762784373, -46.638510546063245 -6.341627600406527, -46.42001459126881 -6.881316833080692 M-46.82896317484593 -5.871205925162218 C-46.71043921613059 -6.163962394693963, -46.591915257415245 -6.456718864225707, -46.42001459126881 -6.881316833080692 M-46.42001459126881 -6.881316833080692 C-46.23275553266318 -7.270164274977292, -46.045496474057536 -7.6590117168738905, -45.947188208341004 -7.863150934094194 M-46.42001459126881 -6.881316833080692 C-46.28754119099828 -7.156400683219131, -46.15506779072776 -7.43148453335757, -45.947188208341004 -7.863150934094194 M-45.947188208341004 -7.863150934094194 C-45.747316717382006 -8.21804300547502, -45.547445226423 -8.572935076855845, -45.41242697109088 -8.812673661278929 M-45.947188208341004 -7.863150934094194 C-45.75425437568531 -8.205724490643405, -45.56132054302963 -8.548298047192615, -45.41242697109088 -8.812673661278929 M-45.41242697109088 -8.812673661278929 C-45.21393452800597 -9.117611356541396, -45.01544208492106 -9.422549051803863, -44.81792832814825 -9.725983222076884 M-45.41242697109088 -8.812673661278929 C-45.23283302451597 -9.08857819094517, -45.05323907794105 -9.364482720611413, -44.81792832814825 -9.725983222076884 M-44.81792832814825 -9.725983222076884 C-44.59793224127171 -10.020757936435633, -44.377936154395165 -10.31553265079438, -44.16613520195651 -10.599326631598467 M-44.81792832814825 -9.725983222076884 C-44.621730787992384 -9.988870051922131, -44.42553324783652 -10.251756881767378, -44.16613520195651 -10.599326631598467 M-44.16613520195651 -10.599326631598467 C-44.00016072762165 -10.794289693367325, -43.834186253286795 -10.989252755136182, -43.45972595028037 -11.42911513444238 M-44.16613520195651 -10.599326631598467 C-43.99972882613672 -10.794797029427414, -43.833322450316935 -10.990267427256361, -43.45972595028037 -11.42911513444238 M-43.45972595028037 -11.42911513444238 C-43.21083114891981 -11.686119451490384, -42.961936347559245 -11.943123768538388, -42.70160336025928 -12.21193895166136 M-43.45972595028037 -11.42911513444238 C-43.174591885027475 -11.723539466758119, -42.88945781977458 -12.017963799073858, -42.70160336025928 -12.21193895166136 M-42.70160336025928 -12.21193895166136 C-42.46763288867783 -12.424424743432184, -42.23366241709638 -12.63691053520301, -41.89488272023242 -12.944581292275274 M-42.70160336025928 -12.21193895166136 C-42.403489653352445 -12.48267793261769, -42.10537594644561 -12.753416913574021, -41.89488272023242 -12.944581292275274 M-41.89488272023242 -12.944581292275274 C-41.574846415537664 -13.199801728745602, -41.254810110842904 -13.45502216521593, -41.042879018350675 -13.624031571755259 M-41.89488272023242 -12.944581292275274 C-41.68565310045932 -13.111436346210304, -41.47642348068622 -13.278291400145333, -41.042879018350675 -13.624031571755259 M-41.042879018350675 -13.624031571755259 C-40.71934098822931 -13.84971769583233, -40.39580295810796 -14.0754038199094, -40.14909332057934 -14.247497783161284 M-41.042879018350675 -13.624031571755259 C-40.7621899058453 -13.819828145803166, -40.481500793339926 -14.015624719851074, -40.14909332057934 -14.247497783161284 M-40.14909332057934 -14.247497783161284 C-39.855615714859475 -14.425405632414511, -39.56213810913962 -14.603313481667739, -39.21719838406695 -14.812417970097618 M-40.14909332057934 -14.247497783161284 C-39.79861541984703 -14.459959546221972, -39.44813751911472 -14.67242130928266, -39.21719838406695 -14.812417970097618 M-39.21719838406695 -14.812417970097618 C-38.86440344875777 -14.996470861872474, -38.51160851344859 -15.18052375364733, -38.25102356499849 -15.316470754341124 M-39.21719838406695 -14.812417970097618 C-38.90966371821344 -14.972858608288037, -38.602129052359935 -15.133299246478456, -38.25102356499849 -15.316470754341124 M-38.25102356499849 -15.316470754341124 C-37.91582561790128 -15.464852942227246, -37.580627670804056 -15.613235130113368, -37.25453908294937 -15.757584874882365 M-38.25102356499849 -15.316470754341124 C-38.01780368415864 -15.419710277366963, -37.784583803318796 -15.522949800392805, -37.25453908294937 -15.757584874882365 M-37.25453908294937 -15.757584874882365 C-36.84677019825146 -15.907647593825445, -36.439001313553554 -16.057710312768524, -36.231839706401566 -16.133947699181363 M-37.25453908294937 -15.757584874882365 C-37.03292334186103 -15.839141516196328, -36.81130760077269 -15.92069815751029, -36.231839706401566 -16.133947699181363 M-36.231839706401566 -16.133947699181363 C-35.89049694434543 -16.235256439214904, -35.549154182289286 -16.336565179248446, -35.18712792646164 -16.444012671663494 M-36.231839706401566 -16.133947699181363 C-35.89862650567407 -16.2328436280855, -35.565413304946574 -16.33173955698964, -35.18712792646164 -16.444012671663494 M-35.18712792646164 -16.444012671663494 C-34.881095414267016 -16.513862595523143, -34.57506290207239 -16.58371251938279, -34.12469668792333 -16.68650566884811 M-35.18712792646164 -16.444012671663494 C-34.8357589819567 -16.524210340350102, -34.48439003745176 -16.60440800903671, -34.12469668792333 -16.68650566884811 M-34.12469668792333 -16.68650566884811 C-33.8323462443486 -16.733770621353724, -33.53999580077386 -16.781035573859334, -33.04891174863661 -16.86043023499518 M-34.12469668792333 -16.68650566884811 C-33.85471645919439 -16.73015397850106, -33.58473623046546 -16.773802288154013, -33.04891174863661 -16.86043023499518 M-33.04891174863661 -16.86043023499518 C-32.82029466427047 -16.882484650171712, -32.591677579904335 -16.904539065348242, -31.96419373967212 -16.965071676755716 M-33.04891174863661 -16.86043023499518 C-32.715201612682776 -16.89262285046549, -32.38149147672895 -16.9248154659358, -31.96419373967212 -16.965071676755716 M-31.96419373967212 -16.965071676755716 C-31.618337469757307 -16.976162614163496, -31.272481199842495 -16.98725355157127, -30.875000000000004 -17 M-31.96419373967212 -16.965071676755716 C-31.53046284306062 -16.978980582404073, -31.09673194644912 -16.992889488052427, -30.875000000000004 -17 M-30.875000000000004 -17 C-30.875000000000004 -17, -30.875 -17, -30.875 -17 M-30.875000000000004 -17 C-30.875000000000004 -17, -30.875 -17, -30.875 -17" stroke="#555555" stroke-width="1.3" fill="none" stroke-dasharray="0 0" style=""></path></g><g class="label" style="" transform="translate(0, -9.5)"><rect></rect><g><rect class="background" style="stroke: none"></rect><text y="-10.1" style=""><tspan class="text-outer-tspan row" x="0" y="-0.1em" dy="1.1em"><tspan font-style="normal" class="text-inner-tspan" font-weight="normal">Start</tspan><tspan font-style="normal" class="text-inner-tspan" font-weight="normal"> here</tspan></tspan></text></g></g></g><g class="node default" id="g0376749c-d42e-4e1b-b138-dbb8856ca410-dark-flowchart-docsQ-1" data-look="classic" transform="translate(280.4421844482422, 227.15000915527344)"><polygon points="135.1500015258789,0 270.3000030517578,-135.1500015258789 135.1500015258789,-270.3000030517578 0,-135.1500015258789" class="label-container" transform="translate(-134.6500015258789, 135.1500015258789)"></polygon><g class="label" style="" transform="translate(0, -35.900001525878906)"><rect></rect><g><rect class="background" style="stroke: none"></rect><text y="-10.1" style=""><tspan class="text-outer-tspan row" x="0" y="-0.1em" dy="1.1em"><tspan font-style="normal" class="text-inner-tspan" font-weight="normal">Need</tspan><tspan font-style="normal" class="text-inner-tspan" font-weight="normal"> built-in</tspan><tspan font-style="normal" class="text-inner-tspan" font-weight="normal"> docs</tspan></tspan><tspan class="text-outer-tspan row" x="0" y="1em" dy="1.1em"><tspan font-style="normal" class="text-inner-tspan" font-weight="normal">navigation,</tspan></tspan><tspan class="text-outer-tspan row" x="0" y="2.1em" dy="1.1em"><tspan font-style="normal" class="text-inner-tspan" font-weight="normal">search,</tspan><tspan font-style="normal" class="text-inner-tspan" font-weight="normal"> and</tspan><tspan font-style="normal" class="text-inner-tspan" font-weight="normal"> the</tspan><tspan font-style="normal" class="text-inner-tspan" font-weight="normal"> default</tspan></tspan><tspan class="text-outer-tspan row" x="0" y="3.2em" dy="1.1em"><tspan font-style="normal" class="text-inner-tspan" font-weight="normal">theme?</tspan></tspan></text></g></g></g><g class="node default" id="g0376749c-d42e-4e1b-b138-dbb8856ca410-dark-flowchart-docs-3" data-look="classic" transform="translate(124.9296875, 579.3953247070312)"><rect class="basic label-container" style="" x="-116.9296875" y="-50.900001525878906" width="233.859375" height="101.80000305175781"></rect><g class="label" style="" transform="translate(0, -35.900001525878906)"><rect></rect><g><rect class="background" style="stroke: none"></rect><text y="-10.1" style=""><tspan class="text-outer-tspan row" x="0" y="-0.1em" dy="1.1em"><tspan font-style="normal" class="text-inner-tspan" font-weight="normal">@pagesmith/docs</tspan></tspan><tspan class="text-outer-tspan row" x="0" y="1em" dy="1.1em"><tspan font-style="normal" class="text-inner-tspan" font-weight="normal">Docs</tspan><tspan font-style="normal" class="text-inner-tspan" font-weight="normal"> preset</tspan><tspan font-style="normal" class="text-inner-tspan" font-weight="normal"> with</tspan><tspan font-style="normal" class="text-inner-tspan" font-weight="normal"> config,</tspan></tspan><tspan class="text-outer-tspan row" x="0" y="2.1em" dy="1.1em"><tspan font-style="normal" class="text-inner-tspan" font-weight="normal">navigation,</tspan><tspan font-style="normal" class="text-inner-tspan" font-weight="normal"> search,</tspan><tspan font-style="normal" class="text-inner-tspan" font-weight="normal"> and</tspan></tspan><tspan class="text-outer-tspan row" x="0" y="3.2em" dy="1.1em"><tspan font-style="normal" class="text-inner-tspan" font-weight="normal">theme</tspan></tspan></text></g></g></g><g class="node default" id="g0376749c-d42e-4e1b-b138-dbb8856ca410-dark-flowchart-hostQ-5" data-look="classic" transform="translate(435.9546813964844, 579.3953247070312)"><polygon points="144.0953140258789,0 288.1906280517578,-144.0953140258789 144.0953140258789,-288.1906280517578 0,-144.0953140258789" class="label-container" transform="translate(-143.5953140258789, 144.0953140258789)"></polygon><g class="label" style="" transform="translate(0, -35.900001525878906)"><rect></rect><g><rect class="background" style="stroke: none"></rect><text y="-10.1" style=""><tspan class="text-outer-tspan row" x="0" y="-0.1em" dy="1.1em"><tspan font-style="normal" class="text-inner-tspan" font-weight="normal">Does</tspan><tspan font-style="normal" class="text-inner-tspan" font-weight="normal"> the</tspan><tspan font-style="normal" class="text-inner-tspan" font-weight="normal"> host</tspan><tspan font-style="normal" class="text-inner-tspan" font-weight="normal"> app</tspan><tspan font-style="normal" class="text-inner-tspan" font-weight="normal"> already</tspan></tspan><tspan class="text-outer-tspan row" x="0" y="1em" dy="1.1em"><tspan font-style="normal" class="text-inner-tspan" font-weight="normal">own</tspan></tspan><tspan class="text-outer-tspan row" x="0" y="2.1em" dy="1.1em"><tspan font-style="normal" class="text-inner-tspan" font-weight="normal">routing,</tspan><tspan font-style="normal" class="text-inner-tspan" font-weight="normal"> layout,</tspan><tspan font-style="normal" class="text-inner-tspan" font-weight="normal"> and</tspan><tspan font-style="normal" class="text-inner-tspan" font-weight="normal"> build</tspan></tspan><tspan class="text-outer-tspan row" x="0" y="3.2em" dy="1.1em"><tspan font-style="normal" class="text-inner-tspan" font-weight="normal">tooling?</tspan></tspan></text></g></g></g><g class="node default" id="g0376749c-d42e-4e1b-b138-dbb8856ca410-dark-flowchart-core-7" data-look="classic" transform="translate(563.1460876464844, 856.1906318664551)"><rect class="basic label-container" style="" x="-111.96875" y="-59.70000076293945" width="223.9375" height="119.4000015258789"></rect><g class="label" style="" transform="translate(0, -44.70000076293945)"><rect></rect><g><rect class="background" style="stroke: none"></rect><text y="-10.1" style=""><tspan class="text-outer-tspan row" x="0" y="-0.1em" dy="1.1em"><tspan font-style="normal" class="text-inner-tspan" font-weight="normal">@pagesmith/core</tspan></tspan><tspan class="text-outer-tspan row" x="0" y="1em" dy="1.1em"><tspan font-style="normal" class="text-inner-tspan" font-weight="normal">Headless</tspan><tspan font-style="normal" class="text-inner-tspan" font-weight="normal"> content</tspan><tspan font-style="normal" class="text-inner-tspan" font-weight="normal"> layer</tspan></tspan><tspan class="text-outer-tspan row" x="0" y="2.1em" dy="1.1em"><tspan font-style="normal" class="text-inner-tspan" font-weight="normal">with</tspan></tspan><tspan class="text-outer-tspan row" x="0" y="3.2em" dy="1.1em"><tspan font-style="normal" class="text-inner-tspan" font-weight="normal">schemas,</tspan><tspan font-style="normal" class="text-inner-tspan" font-weight="normal"> loaders,</tspan><tspan font-style="normal" class="text-inner-tspan" font-weight="normal"> and</tspan></tspan><tspan class="text-outer-tspan row" x="0" y="4.300000000000001em" dy="1.1em"><tspan font-style="normal" class="text-inner-tspan" font-weight="normal">markdown</tspan></tspan></text></g></g></g><g class="node default" id="g0376749c-d42e-4e1b-b138-dbb8856ca410-dark-flowchart-site-9" data-look="classic" transform="translate(286.3999938964844, 1392.0843887329102)"><rect class="basic label-container" style="" x="-127.6171875" y="-68.5" width="255.234375" height="137"></rect><g class="label" style="" transform="translate(0, -53.5)"><rect></rect><g><rect class="background" style="stroke: none"></rect><text y="-10.1" style=""><tspan class="text-outer-tspan row" x="0" y="-0.1em" dy="1.1em"><tspan font-style="normal" class="text-inner-tspan" font-weight="normal">@pagesmith/site</tspan><tspan font-style="normal" class="text-inner-tspan" font-weight="normal"> +</tspan></tspan><tspan class="text-outer-tspan row" x="0" y="1em" dy="1.1em"><tspan font-style="normal" class="text-inner-tspan" font-weight="normal">@pagesmith/core</tspan></tspan><tspan class="text-outer-tspan row" x="0" y="2.1em" dy="1.1em"><tspan font-style="normal" class="text-inner-tspan" font-weight="normal">Custom</tspan><tspan font-style="normal" class="text-inner-tspan" font-weight="normal"> site</tspan><tspan font-style="normal" class="text-inner-tspan" font-weight="normal"> shell</tspan><tspan font-style="normal" class="text-inner-tspan" font-weight="normal"> with</tspan></tspan><tspan class="text-outer-tspan row" x="0" y="3.2em" dy="1.1em"><tspan font-style="normal" class="text-inner-tspan" font-weight="normal">shared</tspan></tspan><tspan class="text-outer-tspan row" x="0" y="4.300000000000001em" dy="1.1em"><tspan font-style="normal" class="text-inner-tspan" font-weight="normal">JSX,</tspan><tspan font-style="normal" class="text-inner-tspan" font-weight="normal"> CSS/runtime,</tspan><tspan font-style="normal" class="text-inner-tspan" font-weight="normal"> and</tspan><tspan font-style="normal" class="text-inner-tspan" font-weight="normal"> Vite</tspan></tspan><tspan class="text-outer-tspan row" x="0" y="5.4em" dy="1.1em"><tspan font-style="normal" class="text-inner-tspan" font-weight="normal">SSG</tspan></tspan></text></g></g></g><g class="node default" id="g0376749c-d42e-4e1b-b138-dbb8856ca410-dark-flowchart-siteQ-11" data-look="classic" transform="translate(563.1460876464844, 1119.7375106811523)"><polygon points="130.84687423706055,0 261.6937484741211,-130.84687423706055 130.84687423706055,-261.6937484741211 0,-130.84687423706055" class="label-container" transform="translate(-130.34687423706055, 130.84687423706055)"></polygon><g class="label" style="" transform="translate(0, -18.299999237060547)"><rect></rect><g><rect class="background" style="stroke: none"></rect><text y="-10.1" style=""><tspan class="text-outer-tspan row" x="0" y="-0.1em" dy="1.1em"><tspan font-style="normal" class="text-inner-tspan" font-weight="normal">Need</tspan><tspan font-style="normal" class="text-inner-tspan" font-weight="normal"> the</tspan><tspan font-style="normal" class="text-inner-tspan" font-weight="normal"> shared</tspan><tspan font-style="normal" class="text-inner-tspan" font-weight="normal"> Pagesmith</tspan></tspan><tspan class="text-outer-tspan row" x="0" y="1em" dy="1.1em"><tspan font-style="normal" class="text-inner-tspan" font-weight="normal">site</tspan><tspan font-style="normal" class="text-inner-tspan" font-weight="normal"> layer</tspan><tspan font-style="normal" class="text-inner-tspan" font-weight="normal"> too?</tspan></tspan></text></g></g></g><g class="node default" id="g0376749c-d42e-4e1b-b138-dbb8856ca410-dark-flowchart-coreOnly-15" data-look="classic" transform="translate(585.5093688964844, 1392.0843887329102)"><rect class="basic label-container" style="" x="-121.4921875" y="-24.5" width="242.984375" height="49"></rect><g class="label" style="" transform="translate(0, -9.5)"><rect></rect><g><rect class="background" style="stroke: none"></rect><text y="-10.1" style=""><tspan class="text-outer-tspan row" x="0" y="-0.1em" dy="1.1em"><tspan font-style="normal" class="text-inner-tspan" font-weight="normal">Stay</tspan><tspan font-style="normal" class="text-inner-tspan" font-weight="normal"> on</tspan><tspan font-style="normal" class="text-inner-tspan" font-weight="normal"> @pagesmith/core</tspan></tspan></text></g></g></g></g></g></g><defs><filter id="g0376749c-d42e-4e1b-b138-dbb8856ca410-dark-drop-shadow" height="130%" width="130%"><feDropShadow dx="4" dy="4" stdDeviation="0" flood-opacity="0.06" flood-color="#000000"></feDropShadow></filter></defs><defs><filter id="g0376749c-d42e-4e1b-b138-dbb8856ca410-dark-drop-shadow-small" height="150%" width="150%"><feDropShadow dx="2" dy="2" stdDeviation="0" flood-opacity="0.06" flood-color="#000000"></feDropShadow></filter></defs><linearGradient id="g0376749c-d42e-4e1b-b138-dbb8856ca410-dark-gradient" gradientUnits="objectBoundingBox" x1="0%" y1="0%" x2="100%" y2="0%"><stop offset="0%" stop-color="#555555" stop-opacity="1"></stop><stop offset="100%" stop-color="#555555" stop-opacity="1"></stop></linearGradient></svg>