<svg id="gade5825e-45b3-4b69-bff2-ab15531cb090-light" width="100%" xmlns="http://www.w3.org/2000/svg" xmlns:xlink="http://www.w3.org/1999/xlink" class="flowchart" style="max-width: 609.530517578125px;" viewBox="0 0 609.530517578125 1130.7530517578125" role="graphics-document document" aria-roledescription="flowchart-v2"><style>#gade5825e-45b3-4b69-bff2-ab15531cb090-light{font-family:"trebuchet ms",verdana,arial,sans-serif;font-size:16px;fill:#333;}@keyframes edge-animation-frame{from{stroke-dashoffset:0;}}@keyframes dash{to{stroke-dashoffset:0;}}#gade5825e-45b3-4b69-bff2-ab15531cb090-light .edge-animation-slow{stroke-dasharray:9,5!important;stroke-dashoffset:900;animation:dash 50s linear infinite;stroke-linecap:round;}#gade5825e-45b3-4b69-bff2-ab15531cb090-light .edge-animation-fast{stroke-dasharray:9,5!important;stroke-dashoffset:900;animation:dash 20s linear infinite;stroke-linecap:round;}#gade5825e-45b3-4b69-bff2-ab15531cb090-light .error-icon{fill:#552222;}#gade5825e-45b3-4b69-bff2-ab15531cb090-light .error-text{fill:#552222;stroke:#552222;}#gade5825e-45b3-4b69-bff2-ab15531cb090-light .edge-thickness-normal{stroke-width:1px;}#gade5825e-45b3-4b69-bff2-ab15531cb090-light .edge-thickness-thick{stroke-width:3.5px;}#gade5825e-45b3-4b69-bff2-ab15531cb090-light .edge-pattern-solid{stroke-dasharray:0;}#gade5825e-45b3-4b69-bff2-ab15531cb090-light .edge-thickness-invisible{stroke-width:0;fill:none;}#gade5825e-45b3-4b69-bff2-ab15531cb090-light .edge-pattern-dashed{stroke-dasharray:3;}#gade5825e-45b3-4b69-bff2-ab15531cb090-light .edge-pattern-dotted{stroke-dasharray:2;}#gade5825e-45b3-4b69-bff2-ab15531cb090-light .marker{fill:#333333;stroke:#333333;}#gade5825e-45b3-4b69-bff2-ab15531cb090-light .marker.cross{stroke:#333333;}#gade5825e-45b3-4b69-bff2-ab15531cb090-light svg{font-family:"trebuchet ms",verdana,arial,sans-serif;font-size:16px;}#gade5825e-45b3-4b69-bff2-ab15531cb090-light p{margin:0;}#gade5825e-45b3-4b69-bff2-ab15531cb090-light .label{font-family:"trebuchet ms",verdana,arial,sans-serif;color:#333;}#gade5825e-45b3-4b69-bff2-ab15531cb090-light .cluster-label text{fill:#333;}#gade5825e-45b3-4b69-bff2-ab15531cb090-light .cluster-label span{color:#333;}#gade5825e-45b3-4b69-bff2-ab15531cb090-light .cluster-label span p{background-color:transparent;}#gade5825e-45b3-4b69-bff2-ab15531cb090-light .label text,#gade5825e-45b3-4b69-bff2-ab15531cb090-light span{fill:#333;color:#333;}#gade5825e-45b3-4b69-bff2-ab15531cb090-light .node rect,#gade5825e-45b3-4b69-bff2-ab15531cb090-light .node circle,#gade5825e-45b3-4b69-bff2-ab15531cb090-light .node ellipse,#gade5825e-45b3-4b69-bff2-ab15531cb090-light .node polygon,#gade5825e-45b3-4b69-bff2-ab15531cb090-light .node path{fill:#ECECFF;stroke:#9370DB;stroke-width:1px;}#gade5825e-45b3-4b69-bff2-ab15531cb090-light .rough-node .label text,#gade5825e-45b3-4b69-bff2-ab15531cb090-light .node .label text,#gade5825e-45b3-4b69-bff2-ab15531cb090-light .image-shape .label,#gade5825e-45b3-4b69-bff2-ab15531cb090-light .icon-shape .label{text-anchor:middle;}#gade5825e-45b3-4b69-bff2-ab15531cb090-light .node .katex path{fill:#000;stroke:#000;stroke-width:1px;}#gade5825e-45b3-4b69-bff2-ab15531cb090-light .rough-node .label,#gade5825e-45b3-4b69-bff2-ab15531cb090-light .node .label,#gade5825e-45b3-4b69-bff2-ab15531cb090-light .image-shape .label,#gade5825e-45b3-4b69-bff2-ab15531cb090-light .icon-shape .label{text-align:center;}#gade5825e-45b3-4b69-bff2-ab15531cb090-light .node.clickable{cursor:pointer;}#gade5825e-45b3-4b69-bff2-ab15531cb090-light .root .anchor path{fill:#333333!important;stroke-width:0;stroke:#333333;}#gade5825e-45b3-4b69-bff2-ab15531cb090-light .arrowheadPath{fill:#333333;}#gade5825e-45b3-4b69-bff2-ab15531cb090-light .edgePath .path{stroke:#333333;stroke-width:1px;}#gade5825e-45b3-4b69-bff2-ab15531cb090-light .flowchart-link{stroke:#333333;fill:none;}#gade5825e-45b3-4b69-bff2-ab15531cb090-light .edgeLabel{background-color:rgba(232,232,232, 0.8);text-align:center;}#gade5825e-45b3-4b69-bff2-ab15531cb090-light .edgeLabel p{background-color:rgba(232,232,232, 0.8);}#gade5825e-45b3-4b69-bff2-ab15531cb090-light .edgeLabel rect{opacity:0.5;background-color:rgba(232,232,232, 0.8);fill:rgba(232,232,232, 0.8);}#gade5825e-45b3-4b69-bff2-ab15531cb090-light .labelBkg{background-color:rgba(232, 232, 232, 0.5);}#gade5825e-45b3-4b69-bff2-ab15531cb090-light .cluster rect{fill:#ffffde;stroke:#aaaa33;stroke-width:1px;}#gade5825e-45b3-4b69-bff2-ab15531cb090-light .cluster text{fill:#333;}#gade5825e-45b3-4b69-bff2-ab15531cb090-light .cluster span{color:#333;}#gade5825e-45b3-4b69-bff2-ab15531cb090-light div.mermaidTooltip{position:absolute;text-align:center;max-width:200px;padding:2px;font-family:"trebuchet ms",verdana,arial,sans-serif;font-size:12px;background:hsl(80, 100%, 96.2745098039%);border:1px solid #aaaa33;border-radius:2px;pointer-events:none;z-index:100;}#gade5825e-45b3-4b69-bff2-ab15531cb090-light .flowchartTitleText{text-anchor:middle;font-size:18px;fill:#333;}#gade5825e-45b3-4b69-bff2-ab15531cb090-light rect.text{fill:none;stroke-width:0;}#gade5825e-45b3-4b69-bff2-ab15531cb090-light .icon-shape,#gade5825e-45b3-4b69-bff2-ab15531cb090-light .image-shape{background-color:rgba(232,232,232, 0.8);text-align:center;}#gade5825e-45b3-4b69-bff2-ab15531cb090-light .icon-shape p,#gade5825e-45b3-4b69-bff2-ab15531cb090-light .image-shape p{background-color:rgba(232,232,232, 0.8);padding:2px;}#gade5825e-45b3-4b69-bff2-ab15531cb090-light .icon-shape .label rect,#gade5825e-45b3-4b69-bff2-ab15531cb090-light .image-shape .label rect{opacity:0.5;background-color:rgba(232,232,232, 0.8);fill:rgba(232,232,232, 0.8);}#gade5825e-45b3-4b69-bff2-ab15531cb090-light .label-icon{display:inline-block;height:1em;overflow:visible;vertical-align:-0.125em;}#gade5825e-45b3-4b69-bff2-ab15531cb090-light .node .label-icon path{fill:currentColor;stroke:revert;stroke-width:revert;}#gade5825e-45b3-4b69-bff2-ab15531cb090-light .node .neo-node{stroke:#9370DB;}#gade5825e-45b3-4b69-bff2-ab15531cb090-light [data-look="neo"].node rect,#gade5825e-45b3-4b69-bff2-ab15531cb090-light [data-look="neo"].cluster rect,#gade5825e-45b3-4b69-bff2-ab15531cb090-light [data-look="neo"].node polygon{stroke:#9370DB;filter:drop-shadow(1px 2px 2px rgba(185, 185, 185, 1));}#gade5825e-45b3-4b69-bff2-ab15531cb090-light [data-look="neo"].node path{stroke:#9370DB;stroke-width:1px;}#gade5825e-45b3-4b69-bff2-ab15531cb090-light [data-look="neo"].node .outer-path{filter:drop-shadow(1px 2px 2px rgba(185, 185, 185, 1));}#gade5825e-45b3-4b69-bff2-ab15531cb090-light [data-look="neo"].node .neo-line path{stroke:#9370DB;filter:none;}#gade5825e-45b3-4b69-bff2-ab15531cb090-light [data-look="neo"].node circle{stroke:#9370DB;filter:drop-shadow(1px 2px 2px rgba(185, 185, 185, 1));}#gade5825e-45b3-4b69-bff2-ab15531cb090-light [data-look="neo"].node circle .state-start{fill:#000000;}#gade5825e-45b3-4b69-bff2-ab15531cb090-light [data-look="neo"].icon-shape .icon{fill:#9370DB;filter:drop-shadow(1px 2px 2px rgba(185, 185, 185, 1));}#gade5825e-45b3-4b69-bff2-ab15531cb090-light [data-look="neo"].icon-shape .icon-neo path{stroke:#9370DB;filter:drop-shadow(1px 2px 2px rgba(185, 185, 185, 1));}#gade5825e-45b3-4b69-bff2-ab15531cb090-light :root{--mermaid-font-family:"trebuchet ms",verdana,arial,sans-serif;}</style><g><marker id="gade5825e-45b3-4b69-bff2-ab15531cb090-light_flowchart-v2-pointEnd" class="marker flowchart-v2" viewBox="0 0 10 10" refX="5" refY="5" markerUnits="userSpaceOnUse" markerWidth="8" markerHeight="8" orient="auto"><path d="M 0 0 L 10 5 L 0 10 z" class="arrowMarkerPath" style="stroke-width: 1; stroke-dasharray: 1, 0;"></path></marker><marker id="gade5825e-45b3-4b69-bff2-ab15531cb090-light_flowchart-v2-pointStart" class="marker flowchart-v2" viewBox="0 0 10 10" refX="4.5" refY="5" markerUnits="userSpaceOnUse" markerWidth="8" markerHeight="8" orient="auto"><path d="M 0 5 L 10 10 L 10 0 z" class="arrowMarkerPath" style="stroke-width: 1; stroke-dasharray: 1, 0;"></path></marker><marker id="gade5825e-45b3-4b69-bff2-ab15531cb090-light_flowchart-v2-pointEnd-margin" class="marker flowchart-v2" viewBox="0 0 11.5 14" refX="11.5" refY="7" markerUnits="userSpaceOnUse" markerWidth="10.5" markerHeight="14" orient="auto"><path d="M 0 0 L 11.5 7 L 0 14 z" class="arrowMarkerPath" style="stroke-width: 0; stroke-dasharray: 1, 0;"></path></marker><marker id="gade5825e-45b3-4b69-bff2-ab15531cb090-light_flowchart-v2-pointStart-margin" class="marker flowchart-v2" viewBox="0 0 11.5 14" refX="1" refY="7" markerUnits="userSpaceOnUse" markerWidth="11.5" markerHeight="14" orient="auto"><polygon points="0,7 11.5,14 11.5,0" class="arrowMarkerPath" style="stroke-width: 0; stroke-dasharray: 1, 0;"></polygon></marker><marker id="gade5825e-45b3-4b69-bff2-ab15531cb090-light_flowchart-v2-circleEnd" class="marker flowchart-v2" viewBox="0 0 10 10" refX="11" refY="5" markerUnits="userSpaceOnUse" markerWidth="11" markerHeight="11" orient="auto"><circle cx="5" cy="5" r="5" class="arrowMarkerPath" style="stroke-width: 1; stroke-dasharray: 1, 0;"></circle></marker><marker id="gade5825e-45b3-4b69-bff2-ab15531cb090-light_flowchart-v2-circleStart" class="marker flowchart-v2" viewBox="0 0 10 10" refX="-1" refY="5" markerUnits="userSpaceOnUse" markerWidth="11" markerHeight="11" orient="auto"><circle cx="5" cy="5" r="5" class="arrowMarkerPath" style="stroke-width: 1; stroke-dasharray: 1, 0;"></circle></marker><marker id="gade5825e-45b3-4b69-bff2-ab15531cb090-light_flowchart-v2-circleEnd-margin" class="marker flowchart-v2" viewBox="0 0 10 10" refY="5" refX="12.25" markerUnits="userSpaceOnUse" markerWidth="14" markerHeight="14" orient="auto"><circle cx="5" cy="5" r="5" class="arrowMarkerPath" style="stroke-width: 0; stroke-dasharray: 1, 0;"></circle></marker><marker id="gade5825e-45b3-4b69-bff2-ab15531cb090-light_flowchart-v2-circleStart-margin" class="marker flowchart-v2" viewBox="0 0 10 10" refX="-2" refY="5" markerUnits="userSpaceOnUse" markerWidth="14" markerHeight="14" orient="auto"><circle cx="5" cy="5" r="5" class="arrowMarkerPath" style="stroke-width: 0; stroke-dasharray: 1, 0;"></circle></marker><marker id="gade5825e-45b3-4b69-bff2-ab15531cb090-light_flowchart-v2-crossEnd" class="marker cross flowchart-v2" viewBox="0 0 11 11" refX="12" refY="5.2" markerUnits="userSpaceOnUse" markerWidth="11" markerHeight="11" orient="auto"><path d="M 1,1 l 9,9 M 10,1 l -9,9" class="arrowMarkerPath" style="stroke-width: 2; stroke-dasharray: 1, 0;"></path></marker><marker id="gade5825e-45b3-4b69-bff2-ab15531cb090-light_flowchart-v2-crossStart" class="marker cross flowchart-v2" viewBox="0 0 11 11" refX="-1" refY="5.2" markerUnits="userSpaceOnUse" markerWidth="11" markerHeight="11" orient="auto"><path d="M 1,1 l 9,9 M 10,1 l -9,9" class="arrowMarkerPath" style="stroke-width: 2; stroke-dasharray: 1, 0;"></path></marker><marker id="gade5825e-45b3-4b69-bff2-ab15531cb090-light_flowchart-v2-crossEnd-margin" class="marker cross flowchart-v2" viewBox="0 0 15 15" refX="17.7" refY="7.5" markerUnits="userSpaceOnUse" markerWidth="12" markerHeight="12" orient="auto"><path d="M 1,1 L 14,14 M 1,14 L 14,1" class="arrowMarkerPath" style="stroke-width: 2.5;"></path></marker><marker id="gade5825e-45b3-4b69-bff2-ab15531cb090-light_flowchart-v2-crossStart-margin" class="marker cross flowchart-v2" viewBox="0 0 15 15" refX="-3.5" refY="7.5" markerUnits="userSpaceOnUse" markerWidth="12" markerHeight="12" orient="auto"><path d="M 1,1 L 14,14 M 1,14 L 14,1" class="arrowMarkerPath" style="stroke-width: 2.5; stroke-dasharray: 1, 0;"></path></marker><g class="root"><g class="clusters"></g><g class="edgePaths"><path d="M223.314,42.5L223.231,46.583C223.147,50.667,222.981,58.833,222.897,66.417C222.814,74,222.814,81,222.814,84.5L222.814,88" id="gade5825e-45b3-4b69-bff2-ab15531cb090-light-L_start_docsQ_0" class="edge-thickness-normal edge-pattern-solid edge-thickness-normal edge-pattern-solid flowchart-link" style=";" data-edge="true" data-et="edge" data-id="L_start_docsQ_0" data-points="W3sieCI6MjIzLjMxNDA2NDAyNTg3ODksInkiOjQyLjV9LHsieCI6MjIyLjgxNDA2NDAyNTg3ODksInkiOjY3fSx7IngiOjIyMi44MTQwNjQwMjU4Nzg4OCwieSI6OTEuOTk5OTk5OTk5OTk5OTl9XQ==" data-look="classic" marker-end="url(#gade5825e-45b3-4b69-bff2-ab15531cb090-light_flowchart-v2-pointEnd)"></path><path d="M171.481,271.376L159.743,286.015C148.005,300.654,124.53,329.932,112.792,362.648C101.055,395.364,101.055,431.519,101.055,449.596L101.055,467.673" id="gade5825e-45b3-4b69-bff2-ab15531cb090-light-L_docsQ_docs_0" class="edge-thickness-normal edge-pattern-solid edge-thickness-normal edge-pattern-solid flowchart-link" style=";" data-edge="true" data-et="edge" data-id="L_docsQ_docs_0" data-points="W3sieCI6MTcxLjQ4MDc1NzkwNzQzMjUyLCJ5IjoyNzEuMzc2MDU5NzI2MjgwMjN9LHsieCI6MTAxLjA1NDY4NzUsInkiOjM1OS4yMDkzNjU4NDQ3MjY1Nn0seyJ4IjoxMDEuMDU0Njg3NSwieSI6NDcxLjY3MzQzMTM5NjQ4NDR9XQ==" data-look="classic" marker-end="url(#gade5825e-45b3-4b69-bff2-ab15531cb090-light_flowchart-v2-pointEnd)"></path><path d="M274.147,271.376L285.885,286.015C297.623,300.654,321.098,329.932,332.836,349.987C344.573,370.043,344.573,380.876,344.573,386.293L344.573,391.709" id="gade5825e-45b3-4b69-bff2-ab15531cb090-light-L_docsQ_hostQ_0" class="edge-thickness-normal edge-pattern-solid edge-thickness-normal edge-pattern-solid flowchart-link" style=";" data-edge="true" data-et="edge" data-id="L_docsQ_hostQ_0" data-points="W3sieCI6Mjc0LjE0NzM3MDE0NDMyNTMsInkiOjI3MS4zNzYwNTk3MjYyODAyM30seyJ4IjozNDQuNTczNDQwNTUxNzU3OCwieSI6MzU5LjIwOTM2NTg0NDcyNjU2fSx7IngiOjM0NC41NzM0NDA1NTE3NTc4LCJ5IjozOTUuNzA5MzY1ODQ0NzI2NTZ9XQ==" data-look="classic" marker-end="url(#gade5825e-45b3-4b69-bff2-ab15531cb090-light_flowchart-v2-pointEnd)"></path><path d="M390.012,551.199L401.289,564.855C412.566,578.512,435.121,605.825,446.398,624.898C457.675,643.971,457.675,654.804,457.675,660.221L457.675,665.637" id="gade5825e-45b3-4b69-bff2-ab15531cb090-light-L_hostQ_core_0" class="edge-thickness-normal edge-pattern-solid edge-thickness-normal edge-pattern-solid flowchart-link" style=";" data-edge="true" data-et="edge" data-id="L_hostQ_core_0" data-points="W3sieCI6MzkwLjAxMjA4MzUwOTMzNTQ3LCJ5Ijo1NTEuMTk4ODUzOTkwNjY0Nn0seyJ4Ijo0NTcuNjc1MDAzMDUxNzU3OCwieSI6NjMzLjEzNzQ5Njk0ODI0MjJ9LHsieCI6NDU3LjY3NTAwMzA1MTc1NzgsInkiOjY2OS42Mzc0OTY5NDgyNDIyfV0=" data-look="classic" marker-end="url(#gade5825e-45b3-4b69-bff2-ab15531cb090-light_flowchart-v2-pointEnd)"></path><path d="M457.675,718.637L457.675,724.721C457.675,730.804,457.675,742.971,457.675,754.471C457.675,765.971,457.675,776.804,457.675,782.221L457.675,787.637" id="gade5825e-45b3-4b69-bff2-ab15531cb090-light-L_core_siteQ_0" class="edge-thickness-normal edge-pattern-solid edge-thickness-normal edge-pattern-solid flowchart-link" style=";" data-edge="true" data-et="edge" data-id="L_core_siteQ_0" data-points="W3sieCI6NDU3LjY3NTAwMzA1MTc1NzgsInkiOjcxOC42Mzc0OTY5NDgyNDIyfSx7IngiOjQ1Ny42NzUwMDMwNTE3NTc4LCJ5Ijo3NTUuMTM3NDk2OTQ4MjQyMn0seyJ4Ijo0NTcuNjc1MDAzMDUxNzU3OCwieSI6NzkxLjYzNzQ5Njk0ODI0MjN9XQ==" data-look="classic" marker-end="url(#gade5825e-45b3-4b69-bff2-ab15531cb090-light_flowchart-v2-pointEnd)"></path><path d="M291.706,543.77L275.163,558.665C258.619,573.559,225.532,603.348,208.988,628.41C192.445,653.471,192.445,673.804,192.445,694.137C192.445,714.471,192.445,734.804,192.445,767.014C192.445,799.223,192.445,843.309,192.445,887.395C192.445,931.481,192.445,975.567,193.742,1003.045C195.04,1030.523,197.635,1041.393,198.932,1046.828L200.23,1052.262" id="gade5825e-45b3-4b69-bff2-ab15531cb090-light-L_hostQ_site_0" class="edge-thickness-normal edge-pattern-solid edge-thickness-normal edge-pattern-solid flowchart-link" style=";" data-edge="true" data-et="edge" data-id="L_hostQ_site_0" data-points="W3sieCI6MjkxLjcwNjQwNTAyODMyODgsInkiOjU0My43NzA0NjE0MjQ4MTMyfSx7IngiOjE5Mi40NDQ1MzQzMDE3NTc4LCJ5Ijo2MzMuMTM3NDk2OTQ4MjQyMn0seyJ4IjoxOTIuNDQ0NTM0MzAxNzU3OCwieSI6Njk0LjEzNzQ5Njk0ODI0MjJ9LHsieCI6MTkyLjQ0NDUzNDMwMTc1NzgsInkiOjc1NS4xMzc0OTY5NDgyNDIyfSx7IngiOjE5Mi40NDQ1MzQzMDE3NTc4LCJ5Ijo4ODcuMzk1MzA5NDQ4MjQyMn0seyJ4IjoxOTIuNDQ0NTM0MzAxNzU3OCwieSI6MTAxOS42NTMxMjE5NDgyNDIyfSx7IngiOjIwMS4xNTg1NDk4ODc2OTI4NiwieSI6MTA1Ni4xNTMxMjE5NDgyNDIyfV0=" data-look="classic" marker-end="url(#gade5825e-45b3-4b69-bff2-ab15531cb090-light_flowchart-v2-pointEnd)"></path><path d="M409.223,934.701L394.72,948.859C380.218,963.018,351.214,991.336,327.422,1011.228C303.63,1031.12,285.051,1042.586,275.761,1048.319L266.471,1054.052" id="gade5825e-45b3-4b69-bff2-ab15531cb090-light-L_siteQ_site_0" class="edge-thickness-normal edge-pattern-solid edge-thickness-normal edge-pattern-solid flowchart-link" style=";" data-edge="true" data-et="edge" data-id="L_siteQ_site_0" data-points="W3sieCI6NDA5LjIyMjU1ODY4MzIwNTE0LCJ5Ijo5MzQuNzAwNjc3NTc5Njg5Nn0seyJ4IjozMjIuMjEwMTU5MzAxNzU3OCwieSI6MTAxOS42NTMxMjE5NDgyNDIyfSx7IngiOjI2My4wNjY3OTE0NDU0MTM4NiwieSI6MTA1Ni4xNTMxMjE5NDgyNDIyfV0=" data-look="classic" marker-end="url(#gade5825e-45b3-4b69-bff2-ab15531cb090-light_flowchart-v2-pointEnd)"></path><path d="M471.525,969.303L472.944,977.695C474.363,986.087,477.2,1002.87,478.619,1018.145C480.038,1033.42,480.038,1047.186,480.038,1054.07L480.038,1060.953" id="gade5825e-45b3-4b69-bff2-ab15531cb090-light-L_siteQ_coreOnly_0" class="edge-thickness-normal edge-pattern-solid edge-thickness-normal edge-pattern-solid flowchart-link" style=";" data-edge="true" data-et="edge" data-id="L_siteQ_coreOnly_0" data-points="W3sieCI6NDcxLjUyNDcyMzI5OTQwMiwieSI6OTY5LjMwMzQwMTcwMDU5OH0seyJ4Ijo0ODAuMDM4Mjg0MzAxNzU3OCwieSI6MTAxOS42NTMxMjE5NDgyNDIyfSx7IngiOjQ4MC4wMzgyODQzMDE3NTc4LCJ5IjoxMDY0Ljk1MzEyMTE4NTMwMjd9XQ==" data-look="classic" marker-end="url(#gade5825e-45b3-4b69-bff2-ab15531cb090-light_flowchart-v2-pointEnd)"></path></g><g class="edgeLabels"><g class="edgeLabel"><g class="label" data-id="L_start_docsQ_0" transform="translate(0, 0)"><text y="-10.1" text-anchor="middle"><tspan class="text-outer-tspan row" x="0" y="-0.1em" dy="1.1em" text-anchor="middle"></tspan></text></g></g><g><rect class="background" style="stroke: none"></rect></g><g class="edgeLabel" transform="translate(101.0546875, 359.20936584472656)"><g class="label" data-id="L_docsQ_docs_0" transform="translate(0, -10.5)"><g><rect class="background" style="" x="-13.328125" y="-1" width="26.65625" height="23"></rect><text y="-10.1" text-anchor="middle" style=""><tspan class="text-outer-tspan row" x="0" y="-0.1em" dy="1.1em" text-anchor="middle"><tspan font-style="normal" class="text-inner-tspan" font-weight="normal">Yes</tspan></tspan></text></g></g></g><g class="edgeLabel" transform="translate(344.5734405517578, 359.20936584472656)"><g class="label" data-id="L_docsQ_hostQ_0" transform="translate(0, -10.5)"><g><rect class="background" style="" x="-11.3984375" y="-1" width="22.796875" height="23"></rect><text y="-10.1" text-anchor="middle" style=""><tspan class="text-outer-tspan row" x="0" y="-0.1em" dy="1.1em" text-anchor="middle"><tspan font-style="normal" class="text-inner-tspan" font-weight="normal">No</tspan></tspan></text></g></g></g><g class="edgeLabel" transform="translate(457.6750030517578, 633.1374969482422)"><g class="label" data-id="L_hostQ_core_0" transform="translate(0, -10.5)"><g><rect class="background" style="" x="-13.328125" y="-1" width="26.65625" height="23"></rect><text y="-10.1" text-anchor="middle" style=""><tspan class="text-outer-tspan row" x="0" y="-0.1em" dy="1.1em" text-anchor="middle"><tspan font-style="normal" class="text-inner-tspan" font-weight="normal">Yes</tspan></tspan></text></g></g></g><g class="edgeLabel"><g class="label" data-id="L_core_siteQ_0" transform="translate(0, 0)"><text y="-10.1" text-anchor="middle"><tspan class="text-outer-tspan row" x="0" y="-0.1em" dy="1.1em" text-anchor="middle"></tspan></text></g></g><g><rect class="background" style="stroke: none"></rect></g><g class="edgeLabel" transform="translate(192.4445343017578, 755.1374969482422)"><g class="label" data-id="L_hostQ_site_0" transform="translate(0, -10.5)"><g><rect class="background" style="" x="-11.3984375" y="-1" width="22.796875" height="23"></rect><text y="-10.1" text-anchor="middle" style=""><tspan class="text-outer-tspan row" x="0" y="-0.1em" dy="1.1em" text-anchor="middle"><tspan font-style="normal" class="text-inner-tspan" font-weight="normal">No</tspan></tspan></text></g></g></g><g class="edgeLabel" transform="translate(340.852, 1001.45262)"><g class="label" data-id="L_siteQ_site_0" transform="translate(0, -10.5)"><g><rect class="background" style="" x="-13.328125" y="-1" width="26.65625" height="23"></rect><text y="-10.1" text-anchor="middle" style=""><tspan class="text-outer-tspan row" x="0" y="-0.1em" dy="1.1em" text-anchor="middle"><tspan font-style="normal" class="text-inner-tspan" font-weight="normal">Yes</tspan></tspan></text></g></g></g><g class="edgeLabel" transform="translate(480.0382843017578, 1019.6531219482422)"><g class="label" data-id="L_siteQ_coreOnly_0" transform="translate(0, -10.5)"><g><rect class="background" style="" x="-11.3984375" y="-1" width="22.796875" height="23"></rect><text y="-10.1" text-anchor="middle" style=""><tspan class="text-outer-tspan row" x="0" y="-0.1em" dy="1.1em" text-anchor="middle"><tspan font-style="normal" class="text-inner-tspan" font-weight="normal">No</tspan></tspan></text></g></g></g></g><g class="nodes"><g class="node default" id="gade5825e-45b3-4b69-bff2-ab15531cb090-light-flowchart-start-0" data-look="classic" transform="translate(222.8140640258789, 25)"><g class="basic label-container outer-path"><path d="M-30.875 -17 C-13.436200826838643 -17, 4.0025983463227135 -17, 30.875 -17 C30.875 -17, 30.875 -17, 30.875 -17 C31.298185373153068 -16.98642926876334, 31.721370746306135 -16.97285853752668, 31.96419373967212 -16.965071676755716 C32.27974511973981 -16.934630814626644, 32.5952964998075 -16.904189952497575, 33.0489117486366 -16.860430234995185 C33.41337533510098 -16.80150658879295, 33.77783892156537 -16.742582942590715, 34.124696687923326 -16.686505668848113 C34.533507175638064 -16.593197342764967, 34.94231766335281 -16.499889016681824, 35.18712792646162 -16.4440126716635 C35.50234168604057 -16.350458882411257, 35.817555445619526 -16.25690509315901, 36.23183970640155 -16.133947699181366 C36.612932278845605 -15.993702109740832, 36.99402485128966 -15.853456520300297, 37.25453908294936 -15.757584874882369 C37.593707371170154 -15.607445134756823, 37.93287565939095 -15.457305394631279, 38.25102356499849 -15.316470754341125 C38.61634975040358 -15.12588031741788, 38.98167593580867 -14.935289880494635, 39.21719838406694 -14.812417970097622 C39.527399271571106 -14.624372369149839, 39.83760015907527 -14.436326768202054, 40.149093320579325 -14.247497783161291 C40.42070860481631 -14.058030718913717, 40.692323889053306 -13.868563654666143, 41.042879018350675 -13.624031571755262 C41.30178092319476 -13.41756419231114, 41.56068282803885 -13.211096812867018, 41.8948827202324 -12.944581292275288 C42.18490364650742 -12.681191960565526, 42.47492457278244 -12.417802628855766, 42.70160336025927 -12.21193895166137 C42.949699998630585 -11.95575880343016, 43.19779663700191 -11.699578655198948, 43.45972595028036 -11.42911513444239 C43.6179586378046 -11.243246015981432, 43.77619132532884 -11.057376897520477, 44.16613520195651 -10.59932663159847 C44.40677951930323 -10.27688516950218, 44.64742383664994 -9.954443707405888, 44.81792832814825 -9.725983222076888 C45.01857897312033 -9.41772994915737, 45.21922961809241 -9.109476676237849, 45.41242697109088 -8.812673661278927 C45.551498169578934 -8.565738665877484, 45.690569368066996 -8.318803670476042, 45.947188208341004 -7.863150934094199 C46.10277022724951 -7.540081542908763, 46.25835224615802 -7.217012151723327, 46.42001459126881 -6.881316833080699 C46.580879401878974 -6.483977640764057, 46.74174421248914 -6.086638448447416, 46.828963174845924 -5.871205925162238 C46.96124349851265 -5.472798666285467, 47.09352382217937 -5.0743914074086955, 47.172353501623235 -4.836968972727556 C47.26750722751753 -4.474106576006944, 47.36266095341182 -4.111244179286332, 47.448774507091 -3.7828558772573464 C47.525537700166254 -3.3886931047225133, 47.602300893241505 -2.99453033218768, 47.65709031804565 -2.713198215567453 C47.70688427232079 -2.3270061391378514, 47.756678226595945 -1.9408140627082502, 47.796444920136366 -1.632391440430593 C47.81766847658012 -1.301817417472791, 47.83889203302387 -0.9712433945149889, 47.8662656754117 -0.5448768187181379 C47.8662656754117 -0.1744758450784064, 47.8662656754117 0.19592512856132505, 47.8662656754117 0.5448768187181336 C47.848970358921335 0.8142653335837271, 47.831675042430966 1.0836538484493206, 47.796444920136366 1.6323914404305815 C47.75425888039498 1.9595780340889986, 47.71207284065359 2.2867646277474156, 47.657090318045654 2.7131982155674415 C47.61382086554335 2.9353777091647206, 47.57055141304106 3.1575572027619994, 47.448774507091 3.782855877257343 C47.385600149130724 4.0237670840998225, 47.322425791170446 4.264678290942302, 47.172353501623235 4.836968972727545 C47.1008509720298 5.052323199482013, 47.02934844243635 5.267677426236479, 46.828963174845924 5.871205925162227 C46.68775375377763 6.21999592529935, 46.54654433270933 6.568785925436474, 46.42001459126881 6.881316833080694 C46.29081244890397 7.149607846184271, 46.16161030653913 7.417898859287846, 45.947188208341004 7.863150934094196 C45.80907455427605 8.108385712410533, 45.6709609002111 8.35362049072687, 45.41242697109089 8.812673661278923 C45.29239624723249 8.997073085887791, 45.17236552337409 9.18147251049666, 44.817928328148255 9.725983222076879 C44.60635060060789 10.00947810185346, 44.394772873067524 10.292972981630042, 44.16613520195651 10.599326631598467 C44.02370763999316 10.766630150238473, 43.881280078029825 10.93393366887848, 43.45972595028037 11.42911513444238 C43.16275667150682 11.735760296407292, 42.86578739273327 12.042405458372205, 42.70160336025927 12.211938951661365 C42.41912938178562 12.468474345059217, 42.13665540331198 12.72500973845707, 41.89488272023242 12.944581292275275 C41.596181956618715 13.182787202496057, 41.29748119300501 13.420993112716838, 41.042879018350675 13.62403157175526 C40.798691328937394 13.794366333175264, 40.55450363952411 13.964701094595267, 40.14909332057934 14.247497783161286 C39.955488253949376 14.36486231230203, 39.76188318731941 14.482226841442776, 39.21719838406695 14.81241797009762 C39.021695951759554 14.914411463807102, 38.826193519452154 15.016404957516587, 38.25102356499849 15.316470754341124 C37.917951477776704 15.463911887121785, 37.58487939055492 15.611353019902449, 37.254539082949364 15.757584874882367 C36.99173144211171 15.854300516077826, 36.72892380127405 15.951016157273283, 36.23183970640156 16.133947699181363 C35.81924171771134 16.256404616453583, 35.40664372902113 16.378861533725804, 35.18712792646164 16.444012671663497 C34.80533070851635 16.531155395199825, 34.42353349057106 16.61829811873615, 34.12469668792333 16.68650566884811 C33.90671014875676 16.721748041989702, 33.68872360959018 16.756990415131295, 33.04891174863661 16.86043023499518 C32.80966833594141 16.883509759285587, 32.57042492324621 16.906589283575993, 31.96419373967212 16.965071676755716 C31.535982711188552 16.978803570976982, 31.107771682704985 16.992535465198245, 30.875000000000004 17 C30.875000000000004 17, 30.875 17, 30.875 17 C13.935953345394822 17, -3.0030933092103567 17, -30.874999999999996 17 C-31.253050441301617 16.987876658178, -31.631100882603242 16.975753316356002, -31.964193739672112 16.965071676755716 C-32.34218286955583 16.928607519994273, -32.72017199943954 16.89214336323283, -33.048911748636606 16.86043023499518 C-33.361468591496354 16.809898468556135, -33.674025434356096 16.759366702117088, -34.124696687923326 16.68650566884811 C-34.42383227783134 16.618229922493757, -34.72296786773935 16.54995417613941, -35.18712792646162 16.4440126716635 C-35.46800198311476 16.360650725986858, -35.74887603976789 16.27728878031022, -36.231839706401544 16.13394769918137 C-36.62706028782704 15.988502871837781, -37.02228086925254 15.843058044494192, -37.254539082949364 15.757584874882369 C-37.6110365914545 15.599774002990001, -37.96753409995963 15.441963131097635, -38.25102356499848 15.316470754341127 C-38.462109707066766 15.20634724923123, -38.67319584913505 15.096223744121335, -39.21719838406693 14.812417970097624 C-39.40532917111633 14.698371981409057, -39.59345995816573 14.58432599272049, -40.14909332057932 14.247497783161299 C-40.4690911923195 14.02428112031995, -40.78908906405969 13.8010644574786, -41.04287901835067 13.624031571755264 C-41.33386109673443 13.39198110760252, -41.624843175118194 13.159930643449776, -41.8948827202324 12.94458129227529 C-42.07000497392881 12.78553989494914, -42.24512722762521 12.62649849762299, -42.70160336025926 12.211938951661377 C-42.98524578664634 11.919054858940427, -43.268888213033414 11.626170766219476, -43.459725950280365 11.429115134442386 C-43.726005279245186 11.11632828291726, -43.99228460821001 10.803541431392134, -44.16613520195651 10.599326631598473 C-44.34469554842658 10.360072034510786, -44.52325589489666 10.1208174374231, -44.81792832814825 9.72598322207689 C-45.02234682692415 9.411941513904294, -45.22676532570005 9.097899805731698, -45.41242697109088 8.812673661278936 C-45.57391929500179 8.525927687304085, -45.73541161891269 8.239181713329234, -45.947188208341004 7.863150934094201 C-46.07640627230838 7.5948268594422865, -46.20562433627576 7.326502784790372, -46.42001459126881 6.881316833080701 C-46.573053828510815 6.5033069582805805, -46.72609306575282 6.12529708348046, -46.828963174845924 5.87120592516224 C-46.941058112439386 5.533593833033619, -47.05315305003285 5.1959817409049975, -47.172353501623235 4.8369689727275516 C-47.23949429269785 4.580932037357116, -47.30663508377247 4.324895101986682, -47.448774507091 3.782855877257349 C-47.49502395016644 3.5453747618882083, -47.54127339324189 3.307893646519068, -47.65709031804565 2.713198215567455 C-47.70984379981435 2.304052628322668, -47.76259728158305 1.8949070410778812, -47.796444920136366 1.6323914404306026 C-47.8175389991979 1.3038341322130749, -47.838633078259434 0.9752768239955474, -47.8662656754117 0.54487681871814 C-47.8662656754117 0.17369450717964147, -47.8662656754117 -0.19748780435885704, -47.8662656754117 -0.5448768187181317 C-47.85181901967538 -0.7698951429418585, -47.83737236393907 -0.9949134671655853, -47.796444920136366 -1.6323914404305793 C-47.75078748765923 -1.9865014706434558, -47.70513005518209 -2.3406115008563324, -47.657090318045654 -2.713198215567447 C-47.58437462333198 -3.0865779394546213, -47.51165892861832 -3.459957663341796, -47.448774507091 -3.782855877257341 C-47.34674568369488 -4.1719360004385555, -47.244716860298745 -4.56101612361977, -47.172353501623235 -4.836968972727544 C-47.069411720538966 -5.14701321580792, -46.9664699394547 -5.457057458888297, -46.82896317484593 -5.871205925162218 C-46.73315339748438 -6.107857927601287, -46.63734362012282 -6.344509930040356, -46.42001459126881 -6.881316833080692 C-46.24791638940293 -7.238682431566811, -46.07581818753706 -7.59604803005293, -45.947188208341004 -7.863150934094194 C-45.77284925155919 -8.172707405593988, -45.59851029477737 -8.482263877093782, -45.41242697109088 -8.812673661278929 C-45.24263020191771 -9.073527095545598, -45.07283343274454 -9.334380529812268, -44.81792832814825 -9.725983222076884 C-44.58188510943914 -10.042259631167484, -44.345841890730036 -10.358536040258084, -44.16613520195651 -10.599326631598467 C-43.969196545608 -10.830661983472424, -43.7722578892595 -11.061997335346383, -43.45972595028037 -11.42911513444238 C-43.158089756885374 -11.740579268914756, -42.856453563490376 -12.052043403387131, -42.70160336025928 -12.21193895166136 C-42.49455921921399 -12.399970962470904, -42.28751507816871 -12.588002973280451, -41.89488272023242 -12.944581292275274 C-41.60135453667728 -13.178662207547484, -41.307826353122145 -13.412743122819696, -41.042879018350675 -13.624031571755259 C-40.69423083770044 -13.867233449840377, -40.3455826570502 -14.110435327925494, -40.14909332057934 -14.247497783161284 C-39.86259970161012 -14.42117189860381, -39.576106082640905 -14.594846014046334, -39.21719838406695 -14.812417970097618 C-38.920467112617104 -14.967222484347552, -38.62373584116726 -15.122026998597484, -38.25102356499849 -15.316470754341124 C-37.85292448529183 -15.492697407737644, -37.45482540558517 -15.668924061134165, -37.25453908294937 -15.757584874882365 C-36.94790676674177 -15.870428401724823, -36.64127445053416 -15.983271928567282, -36.231839706401566 -16.133947699181363 C-35.96547458418666 -16.213003469275687, -35.69910946197175 -16.292059239370015, -35.18712792646164 -16.444012671663494 C-34.879959632610266 -16.51412183027463, -34.57279133875889 -16.58423098888576, -34.12469668792333 -16.68650566884811 C-33.904980339126645 -16.722027704195824, -33.68526399032995 -16.757549739543542, -33.04891174863661 -16.86043023499518 C-32.775250431192696 -16.88683001316311, -32.50158911374878 -16.913229791331037, -31.96419373967212 -16.965071676755716 C-31.682223122860908 -16.974113925614343, -31.400252506049696 -16.983156174472967, -30.875000000000004 -17 C-30.875000000000004 -17, -30.875000000000004 -17, -30.875 -17" stroke="none" stroke-width="0" fill="#ECECFF" style=""></path><path d="M-30.875 -17 C-10.42767410307237 -17, 10.01965179385526 -17, 30.875 -17 M-30.875 -17 C-13.66854506246817 -17, 3.5379098750636615 -17, 30.875 -17 M30.875 -17 C30.875 -17, 30.875 -17, 30.875 -17 M30.875 -17 C30.875 -17, 30.875 -17, 30.875 -17 M30.875 -17 C31.278418535074138 -16.987063152786714, 31.681837070148273 -16.97412630557343, 31.96419373967212 -16.965071676755716 M30.875 -17 C31.283869529694357 -16.98688834999896, 31.692739059388717 -16.973776699997924, 31.96419373967212 -16.965071676755716 M31.96419373967212 -16.965071676755716 C32.339537953444555 -16.92886267187055, 32.714882167217 -16.892653666985385, 33.0489117486366 -16.860430234995185 M31.96419373967212 -16.965071676755716 C32.209364129190085 -16.94142038413945, 32.45453451870805 -16.917769091523187, 33.0489117486366 -16.860430234995185 M33.0489117486366 -16.860430234995185 C33.4658138733152 -16.793028732601414, 33.882715997993806 -16.725627230207643, 34.124696687923326 -16.686505668848113 M33.0489117486366 -16.860430234995185 C33.28664797950835 -16.821994884859848, 33.5243842103801 -16.783559534724507, 34.124696687923326 -16.686505668848113 M34.124696687923326 -16.686505668848113 C34.486037997811714 -16.604031872838497, 34.84737930770011 -16.521558076828885, 35.18712792646162 -16.4440126716635 M34.124696687923326 -16.686505668848113 C34.535608302717314 -16.592717774220265, 34.9465199175113 -16.498929879592417, 35.18712792646162 -16.4440126716635 M35.18712792646162 -16.4440126716635 C35.46144584586581 -16.36259655310848, 35.73576376527 -16.28118043455346, 36.23183970640155 -16.133947699181366 M35.18712792646162 -16.4440126716635 C35.50202465356296 -16.350552975986474, 35.816921380664304 -16.257093280309444, 36.23183970640155 -16.133947699181366 M36.23183970640155 -16.133947699181366 C36.485732408261754 -16.040512837938405, 36.73962511012195 -15.947077976695441, 37.25453908294936 -15.757584874882369 M36.23183970640155 -16.133947699181366 C36.48526879393002 -16.040683452298087, 36.738697881458485 -15.947419205414805, 37.25453908294936 -15.757584874882369 M37.25453908294936 -15.757584874882369 C37.49405983368861 -15.651556143660729, 37.733580584427855 -15.545527412439089, 38.25102356499849 -15.316470754341125 M37.25453908294936 -15.757584874882369 C37.49882548266968 -15.649446532224763, 37.743111882390004 -15.541308189567156, 38.25102356499849 -15.316470754341125 M38.25102356499849 -15.316470754341125 C38.531279553466625 -15.170261384669827, 38.81153554193476 -15.024052014998528, 39.21719838406694 -14.812417970097622 M38.25102356499849 -15.316470754341125 C38.54710506791468 -15.162005223919005, 38.84318657083086 -15.007539693496886, 39.21719838406694 -14.812417970097622 M39.21719838406694 -14.812417970097622 C39.46794395900701 -14.66041452902439, 39.718689533947085 -14.50841108795116, 40.149093320579325 -14.247497783161291 M39.21719838406694 -14.812417970097622 C39.422512359034215 -14.687955431913617, 39.62782633400149 -14.563492893729611, 40.149093320579325 -14.247497783161291 M40.149093320579325 -14.247497783161291 C40.41643050840593 -14.06101493377379, 40.68376769623254 -13.874532084386288, 41.042879018350675 -13.624031571755262 M40.149093320579325 -14.247497783161291 C40.37811910358404 -14.087739311303558, 40.607144886588756 -13.927980839445826, 41.042879018350675 -13.624031571755262 M41.042879018350675 -13.624031571755262 C41.222450862563804 -13.480827804602752, 41.40202270677694 -13.337624037450244, 41.8948827202324 -12.944581292275288 M41.042879018350675 -13.624031571755262 C41.34119871198865 -13.386129554699425, 41.63951840562663 -13.148227537643585, 41.8948827202324 -12.944581292275288 M41.8948827202324 -12.944581292275288 C42.1710642513883 -12.693760533042385, 42.447245782544194 -12.442939773809483, 42.70160336025927 -12.21193895166137 M41.8948827202324 -12.944581292275288 C42.146788535803616 -12.71580709563616, 42.39869435137482 -12.487032898997034, 42.70160336025927 -12.21193895166137 M42.70160336025927 -12.21193895166137 C42.856084906522064 -12.05242407197421, 43.01056645278486 -11.89290919228705, 43.45972595028036 -11.42911513444239 M42.70160336025927 -12.21193895166137 C42.85345009050035 -12.055144735839047, 43.005296820741435 -11.898350520016724, 43.45972595028036 -11.42911513444239 M43.45972595028036 -11.42911513444239 C43.718587627664206 -11.125041478540606, 43.977449305048054 -10.820967822638822, 44.16613520195651 -10.59932663159847 M43.45972595028036 -11.42911513444239 C43.73348920724956 -11.107537235235746, 44.00725246421877 -10.785959336029103, 44.16613520195651 -10.59932663159847 M44.16613520195651 -10.59932663159847 C44.41339732996353 -10.268017906112325, 44.66065945797055 -9.93670918062618, 44.81792832814825 -9.725983222076888 M44.16613520195651 -10.59932663159847 C44.36407249942556 -10.334108685448701, 44.562009796894614 -10.06889073929893, 44.81792832814825 -9.725983222076888 M44.81792832814825 -9.725983222076888 C45.00466302575912 -9.439108581259275, 45.191397723369995 -9.152233940441661, 45.41242697109088 -8.812673661278927 M44.81792832814825 -9.725983222076888 C45.01957476212368 -9.416200149841435, 45.22122119609911 -9.106417077605984, 45.41242697109088 -8.812673661278927 M45.41242697109088 -8.812673661278927 C45.526464885629906 -8.610187796423869, 45.640502800168925 -8.407701931568813, 45.947188208341004 -7.863150934094199 M45.41242697109088 -8.812673661278927 C45.591233602877494 -8.495184380406963, 45.770040234664116 -8.177695099534999, 45.947188208341004 -7.863150934094199 M45.947188208341004 -7.863150934094199 C46.13314995203003 -7.476997394380029, 46.31911169571906 -7.090843854665859, 46.42001459126881 -6.881316833080699 M45.947188208341004 -7.863150934094199 C46.089294461298316 -7.568064259241623, 46.23140071425562 -7.272977584389048, 46.42001459126881 -6.881316833080699 M46.42001459126881 -6.881316833080699 C46.571121451754806 -6.508079966227886, 46.7222283122408 -6.1348430993750735, 46.828963174845924 -5.871205925162238 M46.42001459126881 -6.881316833080699 C46.52205986196412 -6.629263041552199, 46.62410513265942 -6.377209250023698, 46.828963174845924 -5.871205925162238 M46.828963174845924 -5.871205925162238 C46.92880677677366 -5.570492904073525, 47.0286503787014 -5.269779882984812, 47.172353501623235 -4.836968972727556 M46.828963174845924 -5.871205925162238 C46.922086003933714 -5.590734801057719, 47.015208833021504 -5.310263676953199, 47.172353501623235 -4.836968972727556 M47.172353501623235 -4.836968972727556 C47.25562789726591 -4.519407610790655, 47.338902292908585 -4.201846248853753, 47.448774507091 -3.7828558772573464 M47.172353501623235 -4.836968972727556 C47.23827323594156 -4.585588455978204, 47.304192970259884 -4.334207939228852, 47.448774507091 -3.7828558772573464 M47.448774507091 -3.7828558772573464 C47.52596056739112 -3.38652177089586, 47.60314662769123 -2.9901876645343735, 47.65709031804565 -2.713198215567453 M47.448774507091 -3.7828558772573464 C47.51950390449216 -3.4196753702658054, 47.59023330189333 -3.056494863274265, 47.65709031804565 -2.713198215567453 M47.65709031804565 -2.713198215567453 C47.70438276151807 -2.346407362944633, 47.75167520499049 -1.979616510321813, 47.796444920136366 -1.632391440430593 M47.65709031804565 -2.713198215567453 C47.687951901590495 -2.4738418679025993, 47.71881348513534 -2.2344855202377456, 47.796444920136366 -1.632391440430593 M47.796444920136366 -1.632391440430593 C47.81847758095583 -1.2892149637237884, 47.84051024177529 -0.9460384870169838, 47.8662656754117 -0.5448768187181379 M47.796444920136366 -1.632391440430593 C47.81986466794779 -1.2676099641875267, 47.843284415759214 -0.9028284879444605, 47.8662656754117 -0.5448768187181379 M47.8662656754117 -0.5448768187181379 C47.8662656754117 -0.19823082721535773, 47.8662656754117 0.1484151642874224, 47.8662656754117 0.5448768187181336 M47.8662656754117 -0.5448768187181379 C47.8662656754117 -0.21611505276895437, 47.8662656754117 0.11264671318022912, 47.8662656754117 0.5448768187181336 M47.8662656754117 0.5448768187181336 C47.84166113011871 0.9281124720879173, 47.817056584825714 1.3113481254577009, 47.796444920136366 1.6323914404305815 M47.8662656754117 0.5448768187181336 C47.850637935488464 0.7882914825070486, 47.83501019556523 1.0317061462959636, 47.796444920136366 1.6323914404305815 M47.796444920136366 1.6323914404305815 C47.752335035983265 1.9744989914401931, 47.70822515183016 2.3166065424498044, 47.657090318045654 2.7131982155674415 M47.796444920136366 1.6323914404305815 C47.75397974804533 1.9617429294719475, 47.7115145759543 2.291094418513314, 47.657090318045654 2.7131982155674415 M47.657090318045654 2.7131982155674415 C47.59622770082893 3.025714891656586, 47.53536508361222 3.338231567745731, 47.448774507091 3.782855877257343 M47.657090318045654 2.7131982155674415 C47.58326376152382 3.0922819800588246, 47.50943720500198 3.4713657445502077, 47.448774507091 3.782855877257343 M47.448774507091 3.782855877257343 C47.384039586967035 4.0297181839818865, 47.31930466684307 4.276580490706429, 47.172353501623235 4.836968972727545 M47.448774507091 3.782855877257343 C47.374071423305935 4.0677311122511215, 47.29936833952087 4.3526063472449, 47.172353501623235 4.836968972727545 M47.172353501623235 4.836968972727545 C47.05960129413627 5.17656065705365, 46.94684908664931 5.516152341379755, 46.828963174845924 5.871205925162227 M47.172353501623235 4.836968972727545 C47.048545002490066 5.209860445911172, 46.924736503356904 5.5827519190947985, 46.828963174845924 5.871205925162227 M46.828963174845924 5.871205925162227 C46.67310975592797 6.256166883110455, 46.517256337010004 6.641127841058683, 46.42001459126881 6.881316833080694 M46.828963174845924 5.871205925162227 C46.66855519158994 6.267416745081888, 46.50814720833396 6.663627565001549, 46.42001459126881 6.881316833080694 M46.42001459126881 6.881316833080694 C46.24907567225424 7.236275155921391, 46.078136753239676 7.591233478762088, 45.947188208341004 7.863150934094196 M46.42001459126881 6.881316833080694 C46.26131902208596 7.210851578030115, 46.1026234529031 7.540386322979536, 45.947188208341004 7.863150934094196 M45.947188208341004 7.863150934094196 C45.82580700392762 8.07867555370991, 45.70442579951424 8.294200173325626, 45.41242697109089 8.812673661278923 M45.947188208341004 7.863150934094196 C45.73750737215915 8.235460491222117, 45.52782653597729 8.607770048350037, 45.41242697109089 8.812673661278923 M45.41242697109089 8.812673661278923 C45.21619680860164 9.114135886039056, 45.019966646112394 9.41559811079919, 44.817928328148255 9.725983222076879 M45.41242697109089 8.812673661278923 C45.24858852531734 9.064373510769915, 45.08475007954379 9.316073360260907, 44.817928328148255 9.725983222076879 M44.817928328148255 9.725983222076879 C44.575335762563974 10.051035159322435, 44.33274319697969 10.376087096567993, 44.16613520195651 10.599326631598467 M44.817928328148255 9.725983222076879 C44.67891376232053 9.912250075798543, 44.53989919649281 10.098516929520208, 44.16613520195651 10.599326631598467 M44.16613520195651 10.599326631598467 C43.9044530307605 10.906713400022662, 43.642770859564486 11.214100168446857, 43.45972595028037 11.42911513444238 M44.16613520195651 10.599326631598467 C43.92840119894254 10.878582518986661, 43.690667195928576 11.157838406374857, 43.45972595028037 11.42911513444238 M43.45972595028037 11.42911513444238 C43.195729608293455 11.70171303204664, 42.93173326630653 11.974310929650901, 42.70160336025927 12.211938951661365 M43.45972595028037 11.42911513444238 C43.1858563440456 11.71190798799262, 42.91198673781083 11.994700841542858, 42.70160336025927 12.211938951661365 M42.70160336025927 12.211938951661365 C42.38400095550741 12.50037705235786, 42.06639855075556 12.788815153054358, 41.89488272023242 12.944581292275275 M42.70160336025927 12.211938951661365 C42.412724577368095 12.474291018969375, 42.12384579447693 12.736643086277386, 41.89488272023242 12.944581292275275 M41.89488272023242 12.944581292275275 C41.630208063048265 13.15565228809121, 41.36553340586411 13.366723283907143, 41.042879018350675 13.62403157175526 M41.89488272023242 12.944581292275275 C41.68467136246005 13.112219256139577, 41.474460004687685 13.279857220003878, 41.042879018350675 13.62403157175526 M41.042879018350675 13.62403157175526 C40.80279370763167 13.791504691387242, 40.562708396912676 13.958977811019224, 40.14909332057934 14.247497783161286 M41.042879018350675 13.62403157175526 C40.84186321600579 13.76425149363722, 40.6408474136609 13.904471415519179, 40.14909332057934 14.247497783161286 M40.14909332057934 14.247497783161286 C39.786260508665585 14.467449165985682, 39.42342769675184 14.687400548810077, 39.21719838406695 14.81241797009762 M40.14909332057934 14.247497783161286 C39.79429995286045 14.462575607669736, 39.439506585141565 14.677653432178186, 39.21719838406695 14.81241797009762 M39.21719838406695 14.81241797009762 C38.841151020334955 15.008601638886768, 38.465103656602956 15.204785307675918, 38.25102356499849 15.316470754341124 M39.21719838406695 14.81241797009762 C38.86540208968501 14.995949871540391, 38.513605795303086 15.179481772983163, 38.25102356499849 15.316470754341124 M38.25102356499849 15.316470754341124 C37.967643092435836 15.441914883361564, 37.68426261987319 15.567359012382003, 37.254539082949364 15.757584874882367 M38.25102356499849 15.316470754341124 C37.86318306391344 15.488156239291781, 37.47534256282838 15.659841724242439, 37.254539082949364 15.757584874882367 M37.254539082949364 15.757584874882367 C36.991482012038354 15.854392308650525, 36.72842494112735 15.951199742418682, 36.23183970640156 16.133947699181363 M37.254539082949364 15.757584874882367 C36.9913677707063 15.854434350516756, 36.72819645846324 15.951283826151148, 36.23183970640156 16.133947699181363 M36.23183970640156 16.133947699181363 C35.89294964326597 16.234528491049765, 35.554059580130385 16.335109282918168, 35.18712792646164 16.444012671663497 M36.23183970640156 16.133947699181363 C35.92932088781655 16.22373369658371, 35.62680206923154 16.313519693986063, 35.18712792646164 16.444012671663497 M35.18712792646164 16.444012671663497 C34.876073661394855 16.515008777846216, 34.565019396328076 16.58600488402893, 34.12469668792333 16.68650566884811 M35.18712792646164 16.444012671663497 C34.86451140137268 16.517647788245476, 34.54189487628373 16.59128290482746, 34.12469668792333 16.68650566884811 M34.12469668792333 16.68650566884811 C33.84883815662526 16.73110433687352, 33.572979625327186 16.775703004898933, 33.04891174863661 16.86043023499518 M34.12469668792333 16.68650566884811 C33.83092246389098 16.73400080713653, 33.537148239858624 16.781495945424943, 33.04891174863661 16.86043023499518 M33.04891174863661 16.86043023499518 C32.677657790718094 16.896244657817373, 32.30640383279957 16.93205908063956, 31.96419373967212 16.965071676755716 M33.04891174863661 16.86043023499518 C32.6694326750652 16.897038124832257, 32.289953601493785 16.933646014669332, 31.96419373967212 16.965071676755716 M31.96419373967212 16.965071676755716 C31.686376015295306 16.973980750437086, 31.408558290918496 16.982889824118455, 30.875000000000004 17 M31.96419373967212 16.965071676755716 C31.68429998355938 16.974047324734105, 31.404406227446646 16.983022972712494, 30.875000000000004 17 M30.875000000000004 17 C30.875000000000004 17, 30.875 17, 30.875 17 M30.875000000000004 17 C30.875000000000004 17, 30.875000000000004 17, 30.875 17 M30.875 17 C13.903741578897758 17, -3.0675168422044834 17, -30.874999999999996 17 M30.875 17 C7.337095191676223 17, -16.200809616647554 17, -30.874999999999996 17 M-30.874999999999996 17 C-31.206593241393318 16.989366450155607, -31.53818648278664 16.97873290031121, -31.964193739672112 16.965071676755716 M-30.874999999999996 17 C-31.30722405664604 16.98613941577645, -31.739448113292077 16.9722788315529, -31.964193739672112 16.965071676755716 M-31.964193739672112 16.965071676755716 C-32.193516997095436 16.942949137913658, -32.42284025451877 16.920826599071596, -33.048911748636606 16.86043023499518 M-31.964193739672112 16.965071676755716 C-32.33660099966535 16.929145996269426, -32.70900825965859 16.893220315783136, -33.048911748636606 16.86043023499518 M-33.048911748636606 16.86043023499518 C-33.35083115405953 16.811618246946363, -33.652750559482456 16.76280625889754, -34.124696687923326 16.68650566884811 M-33.048911748636606 16.86043023499518 C-33.30746816253175 16.818628839131552, -33.56602457642689 16.776827443267923, -34.124696687923326 16.68650566884811 M-34.124696687923326 16.68650566884811 C-34.38995390770329 16.62596243939846, -34.65521112748325 16.56541920994881, -35.18712792646162 16.4440126716635 M-34.124696687923326 16.68650566884811 C-34.52629230866802 16.594844089069472, -34.927887929412705 16.503182509290838, -35.18712792646162 16.4440126716635 M-35.18712792646162 16.4440126716635 C-35.56519161503815 16.331805353390784, -35.943255303614684 16.219598035118068, -36.231839706401544 16.13394769918137 M-35.18712792646162 16.4440126716635 C-35.490582213149096 16.353949032238713, -35.794036499836565 16.26388539281393, -36.231839706401544 16.13394769918137 M-36.231839706401544 16.13394769918137 C-36.46819872883704 16.046965394046257, -36.70455775127253 15.959983088911143, -37.254539082949364 15.757584874882369 M-36.231839706401544 16.13394769918137 C-36.56689874551933 16.01064287553422, -36.90195778463712 15.887338051887067, -37.254539082949364 15.757584874882369 M-37.254539082949364 15.757584874882369 C-37.46387372033961 15.664918640601092, -37.67320835772986 15.572252406319816, -38.25102356499848 15.316470754341127 M-37.254539082949364 15.757584874882369 C-37.64043015609231 15.586762343853959, -38.02632122923525 15.415939812825549, -38.25102356499848 15.316470754341127 M-38.25102356499848 15.316470754341127 C-38.470835239648245 15.201795144472442, -38.690646914298014 15.087119534603756, -39.21719838406693 14.812417970097624 M-38.25102356499848 15.316470754341127 C-38.53089989217735 15.170459453721255, -38.81077621935622 15.024448153101382, -39.21719838406693 14.812417970097624 M-39.21719838406693 14.812417970097624 C-39.41047313927142 14.695253677684132, -39.6037478944759 14.57808938527064, -40.14909332057932 14.247497783161299 M-39.21719838406693 14.812417970097624 C-39.52581567768224 14.625332353071496, -39.83443297129755 14.43824673604537, -40.14909332057932 14.247497783161299 M-40.14909332057932 14.247497783161299 C-40.47112090633443 14.022865279688041, -40.79314849208954 13.798232776214784, -41.04287901835067 13.624031571755264 M-40.14909332057932 14.247497783161299 C-40.460268251154794 14.030435622137484, -40.77144318173027 13.813373461113668, -41.04287901835067 13.624031571755264 M-41.04287901835067 13.624031571755264 C-41.35041381928408 13.378780751855622, -41.657948620217496 13.13352993195598, -41.8948827202324 12.94458129227529 M-41.04287901835067 13.624031571755264 C-41.27679752718942 13.437487785789306, -41.51071603602817 13.250943999823349, -41.8948827202324 12.94458129227529 M-41.8948827202324 12.94458129227529 C-42.09481291200754 12.763009981968105, -42.294743103782686 12.581438671660921, -42.70160336025926 12.211938951661377 M-41.8948827202324 12.94458129227529 C-42.14236175923526 12.719827376989455, -42.389840798238104 12.495073461703623, -42.70160336025926 12.211938951661377 M-42.70160336025926 12.211938951661377 C-42.93170484742477 11.974340274479559, -43.161806334590274 11.736741597297742, -43.459725950280365 11.429115134442386 M-42.70160336025926 12.211938951661377 C-42.974748294419314 11.929894381524973, -43.24789322857936 11.647849811388568, -43.459725950280365 11.429115134442386 M-43.459725950280365 11.429115134442386 C-43.6160568475446 11.245479967035763, -43.77238774480883 11.061844799629142, -44.16613520195651 10.599326631598473 M-43.459725950280365 11.429115134442386 C-43.6796055932629 11.170831994288978, -43.89948523624544 10.912548854135569, -44.16613520195651 10.599326631598473 M-44.16613520195651 10.599326631598473 C-44.29697716151457 10.424010325738399, -44.42781912107264 10.248694019878325, -44.81792832814825 9.72598322207689 M-44.16613520195651 10.599326631598473 C-44.41994624115261 10.259242961737042, -44.67375728034872 9.91915929187561, -44.81792832814825 9.72598322207689 M-44.81792832814825 9.72598322207689 C-44.969876028838684 9.492550750145694, -45.12182372952912 9.259118278214498, -45.41242697109088 8.812673661278936 M-44.81792832814825 9.72598322207689 C-44.982985953733674 9.47241038499923, -45.14804357931911 9.218837547921574, -45.41242697109088 8.812673661278936 M-45.41242697109088 8.812673661278936 C-45.59377343252767 8.490674655677445, -45.77511989396446 8.168675650075956, -45.947188208341004 7.863150934094201 M-45.41242697109088 8.812673661278936 C-45.58852530489882 8.499993237713015, -45.764623638706766 8.187312814147093, -45.947188208341004 7.863150934094201 M-45.947188208341004 7.863150934094201 C-46.050396463113294 7.6488367847566545, -46.15360471788558 7.434522635419108, -46.42001459126881 6.881316833080701 M-45.947188208341004 7.863150934094201 C-46.06953797375737 7.609089028341516, -46.19188773917373 7.35502712258883, -46.42001459126881 6.881316833080701 M-46.42001459126881 6.881316833080701 C-46.55267062686819 6.553653860420263, -46.68532666246757 6.225990887759825, -46.828963174845924 5.87120592516224 M-46.42001459126881 6.881316833080701 C-46.57602198435348 6.495975555963808, -46.73202937743815 6.110634278846914, -46.828963174845924 5.87120592516224 M-46.828963174845924 5.87120592516224 C-46.92756812941988 5.574223512551455, -47.02617308399384 5.277241099940671, -47.172353501623235 4.8369689727275516 M-46.828963174845924 5.87120592516224 C-46.90044769756257 5.655905932251667, -46.97193222027922 5.440605939341093, -47.172353501623235 4.8369689727275516 M-47.172353501623235 4.8369689727275516 C-47.237423961761436 4.588827106504773, -47.30249442189964 4.340685240281995, -47.448774507091 3.782855877257349 M-47.172353501623235 4.8369689727275516 C-47.24153077501468 4.573166047666012, -47.310708048406134 4.3093631226044735, -47.448774507091 3.782855877257349 M-47.448774507091 3.782855877257349 C-47.50251053341986 3.5069327391718566, -47.556246559748715 3.231009601086364, -47.65709031804565 2.713198215567455 M-47.448774507091 3.782855877257349 C-47.5197938852642 3.418186380288866, -47.5908132634374 3.053516883320383, -47.65709031804565 2.713198215567455 M-47.65709031804565 2.713198215567455 C-47.70792360890569 2.3189452498256298, -47.758756899765736 1.9246922840838043, -47.796444920136366 1.6323914404306026 M-47.65709031804565 2.713198215567455 C-47.70374145451803 2.3513812133965097, -47.75039259099042 1.989564211225564, -47.796444920136366 1.6323914404306026 M-47.796444920136366 1.6323914404306026 C-47.81115448577127 1.4032780823193616, -47.82586405140617 1.1741647242081206, -47.8662656754117 0.54487681871814 M-47.796444920136366 1.6323914404306026 C-47.815458579605746 1.336238346645398, -47.83447223907512 1.0400852528601936, -47.8662656754117 0.54487681871814 M-47.8662656754117 0.54487681871814 C-47.8662656754117 0.2818845687786765, -47.8662656754117 0.01889231883921305, -47.8662656754117 -0.5448768187181317 M-47.8662656754117 0.54487681871814 C-47.8662656754117 0.17939534204515784, -47.8662656754117 -0.1860861346278243, -47.8662656754117 -0.5448768187181317 M-47.8662656754117 -0.5448768187181317 C-47.847186986329156 -0.8420428012193313, -47.828108297246615 -1.1392087837205311, -47.796444920136366 -1.6323914404305793 M-47.8662656754117 -0.5448768187181317 C-47.84837185636119 -0.8235874940604918, -47.830478037310684 -1.102298169402852, -47.796444920136366 -1.6323914404305793 M-47.796444920136366 -1.6323914404305793 C-47.75055506550907 -1.9883040909431693, -47.704665210881764 -2.3442167414557593, -47.657090318045654 -2.713198215567447 M-47.796444920136366 -1.6323914404305793 C-47.74631253484942 -2.021208320956916, -47.69618014956248 -2.4100252014832524, -47.657090318045654 -2.713198215567447 M-47.657090318045654 -2.713198215567447 C-47.61324595911704 -2.938329732157359, -47.56940160018842 -3.163461248747272, -47.448774507091 -3.782855877257341 M-47.657090318045654 -2.713198215567447 C-47.591855961828124 -3.048162847458392, -47.52662160561059 -3.383127479349337, -47.448774507091 -3.782855877257341 M-47.448774507091 -3.782855877257341 C-47.349836313982294 -4.1601500876649835, -47.250898120873586 -4.537444298072625, -47.172353501623235 -4.836968972727544 M-47.448774507091 -3.782855877257341 C-47.377761904337135 -4.053657708614569, -47.30674930158326 -4.324459539971797, -47.172353501623235 -4.836968972727544 M-47.172353501623235 -4.836968972727544 C-47.043290820746336 -5.225685204183126, -46.91422813986944 -5.614401435638709, -46.82896317484593 -5.871205925162218 M-47.172353501623235 -4.836968972727544 C-47.04334057713419 -5.225535345870505, -46.91432765264515 -5.614101719013466, -46.82896317484593 -5.871205925162218 M-46.82896317484593 -5.871205925162218 C-46.71587243623821 -6.150542235983982, -46.60278169763048 -6.429878546805747, -46.42001459126881 -6.881316833080692 M-46.82896317484593 -5.871205925162218 C-46.69876131085712 -6.192807046496365, -46.56855944686831 -6.514408167830512, -46.42001459126881 -6.881316833080692 M-46.42001459126881 -6.881316833080692 C-46.246117048715895 -7.242418801003169, -46.07221950616298 -7.603520768925646, -45.947188208341004 -7.863150934094194 M-46.42001459126881 -6.881316833080692 C-46.26606484416757 -7.20099677693331, -46.11211509706634 -7.520676720785926, -45.947188208341004 -7.863150934094194 M-45.947188208341004 -7.863150934094194 C-45.81142439306382 -8.104213335695869, -45.67566057778663 -8.345275737297545, -45.41242697109088 -8.812673661278929 M-45.947188208341004 -7.863150934094194 C-45.79907129423695 -8.12614751354987, -45.650954380132895 -8.389144093005546, -45.41242697109088 -8.812673661278929 M-45.41242697109088 -8.812673661278929 C-45.268974758158684 -9.033054782655586, -45.12552254522649 -9.253435904032244, -44.81792832814825 -9.725983222076884 M-45.41242697109088 -8.812673661278929 C-45.183463873996914 -9.164422463615571, -44.95450077690295 -9.516171265952215, -44.81792832814825 -9.725983222076884 M-44.81792832814825 -9.725983222076884 C-44.56485492961063 -10.065078520656387, -44.31178153107302 -10.404173819235888, -44.16613520195651 -10.599326631598467 M-44.81792832814825 -9.725983222076884 C-44.56898888974275 -10.059539390690869, -44.32004945133725 -10.393095559304856, -44.16613520195651 -10.599326631598467 M-44.16613520195651 -10.599326631598467 C-43.92820505909724 -10.878812916009629, -43.69027491623797 -11.158299200420792, -43.45972595028037 -11.42911513444238 M-44.16613520195651 -10.599326631598467 C-43.95622183566134 -10.845902816057688, -43.74630846936617 -11.09247900051691, -43.45972595028037 -11.42911513444238 M-43.45972595028037 -11.42911513444238 C-43.30300704396751 -11.59094027207191, -43.14628813765464 -11.75276540970144, -42.70160336025928 -12.21193895166136 M-43.45972595028037 -11.42911513444238 C-43.24917127396323 -11.646530124600249, -43.03861659764608 -11.863945114758115, -42.70160336025928 -12.21193895166136 M-42.70160336025928 -12.21193895166136 C-42.39679641003178 -12.488756559108001, -42.09198945980429 -12.765574166554643, -41.89488272023242 -12.944581292275274 M-42.70160336025928 -12.21193895166136 C-42.45539590714728 -12.435538046285442, -42.20918845403528 -12.659137140909523, -41.89488272023242 -12.944581292275274 M-41.89488272023242 -12.944581292275274 C-41.65287009790597 -13.137579918354266, -41.41085747557951 -13.330578544433259, -41.042879018350675 -13.624031571755259 M-41.89488272023242 -12.944581292275274 C-41.689536953549904 -13.108339076724233, -41.48419118686739 -13.272096861173193, -41.042879018350675 -13.624031571755259 M-41.042879018350675 -13.624031571755259 C-40.72301761029996 -13.847153043434249, -40.40315620224926 -14.070274515113239, -40.14909332057934 -14.247497783161284 M-41.042879018350675 -13.624031571755259 C-40.8569820100614 -13.753705277386068, -40.671085001772134 -13.883378983016875, -40.14909332057934 -14.247497783161284 M-40.14909332057934 -14.247497783161284 C-39.863911712554795 -14.420376549858915, -39.57873010453025 -14.593255316556547, -39.21719838406695 -14.812417970097618 M-40.14909332057934 -14.247497783161284 C-39.80291459742578 -14.457353359508959, -39.456735874272226 -14.667208935856635, -39.21719838406695 -14.812417970097618 M-39.21719838406695 -14.812417970097618 C-38.93942564567728 -14.957331829793574, -38.66165290728762 -15.102245689489532, -38.25102356499849 -15.316470754341124 M-39.21719838406695 -14.812417970097618 C-38.91569951539169 -14.969709736766259, -38.61420064671643 -15.127001503434899, -38.25102356499849 -15.316470754341124 M-38.25102356499849 -15.316470754341124 C-37.95460673785462 -15.44768569082495, -37.65818991071075 -15.578900627308776, -37.25453908294937 -15.757584874882365 M-38.25102356499849 -15.316470754341124 C-37.85870014623939 -15.490140693965053, -37.466376727480295 -15.663810633588982, -37.25453908294937 -15.757584874882365 M-37.25453908294937 -15.757584874882365 C-36.881807713138166 -15.894753464463902, -36.50907634332696 -16.031922054045438, -36.231839706401566 -16.133947699181363 M-37.25453908294937 -15.757584874882365 C-36.945775501528274 -15.871212727024588, -36.63701192010718 -15.984840579166812, -36.231839706401566 -16.133947699181363 M-36.231839706401566 -16.133947699181363 C-35.89211743726471 -16.234775485422603, -35.55239516812785 -16.33560327166384, -35.18712792646164 -16.444012671663494 M-36.231839706401566 -16.133947699181363 C-35.997620066078746 -16.203462858985194, -35.763400425755925 -16.272978018789026, -35.18712792646164 -16.444012671663494 M-35.18712792646164 -16.444012671663494 C-34.911549994191276 -16.506911536390135, -34.63597206192092 -16.569810401116776, -34.12469668792333 -16.68650566884811 M-35.18712792646164 -16.444012671663494 C-34.76795377508382 -16.53968643634851, -34.34877962370599 -16.63536020103353, -34.12469668792333 -16.68650566884811 M-34.12469668792333 -16.68650566884811 C-33.81334569729407 -16.736842482450054, -33.50199470666481 -16.787179296052, -33.04891174863661 -16.86043023499518 M-34.12469668792333 -16.68650566884811 C-33.69469546730194 -16.756024931488906, -33.26469424668055 -16.8255441941297, -33.04891174863661 -16.86043023499518 M-33.04891174863661 -16.86043023499518 C-32.746934382976676 -16.889561628279477, -32.444957017316746 -16.918693021563776, -31.96419373967212 -16.965071676755716 M-33.04891174863661 -16.86043023499518 C-32.74964711800975 -16.889299933993378, -32.450382487382875 -16.918169632991578, -31.96419373967212 -16.965071676755716 M-31.96419373967212 -16.965071676755716 C-31.7087575805769 -16.973263017201578, -31.453321421481686 -16.98145435764744, -30.875000000000004 -17 M-31.96419373967212 -16.965071676755716 C-31.59398250451205 -16.976943630494844, -31.223771269351975 -16.988815584233976, -30.875000000000004 -17 M-30.875000000000004 -17 C-30.875000000000004 -17, -30.875 -17, -30.875 -17 M-30.875000000000004 -17 C-30.875000000000004 -17, -30.875 -17, -30.875 -17" stroke="#9370DB" stroke-width="1.3" fill="none" stroke-dasharray="0 0" style=""></path></g><g class="label" style="" transform="translate(0, -9.5)"><rect></rect><g><rect class="background" style="stroke: none"></rect><text y="-10.1" style=""><tspan class="text-outer-tspan row" x="0" y="-0.1em" dy="1.1em"><tspan font-style="normal" class="text-inner-tspan" font-weight="normal">Start</tspan><tspan font-style="normal" class="text-inner-tspan" font-weight="normal"> here</tspan></tspan></text></g></g></g><g class="node default" id="gade5825e-45b3-4b69-bff2-ab15531cb090-light-flowchart-docsQ-1" data-look="classic" transform="translate(222.8140640258789, 207.35468292236328)"><polygon points="115.35468673706055,0 230.7093734741211,-115.35468673706055 115.35468673706055,-230.7093734741211 0,-115.35468673706055" class="label-container" transform="translate(-114.85468673706055, 115.35468673706055)"></polygon><g class="label" style="" transform="translate(0, -18.299999237060547)"><rect></rect><g><rect class="background" style="stroke: none"></rect><text y="-10.1" style=""><tspan class="text-outer-tspan row" x="0" y="-0.1em" dy="1.1em"><tspan font-style="normal" class="text-inner-tspan" font-weight="normal">Need</tspan><tspan font-style="normal" class="text-inner-tspan" font-weight="normal"> built-in</tspan><tspan font-style="normal" class="text-inner-tspan" font-weight="normal"> docs</tspan><tspan font-style="normal" class="text-inner-tspan" font-weight="normal"> nav,</tspan></tspan><tspan class="text-outer-tspan row" x="0" y="1em" dy="1.1em"><tspan font-style="normal" class="text-inner-tspan" font-weight="normal">search,</tspan><tspan font-style="normal" class="text-inner-tspan" font-weight="normal"> theme?</tspan></tspan></text></g></g></g><g class="node default" id="gade5825e-45b3-4b69-bff2-ab15531cb090-light-flowchart-docs-3" data-look="classic" transform="translate(101.0546875, 496.1734313964844)"><rect class="basic label-container" style="" x="-93.0546875" y="-24.5" width="186.109375" height="49"></rect><g class="label" style="" transform="translate(0, -9.5)"><rect></rect><g><rect class="background" style="stroke: none"></rect><text y="-10.1" style=""><tspan class="text-outer-tspan row" x="0" y="-0.1em" dy="1.1em"><tspan font-style="normal" class="text-inner-tspan" font-weight="normal">@pagesmith/docs</tspan></tspan></text></g></g></g><g class="node default" id="gade5825e-45b3-4b69-bff2-ab15531cb090-light-flowchart-hostQ-5" data-look="classic" transform="translate(344.5734405517578, 496.1734313964844)"><polygon points="100.46406173706055,0 200.9281234741211,-100.46406173706055 100.46406173706055,-200.9281234741211 0,-100.46406173706055" class="label-container" transform="translate(-99.96406173706055, 100.46406173706055)"></polygon><g class="label" style="" transform="translate(0, -18.299999237060547)"><rect></rect><g><rect class="background" style="stroke: none"></rect><text y="-10.1" style=""><tspan class="text-outer-tspan row" x="0" y="-0.1em" dy="1.1em"><tspan font-style="normal" class="text-inner-tspan" font-weight="normal">Host</tspan><tspan font-style="normal" class="text-inner-tspan" font-weight="normal"> owns</tspan><tspan font-style="normal" class="text-inner-tspan" font-weight="normal"> routing,</tspan></tspan><tspan class="text-outer-tspan row" x="0" y="1em" dy="1.1em"><tspan font-style="normal" class="text-inner-tspan" font-weight="normal">layout,</tspan><tspan font-style="normal" class="text-inner-tspan" font-weight="normal"> build?</tspan></tspan></text></g></g></g><g class="node default" id="gade5825e-45b3-4b69-bff2-ab15531cb090-light-flowchart-core-7" data-look="classic" transform="translate(457.6750030517578, 694.1374969482422)"><rect class="basic label-container" style="" x="-92.828125" y="-24.5" width="185.65625" height="49"></rect><g class="label" style="" transform="translate(0, -9.5)"><rect></rect><g><rect class="background" style="stroke: none"></rect><text y="-10.1" style=""><tspan class="text-outer-tspan row" x="0" y="-0.1em" dy="1.1em"><tspan font-style="normal" class="text-inner-tspan" font-weight="normal">@pagesmith/core</tspan></tspan></text></g></g></g><g class="node default" id="gade5825e-45b3-4b69-bff2-ab15531cb090-light-flowchart-siteQ-8" data-look="classic" transform="translate(457.6750030517578, 887.3953094482422)"><polygon points="95.7578125,0 191.515625,-95.7578125 95.7578125,-191.515625 0,-95.7578125" class="label-container" transform="translate(-95.2578125, 95.7578125)"></polygon><g class="label" style="" transform="translate(0, -9.5)"><rect></rect><g><rect class="background" style="stroke: none"></rect><text y="-10.1" style=""><tspan class="text-outer-tspan row" x="0" y="-0.1em" dy="1.1em"><tspan font-style="normal" class="text-inner-tspan" font-weight="normal">Need</tspan><tspan font-style="normal" class="text-inner-tspan" font-weight="normal"> site</tspan><tspan font-style="normal" class="text-inner-tspan" font-weight="normal"> layer</tspan><tspan font-style="normal" class="text-inner-tspan" font-weight="normal"> too?</tspan></tspan></text></g></g></g><g class="node default" id="gade5825e-45b3-4b69-bff2-ab15531cb090-light-flowchart-site-10" data-look="classic" transform="translate(209.1085968017578, 1089.4531211853027)"><rect class="basic label-container" style="" x="-99.4375" y="-33.29999923706055" width="198.875" height="66.5999984741211"></rect><g class="label" style="" transform="translate(0, -18.299999237060547)"><rect></rect><g><rect class="background" style="stroke: none"></rect><text y="-10.1" style=""><tspan class="text-outer-tspan row" x="0" y="-0.1em" dy="1.1em"><tspan font-style="normal" class="text-inner-tspan" font-weight="normal">@pagesmith/site</tspan></tspan><tspan class="text-outer-tspan row" x="0" y="1em" dy="1.1em"><tspan font-style="normal" class="text-inner-tspan" font-weight="normal">+</tspan><tspan font-style="normal" class="text-inner-tspan" font-weight="normal"> @pagesmith/core</tspan></tspan></text></g></g></g><g class="node default" id="gade5825e-45b3-4b69-bff2-ab15531cb090-light-flowchart-coreOnly-14" data-look="classic" transform="translate(480.0382843017578, 1089.4531211853027)"><rect class="basic label-container" style="" x="-121.4921875" y="-24.5" width="242.984375" height="49"></rect><g class="label" style="" transform="translate(0, -9.5)"><rect></rect><g><rect class="background" style="stroke: none"></rect><text y="-10.1" style=""><tspan class="text-outer-tspan row" x="0" y="-0.1em" dy="1.1em"><tspan font-style="normal" class="text-inner-tspan" font-weight="normal">Stay</tspan><tspan font-style="normal" class="text-inner-tspan" font-weight="normal"> on</tspan><tspan font-style="normal" class="text-inner-tspan" font-weight="normal"> @pagesmith/core</tspan></tspan></text></g></g></g></g></g></g><defs><filter id="gade5825e-45b3-4b69-bff2-ab15531cb090-light-drop-shadow" height="130%" width="130%"><feDropShadow dx="4" dy="4" stdDeviation="0" flood-opacity="0.06" flood-color="#000000"></feDropShadow></filter></defs><defs><filter id="gade5825e-45b3-4b69-bff2-ab15531cb090-light-drop-shadow-small" height="150%" width="150%"><feDropShadow dx="2" dy="2" stdDeviation="0" flood-opacity="0.06" flood-color="#000000"></feDropShadow></filter></defs></svg>