<svg id="ga7176d92-b87a-4719-ae8a-936a261727b8-dark" width="100%" xmlns="http://www.w3.org/2000/svg" xmlns:xlink="http://www.w3.org/1999/xlink" class="flowchart" style="max-width: 715.0015869140625px;" viewBox="0 0 715.0015869140625 1468.5843505859375" role="graphics-document document" aria-roledescription="flowchart-v2"><style>#ga7176d92-b87a-4719-ae8a-936a261727b8-dark{font-family:"trebuchet ms",verdana,arial,sans-serif;font-size:16px;fill:#e5e5e5;}@keyframes edge-animation-frame{from{stroke-dashoffset:0;}}@keyframes dash{to{stroke-dashoffset:0;}}#ga7176d92-b87a-4719-ae8a-936a261727b8-dark .edge-animation-slow{stroke-dasharray:9,5!important;stroke-dashoffset:900;animation:dash 50s linear infinite;stroke-linecap:round;}#ga7176d92-b87a-4719-ae8a-936a261727b8-dark .edge-animation-fast{stroke-dasharray:9,5!important;stroke-dashoffset:900;animation:dash 20s linear infinite;stroke-linecap:round;}#ga7176d92-b87a-4719-ae8a-936a261727b8-dark .error-icon{fill:#252525;}#ga7176d92-b87a-4719-ae8a-936a261727b8-dark .error-text{fill:#cccccc;stroke:#cccccc;}#ga7176d92-b87a-4719-ae8a-936a261727b8-dark .edge-thickness-normal{stroke-width:1px;}#ga7176d92-b87a-4719-ae8a-936a261727b8-dark .edge-thickness-thick{stroke-width:3.5px;}#ga7176d92-b87a-4719-ae8a-936a261727b8-dark .edge-pattern-solid{stroke-dasharray:0;}#ga7176d92-b87a-4719-ae8a-936a261727b8-dark .edge-thickness-invisible{stroke-width:0;fill:none;}#ga7176d92-b87a-4719-ae8a-936a261727b8-dark .edge-pattern-dashed{stroke-dasharray:3;}#ga7176d92-b87a-4719-ae8a-936a261727b8-dark .edge-pattern-dotted{stroke-dasharray:2;}#ga7176d92-b87a-4719-ae8a-936a261727b8-dark .marker{fill:#cccccc;stroke:#cccccc;}#ga7176d92-b87a-4719-ae8a-936a261727b8-dark .marker.cross{stroke:#cccccc;}#ga7176d92-b87a-4719-ae8a-936a261727b8-dark svg{font-family:"trebuchet ms",verdana,arial,sans-serif;font-size:16px;}#ga7176d92-b87a-4719-ae8a-936a261727b8-dark p{margin:0;}#ga7176d92-b87a-4719-ae8a-936a261727b8-dark .label{font-family:"trebuchet ms",verdana,arial,sans-serif;color:#e5e5e5;}#ga7176d92-b87a-4719-ae8a-936a261727b8-dark .cluster-label text{fill:#e5e5e5;}#ga7176d92-b87a-4719-ae8a-936a261727b8-dark .cluster-label span{color:#e5e5e5;}#ga7176d92-b87a-4719-ae8a-936a261727b8-dark .cluster-label span p{background-color:transparent;}#ga7176d92-b87a-4719-ae8a-936a261727b8-dark .label text,#ga7176d92-b87a-4719-ae8a-936a261727b8-dark span{fill:#e5e5e5;color:#e5e5e5;}#ga7176d92-b87a-4719-ae8a-936a261727b8-dark .node rect,#ga7176d92-b87a-4719-ae8a-936a261727b8-dark .node circle,#ga7176d92-b87a-4719-ae8a-936a261727b8-dark .node ellipse,#ga7176d92-b87a-4719-ae8a-936a261727b8-dark .node polygon,#ga7176d92-b87a-4719-ae8a-936a261727b8-dark .node path{fill:#2d2d2d;stroke:#555555;stroke-width:1px;}#ga7176d92-b87a-4719-ae8a-936a261727b8-dark .rough-node .label text,#ga7176d92-b87a-4719-ae8a-936a261727b8-dark .node .label text,#ga7176d92-b87a-4719-ae8a-936a261727b8-dark .image-shape .label,#ga7176d92-b87a-4719-ae8a-936a261727b8-dark .icon-shape .label{text-anchor:middle;}#ga7176d92-b87a-4719-ae8a-936a261727b8-dark .node .katex path{fill:#000;stroke:#000;stroke-width:1px;}#ga7176d92-b87a-4719-ae8a-936a261727b8-dark .rough-node .label,#ga7176d92-b87a-4719-ae8a-936a261727b8-dark .node .label,#ga7176d92-b87a-4719-ae8a-936a261727b8-dark .image-shape .label,#ga7176d92-b87a-4719-ae8a-936a261727b8-dark .icon-shape .label{text-align:center;}#ga7176d92-b87a-4719-ae8a-936a261727b8-dark .node.clickable{cursor:pointer;}#ga7176d92-b87a-4719-ae8a-936a261727b8-dark .root .anchor path{fill:#cccccc!important;stroke-width:0;stroke:#cccccc;}#ga7176d92-b87a-4719-ae8a-936a261727b8-dark .arrowheadPath{fill:#cccccc;}#ga7176d92-b87a-4719-ae8a-936a261727b8-dark .edgePath .path{stroke:#cccccc;stroke-width:1px;}#ga7176d92-b87a-4719-ae8a-936a261727b8-dark .flowchart-link{stroke:#cccccc;fill:none;}#ga7176d92-b87a-4719-ae8a-936a261727b8-dark .edgeLabel{background-color:#1e1e1e;text-align:center;}#ga7176d92-b87a-4719-ae8a-936a261727b8-dark .edgeLabel p{background-color:#1e1e1e;}#ga7176d92-b87a-4719-ae8a-936a261727b8-dark .edgeLabel rect{opacity:0.5;background-color:#1e1e1e;fill:#1e1e1e;}#ga7176d92-b87a-4719-ae8a-936a261727b8-dark .labelBkg{background-color:rgba(30, 30, 30, 0.5);}#ga7176d92-b87a-4719-ae8a-936a261727b8-dark .cluster rect{fill:#1e1e1e;stroke:#555555;stroke-width:1px;}#ga7176d92-b87a-4719-ae8a-936a261727b8-dark .cluster text{fill:#e5e5e5;}#ga7176d92-b87a-4719-ae8a-936a261727b8-dark .cluster span{color:#e5e5e5;}#ga7176d92-b87a-4719-ae8a-936a261727b8-dark div.mermaidTooltip{position:absolute;text-align:center;max-width:200px;padding:2px;font-family:"trebuchet ms",verdana,arial,sans-serif;font-size:12px;background:#252525;border:1px solid #555555;border-radius:2px;pointer-events:none;z-index:100;}#ga7176d92-b87a-4719-ae8a-936a261727b8-dark .flowchartTitleText{text-anchor:middle;font-size:18px;fill:#e5e5e5;}#ga7176d92-b87a-4719-ae8a-936a261727b8-dark rect.text{fill:none;stroke-width:0;}#ga7176d92-b87a-4719-ae8a-936a261727b8-dark .icon-shape,#ga7176d92-b87a-4719-ae8a-936a261727b8-dark .image-shape{background-color:#1e1e1e;text-align:center;}#ga7176d92-b87a-4719-ae8a-936a261727b8-dark .icon-shape p,#ga7176d92-b87a-4719-ae8a-936a261727b8-dark .image-shape p{background-color:#1e1e1e;padding:2px;}#ga7176d92-b87a-4719-ae8a-936a261727b8-dark .icon-shape .label rect,#ga7176d92-b87a-4719-ae8a-936a261727b8-dark .image-shape .label rect{opacity:0.5;background-color:#1e1e1e;fill:#1e1e1e;}#ga7176d92-b87a-4719-ae8a-936a261727b8-dark .label-icon{display:inline-block;height:1em;overflow:visible;vertical-align:-0.125em;}#ga7176d92-b87a-4719-ae8a-936a261727b8-dark .node .label-icon path{fill:currentColor;stroke:revert;stroke-width:revert;}#ga7176d92-b87a-4719-ae8a-936a261727b8-dark .node .neo-node{stroke:#555555;}#ga7176d92-b87a-4719-ae8a-936a261727b8-dark [data-look="neo"].node rect,#ga7176d92-b87a-4719-ae8a-936a261727b8-dark [data-look="neo"].cluster rect,#ga7176d92-b87a-4719-ae8a-936a261727b8-dark [data-look="neo"].node polygon{stroke:url(#ga7176d92-b87a-4719-ae8a-936a261727b8-dark-gradient);filter:drop-shadow( 1px 2px 2px rgba(185,185,185,1));}#ga7176d92-b87a-4719-ae8a-936a261727b8-dark [data-look="neo"].node path{stroke:url(#ga7176d92-b87a-4719-ae8a-936a261727b8-dark-gradient);stroke-width:1px;}#ga7176d92-b87a-4719-ae8a-936a261727b8-dark [data-look="neo"].node .outer-path{filter:drop-shadow( 1px 2px 2px rgba(185,185,185,1));}#ga7176d92-b87a-4719-ae8a-936a261727b8-dark [data-look="neo"].node .neo-line path{stroke:#555555;filter:none;}#ga7176d92-b87a-4719-ae8a-936a261727b8-dark [data-look="neo"].node circle{stroke:url(#ga7176d92-b87a-4719-ae8a-936a261727b8-dark-gradient);filter:drop-shadow( 1px 2px 2px rgba(185,185,185,1));}#ga7176d92-b87a-4719-ae8a-936a261727b8-dark [data-look="neo"].node circle .state-start{fill:#000000;}#ga7176d92-b87a-4719-ae8a-936a261727b8-dark [data-look="neo"].icon-shape .icon{fill:url(#ga7176d92-b87a-4719-ae8a-936a261727b8-dark-gradient);filter:drop-shadow( 1px 2px 2px rgba(185,185,185,1));}#ga7176d92-b87a-4719-ae8a-936a261727b8-dark [data-look="neo"].icon-shape .icon-neo path{stroke:url(#ga7176d92-b87a-4719-ae8a-936a261727b8-dark-gradient);filter:drop-shadow( 1px 2px 2px rgba(185,185,185,1));}#ga7176d92-b87a-4719-ae8a-936a261727b8-dark :root{--mermaid-font-family:"trebuchet ms",verdana,arial,sans-serif;}</style><g><marker id="ga7176d92-b87a-4719-ae8a-936a261727b8-dark_flowchart-v2-pointEnd" class="marker flowchart-v2" viewBox="0 0 10 10" refX="5" refY="5" markerUnits="userSpaceOnUse" markerWidth="8" markerHeight="8" orient="auto"><path d="M 0 0 L 10 5 L 0 10 z" class="arrowMarkerPath" style="stroke-width: 1; stroke-dasharray: 1, 0;"></path></marker><marker id="ga7176d92-b87a-4719-ae8a-936a261727b8-dark_flowchart-v2-pointStart" class="marker flowchart-v2" viewBox="0 0 10 10" refX="4.5" refY="5" markerUnits="userSpaceOnUse" markerWidth="8" markerHeight="8" orient="auto"><path d="M 0 5 L 10 10 L 10 0 z" class="arrowMarkerPath" style="stroke-width: 1; stroke-dasharray: 1, 0;"></path></marker><marker id="ga7176d92-b87a-4719-ae8a-936a261727b8-dark_flowchart-v2-pointEnd-margin" class="marker flowchart-v2" viewBox="0 0 11.5 14" refX="11.5" refY="7" markerUnits="userSpaceOnUse" markerWidth="10.5" markerHeight="14" orient="auto"><path d="M 0 0 L 11.5 7 L 0 14 z" class="arrowMarkerPath" style="stroke-width: 0; stroke-dasharray: 1, 0;"></path></marker><marker id="ga7176d92-b87a-4719-ae8a-936a261727b8-dark_flowchart-v2-pointStart-margin" class="marker flowchart-v2" viewBox="0 0 11.5 14" refX="1" refY="7" markerUnits="userSpaceOnUse" markerWidth="11.5" markerHeight="14" orient="auto"><polygon points="0,7 11.5,14 11.5,0" class="arrowMarkerPath" style="stroke-width: 0; stroke-dasharray: 1, 0;"></polygon></marker><marker id="ga7176d92-b87a-4719-ae8a-936a261727b8-dark_flowchart-v2-circleEnd" class="marker flowchart-v2" viewBox="0 0 10 10" refX="11" refY="5" markerUnits="userSpaceOnUse" markerWidth="11" markerHeight="11" orient="auto"><circle cx="5" cy="5" r="5" class="arrowMarkerPath" style="stroke-width: 1; stroke-dasharray: 1, 0;"></circle></marker><marker id="ga7176d92-b87a-4719-ae8a-936a261727b8-dark_flowchart-v2-circleStart" class="marker flowchart-v2" viewBox="0 0 10 10" refX="-1" refY="5" markerUnits="userSpaceOnUse" markerWidth="11" markerHeight="11" orient="auto"><circle cx="5" cy="5" r="5" class="arrowMarkerPath" style="stroke-width: 1; stroke-dasharray: 1, 0;"></circle></marker><marker id="ga7176d92-b87a-4719-ae8a-936a261727b8-dark_flowchart-v2-circleEnd-margin" class="marker flowchart-v2" viewBox="0 0 10 10" refY="5" refX="12.25" markerUnits="userSpaceOnUse" markerWidth="14" markerHeight="14" orient="auto"><circle cx="5" cy="5" r="5" class="arrowMarkerPath" style="stroke-width: 0; stroke-dasharray: 1, 0;"></circle></marker><marker id="ga7176d92-b87a-4719-ae8a-936a261727b8-dark_flowchart-v2-circleStart-margin" class="marker flowchart-v2" viewBox="0 0 10 10" refX="-2" refY="5" markerUnits="userSpaceOnUse" markerWidth="14" markerHeight="14" orient="auto"><circle cx="5" cy="5" r="5" class="arrowMarkerPath" style="stroke-width: 0; stroke-dasharray: 1, 0;"></circle></marker><marker id="ga7176d92-b87a-4719-ae8a-936a261727b8-dark_flowchart-v2-crossEnd" class="marker cross flowchart-v2" viewBox="0 0 11 11" refX="12" refY="5.2" markerUnits="userSpaceOnUse" markerWidth="11" markerHeight="11" orient="auto"><path d="M 1,1 l 9,9 M 10,1 l -9,9" class="arrowMarkerPath" style="stroke-width: 2; stroke-dasharray: 1, 0;"></path></marker><marker id="ga7176d92-b87a-4719-ae8a-936a261727b8-dark_flowchart-v2-crossStart" class="marker cross flowchart-v2" viewBox="0 0 11 11" refX="-1" refY="5.2" markerUnits="userSpaceOnUse" markerWidth="11" markerHeight="11" orient="auto"><path d="M 1,1 l 9,9 M 10,1 l -9,9" class="arrowMarkerPath" style="stroke-width: 2; stroke-dasharray: 1, 0;"></path></marker><marker id="ga7176d92-b87a-4719-ae8a-936a261727b8-dark_flowchart-v2-crossEnd-margin" class="marker cross flowchart-v2" viewBox="0 0 15 15" refX="17.7" refY="7.5" markerUnits="userSpaceOnUse" markerWidth="12" markerHeight="12" orient="auto"><path d="M 1,1 L 14,14 M 1,14 L 14,1" class="arrowMarkerPath" style="stroke-width: 2.5;"></path></marker><marker id="ga7176d92-b87a-4719-ae8a-936a261727b8-dark_flowchart-v2-crossStart-margin" class="marker cross flowchart-v2" viewBox="0 0 15 15" refX="-3.5" refY="7.5" markerUnits="userSpaceOnUse" markerWidth="12" markerHeight="12" orient="auto"><path d="M 1,1 L 14,14 M 1,14 L 14,1" class="arrowMarkerPath" style="stroke-width: 2.5; stroke-dasharray: 1, 0;"></path></marker><g class="root"><g class="clusters"></g><g class="edgePaths"><path d="M280.942,42.5L280.859,46.583C280.776,50.667,280.609,58.833,280.526,66.417C280.442,74,280.442,81,280.442,84.5L280.442,88" id="ga7176d92-b87a-4719-ae8a-936a261727b8-dark-L_start_docsQ_0" class="edge-thickness-normal edge-pattern-solid edge-thickness-normal edge-pattern-solid flowchart-link" style=";" data-edge="true" data-et="edge" data-id="L_start_docsQ_0" data-points="W3sieCI6MjgwLjk0MjE4NDQ0ODI0MjIsInkiOjQyLjV9LHsieCI6MjgwLjQ0MjE4NDQ0ODI0MjIsInkiOjY3fSx7IngiOjI4MC40NDIxODQ0NDgyNDIyLCJ5Ijo5MS45OTk5OTk5OTk5OTk5N31d" data-look="classic" marker-end="url(#ga7176d92-b87a-4719-ae8a-936a261727b8-dark_flowchart-v2-pointEnd)"></path><path d="M216.2,298.058L200.989,314.849C185.777,331.639,155.353,365.219,140.141,402.959C124.93,440.698,124.93,482.597,124.93,503.546L124.93,524.495" id="ga7176d92-b87a-4719-ae8a-936a261727b8-dark-L_docsQ_docs_0" class="edge-thickness-normal edge-pattern-solid edge-thickness-normal edge-pattern-solid flowchart-link" style=";" data-edge="true" data-et="edge" data-id="L_docsQ_docs_0" data-points="W3sieCI6MjE2LjIwMDM2Mjc0MTI1MTMsInkiOjI5OC4wNTgxOTY2MDM1NTZ9LHsieCI6MTI0LjkyOTY4NzUsInkiOjM5OC44MDAwMTgzMTA1NDY5fSx7IngiOjEyNC45Mjk2ODc1LCJ5Ijo1MjguNDk1MzIzMTgxMTUyM31d" data-look="classic" marker-end="url(#ga7176d92-b87a-4719-ae8a-936a261727b8-dark_flowchart-v2-pointEnd)"></path><path d="M344.684,298.058L359.896,314.849C375.108,331.639,405.531,365.219,420.743,387.426C435.955,409.633,435.955,420.467,435.955,425.883L435.955,431.3" id="ga7176d92-b87a-4719-ae8a-936a261727b8-dark-L_docsQ_hostQ_0" class="edge-thickness-normal edge-pattern-solid edge-thickness-normal edge-pattern-solid flowchart-link" style=";" data-edge="true" data-et="edge" data-id="L_docsQ_hostQ_0" data-points="W3sieCI6MzQ0LjY4NDAwNjE1NTIzMzEsInkiOjI5OC4wNTgxOTY2MDM1NTZ9LHsieCI6NDM1Ljk1NDY4MTM5NjQ4NDQsInkiOjM5OC44MDAwMTgzMTA1NDY5fSx7IngiOjQzNS45NTQ2ODEzOTY0ODQzLCJ5Ijo0MzUuMzAwMDE4MzEwNTQ2OH1d" data-look="classic" marker-end="url(#ga7176d92-b87a-4719-ae8a-936a261727b8-dark_flowchart-v2-pointEnd)"></path><path d="M495.501,663.944L506.776,679.952C518.05,695.959,540.598,727.975,551.872,749.4C563.146,770.824,563.146,781.657,563.146,787.074L563.146,792.491" id="ga7176d92-b87a-4719-ae8a-936a261727b8-dark-L_hostQ_core_0" class="edge-thickness-normal edge-pattern-solid edge-thickness-normal edge-pattern-solid flowchart-link" style=";" data-edge="true" data-et="edge" data-id="L_hostQ_core_0" data-points="W3sieCI6NDk1LjUwMTM4NjYzNTk3OTc3LCJ5Ijo2NjMuOTQzOTI1ODY0MDIwMn0seyJ4Ijo1NjMuMTQ2MDg3NjQ2NDg0NCwieSI6NzU5Ljk5MDYzMTEwMzUxNTZ9LHsieCI6NTYzLjE0NjA4NzY0NjQ4NDQsInkiOjc5Ni40OTA2MzExMDM1MTU2fV0=" data-look="classic" marker-end="url(#ga7176d92-b87a-4719-ae8a-936a261727b8-dark_flowchart-v2-pointEnd)"></path><path d="M366.894,654.43L350.701,672.023C334.508,689.617,302.122,724.804,285.929,758.43C269.736,792.057,269.736,824.124,269.736,856.191C269.736,888.257,269.736,920.324,269.736,964.248C269.736,1008.173,269.736,1063.955,269.736,1119.738C269.736,1175.52,269.736,1231.302,270.597,1264.618C271.458,1297.934,273.18,1308.784,274.041,1314.209L274.902,1319.634" id="ga7176d92-b87a-4719-ae8a-936a261727b8-dark-L_hostQ_site_0" class="edge-thickness-normal edge-pattern-solid edge-thickness-normal edge-pattern-solid flowchart-link" style=";" data-edge="true" data-et="edge" data-id="L_hostQ_site_0" data-points="W3sieCI6MzY2Ljg5MzYzNDc5NzE4MjIsInkiOjY1NC40Mjk1ODQ1MDQyMTM0fSx7IngiOjI2OS43MzU5MzEzOTY0ODQ0LCJ5Ijo3NTkuOTkwNjMxMTAzNTE1Nn0seyJ4IjoyNjkuNzM1OTMxMzk2NDg0NCwieSI6ODU2LjE5MDYzMTg2NjQ1NTF9LHsieCI6MjY5LjczNTkzMTM5NjQ4NDQsInkiOjk1Mi4zOTA2MzI2MjkzOTQ1fSx7IngiOjI2OS43MzU5MzEzOTY0ODQ0LCJ5IjoxMTE5LjczNzUxMDY4MTE1MjN9LHsieCI6MjY5LjczNTkzMTM5NjQ4NDQsInkiOjEyODcuMDg0Mzg4NzMyOTEwMn0seyJ4IjoyNzUuNTI4Njc2OTMyMTk4NjYsInkiOjEzMjMuNTg0Mzg4NzMyOTEwMn1d" data-look="classic" marker-end="url(#ga7176d92-b87a-4719-ae8a-936a261727b8-dark_flowchart-v2-pointEnd)"></path><path d="M563.146,915.891L563.146,921.974C563.146,928.057,563.146,940.224,563.146,951.724C563.146,963.224,563.146,974.057,563.146,979.474L563.146,984.891" id="ga7176d92-b87a-4719-ae8a-936a261727b8-dark-L_core_siteQ_0" class="edge-thickness-normal edge-pattern-solid edge-thickness-normal edge-pattern-solid flowchart-link" style=";" data-edge="true" data-et="edge" data-id="L_core_siteQ_0" data-points="W3sieCI6NTYzLjE0NjA4NzY0NjQ4NDQsInkiOjkxNS44OTA2MzI2MjkzOTQ1fSx7IngiOjU2My4xNDYwODc2NDY0ODQ0LCJ5Ijo5NTIuMzkwNjMyNjI5Mzk0NX0seyJ4Ijo1NjMuMTQ2MDg3NjQ2NDg0NCwieSI6OTg4Ljg5MDYzMjYyOTM5NDR9XQ==" data-look="classic" marker-end="url(#ga7176d92-b87a-4719-ae8a-936a261727b8-dark_flowchart-v2-pointEnd)"></path><path d="M501.396,1188.834L486.762,1205.209C472.128,1221.584,442.86,1254.334,421.371,1276.368C399.882,1298.402,386.172,1309.72,379.317,1315.379L372.462,1321.038" id="ga7176d92-b87a-4719-ae8a-936a261727b8-dark-L_siteQ_site_0" class="edge-thickness-normal edge-pattern-solid edge-thickness-normal edge-pattern-solid flowchart-link" style=";" data-edge="true" data-et="edge" data-id="L_siteQ_site_0" data-points="W3sieCI6NTAxLjM5NTc5NjQzNzU3MiwieSI6MTE4OC44MzQwOTc1MjM5OTh9LHsieCI6NDEzLjU5MTQwMDE0NjQ4NDQsInkiOjEyODcuMDg0Mzg4NzMyOTEwMn0seyJ4IjozNjkuMzc3MjQ0NjQwNTMyLCJ5IjoxMzIzLjU4NDM4ODczMjkxMDJ9XQ==" data-look="classic" marker-end="url(#ga7176d92-b87a-4719-ae8a-936a261727b8-dark_flowchart-v2-pointEnd)"></path><path d="M578.57,1235.16L579.727,1243.814C580.883,1252.468,583.196,1269.776,584.353,1291.18C585.509,1312.584,585.509,1338.084,585.509,1350.834L585.509,1363.584" id="ga7176d92-b87a-4719-ae8a-936a261727b8-dark-L_siteQ_coreOnly_0" class="edge-thickness-normal edge-pattern-solid edge-thickness-normal edge-pattern-solid flowchart-link" style=";" data-edge="true" data-et="edge" data-id="L_siteQ_coreOnly_0" data-points="W3sieCI6NTc4LjU3MDQ4ODQ1NTIwMTcsInkiOjEyMzUuMTU5OTg3OTI0MTkzfSx7IngiOjU4NS41MDkzNjg4OTY0ODQ0LCJ5IjoxMjg3LjA4NDM4ODczMjkxMDJ9LHsieCI6NTg1LjUwOTM2ODg5NjQ4NDQsInkiOjEzNjcuNTg0Mzg4NzMyOTEwMn1d" data-look="classic" marker-end="url(#ga7176d92-b87a-4719-ae8a-936a261727b8-dark_flowchart-v2-pointEnd)"></path></g><g class="edgeLabels"><g class="edgeLabel"><g class="label" data-id="L_start_docsQ_0" transform="translate(0, 0)"><text y="-10.1" text-anchor="middle"><tspan class="text-outer-tspan row" x="0" y="-0.1em" dy="1.1em" text-anchor="middle"></tspan></text></g></g><g><rect class="background" style="stroke: none"></rect></g><g class="edgeLabel" transform="translate(124.9296875, 398.8000183105469)"><g class="label" data-id="L_docsQ_docs_0" transform="translate(0, -10.5)"><g><rect class="background" style="" x="-13.328125" y="-1" width="26.65625" height="23"></rect><text y="-10.1" text-anchor="middle" style=""><tspan class="text-outer-tspan row" x="0" y="-0.1em" dy="1.1em" text-anchor="middle"><tspan font-style="normal" class="text-inner-tspan" font-weight="normal">Yes</tspan></tspan></text></g></g></g><g class="edgeLabel" transform="translate(435.9546813964844, 398.8000183105469)"><g class="label" data-id="L_docsQ_hostQ_0" transform="translate(0, -10.5)"><g><rect class="background" style="" x="-11.3984375" y="-1" width="22.796875" height="23"></rect><text y="-10.1" text-anchor="middle" style=""><tspan class="text-outer-tspan row" x="0" y="-0.1em" dy="1.1em" text-anchor="middle"><tspan font-style="normal" class="text-inner-tspan" font-weight="normal">No</tspan></tspan></text></g></g></g><g class="edgeLabel" transform="translate(563.1460876464844, 759.9906311035156)"><g class="label" data-id="L_hostQ_core_0" transform="translate(0, -10.5)"><g><rect class="background" style="" x="-13.328125" y="-1" width="26.65625" height="23"></rect><text y="-10.1" text-anchor="middle" style=""><tspan class="text-outer-tspan row" x="0" y="-0.1em" dy="1.1em" text-anchor="middle"><tspan font-style="normal" class="text-inner-tspan" font-weight="normal">Yes</tspan></tspan></text></g></g></g><g class="edgeLabel" transform="translate(269.7359313964844, 952.3906326293945)"><g class="label" data-id="L_hostQ_site_0" transform="translate(0, -10.5)"><g><rect class="background" style="" x="-11.3984375" y="-1" width="22.796875" height="23"></rect><text y="-10.1" text-anchor="middle" style=""><tspan class="text-outer-tspan row" x="0" y="-0.1em" dy="1.1em" text-anchor="middle"><tspan font-style="normal" class="text-inner-tspan" font-weight="normal">No</tspan></tspan></text></g></g></g><g class="edgeLabel"><g class="label" data-id="L_core_siteQ_0" transform="translate(0, 0)"><text y="-10.1" text-anchor="middle"><tspan class="text-outer-tspan row" x="0" y="-0.1em" dy="1.1em" text-anchor="middle"></tspan></text></g></g><g><rect class="background" style="stroke: none"></rect></g><g class="edgeLabel" transform="translate(438.39126, 1259.33414)"><g class="label" data-id="L_siteQ_site_0" transform="translate(0, -10.5)"><g><rect class="background" style="" x="-13.328125" y="-1" width="26.65625" height="23"></rect><text y="-10.1" text-anchor="middle" style=""><tspan class="text-outer-tspan row" x="0" y="-0.1em" dy="1.1em" text-anchor="middle"><tspan font-style="normal" class="text-inner-tspan" font-weight="normal">Yes</tspan></tspan></text></g></g></g><g class="edgeLabel" transform="translate(585.5093688964844, 1287.0843887329102)"><g class="label" data-id="L_siteQ_coreOnly_0" transform="translate(0, -10.5)"><g><rect class="background" style="" x="-11.3984375" y="-1" width="22.796875" height="23"></rect><text y="-10.1" text-anchor="middle" style=""><tspan class="text-outer-tspan row" x="0" y="-0.1em" dy="1.1em" text-anchor="middle"><tspan font-style="normal" class="text-inner-tspan" font-weight="normal">No</tspan></tspan></text></g></g></g></g><g class="nodes"><g class="node default" id="ga7176d92-b87a-4719-ae8a-936a261727b8-dark-flowchart-start-0" data-look="classic" transform="translate(280.4421844482422, 25)"><g class="basic label-container outer-path"><path d="M-30.875 -17 C-14.245092281619915 -17, 2.384815436760171 -17, 30.875 -17 C30.875 -17, 30.875 -17, 30.875 -17 C31.15383903696615 -16.991058174811755, 31.4326780739323 -16.98211634962351, 31.96419373967212 -16.965071676755716 C32.220504212223354 -16.940345713727144, 32.47681468477458 -16.915619750698568, 33.0489117486366 -16.860430234995185 C33.458135799384365 -16.7942700640502, 33.86735985013214 -16.72810989310521, 34.124696687923326 -16.686505668848113 C34.500165601540395 -16.600807339478656, 34.875634515157465 -16.515109010109203, 35.18712792646162 -16.4440126716635 C35.49748467236917 -16.351900418573944, 35.807841418276716 -16.259788165484387, 36.23183970640155 -16.133947699181366 C36.576807210173726 -16.006996468948557, 36.921774713945894 -15.88004523871575, 37.25453908294936 -15.757584874882369 C37.59866792349554 -15.60524924539193, 37.94279676404173 -15.452913615901492, 38.25102356499849 -15.316470754341125 C38.622999277072616 -15.122411263613868, 38.99497498914674 -14.92835177288661, 39.21719838406694 -14.812417970097622 C39.51308794138966 -14.633047981608541, 39.80897749871238 -14.453677993119461, 40.149093320579325 -14.247497783161291 C40.4320009679016 -14.050153655263939, 40.714908615223884 -13.852809527366587, 41.042879018350675 -13.624031571755262 C41.35448293155922 -13.37553574309983, 41.666086844767754 -13.127039914444396, 41.8948827202324 -12.944581292275288 C42.15883026077579 -12.704871119623018, 42.422777801319164 -12.46516094697075, 42.70160336025927 -12.21193895166137 C42.953757989086526 -11.951568595117193, 43.205912617913775 -11.691198238573016, 43.45972595028036 -11.42911513444239 C43.656883031995676 -11.197523207703817, 43.854040113711 -10.965931280965245, 44.16613520195651 -10.59932663159847 C44.37300124382743 -10.322144981375544, 44.579867285698356 -10.044963331152617, 44.81792832814825 -9.725983222076888 C44.97015725400895 -9.492118712764627, 45.12238617986965 -9.258254203452367, 45.41242697109088 -8.812673661278927 C45.559202333526954 -8.552059142656592, 45.70597769596302 -8.29144462403426, 45.947188208341004 -7.863150934094199 C46.105892712091176 -7.533597636324567, 46.26459721584135 -7.204044338554934, 46.42001459126881 -6.881316833080699 C46.54736999690366 -6.566746518913353, 46.67472540253851 -6.252176204746007, 46.828963174845924 -5.871205925162238 C46.923864173949475 -5.585379236283164, 47.018765173053026 -5.299552547404091, 47.172353501623235 -4.836968972727556 C47.26606844080041 -4.479593293333419, 47.359783379977586 -4.122217613939282, 47.448774507091 -3.7828558772573464 C47.51313351305941 -3.4523859838902884, 47.57749251902782 -3.1219160905232304, 47.65709031804565 -2.713198215567453 C47.709929037804315 -2.3033915393046303, 47.76276775756298 -1.8935848630418073, 47.796444920136366 -1.632391440430593 C47.8179299839428 -1.2977442292141332, 47.83941504774922 -0.9630970179976733, 47.8662656754117 -0.5448768187181379 C47.8662656754117 -0.2244025128933108, 47.8662656754117 0.09607179293151624, 47.8662656754117 0.5448768187181336 C47.83966685506963 0.9591749157271106, 47.813068034727564 1.3734730127360875, 47.796444920136366 1.6323914404305815 C47.75214094184154 1.9760043472752034, 47.70783696354671 2.3196172541198252, 47.657090318045654 2.7131982155674415 C47.613437555963856 2.937345922842954, 47.56978479388205 3.161493630118467, 47.448774507091 3.782855877257343 C47.38000515978656 4.0451032033528165, 47.31123581248213 4.30735052944829, 47.172353501623235 4.836968972727545 C47.03955358622482 5.236941159114468, 46.906753670826404 5.636913345501391, 46.828963174845924 5.871205925162227 C46.67743041288269 6.24549477689806, 46.52589765091946 6.619783628633894, 46.42001459126881 6.881316833080694 C46.28826581924011 7.154895977170423, 46.15651704721141 7.428475121260151, 45.947188208341004 7.863150934094196 C45.75138102060866 8.210826423540764, 45.55557383287632 8.558501912987333, 45.41242697109089 8.812673661278923 C45.18961991194751 9.154965136195809, 44.96681285280414 9.497256611112695, 44.817928328148255 9.725983222076879 C44.6586018954099 9.93946612700965, 44.49927546267155 10.15294903194242, 44.16613520195651 10.599326631598467 C44.02241054280356 10.768153794404304, 43.87868588365061 10.93698095721014, 43.45972595028037 11.42911513444238 C43.205821492049736 11.691292333509216, 42.95191703381909 11.953469532576051, 42.70160336025927 12.211938951661365 C42.46887427763368 12.423297346827834, 42.236145195008085 12.634655741994301, 41.89488272023242 12.944581292275275 C41.70713999353271 13.094301120774517, 41.51939726683299 13.24402094927376, 41.042879018350675 13.62403157175526 C40.69623398333706 13.865836142159047, 40.34958894832345 14.107640712562834, 40.14909332057934 14.247497783161286 C39.82716695945875 14.442651435121876, 39.50524059833816 14.637805087082468, 39.21719838406695 14.81241797009762 C38.95789696151113 14.9476953561545, 38.698595538955324 15.082972742211378, 38.25102356499849 15.316470754341124 C38.04014778754196 15.409819205613447, 37.82927201008543 15.503167656885768, 37.254539082949364 15.757584874882367 C36.93967367030074 15.873458257321028, 36.62480825765212 15.989331639759689, 36.23183970640156 16.133947699181363 C35.814468026128125 16.257821423057862, 35.397096345854685 16.381695146934366, 35.18712792646164 16.444012671663497 C34.85638876453442 16.51950172709865, 34.5256496026072 16.594990782533806, 34.12469668792333 16.68650566884811 C33.90163025944495 16.722569319098504, 33.67856383096657 16.758632969348902, 33.04891174863661 16.86043023499518 C32.6723480252785 16.896756884503404, 32.29578430192039 16.933083534011622, 31.96419373967212 16.965071676755716 C31.593079615590387 16.976972584385198, 31.22196549150865 16.988873492014676, 30.875000000000004 17 C30.875000000000004 17, 30.875 17, 30.875 17 C10.170474520515327 17, -10.534050958969345 17, -30.874999999999996 17 C-31.229407392531446 16.988634844733657, -31.583814785062895 16.977269689467313, -31.964193739672112 16.965071676755716 C-32.36844871956068 16.92607368503361, -32.772703699449245 16.887075693311505, -33.048911748636606 16.86043023499518 C-33.41275346501776 16.80160712792533, -33.77659518139891 16.742784020855478, -34.124696687923326 16.68650566884811 C-34.54230652347225 16.591188949042923, -34.95991635902118 16.49587222923774, -35.18712792646162 16.4440126716635 C-35.51424259423449 16.346926755328443, -35.84135726200736 16.24984083899339, -36.231839706401544 16.13394769918137 C-36.63577199216302 15.985296884112028, -37.03970427792451 15.836646069042684, -37.254539082949364 15.757584874882369 C-37.465671530830726 15.664122803226832, -37.67680397871209 15.570660731571294, -38.25102356499848 15.316470754341127 C-38.489632959531065 15.191988386050092, -38.72824235406364 15.067506017759056, -39.21719838406693 14.812417970097624 C-39.56123304939497 14.603862134203663, -39.905267714723 14.395306298309702, -40.14909332057932 14.247497783161299 C-40.41482783960865 14.062132886148364, -40.68056235863798 13.876767989135429, -41.04287901835067 13.624031571755264 C-41.37432608220023 13.359711358512039, -41.70577314604978 13.095391145268811, -41.8948827202324 12.94458129227529 C-42.207704674741485 12.6604846700055, -42.52052662925057 12.376388047735709, -42.70160336025926 12.211938951661377 C-42.859731619756836 12.048658541158582, -43.01785987925442 11.88537813065579, -43.459725950280365 11.429115134442386 C-43.685880822401565 11.163460753072046, -43.91203569452277 10.897806371701709, -44.16613520195651 10.599326631598473 C-44.307844681544665 10.409448838949512, -44.44955416113283 10.21957104630055, -44.81792832814825 9.72598322207689 C-44.98601985682452 9.467749495134646, -45.15411138550079 9.2095157681924, -45.41242697109088 8.812673661278936 C-45.572941947694105 8.527663066416023, -45.73345692429732 8.24265247155311, -45.947188208341004 7.863150934094201 C-46.08431021400055 7.578414155401241, -46.221432219660095 7.293677376708279, -46.42001459126881 6.881316833080701 C-46.557287591875905 6.542249867588262, -46.694560592483 6.203182902095822, -46.828963174845924 5.87120592516224 C-46.89872707921974 5.661088160556978, -46.968490983593554 5.450970395951717, -47.172353501623235 4.8369689727275516 C-47.26670984631463 4.477147336120782, -47.361066191006024 4.117325699514012, -47.448774507091 3.782855877257349 C-47.49555336286673 3.5426563395636532, -47.54233221864246 3.302456801869958, -47.65709031804565 2.713198215567455 C-47.70340786752728 2.3539684482225596, -47.74972541700892 1.9947386808776641, -47.796444920136366 1.6323914404306026 C-47.82428571478708 1.1987485910608298, -47.85212650943779 0.765105741691057, -47.8662656754117 0.54487681871814 C-47.8662656754117 0.27585653627607415, -47.8662656754117 0.006836253834008321, -47.8662656754117 -0.5448768187181317 C-47.83887554597843 -0.9715001935557028, -47.811485416545175 -1.3981235683932738, -47.796444920136366 -1.6323914404305793 C-47.75550877895928 -1.9498840676446416, -47.7145726377822 -2.267376694858704, -47.657090318045654 -2.713198215567447 C-47.607928333840675 -2.965634614070983, -47.55876634963569 -3.2180710125745198, -47.448774507091 -3.782855877257341 C-47.386213272001946 -4.021428980862716, -47.32365203691289 -4.26000208446809, -47.172353501623235 -4.836968972727544 C-47.05828412217814 -5.180527769128717, -46.94421474273303 -5.52408656552989, -46.82896317484593 -5.871205925162218 C-46.690622913018146 -6.212909046503858, -46.55228265119036 -6.554612167845498, -46.42001459126881 -6.881316833080692 C-46.25684221143299 -7.2201477711394055, -46.09366983159717 -7.558978709198119, -45.947188208341004 -7.863150934094194 C-45.769158222839295 -8.179261200843339, -45.59112823733759 -8.495371467592483, -45.41242697109088 -8.812673661278929 C-45.27949381855745 -9.016894681119869, -45.14656066602401 -9.221115700960807, -44.81792832814825 -9.725983222076884 C-44.66205570906633 -9.934838331358934, -44.506183089984404 -10.143693440640982, -44.16613520195651 -10.599326631598467 C-43.89114500788011 -10.922345760945916, -43.61615481380372 -11.245364890293363, -43.45972595028037 -11.42911513444238 C-43.156828381238874 -11.741881742830632, -42.853930812197376 -12.054648351218884, -42.70160336025928 -12.21193895166136 C-42.4723290205705 -12.420159840700101, -42.24305468088172 -12.628380729738844, -41.89488272023242 -12.944581292275274 C-41.60450723070818 -13.176148017954553, -41.31413174118394 -13.407714743633832, -41.042879018350675 -13.624031571755259 C-40.80073271559 -13.792942350216602, -40.558586412829335 -13.961853128677948, -40.14909332057934 -14.247497783161284 C-39.823084401905014 -14.44512630550272, -39.497075483230695 -14.642754827844158, -39.21719838406695 -14.812417970097618 C-38.90723233905908 -14.974127057235496, -38.59726629405121 -15.135836144373373, -38.25102356499849 -15.316470754341124 C-37.89300427908984 -15.474955271948106, -37.53498499318118 -15.633439789555089, -37.25453908294937 -15.757584874882365 C-37.04783256706636 -15.8336547835014, -36.84112605118335 -15.909724692120434, -36.231839706401566 -16.133947699181363 C-35.86641546214428 -16.242403696725923, -35.500991217887 -16.350859694270486, -35.18712792646164 -16.444012671663494 C-34.88428701481784 -16.513134133524556, -34.58144610317405 -16.582255595385615, -34.12469668792333 -16.68650566884811 C-33.743655292713576 -16.748109486605472, -33.36261389750381 -16.80971330436283, -33.04891174863661 -16.86043023499518 C-32.80640938759017 -16.88382414611357, -32.56390702654373 -16.907218057231965, -31.96419373967212 -16.965071676755716 C-31.613913450718012 -16.976304483843254, -31.263633161763906 -16.987537290930792, -30.875000000000004 -17 C-30.875000000000004 -17, -30.875 -17, -30.875 -17" stroke="none" stroke-width="0" fill="#2d2d2d" style=""></path><path d="M-30.875 -17 C-10.936264317563811 -17, 9.002471364872378 -17, 30.875 -17 M-30.875 -17 C-13.450305516736748 -17, 3.9743889665265044 -17, 30.875 -17 M30.875 -17 C30.875 -17, 30.875 -17, 30.875 -17 M30.875 -17 C30.875 -17, 30.875 -17, 30.875 -17 M30.875 -17 C31.233081799019953 -16.98851701366937, 31.591163598039902 -16.97703402733874, 31.96419373967212 -16.965071676755716 M30.875 -17 C31.202397373235915 -16.98950100348065, 31.52979474647183 -16.979002006961302, 31.96419373967212 -16.965071676755716 M31.96419373967212 -16.965071676755716 C32.23917853111794 -16.938544224642534, 32.514163322563775 -16.912016772529356, 33.0489117486366 -16.860430234995185 M31.96419373967212 -16.965071676755716 C32.20395030554789 -16.941942649195138, 32.443706871423664 -16.91881362163456, 33.0489117486366 -16.860430234995185 M33.0489117486366 -16.860430234995185 C33.31444338972158 -16.817501138493196, 33.579975030806565 -16.77457204199121, 34.124696687923326 -16.686505668848113 M33.0489117486366 -16.860430234995185 C33.401243417572196 -16.803467983134578, 33.753575086507794 -16.746505731273974, 34.124696687923326 -16.686505668848113 M34.124696687923326 -16.686505668848113 C34.534090503384 -16.59306420201353, 34.943484318844675 -16.499622735178942, 35.18712792646162 -16.4440126716635 M34.124696687923326 -16.686505668848113 C34.37119484134577 -16.630244073880217, 34.61769299476821 -16.573982478912324, 35.18712792646162 -16.4440126716635 M35.18712792646162 -16.4440126716635 C35.43897085923868 -16.3692670111658, 35.690813792015746 -16.2945213506681, 36.23183970640155 -16.133947699181366 M35.18712792646162 -16.4440126716635 C35.40639773737359 -16.37893454275555, 35.62566754828556 -16.313856413847603, 36.23183970640155 -16.133947699181366 M36.23183970640155 -16.133947699181366 C36.546397031582394 -16.018187695778778, 36.86095435676324 -15.902427692376188, 37.25453908294936 -15.757584874882369 M36.23183970640155 -16.133947699181366 C36.50537103579688 -16.033285641467995, 36.7789023651922 -15.932623583754623, 37.25453908294936 -15.757584874882369 M37.25453908294936 -15.757584874882369 C37.493154820358804 -15.651956766215566, 37.73177055776825 -15.546328657548765, 38.25102356499849 -15.316470754341125 M37.25453908294936 -15.757584874882369 C37.483843756561754 -15.656078497955628, 37.713148430174144 -15.554572121028885, 38.25102356499849 -15.316470754341125 M38.25102356499849 -15.316470754341125 C38.499392343741555 -15.186896921558663, 38.74776112248462 -15.057323088776203, 39.21719838406694 -14.812417970097622 M38.25102356499849 -15.316470754341125 C38.47830644579377 -15.19789742101186, 38.705589326589056 -15.079324087682593, 39.21719838406694 -14.812417970097622 M39.21719838406694 -14.812417970097622 C39.45301534820338 -14.669464340623808, 39.68883231233982 -14.526510711149994, 40.149093320579325 -14.247497783161291 M39.21719838406694 -14.812417970097622 C39.475915101473724 -14.655582375617438, 39.7346318188805 -14.498746781137255, 40.149093320579325 -14.247497783161291 M40.149093320579325 -14.247497783161291 C40.5028657033952 -14.00072148346856, 40.856638086211085 -13.753945183775828, 41.042879018350675 -13.624031571755262 M40.149093320579325 -14.247497783161291 C40.45145757834381 -14.036581566082543, 40.75382183610831 -13.825665349003796, 41.042879018350675 -13.624031571755262 M41.042879018350675 -13.624031571755262 C41.23832742049522 -13.468166672145404, 41.43377582263975 -13.312301772535546, 41.8948827202324 -12.944581292275288 M41.042879018350675 -13.624031571755262 C41.24457280192778 -13.463186146649516, 41.44626658550488 -13.302340721543768, 41.8948827202324 -12.944581292275288 M41.8948827202324 -12.944581292275288 C42.17463368240604 -12.690518870234042, 42.454384644579676 -12.436456448192796, 42.70160336025927 -12.21193895166137 M41.8948827202324 -12.944581292275288 C42.12218871410017 -12.73814800283161, 42.34949470796794 -12.531714713387931, 42.70160336025927 -12.21193895166137 M42.70160336025927 -12.21193895166137 C42.90547867679283 -12.001420948865688, 43.10935399332639 -11.790902946070005, 43.45972595028036 -11.42911513444239 M42.70160336025927 -12.21193895166137 C42.984047803545565 -11.920291874848216, 43.26649224683186 -11.628644798035062, 43.45972595028036 -11.42911513444239 M43.45972595028036 -11.42911513444239 C43.69260775722388 -11.15555891265632, 43.9254895641674 -10.882002690870252, 44.16613520195651 -10.59932663159847 M43.45972595028036 -11.42911513444239 C43.67340080086081 -11.178120496507159, 43.887075651441265 -10.927125858571927, 44.16613520195651 -10.59932663159847 M44.16613520195651 -10.59932663159847 C44.302265149185615 -10.416924904004789, 44.438395096414716 -10.234523176411107, 44.81792832814825 -9.725983222076888 M44.16613520195651 -10.59932663159847 C44.34037496349991 -10.365861224699135, 44.514614725043316 -10.1323958177998, 44.81792832814825 -9.725983222076888 M44.81792832814825 -9.725983222076888 C45.05525113560511 -9.361391659726287, 45.292573943061974 -8.996800097375685, 45.41242697109088 -8.812673661278927 M44.81792832814825 -9.725983222076888 C45.050072094256976 -9.369348058004354, 45.2822158603657 -9.012712893931818, 45.41242697109088 -8.812673661278927 M45.41242697109088 -8.812673661278927 C45.602056257679806 -8.475967660892822, 45.79168554426874 -8.139261660506719, 45.947188208341004 -7.863150934094199 M45.41242697109088 -8.812673661278927 C45.54328167395674 -8.580327885865094, 45.6741363768226 -8.34798211045126, 45.947188208341004 -7.863150934094199 M45.947188208341004 -7.863150934094199 C46.12913597842473 -7.485332496456727, 46.311083748508445 -7.1075140588192545, 46.42001459126881 -6.881316833080699 M45.947188208341004 -7.863150934094199 C46.04208355666723 -7.666098712859604, 46.136978904993455 -7.469046491625009, 46.42001459126881 -6.881316833080699 M46.42001459126881 -6.881316833080699 C46.517308456163214 -6.640999105742604, 46.614602321057625 -6.400681378404508, 46.828963174845924 -5.871205925162238 M46.42001459126881 -6.881316833080699 C46.518215037640594 -6.638759831965929, 46.61641548401237 -6.396202830851159, 46.828963174845924 -5.871205925162238 M46.828963174845924 -5.871205925162238 C46.955747327723365 -5.489352257006898, 47.08253148060081 -5.107498588851557, 47.172353501623235 -4.836968972727556 M46.828963174845924 -5.871205925162238 C46.92885752134081 -5.5703400695223175, 47.0287518678357 -5.269474213882396, 47.172353501623235 -4.836968972727556 M47.172353501623235 -4.836968972727556 C47.23497455029613 -4.598167774003622, 47.29759559896903 -4.3593665752796875, 47.448774507091 -3.7828558772573464 M47.172353501623235 -4.836968972727556 C47.26790617127407 -4.472585230559929, 47.363458840924906 -4.108201488392303, 47.448774507091 -3.7828558772573464 M47.448774507091 -3.7828558772573464 C47.49544039070826 -3.5432364277207005, 47.542106274325526 -3.303616978184054, 47.65709031804565 -2.713198215567453 M47.448774507091 -3.7828558772573464 C47.50121468747882 -3.513586634201938, 47.55365486786664 -3.2443173911465295, 47.65709031804565 -2.713198215567453 M47.65709031804565 -2.713198215567453 C47.69953536727682 -2.3840027954534526, 47.741980416508 -2.054807375339452, 47.796444920136366 -1.632391440430593 M47.65709031804565 -2.713198215567453 C47.7000868661214 -2.3797254793206566, 47.74308341419716 -2.04625274307386, 47.796444920136366 -1.632391440430593 M47.796444920136366 -1.632391440430593 C47.8217530963729 -1.238196167154443, 47.84706127260943 -0.8440008938782929, 47.8662656754117 -0.5448768187181379 M47.796444920136366 -1.632391440430593 C47.813526295413666 -1.3663352326486988, 47.830607670690966 -1.1002790248668046, 47.8662656754117 -0.5448768187181379 M47.8662656754117 -0.5448768187181379 C47.8662656754117 -0.1527426168913687, 47.8662656754117 0.23939158493540047, 47.8662656754117 0.5448768187181336 M47.8662656754117 -0.5448768187181379 C47.8662656754117 -0.2774693044939722, 47.8662656754117 -0.01006179026980658, 47.8662656754117 0.5448768187181336 M47.8662656754117 0.5448768187181336 C47.839416606786806 0.9630727347289144, 47.812567538161915 1.3812686507396952, 47.796444920136366 1.6323914404305815 M47.8662656754117 0.5448768187181336 C47.850071172729926 0.7971192699539903, 47.833876670048156 1.049361721189847, 47.796444920136366 1.6323914404305815 M47.796444920136366 1.6323914404305815 C47.75183616884367 1.9783681064624632, 47.70722741755097 2.324344772494345, 47.657090318045654 2.7131982155674415 M47.796444920136366 1.6323914404305815 C47.76484026019032 1.8775109419261307, 47.73323560024427 2.12263044342168, 47.657090318045654 2.7131982155674415 M47.657090318045654 2.7131982155674415 C47.61277869020967 2.9407290592393407, 47.56846706237369 3.16825990291124, 47.448774507091 3.782855877257343 M47.657090318045654 2.7131982155674415 C47.60969152566131 2.9565809967227326, 47.56229273327696 3.199963777878023, 47.448774507091 3.782855877257343 M47.448774507091 3.782855877257343 C47.35466500730523 4.1417361872557255, 47.26055550751945 4.500616497254107, 47.172353501623235 4.836968972727545 M47.448774507091 3.782855877257343 C47.34331167908526 4.185031348322037, 47.23784885107951 4.587206819386732, 47.172353501623235 4.836968972727545 M47.172353501623235 4.836968972727545 C47.06323841904823 5.165606216315983, 46.95412333647323 5.49424345990442, 46.828963174845924 5.871205925162227 M47.172353501623235 4.836968972727545 C47.07771134894072 5.122016057428054, 46.98306919625819 5.407063142128562, 46.828963174845924 5.871205925162227 M46.828963174845924 5.871205925162227 C46.695756292680784 6.200229499489984, 46.56254941051565 6.529253073817742, 46.42001459126881 6.881316833080694 M46.828963174845924 5.871205925162227 C46.681750789317334 6.234823363575704, 46.53453840378874 6.598440801989182, 46.42001459126881 6.881316833080694 M46.42001459126881 6.881316833080694 C46.302445403704986 7.125451766634607, 46.184876216141156 7.369586700188521, 45.947188208341004 7.863150934094196 M46.42001459126881 6.881316833080694 C46.24187801727725 7.251221240486256, 46.06374144328569 7.621125647891818, 45.947188208341004 7.863150934094196 M45.947188208341004 7.863150934094196 C45.73396922246039 8.241742834288768, 45.52075023657978 8.620334734483341, 45.41242697109089 8.812673661278923 M45.947188208341004 7.863150934094196 C45.78726950293439 8.147102789068528, 45.627350797527775 8.43105464404286, 45.41242697109089 8.812673661278923 M45.41242697109089 8.812673661278923 C45.2555256120007 9.053716282755666, 45.09862425291052 9.294758904232408, 44.817928328148255 9.725983222076879 M45.41242697109089 8.812673661278923 C45.29275411905448 8.996523298667173, 45.17308126701808 9.180372936055422, 44.817928328148255 9.725983222076879 M44.817928328148255 9.725983222076879 C44.57443969746009 10.05223580492843, 44.330951066771924 10.378488387779981, 44.16613520195651 10.599326631598467 M44.817928328148255 9.725983222076879 C44.65031447866585 9.950570510447488, 44.482700629183434 10.175157798818097, 44.16613520195651 10.599326631598467 M44.16613520195651 10.599326631598467 C43.9335486250733 10.872536059356628, 43.70096204819009 11.145745487114791, 43.45972595028037 11.42911513444238 M44.16613520195651 10.599326631598467 C43.94697323008854 10.856766754424063, 43.72781125822057 11.11420687724966, 43.45972595028037 11.42911513444238 M43.45972595028037 11.42911513444238 C43.277614568045834 11.61716008822208, 43.0955031858113 11.805205042001782, 42.70160336025927 12.211938951661365 M43.45972595028037 11.42911513444238 C43.24787512419531 11.647868505651498, 43.03602429811025 11.866621876860616, 42.70160336025927 12.211938951661365 M42.70160336025927 12.211938951661365 C42.38946181223657 12.495417646762792, 42.07732026421387 12.778896341864222, 41.89488272023242 12.944581292275275 M42.70160336025927 12.211938951661365 C42.53914312572489 12.359481038203231, 42.37668289119051 12.5070231247451, 41.89488272023242 12.944581292275275 M41.89488272023242 12.944581292275275 C41.67620337805063 13.118972248363558, 41.45752403586884 13.293363204451843, 41.042879018350675 13.62403157175526 M41.89488272023242 12.944581292275275 C41.59481242746093 13.183879365554688, 41.29474213468944 13.423177438834099, 41.042879018350675 13.62403157175526 M41.042879018350675 13.62403157175526 C40.769138116066294 13.814981375136174, 40.49539721378192 14.005931178517086, 40.14909332057934 14.247497783161286 M41.042879018350675 13.62403157175526 C40.8365085332679 13.767986688514688, 40.63013804818513 13.911941805274115, 40.14909332057934 14.247497783161286 M40.14909332057934 14.247497783161286 C39.88799577503219 14.405776649651463, 39.62689822948503 14.56405551614164, 39.21719838406695 14.81241797009762 M40.14909332057934 14.247497783161286 C39.834348435274066 14.438297982279595, 39.5196035499688 14.629098181397904, 39.21719838406695 14.81241797009762 M39.21719838406695 14.81241797009762 C38.93118530130362 14.961630812175125, 38.64517221854029 15.110843654252628, 38.25102356499849 15.316470754341124 M39.21719838406695 14.81241797009762 C38.96187777995174 14.945618565723867, 38.706557175836544 15.078819161350117, 38.25102356499849 15.316470754341124 M38.25102356499849 15.316470754341124 C37.8713025624602 15.484561978141496, 37.491581559921904 15.652653201941868, 37.254539082949364 15.757584874882367 M38.25102356499849 15.316470754341124 C37.9209869889053 15.462568156390397, 37.5909504128121 15.60866555843967, 37.254539082949364 15.757584874882367 M37.254539082949364 15.757584874882367 C36.89194153915295 15.891024122814397, 36.52934399535655 16.024463370746428, 36.23183970640156 16.133947699181363 M37.254539082949364 15.757584874882367 C36.862316713547486 15.901926332486097, 36.4700943441456 16.046267790089825, 36.23183970640156 16.133947699181363 M36.23183970640156 16.133947699181363 C35.86660892625097 16.242346277594574, 35.50137814610038 16.350744856007783, 35.18712792646164 16.444012671663497 M36.23183970640156 16.133947699181363 C35.86777796050519 16.241999314364307, 35.50371621460881 16.35005092954725, 35.18712792646164 16.444012671663497 M35.18712792646164 16.444012671663497 C34.93826251788287 16.50081457717304, 34.6893971093041 16.557616482682583, 34.12469668792333 16.68650566884811 M35.18712792646164 16.444012671663497 C34.81962876863403 16.527891956281525, 34.452129610806416 16.611771240899554, 34.12469668792333 16.68650566884811 M34.12469668792333 16.68650566884811 C33.905098015598426 16.72200867917646, 33.68549934327351 16.757511689504817, 33.04891174863661 16.86043023499518 M34.12469668792333 16.68650566884811 C33.82168657951489 16.7354939932971, 33.518676471106446 16.784482317746093, 33.04891174863661 16.86043023499518 M33.04891174863661 16.86043023499518 C32.67397788844022 16.896599653564387, 32.29904402824383 16.932769072133596, 31.96419373967212 16.965071676755716 M33.04891174863661 16.86043023499518 C32.69930045841334 16.894156815693925, 32.349689168190075 16.927883396392673, 31.96419373967212 16.965071676755716 M31.96419373967212 16.965071676755716 C31.598220937926563 16.97680771218485, 31.232248136181006 16.98854374761399, 30.875000000000004 17 M31.96419373967212 16.965071676755716 C31.5746508970501 16.97756355751946, 31.185108054428078 16.990055438283203, 30.875000000000004 17 M30.875000000000004 17 C30.875000000000004 17, 30.875000000000004 17, 30.875 17 M30.875000000000004 17 C30.875000000000004 17, 30.875 17, 30.875 17 M30.875 17 C9.831158292344067 17, -11.212683415311865 17, -30.874999999999996 17 M30.875 17 C8.327436711162878 17, -14.220126577674243 17, -30.874999999999996 17 M-30.874999999999996 17 C-31.233547496847912 16.98850207964645, -31.592094993695827 16.977004159292903, -31.964193739672112 16.965071676755716 M-30.874999999999996 17 C-31.183904350521026 16.99009403872463, -31.49280870104205 16.980188077449267, -31.964193739672112 16.965071676755716 M-31.964193739672112 16.965071676755716 C-32.268414995840644 16.93572381805273, -32.57263625200917 16.90637595934974, -33.048911748636606 16.86043023499518 M-31.964193739672112 16.965071676755716 C-32.2029636390777 16.942037831722875, -32.44173353848329 16.919003986690036, -33.048911748636606 16.86043023499518 M-33.048911748636606 16.86043023499518 C-33.337751385832 16.81373288243827, -33.626591023027395 16.767035529881362, -34.124696687923326 16.68650566884811 M-33.048911748636606 16.86043023499518 C-33.37245597635693 16.808122113380318, -33.69600020407726 16.755813991765457, -34.124696687923326 16.68650566884811 M-34.124696687923326 16.68650566884811 C-34.4920509874496 16.602659447192075, -34.85940528697588 16.518813225536036, -35.18712792646162 16.4440126716635 M-34.124696687923326 16.68650566884811 C-34.39562450624022 16.62466816228652, -34.66655232455712 16.562830655724927, -35.18712792646162 16.4440126716635 M-35.18712792646162 16.4440126716635 C-35.55367855991399 16.335222367718377, -35.92022919336636 16.22643206377325, -36.231839706401544 16.13394769918137 M-35.18712792646162 16.4440126716635 C-35.41553457036483 16.376222778683967, -35.64394121426803 16.308432885704438, -36.231839706401544 16.13394769918137 M-36.231839706401544 16.13394769918137 C-36.52222380917901 16.02708366507804, -36.812607911956476 15.920219630974714, -37.254539082949364 15.757584874882369 M-36.231839706401544 16.13394769918137 C-36.524118146678134 16.0263865313673, -36.81639658695473 15.91882536355323, -37.254539082949364 15.757584874882369 M-37.254539082949364 15.757584874882369 C-37.60286141798096 15.603392909778831, -37.95118375301256 15.449200944675294, -38.25102356499848 15.316470754341127 M-37.254539082949364 15.757584874882369 C-37.48324972552611 15.656341457873804, -37.71196036810285 15.555098040865241, -38.25102356499848 15.316470754341127 M-38.25102356499848 15.316470754341127 C-38.515116953062424 15.178693402948058, -38.779210341126365 15.040916051554989, -39.21719838406693 14.812417970097624 M-38.25102356499848 15.316470754341127 C-38.45661155500804 15.209215631638534, -38.66219954501759 15.101960508935942, -39.21719838406693 14.812417970097624 M-39.21719838406693 14.812417970097624 C-39.421724996651506 14.688432735617068, -39.62625160923608 14.564447501136513, -40.14909332057932 14.247497783161299 M-39.21719838406693 14.812417970097624 C-39.5797167695163 14.592657194443712, -39.94223515496568 14.3728964187898, -40.14909332057932 14.247497783161299 M-40.14909332057932 14.247497783161299 C-40.50410155173414 13.99985940916633, -40.859109782888964 13.752221035171361, -41.04287901835067 13.624031571755264 M-40.14909332057932 14.247497783161299 C-40.469584271079405 14.023937169922078, -40.79007522157949 13.800376556682856, -41.04287901835067 13.624031571755264 M-41.04287901835067 13.624031571755264 C-41.21532773339432 13.48650831056099, -41.38777644843796 13.348985049366718, -41.8948827202324 12.94458129227529 M-41.04287901835067 13.624031571755264 C-41.23496398652563 13.47084892123141, -41.427048954700595 13.317666270707555, -41.8948827202324 12.94458129227529 M-41.8948827202324 12.94458129227529 C-42.2140562114425 12.654716372426096, -42.53322970265259 12.364851452576902, -42.70160336025926 12.211938951661377 M-41.8948827202324 12.94458129227529 C-42.12816855449039 12.732717270007125, -42.36145438874837 12.52085324773896, -42.70160336025926 12.211938951661377 M-42.70160336025926 12.211938951661377 C-42.95945848623187 11.945682363795106, -43.21731361220448 11.679425775928832, -43.459725950280365 11.429115134442386 M-42.70160336025926 12.211938951661377 C-42.90420863880505 12.00273236736013, -43.106813917350834 11.793525783058882, -43.459725950280365 11.429115134442386 M-43.459725950280365 11.429115134442386 C-43.65162750563556 11.203696648014343, -43.84352906099075 10.9782781615863, -44.16613520195651 10.599326631598473 M-43.459725950280365 11.429115134442386 C-43.6582654308536 11.195899363344584, -43.856804911426835 10.962683592246783, -44.16613520195651 10.599326631598473 M-44.16613520195651 10.599326631598473 C-44.34650811895929 10.357643355125527, -44.52688103596208 10.115960078652579, -44.81792832814825 9.72598322207689 M-44.16613520195651 10.599326631598473 C-44.36417443857291 10.333972096278105, -44.562213675189305 10.068617560957739, -44.81792832814825 9.72598322207689 M-44.81792832814825 9.72598322207689 C-44.96932889880737 9.49339128879878, -45.12072946946648 9.260799355520671, -45.41242697109088 8.812673661278936 M-44.81792832814825 9.72598322207689 C-45.042289108281196 9.381304814487516, -45.26664988841415 9.03662640689814, -45.41242697109088 8.812673661278936 M-45.41242697109088 8.812673661278936 C-45.57067883697216 8.531681448667644, -45.72893070285344 8.250689236056353, -45.947188208341004 7.863150934094201 M-45.41242697109088 8.812673661278936 C-45.60267111140045 8.47487592585114, -45.79291525171002 8.137078190423347, -45.947188208341004 7.863150934094201 M-45.947188208341004 7.863150934094201 C-46.074641530596566 7.598491383366296, -46.20209485285213 7.33383183263839, -46.42001459126881 6.881316833080701 M-45.947188208341004 7.863150934094201 C-46.10791831829627 7.5293914216986675, -46.26864842825153 7.195631909303133, -46.42001459126881 6.881316833080701 M-46.42001459126881 6.881316833080701 C-46.57538388200469 6.497551681102208, -46.730753172740556 6.113786529123716, -46.828963174845924 5.87120592516224 M-46.42001459126881 6.881316833080701 C-46.5209220900526 6.632073360170975, -46.621829588836384 6.382829887261248, -46.828963174845924 5.87120592516224 M-46.828963174845924 5.87120592516224 C-46.931540742489574 5.562258634935476, -47.03411831013323 5.253311344708711, -47.172353501623235 4.8369689727275516 M-46.828963174845924 5.87120592516224 C-46.90815980384471 5.632678296887126, -46.987356432843505 5.394150668612013, -47.172353501623235 4.8369689727275516 M-47.172353501623235 4.8369689727275516 C-47.256576705963575 4.515789392010156, -47.34079991030392 4.194609811292759, -47.448774507091 3.782855877257349 M-47.172353501623235 4.8369689727275516 C-47.2428296770145 4.568212771393039, -47.313305852405755 4.299456570058527, -47.448774507091 3.782855877257349 M-47.448774507091 3.782855877257349 C-47.49630769454671 3.5387830058150223, -47.543840882002414 3.2947101343726954, -47.65709031804565 2.713198215567455 M-47.448774507091 3.782855877257349 C-47.508459019760274 3.476388519026846, -47.568143532429545 3.1699211607963433, -47.65709031804565 2.713198215567455 M-47.65709031804565 2.713198215567455 C-47.685970723466 2.489207494208298, -47.71485112888636 2.265216772849141, -47.796444920136366 1.6323914404306026 M-47.65709031804565 2.713198215567455 C-47.69307574349987 2.4341023618705218, -47.72906116895409 2.155006508173588, -47.796444920136366 1.6323914404306026 M-47.796444920136366 1.6323914404306026 C-47.81165484858064 1.3954845276778296, -47.82686477702491 1.1585776149250564, -47.8662656754117 0.54487681871814 M-47.796444920136366 1.6323914404306026 C-47.82263049630004 1.2245299550647284, -47.84881607246372 0.8166684696988541, -47.8662656754117 0.54487681871814 M-47.8662656754117 0.54487681871814 C-47.8662656754117 0.11707837350543959, -47.8662656754117 -0.3107200717072608, -47.8662656754117 -0.5448768187181317 M-47.8662656754117 0.54487681871814 C-47.8662656754117 0.2248787844626131, -47.8662656754117 -0.09511924979291375, -47.8662656754117 -0.5448768187181317 M-47.8662656754117 -0.5448768187181317 C-47.845168463785775 -0.8734829191545392, -47.824071252159854 -1.2020890195909468, -47.796444920136366 -1.6323914404305793 M-47.8662656754117 -0.5448768187181317 C-47.838711438972084 -0.9740562926443833, -47.81115720253247 -1.403235766570635, -47.796444920136366 -1.6323914404305793 M-47.796444920136366 -1.6323914404305793 C-47.743658487661065 -2.041792586848901, -47.69087205518577 -2.451193733267223, -47.657090318045654 -2.713198215567447 M-47.796444920136366 -1.6323914404305793 C-47.75669497921562 -1.9406841326982511, -47.71694503829487 -2.248976824965923, -47.657090318045654 -2.713198215567447 M-47.657090318045654 -2.713198215567447 C-47.57675424991752 -3.125706946371397, -47.49641818178939 -3.538215677175347, -47.448774507091 -3.782855877257341 M-47.657090318045654 -2.713198215567447 C-47.61217896824252 -2.9438085047894114, -47.56726761843938 -3.1744187940113764, -47.448774507091 -3.782855877257341 M-47.448774507091 -3.782855877257341 C-47.345560146829825 -4.1764569663199245, -47.24234578656864 -4.570058055382509, -47.172353501623235 -4.836968972727544 M-47.448774507091 -3.782855877257341 C-47.366842766660675 -4.09529711295912, -47.28491102623034 -4.407738348660898, -47.172353501623235 -4.836968972727544 M-47.172353501623235 -4.836968972727544 C-47.077176128649455 -5.123628055669563, -46.98199875567567 -5.410287138611583, -46.82896317484593 -5.871205925162218 M-47.172353501623235 -4.836968972727544 C-47.07300826699565 -5.136180990912251, -46.97366303236806 -5.435393009096959, -46.82896317484593 -5.871205925162218 M-46.82896317484593 -5.871205925162218 C-46.737474792112735 -6.097183999320763, -46.64598640937954 -6.32316207347931, -46.42001459126881 -6.881316833080692 M-46.82896317484593 -5.871205925162218 C-46.74225189600335 -6.085384460351913, -46.655540617160774 -6.299562995541608, -46.42001459126881 -6.881316833080692 M-46.42001459126881 -6.881316833080692 C-46.26760326582114 -7.197802211452736, -46.115191940373464 -7.514287589824779, -45.947188208341004 -7.863150934094194 M-46.42001459126881 -6.881316833080692 C-46.27419729158745 -7.184109575859438, -46.128379991906094 -7.486902318638183, -45.947188208341004 -7.863150934094194 M-45.947188208341004 -7.863150934094194 C-45.83962411184337 -8.054141879471608, -45.73206001534573 -8.245132824849023, -45.41242697109088 -8.812673661278929 M-45.947188208341004 -7.863150934094194 C-45.8225892921341 -8.08438892682796, -45.6979903759272 -8.305626919561726, -45.41242697109088 -8.812673661278929 M-45.41242697109088 -8.812673661278929 C-45.25928266980749 -9.04794443305316, -45.10613836852409 -9.28321520482739, -44.81792832814825 -9.725983222076884 M-45.41242697109088 -8.812673661278929 C-45.284501258847996 -9.009201908147592, -45.15657554660511 -9.205730155016255, -44.81792832814825 -9.725983222076884 M-44.81792832814825 -9.725983222076884 C-44.59268733258766 -10.027785636251242, -44.367446337027076 -10.329588050425599, -44.16613520195651 -10.599326631598467 M-44.81792832814825 -9.725983222076884 C-44.58535958378168 -10.037604152079602, -44.35279083941512 -10.34922508208232, -44.16613520195651 -10.599326631598467 M-44.16613520195651 -10.599326631598467 C-43.897134116458574 -10.915310613219722, -43.62813303096064 -11.231294594840977, -43.45972595028037 -11.42911513444238 M-44.16613520195651 -10.599326631598467 C-43.93072104532595 -10.875857495421707, -43.6953068886954 -11.152388359244945, -43.45972595028037 -11.42911513444238 M-43.45972595028037 -11.42911513444238 C-43.275445053280094 -11.619400290338188, -43.09116415627981 -11.809685446233994, -42.70160336025928 -12.21193895166136 M-43.45972595028037 -11.42911513444238 C-43.24609572429424 -11.6497058821408, -43.03246549830811 -11.87029662983922, -42.70160336025928 -12.21193895166136 M-42.70160336025928 -12.21193895166136 C-42.447569670610484 -12.442645627237283, -42.1935359809617 -12.673352302813207, -41.89488272023242 -12.944581292275274 M-42.70160336025928 -12.21193895166136 C-42.52729501729179 -12.370241176798402, -42.352986674324306 -12.528543401935446, -41.89488272023242 -12.944581292275274 M-41.89488272023242 -12.944581292275274 C-41.55974720017433 -13.211842951190862, -41.22461168011625 -13.47910461010645, -41.042879018350675 -13.624031571755259 M-41.89488272023242 -12.944581292275274 C-41.61039854160627 -13.17144985428769, -41.32591436298013 -13.398318416300107, -41.042879018350675 -13.624031571755259 M-41.042879018350675 -13.624031571755259 C-40.78771808028655 -13.802020796409808, -40.53255714222243 -13.980010021064357, -40.14909332057934 -14.247497783161284 M-41.042879018350675 -13.624031571755259 C-40.858659307803215 -13.75253526709043, -40.67443959725575 -13.881038962425599, -40.14909332057934 -14.247497783161284 M-40.14909332057934 -14.247497783161284 C-39.909584272106 -14.392689575857224, -39.67007522363266 -14.537881368553162, -39.21719838406695 -14.812417970097618 M-40.14909332057934 -14.247497783161284 C-39.94418643999149 -14.371713538340128, -39.73927955940364 -14.495929293518973, -39.21719838406695 -14.812417970097618 M-39.21719838406695 -14.812417970097618 C-38.99077025253152 -14.93054538128551, -38.76434212099609 -15.048672792473404, -38.25102356499849 -15.316470754341124 M-39.21719838406695 -14.812417970097618 C-38.967928455325435 -14.942461932257057, -38.718658526583916 -15.072505894416496, -38.25102356499849 -15.316470754341124 M-38.25102356499849 -15.316470754341124 C-37.963951132134184 -15.443549204668996, -37.67687869926988 -15.570627654996867, -37.25453908294937 -15.757584874882365 M-38.25102356499849 -15.316470754341124 C-38.006193171061064 -15.42484990710163, -37.76136277712363 -15.533229059862135, -37.25453908294937 -15.757584874882365 M-37.25453908294937 -15.757584874882365 C-37.04069764513871 -15.836280500725271, -36.82685620732805 -15.914976126568178, -36.231839706401566 -16.133947699181363 M-37.25453908294937 -15.757584874882365 C-36.9824517543405 -15.857715526958122, -36.71036442573164 -15.95784617903388, -36.231839706401566 -16.133947699181363 M-36.231839706401566 -16.133947699181363 C-36.022056306624464 -16.19621031105967, -35.81227290684736 -16.258472922937976, -35.18712792646164 -16.444012671663494 M-36.231839706401566 -16.133947699181363 C-35.927030774647136 -16.224413390151344, -35.62222184289271 -16.314879081121326, -35.18712792646164 -16.444012671663494 M-35.18712792646164 -16.444012671663494 C-34.91924134422806 -16.505156035934988, -34.65135476199448 -16.566299400206486, -34.12469668792333 -16.68650566884811 M-35.18712792646164 -16.444012671663494 C-34.77532134726554 -16.538004836075935, -34.36351476806944 -16.631997000488376, -34.12469668792333 -16.68650566884811 M-34.12469668792333 -16.68650566884811 C-33.754997891808834 -16.746275703146917, -33.38529909569434 -16.806045737445725, -33.04891174863661 -16.86043023499518 M-34.12469668792333 -16.68650566884811 C-33.85030303503376 -16.730867506692736, -33.57590938214419 -16.77522934453736, -33.04891174863661 -16.86043023499518 M-33.04891174863661 -16.86043023499518 C-32.80010934680179 -16.88443190347152, -32.55130694496697 -16.90843357194786, -31.96419373967212 -16.965071676755716 M-33.04891174863661 -16.86043023499518 C-32.64070025483198 -16.899809906856365, -32.23248876102734 -16.93918957871755, -31.96419373967212 -16.965071676755716 M-31.96419373967212 -16.965071676755716 C-31.711142493483088 -16.97318653768663, -31.458091247294053 -16.98130139861754, -30.875000000000004 -17 M-31.96419373967212 -16.965071676755716 C-31.540909144052307 -16.97864558986376, -31.11762454843249 -16.992219502971803, -30.875000000000004 -17 M-30.875000000000004 -17 C-30.875000000000004 -17, -30.875 -17, -30.875 -17 M-30.875000000000004 -17 C-30.875000000000004 -17, -30.875 -17, -30.875 -17" stroke="#555555" stroke-width="1.3" fill="none" stroke-dasharray="0 0" style=""></path></g><g class="label" style="" transform="translate(0, -9.5)"><rect></rect><g><rect class="background" style="stroke: none"></rect><text y="-10.1" style=""><tspan class="text-outer-tspan row" x="0" y="-0.1em" dy="1.1em"><tspan font-style="normal" class="text-inner-tspan" font-weight="normal">Start</tspan><tspan font-style="normal" class="text-inner-tspan" font-weight="normal"> here</tspan></tspan></text></g></g></g><g class="node default" id="ga7176d92-b87a-4719-ae8a-936a261727b8-dark-flowchart-docsQ-1" data-look="classic" transform="translate(280.4421844482422, 227.15000915527344)"><polygon points="135.1500015258789,0 270.3000030517578,-135.1500015258789 135.1500015258789,-270.3000030517578 0,-135.1500015258789" class="label-container" transform="translate(-134.6500015258789, 135.1500015258789)"></polygon><g class="label" style="" transform="translate(0, -35.900001525878906)"><rect></rect><g><rect class="background" style="stroke: none"></rect><text y="-10.1" style=""><tspan class="text-outer-tspan row" x="0" y="-0.1em" dy="1.1em"><tspan font-style="normal" class="text-inner-tspan" font-weight="normal">Need</tspan><tspan font-style="normal" class="text-inner-tspan" font-weight="normal"> built-in</tspan><tspan font-style="normal" class="text-inner-tspan" font-weight="normal"> docs</tspan></tspan><tspan class="text-outer-tspan row" x="0" y="1em" dy="1.1em"><tspan font-style="normal" class="text-inner-tspan" font-weight="normal">navigation,</tspan></tspan><tspan class="text-outer-tspan row" x="0" y="2.1em" dy="1.1em"><tspan font-style="normal" class="text-inner-tspan" font-weight="normal">search,</tspan><tspan font-style="normal" class="text-inner-tspan" font-weight="normal"> and</tspan><tspan font-style="normal" class="text-inner-tspan" font-weight="normal"> the</tspan><tspan font-style="normal" class="text-inner-tspan" font-weight="normal"> default</tspan></tspan><tspan class="text-outer-tspan row" x="0" y="3.2em" dy="1.1em"><tspan font-style="normal" class="text-inner-tspan" font-weight="normal">theme?</tspan></tspan></text></g></g></g><g class="node default" id="ga7176d92-b87a-4719-ae8a-936a261727b8-dark-flowchart-docs-3" data-look="classic" transform="translate(124.9296875, 579.3953247070312)"><rect class="basic label-container" style="" x="-116.9296875" y="-50.900001525878906" width="233.859375" height="101.80000305175781"></rect><g class="label" style="" transform="translate(0, -35.900001525878906)"><rect></rect><g><rect class="background" style="stroke: none"></rect><text y="-10.1" style=""><tspan class="text-outer-tspan row" x="0" y="-0.1em" dy="1.1em"><tspan font-style="normal" class="text-inner-tspan" font-weight="normal">@pagesmith/docs</tspan></tspan><tspan class="text-outer-tspan row" x="0" y="1em" dy="1.1em"><tspan font-style="normal" class="text-inner-tspan" font-weight="normal">Docs</tspan><tspan font-style="normal" class="text-inner-tspan" font-weight="normal"> preset</tspan><tspan font-style="normal" class="text-inner-tspan" font-weight="normal"> with</tspan><tspan font-style="normal" class="text-inner-tspan" font-weight="normal"> config,</tspan></tspan><tspan class="text-outer-tspan row" x="0" y="2.1em" dy="1.1em"><tspan font-style="normal" class="text-inner-tspan" font-weight="normal">navigation,</tspan><tspan font-style="normal" class="text-inner-tspan" font-weight="normal"> search,</tspan><tspan font-style="normal" class="text-inner-tspan" font-weight="normal"> and</tspan></tspan><tspan class="text-outer-tspan row" x="0" y="3.2em" dy="1.1em"><tspan font-style="normal" class="text-inner-tspan" font-weight="normal">theme</tspan></tspan></text></g></g></g><g class="node default" id="ga7176d92-b87a-4719-ae8a-936a261727b8-dark-flowchart-hostQ-5" data-look="classic" transform="translate(435.9546813964844, 579.3953247070312)"><polygon points="144.0953140258789,0 288.1906280517578,-144.0953140258789 144.0953140258789,-288.1906280517578 0,-144.0953140258789" class="label-container" transform="translate(-143.5953140258789, 144.0953140258789)"></polygon><g class="label" style="" transform="translate(0, -35.900001525878906)"><rect></rect><g><rect class="background" style="stroke: none"></rect><text y="-10.1" style=""><tspan class="text-outer-tspan row" x="0" y="-0.1em" dy="1.1em"><tspan font-style="normal" class="text-inner-tspan" font-weight="normal">Does</tspan><tspan font-style="normal" class="text-inner-tspan" font-weight="normal"> the</tspan><tspan font-style="normal" class="text-inner-tspan" font-weight="normal"> host</tspan><tspan font-style="normal" class="text-inner-tspan" font-weight="normal"> app</tspan><tspan font-style="normal" class="text-inner-tspan" font-weight="normal"> already</tspan></tspan><tspan class="text-outer-tspan row" x="0" y="1em" dy="1.1em"><tspan font-style="normal" class="text-inner-tspan" font-weight="normal">own</tspan></tspan><tspan class="text-outer-tspan row" x="0" y="2.1em" dy="1.1em"><tspan font-style="normal" class="text-inner-tspan" font-weight="normal">routing,</tspan><tspan font-style="normal" class="text-inner-tspan" font-weight="normal"> layout,</tspan><tspan font-style="normal" class="text-inner-tspan" font-weight="normal"> and</tspan><tspan font-style="normal" class="text-inner-tspan" font-weight="normal"> build</tspan></tspan><tspan class="text-outer-tspan row" x="0" y="3.2em" dy="1.1em"><tspan font-style="normal" class="text-inner-tspan" font-weight="normal">tooling?</tspan></tspan></text></g></g></g><g class="node default" id="ga7176d92-b87a-4719-ae8a-936a261727b8-dark-flowchart-core-7" data-look="classic" transform="translate(563.1460876464844, 856.1906318664551)"><rect class="basic label-container" style="" x="-111.96875" y="-59.70000076293945" width="223.9375" height="119.4000015258789"></rect><g class="label" style="" transform="translate(0, -44.70000076293945)"><rect></rect><g><rect class="background" style="stroke: none"></rect><text y="-10.1" style=""><tspan class="text-outer-tspan row" x="0" y="-0.1em" dy="1.1em"><tspan font-style="normal" class="text-inner-tspan" font-weight="normal">@pagesmith/core</tspan></tspan><tspan class="text-outer-tspan row" x="0" y="1em" dy="1.1em"><tspan font-style="normal" class="text-inner-tspan" font-weight="normal">Headless</tspan><tspan font-style="normal" class="text-inner-tspan" font-weight="normal"> content</tspan><tspan font-style="normal" class="text-inner-tspan" font-weight="normal"> layer</tspan></tspan><tspan class="text-outer-tspan row" x="0" y="2.1em" dy="1.1em"><tspan font-style="normal" class="text-inner-tspan" font-weight="normal">with</tspan></tspan><tspan class="text-outer-tspan row" x="0" y="3.2em" dy="1.1em"><tspan font-style="normal" class="text-inner-tspan" font-weight="normal">schemas,</tspan><tspan font-style="normal" class="text-inner-tspan" font-weight="normal"> loaders,</tspan><tspan font-style="normal" class="text-inner-tspan" font-weight="normal"> and</tspan></tspan><tspan class="text-outer-tspan row" x="0" y="4.300000000000001em" dy="1.1em"><tspan font-style="normal" class="text-inner-tspan" font-weight="normal">markdown</tspan></tspan></text></g></g></g><g class="node default" id="ga7176d92-b87a-4719-ae8a-936a261727b8-dark-flowchart-site-9" data-look="classic" transform="translate(286.3999938964844, 1392.0843887329102)"><rect class="basic label-container" style="" x="-127.6171875" y="-68.5" width="255.234375" height="137"></rect><g class="label" style="" transform="translate(0, -53.5)"><rect></rect><g><rect class="background" style="stroke: none"></rect><text y="-10.1" style=""><tspan class="text-outer-tspan row" x="0" y="-0.1em" dy="1.1em"><tspan font-style="normal" class="text-inner-tspan" font-weight="normal">@pagesmith/site</tspan><tspan font-style="normal" class="text-inner-tspan" font-weight="normal"> +</tspan></tspan><tspan class="text-outer-tspan row" x="0" y="1em" dy="1.1em"><tspan font-style="normal" class="text-inner-tspan" font-weight="normal">@pagesmith/core</tspan></tspan><tspan class="text-outer-tspan row" x="0" y="2.1em" dy="1.1em"><tspan font-style="normal" class="text-inner-tspan" font-weight="normal">Custom</tspan><tspan font-style="normal" class="text-inner-tspan" font-weight="normal"> site</tspan><tspan font-style="normal" class="text-inner-tspan" font-weight="normal"> shell</tspan><tspan font-style="normal" class="text-inner-tspan" font-weight="normal"> with</tspan></tspan><tspan class="text-outer-tspan row" x="0" y="3.2em" dy="1.1em"><tspan font-style="normal" class="text-inner-tspan" font-weight="normal">shared</tspan></tspan><tspan class="text-outer-tspan row" x="0" y="4.300000000000001em" dy="1.1em"><tspan font-style="normal" class="text-inner-tspan" font-weight="normal">JSX,</tspan><tspan font-style="normal" class="text-inner-tspan" font-weight="normal"> CSS/runtime,</tspan><tspan font-style="normal" class="text-inner-tspan" font-weight="normal"> and</tspan><tspan font-style="normal" class="text-inner-tspan" font-weight="normal"> Vite</tspan></tspan><tspan class="text-outer-tspan row" x="0" y="5.4em" dy="1.1em"><tspan font-style="normal" class="text-inner-tspan" font-weight="normal">SSG</tspan></tspan></text></g></g></g><g class="node default" id="ga7176d92-b87a-4719-ae8a-936a261727b8-dark-flowchart-siteQ-11" data-look="classic" transform="translate(563.1460876464844, 1119.7375106811523)"><polygon points="130.84687423706055,0 261.6937484741211,-130.84687423706055 130.84687423706055,-261.6937484741211 0,-130.84687423706055" class="label-container" transform="translate(-130.34687423706055, 130.84687423706055)"></polygon><g class="label" style="" transform="translate(0, -18.299999237060547)"><rect></rect><g><rect class="background" style="stroke: none"></rect><text y="-10.1" style=""><tspan class="text-outer-tspan row" x="0" y="-0.1em" dy="1.1em"><tspan font-style="normal" class="text-inner-tspan" font-weight="normal">Need</tspan><tspan font-style="normal" class="text-inner-tspan" font-weight="normal"> the</tspan><tspan font-style="normal" class="text-inner-tspan" font-weight="normal"> shared</tspan><tspan font-style="normal" class="text-inner-tspan" font-weight="normal"> Pagesmith</tspan></tspan><tspan class="text-outer-tspan row" x="0" y="1em" dy="1.1em"><tspan font-style="normal" class="text-inner-tspan" font-weight="normal">site</tspan><tspan font-style="normal" class="text-inner-tspan" font-weight="normal"> layer</tspan><tspan font-style="normal" class="text-inner-tspan" font-weight="normal"> too?</tspan></tspan></text></g></g></g><g class="node default" id="ga7176d92-b87a-4719-ae8a-936a261727b8-dark-flowchart-coreOnly-15" data-look="classic" transform="translate(585.5093688964844, 1392.0843887329102)"><rect class="basic label-container" style="" x="-121.4921875" y="-24.5" width="242.984375" height="49"></rect><g class="label" style="" transform="translate(0, -9.5)"><rect></rect><g><rect class="background" style="stroke: none"></rect><text y="-10.1" style=""><tspan class="text-outer-tspan row" x="0" y="-0.1em" dy="1.1em"><tspan font-style="normal" class="text-inner-tspan" font-weight="normal">Stay</tspan><tspan font-style="normal" class="text-inner-tspan" font-weight="normal"> on</tspan><tspan font-style="normal" class="text-inner-tspan" font-weight="normal"> @pagesmith/core</tspan></tspan></text></g></g></g></g></g></g><defs><filter id="ga7176d92-b87a-4719-ae8a-936a261727b8-dark-drop-shadow" height="130%" width="130%"><feDropShadow dx="4" dy="4" stdDeviation="0" flood-opacity="0.06" flood-color="#000000"></feDropShadow></filter></defs><defs><filter id="ga7176d92-b87a-4719-ae8a-936a261727b8-dark-drop-shadow-small" height="150%" width="150%"><feDropShadow dx="2" dy="2" stdDeviation="0" flood-opacity="0.06" flood-color="#000000"></feDropShadow></filter></defs><linearGradient id="ga7176d92-b87a-4719-ae8a-936a261727b8-dark-gradient" gradientUnits="objectBoundingBox" x1="0%" y1="0%" x2="100%" y2="0%"><stop offset="0%" stop-color="#555555" stop-opacity="1"></stop><stop offset="100%" stop-color="#555555" stop-opacity="1"></stop></linearGradient></svg>