<svg id="ga7d9cb23-6854-4f84-84c8-9045d3728353-dark" width="100%" xmlns="http://www.w3.org/2000/svg" xmlns:xlink="http://www.w3.org/1999/xlink" class="flowchart" style="max-width: 715.0015869140625px;" viewBox="0 0 715.0015869140625 1468.5843505859375" role="graphics-document document" aria-roledescription="flowchart-v2"><style>#ga7d9cb23-6854-4f84-84c8-9045d3728353-dark{font-family:"trebuchet ms",verdana,arial,sans-serif;font-size:16px;fill:#e5e5e5;}@keyframes edge-animation-frame{from{stroke-dashoffset:0;}}@keyframes dash{to{stroke-dashoffset:0;}}#ga7d9cb23-6854-4f84-84c8-9045d3728353-dark .edge-animation-slow{stroke-dasharray:9,5!important;stroke-dashoffset:900;animation:dash 50s linear infinite;stroke-linecap:round;}#ga7d9cb23-6854-4f84-84c8-9045d3728353-dark .edge-animation-fast{stroke-dasharray:9,5!important;stroke-dashoffset:900;animation:dash 20s linear infinite;stroke-linecap:round;}#ga7d9cb23-6854-4f84-84c8-9045d3728353-dark .error-icon{fill:#252525;}#ga7d9cb23-6854-4f84-84c8-9045d3728353-dark .error-text{fill:#cccccc;stroke:#cccccc;}#ga7d9cb23-6854-4f84-84c8-9045d3728353-dark .edge-thickness-normal{stroke-width:1px;}#ga7d9cb23-6854-4f84-84c8-9045d3728353-dark .edge-thickness-thick{stroke-width:3.5px;}#ga7d9cb23-6854-4f84-84c8-9045d3728353-dark .edge-pattern-solid{stroke-dasharray:0;}#ga7d9cb23-6854-4f84-84c8-9045d3728353-dark .edge-thickness-invisible{stroke-width:0;fill:none;}#ga7d9cb23-6854-4f84-84c8-9045d3728353-dark .edge-pattern-dashed{stroke-dasharray:3;}#ga7d9cb23-6854-4f84-84c8-9045d3728353-dark .edge-pattern-dotted{stroke-dasharray:2;}#ga7d9cb23-6854-4f84-84c8-9045d3728353-dark .marker{fill:#cccccc;stroke:#cccccc;}#ga7d9cb23-6854-4f84-84c8-9045d3728353-dark .marker.cross{stroke:#cccccc;}#ga7d9cb23-6854-4f84-84c8-9045d3728353-dark svg{font-family:"trebuchet ms",verdana,arial,sans-serif;font-size:16px;}#ga7d9cb23-6854-4f84-84c8-9045d3728353-dark p{margin:0;}#ga7d9cb23-6854-4f84-84c8-9045d3728353-dark .label{font-family:"trebuchet ms",verdana,arial,sans-serif;color:#e5e5e5;}#ga7d9cb23-6854-4f84-84c8-9045d3728353-dark .cluster-label text{fill:#e5e5e5;}#ga7d9cb23-6854-4f84-84c8-9045d3728353-dark .cluster-label span{color:#e5e5e5;}#ga7d9cb23-6854-4f84-84c8-9045d3728353-dark .cluster-label span p{background-color:transparent;}#ga7d9cb23-6854-4f84-84c8-9045d3728353-dark .label text,#ga7d9cb23-6854-4f84-84c8-9045d3728353-dark span{fill:#e5e5e5;color:#e5e5e5;}#ga7d9cb23-6854-4f84-84c8-9045d3728353-dark .node rect,#ga7d9cb23-6854-4f84-84c8-9045d3728353-dark .node circle,#ga7d9cb23-6854-4f84-84c8-9045d3728353-dark .node ellipse,#ga7d9cb23-6854-4f84-84c8-9045d3728353-dark .node polygon,#ga7d9cb23-6854-4f84-84c8-9045d3728353-dark .node path{fill:#2d2d2d;stroke:#555555;stroke-width:1px;}#ga7d9cb23-6854-4f84-84c8-9045d3728353-dark .rough-node .label text,#ga7d9cb23-6854-4f84-84c8-9045d3728353-dark .node .label text,#ga7d9cb23-6854-4f84-84c8-9045d3728353-dark .image-shape .label,#ga7d9cb23-6854-4f84-84c8-9045d3728353-dark .icon-shape .label{text-anchor:middle;}#ga7d9cb23-6854-4f84-84c8-9045d3728353-dark .node .katex path{fill:#000;stroke:#000;stroke-width:1px;}#ga7d9cb23-6854-4f84-84c8-9045d3728353-dark .rough-node .label,#ga7d9cb23-6854-4f84-84c8-9045d3728353-dark .node .label,#ga7d9cb23-6854-4f84-84c8-9045d3728353-dark .image-shape .label,#ga7d9cb23-6854-4f84-84c8-9045d3728353-dark .icon-shape .label{text-align:center;}#ga7d9cb23-6854-4f84-84c8-9045d3728353-dark .node.clickable{cursor:pointer;}#ga7d9cb23-6854-4f84-84c8-9045d3728353-dark .root .anchor path{fill:#cccccc!important;stroke-width:0;stroke:#cccccc;}#ga7d9cb23-6854-4f84-84c8-9045d3728353-dark .arrowheadPath{fill:#cccccc;}#ga7d9cb23-6854-4f84-84c8-9045d3728353-dark .edgePath .path{stroke:#cccccc;stroke-width:1px;}#ga7d9cb23-6854-4f84-84c8-9045d3728353-dark .flowchart-link{stroke:#cccccc;fill:none;}#ga7d9cb23-6854-4f84-84c8-9045d3728353-dark .edgeLabel{background-color:#1e1e1e;text-align:center;}#ga7d9cb23-6854-4f84-84c8-9045d3728353-dark .edgeLabel p{background-color:#1e1e1e;}#ga7d9cb23-6854-4f84-84c8-9045d3728353-dark .edgeLabel rect{opacity:0.5;background-color:#1e1e1e;fill:#1e1e1e;}#ga7d9cb23-6854-4f84-84c8-9045d3728353-dark .labelBkg{background-color:rgba(30, 30, 30, 0.5);}#ga7d9cb23-6854-4f84-84c8-9045d3728353-dark .cluster rect{fill:#1e1e1e;stroke:#555555;stroke-width:1px;}#ga7d9cb23-6854-4f84-84c8-9045d3728353-dark .cluster text{fill:#e5e5e5;}#ga7d9cb23-6854-4f84-84c8-9045d3728353-dark .cluster span{color:#e5e5e5;}#ga7d9cb23-6854-4f84-84c8-9045d3728353-dark div.mermaidTooltip{position:absolute;text-align:center;max-width:200px;padding:2px;font-family:"trebuchet ms",verdana,arial,sans-serif;font-size:12px;background:#252525;border:1px solid #555555;border-radius:2px;pointer-events:none;z-index:100;}#ga7d9cb23-6854-4f84-84c8-9045d3728353-dark .flowchartTitleText{text-anchor:middle;font-size:18px;fill:#e5e5e5;}#ga7d9cb23-6854-4f84-84c8-9045d3728353-dark rect.text{fill:none;stroke-width:0;}#ga7d9cb23-6854-4f84-84c8-9045d3728353-dark .icon-shape,#ga7d9cb23-6854-4f84-84c8-9045d3728353-dark .image-shape{background-color:#1e1e1e;text-align:center;}#ga7d9cb23-6854-4f84-84c8-9045d3728353-dark .icon-shape p,#ga7d9cb23-6854-4f84-84c8-9045d3728353-dark .image-shape p{background-color:#1e1e1e;padding:2px;}#ga7d9cb23-6854-4f84-84c8-9045d3728353-dark .icon-shape .label rect,#ga7d9cb23-6854-4f84-84c8-9045d3728353-dark .image-shape .label rect{opacity:0.5;background-color:#1e1e1e;fill:#1e1e1e;}#ga7d9cb23-6854-4f84-84c8-9045d3728353-dark .label-icon{display:inline-block;height:1em;overflow:visible;vertical-align:-0.125em;}#ga7d9cb23-6854-4f84-84c8-9045d3728353-dark .node .label-icon path{fill:currentColor;stroke:revert;stroke-width:revert;}#ga7d9cb23-6854-4f84-84c8-9045d3728353-dark .node .neo-node{stroke:#555555;}#ga7d9cb23-6854-4f84-84c8-9045d3728353-dark [data-look="neo"].node rect,#ga7d9cb23-6854-4f84-84c8-9045d3728353-dark [data-look="neo"].cluster rect,#ga7d9cb23-6854-4f84-84c8-9045d3728353-dark [data-look="neo"].node polygon{stroke:url(#ga7d9cb23-6854-4f84-84c8-9045d3728353-dark-gradient);filter:drop-shadow( 1px 2px 2px rgba(185,185,185,1));}#ga7d9cb23-6854-4f84-84c8-9045d3728353-dark [data-look="neo"].node path{stroke:url(#ga7d9cb23-6854-4f84-84c8-9045d3728353-dark-gradient);stroke-width:1px;}#ga7d9cb23-6854-4f84-84c8-9045d3728353-dark [data-look="neo"].node .outer-path{filter:drop-shadow( 1px 2px 2px rgba(185,185,185,1));}#ga7d9cb23-6854-4f84-84c8-9045d3728353-dark [data-look="neo"].node .neo-line path{stroke:#555555;filter:none;}#ga7d9cb23-6854-4f84-84c8-9045d3728353-dark [data-look="neo"].node circle{stroke:url(#ga7d9cb23-6854-4f84-84c8-9045d3728353-dark-gradient);filter:drop-shadow( 1px 2px 2px rgba(185,185,185,1));}#ga7d9cb23-6854-4f84-84c8-9045d3728353-dark [data-look="neo"].node circle .state-start{fill:#000000;}#ga7d9cb23-6854-4f84-84c8-9045d3728353-dark [data-look="neo"].icon-shape .icon{fill:url(#ga7d9cb23-6854-4f84-84c8-9045d3728353-dark-gradient);filter:drop-shadow( 1px 2px 2px rgba(185,185,185,1));}#ga7d9cb23-6854-4f84-84c8-9045d3728353-dark [data-look="neo"].icon-shape .icon-neo path{stroke:url(#ga7d9cb23-6854-4f84-84c8-9045d3728353-dark-gradient);filter:drop-shadow( 1px 2px 2px rgba(185,185,185,1));}#ga7d9cb23-6854-4f84-84c8-9045d3728353-dark :root{--mermaid-font-family:"trebuchet ms",verdana,arial,sans-serif;}</style><g><marker id="ga7d9cb23-6854-4f84-84c8-9045d3728353-dark_flowchart-v2-pointEnd" class="marker flowchart-v2" viewBox="0 0 10 10" refX="5" refY="5" markerUnits="userSpaceOnUse" markerWidth="8" markerHeight="8" orient="auto"><path d="M 0 0 L 10 5 L 0 10 z" class="arrowMarkerPath" style="stroke-width: 1; stroke-dasharray: 1, 0;"></path></marker><marker id="ga7d9cb23-6854-4f84-84c8-9045d3728353-dark_flowchart-v2-pointStart" class="marker flowchart-v2" viewBox="0 0 10 10" refX="4.5" refY="5" markerUnits="userSpaceOnUse" markerWidth="8" markerHeight="8" orient="auto"><path d="M 0 5 L 10 10 L 10 0 z" class="arrowMarkerPath" style="stroke-width: 1; stroke-dasharray: 1, 0;"></path></marker><marker id="ga7d9cb23-6854-4f84-84c8-9045d3728353-dark_flowchart-v2-pointEnd-margin" class="marker flowchart-v2" viewBox="0 0 11.5 14" refX="11.5" refY="7" markerUnits="userSpaceOnUse" markerWidth="10.5" markerHeight="14" orient="auto"><path d="M 0 0 L 11.5 7 L 0 14 z" class="arrowMarkerPath" style="stroke-width: 0; stroke-dasharray: 1, 0;"></path></marker><marker id="ga7d9cb23-6854-4f84-84c8-9045d3728353-dark_flowchart-v2-pointStart-margin" class="marker flowchart-v2" viewBox="0 0 11.5 14" refX="1" refY="7" markerUnits="userSpaceOnUse" markerWidth="11.5" markerHeight="14" orient="auto"><polygon points="0,7 11.5,14 11.5,0" class="arrowMarkerPath" style="stroke-width: 0; stroke-dasharray: 1, 0;"></polygon></marker><marker id="ga7d9cb23-6854-4f84-84c8-9045d3728353-dark_flowchart-v2-circleEnd" class="marker flowchart-v2" viewBox="0 0 10 10" refX="11" refY="5" markerUnits="userSpaceOnUse" markerWidth="11" markerHeight="11" orient="auto"><circle cx="5" cy="5" r="5" class="arrowMarkerPath" style="stroke-width: 1; stroke-dasharray: 1, 0;"></circle></marker><marker id="ga7d9cb23-6854-4f84-84c8-9045d3728353-dark_flowchart-v2-circleStart" class="marker flowchart-v2" viewBox="0 0 10 10" refX="-1" refY="5" markerUnits="userSpaceOnUse" markerWidth="11" markerHeight="11" orient="auto"><circle cx="5" cy="5" r="5" class="arrowMarkerPath" style="stroke-width: 1; stroke-dasharray: 1, 0;"></circle></marker><marker id="ga7d9cb23-6854-4f84-84c8-9045d3728353-dark_flowchart-v2-circleEnd-margin" class="marker flowchart-v2" viewBox="0 0 10 10" refY="5" refX="12.25" markerUnits="userSpaceOnUse" markerWidth="14" markerHeight="14" orient="auto"><circle cx="5" cy="5" r="5" class="arrowMarkerPath" style="stroke-width: 0; stroke-dasharray: 1, 0;"></circle></marker><marker id="ga7d9cb23-6854-4f84-84c8-9045d3728353-dark_flowchart-v2-circleStart-margin" class="marker flowchart-v2" viewBox="0 0 10 10" refX="-2" refY="5" markerUnits="userSpaceOnUse" markerWidth="14" markerHeight="14" orient="auto"><circle cx="5" cy="5" r="5" class="arrowMarkerPath" style="stroke-width: 0; stroke-dasharray: 1, 0;"></circle></marker><marker id="ga7d9cb23-6854-4f84-84c8-9045d3728353-dark_flowchart-v2-crossEnd" class="marker cross flowchart-v2" viewBox="0 0 11 11" refX="12" refY="5.2" markerUnits="userSpaceOnUse" markerWidth="11" markerHeight="11" orient="auto"><path d="M 1,1 l 9,9 M 10,1 l -9,9" class="arrowMarkerPath" style="stroke-width: 2; stroke-dasharray: 1, 0;"></path></marker><marker id="ga7d9cb23-6854-4f84-84c8-9045d3728353-dark_flowchart-v2-crossStart" class="marker cross flowchart-v2" viewBox="0 0 11 11" refX="-1" refY="5.2" markerUnits="userSpaceOnUse" markerWidth="11" markerHeight="11" orient="auto"><path d="M 1,1 l 9,9 M 10,1 l -9,9" class="arrowMarkerPath" style="stroke-width: 2; stroke-dasharray: 1, 0;"></path></marker><marker id="ga7d9cb23-6854-4f84-84c8-9045d3728353-dark_flowchart-v2-crossEnd-margin" class="marker cross flowchart-v2" viewBox="0 0 15 15" refX="17.7" refY="7.5" markerUnits="userSpaceOnUse" markerWidth="12" markerHeight="12" orient="auto"><path d="M 1,1 L 14,14 M 1,14 L 14,1" class="arrowMarkerPath" style="stroke-width: 2.5;"></path></marker><marker id="ga7d9cb23-6854-4f84-84c8-9045d3728353-dark_flowchart-v2-crossStart-margin" class="marker cross flowchart-v2" viewBox="0 0 15 15" refX="-3.5" refY="7.5" markerUnits="userSpaceOnUse" markerWidth="12" markerHeight="12" orient="auto"><path d="M 1,1 L 14,14 M 1,14 L 14,1" class="arrowMarkerPath" style="stroke-width: 2.5; stroke-dasharray: 1, 0;"></path></marker><g class="root"><g class="clusters"></g><g class="edgePaths"><path d="M280.942,42.5L280.859,46.583C280.776,50.667,280.609,58.833,280.526,66.417C280.442,74,280.442,81,280.442,84.5L280.442,88" id="ga7d9cb23-6854-4f84-84c8-9045d3728353-dark-L_start_docsQ_0" class="edge-thickness-normal edge-pattern-solid edge-thickness-normal edge-pattern-solid flowchart-link" style=";" data-edge="true" data-et="edge" data-id="L_start_docsQ_0" data-points="W3sieCI6MjgwLjk0MjE4NDQ0ODI0MjIsInkiOjQyLjV9LHsieCI6MjgwLjQ0MjE4NDQ0ODI0MjIsInkiOjY3fSx7IngiOjI4MC40NDIxODQ0NDgyNDIyLCJ5Ijo5MS45OTk5OTk5OTk5OTk5N31d" data-look="classic" marker-end="url(#ga7d9cb23-6854-4f84-84c8-9045d3728353-dark_flowchart-v2-pointEnd)"></path><path d="M216.2,298.058L200.989,314.849C185.777,331.639,155.353,365.219,140.141,402.959C124.93,440.698,124.93,482.597,124.93,503.546L124.93,524.495" id="ga7d9cb23-6854-4f84-84c8-9045d3728353-dark-L_docsQ_docs_0" class="edge-thickness-normal edge-pattern-solid edge-thickness-normal edge-pattern-solid flowchart-link" style=";" data-edge="true" data-et="edge" data-id="L_docsQ_docs_0" data-points="W3sieCI6MjE2LjIwMDM2Mjc0MTI1MTMsInkiOjI5OC4wNTgxOTY2MDM1NTZ9LHsieCI6MTI0LjkyOTY4NzUsInkiOjM5OC44MDAwMTgzMTA1NDY5fSx7IngiOjEyNC45Mjk2ODc1LCJ5Ijo1MjguNDk1MzIzMTgxMTUyM31d" data-look="classic" marker-end="url(#ga7d9cb23-6854-4f84-84c8-9045d3728353-dark_flowchart-v2-pointEnd)"></path><path d="M344.684,298.058L359.896,314.849C375.108,331.639,405.531,365.219,420.743,387.426C435.955,409.633,435.955,420.467,435.955,425.883L435.955,431.3" id="ga7d9cb23-6854-4f84-84c8-9045d3728353-dark-L_docsQ_hostQ_0" class="edge-thickness-normal edge-pattern-solid edge-thickness-normal edge-pattern-solid flowchart-link" style=";" data-edge="true" data-et="edge" data-id="L_docsQ_hostQ_0" data-points="W3sieCI6MzQ0LjY4NDAwNjE1NTIzMzEsInkiOjI5OC4wNTgxOTY2MDM1NTZ9LHsieCI6NDM1Ljk1NDY4MTM5NjQ4NDQsInkiOjM5OC44MDAwMTgzMTA1NDY5fSx7IngiOjQzNS45NTQ2ODEzOTY0ODQzLCJ5Ijo0MzUuMzAwMDE4MzEwNTQ2OH1d" data-look="classic" marker-end="url(#ga7d9cb23-6854-4f84-84c8-9045d3728353-dark_flowchart-v2-pointEnd)"></path><path d="M495.501,663.944L506.776,679.952C518.05,695.959,540.598,727.975,551.872,749.4C563.146,770.824,563.146,781.657,563.146,787.074L563.146,792.491" id="ga7d9cb23-6854-4f84-84c8-9045d3728353-dark-L_hostQ_core_0" class="edge-thickness-normal edge-pattern-solid edge-thickness-normal edge-pattern-solid flowchart-link" style=";" data-edge="true" data-et="edge" data-id="L_hostQ_core_0" data-points="W3sieCI6NDk1LjUwMTM4NjYzNTk3OTc3LCJ5Ijo2NjMuOTQzOTI1ODY0MDIwMn0seyJ4Ijo1NjMuMTQ2MDg3NjQ2NDg0NCwieSI6NzU5Ljk5MDYzMTEwMzUxNTZ9LHsieCI6NTYzLjE0NjA4NzY0NjQ4NDQsInkiOjc5Ni40OTA2MzExMDM1MTU2fV0=" data-look="classic" marker-end="url(#ga7d9cb23-6854-4f84-84c8-9045d3728353-dark_flowchart-v2-pointEnd)"></path><path d="M366.894,654.43L350.701,672.023C334.508,689.617,302.122,724.804,285.929,758.43C269.736,792.057,269.736,824.124,269.736,856.191C269.736,888.257,269.736,920.324,269.736,964.248C269.736,1008.173,269.736,1063.955,269.736,1119.738C269.736,1175.52,269.736,1231.302,270.597,1264.618C271.458,1297.934,273.18,1308.784,274.041,1314.209L274.902,1319.634" id="ga7d9cb23-6854-4f84-84c8-9045d3728353-dark-L_hostQ_site_0" class="edge-thickness-normal edge-pattern-solid edge-thickness-normal edge-pattern-solid flowchart-link" style=";" data-edge="true" data-et="edge" data-id="L_hostQ_site_0" data-points="W3sieCI6MzY2Ljg5MzYzNDc5NzE4MjIsInkiOjY1NC40Mjk1ODQ1MDQyMTM0fSx7IngiOjI2OS43MzU5MzEzOTY0ODQ0LCJ5Ijo3NTkuOTkwNjMxMTAzNTE1Nn0seyJ4IjoyNjkuNzM1OTMxMzk2NDg0NCwieSI6ODU2LjE5MDYzMTg2NjQ1NTF9LHsieCI6MjY5LjczNTkzMTM5NjQ4NDQsInkiOjk1Mi4zOTA2MzI2MjkzOTQ1fSx7IngiOjI2OS43MzU5MzEzOTY0ODQ0LCJ5IjoxMTE5LjczNzUxMDY4MTE1MjN9LHsieCI6MjY5LjczNTkzMTM5NjQ4NDQsInkiOjEyODcuMDg0Mzg4NzMyOTEwMn0seyJ4IjoyNzUuNTI4Njc2OTMyMTk4NjYsInkiOjEzMjMuNTg0Mzg4NzMyOTEwMn1d" data-look="classic" marker-end="url(#ga7d9cb23-6854-4f84-84c8-9045d3728353-dark_flowchart-v2-pointEnd)"></path><path d="M563.146,915.891L563.146,921.974C563.146,928.057,563.146,940.224,563.146,951.724C563.146,963.224,563.146,974.057,563.146,979.474L563.146,984.891" id="ga7d9cb23-6854-4f84-84c8-9045d3728353-dark-L_core_siteQ_0" class="edge-thickness-normal edge-pattern-solid edge-thickness-normal edge-pattern-solid flowchart-link" style=";" data-edge="true" data-et="edge" data-id="L_core_siteQ_0" data-points="W3sieCI6NTYzLjE0NjA4NzY0NjQ4NDQsInkiOjkxNS44OTA2MzI2MjkzOTQ1fSx7IngiOjU2My4xNDYwODc2NDY0ODQ0LCJ5Ijo5NTIuMzkwNjMyNjI5Mzk0NX0seyJ4Ijo1NjMuMTQ2MDg3NjQ2NDg0NCwieSI6OTg4Ljg5MDYzMjYyOTM5NDR9XQ==" data-look="classic" marker-end="url(#ga7d9cb23-6854-4f84-84c8-9045d3728353-dark_flowchart-v2-pointEnd)"></path><path d="M501.396,1188.834L486.762,1205.209C472.128,1221.584,442.86,1254.334,421.371,1276.368C399.882,1298.402,386.172,1309.72,379.317,1315.379L372.462,1321.038" id="ga7d9cb23-6854-4f84-84c8-9045d3728353-dark-L_siteQ_site_0" class="edge-thickness-normal edge-pattern-solid edge-thickness-normal edge-pattern-solid flowchart-link" style=";" data-edge="true" data-et="edge" data-id="L_siteQ_site_0" data-points="W3sieCI6NTAxLjM5NTc5NjQzNzU3MiwieSI6MTE4OC44MzQwOTc1MjM5OTh9LHsieCI6NDEzLjU5MTQwMDE0NjQ4NDQsInkiOjEyODcuMDg0Mzg4NzMyOTEwMn0seyJ4IjozNjkuMzc3MjQ0NjQwNTMyLCJ5IjoxMzIzLjU4NDM4ODczMjkxMDJ9XQ==" data-look="classic" marker-end="url(#ga7d9cb23-6854-4f84-84c8-9045d3728353-dark_flowchart-v2-pointEnd)"></path><path d="M578.57,1235.16L579.727,1243.814C580.883,1252.468,583.196,1269.776,584.353,1291.18C585.509,1312.584,585.509,1338.084,585.509,1350.834L585.509,1363.584" id="ga7d9cb23-6854-4f84-84c8-9045d3728353-dark-L_siteQ_coreOnly_0" class="edge-thickness-normal edge-pattern-solid edge-thickness-normal edge-pattern-solid flowchart-link" style=";" data-edge="true" data-et="edge" data-id="L_siteQ_coreOnly_0" data-points="W3sieCI6NTc4LjU3MDQ4ODQ1NTIwMTcsInkiOjEyMzUuMTU5OTg3OTI0MTkzfSx7IngiOjU4NS41MDkzNjg4OTY0ODQ0LCJ5IjoxMjg3LjA4NDM4ODczMjkxMDJ9LHsieCI6NTg1LjUwOTM2ODg5NjQ4NDQsInkiOjEzNjcuNTg0Mzg4NzMyOTEwMn1d" data-look="classic" marker-end="url(#ga7d9cb23-6854-4f84-84c8-9045d3728353-dark_flowchart-v2-pointEnd)"></path></g><g class="edgeLabels"><g class="edgeLabel"><g class="label" data-id="L_start_docsQ_0" transform="translate(0, 0)"><text y="-10.1" text-anchor="middle"><tspan class="text-outer-tspan row" x="0" y="-0.1em" dy="1.1em" text-anchor="middle"></tspan></text></g></g><g><rect class="background" style="stroke: none"></rect></g><g class="edgeLabel" transform="translate(124.9296875, 398.8000183105469)"><g class="label" data-id="L_docsQ_docs_0" transform="translate(0, -10.5)"><g><rect class="background" style="" x="-13.328125" y="-1" width="26.65625" height="23"></rect><text y="-10.1" text-anchor="middle" style=""><tspan class="text-outer-tspan row" x="0" y="-0.1em" dy="1.1em" text-anchor="middle"><tspan font-style="normal" class="text-inner-tspan" font-weight="normal">Yes</tspan></tspan></text></g></g></g><g class="edgeLabel" transform="translate(435.9546813964844, 398.8000183105469)"><g class="label" data-id="L_docsQ_hostQ_0" transform="translate(0, -10.5)"><g><rect class="background" style="" x="-11.3984375" y="-1" width="22.796875" height="23"></rect><text y="-10.1" text-anchor="middle" style=""><tspan class="text-outer-tspan row" x="0" y="-0.1em" dy="1.1em" text-anchor="middle"><tspan font-style="normal" class="text-inner-tspan" font-weight="normal">No</tspan></tspan></text></g></g></g><g class="edgeLabel" transform="translate(563.1460876464844, 759.9906311035156)"><g class="label" data-id="L_hostQ_core_0" transform="translate(0, -10.5)"><g><rect class="background" style="" x="-13.328125" y="-1" width="26.65625" height="23"></rect><text y="-10.1" text-anchor="middle" style=""><tspan class="text-outer-tspan row" x="0" y="-0.1em" dy="1.1em" text-anchor="middle"><tspan font-style="normal" class="text-inner-tspan" font-weight="normal">Yes</tspan></tspan></text></g></g></g><g class="edgeLabel" transform="translate(269.7359313964844, 952.3906326293945)"><g class="label" data-id="L_hostQ_site_0" transform="translate(0, -10.5)"><g><rect class="background" style="" x="-11.3984375" y="-1" width="22.796875" height="23"></rect><text y="-10.1" text-anchor="middle" style=""><tspan class="text-outer-tspan row" x="0" y="-0.1em" dy="1.1em" text-anchor="middle"><tspan font-style="normal" class="text-inner-tspan" font-weight="normal">No</tspan></tspan></text></g></g></g><g class="edgeLabel"><g class="label" data-id="L_core_siteQ_0" transform="translate(0, 0)"><text y="-10.1" text-anchor="middle"><tspan class="text-outer-tspan row" x="0" y="-0.1em" dy="1.1em" text-anchor="middle"></tspan></text></g></g><g><rect class="background" style="stroke: none"></rect></g><g class="edgeLabel" transform="translate(438.39126, 1259.33414)"><g class="label" data-id="L_siteQ_site_0" transform="translate(0, -10.5)"><g><rect class="background" style="" x="-13.328125" y="-1" width="26.65625" height="23"></rect><text y="-10.1" text-anchor="middle" style=""><tspan class="text-outer-tspan row" x="0" y="-0.1em" dy="1.1em" text-anchor="middle"><tspan font-style="normal" class="text-inner-tspan" font-weight="normal">Yes</tspan></tspan></text></g></g></g><g class="edgeLabel" transform="translate(585.5093688964844, 1287.0843887329102)"><g class="label" data-id="L_siteQ_coreOnly_0" transform="translate(0, -10.5)"><g><rect class="background" style="" x="-11.3984375" y="-1" width="22.796875" height="23"></rect><text y="-10.1" text-anchor="middle" style=""><tspan class="text-outer-tspan row" x="0" y="-0.1em" dy="1.1em" text-anchor="middle"><tspan font-style="normal" class="text-inner-tspan" font-weight="normal">No</tspan></tspan></text></g></g></g></g><g class="nodes"><g class="node default" id="ga7d9cb23-6854-4f84-84c8-9045d3728353-dark-flowchart-start-0" data-look="classic" transform="translate(280.4421844482422, 25)"><g class="basic label-container outer-path"><path d="M-30.875 -17 C-13.90205140720526 -17, 3.07089718558948 -17, 30.875 -17 C30.875 -17, 30.875 -17, 30.875 -17 C31.228900280464597 -16.988651106830606, 31.582800560929194 -16.977302213661215, 31.96419373967212 -16.965071676755716 C32.232517377166744 -16.939186818152997, 32.50084101466137 -16.913301959550278, 33.0489117486366 -16.860430234995185 C33.2930356512467 -16.820962175630324, 33.53715955385679 -16.781494116265463, 34.124696687923326 -16.686505668848113 C34.35814793322894 -16.63322194551885, 34.59159917853456 -16.57993822218959, 35.18712792646162 -16.4440126716635 C35.57318350254257 -16.329433403129748, 35.95923907862351 -16.214854134595992, 36.23183970640155 -16.133947699181366 C36.62735430201531 -15.988394671898659, 37.02286889762907 -15.842841644615952, 37.25453908294936 -15.757584874882369 C37.5503077224872 -15.626656871823931, 37.846076362025045 -15.495728868765491, 38.25102356499849 -15.316470754341125 C38.480493909848825 -15.196756222415475, 38.709964254699166 -15.077041690489825, 39.21719838406694 -14.812417970097622 C39.46879650082253 -14.659897713165734, 39.720394617578116 -14.507377456233844, 40.149093320579325 -14.247497783161291 C40.409568694383715 -14.065801438192546, 40.67004406818811 -13.8841050932238, 41.042879018350675 -13.624031571755262 C41.26588134385782 -13.446193151504424, 41.48888366936496 -13.268354731253584, 41.8948827202324 -12.944581292275288 C42.08481775696256 -12.77208731732265, 42.27475279369271 -12.599593342370012, 42.70160336025927 -12.21193895166137 C42.922672027979615 -11.983667402164947, 43.14374069569996 -11.755395852668524, 43.45972595028036 -11.42911513444239 C43.7151863547765 -11.12903680721242, 43.97064675927264 -10.82895847998245, 44.16613520195651 -10.59932663159847 C44.30387755109592 -10.414764432337812, 44.44161990023534 -10.230202233077152, 44.81792832814825 -9.725983222076888 C44.95278842033327 -9.51880190547536, 45.08764851251829 -9.311620588873831, 45.41242697109088 -8.812673661278927 C45.585567958223734 -8.505244306198456, 45.75870894535658 -8.197814951117985, 45.947188208341004 -7.863150934094199 C46.13086770532955 -7.481736528485843, 46.31454720231809 -7.100322122877486, 46.42001459126881 -6.881316833080699 C46.55723875574227 -6.542370493782513, 46.694462920215734 -6.203424154484328, 46.828963174845924 -5.871205925162238 C46.95923620813881 -5.47884430507317, 47.089509241431706 -5.086482684984102, 47.172353501623235 -4.836968972727556 C47.25166976246485 -4.534501694253584, 47.33098602330646 -4.232034415779612, 47.448774507091 -3.7828558772573464 C47.52771005339136 -3.3775385300386054, 47.606645599691724 -2.972221182819864, 47.65709031804565 -2.713198215567453 C47.69124601125006 -2.448293403878576, 47.72540170445446 -2.183388592189699, 47.796444920136366 -1.632391440430593 C47.81810030789555 -1.2950912961669472, 47.83975569565474 -0.9577911519033016, 47.8662656754117 -0.5448768187181379 C47.8662656754117 -0.13927785421824318, 47.8662656754117 0.2663211102816515, 47.8662656754117 0.5448768187181336 C47.839951227715005 0.954745582233957, 47.813636780018314 1.3646143457497804, 47.796444920136366 1.6323914404305815 C47.74527050623433 2.0292900891238, 47.69409609233228 2.4261887378170184, 47.657090318045654 2.7131982155674415 C47.59464499075202 3.033841773395655, 47.532199663458385 3.354485331223868, 47.448774507091 3.782855877257343 C47.38527677281346 4.025000258149727, 47.32177903853592 4.267144639042111, 47.172353501623235 4.836968972727545 C47.09461914097594 5.071092481708781, 47.016884780328645 5.305215990690016, 46.828963174845924 5.871205925162227 C46.6968177639262 6.197607644991659, 46.56467235300648 6.524009364821092, 46.42001459126881 6.881316833080694 C46.292171667590345 7.146785399499391, 46.16432874391188 7.4122539659180875, 45.947188208341004 7.863150934094196 C45.78230169946326 8.155923627176163, 45.617415190585525 8.44869632025813, 45.41242697109089 8.812673661278923 C45.23759332461604 9.0812650916719, 45.0627596781412 9.349856522064877, 44.817928328148255 9.725983222076879 C44.61344066833353 9.999978057019561, 44.40895300851881 10.273972891962245, 44.16613520195651 10.599326631598467 C43.91933229783084 10.889235366267556, 43.672529393705176 11.179144100936645, 43.45972595028037 11.42911513444238 C43.222850631802345 11.673708348596273, 42.98597531332431 11.918301562750164, 42.70160336025927 12.211938951661365 C42.50019687056902 12.39485099667435, 42.29879038087877 12.577763041687337, 41.89488272023242 12.944581292275275 C41.58503139320149 13.191679480092342, 41.275180066170556 13.438777667909406, 41.042879018350675 13.62403157175526 C40.82182404440969 13.778229952260903, 40.6007690704687 13.932428332766547, 40.14909332057934 14.247497783161286 C39.84102078982076 14.434253161742282, 39.53294825906219 14.621008540323277, 39.21719838406695 14.81241797009762 C38.91882739244169 14.968077925312771, 38.620456400816444 15.123737880527923, 38.25102356499849 15.316470754341124 C37.86661095922624 15.486638811721702, 37.482198353453995 15.656806869102283, 37.254539082949364 15.757584874882367 C37.031083449805216 15.839818613480643, 36.80762781666106 15.92205235207892, 36.23183970640156 16.133947699181363 C36.02169762898264 16.196316764701024, 35.811555551563735 16.258685830220685, 35.18712792646164 16.444012671663497 C34.90528209545907 16.508342143373902, 34.62343626445651 16.572671615084307, 34.12469668792333 16.68650566884811 C33.887750197855645 16.72481333981478, 33.65080370778796 16.76312101078145, 33.04891174863661 16.86043023499518 C32.794705554337206 16.884953200831568, 32.54049936003779 16.909476166667954, 31.96419373967212 16.965071676755716 C31.626421186466146 16.97590338510264, 31.28864863326017 16.986735093449568, 30.875000000000004 17 C30.875000000000004 17, 30.875 17, 30.875 17 C11.045810978644504 17, -8.783378042710993 17, -30.874999999999996 17 C-31.301014900799665 16.986338531319056, -31.727029801599333 16.97267706263811, -31.964193739672112 16.965071676755716 C-32.28133698548606 16.934477249252602, -32.59848023130001 16.903882821749487, -33.048911748636606 16.86043023499518 C-33.42942125394578 16.79891240907208, -33.80993075925496 16.737394583148976, -34.124696687923326 16.68650566884811 C-34.34960989256468 16.635170697584545, -34.57452309720603 16.58383572632098, -35.18712792646162 16.4440126716635 C-35.59767996940779 16.32216298034873, -36.00823201235396 16.200313289033954, -36.231839706401544 16.13394769918137 C-36.45395486908126 16.052207266105178, -36.67607003176097 15.970466833028988, -37.254539082949364 15.757584874882369 C-37.643294731200506 15.58549428142816, -38.03205037945165 15.41340368797395, -38.25102356499848 15.316470754341127 C-38.550459270351446 15.16025533865621, -38.84989497570441 15.004039922971293, -39.21719838406693 14.812417970097624 C-39.576038376869995 14.594887057682538, -39.934878369673065 14.377356145267454, -40.14909332057932 14.247497783161299 C-40.46839119544456 14.024769407837534, -40.787689070309796 13.80204103251377, -41.04287901835067 13.624031571755264 C-41.31573921882627 13.406432822990853, -41.58859941930188 13.188834074226442, -41.8948827202324 12.94458129227529 C-42.123537887829684 12.736922718947648, -42.352193055426966 12.529264145620006, -42.70160336025926 12.211938951661377 C-42.995746507182155 11.908212002862012, -43.28988965410504 11.604485054062645, -43.459725950280365 11.429115134442386 C-43.72636577986171 11.115904818380027, -43.99300560944305 10.802694502317669, -44.16613520195651 10.599326631598473 C-44.37819651709834 10.315183788491662, -44.59025783224017 10.031040945384852, -44.81792832814825 9.72598322207689 C-44.97730560093632 9.48113693228428, -45.13668287372438 9.236290642491669, -45.41242697109088 8.812673661278936 C-45.53321460083186 8.598202993600024, -45.654002230572836 8.383732325921114, -45.947188208341004 7.863150934094201 C-46.12127592653557 7.501654062382735, -46.29536364473013 7.140157190671268, -46.42001459126881 6.881316833080701 C-46.512693981962435 6.652396946233328, -46.60537337265606 6.423477059385953, -46.828963174845924 5.87120592516224 C-46.94143277518855 5.532465408527532, -47.05390237553118 5.193724891892824, -47.172353501623235 4.8369689727275516 C-47.26325381150794 4.490326694693666, -47.35415412139264 4.143684416659779, -47.448774507091 3.782855877257349 C-47.501543770890734 3.511896860433567, -47.554313034690466 3.2409378436097853, -47.65709031804565 2.713198215567455 C-47.687368564995666 2.4783661113392768, -47.71764681194568 2.2435340071110983, -47.796444920136366 1.6323914404306026 C-47.81424854211608 1.3550856572715813, -47.83205216409579 1.0777798741125597, -47.8662656754117 0.54487681871814 C-47.8662656754117 0.2441270863758251, -47.8662656754117 -0.056622645966489804, -47.8662656754117 -0.5448768187181317 C-47.8385099405622 -0.9771947930250122, -47.81075420571269 -1.409512767331893, -47.796444920136366 -1.6323914404305793 C-47.75863997278129 -1.925599146685319, -47.72083502542621 -2.218806852940059, -47.657090318045654 -2.713198215567447 C-47.5965220339475 -3.024203553300099, -47.53595374984934 -3.3352088910327513, -47.448774507091 -3.782855877257341 C-47.38713776366153 -4.017903493487526, -47.325501020232046 -4.252951109717711, -47.172353501623235 -4.836968972727544 C-47.067376218847215 -5.153143822590319, -46.962398936071196 -5.469318672453094, -46.82896317484593 -5.871205925162218 C-46.71159199545385 -6.161115007478033, -46.59422081606177 -6.451024089793849, -46.42001459126881 -6.881316833080692 C-46.26434303544646 -7.204572149583506, -46.108671479624114 -7.527827466086319, -45.947188208341004 -7.863150934094194 C-45.82170922430624 -8.08595157637285, -45.69623024027148 -8.308752218651504, -45.41242697109088 -8.812673661278929 C-45.282640074825 -9.012061186604804, -45.15285317855912 -9.211448711930679, -44.81792832814825 -9.725983222076884 C-44.68593708696049 -9.902839460619033, -44.55394584577274 -10.07969569916118, -44.16613520195651 -10.599326631598467 C-43.96214948102449 -10.838939866521557, -43.758163760092465 -11.078553101444648, -43.45972595028037 -11.42911513444238 C-43.3033647490403 -11.590570912216124, -43.14700354780022 -11.75202668998987, -42.70160336025928 -12.21193895166136 C-42.43448877482846 -12.454525350684985, -42.16737418939764 -12.697111749708611, -41.89488272023242 -12.944581292275274 C-41.65866844281783 -13.132955892587496, -41.42245416540323 -13.321330492899717, -41.042879018350675 -13.624031571755259 C-40.84643196519339 -13.761064531981912, -40.6499849120361 -13.898097492208565, -40.14909332057934 -14.247497783161284 C-39.906198091020066 -14.394742298730923, -39.6633028614608 -14.541986814300563, -39.21719838406695 -14.812417970097618 C-38.95800181340987 -14.947640654986087, -38.6988052427528 -15.082863339874553, -38.25102356499849 -15.316470754341124 C-37.859429495000434 -15.489817832903901, -37.467835425002384 -15.663164911466678, -37.25453908294937 -15.757584874882365 C-37.039351421933894 -15.836775923308993, -36.82416376091842 -15.915966971735623, -36.231839706401566 -16.133947699181363 C-35.95964561696493 -16.214733476150226, -35.687451527528296 -16.295519253119085, -35.18712792646164 -16.444012671663494 C-34.83585373613668 -16.52418871332685, -34.484579545811705 -16.60436475499021, -34.12469668792333 -16.68650566884811 C-33.900474835290446 -16.722756119115356, -33.67625298265756 -16.759006569382606, -33.04891174863661 -16.86043023499518 C-32.70720115359957 -16.893394645131288, -32.36549055856253 -16.926359055267394, -31.96419373967212 -16.965071676755716 C-31.60296135568463 -16.976655696214014, -31.241728971697142 -16.98823971567231, -30.875000000000004 -17 C-30.875000000000004 -17, -30.875 -17, -30.875 -17" stroke="none" stroke-width="0" fill="#2d2d2d" style=""></path><path d="M-30.875 -17 C-7.25709697530953 -17, 16.36080604938094 -17, 30.875 -17 M-30.875 -17 C-14.896765896879225 -17, 1.0814682062415493 -17, 30.875 -17 M30.875 -17 C30.875 -17, 30.875 -17, 30.875 -17 M30.875 -17 C30.875 -17, 30.875 -17, 30.875 -17 M30.875 -17 C31.244517193671847 -16.98815030282053, 31.614034387343693 -16.976300605641057, 31.96419373967212 -16.965071676755716 M30.875 -17 C31.30223459217279 -16.986299418190704, 31.729469184345582 -16.972598836381408, 31.96419373967212 -16.965071676755716 M31.96419373967212 -16.965071676755716 C32.250103574581715 -16.937490298838874, 32.53601340949132 -16.909908920922028, 33.0489117486366 -16.860430234995185 M31.96419373967212 -16.965071676755716 C32.39251377747966 -16.923752157838635, 32.8208338152872 -16.882432638921554, 33.0489117486366 -16.860430234995185 M33.0489117486366 -16.860430234995185 C33.41812127000887 -16.800739302842317, 33.78733079138114 -16.74104837068945, 34.124696687923326 -16.686505668848113 M33.0489117486366 -16.860430234995185 C33.32601857978137 -16.81562975153127, 33.60312541092615 -16.770829268067352, 34.124696687923326 -16.686505668848113 M34.124696687923326 -16.686505668848113 C34.416647692044904 -16.619869757315712, 34.708598696166476 -16.55323384578331, 35.18712792646162 -16.4440126716635 M34.124696687923326 -16.686505668848113 C34.52426388415014 -16.595307063728974, 34.92383108037695 -16.504108458609835, 35.18712792646162 -16.4440126716635 M35.18712792646162 -16.4440126716635 C35.56007965061412 -16.33332255759859, 35.93303137476662 -16.222632443533673, 36.23183970640155 -16.133947699181366 M35.18712792646162 -16.4440126716635 C35.515584555534566 -16.34652846825868, 35.844041184607505 -16.249044264853858, 36.23183970640155 -16.133947699181366 M36.23183970640155 -16.133947699181366 C36.60457334637142 -15.996778274160459, 36.977306986341276 -15.859608849139551, 37.25453908294936 -15.757584874882369 M36.23183970640155 -16.133947699181366 C36.62777939050763 -15.988238235404012, 37.0237190746137 -15.84252877162666, 37.25453908294936 -15.757584874882369 M37.25453908294936 -15.757584874882369 C37.59918624153355 -15.605019801371862, 37.94383340011775 -15.452454727861355, 38.25102356499849 -15.316470754341125 M37.25453908294936 -15.757584874882369 C37.58483297329957 -15.611373567444472, 37.91512686364978 -15.465162260006576, 38.25102356499849 -15.316470754341125 M38.25102356499849 -15.316470754341125 C38.498623395143476 -15.187298081549747, 38.74622322528846 -15.058125408758368, 39.21719838406694 -14.812417970097622 M38.25102356499849 -15.316470754341125 C38.625097448786775 -15.121316648774535, 38.99917133257506 -14.926162543207944, 39.21719838406694 -14.812417970097622 M39.21719838406694 -14.812417970097622 C39.530833985847615 -14.622290225170797, 39.84446958762828 -14.432162480243973, 40.149093320579325 -14.247497783161291 M39.21719838406694 -14.812417970097622 C39.52663637861813 -14.62483483934119, 39.83607437316932 -14.437251708584757, 40.149093320579325 -14.247497783161291 M40.149093320579325 -14.247497783161291 C40.34273102422959 -14.112424503535953, 40.53636872787987 -13.977351223910615, 41.042879018350675 -13.624031571755262 M40.149093320579325 -14.247497783161291 C40.39234493847716 -14.077815984708586, 40.63559655637499 -13.90813418625588, 41.042879018350675 -13.624031571755262 M41.042879018350675 -13.624031571755262 C41.24310728166458 -13.464354860060286, 41.44333554497848 -13.30467814836531, 41.8948827202324 -12.944581292275288 M41.042879018350675 -13.624031571755262 C41.26136313231337 -13.44979630497646, 41.47984724627607 -13.275561038197656, 41.8948827202324 -12.944581292275288 M41.8948827202324 -12.944581292275288 C42.09203841898201 -12.765529703124836, 42.289194117731604 -12.586478113974383, 42.70160336025927 -12.21193895166137 M41.8948827202324 -12.944581292275288 C42.06500071062055 -12.790084634480145, 42.2351187010087 -12.635587976685004, 42.70160336025927 -12.21193895166137 M42.70160336025927 -12.21193895166137 C42.98419140155243 -11.920143598116516, 43.26677944284558 -11.628348244571663, 43.45972595028036 -11.42911513444239 M42.70160336025927 -12.21193895166137 C42.96243018030064 -11.94261384568847, 43.223257000342024 -11.673288739715572, 43.45972595028036 -11.42911513444239 M43.45972595028036 -11.42911513444239 C43.64979707683273 -11.205846773840488, 43.8398682033851 -10.982578413238585, 44.16613520195651 -10.59932663159847 M43.45972595028036 -11.42911513444239 C43.64031174478649 -11.21698878459269, 43.82089753929261 -11.004862434742993, 44.16613520195651 -10.59932663159847 M44.16613520195651 -10.59932663159847 C44.34415216912924 -10.360800113266347, 44.522169136301976 -10.122273594934224, 44.81792832814825 -9.725983222076888 M44.16613520195651 -10.59932663159847 C44.39638696421789 -10.290810246535283, 44.62663872647928 -9.982293861472096, 44.81792832814825 -9.725983222076888 M44.81792832814825 -9.725983222076888 C44.96948386031233 -9.493153226314165, 45.121039392476405 -9.260323230551444, 45.41242697109088 -8.812673661278927 M44.81792832814825 -9.725983222076888 C45.043823977351465 -9.378946843425528, 45.26971962655468 -9.031910464774166, 45.41242697109088 -8.812673661278927 M45.41242697109088 -8.812673661278927 C45.59852218713805 -8.482242761003164, 45.784617403185216 -8.1518118607274, 45.947188208341004 -7.863150934094199 M45.41242697109088 -8.812673661278927 C45.536633803159035 -8.592131853636335, 45.660840635227196 -8.371590045993742, 45.947188208341004 -7.863150934094199 M45.947188208341004 -7.863150934094199 C46.07315797581936 -7.6015720166041385, 46.19912774329772 -7.339993099114078, 46.42001459126881 -6.881316833080699 M45.947188208341004 -7.863150934094199 C46.080459308545294 -7.586410642975253, 46.21373040874958 -7.309670351856307, 46.42001459126881 -6.881316833080699 M46.42001459126881 -6.881316833080699 C46.54509342787445 -6.572369688429974, 46.670172264480094 -6.263422543779248, 46.828963174845924 -5.871205925162238 M46.42001459126881 -6.881316833080699 C46.55488165580891 -6.548192576189333, 46.68974872034902 -6.215068319297967, 46.828963174845924 -5.871205925162238 M46.828963174845924 -5.871205925162238 C46.93577630903161 -5.549501783356758, 47.04258944321729 -5.227797641551279, 47.172353501623235 -4.836968972727556 M46.828963174845924 -5.871205925162238 C46.940844502632835 -5.534237191736844, 47.05272583041975 -5.197268458311451, 47.172353501623235 -4.836968972727556 M47.172353501623235 -4.836968972727556 C47.23188697721904 -4.609942028309197, 47.291420452814855 -4.382915083890838, 47.448774507091 -3.7828558772573464 M47.172353501623235 -4.836968972727556 C47.270239644494964 -4.463686685834958, 47.368125787366694 -4.0904043989423595, 47.448774507091 -3.7828558772573464 M47.448774507091 -3.7828558772573464 C47.49690581343613 -3.535711791730318, 47.545037119781256 -3.288567706203289, 47.65709031804565 -2.713198215567453 M47.448774507091 -3.7828558772573464 C47.52532055194882 -3.389808114924719, 47.60186659680665 -2.996760352592092, 47.65709031804565 -2.713198215567453 M47.65709031804565 -2.713198215567453 C47.686190869692766 -2.487500083546311, 47.715291421339884 -2.2618019515251686, 47.796444920136366 -1.632391440430593 M47.65709031804565 -2.713198215567453 C47.7037345540345 -2.3514347321841758, 47.75037879002334 -1.9896712488008985, 47.796444920136366 -1.632391440430593 M47.796444920136366 -1.632391440430593 C47.81619621416672 -1.3247490929502366, 47.83594750819708 -1.0171067454698803, 47.8662656754117 -0.5448768187181379 M47.796444920136366 -1.632391440430593 C47.817743120217095 -1.3006547825755554, 47.83904132029783 -0.9689181247205177, 47.8662656754117 -0.5448768187181379 M47.8662656754117 -0.5448768187181379 C47.8662656754117 -0.13778407708704415, 47.8662656754117 0.26930866454404956, 47.8662656754117 0.5448768187181336 M47.8662656754117 -0.5448768187181379 C47.8662656754117 -0.17559633342816866, 47.8662656754117 0.19368415186180055, 47.8662656754117 0.5448768187181336 M47.8662656754117 0.5448768187181336 C47.83932033244817 0.9645722852643909, 47.812374989484645 1.384267751810648, 47.796444920136366 1.6323914404305815 M47.8662656754117 0.5448768187181336 C47.84654093932515 0.8521055047863935, 47.826816203238614 1.1593341908546533, 47.796444920136366 1.6323914404305815 M47.796444920136366 1.6323914404305815 C47.75885503528217 1.9239311643974115, 47.72126515042797 2.2154708883642416, 47.657090318045654 2.7131982155674415 M47.796444920136366 1.6323914404305815 C47.76515519880063 1.8750683402562194, 47.73386547746489 2.1177452400818573, 47.657090318045654 2.7131982155674415 M47.657090318045654 2.7131982155674415 C47.58453526609844 3.0857530728007045, 47.51198021415124 3.458307930033968, 47.448774507091 3.782855877257343 M47.657090318045654 2.7131982155674415 C47.6048083819802 2.981654907472438, 47.55252644591475 3.2501115993774343, 47.448774507091 3.782855877257343 M47.448774507091 3.782855877257343 C47.348479967045044 4.165322426381195, 47.24818542699909 4.547788975505047, 47.172353501623235 4.836968972727545 M47.448774507091 3.782855877257343 C47.3392911801018 4.200363253441228, 47.22980785311261 4.617870629625115, 47.172353501623235 4.836968972727545 M47.172353501623235 4.836968972727545 C47.071382990069026 5.141076066062517, 46.970412478514824 5.445183159397488, 46.828963174845924 5.871205925162227 M47.172353501623235 4.836968972727545 C47.0936683317654 5.073956167560059, 47.01498316190756 5.310943362392572, 46.828963174845924 5.871205925162227 M46.828963174845924 5.871205925162227 C46.71051091598229 6.163785294674042, 46.59205865711865 6.456364664185859, 46.42001459126881 6.881316833080694 M46.828963174845924 5.871205925162227 C46.669836496925015 6.264251896131899, 46.510709819004106 6.657297867101571, 46.42001459126881 6.881316833080694 M46.42001459126881 6.881316833080694 C46.28966272524309 7.151995271966235, 46.15931085921737 7.422673710851776, 45.947188208341004 7.863150934094196 M46.42001459126881 6.881316833080694 C46.304368785207785 7.121457823790269, 46.18872297914676 7.361598814499844, 45.947188208341004 7.863150934094196 M45.947188208341004 7.863150934094196 C45.76199386707413 8.191982239974083, 45.57679952580726 8.52081354585397, 45.41242697109089 8.812673661278923 M45.947188208341004 7.863150934094196 C45.81488272414167 8.09807271867315, 45.68257723994234 8.332994503252104, 45.41242697109089 8.812673661278923 M45.41242697109089 8.812673661278923 C45.21629142126546 9.113990535580376, 45.020155871440025 9.415307409881828, 44.817928328148255 9.725983222076879 M45.41242697109089 8.812673661278923 C45.23919230830675 9.07880862333574, 45.0659576455226 9.344943585392558, 44.817928328148255 9.725983222076879 M44.817928328148255 9.725983222076879 C44.59005553325365 10.031312007596968, 44.362182738359046 10.336640793117057, 44.16613520195651 10.599326631598467 M44.817928328148255 9.725983222076879 C44.633539612643624 9.97304730269553, 44.44915089713899 10.220111383314181, 44.16613520195651 10.599326631598467 M44.16613520195651 10.599326631598467 C44.00429424945076 10.789434223422797, 43.84245329694501 10.979541815247128, 43.45972595028037 11.42911513444238 M44.16613520195651 10.599326631598467 C43.92469749678462 10.882933098287982, 43.68325979161273 11.166539564977496, 43.45972595028037 11.42911513444238 M43.45972595028037 11.42911513444238 C43.26848835557903 11.626583651870039, 43.07725076087768 11.824052169297698, 42.70160336025927 12.211938951661365 M43.45972595028037 11.42911513444238 C43.234152164252826 11.662038588468073, 43.00857837822529 11.894962042493766, 42.70160336025927 12.211938951661365 M42.70160336025927 12.211938951661365 C42.44054608013275 12.449024266275146, 42.179488800006226 12.686109580888926, 41.89488272023242 12.944581292275275 M42.70160336025927 12.211938951661365 C42.51910517042774 12.377678979028857, 42.336606980596216 12.54341900639635, 41.89488272023242 12.944581292275275 M41.89488272023242 12.944581292275275 C41.59649936389497 13.182534078639804, 41.298116007557525 13.420486865004335, 41.042879018350675 13.62403157175526 M41.89488272023242 12.944581292275275 C41.71438805469434 13.088520984877125, 41.533893389156255 13.232460677478974, 41.042879018350675 13.62403157175526 M41.042879018350675 13.62403157175526 C40.80040043077206 13.793174137721225, 40.55792184319344 13.96231670368719, 40.14909332057934 14.247497783161286 M41.042879018350675 13.62403157175526 C40.78125377979432 13.806530012598136, 40.51962854123796 13.98902845344101, 40.14909332057934 14.247497783161286 M40.14909332057934 14.247497783161286 C39.79949651722939 14.459425419810882, 39.44989971387944 14.67135305646048, 39.21719838406695 14.81241797009762 M40.14909332057934 14.247497783161286 C39.94853578082421 14.369076942367773, 39.74797824106908 14.490656101574261, 39.21719838406695 14.81241797009762 M39.21719838406695 14.81241797009762 C38.94698960427689 14.953385717437111, 38.676780824486826 15.094353464776601, 38.25102356499849 15.316470754341124 M39.21719838406695 14.81241797009762 C38.84136246484296 15.008491328422378, 38.46552654561897 15.204564686747137, 38.25102356499849 15.316470754341124 M38.25102356499849 15.316470754341124 C38.01263773558963 15.421997089556047, 37.77425190618076 15.527523424770973, 37.254539082949364 15.757584874882367 M38.25102356499849 15.316470754341124 C37.96162536079068 15.444578754651209, 37.67222715658286 15.572686754961293, 37.254539082949364 15.757584874882367 M37.254539082949364 15.757584874882367 C36.98878157132504 15.855386095795623, 36.72302405970073 15.953187316708881, 36.23183970640156 16.133947699181363 M37.254539082949364 15.757584874882367 C36.86052264777414 15.902586565274849, 36.46650621259892 16.047588255667332, 36.23183970640156 16.133947699181363 M36.23183970640156 16.133947699181363 C36.01497900221757 16.198310817858104, 35.79811829803359 16.262673936534846, 35.18712792646164 16.444012671663497 M36.23183970640156 16.133947699181363 C35.99110052669056 16.205397824053847, 35.75036134697955 16.276847948926335, 35.18712792646164 16.444012671663497 M35.18712792646164 16.444012671663497 C34.938158993923196 16.50083820584128, 34.68919006138474 16.557663740019063, 34.12469668792333 16.68650566884811 M35.18712792646164 16.444012671663497 C34.81609125341983 16.528699371044723, 34.44505458037801 16.61338607042595, 34.12469668792333 16.68650566884811 M34.12469668792333 16.68650566884811 C33.84394896161534 16.73189478400645, 33.56320123530735 16.777283899164793, 33.04891174863661 16.86043023499518 M34.12469668792333 16.68650566884811 C33.89265200699075 16.724020853327914, 33.66060732605817 16.761536037807716, 33.04891174863661 16.86043023499518 M33.04891174863661 16.86043023499518 C32.786355670771954 16.885758704056904, 32.523799592907295 16.911087173118624, 31.96419373967212 16.965071676755716 M33.04891174863661 16.86043023499518 C32.72493361099427 16.89168401629282, 32.400955473351935 16.92293779759046, 31.96419373967212 16.965071676755716 M31.96419373967212 16.965071676755716 C31.545619796328758 16.978494528413982, 31.127045852985397 16.99191738007225, 30.875000000000004 17 M31.96419373967212 16.965071676755716 C31.597625698810862 16.976826800344732, 31.23105765794961 16.988581923933744, 30.875000000000004 17 M30.875000000000004 17 C30.875000000000004 17, 30.875 17, 30.875 17 M30.875000000000004 17 C30.875000000000004 17, 30.875000000000004 17, 30.875 17 M30.875 17 C17.188199948876317 17, 3.5013998977526377 17, -30.874999999999996 17 M30.875 17 C10.442438650617714 17, -9.990122698764573 17, -30.874999999999996 17 M-30.874999999999996 17 C-31.278233769221135 16.987069077867996, -31.68146753844227 16.974138155735993, -31.964193739672112 16.965071676755716 M-30.874999999999996 17 C-31.135769298271374 16.991637636161084, -31.396538596542747 16.983275272322167, -31.964193739672112 16.965071676755716 M-31.964193739672112 16.965071676755716 C-32.28557320985069 16.93406858578295, -32.60695268002927 16.903065494810185, -33.048911748636606 16.86043023499518 M-31.964193739672112 16.965071676755716 C-32.23124783061777 16.939309289781722, -32.498301921563424 16.91354690280773, -33.048911748636606 16.86043023499518 M-33.048911748636606 16.86043023499518 C-33.352872814510974 16.811288167117887, -33.65683388038534 16.76214609924059, -34.124696687923326 16.68650566884811 M-33.048911748636606 16.86043023499518 C-33.398489628469314 16.803913194400778, -33.748067508302015 16.747396153806374, -34.124696687923326 16.68650566884811 M-34.124696687923326 16.68650566884811 C-34.52784072020423 16.59449067424066, -34.930984752485145 16.50247567963321, -35.18712792646162 16.4440126716635 M-34.124696687923326 16.68650566884811 C-34.46065843772447 16.609824591811304, -34.79662018752561 16.533143514774498, -35.18712792646162 16.4440126716635 M-35.18712792646162 16.4440126716635 C-35.595762745078304 16.322732002466005, -36.00439756369498 16.20145133326851, -36.231839706401544 16.13394769918137 M-35.18712792646162 16.4440126716635 C-35.41813361557438 16.375451395708442, -35.64913930468713 16.306890119753383, -36.231839706401544 16.13394769918137 M-36.231839706401544 16.13394769918137 C-36.63809861588041 15.984440665076956, -37.044357525359274 15.834933630972543, -37.254539082949364 15.757584874882369 M-36.231839706401544 16.13394769918137 C-36.624096938292084 15.989593411859548, -37.016354170182616 15.845239124537729, -37.254539082949364 15.757584874882369 M-37.254539082949364 15.757584874882369 C-37.56128734061628 15.621796520576988, -37.8680355982832 15.486008166271606, -38.25102356499848 15.316470754341127 M-37.254539082949364 15.757584874882369 C-37.50823233757002 15.64528239660482, -37.76192559219068 15.532979918327271, -38.25102356499848 15.316470754341127 M-38.25102356499848 15.316470754341127 C-38.513278883421314 15.179652322702486, -38.77553420184414 15.042833891063845, -39.21719838406693 14.812417970097624 M-38.25102356499848 15.316470754341127 C-38.630377890067365 15.118561845940736, -39.00973221513624 14.920652937540343, -39.21719838406693 14.812417970097624 M-39.21719838406693 14.812417970097624 C-39.47926449163771 14.653551955616829, -39.74133059920848 14.494685941136034, -40.14909332057932 14.247497783161299 M-39.21719838406693 14.812417970097624 C-39.503240615144534 14.639017488647648, -39.789282846222136 14.465617007197672, -40.14909332057932 14.247497783161299 M-40.14909332057932 14.247497783161299 C-40.47995736631411 14.016701347730404, -40.810821412048895 13.785904912299511, -41.04287901835067 13.624031571755264 M-40.14909332057932 14.247497783161299 C-40.38941463300215 14.079860038957074, -40.629735945424976 13.912222294752851, -41.04287901835067 13.624031571755264 M-41.04287901835067 13.624031571755264 C-41.28469997305534 13.431185795504152, -41.52652092776001 13.23834001925304, -41.8948827202324 12.94458129227529 M-41.04287901835067 13.624031571755264 C-41.29502756297811 13.422949817369453, -41.54717610760555 13.221868062983642, -41.8948827202324 12.94458129227529 M-41.8948827202324 12.94458129227529 C-42.185640944428506 12.680522366101435, -42.47639916862461 12.41646343992758, -42.70160336025926 12.211938951661377 M-41.8948827202324 12.94458129227529 C-42.194004133888825 12.672927138711438, -42.49312554754525 12.401272985147587, -42.70160336025926 12.211938951661377 M-42.70160336025926 12.211938951661377 C-42.89043209843914 12.016957776362931, -43.079260836619014 11.821976601064486, -43.459725950280365 11.429115134442386 M-42.70160336025926 12.211938951661377 C-42.861487759503895 12.046845182687992, -43.02137215874853 11.881751413714607, -43.459725950280365 11.429115134442386 M-43.459725950280365 11.429115134442386 C-43.73254926105186 11.10864134952403, -44.00537257182335 10.788167564605674, -44.16613520195651 10.599326631598473 M-43.459725950280365 11.429115134442386 C-43.72696418534991 11.115201897243354, -43.99420242041944 10.801288660044325, -44.16613520195651 10.599326631598473 M-44.16613520195651 10.599326631598473 C-44.29904110341912 10.421244831615278, -44.431947004881735 10.243163031632081, -44.81792832814825 9.72598322207689 M-44.16613520195651 10.599326631598473 C-44.32609366864293 10.384996858754766, -44.48605213532935 10.170667085911061, -44.81792832814825 9.72598322207689 M-44.81792832814825 9.72598322207689 C-44.95422971344122 9.516587692220162, -45.090531098734196 9.307192162363433, -45.41242697109088 8.812673661278936 M-44.81792832814825 9.72598322207689 C-44.96850724705408 9.494653566536222, -45.11908616595991 9.263323910995556, -45.41242697109088 8.812673661278936 M-45.41242697109088 8.812673661278936 C-45.55772099146662 8.554689415486871, -45.70301501184235 8.296705169694809, -45.947188208341004 7.863150934094201 M-45.41242697109088 8.812673661278936 C-45.529373400797446 8.605023433224801, -45.64631983050402 8.397373205170666, -45.947188208341004 7.863150934094201 M-45.947188208341004 7.863150934094201 C-46.110537414134434 7.523952813151047, -46.27388661992786 7.1847546922078935, -46.42001459126881 6.881316833080701 M-45.947188208341004 7.863150934094201 C-46.070845079493346 7.606374795313175, -46.19450195064569 7.34959865653215, -46.42001459126881 6.881316833080701 M-46.42001459126881 6.881316833080701 C-46.57499681759333 6.498507737681636, -46.72997904391785 6.11569864228257, -46.828963174845924 5.87120592516224 M-46.42001459126881 6.881316833080701 C-46.55841249287978 6.539471340360201, -46.696810394490754 6.197625847639701, -46.828963174845924 5.87120592516224 M-46.828963174845924 5.87120592516224 C-46.90686132315072 5.636589113852618, -46.984759471455526 5.401972302542997, -47.172353501623235 4.8369689727275516 M-46.828963174845924 5.87120592516224 C-46.958298195773 5.481669448867034, -47.08763321670007 5.092132972571829, -47.172353501623235 4.8369689727275516 M-47.172353501623235 4.8369689727275516 C-47.257372046076284 4.512756415457822, -47.342390590529334 4.188543858188093, -47.448774507091 3.782855877257349 M-47.172353501623235 4.8369689727275516 C-47.242926701242894 4.567842775959589, -47.31349990086255 4.298716579191626, -47.448774507091 3.782855877257349 M-47.448774507091 3.782855877257349 C-47.50985486322831 3.4692211578300824, -47.57093521936563 3.1555864384028154, -47.65709031804565 2.713198215567455 M-47.448774507091 3.782855877257349 C-47.52737642998195 3.379251615734619, -47.605978352872896 2.9756473542118886, -47.65709031804565 2.713198215567455 M-47.65709031804565 2.713198215567455 C-47.69213013081881 2.4414363470924423, -47.72716994359198 2.169674478617429, -47.796444920136366 1.6323914404306026 M-47.65709031804565 2.713198215567455 C-47.685490307684425 2.492933504141373, -47.7138902973232 2.272668792715291, -47.796444920136366 1.6323914404306026 M-47.796444920136366 1.6323914404306026 C-47.812839131005205 1.3770383729796274, -47.829233341874044 1.1216853055286524, -47.8662656754117 0.54487681871814 M-47.796444920136366 1.6323914404306026 C-47.81558126636092 1.3343274014024624, -47.834717612585486 1.036263362374322, -47.8662656754117 0.54487681871814 M-47.8662656754117 0.54487681871814 C-47.8662656754117 0.12695658786803837, -47.8662656754117 -0.29096364298206323, -47.8662656754117 -0.5448768187181317 M-47.8662656754117 0.54487681871814 C-47.8662656754117 0.1214479321022246, -47.8662656754117 -0.3019809545136908, -47.8662656754117 -0.5448768187181317 M-47.8662656754117 -0.5448768187181317 C-47.84338792105659 -0.9012163093898706, -47.820510166701474 -1.2575558000616094, -47.796444920136366 -1.6323914404305793 M-47.8662656754117 -0.5448768187181317 C-47.84577634338927 -0.8640147036585716, -47.82528701136684 -1.1831525885990115, -47.796444920136366 -1.6323914404305793 M-47.796444920136366 -1.6323914404305793 C-47.76595491054923 -1.8688659338550067, -47.73546490096209 -2.105340427279434, -47.657090318045654 -2.713198215567447 M-47.796444920136366 -1.6323914404305793 C-47.74658710218554 -2.019078830917446, -47.69672928423471 -2.405766221404313, -47.657090318045654 -2.713198215567447 M-47.657090318045654 -2.713198215567447 C-47.603623060293614 -2.987741283815237, -47.550155802541575 -3.2622843520630274, -47.448774507091 -3.782855877257341 M-47.657090318045654 -2.713198215567447 C-47.606003794393885 -2.975516717378685, -47.554917270742116 -3.237835219189923, -47.448774507091 -3.782855877257341 M-47.448774507091 -3.782855877257341 C-47.363302012808724 -4.108799541969033, -47.27782951852644 -4.434743206680725, -47.172353501623235 -4.836968972727544 M-47.448774507091 -3.782855877257341 C-47.36936682850254 -4.085671771220742, -47.28995914991408 -4.388487665184142, -47.172353501623235 -4.836968972727544 M-47.172353501623235 -4.836968972727544 C-47.08383958099228 -5.103558798889921, -46.995325660361324 -5.370148625052299, -46.82896317484593 -5.871205925162218 M-47.172353501623235 -4.836968972727544 C-47.09656088102397 -5.065244270058382, -47.0207682604247 -5.293519567389219, -46.82896317484593 -5.871205925162218 M-46.82896317484593 -5.871205925162218 C-46.68665899220935 -6.222700007538771, -46.54435480957277 -6.574194089915325, -46.42001459126881 -6.881316833080692 M-46.82896317484593 -5.871205925162218 C-46.7015396051566 -6.1859446058620025, -46.574116035467256 -6.500683286561788, -46.42001459126881 -6.881316833080692 M-46.42001459126881 -6.881316833080692 C-46.27570948950006 -7.180969464538055, -46.13140438773131 -7.480622095995418, -45.947188208341004 -7.863150934094194 M-46.42001459126881 -6.881316833080692 C-46.290972490847814 -7.149275515663523, -46.161930390426825 -7.417234198246353, -45.947188208341004 -7.863150934094194 M-45.947188208341004 -7.863150934094194 C-45.79817050452121 -8.127746956905016, -45.649152800701415 -8.392342979715838, -45.41242697109088 -8.812673661278929 M-45.947188208341004 -7.863150934094194 C-45.746274271503836 -8.219893973690793, -45.545360334666675 -8.576637013287392, -45.41242697109088 -8.812673661278929 M-45.41242697109088 -8.812673661278929 C-45.275191326578096 -9.023504464181011, -45.13795568206532 -9.234335267083091, -44.81792832814825 -9.725983222076884 M-45.41242697109088 -8.812673661278929 C-45.18720074852497 -9.158681620849158, -44.961974525959064 -9.50468958041939, -44.81792832814825 -9.725983222076884 M-44.81792832814825 -9.725983222076884 C-44.57869951878679 -10.046528032428355, -44.339470709425335 -10.367072842779827, -44.16613520195651 -10.599326631598467 M-44.81792832814825 -9.725983222076884 C-44.592899938136775 -10.027500764184193, -44.3678715481253 -10.329018306291504, -44.16613520195651 -10.599326631598467 M-44.16613520195651 -10.599326631598467 C-44.01617282144934 -10.77548097684337, -43.866210440942176 -10.951635322088272, -43.45972595028037 -11.42911513444238 M-44.16613520195651 -10.599326631598467 C-43.91347600361115 -10.896114502690585, -43.660816805265796 -11.192902373782703, -43.45972595028037 -11.42911513444238 M-43.45972595028037 -11.42911513444238 C-43.278702212121004 -11.616037006417233, -43.09767847396163 -11.802958878392086, -42.70160336025928 -12.21193895166136 M-43.45972595028037 -11.42911513444238 C-43.25142070097448 -11.644207406529738, -43.04311545166859 -11.859299678617093, -42.70160336025928 -12.21193895166136 M-42.70160336025928 -12.21193895166136 C-42.44061396581884 -12.44896261429119, -42.179624571378405 -12.685986276921023, -41.89488272023242 -12.944581292275274 M-42.70160336025928 -12.21193895166136 C-42.379566744085636 -12.504404085848314, -42.057530127911996 -12.796869220035267, -41.89488272023242 -12.944581292275274 M-41.89488272023242 -12.944581292275274 C-41.595156508053336 -13.183604970438614, -41.29543029587425 -13.422628648601952, -41.042879018350675 -13.624031571755259 M-41.89488272023242 -12.944581292275274 C-41.563385356016745 -13.20894161872193, -41.231887991801074 -13.473301945168584, -41.042879018350675 -13.624031571755259 M-41.042879018350675 -13.624031571755259 C-40.7966574797309 -13.795785058337803, -40.55043594111111 -13.967538544920345, -40.14909332057934 -14.247497783161284 M-41.042879018350675 -13.624031571755259 C-40.79466646057903 -13.797173907108311, -40.546453902807386 -13.970316242461363, -40.14909332057934 -14.247497783161284 M-40.14909332057934 -14.247497783161284 C-39.851010919593676 -14.428197086365419, -39.55292851860802 -14.608896389569553, -39.21719838406695 -14.812417970097618 M-40.14909332057934 -14.247497783161284 C-39.94717784472236 -14.36990013121283, -39.74526236886538 -14.492302479264378, -39.21719838406695 -14.812417970097618 M-39.21719838406695 -14.812417970097618 C-38.91318054658919 -14.971023881177045, -38.60916270911144 -15.129629792256472, -38.25102356499849 -15.316470754341124 M-39.21719838406695 -14.812417970097618 C-38.92693221181534 -14.963849646236923, -38.636666039563735 -15.11528132237623, -38.25102356499849 -15.316470754341124 M-38.25102356499849 -15.316470754341124 C-37.96504355478064 -15.443065621568975, -37.67906354456279 -15.569660488796826, -37.25453908294937 -15.757584874882365 M-38.25102356499849 -15.316470754341124 C-37.98740357155701 -15.433167505428408, -37.72378357811553 -15.54986425651569, -37.25453908294937 -15.757584874882365 M-37.25453908294937 -15.757584874882365 C-36.95124724256684 -15.869199075742173, -36.64795540218432 -15.980813276601983, -36.231839706401566 -16.133947699181363 M-37.25453908294937 -15.757584874882365 C-36.99006060883342 -15.854915398169252, -36.725582134717456 -15.95224592145614, -36.231839706401566 -16.133947699181363 M-36.231839706401566 -16.133947699181363 C-35.900593079153694 -16.232259959399503, -35.56934645190582 -16.330572219617643, -35.18712792646164 -16.444012671663494 M-36.231839706401566 -16.133947699181363 C-36.01511526916636 -16.198270374542986, -35.79839083193115 -16.26259304990461, -35.18712792646164 -16.444012671663494 M-35.18712792646164 -16.444012671663494 C-34.914199616037145 -16.506306777494213, -34.64127130561265 -16.568600883324937, -34.12469668792333 -16.68650566884811 M-35.18712792646164 -16.444012671663494 C-34.93558633019226 -16.501425399549664, -34.684044733922875 -16.55883812743583, -34.12469668792333 -16.68650566884811 M-34.12469668792333 -16.68650566884811 C-33.74135513189472 -16.74848135876865, -33.35801357586611 -16.810457048689187, -33.04891174863661 -16.86043023499518 M-34.12469668792333 -16.68650566884811 C-33.79810742659055 -16.739306087882845, -33.47151816525776 -16.792106506917584, -33.04891174863661 -16.86043023499518 M-33.04891174863661 -16.86043023499518 C-32.65294361143226 -16.898628804969928, -32.256975474227914 -16.93682737494467, -31.96419373967212 -16.965071676755716 M-33.04891174863661 -16.86043023499518 C-32.73793399989195 -16.890429884411116, -32.426956251147296 -16.920429533827054, -31.96419373967212 -16.965071676755716 M-31.96419373967212 -16.965071676755716 C-31.584460281071784 -16.97724898966669, -31.20472682247145 -16.989426302577666, -30.875000000000004 -17 M-31.96419373967212 -16.965071676755716 C-31.6908443128159 -16.973837460832613, -31.417494885959684 -16.98260324490951, -30.875000000000004 -17 M-30.875000000000004 -17 C-30.875000000000004 -17, -30.875000000000004 -17, -30.875 -17 M-30.875000000000004 -17 C-30.875000000000004 -17, -30.875000000000004 -17, -30.875 -17" stroke="#555555" stroke-width="1.3" fill="none" stroke-dasharray="0 0" style=""></path></g><g class="label" style="" transform="translate(0, -9.5)"><rect></rect><g><rect class="background" style="stroke: none"></rect><text y="-10.1" style=""><tspan class="text-outer-tspan row" x="0" y="-0.1em" dy="1.1em"><tspan font-style="normal" class="text-inner-tspan" font-weight="normal">Start</tspan><tspan font-style="normal" class="text-inner-tspan" font-weight="normal"> here</tspan></tspan></text></g></g></g><g class="node default" id="ga7d9cb23-6854-4f84-84c8-9045d3728353-dark-flowchart-docsQ-1" data-look="classic" transform="translate(280.4421844482422, 227.15000915527344)"><polygon points="135.1500015258789,0 270.3000030517578,-135.1500015258789 135.1500015258789,-270.3000030517578 0,-135.1500015258789" class="label-container" transform="translate(-134.6500015258789, 135.1500015258789)"></polygon><g class="label" style="" transform="translate(0, -35.900001525878906)"><rect></rect><g><rect class="background" style="stroke: none"></rect><text y="-10.1" style=""><tspan class="text-outer-tspan row" x="0" y="-0.1em" dy="1.1em"><tspan font-style="normal" class="text-inner-tspan" font-weight="normal">Need</tspan><tspan font-style="normal" class="text-inner-tspan" font-weight="normal"> built-in</tspan><tspan font-style="normal" class="text-inner-tspan" font-weight="normal"> docs</tspan></tspan><tspan class="text-outer-tspan row" x="0" y="1em" dy="1.1em"><tspan font-style="normal" class="text-inner-tspan" font-weight="normal">navigation,</tspan></tspan><tspan class="text-outer-tspan row" x="0" y="2.1em" dy="1.1em"><tspan font-style="normal" class="text-inner-tspan" font-weight="normal">search,</tspan><tspan font-style="normal" class="text-inner-tspan" font-weight="normal"> and</tspan><tspan font-style="normal" class="text-inner-tspan" font-weight="normal"> the</tspan><tspan font-style="normal" class="text-inner-tspan" font-weight="normal"> default</tspan></tspan><tspan class="text-outer-tspan row" x="0" y="3.2em" dy="1.1em"><tspan font-style="normal" class="text-inner-tspan" font-weight="normal">theme?</tspan></tspan></text></g></g></g><g class="node default" id="ga7d9cb23-6854-4f84-84c8-9045d3728353-dark-flowchart-docs-3" data-look="classic" transform="translate(124.9296875, 579.3953247070312)"><rect class="basic label-container" style="" x="-116.9296875" y="-50.900001525878906" width="233.859375" height="101.80000305175781"></rect><g class="label" style="" transform="translate(0, -35.900001525878906)"><rect></rect><g><rect class="background" style="stroke: none"></rect><text y="-10.1" style=""><tspan class="text-outer-tspan row" x="0" y="-0.1em" dy="1.1em"><tspan font-style="normal" class="text-inner-tspan" font-weight="normal">@pagesmith/docs</tspan></tspan><tspan class="text-outer-tspan row" x="0" y="1em" dy="1.1em"><tspan font-style="normal" class="text-inner-tspan" font-weight="normal">Docs</tspan><tspan font-style="normal" class="text-inner-tspan" font-weight="normal"> preset</tspan><tspan font-style="normal" class="text-inner-tspan" font-weight="normal"> with</tspan><tspan font-style="normal" class="text-inner-tspan" font-weight="normal"> config,</tspan></tspan><tspan class="text-outer-tspan row" x="0" y="2.1em" dy="1.1em"><tspan font-style="normal" class="text-inner-tspan" font-weight="normal">navigation,</tspan><tspan font-style="normal" class="text-inner-tspan" font-weight="normal"> search,</tspan><tspan font-style="normal" class="text-inner-tspan" font-weight="normal"> and</tspan></tspan><tspan class="text-outer-tspan row" x="0" y="3.2em" dy="1.1em"><tspan font-style="normal" class="text-inner-tspan" font-weight="normal">theme</tspan></tspan></text></g></g></g><g class="node default" id="ga7d9cb23-6854-4f84-84c8-9045d3728353-dark-flowchart-hostQ-5" data-look="classic" transform="translate(435.9546813964844, 579.3953247070312)"><polygon points="144.0953140258789,0 288.1906280517578,-144.0953140258789 144.0953140258789,-288.1906280517578 0,-144.0953140258789" class="label-container" transform="translate(-143.5953140258789, 144.0953140258789)"></polygon><g class="label" style="" transform="translate(0, -35.900001525878906)"><rect></rect><g><rect class="background" style="stroke: none"></rect><text y="-10.1" style=""><tspan class="text-outer-tspan row" x="0" y="-0.1em" dy="1.1em"><tspan font-style="normal" class="text-inner-tspan" font-weight="normal">Does</tspan><tspan font-style="normal" class="text-inner-tspan" font-weight="normal"> the</tspan><tspan font-style="normal" class="text-inner-tspan" font-weight="normal"> host</tspan><tspan font-style="normal" class="text-inner-tspan" font-weight="normal"> app</tspan><tspan font-style="normal" class="text-inner-tspan" font-weight="normal"> already</tspan></tspan><tspan class="text-outer-tspan row" x="0" y="1em" dy="1.1em"><tspan font-style="normal" class="text-inner-tspan" font-weight="normal">own</tspan></tspan><tspan class="text-outer-tspan row" x="0" y="2.1em" dy="1.1em"><tspan font-style="normal" class="text-inner-tspan" font-weight="normal">routing,</tspan><tspan font-style="normal" class="text-inner-tspan" font-weight="normal"> layout,</tspan><tspan font-style="normal" class="text-inner-tspan" font-weight="normal"> and</tspan><tspan font-style="normal" class="text-inner-tspan" font-weight="normal"> build</tspan></tspan><tspan class="text-outer-tspan row" x="0" y="3.2em" dy="1.1em"><tspan font-style="normal" class="text-inner-tspan" font-weight="normal">tooling?</tspan></tspan></text></g></g></g><g class="node default" id="ga7d9cb23-6854-4f84-84c8-9045d3728353-dark-flowchart-core-7" data-look="classic" transform="translate(563.1460876464844, 856.1906318664551)"><rect class="basic label-container" style="" x="-111.96875" y="-59.70000076293945" width="223.9375" height="119.4000015258789"></rect><g class="label" style="" transform="translate(0, -44.70000076293945)"><rect></rect><g><rect class="background" style="stroke: none"></rect><text y="-10.1" style=""><tspan class="text-outer-tspan row" x="0" y="-0.1em" dy="1.1em"><tspan font-style="normal" class="text-inner-tspan" font-weight="normal">@pagesmith/core</tspan></tspan><tspan class="text-outer-tspan row" x="0" y="1em" dy="1.1em"><tspan font-style="normal" class="text-inner-tspan" font-weight="normal">Headless</tspan><tspan font-style="normal" class="text-inner-tspan" font-weight="normal"> content</tspan><tspan font-style="normal" class="text-inner-tspan" font-weight="normal"> layer</tspan></tspan><tspan class="text-outer-tspan row" x="0" y="2.1em" dy="1.1em"><tspan font-style="normal" class="text-inner-tspan" font-weight="normal">with</tspan></tspan><tspan class="text-outer-tspan row" x="0" y="3.2em" dy="1.1em"><tspan font-style="normal" class="text-inner-tspan" font-weight="normal">schemas,</tspan><tspan font-style="normal" class="text-inner-tspan" font-weight="normal"> loaders,</tspan><tspan font-style="normal" class="text-inner-tspan" font-weight="normal"> and</tspan></tspan><tspan class="text-outer-tspan row" x="0" y="4.300000000000001em" dy="1.1em"><tspan font-style="normal" class="text-inner-tspan" font-weight="normal">markdown</tspan></tspan></text></g></g></g><g class="node default" id="ga7d9cb23-6854-4f84-84c8-9045d3728353-dark-flowchart-site-9" data-look="classic" transform="translate(286.3999938964844, 1392.0843887329102)"><rect class="basic label-container" style="" x="-127.6171875" y="-68.5" width="255.234375" height="137"></rect><g class="label" style="" transform="translate(0, -53.5)"><rect></rect><g><rect class="background" style="stroke: none"></rect><text y="-10.1" style=""><tspan class="text-outer-tspan row" x="0" y="-0.1em" dy="1.1em"><tspan font-style="normal" class="text-inner-tspan" font-weight="normal">@pagesmith/site</tspan><tspan font-style="normal" class="text-inner-tspan" font-weight="normal"> +</tspan></tspan><tspan class="text-outer-tspan row" x="0" y="1em" dy="1.1em"><tspan font-style="normal" class="text-inner-tspan" font-weight="normal">@pagesmith/core</tspan></tspan><tspan class="text-outer-tspan row" x="0" y="2.1em" dy="1.1em"><tspan font-style="normal" class="text-inner-tspan" font-weight="normal">Custom</tspan><tspan font-style="normal" class="text-inner-tspan" font-weight="normal"> site</tspan><tspan font-style="normal" class="text-inner-tspan" font-weight="normal"> shell</tspan><tspan font-style="normal" class="text-inner-tspan" font-weight="normal"> with</tspan></tspan><tspan class="text-outer-tspan row" x="0" y="3.2em" dy="1.1em"><tspan font-style="normal" class="text-inner-tspan" font-weight="normal">shared</tspan></tspan><tspan class="text-outer-tspan row" x="0" y="4.300000000000001em" dy="1.1em"><tspan font-style="normal" class="text-inner-tspan" font-weight="normal">JSX,</tspan><tspan font-style="normal" class="text-inner-tspan" font-weight="normal"> CSS/runtime,</tspan><tspan font-style="normal" class="text-inner-tspan" font-weight="normal"> and</tspan><tspan font-style="normal" class="text-inner-tspan" font-weight="normal"> Vite</tspan></tspan><tspan class="text-outer-tspan row" x="0" y="5.4em" dy="1.1em"><tspan font-style="normal" class="text-inner-tspan" font-weight="normal">SSG</tspan></tspan></text></g></g></g><g class="node default" id="ga7d9cb23-6854-4f84-84c8-9045d3728353-dark-flowchart-siteQ-11" data-look="classic" transform="translate(563.1460876464844, 1119.7375106811523)"><polygon points="130.84687423706055,0 261.6937484741211,-130.84687423706055 130.84687423706055,-261.6937484741211 0,-130.84687423706055" class="label-container" transform="translate(-130.34687423706055, 130.84687423706055)"></polygon><g class="label" style="" transform="translate(0, -18.299999237060547)"><rect></rect><g><rect class="background" style="stroke: none"></rect><text y="-10.1" style=""><tspan class="text-outer-tspan row" x="0" y="-0.1em" dy="1.1em"><tspan font-style="normal" class="text-inner-tspan" font-weight="normal">Need</tspan><tspan font-style="normal" class="text-inner-tspan" font-weight="normal"> the</tspan><tspan font-style="normal" class="text-inner-tspan" font-weight="normal"> shared</tspan><tspan font-style="normal" class="text-inner-tspan" font-weight="normal"> Pagesmith</tspan></tspan><tspan class="text-outer-tspan row" x="0" y="1em" dy="1.1em"><tspan font-style="normal" class="text-inner-tspan" font-weight="normal">site</tspan><tspan font-style="normal" class="text-inner-tspan" font-weight="normal"> layer</tspan><tspan font-style="normal" class="text-inner-tspan" font-weight="normal"> too?</tspan></tspan></text></g></g></g><g class="node default" id="ga7d9cb23-6854-4f84-84c8-9045d3728353-dark-flowchart-coreOnly-15" data-look="classic" transform="translate(585.5093688964844, 1392.0843887329102)"><rect class="basic label-container" style="" x="-121.4921875" y="-24.5" width="242.984375" height="49"></rect><g class="label" style="" transform="translate(0, -9.5)"><rect></rect><g><rect class="background" style="stroke: none"></rect><text y="-10.1" style=""><tspan class="text-outer-tspan row" x="0" y="-0.1em" dy="1.1em"><tspan font-style="normal" class="text-inner-tspan" font-weight="normal">Stay</tspan><tspan font-style="normal" class="text-inner-tspan" font-weight="normal"> on</tspan><tspan font-style="normal" class="text-inner-tspan" font-weight="normal"> @pagesmith/core</tspan></tspan></text></g></g></g></g></g></g><defs><filter id="ga7d9cb23-6854-4f84-84c8-9045d3728353-dark-drop-shadow" height="130%" width="130%"><feDropShadow dx="4" dy="4" stdDeviation="0" flood-opacity="0.06" flood-color="#000000"></feDropShadow></filter></defs><defs><filter id="ga7d9cb23-6854-4f84-84c8-9045d3728353-dark-drop-shadow-small" height="150%" width="150%"><feDropShadow dx="2" dy="2" stdDeviation="0" flood-opacity="0.06" flood-color="#000000"></feDropShadow></filter></defs><linearGradient id="ga7d9cb23-6854-4f84-84c8-9045d3728353-dark-gradient" gradientUnits="objectBoundingBox" x1="0%" y1="0%" x2="100%" y2="0%"><stop offset="0%" stop-color="#555555" stop-opacity="1"></stop><stop offset="100%" stop-color="#555555" stop-opacity="1"></stop></linearGradient></svg>