<svg id="gbc2bb5bc-6417-44be-a8c1-e61746d196a8-dark" width="100%" xmlns="http://www.w3.org/2000/svg" xmlns:xlink="http://www.w3.org/1999/xlink" class="flowchart" style="max-width: 715.0015869140625px;" viewBox="0 0 715.0015869140625 1468.5843505859375" role="graphics-document document" aria-roledescription="flowchart-v2"><style>#gbc2bb5bc-6417-44be-a8c1-e61746d196a8-dark{font-family:"trebuchet ms",verdana,arial,sans-serif;font-size:16px;fill:#e5e5e5;}@keyframes edge-animation-frame{from{stroke-dashoffset:0;}}@keyframes dash{to{stroke-dashoffset:0;}}#gbc2bb5bc-6417-44be-a8c1-e61746d196a8-dark .edge-animation-slow{stroke-dasharray:9,5!important;stroke-dashoffset:900;animation:dash 50s linear infinite;stroke-linecap:round;}#gbc2bb5bc-6417-44be-a8c1-e61746d196a8-dark .edge-animation-fast{stroke-dasharray:9,5!important;stroke-dashoffset:900;animation:dash 20s linear infinite;stroke-linecap:round;}#gbc2bb5bc-6417-44be-a8c1-e61746d196a8-dark .error-icon{fill:#252525;}#gbc2bb5bc-6417-44be-a8c1-e61746d196a8-dark .error-text{fill:#cccccc;stroke:#cccccc;}#gbc2bb5bc-6417-44be-a8c1-e61746d196a8-dark .edge-thickness-normal{stroke-width:1px;}#gbc2bb5bc-6417-44be-a8c1-e61746d196a8-dark .edge-thickness-thick{stroke-width:3.5px;}#gbc2bb5bc-6417-44be-a8c1-e61746d196a8-dark .edge-pattern-solid{stroke-dasharray:0;}#gbc2bb5bc-6417-44be-a8c1-e61746d196a8-dark .edge-thickness-invisible{stroke-width:0;fill:none;}#gbc2bb5bc-6417-44be-a8c1-e61746d196a8-dark .edge-pattern-dashed{stroke-dasharray:3;}#gbc2bb5bc-6417-44be-a8c1-e61746d196a8-dark .edge-pattern-dotted{stroke-dasharray:2;}#gbc2bb5bc-6417-44be-a8c1-e61746d196a8-dark .marker{fill:#cccccc;stroke:#cccccc;}#gbc2bb5bc-6417-44be-a8c1-e61746d196a8-dark .marker.cross{stroke:#cccccc;}#gbc2bb5bc-6417-44be-a8c1-e61746d196a8-dark svg{font-family:"trebuchet ms",verdana,arial,sans-serif;font-size:16px;}#gbc2bb5bc-6417-44be-a8c1-e61746d196a8-dark p{margin:0;}#gbc2bb5bc-6417-44be-a8c1-e61746d196a8-dark .label{font-family:"trebuchet ms",verdana,arial,sans-serif;color:#e5e5e5;}#gbc2bb5bc-6417-44be-a8c1-e61746d196a8-dark .cluster-label text{fill:#e5e5e5;}#gbc2bb5bc-6417-44be-a8c1-e61746d196a8-dark .cluster-label span{color:#e5e5e5;}#gbc2bb5bc-6417-44be-a8c1-e61746d196a8-dark .cluster-label span p{background-color:transparent;}#gbc2bb5bc-6417-44be-a8c1-e61746d196a8-dark .label text,#gbc2bb5bc-6417-44be-a8c1-e61746d196a8-dark span{fill:#e5e5e5;color:#e5e5e5;}#gbc2bb5bc-6417-44be-a8c1-e61746d196a8-dark .node rect,#gbc2bb5bc-6417-44be-a8c1-e61746d196a8-dark .node circle,#gbc2bb5bc-6417-44be-a8c1-e61746d196a8-dark .node ellipse,#gbc2bb5bc-6417-44be-a8c1-e61746d196a8-dark .node polygon,#gbc2bb5bc-6417-44be-a8c1-e61746d196a8-dark .node path{fill:#2d2d2d;stroke:#555555;stroke-width:1px;}#gbc2bb5bc-6417-44be-a8c1-e61746d196a8-dark .rough-node .label text,#gbc2bb5bc-6417-44be-a8c1-e61746d196a8-dark .node .label text,#gbc2bb5bc-6417-44be-a8c1-e61746d196a8-dark .image-shape .label,#gbc2bb5bc-6417-44be-a8c1-e61746d196a8-dark .icon-shape .label{text-anchor:middle;}#gbc2bb5bc-6417-44be-a8c1-e61746d196a8-dark .node .katex path{fill:#000;stroke:#000;stroke-width:1px;}#gbc2bb5bc-6417-44be-a8c1-e61746d196a8-dark .rough-node .label,#gbc2bb5bc-6417-44be-a8c1-e61746d196a8-dark .node .label,#gbc2bb5bc-6417-44be-a8c1-e61746d196a8-dark .image-shape .label,#gbc2bb5bc-6417-44be-a8c1-e61746d196a8-dark .icon-shape .label{text-align:center;}#gbc2bb5bc-6417-44be-a8c1-e61746d196a8-dark .node.clickable{cursor:pointer;}#gbc2bb5bc-6417-44be-a8c1-e61746d196a8-dark .root .anchor path{fill:#cccccc!important;stroke-width:0;stroke:#cccccc;}#gbc2bb5bc-6417-44be-a8c1-e61746d196a8-dark .arrowheadPath{fill:#cccccc;}#gbc2bb5bc-6417-44be-a8c1-e61746d196a8-dark .edgePath .path{stroke:#cccccc;stroke-width:1px;}#gbc2bb5bc-6417-44be-a8c1-e61746d196a8-dark .flowchart-link{stroke:#cccccc;fill:none;}#gbc2bb5bc-6417-44be-a8c1-e61746d196a8-dark .edgeLabel{background-color:#1e1e1e;text-align:center;}#gbc2bb5bc-6417-44be-a8c1-e61746d196a8-dark .edgeLabel p{background-color:#1e1e1e;}#gbc2bb5bc-6417-44be-a8c1-e61746d196a8-dark .edgeLabel rect{opacity:0.5;background-color:#1e1e1e;fill:#1e1e1e;}#gbc2bb5bc-6417-44be-a8c1-e61746d196a8-dark .labelBkg{background-color:rgba(30, 30, 30, 0.5);}#gbc2bb5bc-6417-44be-a8c1-e61746d196a8-dark .cluster rect{fill:#1e1e1e;stroke:#555555;stroke-width:1px;}#gbc2bb5bc-6417-44be-a8c1-e61746d196a8-dark .cluster text{fill:#e5e5e5;}#gbc2bb5bc-6417-44be-a8c1-e61746d196a8-dark .cluster span{color:#e5e5e5;}#gbc2bb5bc-6417-44be-a8c1-e61746d196a8-dark div.mermaidTooltip{position:absolute;text-align:center;max-width:200px;padding:2px;font-family:"trebuchet ms",verdana,arial,sans-serif;font-size:12px;background:#252525;border:1px solid #555555;border-radius:2px;pointer-events:none;z-index:100;}#gbc2bb5bc-6417-44be-a8c1-e61746d196a8-dark .flowchartTitleText{text-anchor:middle;font-size:18px;fill:#e5e5e5;}#gbc2bb5bc-6417-44be-a8c1-e61746d196a8-dark rect.text{fill:none;stroke-width:0;}#gbc2bb5bc-6417-44be-a8c1-e61746d196a8-dark .icon-shape,#gbc2bb5bc-6417-44be-a8c1-e61746d196a8-dark .image-shape{background-color:#1e1e1e;text-align:center;}#gbc2bb5bc-6417-44be-a8c1-e61746d196a8-dark .icon-shape p,#gbc2bb5bc-6417-44be-a8c1-e61746d196a8-dark .image-shape p{background-color:#1e1e1e;padding:2px;}#gbc2bb5bc-6417-44be-a8c1-e61746d196a8-dark .icon-shape .label rect,#gbc2bb5bc-6417-44be-a8c1-e61746d196a8-dark .image-shape .label rect{opacity:0.5;background-color:#1e1e1e;fill:#1e1e1e;}#gbc2bb5bc-6417-44be-a8c1-e61746d196a8-dark .label-icon{display:inline-block;height:1em;overflow:visible;vertical-align:-0.125em;}#gbc2bb5bc-6417-44be-a8c1-e61746d196a8-dark .node .label-icon path{fill:currentColor;stroke:revert;stroke-width:revert;}#gbc2bb5bc-6417-44be-a8c1-e61746d196a8-dark .node .neo-node{stroke:#555555;}#gbc2bb5bc-6417-44be-a8c1-e61746d196a8-dark [data-look="neo"].node rect,#gbc2bb5bc-6417-44be-a8c1-e61746d196a8-dark [data-look="neo"].cluster rect,#gbc2bb5bc-6417-44be-a8c1-e61746d196a8-dark [data-look="neo"].node polygon{stroke:url(#gbc2bb5bc-6417-44be-a8c1-e61746d196a8-dark-gradient);filter:drop-shadow( 1px 2px 2px rgba(185,185,185,1));}#gbc2bb5bc-6417-44be-a8c1-e61746d196a8-dark [data-look="neo"].node path{stroke:url(#gbc2bb5bc-6417-44be-a8c1-e61746d196a8-dark-gradient);stroke-width:1px;}#gbc2bb5bc-6417-44be-a8c1-e61746d196a8-dark [data-look="neo"].node .outer-path{filter:drop-shadow( 1px 2px 2px rgba(185,185,185,1));}#gbc2bb5bc-6417-44be-a8c1-e61746d196a8-dark [data-look="neo"].node .neo-line path{stroke:#555555;filter:none;}#gbc2bb5bc-6417-44be-a8c1-e61746d196a8-dark [data-look="neo"].node circle{stroke:url(#gbc2bb5bc-6417-44be-a8c1-e61746d196a8-dark-gradient);filter:drop-shadow( 1px 2px 2px rgba(185,185,185,1));}#gbc2bb5bc-6417-44be-a8c1-e61746d196a8-dark [data-look="neo"].node circle .state-start{fill:#000000;}#gbc2bb5bc-6417-44be-a8c1-e61746d196a8-dark [data-look="neo"].icon-shape .icon{fill:url(#gbc2bb5bc-6417-44be-a8c1-e61746d196a8-dark-gradient);filter:drop-shadow( 1px 2px 2px rgba(185,185,185,1));}#gbc2bb5bc-6417-44be-a8c1-e61746d196a8-dark [data-look="neo"].icon-shape .icon-neo path{stroke:url(#gbc2bb5bc-6417-44be-a8c1-e61746d196a8-dark-gradient);filter:drop-shadow( 1px 2px 2px rgba(185,185,185,1));}#gbc2bb5bc-6417-44be-a8c1-e61746d196a8-dark :root{--mermaid-font-family:"trebuchet ms",verdana,arial,sans-serif;}</style><g><marker id="gbc2bb5bc-6417-44be-a8c1-e61746d196a8-dark_flowchart-v2-pointEnd" class="marker flowchart-v2" viewBox="0 0 10 10" refX="5" refY="5" markerUnits="userSpaceOnUse" markerWidth="8" markerHeight="8" orient="auto"><path d="M 0 0 L 10 5 L 0 10 z" class="arrowMarkerPath" style="stroke-width: 1; stroke-dasharray: 1, 0;"></path></marker><marker id="gbc2bb5bc-6417-44be-a8c1-e61746d196a8-dark_flowchart-v2-pointStart" class="marker flowchart-v2" viewBox="0 0 10 10" refX="4.5" refY="5" markerUnits="userSpaceOnUse" markerWidth="8" markerHeight="8" orient="auto"><path d="M 0 5 L 10 10 L 10 0 z" class="arrowMarkerPath" style="stroke-width: 1; stroke-dasharray: 1, 0;"></path></marker><marker id="gbc2bb5bc-6417-44be-a8c1-e61746d196a8-dark_flowchart-v2-pointEnd-margin" class="marker flowchart-v2" viewBox="0 0 11.5 14" refX="11.5" refY="7" markerUnits="userSpaceOnUse" markerWidth="10.5" markerHeight="14" orient="auto"><path d="M 0 0 L 11.5 7 L 0 14 z" class="arrowMarkerPath" style="stroke-width: 0; stroke-dasharray: 1, 0;"></path></marker><marker id="gbc2bb5bc-6417-44be-a8c1-e61746d196a8-dark_flowchart-v2-pointStart-margin" class="marker flowchart-v2" viewBox="0 0 11.5 14" refX="1" refY="7" markerUnits="userSpaceOnUse" markerWidth="11.5" markerHeight="14" orient="auto"><polygon points="0,7 11.5,14 11.5,0" class="arrowMarkerPath" style="stroke-width: 0; stroke-dasharray: 1, 0;"></polygon></marker><marker id="gbc2bb5bc-6417-44be-a8c1-e61746d196a8-dark_flowchart-v2-circleEnd" class="marker flowchart-v2" viewBox="0 0 10 10" refX="11" refY="5" markerUnits="userSpaceOnUse" markerWidth="11" markerHeight="11" orient="auto"><circle cx="5" cy="5" r="5" class="arrowMarkerPath" style="stroke-width: 1; stroke-dasharray: 1, 0;"></circle></marker><marker id="gbc2bb5bc-6417-44be-a8c1-e61746d196a8-dark_flowchart-v2-circleStart" class="marker flowchart-v2" viewBox="0 0 10 10" refX="-1" refY="5" markerUnits="userSpaceOnUse" markerWidth="11" markerHeight="11" orient="auto"><circle cx="5" cy="5" r="5" class="arrowMarkerPath" style="stroke-width: 1; stroke-dasharray: 1, 0;"></circle></marker><marker id="gbc2bb5bc-6417-44be-a8c1-e61746d196a8-dark_flowchart-v2-circleEnd-margin" class="marker flowchart-v2" viewBox="0 0 10 10" refY="5" refX="12.25" markerUnits="userSpaceOnUse" markerWidth="14" markerHeight="14" orient="auto"><circle cx="5" cy="5" r="5" class="arrowMarkerPath" style="stroke-width: 0; stroke-dasharray: 1, 0;"></circle></marker><marker id="gbc2bb5bc-6417-44be-a8c1-e61746d196a8-dark_flowchart-v2-circleStart-margin" class="marker flowchart-v2" viewBox="0 0 10 10" refX="-2" refY="5" markerUnits="userSpaceOnUse" markerWidth="14" markerHeight="14" orient="auto"><circle cx="5" cy="5" r="5" class="arrowMarkerPath" style="stroke-width: 0; stroke-dasharray: 1, 0;"></circle></marker><marker id="gbc2bb5bc-6417-44be-a8c1-e61746d196a8-dark_flowchart-v2-crossEnd" class="marker cross flowchart-v2" viewBox="0 0 11 11" refX="12" refY="5.2" markerUnits="userSpaceOnUse" markerWidth="11" markerHeight="11" orient="auto"><path d="M 1,1 l 9,9 M 10,1 l -9,9" class="arrowMarkerPath" style="stroke-width: 2; stroke-dasharray: 1, 0;"></path></marker><marker id="gbc2bb5bc-6417-44be-a8c1-e61746d196a8-dark_flowchart-v2-crossStart" class="marker cross flowchart-v2" viewBox="0 0 11 11" refX="-1" refY="5.2" markerUnits="userSpaceOnUse" markerWidth="11" markerHeight="11" orient="auto"><path d="M 1,1 l 9,9 M 10,1 l -9,9" class="arrowMarkerPath" style="stroke-width: 2; stroke-dasharray: 1, 0;"></path></marker><marker id="gbc2bb5bc-6417-44be-a8c1-e61746d196a8-dark_flowchart-v2-crossEnd-margin" class="marker cross flowchart-v2" viewBox="0 0 15 15" refX="17.7" refY="7.5" markerUnits="userSpaceOnUse" markerWidth="12" markerHeight="12" orient="auto"><path d="M 1,1 L 14,14 M 1,14 L 14,1" class="arrowMarkerPath" style="stroke-width: 2.5;"></path></marker><marker id="gbc2bb5bc-6417-44be-a8c1-e61746d196a8-dark_flowchart-v2-crossStart-margin" class="marker cross flowchart-v2" viewBox="0 0 15 15" refX="-3.5" refY="7.5" markerUnits="userSpaceOnUse" markerWidth="12" markerHeight="12" orient="auto"><path d="M 1,1 L 14,14 M 1,14 L 14,1" class="arrowMarkerPath" style="stroke-width: 2.5; stroke-dasharray: 1, 0;"></path></marker><g class="root"><g class="clusters"></g><g class="edgePaths"><path d="M280.942,42.5L280.859,46.583C280.776,50.667,280.609,58.833,280.526,66.417C280.442,74,280.442,81,280.442,84.5L280.442,88" id="gbc2bb5bc-6417-44be-a8c1-e61746d196a8-dark-L_start_docsQ_0" class="edge-thickness-normal edge-pattern-solid edge-thickness-normal edge-pattern-solid flowchart-link" style=";" data-edge="true" data-et="edge" data-id="L_start_docsQ_0" data-points="W3sieCI6MjgwLjk0MjE4NDQ0ODI0MjIsInkiOjQyLjV9LHsieCI6MjgwLjQ0MjE4NDQ0ODI0MjIsInkiOjY3fSx7IngiOjI4MC40NDIxODQ0NDgyNDIyLCJ5Ijo5MS45OTk5OTk5OTk5OTk5N31d" data-look="classic" marker-end="url(#gbc2bb5bc-6417-44be-a8c1-e61746d196a8-dark_flowchart-v2-pointEnd)"></path><path d="M216.2,298.058L200.989,314.849C185.777,331.639,155.353,365.219,140.141,402.959C124.93,440.698,124.93,482.597,124.93,503.546L124.93,524.495" id="gbc2bb5bc-6417-44be-a8c1-e61746d196a8-dark-L_docsQ_docs_0" class="edge-thickness-normal edge-pattern-solid edge-thickness-normal edge-pattern-solid flowchart-link" style=";" data-edge="true" data-et="edge" data-id="L_docsQ_docs_0" data-points="W3sieCI6MjE2LjIwMDM2Mjc0MTI1MTMsInkiOjI5OC4wNTgxOTY2MDM1NTZ9LHsieCI6MTI0LjkyOTY4NzUsInkiOjM5OC44MDAwMTgzMTA1NDY5fSx7IngiOjEyNC45Mjk2ODc1LCJ5Ijo1MjguNDk1MzIzMTgxMTUyM31d" data-look="classic" marker-end="url(#gbc2bb5bc-6417-44be-a8c1-e61746d196a8-dark_flowchart-v2-pointEnd)"></path><path d="M344.684,298.058L359.896,314.849C375.108,331.639,405.531,365.219,420.743,387.426C435.955,409.633,435.955,420.467,435.955,425.883L435.955,431.3" id="gbc2bb5bc-6417-44be-a8c1-e61746d196a8-dark-L_docsQ_hostQ_0" class="edge-thickness-normal edge-pattern-solid edge-thickness-normal edge-pattern-solid flowchart-link" style=";" data-edge="true" data-et="edge" data-id="L_docsQ_hostQ_0" data-points="W3sieCI6MzQ0LjY4NDAwNjE1NTIzMzEsInkiOjI5OC4wNTgxOTY2MDM1NTZ9LHsieCI6NDM1Ljk1NDY4MTM5NjQ4NDQsInkiOjM5OC44MDAwMTgzMTA1NDY5fSx7IngiOjQzNS45NTQ2ODEzOTY0ODQzLCJ5Ijo0MzUuMzAwMDE4MzEwNTQ2OH1d" data-look="classic" marker-end="url(#gbc2bb5bc-6417-44be-a8c1-e61746d196a8-dark_flowchart-v2-pointEnd)"></path><path d="M495.501,663.944L506.776,679.952C518.05,695.959,540.598,727.975,551.872,749.4C563.146,770.824,563.146,781.657,563.146,787.074L563.146,792.491" id="gbc2bb5bc-6417-44be-a8c1-e61746d196a8-dark-L_hostQ_core_0" class="edge-thickness-normal edge-pattern-solid edge-thickness-normal edge-pattern-solid flowchart-link" style=";" data-edge="true" data-et="edge" data-id="L_hostQ_core_0" data-points="W3sieCI6NDk1LjUwMTM4NjYzNTk3OTc3LCJ5Ijo2NjMuOTQzOTI1ODY0MDIwMn0seyJ4Ijo1NjMuMTQ2MDg3NjQ2NDg0NCwieSI6NzU5Ljk5MDYzMTEwMzUxNTZ9LHsieCI6NTYzLjE0NjA4NzY0NjQ4NDQsInkiOjc5Ni40OTA2MzExMDM1MTU2fV0=" data-look="classic" marker-end="url(#gbc2bb5bc-6417-44be-a8c1-e61746d196a8-dark_flowchart-v2-pointEnd)"></path><path d="M366.894,654.43L350.701,672.023C334.508,689.617,302.122,724.804,285.929,758.43C269.736,792.057,269.736,824.124,269.736,856.191C269.736,888.257,269.736,920.324,269.736,964.248C269.736,1008.173,269.736,1063.955,269.736,1119.738C269.736,1175.52,269.736,1231.302,270.597,1264.618C271.458,1297.934,273.18,1308.784,274.041,1314.209L274.902,1319.634" id="gbc2bb5bc-6417-44be-a8c1-e61746d196a8-dark-L_hostQ_site_0" class="edge-thickness-normal edge-pattern-solid edge-thickness-normal edge-pattern-solid flowchart-link" style=";" data-edge="true" data-et="edge" data-id="L_hostQ_site_0" data-points="W3sieCI6MzY2Ljg5MzYzNDc5NzE4MjIsInkiOjY1NC40Mjk1ODQ1MDQyMTM0fSx7IngiOjI2OS43MzU5MzEzOTY0ODQ0LCJ5Ijo3NTkuOTkwNjMxMTAzNTE1Nn0seyJ4IjoyNjkuNzM1OTMxMzk2NDg0NCwieSI6ODU2LjE5MDYzMTg2NjQ1NTF9LHsieCI6MjY5LjczNTkzMTM5NjQ4NDQsInkiOjk1Mi4zOTA2MzI2MjkzOTQ1fSx7IngiOjI2OS43MzU5MzEzOTY0ODQ0LCJ5IjoxMTE5LjczNzUxMDY4MTE1MjN9LHsieCI6MjY5LjczNTkzMTM5NjQ4NDQsInkiOjEyODcuMDg0Mzg4NzMyOTEwMn0seyJ4IjoyNzUuNTI4Njc2OTMyMTk4NjYsInkiOjEzMjMuNTg0Mzg4NzMyOTEwMn1d" data-look="classic" marker-end="url(#gbc2bb5bc-6417-44be-a8c1-e61746d196a8-dark_flowchart-v2-pointEnd)"></path><path d="M563.146,915.891L563.146,921.974C563.146,928.057,563.146,940.224,563.146,951.724C563.146,963.224,563.146,974.057,563.146,979.474L563.146,984.891" id="gbc2bb5bc-6417-44be-a8c1-e61746d196a8-dark-L_core_siteQ_0" class="edge-thickness-normal edge-pattern-solid edge-thickness-normal edge-pattern-solid flowchart-link" style=";" data-edge="true" data-et="edge" data-id="L_core_siteQ_0" data-points="W3sieCI6NTYzLjE0NjA4NzY0NjQ4NDQsInkiOjkxNS44OTA2MzI2MjkzOTQ1fSx7IngiOjU2My4xNDYwODc2NDY0ODQ0LCJ5Ijo5NTIuMzkwNjMyNjI5Mzk0NX0seyJ4Ijo1NjMuMTQ2MDg3NjQ2NDg0NCwieSI6OTg4Ljg5MDYzMjYyOTM5NDR9XQ==" data-look="classic" marker-end="url(#gbc2bb5bc-6417-44be-a8c1-e61746d196a8-dark_flowchart-v2-pointEnd)"></path><path d="M501.396,1188.834L486.762,1205.209C472.128,1221.584,442.86,1254.334,421.371,1276.368C399.882,1298.402,386.172,1309.72,379.317,1315.379L372.462,1321.038" id="gbc2bb5bc-6417-44be-a8c1-e61746d196a8-dark-L_siteQ_site_0" class="edge-thickness-normal edge-pattern-solid edge-thickness-normal edge-pattern-solid flowchart-link" style=";" data-edge="true" data-et="edge" data-id="L_siteQ_site_0" data-points="W3sieCI6NTAxLjM5NTc5NjQzNzU3MiwieSI6MTE4OC44MzQwOTc1MjM5OTh9LHsieCI6NDEzLjU5MTQwMDE0NjQ4NDQsInkiOjEyODcuMDg0Mzg4NzMyOTEwMn0seyJ4IjozNjkuMzc3MjQ0NjQwNTMyLCJ5IjoxMzIzLjU4NDM4ODczMjkxMDJ9XQ==" data-look="classic" marker-end="url(#gbc2bb5bc-6417-44be-a8c1-e61746d196a8-dark_flowchart-v2-pointEnd)"></path><path d="M578.57,1235.16L579.727,1243.814C580.883,1252.468,583.196,1269.776,584.353,1291.18C585.509,1312.584,585.509,1338.084,585.509,1350.834L585.509,1363.584" id="gbc2bb5bc-6417-44be-a8c1-e61746d196a8-dark-L_siteQ_coreOnly_0" class="edge-thickness-normal edge-pattern-solid edge-thickness-normal edge-pattern-solid flowchart-link" style=";" data-edge="true" data-et="edge" data-id="L_siteQ_coreOnly_0" data-points="W3sieCI6NTc4LjU3MDQ4ODQ1NTIwMTcsInkiOjEyMzUuMTU5OTg3OTI0MTkzfSx7IngiOjU4NS41MDkzNjg4OTY0ODQ0LCJ5IjoxMjg3LjA4NDM4ODczMjkxMDJ9LHsieCI6NTg1LjUwOTM2ODg5NjQ4NDQsInkiOjEzNjcuNTg0Mzg4NzMyOTEwMn1d" data-look="classic" marker-end="url(#gbc2bb5bc-6417-44be-a8c1-e61746d196a8-dark_flowchart-v2-pointEnd)"></path></g><g class="edgeLabels"><g class="edgeLabel"><g class="label" data-id="L_start_docsQ_0" transform="translate(0, 0)"><text y="-10.1" text-anchor="middle"><tspan class="text-outer-tspan row" x="0" y="-0.1em" dy="1.1em" text-anchor="middle"></tspan></text></g></g><g><rect class="background" style="stroke: none"></rect></g><g class="edgeLabel" transform="translate(124.9296875, 398.8000183105469)"><g class="label" data-id="L_docsQ_docs_0" transform="translate(0, -10.5)"><g><rect class="background" style="" x="-13.328125" y="-1" width="26.65625" height="23"></rect><text y="-10.1" text-anchor="middle" style=""><tspan class="text-outer-tspan row" x="0" y="-0.1em" dy="1.1em" text-anchor="middle"><tspan font-style="normal" class="text-inner-tspan" font-weight="normal">Yes</tspan></tspan></text></g></g></g><g class="edgeLabel" transform="translate(435.9546813964844, 398.8000183105469)"><g class="label" data-id="L_docsQ_hostQ_0" transform="translate(0, -10.5)"><g><rect class="background" style="" x="-11.3984375" y="-1" width="22.796875" height="23"></rect><text y="-10.1" text-anchor="middle" style=""><tspan class="text-outer-tspan row" x="0" y="-0.1em" dy="1.1em" text-anchor="middle"><tspan font-style="normal" class="text-inner-tspan" font-weight="normal">No</tspan></tspan></text></g></g></g><g class="edgeLabel" transform="translate(563.1460876464844, 759.9906311035156)"><g class="label" data-id="L_hostQ_core_0" transform="translate(0, -10.5)"><g><rect class="background" style="" x="-13.328125" y="-1" width="26.65625" height="23"></rect><text y="-10.1" text-anchor="middle" style=""><tspan class="text-outer-tspan row" x="0" y="-0.1em" dy="1.1em" text-anchor="middle"><tspan font-style="normal" class="text-inner-tspan" font-weight="normal">Yes</tspan></tspan></text></g></g></g><g class="edgeLabel" transform="translate(269.7359313964844, 952.3906326293945)"><g class="label" data-id="L_hostQ_site_0" transform="translate(0, -10.5)"><g><rect class="background" style="" x="-11.3984375" y="-1" width="22.796875" height="23"></rect><text y="-10.1" text-anchor="middle" style=""><tspan class="text-outer-tspan row" x="0" y="-0.1em" dy="1.1em" text-anchor="middle"><tspan font-style="normal" class="text-inner-tspan" font-weight="normal">No</tspan></tspan></text></g></g></g><g class="edgeLabel"><g class="label" data-id="L_core_siteQ_0" transform="translate(0, 0)"><text y="-10.1" text-anchor="middle"><tspan class="text-outer-tspan row" x="0" y="-0.1em" dy="1.1em" text-anchor="middle"></tspan></text></g></g><g><rect class="background" style="stroke: none"></rect></g><g class="edgeLabel" transform="translate(438.39126, 1259.33414)"><g class="label" data-id="L_siteQ_site_0" transform="translate(0, -10.5)"><g><rect class="background" style="" x="-13.328125" y="-1" width="26.65625" height="23"></rect><text y="-10.1" text-anchor="middle" style=""><tspan class="text-outer-tspan row" x="0" y="-0.1em" dy="1.1em" text-anchor="middle"><tspan font-style="normal" class="text-inner-tspan" font-weight="normal">Yes</tspan></tspan></text></g></g></g><g class="edgeLabel" transform="translate(585.5093688964844, 1287.0843887329102)"><g class="label" data-id="L_siteQ_coreOnly_0" transform="translate(0, -10.5)"><g><rect class="background" style="" x="-11.3984375" y="-1" width="22.796875" height="23"></rect><text y="-10.1" text-anchor="middle" style=""><tspan class="text-outer-tspan row" x="0" y="-0.1em" dy="1.1em" text-anchor="middle"><tspan font-style="normal" class="text-inner-tspan" font-weight="normal">No</tspan></tspan></text></g></g></g></g><g class="nodes"><g class="node default" id="gbc2bb5bc-6417-44be-a8c1-e61746d196a8-dark-flowchart-start-0" data-look="classic" transform="translate(280.4421844482422, 25)"><g class="basic label-container outer-path"><path d="M-30.875 -17 C-13.14642438497778 -17, 4.582151230044438 -17, 30.875 -17 C30.875 -17, 30.875 -17, 30.875 -17 C31.10073311533867 -16.992761178353945, 31.32646623067734 -16.985522356707886, 31.96419373967212 -16.965071676755716 C32.27041610990442 -16.93553077298569, 32.576638480136715 -16.905989869215663, 33.0489117486366 -16.860430234995185 C33.29496278153765 -16.82065061215, 33.5410138144387 -16.78087098930482, 34.124696687923326 -16.686505668848113 C34.34030094913654 -16.637295403175486, 34.55590521034976 -16.58808513750286, 35.18712792646162 -16.4440126716635 C35.54620296898766 -16.337441083865134, 35.9052780115137 -16.230869496066763, 36.23183970640155 -16.133947699181366 C36.63060726331906 -15.987197552068837, 37.029374820236555 -15.840447404956308, 37.25453908294936 -15.757584874882369 C37.50337773133031 -15.647431386780358, 37.75221637971127 -15.537277898678349, 38.25102356499849 -15.316470754341125 C38.56818611332378 -15.151007256032129, 38.88534866164907 -14.985543757723132, 39.21719838406694 -14.812417970097622 C39.53267793207062 -14.62117241413418, 39.84815748007429 -14.42992685817074, 40.149093320579325 -14.247497783161291 C40.4309365691646 -14.050896133745793, 40.712779817749876 -13.854294484330294, 41.042879018350675 -13.624031571755262 C41.32542388608685 -13.398709558570365, 41.60796875382302 -13.173387545385467, 41.8948827202324 -12.944581292275288 C42.157195338457555 -12.70635591281476, 42.41950795668271 -12.468130533354229, 42.70160336025927 -12.21193895166137 C42.923346529326466 -11.98297092414673, 43.14508969839367 -11.754002896632091, 43.45972595028036 -11.42911513444239 C43.67264539795262 -11.179007835746757, 43.88556484562489 -10.928900537051126, 44.16613520195651 -10.59932663159847 C44.39555977439226 -10.291918605543087, 44.62498434682801 -9.984510579487704, 44.81792832814825 -9.725983222076888 C45.025699525783274 -9.40679086813097, 45.2334707234183 -9.087598514185053, 45.41242697109088 -8.812673661278927 C45.58595597452021 -8.50455534397315, 45.75948497794953 -8.196437026667375, 45.947188208341004 -7.863150934094199 C46.13293209443782 -7.477449780331663, 46.318675980534636 -7.091748626569127, 46.42001459126881 -6.881316833080699 C46.56455895830536 -6.524289451925197, 46.70910332534191 -6.167262070769697, 46.828963174845924 -5.871205925162238 C46.90327078929277 -5.647403229758899, 46.977578403739614 -5.42360053435556, 47.172353501623235 -4.836968972727556 C47.24211301243648 -4.570945724033428, 47.31187252324972 -4.304922475339301, 47.448774507091 -3.7828558772573464 C47.50128903101604 -3.5132048958508073, 47.55380355494109 -3.243553914444268, 47.65709031804565 -2.713198215567453 C47.69626726595341 -2.4093495439582826, 47.735444213861165 -2.1055008723491127, 47.796444920136366 -1.632391440430593 C47.81463227948307 -1.3491086380334063, 47.83281963882978 -1.0658258356362196, 47.8662656754117 -0.5448768187181379 C47.8662656754117 -0.2080335595276967, 47.8662656754117 0.12880969966274447, 47.8662656754117 0.5448768187181336 C47.84639485939101 0.854380817674264, 47.82652404337033 1.1638848166303943, 47.796444920136366 1.6323914404305815 C47.75044269713676 1.9891755978491128, 47.70444047413716 2.345959755267644, 47.657090318045654 2.7131982155674415 C47.591042909734696 3.0523376981195107, 47.524995501423746 3.3914771806715795, 47.448774507091 3.782855877257343 C47.349911337663166 4.1598639898543475, 47.251048168235336 4.536872102451351, 47.172353501623235 4.836968972727545 C47.09073013495828 5.08280554820501, 47.00910676829333 5.328642123682474, 46.828963174845924 5.871205925162227 C46.68200060239141 6.234206320452923, 46.5350380299369 6.59720671574362, 46.42001459126881 6.881316833080694 C46.246823185461274 7.2409524929424895, 46.07363177965374 7.600588152804285, 45.947188208341004 7.863150934094196 C45.8151419715133 8.09761239871318, 45.683095734685594 8.332073863332162, 45.41242697109089 8.812673661278923 C45.293180080519114 8.995868907470825, 45.17393318994734 9.179064153662727, 44.817928328148255 9.725983222076879 C44.64392645461324 9.959129880717013, 44.469924581078224 10.192276539357147, 44.16613520195651 10.599326631598467 C43.96949050594442 10.830316680934448, 43.772845809932335 11.06130673027043, 43.45972595028037 11.42911513444238 C43.163055518680245 11.735451712164927, 42.86638508708011 12.041788289887473, 42.70160336025927 12.211938951661365 C42.502049293694405 12.393168675004302, 42.30249522712955 12.574398398347242, 41.89488272023242 12.944581292275275 C41.67335738389546 13.121241852967227, 41.4518320475585 13.297902413659177, 41.042879018350675 13.62403157175526 C40.75368003774183 13.825764261405894, 40.46448105713299 14.027496951056525, 40.14909332057934 14.247497783161286 C39.84813164787092 14.429942517804236, 39.547169975162504 14.612387252447183, 39.21719838406695 14.81241797009762 C38.85724349610719 15.000206204584115, 38.49728860814743 15.18799443907061, 38.25102356499849 15.316470754341124 C37.87384985808986 15.483434365929085, 37.49667615118123 15.650397977517047, 37.254539082949364 15.757584874882367 C36.9014611512926 15.887520817548676, 36.54838321963584 16.017456760214987, 36.23183970640156 16.133947699181363 C35.94167010091318 16.220068514958975, 35.6515004954248 16.306189330736586, 35.18712792646164 16.444012671663497 C34.81426889170134 16.529115313214945, 34.44140985694104 16.614217954766392, 34.12469668792333 16.68650566884811 C33.88954392982908 16.724523343139914, 33.65439117173484 16.762541017431715, 33.04891174863661 16.86043023499518 C32.68501030622354 16.895535369489256, 32.321108863810466 16.93064050398333, 31.96419373967212 16.965071676755716 C31.694571578247224 16.973717934684913, 31.42494941682233 16.98236419261411, 30.875000000000004 17 C30.875000000000004 17, 30.875 17, 30.875 17 C16.662630666116797 17, 2.450261332233591 17, -30.874999999999996 17 C-31.289354348262517 16.986712462543032, -31.703708696525034 16.973424925086064, -31.964193739672112 16.965071676755716 C-32.38490295691518 16.92448636454514, -32.80561217415824 16.88390105233456, -33.048911748636606 16.86043023499518 C-33.27827111847072 16.82334919078888, -33.507630488304834 16.78626814658258, -34.124696687923326 16.68650566884811 C-34.4953473762638 16.60190706795618, -34.86599806460427 16.51730846706425, -35.18712792646162 16.4440126716635 C-35.50472352326431 16.349751965625767, -35.82231912006701 16.255491259588037, -36.231839706401544 16.13394769918137 C-36.54051663947451 16.020351734432225, -36.849193572547485 15.906755769683084, -37.254539082949364 15.757584874882369 C-37.59751364369482 15.605760210819218, -37.94048820444028 15.453935546756068, -38.25102356499848 15.316470754341127 C-38.564583035894216 15.152886979219248, -38.878142506789956 14.98930320409737, -39.21719838406693 14.812417970097624 C-39.56251185272729 14.603086916108529, -39.90782532138764 14.393755862119434, -40.14909332057932 14.247497783161299 C-40.43704457295592 14.046635454712192, -40.72499582533253 13.845773126263083, -41.04287901835067 13.624031571755264 C-41.2218506393394 13.481306466651604, -41.40082226032813 13.338581361547947, -41.8948827202324 12.94458129227529 C-42.19974412546135 12.667714230237124, -42.504605530690306 12.390847168198958, -42.70160336025926 12.211938951661377 C-42.874108685304854 12.03381304060122, -43.04661401035045 11.855687129541064, -43.459725950280365 11.429115134442386 C-43.68268288596353 11.167217231179903, -43.9056398216467 10.905319327917418, -44.16613520195651 10.599326631598473 C-44.30390937084108 10.414721796778135, -44.44168353972566 10.230116961957798, -44.81792832814825 9.72598322207689 C-45.04474706480441 9.377528733214115, -45.271565801460575 9.02907424435134, -45.41242697109088 8.812673661278936 C-45.605162112327726 8.470452901463565, -45.79789725356457 8.128232141648196, -45.947188208341004 7.863150934094201 C-46.065909481732334 7.616623669668783, -46.18463075512367 7.370096405243366, -46.42001459126881 6.881316833080701 C-46.51188078209712 6.654405565622797, -46.603746972925435 6.427494298164892, -46.828963174845924 5.87120592516224 C-46.95731753869513 5.484623031739095, -47.08567190254433 5.09804013831595, -47.172353501623235 4.8369689727275516 C-47.233938629752615 4.6021181880068545, -47.295523757881995 4.367267403286157, -47.448774507091 3.782855877257349 C-47.52200985073938 3.406807865918272, -47.59524519438776 3.0307598545791947, -47.65709031804565 2.713198215567455 C-47.68743008702846 2.4778889586018056, -47.71776985601127 2.2425797016361564, -47.796444920136366 1.6323914404306026 C-47.8196635994944 1.2707417676486654, -47.84288227885243 0.9090920948667284, -47.8662656754117 0.54487681871814 C-47.8662656754117 0.12818005923087128, -47.8662656754117 -0.2885167002563974, -47.8662656754117 -0.5448768187181317 C-47.8522382673995 -0.7633650212280636, -47.838210859387296 -0.9818532237379956, -47.796444920136366 -1.6323914404305793 C-47.75753995685233 -1.9341306530076507, -47.71863499356829 -2.2358698655847222, -47.657090318045654 -2.713198215567447 C-47.5907141775206 -3.054025668561314, -47.52433803699555 -3.394853121555181, -47.448774507091 -3.782855877257341 C-47.346900709833946 -4.171344818581519, -47.24502691257689 -4.559833759905697, -47.172353501623235 -4.836968972727544 C-47.077633051486565 -5.122251876884954, -46.982912601349895 -5.407534781042365, -46.82896317484593 -5.871205925162218 C-46.722395739327375 -6.134429551234258, -46.61582830380881 -6.3976531773062995, -46.42001459126881 -6.881316833080692 C-46.28272202984961 -7.166407774457882, -46.145429468430414 -7.451498715835072, -45.947188208341004 -7.863150934094194 C-45.840217140433225 -8.053088897159665, -45.73324607252544 -8.243026860225136, -45.41242697109088 -8.812673661278929 C-45.211642875216825 -9.12113195062046, -45.010858779342776 -9.429590239961993, -44.81792832814825 -9.725983222076884 C-44.64731772824468 -9.954585883002267, -44.47670712834111 -10.183188543927649, -44.16613520195651 -10.599326631598467 C-43.924279026547424 -10.88342465724022, -43.68242285113834 -11.167522682881971, -43.45972595028037 -11.42911513444238 C-43.28298237842793 -11.611617383297137, -43.1062388065755 -11.794119632151894, -42.70160336025928 -12.21193895166136 C-42.3856469402299 -12.49888221258327, -42.06969052020052 -12.78582547350518, -41.89488272023242 -12.944581292275274 C-41.6287549881609 -13.156811076645935, -41.36262725608938 -13.369040861016595, -41.042879018350675 -13.624031571755259 C-40.70172127303932 -13.862008446403692, -40.36056352772797 -14.099985321052124, -40.14909332057934 -14.247497783161284 C-39.89182808062868 -14.403453483477739, -39.63456284067802 -14.559409183794191, -39.21719838406695 -14.812417970097618 C-38.96491285508959 -14.944035168968512, -38.712627326112234 -15.075652367839407, -38.25102356499849 -15.316470754341124 C-37.90414932639523 -15.470021690112093, -37.55727508779196 -15.623572625883064, -37.25453908294937 -15.757584874882365 C-36.98012967724742 -15.858570072793423, -36.70572027154547 -15.959555270704483, -36.231839706401566 -16.133947699181363 C-35.95718730500654 -16.21546309023553, -35.68253490361152 -16.2969784812897, -35.18712792646164 -16.444012671663494 C-34.94426313147694 -16.499444976277854, -34.70139833649223 -16.554877280892217, -34.12469668792333 -16.68650566884811 C-33.7650293706171 -16.74465389144848, -33.405362053310874 -16.802802114048845, -33.04891174863661 -16.86043023499518 C-32.64636779364365 -16.899263166203415, -32.24382383865068 -16.938096097411652, -31.96419373967212 -16.965071676755716 C-31.691014491860752 -16.973832003521878, -31.41783524404938 -16.98259233028804, -30.875000000000004 -17 C-30.875000000000004 -17, -30.875 -17, -30.875 -17" stroke="none" stroke-width="0" fill="#2d2d2d" style=""></path><path d="M-30.875 -17 C-17.025590999683537 -17, -3.1761819993670777 -17, 30.875 -17 M-30.875 -17 C-14.740529956157943 -17, 1.3939400876841148 -17, 30.875 -17 M30.875 -17 C30.875 -17, 30.875 -17, 30.875 -17 M30.875 -17 C30.875 -17, 30.875 -17, 30.875 -17 M30.875 -17 C31.24960687581669 -16.98798708662061, 31.624213751633377 -16.975974173241216, 31.96419373967212 -16.965071676755716 M30.875 -17 C31.154342959597855 -16.991042014993784, 31.43368591919571 -16.982084029987565, 31.96419373967212 -16.965071676755716 M31.96419373967212 -16.965071676755716 C32.276916658841365 -16.934903672847796, 32.58963957801062 -16.904735668939875, 33.0489117486366 -16.860430234995185 M31.96419373967212 -16.965071676755716 C32.29849257861702 -16.93282226981588, 32.632791417561926 -16.90057286287604, 33.0489117486366 -16.860430234995185 M33.0489117486366 -16.860430234995185 C33.297997426243924 -16.820159994327913, 33.54708310385126 -16.77988975366064, 34.124696687923326 -16.686505668848113 M33.0489117486366 -16.860430234995185 C33.33495661067089 -16.814184720012516, 33.62100147270518 -16.767939205029847, 34.124696687923326 -16.686505668848113 M34.124696687923326 -16.686505668848113 C34.39688860882323 -16.62437963912099, 34.66908052972314 -16.562253609393863, 35.18712792646162 -16.4440126716635 M34.124696687923326 -16.686505668848113 C34.51994977175778 -16.596291731730314, 34.91520285559223 -16.50607779461252, 35.18712792646162 -16.4440126716635 M35.18712792646162 -16.4440126716635 C35.45201801716242 -16.36539468317996, 35.716908107863226 -16.286776694696425, 36.23183970640155 -16.133947699181366 M35.18712792646162 -16.4440126716635 C35.414389748690176 -16.376562555747714, 35.64165157091873 -16.309112439831928, 36.23183970640155 -16.133947699181366 M36.23183970640155 -16.133947699181366 C36.51166538451643 -16.03096926295488, 36.7914910626313 -15.927990826728392, 37.25453908294936 -15.757584874882369 M36.23183970640155 -16.133947699181366 C36.53219007317964 -16.02341598779867, 36.83254043995773 -15.91288427641598, 37.25453908294936 -15.757584874882369 M37.25453908294936 -15.757584874882369 C37.512740990236495 -15.643286549813798, 37.77094289752364 -15.528988224745227, 38.25102356499849 -15.316470754341125 M37.25453908294936 -15.757584874882369 C37.62748294691737 -15.59249368929039, 38.00042681088537 -15.42740250369841, 38.25102356499849 -15.316470754341125 M38.25102356499849 -15.316470754341125 C38.4830281062405 -15.195434133781166, 38.71503264748252 -15.074397513221209, 39.21719838406694 -14.812417970097622 M38.25102356499849 -15.316470754341125 C38.625246711115885 -15.121238778713046, 38.99946985723328 -14.926006803084967, 39.21719838406694 -14.812417970097622 M39.21719838406694 -14.812417970097622 C39.40446607994434 -14.698895192349605, 39.591733775821744 -14.585372414601588, 40.149093320579325 -14.247497783161291 M39.21719838406694 -14.812417970097622 C39.48114822647539 -14.652410024488171, 39.74509806888384 -14.492402078878719, 40.149093320579325 -14.247497783161291 M40.149093320579325 -14.247497783161291 C40.39019265997134 -14.079317321023613, 40.63129199936335 -13.911136858885932, 41.042879018350675 -13.624031571755262 M40.149093320579325 -14.247497783161291 C40.418531984524236 -14.059549035005098, 40.68797064846915 -13.871600286848905, 41.042879018350675 -13.624031571755262 M41.042879018350675 -13.624031571755262 C41.29937852013078 -13.41948004482403, 41.55587802191089 -13.214928517892801, 41.8948827202324 -12.944581292275288 M41.042879018350675 -13.624031571755262 C41.34185044488723 -13.385609815056151, 41.64082187142378 -13.14718805835704, 41.8948827202324 -12.944581292275288 M41.8948827202324 -12.944581292275288 C42.10310492368885 -12.755479396353742, 42.31132712714531 -12.566377500432196, 42.70160336025927 -12.21193895166137 M41.8948827202324 -12.944581292275288 C42.13697922843233 -12.724715649050708, 42.37907573663226 -12.504850005826128, 42.70160336025927 -12.21193895166137 M42.70160336025927 -12.21193895166137 C42.950530135459495 -11.95490161899881, 43.19945691065972 -11.697864286336252, 43.45972595028036 -11.42911513444239 M42.70160336025927 -12.21193895166137 C42.856468269614105 -12.052028218106987, 43.01133317896893 -11.892117484552601, 43.45972595028036 -11.42911513444239 M43.45972595028036 -11.42911513444239 C43.61123234271817 -11.251147104926991, 43.76273873515597 -11.073179075411593, 44.16613520195651 -10.59932663159847 M43.45972595028036 -11.42911513444239 C43.64973156817917 -11.20592372403251, 43.839737186077976 -10.982732313622632, 44.16613520195651 -10.59932663159847 M44.16613520195651 -10.59932663159847 C44.37655459935555 -10.317383808685214, 44.58697399675459 -10.035440985771958, 44.81792832814825 -9.725983222076888 M44.16613520195651 -10.59932663159847 C44.396425869369864 -10.290758117175974, 44.62671653678322 -9.982189602753476, 44.81792832814825 -9.725983222076888 M44.81792832814825 -9.725983222076888 C45.01414165416943 -9.424546862652925, 45.210354980190615 -9.123110503228963, 45.41242697109088 -8.812673661278927 M44.81792832814825 -9.725983222076888 C45.048898703907795 -9.371150700680117, 45.27986907966734 -9.016318179283346, 45.41242697109088 -8.812673661278927 M45.41242697109088 -8.812673661278927 C45.56248142702116 -8.546236780113398, 45.71253588295144 -8.27979989894787, 45.947188208341004 -7.863150934094199 M45.41242697109088 -8.812673661278927 C45.60466924804447 -8.471328031906395, 45.796911524998066 -8.129982402533864, 45.947188208341004 -7.863150934094199 M45.947188208341004 -7.863150934094199 C46.102775042202424 -7.540071544556016, 46.258361876063844 -7.216992155017832, 46.42001459126881 -6.881316833080699 M45.947188208341004 -7.863150934094199 C46.12883743841935 -7.485952421165613, 46.3104866684977 -7.108753908237027, 46.42001459126881 -6.881316833080699 M46.42001459126881 -6.881316833080699 C46.52017091740372 -6.633928771136646, 46.620327243538625 -6.386540709192594, 46.828963174845924 -5.871205925162238 M46.42001459126881 -6.881316833080699 C46.5736342075223 -6.501873410901339, 46.7272538237758 -6.122429988721979, 46.828963174845924 -5.871205925162238 M46.828963174845924 -5.871205925162238 C46.937852955364 -5.543247255472261, 47.04674273588207 -5.215288585782284, 47.172353501623235 -4.836968972727556 M46.828963174845924 -5.871205925162238 C46.934758295532575 -5.5525678778174195, 47.040553416219225 -5.233929830472601, 47.172353501623235 -4.836968972727556 M47.172353501623235 -4.836968972727556 C47.262363682181444 -4.493721143600078, 47.352373862739654 -4.150473314472602, 47.448774507091 -3.7828558772573464 M47.172353501623235 -4.836968972727556 C47.27895822068928 -4.430438976151199, 47.38556293975533 -4.023908979574841, 47.448774507091 -3.7828558772573464 M47.448774507091 -3.7828558772573464 C47.53119073482718 -3.3596659665079622, 47.61360696256336 -2.9364760557585785, 47.65709031804565 -2.713198215567453 M47.448774507091 -3.7828558772573464 C47.490669855495526 -3.567732117785138, 47.53256520390005 -3.3526083583129296, 47.65709031804565 -2.713198215567453 M47.65709031804565 -2.713198215567453 C47.70824375347266 -2.316462271783927, 47.75939718889967 -1.9197263280004009, 47.796444920136366 -1.632391440430593 M47.65709031804565 -2.713198215567453 C47.70178337877768 -2.3665676621729204, 47.746476439509706 -2.0199371087783877, 47.796444920136366 -1.632391440430593 M47.796444920136366 -1.632391440430593 C47.81661489380993 -1.3182278195551784, 47.83678486748349 -1.0040641986797638, 47.8662656754117 -0.5448768187181379 M47.796444920136366 -1.632391440430593 C47.81829015002631 -1.2921343517426112, 47.84013537991625 -0.9518772630546294, 47.8662656754117 -0.5448768187181379 M47.8662656754117 -0.5448768187181379 C47.8662656754117 -0.17610793301211242, 47.8662656754117 0.19266095269391303, 47.8662656754117 0.5448768187181336 M47.8662656754117 -0.5448768187181379 C47.8662656754117 -0.16986279949327343, 47.8662656754117 0.205151219731591, 47.8662656754117 0.5448768187181336 M47.8662656754117 0.5448768187181336 C47.846329676197776 0.8553960985238394, 47.826393676983855 1.165915378329545, 47.796444920136366 1.6323914404305815 M47.8662656754117 0.5448768187181336 C47.85000537462532 0.7981441285444943, 47.83374507383894 1.051411438370855, 47.796444920136366 1.6323914404305815 M47.796444920136366 1.6323914404305815 C47.74180997649965 2.0561292743870214, 47.68717503286294 2.479867108343461, 47.657090318045654 2.7131982155674415 M47.796444920136366 1.6323914404305815 C47.744084150193906 2.038491232300799, 47.691723380251446 2.4445910241710163, 47.657090318045654 2.7131982155674415 M47.657090318045654 2.7131982155674415 C47.59277556318448 3.0434408888512916, 47.52846080832332 3.3736835621351418, 47.448774507091 3.782855877257343 M47.657090318045654 2.7131982155674415 C47.59742988033763 3.019541953960174, 47.5377694426296 3.3258856923529074, 47.448774507091 3.782855877257343 M47.448774507091 3.782855877257343 C47.369710648046976 4.084360638285483, 47.29064678900295 4.385865399313623, 47.172353501623235 4.836968972727545 M47.448774507091 3.782855877257343 C47.38329574822644 4.032554763481533, 47.31781698936187 4.282253649705724, 47.172353501623235 4.836968972727545 M47.172353501623235 4.836968972727545 C47.093062694108546 5.07578025168723, 47.013771886593865 5.314591530646916, 46.828963174845924 5.871205925162227 M47.172353501623235 4.836968972727545 C47.043967849139214 5.223646102533586, 46.9155821966552 5.610323232339625, 46.828963174845924 5.871205925162227 M46.828963174845924 5.871205925162227 C46.72551351108441 6.126728594716351, 46.6220638473229 6.382251264270474, 46.42001459126881 6.881316833080694 M46.828963174845924 5.871205925162227 C46.73214527124672 6.1103480188990815, 46.63532736764752 6.349490112635936, 46.42001459126881 6.881316833080694 M46.42001459126881 6.881316833080694 C46.25632400549566 7.221223836856116, 46.092633419722496 7.561130840631538, 45.947188208341004 7.863150934094196 M46.42001459126881 6.881316833080694 C46.31202438270988 7.105560811773625, 46.20403417415095 7.3298047904665555, 45.947188208341004 7.863150934094196 M45.947188208341004 7.863150934094196 C45.7727916571513 8.172809670297251, 45.59839510596161 8.482468406500306, 45.41242697109089 8.812673661278923 M45.947188208341004 7.863150934094196 C45.74424918891079 8.2234897128966, 45.54131016948058 8.583828491699002, 45.41242697109089 8.812673661278923 M45.41242697109089 8.812673661278923 C45.192505014776216 9.150532843492329, 44.97258305846155 9.488392025705734, 44.817928328148255 9.725983222076879 M45.41242697109089 8.812673661278923 C45.23211563165878 9.089680299020767, 45.05180429222668 9.366686936762612, 44.817928328148255 9.725983222076879 M44.817928328148255 9.725983222076879 C44.6774663815225 9.914189434208804, 44.53700443489675 10.102395646340728, 44.16613520195651 10.599326631598467 M44.817928328148255 9.725983222076879 C44.60671138203771 10.008994687605368, 44.39549443592716 10.292006153133856, 44.16613520195651 10.599326631598467 M44.16613520195651 10.599326631598467 C43.9726058338613 10.8266572394961, 43.7790764657661 11.053987847393733, 43.45972595028037 11.42911513444238 M44.16613520195651 10.599326631598467 C43.917721969202326 10.891126949904905, 43.669308736448144 11.182927268211344, 43.45972595028037 11.42911513444238 M43.45972595028037 11.42911513444238 C43.22723590941349 11.669180189424775, 42.9947458685466 11.90924524440717, 42.70160336025927 12.211938951661365 M43.45972595028037 11.42911513444238 C43.27619083432252 11.618630210182117, 43.09265571836467 11.808145285921851, 42.70160336025927 12.211938951661365 M42.70160336025927 12.211938951661365 C42.500956199860816 12.39416139390229, 42.30030903946237 12.576383836143217, 41.89488272023242 12.944581292275275 M42.70160336025927 12.211938951661365 C42.40460798495914 12.481662293441921, 42.107612609659014 12.75138563522248, 41.89488272023242 12.944581292275275 M41.89488272023242 12.944581292275275 C41.704069867553585 13.096749464543382, 41.51325701487475 13.24891763681149, 41.042879018350675 13.62403157175526 M41.89488272023242 12.944581292275275 C41.584430279906556 13.192158851948749, 41.2739778395807 13.439736411622222, 41.042879018350675 13.62403157175526 M41.042879018350675 13.62403157175526 C40.83373197705993 13.769923493930193, 40.62458493576917 13.915815416105126, 40.14909332057934 14.247497783161286 M41.042879018350675 13.62403157175526 C40.848474339022985 13.759639860411323, 40.6540696596953 13.895248149067386, 40.14909332057934 14.247497783161286 M40.14909332057934 14.247497783161286 C39.95441249327709 14.365514444743441, 39.75973166597484 14.483531106325595, 39.21719838406695 14.81241797009762 M40.14909332057934 14.247497783161286 C39.858683023527014 14.423546211874744, 39.568272726474696 14.599594640588203, 39.21719838406695 14.81241797009762 M39.21719838406695 14.81241797009762 C38.98178977332159 14.93523049153706, 38.746381162576235 15.058043012976501, 38.25102356499849 15.316470754341124 M39.21719838406695 14.81241797009762 C38.97672058293979 14.937875084912273, 38.73624278181264 15.063332199726924, 38.25102356499849 15.316470754341124 M38.25102356499849 15.316470754341124 C37.96294543191743 15.443994398321912, 37.674867298836375 15.571518042302701, 37.254539082949364 15.757584874882367 M38.25102356499849 15.316470754341124 C37.99246987595897 15.43092480275624, 37.73391618691945 15.545378851171355, 37.254539082949364 15.757584874882367 M37.254539082949364 15.757584874882367 C36.99978089356326 15.85133824353534, 36.74502270417716 15.945091612188314, 36.23183970640156 16.133947699181363 M37.254539082949364 15.757584874882367 C36.85333688828739 15.905230991190406, 36.45213469362541 16.052877107498446, 36.23183970640156 16.133947699181363 M36.23183970640156 16.133947699181363 C35.92606401627257 16.2247003189623, 35.62028832614358 16.31545293874323, 35.18712792646164 16.444012671663497 M36.23183970640156 16.133947699181363 C35.88210451307115 16.237747268764338, 35.53236931974073 16.341546838347316, 35.18712792646164 16.444012671663497 M35.18712792646164 16.444012671663497 C34.93833702429091 16.500797571571606, 34.68954612212017 16.557582471479712, 34.12469668792333 16.68650566884811 M35.18712792646164 16.444012671663497 C34.96272023206059 16.495232263513476, 34.73831253765954 16.546451855363454, 34.12469668792333 16.68650566884811 M34.12469668792333 16.68650566884811 C33.804030435263755 16.73834850177418, 33.48336418260418 16.79019133470025, 33.04891174863661 16.86043023499518 M34.12469668792333 16.68650566884811 C33.699261819553506 16.755286679069464, 33.27382695118368 16.824067689290818, 33.04891174863661 16.86043023499518 M33.04891174863661 16.86043023499518 C32.74738549152308 16.889518110380543, 32.44585923440955 16.918605985765907, 31.96419373967212 16.965071676755716 M33.04891174863661 16.86043023499518 C32.784247887414914 16.885962039382377, 32.519584026193215 16.91149384376957, 31.96419373967212 16.965071676755716 M31.96419373967212 16.965071676755716 C31.701049963707405 16.973510185472616, 31.437906187742694 16.98194869418952, 30.875000000000004 17 M31.96419373967212 16.965071676755716 C31.69414891590133 16.973731488643683, 31.42410409213054 16.98239130053165, 30.875000000000004 17 M30.875000000000004 17 C30.875000000000004 17, 30.875 17, 30.875 17 M30.875000000000004 17 C30.875000000000004 17, 30.875 17, 30.875 17 M30.875 17 C16.387823214322925 17, 1.9006464286458495 17, -30.874999999999996 17 M30.875 17 C7.593591243728117 17, -15.687817512543766 17, -30.874999999999996 17 M-30.874999999999996 17 C-31.210933949604993 16.989227252091933, -31.54686789920999 16.978454504183865, -31.964193739672112 16.965071676755716 M-30.874999999999996 17 C-31.30477124785176 16.986218072580378, -31.73454249570353 16.97243614516076, -31.964193739672112 16.965071676755716 M-31.964193739672112 16.965071676755716 C-32.25065172614255 16.937437419317046, -32.53710971261298 16.909803161878376, -33.048911748636606 16.86043023499518 M-31.964193739672112 16.965071676755716 C-32.231166726407906 16.939317113807306, -32.4981397131437 16.913562550858895, -33.048911748636606 16.86043023499518 M-33.048911748636606 16.86043023499518 C-33.43434797378623 16.79811589521556, -33.81978419893586 16.735801555435934, -34.124696687923326 16.68650566884811 M-33.048911748636606 16.86043023499518 C-33.32912845249727 16.815126971427983, -33.60934515635793 16.769823707860784, -34.124696687923326 16.68650566884811 M-34.124696687923326 16.68650566884811 C-34.481545004801866 16.605057369173476, -34.83839332168041 16.52360906949884, -35.18712792646162 16.4440126716635 M-34.124696687923326 16.68650566884811 C-34.45981874062354 16.610016247195052, -34.79494079332376 16.533526825541998, -35.18712792646162 16.4440126716635 M-35.18712792646162 16.4440126716635 C-35.45606062807151 16.364194857482243, -35.724993329681396 16.284377043300985, -36.231839706401544 16.13394769918137 M-35.18712792646162 16.4440126716635 C-35.41105902117468 16.377551098190967, -35.63499011588774 16.311089524718433, -36.231839706401544 16.13394769918137 M-36.231839706401544 16.13394769918137 C-36.475211619819916 16.044384585338104, -36.71858353323828 15.954821471494837, -37.254539082949364 15.757584874882369 M-36.231839706401544 16.13394769918137 C-36.628518904451276 15.98796608743676, -37.025198102501 15.841984475692149, -37.254539082949364 15.757584874882369 M-37.254539082949364 15.757584874882369 C-37.58867523537718 15.60967271199937, -37.922811387805 15.46176054911637, -38.25102356499848 15.316470754341127 M-37.254539082949364 15.757584874882369 C-37.59920773414015 15.605010287232478, -37.94387638533094 15.452435699582587, -38.25102356499848 15.316470754341127 M-38.25102356499848 15.316470754341127 C-38.448411125224155 15.213493790604161, -38.645798685449826 15.110516826867196, -39.21719838406693 14.812417970097624 M-38.25102356499848 15.316470754341127 C-38.57220821009245 15.14890893072419, -38.89339285518641 14.981347107107252, -39.21719838406693 14.812417970097624 M-39.21719838406693 14.812417970097624 C-39.47091949254462 14.658610743107719, -39.7246406010223 14.504803516117812, -40.14909332057932 14.247497783161299 M-39.21719838406693 14.812417970097624 C-39.468993410440376 14.659778345398221, -39.72078843681383 14.507138720698817, -40.14909332057932 14.247497783161299 M-40.14909332057932 14.247497783161299 C-40.34679246504269 14.109591418241678, -40.54449160950607 13.971685053322055, -41.04287901835067 13.624031571755264 M-40.14909332057932 14.247497783161299 C-40.43171175172168 14.050355399951087, -40.71433018286404 13.853213016740876, -41.04287901835067 13.624031571755264 M-41.04287901835067 13.624031571755264 C-41.355446689902884 13.374767171467438, -41.6680143614551 13.125502771179614, -41.8948827202324 12.94458129227529 M-41.04287901835067 13.624031571755264 C-41.332029483482394 13.393441770429744, -41.62117994861412 13.162851969104224, -41.8948827202324 12.94458129227529 M-41.8948827202324 12.94458129227529 C-42.1365769233277 12.725081011902324, -42.378271126423 12.505580731529356, -42.70160336025926 12.211938951661377 M-41.8948827202324 12.94458129227529 C-42.21209274179904 12.656499543605722, -42.52930276336568 12.368417794936153, -42.70160336025926 12.211938951661377 M-42.70160336025926 12.211938951661377 C-42.86134827233049 12.046989214646647, -43.021093184401714 11.882039477631915, -43.459725950280365 11.429115134442386 M-42.70160336025926 12.211938951661377 C-42.97924185454561 11.92525441176642, -43.25688034883196 11.638569871871463, -43.459725950280365 11.429115134442386 M-43.459725950280365 11.429115134442386 C-43.73987099898837 11.100040819525107, -44.02001604769638 10.77096650460783, -44.16613520195651 10.599326631598473 M-43.459725950280365 11.429115134442386 C-43.64039004369367 11.216896810240982, -43.82105413710697 11.00467848603958, -44.16613520195651 10.599326631598473 M-44.16613520195651 10.599326631598473 C-44.39248146953865 10.29604325360758, -44.618827737120796 9.992759875616688, -44.81792832814825 9.72598322207689 M-44.16613520195651 10.599326631598473 C-44.33475642665534 10.373389552211625, -44.50337765135418 10.14745247282478, -44.81792832814825 9.72598322207689 M-44.81792832814825 9.72598322207689 C-45.006503037909766 9.436281828483448, -45.19507774767128 9.146580434890005, -45.41242697109088 8.812673661278936 M-44.81792832814825 9.72598322207689 C-45.009610647874695 9.431507705067196, -45.20129296760114 9.137032188057503, -45.41242697109088 8.812673661278936 M-45.41242697109088 8.812673661278936 C-45.572266643527186 8.52886213734634, -45.7321063159635 8.245050613413746, -45.947188208341004 7.863150934094201 M-45.41242697109088 8.812673661278936 C-45.58347403831264 8.508962273032987, -45.7545211055344 8.205250884787038, -45.947188208341004 7.863150934094201 M-45.947188208341004 7.863150934094201 C-46.045640831781746 7.658711954970822, -46.14409345522249 7.454272975847442, -46.42001459126881 6.881316833080701 M-45.947188208341004 7.863150934094201 C-46.04537663582419 7.6592605635295765, -46.14356506330737 7.455370192964951, -46.42001459126881 6.881316833080701 M-46.42001459126881 6.881316833080701 C-46.50976360579942 6.6596350320109385, -46.59951262033003 6.437953230941176, -46.828963174845924 5.87120592516224 M-46.42001459126881 6.881316833080701 C-46.51885576754603 6.637177216711823, -46.617696943823255 6.393037600342945, -46.828963174845924 5.87120592516224 M-46.828963174845924 5.87120592516224 C-46.9348079739083 5.552418254464919, -47.040652772970674 5.2336305837675985, -47.172353501623235 4.8369689727275516 M-46.828963174845924 5.87120592516224 C-46.93412019690227 5.554489729224683, -47.03927721895862 5.237773533287126, -47.172353501623235 4.8369689727275516 M-47.172353501623235 4.8369689727275516 C-47.26177161887057 4.495978937606297, -47.35118973611791 4.154988902485042, -47.448774507091 3.782855877257349 M-47.172353501623235 4.8369689727275516 C-47.249936252170166 4.541112320315325, -47.32751900271709 4.245255667903099, -47.448774507091 3.782855877257349 M-47.448774507091 3.782855877257349 C-47.5239063387034 3.397069801045906, -47.5990381703158 3.011283724834463, -47.65709031804565 2.713198215567455 M-47.448774507091 3.782855877257349 C-47.52855518550715 3.3731989552427795, -47.608335863923294 2.96354203322821, -47.65709031804565 2.713198215567455 M-47.65709031804565 2.713198215567455 C-47.707817644930195 2.319767085494632, -47.75854497181474 1.9263359554218082, -47.796444920136366 1.6323914404306026 M-47.65709031804565 2.713198215567455 C-47.69670255270727 2.405973545852405, -47.7363147873689 2.098748876137355, -47.796444920136366 1.6323914404306026 M-47.796444920136366 1.6323914404306026 C-47.819528422342785 1.2728472608980599, -47.8426119245492 0.9133030813655172, -47.8662656754117 0.54487681871814 M-47.796444920136366 1.6323914404306026 C-47.81617907242862 1.3250160893578065, -47.83591322472087 1.0176407382850103, -47.8662656754117 0.54487681871814 M-47.8662656754117 0.54487681871814 C-47.8662656754117 0.14477690503902862, -47.8662656754117 -0.2553230086400827, -47.8662656754117 -0.5448768187181317 M-47.8662656754117 0.54487681871814 C-47.8662656754117 0.20979803887410736, -47.8662656754117 -0.12528074096992525, -47.8662656754117 -0.5448768187181317 M-47.8662656754117 -0.5448768187181317 C-47.848410306219506 -0.822988606481058, -47.830554937027316 -1.1011003942439843, -47.796444920136366 -1.6323914404305793 M-47.8662656754117 -0.5448768187181317 C-47.83952702160738 -0.9613529347731428, -47.81278836780307 -1.3778290508281539, -47.796444920136366 -1.6323914404305793 M-47.796444920136366 -1.6323914404305793 C-47.74927616859345 -1.9982229628739483, -47.70210741705053 -2.3640544853173173, -47.657090318045654 -2.713198215567447 M-47.796444920136366 -1.6323914404305793 C-47.76188498190284 -1.900431496738139, -47.7273250436693 -2.168471553045699, -47.657090318045654 -2.713198215567447 M-47.657090318045654 -2.713198215567447 C-47.58884311621278 -3.063633172928057, -47.520595914379896 -3.4140681302886673, -47.448774507091 -3.782855877257341 M-47.657090318045654 -2.713198215567447 C-47.584088810605074 -3.088045527400779, -47.51108730316449 -3.462892839234111, -47.448774507091 -3.782855877257341 M-47.448774507091 -3.782855877257341 C-47.33943308366645 -4.19982211364783, -47.230091660241904 -4.616788350038319, -47.172353501623235 -4.836968972727544 M-47.448774507091 -3.782855877257341 C-47.366102741249314 -4.098119150581671, -47.283430975407626 -4.413382423906001, -47.172353501623235 -4.836968972727544 M-47.172353501623235 -4.836968972727544 C-47.06031680000099 -5.174405667389494, -46.94828009837875 -5.5118423620514445, -46.82896317484593 -5.871205925162218 M-47.172353501623235 -4.836968972727544 C-47.071607349289806 -5.140400331836331, -46.97086119695637 -5.443831690945119, -46.82896317484593 -5.871205925162218 M-46.82896317484593 -5.871205925162218 C-46.70027293531597 -6.189073304857744, -46.571582695786006 -6.50694068455327, -46.42001459126881 -6.881316833080692 M-46.82896317484593 -5.871205925162218 C-46.74673040972892 -6.074322444863602, -46.6644976446119 -6.277438964564987, -46.42001459126881 -6.881316833080692 M-46.42001459126881 -6.881316833080692 C-46.24473010138808 -7.245298826805297, -46.06944561150735 -7.609280820529902, -45.947188208341004 -7.863150934094194 M-46.42001459126881 -6.881316833080692 C-46.23584381423915 -7.263751392206136, -46.05167303720949 -7.646185951331579, -45.947188208341004 -7.863150934094194 M-45.947188208341004 -7.863150934094194 C-45.785065200949866 -8.15101675045183, -45.62294219355872 -8.438882566809468, -45.41242697109088 -8.812673661278929 M-45.947188208341004 -7.863150934094194 C-45.82485355882319 -8.080368492039605, -45.70251890930539 -8.297586049985016, -45.41242697109088 -8.812673661278929 M-45.41242697109088 -8.812673661278929 C-45.231681457398025 -9.090347307277403, -45.05093594370516 -9.368020953275876, -44.81792832814825 -9.725983222076884 M-45.41242697109088 -8.812673661278929 C-45.19125330411511 -9.15245580719916, -44.97007963713934 -9.492237953119394, -44.81792832814825 -9.725983222076884 M-44.81792832814825 -9.725983222076884 C-44.62460085349922 -9.985024425611323, -44.431273378850186 -10.244065629145762, -44.16613520195651 -10.599326631598467 M-44.81792832814825 -9.725983222076884 C-44.628824841599474 -9.979364666370207, -44.43972135505071 -10.232746110663529, -44.16613520195651 -10.599326631598467 M-44.16613520195651 -10.599326631598467 C-44.01354923700732 -10.778562788415154, -43.86096327205813 -10.95779894523184, -43.45972595028037 -11.42911513444238 M-44.16613520195651 -10.599326631598467 C-43.972112259560596 -10.827237019954884, -43.778089317164685 -11.0551474083113, -43.45972595028037 -11.42911513444238 M-43.45972595028037 -11.42911513444238 C-43.22838936366799 -11.66798915320664, -42.99705277705562 -11.906863171970901, -42.70160336025928 -12.21193895166136 M-43.45972595028037 -11.42911513444238 C-43.24497788064921 -11.650860147480964, -43.030229811018046 -11.87260516051955, -42.70160336025928 -12.21193895166136 M-42.70160336025928 -12.21193895166136 C-42.3793004168023 -12.504645957240403, -42.056997473345334 -12.797352962819444, -41.89488272023242 -12.944581292275274 M-42.70160336025928 -12.21193895166136 C-42.43105296347501 -12.457645663649599, -42.160502566690745 -12.703352375637838, -41.89488272023242 -12.944581292275274 M-41.89488272023242 -12.944581292275274 C-41.56434204493649 -13.208178684766997, -41.23380136964056 -13.471776077258719, -41.042879018350675 -13.624031571755259 M-41.89488272023242 -12.944581292275274 C-41.658134587742545 -13.133381627803555, -41.421386455252666 -13.322181963331834, -41.042879018350675 -13.624031571755259 M-41.042879018350675 -13.624031571755259 C-40.78089048384329 -13.806783432126744, -40.5189019493359 -13.98953529249823, -40.14909332057934 -14.247497783161284 M-41.042879018350675 -13.624031571755259 C-40.69057601854252 -13.869782893470365, -40.33827301873438 -14.115534215185473, -40.14909332057934 -14.247497783161284 M-40.14909332057934 -14.247497783161284 C-39.85968212536032 -14.42294055047202, -39.5702709301413 -14.598383317782755, -39.21719838406695 -14.812417970097618 M-40.14909332057934 -14.247497783161284 C-39.91807138283218 -14.387544639459211, -39.68704944508503 -14.527591495757138, -39.21719838406695 -14.812417970097618 M-39.21719838406695 -14.812417970097618 C-38.9451748503856 -14.954332473379788, -38.67315131670425 -15.096246976661957, -38.25102356499849 -15.316470754341124 M-39.21719838406695 -14.812417970097618 C-38.985778950845656 -14.933149340177945, -38.754359517624366 -15.05388071025827, -38.25102356499849 -15.316470754341124 M-38.25102356499849 -15.316470754341124 C-37.85776331142231 -15.490555402948358, -37.46450305784613 -15.66464005155559, -37.25453908294937 -15.757584874882365 M-38.25102356499849 -15.316470754341124 C-37.99913816453672 -15.427972949210622, -37.74725276407495 -15.539475144080122, -37.25453908294937 -15.757584874882365 M-37.25453908294937 -15.757584874882365 C-36.9872419635604 -15.855952685684993, -36.71994484417142 -15.954320496487622, -36.231839706401566 -16.133947699181363 M-37.25453908294937 -15.757584874882365 C-36.871096475757 -15.898695298833763, -36.487653868564635 -16.03980572278516, -36.231839706401566 -16.133947699181363 M-36.231839706401566 -16.133947699181363 C-36.012927661795615 -16.19891964492764, -35.794015617189665 -16.26389159067391, -35.18712792646164 -16.444012671663494 M-36.231839706401566 -16.133947699181363 C-35.816126996324215 -16.257329049411776, -35.40041428624686 -16.38071039964219, -35.18712792646164 -16.444012671663494 M-35.18712792646164 -16.444012671663494 C-34.926112323578394 -16.503587779735607, -34.665096720695146 -16.56316288780772, -34.12469668792333 -16.68650566884811 M-35.18712792646164 -16.444012671663494 C-34.90465451604179 -16.508485384280554, -34.62218110562194 -16.57295809689762, -34.12469668792333 -16.68650566884811 M-34.12469668792333 -16.68650566884811 C-33.73947450754561 -16.748785403528952, -33.35425232716789 -16.8110651382098, -33.04891174863661 -16.86043023499518 M-34.12469668792333 -16.68650566884811 C-33.830806935712786 -16.73401948483644, -33.53691718350225 -16.781533300824776, -33.04891174863661 -16.86043023499518 M-33.04891174863661 -16.86043023499518 C-32.8310614052108 -16.881445995622098, -32.61321106178498 -16.902461756249018, -31.96419373967212 -16.965071676755716 M-33.04891174863661 -16.86043023499518 C-32.73816770707808 -16.890407338959946, -32.427423665519534 -16.92038444292471, -31.96419373967212 -16.965071676755716 M-31.96419373967212 -16.965071676755716 C-31.543251971664443 -16.978570459942276, -31.122310203656767 -16.992069243128835, -30.875000000000004 -17 M-31.96419373967212 -16.965071676755716 C-31.574369724625942 -16.977572574171834, -31.18454570957977 -16.990073471587948, -30.875000000000004 -17 M-30.875000000000004 -17 C-30.875000000000004 -17, -30.875 -17, -30.875 -17 M-30.875000000000004 -17 C-30.875000000000004 -17, -30.875 -17, -30.875 -17" stroke="#555555" stroke-width="1.3" fill="none" stroke-dasharray="0 0" style=""></path></g><g class="label" style="" transform="translate(0, -9.5)"><rect></rect><g><rect class="background" style="stroke: none"></rect><text y="-10.1" style=""><tspan class="text-outer-tspan row" x="0" y="-0.1em" dy="1.1em"><tspan font-style="normal" class="text-inner-tspan" font-weight="normal">Start</tspan><tspan font-style="normal" class="text-inner-tspan" font-weight="normal"> here</tspan></tspan></text></g></g></g><g class="node default" id="gbc2bb5bc-6417-44be-a8c1-e61746d196a8-dark-flowchart-docsQ-1" data-look="classic" transform="translate(280.4421844482422, 227.15000915527344)"><polygon points="135.1500015258789,0 270.3000030517578,-135.1500015258789 135.1500015258789,-270.3000030517578 0,-135.1500015258789" class="label-container" transform="translate(-134.6500015258789, 135.1500015258789)"></polygon><g class="label" style="" transform="translate(0, -35.900001525878906)"><rect></rect><g><rect class="background" style="stroke: none"></rect><text y="-10.1" style=""><tspan class="text-outer-tspan row" x="0" y="-0.1em" dy="1.1em"><tspan font-style="normal" class="text-inner-tspan" font-weight="normal">Need</tspan><tspan font-style="normal" class="text-inner-tspan" font-weight="normal"> built-in</tspan><tspan font-style="normal" class="text-inner-tspan" font-weight="normal"> docs</tspan></tspan><tspan class="text-outer-tspan row" x="0" y="1em" dy="1.1em"><tspan font-style="normal" class="text-inner-tspan" font-weight="normal">navigation,</tspan></tspan><tspan class="text-outer-tspan row" x="0" y="2.1em" dy="1.1em"><tspan font-style="normal" class="text-inner-tspan" font-weight="normal">search,</tspan><tspan font-style="normal" class="text-inner-tspan" font-weight="normal"> and</tspan><tspan font-style="normal" class="text-inner-tspan" font-weight="normal"> the</tspan><tspan font-style="normal" class="text-inner-tspan" font-weight="normal"> default</tspan></tspan><tspan class="text-outer-tspan row" x="0" y="3.2em" dy="1.1em"><tspan font-style="normal" class="text-inner-tspan" font-weight="normal">theme?</tspan></tspan></text></g></g></g><g class="node default" id="gbc2bb5bc-6417-44be-a8c1-e61746d196a8-dark-flowchart-docs-3" data-look="classic" transform="translate(124.9296875, 579.3953247070312)"><rect class="basic label-container" style="" x="-116.9296875" y="-50.900001525878906" width="233.859375" height="101.80000305175781"></rect><g class="label" style="" transform="translate(0, -35.900001525878906)"><rect></rect><g><rect class="background" style="stroke: none"></rect><text y="-10.1" style=""><tspan class="text-outer-tspan row" x="0" y="-0.1em" dy="1.1em"><tspan font-style="normal" class="text-inner-tspan" font-weight="normal">@pagesmith/docs</tspan></tspan><tspan class="text-outer-tspan row" x="0" y="1em" dy="1.1em"><tspan font-style="normal" class="text-inner-tspan" font-weight="normal">Docs</tspan><tspan font-style="normal" class="text-inner-tspan" font-weight="normal"> preset</tspan><tspan font-style="normal" class="text-inner-tspan" font-weight="normal"> with</tspan><tspan font-style="normal" class="text-inner-tspan" font-weight="normal"> config,</tspan></tspan><tspan class="text-outer-tspan row" x="0" y="2.1em" dy="1.1em"><tspan font-style="normal" class="text-inner-tspan" font-weight="normal">navigation,</tspan><tspan font-style="normal" class="text-inner-tspan" font-weight="normal"> search,</tspan><tspan font-style="normal" class="text-inner-tspan" font-weight="normal"> and</tspan></tspan><tspan class="text-outer-tspan row" x="0" y="3.2em" dy="1.1em"><tspan font-style="normal" class="text-inner-tspan" font-weight="normal">theme</tspan></tspan></text></g></g></g><g class="node default" id="gbc2bb5bc-6417-44be-a8c1-e61746d196a8-dark-flowchart-hostQ-5" data-look="classic" transform="translate(435.9546813964844, 579.3953247070312)"><polygon points="144.0953140258789,0 288.1906280517578,-144.0953140258789 144.0953140258789,-288.1906280517578 0,-144.0953140258789" class="label-container" transform="translate(-143.5953140258789, 144.0953140258789)"></polygon><g class="label" style="" transform="translate(0, -35.900001525878906)"><rect></rect><g><rect class="background" style="stroke: none"></rect><text y="-10.1" style=""><tspan class="text-outer-tspan row" x="0" y="-0.1em" dy="1.1em"><tspan font-style="normal" class="text-inner-tspan" font-weight="normal">Does</tspan><tspan font-style="normal" class="text-inner-tspan" font-weight="normal"> the</tspan><tspan font-style="normal" class="text-inner-tspan" font-weight="normal"> host</tspan><tspan font-style="normal" class="text-inner-tspan" font-weight="normal"> app</tspan><tspan font-style="normal" class="text-inner-tspan" font-weight="normal"> already</tspan></tspan><tspan class="text-outer-tspan row" x="0" y="1em" dy="1.1em"><tspan font-style="normal" class="text-inner-tspan" font-weight="normal">own</tspan></tspan><tspan class="text-outer-tspan row" x="0" y="2.1em" dy="1.1em"><tspan font-style="normal" class="text-inner-tspan" font-weight="normal">routing,</tspan><tspan font-style="normal" class="text-inner-tspan" font-weight="normal"> layout,</tspan><tspan font-style="normal" class="text-inner-tspan" font-weight="normal"> and</tspan><tspan font-style="normal" class="text-inner-tspan" font-weight="normal"> build</tspan></tspan><tspan class="text-outer-tspan row" x="0" y="3.2em" dy="1.1em"><tspan font-style="normal" class="text-inner-tspan" font-weight="normal">tooling?</tspan></tspan></text></g></g></g><g class="node default" id="gbc2bb5bc-6417-44be-a8c1-e61746d196a8-dark-flowchart-core-7" data-look="classic" transform="translate(563.1460876464844, 856.1906318664551)"><rect class="basic label-container" style="" x="-111.96875" y="-59.70000076293945" width="223.9375" height="119.4000015258789"></rect><g class="label" style="" transform="translate(0, -44.70000076293945)"><rect></rect><g><rect class="background" style="stroke: none"></rect><text y="-10.1" style=""><tspan class="text-outer-tspan row" x="0" y="-0.1em" dy="1.1em"><tspan font-style="normal" class="text-inner-tspan" font-weight="normal">@pagesmith/core</tspan></tspan><tspan class="text-outer-tspan row" x="0" y="1em" dy="1.1em"><tspan font-style="normal" class="text-inner-tspan" font-weight="normal">Headless</tspan><tspan font-style="normal" class="text-inner-tspan" font-weight="normal"> content</tspan><tspan font-style="normal" class="text-inner-tspan" font-weight="normal"> layer</tspan></tspan><tspan class="text-outer-tspan row" x="0" y="2.1em" dy="1.1em"><tspan font-style="normal" class="text-inner-tspan" font-weight="normal">with</tspan></tspan><tspan class="text-outer-tspan row" x="0" y="3.2em" dy="1.1em"><tspan font-style="normal" class="text-inner-tspan" font-weight="normal">schemas,</tspan><tspan font-style="normal" class="text-inner-tspan" font-weight="normal"> loaders,</tspan><tspan font-style="normal" class="text-inner-tspan" font-weight="normal"> and</tspan></tspan><tspan class="text-outer-tspan row" x="0" y="4.300000000000001em" dy="1.1em"><tspan font-style="normal" class="text-inner-tspan" font-weight="normal">markdown</tspan></tspan></text></g></g></g><g class="node default" id="gbc2bb5bc-6417-44be-a8c1-e61746d196a8-dark-flowchart-site-9" data-look="classic" transform="translate(286.3999938964844, 1392.0843887329102)"><rect class="basic label-container" style="" x="-127.6171875" y="-68.5" width="255.234375" height="137"></rect><g class="label" style="" transform="translate(0, -53.5)"><rect></rect><g><rect class="background" style="stroke: none"></rect><text y="-10.1" style=""><tspan class="text-outer-tspan row" x="0" y="-0.1em" dy="1.1em"><tspan font-style="normal" class="text-inner-tspan" font-weight="normal">@pagesmith/site</tspan><tspan font-style="normal" class="text-inner-tspan" font-weight="normal"> +</tspan></tspan><tspan class="text-outer-tspan row" x="0" y="1em" dy="1.1em"><tspan font-style="normal" class="text-inner-tspan" font-weight="normal">@pagesmith/core</tspan></tspan><tspan class="text-outer-tspan row" x="0" y="2.1em" dy="1.1em"><tspan font-style="normal" class="text-inner-tspan" font-weight="normal">Custom</tspan><tspan font-style="normal" class="text-inner-tspan" font-weight="normal"> site</tspan><tspan font-style="normal" class="text-inner-tspan" font-weight="normal"> shell</tspan><tspan font-style="normal" class="text-inner-tspan" font-weight="normal"> with</tspan></tspan><tspan class="text-outer-tspan row" x="0" y="3.2em" dy="1.1em"><tspan font-style="normal" class="text-inner-tspan" font-weight="normal">shared</tspan></tspan><tspan class="text-outer-tspan row" x="0" y="4.300000000000001em" dy="1.1em"><tspan font-style="normal" class="text-inner-tspan" font-weight="normal">JSX,</tspan><tspan font-style="normal" class="text-inner-tspan" font-weight="normal"> CSS/runtime,</tspan><tspan font-style="normal" class="text-inner-tspan" font-weight="normal"> and</tspan><tspan font-style="normal" class="text-inner-tspan" font-weight="normal"> Vite</tspan></tspan><tspan class="text-outer-tspan row" x="0" y="5.4em" dy="1.1em"><tspan font-style="normal" class="text-inner-tspan" font-weight="normal">SSG</tspan></tspan></text></g></g></g><g class="node default" id="gbc2bb5bc-6417-44be-a8c1-e61746d196a8-dark-flowchart-siteQ-11" data-look="classic" transform="translate(563.1460876464844, 1119.7375106811523)"><polygon points="130.84687423706055,0 261.6937484741211,-130.84687423706055 130.84687423706055,-261.6937484741211 0,-130.84687423706055" class="label-container" transform="translate(-130.34687423706055, 130.84687423706055)"></polygon><g class="label" style="" transform="translate(0, -18.299999237060547)"><rect></rect><g><rect class="background" style="stroke: none"></rect><text y="-10.1" style=""><tspan class="text-outer-tspan row" x="0" y="-0.1em" dy="1.1em"><tspan font-style="normal" class="text-inner-tspan" font-weight="normal">Need</tspan><tspan font-style="normal" class="text-inner-tspan" font-weight="normal"> the</tspan><tspan font-style="normal" class="text-inner-tspan" font-weight="normal"> shared</tspan><tspan font-style="normal" class="text-inner-tspan" font-weight="normal"> Pagesmith</tspan></tspan><tspan class="text-outer-tspan row" x="0" y="1em" dy="1.1em"><tspan font-style="normal" class="text-inner-tspan" font-weight="normal">site</tspan><tspan font-style="normal" class="text-inner-tspan" font-weight="normal"> layer</tspan><tspan font-style="normal" class="text-inner-tspan" font-weight="normal"> too?</tspan></tspan></text></g></g></g><g class="node default" id="gbc2bb5bc-6417-44be-a8c1-e61746d196a8-dark-flowchart-coreOnly-15" data-look="classic" transform="translate(585.5093688964844, 1392.0843887329102)"><rect class="basic label-container" style="" x="-121.4921875" y="-24.5" width="242.984375" height="49"></rect><g class="label" style="" transform="translate(0, -9.5)"><rect></rect><g><rect class="background" style="stroke: none"></rect><text y="-10.1" style=""><tspan class="text-outer-tspan row" x="0" y="-0.1em" dy="1.1em"><tspan font-style="normal" class="text-inner-tspan" font-weight="normal">Stay</tspan><tspan font-style="normal" class="text-inner-tspan" font-weight="normal"> on</tspan><tspan font-style="normal" class="text-inner-tspan" font-weight="normal"> @pagesmith/core</tspan></tspan></text></g></g></g></g></g></g><defs><filter id="gbc2bb5bc-6417-44be-a8c1-e61746d196a8-dark-drop-shadow" height="130%" width="130%"><feDropShadow dx="4" dy="4" stdDeviation="0" flood-opacity="0.06" flood-color="#000000"></feDropShadow></filter></defs><defs><filter id="gbc2bb5bc-6417-44be-a8c1-e61746d196a8-dark-drop-shadow-small" height="150%" width="150%"><feDropShadow dx="2" dy="2" stdDeviation="0" flood-opacity="0.06" flood-color="#000000"></feDropShadow></filter></defs><linearGradient id="gbc2bb5bc-6417-44be-a8c1-e61746d196a8-dark-gradient" gradientUnits="objectBoundingBox" x1="0%" y1="0%" x2="100%" y2="0%"><stop offset="0%" stop-color="#555555" stop-opacity="1"></stop><stop offset="100%" stop-color="#555555" stop-opacity="1"></stop></linearGradient></svg>