<svg id="b4ebb989-7401-410f-9098-a7aa29ab43c6-dark" width="100%" xmlns="http://www.w3.org/2000/svg" xmlns:xlink="http://www.w3.org/1999/xlink" class="flowchart" style="max-width: 715.0015869140625px;" viewBox="0 0 715.0015869140625 1468.5843505859375" role="graphics-document document" aria-roledescription="flowchart-v2"><style>#b4ebb989-7401-410f-9098-a7aa29ab43c6-dark{font-family:"trebuchet ms",verdana,arial,sans-serif;font-size:16px;fill:#e5e5e5;}@keyframes edge-animation-frame{from{stroke-dashoffset:0;}}@keyframes dash{to{stroke-dashoffset:0;}}#b4ebb989-7401-410f-9098-a7aa29ab43c6-dark .edge-animation-slow{stroke-dasharray:9,5!important;stroke-dashoffset:900;animation:dash 50s linear infinite;stroke-linecap:round;}#b4ebb989-7401-410f-9098-a7aa29ab43c6-dark .edge-animation-fast{stroke-dasharray:9,5!important;stroke-dashoffset:900;animation:dash 20s linear infinite;stroke-linecap:round;}#b4ebb989-7401-410f-9098-a7aa29ab43c6-dark .error-icon{fill:#252525;}#b4ebb989-7401-410f-9098-a7aa29ab43c6-dark .error-text{fill:#cccccc;stroke:#cccccc;}#b4ebb989-7401-410f-9098-a7aa29ab43c6-dark .edge-thickness-normal{stroke-width:1px;}#b4ebb989-7401-410f-9098-a7aa29ab43c6-dark .edge-thickness-thick{stroke-width:3.5px;}#b4ebb989-7401-410f-9098-a7aa29ab43c6-dark .edge-pattern-solid{stroke-dasharray:0;}#b4ebb989-7401-410f-9098-a7aa29ab43c6-dark .edge-thickness-invisible{stroke-width:0;fill:none;}#b4ebb989-7401-410f-9098-a7aa29ab43c6-dark .edge-pattern-dashed{stroke-dasharray:3;}#b4ebb989-7401-410f-9098-a7aa29ab43c6-dark .edge-pattern-dotted{stroke-dasharray:2;}#b4ebb989-7401-410f-9098-a7aa29ab43c6-dark .marker{fill:#cccccc;stroke:#cccccc;}#b4ebb989-7401-410f-9098-a7aa29ab43c6-dark .marker.cross{stroke:#cccccc;}#b4ebb989-7401-410f-9098-a7aa29ab43c6-dark svg{font-family:"trebuchet ms",verdana,arial,sans-serif;font-size:16px;}#b4ebb989-7401-410f-9098-a7aa29ab43c6-dark p{margin:0;}#b4ebb989-7401-410f-9098-a7aa29ab43c6-dark .label{font-family:"trebuchet ms",verdana,arial,sans-serif;color:#e5e5e5;}#b4ebb989-7401-410f-9098-a7aa29ab43c6-dark .cluster-label text{fill:#e5e5e5;}#b4ebb989-7401-410f-9098-a7aa29ab43c6-dark .cluster-label span{color:#e5e5e5;}#b4ebb989-7401-410f-9098-a7aa29ab43c6-dark .cluster-label span p{background-color:transparent;}#b4ebb989-7401-410f-9098-a7aa29ab43c6-dark .label text,#b4ebb989-7401-410f-9098-a7aa29ab43c6-dark span{fill:#e5e5e5;color:#e5e5e5;}#b4ebb989-7401-410f-9098-a7aa29ab43c6-dark .node rect,#b4ebb989-7401-410f-9098-a7aa29ab43c6-dark .node circle,#b4ebb989-7401-410f-9098-a7aa29ab43c6-dark .node ellipse,#b4ebb989-7401-410f-9098-a7aa29ab43c6-dark .node polygon,#b4ebb989-7401-410f-9098-a7aa29ab43c6-dark .node path{fill:#2d2d2d;stroke:#555555;stroke-width:1px;}#b4ebb989-7401-410f-9098-a7aa29ab43c6-dark .rough-node .label text,#b4ebb989-7401-410f-9098-a7aa29ab43c6-dark .node .label text,#b4ebb989-7401-410f-9098-a7aa29ab43c6-dark .image-shape .label,#b4ebb989-7401-410f-9098-a7aa29ab43c6-dark .icon-shape .label{text-anchor:middle;}#b4ebb989-7401-410f-9098-a7aa29ab43c6-dark .node .katex path{fill:#000;stroke:#000;stroke-width:1px;}#b4ebb989-7401-410f-9098-a7aa29ab43c6-dark .rough-node .label,#b4ebb989-7401-410f-9098-a7aa29ab43c6-dark .node .label,#b4ebb989-7401-410f-9098-a7aa29ab43c6-dark .image-shape .label,#b4ebb989-7401-410f-9098-a7aa29ab43c6-dark .icon-shape .label{text-align:center;}#b4ebb989-7401-410f-9098-a7aa29ab43c6-dark .node.clickable{cursor:pointer;}#b4ebb989-7401-410f-9098-a7aa29ab43c6-dark .root .anchor path{fill:#cccccc!important;stroke-width:0;stroke:#cccccc;}#b4ebb989-7401-410f-9098-a7aa29ab43c6-dark .arrowheadPath{fill:#cccccc;}#b4ebb989-7401-410f-9098-a7aa29ab43c6-dark .edgePath .path{stroke:#cccccc;stroke-width:1px;}#b4ebb989-7401-410f-9098-a7aa29ab43c6-dark .flowchart-link{stroke:#cccccc;fill:none;}#b4ebb989-7401-410f-9098-a7aa29ab43c6-dark .edgeLabel{background-color:#1e1e1e;text-align:center;}#b4ebb989-7401-410f-9098-a7aa29ab43c6-dark .edgeLabel p{background-color:#1e1e1e;}#b4ebb989-7401-410f-9098-a7aa29ab43c6-dark .edgeLabel rect{opacity:0.5;background-color:#1e1e1e;fill:#1e1e1e;}#b4ebb989-7401-410f-9098-a7aa29ab43c6-dark .labelBkg{background-color:rgba(30, 30, 30, 0.5);}#b4ebb989-7401-410f-9098-a7aa29ab43c6-dark .cluster rect{fill:#1e1e1e;stroke:#555555;stroke-width:1px;}#b4ebb989-7401-410f-9098-a7aa29ab43c6-dark .cluster text{fill:#e5e5e5;}#b4ebb989-7401-410f-9098-a7aa29ab43c6-dark .cluster span{color:#e5e5e5;}#b4ebb989-7401-410f-9098-a7aa29ab43c6-dark div.mermaidTooltip{position:absolute;text-align:center;max-width:200px;padding:2px;font-family:"trebuchet ms",verdana,arial,sans-serif;font-size:12px;background:#252525;border:1px solid #555555;border-radius:2px;pointer-events:none;z-index:100;}#b4ebb989-7401-410f-9098-a7aa29ab43c6-dark .flowchartTitleText{text-anchor:middle;font-size:18px;fill:#e5e5e5;}#b4ebb989-7401-410f-9098-a7aa29ab43c6-dark rect.text{fill:none;stroke-width:0;}#b4ebb989-7401-410f-9098-a7aa29ab43c6-dark .icon-shape,#b4ebb989-7401-410f-9098-a7aa29ab43c6-dark .image-shape{background-color:#1e1e1e;text-align:center;}#b4ebb989-7401-410f-9098-a7aa29ab43c6-dark .icon-shape p,#b4ebb989-7401-410f-9098-a7aa29ab43c6-dark .image-shape p{background-color:#1e1e1e;padding:2px;}#b4ebb989-7401-410f-9098-a7aa29ab43c6-dark .icon-shape .label rect,#b4ebb989-7401-410f-9098-a7aa29ab43c6-dark .image-shape .label rect{opacity:0.5;background-color:#1e1e1e;fill:#1e1e1e;}#b4ebb989-7401-410f-9098-a7aa29ab43c6-dark .label-icon{display:inline-block;height:1em;overflow:visible;vertical-align:-0.125em;}#b4ebb989-7401-410f-9098-a7aa29ab43c6-dark .node .label-icon path{fill:currentColor;stroke:revert;stroke-width:revert;}#b4ebb989-7401-410f-9098-a7aa29ab43c6-dark .node .neo-node{stroke:#555555;}#b4ebb989-7401-410f-9098-a7aa29ab43c6-dark [data-look="neo"].node rect,#b4ebb989-7401-410f-9098-a7aa29ab43c6-dark [data-look="neo"].cluster rect,#b4ebb989-7401-410f-9098-a7aa29ab43c6-dark [data-look="neo"].node polygon{stroke:url(#b4ebb989-7401-410f-9098-a7aa29ab43c6-dark-gradient);filter:drop-shadow( 1px 2px 2px rgba(185,185,185,1));}#b4ebb989-7401-410f-9098-a7aa29ab43c6-dark [data-look="neo"].node path{stroke:url(#b4ebb989-7401-410f-9098-a7aa29ab43c6-dark-gradient);stroke-width:1px;}#b4ebb989-7401-410f-9098-a7aa29ab43c6-dark [data-look="neo"].node .outer-path{filter:drop-shadow( 1px 2px 2px rgba(185,185,185,1));}#b4ebb989-7401-410f-9098-a7aa29ab43c6-dark [data-look="neo"].node .neo-line path{stroke:#555555;filter:none;}#b4ebb989-7401-410f-9098-a7aa29ab43c6-dark [data-look="neo"].node circle{stroke:url(#b4ebb989-7401-410f-9098-a7aa29ab43c6-dark-gradient);filter:drop-shadow( 1px 2px 2px rgba(185,185,185,1));}#b4ebb989-7401-410f-9098-a7aa29ab43c6-dark [data-look="neo"].node circle .state-start{fill:#000000;}#b4ebb989-7401-410f-9098-a7aa29ab43c6-dark [data-look="neo"].icon-shape .icon{fill:url(#b4ebb989-7401-410f-9098-a7aa29ab43c6-dark-gradient);filter:drop-shadow( 1px 2px 2px rgba(185,185,185,1));}#b4ebb989-7401-410f-9098-a7aa29ab43c6-dark [data-look="neo"].icon-shape .icon-neo path{stroke:url(#b4ebb989-7401-410f-9098-a7aa29ab43c6-dark-gradient);filter:drop-shadow( 1px 2px 2px rgba(185,185,185,1));}#b4ebb989-7401-410f-9098-a7aa29ab43c6-dark :root{--mermaid-font-family:"trebuchet ms",verdana,arial,sans-serif;}</style><g><marker id="b4ebb989-7401-410f-9098-a7aa29ab43c6-dark_flowchart-v2-pointEnd" class="marker flowchart-v2" viewBox="0 0 10 10" refX="5" refY="5" markerUnits="userSpaceOnUse" markerWidth="8" markerHeight="8" orient="auto"><path d="M 0 0 L 10 5 L 0 10 z" class="arrowMarkerPath" style="stroke-width: 1; stroke-dasharray: 1, 0;"></path></marker><marker id="b4ebb989-7401-410f-9098-a7aa29ab43c6-dark_flowchart-v2-pointStart" class="marker flowchart-v2" viewBox="0 0 10 10" refX="4.5" refY="5" markerUnits="userSpaceOnUse" markerWidth="8" markerHeight="8" orient="auto"><path d="M 0 5 L 10 10 L 10 0 z" class="arrowMarkerPath" style="stroke-width: 1; stroke-dasharray: 1, 0;"></path></marker><marker id="b4ebb989-7401-410f-9098-a7aa29ab43c6-dark_flowchart-v2-pointEnd-margin" class="marker flowchart-v2" viewBox="0 0 11.5 14" refX="11.5" refY="7" markerUnits="userSpaceOnUse" markerWidth="10.5" markerHeight="14" orient="auto"><path d="M 0 0 L 11.5 7 L 0 14 z" class="arrowMarkerPath" style="stroke-width: 0; stroke-dasharray: 1, 0;"></path></marker><marker id="b4ebb989-7401-410f-9098-a7aa29ab43c6-dark_flowchart-v2-pointStart-margin" class="marker flowchart-v2" viewBox="0 0 11.5 14" refX="1" refY="7" markerUnits="userSpaceOnUse" markerWidth="11.5" markerHeight="14" orient="auto"><polygon points="0,7 11.5,14 11.5,0" class="arrowMarkerPath" style="stroke-width: 0; stroke-dasharray: 1, 0;"></polygon></marker><marker id="b4ebb989-7401-410f-9098-a7aa29ab43c6-dark_flowchart-v2-circleEnd" class="marker flowchart-v2" viewBox="0 0 10 10" refX="11" refY="5" markerUnits="userSpaceOnUse" markerWidth="11" markerHeight="11" orient="auto"><circle cx="5" cy="5" r="5" class="arrowMarkerPath" style="stroke-width: 1; stroke-dasharray: 1, 0;"></circle></marker><marker id="b4ebb989-7401-410f-9098-a7aa29ab43c6-dark_flowchart-v2-circleStart" class="marker flowchart-v2" viewBox="0 0 10 10" refX="-1" refY="5" markerUnits="userSpaceOnUse" markerWidth="11" markerHeight="11" orient="auto"><circle cx="5" cy="5" r="5" class="arrowMarkerPath" style="stroke-width: 1; stroke-dasharray: 1, 0;"></circle></marker><marker id="b4ebb989-7401-410f-9098-a7aa29ab43c6-dark_flowchart-v2-circleEnd-margin" class="marker flowchart-v2" viewBox="0 0 10 10" refY="5" refX="12.25" markerUnits="userSpaceOnUse" markerWidth="14" markerHeight="14" orient="auto"><circle cx="5" cy="5" r="5" class="arrowMarkerPath" style="stroke-width: 0; stroke-dasharray: 1, 0;"></circle></marker><marker id="b4ebb989-7401-410f-9098-a7aa29ab43c6-dark_flowchart-v2-circleStart-margin" class="marker flowchart-v2" viewBox="0 0 10 10" refX="-2" refY="5" markerUnits="userSpaceOnUse" markerWidth="14" markerHeight="14" orient="auto"><circle cx="5" cy="5" r="5" class="arrowMarkerPath" style="stroke-width: 0; stroke-dasharray: 1, 0;"></circle></marker><marker id="b4ebb989-7401-410f-9098-a7aa29ab43c6-dark_flowchart-v2-crossEnd" class="marker cross flowchart-v2" viewBox="0 0 11 11" refX="12" refY="5.2" markerUnits="userSpaceOnUse" markerWidth="11" markerHeight="11" orient="auto"><path d="M 1,1 l 9,9 M 10,1 l -9,9" class="arrowMarkerPath" style="stroke-width: 2; stroke-dasharray: 1, 0;"></path></marker><marker id="b4ebb989-7401-410f-9098-a7aa29ab43c6-dark_flowchart-v2-crossStart" class="marker cross flowchart-v2" viewBox="0 0 11 11" refX="-1" refY="5.2" markerUnits="userSpaceOnUse" markerWidth="11" markerHeight="11" orient="auto"><path d="M 1,1 l 9,9 M 10,1 l -9,9" class="arrowMarkerPath" style="stroke-width: 2; stroke-dasharray: 1, 0;"></path></marker><marker id="b4ebb989-7401-410f-9098-a7aa29ab43c6-dark_flowchart-v2-crossEnd-margin" class="marker cross flowchart-v2" viewBox="0 0 15 15" refX="17.7" refY="7.5" markerUnits="userSpaceOnUse" markerWidth="12" markerHeight="12" orient="auto"><path d="M 1,1 L 14,14 M 1,14 L 14,1" class="arrowMarkerPath" style="stroke-width: 2.5;"></path></marker><marker id="b4ebb989-7401-410f-9098-a7aa29ab43c6-dark_flowchart-v2-crossStart-margin" class="marker cross flowchart-v2" viewBox="0 0 15 15" refX="-3.5" refY="7.5" markerUnits="userSpaceOnUse" markerWidth="12" markerHeight="12" orient="auto"><path d="M 1,1 L 14,14 M 1,14 L 14,1" class="arrowMarkerPath" style="stroke-width: 2.5; stroke-dasharray: 1, 0;"></path></marker><g class="root"><g class="clusters"></g><g class="edgePaths"><path d="M280.942,42.5L280.859,46.583C280.776,50.667,280.609,58.833,280.526,66.417C280.442,74,280.442,81,280.442,84.5L280.442,88" id="b4ebb989-7401-410f-9098-a7aa29ab43c6-dark-L_start_docsQ_0" class="edge-thickness-normal edge-pattern-solid edge-thickness-normal edge-pattern-solid flowchart-link" style=";" data-edge="true" data-et="edge" data-id="L_start_docsQ_0" data-points="W3sieCI6MjgwLjk0MjE4NDQ0ODI0MjIsInkiOjQyLjV9LHsieCI6MjgwLjQ0MjE4NDQ0ODI0MjIsInkiOjY3fSx7IngiOjI4MC40NDIxODQ0NDgyNDIyLCJ5Ijo5MS45OTk5OTk5OTk5OTk5N31d" data-look="classic" marker-end="url(#b4ebb989-7401-410f-9098-a7aa29ab43c6-dark_flowchart-v2-pointEnd)"></path><path d="M216.2,298.058L200.989,314.849C185.777,331.639,155.353,365.219,140.141,402.959C124.93,440.698,124.93,482.597,124.93,503.546L124.93,524.495" id="b4ebb989-7401-410f-9098-a7aa29ab43c6-dark-L_docsQ_docs_0" class="edge-thickness-normal edge-pattern-solid edge-thickness-normal edge-pattern-solid flowchart-link" style=";" data-edge="true" data-et="edge" data-id="L_docsQ_docs_0" data-points="W3sieCI6MjE2LjIwMDM2Mjc0MTI1MTMsInkiOjI5OC4wNTgxOTY2MDM1NTZ9LHsieCI6MTI0LjkyOTY4NzUsInkiOjM5OC44MDAwMTgzMTA1NDY5fSx7IngiOjEyNC45Mjk2ODc1LCJ5Ijo1MjguNDk1MzIzMTgxMTUyM31d" data-look="classic" marker-end="url(#b4ebb989-7401-410f-9098-a7aa29ab43c6-dark_flowchart-v2-pointEnd)"></path><path d="M344.684,298.058L359.896,314.849C375.108,331.639,405.531,365.219,420.743,387.426C435.955,409.633,435.955,420.467,435.955,425.883L435.955,431.3" id="b4ebb989-7401-410f-9098-a7aa29ab43c6-dark-L_docsQ_hostQ_0" class="edge-thickness-normal edge-pattern-solid edge-thickness-normal edge-pattern-solid flowchart-link" style=";" data-edge="true" data-et="edge" data-id="L_docsQ_hostQ_0" data-points="W3sieCI6MzQ0LjY4NDAwNjE1NTIzMzEsInkiOjI5OC4wNTgxOTY2MDM1NTZ9LHsieCI6NDM1Ljk1NDY4MTM5NjQ4NDQsInkiOjM5OC44MDAwMTgzMTA1NDY5fSx7IngiOjQzNS45NTQ2ODEzOTY0ODQzLCJ5Ijo0MzUuMzAwMDE4MzEwNTQ2OH1d" data-look="classic" marker-end="url(#b4ebb989-7401-410f-9098-a7aa29ab43c6-dark_flowchart-v2-pointEnd)"></path><path d="M495.501,663.944L506.776,679.952C518.05,695.959,540.598,727.975,551.872,749.4C563.146,770.824,563.146,781.657,563.146,787.074L563.146,792.491" id="b4ebb989-7401-410f-9098-a7aa29ab43c6-dark-L_hostQ_core_0" class="edge-thickness-normal edge-pattern-solid edge-thickness-normal edge-pattern-solid flowchart-link" style=";" data-edge="true" data-et="edge" data-id="L_hostQ_core_0" data-points="W3sieCI6NDk1LjUwMTM4NjYzNTk3OTc3LCJ5Ijo2NjMuOTQzOTI1ODY0MDIwMn0seyJ4Ijo1NjMuMTQ2MDg3NjQ2NDg0NCwieSI6NzU5Ljk5MDYzMTEwMzUxNTZ9LHsieCI6NTYzLjE0NjA4NzY0NjQ4NDQsInkiOjc5Ni40OTA2MzExMDM1MTU2fV0=" data-look="classic" marker-end="url(#b4ebb989-7401-410f-9098-a7aa29ab43c6-dark_flowchart-v2-pointEnd)"></path><path d="M366.894,654.43L350.701,672.023C334.508,689.617,302.122,724.804,285.929,758.43C269.736,792.057,269.736,824.124,269.736,856.191C269.736,888.257,269.736,920.324,269.736,964.248C269.736,1008.173,269.736,1063.955,269.736,1119.738C269.736,1175.52,269.736,1231.302,270.597,1264.618C271.458,1297.934,273.18,1308.784,274.041,1314.209L274.902,1319.634" id="b4ebb989-7401-410f-9098-a7aa29ab43c6-dark-L_hostQ_site_0" class="edge-thickness-normal edge-pattern-solid edge-thickness-normal edge-pattern-solid flowchart-link" style=";" data-edge="true" data-et="edge" data-id="L_hostQ_site_0" data-points="W3sieCI6MzY2Ljg5MzYzNDc5NzE4MjIsInkiOjY1NC40Mjk1ODQ1MDQyMTM0fSx7IngiOjI2OS43MzU5MzEzOTY0ODQ0LCJ5Ijo3NTkuOTkwNjMxMTAzNTE1Nn0seyJ4IjoyNjkuNzM1OTMxMzk2NDg0NCwieSI6ODU2LjE5MDYzMTg2NjQ1NTF9LHsieCI6MjY5LjczNTkzMTM5NjQ4NDQsInkiOjk1Mi4zOTA2MzI2MjkzOTQ1fSx7IngiOjI2OS43MzU5MzEzOTY0ODQ0LCJ5IjoxMTE5LjczNzUxMDY4MTE1MjN9LHsieCI6MjY5LjczNTkzMTM5NjQ4NDQsInkiOjEyODcuMDg0Mzg4NzMyOTEwMn0seyJ4IjoyNzUuNTI4Njc2OTMyMTk4NjYsInkiOjEzMjMuNTg0Mzg4NzMyOTEwMn1d" data-look="classic" marker-end="url(#b4ebb989-7401-410f-9098-a7aa29ab43c6-dark_flowchart-v2-pointEnd)"></path><path d="M563.146,915.891L563.146,921.974C563.146,928.057,563.146,940.224,563.146,951.724C563.146,963.224,563.146,974.057,563.146,979.474L563.146,984.891" id="b4ebb989-7401-410f-9098-a7aa29ab43c6-dark-L_core_siteQ_0" class="edge-thickness-normal edge-pattern-solid edge-thickness-normal edge-pattern-solid flowchart-link" style=";" data-edge="true" data-et="edge" data-id="L_core_siteQ_0" data-points="W3sieCI6NTYzLjE0NjA4NzY0NjQ4NDQsInkiOjkxNS44OTA2MzI2MjkzOTQ1fSx7IngiOjU2My4xNDYwODc2NDY0ODQ0LCJ5Ijo5NTIuMzkwNjMyNjI5Mzk0NX0seyJ4Ijo1NjMuMTQ2MDg3NjQ2NDg0NCwieSI6OTg4Ljg5MDYzMjYyOTM5NDR9XQ==" data-look="classic" marker-end="url(#b4ebb989-7401-410f-9098-a7aa29ab43c6-dark_flowchart-v2-pointEnd)"></path><path d="M501.396,1188.834L486.762,1205.209C472.128,1221.584,442.86,1254.334,421.371,1276.368C399.882,1298.402,386.172,1309.72,379.317,1315.379L372.462,1321.038" id="b4ebb989-7401-410f-9098-a7aa29ab43c6-dark-L_siteQ_site_0" class="edge-thickness-normal edge-pattern-solid edge-thickness-normal edge-pattern-solid flowchart-link" style=";" data-edge="true" data-et="edge" data-id="L_siteQ_site_0" data-points="W3sieCI6NTAxLjM5NTc5NjQzNzU3MiwieSI6MTE4OC44MzQwOTc1MjM5OTh9LHsieCI6NDEzLjU5MTQwMDE0NjQ4NDQsInkiOjEyODcuMDg0Mzg4NzMyOTEwMn0seyJ4IjozNjkuMzc3MjQ0NjQwNTMyLCJ5IjoxMzIzLjU4NDM4ODczMjkxMDJ9XQ==" data-look="classic" marker-end="url(#b4ebb989-7401-410f-9098-a7aa29ab43c6-dark_flowchart-v2-pointEnd)"></path><path d="M578.57,1235.16L579.727,1243.814C580.883,1252.468,583.196,1269.776,584.353,1291.18C585.509,1312.584,585.509,1338.084,585.509,1350.834L585.509,1363.584" id="b4ebb989-7401-410f-9098-a7aa29ab43c6-dark-L_siteQ_coreOnly_0" class="edge-thickness-normal edge-pattern-solid edge-thickness-normal edge-pattern-solid flowchart-link" style=";" data-edge="true" data-et="edge" data-id="L_siteQ_coreOnly_0" data-points="W3sieCI6NTc4LjU3MDQ4ODQ1NTIwMTcsInkiOjEyMzUuMTU5OTg3OTI0MTkzfSx7IngiOjU4NS41MDkzNjg4OTY0ODQ0LCJ5IjoxMjg3LjA4NDM4ODczMjkxMDJ9LHsieCI6NTg1LjUwOTM2ODg5NjQ4NDQsInkiOjEzNjcuNTg0Mzg4NzMyOTEwMn1d" data-look="classic" marker-end="url(#b4ebb989-7401-410f-9098-a7aa29ab43c6-dark_flowchart-v2-pointEnd)"></path></g><g class="edgeLabels"><g class="edgeLabel"><g class="label" data-id="L_start_docsQ_0" transform="translate(0, 0)"><text y="-10.1" text-anchor="middle"><tspan class="text-outer-tspan row" x="0" y="-0.1em" dy="1.1em" text-anchor="middle"></tspan></text></g></g><g><rect class="background" style="stroke: none"></rect></g><g class="edgeLabel" transform="translate(124.9296875, 398.8000183105469)"><g class="label" data-id="L_docsQ_docs_0" transform="translate(0, -10.5)"><g><rect class="background" style="" x="-13.328125" y="-1" width="26.65625" height="23"></rect><text y="-10.1" text-anchor="middle" style=""><tspan class="text-outer-tspan row" x="0" y="-0.1em" dy="1.1em" text-anchor="middle"><tspan font-style="normal" class="text-inner-tspan" font-weight="normal">Yes</tspan></tspan></text></g></g></g><g class="edgeLabel" transform="translate(435.9546813964844, 398.8000183105469)"><g class="label" data-id="L_docsQ_hostQ_0" transform="translate(0, -10.5)"><g><rect class="background" style="" x="-11.3984375" y="-1" width="22.796875" height="23"></rect><text y="-10.1" text-anchor="middle" style=""><tspan class="text-outer-tspan row" x="0" y="-0.1em" dy="1.1em" text-anchor="middle"><tspan font-style="normal" class="text-inner-tspan" font-weight="normal">No</tspan></tspan></text></g></g></g><g class="edgeLabel" transform="translate(563.1460876464844, 759.9906311035156)"><g class="label" data-id="L_hostQ_core_0" transform="translate(0, -10.5)"><g><rect class="background" style="" x="-13.328125" y="-1" width="26.65625" height="23"></rect><text y="-10.1" text-anchor="middle" style=""><tspan class="text-outer-tspan row" x="0" y="-0.1em" dy="1.1em" text-anchor="middle"><tspan font-style="normal" class="text-inner-tspan" font-weight="normal">Yes</tspan></tspan></text></g></g></g><g class="edgeLabel" transform="translate(269.7359313964844, 952.3906326293945)"><g class="label" data-id="L_hostQ_site_0" transform="translate(0, -10.5)"><g><rect class="background" style="" x="-11.3984375" y="-1" width="22.796875" height="23"></rect><text y="-10.1" text-anchor="middle" style=""><tspan class="text-outer-tspan row" x="0" y="-0.1em" dy="1.1em" text-anchor="middle"><tspan font-style="normal" class="text-inner-tspan" font-weight="normal">No</tspan></tspan></text></g></g></g><g class="edgeLabel"><g class="label" data-id="L_core_siteQ_0" transform="translate(0, 0)"><text y="-10.1" text-anchor="middle"><tspan class="text-outer-tspan row" x="0" y="-0.1em" dy="1.1em" text-anchor="middle"></tspan></text></g></g><g><rect class="background" style="stroke: none"></rect></g><g class="edgeLabel" transform="translate(438.39126, 1259.33414)"><g class="label" data-id="L_siteQ_site_0" transform="translate(0, -10.5)"><g><rect class="background" style="" x="-13.328125" y="-1" width="26.65625" height="23"></rect><text y="-10.1" text-anchor="middle" style=""><tspan class="text-outer-tspan row" x="0" y="-0.1em" dy="1.1em" text-anchor="middle"><tspan font-style="normal" class="text-inner-tspan" font-weight="normal">Yes</tspan></tspan></text></g></g></g><g class="edgeLabel" transform="translate(585.5093688964844, 1287.0843887329102)"><g class="label" data-id="L_siteQ_coreOnly_0" transform="translate(0, -10.5)"><g><rect class="background" style="" x="-11.3984375" y="-1" width="22.796875" height="23"></rect><text y="-10.1" text-anchor="middle" style=""><tspan class="text-outer-tspan row" x="0" y="-0.1em" dy="1.1em" text-anchor="middle"><tspan font-style="normal" class="text-inner-tspan" font-weight="normal">No</tspan></tspan></text></g></g></g></g><g class="nodes"><g class="node default" id="b4ebb989-7401-410f-9098-a7aa29ab43c6-dark-flowchart-start-0" data-look="classic" transform="translate(280.4421844482422, 25)"><g class="basic label-container outer-path"><path d="M-30.875 -17 C-16.340887761523184 -17, -1.8067755230463654 -17, 30.875 -17 C30.875 -17, 30.875 -17, 30.875 -17 C31.13188678246244 -16.99176214088622, 31.388773564924886 -16.983524281772436, 31.96419373967212 -16.965071676755716 C32.36696170643881 -16.926217135401085, 32.769729673205504 -16.887362594046454, 33.0489117486366 -16.860430234995185 C33.37147147877867 -16.80828127931388, 33.69403120892074 -16.75613232363258, 34.124696687923326 -16.686505668848113 C34.36771344953118 -16.631038678843694, 34.610730211139035 -16.575571688839272, 35.18712792646162 -16.4440126716635 C35.452384955192976 -16.365285777898592, 35.71764198392433 -16.286558884133683, 36.23183970640155 -16.133947699181366 C36.48155420009898 -16.042050457165235, 36.73126869379641 -15.950153215149108, 37.25453908294936 -15.757584874882369 C37.55467597085983 -15.624723177848848, 37.854812858770316 -15.491861480815327, 38.25102356499849 -15.316470754341125 C38.617950503119104 -15.125045205751523, 38.98487744123972 -14.93361965716192, 39.21719838406694 -14.812417970097622 C39.47542921263531 -14.655876924286682, 39.733660041203684 -14.499335878475742, 40.149093320579325 -14.247497783161291 C40.36882410794116 -14.094223097890158, 40.588554895302984 -13.940948412619026, 41.042879018350675 -13.624031571755262 C41.335258468511384 -13.39086674079603, 41.627637918672086 -13.157701909836799, 41.8948827202324 -12.944581292275288 C42.13938536745074 -12.722530457257136, 42.38388801466908 -12.500479622238984, 42.70160336025927 -12.21193895166137 C42.95599317565133 -11.949260581476798, 43.210382991043396 -11.686582211292226, 43.45972595028036 -11.42911513444239 C43.69193090960256 -11.156353976386042, 43.924135868924765 -10.883592818329694, 44.16613520195651 -10.59932663159847 C44.42177321263257 -10.256794986394418, 44.67741122330864 -9.914263341190365, 44.81792832814825 -9.725983222076888 C45.0370806236557 -9.389306445546238, 45.256232919163146 -9.052629669015586, 45.41242697109088 -8.812673661278927 C45.540366417761945 -8.585504218440663, 45.668305864433 -8.358334775602401, 45.947188208341004 -7.863150934094199 C46.05070817926474 -7.648189499498524, 46.154228150188466 -7.433228064902847, 46.42001459126881 -6.881316833080699 C46.562579294384776 -6.529179260083244, 46.70514399750074 -6.177041687085788, 46.828963174845924 -5.871205925162238 C46.941104531950316 -5.533454024862637, 47.053245889054715 -5.195702124563036, 47.172353501623235 -4.836968972727556 C47.26825646930315 -4.471249392354926, 47.36415943698306 -4.105529811982295, 47.448774507091 -3.7828558772573464 C47.49587494239394 -3.541005096657277, 47.54297537769688 -3.2991543160572077, 47.65709031804565 -2.713198215567453 C47.687089635198284 -2.480529435766802, 47.71708895235093 -2.2478606559661505, 47.796444920136366 -1.632391440430593 C47.81237496533065 -1.3842681280286246, 47.82830501052493 -1.1361448156266565, 47.8662656754117 -0.5448768187181379 C47.8662656754117 -0.15894803688799253, 47.8662656754117 0.2269807449421528, 47.8662656754117 0.5448768187181336 C47.84698794672826 0.8451430036650994, 47.82771021804483 1.1454091886120652, 47.796444920136366 1.6323914404305815 C47.76639269743752 1.865470545200248, 47.73634047473867 2.0985496499699146, 47.657090318045654 2.7131982155674415 C47.610964259866584 2.9500457755711165, 47.564838201687515 3.186893335574792, 47.448774507091 3.782855877257343 C47.338571118011 4.203109162270376, 47.228367728930984 4.6233624472834105, 47.172353501623235 4.836968972727545 C47.07821970126809 5.120484981212939, 46.98408590091295 5.404000989698332, 46.828963174845924 5.871205925162227 C46.73831614615374 6.095105838572992, 46.64766911746156 6.319005751983756, 46.42001459126881 6.881316833080694 C46.30255451629601 7.125225192004699, 46.185094441323216 7.369133550928703, 45.947188208341004 7.863150934094196 C45.75474463825942 8.204853979798623, 45.56230106817783 8.54655702550305, 45.41242697109089 8.812673661278923 C45.25660352021543 9.052060326278962, 45.100780069339976 9.291446991279, 44.817928328148255 9.725983222076879 C44.68685894460665 9.901604255356148, 44.55578956106504 10.077225288635416, 44.16613520195651 10.599326631598467 C43.93756064752387 10.867823309495648, 43.70898609309123 11.136319987392831, 43.45972595028037 11.42911513444238 C43.22918404056963 11.667168584061518, 42.99864213085888 11.905222033680655, 42.70160336025927 12.211938951661365 C42.499379198159176 12.395593585122544, 42.29715503605908 12.579248218583722, 41.89488272023242 12.944581292275275 C41.57118894958053 13.202718460517161, 41.24749517892864 13.460855628759047, 41.042879018350675 13.62403157175526 C40.723293299857346 13.846960734333427, 40.403707581364024 14.069889896911596, 40.14909332057934 14.247497783161286 C39.84213191179113 14.43357959307417, 39.53517050300292 14.619661402987052, 39.21719838406695 14.81241797009762 C38.86833200125257 14.994421338552296, 38.51946561843819 15.176424707006975, 38.25102356499849 15.316470754341124 C37.861315073747214 15.488983143126408, 37.47160658249594 15.661495531911694, 37.254539082949364 15.757584874882367 C37.01824035233313 15.844544992070663, 36.781941621716896 15.931505109258957, 36.23183970640156 16.133947699181363 C35.99855159204967 16.203186386966703, 35.76526347769779 16.27242507475204, 35.18712792646164 16.444012671663497 C34.887922836590036 16.51230428093101, 34.58871774671842 16.580595890198524, 34.12469668792333 16.68650566884811 C33.825833694640224 16.734823519884994, 33.526970701357115 16.78314137092188, 33.04891174863661 16.86043023499518 C32.72691193246285 16.89149317000003, 32.40491211628908 16.922556105004873, 31.96419373967212 16.965071676755716 C31.5784026247039 16.977443246915897, 31.19261150973568 16.989814817076077, 30.875000000000004 17 C30.875000000000004 17, 30.875000000000004 17, 30.875 17 C14.163899738469794 17, -2.547200523060411 17, -30.874999999999996 17 C-31.283423850851484 16.98690264205199, -31.691847701702972 16.97380528410398, -31.964193739672112 16.965071676755716 C-32.37076781159877 16.925849965013814, -32.77734188352542 16.88662825327191, -33.048911748636606 16.86043023499518 C-33.46426155688841 16.7932796990829, -33.87961136514022 16.72612916317062, -34.124696687923326 16.68650566884811 C-34.414081597012746 16.62045545176146, -34.70346650610217 16.554405234674817, -35.18712792646162 16.4440126716635 C-35.556307088293565 16.334442234292744, -35.9254862501255 16.22487179692199, -36.231839706401544 16.13394769918137 C-36.45501877148732 16.051815740185145, -36.67819783657309 15.969683781188916, -37.254539082949364 15.757584874882369 C-37.566345077874765 15.619557610325103, -37.87815107280016 15.481530345767837, -38.25102356499848 15.316470754341127 C-38.45560876217111 15.20973878801924, -38.66019395934374 15.103006821697354, -39.21719838406693 14.812417970097624 C-39.43513184906034 14.680305422899421, -39.653065314053755 14.54819287570122, -40.14909332057932 14.247497783161299 C-40.441406964077544 14.043592439510617, -40.73372060757576 13.839687095859935, -41.04287901835067 13.624031571755264 C-41.2816268779473 13.433636507074318, -41.52037473754393 13.243241442393373, -41.8948827202324 12.94458129227529 C-42.11936202138518 12.740715130365178, -42.343841322537955 12.536848968455066, -42.70160336025926 12.211938951661377 C-42.877735365364614 12.030068195683548, -43.05386737046997 11.84819743970572, -43.459725950280365 11.429115134442386 C-43.63773771854788 11.2200123822788, -43.8157494868154 11.010909630115215, -44.16613520195651 10.599326631598473 C-44.388880425751225 10.3008683242209, -44.611625649545935 10.002410016843326, -44.81792832814825 9.72598322207689 C-44.961778617568385 9.504990548316254, -45.10562890698852 9.283997874555617, -45.41242697109088 8.812673661278936 C-45.548178831295886 8.5716324871185, -45.68393069150089 8.330591312958065, -45.947188208341004 7.863150934094201 C-46.122624371677574 7.498853987193254, -46.298060535014145 7.134557040292307, -46.42001459126881 6.881316833080701 C-46.56761404847826 6.516743320131982, -46.715213505687714 6.152169807183262, -46.828963174845924 5.87120592516224 C-46.93425187878202 5.554093124383544, -47.03954058271811 5.236980323604848, -47.172353501623235 4.8369689727275516 C-47.26066581458416 4.500195848608994, -47.34897812754508 4.163422724490438, -47.448774507091 3.782855877257349 C-47.520212137648336 3.4160387426940027, -47.59164976820567 3.0492216081306562, -47.65709031804565 2.713198215567455 C-47.68929131989042 2.4634536040664443, -47.72149232173519 2.2137089925654334, -47.796444920136366 1.6323914404306026 C-47.821868453194796 1.2363993915390603, -47.847291986253225 0.840407342647518, -47.8662656754117 0.54487681871814 C-47.8662656754117 0.19257713394658887, -47.8662656754117 -0.15972255082496223, -47.8662656754117 -0.5448768187181317 C-47.83985293903745 -0.95627650772405, -47.8134402026632 -1.3676761967299682, -47.796444920136366 -1.6323914404305793 C-47.767318387738534 -1.858291074023806, -47.7381918553407 -2.084190707617033, -47.657090318045654 -2.713198215567447 C-47.606996337038304 -2.9704202206735673, -47.556902356030946 -3.2276422257796877, -47.448774507091 -3.782855877257341 C-47.35924933490034 -4.124254159275393, -47.269724162709686 -4.465652441293445, -47.172353501623235 -4.836968972727544 C-47.04846120792311 -5.210112821795998, -46.92456891422299 -5.583256670864452, -46.82896317484593 -5.871205925162218 C-46.74281950995246 -6.083982442923553, -46.656675845058984 -6.296758960684888, -46.42001459126881 -6.881316833080692 C-46.272899830269715 -7.186803782046935, -46.12578506927063 -7.492290731013178, -45.947188208341004 -7.863150934094194 C-45.793995805161366 -8.135159558352568, -45.64080340198173 -8.407168182610942, -45.41242697109088 -8.812673661278929 C-45.232653581376226 -9.088853863795041, -45.05288019166157 -9.365034066311152, -44.81792832814825 -9.725983222076884 C-44.64052424766125 -9.963688528085257, -44.46312016717424 -10.201393834093627, -44.16613520195651 -10.599326631598467 C-44.02383864207041 -10.76647626774431, -43.88154208218432 -10.933625903890151, -43.45972595028037 -11.42911513444238 C-43.237765057196455 -11.658307979879753, -43.01580416411254 -11.887500825317126, -42.70160336025928 -12.21193895166136 C-42.41450654779974 -12.472672680571712, -42.1274097353402 -12.733406409482065, -41.89488272023242 -12.944581292275274 C-41.692170762785224 -13.106238683947673, -41.48945880533803 -13.26789607562007, -41.042879018350675 -13.624031571755259 C-40.71455631205492 -13.853055278806298, -40.38623360575915 -14.082078985857336, -40.14909332057934 -14.247497783161284 C-39.8400831518541 -14.434821563387843, -39.531072983128865 -14.6221453436144, -39.21719838406695 -14.812417970097618 C-38.910782566816835 -14.972274905688305, -38.604366749566715 -15.132131841278992, -38.25102356499849 -15.316470754341124 C-37.92602500412858 -15.46033797649846, -37.60102644325867 -15.604205198655798, -37.25453908294937 -15.757584874882365 C-37.028267289784566 -15.840854986400542, -36.80199549661976 -15.924125097918719, -36.231839706401566 -16.133947699181363 C-35.877680032294 -16.23906043143442, -35.52352035818644 -16.344173163687483, -35.18712792646164 -16.444012671663494 C-34.873131065327414 -16.51568040619637, -34.55913420419319 -16.58734814072925, -34.12469668792333 -16.68650566884811 C-33.76967174513222 -16.743903348339025, -33.41464680234112 -16.80130102782994, -33.04891174863661 -16.86043023499518 C-32.726109155057955 -16.891570612970796, -32.40330656147929 -16.922710990946413, -31.96419373967212 -16.965071676755716 C-31.68671564671079 -16.973969859118643, -31.40923755374946 -16.98286804148157, -30.875000000000004 -17 C-30.875000000000004 -17, -30.875000000000004 -17, -30.875 -17" stroke="none" stroke-width="0" fill="#2d2d2d" style=""></path><path d="M-30.875 -17 C-7.248128157769063 -17, 16.378743684461874 -17, 30.875 -17 M-30.875 -17 C-14.767815056717144 -17, 1.3393698865657129 -17, 30.875 -17 M30.875 -17 C30.875 -17, 30.875 -17, 30.875 -17 M30.875 -17 C30.875 -17, 30.875 -17, 30.875 -17 M30.875 -17 C31.135944692331194 -16.99163201161497, 31.396889384662387 -16.98326402322994, 31.96419373967212 -16.965071676755716 M30.875 -17 C31.220674761444126 -16.988914883215593, 31.56634952288825 -16.977829766431185, 31.96419373967212 -16.965071676755716 M31.96419373967212 -16.965071676755716 C32.34047334784182 -16.928772435498022, 32.716752956011526 -16.89247319424033, 33.0489117486366 -16.860430234995185 M31.96419373967212 -16.965071676755716 C32.22693524404639 -16.939725319821623, 32.489676748420656 -16.914378962887525, 33.0489117486366 -16.860430234995185 M33.0489117486366 -16.860430234995185 C33.447447947648136 -16.79599799303338, 33.84598414665968 -16.73156575107158, 34.124696687923326 -16.686505668848113 M33.0489117486366 -16.860430234995185 C33.4551456146676 -16.794753493925974, 33.8613794806986 -16.729076752856766, 34.124696687923326 -16.686505668848113 M34.124696687923326 -16.686505668848113 C34.42658234083617 -16.617602238558746, 34.72846799374902 -16.54869880826938, 35.18712792646162 -16.4440126716635 M34.124696687923326 -16.686505668848113 C34.51730407691817 -16.596895594312684, 34.90991146591302 -16.507285519777255, 35.18712792646162 -16.4440126716635 M35.18712792646162 -16.4440126716635 C35.51987640935275 -16.345254668573844, 35.852624892243874 -16.246496665484187, 36.23183970640155 -16.133947699181366 M35.18712792646162 -16.4440126716635 C35.49637890487628 -16.35222860456154, 35.80562988329095 -16.26044453745958, 36.23183970640155 -16.133947699181366 M36.23183970640155 -16.133947699181366 C36.63259656653325 -15.986465470097093, 37.03335342666496 -15.838983241012821, 37.25453908294936 -15.757584874882369 M36.23183970640155 -16.133947699181366 C36.55050154428992 -16.016677197160707, 36.869163382178286 -15.89940669514005, 37.25453908294936 -15.757584874882369 M37.25453908294936 -15.757584874882369 C37.60229972508783 -15.60364155456059, 37.95006036722631 -15.449698234238811, 38.25102356499849 -15.316470754341125 M37.25453908294936 -15.757584874882369 C37.486566352444676 -15.654873285521195, 37.71859362193999 -15.552161696160022, 38.25102356499849 -15.316470754341125 M38.25102356499849 -15.316470754341125 C38.46653096355916 -15.2040406825511, 38.68203836211983 -15.091610610761075, 39.21719838406694 -14.812417970097622 M38.25102356499849 -15.316470754341125 C38.48966776131726 -15.191970229980528, 38.72831195763602 -15.067469705619931, 39.21719838406694 -14.812417970097622 M39.21719838406694 -14.812417970097622 C39.40553584685666 -14.69824669336071, 39.593873309646376 -14.5840754166238, 40.149093320579325 -14.247497783161291 M39.21719838406694 -14.812417970097622 C39.52215878550917 -14.627549182597097, 39.82711918695141 -14.44268039509657, 40.149093320579325 -14.247497783161291 M40.149093320579325 -14.247497783161291 C40.50155258555109 -14.001637457632661, 40.854011850522845 -13.755777132104031, 41.042879018350675 -13.624031571755262 M40.149093320579325 -14.247497783161291 C40.491991140380854 -14.008307107875124, 40.83488896018239 -13.769116432588955, 41.042879018350675 -13.624031571755262 M41.042879018350675 -13.624031571755262 C41.34325519884523 -13.38448956115672, 41.64363137933978 -13.144947550558175, 41.8948827202324 -12.944581292275288 M41.042879018350675 -13.624031571755262 C41.29689771114544 -13.42145842397274, 41.55091640394021 -13.21888527619022, 41.8948827202324 -12.944581292275288 M41.8948827202324 -12.944581292275288 C42.11846484985234 -12.741529917813443, 42.34204697947228 -12.538478543351598, 42.70160336025927 -12.21193895166137 M41.8948827202324 -12.944581292275288 C42.18331574219698 -12.682634053246627, 42.47174876416155 -12.420686814217966, 42.70160336025927 -12.21193895166137 M42.70160336025927 -12.21193895166137 C42.872745207395255 -12.035220943486504, 43.04388705453123 -11.85850293531164, 43.45972595028036 -11.42911513444239 M42.70160336025927 -12.21193895166137 C43.00296831093661 -11.900754897564417, 43.30433326161395 -11.589570843467461, 43.45972595028036 -11.42911513444239 M43.45972595028036 -11.42911513444239 C43.693045242346656 -11.1550450177375, 43.926364534412954 -10.88097490103261, 44.16613520195651 -10.59932663159847 M43.45972595028036 -11.42911513444239 C43.64001107039573 -11.21734197384093, 43.820296190511094 -11.005568813239474, 44.16613520195651 -10.59932663159847 M44.16613520195651 -10.59932663159847 C44.32883620010641 -10.38132211644346, 44.49153719825631 -10.16331760128845, 44.81792832814825 -9.725983222076888 M44.16613520195651 -10.59932663159847 C44.31993389216307 -10.393250398070597, 44.47373258236963 -10.187174164542721, 44.81792832814825 -9.725983222076888 M44.81792832814825 -9.725983222076888 C44.964661697612826 -9.500561363152594, 45.1113950670774 -9.275139504228298, 45.41242697109088 -8.812673661278927 M44.81792832814825 -9.725983222076888 C45.03438884501855 -9.393441740376664, 45.250849361888854 -9.060900258676442, 45.41242697109088 -8.812673661278927 M45.41242697109088 -8.812673661278927 C45.6180776205261 -8.447520108820326, 45.823728269961315 -8.082366556361727, 45.947188208341004 -7.863150934094199 M45.41242697109088 -8.812673661278927 C45.57300471871161 -8.52755161011818, 45.73358246633234 -8.242429558957436, 45.947188208341004 -7.863150934094199 M45.947188208341004 -7.863150934094199 C46.0580315890463 -7.632982282391232, 46.1688749697516 -7.402813630688266, 46.42001459126881 -6.881316833080699 M45.947188208341004 -7.863150934094199 C46.06243895144672 -7.623830300064304, 46.17768969455245 -7.384509666034409, 46.42001459126881 -6.881316833080699 M46.42001459126881 -6.881316833080699 C46.561606543144784 -6.531581974452879, 46.703198495020764 -6.18184711582506, 46.828963174845924 -5.871205925162238 M46.42001459126881 -6.881316833080699 C46.514853848562716 -6.647062033972453, 46.60969310585662 -6.412807234864208, 46.828963174845924 -5.871205925162238 M46.828963174845924 -5.871205925162238 C46.92888580074424 -5.570254896464915, 47.02880842664255 -5.269303867767592, 47.172353501623235 -4.836968972727556 M46.828963174845924 -5.871205925162238 C46.91588783070607 -5.609402711274591, 47.002812486566214 -5.347599497386943, 47.172353501623235 -4.836968972727556 M47.172353501623235 -4.836968972727556 C47.27370161492783 -4.450484692146974, 47.375049728232426 -4.064000411566391, 47.448774507091 -3.7828558772573464 M47.172353501623235 -4.836968972727556 C47.258191939040884 -4.509629808239944, 47.344030376458534 -4.1822906437523315, 47.448774507091 -3.7828558772573464 M47.448774507091 -3.7828558772573464 C47.51257608908924 -3.455248238165545, 47.576377671087464 -3.1276405990737444, 47.65709031804565 -2.713198215567453 M47.448774507091 -3.7828558772573464 C47.508005649860564 -3.4787164776420867, 47.567236792630126 -3.174577078026827, 47.65709031804565 -2.713198215567453 M47.65709031804565 -2.713198215567453 C47.707677468349615 -2.320854267372588, 47.758264618653584 -1.9285103191777224, 47.796444920136366 -1.632391440430593 M47.65709031804565 -2.713198215567453 C47.699724255307245 -2.3825378171896645, 47.742358192568844 -2.0518774188118756, 47.796444920136366 -1.632391440430593 M47.796444920136366 -1.632391440430593 C47.81754697969222 -1.3037098295723062, 47.838649039248075 -0.9750282187140192, 47.8662656754117 -0.5448768187181379 M47.796444920136366 -1.632391440430593 C47.82410213187415 -1.201608043115148, 47.85175934361193 -0.7708246457997029, 47.8662656754117 -0.5448768187181379 M47.8662656754117 -0.5448768187181379 C47.8662656754117 -0.14343209594523726, 47.8662656754117 0.25801262682766335, 47.8662656754117 0.5448768187181336 M47.8662656754117 -0.5448768187181379 C47.8662656754117 -0.29712759670824557, 47.8662656754117 -0.04937837469835327, 47.8662656754117 0.5448768187181336 M47.8662656754117 0.5448768187181336 C47.85223550380825 0.7634080663924543, 47.83820533220481 0.9819393140667749, 47.796444920136366 1.6323914404305815 M47.8662656754117 0.5448768187181336 C47.85173905231729 0.771140699092633, 47.83721242922288 0.9974045794671323, 47.796444920136366 1.6323914404305815 M47.796444920136366 1.6323914404305815 C47.757444537247956 1.9348707086164187, 47.718444154359545 2.237349976802256, 47.657090318045654 2.7131982155674415 M47.796444920136366 1.6323914404305815 C47.76177532616609 1.9012819649783572, 47.72710573219582 2.170172489526133, 47.657090318045654 2.7131982155674415 M47.657090318045654 2.7131982155674415 C47.585455798906615 3.0810263313854174, 47.513821279767576 3.4488544472033933, 47.448774507091 3.782855877257343 M47.657090318045654 2.7131982155674415 C47.59997398350741 3.006478521879747, 47.54285764896917 3.2997588281920525, 47.448774507091 3.782855877257343 M47.448774507091 3.782855877257343 C47.36460577557323 4.103827729493602, 47.28043704405546 4.424799581729861, 47.172353501623235 4.836968972727545 M47.448774507091 3.782855877257343 C47.382862786591815 4.034205833841102, 47.316951066092635 4.28555579042486, 47.172353501623235 4.836968972727545 M47.172353501623235 4.836968972727545 C47.0534416704048 5.195112462330088, 46.93452983918636 5.55325595193263, 46.828963174845924 5.871205925162227 M47.172353501623235 4.836968972727545 C47.04121322626689 5.231942587735475, 46.91007295091055 5.626916202743404, 46.828963174845924 5.871205925162227 M46.828963174845924 5.871205925162227 C46.69845559229119 6.193562177264875, 46.56794800973646 6.515918429367522, 46.42001459126881 6.881316833080694 M46.828963174845924 5.871205925162227 C46.69780683429102 6.195164622068169, 46.56665049373613 6.519123318974111, 46.42001459126881 6.881316833080694 M46.42001459126881 6.881316833080694 C46.23704641738085 7.261254161050801, 46.0540782434929 7.641191489020907, 45.947188208341004 7.863150934094196 M46.42001459126881 6.881316833080694 C46.28790795400253 7.155639091993346, 46.15580131673625 7.429961350905998, 45.947188208341004 7.863150934094196 M45.947188208341004 7.863150934094196 C45.83832650357133 8.056445914355699, 45.72946479880166 8.249740894617203, 45.41242697109089 8.812673661278923 M45.947188208341004 7.863150934094196 C45.76341825956785 8.189453086866106, 45.579648310794695 8.515755239638017, 45.41242697109089 8.812673661278923 M45.41242697109089 8.812673661278923 C45.20010825001528 9.13885223241059, 44.98778952893968 9.465030803542259, 44.817928328148255 9.725983222076879 M45.41242697109089 8.812673661278923 C45.20826616220214 9.126319488585422, 45.004105353313406 9.439965315891918, 44.817928328148255 9.725983222076879 M44.817928328148255 9.725983222076879 C44.61489811809272 9.99802520711865, 44.41186790803719 10.270067192160422, 44.16613520195651 10.599326631598467 M44.817928328148255 9.725983222076879 C44.61936901059429 9.992034618473236, 44.42080969304032 10.258086014869592, 44.16613520195651 10.599326631598467 M44.16613520195651 10.599326631598467 C43.987414102379915 10.80926260467979, 43.808693002803324 11.01919857776111, 43.45972595028037 11.42911513444238 M44.16613520195651 10.599326631598467 C43.962645039062856 10.838357755851636, 43.759154876169205 11.077388880104804, 43.45972595028037 11.42911513444238 M43.45972595028037 11.42911513444238 C43.235228759240044 11.660926915753679, 43.01073156819972 11.89273869706498, 42.70160336025927 12.211938951661365 M43.45972595028037 11.42911513444238 C43.203639573838174 11.693545343201466, 42.947553197395976 11.95797555196055, 42.70160336025927 12.211938951661365 M42.70160336025927 12.211938951661365 C42.44177042964638 12.447912344441377, 42.18193749903349 12.68388573722139, 41.89488272023242 12.944581292275275 M42.70160336025927 12.211938951661365 C42.404020902448536 12.4821954662447, 42.10643844463781 12.752451980828035, 41.89488272023242 12.944581292275275 M41.89488272023242 12.944581292275275 C41.650308874535256 13.139622425835393, 41.405735028838095 13.334663559395509, 41.042879018350675 13.62403157175526 M41.89488272023242 12.944581292275275 C41.615287611124124 13.167550951450812, 41.33569250201583 13.390520610626348, 41.042879018350675 13.62403157175526 M41.042879018350675 13.62403157175526 C40.859008893200375 13.75229141145068, 40.675138768050076 13.880551251146098, 40.14909332057934 14.247497783161286 M41.042879018350675 13.62403157175526 C40.686920899228106 13.872332546476542, 40.33096278010553 14.120633521197826, 40.14909332057934 14.247497783161286 M40.14909332057934 14.247497783161286 C39.919066083024795 14.386941646356943, 39.68903884547026 14.526385509552602, 39.21719838406695 14.81241797009762 M40.14909332057934 14.247497783161286 C39.93853804765148 14.375137626970288, 39.72798277472361 14.50277747077929, 39.21719838406695 14.81241797009762 M39.21719838406695 14.81241797009762 C38.902778758568545 14.976450487324753, 38.58835913307015 15.140483004551886, 38.25102356499849 15.316470754341124 M39.21719838406695 14.81241797009762 C38.95378726039587 14.949839384593941, 38.690376136724794 15.087260799090265, 38.25102356499849 15.316470754341124 M38.25102356499849 15.316470754341124 C37.96138428513046 15.444685471694733, 37.67174500526243 15.57290018904834, 37.254539082949364 15.757584874882367 M38.25102356499849 15.316470754341124 C37.87539384369694 15.482750889301537, 37.49976412239538 15.649031024261951, 37.254539082949364 15.757584874882367 M37.254539082949364 15.757584874882367 C37.03407535351823 15.838717565257397, 36.8136116240871 15.91985025563243, 36.23183970640156 16.133947699181363 M37.254539082949364 15.757584874882367 C37.0465715750618 15.83411884021556, 36.83860406717424 15.910652805548752, 36.23183970640156 16.133947699181363 M36.23183970640156 16.133947699181363 C35.93282808388916 16.222692779199008, 35.63381646137676 16.311437859216653, 35.18712792646164 16.444012671663497 M36.23183970640156 16.133947699181363 C35.89486424128027 16.23396024840905, 35.55788877615897 16.333972797636743, 35.18712792646164 16.444012671663497 M35.18712792646164 16.444012671663497 C34.94188185627576 16.499988486803254, 34.69663578608987 16.55596430194301, 34.12469668792333 16.68650566884811 M35.18712792646164 16.444012671663497 C34.85256101539843 16.520375385860547, 34.517994104335216 16.596738100057593, 34.12469668792333 16.68650566884811 M34.12469668792333 16.68650566884811 C33.76792022085583 16.74418652120076, 33.41114375378832 16.801867373553407, 33.04891174863661 16.86043023499518 M34.12469668792333 16.68650566884811 C33.88899953972883 16.724611355909513, 33.653302391534325 16.762717042970916, 33.04891174863661 16.86043023499518 M33.04891174863661 16.86043023499518 C32.70148461122066 16.893946113099435, 32.3540574738047 16.927461991203685, 31.96419373967212 16.965071676755716 M33.04891174863661 16.86043023499518 C32.641009358880346 16.899780087960572, 32.23310696912408 16.939129940925962, 31.96419373967212 16.965071676755716 M31.96419373967212 16.965071676755716 C31.706036324524646 16.97335028258657, 31.44787890937717 16.981628888417426, 30.875000000000004 17 M31.96419373967212 16.965071676755716 C31.726922648462935 16.972680498830634, 31.489651557253747 16.98028932090555, 30.875000000000004 17 M30.875000000000004 17 C30.875000000000004 17, 30.875 17, 30.875 17 M30.875000000000004 17 C30.875000000000004 17, 30.875 17, 30.875 17 M30.875 17 C16.016544710392335 17, 1.1580894207846697 17, -30.874999999999996 17 M30.875 17 C9.478771019064947 17, -11.917457961870106 17, -30.874999999999996 17 M-30.874999999999996 17 C-31.09662294422063 16.992892983541736, -31.318245888441268 16.985785967083473, -31.964193739672112 16.965071676755716 M-30.874999999999996 17 C-31.14995144566514 16.99118284229804, -31.424902891330284 16.982365684596083, -31.964193739672112 16.965071676755716 M-31.964193739672112 16.965071676755716 C-32.32018537877389 16.930729591474154, -32.67617701787567 16.89638750619259, -33.048911748636606 16.86043023499518 M-31.964193739672112 16.965071676755716 C-32.26421478145372 16.93612900768314, -32.56423582323533 16.90718633861056, -33.048911748636606 16.86043023499518 M-33.048911748636606 16.86043023499518 C-33.47619348118407 16.791350638096233, -33.90347521373154 16.72227104119728, -34.124696687923326 16.68650566884811 M-33.048911748636606 16.86043023499518 C-33.43911841206572 16.79734464774983, -33.82932507549483 16.734259060504485, -34.124696687923326 16.68650566884811 M-34.124696687923326 16.68650566884811 C-34.368859747193454 16.630777043882567, -34.61302280646358 16.575048418917028, -35.18712792646162 16.4440126716635 M-34.124696687923326 16.68650566884811 C-34.473287672744284 16.60694205133149, -34.82187865756525 16.52737843381487, -35.18712792646162 16.4440126716635 M-35.18712792646162 16.4440126716635 C-35.43301131228935 16.37103577341806, -35.67889469811708 16.29805887517262, -36.231839706401544 16.13394769918137 M-35.18712792646162 16.4440126716635 C-35.601060066406596 16.321159785301973, -36.01499220635158 16.198306898940444, -36.231839706401544 16.13394769918137 M-36.231839706401544 16.13394769918137 C-36.52459072222168 16.026212619198834, -36.817341738041826 15.918477539216298, -37.254539082949364 15.757584874882369 M-36.231839706401544 16.13394769918137 C-36.54756727666922 16.0177570347692, -36.863294846936896 15.90156637035703, -37.254539082949364 15.757584874882369 M-37.254539082949364 15.757584874882369 C-37.535113086691936 15.63338308635764, -37.81568709043451 15.50918129783291, -38.25102356499848 15.316470754341127 M-37.254539082949364 15.757584874882369 C-37.537056858984414 15.632522636023714, -37.81957463501947 15.50746039716506, -38.25102356499848 15.316470754341127 M-38.25102356499848 15.316470754341127 C-38.61680536332282 15.125642624449743, -38.98258716164716 14.93481449455836, -39.21719838406693 14.812417970097624 M-38.25102356499848 15.316470754341127 C-38.59314759945188 15.13798486470769, -38.93527163390529 14.959498975074254, -39.21719838406693 14.812417970097624 M-39.21719838406693 14.812417970097624 C-39.445249235129346 14.67417220400803, -39.673300086191766 14.535926437918437, -40.14909332057932 14.247497783161299 M-39.21719838406693 14.812417970097624 C-39.48754256256883 14.648533740371038, -39.75788674107072 14.484649510644454, -40.14909332057932 14.247497783161299 M-40.14909332057932 14.247497783161299 C-40.48139875277443 14.015695898932295, -40.81370418496955 13.78389401470329, -41.04287901835067 13.624031571755264 M-40.14909332057932 14.247497783161299 C-40.43058197056314 14.05114348637985, -40.71207062054695 13.854789189598401, -41.04287901835067 13.624031571755264 M-41.04287901835067 13.624031571755264 C-41.331438984582576 13.393912677588515, -41.619998950814484 13.163793783421767, -41.8948827202324 12.94458129227529 M-41.04287901835067 13.624031571755264 C-41.27455586799807 13.439275449341352, -41.506232717645474 13.254519326927442, -41.8948827202324 12.94458129227529 M-41.8948827202324 12.94458129227529 C-42.14420462741898 12.718153732864618, -42.39352653460555 12.491726173453946, -42.70160336025926 12.211938951661377 M-41.8948827202324 12.94458129227529 C-42.19762399718948 12.669639674638118, -42.50036527414656 12.394698057000946, -42.70160336025926 12.211938951661377 M-42.70160336025926 12.211938951661377 C-42.98435720083885 11.91997239674091, -43.26711104141844 11.628005841820443, -43.459725950280365 11.429115134442386 M-42.70160336025926 12.211938951661377 C-42.97114795865574 11.933612023793923, -43.24069255705222 11.65528509592647, -43.459725950280365 11.429115134442386 M-43.459725950280365 11.429115134442386 C-43.69373970737014 11.15422925960474, -43.92775346445991 10.879343384767095, -44.16613520195651 10.599326631598473 M-43.459725950280365 11.429115134442386 C-43.655967413205225 11.198598745635275, -43.852208876130085 10.968082356828164, -44.16613520195651 10.599326631598473 M-44.16613520195651 10.599326631598473 C-44.34807967078646 10.355537618848437, -44.530024139616415 10.1117486060984, -44.81792832814825 9.72598322207689 M-44.16613520195651 10.599326631598473 C-44.35330798200086 10.348532158130094, -44.540480762045206 10.097737684661716, -44.81792832814825 9.72598322207689 M-44.81792832814825 9.72598322207689 C-45.018511343843976 9.417833845886861, -45.219094359539696 9.10968446969683, -45.41242697109088 8.812673661278936 M-44.81792832814825 9.72598322207689 C-44.945648835039314 9.52977022573397, -45.07336934193039 9.33355722939105, -45.41242697109088 8.812673661278936 M-45.41242697109088 8.812673661278936 C-45.605900027265214 8.469142658770066, -45.79937308343955 8.125611656261198, -45.947188208341004 7.863150934094201 M-45.41242697109088 8.812673661278936 C-45.613784225030486 8.455143467276224, -45.8151414789701 8.097613273273513, -45.947188208341004 7.863150934094201 M-45.947188208341004 7.863150934094201 C-46.063065820867976 7.62252859229822, -46.17894343339495 7.381906250502238, -46.42001459126881 6.881316833080701 M-45.947188208341004 7.863150934094201 C-46.131449530447 7.480528356180396, -46.31571085255299 7.0979057782665915, -46.42001459126881 6.881316833080701 M-46.42001459126881 6.881316833080701 C-46.535582911131605 6.595860848658131, -46.6511512309944 6.310404864235562, -46.828963174845924 5.87120592516224 M-46.42001459126881 6.881316833080701 C-46.50430813455961 6.673110151447644, -46.5886016778504 6.464903469814587, -46.828963174845924 5.87120592516224 M-46.828963174845924 5.87120592516224 C-46.94404748552761 5.524590317583809, -47.05913179620929 5.177974710005378, -47.172353501623235 4.8369689727275516 M-46.828963174845924 5.87120592516224 C-46.90902070406543 5.630085402588146, -46.989078233284935 5.388964880014052, -47.172353501623235 4.8369689727275516 M-47.172353501623235 4.8369689727275516 C-47.27312613801989 4.45267923501022, -47.37389877441654 4.068389497292888, -47.448774507091 3.782855877257349 M-47.172353501623235 4.8369689727275516 C-47.25624090080294 4.517069962626532, -47.34012829998265 4.197170952525512, -47.448774507091 3.782855877257349 M-47.448774507091 3.782855877257349 C-47.52302626846246 3.4015887757302363, -47.597278029833916 3.020321674203124, -47.65709031804565 2.713198215567455 M-47.448774507091 3.782855877257349 C-47.49437187564263 3.548723026751985, -47.53996924419426 3.314590176246621, -47.65709031804565 2.713198215567455 M-47.65709031804565 2.713198215567455 C-47.70581472733078 2.335301318874865, -47.75453913661592 1.9574044221822753, -47.796444920136366 1.6323914404306026 M-47.65709031804565 2.713198215567455 C-47.70310938384545 2.35628342871658, -47.749128449645255 1.9993686418657048, -47.796444920136366 1.6323914404306026 M-47.796444920136366 1.6323914404306026 C-47.81982976899059 1.2681535436159395, -47.8432146178448 0.9039156468012765, -47.8662656754117 0.54487681871814 M-47.796444920136366 1.6323914404306026 C-47.81244417965386 1.3831900590758706, -47.828443439171345 1.1339886777211383, -47.8662656754117 0.54487681871814 M-47.8662656754117 0.54487681871814 C-47.8662656754117 0.28449830777481766, -47.8662656754117 0.024119796831495344, -47.8662656754117 -0.5448768187181317 M-47.8662656754117 0.54487681871814 C-47.8662656754117 0.12303726842281332, -47.8662656754117 -0.29880228187251334, -47.8662656754117 -0.5448768187181317 M-47.8662656754117 -0.5448768187181317 C-47.84534968740376 -0.8706602150233493, -47.824433699395826 -1.1964436113285668, -47.796444920136366 -1.6323914404305793 M-47.8662656754117 -0.5448768187181317 C-47.83916920110338 -0.9669262779505029, -47.812072726795066 -1.3889757371828741, -47.796444920136366 -1.6323914404305793 M-47.796444920136366 -1.6323914404305793 C-47.7505837504796 -1.9880816159762253, -47.704722580822825 -2.3437717915218714, -47.657090318045654 -2.713198215567447 M-47.796444920136366 -1.6323914404305793 C-47.758049733621505 -1.9301769250526917, -47.71965454710664 -2.227962409674804, -47.657090318045654 -2.713198215567447 M-47.657090318045654 -2.713198215567447 C-47.61322665757202 -2.938428841511626, -47.56936299709839 -3.1636594674558056, -47.448774507091 -3.782855877257341 M-47.657090318045654 -2.713198215567447 C-47.58279485761242 -3.0946897025409807, -47.508499397179186 -3.4761811895145147, -47.448774507091 -3.782855877257341 M-47.448774507091 -3.782855877257341 C-47.36710454101737 -4.094298853883295, -47.28543457494374 -4.405741830509249, -47.172353501623235 -4.836968972727544 M-47.448774507091 -3.782855877257341 C-47.34969644943531 -4.16068345180032, -47.25061839177962 -4.5385110263433, -47.172353501623235 -4.836968972727544 M-47.172353501623235 -4.836968972727544 C-47.077543890579626 -5.122520415330781, -46.982734279536025 -5.408071857934019, -46.82896317484593 -5.871205925162218 M-47.172353501623235 -4.836968972727544 C-47.07875111852197 -5.1188844371141045, -46.9851487354207 -5.400799901500666, -46.82896317484593 -5.871205925162218 M-46.82896317484593 -5.871205925162218 C-46.669783091282255 -6.264383809102057, -46.51060300771857 -6.657561693041896, -46.42001459126881 -6.881316833080692 M-46.82896317484593 -5.871205925162218 C-46.6669212370063 -6.271452644493841, -46.504879299166674 -6.671699363825465, -46.42001459126881 -6.881316833080692 M-46.42001459126881 -6.881316833080692 C-46.31583527462251 -7.097647413177025, -46.211655957976205 -7.313977993273359, -45.947188208341004 -7.863150934094194 M-46.42001459126881 -6.881316833080692 C-46.24543124098617 -7.243842895427877, -46.07084789070353 -7.606368957775062, -45.947188208341004 -7.863150934094194 M-45.947188208341004 -7.863150934094194 C-45.82052318103784 -8.088057516295795, -45.69385815373469 -8.312964098497394, -45.41242697109088 -8.812673661278929 M-45.947188208341004 -7.863150934094194 C-45.74563146411959 -8.221035343292828, -45.54407471989818 -8.578919752491462, -45.41242697109088 -8.812673661278929 M-45.41242697109088 -8.812673661278929 C-45.226446371860135 -9.0983898044809, -45.04046577262938 -9.384105947682873, -44.81792832814825 -9.725983222076884 M-45.41242697109088 -8.812673661278929 C-45.1915804973198 -9.151953150573085, -44.970734023548715 -9.491232639867242, -44.81792832814825 -9.725983222076884 M-44.81792832814825 -9.725983222076884 C-44.63891054739155 -9.965850739435526, -44.45989276663485 -10.205718256794167, -44.16613520195651 -10.599326631598467 M-44.81792832814825 -9.725983222076884 C-44.580787128404864 -10.04373082572528, -44.34364592866149 -10.361478429373676, -44.16613520195651 -10.599326631598467 M-44.16613520195651 -10.599326631598467 C-43.93750561603764 -10.867887952610747, -43.70887603011878 -11.136449273623027, -43.45972595028037 -11.42911513444238 M-44.16613520195651 -10.599326631598467 C-43.98819930200567 -10.808340264520256, -43.81026340205483 -11.017353897442044, -43.45972595028037 -11.42911513444238 M-43.45972595028037 -11.42911513444238 C-43.191425184387 -11.706157703129827, -42.92312441849363 -11.983200271817275, -42.70160336025928 -12.21193895166136 M-43.45972595028037 -11.42911513444238 C-43.18618024823761 -11.711573530321335, -42.91263454619486 -11.99403192620029, -42.70160336025928 -12.21193895166136 M-42.70160336025928 -12.21193895166136 C-42.500207005262396 -12.394841792613976, -42.298810650265516 -12.577744633566594, -41.89488272023242 -12.944581292275274 M-42.70160336025928 -12.21193895166136 C-42.48155100764703 -12.411784676037605, -42.26149865503478 -12.611630400413853, -41.89488272023242 -12.944581292275274 M-41.89488272023242 -12.944581292275274 C-41.59964398328003 -13.180026328362054, -41.30440524632764 -13.415471364448836, -41.042879018350675 -13.624031571755259 M-41.89488272023242 -12.944581292275274 C-41.67229302920847 -13.122090647506429, -41.44970333818452 -13.299600002737584, -41.042879018350675 -13.624031571755259 M-41.042879018350675 -13.624031571755259 C-40.72559474796494 -13.845355343761652, -40.40831047757921 -14.066679115768046, -40.14909332057934 -14.247497783161284 M-41.042879018350675 -13.624031571755259 C-40.71552139764214 -13.852382076878532, -40.3881637769336 -14.080732582001804, -40.14909332057934 -14.247497783161284 M-40.14909332057934 -14.247497783161284 C-39.949840332898575 -14.368286115233891, -39.75058734521782 -14.489074447306496, -39.21719838406695 -14.812417970097618 M-40.14909332057934 -14.247497783161284 C-39.94442458429297 -14.371569173865083, -39.739755848006595 -14.49564056456888, -39.21719838406695 -14.812417970097618 M-39.21719838406695 -14.812417970097618 C-38.97073281745874 -14.94099889832839, -38.72426725085053 -15.069579826559162, -38.25102356499849 -15.316470754341124 M-39.21719838406695 -14.812417970097618 C-38.93121725842216 -14.961614140166851, -38.64523613277737 -15.110810310236083, -38.25102356499849 -15.316470754341124 M-38.25102356499849 -15.316470754341124 C-37.889406440938934 -15.476547928171435, -37.52778931687937 -15.636625102001748, -37.25453908294937 -15.757584874882365 M-38.25102356499849 -15.316470754341124 C-38.0039448998145 -15.425845150089884, -37.756866234630515 -15.535219545838645, -37.25453908294937 -15.757584874882365 M-37.25453908294937 -15.757584874882365 C-36.90827066156643 -15.885014854821485, -36.562002240183496 -16.012444834760604, -36.231839706401566 -16.133947699181363 M-37.25453908294937 -15.757584874882365 C-36.91961710083045 -15.880839260286992, -36.58469511871154 -16.00409364569162, -36.231839706401566 -16.133947699181363 M-36.231839706401566 -16.133947699181363 C-35.9750971541748 -16.21014754101311, -35.71835460194802 -16.28634738284486, -35.18712792646164 -16.444012671663494 M-36.231839706401566 -16.133947699181363 C-35.94426329056543 -16.219298869882117, -35.656686874729296 -16.30465004058287, -35.18712792646164 -16.444012671663494 M-35.18712792646164 -16.444012671663494 C-34.877299848372644 -16.51472890867015, -34.567471770283646 -16.585445145676807, -34.12469668792333 -16.68650566884811 M-35.18712792646164 -16.444012671663494 C-34.81138179026863 -16.52977427527686, -34.435635654075625 -16.615535878890228, -34.12469668792333 -16.68650566884811 M-34.12469668792333 -16.68650566884811 C-33.737863475933906 -16.749045862626197, -33.35103026394448 -16.811586056404284, -33.04891174863661 -16.86043023499518 M-34.12469668792333 -16.68650566884811 C-33.71482782987176 -16.752770087237423, -33.30495897182018 -16.819034505626735, -33.04891174863661 -16.86043023499518 M-33.04891174863661 -16.86043023499518 C-32.70507174978073 -16.893600066156708, -32.36123175092484 -16.926769897318238, -31.96419373967212 -16.965071676755716 M-33.04891174863661 -16.86043023499518 C-32.73740540090462 -16.890480877719693, -32.42589905317263 -16.9205315204442, -31.96419373967212 -16.965071676755716 M-31.96419373967212 -16.965071676755716 C-31.638604285639417 -16.97551269682512, -31.313014831606715 -16.98595371689452, -30.875000000000004 -17 M-31.96419373967212 -16.965071676755716 C-31.72472130170346 -16.972751091736548, -31.485248863734803 -16.98043050671738, -30.875000000000004 -17 M-30.875000000000004 -17 C-30.875000000000004 -17, -30.875 -17, -30.875 -17 M-30.875000000000004 -17 C-30.875000000000004 -17, -30.875 -17, -30.875 -17" stroke="#555555" stroke-width="1.3" fill="none" stroke-dasharray="0 0" style=""></path></g><g class="label" style="" transform="translate(0, -9.5)"><rect></rect><g><rect class="background" style="stroke: none"></rect><text y="-10.1" style=""><tspan class="text-outer-tspan row" x="0" y="-0.1em" dy="1.1em"><tspan font-style="normal" class="text-inner-tspan" font-weight="normal">Start</tspan><tspan font-style="normal" class="text-inner-tspan" font-weight="normal"> here</tspan></tspan></text></g></g></g><g class="node default" id="b4ebb989-7401-410f-9098-a7aa29ab43c6-dark-flowchart-docsQ-1" data-look="classic" transform="translate(280.4421844482422, 227.15000915527344)"><polygon points="135.1500015258789,0 270.3000030517578,-135.1500015258789 135.1500015258789,-270.3000030517578 0,-135.1500015258789" class="label-container" transform="translate(-134.6500015258789, 135.1500015258789)"></polygon><g class="label" style="" transform="translate(0, -35.900001525878906)"><rect></rect><g><rect class="background" style="stroke: none"></rect><text y="-10.1" style=""><tspan class="text-outer-tspan row" x="0" y="-0.1em" dy="1.1em"><tspan font-style="normal" class="text-inner-tspan" font-weight="normal">Need</tspan><tspan font-style="normal" class="text-inner-tspan" font-weight="normal"> built-in</tspan><tspan font-style="normal" class="text-inner-tspan" font-weight="normal"> docs</tspan></tspan><tspan class="text-outer-tspan row" x="0" y="1em" dy="1.1em"><tspan font-style="normal" class="text-inner-tspan" font-weight="normal">navigation,</tspan></tspan><tspan class="text-outer-tspan row" x="0" y="2.1em" dy="1.1em"><tspan font-style="normal" class="text-inner-tspan" font-weight="normal">search,</tspan><tspan font-style="normal" class="text-inner-tspan" font-weight="normal"> and</tspan><tspan font-style="normal" class="text-inner-tspan" font-weight="normal"> the</tspan><tspan font-style="normal" class="text-inner-tspan" font-weight="normal"> default</tspan></tspan><tspan class="text-outer-tspan row" x="0" y="3.2em" dy="1.1em"><tspan font-style="normal" class="text-inner-tspan" font-weight="normal">theme?</tspan></tspan></text></g></g></g><g class="node default" id="b4ebb989-7401-410f-9098-a7aa29ab43c6-dark-flowchart-docs-3" data-look="classic" transform="translate(124.9296875, 579.3953247070312)"><rect class="basic label-container" style="" x="-116.9296875" y="-50.900001525878906" width="233.859375" height="101.80000305175781"></rect><g class="label" style="" transform="translate(0, -35.900001525878906)"><rect></rect><g><rect class="background" style="stroke: none"></rect><text y="-10.1" style=""><tspan class="text-outer-tspan row" x="0" y="-0.1em" dy="1.1em"><tspan font-style="normal" class="text-inner-tspan" font-weight="normal">@pagesmith/docs</tspan></tspan><tspan class="text-outer-tspan row" x="0" y="1em" dy="1.1em"><tspan font-style="normal" class="text-inner-tspan" font-weight="normal">Docs</tspan><tspan font-style="normal" class="text-inner-tspan" font-weight="normal"> preset</tspan><tspan font-style="normal" class="text-inner-tspan" font-weight="normal"> with</tspan><tspan font-style="normal" class="text-inner-tspan" font-weight="normal"> config,</tspan></tspan><tspan class="text-outer-tspan row" x="0" y="2.1em" dy="1.1em"><tspan font-style="normal" class="text-inner-tspan" font-weight="normal">navigation,</tspan><tspan font-style="normal" class="text-inner-tspan" font-weight="normal"> search,</tspan><tspan font-style="normal" class="text-inner-tspan" font-weight="normal"> and</tspan></tspan><tspan class="text-outer-tspan row" x="0" y="3.2em" dy="1.1em"><tspan font-style="normal" class="text-inner-tspan" font-weight="normal">theme</tspan></tspan></text></g></g></g><g class="node default" id="b4ebb989-7401-410f-9098-a7aa29ab43c6-dark-flowchart-hostQ-5" data-look="classic" transform="translate(435.9546813964844, 579.3953247070312)"><polygon points="144.0953140258789,0 288.1906280517578,-144.0953140258789 144.0953140258789,-288.1906280517578 0,-144.0953140258789" class="label-container" transform="translate(-143.5953140258789, 144.0953140258789)"></polygon><g class="label" style="" transform="translate(0, -35.900001525878906)"><rect></rect><g><rect class="background" style="stroke: none"></rect><text y="-10.1" style=""><tspan class="text-outer-tspan row" x="0" y="-0.1em" dy="1.1em"><tspan font-style="normal" class="text-inner-tspan" font-weight="normal">Does</tspan><tspan font-style="normal" class="text-inner-tspan" font-weight="normal"> the</tspan><tspan font-style="normal" class="text-inner-tspan" font-weight="normal"> host</tspan><tspan font-style="normal" class="text-inner-tspan" font-weight="normal"> app</tspan><tspan font-style="normal" class="text-inner-tspan" font-weight="normal"> already</tspan></tspan><tspan class="text-outer-tspan row" x="0" y="1em" dy="1.1em"><tspan font-style="normal" class="text-inner-tspan" font-weight="normal">own</tspan></tspan><tspan class="text-outer-tspan row" x="0" y="2.1em" dy="1.1em"><tspan font-style="normal" class="text-inner-tspan" font-weight="normal">routing,</tspan><tspan font-style="normal" class="text-inner-tspan" font-weight="normal"> layout,</tspan><tspan font-style="normal" class="text-inner-tspan" font-weight="normal"> and</tspan><tspan font-style="normal" class="text-inner-tspan" font-weight="normal"> build</tspan></tspan><tspan class="text-outer-tspan row" x="0" y="3.2em" dy="1.1em"><tspan font-style="normal" class="text-inner-tspan" font-weight="normal">tooling?</tspan></tspan></text></g></g></g><g class="node default" id="b4ebb989-7401-410f-9098-a7aa29ab43c6-dark-flowchart-core-7" data-look="classic" transform="translate(563.1460876464844, 856.1906318664551)"><rect class="basic label-container" style="" x="-111.96875" y="-59.70000076293945" width="223.9375" height="119.4000015258789"></rect><g class="label" style="" transform="translate(0, -44.70000076293945)"><rect></rect><g><rect class="background" style="stroke: none"></rect><text y="-10.1" style=""><tspan class="text-outer-tspan row" x="0" y="-0.1em" dy="1.1em"><tspan font-style="normal" class="text-inner-tspan" font-weight="normal">@pagesmith/core</tspan></tspan><tspan class="text-outer-tspan row" x="0" y="1em" dy="1.1em"><tspan font-style="normal" class="text-inner-tspan" font-weight="normal">Headless</tspan><tspan font-style="normal" class="text-inner-tspan" font-weight="normal"> content</tspan><tspan font-style="normal" class="text-inner-tspan" font-weight="normal"> layer</tspan></tspan><tspan class="text-outer-tspan row" x="0" y="2.1em" dy="1.1em"><tspan font-style="normal" class="text-inner-tspan" font-weight="normal">with</tspan></tspan><tspan class="text-outer-tspan row" x="0" y="3.2em" dy="1.1em"><tspan font-style="normal" class="text-inner-tspan" font-weight="normal">schemas,</tspan><tspan font-style="normal" class="text-inner-tspan" font-weight="normal"> loaders,</tspan><tspan font-style="normal" class="text-inner-tspan" font-weight="normal"> and</tspan></tspan><tspan class="text-outer-tspan row" x="0" y="4.300000000000001em" dy="1.1em"><tspan font-style="normal" class="text-inner-tspan" font-weight="normal">markdown</tspan></tspan></text></g></g></g><g class="node default" id="b4ebb989-7401-410f-9098-a7aa29ab43c6-dark-flowchart-site-9" data-look="classic" transform="translate(286.3999938964844, 1392.0843887329102)"><rect class="basic label-container" style="" x="-127.6171875" y="-68.5" width="255.234375" height="137"></rect><g class="label" style="" transform="translate(0, -53.5)"><rect></rect><g><rect class="background" style="stroke: none"></rect><text y="-10.1" style=""><tspan class="text-outer-tspan row" x="0" y="-0.1em" dy="1.1em"><tspan font-style="normal" class="text-inner-tspan" font-weight="normal">@pagesmith/site</tspan><tspan font-style="normal" class="text-inner-tspan" font-weight="normal"> +</tspan></tspan><tspan class="text-outer-tspan row" x="0" y="1em" dy="1.1em"><tspan font-style="normal" class="text-inner-tspan" font-weight="normal">@pagesmith/core</tspan></tspan><tspan class="text-outer-tspan row" x="0" y="2.1em" dy="1.1em"><tspan font-style="normal" class="text-inner-tspan" font-weight="normal">Custom</tspan><tspan font-style="normal" class="text-inner-tspan" font-weight="normal"> site</tspan><tspan font-style="normal" class="text-inner-tspan" font-weight="normal"> shell</tspan><tspan font-style="normal" class="text-inner-tspan" font-weight="normal"> with</tspan></tspan><tspan class="text-outer-tspan row" x="0" y="3.2em" dy="1.1em"><tspan font-style="normal" class="text-inner-tspan" font-weight="normal">shared</tspan></tspan><tspan class="text-outer-tspan row" x="0" y="4.300000000000001em" dy="1.1em"><tspan font-style="normal" class="text-inner-tspan" font-weight="normal">JSX,</tspan><tspan font-style="normal" class="text-inner-tspan" font-weight="normal"> CSS/runtime,</tspan><tspan font-style="normal" class="text-inner-tspan" font-weight="normal"> and</tspan><tspan font-style="normal" class="text-inner-tspan" font-weight="normal"> Vite</tspan></tspan><tspan class="text-outer-tspan row" x="0" y="5.4em" dy="1.1em"><tspan font-style="normal" class="text-inner-tspan" font-weight="normal">SSG</tspan></tspan></text></g></g></g><g class="node default" id="b4ebb989-7401-410f-9098-a7aa29ab43c6-dark-flowchart-siteQ-11" data-look="classic" transform="translate(563.1460876464844, 1119.7375106811523)"><polygon points="130.84687423706055,0 261.6937484741211,-130.84687423706055 130.84687423706055,-261.6937484741211 0,-130.84687423706055" class="label-container" transform="translate(-130.34687423706055, 130.84687423706055)"></polygon><g class="label" style="" transform="translate(0, -18.299999237060547)"><rect></rect><g><rect class="background" style="stroke: none"></rect><text y="-10.1" style=""><tspan class="text-outer-tspan row" x="0" y="-0.1em" dy="1.1em"><tspan font-style="normal" class="text-inner-tspan" font-weight="normal">Need</tspan><tspan font-style="normal" class="text-inner-tspan" font-weight="normal"> the</tspan><tspan font-style="normal" class="text-inner-tspan" font-weight="normal"> shared</tspan><tspan font-style="normal" class="text-inner-tspan" font-weight="normal"> Pagesmith</tspan></tspan><tspan class="text-outer-tspan row" x="0" y="1em" dy="1.1em"><tspan font-style="normal" class="text-inner-tspan" font-weight="normal">site</tspan><tspan font-style="normal" class="text-inner-tspan" font-weight="normal"> layer</tspan><tspan font-style="normal" class="text-inner-tspan" font-weight="normal"> too?</tspan></tspan></text></g></g></g><g class="node default" id="b4ebb989-7401-410f-9098-a7aa29ab43c6-dark-flowchart-coreOnly-15" data-look="classic" transform="translate(585.5093688964844, 1392.0843887329102)"><rect class="basic label-container" style="" x="-121.4921875" y="-24.5" width="242.984375" height="49"></rect><g class="label" style="" transform="translate(0, -9.5)"><rect></rect><g><rect class="background" style="stroke: none"></rect><text y="-10.1" style=""><tspan class="text-outer-tspan row" x="0" y="-0.1em" dy="1.1em"><tspan font-style="normal" class="text-inner-tspan" font-weight="normal">Stay</tspan><tspan font-style="normal" class="text-inner-tspan" font-weight="normal"> on</tspan><tspan font-style="normal" class="text-inner-tspan" font-weight="normal"> @pagesmith/core</tspan></tspan></text></g></g></g></g></g></g><defs><filter id="b4ebb989-7401-410f-9098-a7aa29ab43c6-dark-drop-shadow" height="130%" width="130%"><feDropShadow dx="4" dy="4" stdDeviation="0" flood-opacity="0.06" flood-color="#000000"></feDropShadow></filter></defs><defs><filter id="b4ebb989-7401-410f-9098-a7aa29ab43c6-dark-drop-shadow-small" height="150%" width="150%"><feDropShadow dx="2" dy="2" stdDeviation="0" flood-opacity="0.06" flood-color="#000000"></feDropShadow></filter></defs><linearGradient id="b4ebb989-7401-410f-9098-a7aa29ab43c6-dark-gradient" gradientUnits="objectBoundingBox" x1="0%" y1="0%" x2="100%" y2="0%"><stop offset="0%" stop-color="#555555" stop-opacity="1"></stop><stop offset="100%" stop-color="#555555" stop-opacity="1"></stop></linearGradient></svg>