<svg id="b4ebb989-7401-410f-9098-a7aa29ab43c6-light" width="100%" xmlns="http://www.w3.org/2000/svg" xmlns:xlink="http://www.w3.org/1999/xlink" class="flowchart" style="max-width: 715.0015869140625px;" viewBox="0 0 715.0015869140625 1468.5843505859375" role="graphics-document document" aria-roledescription="flowchart-v2"><style>#b4ebb989-7401-410f-9098-a7aa29ab43c6-light{font-family:"trebuchet ms",verdana,arial,sans-serif;font-size:16px;fill:#333;}@keyframes edge-animation-frame{from{stroke-dashoffset:0;}}@keyframes dash{to{stroke-dashoffset:0;}}#b4ebb989-7401-410f-9098-a7aa29ab43c6-light .edge-animation-slow{stroke-dasharray:9,5!important;stroke-dashoffset:900;animation:dash 50s linear infinite;stroke-linecap:round;}#b4ebb989-7401-410f-9098-a7aa29ab43c6-light .edge-animation-fast{stroke-dasharray:9,5!important;stroke-dashoffset:900;animation:dash 20s linear infinite;stroke-linecap:round;}#b4ebb989-7401-410f-9098-a7aa29ab43c6-light .error-icon{fill:#552222;}#b4ebb989-7401-410f-9098-a7aa29ab43c6-light .error-text{fill:#552222;stroke:#552222;}#b4ebb989-7401-410f-9098-a7aa29ab43c6-light .edge-thickness-normal{stroke-width:1px;}#b4ebb989-7401-410f-9098-a7aa29ab43c6-light .edge-thickness-thick{stroke-width:3.5px;}#b4ebb989-7401-410f-9098-a7aa29ab43c6-light .edge-pattern-solid{stroke-dasharray:0;}#b4ebb989-7401-410f-9098-a7aa29ab43c6-light .edge-thickness-invisible{stroke-width:0;fill:none;}#b4ebb989-7401-410f-9098-a7aa29ab43c6-light .edge-pattern-dashed{stroke-dasharray:3;}#b4ebb989-7401-410f-9098-a7aa29ab43c6-light .edge-pattern-dotted{stroke-dasharray:2;}#b4ebb989-7401-410f-9098-a7aa29ab43c6-light .marker{fill:#333333;stroke:#333333;}#b4ebb989-7401-410f-9098-a7aa29ab43c6-light .marker.cross{stroke:#333333;}#b4ebb989-7401-410f-9098-a7aa29ab43c6-light svg{font-family:"trebuchet ms",verdana,arial,sans-serif;font-size:16px;}#b4ebb989-7401-410f-9098-a7aa29ab43c6-light p{margin:0;}#b4ebb989-7401-410f-9098-a7aa29ab43c6-light .label{font-family:"trebuchet ms",verdana,arial,sans-serif;color:#333;}#b4ebb989-7401-410f-9098-a7aa29ab43c6-light .cluster-label text{fill:#333;}#b4ebb989-7401-410f-9098-a7aa29ab43c6-light .cluster-label span{color:#333;}#b4ebb989-7401-410f-9098-a7aa29ab43c6-light .cluster-label span p{background-color:transparent;}#b4ebb989-7401-410f-9098-a7aa29ab43c6-light .label text,#b4ebb989-7401-410f-9098-a7aa29ab43c6-light span{fill:#333;color:#333;}#b4ebb989-7401-410f-9098-a7aa29ab43c6-light .node rect,#b4ebb989-7401-410f-9098-a7aa29ab43c6-light .node circle,#b4ebb989-7401-410f-9098-a7aa29ab43c6-light .node ellipse,#b4ebb989-7401-410f-9098-a7aa29ab43c6-light .node polygon,#b4ebb989-7401-410f-9098-a7aa29ab43c6-light .node path{fill:#ECECFF;stroke:#9370DB;stroke-width:1px;}#b4ebb989-7401-410f-9098-a7aa29ab43c6-light .rough-node .label text,#b4ebb989-7401-410f-9098-a7aa29ab43c6-light .node .label text,#b4ebb989-7401-410f-9098-a7aa29ab43c6-light .image-shape .label,#b4ebb989-7401-410f-9098-a7aa29ab43c6-light .icon-shape .label{text-anchor:middle;}#b4ebb989-7401-410f-9098-a7aa29ab43c6-light .node .katex path{fill:#000;stroke:#000;stroke-width:1px;}#b4ebb989-7401-410f-9098-a7aa29ab43c6-light .rough-node .label,#b4ebb989-7401-410f-9098-a7aa29ab43c6-light .node .label,#b4ebb989-7401-410f-9098-a7aa29ab43c6-light .image-shape .label,#b4ebb989-7401-410f-9098-a7aa29ab43c6-light .icon-shape .label{text-align:center;}#b4ebb989-7401-410f-9098-a7aa29ab43c6-light .node.clickable{cursor:pointer;}#b4ebb989-7401-410f-9098-a7aa29ab43c6-light .root .anchor path{fill:#333333!important;stroke-width:0;stroke:#333333;}#b4ebb989-7401-410f-9098-a7aa29ab43c6-light .arrowheadPath{fill:#333333;}#b4ebb989-7401-410f-9098-a7aa29ab43c6-light .edgePath .path{stroke:#333333;stroke-width:1px;}#b4ebb989-7401-410f-9098-a7aa29ab43c6-light .flowchart-link{stroke:#333333;fill:none;}#b4ebb989-7401-410f-9098-a7aa29ab43c6-light .edgeLabel{background-color:rgba(232,232,232, 0.8);text-align:center;}#b4ebb989-7401-410f-9098-a7aa29ab43c6-light .edgeLabel p{background-color:rgba(232,232,232, 0.8);}#b4ebb989-7401-410f-9098-a7aa29ab43c6-light .edgeLabel rect{opacity:0.5;background-color:rgba(232,232,232, 0.8);fill:rgba(232,232,232, 0.8);}#b4ebb989-7401-410f-9098-a7aa29ab43c6-light .labelBkg{background-color:rgba(232, 232, 232, 0.5);}#b4ebb989-7401-410f-9098-a7aa29ab43c6-light .cluster rect{fill:#ffffde;stroke:#aaaa33;stroke-width:1px;}#b4ebb989-7401-410f-9098-a7aa29ab43c6-light .cluster text{fill:#333;}#b4ebb989-7401-410f-9098-a7aa29ab43c6-light .cluster span{color:#333;}#b4ebb989-7401-410f-9098-a7aa29ab43c6-light div.mermaidTooltip{position:absolute;text-align:center;max-width:200px;padding:2px;font-family:"trebuchet ms",verdana,arial,sans-serif;font-size:12px;background:hsl(80, 100%, 96.2745098039%);border:1px solid #aaaa33;border-radius:2px;pointer-events:none;z-index:100;}#b4ebb989-7401-410f-9098-a7aa29ab43c6-light .flowchartTitleText{text-anchor:middle;font-size:18px;fill:#333;}#b4ebb989-7401-410f-9098-a7aa29ab43c6-light rect.text{fill:none;stroke-width:0;}#b4ebb989-7401-410f-9098-a7aa29ab43c6-light .icon-shape,#b4ebb989-7401-410f-9098-a7aa29ab43c6-light .image-shape{background-color:rgba(232,232,232, 0.8);text-align:center;}#b4ebb989-7401-410f-9098-a7aa29ab43c6-light .icon-shape p,#b4ebb989-7401-410f-9098-a7aa29ab43c6-light .image-shape p{background-color:rgba(232,232,232, 0.8);padding:2px;}#b4ebb989-7401-410f-9098-a7aa29ab43c6-light .icon-shape .label rect,#b4ebb989-7401-410f-9098-a7aa29ab43c6-light .image-shape .label rect{opacity:0.5;background-color:rgba(232,232,232, 0.8);fill:rgba(232,232,232, 0.8);}#b4ebb989-7401-410f-9098-a7aa29ab43c6-light .label-icon{display:inline-block;height:1em;overflow:visible;vertical-align:-0.125em;}#b4ebb989-7401-410f-9098-a7aa29ab43c6-light .node .label-icon path{fill:currentColor;stroke:revert;stroke-width:revert;}#b4ebb989-7401-410f-9098-a7aa29ab43c6-light .node .neo-node{stroke:#9370DB;}#b4ebb989-7401-410f-9098-a7aa29ab43c6-light [data-look="neo"].node rect,#b4ebb989-7401-410f-9098-a7aa29ab43c6-light [data-look="neo"].cluster rect,#b4ebb989-7401-410f-9098-a7aa29ab43c6-light [data-look="neo"].node polygon{stroke:#9370DB;filter:drop-shadow(1px 2px 2px rgba(185, 185, 185, 1));}#b4ebb989-7401-410f-9098-a7aa29ab43c6-light [data-look="neo"].node path{stroke:#9370DB;stroke-width:1px;}#b4ebb989-7401-410f-9098-a7aa29ab43c6-light [data-look="neo"].node .outer-path{filter:drop-shadow(1px 2px 2px rgba(185, 185, 185, 1));}#b4ebb989-7401-410f-9098-a7aa29ab43c6-light [data-look="neo"].node .neo-line path{stroke:#9370DB;filter:none;}#b4ebb989-7401-410f-9098-a7aa29ab43c6-light [data-look="neo"].node circle{stroke:#9370DB;filter:drop-shadow(1px 2px 2px rgba(185, 185, 185, 1));}#b4ebb989-7401-410f-9098-a7aa29ab43c6-light [data-look="neo"].node circle .state-start{fill:#000000;}#b4ebb989-7401-410f-9098-a7aa29ab43c6-light [data-look="neo"].icon-shape .icon{fill:#9370DB;filter:drop-shadow(1px 2px 2px rgba(185, 185, 185, 1));}#b4ebb989-7401-410f-9098-a7aa29ab43c6-light [data-look="neo"].icon-shape .icon-neo path{stroke:#9370DB;filter:drop-shadow(1px 2px 2px rgba(185, 185, 185, 1));}#b4ebb989-7401-410f-9098-a7aa29ab43c6-light :root{--mermaid-font-family:"trebuchet ms",verdana,arial,sans-serif;}</style><g><marker id="b4ebb989-7401-410f-9098-a7aa29ab43c6-light_flowchart-v2-pointEnd" class="marker flowchart-v2" viewBox="0 0 10 10" refX="5" refY="5" markerUnits="userSpaceOnUse" markerWidth="8" markerHeight="8" orient="auto"><path d="M 0 0 L 10 5 L 0 10 z" class="arrowMarkerPath" style="stroke-width: 1; stroke-dasharray: 1, 0;"></path></marker><marker id="b4ebb989-7401-410f-9098-a7aa29ab43c6-light_flowchart-v2-pointStart" class="marker flowchart-v2" viewBox="0 0 10 10" refX="4.5" refY="5" markerUnits="userSpaceOnUse" markerWidth="8" markerHeight="8" orient="auto"><path d="M 0 5 L 10 10 L 10 0 z" class="arrowMarkerPath" style="stroke-width: 1; stroke-dasharray: 1, 0;"></path></marker><marker id="b4ebb989-7401-410f-9098-a7aa29ab43c6-light_flowchart-v2-pointEnd-margin" class="marker flowchart-v2" viewBox="0 0 11.5 14" refX="11.5" refY="7" markerUnits="userSpaceOnUse" markerWidth="10.5" markerHeight="14" orient="auto"><path d="M 0 0 L 11.5 7 L 0 14 z" class="arrowMarkerPath" style="stroke-width: 0; stroke-dasharray: 1, 0;"></path></marker><marker id="b4ebb989-7401-410f-9098-a7aa29ab43c6-light_flowchart-v2-pointStart-margin" class="marker flowchart-v2" viewBox="0 0 11.5 14" refX="1" refY="7" markerUnits="userSpaceOnUse" markerWidth="11.5" markerHeight="14" orient="auto"><polygon points="0,7 11.5,14 11.5,0" class="arrowMarkerPath" style="stroke-width: 0; stroke-dasharray: 1, 0;"></polygon></marker><marker id="b4ebb989-7401-410f-9098-a7aa29ab43c6-light_flowchart-v2-circleEnd" class="marker flowchart-v2" viewBox="0 0 10 10" refX="11" refY="5" markerUnits="userSpaceOnUse" markerWidth="11" markerHeight="11" orient="auto"><circle cx="5" cy="5" r="5" class="arrowMarkerPath" style="stroke-width: 1; stroke-dasharray: 1, 0;"></circle></marker><marker id="b4ebb989-7401-410f-9098-a7aa29ab43c6-light_flowchart-v2-circleStart" class="marker flowchart-v2" viewBox="0 0 10 10" refX="-1" refY="5" markerUnits="userSpaceOnUse" markerWidth="11" markerHeight="11" orient="auto"><circle cx="5" cy="5" r="5" class="arrowMarkerPath" style="stroke-width: 1; stroke-dasharray: 1, 0;"></circle></marker><marker id="b4ebb989-7401-410f-9098-a7aa29ab43c6-light_flowchart-v2-circleEnd-margin" class="marker flowchart-v2" viewBox="0 0 10 10" refY="5" refX="12.25" markerUnits="userSpaceOnUse" markerWidth="14" markerHeight="14" orient="auto"><circle cx="5" cy="5" r="5" class="arrowMarkerPath" style="stroke-width: 0; stroke-dasharray: 1, 0;"></circle></marker><marker id="b4ebb989-7401-410f-9098-a7aa29ab43c6-light_flowchart-v2-circleStart-margin" class="marker flowchart-v2" viewBox="0 0 10 10" refX="-2" refY="5" markerUnits="userSpaceOnUse" markerWidth="14" markerHeight="14" orient="auto"><circle cx="5" cy="5" r="5" class="arrowMarkerPath" style="stroke-width: 0; stroke-dasharray: 1, 0;"></circle></marker><marker id="b4ebb989-7401-410f-9098-a7aa29ab43c6-light_flowchart-v2-crossEnd" class="marker cross flowchart-v2" viewBox="0 0 11 11" refX="12" refY="5.2" markerUnits="userSpaceOnUse" markerWidth="11" markerHeight="11" orient="auto"><path d="M 1,1 l 9,9 M 10,1 l -9,9" class="arrowMarkerPath" style="stroke-width: 2; stroke-dasharray: 1, 0;"></path></marker><marker id="b4ebb989-7401-410f-9098-a7aa29ab43c6-light_flowchart-v2-crossStart" class="marker cross flowchart-v2" viewBox="0 0 11 11" refX="-1" refY="5.2" markerUnits="userSpaceOnUse" markerWidth="11" markerHeight="11" orient="auto"><path d="M 1,1 l 9,9 M 10,1 l -9,9" class="arrowMarkerPath" style="stroke-width: 2; stroke-dasharray: 1, 0;"></path></marker><marker id="b4ebb989-7401-410f-9098-a7aa29ab43c6-light_flowchart-v2-crossEnd-margin" class="marker cross flowchart-v2" viewBox="0 0 15 15" refX="17.7" refY="7.5" markerUnits="userSpaceOnUse" markerWidth="12" markerHeight="12" orient="auto"><path d="M 1,1 L 14,14 M 1,14 L 14,1" class="arrowMarkerPath" style="stroke-width: 2.5;"></path></marker><marker id="b4ebb989-7401-410f-9098-a7aa29ab43c6-light_flowchart-v2-crossStart-margin" class="marker cross flowchart-v2" viewBox="0 0 15 15" refX="-3.5" refY="7.5" markerUnits="userSpaceOnUse" markerWidth="12" markerHeight="12" orient="auto"><path d="M 1,1 L 14,14 M 1,14 L 14,1" class="arrowMarkerPath" style="stroke-width: 2.5; stroke-dasharray: 1, 0;"></path></marker><g class="root"><g class="clusters"></g><g class="edgePaths"><path d="M280.942,42.5L280.859,46.583C280.776,50.667,280.609,58.833,280.526,66.417C280.442,74,280.442,81,280.442,84.5L280.442,88" id="b4ebb989-7401-410f-9098-a7aa29ab43c6-light-L_start_docsQ_0" class="edge-thickness-normal edge-pattern-solid edge-thickness-normal edge-pattern-solid flowchart-link" style=";" data-edge="true" data-et="edge" data-id="L_start_docsQ_0" data-points="W3sieCI6MjgwLjk0MjE4NDQ0ODI0MjIsInkiOjQyLjV9LHsieCI6MjgwLjQ0MjE4NDQ0ODI0MjIsInkiOjY3fSx7IngiOjI4MC40NDIxODQ0NDgyNDIyLCJ5Ijo5MS45OTk5OTk5OTk5OTk5N31d" data-look="classic" marker-end="url(#b4ebb989-7401-410f-9098-a7aa29ab43c6-light_flowchart-v2-pointEnd)"></path><path d="M216.2,298.058L200.989,314.849C185.777,331.639,155.353,365.219,140.141,402.959C124.93,440.698,124.93,482.597,124.93,503.546L124.93,524.495" id="b4ebb989-7401-410f-9098-a7aa29ab43c6-light-L_docsQ_docs_0" class="edge-thickness-normal edge-pattern-solid edge-thickness-normal edge-pattern-solid flowchart-link" style=";" data-edge="true" data-et="edge" data-id="L_docsQ_docs_0" data-points="W3sieCI6MjE2LjIwMDM2Mjc0MTI1MTMsInkiOjI5OC4wNTgxOTY2MDM1NTZ9LHsieCI6MTI0LjkyOTY4NzUsInkiOjM5OC44MDAwMTgzMTA1NDY5fSx7IngiOjEyNC45Mjk2ODc1LCJ5Ijo1MjguNDk1MzIzMTgxMTUyM31d" data-look="classic" marker-end="url(#b4ebb989-7401-410f-9098-a7aa29ab43c6-light_flowchart-v2-pointEnd)"></path><path d="M344.684,298.058L359.896,314.849C375.108,331.639,405.531,365.219,420.743,387.426C435.955,409.633,435.955,420.467,435.955,425.883L435.955,431.3" id="b4ebb989-7401-410f-9098-a7aa29ab43c6-light-L_docsQ_hostQ_0" class="edge-thickness-normal edge-pattern-solid edge-thickness-normal edge-pattern-solid flowchart-link" style=";" data-edge="true" data-et="edge" data-id="L_docsQ_hostQ_0" data-points="W3sieCI6MzQ0LjY4NDAwNjE1NTIzMzEsInkiOjI5OC4wNTgxOTY2MDM1NTZ9LHsieCI6NDM1Ljk1NDY4MTM5NjQ4NDQsInkiOjM5OC44MDAwMTgzMTA1NDY5fSx7IngiOjQzNS45NTQ2ODEzOTY0ODQzLCJ5Ijo0MzUuMzAwMDE4MzEwNTQ2OH1d" data-look="classic" marker-end="url(#b4ebb989-7401-410f-9098-a7aa29ab43c6-light_flowchart-v2-pointEnd)"></path><path d="M495.501,663.944L506.776,679.952C518.05,695.959,540.598,727.975,551.872,749.4C563.146,770.824,563.146,781.657,563.146,787.074L563.146,792.491" id="b4ebb989-7401-410f-9098-a7aa29ab43c6-light-L_hostQ_core_0" class="edge-thickness-normal edge-pattern-solid edge-thickness-normal edge-pattern-solid flowchart-link" style=";" data-edge="true" data-et="edge" data-id="L_hostQ_core_0" data-points="W3sieCI6NDk1LjUwMTM4NjYzNTk3OTc3LCJ5Ijo2NjMuOTQzOTI1ODY0MDIwMn0seyJ4Ijo1NjMuMTQ2MDg3NjQ2NDg0NCwieSI6NzU5Ljk5MDYzMTEwMzUxNTZ9LHsieCI6NTYzLjE0NjA4NzY0NjQ4NDQsInkiOjc5Ni40OTA2MzExMDM1MTU2fV0=" data-look="classic" marker-end="url(#b4ebb989-7401-410f-9098-a7aa29ab43c6-light_flowchart-v2-pointEnd)"></path><path d="M366.894,654.43L350.701,672.023C334.508,689.617,302.122,724.804,285.929,758.43C269.736,792.057,269.736,824.124,269.736,856.191C269.736,888.257,269.736,920.324,269.736,964.248C269.736,1008.173,269.736,1063.955,269.736,1119.738C269.736,1175.52,269.736,1231.302,270.597,1264.618C271.458,1297.934,273.18,1308.784,274.041,1314.209L274.902,1319.634" id="b4ebb989-7401-410f-9098-a7aa29ab43c6-light-L_hostQ_site_0" class="edge-thickness-normal edge-pattern-solid edge-thickness-normal edge-pattern-solid flowchart-link" style=";" data-edge="true" data-et="edge" data-id="L_hostQ_site_0" data-points="W3sieCI6MzY2Ljg5MzYzNDc5NzE4MjIsInkiOjY1NC40Mjk1ODQ1MDQyMTM0fSx7IngiOjI2OS43MzU5MzEzOTY0ODQ0LCJ5Ijo3NTkuOTkwNjMxMTAzNTE1Nn0seyJ4IjoyNjkuNzM1OTMxMzk2NDg0NCwieSI6ODU2LjE5MDYzMTg2NjQ1NTF9LHsieCI6MjY5LjczNTkzMTM5NjQ4NDQsInkiOjk1Mi4zOTA2MzI2MjkzOTQ1fSx7IngiOjI2OS43MzU5MzEzOTY0ODQ0LCJ5IjoxMTE5LjczNzUxMDY4MTE1MjN9LHsieCI6MjY5LjczNTkzMTM5NjQ4NDQsInkiOjEyODcuMDg0Mzg4NzMyOTEwMn0seyJ4IjoyNzUuNTI4Njc2OTMyMTk4NjYsInkiOjEzMjMuNTg0Mzg4NzMyOTEwMn1d" data-look="classic" marker-end="url(#b4ebb989-7401-410f-9098-a7aa29ab43c6-light_flowchart-v2-pointEnd)"></path><path d="M563.146,915.891L563.146,921.974C563.146,928.057,563.146,940.224,563.146,951.724C563.146,963.224,563.146,974.057,563.146,979.474L563.146,984.891" id="b4ebb989-7401-410f-9098-a7aa29ab43c6-light-L_core_siteQ_0" class="edge-thickness-normal edge-pattern-solid edge-thickness-normal edge-pattern-solid flowchart-link" style=";" data-edge="true" data-et="edge" data-id="L_core_siteQ_0" data-points="W3sieCI6NTYzLjE0NjA4NzY0NjQ4NDQsInkiOjkxNS44OTA2MzI2MjkzOTQ1fSx7IngiOjU2My4xNDYwODc2NDY0ODQ0LCJ5Ijo5NTIuMzkwNjMyNjI5Mzk0NX0seyJ4Ijo1NjMuMTQ2MDg3NjQ2NDg0NCwieSI6OTg4Ljg5MDYzMjYyOTM5NDR9XQ==" data-look="classic" marker-end="url(#b4ebb989-7401-410f-9098-a7aa29ab43c6-light_flowchart-v2-pointEnd)"></path><path d="M501.396,1188.834L486.762,1205.209C472.128,1221.584,442.86,1254.334,421.371,1276.368C399.882,1298.402,386.172,1309.72,379.317,1315.379L372.462,1321.038" id="b4ebb989-7401-410f-9098-a7aa29ab43c6-light-L_siteQ_site_0" class="edge-thickness-normal edge-pattern-solid edge-thickness-normal edge-pattern-solid flowchart-link" style=";" data-edge="true" data-et="edge" data-id="L_siteQ_site_0" data-points="W3sieCI6NTAxLjM5NTc5NjQzNzU3MiwieSI6MTE4OC44MzQwOTc1MjM5OTh9LHsieCI6NDEzLjU5MTQwMDE0NjQ4NDQsInkiOjEyODcuMDg0Mzg4NzMyOTEwMn0seyJ4IjozNjkuMzc3MjQ0NjQwNTMyLCJ5IjoxMzIzLjU4NDM4ODczMjkxMDJ9XQ==" data-look="classic" marker-end="url(#b4ebb989-7401-410f-9098-a7aa29ab43c6-light_flowchart-v2-pointEnd)"></path><path d="M578.57,1235.16L579.727,1243.814C580.883,1252.468,583.196,1269.776,584.353,1291.18C585.509,1312.584,585.509,1338.084,585.509,1350.834L585.509,1363.584" id="b4ebb989-7401-410f-9098-a7aa29ab43c6-light-L_siteQ_coreOnly_0" class="edge-thickness-normal edge-pattern-solid edge-thickness-normal edge-pattern-solid flowchart-link" style=";" data-edge="true" data-et="edge" data-id="L_siteQ_coreOnly_0" data-points="W3sieCI6NTc4LjU3MDQ4ODQ1NTIwMTcsInkiOjEyMzUuMTU5OTg3OTI0MTkzfSx7IngiOjU4NS41MDkzNjg4OTY0ODQ0LCJ5IjoxMjg3LjA4NDM4ODczMjkxMDJ9LHsieCI6NTg1LjUwOTM2ODg5NjQ4NDQsInkiOjEzNjcuNTg0Mzg4NzMyOTEwMn1d" data-look="classic" marker-end="url(#b4ebb989-7401-410f-9098-a7aa29ab43c6-light_flowchart-v2-pointEnd)"></path></g><g class="edgeLabels"><g class="edgeLabel"><g class="label" data-id="L_start_docsQ_0" transform="translate(0, 0)"><text y="-10.1" text-anchor="middle"><tspan class="text-outer-tspan row" x="0" y="-0.1em" dy="1.1em" text-anchor="middle"></tspan></text></g></g><g><rect class="background" style="stroke: none"></rect></g><g class="edgeLabel" transform="translate(124.9296875, 398.8000183105469)"><g class="label" data-id="L_docsQ_docs_0" transform="translate(0, -10.5)"><g><rect class="background" style="" x="-13.328125" y="-1" width="26.65625" height="23"></rect><text y="-10.1" text-anchor="middle" style=""><tspan class="text-outer-tspan row" x="0" y="-0.1em" dy="1.1em" text-anchor="middle"><tspan font-style="normal" class="text-inner-tspan" font-weight="normal">Yes</tspan></tspan></text></g></g></g><g class="edgeLabel" transform="translate(435.9546813964844, 398.8000183105469)"><g class="label" data-id="L_docsQ_hostQ_0" transform="translate(0, -10.5)"><g><rect class="background" style="" x="-11.3984375" y="-1" width="22.796875" height="23"></rect><text y="-10.1" text-anchor="middle" style=""><tspan class="text-outer-tspan row" x="0" y="-0.1em" dy="1.1em" text-anchor="middle"><tspan font-style="normal" class="text-inner-tspan" font-weight="normal">No</tspan></tspan></text></g></g></g><g class="edgeLabel" transform="translate(563.1460876464844, 759.9906311035156)"><g class="label" data-id="L_hostQ_core_0" transform="translate(0, -10.5)"><g><rect class="background" style="" x="-13.328125" y="-1" width="26.65625" height="23"></rect><text y="-10.1" text-anchor="middle" style=""><tspan class="text-outer-tspan row" x="0" y="-0.1em" dy="1.1em" text-anchor="middle"><tspan font-style="normal" class="text-inner-tspan" font-weight="normal">Yes</tspan></tspan></text></g></g></g><g class="edgeLabel" transform="translate(269.7359313964844, 952.3906326293945)"><g class="label" data-id="L_hostQ_site_0" transform="translate(0, -10.5)"><g><rect class="background" style="" x="-11.3984375" y="-1" width="22.796875" height="23"></rect><text y="-10.1" text-anchor="middle" style=""><tspan class="text-outer-tspan row" x="0" y="-0.1em" dy="1.1em" text-anchor="middle"><tspan font-style="normal" class="text-inner-tspan" font-weight="normal">No</tspan></tspan></text></g></g></g><g class="edgeLabel"><g class="label" data-id="L_core_siteQ_0" transform="translate(0, 0)"><text y="-10.1" text-anchor="middle"><tspan class="text-outer-tspan row" x="0" y="-0.1em" dy="1.1em" text-anchor="middle"></tspan></text></g></g><g><rect class="background" style="stroke: none"></rect></g><g class="edgeLabel" transform="translate(438.39126, 1259.33414)"><g class="label" data-id="L_siteQ_site_0" transform="translate(0, -10.5)"><g><rect class="background" style="" x="-13.328125" y="-1" width="26.65625" height="23"></rect><text y="-10.1" text-anchor="middle" style=""><tspan class="text-outer-tspan row" x="0" y="-0.1em" dy="1.1em" text-anchor="middle"><tspan font-style="normal" class="text-inner-tspan" font-weight="normal">Yes</tspan></tspan></text></g></g></g><g class="edgeLabel" transform="translate(585.5093688964844, 1287.0843887329102)"><g class="label" data-id="L_siteQ_coreOnly_0" transform="translate(0, -10.5)"><g><rect class="background" style="" x="-11.3984375" y="-1" width="22.796875" height="23"></rect><text y="-10.1" text-anchor="middle" style=""><tspan class="text-outer-tspan row" x="0" y="-0.1em" dy="1.1em" text-anchor="middle"><tspan font-style="normal" class="text-inner-tspan" font-weight="normal">No</tspan></tspan></text></g></g></g></g><g class="nodes"><g class="node default" id="b4ebb989-7401-410f-9098-a7aa29ab43c6-light-flowchart-start-0" data-look="classic" transform="translate(280.4421844482422, 25)"><g class="basic label-container outer-path"><path d="M-30.875 -17 C-8.22360909897105 -17, 14.4277818020579 -17, 30.875 -17 C30.875 -17, 30.875 -17, 30.875 -17 C31.144568467540054 -16.99135546392918, 31.41413693508011 -16.982710927858363, 31.96419373967212 -16.965071676755716 C32.381227770683545 -16.924840905340847, 32.79826180169497 -16.884610133925978, 33.0489117486366 -16.860430234995185 C33.29306265784166 -16.82095780941349, 33.53721356704672 -16.781485383831797, 34.124696687923326 -16.686505668848113 C34.36469077848477 -16.631728583785264, 34.60468486904622 -16.576951498722416, 35.18712792646162 -16.4440126716635 C35.47073773032888 -16.359838770573937, 35.754347534196135 -16.275664869484377, 36.23183970640155 -16.133947699181366 C36.44161498242846 -16.056748458462067, 36.65139025845537 -15.97954921774277, 37.25453908294936 -15.757584874882369 C37.62862080323233 -15.591989994053062, 38.00270252351531 -15.426395113223753, 38.25102356499849 -15.316470754341125 C38.446873857929305 -15.214295781967218, 38.64272415086012 -15.112120809593312, 39.21719838406694 -14.812417970097622 C39.48065901229579 -14.652706588998788, 39.74411964052464 -14.492995207899952, 40.149093320579325 -14.247497783161291 C40.450130979006175 -14.037506944352922, 40.75116863743302 -13.827516105544554, 41.042879018350675 -13.624031571755262 C41.34583009086699 -13.38243615329012, 41.6487811633833 -13.140840734824977, 41.8948827202324 -12.944581292275288 C42.14760490618967 -12.71506568965152, 42.40032709214694 -12.485550087027752, 42.70160336025927 -12.21193895166137 C42.99675893163079 -11.9071665914972, 43.2919145030023 -11.602394231333031, 43.45972595028036 -11.42911513444239 C43.651515604745455 -11.203828093167195, 43.843305259210545 -10.978541051892, 44.16613520195651 -10.59932663159847 C44.29798746777824 -10.42265660738587, 44.429839733599984 -10.24598658317327, 44.81792832814825 -9.725983222076888 C45.00564971957116 -9.437592754599597, 45.19337111099407 -9.149202287122307, 45.41242697109088 -8.812673661278927 C45.52631952404235 -8.610445900642024, 45.64021207699382 -8.408218140005122, 45.947188208341004 -7.863150934094199 C46.13099637344616 -7.481469346388639, 46.314804538551314 -7.099787758683079, 46.42001459126881 -6.881316833080699 C46.56916161387228 -6.5129208036886, 46.71830863647576 -6.144524774296502, 46.828963174845924 -5.871205925162238 C46.89898475183734 -5.660312091687324, 46.969006328828755 -5.449418258212409, 47.172353501623235 -4.836968972727556 C47.26505083018896 -4.483473883630109, 47.35774815875468 -4.129978794532662, 47.448774507091 -3.7828558772573464 C47.52795095739878 -3.376301538875594, 47.60712740770656 -2.9697472004938423, 47.65709031804565 -2.713198215567453 C47.707036692838706 -2.3258239956997637, 47.756983067631765 -1.9384497758320745, 47.796444920136366 -1.632391440430593 C47.81187598752415 -1.3920401101325708, 47.82730705491192 -1.1516887798345483, 47.8662656754117 -0.5448768187181379 C47.8662656754117 -0.12318344563835065, 47.8662656754117 0.29850992744143656, 47.8662656754117 0.5448768187181336 C47.846958838228566 0.8455963920437879, 47.82765200104544 1.1463159653694421, 47.796444920136366 1.6323914404305815 C47.74561831755416 2.026592533210258, 47.694791714971956 2.4207936259899347, 47.657090318045654 2.7131982155674415 C47.58078181392179 3.1050262564354214, 47.50447330979793 3.4968542973034014, 47.448774507091 3.782855877257343 C47.34429750188842 4.181271978715284, 47.23982049668584 4.5796880801732245, 47.172353501623235 4.836968972727545 C47.060138713902674 5.174942034343459, 46.94792392618211 5.5129150959593725, 46.828963174845924 5.871205925162227 C46.67208822379806 6.2586900872212885, 46.51521327275021 6.64617424928035, 46.42001459126881 6.881316833080694 C46.23210340948467 7.271518422710654, 46.044192227700535 7.661720012340615, 45.947188208341004 7.863150934094196 C45.77493912559255 8.168996622625059, 45.602690042844095 8.474842311155923, 45.41242697109089 8.812673661278923 C45.28434130863586 9.009447634626088, 45.156255646180824 9.206221607973252, 44.817928328148255 9.725983222076879 C44.56828523063117 10.060482229795719, 44.31864213311409 10.394981237514557, 44.16613520195651 10.599326631598467 C43.98807678496531 10.808484180007278, 43.81001836797411 11.017641728416091, 43.45972595028037 11.42911513444238 C43.280634947425035 11.614041298535298, 43.1015439445697 11.798967462628214, 42.70160336025927 12.211938951661365 C42.41407822079106 12.473061675828085, 42.12655308132285 12.734184399994803, 41.89488272023242 12.944581292275275 C41.57912413056367 13.196390364847138, 41.263365540894924 13.448199437419, 41.042879018350675 13.62403157175526 C40.75705272158151 13.823411623160466, 40.47122642481234 14.02279167456567, 40.14909332057934 14.247497783161286 C39.87329348082416 14.414689266800638, 39.59749364106898 14.581880750439991, 39.21719838406695 14.81241797009762 C38.85588618248129 15.000914314233345, 38.49457398089564 15.18941065836907, 38.25102356499849 15.316470754341124 C37.89169166397193 15.475536327723457, 37.53235976294538 15.63460190110579, 37.254539082949364 15.757584874882367 C36.91805288934113 15.881414904574472, 36.5815666957329 16.005244934266575, 36.23183970640156 16.133947699181363 C36.01133506480906 16.199392319353535, 35.790830423216555 16.264836939525708, 35.18712792646164 16.444012671663497 C34.88203901494461 16.51364722482605, 34.576950103427585 16.58328177798861, 34.12469668792333 16.68650566884811 C33.81710969453483 16.736233948566404, 33.50952270114633 16.785962228284696, 33.04891174863661 16.86043023499518 C32.798175088462145 16.88461849904726, 32.547438428287684 16.90880676309934, 31.96419373967212 16.965071676755716 C31.69847405913282 16.97359278971863, 31.432754378593526 16.982113902681544, 30.875000000000004 17 C30.875000000000004 17, 30.875 17, 30.875 17 C6.5973801207825105 17, -17.68023975843498 17, -30.874999999999996 17 C-31.262094109614583 16.987586645337636, -31.64918821922917 16.975173290675272, -31.964193739672112 16.965071676755716 C-32.38626870676317 16.924354612299858, -32.80834367385422 16.883637547844, -33.048911748636606 16.86043023499518 C-33.33996959816091 16.813374259071427, -33.63102744768522 16.76631828314767, -34.124696687923326 16.68650566884811 C-34.417098989792244 16.61976675154987, -34.70950129166116 16.553027834251633, -35.18712792646162 16.4440126716635 C-35.55618690255339 16.33447790478956, -35.92524587864517 16.22494313791562, -36.231839706401544 16.13394769918137 C-36.44328736438421 16.056133006443027, -36.65473502236687 15.978318313704682, -37.254539082949364 15.757584874882369 C-37.63672602741382 15.58840205174085, -38.01891297187828 15.419219228599331, -38.25102356499848 15.316470754341127 C-38.488374310696585 15.192645022340834, -38.725725056394694 15.06881929034054, -39.21719838406693 14.812417970097624 C-39.462259118341265 14.663860712843796, -39.7073198526156 14.515303455589969, -40.14909332057932 14.247497783161299 C-40.4272506922806 14.053467241901032, -40.705408063981885 13.859436700640765, -41.04287901835067 13.624031571755264 C-41.28375726874454 13.4319375771056, -41.524635519138414 13.239843582455935, -41.8948827202324 12.94458129227529 C-42.16577370555108 12.698565266791574, -42.43666469086976 12.452549241307858, -42.70160336025926 12.211938951661377 C-42.92272322031103 11.983614541879794, -43.1438430803628 11.75529013209821, -43.459725950280365 11.429115134442386 C-43.61844753747679 11.2426717266073, -43.77716912467322 11.056228318772213, -44.16613520195651 10.599326631598473 C-44.3511140005721 10.351471893368805, -44.5360927991877 10.103617155139137, -44.81792832814825 9.72598322207689 C-44.96178915688761 9.504974357091715, -45.105649985626975 9.283965492106542, -45.41242697109088 8.812673661278936 C-45.584542932912235 8.50706434243409, -45.75665889473359 8.201455023589242, -45.947188208341004 7.863150934094201 C-46.083254181241344 7.5806070300212065, -46.21932015414169 7.298063125948212, -46.42001459126881 6.881316833080701 C-46.53724621947315 6.591752444896647, -46.654477847677484 6.302188056712593, -46.828963174845924 5.87120592516224 C-46.956918023877144 5.485826306716824, -47.084872872908356 5.100446688271409, -47.172353501623235 4.8369689727275516 C-47.23239657307812 4.607998718438284, -47.29243964453301 4.379028464149017, -47.448774507091 3.782855877257349 C-47.501248126896044 3.5134149298619284, -47.553721746701086 3.2439739824665077, -47.65709031804565 2.713198215567455 C-47.68545386988238 2.4932161085386033, -47.71381742171911 2.273234001509752, -47.796444920136366 1.6323914404306026 C-47.81593629413306 1.3287975572782664, -47.835427668129746 1.02520367412593, -47.8662656754117 0.54487681871814 C-47.8662656754117 0.27645755993804244, -47.8662656754117 0.008038301157944905, -47.8662656754117 -0.5448768187181317 C-47.84124813225958 -0.934545247109692, -47.81623058910746 -1.3242136755012521, -47.796444920136366 -1.6323914404305793 C-47.74411287970525 -2.0382684118840895, -47.69178083927413 -2.4441453833375997, -47.657090318045654 -2.713198215567447 C-47.60434334713655 -2.984042763109438, -47.55159637622745 -3.254887310651429, -47.448774507091 -3.782855877257341 C-47.3821238401178 -4.037023757007967, -47.31547317314459 -4.291191636758594, -47.172353501623235 -4.836968972727544 C-47.096109567002394 -5.066603555984251, -47.019865632381546 -5.296238139240959, -46.82896317484593 -5.871205925162218 C-46.694619554506794 -6.203037264757096, -46.56027593416765 -6.534868604351975, -46.42001459126881 -6.881316833080692 C-46.265054193421335 -7.203095414832341, -46.11009379557386 -7.52487399658399, -45.947188208341004 -7.863150934094194 C-45.77807956020871 -8.163420462960582, -45.60897091207641 -8.463689991826971, -45.41242697109088 -8.812673661278929 C-45.27456468946951 -9.024467147055432, -45.136702407848134 -9.236260632831936, -44.81792832814825 -9.725983222076884 C-44.59667536436564 -10.022442036985922, -44.37542240058303 -10.318900851894961, -44.16613520195651 -10.599326631598467 C-43.97971278845383 -10.818309006234548, -43.79329037495115 -11.037291380870629, -43.45972595028037 -11.42911513444238 C-43.2881202738799 -11.606312084413926, -43.11651459747942 -11.78350903438547, -42.70160336025928 -12.21193895166136 C-42.511539927597724 -12.384549532401728, -42.321476494936164 -12.557160113142094, -41.89488272023242 -12.944581292275274 C-41.560223801936715 -13.211462873968264, -41.22556488364101 -13.478344455661256, -41.042879018350675 -13.624031571755259 C-40.755308724270805 -13.824628160187983, -40.46773843019094 -14.025224748620706, -40.14909332057934 -14.247497783161284 C-39.84652207301874 -14.43091825153854, -39.54395082545813 -14.614338719915795, -39.21719838406695 -14.812417970097618 C-38.985837206600166 -14.933118948188131, -38.754476029133386 -15.053819926278642, -38.25102356499849 -15.316470754341124 C-38.02979860480013 -15.414400481815656, -37.808573644601765 -15.51233020929019, -37.25453908294937 -15.757584874882365 C-36.90679553525017 -15.88555771494179, -36.55905198755096 -16.013530555001214, -36.231839706401566 -16.133947699181363 C-35.94022969755693 -16.22049601911428, -35.6486196887123 -16.30704433904719, -35.18712792646164 -16.444012671663494 C-34.96610981119869 -16.494458614194272, -34.74509169593574 -16.54490455672505, -34.12469668792333 -16.68650566884811 C-33.7675776630344 -16.744241903292753, -33.41045863814547 -16.801978137737393, -33.04891174863661 -16.86043023499518 C-32.70195125492506 -16.89390109654249, -32.354990761213514 -16.9273719580898, -31.96419373967212 -16.965071676755716 C-31.643426793804696 -16.9753580483747, -31.322659847937274 -16.985644419993687, -30.875000000000004 -17 C-30.875000000000004 -17, -30.875 -17, -30.875 -17" stroke="none" stroke-width="0" fill="#ECECFF" style=""></path><path d="M-30.875 -17 C-16.15571740508493 -17, -1.4364348101698603 -17, 30.875 -17 M-30.875 -17 C-17.677043695318773 -17, -4.479087390637545 -17, 30.875 -17 M30.875 -17 C30.875 -17, 30.875 -17, 30.875 -17 M30.875 -17 C30.875 -17, 30.875 -17, 30.875 -17 M30.875 -17 C31.101312958308384 -16.9927425839185, 31.327625916616768 -16.985485167837002, 31.96419373967212 -16.965071676755716 M30.875 -17 C31.187574015741884 -16.98997635970357, 31.50014803148377 -16.97995271940714, 31.96419373967212 -16.965071676755716 M31.96419373967212 -16.965071676755716 C32.300222402956585 -16.93265539574226, 32.63625106624105 -16.9002391147288, 33.0489117486366 -16.860430234995185 M31.96419373967212 -16.965071676755716 C32.24050408360463 -16.938416350188355, 32.51681442753714 -16.911761023620993, 33.0489117486366 -16.860430234995185 M33.0489117486366 -16.860430234995185 C33.36963622987575 -16.80857798812394, 33.690360711114906 -16.75672574125269, 34.124696687923326 -16.686505668848113 M33.0489117486366 -16.860430234995185 C33.39196442765353 -16.80496813826499, 33.735017106670455 -16.74950604153479, 34.124696687923326 -16.686505668848113 M34.124696687923326 -16.686505668848113 C34.45867567242858 -16.610277145051338, 34.79265465693385 -16.534048621254563, 35.18712792646162 -16.4440126716635 M34.124696687923326 -16.686505668848113 C34.41104332271936 -16.62114891804234, 34.69738995751539 -16.555792167236564, 35.18712792646162 -16.4440126716635 M35.18712792646162 -16.4440126716635 C35.54200279608549 -16.33868767313534, 35.89687766570937 -16.233362674607175, 36.23183970640155 -16.133947699181366 M35.18712792646162 -16.4440126716635 C35.39852925533056 -16.38126986692342, 35.60993058419949 -16.31852706218334, 36.23183970640155 -16.133947699181366 M36.23183970640155 -16.133947699181366 C36.52393993843118 -16.02645211364952, 36.81604017046081 -15.918956528117668, 37.25453908294936 -15.757584874882369 M36.23183970640155 -16.133947699181366 C36.607122453120525 -15.9958401793131, 36.9824051998395 -15.857732659444835, 37.25453908294936 -15.757584874882369 M37.25453908294936 -15.757584874882369 C37.61022353328942 -15.600133919721165, 37.965907983629485 -15.44268296455996, 38.25102356499849 -15.316470754341125 M37.25453908294936 -15.757584874882369 C37.571596788678626 -15.617232833738697, 37.888654494407895 -15.476880792595024, 38.25102356499849 -15.316470754341125 M38.25102356499849 -15.316470754341125 C38.52124558007485 -15.17549610216125, 38.79146759515121 -15.034521449981373, 39.21719838406694 -14.812417970097622 M38.25102356499849 -15.316470754341125 C38.63157640695186 -15.117936580449781, 39.01212924890523 -14.919402406558437, 39.21719838406694 -14.812417970097622 M39.21719838406694 -14.812417970097622 C39.44880160762512 -14.672018734925034, 39.68040483118331 -14.531619499752445, 40.149093320579325 -14.247497783161291 M39.21719838406694 -14.812417970097622 C39.48524695150332 -14.649925353289456, 39.75329551893971 -14.48743273648129, 40.149093320579325 -14.247497783161291 M40.149093320579325 -14.247497783161291 C40.4365480102447 -14.046981835363686, 40.72400269991007 -13.846465887566081, 41.042879018350675 -13.624031571755262 M40.149093320579325 -14.247497783161291 C40.35088355722367 -14.106737649436756, 40.552673793868 -13.965977515712222, 41.042879018350675 -13.624031571755262 M41.042879018350675 -13.624031571755262 C41.222118231044114 -13.481093069388015, 41.401357443737545 -13.338154567020766, 41.8948827202324 -12.944581292275288 M41.042879018350675 -13.624031571755262 C41.23795519403292 -13.468463512843721, 41.43303136971517 -13.31289545393218, 41.8948827202324 -12.944581292275288 M41.8948827202324 -12.944581292275288 C42.16581525303608 -12.698527534464986, 42.436747785839756 -12.452473776654685, 42.70160336025927 -12.21193895166137 M41.8948827202324 -12.944581292275288 C42.15861744470562 -12.705064393547135, 42.42235216917884 -12.465547494818981, 42.70160336025927 -12.21193895166137 M42.70160336025927 -12.21193895166137 C42.997144261814924 -11.906768706445883, 43.29268516337058 -11.601598461230394, 43.45972595028036 -11.42911513444239 M42.70160336025927 -12.21193895166137 C42.888474726523526 -12.018978923569026, 43.075346092787775 -11.826018895476684, 43.45972595028036 -11.42911513444239 M43.45972595028036 -11.42911513444239 C43.66387960697479 -11.189304632616958, 43.868033263669226 -10.949494130791527, 44.16613520195651 -10.59932663159847 M43.45972595028036 -11.42911513444239 C43.61597916164359 -11.245571221315545, 43.77223237300681 -11.062027308188704, 44.16613520195651 -10.59932663159847 M44.16613520195651 -10.59932663159847 C44.31666484801389 -10.397630619414445, 44.46719449407128 -10.195934607230416, 44.81792832814825 -9.725983222076888 M44.16613520195651 -10.59932663159847 C44.32883066375714 -10.381329534647106, 44.491526125557776 -10.163332437695743, 44.81792832814825 -9.725983222076888 M44.81792832814825 -9.725983222076888 C44.991627152963595 -9.459135182495183, 45.16532597777894 -9.192287142913477, 45.41242697109088 -8.812673661278927 M44.81792832814825 -9.725983222076888 C44.965599406296626 -9.49912079080424, 45.113270484445 -9.272258359531591, 45.41242697109088 -8.812673661278927 M45.41242697109088 -8.812673661278927 C45.56753443533302 -8.537264652183111, 45.72264189957517 -8.261855643087294, 45.947188208341004 -7.863150934094199 M45.41242697109088 -8.812673661278927 C45.59410292252554 -8.490089612821738, 45.775778873960206 -8.167505564364546, 45.947188208341004 -7.863150934094199 M45.947188208341004 -7.863150934094199 C46.096226353925715 -7.5536700358820745, 46.245264499510434 -7.24418913766995, 46.42001459126881 -6.881316833080699 M45.947188208341004 -7.863150934094199 C46.044634191895526 -7.660802264233196, 46.14208017545005 -7.458453594372191, 46.42001459126881 -6.881316833080699 M46.42001459126881 -6.881316833080699 C46.548968281849874 -6.562798724195477, 46.67792197243093 -6.244280615310256, 46.828963174845924 -5.871205925162238 M46.42001459126881 -6.881316833080699 C46.53904826942905 -6.587301346665298, 46.65808194758929 -6.293285860249899, 46.828963174845924 -5.871205925162238 M46.828963174845924 -5.871205925162238 C46.90484181965905 -5.642671536605366, 46.98072046447217 -5.414137148048494, 47.172353501623235 -4.836968972727556 M46.828963174845924 -5.871205925162238 C46.96020884891061 -5.47591486603777, 47.091454522975305 -5.080623806913302, 47.172353501623235 -4.836968972727556 M47.172353501623235 -4.836968972727556 C47.26428953216867 -4.486377042930139, 47.356225562714094 -4.135785113132722, 47.448774507091 -3.7828558772573464 M47.172353501623235 -4.836968972727556 C47.27510245085629 -4.445142697625626, 47.37785140008934 -4.0533164225236975, 47.448774507091 -3.7828558772573464 M47.448774507091 -3.7828558772573464 C47.523866983205295 -3.3972718832108977, 47.59895945931959 -3.011687889164449, 47.65709031804565 -2.713198215567453 M47.448774507091 -3.7828558772573464 C47.49301626692637 -3.5556837910019965, 47.537258026761734 -3.328511704746647, 47.65709031804565 -2.713198215567453 M47.65709031804565 -2.713198215567453 C47.703546982057446 -2.352889503397884, 47.750003646069246 -1.992580791228315, 47.796444920136366 -1.632391440430593 M47.65709031804565 -2.713198215567453 C47.703506832182136 -2.3532008979023264, 47.74992334631862 -1.9932035802372001, 47.796444920136366 -1.632391440430593 M47.796444920136366 -1.632391440430593 C47.811982530343464 -1.3903806197217938, 47.82752014055057 -1.1483697990129944, 47.8662656754117 -0.5448768187181379 M47.796444920136366 -1.632391440430593 C47.81066643868755 -1.4108798095927548, 47.82488795723874 -1.1893681787549166, 47.8662656754117 -0.5448768187181379 M47.8662656754117 -0.5448768187181379 C47.8662656754117 -0.323157293802272, 47.8662656754117 -0.10143776888640615, 47.8662656754117 0.5448768187181336 M47.8662656754117 -0.5448768187181379 C47.8662656754117 -0.17448225359416492, 47.8662656754117 0.19591231152980804, 47.8662656754117 0.5448768187181336 M47.8662656754117 0.5448768187181336 C47.84752991192695 0.836701458229139, 47.8287941484422 1.1285260977401443, 47.796444920136366 1.6323914404305815 M47.8662656754117 0.5448768187181336 C47.83912655439586 0.967590534843962, 47.81198743338002 1.3903042509697903, 47.796444920136366 1.6323914404305815 M47.796444920136366 1.6323914404305815 C47.76289661768127 1.8925854494106742, 47.729348315226176 2.152779458390767, 47.657090318045654 2.7131982155674415 M47.796444920136366 1.6323914404305815 C47.74592691987681 2.024199074536217, 47.69540891961725 2.416006708641852, 47.657090318045654 2.7131982155674415 M47.657090318045654 2.7131982155674415 C47.5767161117802 3.1259027776460293, 47.49634190551475 3.538607339724617, 47.448774507091 3.782855877257343 M47.657090318045654 2.7131982155674415 C47.59085372133394 3.053309140572389, 47.52461712462224 3.3934200655773363, 47.448774507091 3.782855877257343 M47.448774507091 3.782855877257343 C47.38791249359446 4.0149491124831425, 47.32705048009793 4.247042347708942, 47.172353501623235 4.836968972727545 M47.448774507091 3.782855877257343 C47.347587488134934 4.168725835268269, 47.24640046917886 4.554595793279195, 47.172353501623235 4.836968972727545 M47.172353501623235 4.836968972727545 C47.095556532296584 5.068269208404034, 47.018759562969926 5.2995694440805226, 46.828963174845924 5.871205925162227 M47.172353501623235 4.836968972727545 C47.070819364354215 5.142773616913972, 46.969285227085194 5.4485782611004, 46.828963174845924 5.871205925162227 M46.828963174845924 5.871205925162227 C46.743209162952695 6.083019992479539, 46.657455151059466 6.294834059796851, 46.42001459126881 6.881316833080694 M46.828963174845924 5.871205925162227 C46.68512022377127 6.226500795330882, 46.541277272696625 6.581795665499536, 46.42001459126881 6.881316833080694 M46.42001459126881 6.881316833080694 C46.26008894881753 7.213405851491345, 46.10016330636626 7.5454948699019955, 45.947188208341004 7.863150934094196 M46.42001459126881 6.881316833080694 C46.27826440490825 7.1756641280265105, 46.136514218547696 7.470011422972327, 45.947188208341004 7.863150934094196 M45.947188208341004 7.863150934094196 C45.822795006078444 8.084023660888983, 45.698401803815884 8.304896387683769, 45.41242697109089 8.812673661278923 M45.947188208341004 7.863150934094196 C45.77267690217468 8.173013429378452, 45.59816559600836 8.482875924662709, 45.41242697109089 8.812673661278923 M45.41242697109089 8.812673661278923 C45.23597828553864 9.083746225393506, 45.0595295999864 9.354818789508087, 44.817928328148255 9.725983222076879 M45.41242697109089 8.812673661278923 C45.196341024037814 9.144639703153802, 44.98025507698474 9.476605745028682, 44.817928328148255 9.725983222076879 M44.817928328148255 9.725983222076879 C44.63551029018383 9.97040677432407, 44.453092252219406 10.21483032657126, 44.16613520195651 10.599326631598467 M44.817928328148255 9.725983222076879 C44.57517963526856 10.051244355674802, 44.33243094238887 10.376505489272724, 44.16613520195651 10.599326631598467 M44.16613520195651 10.599326631598467 C43.94337713726192 10.860990929681693, 43.720619072567324 11.122655227764916, 43.45972595028037 11.42911513444238 M44.16613520195651 10.599326631598467 C43.89132065210634 10.92213943924335, 43.616506102256174 11.244952246888236, 43.45972595028037 11.42911513444238 M43.45972595028037 11.42911513444238 C43.22889330211215 11.667468795388938, 42.998060653943924 11.905822456335498, 42.70160336025927 12.211938951661365 M43.45972595028037 11.42911513444238 C43.23551272650391 11.660633696239593, 43.01129950272745 11.892152258036806, 42.70160336025927 12.211938951661365 M42.70160336025927 12.211938951661365 C42.50815418593623 12.387624373396878, 42.31470501161319 12.56330979513239, 41.89488272023242 12.944581292275275 M42.70160336025927 12.211938951661365 C42.48358832819065 12.409934435424438, 42.26557329612203 12.607929919187509, 41.89488272023242 12.944581292275275 M41.89488272023242 12.944581292275275 C41.593802106001625 13.184685070032703, 41.29272149177083 13.42478884779013, 41.042879018350675 13.62403157175526 M41.89488272023242 12.944581292275275 C41.64542211913316 13.143519483226543, 41.3959615180339 13.34245767417781, 41.042879018350675 13.62403157175526 M41.042879018350675 13.62403157175526 C40.84226275583378 13.763972791949016, 40.64164649331688 13.903914012142769, 40.14909332057934 14.247497783161286 M41.042879018350675 13.62403157175526 C40.81718579061656 13.781465397320215, 40.59149256288245 13.938899222885171, 40.14909332057934 14.247497783161286 M40.14909332057934 14.247497783161286 C39.94486603326153 14.3713015649061, 39.74063874594372 14.495105346650913, 39.21719838406695 14.81241797009762 M40.14909332057934 14.247497783161286 C39.88283350851686 14.408906045949898, 39.61657369645438 14.570314308738512, 39.21719838406695 14.81241797009762 M39.21719838406695 14.81241797009762 C38.84180962732569 15.008258044041561, 38.46642087058442 15.204098117985502, 38.25102356499849 15.316470754341124 M39.21719838406695 14.81241797009762 C38.903896068600744 14.975867587396625, 38.59059375313455 15.139317204695631, 38.25102356499849 15.316470754341124 M38.25102356499849 15.316470754341124 C38.02630452981855 15.415947205161947, 37.80158549463862 15.51542365598277, 37.254539082949364 15.757584874882367 M38.25102356499849 15.316470754341124 C37.939138193685245 15.454533156470672, 37.62725282237199 15.592595558600223, 37.254539082949364 15.757584874882367 M37.254539082949364 15.757584874882367 C36.96413084634417 15.864457790457388, 36.67372260973898 15.971330706032411, 36.23183970640156 16.133947699181363 M37.254539082949364 15.757584874882367 C36.88736211914679 15.892709391708358, 36.52018515534423 16.02783390853435, 36.23183970640156 16.133947699181363 M36.23183970640156 16.133947699181363 C36.00073021282472 16.20253978375648, 35.76962071924788 16.2711318683316, 35.18712792646164 16.444012671663497 M36.23183970640156 16.133947699181363 C35.96937706048915 16.211845234793625, 35.706914414576744 16.289742770405883, 35.18712792646164 16.444012671663497 M35.18712792646164 16.444012671663497 C34.84738827842889 16.521556029318578, 34.507648630396126 16.599099386973663, 34.12469668792333 16.68650566884811 M35.18712792646164 16.444012671663497 C34.76679009215011 16.539952039384392, 34.34645225783857 16.635891407105287, 34.12469668792333 16.68650566884811 M34.12469668792333 16.68650566884811 C33.80306702860069 16.738504257892135, 33.48143736927804 16.79050284693616, 33.04891174863661 16.86043023499518 M34.12469668792333 16.68650566884811 C33.81556706801409 16.73648334845903, 33.506437448104855 16.786461028069947, 33.04891174863661 16.86043023499518 M33.04891174863661 16.86043023499518 C32.751692085858586 16.889102658404436, 32.45447242308055 16.91777508181369, 31.96419373967212 16.965071676755716 M33.04891174863661 16.86043023499518 C32.76540956883928 16.887779349318976, 32.48190738904194 16.91512846364277, 31.96419373967212 16.965071676755716 M31.96419373967212 16.965071676755716 C31.550500578706018 16.97833801122301, 31.136807417739913 16.991604345690305, 30.875000000000004 17 M31.96419373967212 16.965071676755716 C31.658208206522428 16.974884037239118, 31.35222267337274 16.98469639772252, 30.875000000000004 17 M30.875000000000004 17 C30.875000000000004 17, 30.875 17, 30.875 17 M30.875000000000004 17 C30.875000000000004 17, 30.875 17, 30.875 17 M30.875 17 C8.23447139230003 17, -14.40605721539994 17, -30.874999999999996 17 M30.875 17 C17.04183578162079 17, 3.2086715632415768 17, -30.874999999999996 17 M-30.874999999999996 17 C-31.13327852338393 16.991717510463726, -31.39155704676786 16.983435020927452, -31.964193739672112 16.965071676755716 M-30.874999999999996 17 C-31.166010478445013 16.9906678603738, -31.45702095689003 16.981335720747605, -31.964193739672112 16.965071676755716 M-31.964193739672112 16.965071676755716 C-32.22074171976486 16.94032280166026, -32.47728969985761 16.915573926564797, -33.048911748636606 16.86043023499518 M-31.964193739672112 16.965071676755716 C-32.248718867066756 16.937623879907484, -32.5332439944614 16.910176083059252, -33.048911748636606 16.86043023499518 M-33.048911748636606 16.86043023499518 C-33.35971742941771 16.810181582860547, -33.67052311019881 16.75993293072591, -34.124696687923326 16.68650566884811 M-33.048911748636606 16.86043023499518 C-33.39143733735452 16.805053354136884, -33.73396292607242 16.749676473278583, -34.124696687923326 16.68650566884811 M-34.124696687923326 16.68650566884811 C-34.471067867393764 16.607448707417163, -34.8174390468642 16.528391745986216, -35.18712792646162 16.4440126716635 M-34.124696687923326 16.68650566884811 C-34.40043121773074 16.62357106175553, -34.676165747538164 16.56063645466295, -35.18712792646162 16.4440126716635 M-35.18712792646162 16.4440126716635 C-35.47201789101547 16.35945882560186, -35.75690785556932 16.274904979540217, -36.231839706401544 16.13394769918137 M-35.18712792646162 16.4440126716635 C-35.4893889549413 16.354303185011247, -35.791649983420974 16.264593698358997, -36.231839706401544 16.13394769918137 M-36.231839706401544 16.13394769918137 C-36.63452219027319 15.985756822760528, -37.03720467414483 15.837565946339687, -37.254539082949364 15.757584874882369 M-36.231839706401544 16.13394769918137 C-36.44644893848879 16.054969517947267, -36.66105817057604 15.975991336713166, -37.254539082949364 15.757584874882369 M-37.254539082949364 15.757584874882369 C-37.60239701795664 15.603598485893661, -37.95025495296392 15.449612096904954, -38.25102356499848 15.316470754341127 M-37.254539082949364 15.757584874882369 C-37.55656148743291 15.623888515593812, -37.85858389191646 15.490192156305255, -38.25102356499848 15.316470754341127 M-38.25102356499848 15.316470754341127 C-38.521690882775744 15.175263788027422, -38.792358200553004 15.034056821713715, -39.21719838406693 14.812417970097624 M-38.25102356499848 15.316470754341127 C-38.49363439827938 15.189900838018136, -38.73624523156028 15.063330921695146, -39.21719838406693 14.812417970097624 M-39.21719838406693 14.812417970097624 C-39.522842719466 14.627134577813226, -39.82848705486506 14.44185118552883, -40.14909332057932 14.247497783161299 M-39.21719838406693 14.812417970097624 C-39.48066531866182 14.652702766042637, -39.74413225325671 14.49298756198765, -40.14909332057932 14.247497783161299 M-40.14909332057932 14.247497783161299 C-40.330164583896014 14.121190308320225, -40.51123584721271 13.994882833479153, -41.04287901835067 13.624031571755264 M-40.14909332057932 14.247497783161299 C-40.432039096255146 14.050127058575058, -40.71498487193098 13.852756333988815, -41.04287901835067 13.624031571755264 M-41.04287901835067 13.624031571755264 C-41.27015673049989 13.442783644430184, -41.497434442649116 13.261535717105104, -41.8948827202324 12.94458129227529 M-41.04287901835067 13.624031571755264 C-41.36143103088166 13.369994818786868, -41.67998304341265 13.115958065818472, -41.8948827202324 12.94458129227529 M-41.8948827202324 12.94458129227529 C-42.15565554331177 12.707754314025419, -42.41642836639113 12.470927335775546, -42.70160336025926 12.211938951661377 M-41.8948827202324 12.94458129227529 C-42.130882209758745 12.730252800091783, -42.366881699285095 12.515924307908277, -42.70160336025926 12.211938951661377 M-42.70160336025926 12.211938951661377 C-42.872915837687145 12.03504475370112, -43.04422831511503 11.858150555740862, -43.459725950280365 11.429115134442386 M-42.70160336025926 12.211938951661377 C-42.85907872136027 12.049332712356998, -43.01655408246127 11.886726473052617, -43.459725950280365 11.429115134442386 M-43.459725950280365 11.429115134442386 C-43.68627533652484 11.162997334334367, -43.91282472276931 10.896879534226349, -44.16613520195651 10.599326631598473 M-43.459725950280365 11.429115134442386 C-43.68872795508358 11.160116349017322, -43.917729959886785 10.891117563592259, -44.16613520195651 10.599326631598473 M-44.16613520195651 10.599326631598473 C-44.33904358973253 10.367645144256784, -44.51195197750855 10.135963656915095, -44.81792832814825 9.72598322207689 M-44.16613520195651 10.599326631598473 C-44.32287432893341 10.389310480677642, -44.47961345591031 10.17929432975681, -44.81792832814825 9.72598322207689 M-44.81792832814825 9.72598322207689 C-45.00773747081438 9.434385408050316, -45.197546613480505 9.14278759402374, -45.41242697109088 8.812673661278936 M-44.81792832814825 9.72598322207689 C-45.01188171440402 9.428018737011401, -45.20583510065979 9.130054251945912, -45.41242697109088 8.812673661278936 M-45.41242697109088 8.812673661278936 C-45.62317113932604 8.438476050416336, -45.83391530756119 8.064278439553735, -45.947188208341004 7.863150934094201 M-45.41242697109088 8.812673661278936 C-45.57390698158377 8.525949551024642, -45.735386992076656 8.239225440770348, -45.947188208341004 7.863150934094201 M-45.947188208341004 7.863150934094201 C-46.1132518848758 7.518316156576221, -46.279315561410606 7.17348137905824, -46.42001459126881 6.881316833080701 M-45.947188208341004 7.863150934094201 C-46.04709186559291 7.655698852214781, -46.146995522844826 7.44824677033536, -46.42001459126881 6.881316833080701 M-46.42001459126881 6.881316833080701 C-46.57342608507234 6.502387477376522, -46.72683757887587 6.123458121672343, -46.828963174845924 5.87120592516224 M-46.42001459126881 6.881316833080701 C-46.56399457826254 6.525683481542521, -46.707974565256265 6.170050130004341, -46.828963174845924 5.87120592516224 M-46.828963174845924 5.87120592516224 C-46.90552865114111 5.6406029096131265, -46.9820941274363 5.409999894064013, -47.172353501623235 4.8369689727275516 M-46.828963174845924 5.87120592516224 C-46.95293659897676 5.497817724162852, -47.0769100231076 5.124429523163465, -47.172353501623235 4.8369689727275516 M-47.172353501623235 4.8369689727275516 C-47.263524777824856 4.489293382689704, -47.35469605402648 4.141617792651855, -47.448774507091 3.782855877257349 M-47.172353501623235 4.8369689727275516 C-47.23610655493518 4.593850949700994, -47.29985960824713 4.350732926674437, -47.448774507091 3.782855877257349 M-47.448774507091 3.782855877257349 C-47.51544749964404 3.4405041518394412, -47.582120492197085 3.0981524264215334, -47.65709031804565 2.713198215567455 M-47.448774507091 3.782855877257349 C-47.505143625385756 3.4934123684311436, -47.56151274368051 3.2039688596049385, -47.65709031804565 2.713198215567455 M-47.65709031804565 2.713198215567455 C-47.70837211852954 2.3154666977513036, -47.75965391901343 1.9177351799351516, -47.796444920136366 1.6323914404306026 M-47.65709031804565 2.713198215567455 C-47.698499341057776 2.3920380102218552, -47.73990836406991 2.0708778048762553, -47.796444920136366 1.6323914404306026 M-47.796444920136366 1.6323914404306026 C-47.815098771854196 1.3418426428073096, -47.83375262357203 1.0512938451840168, -47.8662656754117 0.54487681871814 M-47.796444920136366 1.6323914404306026 C-47.81423843356172 1.3552431061652521, -47.832031946987065 1.0780947718999017, -47.8662656754117 0.54487681871814 M-47.8662656754117 0.54487681871814 C-47.8662656754117 0.26570208692604047, -47.8662656754117 -0.013472644866059036, -47.8662656754117 -0.5448768187181317 M-47.8662656754117 0.54487681871814 C-47.8662656754117 0.17273679695210914, -47.8662656754117 -0.1994032248139217, -47.8662656754117 -0.5448768187181317 M-47.8662656754117 -0.5448768187181317 C-47.8421665378847 -0.9202403381747449, -47.818067400357705 -1.2956038576313582, -47.796444920136366 -1.6323914404305793 M-47.8662656754117 -0.5448768187181317 C-47.84991393121779 -0.7995684334285617, -47.83356218702388 -1.0542600481389917, -47.796444920136366 -1.6323914404305793 M-47.796444920136366 -1.6323914404305793 C-47.758218428060566 -1.928868564295819, -47.719991935984766 -2.2253456881610587, -47.657090318045654 -2.713198215567447 M-47.796444920136366 -1.6323914404305793 C-47.750874325838666 -1.9858279708718847, -47.705303731540965 -2.33926450131319, -47.657090318045654 -2.713198215567447 M-47.657090318045654 -2.713198215567447 C-47.58147524462559 -3.101465636328071, -47.50586017120552 -3.4897330570886944, -47.448774507091 -3.782855877257341 M-47.657090318045654 -2.713198215567447 C-47.59606977432223 -3.026525810890754, -47.5350492305988 -3.3398534062140612, -47.448774507091 -3.782855877257341 M-47.448774507091 -3.782855877257341 C-47.3909791921168 -4.0032544619019275, -47.3331838771426 -4.223653046546515, -47.172353501623235 -4.836968972727544 M-47.448774507091 -3.782855877257341 C-47.362507101614476 -4.111830882869368, -47.27623969613796 -4.440805888481394, -47.172353501623235 -4.836968972727544 M-47.172353501623235 -4.836968972727544 C-47.095747653483926 -5.067693581838782, -47.01914180534462 -5.298418190950021, -46.82896317484593 -5.871205925162218 M-47.172353501623235 -4.836968972727544 C-47.04544823736736 -5.219187409058255, -46.918542973111485 -5.601405845388966, -46.82896317484593 -5.871205925162218 M-46.82896317484593 -5.871205925162218 C-46.73205395005367 -6.110573584011515, -46.6351447252614 -6.349941242860813, -46.42001459126881 -6.881316833080692 M-46.82896317484593 -5.871205925162218 C-46.724522146355746 -6.129177284762886, -46.62008111786557 -6.387148644363554, -46.42001459126881 -6.881316833080692 M-46.42001459126881 -6.881316833080692 C-46.2434871724497 -7.247879795340268, -46.066959753630584 -7.614442757599843, -45.947188208341004 -7.863150934094194 M-46.42001459126881 -6.881316833080692 C-46.32236888757403 -7.084080226086266, -46.22472318387925 -7.28684361909184, -45.947188208341004 -7.863150934094194 M-45.947188208341004 -7.863150934094194 C-45.806992711398166 -8.112082235249664, -45.66679721445533 -8.361013536405135, -45.41242697109088 -8.812673661278929 M-45.947188208341004 -7.863150934094194 C-45.79034407973248 -8.141643566628863, -45.633499951123945 -8.420136199163531, -45.41242697109088 -8.812673661278929 M-45.41242697109088 -8.812673661278929 C-45.220146873439774 -9.108067525706751, -45.02786677578867 -9.403461390134574, -44.81792832814825 -9.725983222076884 M-45.41242697109088 -8.812673661278929 C-45.281110229696075 -9.01441143954377, -45.14979348830127 -9.21614921780861, -44.81792832814825 -9.725983222076884 M-44.81792832814825 -9.725983222076884 C-44.61335194934915 -10.000096932376163, -44.40877557055005 -10.27421064267544, -44.16613520195651 -10.599326631598467 M-44.81792832814825 -9.725983222076884 C-44.66067303391795 -9.93669099009346, -44.50341773968765 -10.147398758110036, -44.16613520195651 -10.599326631598467 M-44.16613520195651 -10.599326631598467 C-43.90870788240275 -10.901715409175754, -43.651280562848996 -11.20410418675304, -43.45972595028037 -11.42911513444238 M-44.16613520195651 -10.599326631598467 C-43.917307516685916 -10.891613789413691, -43.66847983141533 -11.183900947228917, -43.45972595028037 -11.42911513444238 M-43.45972595028037 -11.42911513444238 C-43.208433276006225 -11.688595452142685, -42.957140601732085 -11.94807576984299, -42.70160336025928 -12.21193895166136 M-43.45972595028037 -11.42911513444238 C-43.30192734336755 -11.592055151586434, -43.14412873645473 -11.754995168730487, -42.70160336025928 -12.21193895166136 M-42.70160336025928 -12.21193895166136 C-42.400591004067834 -12.48531040920392, -42.099578647876385 -12.75868186674648, -41.89488272023242 -12.944581292275274 M-42.70160336025928 -12.21193895166136 C-42.45572231652146 -12.43524160992813, -42.209841272783635 -12.6585442681949, -41.89488272023242 -12.944581292275274 M-41.89488272023242 -12.944581292275274 C-41.67304618883203 -13.121490022749056, -41.45120965743165 -13.298398753222838, -41.042879018350675 -13.624031571755259 M-41.89488272023242 -12.944581292275274 C-41.69727614469149 -13.10216727773734, -41.49966956915057 -13.259753263199405, -41.042879018350675 -13.624031571755259 M-41.042879018350675 -13.624031571755259 C-40.823496317286924 -13.777063447093266, -40.60411361622318 -13.93009532243127, -40.14909332057934 -14.247497783161284 M-41.042879018350675 -13.624031571755259 C-40.718893657671344 -13.850029734264941, -40.394908296992014 -14.076027896774626, -40.14909332057934 -14.247497783161284 M-40.14909332057934 -14.247497783161284 C-39.910719982363794 -14.392001101624775, -39.67234664414825 -14.536504420088265, -39.21719838406695 -14.812417970097618 M-40.14909332057934 -14.247497783161284 C-39.8924218400897 -14.403093543003148, -39.63575035960007 -14.558689302845014, -39.21719838406695 -14.812417970097618 M-39.21719838406695 -14.812417970097618 C-38.90565538999885 -14.974949750550135, -38.59411239593075 -15.137481531002651, -38.25102356499849 -15.316470754341124 M-39.21719838406695 -14.812417970097618 C-38.87090031000574 -14.99308145352085, -38.52460223594453 -15.173744936944079, -38.25102356499849 -15.316470754341124 M-38.25102356499849 -15.316470754341124 C-37.922650827238336 -15.46183162451637, -37.59427808947819 -15.607192494691615, -37.25453908294937 -15.757584874882365 M-38.25102356499849 -15.316470754341124 C-37.91435126660303 -15.465505593811903, -37.577678968207564 -15.61454043328268, -37.25453908294937 -15.757584874882365 M-37.25453908294937 -15.757584874882365 C-37.04287085899223 -15.835480737938207, -36.83120263503508 -15.91337660099405, -36.231839706401566 -16.133947699181363 M-37.25453908294937 -15.757584874882365 C-36.99974908056739 -15.851349951011898, -36.74495907818541 -15.94511502714143, -36.231839706401566 -16.133947699181363 M-36.231839706401566 -16.133947699181363 C-35.99183557586434 -16.20517966531742, -35.75183144532713 -16.276411631453477, -35.18712792646164 -16.444012671663494 M-36.231839706401566 -16.133947699181363 C-35.85733136433905 -16.245099809271114, -35.482823022276534 -16.356251919360865, -35.18712792646164 -16.444012671663494 M-35.18712792646164 -16.444012671663494 C-34.764172464733605 -16.54054949576059, -34.34121700300557 -16.63708631985769, -34.12469668792333 -16.68650566884811 M-35.18712792646164 -16.444012671663494 C-34.76565089263313 -16.54021205424017, -34.34417385880462 -16.636411436816843, -34.12469668792333 -16.68650566884811 M-34.12469668792333 -16.68650566884811 C-33.73551003546495 -16.749426348630013, -33.34632338300656 -16.81234702841192, -33.04891174863661 -16.86043023499518 M-34.12469668792333 -16.68650566884811 C-33.74554919424165 -16.74780329529384, -33.36640170055996 -16.809100921739564, -33.04891174863661 -16.86043023499518 M-33.04891174863661 -16.86043023499518 C-32.78237747425575 -16.88614247589034, -32.5158431998749 -16.9118547167855, -31.96419373967212 -16.965071676755716 M-33.04891174863661 -16.86043023499518 C-32.67374142220578 -16.896622465177632, -32.29857109577494 -16.932814695360083, -31.96419373967212 -16.965071676755716 M-31.96419373967212 -16.965071676755716 C-31.638809097534555 -16.975506128906282, -31.313424455396987 -16.985940581056852, -30.875000000000004 -17 M-31.96419373967212 -16.965071676755716 C-31.542411225909394 -16.97859742102223, -31.12062871214667 -16.992123165288742, -30.875000000000004 -17 M-30.875000000000004 -17 C-30.875000000000004 -17, -30.875 -17, -30.875 -17 M-30.875000000000004 -17 C-30.875000000000004 -17, -30.875000000000004 -17, -30.875 -17" stroke="#9370DB" stroke-width="1.3" fill="none" stroke-dasharray="0 0" style=""></path></g><g class="label" style="" transform="translate(0, -9.5)"><rect></rect><g><rect class="background" style="stroke: none"></rect><text y="-10.1" style=""><tspan class="text-outer-tspan row" x="0" y="-0.1em" dy="1.1em"><tspan font-style="normal" class="text-inner-tspan" font-weight="normal">Start</tspan><tspan font-style="normal" class="text-inner-tspan" font-weight="normal"> here</tspan></tspan></text></g></g></g><g class="node default" id="b4ebb989-7401-410f-9098-a7aa29ab43c6-light-flowchart-docsQ-1" data-look="classic" transform="translate(280.4421844482422, 227.15000915527344)"><polygon points="135.1500015258789,0 270.3000030517578,-135.1500015258789 135.1500015258789,-270.3000030517578 0,-135.1500015258789" class="label-container" transform="translate(-134.6500015258789, 135.1500015258789)"></polygon><g class="label" style="" transform="translate(0, -35.900001525878906)"><rect></rect><g><rect class="background" style="stroke: none"></rect><text y="-10.1" style=""><tspan class="text-outer-tspan row" x="0" y="-0.1em" dy="1.1em"><tspan font-style="normal" class="text-inner-tspan" font-weight="normal">Need</tspan><tspan font-style="normal" class="text-inner-tspan" font-weight="normal"> built-in</tspan><tspan font-style="normal" class="text-inner-tspan" font-weight="normal"> docs</tspan></tspan><tspan class="text-outer-tspan row" x="0" y="1em" dy="1.1em"><tspan font-style="normal" class="text-inner-tspan" font-weight="normal">navigation,</tspan></tspan><tspan class="text-outer-tspan row" x="0" y="2.1em" dy="1.1em"><tspan font-style="normal" class="text-inner-tspan" font-weight="normal">search,</tspan><tspan font-style="normal" class="text-inner-tspan" font-weight="normal"> and</tspan><tspan font-style="normal" class="text-inner-tspan" font-weight="normal"> the</tspan><tspan font-style="normal" class="text-inner-tspan" font-weight="normal"> default</tspan></tspan><tspan class="text-outer-tspan row" x="0" y="3.2em" dy="1.1em"><tspan font-style="normal" class="text-inner-tspan" font-weight="normal">theme?</tspan></tspan></text></g></g></g><g class="node default" id="b4ebb989-7401-410f-9098-a7aa29ab43c6-light-flowchart-docs-3" data-look="classic" transform="translate(124.9296875, 579.3953247070312)"><rect class="basic label-container" style="" x="-116.9296875" y="-50.900001525878906" width="233.859375" height="101.80000305175781"></rect><g class="label" style="" transform="translate(0, -35.900001525878906)"><rect></rect><g><rect class="background" style="stroke: none"></rect><text y="-10.1" style=""><tspan class="text-outer-tspan row" x="0" y="-0.1em" dy="1.1em"><tspan font-style="normal" class="text-inner-tspan" font-weight="normal">@pagesmith/docs</tspan></tspan><tspan class="text-outer-tspan row" x="0" y="1em" dy="1.1em"><tspan font-style="normal" class="text-inner-tspan" font-weight="normal">Docs</tspan><tspan font-style="normal" class="text-inner-tspan" font-weight="normal"> preset</tspan><tspan font-style="normal" class="text-inner-tspan" font-weight="normal"> with</tspan><tspan font-style="normal" class="text-inner-tspan" font-weight="normal"> config,</tspan></tspan><tspan class="text-outer-tspan row" x="0" y="2.1em" dy="1.1em"><tspan font-style="normal" class="text-inner-tspan" font-weight="normal">navigation,</tspan><tspan font-style="normal" class="text-inner-tspan" font-weight="normal"> search,</tspan><tspan font-style="normal" class="text-inner-tspan" font-weight="normal"> and</tspan></tspan><tspan class="text-outer-tspan row" x="0" y="3.2em" dy="1.1em"><tspan font-style="normal" class="text-inner-tspan" font-weight="normal">theme</tspan></tspan></text></g></g></g><g class="node default" id="b4ebb989-7401-410f-9098-a7aa29ab43c6-light-flowchart-hostQ-5" data-look="classic" transform="translate(435.9546813964844, 579.3953247070312)"><polygon points="144.0953140258789,0 288.1906280517578,-144.0953140258789 144.0953140258789,-288.1906280517578 0,-144.0953140258789" class="label-container" transform="translate(-143.5953140258789, 144.0953140258789)"></polygon><g class="label" style="" transform="translate(0, -35.900001525878906)"><rect></rect><g><rect class="background" style="stroke: none"></rect><text y="-10.1" style=""><tspan class="text-outer-tspan row" x="0" y="-0.1em" dy="1.1em"><tspan font-style="normal" class="text-inner-tspan" font-weight="normal">Does</tspan><tspan font-style="normal" class="text-inner-tspan" font-weight="normal"> the</tspan><tspan font-style="normal" class="text-inner-tspan" font-weight="normal"> host</tspan><tspan font-style="normal" class="text-inner-tspan" font-weight="normal"> app</tspan><tspan font-style="normal" class="text-inner-tspan" font-weight="normal"> already</tspan></tspan><tspan class="text-outer-tspan row" x="0" y="1em" dy="1.1em"><tspan font-style="normal" class="text-inner-tspan" font-weight="normal">own</tspan></tspan><tspan class="text-outer-tspan row" x="0" y="2.1em" dy="1.1em"><tspan font-style="normal" class="text-inner-tspan" font-weight="normal">routing,</tspan><tspan font-style="normal" class="text-inner-tspan" font-weight="normal"> layout,</tspan><tspan font-style="normal" class="text-inner-tspan" font-weight="normal"> and</tspan><tspan font-style="normal" class="text-inner-tspan" font-weight="normal"> build</tspan></tspan><tspan class="text-outer-tspan row" x="0" y="3.2em" dy="1.1em"><tspan font-style="normal" class="text-inner-tspan" font-weight="normal">tooling?</tspan></tspan></text></g></g></g><g class="node default" id="b4ebb989-7401-410f-9098-a7aa29ab43c6-light-flowchart-core-7" data-look="classic" transform="translate(563.1460876464844, 856.1906318664551)"><rect class="basic label-container" style="" x="-111.96875" y="-59.70000076293945" width="223.9375" height="119.4000015258789"></rect><g class="label" style="" transform="translate(0, -44.70000076293945)"><rect></rect><g><rect class="background" style="stroke: none"></rect><text y="-10.1" style=""><tspan class="text-outer-tspan row" x="0" y="-0.1em" dy="1.1em"><tspan font-style="normal" class="text-inner-tspan" font-weight="normal">@pagesmith/core</tspan></tspan><tspan class="text-outer-tspan row" x="0" y="1em" dy="1.1em"><tspan font-style="normal" class="text-inner-tspan" font-weight="normal">Headless</tspan><tspan font-style="normal" class="text-inner-tspan" font-weight="normal"> content</tspan><tspan font-style="normal" class="text-inner-tspan" font-weight="normal"> layer</tspan></tspan><tspan class="text-outer-tspan row" x="0" y="2.1em" dy="1.1em"><tspan font-style="normal" class="text-inner-tspan" font-weight="normal">with</tspan></tspan><tspan class="text-outer-tspan row" x="0" y="3.2em" dy="1.1em"><tspan font-style="normal" class="text-inner-tspan" font-weight="normal">schemas,</tspan><tspan font-style="normal" class="text-inner-tspan" font-weight="normal"> loaders,</tspan><tspan font-style="normal" class="text-inner-tspan" font-weight="normal"> and</tspan></tspan><tspan class="text-outer-tspan row" x="0" y="4.300000000000001em" dy="1.1em"><tspan font-style="normal" class="text-inner-tspan" font-weight="normal">markdown</tspan></tspan></text></g></g></g><g class="node default" id="b4ebb989-7401-410f-9098-a7aa29ab43c6-light-flowchart-site-9" data-look="classic" transform="translate(286.3999938964844, 1392.0843887329102)"><rect class="basic label-container" style="" x="-127.6171875" y="-68.5" width="255.234375" height="137"></rect><g class="label" style="" transform="translate(0, -53.5)"><rect></rect><g><rect class="background" style="stroke: none"></rect><text y="-10.1" style=""><tspan class="text-outer-tspan row" x="0" y="-0.1em" dy="1.1em"><tspan font-style="normal" class="text-inner-tspan" font-weight="normal">@pagesmith/site</tspan><tspan font-style="normal" class="text-inner-tspan" font-weight="normal"> +</tspan></tspan><tspan class="text-outer-tspan row" x="0" y="1em" dy="1.1em"><tspan font-style="normal" class="text-inner-tspan" font-weight="normal">@pagesmith/core</tspan></tspan><tspan class="text-outer-tspan row" x="0" y="2.1em" dy="1.1em"><tspan font-style="normal" class="text-inner-tspan" font-weight="normal">Custom</tspan><tspan font-style="normal" class="text-inner-tspan" font-weight="normal"> site</tspan><tspan font-style="normal" class="text-inner-tspan" font-weight="normal"> shell</tspan><tspan font-style="normal" class="text-inner-tspan" font-weight="normal"> with</tspan></tspan><tspan class="text-outer-tspan row" x="0" y="3.2em" dy="1.1em"><tspan font-style="normal" class="text-inner-tspan" font-weight="normal">shared</tspan></tspan><tspan class="text-outer-tspan row" x="0" y="4.300000000000001em" dy="1.1em"><tspan font-style="normal" class="text-inner-tspan" font-weight="normal">JSX,</tspan><tspan font-style="normal" class="text-inner-tspan" font-weight="normal"> CSS/runtime,</tspan><tspan font-style="normal" class="text-inner-tspan" font-weight="normal"> and</tspan><tspan font-style="normal" class="text-inner-tspan" font-weight="normal"> Vite</tspan></tspan><tspan class="text-outer-tspan row" x="0" y="5.4em" dy="1.1em"><tspan font-style="normal" class="text-inner-tspan" font-weight="normal">SSG</tspan></tspan></text></g></g></g><g class="node default" id="b4ebb989-7401-410f-9098-a7aa29ab43c6-light-flowchart-siteQ-11" data-look="classic" transform="translate(563.1460876464844, 1119.7375106811523)"><polygon points="130.84687423706055,0 261.6937484741211,-130.84687423706055 130.84687423706055,-261.6937484741211 0,-130.84687423706055" class="label-container" transform="translate(-130.34687423706055, 130.84687423706055)"></polygon><g class="label" style="" transform="translate(0, -18.299999237060547)"><rect></rect><g><rect class="background" style="stroke: none"></rect><text y="-10.1" style=""><tspan class="text-outer-tspan row" x="0" y="-0.1em" dy="1.1em"><tspan font-style="normal" class="text-inner-tspan" font-weight="normal">Need</tspan><tspan font-style="normal" class="text-inner-tspan" font-weight="normal"> the</tspan><tspan font-style="normal" class="text-inner-tspan" font-weight="normal"> shared</tspan><tspan font-style="normal" class="text-inner-tspan" font-weight="normal"> Pagesmith</tspan></tspan><tspan class="text-outer-tspan row" x="0" y="1em" dy="1.1em"><tspan font-style="normal" class="text-inner-tspan" font-weight="normal">site</tspan><tspan font-style="normal" class="text-inner-tspan" font-weight="normal"> layer</tspan><tspan font-style="normal" class="text-inner-tspan" font-weight="normal"> too?</tspan></tspan></text></g></g></g><g class="node default" id="b4ebb989-7401-410f-9098-a7aa29ab43c6-light-flowchart-coreOnly-15" data-look="classic" transform="translate(585.5093688964844, 1392.0843887329102)"><rect class="basic label-container" style="" x="-121.4921875" y="-24.5" width="242.984375" height="49"></rect><g class="label" style="" transform="translate(0, -9.5)"><rect></rect><g><rect class="background" style="stroke: none"></rect><text y="-10.1" style=""><tspan class="text-outer-tspan row" x="0" y="-0.1em" dy="1.1em"><tspan font-style="normal" class="text-inner-tspan" font-weight="normal">Stay</tspan><tspan font-style="normal" class="text-inner-tspan" font-weight="normal"> on</tspan><tspan font-style="normal" class="text-inner-tspan" font-weight="normal"> @pagesmith/core</tspan></tspan></text></g></g></g></g></g></g><defs><filter id="b4ebb989-7401-410f-9098-a7aa29ab43c6-light-drop-shadow" height="130%" width="130%"><feDropShadow dx="4" dy="4" stdDeviation="0" flood-opacity="0.06" flood-color="#000000"></feDropShadow></filter></defs><defs><filter id="b4ebb989-7401-410f-9098-a7aa29ab43c6-light-drop-shadow-small" height="150%" width="150%"><feDropShadow dx="2" dy="2" stdDeviation="0" flood-opacity="0.06" flood-color="#000000"></feDropShadow></filter></defs></svg>