<svg id="gbf31182b-841c-4adc-bacc-af1518176eed-light" width="100%" xmlns="http://www.w3.org/2000/svg" xmlns:xlink="http://www.w3.org/1999/xlink" class="flowchart" style="max-width: 715.0015869140625px;" viewBox="0 0 715.0015869140625 1468.5843505859375" role="graphics-document document" aria-roledescription="flowchart-v2"><style>#gbf31182b-841c-4adc-bacc-af1518176eed-light{font-family:"trebuchet ms",verdana,arial,sans-serif;font-size:16px;fill:#333;}@keyframes edge-animation-frame{from{stroke-dashoffset:0;}}@keyframes dash{to{stroke-dashoffset:0;}}#gbf31182b-841c-4adc-bacc-af1518176eed-light .edge-animation-slow{stroke-dasharray:9,5!important;stroke-dashoffset:900;animation:dash 50s linear infinite;stroke-linecap:round;}#gbf31182b-841c-4adc-bacc-af1518176eed-light .edge-animation-fast{stroke-dasharray:9,5!important;stroke-dashoffset:900;animation:dash 20s linear infinite;stroke-linecap:round;}#gbf31182b-841c-4adc-bacc-af1518176eed-light .error-icon{fill:#552222;}#gbf31182b-841c-4adc-bacc-af1518176eed-light .error-text{fill:#552222;stroke:#552222;}#gbf31182b-841c-4adc-bacc-af1518176eed-light .edge-thickness-normal{stroke-width:1px;}#gbf31182b-841c-4adc-bacc-af1518176eed-light .edge-thickness-thick{stroke-width:3.5px;}#gbf31182b-841c-4adc-bacc-af1518176eed-light .edge-pattern-solid{stroke-dasharray:0;}#gbf31182b-841c-4adc-bacc-af1518176eed-light .edge-thickness-invisible{stroke-width:0;fill:none;}#gbf31182b-841c-4adc-bacc-af1518176eed-light .edge-pattern-dashed{stroke-dasharray:3;}#gbf31182b-841c-4adc-bacc-af1518176eed-light .edge-pattern-dotted{stroke-dasharray:2;}#gbf31182b-841c-4adc-bacc-af1518176eed-light .marker{fill:#333333;stroke:#333333;}#gbf31182b-841c-4adc-bacc-af1518176eed-light .marker.cross{stroke:#333333;}#gbf31182b-841c-4adc-bacc-af1518176eed-light svg{font-family:"trebuchet ms",verdana,arial,sans-serif;font-size:16px;}#gbf31182b-841c-4adc-bacc-af1518176eed-light p{margin:0;}#gbf31182b-841c-4adc-bacc-af1518176eed-light .label{font-family:"trebuchet ms",verdana,arial,sans-serif;color:#333;}#gbf31182b-841c-4adc-bacc-af1518176eed-light .cluster-label text{fill:#333;}#gbf31182b-841c-4adc-bacc-af1518176eed-light .cluster-label span{color:#333;}#gbf31182b-841c-4adc-bacc-af1518176eed-light .cluster-label span p{background-color:transparent;}#gbf31182b-841c-4adc-bacc-af1518176eed-light .label text,#gbf31182b-841c-4adc-bacc-af1518176eed-light span{fill:#333;color:#333;}#gbf31182b-841c-4adc-bacc-af1518176eed-light .node rect,#gbf31182b-841c-4adc-bacc-af1518176eed-light .node circle,#gbf31182b-841c-4adc-bacc-af1518176eed-light .node ellipse,#gbf31182b-841c-4adc-bacc-af1518176eed-light .node polygon,#gbf31182b-841c-4adc-bacc-af1518176eed-light .node path{fill:#ECECFF;stroke:#9370DB;stroke-width:1px;}#gbf31182b-841c-4adc-bacc-af1518176eed-light .rough-node .label text,#gbf31182b-841c-4adc-bacc-af1518176eed-light .node .label text,#gbf31182b-841c-4adc-bacc-af1518176eed-light .image-shape .label,#gbf31182b-841c-4adc-bacc-af1518176eed-light .icon-shape .label{text-anchor:middle;}#gbf31182b-841c-4adc-bacc-af1518176eed-light .node .katex path{fill:#000;stroke:#000;stroke-width:1px;}#gbf31182b-841c-4adc-bacc-af1518176eed-light .rough-node .label,#gbf31182b-841c-4adc-bacc-af1518176eed-light .node .label,#gbf31182b-841c-4adc-bacc-af1518176eed-light .image-shape .label,#gbf31182b-841c-4adc-bacc-af1518176eed-light .icon-shape .label{text-align:center;}#gbf31182b-841c-4adc-bacc-af1518176eed-light .node.clickable{cursor:pointer;}#gbf31182b-841c-4adc-bacc-af1518176eed-light .root .anchor path{fill:#333333!important;stroke-width:0;stroke:#333333;}#gbf31182b-841c-4adc-bacc-af1518176eed-light .arrowheadPath{fill:#333333;}#gbf31182b-841c-4adc-bacc-af1518176eed-light .edgePath .path{stroke:#333333;stroke-width:1px;}#gbf31182b-841c-4adc-bacc-af1518176eed-light .flowchart-link{stroke:#333333;fill:none;}#gbf31182b-841c-4adc-bacc-af1518176eed-light .edgeLabel{background-color:rgba(232,232,232, 0.8);text-align:center;}#gbf31182b-841c-4adc-bacc-af1518176eed-light .edgeLabel p{background-color:rgba(232,232,232, 0.8);}#gbf31182b-841c-4adc-bacc-af1518176eed-light .edgeLabel rect{opacity:0.5;background-color:rgba(232,232,232, 0.8);fill:rgba(232,232,232, 0.8);}#gbf31182b-841c-4adc-bacc-af1518176eed-light .labelBkg{background-color:rgba(232, 232, 232, 0.5);}#gbf31182b-841c-4adc-bacc-af1518176eed-light .cluster rect{fill:#ffffde;stroke:#aaaa33;stroke-width:1px;}#gbf31182b-841c-4adc-bacc-af1518176eed-light .cluster text{fill:#333;}#gbf31182b-841c-4adc-bacc-af1518176eed-light .cluster span{color:#333;}#gbf31182b-841c-4adc-bacc-af1518176eed-light div.mermaidTooltip{position:absolute;text-align:center;max-width:200px;padding:2px;font-family:"trebuchet ms",verdana,arial,sans-serif;font-size:12px;background:hsl(80, 100%, 96.2745098039%);border:1px solid #aaaa33;border-radius:2px;pointer-events:none;z-index:100;}#gbf31182b-841c-4adc-bacc-af1518176eed-light .flowchartTitleText{text-anchor:middle;font-size:18px;fill:#333;}#gbf31182b-841c-4adc-bacc-af1518176eed-light rect.text{fill:none;stroke-width:0;}#gbf31182b-841c-4adc-bacc-af1518176eed-light .icon-shape,#gbf31182b-841c-4adc-bacc-af1518176eed-light .image-shape{background-color:rgba(232,232,232, 0.8);text-align:center;}#gbf31182b-841c-4adc-bacc-af1518176eed-light .icon-shape p,#gbf31182b-841c-4adc-bacc-af1518176eed-light .image-shape p{background-color:rgba(232,232,232, 0.8);padding:2px;}#gbf31182b-841c-4adc-bacc-af1518176eed-light .icon-shape .label rect,#gbf31182b-841c-4adc-bacc-af1518176eed-light .image-shape .label rect{opacity:0.5;background-color:rgba(232,232,232, 0.8);fill:rgba(232,232,232, 0.8);}#gbf31182b-841c-4adc-bacc-af1518176eed-light .label-icon{display:inline-block;height:1em;overflow:visible;vertical-align:-0.125em;}#gbf31182b-841c-4adc-bacc-af1518176eed-light .node .label-icon path{fill:currentColor;stroke:revert;stroke-width:revert;}#gbf31182b-841c-4adc-bacc-af1518176eed-light .node .neo-node{stroke:#9370DB;}#gbf31182b-841c-4adc-bacc-af1518176eed-light [data-look="neo"].node rect,#gbf31182b-841c-4adc-bacc-af1518176eed-light [data-look="neo"].cluster rect,#gbf31182b-841c-4adc-bacc-af1518176eed-light [data-look="neo"].node polygon{stroke:#9370DB;filter:drop-shadow(1px 2px 2px rgba(185, 185, 185, 1));}#gbf31182b-841c-4adc-bacc-af1518176eed-light [data-look="neo"].node path{stroke:#9370DB;stroke-width:1px;}#gbf31182b-841c-4adc-bacc-af1518176eed-light [data-look="neo"].node .outer-path{filter:drop-shadow(1px 2px 2px rgba(185, 185, 185, 1));}#gbf31182b-841c-4adc-bacc-af1518176eed-light [data-look="neo"].node .neo-line path{stroke:#9370DB;filter:none;}#gbf31182b-841c-4adc-bacc-af1518176eed-light [data-look="neo"].node circle{stroke:#9370DB;filter:drop-shadow(1px 2px 2px rgba(185, 185, 185, 1));}#gbf31182b-841c-4adc-bacc-af1518176eed-light [data-look="neo"].node circle .state-start{fill:#000000;}#gbf31182b-841c-4adc-bacc-af1518176eed-light [data-look="neo"].icon-shape .icon{fill:#9370DB;filter:drop-shadow(1px 2px 2px rgba(185, 185, 185, 1));}#gbf31182b-841c-4adc-bacc-af1518176eed-light [data-look="neo"].icon-shape .icon-neo path{stroke:#9370DB;filter:drop-shadow(1px 2px 2px rgba(185, 185, 185, 1));}#gbf31182b-841c-4adc-bacc-af1518176eed-light :root{--mermaid-font-family:"trebuchet ms",verdana,arial,sans-serif;}</style><g><marker id="gbf31182b-841c-4adc-bacc-af1518176eed-light_flowchart-v2-pointEnd" class="marker flowchart-v2" viewBox="0 0 10 10" refX="5" refY="5" markerUnits="userSpaceOnUse" markerWidth="8" markerHeight="8" orient="auto"><path d="M 0 0 L 10 5 L 0 10 z" class="arrowMarkerPath" style="stroke-width: 1; stroke-dasharray: 1, 0;"></path></marker><marker id="gbf31182b-841c-4adc-bacc-af1518176eed-light_flowchart-v2-pointStart" class="marker flowchart-v2" viewBox="0 0 10 10" refX="4.5" refY="5" markerUnits="userSpaceOnUse" markerWidth="8" markerHeight="8" orient="auto"><path d="M 0 5 L 10 10 L 10 0 z" class="arrowMarkerPath" style="stroke-width: 1; stroke-dasharray: 1, 0;"></path></marker><marker id="gbf31182b-841c-4adc-bacc-af1518176eed-light_flowchart-v2-pointEnd-margin" class="marker flowchart-v2" viewBox="0 0 11.5 14" refX="11.5" refY="7" markerUnits="userSpaceOnUse" markerWidth="10.5" markerHeight="14" orient="auto"><path d="M 0 0 L 11.5 7 L 0 14 z" class="arrowMarkerPath" style="stroke-width: 0; stroke-dasharray: 1, 0;"></path></marker><marker id="gbf31182b-841c-4adc-bacc-af1518176eed-light_flowchart-v2-pointStart-margin" class="marker flowchart-v2" viewBox="0 0 11.5 14" refX="1" refY="7" markerUnits="userSpaceOnUse" markerWidth="11.5" markerHeight="14" orient="auto"><polygon points="0,7 11.5,14 11.5,0" class="arrowMarkerPath" style="stroke-width: 0; stroke-dasharray: 1, 0;"></polygon></marker><marker id="gbf31182b-841c-4adc-bacc-af1518176eed-light_flowchart-v2-circleEnd" class="marker flowchart-v2" viewBox="0 0 10 10" refX="11" refY="5" markerUnits="userSpaceOnUse" markerWidth="11" markerHeight="11" orient="auto"><circle cx="5" cy="5" r="5" class="arrowMarkerPath" style="stroke-width: 1; stroke-dasharray: 1, 0;"></circle></marker><marker id="gbf31182b-841c-4adc-bacc-af1518176eed-light_flowchart-v2-circleStart" class="marker flowchart-v2" viewBox="0 0 10 10" refX="-1" refY="5" markerUnits="userSpaceOnUse" markerWidth="11" markerHeight="11" orient="auto"><circle cx="5" cy="5" r="5" class="arrowMarkerPath" style="stroke-width: 1; stroke-dasharray: 1, 0;"></circle></marker><marker id="gbf31182b-841c-4adc-bacc-af1518176eed-light_flowchart-v2-circleEnd-margin" class="marker flowchart-v2" viewBox="0 0 10 10" refY="5" refX="12.25" markerUnits="userSpaceOnUse" markerWidth="14" markerHeight="14" orient="auto"><circle cx="5" cy="5" r="5" class="arrowMarkerPath" style="stroke-width: 0; stroke-dasharray: 1, 0;"></circle></marker><marker id="gbf31182b-841c-4adc-bacc-af1518176eed-light_flowchart-v2-circleStart-margin" class="marker flowchart-v2" viewBox="0 0 10 10" refX="-2" refY="5" markerUnits="userSpaceOnUse" markerWidth="14" markerHeight="14" orient="auto"><circle cx="5" cy="5" r="5" class="arrowMarkerPath" style="stroke-width: 0; stroke-dasharray: 1, 0;"></circle></marker><marker id="gbf31182b-841c-4adc-bacc-af1518176eed-light_flowchart-v2-crossEnd" class="marker cross flowchart-v2" viewBox="0 0 11 11" refX="12" refY="5.2" markerUnits="userSpaceOnUse" markerWidth="11" markerHeight="11" orient="auto"><path d="M 1,1 l 9,9 M 10,1 l -9,9" class="arrowMarkerPath" style="stroke-width: 2; stroke-dasharray: 1, 0;"></path></marker><marker id="gbf31182b-841c-4adc-bacc-af1518176eed-light_flowchart-v2-crossStart" class="marker cross flowchart-v2" viewBox="0 0 11 11" refX="-1" refY="5.2" markerUnits="userSpaceOnUse" markerWidth="11" markerHeight="11" orient="auto"><path d="M 1,1 l 9,9 M 10,1 l -9,9" class="arrowMarkerPath" style="stroke-width: 2; stroke-dasharray: 1, 0;"></path></marker><marker id="gbf31182b-841c-4adc-bacc-af1518176eed-light_flowchart-v2-crossEnd-margin" class="marker cross flowchart-v2" viewBox="0 0 15 15" refX="17.7" refY="7.5" markerUnits="userSpaceOnUse" markerWidth="12" markerHeight="12" orient="auto"><path d="M 1,1 L 14,14 M 1,14 L 14,1" class="arrowMarkerPath" style="stroke-width: 2.5;"></path></marker><marker id="gbf31182b-841c-4adc-bacc-af1518176eed-light_flowchart-v2-crossStart-margin" class="marker cross flowchart-v2" viewBox="0 0 15 15" refX="-3.5" refY="7.5" markerUnits="userSpaceOnUse" markerWidth="12" markerHeight="12" orient="auto"><path d="M 1,1 L 14,14 M 1,14 L 14,1" class="arrowMarkerPath" style="stroke-width: 2.5; stroke-dasharray: 1, 0;"></path></marker><g class="root"><g class="clusters"></g><g class="edgePaths"><path d="M280.942,42.5L280.859,46.583C280.776,50.667,280.609,58.833,280.526,66.417C280.442,74,280.442,81,280.442,84.5L280.442,88" id="gbf31182b-841c-4adc-bacc-af1518176eed-light-L_start_docsQ_0" class="edge-thickness-normal edge-pattern-solid edge-thickness-normal edge-pattern-solid flowchart-link" style=";" data-edge="true" data-et="edge" data-id="L_start_docsQ_0" data-points="W3sieCI6MjgwLjk0MjE4NDQ0ODI0MjIsInkiOjQyLjV9LHsieCI6MjgwLjQ0MjE4NDQ0ODI0MjIsInkiOjY3fSx7IngiOjI4MC40NDIxODQ0NDgyNDIyLCJ5Ijo5MS45OTk5OTk5OTk5OTk5N31d" data-look="classic" marker-end="url(#gbf31182b-841c-4adc-bacc-af1518176eed-light_flowchart-v2-pointEnd)"></path><path d="M216.2,298.058L200.989,314.849C185.777,331.639,155.353,365.219,140.141,402.959C124.93,440.698,124.93,482.597,124.93,503.546L124.93,524.495" id="gbf31182b-841c-4adc-bacc-af1518176eed-light-L_docsQ_docs_0" class="edge-thickness-normal edge-pattern-solid edge-thickness-normal edge-pattern-solid flowchart-link" style=";" data-edge="true" data-et="edge" data-id="L_docsQ_docs_0" data-points="W3sieCI6MjE2LjIwMDM2Mjc0MTI1MTMsInkiOjI5OC4wNTgxOTY2MDM1NTZ9LHsieCI6MTI0LjkyOTY4NzUsInkiOjM5OC44MDAwMTgzMTA1NDY5fSx7IngiOjEyNC45Mjk2ODc1LCJ5Ijo1MjguNDk1MzIzMTgxMTUyM31d" data-look="classic" marker-end="url(#gbf31182b-841c-4adc-bacc-af1518176eed-light_flowchart-v2-pointEnd)"></path><path d="M344.684,298.058L359.896,314.849C375.108,331.639,405.531,365.219,420.743,387.426C435.955,409.633,435.955,420.467,435.955,425.883L435.955,431.3" id="gbf31182b-841c-4adc-bacc-af1518176eed-light-L_docsQ_hostQ_0" class="edge-thickness-normal edge-pattern-solid edge-thickness-normal edge-pattern-solid flowchart-link" style=";" data-edge="true" data-et="edge" data-id="L_docsQ_hostQ_0" data-points="W3sieCI6MzQ0LjY4NDAwNjE1NTIzMzEsInkiOjI5OC4wNTgxOTY2MDM1NTZ9LHsieCI6NDM1Ljk1NDY4MTM5NjQ4NDQsInkiOjM5OC44MDAwMTgzMTA1NDY5fSx7IngiOjQzNS45NTQ2ODEzOTY0ODQzLCJ5Ijo0MzUuMzAwMDE4MzEwNTQ2OH1d" data-look="classic" marker-end="url(#gbf31182b-841c-4adc-bacc-af1518176eed-light_flowchart-v2-pointEnd)"></path><path d="M495.501,663.944L506.776,679.952C518.05,695.959,540.598,727.975,551.872,749.4C563.146,770.824,563.146,781.657,563.146,787.074L563.146,792.491" id="gbf31182b-841c-4adc-bacc-af1518176eed-light-L_hostQ_core_0" class="edge-thickness-normal edge-pattern-solid edge-thickness-normal edge-pattern-solid flowchart-link" style=";" data-edge="true" data-et="edge" data-id="L_hostQ_core_0" data-points="W3sieCI6NDk1LjUwMTM4NjYzNTk3OTc3LCJ5Ijo2NjMuOTQzOTI1ODY0MDIwMn0seyJ4Ijo1NjMuMTQ2MDg3NjQ2NDg0NCwieSI6NzU5Ljk5MDYzMTEwMzUxNTZ9LHsieCI6NTYzLjE0NjA4NzY0NjQ4NDQsInkiOjc5Ni40OTA2MzExMDM1MTU2fV0=" data-look="classic" marker-end="url(#gbf31182b-841c-4adc-bacc-af1518176eed-light_flowchart-v2-pointEnd)"></path><path d="M366.894,654.43L350.701,672.023C334.508,689.617,302.122,724.804,285.929,758.43C269.736,792.057,269.736,824.124,269.736,856.191C269.736,888.257,269.736,920.324,269.736,964.248C269.736,1008.173,269.736,1063.955,269.736,1119.738C269.736,1175.52,269.736,1231.302,270.597,1264.618C271.458,1297.934,273.18,1308.784,274.041,1314.209L274.902,1319.634" id="gbf31182b-841c-4adc-bacc-af1518176eed-light-L_hostQ_site_0" class="edge-thickness-normal edge-pattern-solid edge-thickness-normal edge-pattern-solid flowchart-link" style=";" data-edge="true" data-et="edge" data-id="L_hostQ_site_0" data-points="W3sieCI6MzY2Ljg5MzYzNDc5NzE4MjIsInkiOjY1NC40Mjk1ODQ1MDQyMTM0fSx7IngiOjI2OS43MzU5MzEzOTY0ODQ0LCJ5Ijo3NTkuOTkwNjMxMTAzNTE1Nn0seyJ4IjoyNjkuNzM1OTMxMzk2NDg0NCwieSI6ODU2LjE5MDYzMTg2NjQ1NTF9LHsieCI6MjY5LjczNTkzMTM5NjQ4NDQsInkiOjk1Mi4zOTA2MzI2MjkzOTQ1fSx7IngiOjI2OS43MzU5MzEzOTY0ODQ0LCJ5IjoxMTE5LjczNzUxMDY4MTE1MjN9LHsieCI6MjY5LjczNTkzMTM5NjQ4NDQsInkiOjEyODcuMDg0Mzg4NzMyOTEwMn0seyJ4IjoyNzUuNTI4Njc2OTMyMTk4NjYsInkiOjEzMjMuNTg0Mzg4NzMyOTEwMn1d" data-look="classic" marker-end="url(#gbf31182b-841c-4adc-bacc-af1518176eed-light_flowchart-v2-pointEnd)"></path><path d="M563.146,915.891L563.146,921.974C563.146,928.057,563.146,940.224,563.146,951.724C563.146,963.224,563.146,974.057,563.146,979.474L563.146,984.891" id="gbf31182b-841c-4adc-bacc-af1518176eed-light-L_core_siteQ_0" class="edge-thickness-normal edge-pattern-solid edge-thickness-normal edge-pattern-solid flowchart-link" style=";" data-edge="true" data-et="edge" data-id="L_core_siteQ_0" data-points="W3sieCI6NTYzLjE0NjA4NzY0NjQ4NDQsInkiOjkxNS44OTA2MzI2MjkzOTQ1fSx7IngiOjU2My4xNDYwODc2NDY0ODQ0LCJ5Ijo5NTIuMzkwNjMyNjI5Mzk0NX0seyJ4Ijo1NjMuMTQ2MDg3NjQ2NDg0NCwieSI6OTg4Ljg5MDYzMjYyOTM5NDR9XQ==" data-look="classic" marker-end="url(#gbf31182b-841c-4adc-bacc-af1518176eed-light_flowchart-v2-pointEnd)"></path><path d="M501.396,1188.834L486.762,1205.209C472.128,1221.584,442.86,1254.334,421.371,1276.368C399.882,1298.402,386.172,1309.72,379.317,1315.379L372.462,1321.038" id="gbf31182b-841c-4adc-bacc-af1518176eed-light-L_siteQ_site_0" class="edge-thickness-normal edge-pattern-solid edge-thickness-normal edge-pattern-solid flowchart-link" style=";" data-edge="true" data-et="edge" data-id="L_siteQ_site_0" data-points="W3sieCI6NTAxLjM5NTc5NjQzNzU3MiwieSI6MTE4OC44MzQwOTc1MjM5OTh9LHsieCI6NDEzLjU5MTQwMDE0NjQ4NDQsInkiOjEyODcuMDg0Mzg4NzMyOTEwMn0seyJ4IjozNjkuMzc3MjQ0NjQwNTMyLCJ5IjoxMzIzLjU4NDM4ODczMjkxMDJ9XQ==" data-look="classic" marker-end="url(#gbf31182b-841c-4adc-bacc-af1518176eed-light_flowchart-v2-pointEnd)"></path><path d="M578.57,1235.16L579.727,1243.814C580.883,1252.468,583.196,1269.776,584.353,1291.18C585.509,1312.584,585.509,1338.084,585.509,1350.834L585.509,1363.584" id="gbf31182b-841c-4adc-bacc-af1518176eed-light-L_siteQ_coreOnly_0" class="edge-thickness-normal edge-pattern-solid edge-thickness-normal edge-pattern-solid flowchart-link" style=";" data-edge="true" data-et="edge" data-id="L_siteQ_coreOnly_0" data-points="W3sieCI6NTc4LjU3MDQ4ODQ1NTIwMTcsInkiOjEyMzUuMTU5OTg3OTI0MTkzfSx7IngiOjU4NS41MDkzNjg4OTY0ODQ0LCJ5IjoxMjg3LjA4NDM4ODczMjkxMDJ9LHsieCI6NTg1LjUwOTM2ODg5NjQ4NDQsInkiOjEzNjcuNTg0Mzg4NzMyOTEwMn1d" data-look="classic" marker-end="url(#gbf31182b-841c-4adc-bacc-af1518176eed-light_flowchart-v2-pointEnd)"></path></g><g class="edgeLabels"><g class="edgeLabel"><g class="label" data-id="L_start_docsQ_0" transform="translate(0, 0)"><text y="-10.1" text-anchor="middle"><tspan class="text-outer-tspan row" x="0" y="-0.1em" dy="1.1em" text-anchor="middle"></tspan></text></g></g><g><rect class="background" style="stroke: none"></rect></g><g class="edgeLabel" transform="translate(124.9296875, 398.8000183105469)"><g class="label" data-id="L_docsQ_docs_0" transform="translate(0, -10.5)"><g><rect class="background" style="" x="-13.328125" y="-1" width="26.65625" height="23"></rect><text y="-10.1" text-anchor="middle" style=""><tspan class="text-outer-tspan row" x="0" y="-0.1em" dy="1.1em" text-anchor="middle"><tspan font-style="normal" class="text-inner-tspan" font-weight="normal">Yes</tspan></tspan></text></g></g></g><g class="edgeLabel" transform="translate(435.9546813964844, 398.8000183105469)"><g class="label" data-id="L_docsQ_hostQ_0" transform="translate(0, -10.5)"><g><rect class="background" style="" x="-11.3984375" y="-1" width="22.796875" height="23"></rect><text y="-10.1" text-anchor="middle" style=""><tspan class="text-outer-tspan row" x="0" y="-0.1em" dy="1.1em" text-anchor="middle"><tspan font-style="normal" class="text-inner-tspan" font-weight="normal">No</tspan></tspan></text></g></g></g><g class="edgeLabel" transform="translate(563.1460876464844, 759.9906311035156)"><g class="label" data-id="L_hostQ_core_0" transform="translate(0, -10.5)"><g><rect class="background" style="" x="-13.328125" y="-1" width="26.65625" height="23"></rect><text y="-10.1" text-anchor="middle" style=""><tspan class="text-outer-tspan row" x="0" y="-0.1em" dy="1.1em" text-anchor="middle"><tspan font-style="normal" class="text-inner-tspan" font-weight="normal">Yes</tspan></tspan></text></g></g></g><g class="edgeLabel" transform="translate(269.7359313964844, 952.3906326293945)"><g class="label" data-id="L_hostQ_site_0" transform="translate(0, -10.5)"><g><rect class="background" style="" x="-11.3984375" y="-1" width="22.796875" height="23"></rect><text y="-10.1" text-anchor="middle" style=""><tspan class="text-outer-tspan row" x="0" y="-0.1em" dy="1.1em" text-anchor="middle"><tspan font-style="normal" class="text-inner-tspan" font-weight="normal">No</tspan></tspan></text></g></g></g><g class="edgeLabel"><g class="label" data-id="L_core_siteQ_0" transform="translate(0, 0)"><text y="-10.1" text-anchor="middle"><tspan class="text-outer-tspan row" x="0" y="-0.1em" dy="1.1em" text-anchor="middle"></tspan></text></g></g><g><rect class="background" style="stroke: none"></rect></g><g class="edgeLabel" transform="translate(438.39126, 1259.33414)"><g class="label" data-id="L_siteQ_site_0" transform="translate(0, -10.5)"><g><rect class="background" style="" x="-13.328125" y="-1" width="26.65625" height="23"></rect><text y="-10.1" text-anchor="middle" style=""><tspan class="text-outer-tspan row" x="0" y="-0.1em" dy="1.1em" text-anchor="middle"><tspan font-style="normal" class="text-inner-tspan" font-weight="normal">Yes</tspan></tspan></text></g></g></g><g class="edgeLabel" transform="translate(585.5093688964844, 1287.0843887329102)"><g class="label" data-id="L_siteQ_coreOnly_0" transform="translate(0, -10.5)"><g><rect class="background" style="" x="-11.3984375" y="-1" width="22.796875" height="23"></rect><text y="-10.1" text-anchor="middle" style=""><tspan class="text-outer-tspan row" x="0" y="-0.1em" dy="1.1em" text-anchor="middle"><tspan font-style="normal" class="text-inner-tspan" font-weight="normal">No</tspan></tspan></text></g></g></g></g><g class="nodes"><g class="node default" id="gbf31182b-841c-4adc-bacc-af1518176eed-light-flowchart-start-0" data-look="classic" transform="translate(280.4421844482422, 25)"><g class="basic label-container outer-path"><path d="M-30.875 -17 C-13.155935664192665 -17, 4.56312867161467 -17, 30.875 -17 C30.875 -17, 30.875 -17, 30.875 -17 C31.14105100757183 -16.991468262024043, 31.407102015143657 -16.982936524048085, 31.96419373967212 -16.965071676755716 C32.367312287980944 -16.92618331522135, 32.77043083628976 -16.887294953686986, 33.0489117486366 -16.860430234995185 C33.283423562374324 -16.822516183616347, 33.51793537611206 -16.78460213223751, 34.124696687923326 -16.686505668848113 C34.37096291101501 -16.630297010464727, 34.61722913410671 -16.57408835208134, 35.18712792646162 -16.4440126716635 C35.487578437289486 -16.354840537146703, 35.78802894811735 -16.265668402629906, 36.23183970640155 -16.133947699181366 C36.622948135747514 -15.990016181815363, 37.01405656509347 -15.84608466444936, 37.25453908294936 -15.757584874882369 C37.64270389013651 -15.585755829240513, 38.030868697323655 -15.413926783598658, 38.25102356499849 -15.316470754341125 C38.53485179052487 -15.168397750884667, 38.81868001605125 -15.020324747428209, 39.21719838406694 -14.812417970097622 C39.41970650699703 -14.689656355907575, 39.62221462992712 -14.566894741717526, 40.149093320579325 -14.247497783161291 C40.454508872549454 -14.034453115333088, 40.759924424519575 -13.821408447504886, 41.042879018350675 -13.624031571755262 C41.22147760755379 -13.481603949573843, 41.40007619675689 -13.339176327392424, 41.8948827202324 -12.944581292275288 C42.076085650847865 -12.780017585057147, 42.25728858146333 -12.615453877839006, 42.70160336025927 -12.21193895166137 C42.96895304736836 -11.935878449903713, 43.23630273447745 -11.659817948146056, 43.45972595028036 -11.42911513444239 C43.68441281490805 -11.165185158205922, 43.90909967953574 -10.901255181969454, 44.16613520195651 -10.59932663159847 C44.32611981125137 -10.384961830041098, 44.48610442054623 -10.170597028483725, 44.81792832814825 -9.725983222076888 C45.022405494497015 -9.411851384757917, 45.22688266084578 -9.097719547438944, 45.41242697109088 -8.812673661278927 C45.52835123285903 -8.606838395905179, 45.64427549462719 -8.40100313053143, 45.947188208341004 -7.863150934094199 C46.093895081694825 -7.5585109725507635, 46.240601955048646 -7.253871011007327, 46.42001459126881 -6.881316833080699 C46.58134397926823 -6.482830125630605, 46.74267336726765 -6.084343418180512, 46.828963174845924 -5.871205925162238 C46.90230977725612 -5.6502976448968, 46.97565637966632 -5.429389364631362, 47.172353501623235 -4.836968972727556 C47.22831064838083 -4.623580120160042, 47.28426779513842 -4.410191267592529, 47.448774507091 -3.7828558772573464 C47.51189281887901 -3.4587566862858425, 47.575011130667015 -3.1346574953143382, 47.65709031804565 -2.713198215567453 C47.6873446009422 -2.4785519718056963, 47.717598883838754 -2.2439057280439396, 47.796444920136366 -1.632391440430593 C47.81183886024244 -1.3926183975137445, 47.82723280034851 -1.152845354596896, 47.8662656754117 -0.5448768187181379 C47.8662656754117 -0.12807567290850408, 47.8662656754117 0.2887254729011297, 47.8662656754117 0.5448768187181336 C47.84968582434391 0.8031213821138645, 47.83310597327611 1.0613659455095954, 47.796444920136366 1.6323914404305815 C47.7653817743564 1.8733110649880689, 47.73431862857643 2.114230689545556, 47.657090318045654 2.7131982155674415 C47.587724025835804 3.0693794654939697, 47.518357733625955 3.4255607154204983, 47.448774507091 3.782855877257343 C47.39108293554225 4.0028588432580055, 47.3333913639935 4.222861809258667, 47.172353501623235 4.836968972727545 C47.04179224462367 5.230198676698908, 46.91123098762411 5.62342838067027, 46.828963174845924 5.871205925162227 C46.704533875494995 6.178548700235874, 46.58010457614406 6.485891475309522, 46.42001459126881 6.881316833080694 C46.24835126636763 7.237779400244747, 46.076687941466446 7.5942419674088, 45.947188208341004 7.863150934094196 C45.78030980568422 8.15946043628197, 45.61343140302744 8.455769938469743, 45.41242697109089 8.812673661278923 C45.27078604241938 9.030272163633233, 45.12914511374788 9.247870665987543, 44.817928328148255 9.725983222076879 C44.681337179365485 9.909002917736148, 44.54474603058271 10.092022613395416, 44.16613520195651 10.599326631598467 C43.950933402056 10.852114911090911, 43.7357316021555 11.104903190583356, 43.45972595028037 11.42911513444238 C43.29421827667986 11.600015395867622, 43.12871060307935 11.770915657292862, 42.70160336025927 12.211938951661365 C42.516190104870915 12.38032636443916, 42.33077684948256 12.548713777216955, 41.89488272023242 12.944581292275275 C41.706626240404916 13.094710825222387, 41.51836976057741 13.2448403581695, 41.042879018350675 13.62403157175526 C40.736537862769566 13.837721900593754, 40.43019670718845 14.051412229432248, 40.14909332057934 14.247497783161286 C39.95526139090078 14.364999838015285, 39.76142946122222 14.482501892869283, 39.21719838406695 14.81241797009762 C38.88569186520661 14.985364708646998, 38.55418534634627 15.158311447196375, 38.25102356499849 15.316470754341124 C37.98816086893833 15.432832272342125, 37.72529817287816 15.549193790343129, 37.254539082949364 15.757584874882367 C36.87862350282232 15.895925283294648, 36.502707922695286 16.034265691706928, 36.23183970640156 16.133947699181363 C35.821518978784134 16.255728737320766, 35.41119825116672 16.377509775460165, 35.18712792646164 16.444012671663497 C34.91535049513276 16.50604409685083, 34.643573063803885 16.568075522038164, 34.12469668792333 16.68650566884811 C33.816182822268956 16.736383798086347, 33.50766895661459 16.786261927324585, 33.04891174863661 16.86043023499518 C32.815842444340504 16.882914150473777, 32.582773140044395 16.905398065952376, 31.96419373967212 16.965071676755716 C31.614965450786368 16.976270748248655, 31.265737161900617 16.987469819741595, 30.875000000000004 17 C30.875000000000004 17, 30.875000000000004 17, 30.875 17 C17.729621360151533 17, 4.58424272030307 17, -30.874999999999996 17 C-31.309768675006197 16.98605781481844, -31.744537350012394 16.97211562963688, -31.964193739672112 16.965071676755716 C-32.22525071717606 16.93988782410286, -32.48630769468 16.914703971450006, -33.048911748636606 16.86043023499518 C-33.31344016420482 16.817663332214615, -33.577968579773035 16.774896429434047, -34.124696687923326 16.68650566884811 C-34.35556916230143 16.633810533155, -34.58644163667953 16.581115397461893, -35.18712792646162 16.4440126716635 C-35.45306658349463 16.3650834741966, -35.71900524052764 16.2861542767297, -36.231839706401544 16.13394769918137 C-36.62095857240409 15.990748359517067, -37.01007743840664 15.847549019852762, -37.254539082949364 15.757584874882369 C-37.56248906273758 15.621264553841707, -37.8704390425258 15.484944232801046, -38.25102356499848 15.316470754341127 C-38.44765973871342 15.213885788465527, -38.64429591242835 15.111300822589927, -39.21719838406693 14.812417970097624 C-39.51660308075972 14.630917083465157, -39.81600777745251 14.449416196832688, -40.14909332057932 14.247497783161299 C-40.39933574441427 14.072939501113966, -40.64957816824923 13.898381219066636, -41.04287901835067 13.624031571755264 C-41.24188446351083 13.465330024997339, -41.44088990867099 13.306628478239416, -41.8948827202324 12.94458129227529 C-42.201019709424095 12.666555778632267, -42.50715669861578 12.388530264989244, -42.70160336025926 12.211938951661377 C-42.934477336412456 11.971477451974193, -43.16735131256565 11.731015952287008, -43.459725950280365 11.429115134442386 C-43.657791669691605 11.196455870163234, -43.85585738910285 10.963796605884081, -44.16613520195651 10.599326631598473 C-44.31140845458074 10.40467370774757, -44.456681707204986 10.210020783896669, -44.81792832814825 9.72598322207689 C-44.956745493133084 9.512722779032018, -45.09556265811793 9.299462335987148, -45.41242697109088 8.812673661278936 C-45.548858620482946 8.570425452580755, -45.68529026987501 8.328177243882577, -45.947188208341004 7.863150934094201 C-46.04801713243435 7.653777515820992, -46.1488460565277 7.444404097547784, -46.42001459126881 6.881316833080701 C-46.519309568425314 6.63605631976635, -46.61860454558182 6.390795806451999, -46.828963174845924 5.87120592516224 C-46.92345572679992 5.586609414020394, -47.01794827875392 5.302012902878548, -47.172353501623235 4.8369689727275516 C-47.233388939719696 4.604214394339544, -47.294424377816156 4.371459815951536, -47.448774507091 3.782855877257349 C-47.52938631190051 3.368931296871482, -47.609998116710024 2.955006716485615, -47.65709031804565 2.713198215567455 C-47.69561889913776 2.4143781489458815, -47.734147480229886 2.1155580823243074, -47.796444920136366 1.6323914404306026 C-47.82003913266162 1.2648925354442329, -47.84363334518687 0.8973936304578632, -47.8662656754117 0.54487681871814 C-47.8662656754117 0.11535917660954231, -47.8662656754117 -0.31415846549905535, -47.8662656754117 -0.5448768187181317 C-47.841914335948246 -0.9241685869088019, -47.81756299648479 -1.303460355099472, -47.796444920136366 -1.6323914404305793 C-47.758489874268676 -1.9267632811088564, -47.720534828400986 -2.2211351217871336, -47.657090318045654 -2.713198215567447 C-47.59230893668592 -3.045836917299892, -47.52752755532618 -3.3784756190323377, -47.448774507091 -3.782855877257341 C-47.37578401160663 -4.061200270820089, -47.302793516122264 -4.339544664382838, -47.172353501623235 -4.836968972727544 C-47.098239376381734 -5.060188909472714, -47.024125251140234 -5.283408846217885, -46.82896317484593 -5.871205925162218 C-46.711408608137425 -6.161567977695167, -46.59385404142891 -6.451930030228117, -46.42001459126881 -6.881316833080692 C-46.23160972818929 -7.272543562483603, -46.043204865109765 -7.663770291886513, -45.947188208341004 -7.863150934094194 C-45.80457219282874 -8.116380111073756, -45.66195617731648 -8.369609288053317, -45.41242697109088 -8.812673661278929 C-45.18806911073076 -9.157347583313172, -44.963711250370636 -9.502021505347415, -44.81792832814825 -9.725983222076884 C-44.66642079417281 -9.92898951498368, -44.514913260197375 -10.131995807890474, -44.16613520195651 -10.599326631598467 C-43.91140147449508 -10.898551362634377, -43.656667747033644 -11.197776093670287, -43.45972595028037 -11.42911513444238 C-43.238091299204825 -11.657971108221142, -43.016456648129285 -11.886827081999902, -42.70160336025928 -12.21193895166136 C-42.4476721908985 -12.442552521024249, -42.19374102153772 -12.673166090387138, -41.89488272023242 -12.944581292275274 C-41.63577384783317 -13.151213722837, -41.376664975433926 -13.357846153398725, -41.042879018350675 -13.624031571755259 C-40.81794561148034 -13.780935379177759, -40.593012204610005 -13.937839186600257, -40.14909332057934 -14.247497783161284 C-39.94483520266244 -14.371320254596448, -39.74057708474554 -14.49514272603161, -39.21719838406695 -14.812417970097618 C-38.93650406510588 -14.958856016506317, -38.655809746144804 -15.105294062915014, -38.25102356499849 -15.316470754341124 C-37.8942056391518 -15.474423465485756, -37.5373877133051 -15.632376176630391, -37.25453908294937 -15.757584874882365 C-36.88698172741642 -15.892849379381442, -36.51942437188347 -16.02811388388052, -36.231839706401566 -16.133947699181363 C-35.96719714522047 -16.212492222202762, -35.70255458403936 -16.29103674522416, -35.18712792646164 -16.444012671663494 C-34.90140401825867 -16.509227289188072, -34.61568011005569 -16.574441906712654, -34.12469668792333 -16.68650566884811 C-33.71773332602755 -16.75230034915141, -33.31076996413177 -16.818095029454714, -33.04891174863661 -16.86043023499518 C-32.66142017967713 -16.89781108062591, -32.27392861071765 -16.935191926256635, -31.96419373967212 -16.965071676755716 C-31.682248939225417 -16.97411309773378, -31.400304138778715 -16.983154518711846, -30.875000000000004 -17 C-30.875000000000004 -17, -30.875000000000004 -17, -30.875 -17" stroke="none" stroke-width="0" fill="#ECECFF" style=""></path><path d="M-30.875 -17 C-8.098570905153963 -17, 14.677858189692074 -17, 30.875 -17 M-30.875 -17 C-6.778412708832782 -17, 17.318174582334436 -17, 30.875 -17 M30.875 -17 C30.875 -17, 30.875 -17, 30.875 -17 M30.875 -17 C30.875 -17, 30.875 -17, 30.875 -17 M30.875 -17 C31.18869013056603 -16.989940568073546, 31.502380261132064 -16.979881136147092, 31.96419373967212 -16.965071676755716 M30.875 -17 C31.121912793929724 -16.99208198728527, 31.368825587859448 -16.984163974570542, 31.96419373967212 -16.965071676755716 M31.96419373967212 -16.965071676755716 C32.2577763614277 -16.936750114319718, 32.551358983183285 -16.908428551883716, 33.0489117486366 -16.860430234995185 M31.96419373967212 -16.965071676755716 C32.21318263893768 -16.94105201709653, 32.46217153820324 -16.917032357437346, 33.0489117486366 -16.860430234995185 M33.0489117486366 -16.860430234995185 C33.266654771529474 -16.825227231676227, 33.48439779442235 -16.79002422835727, 34.124696687923326 -16.686505668848113 M33.0489117486366 -16.860430234995185 C33.28420303390389 -16.822390164704338, 33.51949431917119 -16.784350094413494, 34.124696687923326 -16.686505668848113 M34.124696687923326 -16.686505668848113 C34.474876460027225 -16.606579421001967, 34.825056232131125 -16.52665317315582, 35.18712792646162 -16.4440126716635 M34.124696687923326 -16.686505668848113 C34.37027751195178 -16.630453448328264, 34.61585833598023 -16.574401227808412, 35.18712792646162 -16.4440126716635 M35.18712792646162 -16.4440126716635 C35.47775420047074 -16.357756319066038, 35.76838047447986 -16.27149996646857, 36.23183970640155 -16.133947699181366 M35.18712792646162 -16.4440126716635 C35.5631020249447 -16.332425532762038, 35.93907612342778 -16.220838393860575, 36.23183970640155 -16.133947699181366 M36.23183970640155 -16.133947699181366 C36.605416730737474 -15.996467900917589, 36.9789937550734 -15.85898810265381, 37.25453908294936 -15.757584874882369 M36.23183970640155 -16.133947699181366 C36.5800553848097 -16.005801110656723, 36.92827106321784 -15.87765452213208, 37.25453908294936 -15.757584874882369 M37.25453908294936 -15.757584874882369 C37.6000436298478 -15.604640260998666, 37.945548176746236 -15.451695647114963, 38.25102356499849 -15.316470754341125 M37.25453908294936 -15.757584874882369 C37.60765742281295 -15.601269860708136, 37.96077576267655 -15.444954846533903, 38.25102356499849 -15.316470754341125 M38.25102356499849 -15.316470754341125 C38.458309465747774 -15.208329832693181, 38.66559536649706 -15.100188911045235, 39.21719838406694 -14.812417970097622 M38.25102356499849 -15.316470754341125 C38.53707511892769 -15.167237841881027, 38.82312667285689 -15.018004929420927, 39.21719838406694 -14.812417970097622 M39.21719838406694 -14.812417970097622 C39.47121584436316 -14.658431092893764, 39.72523330465937 -14.504444215689906, 40.149093320579325 -14.247497783161291 M39.21719838406694 -14.812417970097622 C39.446697954563234 -14.67329398177359, 39.67619752505953 -14.534169993449558, 40.149093320579325 -14.247497783161291 M40.149093320579325 -14.247497783161291 C40.34573626598848 -14.110328176979777, 40.54237921139763 -13.973158570798262, 41.042879018350675 -13.624031571755262 M40.149093320579325 -14.247497783161291 C40.41947992652953 -14.058887791697952, 40.68986653247973 -13.870277800234613, 41.042879018350675 -13.624031571755262 M41.042879018350675 -13.624031571755262 C41.26596638524297 -13.446125333262811, 41.48905375213527 -13.268219094770359, 41.8948827202324 -12.944581292275288 M41.042879018350675 -13.624031571755262 C41.223396636497 -13.480073575059132, 41.403914254643325 -13.336115578363003, 41.8948827202324 -12.944581292275288 M41.8948827202324 -12.944581292275288 C42.06841644105649 -12.786982558473497, 42.24195016188059 -12.629383824671706, 42.70160336025927 -12.21193895166137 M41.8948827202324 -12.944581292275288 C42.207062991185786 -12.661067430032766, 42.51924326213918 -12.377553567790244, 42.70160336025927 -12.21193895166137 M42.70160336025927 -12.21193895166137 C42.8923369141295 -12.014990897774352, 43.08307046799974 -11.818042843887334, 43.45972595028036 -11.42911513444239 M42.70160336025927 -12.21193895166137 C42.92577367769355 -11.98046469418513, 43.149943995127835 -11.748990436708892, 43.45972595028036 -11.42911513444239 M43.45972595028036 -11.42911513444239 C43.73974982471489 -11.100183157721746, 44.019773699149425 -10.771251181001102, 44.16613520195651 -10.59932663159847 M43.45972595028036 -11.42911513444239 C43.65902720333337 -11.195004542043753, 43.858328456386396 -10.960893949645117, 44.16613520195651 -10.59932663159847 M44.16613520195651 -10.59932663159847 C44.32253269098324 -10.389768244407017, 44.47893018000996 -10.180209857215562, 44.81792832814825 -9.725983222076888 M44.16613520195651 -10.59932663159847 C44.339517396336845 -10.367010286571668, 44.51289959071718 -10.134693941544867, 44.81792832814825 -9.725983222076888 M44.81792832814825 -9.725983222076888 C44.97726470878056 -9.481199753616597, 45.13660108941287 -9.236416285156304, 45.41242697109088 -8.812673661278927 M44.81792832814825 -9.725983222076888 C44.94201892344865 -9.535346744704974, 45.06610951874905 -9.34471026733306, 45.41242697109088 -8.812673661278927 M45.41242697109088 -8.812673661278927 C45.61040182399531 -8.46114926281942, 45.80837667689974 -8.109624864359914, 45.947188208341004 -7.863150934094199 M45.41242697109088 -8.812673661278927 C45.604698762364336 -8.471275626242834, 45.796970553637784 -8.129877591206741, 45.947188208341004 -7.863150934094199 M45.947188208341004 -7.863150934094199 C46.10077693042814 -7.54422066640806, 46.254365652515276 -7.225290398721921, 46.42001459126881 -6.881316833080699 M45.947188208341004 -7.863150934094199 C46.11472215528239 -7.515263108618198, 46.28225610222377 -7.1673752831421975, 46.42001459126881 -6.881316833080699 M46.42001459126881 -6.881316833080699 C46.555894503035375 -6.545690823957908, 46.69177441480194 -6.210064814835118, 46.828963174845924 -5.871205925162238 M46.42001459126881 -6.881316833080699 C46.5684327060715 -6.514721220049021, 46.716850820874186 -6.148125607017345, 46.828963174845924 -5.871205925162238 M46.828963174845924 -5.871205925162238 C46.93829895181191 -5.541903985231042, 47.047634728777886 -5.212602045299846, 47.172353501623235 -4.836968972727556 M46.828963174845924 -5.871205925162238 C46.91419301149703 -5.614507236699452, 46.99942284814813 -5.357808548236665, 47.172353501623235 -4.836968972727556 M47.172353501623235 -4.836968972727556 C47.27283584244336 -4.453786257858436, 47.37331818326348 -4.070603542989315, 47.448774507091 -3.7828558772573464 M47.172353501623235 -4.836968972727556 C47.2528256345374 -4.5300938530828025, 47.33329776745157 -4.22321873343805, 47.448774507091 -3.7828558772573464 M47.448774507091 -3.7828558772573464 C47.52946925610337 -3.3685053959200943, 47.61016400511573 -2.9541549145828423, 47.65709031804565 -2.713198215567453 M47.448774507091 -3.7828558772573464 C47.51719655514114 -3.431523121524845, 47.58561860319128 -3.0801903657923435, 47.65709031804565 -2.713198215567453 M47.65709031804565 -2.713198215567453 C47.702096522837074 -2.3641389786854985, 47.74710272762851 -2.015079741803544, 47.796444920136366 -1.632391440430593 M47.65709031804565 -2.713198215567453 C47.70503527506025 -2.3413465967648848, 47.75298023207484 -1.9694949779623165, 47.796444920136366 -1.632391440430593 M47.796444920136366 -1.632391440430593 C47.81226533998928 -1.3859756312083698, 47.8280857598422 -1.1395598219861465, 47.8662656754117 -0.5448768187181379 M47.796444920136366 -1.632391440430593 C47.81970950719782 -1.2700267181118332, 47.84297409425927 -0.9076619957930732, 47.8662656754117 -0.5448768187181379 M47.8662656754117 -0.5448768187181379 C47.8662656754117 -0.3110171156824082, 47.8662656754117 -0.07715741264667847, 47.8662656754117 0.5448768187181336 M47.8662656754117 -0.5448768187181379 C47.8662656754117 -0.2784720242421068, 47.8662656754117 -0.012067229766075771, 47.8662656754117 0.5448768187181336 M47.8662656754117 0.5448768187181336 C47.84899428266506 0.813892701964267, 47.831722889918424 1.0829085852104003, 47.796444920136366 1.6323914404305815 M47.8662656754117 0.5448768187181336 C47.84957851207489 0.8047928573246385, 47.83289134873809 1.0647088959311433, 47.796444920136366 1.6323914404305815 M47.796444920136366 1.6323914404305815 C47.74591796872016 2.024268497939606, 47.69539101730395 2.4161455554486313, 47.657090318045654 2.7131982155674415 M47.796444920136366 1.6323914404305815 C47.75390054076538 1.9623572454939922, 47.7113561613944 2.2923230505574033, 47.657090318045654 2.7131982155674415 M47.657090318045654 2.7131982155674415 C47.608442307494826 2.962995467985267, 47.559794296944 3.2127927204030926, 47.448774507091 3.782855877257343 M47.657090318045654 2.7131982155674415 C47.581576281425406 3.100946833715108, 47.506062244805165 3.488695451862774, 47.448774507091 3.782855877257343 M47.448774507091 3.782855877257343 C47.392284716438645 3.998275931844926, 47.33579492578629 4.213695986432509, 47.172353501623235 4.836968972727545 M47.448774507091 3.782855877257343 C47.356095192167984 4.136282272527982, 47.26341587724497 4.489708667798622, 47.172353501623235 4.836968972727545 M47.172353501623235 4.836968972727545 C47.06913051114207 5.147860173706722, 46.96590752066091 5.4587513746858995, 46.828963174845924 5.871205925162227 M47.172353501623235 4.836968972727545 C47.036627887216866 5.245752898379594, 46.90090227281049 5.654536824031644, 46.828963174845924 5.871205925162227 M46.828963174845924 5.871205925162227 C46.68731240334305 6.221086069405687, 46.545661631840176 6.570966213649148, 46.42001459126881 6.881316833080694 M46.828963174845924 5.871205925162227 C46.735013599958066 6.103263191526692, 46.641064025070214 6.335320457891158, 46.42001459126881 6.881316833080694 M46.42001459126881 6.881316833080694 C46.267534738941876 7.197944508983762, 46.11505488661494 7.5145721848868305, 45.947188208341004 7.863150934094196 M46.42001459126881 6.881316833080694 C46.283234378534516 7.165343871451177, 46.14645416580022 7.449370909821659, 45.947188208341004 7.863150934094196 M45.947188208341004 7.863150934094196 C45.7376915505624 8.235133463817052, 45.5281948927838 8.607115993539907, 45.41242697109089 8.812673661278923 M45.947188208341004 7.863150934094196 C45.82382908962494 8.082187540839875, 45.70046997090886 8.301224147585554, 45.41242697109089 8.812673661278923 M45.41242697109089 8.812673661278923 C45.18230943991745 9.166195984370598, 44.952191908744 9.519718307462272, 44.817928328148255 9.725983222076879 M45.41242697109089 8.812673661278923 C45.20227739561488 9.135519842272464, 44.99212782013887 9.458366023266004, 44.817928328148255 9.725983222076879 M44.817928328148255 9.725983222076879 C44.61413359042431 9.999049604544421, 44.410338852700356 10.272115987011963, 44.16613520195651 10.599326631598467 M44.817928328148255 9.725983222076879 C44.64864149306373 9.952812158742198, 44.47935465797921 10.179641095407517, 44.16613520195651 10.599326631598467 M44.16613520195651 10.599326631598467 C43.955392990182155 10.846876425120183, 43.7446507784078 11.094426218641896, 43.45972595028037 11.42911513444238 M44.16613520195651 10.599326631598467 C43.91653348739469 10.892523008262685, 43.666931772832875 11.185719384926903, 43.45972595028037 11.42911513444238 M43.45972595028037 11.42911513444238 C43.184385504701154 11.713426750373914, 42.90904505912194 11.997738366305448, 42.70160336025927 12.211938951661365 M43.45972595028037 11.42911513444238 C43.30027448116411 11.593761867514, 43.14082301204784 11.758408600585621, 42.70160336025927 12.211938951661365 M42.70160336025927 12.211938951661365 C42.38388674683607 12.500480773651383, 42.06617013341286 12.789022595641399, 41.89488272023242 12.944581292275275 M42.70160336025927 12.211938951661365 C42.52365570663561 12.373546302445465, 42.34570805301195 12.535153653229568, 41.89488272023242 12.944581292275275 M41.89488272023242 12.944581292275275 C41.56202189774005 13.210028940414444, 41.22916107524769 13.475476588553612, 41.042879018350675 13.62403157175526 M41.89488272023242 12.944581292275275 C41.58789096790415 13.189399045363446, 41.280899215575886 13.434216798451615, 41.042879018350675 13.62403157175526 M41.042879018350675 13.62403157175526 C40.72344951160312 13.846851767781876, 40.40402000485556 14.069671963808492, 40.14909332057934 14.247497783161286 M41.042879018350675 13.62403157175526 C40.72794245570343 13.843717684473917, 40.41300589305618 14.063403797192572, 40.14909332057934 14.247497783161286 M40.14909332057934 14.247497783161286 C39.83086683172936 14.440408550808572, 39.51264034287938 14.63331931845586, 39.21719838406695 14.81241797009762 M40.14909332057934 14.247497783161286 C39.9149925733528 14.389411031858709, 39.68089182612626 14.531324280556131, 39.21719838406695 14.81241797009762 M39.21719838406695 14.81241797009762 C38.9186149748107 14.9681887434548, 38.62003156555446 15.12395951681198, 38.25102356499849 15.316470754341124 M39.21719838406695 14.81241797009762 C38.84704788749713 15.005525247065384, 38.47689739092732 15.198632524033146, 38.25102356499849 15.316470754341124 M38.25102356499849 15.316470754341124 C37.892657459055336 15.475108798889329, 37.53429135311219 15.633746843437534, 37.254539082949364 15.757584874882367 M38.25102356499849 15.316470754341124 C37.85356566235067 15.492413577673537, 37.456107759702846 15.668356401005951, 37.254539082949364 15.757584874882367 M37.254539082949364 15.757584874882367 C36.84834807899582 15.907066919125752, 36.442157075042275 16.056548963369135, 36.23183970640156 16.133947699181363 M37.254539082949364 15.757584874882367 C36.87268912477632 15.898109189272366, 36.49083916660328 16.038633503662364, 36.23183970640156 16.133947699181363 M36.23183970640156 16.133947699181363 C35.96693693693292 16.212569450656645, 35.70203416746428 16.291191202131927, 35.18712792646164 16.444012671663497 M36.23183970640156 16.133947699181363 C36.00358795697808 16.20169162029237, 35.77533620755461 16.269435541403375, 35.18712792646164 16.444012671663497 M35.18712792646164 16.444012671663497 C34.81498907489628 16.528950936100333, 34.44285022333093 16.61388920053717, 34.12469668792333 16.68650566884811 M35.18712792646164 16.444012671663497 C34.793397182113026 16.533879144727845, 34.39966643776442 16.623745617792192, 34.12469668792333 16.68650566884811 M34.12469668792333 16.68650566884811 C33.838274978478246 16.73281210959766, 33.55185326903317 16.77911855034721, 33.04891174863661 16.86043023499518 M34.12469668792333 16.68650566884811 C33.70148822969967 16.7549267303431, 33.278279771476015 16.823347791838092, 33.04891174863661 16.86043023499518 M33.04891174863661 16.86043023499518 C32.64351034406253 16.899538820927923, 32.23810893948845 16.93864740686066, 31.96419373967212 16.965071676755716 M33.04891174863661 16.86043023499518 C32.66720649814756 16.89725288144213, 32.2855012476585 16.934075527889085, 31.96419373967212 16.965071676755716 M31.96419373967212 16.965071676755716 C31.571911783828067 16.977651395549127, 31.179629827984016 16.990231114342542, 30.875000000000004 17 M31.96419373967212 16.965071676755716 C31.723218907670606 16.97279927058895, 31.482244075669097 16.98052686442218, 30.875000000000004 17 M30.875000000000004 17 C30.875000000000004 17, 30.875 17, 30.875 17 M30.875000000000004 17 C30.875000000000004 17, 30.875 17, 30.875 17 M30.875 17 C7.602005777035071 17, -15.670988445929858 17, -30.874999999999996 17 M30.875 17 C16.60895629104128 17, 2.3429125820825583 17, -30.874999999999996 17 M-30.874999999999996 17 C-31.13933260026103 16.991523368001822, -31.403665200522063 16.983046736003644, -31.964193739672112 16.965071676755716 M-30.874999999999996 17 C-31.151006146066777 16.99114902010901, -31.427012292133558 16.982298040218023, -31.964193739672112 16.965071676755716 M-31.964193739672112 16.965071676755716 C-32.30240314388767 16.93244502228736, -32.64061254810323 16.899818367819005, -33.048911748636606 16.86043023499518 M-31.964193739672112 16.965071676755716 C-32.28289039275101 16.934327393921997, -32.6015870458299 16.903583111088277, -33.048911748636606 16.86043023499518 M-33.048911748636606 16.86043023499518 C-33.28760138785901 16.8218407451915, -33.52629102708142 16.78325125538782, -34.124696687923326 16.68650566884811 M-33.048911748636606 16.86043023499518 C-33.42010426817199 16.800418707077682, -33.79129678770738 16.740407179160183, -34.124696687923326 16.68650566884811 M-34.124696687923326 16.68650566884811 C-34.460004440441956 16.609973862423306, -34.79531219296059 16.533442055998503, -35.18712792646162 16.4440126716635 M-34.124696687923326 16.68650566884811 C-34.39923630497774 16.62384379279387, -34.673775922032156 16.561181916739628, -35.18712792646162 16.4440126716635 M-35.18712792646162 16.4440126716635 C-35.513765466231256 16.347068364415307, -35.84040300600089 16.250124057167113, -36.231839706401544 16.13394769918137 M-35.18712792646162 16.4440126716635 C-35.57684197931213 16.32834758642828, -35.96655603216263 16.212682501193058, -36.231839706401544 16.13394769918137 M-36.231839706401544 16.13394769918137 C-36.5270976652643 16.025290040985222, -36.822355624127056 15.916632382789077, -37.254539082949364 15.757584874882369 M-36.231839706401544 16.13394769918137 C-36.540627964003235 16.020310765976586, -36.84941622160492 15.906673832771801, -37.254539082949364 15.757584874882369 M-37.254539082949364 15.757584874882369 C-37.573253523195206 15.61649944651349, -37.891967963441054 15.475414018144614, -38.25102356499848 15.316470754341127 M-37.254539082949364 15.757584874882369 C-37.62992858465401 15.591411078011642, -38.00531808635866 15.425237281140918, -38.25102356499848 15.316470754341127 M-38.25102356499848 15.316470754341127 C-38.554798936273876 15.157991337724168, -38.85857430754926 14.999511921107208, -39.21719838406693 14.812417970097624 M-38.25102356499848 15.316470754341127 C-38.533343183403105 15.16918479025378, -38.81566280180773 15.021898826166433, -39.21719838406693 14.812417970097624 M-39.21719838406693 14.812417970097624 C-39.56338092929918 14.602560076783387, -39.909563474531424 14.39270218346915, -40.14909332057932 14.247497783161299 M-39.21719838406693 14.812417970097624 C-39.43620085851539 14.679657383085575, -39.65520333296385 14.546896796073526, -40.14909332057932 14.247497783161299 M-40.14909332057932 14.247497783161299 C-40.38183251391516 14.085148997007517, -40.61457170725099 13.922800210853735, -41.04287901835067 13.624031571755264 M-40.14909332057932 14.247497783161299 C-40.45103120047908 14.036878988823382, -40.75296908037884 13.826260194485467, -41.04287901835067 13.624031571755264 M-41.04287901835067 13.624031571755264 C-41.25441759677561 13.455335184739363, -41.465956175200546 13.286638797723462, -41.8948827202324 12.94458129227529 M-41.04287901835067 13.624031571755264 C-41.37364113484712 13.360257585798925, -41.70440325134357 13.096483599842585, -41.8948827202324 12.94458129227529 M-41.8948827202324 12.94458129227529 C-42.19842144401628 12.668915454529303, -42.50196016780016 12.393249616783315, -42.70160336025926 12.211938951661377 M-41.8948827202324 12.94458129227529 C-42.17355608906996 12.691497511990313, -42.45222945790752 12.438413731705337, -42.70160336025926 12.211938951661377 M-42.70160336025926 12.211938951661377 C-42.96526631645564 11.93968530225733, -43.228929272652024 11.667431652853281, -43.459725950280365 11.429115134442386 M-42.70160336025926 12.211938951661377 C-42.97827804913982 11.926249619977797, -43.25495273802037 11.640560288294218, -43.459725950280365 11.429115134442386 M-43.459725950280365 11.429115134442386 C-43.706605803640436 11.139116010824035, -43.953485657000506 10.849116887205682, -44.16613520195651 10.599326631598473 M-43.459725950280365 11.429115134442386 C-43.6257360862315 11.234110182509848, -43.79174622218263 11.039105230577311, -44.16613520195651 10.599326631598473 M-44.16613520195651 10.599326631598473 C-44.38799289067863 10.302057540362064, -44.60985057940075 10.004788449125657, -44.81792832814825 9.72598322207689 M-44.16613520195651 10.599326631598473 C-44.31747723703774 10.396542092132647, -44.468819272118985 10.19375755266682, -44.81792832814825 9.72598322207689 M-44.81792832814825 9.72598322207689 C-45.019739168158324 9.41594757802302, -45.22155000816841 9.105911933969152, -45.41242697109088 8.812673661278936 M-44.81792832814825 9.72598322207689 C-44.99872148358193 9.448236385570915, -45.17951463901561 9.17048954906494, -45.41242697109088 8.812673661278936 M-45.41242697109088 8.812673661278936 C-45.575767360214975 8.522646260381165, -45.73910774933908 8.232618859483397, -45.947188208341004 7.863150934094201 M-45.41242697109088 8.812673661278936 C-45.52432281160059 8.613991265771434, -45.63621865211031 8.415308870263932, -45.947188208341004 7.863150934094201 M-45.947188208341004 7.863150934094201 C-46.05428751162642 7.64075693926405, -46.16138681491183 7.418362944433899, -46.42001459126881 6.881316833080701 M-45.947188208341004 7.863150934094201 C-46.10113998800456 7.543466769582436, -46.25509176766811 7.22378260507067, -46.42001459126881 6.881316833080701 M-46.42001459126881 6.881316833080701 C-46.569789857032184 6.511369030937404, -46.71956512279555 6.141421228794107, -46.828963174845924 5.87120592516224 M-46.42001459126881 6.881316833080701 C-46.51509631872394 6.646463127986381, -46.61017804617907 6.411609422892061, -46.828963174845924 5.87120592516224 M-46.828963174845924 5.87120592516224 C-46.93381368082983 5.555412906798175, -47.03866418681373 5.239619888434109, -47.172353501623235 4.8369689727275516 M-46.828963174845924 5.87120592516224 C-46.920663075995435 5.59502043329504, -47.01236297714494 5.3188349414278395, -47.172353501623235 4.8369689727275516 M-47.172353501623235 4.8369689727275516 C-47.25051098264642 4.538920623919597, -47.3286684636696 4.240872275111642, -47.448774507091 3.782855877257349 M-47.172353501623235 4.8369689727275516 C-47.27480238543665 4.446286977119875, -47.37725126925007 4.055604981512198, -47.448774507091 3.782855877257349 M-47.448774507091 3.782855877257349 C-47.51069253678643 3.464919881151542, -47.572610566481856 3.146983885045735, -47.65709031804565 2.713198215567455 M-47.448774507091 3.782855877257349 C-47.52914480761146 3.370171370353828, -47.609515108131916 2.957486863450307, -47.65709031804565 2.713198215567455 M-47.65709031804565 2.713198215567455 C-47.699470866120684 2.3845030536833085, -47.741851414195715 2.055807891799162, -47.796444920136366 1.6323914404306026 M-47.65709031804565 2.713198215567455 C-47.70915866920467 2.3093663660369965, -47.76122702036369 1.905534516506538, -47.796444920136366 1.6323914404306026 M-47.796444920136366 1.6323914404306026 C-47.823719238042976 1.207571923602015, -47.850993555949586 0.7827524067734277, -47.8662656754117 0.54487681871814 M-47.796444920136366 1.6323914404306026 C-47.81164544498654 1.3956309962463573, -47.82684596983671 1.158870552062112, -47.8662656754117 0.54487681871814 M-47.8662656754117 0.54487681871814 C-47.8662656754117 0.2010139869318307, -47.8662656754117 -0.14284884485447857, -47.8662656754117 -0.5448768187181317 M-47.8662656754117 0.54487681871814 C-47.8662656754117 0.30904466575064643, -47.8662656754117 0.07321251278315288, -47.8662656754117 -0.5448768187181317 M-47.8662656754117 -0.5448768187181317 C-47.84213287919372 -0.9207645994556135, -47.818000082975736 -1.2966523801930956, -47.796444920136366 -1.6323914404305793 M-47.8662656754117 -0.5448768187181317 C-47.83923316716764 -0.965929954867151, -47.81220065892359 -1.3869830910161705, -47.796444920136366 -1.6323914404305793 M-47.796444920136366 -1.6323914404305793 C-47.750036232508414 -1.9923280572410849, -47.703627544880455 -2.3522646740515905, -47.657090318045654 -2.713198215567447 M-47.796444920136366 -1.6323914404305793 C-47.756406623240274 -1.9429205647006857, -47.71636832634418 -2.2534496889707922, -47.657090318045654 -2.713198215567447 M-47.657090318045654 -2.713198215567447 C-47.582109422737425 -3.0982092657573554, -47.5071285274292 -3.4832203159472646, -47.448774507091 -3.782855877257341 M-47.657090318045654 -2.713198215567447 C-47.58145568926241 -3.1015660489849264, -47.50582106047918 -3.4899338824024055, -47.448774507091 -3.782855877257341 M-47.448774507091 -3.782855877257341 C-47.35297209001959 -4.148192014580832, -47.25716967294819 -4.513528151904324, -47.172353501623235 -4.836968972727544 M-47.448774507091 -3.782855877257341 C-47.38406141479992 -4.029634944994836, -47.319348322508844 -4.27641401273233, -47.172353501623235 -4.836968972727544 M-47.172353501623235 -4.836968972727544 C-47.09472036395971 -5.070787614209358, -47.017087226296184 -5.304606255691172, -46.82896317484593 -5.871205925162218 M-47.172353501623235 -4.836968972727544 C-47.04879397724171 -5.209110573627977, -46.92523445286018 -5.5812521745284105, -46.82896317484593 -5.871205925162218 M-46.82896317484593 -5.871205925162218 C-46.702343619553815 -6.183958674756299, -46.575724064261706 -6.496711424350382, -46.42001459126881 -6.881316833080692 M-46.82896317484593 -5.871205925162218 C-46.72652108641008 -6.1242398641818125, -46.62407899797423 -6.377273803201407, -46.42001459126881 -6.881316833080692 M-46.42001459126881 -6.881316833080692 C-46.294664411948794 -7.1416091625028795, -46.169314232628786 -7.401901491925067, -45.947188208341004 -7.863150934094194 M-46.42001459126881 -6.881316833080692 C-46.25103274826608 -7.232211245708101, -46.08205090526334 -7.58310565833551, -45.947188208341004 -7.863150934094194 M-45.947188208341004 -7.863150934094194 C-45.79456617052235 -8.134146816898387, -45.6419441327037 -8.405142699702578, -45.41242697109088 -8.812673661278929 M-45.947188208341004 -7.863150934094194 C-45.7634102375141 -8.18946733083485, -45.579632266687206 -8.515783727575505, -45.41242697109088 -8.812673661278929 M-45.41242697109088 -8.812673661278929 C-45.209324054554244 -9.124694281848718, -45.00622113801761 -9.43671490241851, -44.81792832814825 -9.725983222076884 M-45.41242697109088 -8.812673661278929 C-45.194777329702134 -9.147041957564127, -44.97712768831338 -9.481410253849328, -44.81792832814825 -9.725983222076884 M-44.81792832814825 -9.725983222076884 C-44.59557765436135 -10.023912868388228, -44.37322698057445 -10.321842514699574, -44.16613520195651 -10.599326631598467 M-44.81792832814825 -9.725983222076884 C-44.61253552765018 -10.001190863075232, -44.40714272715211 -10.27639850407358, -44.16613520195651 -10.599326631598467 M-44.16613520195651 -10.599326631598467 C-43.910034588051765 -10.900156985228733, -43.65393397414702 -11.200987338858997, -43.45972595028037 -11.42911513444238 M-44.16613520195651 -10.599326631598467 C-43.94787477054974 -10.855707753699235, -43.72961433914296 -11.112088875800003, -43.45972595028037 -11.42911513444238 M-43.45972595028037 -11.42911513444238 C-43.2378165782935 -11.658254780117097, -43.01590720630662 -11.887394425791815, -42.70160336025928 -12.21193895166136 M-43.45972595028037 -11.42911513444238 C-43.163282305217294 -11.735217536445901, -42.866838660154215 -12.041319938449423, -42.70160336025928 -12.21193895166136 M-42.70160336025928 -12.21193895166136 C-42.390780783935355 -12.494219791564031, -42.07995820761144 -12.776500631466705, -41.89488272023242 -12.944581292275274 M-42.70160336025928 -12.21193895166136 C-42.46687475337598 -12.425113261854163, -42.23214614649268 -12.638287572046966, -41.89488272023242 -12.944581292275274 M-41.89488272023242 -12.944581292275274 C-41.570859470414405 -13.20298121138433, -41.2468362205964 -13.461381130493388, -41.042879018350675 -13.624031571755259 M-41.89488272023242 -12.944581292275274 C-41.68935389417893 -13.108485061701169, -41.48382506812545 -13.272388831127063, -41.042879018350675 -13.624031571755259 M-41.042879018350675 -13.624031571755259 C-40.69813413174854 -13.8645106808833, -40.353389245146396 -14.10498979001134, -40.14909332057934 -14.247497783161284 M-41.042879018350675 -13.624031571755259 C-40.738391463928316 -13.836428908666507, -40.43390390950596 -14.048826245577756, -40.14909332057934 -14.247497783161284 M-40.14909332057934 -14.247497783161284 C-39.94743377722261 -14.369744983427154, -39.74577423386588 -14.491992183693023, -39.21719838406695 -14.812417970097618 M-40.14909332057934 -14.247497783161284 C-39.80918311864418 -14.453553345108448, -39.46927291670902 -14.65960890705561, -39.21719838406695 -14.812417970097618 M-39.21719838406695 -14.812417970097618 C-39.012355585848944 -14.919284326719877, -38.807512787630934 -15.026150683342136, -38.25102356499849 -15.316470754341124 M-39.21719838406695 -14.812417970097618 C-38.90490281616445 -14.975342367837492, -38.592607248261956 -15.138266765577365, -38.25102356499849 -15.316470754341124 M-38.25102356499849 -15.316470754341124 C-37.85455218793534 -15.491976872061446, -37.45808081087219 -15.66748298978177, -37.25453908294937 -15.757584874882365 M-38.25102356499849 -15.316470754341124 C-37.95701411177794 -15.446620017801306, -37.663004658557384 -15.576769281261491, -37.25453908294937 -15.757584874882365 M-37.25453908294937 -15.757584874882365 C-36.94819847917303 -15.870321048853558, -36.641857875396695 -15.98305722282475, -36.231839706401566 -16.133947699181363 M-37.25453908294937 -15.757584874882365 C-36.99204149397018 -15.85418641412782, -36.72954390499099 -15.950787953373277, -36.231839706401566 -16.133947699181363 M-36.231839706401566 -16.133947699181363 C-35.87422679357362 -16.240085334560213, -35.516613880745666 -16.346222969939063, -35.18712792646164 -16.444012671663494 M-36.231839706401566 -16.133947699181363 C-35.81928299036357 -16.256392366947047, -35.406726274325564 -16.37883703471273, -35.18712792646164 -16.444012671663494 M-35.18712792646164 -16.444012671663494 C-34.94305280322679 -16.49972122580282, -34.69897767999194 -16.55542977994215, -34.12469668792333 -16.68650566884811 M-35.18712792646164 -16.444012671663494 C-34.77860596287055 -16.537255143998213, -34.370083999279466 -16.630497616332928, -34.12469668792333 -16.68650566884811 M-34.12469668792333 -16.68650566884811 C-33.77397839145948 -16.743207083159376, -33.423260094995626 -16.79990849747064, -33.04891174863661 -16.86043023499518 M-34.12469668792333 -16.68650566884811 C-33.7132965145433 -16.7530176584242, -33.30189634116328 -16.819529648000287, -33.04891174863661 -16.86043023499518 M-33.04891174863661 -16.86043023499518 C-32.70384506897393 -16.89371840257884, -32.358778389311254 -16.9270065701625, -31.96419373967212 -16.965071676755716 M-33.04891174863661 -16.86043023499518 C-32.701106971201924 -16.893982543577863, -32.353302193767234 -16.927534852160544, -31.96419373967212 -16.965071676755716 M-31.96419373967212 -16.965071676755716 C-31.62380776990968 -16.9759871922849, -31.283421800147238 -16.986902707814085, -30.875000000000004 -17 M-31.96419373967212 -16.965071676755716 C-31.67328157799119 -16.974400663554654, -31.38236941631026 -16.983729650353588, -30.875000000000004 -17 M-30.875000000000004 -17 C-30.875000000000004 -17, -30.875 -17, -30.875 -17 M-30.875000000000004 -17 C-30.875000000000004 -17, -30.875 -17, -30.875 -17" stroke="#9370DB" stroke-width="1.3" fill="none" stroke-dasharray="0 0" style=""></path></g><g class="label" style="" transform="translate(0, -9.5)"><rect></rect><g><rect class="background" style="stroke: none"></rect><text y="-10.1" style=""><tspan class="text-outer-tspan row" x="0" y="-0.1em" dy="1.1em"><tspan font-style="normal" class="text-inner-tspan" font-weight="normal">Start</tspan><tspan font-style="normal" class="text-inner-tspan" font-weight="normal"> here</tspan></tspan></text></g></g></g><g class="node default" id="gbf31182b-841c-4adc-bacc-af1518176eed-light-flowchart-docsQ-1" data-look="classic" transform="translate(280.4421844482422, 227.15000915527344)"><polygon points="135.1500015258789,0 270.3000030517578,-135.1500015258789 135.1500015258789,-270.3000030517578 0,-135.1500015258789" class="label-container" transform="translate(-134.6500015258789, 135.1500015258789)"></polygon><g class="label" style="" transform="translate(0, -35.900001525878906)"><rect></rect><g><rect class="background" style="stroke: none"></rect><text y="-10.1" style=""><tspan class="text-outer-tspan row" x="0" y="-0.1em" dy="1.1em"><tspan font-style="normal" class="text-inner-tspan" font-weight="normal">Need</tspan><tspan font-style="normal" class="text-inner-tspan" font-weight="normal"> built-in</tspan><tspan font-style="normal" class="text-inner-tspan" font-weight="normal"> docs</tspan></tspan><tspan class="text-outer-tspan row" x="0" y="1em" dy="1.1em"><tspan font-style="normal" class="text-inner-tspan" font-weight="normal">navigation,</tspan></tspan><tspan class="text-outer-tspan row" x="0" y="2.1em" dy="1.1em"><tspan font-style="normal" class="text-inner-tspan" font-weight="normal">search,</tspan><tspan font-style="normal" class="text-inner-tspan" font-weight="normal"> and</tspan><tspan font-style="normal" class="text-inner-tspan" font-weight="normal"> the</tspan><tspan font-style="normal" class="text-inner-tspan" font-weight="normal"> default</tspan></tspan><tspan class="text-outer-tspan row" x="0" y="3.2em" dy="1.1em"><tspan font-style="normal" class="text-inner-tspan" font-weight="normal">theme?</tspan></tspan></text></g></g></g><g class="node default" id="gbf31182b-841c-4adc-bacc-af1518176eed-light-flowchart-docs-3" data-look="classic" transform="translate(124.9296875, 579.3953247070312)"><rect class="basic label-container" style="" x="-116.9296875" y="-50.900001525878906" width="233.859375" height="101.80000305175781"></rect><g class="label" style="" transform="translate(0, -35.900001525878906)"><rect></rect><g><rect class="background" style="stroke: none"></rect><text y="-10.1" style=""><tspan class="text-outer-tspan row" x="0" y="-0.1em" dy="1.1em"><tspan font-style="normal" class="text-inner-tspan" font-weight="normal">@pagesmith/docs</tspan></tspan><tspan class="text-outer-tspan row" x="0" y="1em" dy="1.1em"><tspan font-style="normal" class="text-inner-tspan" font-weight="normal">Docs</tspan><tspan font-style="normal" class="text-inner-tspan" font-weight="normal"> preset</tspan><tspan font-style="normal" class="text-inner-tspan" font-weight="normal"> with</tspan><tspan font-style="normal" class="text-inner-tspan" font-weight="normal"> config,</tspan></tspan><tspan class="text-outer-tspan row" x="0" y="2.1em" dy="1.1em"><tspan font-style="normal" class="text-inner-tspan" font-weight="normal">navigation,</tspan><tspan font-style="normal" class="text-inner-tspan" font-weight="normal"> search,</tspan><tspan font-style="normal" class="text-inner-tspan" font-weight="normal"> and</tspan></tspan><tspan class="text-outer-tspan row" x="0" y="3.2em" dy="1.1em"><tspan font-style="normal" class="text-inner-tspan" font-weight="normal">theme</tspan></tspan></text></g></g></g><g class="node default" id="gbf31182b-841c-4adc-bacc-af1518176eed-light-flowchart-hostQ-5" data-look="classic" transform="translate(435.9546813964844, 579.3953247070312)"><polygon points="144.0953140258789,0 288.1906280517578,-144.0953140258789 144.0953140258789,-288.1906280517578 0,-144.0953140258789" class="label-container" transform="translate(-143.5953140258789, 144.0953140258789)"></polygon><g class="label" style="" transform="translate(0, -35.900001525878906)"><rect></rect><g><rect class="background" style="stroke: none"></rect><text y="-10.1" style=""><tspan class="text-outer-tspan row" x="0" y="-0.1em" dy="1.1em"><tspan font-style="normal" class="text-inner-tspan" font-weight="normal">Does</tspan><tspan font-style="normal" class="text-inner-tspan" font-weight="normal"> the</tspan><tspan font-style="normal" class="text-inner-tspan" font-weight="normal"> host</tspan><tspan font-style="normal" class="text-inner-tspan" font-weight="normal"> app</tspan><tspan font-style="normal" class="text-inner-tspan" font-weight="normal"> already</tspan></tspan><tspan class="text-outer-tspan row" x="0" y="1em" dy="1.1em"><tspan font-style="normal" class="text-inner-tspan" font-weight="normal">own</tspan></tspan><tspan class="text-outer-tspan row" x="0" y="2.1em" dy="1.1em"><tspan font-style="normal" class="text-inner-tspan" font-weight="normal">routing,</tspan><tspan font-style="normal" class="text-inner-tspan" font-weight="normal"> layout,</tspan><tspan font-style="normal" class="text-inner-tspan" font-weight="normal"> and</tspan><tspan font-style="normal" class="text-inner-tspan" font-weight="normal"> build</tspan></tspan><tspan class="text-outer-tspan row" x="0" y="3.2em" dy="1.1em"><tspan font-style="normal" class="text-inner-tspan" font-weight="normal">tooling?</tspan></tspan></text></g></g></g><g class="node default" id="gbf31182b-841c-4adc-bacc-af1518176eed-light-flowchart-core-7" data-look="classic" transform="translate(563.1460876464844, 856.1906318664551)"><rect class="basic label-container" style="" x="-111.96875" y="-59.70000076293945" width="223.9375" height="119.4000015258789"></rect><g class="label" style="" transform="translate(0, -44.70000076293945)"><rect></rect><g><rect class="background" style="stroke: none"></rect><text y="-10.1" style=""><tspan class="text-outer-tspan row" x="0" y="-0.1em" dy="1.1em"><tspan font-style="normal" class="text-inner-tspan" font-weight="normal">@pagesmith/core</tspan></tspan><tspan class="text-outer-tspan row" x="0" y="1em" dy="1.1em"><tspan font-style="normal" class="text-inner-tspan" font-weight="normal">Headless</tspan><tspan font-style="normal" class="text-inner-tspan" font-weight="normal"> content</tspan><tspan font-style="normal" class="text-inner-tspan" font-weight="normal"> layer</tspan></tspan><tspan class="text-outer-tspan row" x="0" y="2.1em" dy="1.1em"><tspan font-style="normal" class="text-inner-tspan" font-weight="normal">with</tspan></tspan><tspan class="text-outer-tspan row" x="0" y="3.2em" dy="1.1em"><tspan font-style="normal" class="text-inner-tspan" font-weight="normal">schemas,</tspan><tspan font-style="normal" class="text-inner-tspan" font-weight="normal"> loaders,</tspan><tspan font-style="normal" class="text-inner-tspan" font-weight="normal"> and</tspan></tspan><tspan class="text-outer-tspan row" x="0" y="4.300000000000001em" dy="1.1em"><tspan font-style="normal" class="text-inner-tspan" font-weight="normal">markdown</tspan></tspan></text></g></g></g><g class="node default" id="gbf31182b-841c-4adc-bacc-af1518176eed-light-flowchart-site-9" data-look="classic" transform="translate(286.3999938964844, 1392.0843887329102)"><rect class="basic label-container" style="" x="-127.6171875" y="-68.5" width="255.234375" height="137"></rect><g class="label" style="" transform="translate(0, -53.5)"><rect></rect><g><rect class="background" style="stroke: none"></rect><text y="-10.1" style=""><tspan class="text-outer-tspan row" x="0" y="-0.1em" dy="1.1em"><tspan font-style="normal" class="text-inner-tspan" font-weight="normal">@pagesmith/site</tspan><tspan font-style="normal" class="text-inner-tspan" font-weight="normal"> +</tspan></tspan><tspan class="text-outer-tspan row" x="0" y="1em" dy="1.1em"><tspan font-style="normal" class="text-inner-tspan" font-weight="normal">@pagesmith/core</tspan></tspan><tspan class="text-outer-tspan row" x="0" y="2.1em" dy="1.1em"><tspan font-style="normal" class="text-inner-tspan" font-weight="normal">Custom</tspan><tspan font-style="normal" class="text-inner-tspan" font-weight="normal"> site</tspan><tspan font-style="normal" class="text-inner-tspan" font-weight="normal"> shell</tspan><tspan font-style="normal" class="text-inner-tspan" font-weight="normal"> with</tspan></tspan><tspan class="text-outer-tspan row" x="0" y="3.2em" dy="1.1em"><tspan font-style="normal" class="text-inner-tspan" font-weight="normal">shared</tspan></tspan><tspan class="text-outer-tspan row" x="0" y="4.300000000000001em" dy="1.1em"><tspan font-style="normal" class="text-inner-tspan" font-weight="normal">JSX,</tspan><tspan font-style="normal" class="text-inner-tspan" font-weight="normal"> CSS/runtime,</tspan><tspan font-style="normal" class="text-inner-tspan" font-weight="normal"> and</tspan><tspan font-style="normal" class="text-inner-tspan" font-weight="normal"> Vite</tspan></tspan><tspan class="text-outer-tspan row" x="0" y="5.4em" dy="1.1em"><tspan font-style="normal" class="text-inner-tspan" font-weight="normal">SSG</tspan></tspan></text></g></g></g><g class="node default" id="gbf31182b-841c-4adc-bacc-af1518176eed-light-flowchart-siteQ-11" data-look="classic" transform="translate(563.1460876464844, 1119.7375106811523)"><polygon points="130.84687423706055,0 261.6937484741211,-130.84687423706055 130.84687423706055,-261.6937484741211 0,-130.84687423706055" class="label-container" transform="translate(-130.34687423706055, 130.84687423706055)"></polygon><g class="label" style="" transform="translate(0, -18.299999237060547)"><rect></rect><g><rect class="background" style="stroke: none"></rect><text y="-10.1" style=""><tspan class="text-outer-tspan row" x="0" y="-0.1em" dy="1.1em"><tspan font-style="normal" class="text-inner-tspan" font-weight="normal">Need</tspan><tspan font-style="normal" class="text-inner-tspan" font-weight="normal"> the</tspan><tspan font-style="normal" class="text-inner-tspan" font-weight="normal"> shared</tspan><tspan font-style="normal" class="text-inner-tspan" font-weight="normal"> Pagesmith</tspan></tspan><tspan class="text-outer-tspan row" x="0" y="1em" dy="1.1em"><tspan font-style="normal" class="text-inner-tspan" font-weight="normal">site</tspan><tspan font-style="normal" class="text-inner-tspan" font-weight="normal"> layer</tspan><tspan font-style="normal" class="text-inner-tspan" font-weight="normal"> too?</tspan></tspan></text></g></g></g><g class="node default" id="gbf31182b-841c-4adc-bacc-af1518176eed-light-flowchart-coreOnly-15" data-look="classic" transform="translate(585.5093688964844, 1392.0843887329102)"><rect class="basic label-container" style="" x="-121.4921875" y="-24.5" width="242.984375" height="49"></rect><g class="label" style="" transform="translate(0, -9.5)"><rect></rect><g><rect class="background" style="stroke: none"></rect><text y="-10.1" style=""><tspan class="text-outer-tspan row" x="0" y="-0.1em" dy="1.1em"><tspan font-style="normal" class="text-inner-tspan" font-weight="normal">Stay</tspan><tspan font-style="normal" class="text-inner-tspan" font-weight="normal"> on</tspan><tspan font-style="normal" class="text-inner-tspan" font-weight="normal"> @pagesmith/core</tspan></tspan></text></g></g></g></g></g></g><defs><filter id="gbf31182b-841c-4adc-bacc-af1518176eed-light-drop-shadow" height="130%" width="130%"><feDropShadow dx="4" dy="4" stdDeviation="0" flood-opacity="0.06" flood-color="#000000"></feDropShadow></filter></defs><defs><filter id="gbf31182b-841c-4adc-bacc-af1518176eed-light-drop-shadow-small" height="150%" width="150%"><feDropShadow dx="2" dy="2" stdDeviation="0" flood-opacity="0.06" flood-color="#000000"></feDropShadow></filter></defs></svg>