<svg id="ga7176d92-b87a-4719-ae8a-936a261727b8-light" width="100%" xmlns="http://www.w3.org/2000/svg" xmlns:xlink="http://www.w3.org/1999/xlink" class="flowchart" style="max-width: 715.0015869140625px;" viewBox="0 0 715.0015869140625 1468.5843505859375" role="graphics-document document" aria-roledescription="flowchart-v2"><style>#ga7176d92-b87a-4719-ae8a-936a261727b8-light{font-family:"trebuchet ms",verdana,arial,sans-serif;font-size:16px;fill:#333;}@keyframes edge-animation-frame{from{stroke-dashoffset:0;}}@keyframes dash{to{stroke-dashoffset:0;}}#ga7176d92-b87a-4719-ae8a-936a261727b8-light .edge-animation-slow{stroke-dasharray:9,5!important;stroke-dashoffset:900;animation:dash 50s linear infinite;stroke-linecap:round;}#ga7176d92-b87a-4719-ae8a-936a261727b8-light .edge-animation-fast{stroke-dasharray:9,5!important;stroke-dashoffset:900;animation:dash 20s linear infinite;stroke-linecap:round;}#ga7176d92-b87a-4719-ae8a-936a261727b8-light .error-icon{fill:#552222;}#ga7176d92-b87a-4719-ae8a-936a261727b8-light .error-text{fill:#552222;stroke:#552222;}#ga7176d92-b87a-4719-ae8a-936a261727b8-light .edge-thickness-normal{stroke-width:1px;}#ga7176d92-b87a-4719-ae8a-936a261727b8-light .edge-thickness-thick{stroke-width:3.5px;}#ga7176d92-b87a-4719-ae8a-936a261727b8-light .edge-pattern-solid{stroke-dasharray:0;}#ga7176d92-b87a-4719-ae8a-936a261727b8-light .edge-thickness-invisible{stroke-width:0;fill:none;}#ga7176d92-b87a-4719-ae8a-936a261727b8-light .edge-pattern-dashed{stroke-dasharray:3;}#ga7176d92-b87a-4719-ae8a-936a261727b8-light .edge-pattern-dotted{stroke-dasharray:2;}#ga7176d92-b87a-4719-ae8a-936a261727b8-light .marker{fill:#333333;stroke:#333333;}#ga7176d92-b87a-4719-ae8a-936a261727b8-light .marker.cross{stroke:#333333;}#ga7176d92-b87a-4719-ae8a-936a261727b8-light svg{font-family:"trebuchet ms",verdana,arial,sans-serif;font-size:16px;}#ga7176d92-b87a-4719-ae8a-936a261727b8-light p{margin:0;}#ga7176d92-b87a-4719-ae8a-936a261727b8-light .label{font-family:"trebuchet ms",verdana,arial,sans-serif;color:#333;}#ga7176d92-b87a-4719-ae8a-936a261727b8-light .cluster-label text{fill:#333;}#ga7176d92-b87a-4719-ae8a-936a261727b8-light .cluster-label span{color:#333;}#ga7176d92-b87a-4719-ae8a-936a261727b8-light .cluster-label span p{background-color:transparent;}#ga7176d92-b87a-4719-ae8a-936a261727b8-light .label text,#ga7176d92-b87a-4719-ae8a-936a261727b8-light span{fill:#333;color:#333;}#ga7176d92-b87a-4719-ae8a-936a261727b8-light .node rect,#ga7176d92-b87a-4719-ae8a-936a261727b8-light .node circle,#ga7176d92-b87a-4719-ae8a-936a261727b8-light .node ellipse,#ga7176d92-b87a-4719-ae8a-936a261727b8-light .node polygon,#ga7176d92-b87a-4719-ae8a-936a261727b8-light .node path{fill:#ECECFF;stroke:#9370DB;stroke-width:1px;}#ga7176d92-b87a-4719-ae8a-936a261727b8-light .rough-node .label text,#ga7176d92-b87a-4719-ae8a-936a261727b8-light .node .label text,#ga7176d92-b87a-4719-ae8a-936a261727b8-light .image-shape .label,#ga7176d92-b87a-4719-ae8a-936a261727b8-light .icon-shape .label{text-anchor:middle;}#ga7176d92-b87a-4719-ae8a-936a261727b8-light .node .katex path{fill:#000;stroke:#000;stroke-width:1px;}#ga7176d92-b87a-4719-ae8a-936a261727b8-light .rough-node .label,#ga7176d92-b87a-4719-ae8a-936a261727b8-light .node .label,#ga7176d92-b87a-4719-ae8a-936a261727b8-light .image-shape .label,#ga7176d92-b87a-4719-ae8a-936a261727b8-light .icon-shape .label{text-align:center;}#ga7176d92-b87a-4719-ae8a-936a261727b8-light .node.clickable{cursor:pointer;}#ga7176d92-b87a-4719-ae8a-936a261727b8-light .root .anchor path{fill:#333333!important;stroke-width:0;stroke:#333333;}#ga7176d92-b87a-4719-ae8a-936a261727b8-light .arrowheadPath{fill:#333333;}#ga7176d92-b87a-4719-ae8a-936a261727b8-light .edgePath .path{stroke:#333333;stroke-width:1px;}#ga7176d92-b87a-4719-ae8a-936a261727b8-light .flowchart-link{stroke:#333333;fill:none;}#ga7176d92-b87a-4719-ae8a-936a261727b8-light .edgeLabel{background-color:rgba(232,232,232, 0.8);text-align:center;}#ga7176d92-b87a-4719-ae8a-936a261727b8-light .edgeLabel p{background-color:rgba(232,232,232, 0.8);}#ga7176d92-b87a-4719-ae8a-936a261727b8-light .edgeLabel rect{opacity:0.5;background-color:rgba(232,232,232, 0.8);fill:rgba(232,232,232, 0.8);}#ga7176d92-b87a-4719-ae8a-936a261727b8-light .labelBkg{background-color:rgba(232, 232, 232, 0.5);}#ga7176d92-b87a-4719-ae8a-936a261727b8-light .cluster rect{fill:#ffffde;stroke:#aaaa33;stroke-width:1px;}#ga7176d92-b87a-4719-ae8a-936a261727b8-light .cluster text{fill:#333;}#ga7176d92-b87a-4719-ae8a-936a261727b8-light .cluster span{color:#333;}#ga7176d92-b87a-4719-ae8a-936a261727b8-light div.mermaidTooltip{position:absolute;text-align:center;max-width:200px;padding:2px;font-family:"trebuchet ms",verdana,arial,sans-serif;font-size:12px;background:hsl(80, 100%, 96.2745098039%);border:1px solid #aaaa33;border-radius:2px;pointer-events:none;z-index:100;}#ga7176d92-b87a-4719-ae8a-936a261727b8-light .flowchartTitleText{text-anchor:middle;font-size:18px;fill:#333;}#ga7176d92-b87a-4719-ae8a-936a261727b8-light rect.text{fill:none;stroke-width:0;}#ga7176d92-b87a-4719-ae8a-936a261727b8-light .icon-shape,#ga7176d92-b87a-4719-ae8a-936a261727b8-light .image-shape{background-color:rgba(232,232,232, 0.8);text-align:center;}#ga7176d92-b87a-4719-ae8a-936a261727b8-light .icon-shape p,#ga7176d92-b87a-4719-ae8a-936a261727b8-light .image-shape p{background-color:rgba(232,232,232, 0.8);padding:2px;}#ga7176d92-b87a-4719-ae8a-936a261727b8-light .icon-shape .label rect,#ga7176d92-b87a-4719-ae8a-936a261727b8-light .image-shape .label rect{opacity:0.5;background-color:rgba(232,232,232, 0.8);fill:rgba(232,232,232, 0.8);}#ga7176d92-b87a-4719-ae8a-936a261727b8-light .label-icon{display:inline-block;height:1em;overflow:visible;vertical-align:-0.125em;}#ga7176d92-b87a-4719-ae8a-936a261727b8-light .node .label-icon path{fill:currentColor;stroke:revert;stroke-width:revert;}#ga7176d92-b87a-4719-ae8a-936a261727b8-light .node .neo-node{stroke:#9370DB;}#ga7176d92-b87a-4719-ae8a-936a261727b8-light [data-look="neo"].node rect,#ga7176d92-b87a-4719-ae8a-936a261727b8-light [data-look="neo"].cluster rect,#ga7176d92-b87a-4719-ae8a-936a261727b8-light [data-look="neo"].node polygon{stroke:#9370DB;filter:drop-shadow(1px 2px 2px rgba(185, 185, 185, 1));}#ga7176d92-b87a-4719-ae8a-936a261727b8-light [data-look="neo"].node path{stroke:#9370DB;stroke-width:1px;}#ga7176d92-b87a-4719-ae8a-936a261727b8-light [data-look="neo"].node .outer-path{filter:drop-shadow(1px 2px 2px rgba(185, 185, 185, 1));}#ga7176d92-b87a-4719-ae8a-936a261727b8-light [data-look="neo"].node .neo-line path{stroke:#9370DB;filter:none;}#ga7176d92-b87a-4719-ae8a-936a261727b8-light [data-look="neo"].node circle{stroke:#9370DB;filter:drop-shadow(1px 2px 2px rgba(185, 185, 185, 1));}#ga7176d92-b87a-4719-ae8a-936a261727b8-light [data-look="neo"].node circle .state-start{fill:#000000;}#ga7176d92-b87a-4719-ae8a-936a261727b8-light [data-look="neo"].icon-shape .icon{fill:#9370DB;filter:drop-shadow(1px 2px 2px rgba(185, 185, 185, 1));}#ga7176d92-b87a-4719-ae8a-936a261727b8-light [data-look="neo"].icon-shape .icon-neo path{stroke:#9370DB;filter:drop-shadow(1px 2px 2px rgba(185, 185, 185, 1));}#ga7176d92-b87a-4719-ae8a-936a261727b8-light :root{--mermaid-font-family:"trebuchet ms",verdana,arial,sans-serif;}</style><g><marker id="ga7176d92-b87a-4719-ae8a-936a261727b8-light_flowchart-v2-pointEnd" class="marker flowchart-v2" viewBox="0 0 10 10" refX="5" refY="5" markerUnits="userSpaceOnUse" markerWidth="8" markerHeight="8" orient="auto"><path d="M 0 0 L 10 5 L 0 10 z" class="arrowMarkerPath" style="stroke-width: 1; stroke-dasharray: 1, 0;"></path></marker><marker id="ga7176d92-b87a-4719-ae8a-936a261727b8-light_flowchart-v2-pointStart" class="marker flowchart-v2" viewBox="0 0 10 10" refX="4.5" refY="5" markerUnits="userSpaceOnUse" markerWidth="8" markerHeight="8" orient="auto"><path d="M 0 5 L 10 10 L 10 0 z" class="arrowMarkerPath" style="stroke-width: 1; stroke-dasharray: 1, 0;"></path></marker><marker id="ga7176d92-b87a-4719-ae8a-936a261727b8-light_flowchart-v2-pointEnd-margin" class="marker flowchart-v2" viewBox="0 0 11.5 14" refX="11.5" refY="7" markerUnits="userSpaceOnUse" markerWidth="10.5" markerHeight="14" orient="auto"><path d="M 0 0 L 11.5 7 L 0 14 z" class="arrowMarkerPath" style="stroke-width: 0; stroke-dasharray: 1, 0;"></path></marker><marker id="ga7176d92-b87a-4719-ae8a-936a261727b8-light_flowchart-v2-pointStart-margin" class="marker flowchart-v2" viewBox="0 0 11.5 14" refX="1" refY="7" markerUnits="userSpaceOnUse" markerWidth="11.5" markerHeight="14" orient="auto"><polygon points="0,7 11.5,14 11.5,0" class="arrowMarkerPath" style="stroke-width: 0; stroke-dasharray: 1, 0;"></polygon></marker><marker id="ga7176d92-b87a-4719-ae8a-936a261727b8-light_flowchart-v2-circleEnd" class="marker flowchart-v2" viewBox="0 0 10 10" refX="11" refY="5" markerUnits="userSpaceOnUse" markerWidth="11" markerHeight="11" orient="auto"><circle cx="5" cy="5" r="5" class="arrowMarkerPath" style="stroke-width: 1; stroke-dasharray: 1, 0;"></circle></marker><marker id="ga7176d92-b87a-4719-ae8a-936a261727b8-light_flowchart-v2-circleStart" class="marker flowchart-v2" viewBox="0 0 10 10" refX="-1" refY="5" markerUnits="userSpaceOnUse" markerWidth="11" markerHeight="11" orient="auto"><circle cx="5" cy="5" r="5" class="arrowMarkerPath" style="stroke-width: 1; stroke-dasharray: 1, 0;"></circle></marker><marker id="ga7176d92-b87a-4719-ae8a-936a261727b8-light_flowchart-v2-circleEnd-margin" class="marker flowchart-v2" viewBox="0 0 10 10" refY="5" refX="12.25" markerUnits="userSpaceOnUse" markerWidth="14" markerHeight="14" orient="auto"><circle cx="5" cy="5" r="5" class="arrowMarkerPath" style="stroke-width: 0; stroke-dasharray: 1, 0;"></circle></marker><marker id="ga7176d92-b87a-4719-ae8a-936a261727b8-light_flowchart-v2-circleStart-margin" class="marker flowchart-v2" viewBox="0 0 10 10" refX="-2" refY="5" markerUnits="userSpaceOnUse" markerWidth="14" markerHeight="14" orient="auto"><circle cx="5" cy="5" r="5" class="arrowMarkerPath" style="stroke-width: 0; stroke-dasharray: 1, 0;"></circle></marker><marker id="ga7176d92-b87a-4719-ae8a-936a261727b8-light_flowchart-v2-crossEnd" class="marker cross flowchart-v2" viewBox="0 0 11 11" refX="12" refY="5.2" markerUnits="userSpaceOnUse" markerWidth="11" markerHeight="11" orient="auto"><path d="M 1,1 l 9,9 M 10,1 l -9,9" class="arrowMarkerPath" style="stroke-width: 2; stroke-dasharray: 1, 0;"></path></marker><marker id="ga7176d92-b87a-4719-ae8a-936a261727b8-light_flowchart-v2-crossStart" class="marker cross flowchart-v2" viewBox="0 0 11 11" refX="-1" refY="5.2" markerUnits="userSpaceOnUse" markerWidth="11" markerHeight="11" orient="auto"><path d="M 1,1 l 9,9 M 10,1 l -9,9" class="arrowMarkerPath" style="stroke-width: 2; stroke-dasharray: 1, 0;"></path></marker><marker id="ga7176d92-b87a-4719-ae8a-936a261727b8-light_flowchart-v2-crossEnd-margin" class="marker cross flowchart-v2" viewBox="0 0 15 15" refX="17.7" refY="7.5" markerUnits="userSpaceOnUse" markerWidth="12" markerHeight="12" orient="auto"><path d="M 1,1 L 14,14 M 1,14 L 14,1" class="arrowMarkerPath" style="stroke-width: 2.5;"></path></marker><marker id="ga7176d92-b87a-4719-ae8a-936a261727b8-light_flowchart-v2-crossStart-margin" class="marker cross flowchart-v2" viewBox="0 0 15 15" refX="-3.5" refY="7.5" markerUnits="userSpaceOnUse" markerWidth="12" markerHeight="12" orient="auto"><path d="M 1,1 L 14,14 M 1,14 L 14,1" class="arrowMarkerPath" style="stroke-width: 2.5; stroke-dasharray: 1, 0;"></path></marker><g class="root"><g class="clusters"></g><g class="edgePaths"><path d="M280.942,42.5L280.859,46.583C280.776,50.667,280.609,58.833,280.526,66.417C280.442,74,280.442,81,280.442,84.5L280.442,88" id="ga7176d92-b87a-4719-ae8a-936a261727b8-light-L_start_docsQ_0" class="edge-thickness-normal edge-pattern-solid edge-thickness-normal edge-pattern-solid flowchart-link" style=";" data-edge="true" data-et="edge" data-id="L_start_docsQ_0" data-points="W3sieCI6MjgwLjk0MjE4NDQ0ODI0MjIsInkiOjQyLjV9LHsieCI6MjgwLjQ0MjE4NDQ0ODI0MjIsInkiOjY3fSx7IngiOjI4MC40NDIxODQ0NDgyNDIyLCJ5Ijo5MS45OTk5OTk5OTk5OTk5N31d" data-look="classic" marker-end="url(#ga7176d92-b87a-4719-ae8a-936a261727b8-light_flowchart-v2-pointEnd)"></path><path d="M216.2,298.058L200.989,314.849C185.777,331.639,155.353,365.219,140.141,402.959C124.93,440.698,124.93,482.597,124.93,503.546L124.93,524.495" id="ga7176d92-b87a-4719-ae8a-936a261727b8-light-L_docsQ_docs_0" class="edge-thickness-normal edge-pattern-solid edge-thickness-normal edge-pattern-solid flowchart-link" style=";" data-edge="true" data-et="edge" data-id="L_docsQ_docs_0" data-points="W3sieCI6MjE2LjIwMDM2Mjc0MTI1MTMsInkiOjI5OC4wNTgxOTY2MDM1NTZ9LHsieCI6MTI0LjkyOTY4NzUsInkiOjM5OC44MDAwMTgzMTA1NDY5fSx7IngiOjEyNC45Mjk2ODc1LCJ5Ijo1MjguNDk1MzIzMTgxMTUyM31d" data-look="classic" marker-end="url(#ga7176d92-b87a-4719-ae8a-936a261727b8-light_flowchart-v2-pointEnd)"></path><path d="M344.684,298.058L359.896,314.849C375.108,331.639,405.531,365.219,420.743,387.426C435.955,409.633,435.955,420.467,435.955,425.883L435.955,431.3" id="ga7176d92-b87a-4719-ae8a-936a261727b8-light-L_docsQ_hostQ_0" class="edge-thickness-normal edge-pattern-solid edge-thickness-normal edge-pattern-solid flowchart-link" style=";" data-edge="true" data-et="edge" data-id="L_docsQ_hostQ_0" data-points="W3sieCI6MzQ0LjY4NDAwNjE1NTIzMzEsInkiOjI5OC4wNTgxOTY2MDM1NTZ9LHsieCI6NDM1Ljk1NDY4MTM5NjQ4NDQsInkiOjM5OC44MDAwMTgzMTA1NDY5fSx7IngiOjQzNS45NTQ2ODEzOTY0ODQzLCJ5Ijo0MzUuMzAwMDE4MzEwNTQ2OH1d" data-look="classic" marker-end="url(#ga7176d92-b87a-4719-ae8a-936a261727b8-light_flowchart-v2-pointEnd)"></path><path d="M495.501,663.944L506.776,679.952C518.05,695.959,540.598,727.975,551.872,749.4C563.146,770.824,563.146,781.657,563.146,787.074L563.146,792.491" id="ga7176d92-b87a-4719-ae8a-936a261727b8-light-L_hostQ_core_0" class="edge-thickness-normal edge-pattern-solid edge-thickness-normal edge-pattern-solid flowchart-link" style=";" data-edge="true" data-et="edge" data-id="L_hostQ_core_0" data-points="W3sieCI6NDk1LjUwMTM4NjYzNTk3OTc3LCJ5Ijo2NjMuOTQzOTI1ODY0MDIwMn0seyJ4Ijo1NjMuMTQ2MDg3NjQ2NDg0NCwieSI6NzU5Ljk5MDYzMTEwMzUxNTZ9LHsieCI6NTYzLjE0NjA4NzY0NjQ4NDQsInkiOjc5Ni40OTA2MzExMDM1MTU2fV0=" data-look="classic" marker-end="url(#ga7176d92-b87a-4719-ae8a-936a261727b8-light_flowchart-v2-pointEnd)"></path><path d="M366.894,654.43L350.701,672.023C334.508,689.617,302.122,724.804,285.929,758.43C269.736,792.057,269.736,824.124,269.736,856.191C269.736,888.257,269.736,920.324,269.736,964.248C269.736,1008.173,269.736,1063.955,269.736,1119.738C269.736,1175.52,269.736,1231.302,270.597,1264.618C271.458,1297.934,273.18,1308.784,274.041,1314.209L274.902,1319.634" id="ga7176d92-b87a-4719-ae8a-936a261727b8-light-L_hostQ_site_0" class="edge-thickness-normal edge-pattern-solid edge-thickness-normal edge-pattern-solid flowchart-link" style=";" data-edge="true" data-et="edge" data-id="L_hostQ_site_0" data-points="W3sieCI6MzY2Ljg5MzYzNDc5NzE4MjIsInkiOjY1NC40Mjk1ODQ1MDQyMTM0fSx7IngiOjI2OS43MzU5MzEzOTY0ODQ0LCJ5Ijo3NTkuOTkwNjMxMTAzNTE1Nn0seyJ4IjoyNjkuNzM1OTMxMzk2NDg0NCwieSI6ODU2LjE5MDYzMTg2NjQ1NTF9LHsieCI6MjY5LjczNTkzMTM5NjQ4NDQsInkiOjk1Mi4zOTA2MzI2MjkzOTQ1fSx7IngiOjI2OS43MzU5MzEzOTY0ODQ0LCJ5IjoxMTE5LjczNzUxMDY4MTE1MjN9LHsieCI6MjY5LjczNTkzMTM5NjQ4NDQsInkiOjEyODcuMDg0Mzg4NzMyOTEwMn0seyJ4IjoyNzUuNTI4Njc2OTMyMTk4NjYsInkiOjEzMjMuNTg0Mzg4NzMyOTEwMn1d" data-look="classic" marker-end="url(#ga7176d92-b87a-4719-ae8a-936a261727b8-light_flowchart-v2-pointEnd)"></path><path d="M563.146,915.891L563.146,921.974C563.146,928.057,563.146,940.224,563.146,951.724C563.146,963.224,563.146,974.057,563.146,979.474L563.146,984.891" id="ga7176d92-b87a-4719-ae8a-936a261727b8-light-L_core_siteQ_0" class="edge-thickness-normal edge-pattern-solid edge-thickness-normal edge-pattern-solid flowchart-link" style=";" data-edge="true" data-et="edge" data-id="L_core_siteQ_0" data-points="W3sieCI6NTYzLjE0NjA4NzY0NjQ4NDQsInkiOjkxNS44OTA2MzI2MjkzOTQ1fSx7IngiOjU2My4xNDYwODc2NDY0ODQ0LCJ5Ijo5NTIuMzkwNjMyNjI5Mzk0NX0seyJ4Ijo1NjMuMTQ2MDg3NjQ2NDg0NCwieSI6OTg4Ljg5MDYzMjYyOTM5NDR9XQ==" data-look="classic" marker-end="url(#ga7176d92-b87a-4719-ae8a-936a261727b8-light_flowchart-v2-pointEnd)"></path><path d="M501.396,1188.834L486.762,1205.209C472.128,1221.584,442.86,1254.334,421.371,1276.368C399.882,1298.402,386.172,1309.72,379.317,1315.379L372.462,1321.038" id="ga7176d92-b87a-4719-ae8a-936a261727b8-light-L_siteQ_site_0" class="edge-thickness-normal edge-pattern-solid edge-thickness-normal edge-pattern-solid flowchart-link" style=";" data-edge="true" data-et="edge" data-id="L_siteQ_site_0" data-points="W3sieCI6NTAxLjM5NTc5NjQzNzU3MiwieSI6MTE4OC44MzQwOTc1MjM5OTh9LHsieCI6NDEzLjU5MTQwMDE0NjQ4NDQsInkiOjEyODcuMDg0Mzg4NzMyOTEwMn0seyJ4IjozNjkuMzc3MjQ0NjQwNTMyLCJ5IjoxMzIzLjU4NDM4ODczMjkxMDJ9XQ==" data-look="classic" marker-end="url(#ga7176d92-b87a-4719-ae8a-936a261727b8-light_flowchart-v2-pointEnd)"></path><path d="M578.57,1235.16L579.727,1243.814C580.883,1252.468,583.196,1269.776,584.353,1291.18C585.509,1312.584,585.509,1338.084,585.509,1350.834L585.509,1363.584" id="ga7176d92-b87a-4719-ae8a-936a261727b8-light-L_siteQ_coreOnly_0" class="edge-thickness-normal edge-pattern-solid edge-thickness-normal edge-pattern-solid flowchart-link" style=";" data-edge="true" data-et="edge" data-id="L_siteQ_coreOnly_0" data-points="W3sieCI6NTc4LjU3MDQ4ODQ1NTIwMTcsInkiOjEyMzUuMTU5OTg3OTI0MTkzfSx7IngiOjU4NS41MDkzNjg4OTY0ODQ0LCJ5IjoxMjg3LjA4NDM4ODczMjkxMDJ9LHsieCI6NTg1LjUwOTM2ODg5NjQ4NDQsInkiOjEzNjcuNTg0Mzg4NzMyOTEwMn1d" data-look="classic" marker-end="url(#ga7176d92-b87a-4719-ae8a-936a261727b8-light_flowchart-v2-pointEnd)"></path></g><g class="edgeLabels"><g class="edgeLabel"><g class="label" data-id="L_start_docsQ_0" transform="translate(0, 0)"><text y="-10.1" text-anchor="middle"><tspan class="text-outer-tspan row" x="0" y="-0.1em" dy="1.1em" text-anchor="middle"></tspan></text></g></g><g><rect class="background" style="stroke: none"></rect></g><g class="edgeLabel" transform="translate(124.9296875, 398.8000183105469)"><g class="label" data-id="L_docsQ_docs_0" transform="translate(0, -10.5)"><g><rect class="background" style="" x="-13.328125" y="-1" width="26.65625" height="23"></rect><text y="-10.1" text-anchor="middle" style=""><tspan class="text-outer-tspan row" x="0" y="-0.1em" dy="1.1em" text-anchor="middle"><tspan font-style="normal" class="text-inner-tspan" font-weight="normal">Yes</tspan></tspan></text></g></g></g><g class="edgeLabel" transform="translate(435.9546813964844, 398.8000183105469)"><g class="label" data-id="L_docsQ_hostQ_0" transform="translate(0, -10.5)"><g><rect class="background" style="" x="-11.3984375" y="-1" width="22.796875" height="23"></rect><text y="-10.1" text-anchor="middle" style=""><tspan class="text-outer-tspan row" x="0" y="-0.1em" dy="1.1em" text-anchor="middle"><tspan font-style="normal" class="text-inner-tspan" font-weight="normal">No</tspan></tspan></text></g></g></g><g class="edgeLabel" transform="translate(563.1460876464844, 759.9906311035156)"><g class="label" data-id="L_hostQ_core_0" transform="translate(0, -10.5)"><g><rect class="background" style="" x="-13.328125" y="-1" width="26.65625" height="23"></rect><text y="-10.1" text-anchor="middle" style=""><tspan class="text-outer-tspan row" x="0" y="-0.1em" dy="1.1em" text-anchor="middle"><tspan font-style="normal" class="text-inner-tspan" font-weight="normal">Yes</tspan></tspan></text></g></g></g><g class="edgeLabel" transform="translate(269.7359313964844, 952.3906326293945)"><g class="label" data-id="L_hostQ_site_0" transform="translate(0, -10.5)"><g><rect class="background" style="" x="-11.3984375" y="-1" width="22.796875" height="23"></rect><text y="-10.1" text-anchor="middle" style=""><tspan class="text-outer-tspan row" x="0" y="-0.1em" dy="1.1em" text-anchor="middle"><tspan font-style="normal" class="text-inner-tspan" font-weight="normal">No</tspan></tspan></text></g></g></g><g class="edgeLabel"><g class="label" data-id="L_core_siteQ_0" transform="translate(0, 0)"><text y="-10.1" text-anchor="middle"><tspan class="text-outer-tspan row" x="0" y="-0.1em" dy="1.1em" text-anchor="middle"></tspan></text></g></g><g><rect class="background" style="stroke: none"></rect></g><g class="edgeLabel" transform="translate(438.39126, 1259.33414)"><g class="label" data-id="L_siteQ_site_0" transform="translate(0, -10.5)"><g><rect class="background" style="" x="-13.328125" y="-1" width="26.65625" height="23"></rect><text y="-10.1" text-anchor="middle" style=""><tspan class="text-outer-tspan row" x="0" y="-0.1em" dy="1.1em" text-anchor="middle"><tspan font-style="normal" class="text-inner-tspan" font-weight="normal">Yes</tspan></tspan></text></g></g></g><g class="edgeLabel" transform="translate(585.5093688964844, 1287.0843887329102)"><g class="label" data-id="L_siteQ_coreOnly_0" transform="translate(0, -10.5)"><g><rect class="background" style="" x="-11.3984375" y="-1" width="22.796875" height="23"></rect><text y="-10.1" text-anchor="middle" style=""><tspan class="text-outer-tspan row" x="0" y="-0.1em" dy="1.1em" text-anchor="middle"><tspan font-style="normal" class="text-inner-tspan" font-weight="normal">No</tspan></tspan></text></g></g></g></g><g class="nodes"><g class="node default" id="ga7176d92-b87a-4719-ae8a-936a261727b8-light-flowchart-start-0" data-look="classic" transform="translate(280.4421844482422, 25)"><g class="basic label-container outer-path"><path d="M-30.875 -17 C-8.455266252004787 -17, 13.964467495990426 -17, 30.875 -17 C30.875 -17, 30.875 -17, 30.875 -17 C31.141038939189286 -16.991468649033582, 31.407077878378573 -16.98293729806716, 31.96419373967212 -16.965071676755716 C32.2829692176114 -16.934319789782517, 32.60174469555068 -16.903567902809318, 33.0489117486366 -16.860430234995185 C33.33026997502186 -16.81494241891885, 33.611628201407115 -16.769454602842515, 34.124696687923326 -16.686505668848113 C34.42101929430355 -16.618871967627545, 34.71734190068377 -16.55123826640698, 35.18712792646162 -16.4440126716635 C35.59558906707323 -16.322783549186255, 36.00405020768483 -16.20155442670901, 36.23183970640155 -16.133947699181366 C36.47893788578507 -16.0430132850177, 36.72603606516859 -15.952078870854033, 37.25453908294936 -15.757584874882369 C37.458105742938905 -15.667471953095413, 37.66167240292845 -15.577359031308458, 38.25102356499849 -15.316470754341125 C38.55077701797052 -15.16008956992687, 38.850530470942545 -15.003708385512613, 39.21719838406694 -14.812417970097622 C39.426702702276884 -14.68541522121472, 39.63620702048682 -14.55841247233182, 40.149093320579325 -14.247497783161291 C40.460334271823754 -14.030389568976807, 40.77157522306818 -13.81328135479232, 41.042879018350675 -13.624031571755262 C41.353387439092394 -13.376409369189838, 41.66389585983411 -13.128787166624416, 41.8948827202324 -12.944581292275288 C42.157332389628564 -12.706231446567424, 42.419782059024726 -12.467881600859558, 42.70160336025927 -12.21193895166137 C42.90239731594158 -12.004602706929038, 43.103191271623885 -11.797266462196706, 43.45972595028036 -11.42911513444239 C43.60636226203759 -11.256867778809832, 43.75299857379483 -11.084620423177276, 44.16613520195651 -10.59932663159847 C44.41997125832187 -10.259209441009345, 44.67380731468723 -9.919092250420217, 44.81792832814825 -9.725983222076888 C45.033951784441086 -9.394113182790846, 45.249975240733924 -9.062243143504805, 45.41242697109088 -8.812673661278927 C45.62403921564135 -8.43693469301623, 45.83565146019182 -8.061195724753533, 45.947188208341004 -7.863150934094199 C46.12742403321515 -7.488887387314173, 46.307659858089295 -7.114623840534145, 46.42001459126881 -6.881316833080699 C46.54865229737501 -6.563579211957535, 46.677290003481204 -6.24584159083437, 46.828963174845924 -5.871205925162238 C46.90155015475102 -5.652585506852759, 46.97413713465612 -5.433965088543279, 47.172353501623235 -4.836968972727556 C47.27747398334075 -4.436099016433712, 47.382594465058254 -4.035229060139867, 47.448774507091 -3.7828558772573464 C47.504318796678376 -3.497647689515947, 47.55986308626574 -3.2124395017745475, 47.65709031804565 -2.713198215567453 C47.68812618803661 -2.472490136643248, 47.71916205802758 -2.231782057719043, 47.796444920136366 -1.632391440430593 C47.82339451026232 -1.212629820901273, 47.85034410038828 -0.7928682013719526, 47.8662656754117 -0.5448768187181379 C47.8662656754117 -0.17437728953599513, 47.8662656754117 0.1961222396461476, 47.8662656754117 0.5448768187181336 C47.84807950785002 0.8281410581014986, 47.829893340288336 1.1114052974848636, 47.796444920136366 1.6323914404305815 C47.767002978498255 1.8607373258068014, 47.73756103686014 2.0890832111830213, 47.657090318045654 2.7131982155674415 C47.60226122866839 2.994734001387546, 47.547432139291125 3.2762697872076503, 47.448774507091 3.782855877257343 C47.383757306320796 4.030794642427212, 47.31874010555059 4.278733407597081, 47.172353501623235 4.836968972727545 C47.0892634934095 5.087222838872353, 47.00617348519575 5.33747670501716, 46.828963174845924 5.871205925162227 C46.74590406965053 6.076363520833403, 46.66284496445514 6.281521116504579, 46.42001459126881 6.881316833080694 C46.27478635144047 7.182886380470784, 46.12955811161213 7.484455927860873, 45.947188208341004 7.863150934094196 C45.74618813222021 8.220046922711424, 45.54518805609942 8.576942911328652, 45.41242697109089 8.812673661278923 C45.28459919561411 9.009051450975136, 45.15677142013734 9.205429240671348, 44.817928328148255 9.725983222076879 C44.662927629262995 9.93367003772897, 44.50792693037773 10.141356853381058, 44.16613520195651 10.599326631598467 C44.01213395955656 10.780225253840385, 43.85813271715661 10.961123876082302, 43.45972595028037 11.42911513444238 C43.25187231057171 11.643741082542759, 43.04401867086305 11.858367030643137, 42.70160336025927 12.211938951661365 C42.53886329902426 12.359735169408943, 42.37612323778924 12.507531387156519, 41.89488272023242 12.944581292275275 C41.56165418172277 13.210322184152893, 41.22842564321313 13.47606307603051, 41.042879018350675 13.62403157175526 C40.76032917895777 13.821126108330343, 40.477779339564854 14.018220644905426, 40.14909332057934 14.247497783161286 C39.79944338874385 14.459457626611036, 39.44979345690836 14.671417470060785, 39.21719838406695 14.81241797009762 C39.00952761999458 14.920759674694702, 38.8018568559222 15.029101379291786, 38.25102356499849 15.316470754341124 C37.85873393350695 15.49012573734397, 37.466444302015404 15.663780720346816, 37.254539082949364 15.757584874882367 C36.88035642346561 15.895287552478978, 36.50617376398184 16.03299023007559, 36.23183970640156 16.133947699181363 C35.91656229557716 16.227520379789144, 35.60128488475276 16.32109306039693, 35.18712792646164 16.444012671663497 C34.82306557481976 16.527107527696888, 34.45900322317788 16.61020238373028, 34.12469668792333 16.68650566884811 C33.78249148159417 16.741830752766397, 33.44028627526501 16.797155836684688, 33.04891174863661 16.86043023499518 C32.63709654316198 16.90015755258707, 32.225281337687356 16.939884870178965, 31.96419373967212 16.965071676755716 C31.62689875357257 16.975888070455067, 31.289603767473018 16.986704464154418, 30.875000000000004 17 C30.875000000000004 17, 30.875 17, 30.875 17 C13.556099741969884 17, -3.7628005160602314 17, -30.874999999999996 17 C-31.12487373715338 16.991987035599216, -31.37474747430676 16.98397407119843, -31.964193739672112 16.965071676755716 C-32.3647059870289 16.92643474193966, -32.765218234385685 16.8877978071236, -33.048911748636606 16.86043023499518 C-33.44432391920174 16.796503061725392, -33.83973608976688 16.7325758884556, -34.124696687923326 16.68650566884811 C-34.40512618160206 16.62249946688941, -34.68555567528078 16.558493264930704, -35.18712792646162 16.4440126716635 C-35.54074293656861 16.339061592826813, -35.894357946675605 16.23411051399012, -36.231839706401544 16.13394769918137 C-36.464185482562755 16.048442305773236, -36.696531258723965 15.962936912365098, -37.254539082949364 15.757584874882369 C-37.48306410647326 15.656423625922306, -37.71158912999716 15.555262376962244, -38.25102356499848 15.316470754341127 C-38.51676766464058 15.177832227775063, -38.78251176428268 15.039193701209, -39.21719838406693 14.812417970097624 C-39.40456861335422 14.69883303599398, -39.59193884264151 14.585248101890338, -40.14909332057932 14.247497783161299 C-40.47916454244786 14.017254387338706, -40.809235764316405 13.787010991516112, -41.04287901835067 13.624031571755264 C-41.36043847756583 13.370786353643286, -41.677997936781 13.117541135531308, -41.8948827202324 12.94458129227529 C-42.09337318008939 12.764317508402955, -42.29186363994637 12.584053724530621, -42.70160336025926 12.211938951661377 C-42.902849335330544 12.004135959798447, -43.10409531040183 11.796332967935514, -43.459725950280365 11.429115134442386 C-43.62625091395528 11.233505436570962, -43.792775877630206 11.03789573869954, -44.16613520195651 10.599326631598473 C-44.3545716588211 10.346838946314296, -44.543008115685694 10.09435126103012, -44.81792832814825 9.72598322207689 C-44.97557687183742 9.48379272440895, -45.13322541552658 9.24160222674101, -45.41242697109088 8.812673661278936 C-45.58079399159203 8.513720967369592, -45.749161012093175 8.21476827346025, -45.947188208341004 7.863150934094201 C-46.09083185293444 7.56487183261429, -46.23447549752788 7.266592731134378, -46.42001459126881 6.881316833080701 C-46.5504616658983 6.559110036723249, -46.68090874052779 6.236903240365796, -46.828963174845924 5.87120592516224 C-46.926497883726555 5.577446922059273, -47.02403259260718 5.283687918956305, -47.172353501623235 4.8369689727275516 C-47.232531648652305 4.607483616731788, -47.29270979568138 4.377998260736024, -47.448774507091 3.782855877257349 C-47.52175731372459 3.4081045901154883, -47.59474012035819 3.033353302973627, -47.65709031804565 2.713198215567455 C-47.702628523795774 2.360012884305327, -47.7481667295459 2.0068275530431987, -47.796444920136366 1.6323914404306026 C-47.82160133027703 1.2405600466009343, -47.8467577404177 0.8487286527712662, -47.8662656754117 0.54487681871814 C-47.8662656754117 0.316110918132241, -47.8662656754117 0.08734501754634211, -47.8662656754117 -0.5448768187181317 C-47.8433074184352 -0.9024702026984883, -47.82034916145871 -1.2600635866788448, -47.796444920136366 -1.6323914404305793 C-47.74387522240189 -2.04011163499821, -47.69130552466741 -2.4478318295658403, -47.657090318045654 -2.713198215567447 C-47.587454040670735 -3.070765782255223, -47.51781776329582 -3.4283333489429992, -47.448774507091 -3.782855877257341 C-47.38139005709214 -4.039821989708374, -47.31400560709328 -4.296788102159407, -47.172353501623235 -4.836968972727544 C-47.10354996431386 -5.0441942647484135, -47.03474642700449 -5.2514195567692825, -46.82896317484593 -5.871205925162218 C-46.70850330211175 -6.168744139748854, -46.588043429377564 -6.466282354335489, -46.42001459126881 -6.881316833080692 C-46.24178857727498 -7.251406964564679, -46.06356256328115 -7.621497096048666, -45.947188208341004 -7.863150934094194 C-45.766813059164846 -8.183425276420905, -45.58643790998868 -8.503699618747616, -45.41242697109088 -8.812673661278929 C-45.202401672203514 -9.135328920059381, -44.99237637331614 -9.457984178839833, -44.81792832814825 -9.725983222076884 C-44.630856338876285 -9.97664264509249, -44.44378434960433 -10.227302068108095, -44.16613520195651 -10.599326631598467 C-44.00749095724892 -10.785679188545254, -43.84884671254133 -10.97203174549204, -43.45972595028037 -11.42911513444238 C-43.17488723281165 -11.723234495922455, -42.890048515342926 -12.01735385740253, -42.70160336025928 -12.21193895166136 C-42.45335125842597 -12.437394942155692, -42.20509915659267 -12.662850932650025, -41.89488272023242 -12.944581292275274 C-41.70267775504256 -13.097859637225257, -41.51047278985269 -13.251137982175239, -41.042879018350675 -13.624031571755259 C-40.783129814641036 -13.8052213719013, -40.523380610931405 -13.986411172047342, -40.14909332057934 -14.247497783161284 C-39.88824860867897 -14.405623380408963, -39.6274038967786 -14.563748977656644, -39.21719838406695 -14.812417970097618 C-38.97936579055407 -14.93649508179424, -38.74153319704119 -15.06057219349086, -38.25102356499849 -15.316470754341124 C-37.857100494938024 -15.490848812144199, -37.46317742487756 -15.665226869947274, -37.25453908294937 -15.757584874882365 C-36.893701848300935 -15.890376312775823, -36.53286461365249 -16.02316775066928, -36.231839706401566 -16.133947699181363 C-35.917304141538125 -16.22730020380196, -35.602768576674684 -16.320652708422557, -35.18712792646164 -16.444012671663494 C-34.79193769863169 -16.534212262308436, -34.39674747080174 -16.624411852953383, -34.12469668792333 -16.68650566884811 C-33.837219837688956 -16.732982696577736, -33.54974298745457 -16.779459724307358, -33.04891174863661 -16.86043023499518 C-32.81203991707614 -16.883280975705762, -32.57516808551567 -16.906131716416347, -31.96419373967212 -16.965071676755716 C-31.60651788140446 -16.976541645356537, -31.248842023136802 -16.988011613957358, -30.875000000000004 -17 C-30.875000000000004 -17, -30.875000000000004 -17, -30.875 -17" stroke="none" stroke-width="0" fill="#ECECFF" style=""></path><path d="M-30.875 -17 C-6.629435493506211 -17, 17.616129012987578 -17, 30.875 -17 M-30.875 -17 C-11.521059498965307 -17, 7.832881002069385 -17, 30.875 -17 M30.875 -17 C30.875 -17, 30.875 -17, 30.875 -17 M30.875 -17 C30.875 -17, 30.875 -17, 30.875 -17 M30.875 -17 C31.250785212567898 -16.987949299654492, 31.626570425135796 -16.97589859930898, 31.96419373967212 -16.965071676755716 M30.875 -17 C31.20497544915935 -16.98941832960371, 31.5349508983187 -16.978836659207417, 31.96419373967212 -16.965071676755716 M31.96419373967212 -16.965071676755716 C32.362952758708445 -16.926603873767167, 32.76171177774478 -16.888136070778618, 33.0489117486366 -16.860430234995185 M31.96419373967212 -16.965071676755716 C32.249116766276536 -16.937585495049262, 32.53403979288096 -16.91009931334281, 33.0489117486366 -16.860430234995185 M33.0489117486366 -16.860430234995185 C33.392626131056005 -16.804861159190462, 33.73634051347541 -16.74929208338574, 34.124696687923326 -16.686505668848113 M33.0489117486366 -16.860430234995185 C33.40508621143794 -16.802846710023676, 33.76126067423928 -16.74526318505217, 34.124696687923326 -16.686505668848113 M34.124696687923326 -16.686505668848113 C34.54142226039211 -16.591390776320612, 34.958147832860895 -16.496275883793114, 35.18712792646162 -16.4440126716635 M34.124696687923326 -16.686505668848113 C34.46922460219882 -16.60786942066948, 34.81375251647432 -16.52923317249085, 35.18712792646162 -16.4440126716635 M35.18712792646162 -16.4440126716635 C35.48480768802206 -16.355662880985317, 35.7824874495825 -16.267313090307134, 36.23183970640155 -16.133947699181366 M35.18712792646162 -16.4440126716635 C35.48438589755914 -16.355788066180686, 35.781643868656666 -16.267563460697875, 36.23183970640155 -16.133947699181366 M36.23183970640155 -16.133947699181366 C36.56902337653366 -16.009860991681073, 36.90620704666576 -15.885774284180778, 37.25453908294936 -15.757584874882369 M36.23183970640155 -16.133947699181366 C36.62766108404054 -15.988281773277512, 37.02348246167953 -15.84261584737366, 37.25453908294936 -15.757584874882369 M37.25453908294936 -15.757584874882369 C37.529881505931556 -15.635698951970927, 37.805223928913755 -15.513813029059486, 38.25102356499849 -15.316470754341125 M37.25453908294936 -15.757584874882369 C37.580443134135535 -15.613316819022435, 37.90634718532172 -15.469048763162503, 38.25102356499849 -15.316470754341125 M38.25102356499849 -15.316470754341125 C38.590896914090045 -15.139159045819332, 38.9307702631816 -14.961847337297536, 39.21719838406694 -14.812417970097622 M38.25102356499849 -15.316470754341125 C38.51078370884497 -15.180954053680729, 38.770543852691446 -15.045437353020334, 39.21719838406694 -14.812417970097622 M39.21719838406694 -14.812417970097622 C39.50653290063671 -14.637021685834677, 39.79586741720647 -14.461625401571732, 40.149093320579325 -14.247497783161291 M39.21719838406694 -14.812417970097622 C39.57373729099229 -14.596281989464288, 39.930276197917635 -14.380146008830954, 40.149093320579325 -14.247497783161291 M40.149093320579325 -14.247497783161291 C40.442324123430886 -14.042952668848912, 40.73555492628245 -13.838407554536532, 41.042879018350675 -13.624031571755262 M40.149093320579325 -14.247497783161291 C40.37022053474593 -14.093249011001486, 40.59134774891255 -13.93900023884168, 41.042879018350675 -13.624031571755262 M41.042879018350675 -13.624031571755262 C41.33790171252472 -13.388758824035072, 41.63292440669876 -13.15348607631488, 41.8948827202324 -12.944581292275288 M41.042879018350675 -13.624031571755262 C41.30603347355714 -13.414172896562256, 41.56918792876361 -13.20431422136925, 41.8948827202324 -12.944581292275288 M41.8948827202324 -12.944581292275288 C42.195983081457456 -12.671129910889691, 42.49708344268251 -12.397678529504095, 42.70160336025927 -12.21193895166137 M41.8948827202324 -12.944581292275288 C42.15749953533309 -12.70607964926101, 42.42011635043377 -12.467578006246733, 42.70160336025927 -12.21193895166137 M42.70160336025927 -12.21193895166137 C42.95729721028243 -11.947914058656961, 43.212991060305576 -11.683889165652554, 43.45972595028036 -11.42911513444239 M42.70160336025927 -12.21193895166137 C42.897232702964544 -12.009935593850434, 43.09286204566982 -11.807932236039498, 43.45972595028036 -11.42911513444239 M43.45972595028036 -11.42911513444239 C43.70502714074847 -11.140970398085399, 43.950328331216575 -10.852825661728406, 44.16613520195651 -10.59932663159847 M43.45972595028036 -11.42911513444239 C43.65826473806994 -11.19590017712769, 43.85680352585952 -10.962685219812991, 44.16613520195651 -10.59932663159847 M44.16613520195651 -10.59932663159847 C44.303003326115295 -10.415935814168318, 44.43987145027408 -10.232544996738163, 44.81792832814825 -9.725983222076888 M44.16613520195651 -10.59932663159847 C44.3408848832611 -10.365177978673788, 44.515634564565694 -10.131029325749108, 44.81792832814825 -9.725983222076888 M44.81792832814825 -9.725983222076888 C45.053382162586665 -9.364262904172149, 45.288835997025075 -9.002542586267412, 45.41242697109088 -8.812673661278927 M44.81792832814825 -9.725983222076888 C45.009593609259355 -9.431533880955858, 45.20125889037047 -9.137084539834829, 45.41242697109088 -8.812673661278927 M45.41242697109088 -8.812673661278927 C45.58357505292858 -8.508782911353542, 45.75472313476628 -8.204892161428159, 45.947188208341004 -7.863150934094199 M45.41242697109088 -8.812673661278927 C45.602454273068695 -8.475260944266429, 45.79248157504651 -8.13784822725393, 45.947188208341004 -7.863150934094199 M45.947188208341004 -7.863150934094199 C46.05940913567217 -7.630121777347837, 46.17163006300334 -7.397092620601474, 46.42001459126881 -6.881316833080699 M45.947188208341004 -7.863150934094199 C46.04699976485311 -7.655890101371619, 46.14681132136522 -7.4486292686490385, 46.42001459126881 -6.881316833080699 M46.42001459126881 -6.881316833080699 C46.50939135135649 -6.660554507682019, 46.59876811144417 -6.43979218228334, 46.828963174845924 -5.871205925162238 M46.42001459126881 -6.881316833080699 C46.527202389610714 -6.616560898841102, 46.63439018795261 -6.351804964601504, 46.828963174845924 -5.871205925162238 M46.828963174845924 -5.871205925162238 C46.9158495927732 -5.609517877836014, 47.00273601070047 -5.34782983050979, 47.172353501623235 -4.836968972727556 M46.828963174845924 -5.871205925162238 C46.9615584849418 -5.471849977347139, 47.09415379503768 -5.072494029532041, 47.172353501623235 -4.836968972727556 M47.172353501623235 -4.836968972727556 C47.24800374770868 -4.5484817973797025, 47.323653993794125 -4.259994622031849, 47.448774507091 -3.7828558772573464 M47.172353501623235 -4.836968972727556 C47.28286390603757 -4.415544905183448, 47.393374310451904 -3.9941208376393407, 47.448774507091 -3.7828558772573464 M47.448774507091 -3.7828558772573464 C47.525637622941005 -3.388180022392842, 47.602500738791015 -2.9935041675283376, 47.65709031804565 -2.713198215567453 M47.448774507091 -3.7828558772573464 C47.510038238056055 -3.468279566845902, 47.571301969021114 -3.153703256434458, 47.65709031804565 -2.713198215567453 M47.65709031804565 -2.713198215567453 C47.70537142135941 -2.3387395124481514, 47.75365252467317 -1.9642808093288495, 47.796444920136366 -1.632391440430593 M47.65709031804565 -2.713198215567453 C47.69069752713411 -2.4525473383714, 47.72430473622258 -2.191896461175346, 47.796444920136366 -1.632391440430593 M47.796444920136366 -1.632391440430593 C47.82369424860175 -1.2079611543202273, 47.850943577067135 -0.7835308682098616, 47.8662656754117 -0.5448768187181379 M47.796444920136366 -1.632391440430593 C47.81485762733995 -1.3455986632651318, 47.83327033454352 -1.0588058860996705, 47.8662656754117 -0.5448768187181379 M47.8662656754117 -0.5448768187181379 C47.8662656754117 -0.20293280115271373, 47.8662656754117 0.13901121641271041, 47.8662656754117 0.5448768187181336 M47.8662656754117 -0.5448768187181379 C47.8662656754117 -0.1673407633819945, 47.8662656754117 0.21019529195414888, 47.8662656754117 0.5448768187181336 M47.8662656754117 0.5448768187181336 C47.849478449230084 0.8063514169018147, 47.83269122304847 1.0678260150854957, 47.796444920136366 1.6323914404305815 M47.8662656754117 0.5448768187181336 C47.83952219762696 0.9614280721620715, 47.81277871984223 1.3779793256060093, 47.796444920136366 1.6323914404305815 M47.796444920136366 1.6323914404305815 C47.74775717242729 2.0100039971789014, 47.699069424718225 2.387616553927221, 47.657090318045654 2.7131982155674415 M47.796444920136366 1.6323914404305815 C47.75117711462898 1.9834796008066227, 47.70590930912159 2.334567761182664, 47.657090318045654 2.7131982155674415 M47.657090318045654 2.7131982155674415 C47.60263175095152 2.9928314477735887, 47.54817318385739 3.2724646799797363, 47.448774507091 3.782855877257343 M47.657090318045654 2.7131982155674415 C47.610921934404516 2.950263107873332, 47.564753550763385 3.187328000179223, 47.448774507091 3.782855877257343 M47.448774507091 3.782855877257343 C47.35743327044393 4.1311796001350265, 47.26609203379685 4.479503323012709, 47.172353501623235 4.836968972727545 M47.448774507091 3.782855877257343 C47.39331307496877 3.9943543550761293, 47.33785164284655 4.205852832894916, 47.172353501623235 4.836968972727545 M47.172353501623235 4.836968972727545 C47.073540443525424 5.134578159995383, 46.97472738542761 5.432187347263221, 46.828963174845924 5.871205925162227 M47.172353501623235 4.836968972727545 C47.098027689421805 5.060826476868275, 47.023701877220375 5.284683981009005, 46.828963174845924 5.871205925162227 M46.828963174845924 5.871205925162227 C46.73112100058803 6.112877987228974, 46.63327882633014 6.354550049295722, 46.42001459126881 6.881316833080694 M46.828963174845924 5.871205925162227 C46.67218248738054 6.258457254350118, 46.51540179991515 6.64570858353801, 46.42001459126881 6.881316833080694 M46.42001459126881 6.881316833080694 C46.31619008537354 7.09691064106077, 46.21236557947827 7.312504449040847, 45.947188208341004 7.863150934094196 M46.42001459126881 6.881316833080694 C46.3159681035068 7.097371591156718, 46.211921615744785 7.313426349232742, 45.947188208341004 7.863150934094196 M45.947188208341004 7.863150934094196 C45.83230955882335 8.067129609037465, 45.7174309093057 8.271108283980734, 45.41242697109089 8.812673661278923 M45.947188208341004 7.863150934094196 C45.787045927516544 8.147499769862378, 45.626903646692085 8.43184860563056, 45.41242697109089 8.812673661278923 M45.41242697109089 8.812673661278923 C45.27777222809239 9.019539506385968, 45.143117485093896 9.226405351493012, 44.817928328148255 9.725983222076879 M45.41242697109089 8.812673661278923 C45.28194871350679 9.013123303246083, 45.1514704559227 9.213572945213242, 44.817928328148255 9.725983222076879 M44.817928328148255 9.725983222076879 C44.662693724531735 9.93398344875969, 44.50745912091522 10.141983675442502, 44.16613520195651 10.599326631598467 M44.817928328148255 9.725983222076879 C44.598402993443926 10.02012717141126, 44.378877658739604 10.314271120745643, 44.16613520195651 10.599326631598467 M44.16613520195651 10.599326631598467 C43.90362165836225 10.90768997734808, 43.64110811476798 11.216053323097691, 43.45972595028037 11.42911513444238 M44.16613520195651 10.599326631598467 C43.96750511310662 10.832648836333789, 43.76887502425673 11.065971041069108, 43.45972595028037 11.42911513444238 M43.45972595028037 11.42911513444238 C43.21226637256291 11.684637465244831, 42.964806794845444 11.940159796047285, 42.70160336025927 12.211938951661365 M43.45972595028037 11.42911513444238 C43.283376833641434 11.611210075903825, 43.10702771700249 11.79330501736527, 42.70160336025927 12.211938951661365 M42.70160336025927 12.211938951661365 C42.401292928135476 12.48467294033758, 42.100982496011675 12.757406929013797, 41.89488272023242 12.944581292275275 M42.70160336025927 12.211938951661365 C42.5210631419928 12.375900801058565, 42.340522923726326 12.539862650455765, 41.89488272023242 12.944581292275275 M41.89488272023242 12.944581292275275 C41.67644742127208 13.118777630388717, 41.458012122311736 13.29297396850216, 41.042879018350675 13.62403157175526 M41.89488272023242 12.944581292275275 C41.66010425161252 13.131810873282204, 41.42532578299263 13.319040454289134, 41.042879018350675 13.62403157175526 M41.042879018350675 13.62403157175526 C40.81897997815504 13.7802138497625, 40.5950809379594 13.936396127769742, 40.14909332057934 14.247497783161286 M41.042879018350675 13.62403157175526 C40.7488965772096 13.829100996400511, 40.454914136068524 14.03417042104576, 40.14909332057934 14.247497783161286 M40.14909332057934 14.247497783161286 C39.88750344127425 14.4060751052688, 39.62591356196915 14.564652427376313, 39.21719838406695 14.81241797009762 M40.14909332057934 14.247497783161286 C39.82253453461129 14.445459638287556, 39.49597574864325 14.643421493413827, 39.21719838406695 14.81241797009762 M39.21719838406695 14.81241797009762 C38.96965108911776 14.941563235311, 38.722103794168575 15.070708500524377, 38.25102356499849 15.316470754341124 M39.21719838406695 14.81241797009762 C38.911496452428146 14.971902472022148, 38.60579452078935 15.131386973946675, 38.25102356499849 15.316470754341124 M38.25102356499849 15.316470754341124 C37.908379495312154 15.46814911981607, 37.565735425625824 15.619827485291015, 37.254539082949364 15.757584874882367 M38.25102356499849 15.316470754341124 C37.86794733708551 15.486047236885648, 37.48487110917252 15.65562371943017, 37.254539082949364 15.757584874882367 M37.254539082949364 15.757584874882367 C36.980265600150155 15.858520051908759, 36.705992117350945 15.95945522893515, 36.23183970640156 16.133947699181363 M37.254539082949364 15.757584874882367 C36.922473156721054 15.879788205318158, 36.59040723049274 16.00199153575395, 36.23183970640156 16.133947699181363 M36.23183970640156 16.133947699181363 C35.92209622676003 16.225877938062265, 35.6123527471185 16.31780817694317, 35.18712792646164 16.444012671663497 M36.23183970640156 16.133947699181363 C35.89226219360139 16.234732522501716, 35.55268468080123 16.335517345822065, 35.18712792646164 16.444012671663497 M35.18712792646164 16.444012671663497 C34.89395919040705 16.510926522563164, 34.60079045435246 16.577840373462834, 34.12469668792333 16.68650566884811 M35.18712792646164 16.444012671663497 C34.8714310393545 16.516068426030987, 34.555734152247354 16.588124180398477, 34.12469668792333 16.68650566884811 M34.12469668792333 16.68650566884811 C33.87415109385137 16.727011937487564, 33.62360549977941 16.76751820612702, 33.04891174863661 16.86043023499518 M34.12469668792333 16.68650566884811 C33.829379626350466 16.734250241145194, 33.5340625647776 16.781994813442278, 33.04891174863661 16.86043023499518 M33.04891174863661 16.86043023499518 C32.6752379225258 16.896478099591565, 32.301564096414985 16.93252596418795, 31.96419373967212 16.965071676755716 M33.04891174863661 16.86043023499518 C32.76398584088865 16.88791669464209, 32.47905993314068 16.915403154288995, 31.96419373967212 16.965071676755716 M31.96419373967212 16.965071676755716 C31.615837730259294 16.97624277594375, 31.26748172084647 16.98741387513178, 30.875000000000004 17 M31.96419373967212 16.965071676755716 C31.744465344576263 16.972117938711065, 31.52473694948041 16.979164200666414, 30.875000000000004 17 M30.875000000000004 17 C30.875000000000004 17, 30.875000000000004 17, 30.875 17 M30.875000000000004 17 C30.875000000000004 17, 30.875 17, 30.875 17 M30.875 17 C17.911981536865802 17, 4.948963073731605 17, -30.874999999999996 17 M30.875 17 C12.241596453782403 17, -6.391807092435194 17, -30.874999999999996 17 M-30.874999999999996 17 C-31.231077841365114 16.988581276690894, -31.58715568273023 16.977162553381785, -31.964193739672112 16.965071676755716 M-30.874999999999996 17 C-31.235911136679547 16.988426282317597, -31.5968222733591 16.976852564635195, -31.964193739672112 16.965071676755716 M-31.964193739672112 16.965071676755716 C-32.198221383521705 16.942495311412966, -32.4322490273713 16.91991894607022, -33.048911748636606 16.86043023499518 M-31.964193739672112 16.965071676755716 C-32.24553365029778 16.937931153938404, -32.52687356092344 16.910790631121092, -33.048911748636606 16.86043023499518 M-33.048911748636606 16.86043023499518 C-33.41833382175856 16.80070493912379, -33.78775589488052 16.740979643252395, -34.124696687923326 16.68650566884811 M-33.048911748636606 16.86043023499518 C-33.27896429354829 16.823237123617993, -33.50901683845997 16.7860440122408, -34.124696687923326 16.68650566884811 M-34.124696687923326 16.68650566884811 C-34.50248777657869 16.600277318179774, -34.880278865234054 16.514048967511435, -35.18712792646162 16.4440126716635 M-34.124696687923326 16.68650566884811 C-34.426810989686714 16.61755005095068, -34.728925291450096 16.548594433053253, -35.18712792646162 16.4440126716635 M-35.18712792646162 16.4440126716635 C-35.53393337558676 16.341082634782108, -35.880738824711905 16.23815259790072, -36.231839706401544 16.13394769918137 M-35.18712792646162 16.4440126716635 C-35.594972665232284 16.322966494017088, -36.002817404002954 16.201920316370675, -36.231839706401544 16.13394769918137 M-36.231839706401544 16.13394769918137 C-36.54993046779913 16.016887358588292, -36.868021229196714 15.899827017995218, -37.254539082949364 15.757584874882369 M-36.231839706401544 16.13394769918137 C-36.51644329872146 16.029210946360873, -36.80104689104138 15.924474193540373, -37.254539082949364 15.757584874882369 M-37.254539082949364 15.757584874882369 C-37.45609852946121 15.668360486960122, -37.657657975973045 15.579136099037875, -38.25102356499848 15.316470754341127 M-37.254539082949364 15.757584874882369 C-37.54236966798369 15.630170813078614, -37.83020025301802 15.502756751274859, -38.25102356499848 15.316470754341127 M-38.25102356499848 15.316470754341127 C-38.52110541162623 15.17556922795111, -38.79118725825398 15.034667701561094, -39.21719838406693 14.812417970097624 M-38.25102356499848 15.316470754341127 C-38.56895726269823 15.150604947897422, -38.88689096039798 14.984739141453717, -39.21719838406693 14.812417970097624 M-39.21719838406693 14.812417970097624 C-39.53001656715057 14.622785749188631, -39.8428347502342 14.433153528279638, -40.14909332057932 14.247497783161299 M-39.21719838406693 14.812417970097624 C-39.41058336768276 14.695186856573399, -39.6039683512986 14.577955743049174, -40.14909332057932 14.247497783161299 M-40.14909332057932 14.247497783161299 C-40.36318431517213 14.098157173183141, -40.57727530976493 13.948816563204984, -41.04287901835067 13.624031571755264 M-40.14909332057932 14.247497783161299 C-40.37668968215926 14.088736413810828, -40.6042860437392 13.929975044460358, -41.04287901835067 13.624031571755264 M-41.04287901835067 13.624031571755264 C-41.251625876484205 13.457561507380959, -41.46037273461774 13.291091443006652, -41.8948827202324 12.94458129227529 M-41.04287901835067 13.624031571755264 C-41.275834997781445 13.438255377378187, -41.508790977212215 13.252479183001109, -41.8948827202324 12.94458129227529 M-41.8948827202324 12.94458129227529 C-42.2129454135073 12.655725169720741, -42.53100810678219 12.366869047166192, -42.70160336025926 12.211938951661377 M-41.8948827202324 12.94458129227529 C-42.08866519417673 12.768593176642353, -42.28244766812105 12.592605061009417, -42.70160336025926 12.211938951661377 M-42.70160336025926 12.211938951661377 C-42.87185577490072 12.036139355560874, -43.04210818954218 11.86033975946037, -43.459725950280365 11.429115134442386 M-42.70160336025926 12.211938951661377 C-42.9269260396966 11.979274785806304, -43.15224871913394 11.746610619951229, -43.459725950280365 11.429115134442386 M-43.459725950280365 11.429115134442386 C-43.61793012335305 11.243279510678752, -43.776134296425724 11.057443886915117, -44.16613520195651 10.599326631598473 M-43.459725950280365 11.429115134442386 C-43.664663478641515 11.188383852353665, -43.86960100700267 10.947652570264943, -44.16613520195651 10.599326631598473 M-44.16613520195651 10.599326631598473 C-44.2977103844524 10.423027873799688, -44.4292855669483 10.246729116000905, -44.81792832814825 9.72598322207689 M-44.16613520195651 10.599326631598473 C-44.36587996039844 10.33168685240813, -44.56562471884037 10.064047073217788, -44.81792832814825 9.72598322207689 M-44.81792832814825 9.72598322207689 C-44.97374723886204 9.486603531984377, -45.12956614957583 9.247223841891866, -45.41242697109088 8.812673661278936 M-44.81792832814825 9.72598322207689 C-44.9395520951919 9.539136455343481, -45.06117586223555 9.352289688610073, -45.41242697109088 8.812673661278936 M-45.41242697109088 8.812673661278936 C-45.56799112507174 8.536453753307176, -45.723555279052604 8.260233845335419, -45.947188208341004 7.863150934094201 M-45.41242697109088 8.812673661278936 C-45.6080032174841 8.465408231565334, -45.80357946387731 8.118142801851734, -45.947188208341004 7.863150934094201 M-45.947188208341004 7.863150934094201 C-46.069095948232636 7.610006903801445, -46.191003688124276 7.356862873508689, -46.42001459126881 6.881316833080701 M-45.947188208341004 7.863150934094201 C-46.10215716253562 7.541354584904646, -46.257126116730234 7.219558235715089, -46.42001459126881 6.881316833080701 M-46.42001459126881 6.881316833080701 C-46.57380883381771 6.501442080575521, -46.727603076366606 6.121567328070341, -46.828963174845924 5.87120592516224 M-46.42001459126881 6.881316833080701 C-46.54071319985629 6.5831889363207745, -46.66141180844377 6.285061039560849, -46.828963174845924 5.87120592516224 M-46.828963174845924 5.87120592516224 C-46.93684363580857 5.546287165159969, -47.04472409677122 5.221368405157698, -47.172353501623235 4.8369689727275516 M-46.828963174845924 5.87120592516224 C-46.93179413023474 5.561495471418897, -47.03462508562355 5.2517850176755525, -47.172353501623235 4.8369689727275516 M-47.172353501623235 4.8369689727275516 C-47.23397445169049 4.60198158343239, -47.29559540175776 4.366994194137228, -47.448774507091 3.782855877257349 M-47.172353501623235 4.8369689727275516 C-47.26519836568416 4.4829112668446385, -47.35804322974507 4.1288535609617245, -47.448774507091 3.782855877257349 M-47.448774507091 3.782855877257349 C-47.52387369715471 3.3972374084996155, -47.59897288721843 3.011618939741882, -47.65709031804565 2.713198215567455 M-47.448774507091 3.782855877257349 C-47.50356635181015 3.501511334885011, -47.55835819652929 3.220166792512673, -47.65709031804565 2.713198215567455 M-47.65709031804565 2.713198215567455 C-47.70980763793555 2.3043330927137036, -47.76252495782544 1.895467969859952, -47.796444920136366 1.6323914404306026 M-47.65709031804565 2.713198215567455 C-47.70975498633877 2.3047414481010366, -47.7624196546319 1.8962846806346179, -47.796444920136366 1.6323914404306026 M-47.796444920136366 1.6323914404306026 C-47.82160969768488 1.2404297174697663, -47.84677447523338 0.8484679945089298, -47.8662656754117 0.54487681871814 M-47.796444920136366 1.6323914404306026 C-47.81470916622518 1.3479110649632415, -47.832973412314 1.0634306894958807, -47.8662656754117 0.54487681871814 M-47.8662656754117 0.54487681871814 C-47.8662656754117 0.18296362239170327, -47.8662656754117 -0.17894957393473343, -47.8662656754117 -0.5448768187181317 M-47.8662656754117 0.54487681871814 C-47.8662656754117 0.22312799705243652, -47.8662656754117 -0.09862082461326693, -47.8662656754117 -0.5448768187181317 M-47.8662656754117 -0.5448768187181317 C-47.84408254848754 -0.8903969264596152, -47.82189942156338 -1.2359170342010986, -47.796444920136366 -1.6323914404305793 M-47.8662656754117 -0.5448768187181317 C-47.84957125664773 -0.8049058664592421, -47.83287683788375 -1.0649349142003528, -47.796444920136366 -1.6323914404305793 M-47.796444920136366 -1.6323914404305793 C-47.75600356893373 -1.9460465743101771, -47.71556221773109 -2.259701708189775, -47.657090318045654 -2.713198215567447 M-47.796444920136366 -1.6323914404305793 C-47.766044839310275 -1.868168464142779, -47.735644758484185 -2.1039454878549786, -47.657090318045654 -2.713198215567447 M-47.657090318045654 -2.713198215567447 C-47.61129906475231 -2.9483266232439775, -47.56550781145896 -3.1834550309205083, -47.448774507091 -3.782855877257341 M-47.657090318045654 -2.713198215567447 C-47.60582772503012 -2.976420796349367, -47.554565132014574 -3.2396433771312867, -47.448774507091 -3.782855877257341 M-47.448774507091 -3.782855877257341 C-47.35124632784416 -4.154773093705816, -47.25371814859732 -4.52669031015429, -47.172353501623235 -4.836968972727544 M-47.448774507091 -3.782855877257341 C-47.33906284852322 -4.201233980709909, -47.22935118995544 -4.619612084162478, -47.172353501623235 -4.836968972727544 M-47.172353501623235 -4.836968972727544 C-47.048198587164634 -5.210903793677588, -46.92404367270604 -5.584838614627632, -46.82896317484593 -5.871205925162218 M-47.172353501623235 -4.836968972727544 C-47.03809559786173 -5.241332387765205, -46.90383769410022 -5.645695802802866, -46.82896317484593 -5.871205925162218 M-46.82896317484593 -5.871205925162218 C-46.687246591041074 -6.2212486270639635, -46.545530007236216 -6.571291328965709, -46.42001459126881 -6.881316833080692 M-46.82896317484593 -5.871205925162218 C-46.72999611483125 -6.115656476796405, -46.63102905481658 -6.360107028430591, -46.42001459126881 -6.881316833080692 M-46.42001459126881 -6.881316833080692 C-46.321660635906966 -7.085550925827087, -46.22330668054512 -7.28978501857348, -45.947188208341004 -7.863150934094194 M-46.42001459126881 -6.881316833080692 C-46.24555429784391 -7.243587365229789, -46.07109400441901 -7.605857897378886, -45.947188208341004 -7.863150934094194 M-45.947188208341004 -7.863150934094194 C-45.82968926246716 -8.071782210551651, -45.71219031659332 -8.280413487009108, -45.41242697109088 -8.812673661278929 M-45.947188208341004 -7.863150934094194 C-45.831005139740554 -8.069445737205722, -45.7148220711401 -8.275740540317251, -45.41242697109088 -8.812673661278929 M-45.41242697109088 -8.812673661278929 C-45.215691587873096 -9.114912040748854, -45.01895620465532 -9.41715042021878, -44.81792832814825 -9.725983222076884 M-45.41242697109088 -8.812673661278929 C-45.28807277905557 -9.0037150940213, -45.163718587020256 -9.19475652676367, -44.81792832814825 -9.725983222076884 M-44.81792832814825 -9.725983222076884 C-44.58909633801105 -10.032597241837564, -44.36026434787385 -10.339211261598244, -44.16613520195651 -10.599326631598467 M-44.81792832814825 -9.725983222076884 C-44.63616205717099 -9.969533465938467, -44.454395786193736 -10.213083709800049, -44.16613520195651 -10.599326631598467 M-44.16613520195651 -10.599326631598467 C-43.901932337900746 -10.909674349287215, -43.637729473844985 -11.220022066975961, -43.45972595028037 -11.42911513444238 M-44.16613520195651 -10.599326631598467 C-43.946088300431015 -10.857806243153718, -43.726041398905515 -11.116285854708968, -43.45972595028037 -11.42911513444238 M-43.45972595028037 -11.42911513444238 C-43.20268922441787 -11.69452665700307, -42.94565249855537 -11.959938179563759, -42.70160336025928 -12.21193895166136 M-43.45972595028037 -11.42911513444238 C-43.27604150064185 -11.61878440946793, -43.09235705100333 -11.808453684493479, -42.70160336025928 -12.21193895166136 M-42.70160336025928 -12.21193895166136 C-42.499382451985625 -12.395590630083454, -42.29716154371197 -12.579242308505549, -41.89488272023242 -12.944581292275274 M-42.70160336025928 -12.21193895166136 C-42.46004477892409 -12.431316063940143, -42.21848619758891 -12.650693176218926, -41.89488272023242 -12.944581292275274 M-41.89488272023242 -12.944581292275274 C-41.64792286088659 -13.141525208225714, -41.40096300154076 -13.338469124176152, -41.042879018350675 -13.624031571755259 M-41.89488272023242 -12.944581292275274 C-41.62822649707626 -13.157232534222196, -41.36157027392011 -13.369883776169116, -41.042879018350675 -13.624031571755259 M-41.042879018350675 -13.624031571755259 C-40.85741197442886 -13.75340535285619, -40.67194493050704 -13.88277913395712, -40.14909332057934 -14.247497783161284 M-41.042879018350675 -13.624031571755259 C-40.741200902182214 -13.83446916615921, -40.439522786013754 -14.044906760563162, -40.14909332057934 -14.247497783161284 M-40.14909332057934 -14.247497783161284 C-39.90137928667702 -14.397663486242116, -39.65366525277471 -14.547829189322947, -39.21719838406695 -14.812417970097618 M-40.14909332057934 -14.247497783161284 C-39.82966042818218 -14.441139879728485, -39.51022753578501 -14.634781976295688, -39.21719838406695 -14.812417970097618 M-39.21719838406695 -14.812417970097618 C-39.010612890926275 -14.920193489544785, -38.804027397785596 -15.027969008991949, -38.25102356499849 -15.316470754341124 M-39.21719838406695 -14.812417970097618 C-38.93380114792793 -14.96026612666675, -38.65040391178891 -15.108114283235881, -38.25102356499849 -15.316470754341124 M-38.25102356499849 -15.316470754341124 C-37.98137562350759 -15.435835899217162, -37.71172768201668 -15.555201044093199, -37.25453908294937 -15.757584874882365 M-38.25102356499849 -15.316470754341124 C-38.00241442206049 -15.426522647191575, -37.75380527912249 -15.536574540042027, -37.25453908294937 -15.757584874882365 M-37.25453908294937 -15.757584874882365 C-36.92341380382411 -15.879442038488987, -36.59228852469885 -16.00129920209561, -36.231839706401566 -16.133947699181363 M-37.25453908294937 -15.757584874882365 C-36.913323962005926 -15.883155193547557, -36.57210884106247 -16.00872551221275, -36.231839706401566 -16.133947699181363 M-36.231839706401566 -16.133947699181363 C-35.97221222720908 -16.211003772193244, -35.71258474801659 -16.288059845205126, -35.18712792646164 -16.444012671663494 M-36.231839706401566 -16.133947699181363 C-35.85133530417868 -16.24687940845275, -35.47083090195581 -16.359811117724135, -35.18712792646164 -16.444012671663494 M-35.18712792646164 -16.444012671663494 C-34.83144015864488 -16.525196083588067, -34.47575239082812 -16.606379495512645, -34.12469668792333 -16.68650566884811 M-35.18712792646164 -16.444012671663494 C-34.76335079597012 -16.54073703629397, -34.339573665478596 -16.637461400924444, -34.12469668792333 -16.68650566884811 M-34.12469668792333 -16.68650566884811 C-33.72895948914401 -16.75048539015894, -33.33322229036469 -16.81446511146977, -33.04891174863661 -16.86043023499518 M-34.12469668792333 -16.68650566884811 C-33.83688976542961 -16.733036060100876, -33.549082842935896 -16.77956645135364, -33.04891174863661 -16.86043023499518 M-33.04891174863661 -16.86043023499518 C-32.77736280388713 -16.886626235109777, -32.505813859137646 -16.912822235224372, -31.96419373967212 -16.965071676755716 M-33.04891174863661 -16.86043023499518 C-32.62516600648268 -16.901308477111954, -32.201420264328746 -16.94218671922873, -31.96419373967212 -16.965071676755716 M-31.96419373967212 -16.965071676755716 C-31.667316566335728 -16.974591949868252, -31.37043939299934 -16.984112222980787, -30.875000000000004 -17 M-31.96419373967212 -16.965071676755716 C-31.71215195904126 -16.973154166090982, -31.460110178410403 -16.98123665542625, -30.875000000000004 -17 M-30.875000000000004 -17 C-30.875000000000004 -17, -30.875 -17, -30.875 -17 M-30.875000000000004 -17 C-30.875000000000004 -17, -30.875 -17, -30.875 -17" stroke="#9370DB" stroke-width="1.3" fill="none" stroke-dasharray="0 0" style=""></path></g><g class="label" style="" transform="translate(0, -9.5)"><rect></rect><g><rect class="background" style="stroke: none"></rect><text y="-10.1" style=""><tspan class="text-outer-tspan row" x="0" y="-0.1em" dy="1.1em"><tspan font-style="normal" class="text-inner-tspan" font-weight="normal">Start</tspan><tspan font-style="normal" class="text-inner-tspan" font-weight="normal"> here</tspan></tspan></text></g></g></g><g class="node default" id="ga7176d92-b87a-4719-ae8a-936a261727b8-light-flowchart-docsQ-1" data-look="classic" transform="translate(280.4421844482422, 227.15000915527344)"><polygon points="135.1500015258789,0 270.3000030517578,-135.1500015258789 135.1500015258789,-270.3000030517578 0,-135.1500015258789" class="label-container" transform="translate(-134.6500015258789, 135.1500015258789)"></polygon><g class="label" style="" transform="translate(0, -35.900001525878906)"><rect></rect><g><rect class="background" style="stroke: none"></rect><text y="-10.1" style=""><tspan class="text-outer-tspan row" x="0" y="-0.1em" dy="1.1em"><tspan font-style="normal" class="text-inner-tspan" font-weight="normal">Need</tspan><tspan font-style="normal" class="text-inner-tspan" font-weight="normal"> built-in</tspan><tspan font-style="normal" class="text-inner-tspan" font-weight="normal"> docs</tspan></tspan><tspan class="text-outer-tspan row" x="0" y="1em" dy="1.1em"><tspan font-style="normal" class="text-inner-tspan" font-weight="normal">navigation,</tspan></tspan><tspan class="text-outer-tspan row" x="0" y="2.1em" dy="1.1em"><tspan font-style="normal" class="text-inner-tspan" font-weight="normal">search,</tspan><tspan font-style="normal" class="text-inner-tspan" font-weight="normal"> and</tspan><tspan font-style="normal" class="text-inner-tspan" font-weight="normal"> the</tspan><tspan font-style="normal" class="text-inner-tspan" font-weight="normal"> default</tspan></tspan><tspan class="text-outer-tspan row" x="0" y="3.2em" dy="1.1em"><tspan font-style="normal" class="text-inner-tspan" font-weight="normal">theme?</tspan></tspan></text></g></g></g><g class="node default" id="ga7176d92-b87a-4719-ae8a-936a261727b8-light-flowchart-docs-3" data-look="classic" transform="translate(124.9296875, 579.3953247070312)"><rect class="basic label-container" style="" x="-116.9296875" y="-50.900001525878906" width="233.859375" height="101.80000305175781"></rect><g class="label" style="" transform="translate(0, -35.900001525878906)"><rect></rect><g><rect class="background" style="stroke: none"></rect><text y="-10.1" style=""><tspan class="text-outer-tspan row" x="0" y="-0.1em" dy="1.1em"><tspan font-style="normal" class="text-inner-tspan" font-weight="normal">@pagesmith/docs</tspan></tspan><tspan class="text-outer-tspan row" x="0" y="1em" dy="1.1em"><tspan font-style="normal" class="text-inner-tspan" font-weight="normal">Docs</tspan><tspan font-style="normal" class="text-inner-tspan" font-weight="normal"> preset</tspan><tspan font-style="normal" class="text-inner-tspan" font-weight="normal"> with</tspan><tspan font-style="normal" class="text-inner-tspan" font-weight="normal"> config,</tspan></tspan><tspan class="text-outer-tspan row" x="0" y="2.1em" dy="1.1em"><tspan font-style="normal" class="text-inner-tspan" font-weight="normal">navigation,</tspan><tspan font-style="normal" class="text-inner-tspan" font-weight="normal"> search,</tspan><tspan font-style="normal" class="text-inner-tspan" font-weight="normal"> and</tspan></tspan><tspan class="text-outer-tspan row" x="0" y="3.2em" dy="1.1em"><tspan font-style="normal" class="text-inner-tspan" font-weight="normal">theme</tspan></tspan></text></g></g></g><g class="node default" id="ga7176d92-b87a-4719-ae8a-936a261727b8-light-flowchart-hostQ-5" data-look="classic" transform="translate(435.9546813964844, 579.3953247070312)"><polygon points="144.0953140258789,0 288.1906280517578,-144.0953140258789 144.0953140258789,-288.1906280517578 0,-144.0953140258789" class="label-container" transform="translate(-143.5953140258789, 144.0953140258789)"></polygon><g class="label" style="" transform="translate(0, -35.900001525878906)"><rect></rect><g><rect class="background" style="stroke: none"></rect><text y="-10.1" style=""><tspan class="text-outer-tspan row" x="0" y="-0.1em" dy="1.1em"><tspan font-style="normal" class="text-inner-tspan" font-weight="normal">Does</tspan><tspan font-style="normal" class="text-inner-tspan" font-weight="normal"> the</tspan><tspan font-style="normal" class="text-inner-tspan" font-weight="normal"> host</tspan><tspan font-style="normal" class="text-inner-tspan" font-weight="normal"> app</tspan><tspan font-style="normal" class="text-inner-tspan" font-weight="normal"> already</tspan></tspan><tspan class="text-outer-tspan row" x="0" y="1em" dy="1.1em"><tspan font-style="normal" class="text-inner-tspan" font-weight="normal">own</tspan></tspan><tspan class="text-outer-tspan row" x="0" y="2.1em" dy="1.1em"><tspan font-style="normal" class="text-inner-tspan" font-weight="normal">routing,</tspan><tspan font-style="normal" class="text-inner-tspan" font-weight="normal"> layout,</tspan><tspan font-style="normal" class="text-inner-tspan" font-weight="normal"> and</tspan><tspan font-style="normal" class="text-inner-tspan" font-weight="normal"> build</tspan></tspan><tspan class="text-outer-tspan row" x="0" y="3.2em" dy="1.1em"><tspan font-style="normal" class="text-inner-tspan" font-weight="normal">tooling?</tspan></tspan></text></g></g></g><g class="node default" id="ga7176d92-b87a-4719-ae8a-936a261727b8-light-flowchart-core-7" data-look="classic" transform="translate(563.1460876464844, 856.1906318664551)"><rect class="basic label-container" style="" x="-111.96875" y="-59.70000076293945" width="223.9375" height="119.4000015258789"></rect><g class="label" style="" transform="translate(0, -44.70000076293945)"><rect></rect><g><rect class="background" style="stroke: none"></rect><text y="-10.1" style=""><tspan class="text-outer-tspan row" x="0" y="-0.1em" dy="1.1em"><tspan font-style="normal" class="text-inner-tspan" font-weight="normal">@pagesmith/core</tspan></tspan><tspan class="text-outer-tspan row" x="0" y="1em" dy="1.1em"><tspan font-style="normal" class="text-inner-tspan" font-weight="normal">Headless</tspan><tspan font-style="normal" class="text-inner-tspan" font-weight="normal"> content</tspan><tspan font-style="normal" class="text-inner-tspan" font-weight="normal"> layer</tspan></tspan><tspan class="text-outer-tspan row" x="0" y="2.1em" dy="1.1em"><tspan font-style="normal" class="text-inner-tspan" font-weight="normal">with</tspan></tspan><tspan class="text-outer-tspan row" x="0" y="3.2em" dy="1.1em"><tspan font-style="normal" class="text-inner-tspan" font-weight="normal">schemas,</tspan><tspan font-style="normal" class="text-inner-tspan" font-weight="normal"> loaders,</tspan><tspan font-style="normal" class="text-inner-tspan" font-weight="normal"> and</tspan></tspan><tspan class="text-outer-tspan row" x="0" y="4.300000000000001em" dy="1.1em"><tspan font-style="normal" class="text-inner-tspan" font-weight="normal">markdown</tspan></tspan></text></g></g></g><g class="node default" id="ga7176d92-b87a-4719-ae8a-936a261727b8-light-flowchart-site-9" data-look="classic" transform="translate(286.3999938964844, 1392.0843887329102)"><rect class="basic label-container" style="" x="-127.6171875" y="-68.5" width="255.234375" height="137"></rect><g class="label" style="" transform="translate(0, -53.5)"><rect></rect><g><rect class="background" style="stroke: none"></rect><text y="-10.1" style=""><tspan class="text-outer-tspan row" x="0" y="-0.1em" dy="1.1em"><tspan font-style="normal" class="text-inner-tspan" font-weight="normal">@pagesmith/site</tspan><tspan font-style="normal" class="text-inner-tspan" font-weight="normal"> +</tspan></tspan><tspan class="text-outer-tspan row" x="0" y="1em" dy="1.1em"><tspan font-style="normal" class="text-inner-tspan" font-weight="normal">@pagesmith/core</tspan></tspan><tspan class="text-outer-tspan row" x="0" y="2.1em" dy="1.1em"><tspan font-style="normal" class="text-inner-tspan" font-weight="normal">Custom</tspan><tspan font-style="normal" class="text-inner-tspan" font-weight="normal"> site</tspan><tspan font-style="normal" class="text-inner-tspan" font-weight="normal"> shell</tspan><tspan font-style="normal" class="text-inner-tspan" font-weight="normal"> with</tspan></tspan><tspan class="text-outer-tspan row" x="0" y="3.2em" dy="1.1em"><tspan font-style="normal" class="text-inner-tspan" font-weight="normal">shared</tspan></tspan><tspan class="text-outer-tspan row" x="0" y="4.300000000000001em" dy="1.1em"><tspan font-style="normal" class="text-inner-tspan" font-weight="normal">JSX,</tspan><tspan font-style="normal" class="text-inner-tspan" font-weight="normal"> CSS/runtime,</tspan><tspan font-style="normal" class="text-inner-tspan" font-weight="normal"> and</tspan><tspan font-style="normal" class="text-inner-tspan" font-weight="normal"> Vite</tspan></tspan><tspan class="text-outer-tspan row" x="0" y="5.4em" dy="1.1em"><tspan font-style="normal" class="text-inner-tspan" font-weight="normal">SSG</tspan></tspan></text></g></g></g><g class="node default" id="ga7176d92-b87a-4719-ae8a-936a261727b8-light-flowchart-siteQ-11" data-look="classic" transform="translate(563.1460876464844, 1119.7375106811523)"><polygon points="130.84687423706055,0 261.6937484741211,-130.84687423706055 130.84687423706055,-261.6937484741211 0,-130.84687423706055" class="label-container" transform="translate(-130.34687423706055, 130.84687423706055)"></polygon><g class="label" style="" transform="translate(0, -18.299999237060547)"><rect></rect><g><rect class="background" style="stroke: none"></rect><text y="-10.1" style=""><tspan class="text-outer-tspan row" x="0" y="-0.1em" dy="1.1em"><tspan font-style="normal" class="text-inner-tspan" font-weight="normal">Need</tspan><tspan font-style="normal" class="text-inner-tspan" font-weight="normal"> the</tspan><tspan font-style="normal" class="text-inner-tspan" font-weight="normal"> shared</tspan><tspan font-style="normal" class="text-inner-tspan" font-weight="normal"> Pagesmith</tspan></tspan><tspan class="text-outer-tspan row" x="0" y="1em" dy="1.1em"><tspan font-style="normal" class="text-inner-tspan" font-weight="normal">site</tspan><tspan font-style="normal" class="text-inner-tspan" font-weight="normal"> layer</tspan><tspan font-style="normal" class="text-inner-tspan" font-weight="normal"> too?</tspan></tspan></text></g></g></g><g class="node default" id="ga7176d92-b87a-4719-ae8a-936a261727b8-light-flowchart-coreOnly-15" data-look="classic" transform="translate(585.5093688964844, 1392.0843887329102)"><rect class="basic label-container" style="" x="-121.4921875" y="-24.5" width="242.984375" height="49"></rect><g class="label" style="" transform="translate(0, -9.5)"><rect></rect><g><rect class="background" style="stroke: none"></rect><text y="-10.1" style=""><tspan class="text-outer-tspan row" x="0" y="-0.1em" dy="1.1em"><tspan font-style="normal" class="text-inner-tspan" font-weight="normal">Stay</tspan><tspan font-style="normal" class="text-inner-tspan" font-weight="normal"> on</tspan><tspan font-style="normal" class="text-inner-tspan" font-weight="normal"> @pagesmith/core</tspan></tspan></text></g></g></g></g></g></g><defs><filter id="ga7176d92-b87a-4719-ae8a-936a261727b8-light-drop-shadow" height="130%" width="130%"><feDropShadow dx="4" dy="4" stdDeviation="0" flood-opacity="0.06" flood-color="#000000"></feDropShadow></filter></defs><defs><filter id="ga7176d92-b87a-4719-ae8a-936a261727b8-light-drop-shadow-small" height="150%" width="150%"><feDropShadow dx="2" dy="2" stdDeviation="0" flood-opacity="0.06" flood-color="#000000"></feDropShadow></filter></defs></svg>