<svg id="gade5825e-45b3-4b69-bff2-ab15531cb090-dark" width="100%" xmlns="http://www.w3.org/2000/svg" xmlns:xlink="http://www.w3.org/1999/xlink" class="flowchart" style="max-width: 609.530517578125px;" viewBox="0 0 609.530517578125 1130.7530517578125" role="graphics-document document" aria-roledescription="flowchart-v2"><style>#gade5825e-45b3-4b69-bff2-ab15531cb090-dark{font-family:"trebuchet ms",verdana,arial,sans-serif;font-size:16px;fill:#e5e5e5;}@keyframes edge-animation-frame{from{stroke-dashoffset:0;}}@keyframes dash{to{stroke-dashoffset:0;}}#gade5825e-45b3-4b69-bff2-ab15531cb090-dark .edge-animation-slow{stroke-dasharray:9,5!important;stroke-dashoffset:900;animation:dash 50s linear infinite;stroke-linecap:round;}#gade5825e-45b3-4b69-bff2-ab15531cb090-dark .edge-animation-fast{stroke-dasharray:9,5!important;stroke-dashoffset:900;animation:dash 20s linear infinite;stroke-linecap:round;}#gade5825e-45b3-4b69-bff2-ab15531cb090-dark .error-icon{fill:#252525;}#gade5825e-45b3-4b69-bff2-ab15531cb090-dark .error-text{fill:#cccccc;stroke:#cccccc;}#gade5825e-45b3-4b69-bff2-ab15531cb090-dark .edge-thickness-normal{stroke-width:1px;}#gade5825e-45b3-4b69-bff2-ab15531cb090-dark .edge-thickness-thick{stroke-width:3.5px;}#gade5825e-45b3-4b69-bff2-ab15531cb090-dark .edge-pattern-solid{stroke-dasharray:0;}#gade5825e-45b3-4b69-bff2-ab15531cb090-dark .edge-thickness-invisible{stroke-width:0;fill:none;}#gade5825e-45b3-4b69-bff2-ab15531cb090-dark .edge-pattern-dashed{stroke-dasharray:3;}#gade5825e-45b3-4b69-bff2-ab15531cb090-dark .edge-pattern-dotted{stroke-dasharray:2;}#gade5825e-45b3-4b69-bff2-ab15531cb090-dark .marker{fill:#cccccc;stroke:#cccccc;}#gade5825e-45b3-4b69-bff2-ab15531cb090-dark .marker.cross{stroke:#cccccc;}#gade5825e-45b3-4b69-bff2-ab15531cb090-dark svg{font-family:"trebuchet ms",verdana,arial,sans-serif;font-size:16px;}#gade5825e-45b3-4b69-bff2-ab15531cb090-dark p{margin:0;}#gade5825e-45b3-4b69-bff2-ab15531cb090-dark .label{font-family:"trebuchet ms",verdana,arial,sans-serif;color:#e5e5e5;}#gade5825e-45b3-4b69-bff2-ab15531cb090-dark .cluster-label text{fill:#e5e5e5;}#gade5825e-45b3-4b69-bff2-ab15531cb090-dark .cluster-label span{color:#e5e5e5;}#gade5825e-45b3-4b69-bff2-ab15531cb090-dark .cluster-label span p{background-color:transparent;}#gade5825e-45b3-4b69-bff2-ab15531cb090-dark .label text,#gade5825e-45b3-4b69-bff2-ab15531cb090-dark span{fill:#e5e5e5;color:#e5e5e5;}#gade5825e-45b3-4b69-bff2-ab15531cb090-dark .node rect,#gade5825e-45b3-4b69-bff2-ab15531cb090-dark .node circle,#gade5825e-45b3-4b69-bff2-ab15531cb090-dark .node ellipse,#gade5825e-45b3-4b69-bff2-ab15531cb090-dark .node polygon,#gade5825e-45b3-4b69-bff2-ab15531cb090-dark .node path{fill:#2d2d2d;stroke:#555555;stroke-width:1px;}#gade5825e-45b3-4b69-bff2-ab15531cb090-dark .rough-node .label text,#gade5825e-45b3-4b69-bff2-ab15531cb090-dark .node .label text,#gade5825e-45b3-4b69-bff2-ab15531cb090-dark .image-shape .label,#gade5825e-45b3-4b69-bff2-ab15531cb090-dark .icon-shape .label{text-anchor:middle;}#gade5825e-45b3-4b69-bff2-ab15531cb090-dark .node .katex path{fill:#000;stroke:#000;stroke-width:1px;}#gade5825e-45b3-4b69-bff2-ab15531cb090-dark .rough-node .label,#gade5825e-45b3-4b69-bff2-ab15531cb090-dark .node .label,#gade5825e-45b3-4b69-bff2-ab15531cb090-dark .image-shape .label,#gade5825e-45b3-4b69-bff2-ab15531cb090-dark .icon-shape .label{text-align:center;}#gade5825e-45b3-4b69-bff2-ab15531cb090-dark .node.clickable{cursor:pointer;}#gade5825e-45b3-4b69-bff2-ab15531cb090-dark .root .anchor path{fill:#cccccc!important;stroke-width:0;stroke:#cccccc;}#gade5825e-45b3-4b69-bff2-ab15531cb090-dark .arrowheadPath{fill:#cccccc;}#gade5825e-45b3-4b69-bff2-ab15531cb090-dark .edgePath .path{stroke:#cccccc;stroke-width:1px;}#gade5825e-45b3-4b69-bff2-ab15531cb090-dark .flowchart-link{stroke:#cccccc;fill:none;}#gade5825e-45b3-4b69-bff2-ab15531cb090-dark .edgeLabel{background-color:#1e1e1e;text-align:center;}#gade5825e-45b3-4b69-bff2-ab15531cb090-dark .edgeLabel p{background-color:#1e1e1e;}#gade5825e-45b3-4b69-bff2-ab15531cb090-dark .edgeLabel rect{opacity:0.5;background-color:#1e1e1e;fill:#1e1e1e;}#gade5825e-45b3-4b69-bff2-ab15531cb090-dark .labelBkg{background-color:rgba(30, 30, 30, 0.5);}#gade5825e-45b3-4b69-bff2-ab15531cb090-dark .cluster rect{fill:#1e1e1e;stroke:#555555;stroke-width:1px;}#gade5825e-45b3-4b69-bff2-ab15531cb090-dark .cluster text{fill:#e5e5e5;}#gade5825e-45b3-4b69-bff2-ab15531cb090-dark .cluster span{color:#e5e5e5;}#gade5825e-45b3-4b69-bff2-ab15531cb090-dark div.mermaidTooltip{position:absolute;text-align:center;max-width:200px;padding:2px;font-family:"trebuchet ms",verdana,arial,sans-serif;font-size:12px;background:#252525;border:1px solid #555555;border-radius:2px;pointer-events:none;z-index:100;}#gade5825e-45b3-4b69-bff2-ab15531cb090-dark .flowchartTitleText{text-anchor:middle;font-size:18px;fill:#e5e5e5;}#gade5825e-45b3-4b69-bff2-ab15531cb090-dark rect.text{fill:none;stroke-width:0;}#gade5825e-45b3-4b69-bff2-ab15531cb090-dark .icon-shape,#gade5825e-45b3-4b69-bff2-ab15531cb090-dark .image-shape{background-color:#1e1e1e;text-align:center;}#gade5825e-45b3-4b69-bff2-ab15531cb090-dark .icon-shape p,#gade5825e-45b3-4b69-bff2-ab15531cb090-dark .image-shape p{background-color:#1e1e1e;padding:2px;}#gade5825e-45b3-4b69-bff2-ab15531cb090-dark .icon-shape .label rect,#gade5825e-45b3-4b69-bff2-ab15531cb090-dark .image-shape .label rect{opacity:0.5;background-color:#1e1e1e;fill:#1e1e1e;}#gade5825e-45b3-4b69-bff2-ab15531cb090-dark .label-icon{display:inline-block;height:1em;overflow:visible;vertical-align:-0.125em;}#gade5825e-45b3-4b69-bff2-ab15531cb090-dark .node .label-icon path{fill:currentColor;stroke:revert;stroke-width:revert;}#gade5825e-45b3-4b69-bff2-ab15531cb090-dark .node .neo-node{stroke:#555555;}#gade5825e-45b3-4b69-bff2-ab15531cb090-dark [data-look="neo"].node rect,#gade5825e-45b3-4b69-bff2-ab15531cb090-dark [data-look="neo"].cluster rect,#gade5825e-45b3-4b69-bff2-ab15531cb090-dark [data-look="neo"].node polygon{stroke:url(#gade5825e-45b3-4b69-bff2-ab15531cb090-dark-gradient);filter:drop-shadow( 1px 2px 2px rgba(185,185,185,1));}#gade5825e-45b3-4b69-bff2-ab15531cb090-dark [data-look="neo"].node path{stroke:url(#gade5825e-45b3-4b69-bff2-ab15531cb090-dark-gradient);stroke-width:1px;}#gade5825e-45b3-4b69-bff2-ab15531cb090-dark [data-look="neo"].node .outer-path{filter:drop-shadow( 1px 2px 2px rgba(185,185,185,1));}#gade5825e-45b3-4b69-bff2-ab15531cb090-dark [data-look="neo"].node .neo-line path{stroke:#555555;filter:none;}#gade5825e-45b3-4b69-bff2-ab15531cb090-dark [data-look="neo"].node circle{stroke:url(#gade5825e-45b3-4b69-bff2-ab15531cb090-dark-gradient);filter:drop-shadow( 1px 2px 2px rgba(185,185,185,1));}#gade5825e-45b3-4b69-bff2-ab15531cb090-dark [data-look="neo"].node circle .state-start{fill:#000000;}#gade5825e-45b3-4b69-bff2-ab15531cb090-dark [data-look="neo"].icon-shape .icon{fill:url(#gade5825e-45b3-4b69-bff2-ab15531cb090-dark-gradient);filter:drop-shadow( 1px 2px 2px rgba(185,185,185,1));}#gade5825e-45b3-4b69-bff2-ab15531cb090-dark [data-look="neo"].icon-shape .icon-neo path{stroke:url(#gade5825e-45b3-4b69-bff2-ab15531cb090-dark-gradient);filter:drop-shadow( 1px 2px 2px rgba(185,185,185,1));}#gade5825e-45b3-4b69-bff2-ab15531cb090-dark :root{--mermaid-font-family:"trebuchet ms",verdana,arial,sans-serif;}</style><g><marker id="gade5825e-45b3-4b69-bff2-ab15531cb090-dark_flowchart-v2-pointEnd" class="marker flowchart-v2" viewBox="0 0 10 10" refX="5" refY="5" markerUnits="userSpaceOnUse" markerWidth="8" markerHeight="8" orient="auto"><path d="M 0 0 L 10 5 L 0 10 z" class="arrowMarkerPath" style="stroke-width: 1; stroke-dasharray: 1, 0;"></path></marker><marker id="gade5825e-45b3-4b69-bff2-ab15531cb090-dark_flowchart-v2-pointStart" class="marker flowchart-v2" viewBox="0 0 10 10" refX="4.5" refY="5" markerUnits="userSpaceOnUse" markerWidth="8" markerHeight="8" orient="auto"><path d="M 0 5 L 10 10 L 10 0 z" class="arrowMarkerPath" style="stroke-width: 1; stroke-dasharray: 1, 0;"></path></marker><marker id="gade5825e-45b3-4b69-bff2-ab15531cb090-dark_flowchart-v2-pointEnd-margin" class="marker flowchart-v2" viewBox="0 0 11.5 14" refX="11.5" refY="7" markerUnits="userSpaceOnUse" markerWidth="10.5" markerHeight="14" orient="auto"><path d="M 0 0 L 11.5 7 L 0 14 z" class="arrowMarkerPath" style="stroke-width: 0; stroke-dasharray: 1, 0;"></path></marker><marker id="gade5825e-45b3-4b69-bff2-ab15531cb090-dark_flowchart-v2-pointStart-margin" class="marker flowchart-v2" viewBox="0 0 11.5 14" refX="1" refY="7" markerUnits="userSpaceOnUse" markerWidth="11.5" markerHeight="14" orient="auto"><polygon points="0,7 11.5,14 11.5,0" class="arrowMarkerPath" style="stroke-width: 0; stroke-dasharray: 1, 0;"></polygon></marker><marker id="gade5825e-45b3-4b69-bff2-ab15531cb090-dark_flowchart-v2-circleEnd" class="marker flowchart-v2" viewBox="0 0 10 10" refX="11" refY="5" markerUnits="userSpaceOnUse" markerWidth="11" markerHeight="11" orient="auto"><circle cx="5" cy="5" r="5" class="arrowMarkerPath" style="stroke-width: 1; stroke-dasharray: 1, 0;"></circle></marker><marker id="gade5825e-45b3-4b69-bff2-ab15531cb090-dark_flowchart-v2-circleStart" class="marker flowchart-v2" viewBox="0 0 10 10" refX="-1" refY="5" markerUnits="userSpaceOnUse" markerWidth="11" markerHeight="11" orient="auto"><circle cx="5" cy="5" r="5" class="arrowMarkerPath" style="stroke-width: 1; stroke-dasharray: 1, 0;"></circle></marker><marker id="gade5825e-45b3-4b69-bff2-ab15531cb090-dark_flowchart-v2-circleEnd-margin" class="marker flowchart-v2" viewBox="0 0 10 10" refY="5" refX="12.25" markerUnits="userSpaceOnUse" markerWidth="14" markerHeight="14" orient="auto"><circle cx="5" cy="5" r="5" class="arrowMarkerPath" style="stroke-width: 0; stroke-dasharray: 1, 0;"></circle></marker><marker id="gade5825e-45b3-4b69-bff2-ab15531cb090-dark_flowchart-v2-circleStart-margin" class="marker flowchart-v2" viewBox="0 0 10 10" refX="-2" refY="5" markerUnits="userSpaceOnUse" markerWidth="14" markerHeight="14" orient="auto"><circle cx="5" cy="5" r="5" class="arrowMarkerPath" style="stroke-width: 0; stroke-dasharray: 1, 0;"></circle></marker><marker id="gade5825e-45b3-4b69-bff2-ab15531cb090-dark_flowchart-v2-crossEnd" class="marker cross flowchart-v2" viewBox="0 0 11 11" refX="12" refY="5.2" markerUnits="userSpaceOnUse" markerWidth="11" markerHeight="11" orient="auto"><path d="M 1,1 l 9,9 M 10,1 l -9,9" class="arrowMarkerPath" style="stroke-width: 2; stroke-dasharray: 1, 0;"></path></marker><marker id="gade5825e-45b3-4b69-bff2-ab15531cb090-dark_flowchart-v2-crossStart" class="marker cross flowchart-v2" viewBox="0 0 11 11" refX="-1" refY="5.2" markerUnits="userSpaceOnUse" markerWidth="11" markerHeight="11" orient="auto"><path d="M 1,1 l 9,9 M 10,1 l -9,9" class="arrowMarkerPath" style="stroke-width: 2; stroke-dasharray: 1, 0;"></path></marker><marker id="gade5825e-45b3-4b69-bff2-ab15531cb090-dark_flowchart-v2-crossEnd-margin" class="marker cross flowchart-v2" viewBox="0 0 15 15" refX="17.7" refY="7.5" markerUnits="userSpaceOnUse" markerWidth="12" markerHeight="12" orient="auto"><path d="M 1,1 L 14,14 M 1,14 L 14,1" class="arrowMarkerPath" style="stroke-width: 2.5;"></path></marker><marker id="gade5825e-45b3-4b69-bff2-ab15531cb090-dark_flowchart-v2-crossStart-margin" class="marker cross flowchart-v2" viewBox="0 0 15 15" refX="-3.5" refY="7.5" markerUnits="userSpaceOnUse" markerWidth="12" markerHeight="12" orient="auto"><path d="M 1,1 L 14,14 M 1,14 L 14,1" class="arrowMarkerPath" style="stroke-width: 2.5; stroke-dasharray: 1, 0;"></path></marker><g class="root"><g class="clusters"></g><g class="edgePaths"><path d="M223.314,42.5L223.231,46.583C223.147,50.667,222.981,58.833,222.897,66.417C222.814,74,222.814,81,222.814,84.5L222.814,88" id="gade5825e-45b3-4b69-bff2-ab15531cb090-dark-L_start_docsQ_0" class="edge-thickness-normal edge-pattern-solid edge-thickness-normal edge-pattern-solid flowchart-link" style=";" data-edge="true" data-et="edge" data-id="L_start_docsQ_0" data-points="W3sieCI6MjIzLjMxNDA2NDAyNTg3ODksInkiOjQyLjV9LHsieCI6MjIyLjgxNDA2NDAyNTg3ODksInkiOjY3fSx7IngiOjIyMi44MTQwNjQwMjU4Nzg4OCwieSI6OTEuOTk5OTk5OTk5OTk5OTl9XQ==" data-look="classic" marker-end="url(#gade5825e-45b3-4b69-bff2-ab15531cb090-dark_flowchart-v2-pointEnd)"></path><path d="M171.481,271.376L159.743,286.015C148.005,300.654,124.53,329.932,112.792,362.648C101.055,395.364,101.055,431.519,101.055,449.596L101.055,467.673" id="gade5825e-45b3-4b69-bff2-ab15531cb090-dark-L_docsQ_docs_0" class="edge-thickness-normal edge-pattern-solid edge-thickness-normal edge-pattern-solid flowchart-link" style=";" data-edge="true" data-et="edge" data-id="L_docsQ_docs_0" data-points="W3sieCI6MTcxLjQ4MDc1NzkwNzQzMjUyLCJ5IjoyNzEuMzc2MDU5NzI2MjgwMjN9LHsieCI6MTAxLjA1NDY4NzUsInkiOjM1OS4yMDkzNjU4NDQ3MjY1Nn0seyJ4IjoxMDEuMDU0Njg3NSwieSI6NDcxLjY3MzQzMTM5NjQ4NDR9XQ==" data-look="classic" marker-end="url(#gade5825e-45b3-4b69-bff2-ab15531cb090-dark_flowchart-v2-pointEnd)"></path><path d="M274.147,271.376L285.885,286.015C297.623,300.654,321.098,329.932,332.836,349.987C344.573,370.043,344.573,380.876,344.573,386.293L344.573,391.709" id="gade5825e-45b3-4b69-bff2-ab15531cb090-dark-L_docsQ_hostQ_0" class="edge-thickness-normal edge-pattern-solid edge-thickness-normal edge-pattern-solid flowchart-link" style=";" data-edge="true" data-et="edge" data-id="L_docsQ_hostQ_0" data-points="W3sieCI6Mjc0LjE0NzM3MDE0NDMyNTMsInkiOjI3MS4zNzYwNTk3MjYyODAyM30seyJ4IjozNDQuNTczNDQwNTUxNzU3OCwieSI6MzU5LjIwOTM2NTg0NDcyNjU2fSx7IngiOjM0NC41NzM0NDA1NTE3NTc4LCJ5IjozOTUuNzA5MzY1ODQ0NzI2NTZ9XQ==" data-look="classic" marker-end="url(#gade5825e-45b3-4b69-bff2-ab15531cb090-dark_flowchart-v2-pointEnd)"></path><path d="M390.012,551.199L401.289,564.855C412.566,578.512,435.121,605.825,446.398,624.898C457.675,643.971,457.675,654.804,457.675,660.221L457.675,665.637" id="gade5825e-45b3-4b69-bff2-ab15531cb090-dark-L_hostQ_core_0" class="edge-thickness-normal edge-pattern-solid edge-thickness-normal edge-pattern-solid flowchart-link" style=";" data-edge="true" data-et="edge" data-id="L_hostQ_core_0" data-points="W3sieCI6MzkwLjAxMjA4MzUwOTMzNTQ3LCJ5Ijo1NTEuMTk4ODUzOTkwNjY0Nn0seyJ4Ijo0NTcuNjc1MDAzMDUxNzU3OCwieSI6NjMzLjEzNzQ5Njk0ODI0MjJ9LHsieCI6NDU3LjY3NTAwMzA1MTc1NzgsInkiOjY2OS42Mzc0OTY5NDgyNDIyfV0=" data-look="classic" marker-end="url(#gade5825e-45b3-4b69-bff2-ab15531cb090-dark_flowchart-v2-pointEnd)"></path><path d="M457.675,718.637L457.675,724.721C457.675,730.804,457.675,742.971,457.675,754.471C457.675,765.971,457.675,776.804,457.675,782.221L457.675,787.637" id="gade5825e-45b3-4b69-bff2-ab15531cb090-dark-L_core_siteQ_0" class="edge-thickness-normal edge-pattern-solid edge-thickness-normal edge-pattern-solid flowchart-link" style=";" data-edge="true" data-et="edge" data-id="L_core_siteQ_0" data-points="W3sieCI6NDU3LjY3NTAwMzA1MTc1NzgsInkiOjcxOC42Mzc0OTY5NDgyNDIyfSx7IngiOjQ1Ny42NzUwMDMwNTE3NTc4LCJ5Ijo3NTUuMTM3NDk2OTQ4MjQyMn0seyJ4Ijo0NTcuNjc1MDAzMDUxNzU3OCwieSI6NzkxLjYzNzQ5Njk0ODI0MjN9XQ==" data-look="classic" marker-end="url(#gade5825e-45b3-4b69-bff2-ab15531cb090-dark_flowchart-v2-pointEnd)"></path><path d="M291.706,543.77L275.163,558.665C258.619,573.559,225.532,603.348,208.988,628.41C192.445,653.471,192.445,673.804,192.445,694.137C192.445,714.471,192.445,734.804,192.445,767.014C192.445,799.223,192.445,843.309,192.445,887.395C192.445,931.481,192.445,975.567,193.742,1003.045C195.04,1030.523,197.635,1041.393,198.932,1046.828L200.23,1052.262" id="gade5825e-45b3-4b69-bff2-ab15531cb090-dark-L_hostQ_site_0" class="edge-thickness-normal edge-pattern-solid edge-thickness-normal edge-pattern-solid flowchart-link" style=";" data-edge="true" data-et="edge" data-id="L_hostQ_site_0" data-points="W3sieCI6MjkxLjcwNjQwNTAyODMyODgsInkiOjU0My43NzA0NjE0MjQ4MTMyfSx7IngiOjE5Mi40NDQ1MzQzMDE3NTc4LCJ5Ijo2MzMuMTM3NDk2OTQ4MjQyMn0seyJ4IjoxOTIuNDQ0NTM0MzAxNzU3OCwieSI6Njk0LjEzNzQ5Njk0ODI0MjJ9LHsieCI6MTkyLjQ0NDUzNDMwMTc1NzgsInkiOjc1NS4xMzc0OTY5NDgyNDIyfSx7IngiOjE5Mi40NDQ1MzQzMDE3NTc4LCJ5Ijo4ODcuMzk1MzA5NDQ4MjQyMn0seyJ4IjoxOTIuNDQ0NTM0MzAxNzU3OCwieSI6MTAxOS42NTMxMjE5NDgyNDIyfSx7IngiOjIwMS4xNTg1NDk4ODc2OTI4NiwieSI6MTA1Ni4xNTMxMjE5NDgyNDIyfV0=" data-look="classic" marker-end="url(#gade5825e-45b3-4b69-bff2-ab15531cb090-dark_flowchart-v2-pointEnd)"></path><path d="M409.223,934.701L394.72,948.859C380.218,963.018,351.214,991.336,327.422,1011.228C303.63,1031.12,285.051,1042.586,275.761,1048.319L266.471,1054.052" id="gade5825e-45b3-4b69-bff2-ab15531cb090-dark-L_siteQ_site_0" class="edge-thickness-normal edge-pattern-solid edge-thickness-normal edge-pattern-solid flowchart-link" style=";" data-edge="true" data-et="edge" data-id="L_siteQ_site_0" data-points="W3sieCI6NDA5LjIyMjU1ODY4MzIwNTE0LCJ5Ijo5MzQuNzAwNjc3NTc5Njg5Nn0seyJ4IjozMjIuMjEwMTU5MzAxNzU3OCwieSI6MTAxOS42NTMxMjE5NDgyNDIyfSx7IngiOjI2My4wNjY3OTE0NDU0MTM4NiwieSI6MTA1Ni4xNTMxMjE5NDgyNDIyfV0=" data-look="classic" marker-end="url(#gade5825e-45b3-4b69-bff2-ab15531cb090-dark_flowchart-v2-pointEnd)"></path><path d="M471.525,969.303L472.944,977.695C474.363,986.087,477.2,1002.87,478.619,1018.145C480.038,1033.42,480.038,1047.186,480.038,1054.07L480.038,1060.953" id="gade5825e-45b3-4b69-bff2-ab15531cb090-dark-L_siteQ_coreOnly_0" class="edge-thickness-normal edge-pattern-solid edge-thickness-normal edge-pattern-solid flowchart-link" style=";" data-edge="true" data-et="edge" data-id="L_siteQ_coreOnly_0" data-points="W3sieCI6NDcxLjUyNDcyMzI5OTQwMiwieSI6OTY5LjMwMzQwMTcwMDU5OH0seyJ4Ijo0ODAuMDM4Mjg0MzAxNzU3OCwieSI6MTAxOS42NTMxMjE5NDgyNDIyfSx7IngiOjQ4MC4wMzgyODQzMDE3NTc4LCJ5IjoxMDY0Ljk1MzEyMTE4NTMwMjd9XQ==" data-look="classic" marker-end="url(#gade5825e-45b3-4b69-bff2-ab15531cb090-dark_flowchart-v2-pointEnd)"></path></g><g class="edgeLabels"><g class="edgeLabel"><g class="label" data-id="L_start_docsQ_0" transform="translate(0, 0)"><text y="-10.1" text-anchor="middle"><tspan class="text-outer-tspan row" x="0" y="-0.1em" dy="1.1em" text-anchor="middle"></tspan></text></g></g><g><rect class="background" style="stroke: none"></rect></g><g class="edgeLabel" transform="translate(101.0546875, 359.20936584472656)"><g class="label" data-id="L_docsQ_docs_0" transform="translate(0, -10.5)"><g><rect class="background" style="" x="-13.328125" y="-1" width="26.65625" height="23"></rect><text y="-10.1" text-anchor="middle" style=""><tspan class="text-outer-tspan row" x="0" y="-0.1em" dy="1.1em" text-anchor="middle"><tspan font-style="normal" class="text-inner-tspan" font-weight="normal">Yes</tspan></tspan></text></g></g></g><g class="edgeLabel" transform="translate(344.5734405517578, 359.20936584472656)"><g class="label" data-id="L_docsQ_hostQ_0" transform="translate(0, -10.5)"><g><rect class="background" style="" x="-11.3984375" y="-1" width="22.796875" height="23"></rect><text y="-10.1" text-anchor="middle" style=""><tspan class="text-outer-tspan row" x="0" y="-0.1em" dy="1.1em" text-anchor="middle"><tspan font-style="normal" class="text-inner-tspan" font-weight="normal">No</tspan></tspan></text></g></g></g><g class="edgeLabel" transform="translate(457.6750030517578, 633.1374969482422)"><g class="label" data-id="L_hostQ_core_0" transform="translate(0, -10.5)"><g><rect class="background" style="" x="-13.328125" y="-1" width="26.65625" height="23"></rect><text y="-10.1" text-anchor="middle" style=""><tspan class="text-outer-tspan row" x="0" y="-0.1em" dy="1.1em" text-anchor="middle"><tspan font-style="normal" class="text-inner-tspan" font-weight="normal">Yes</tspan></tspan></text></g></g></g><g class="edgeLabel"><g class="label" data-id="L_core_siteQ_0" transform="translate(0, 0)"><text y="-10.1" text-anchor="middle"><tspan class="text-outer-tspan row" x="0" y="-0.1em" dy="1.1em" text-anchor="middle"></tspan></text></g></g><g><rect class="background" style="stroke: none"></rect></g><g class="edgeLabel" transform="translate(192.4445343017578, 755.1374969482422)"><g class="label" data-id="L_hostQ_site_0" transform="translate(0, -10.5)"><g><rect class="background" style="" x="-11.3984375" y="-1" width="22.796875" height="23"></rect><text y="-10.1" text-anchor="middle" style=""><tspan class="text-outer-tspan row" x="0" y="-0.1em" dy="1.1em" text-anchor="middle"><tspan font-style="normal" class="text-inner-tspan" font-weight="normal">No</tspan></tspan></text></g></g></g><g class="edgeLabel" transform="translate(340.852, 1001.45262)"><g class="label" data-id="L_siteQ_site_0" transform="translate(0, -10.5)"><g><rect class="background" style="" x="-13.328125" y="-1" width="26.65625" height="23"></rect><text y="-10.1" text-anchor="middle" style=""><tspan class="text-outer-tspan row" x="0" y="-0.1em" dy="1.1em" text-anchor="middle"><tspan font-style="normal" class="text-inner-tspan" font-weight="normal">Yes</tspan></tspan></text></g></g></g><g class="edgeLabel" transform="translate(480.0382843017578, 1019.6531219482422)"><g class="label" data-id="L_siteQ_coreOnly_0" transform="translate(0, -10.5)"><g><rect class="background" style="" x="-11.3984375" y="-1" width="22.796875" height="23"></rect><text y="-10.1" text-anchor="middle" style=""><tspan class="text-outer-tspan row" x="0" y="-0.1em" dy="1.1em" text-anchor="middle"><tspan font-style="normal" class="text-inner-tspan" font-weight="normal">No</tspan></tspan></text></g></g></g></g><g class="nodes"><g class="node default" id="gade5825e-45b3-4b69-bff2-ab15531cb090-dark-flowchart-start-0" data-look="classic" transform="translate(222.8140640258789, 25)"><g class="basic label-container outer-path"><path d="M-30.875 -17 C-10.506064111606285 -17, 9.86287177678743 -17, 30.875 -17 C30.875 -17, 30.875 -17, 30.875 -17 C31.259334464841043 -16.9876751417742, 31.643668929682086 -16.9753502835484, 31.96419373967212 -16.965071676755716 C32.202516194169235 -16.942080996195067, 32.44083864866635 -16.919090315634417, 33.0489117486366 -16.860430234995185 C33.37964360921679 -16.806960072640464, 33.710375469796986 -16.753489910285744, 34.124696687923326 -16.686505668848113 C34.456469583125525 -16.610780670538684, 34.78824247832773 -16.53505567222925, 35.18712792646162 -16.4440126716635 C35.4485805516608 -16.36641490489722, 35.71003317685997 -16.28881713813094, 36.23183970640155 -16.133947699181366 C36.608209724843505 -15.995440053268416, 36.98457974328546 -15.856932407355464, 37.25453908294936 -15.757584874882369 C37.511339671778934 -15.643906871926324, 37.76814026060852 -15.530228868970282, 38.25102356499849 -15.316470754341125 C38.58367756617405 -15.142925375002891, 38.916331567349616 -14.969379995664655, 39.21719838406694 -14.812417970097622 C39.46851905484073 -14.660065902550352, 39.71983972561452 -14.50771383500308, 40.149093320579325 -14.247497783161291 C40.45665363085624 -14.032957024783363, 40.76421394113316 -13.818416266405434, 41.042879018350675 -13.624031571755262 C41.219828158353195 -13.482919341417626, 41.396777298355715 -13.34180711107999, 41.8948827202324 -12.944581292275288 C42.18969701415174 -12.676838750896515, 42.48451130807108 -12.409096209517742, 42.70160336025927 -12.21193895166137 C42.891435118754686 -12.015922075537631, 43.0812668772501 -11.81990519941389, 43.45972595028036 -11.42911513444239 C43.630153386987324 -11.228921369690518, 43.80058082369429 -11.028727604938648, 44.16613520195651 -10.59932663159847 C44.37863577091896 -10.314595228388875, 44.59113633988141 -10.029863825179278, 44.81792832814825 -9.725983222076888 C45.00371908279065 -9.44055873114302, 45.18950983743306 -9.155134240209152, 45.41242697109088 -8.812673661278927 C45.52677566486643 -8.609635976419614, 45.64112435864197 -8.406598291560302, 45.947188208341004 -7.863150934094199 C46.04686365613938 -7.656172734027946, 46.146539103937755 -7.449194533961691, 46.42001459126881 -6.881316833080699 C46.5469340805502 -6.567823240734277, 46.673853569831586 -6.254329648387854, 46.828963174845924 -5.871205925162238 C46.95381445502539 -5.4951737616117695, 47.078665735204844 -5.119141598061301, 47.172353501623235 -4.836968972727556 C47.25867621780693 -4.507783043417282, 47.34499893399062 -4.178597114107008, 47.448774507091 -3.7828558772573464 C47.521854117680434 -3.4076075222617574, 47.59493372826987 -3.0323591672661685, 47.65709031804565 -2.713198215567453 C47.69853703451364 -2.391745667221583, 47.73998375098164 -2.0702931188757128, 47.796444920136366 -1.632391440430593 C47.81772755253557 -1.3008972617813064, 47.83901018493478 -0.9694030831320197, 47.8662656754117 -0.5448768187181379 C47.8662656754117 -0.1516859113572076, 47.8662656754117 0.24150499600372266, 47.8662656754117 0.5448768187181336 C47.844038604154974 0.8910813949105999, 47.821811532898245 1.2372859711030662, 47.796444920136366 1.6323914404305815 C47.75155455947127 1.9805522131446653, 47.70666419880619 2.328712985858749, 47.657090318045654 2.7131982155674415 C47.60541569779328 2.9785364691285108, 47.55374107754091 3.2438747226895797, 47.448774507091 3.782855877257343 C47.375397604946116 4.062673806886363, 47.30202070280122 4.342491736515384, 47.172353501623235 4.836968972727545 C47.087676308745955 5.092003186195393, 47.00299911586868 5.3470373996632405, 46.828963174845924 5.871205925162227 C46.701088534785676 6.187058758399026, 46.57321389472542 6.502911591635824, 46.42001459126881 6.881316833080694 C46.29055206617478 7.150148536492729, 46.161089541080756 7.418980239904765, 45.947188208341004 7.863150934094196 C45.746238685464846 8.219957160306501, 45.545289162588695 8.576763386518806, 45.41242697109089 8.812673661278923 C45.28172770945327 9.013462824820191, 45.151028447815655 9.21425198836146, 44.817928328148255 9.725983222076879 C44.61619596066063 9.996286216313539, 44.41446359317301 10.2665892105502, 44.16613520195651 10.599326631598467 C43.915234901546796 10.894048401091249, 43.664334601137085 11.188770170584032, 43.45972595028037 11.42911513444238 C43.23877846201747 11.657261556199973, 43.01783097375456 11.885407977957566, 42.70160336025927 12.211938951661365 C42.52304525434893 12.374100699060545, 42.34448714843859 12.536262446459727, 41.89488272023242 12.944581292275275 C41.60580551295065 13.175112672414928, 41.31672830566888 13.405644052554578, 41.042879018350675 13.62403157175526 C40.84344904849168 13.763145285544647, 40.644019078632674 13.902258999334034, 40.14909332057934 14.247497783161286 C39.847267819560614 14.430466175602364, 39.54544231854189 14.61343456804344, 39.21719838406695 14.81241797009762 C38.930082808594555 14.962205981915265, 38.64296723312216 15.11199399373291, 38.25102356499849 15.316470754341124 C37.87056782037411 15.484887226667656, 37.490112075749735 15.65330369899419, 37.254539082949364 15.757584874882367 C36.893310340184314 15.8905203913818, 36.53208159741926 16.02345590788123, 36.23183970640156 16.133947699181363 C35.81860954259556 16.25659224270959, 35.40537937878957 16.37923678623782, 35.18712792646164 16.444012671663497 C34.78319725784802 16.536207210880605, 34.379266589234405 16.628401750097712, 34.12469668792333 16.68650566884811 C33.71274350297308 16.7531070650462, 33.30079031802284 16.819708461244296, 33.04891174863661 16.86043023499518 C32.6938152527968 16.89468596688283, 32.338718756957 16.928941698770476, 31.96419373967212 16.965071676755716 C31.67631893289934 16.9743032614946, 31.388444126126554 16.983534846233486, 30.875000000000004 17 C30.875000000000004 17, 30.875 17, 30.875 17 C11.223760996732555 17, -8.42747800653489 17, -30.874999999999996 17 C-31.102925996193544 16.99269085693311, -31.330851992387096 16.98538171386622, -31.964193739672112 16.965071676755716 C-32.34857947680799 16.927990446985703, -32.73296521394387 16.89090921721569, -33.048911748636606 16.86043023499518 C-33.45829768630925 16.79424389142763, -33.8676836239819 16.728057547860082, -34.124696687923326 16.68650566884811 C-34.432947003984694 16.6161495457284, -34.74119732004606 16.545793422608693, -35.18712792646162 16.4440126716635 C-35.433143699026516 16.37099648172938, -35.67915947159141 16.297980291795263, -36.231839706401544 16.13394769918137 C-36.54174714014857 16.019898898809547, -36.85165457389561 15.905850098437726, -37.254539082949364 15.757584874882369 C-37.64427966294432 15.585058281362137, -38.03402024293927 15.412531687841906, -38.25102356499848 15.316470754341127 C-38.57847897438443 15.145637477009677, -38.90593438377038 14.974804199678227, -39.21719838406693 14.812417970097624 C-39.53153372546287 14.621866038903901, -39.8458690668588 14.431314107710179, -40.14909332057932 14.247497783161299 C-40.50245944554588 14.001004871357628, -40.855825570512444 13.754511959553959, -41.04287901835067 13.624031571755264 C-41.363843481092026 13.368070953942095, -41.684807943833384 13.112110336128923, -41.8948827202324 12.94458129227529 C-42.105721557538395 12.753103038723928, -42.316560394844394 12.561624785172567, -42.70160336025926 12.211938951661377 C-42.883352457133235 12.024268087260639, -43.06510155400721 11.836597222859902, -43.459725950280365 11.429115134442386 C-43.693165171175 11.15490414251158, -43.92660439206964 10.880693150580775, -44.16613520195651 10.599326631598473 C-44.42179197151927 10.256769851195212, -44.67744874108204 9.914213070791952, -44.81792832814825 9.72598322207689 C-44.98847412687661 9.463979077270848, -45.15901992560497 9.201974932464806, -45.41242697109088 8.812673661278936 C-45.58960630293994 8.498073816228086, -45.766785634789 8.183473971177238, -45.947188208341004 7.863150934094201 C-46.09821225071112 7.5495462787157965, -46.249236293081246 7.235941623337393, -46.42001459126881 6.881316833080701 C-46.55587988829432 6.54572692265087, -46.69174518531983 6.210137012221037, -46.828963174845924 5.87120592516224 C-46.953322996335004 5.496653956883889, -47.07768281782408 5.122101988605538, -47.172353501623235 4.8369689727275516 C-47.23224227771408 4.608587113533411, -47.29213105380492 4.380205254339271, -47.448774507091 3.782855877257349 C-47.531937747440224 3.3558302146211565, -47.61510098778945 2.928804551984964, -47.65709031804565 2.713198215567455 C-47.70879596570374 2.3121794227662877, -47.76050161336184 1.9111606299651205, -47.796444920136366 1.6323914404306026 C-47.818110677042206 1.2949297883379407, -47.839776433948046 0.9574681362452787, -47.8662656754117 0.54487681871814 C-47.8662656754117 0.3240299467275043, -47.8662656754117 0.10318307473686866, -47.8662656754117 -0.5448768187181317 C-47.842613637257024 -0.9132764045586694, -47.81896159910235 -1.2816759903992074, -47.796444920136366 -1.6323914404305793 C-47.760791383747744 -1.9089132280736214, -47.72513784735913 -2.1854350157166635, -47.657090318045654 -2.713198215567447 C-47.597661295756495 -3.0183536846939654, -47.53823227346734 -3.3235091538204835, -47.448774507091 -3.782855877257341 C-47.349975405364475 -4.159619671942148, -47.25117630363795 -4.536383466626956, -47.172353501623235 -4.836968972727544 C-47.087442412399554 -5.092707644724436, -47.00253132317587 -5.34844631672133, -46.82896317484593 -5.871205925162218 C-46.66815274542901 -6.2684107948801575, -46.507342316012085 -6.665615664598098, -46.42001459126881 -6.881316833080692 C-46.27450716801056 -7.183466110836554, -46.12899974475231 -7.485615388592416, -45.947188208341004 -7.863150934094194 C-45.79441819296353 -8.134409566038416, -45.64164817758606 -8.405668197982639, -45.41242697109088 -8.812673661278929 C-45.21777580933453 -9.111710116892262, -45.023124647578186 -9.410746572505595, -44.81792832814825 -9.725983222076884 C-44.622608843725075 -9.987693537232845, -44.42728935930191 -10.249403852388806, -44.16613520195651 -10.599326631598467 C-43.98301325622556 -10.814432088987935, -43.799891310494615 -11.029537546377401, -43.45972595028037 -11.42911513444238 C-43.29375612355401 -11.600492606913535, -43.12778629682765 -11.77187007938469, -42.70160336025928 -12.21193895166136 C-42.520057545975064 -12.376814056755258, -42.33851173169085 -12.541689161849158, -41.89488272023242 -12.944581292275274 C-41.70141026352419 -13.098870427981787, -41.50793780681596 -13.253159563688302, -41.042879018350675 -13.624031571755259 C-40.70550543435698 -13.859368779282198, -40.368131850363284 -14.094705986809135, -40.14909332057934 -14.247497783161284 C-39.83603582934339 -14.437275074078544, -39.522978338107436 -14.627052364995803, -39.21719838406695 -14.812417970097618 C-38.90109943306113 -14.977326590366312, -38.585000482055314 -15.142235210635006, -38.25102356499849 -15.316470754341124 C-38.009350536765226 -15.423452234964323, -37.76767750853195 -15.530433715587522, -37.25453908294937 -15.757584874882365 C-37.03537913990486 -15.838237759815051, -36.816219196860345 -15.918890644747737, -36.231839706401566 -16.133947699181363 C-35.92177733783262 -16.22597258262204, -35.61171496926369 -16.317997466062714, -35.18712792646164 -16.444012671663494 C-34.938910095443404 -16.500666771820683, -34.69069226442516 -16.557320871977875, -34.12469668792333 -16.68650566884811 C-33.817039023894345 -16.7362453740475, -33.509381359865365 -16.785985079246885, -33.04891174863661 -16.86043023499518 C-32.64669574913846 -16.899231528731256, -32.24447974964031 -16.93803282246733, -31.96419373967212 -16.965071676755716 C-31.64974999689871 -16.975155275558844, -31.335306254125303 -16.985238874361972, -30.875000000000004 -17 C-30.875000000000004 -17, -30.875 -17, -30.875 -17" stroke="none" stroke-width="0" fill="#2d2d2d" style=""></path><path d="M-30.875 -17 C-14.976040934594232 -17, 0.9229181308115351 -17, 30.875 -17 M-30.875 -17 C-8.375625361226685 -17, 14.12374927754663 -17, 30.875 -17 M30.875 -17 C30.875 -17, 30.875 -17, 30.875 -17 M30.875 -17 C30.875 -17, 30.875 -17, 30.875 -17 M30.875 -17 C31.11733719084943 -16.992228717970185, 31.359674381698863 -16.98445743594037, 31.96419373967212 -16.965071676755716 M30.875 -17 C31.23464321250926 -16.988466942177872, 31.594286425018517 -16.97693388435575, 31.96419373967212 -16.965071676755716 M31.96419373967212 -16.965071676755716 C32.269649525064956 -16.9356047245032, 32.57510531045779 -16.90613777225068, 33.0489117486366 -16.860430234995185 M31.96419373967212 -16.965071676755716 C32.18213597272172 -16.944047051647306, 32.40007820577132 -16.923022426538896, 33.0489117486366 -16.860430234995185 M33.0489117486366 -16.860430234995185 C33.35551283460501 -16.810861349142748, 33.66211392057342 -16.761292463290307, 34.124696687923326 -16.686505668848113 M33.0489117486366 -16.860430234995185 C33.41209143472705 -16.80171415984861, 33.77527112081751 -16.742998084702037, 34.124696687923326 -16.686505668848113 M34.124696687923326 -16.686505668848113 C34.44007890531502 -16.61452173578976, 34.75546112270671 -16.542537802731413, 35.18712792646162 -16.4440126716635 M34.124696687923326 -16.686505668848113 C34.5080205536985 -16.59901449790692, 34.891344419473675 -16.511523326965733, 35.18712792646162 -16.4440126716635 M35.18712792646162 -16.4440126716635 C35.52180421388325 -16.34468250630844, 35.85648050130488 -16.245352340953385, 36.23183970640155 -16.133947699181366 M35.18712792646162 -16.4440126716635 C35.47783150619591 -16.357733375132593, 35.768535085930196 -16.271454078601685, 36.23183970640155 -16.133947699181366 M36.23183970640155 -16.133947699181366 C36.4612123323779 -16.04953645252476, 36.69058495835425 -15.96512520586815, 37.25453908294936 -15.757584874882369 M36.23183970640155 -16.133947699181366 C36.49643440917592 -16.03657440267378, 36.761029111950286 -15.939201106166191, 37.25453908294936 -15.757584874882369 M37.25453908294936 -15.757584874882369 C37.49396247339587 -15.651599242174235, 37.73338586384238 -15.5456136094661, 38.25102356499849 -15.316470754341125 M37.25453908294936 -15.757584874882369 C37.55536201712295 -15.624419485519008, 37.85618495129654 -15.491254096155645, 38.25102356499849 -15.316470754341125 M38.25102356499849 -15.316470754341125 C38.601966088432455 -15.133384264655042, 38.95290861186641 -14.950297774968957, 39.21719838406694 -14.812417970097622 M38.25102356499849 -15.316470754341125 C38.60488788436078 -15.131859965590735, 38.95875220372306 -14.947249176840344, 39.21719838406694 -14.812417970097622 M39.21719838406694 -14.812417970097622 C39.52621254253816 -14.625091771263603, 39.835226701009375 -14.437765572429585, 40.149093320579325 -14.247497783161291 M39.21719838406694 -14.812417970097622 C39.44149835229718 -14.676446011223524, 39.66579832052743 -14.540474052349426, 40.149093320579325 -14.247497783161291 M40.149093320579325 -14.247497783161291 C40.33059836365102 -14.120887722341154, 40.51210340672272 -13.994277661521016, 41.042879018350675 -13.624031571755262 M40.149093320579325 -14.247497783161291 C40.38975552270593 -14.07962224905659, 40.63041772483254 -13.911746714951889, 41.042879018350675 -13.624031571755262 M41.042879018350675 -13.624031571755262 C41.35990397046938 -13.371212608828877, 41.67692892258808 -13.118393645902492, 41.8948827202324 -12.944581292275288 M41.042879018350675 -13.624031571755262 C41.33592612558046 -13.39033430205054, 41.628973232810246 -13.156637032345818, 41.8948827202324 -12.944581292275288 M41.8948827202324 -12.944581292275288 C42.214929410406995 -12.653923356230111, 42.534976100581595 -12.363265420184934, 42.70160336025927 -12.21193895166137 M41.8948827202324 -12.944581292275288 C42.18103359827696 -12.684706635972567, 42.46718447632152 -12.424831979669845, 42.70160336025927 -12.21193895166137 M42.70160336025927 -12.21193895166137 C42.98897976493167 -11.915199219795504, 43.276356169604064 -11.618459487929638, 43.45972595028036 -11.42911513444239 M42.70160336025927 -12.21193895166137 C42.96505966944204 -11.939898682264909, 43.228515978624806 -11.66785841286845, 43.45972595028036 -11.42911513444239 M43.45972595028036 -11.42911513444239 C43.706101529318246 -11.139708360136893, 43.952477108356135 -10.850301585831396, 44.16613520195651 -10.59932663159847 M43.45972595028036 -11.42911513444239 C43.632160639995284 -11.22656353609144, 43.8045953297102 -11.024011937740493, 44.16613520195651 -10.59932663159847 M44.16613520195651 -10.59932663159847 C44.30707393452415 -10.410481569740512, 44.44801266709178 -10.221636507882552, 44.81792832814825 -9.725983222076888 M44.16613520195651 -10.59932663159847 C44.39330176656919 -10.29494413031726, 44.62046833118187 -9.990561629036048, 44.81792832814825 -9.725983222076888 M44.81792832814825 -9.725983222076888 C45.03897894302576 -9.386390117223693, 45.26002955790327 -9.046797012370495, 45.41242697109088 -8.812673661278927 M44.81792832814825 -9.725983222076888 C45.03654875717155 -9.390123535292028, 45.255169186194856 -9.054263848507167, 45.41242697109088 -8.812673661278927 M45.41242697109088 -8.812673661278927 C45.52048542360082 -8.620804936742697, 45.628543876110754 -8.42893621220647, 45.947188208341004 -7.863150934094199 M45.41242697109088 -8.812673661278927 C45.58487246251408 -8.506479229257524, 45.757317953937275 -8.20028479723612, 45.947188208341004 -7.863150934094199 M45.947188208341004 -7.863150934094199 C46.126305280922594 -7.491210500387121, 46.30542235350419 -7.119270066680041, 46.42001459126881 -6.881316833080699 M45.947188208341004 -7.863150934094199 C46.067988236553624 -7.6123070908041495, 46.188788264766245 -7.3614632475140995, 46.42001459126881 -6.881316833080699 M46.42001459126881 -6.881316833080699 C46.55526853332209 -6.547236981252025, 46.69052247537537 -6.213157129423351, 46.828963174845924 -5.871205925162238 M46.42001459126881 -6.881316833080699 C46.540042315985744 -6.584846032451678, 46.66007004070268 -6.288375231822659, 46.828963174845924 -5.871205925162238 M46.828963174845924 -5.871205925162238 C46.9430799485046 -5.527504384941036, 47.05719672216327 -5.183802844719834, 47.172353501623235 -4.836968972727556 M46.828963174845924 -5.871205925162238 C46.899932272025595 -5.657458311847126, 46.97090136920527 -5.443710698532014, 47.172353501623235 -4.836968972727556 M47.172353501623235 -4.836968972727556 C47.26199435481029 -4.495129548933775, 47.35163520799735 -4.1532901251399945, 47.448774507091 -3.7828558772573464 M47.172353501623235 -4.836968972727556 C47.2722935551566 -4.455854234311644, 47.37223360868996 -4.074739495895733, 47.448774507091 -3.7828558772573464 M47.448774507091 -3.7828558772573464 C47.496949741068406 -3.535486232622666, 47.545124975045816 -3.288116587987986, 47.65709031804565 -2.713198215567453 M47.448774507091 -3.7828558772573464 C47.52911320679659 -3.3703336338593655, 47.609451906502166 -2.9578113904613845, 47.65709031804565 -2.713198215567453 M47.65709031804565 -2.713198215567453 C47.70851734580599 -2.3143403436735643, 47.75994437356632 -1.915482471779676, 47.796444920136366 -1.632391440430593 M47.65709031804565 -2.713198215567453 C47.705675457315884 -2.3363814696083987, 47.75426059658613 -1.9595647236493443, 47.796444920136366 -1.632391440430593 M47.796444920136366 -1.632391440430593 C47.81138912028055 -1.3996234604436797, 47.82633332042474 -1.1668554804567666, 47.8662656754117 -0.5448768187181379 M47.796444920136366 -1.632391440430593 C47.821355939184684 -1.2443822109404288, 47.846266958233 -0.8563729814502645, 47.8662656754117 -0.5448768187181379 M47.8662656754117 -0.5448768187181379 C47.8662656754117 -0.1344336319160192, 47.8662656754117 0.27600955488609946, 47.8662656754117 0.5448768187181336 M47.8662656754117 -0.5448768187181379 C47.8662656754117 -0.11813283009659048, 47.8662656754117 0.3086111585249569, 47.8662656754117 0.5448768187181336 M47.8662656754117 0.5448768187181336 C47.84569548336474 0.8652741638095656, 47.82512529131779 1.1856715089009975, 47.796444920136366 1.6323914404305815 M47.8662656754117 0.5448768187181336 C47.84555522223244 0.8674588441619091, 47.824844769053186 1.1900408696056846, 47.796444920136366 1.6323914404305815 M47.796444920136366 1.6323914404305815 C47.76754159084953 1.8565599547713483, 47.73863826156269 2.080728469112115, 47.657090318045654 2.7131982155674415 M47.796444920136366 1.6323914404305815 C47.755492413866754 1.950010992070626, 47.71453990759715 2.26763054371067, 47.657090318045654 2.7131982155674415 M47.657090318045654 2.7131982155674415 C47.59207032503792 3.0470621376817486, 47.52705033203019 3.3809260597960558, 47.448774507091 3.782855877257343 M47.657090318045654 2.7131982155674415 C47.59398033148668 3.037254658247423, 47.53087034492769 3.3613111009274044, 47.448774507091 3.782855877257343 M47.448774507091 3.782855877257343 C47.367530059526324 4.09267616738777, 47.286285611961645 4.402496457518199, 47.172353501623235 4.836968972727545 M47.448774507091 3.782855877257343 C47.37714650434273 4.0560044955092724, 47.305518501594456 4.329153113761203, 47.172353501623235 4.836968972727545 M47.172353501623235 4.836968972727545 C47.099623132732184 5.056021255816779, 47.02689276384114 5.275073538906012, 46.828963174845924 5.871205925162227 M47.172353501623235 4.836968972727545 C47.03651748869634 5.2460854011338025, 46.900681475769446 5.65520182954006, 46.828963174845924 5.871205925162227 M46.828963174845924 5.871205925162227 C46.7029554809895 6.1824473651806136, 46.576947787133086 6.493688805199, 46.42001459126881 6.881316833080694 M46.828963174845924 5.871205925162227 C46.74108348389314 6.088270460853834, 46.65320379294037 6.305334996545442, 46.42001459126881 6.881316833080694 M46.42001459126881 6.881316833080694 C46.259447913785166 7.214736974452013, 46.09888123630152 7.54815711582333, 45.947188208341004 7.863150934094196 M46.42001459126881 6.881316833080694 C46.3119276442274 7.105761691302361, 46.203840697185996 7.330206549524028, 45.947188208341004 7.863150934094196 M45.947188208341004 7.863150934094196 C45.79193571082876 8.138817464447284, 45.63668321331652 8.414483994800372, 45.41242697109089 8.812673661278923 M45.947188208341004 7.863150934094196 C45.80960893130404 8.107436871885788, 45.672029654267085 8.351722809677382, 45.41242697109089 8.812673661278923 M45.41242697109089 8.812673661278923 C45.23992971145259 9.07767577408325, 45.0674324518143 9.342677886887577, 44.817928328148255 9.725983222076879 M45.41242697109089 8.812673661278923 C45.24464275427479 9.070435274679152, 45.07685853745869 9.328196888079383, 44.817928328148255 9.725983222076879 M44.817928328148255 9.725983222076879 C44.68515319747109 9.903889801121043, 44.55237806679391 10.081796380165207, 44.16613520195651 10.599326631598467 M44.817928328148255 9.725983222076879 C44.57469077011695 10.051899390441424, 44.33145321208565 10.37781555880597, 44.16613520195651 10.599326631598467 M44.16613520195651 10.599326631598467 C43.93216435930753 10.87416209669206, 43.69819351665854 11.148997561785654, 43.45972595028037 11.42911513444238 M44.16613520195651 10.599326631598467 C43.971792746186054 10.827612338545448, 43.7774502904156 11.055898045492428, 43.45972595028037 11.42911513444238 M43.45972595028037 11.42911513444238 C43.20298989396597 11.694216191009229, 42.94625383765156 11.95931724757608, 42.70160336025927 12.211938951661365 M43.45972595028037 11.42911513444238 C43.21543583140711 11.681364738770778, 42.971145712533854 11.933614343099176, 42.70160336025927 12.211938951661365 M42.70160336025927 12.211938951661365 C42.517230245015334 12.379381736680598, 42.3328571297714 12.54682452169983, 41.89488272023242 12.944581292275275 M42.70160336025927 12.211938951661365 C42.44646609956357 12.443647861263202, 42.191328838867875 12.675356770865038, 41.89488272023242 12.944581292275275 M41.89488272023242 12.944581292275275 C41.70182850571015 13.098536890968383, 41.50877429118787 13.252492489661492, 41.042879018350675 13.62403157175526 M41.89488272023242 12.944581292275275 C41.601658639545775 13.178419693602377, 41.30843455885914 13.412258094929477, 41.042879018350675 13.62403157175526 M41.042879018350675 13.62403157175526 C40.80347835199453 13.791027113117492, 40.56407768563838 13.958022654479723, 40.14909332057934 14.247497783161286 M41.042879018350675 13.62403157175526 C40.84721859531963 13.760515812858516, 40.65155817228859 13.897000053961774, 40.14909332057934 14.247497783161286 M40.14909332057934 14.247497783161286 C39.94924853374775 14.368644867356924, 39.74940374691615 14.489791951552561, 39.21719838406695 14.81241797009762 M40.14909332057934 14.247497783161286 C39.823470141841966 14.444892467686083, 39.49784696310459 14.64228715221088, 39.21719838406695 14.81241797009762 M39.21719838406695 14.81241797009762 C38.949821589641694 14.951908272486264, 38.68244479521644 15.091398574874908, 38.25102356499849 15.316470754341124 M39.21719838406695 14.81241797009762 C38.86029639584794 14.998613508744842, 38.503394407628925 15.184809047392067, 38.25102356499849 15.316470754341124 M38.25102356499849 15.316470754341124 C37.957820475658494 15.446263064431319, 37.6646173863185 15.576055374521514, 37.254539082949364 15.757584874882367 M38.25102356499849 15.316470754341124 C37.988483473505624 15.43268946486991, 37.72594338201275 15.548908175398696, 37.254539082949364 15.757584874882367 M37.254539082949364 15.757584874882367 C36.931484588958654 15.876471914953953, 36.60843009496795 15.99535895502554, 36.23183970640156 16.133947699181363 M37.254539082949364 15.757584874882367 C37.02525939079713 15.841961921032627, 36.795979698644906 15.92633896718289, 36.23183970640156 16.133947699181363 M36.23183970640156 16.133947699181363 C35.81856889653221 16.256604306247837, 35.405298086662874 16.37926091331431, 35.18712792646164 16.444012671663497 M36.23183970640156 16.133947699181363 C35.87270370117068 16.24053738039053, 35.51356769593979 16.347127061599696, 35.18712792646164 16.444012671663497 M35.18712792646164 16.444012671663497 C34.87455392581255 16.515355647575674, 34.56197992516345 16.586698623487855, 34.12469668792333 16.68650566884811 M35.18712792646164 16.444012671663497 C34.9644189560884 16.49484454083934, 34.74170998571516 16.54567641001518, 34.12469668792333 16.68650566884811 M34.12469668792333 16.68650566884811 C33.71608965944474 16.752566084417698, 33.30748263096614 16.818626499987285, 33.04891174863661 16.86043023499518 M34.12469668792333 16.68650566884811 C33.756803181880116 16.745983837848428, 33.3889096758369 16.805462006848746, 33.04891174863661 16.86043023499518 M33.04891174863661 16.86043023499518 C32.79949558116012 16.88449111270481, 32.55007941368363 16.90855199041444, 31.96419373967212 16.965071676755716 M33.04891174863661 16.86043023499518 C32.67516553964179 16.896485082281334, 32.301419330646965 16.932539929567483, 31.96419373967212 16.965071676755716 M31.96419373967212 16.965071676755716 C31.670301791019423 16.974496219523033, 31.37640984236673 16.98392076229035, 30.875000000000004 17 M31.96419373967212 16.965071676755716 C31.611455404269282 16.97638330860857, 31.258717068866446 16.987694940461417, 30.875000000000004 17 M30.875000000000004 17 C30.875000000000004 17, 30.875 17, 30.875 17 M30.875000000000004 17 C30.875000000000004 17, 30.875000000000004 17, 30.875 17 M30.875 17 C18.196121459550394 17, 5.517242919100788 17, -30.874999999999996 17 M30.875 17 C6.234282686885358 17, -18.406434626229284 17, -30.874999999999996 17 M-30.874999999999996 17 C-31.145130435800617 16.99133744270087, -31.415260871601237 16.98267488540174, -31.964193739672112 16.965071676755716 M-30.874999999999996 17 C-31.240742377929937 16.988271353814138, -31.606484755859874 16.976542707628276, -31.964193739672112 16.965071676755716 M-31.964193739672112 16.965071676755716 C-32.273219976488065 16.935260287348505, -32.582246213304025 16.905448897941298, -33.048911748636606 16.86043023499518 M-31.964193739672112 16.965071676755716 C-32.247709730345576 16.93772123011331, -32.53122572101904 16.91037078347091, -33.048911748636606 16.86043023499518 M-33.048911748636606 16.86043023499518 C-33.28658414377459 16.822005205326224, -33.52425653891257 16.783580175657267, -34.124696687923326 16.68650566884811 M-33.048911748636606 16.86043023499518 C-33.43331669967396 16.79828262361638, -33.81772165071131 16.73613501223758, -34.124696687923326 16.68650566884811 M-34.124696687923326 16.68650566884811 C-34.417946465629946 16.619573320720214, -34.711196243336566 16.552640972592314, -35.18712792646162 16.4440126716635 M-34.124696687923326 16.68650566884811 C-34.50173833095167 16.600448374253553, -34.87877997398 16.514391079658992, -35.18712792646162 16.4440126716635 M-35.18712792646162 16.4440126716635 C-35.41737630133327 16.375676162599976, -35.64762467620492 16.307339653536456, -36.231839706401544 16.13394769918137 M-35.18712792646162 16.4440126716635 C-35.407770126097574 16.37852722498609, -35.62841232573353 16.31304177830868, -36.231839706401544 16.13394769918137 M-36.231839706401544 16.13394769918137 C-36.55151273084963 16.01630507115943, -36.87118575529772 15.898662443137491, -37.254539082949364 15.757584874882369 M-36.231839706401544 16.13394769918137 C-36.44057270809733 16.057132025050606, -36.64930570979311 15.98031635091984, -37.254539082949364 15.757584874882369 M-37.254539082949364 15.757584874882369 C-37.64683713486501 15.583926164407556, -38.039135186780655 15.410267453932743, -38.25102356499848 15.316470754341127 M-37.254539082949364 15.757584874882369 C-37.616601190901875 15.597310719882627, -37.97866329885438 15.437036564882884, -38.25102356499848 15.316470754341127 M-38.25102356499848 15.316470754341127 C-38.62369943263413 15.122045992905896, -38.996375300269776 14.927621231470665, -39.21719838406693 14.812417970097624 M-38.25102356499848 15.316470754341127 C-38.57202043504277 15.149006892847334, -38.89301730508704 14.98154303135354, -39.21719838406693 14.812417970097624 M-39.21719838406693 14.812417970097624 C-39.41109270448529 14.69487809361051, -39.60498702490365 14.577338217123398, -40.14909332057932 14.247497783161299 M-39.21719838406693 14.812417970097624 C-39.434745286271664 14.680539759533614, -39.652292188476395 14.548661548969603, -40.14909332057932 14.247497783161299 M-40.14909332057932 14.247497783161299 C-40.43415945769371 14.048647986224482, -40.7192255948081 13.849798189287664, -41.04287901835067 13.624031571755264 M-40.14909332057932 14.247497783161299 C-40.43405569838233 14.048720364228434, -40.71901807618534 13.849942945295568, -41.04287901835067 13.624031571755264 M-41.04287901835067 13.624031571755264 C-41.28208160360993 13.433273875459125, -41.5212841888692 13.242516179162989, -41.8948827202324 12.94458129227529 M-41.04287901835067 13.624031571755264 C-41.34232420564098 13.385232003462336, -41.64176939293129 13.146432435169409, -41.8948827202324 12.94458129227529 M-41.8948827202324 12.94458129227529 C-42.11198205746289 12.747417418336259, -42.32908139469337 12.550253544397227, -42.70160336025926 12.211938951661377 M-41.8948827202324 12.94458129227529 C-42.07206895037582 12.783665446149787, -42.24925518051924 12.622749600024283, -42.70160336025926 12.211938951661377 M-42.70160336025926 12.211938951661377 C-42.93663216246807 11.969252417157263, -43.171660964676875 11.726565882653148, -43.459725950280365 11.429115134442386 M-42.70160336025926 12.211938951661377 C-42.90376701601446 12.003188379149314, -43.10593067176967 11.79443780663725, -43.459725950280365 11.429115134442386 M-43.459725950280365 11.429115134442386 C-43.636233333721115 11.221779518298241, -43.812740717161866 11.014443902154095, -44.16613520195651 10.599326631598473 M-43.459725950280365 11.429115134442386 C-43.71448967832768 11.129855163011214, -43.969253406374996 10.830595191580045, -44.16613520195651 10.599326631598473 M-44.16613520195651 10.599326631598473 C-44.37883200430371 10.314332293530542, -44.591528806650906 10.029337955462612, -44.81792832814825 9.72598322207689 M-44.16613520195651 10.599326631598473 C-44.319665613860344 10.393609866555593, -44.47319602576418 10.187893101512712, -44.81792832814825 9.72598322207689 M-44.81792832814825 9.72598322207689 C-44.996946354375375 9.450963460721118, -45.1759643806025 9.175943699365348, -45.41242697109088 8.812673661278936 M-44.81792832814825 9.72598322207689 C-44.95591093235999 9.51400488849044, -45.093893536571734 9.302026554903993, -45.41242697109088 8.812673661278936 M-45.41242697109088 8.812673661278936 C-45.52981048409123 8.604247347577209, -45.647193997091584 8.395821033875484, -45.947188208341004 7.863150934094201 M-45.41242697109088 8.812673661278936 C-45.565849859593 8.540255786991327, -45.719272748095115 8.267837912703719, -45.947188208341004 7.863150934094201 M-45.947188208341004 7.863150934094201 C-46.13404434564033 7.475140166911279, -46.32090048293967 7.087129399728356, -46.42001459126881 6.881316833080701 M-45.947188208341004 7.863150934094201 C-46.11887613752822 7.506637275603748, -46.29056406671544 7.150123617113295, -46.42001459126881 6.881316833080701 M-46.42001459126881 6.881316833080701 C-46.55314047465564 6.552493327301364, -46.686266358042474 6.2236698215220265, -46.828963174845924 5.87120592516224 M-46.42001459126881 6.881316833080701 C-46.56522874471883 6.522635066534488, -46.71044289816885 6.163953299988275, -46.828963174845924 5.87120592516224 M-46.828963174845924 5.87120592516224 C-46.94714774238453 5.5152528378896175, -47.065332309923136 5.159299750616996, -47.172353501623235 4.8369689727275516 M-46.828963174845924 5.87120592516224 C-46.904923572187975 5.6424253110137395, -46.98088396953002 5.41364469686524, -47.172353501623235 4.8369689727275516 M-47.172353501623235 4.8369689727275516 C-47.24487156135658 4.5604261814384035, -47.31738962108992 4.283883390149255, -47.448774507091 3.782855877257349 M-47.172353501623235 4.8369689727275516 C-47.281167310213874 4.42201476036848, -47.38998111880451 4.007060548009408, -47.448774507091 3.782855877257349 M-47.448774507091 3.782855877257349 C-47.49624884433675 3.5390851892051662, -47.54372318158249 3.2953145011529834, -47.65709031804565 2.713198215567455 M-47.448774507091 3.782855877257349 C-47.49122945539593 3.5648586905680517, -47.53368440370085 3.346861503878754, -47.65709031804565 2.713198215567455 M-47.65709031804565 2.713198215567455 C-47.7011185781047 2.371723724912812, -47.74514683816375 2.030249234258169, -47.796444920136366 1.6323914404306026 M-47.65709031804565 2.713198215567455 C-47.699582968349695 2.3836336109321765, -47.74207561865374 2.054069006296898, -47.796444920136366 1.6323914404306026 M-47.796444920136366 1.6323914404306026 C-47.81260521214931 1.3806818479761716, -47.82876550416224 1.1289722555217407, -47.8662656754117 0.54487681871814 M-47.796444920136366 1.6323914404306026 C-47.81450132391798 1.3511483766652275, -47.83255772769959 1.0699053128998524, -47.8662656754117 0.54487681871814 M-47.8662656754117 0.54487681871814 C-47.8662656754117 0.3219267940011174, -47.8662656754117 0.09897676928409482, -47.8662656754117 -0.5448768187181317 M-47.8662656754117 0.54487681871814 C-47.8662656754117 0.17623496740692413, -47.8662656754117 -0.19240688390429173, -47.8662656754117 -0.5448768187181317 M-47.8662656754117 -0.5448768187181317 C-47.84759629378499 -0.8356675072077303, -47.82892691215827 -1.126458195697329, -47.796444920136366 -1.6323914404305793 M-47.8662656754117 -0.5448768187181317 C-47.8503588485696 -0.792638486543261, -47.83445202172751 -1.0404001543683905, -47.796444920136366 -1.6323914404305793 M-47.796444920136366 -1.6323914404305793 C-47.75789480523602 -1.931378519016424, -47.71934469033568 -2.230365597602269, -47.657090318045654 -2.713198215567447 M-47.796444920136366 -1.6323914404305793 C-47.75665537414079 -1.940991301837713, -47.71686582814521 -2.2495911632448466, -47.657090318045654 -2.713198215567447 M-47.657090318045654 -2.713198215567447 C-47.59775524964154 -3.017871251351428, -47.53842018123743 -3.322544287135409, -47.448774507091 -3.782855877257341 M-47.657090318045654 -2.713198215567447 C-47.5881877391017 -3.066998395879448, -47.51928516015774 -3.4207985761914483, -47.448774507091 -3.782855877257341 M-47.448774507091 -3.782855877257341 C-47.35901192689761 -4.1251594988831135, -47.26924934670421 -4.467463120508887, -47.172353501623235 -4.836968972727544 M-47.448774507091 -3.782855877257341 C-47.36029264176841 -4.120275578015408, -47.27181077644581 -4.457695278773476, -47.172353501623235 -4.836968972727544 M-47.172353501623235 -4.836968972727544 C-47.06561270660976 -5.158455240472009, -46.95887191159629 -5.479941508216476, -46.82896317484593 -5.871205925162218 M-47.172353501623235 -4.836968972727544 C-47.06968762714137 -5.146182229081226, -46.967021752659505 -5.455395485434908, -46.82896317484593 -5.871205925162218 M-46.82896317484593 -5.871205925162218 C-46.66687813509131 -6.271559107057184, -46.504793095336694 -6.671912288952151, -46.42001459126881 -6.881316833080692 M-46.82896317484593 -5.871205925162218 C-46.721428646311665 -6.1368182896805195, -46.613894117777406 -6.402430654198821, -46.42001459126881 -6.881316833080692 M-46.42001459126881 -6.881316833080692 C-46.25616858193635 -7.2215465772025365, -46.09232257260389 -7.5617763213243805, -45.947188208341004 -7.863150934094194 M-46.42001459126881 -6.881316833080692 C-46.31242779707634 -7.104723113209988, -46.20484100288387 -7.328129393339283, -45.947188208341004 -7.863150934094194 M-45.947188208341004 -7.863150934094194 C-45.76903957772444 -8.179471867258888, -45.59089094710788 -8.495792800423581, -45.41242697109088 -8.812673661278929 M-45.947188208341004 -7.863150934094194 C-45.788351693147014 -8.145181250762368, -45.629515177953024 -8.427211567430543, -45.41242697109088 -8.812673661278929 M-45.41242697109088 -8.812673661278929 C-45.20117792892658 -9.137208918353823, -44.989928886762286 -9.461744175428716, -44.81792832814825 -9.725983222076884 M-45.41242697109088 -8.812673661278929 C-45.22274772687343 -9.104071916405715, -45.033068482655985 -9.395470171532503, -44.81792832814825 -9.725983222076884 M-44.81792832814825 -9.725983222076884 C-44.626752514709494 -9.982141395609924, -44.43557670127073 -10.238299569142963, -44.16613520195651 -10.599326631598467 M-44.81792832814825 -9.725983222076884 C-44.641131752914106 -9.962874526391289, -44.46433517767996 -10.199765830705692, -44.16613520195651 -10.599326631598467 M-44.16613520195651 -10.599326631598467 C-44.01959400238248 -10.771462263048592, -43.87305280280845 -10.943597894498717, -43.45972595028037 -11.42911513444238 M-44.16613520195651 -10.599326631598467 C-43.97015219480753 -10.82953942354468, -43.77416918765855 -11.059752215490892, -43.45972595028037 -11.42911513444238 M-43.45972595028037 -11.42911513444238 C-43.22271617268361 -11.673847188675659, -42.98570639508685 -11.918579242908937, -42.70160336025928 -12.21193895166136 M-43.45972595028037 -11.42911513444238 C-43.269157280831436 -11.625892931627146, -43.07858861138249 -11.82267072881191, -42.70160336025928 -12.21193895166136 M-42.70160336025928 -12.21193895166136 C-42.46118103394812 -12.430284147190978, -42.220758707636975 -12.648629342720598, -41.89488272023242 -12.944581292275274 M-42.70160336025928 -12.21193895166136 C-42.42601431739267 -12.462221628706313, -42.15042527452606 -12.712504305751267, -41.89488272023242 -12.944581292275274 M-41.89488272023242 -12.944581292275274 C-41.56390587966404 -13.208526514964925, -41.232929039095666 -13.472471737654578, -41.042879018350675 -13.624031571755259 M-41.89488272023242 -12.944581292275274 C-41.702136691086636 -13.098291121331783, -41.50939066194086 -13.252000950388293, -41.042879018350675 -13.624031571755259 M-41.042879018350675 -13.624031571755259 C-40.752783062976235 -13.826389952172963, -40.46268710760179 -14.028748332590668, -40.14909332057934 -14.247497783161284 M-41.042879018350675 -13.624031571755259 C-40.710605151131276 -13.855811437623627, -40.378331283911876 -14.087591303491998, -40.14909332057934 -14.247497783161284 M-40.14909332057934 -14.247497783161284 C-39.82526932162605 -14.443801794327817, -39.501445322672765 -14.640105805494349, -39.21719838406695 -14.812417970097618 M-40.14909332057934 -14.247497783161284 C-39.78840083019794 -14.46615169049484, -39.42770833981655 -14.684805597828396, -39.21719838406695 -14.812417970097618 M-39.21719838406695 -14.812417970097618 C-38.94252439841414 -14.955715212475601, -38.66785041276134 -15.099012454853582, -38.25102356499849 -15.316470754341124 M-39.21719838406695 -14.812417970097618 C-38.89687952480451 -14.979528113800807, -38.57656066554208 -15.146638257503998, -38.25102356499849 -15.316470754341124 M-38.25102356499849 -15.316470754341124 C-37.86372234008271 -15.487917517728704, -37.47642111516693 -15.659364281116282, -37.25453908294937 -15.757584874882365 M-38.25102356499849 -15.316470754341124 C-37.93571136750887 -15.456050110765766, -37.62039917001926 -15.595629467190406, -37.25453908294937 -15.757584874882365 M-37.25453908294937 -15.757584874882365 C-36.856655882193735 -15.90400957075243, -36.45877268143809 -16.050434266622496, -36.231839706401566 -16.133947699181363 M-37.25453908294937 -15.757584874882365 C-36.93461647192663 -15.875319353070932, -36.614693860903884 -15.9930538312595, -36.231839706401566 -16.133947699181363 M-36.231839706401566 -16.133947699181363 C-35.843301467741384 -16.24926380893687, -35.45476322908121 -16.364579918692378, -35.18712792646164 -16.444012671663494 M-36.231839706401566 -16.133947699181363 C-35.91304548209196 -16.228564151571423, -35.59425125778235 -16.323180603961482, -35.18712792646164 -16.444012671663494 M-35.18712792646164 -16.444012671663494 C-34.855973959279204 -16.519596403691295, -34.52481999209677 -16.595180135719097, -34.12469668792333 -16.68650566884811 M-35.18712792646164 -16.444012671663494 C-34.777784341956036 -16.53744267361037, -34.36844075745043 -16.63087267555725, -34.12469668792333 -16.68650566884811 M-34.12469668792333 -16.68650566884811 C-33.8724628379227 -16.727284881613492, -33.620228987922054 -16.768064094378875, -33.04891174863661 -16.86043023499518 M-34.12469668792333 -16.68650566884811 C-33.80248594302967 -16.73859820330087, -33.48027519813601 -16.790690737753632, -33.04891174863661 -16.86043023499518 M-33.04891174863661 -16.86043023499518 C-32.69075319039308 -16.894981360360248, -32.33259463214956 -16.929532485725314, -31.96419373967212 -16.965071676755716 M-33.04891174863661 -16.86043023499518 C-32.725374847999234 -16.89164145068962, -32.401837947361855 -16.922852666384053, -31.96419373967212 -16.965071676755716 M-31.96419373967212 -16.965071676755716 C-31.633798172642063 -16.975666819514412, -31.303402605612007 -16.986261962273108, -30.875000000000004 -17 M-31.96419373967212 -16.965071676755716 C-31.70954587889255 -16.973237738008926, -31.454898018112978 -16.981403799262136, -30.875000000000004 -17 M-30.875000000000004 -17 C-30.875000000000004 -17, -30.875 -17, -30.875 -17 M-30.875000000000004 -17 C-30.875000000000004 -17, -30.875 -17, -30.875 -17" stroke="#555555" stroke-width="1.3" fill="none" stroke-dasharray="0 0" style=""></path></g><g class="label" style="" transform="translate(0, -9.5)"><rect></rect><g><rect class="background" style="stroke: none"></rect><text y="-10.1" style=""><tspan class="text-outer-tspan row" x="0" y="-0.1em" dy="1.1em"><tspan font-style="normal" class="text-inner-tspan" font-weight="normal">Start</tspan><tspan font-style="normal" class="text-inner-tspan" font-weight="normal"> here</tspan></tspan></text></g></g></g><g class="node default" id="gade5825e-45b3-4b69-bff2-ab15531cb090-dark-flowchart-docsQ-1" data-look="classic" transform="translate(222.8140640258789, 207.35468292236328)"><polygon points="115.35468673706055,0 230.7093734741211,-115.35468673706055 115.35468673706055,-230.7093734741211 0,-115.35468673706055" class="label-container" transform="translate(-114.85468673706055, 115.35468673706055)"></polygon><g class="label" style="" transform="translate(0, -18.299999237060547)"><rect></rect><g><rect class="background" style="stroke: none"></rect><text y="-10.1" style=""><tspan class="text-outer-tspan row" x="0" y="-0.1em" dy="1.1em"><tspan font-style="normal" class="text-inner-tspan" font-weight="normal">Need</tspan><tspan font-style="normal" class="text-inner-tspan" font-weight="normal"> built-in</tspan><tspan font-style="normal" class="text-inner-tspan" font-weight="normal"> docs</tspan><tspan font-style="normal" class="text-inner-tspan" font-weight="normal"> nav,</tspan></tspan><tspan class="text-outer-tspan row" x="0" y="1em" dy="1.1em"><tspan font-style="normal" class="text-inner-tspan" font-weight="normal">search,</tspan><tspan font-style="normal" class="text-inner-tspan" font-weight="normal"> theme?</tspan></tspan></text></g></g></g><g class="node default" id="gade5825e-45b3-4b69-bff2-ab15531cb090-dark-flowchart-docs-3" data-look="classic" transform="translate(101.0546875, 496.1734313964844)"><rect class="basic label-container" style="" x="-93.0546875" y="-24.5" width="186.109375" height="49"></rect><g class="label" style="" transform="translate(0, -9.5)"><rect></rect><g><rect class="background" style="stroke: none"></rect><text y="-10.1" style=""><tspan class="text-outer-tspan row" x="0" y="-0.1em" dy="1.1em"><tspan font-style="normal" class="text-inner-tspan" font-weight="normal">@pagesmith/docs</tspan></tspan></text></g></g></g><g class="node default" id="gade5825e-45b3-4b69-bff2-ab15531cb090-dark-flowchart-hostQ-5" data-look="classic" transform="translate(344.5734405517578, 496.1734313964844)"><polygon points="100.46406173706055,0 200.9281234741211,-100.46406173706055 100.46406173706055,-200.9281234741211 0,-100.46406173706055" class="label-container" transform="translate(-99.96406173706055, 100.46406173706055)"></polygon><g class="label" style="" transform="translate(0, -18.299999237060547)"><rect></rect><g><rect class="background" style="stroke: none"></rect><text y="-10.1" style=""><tspan class="text-outer-tspan row" x="0" y="-0.1em" dy="1.1em"><tspan font-style="normal" class="text-inner-tspan" font-weight="normal">Host</tspan><tspan font-style="normal" class="text-inner-tspan" font-weight="normal"> owns</tspan><tspan font-style="normal" class="text-inner-tspan" font-weight="normal"> routing,</tspan></tspan><tspan class="text-outer-tspan row" x="0" y="1em" dy="1.1em"><tspan font-style="normal" class="text-inner-tspan" font-weight="normal">layout,</tspan><tspan font-style="normal" class="text-inner-tspan" font-weight="normal"> build?</tspan></tspan></text></g></g></g><g class="node default" id="gade5825e-45b3-4b69-bff2-ab15531cb090-dark-flowchart-core-7" data-look="classic" transform="translate(457.6750030517578, 694.1374969482422)"><rect class="basic label-container" style="" x="-92.828125" y="-24.5" width="185.65625" height="49"></rect><g class="label" style="" transform="translate(0, -9.5)"><rect></rect><g><rect class="background" style="stroke: none"></rect><text y="-10.1" style=""><tspan class="text-outer-tspan row" x="0" y="-0.1em" dy="1.1em"><tspan font-style="normal" class="text-inner-tspan" font-weight="normal">@pagesmith/core</tspan></tspan></text></g></g></g><g class="node default" id="gade5825e-45b3-4b69-bff2-ab15531cb090-dark-flowchart-siteQ-8" data-look="classic" transform="translate(457.6750030517578, 887.3953094482422)"><polygon points="95.7578125,0 191.515625,-95.7578125 95.7578125,-191.515625 0,-95.7578125" class="label-container" transform="translate(-95.2578125, 95.7578125)"></polygon><g class="label" style="" transform="translate(0, -9.5)"><rect></rect><g><rect class="background" style="stroke: none"></rect><text y="-10.1" style=""><tspan class="text-outer-tspan row" x="0" y="-0.1em" dy="1.1em"><tspan font-style="normal" class="text-inner-tspan" font-weight="normal">Need</tspan><tspan font-style="normal" class="text-inner-tspan" font-weight="normal"> site</tspan><tspan font-style="normal" class="text-inner-tspan" font-weight="normal"> layer</tspan><tspan font-style="normal" class="text-inner-tspan" font-weight="normal"> too?</tspan></tspan></text></g></g></g><g class="node default" id="gade5825e-45b3-4b69-bff2-ab15531cb090-dark-flowchart-site-10" data-look="classic" transform="translate(209.1085968017578, 1089.4531211853027)"><rect class="basic label-container" style="" x="-99.4375" y="-33.29999923706055" width="198.875" height="66.5999984741211"></rect><g class="label" style="" transform="translate(0, -18.299999237060547)"><rect></rect><g><rect class="background" style="stroke: none"></rect><text y="-10.1" style=""><tspan class="text-outer-tspan row" x="0" y="-0.1em" dy="1.1em"><tspan font-style="normal" class="text-inner-tspan" font-weight="normal">@pagesmith/site</tspan></tspan><tspan class="text-outer-tspan row" x="0" y="1em" dy="1.1em"><tspan font-style="normal" class="text-inner-tspan" font-weight="normal">+</tspan><tspan font-style="normal" class="text-inner-tspan" font-weight="normal"> @pagesmith/core</tspan></tspan></text></g></g></g><g class="node default" id="gade5825e-45b3-4b69-bff2-ab15531cb090-dark-flowchart-coreOnly-14" data-look="classic" transform="translate(480.0382843017578, 1089.4531211853027)"><rect class="basic label-container" style="" x="-121.4921875" y="-24.5" width="242.984375" height="49"></rect><g class="label" style="" transform="translate(0, -9.5)"><rect></rect><g><rect class="background" style="stroke: none"></rect><text y="-10.1" style=""><tspan class="text-outer-tspan row" x="0" y="-0.1em" dy="1.1em"><tspan font-style="normal" class="text-inner-tspan" font-weight="normal">Stay</tspan><tspan font-style="normal" class="text-inner-tspan" font-weight="normal"> on</tspan><tspan font-style="normal" class="text-inner-tspan" font-weight="normal"> @pagesmith/core</tspan></tspan></text></g></g></g></g></g></g><defs><filter id="gade5825e-45b3-4b69-bff2-ab15531cb090-dark-drop-shadow" height="130%" width="130%"><feDropShadow dx="4" dy="4" stdDeviation="0" flood-opacity="0.06" flood-color="#000000"></feDropShadow></filter></defs><defs><filter id="gade5825e-45b3-4b69-bff2-ab15531cb090-dark-drop-shadow-small" height="150%" width="150%"><feDropShadow dx="2" dy="2" stdDeviation="0" flood-opacity="0.06" flood-color="#000000"></feDropShadow></filter></defs><linearGradient id="gade5825e-45b3-4b69-bff2-ab15531cb090-dark-gradient" gradientUnits="objectBoundingBox" x1="0%" y1="0%" x2="100%" y2="0%"><stop offset="0%" stop-color="#555555" stop-opacity="1"></stop><stop offset="100%" stop-color="#555555" stop-opacity="1"></stop></linearGradient></svg>