<svg id="ga7d9cb23-6854-4f84-84c8-9045d3728353-light" width="100%" xmlns="http://www.w3.org/2000/svg" xmlns:xlink="http://www.w3.org/1999/xlink" class="flowchart" style="max-width: 715.0015869140625px;" viewBox="0 0 715.0015869140625 1468.5843505859375" role="graphics-document document" aria-roledescription="flowchart-v2"><style>#ga7d9cb23-6854-4f84-84c8-9045d3728353-light{font-family:"trebuchet ms",verdana,arial,sans-serif;font-size:16px;fill:#333;}@keyframes edge-animation-frame{from{stroke-dashoffset:0;}}@keyframes dash{to{stroke-dashoffset:0;}}#ga7d9cb23-6854-4f84-84c8-9045d3728353-light .edge-animation-slow{stroke-dasharray:9,5!important;stroke-dashoffset:900;animation:dash 50s linear infinite;stroke-linecap:round;}#ga7d9cb23-6854-4f84-84c8-9045d3728353-light .edge-animation-fast{stroke-dasharray:9,5!important;stroke-dashoffset:900;animation:dash 20s linear infinite;stroke-linecap:round;}#ga7d9cb23-6854-4f84-84c8-9045d3728353-light .error-icon{fill:#552222;}#ga7d9cb23-6854-4f84-84c8-9045d3728353-light .error-text{fill:#552222;stroke:#552222;}#ga7d9cb23-6854-4f84-84c8-9045d3728353-light .edge-thickness-normal{stroke-width:1px;}#ga7d9cb23-6854-4f84-84c8-9045d3728353-light .edge-thickness-thick{stroke-width:3.5px;}#ga7d9cb23-6854-4f84-84c8-9045d3728353-light .edge-pattern-solid{stroke-dasharray:0;}#ga7d9cb23-6854-4f84-84c8-9045d3728353-light .edge-thickness-invisible{stroke-width:0;fill:none;}#ga7d9cb23-6854-4f84-84c8-9045d3728353-light .edge-pattern-dashed{stroke-dasharray:3;}#ga7d9cb23-6854-4f84-84c8-9045d3728353-light .edge-pattern-dotted{stroke-dasharray:2;}#ga7d9cb23-6854-4f84-84c8-9045d3728353-light .marker{fill:#333333;stroke:#333333;}#ga7d9cb23-6854-4f84-84c8-9045d3728353-light .marker.cross{stroke:#333333;}#ga7d9cb23-6854-4f84-84c8-9045d3728353-light svg{font-family:"trebuchet ms",verdana,arial,sans-serif;font-size:16px;}#ga7d9cb23-6854-4f84-84c8-9045d3728353-light p{margin:0;}#ga7d9cb23-6854-4f84-84c8-9045d3728353-light .label{font-family:"trebuchet ms",verdana,arial,sans-serif;color:#333;}#ga7d9cb23-6854-4f84-84c8-9045d3728353-light .cluster-label text{fill:#333;}#ga7d9cb23-6854-4f84-84c8-9045d3728353-light .cluster-label span{color:#333;}#ga7d9cb23-6854-4f84-84c8-9045d3728353-light .cluster-label span p{background-color:transparent;}#ga7d9cb23-6854-4f84-84c8-9045d3728353-light .label text,#ga7d9cb23-6854-4f84-84c8-9045d3728353-light span{fill:#333;color:#333;}#ga7d9cb23-6854-4f84-84c8-9045d3728353-light .node rect,#ga7d9cb23-6854-4f84-84c8-9045d3728353-light .node circle,#ga7d9cb23-6854-4f84-84c8-9045d3728353-light .node ellipse,#ga7d9cb23-6854-4f84-84c8-9045d3728353-light .node polygon,#ga7d9cb23-6854-4f84-84c8-9045d3728353-light .node path{fill:#ECECFF;stroke:#9370DB;stroke-width:1px;}#ga7d9cb23-6854-4f84-84c8-9045d3728353-light .rough-node .label text,#ga7d9cb23-6854-4f84-84c8-9045d3728353-light .node .label text,#ga7d9cb23-6854-4f84-84c8-9045d3728353-light .image-shape .label,#ga7d9cb23-6854-4f84-84c8-9045d3728353-light .icon-shape .label{text-anchor:middle;}#ga7d9cb23-6854-4f84-84c8-9045d3728353-light .node .katex path{fill:#000;stroke:#000;stroke-width:1px;}#ga7d9cb23-6854-4f84-84c8-9045d3728353-light .rough-node .label,#ga7d9cb23-6854-4f84-84c8-9045d3728353-light .node .label,#ga7d9cb23-6854-4f84-84c8-9045d3728353-light .image-shape .label,#ga7d9cb23-6854-4f84-84c8-9045d3728353-light .icon-shape .label{text-align:center;}#ga7d9cb23-6854-4f84-84c8-9045d3728353-light .node.clickable{cursor:pointer;}#ga7d9cb23-6854-4f84-84c8-9045d3728353-light .root .anchor path{fill:#333333!important;stroke-width:0;stroke:#333333;}#ga7d9cb23-6854-4f84-84c8-9045d3728353-light .arrowheadPath{fill:#333333;}#ga7d9cb23-6854-4f84-84c8-9045d3728353-light .edgePath .path{stroke:#333333;stroke-width:1px;}#ga7d9cb23-6854-4f84-84c8-9045d3728353-light .flowchart-link{stroke:#333333;fill:none;}#ga7d9cb23-6854-4f84-84c8-9045d3728353-light .edgeLabel{background-color:rgba(232,232,232, 0.8);text-align:center;}#ga7d9cb23-6854-4f84-84c8-9045d3728353-light .edgeLabel p{background-color:rgba(232,232,232, 0.8);}#ga7d9cb23-6854-4f84-84c8-9045d3728353-light .edgeLabel rect{opacity:0.5;background-color:rgba(232,232,232, 0.8);fill:rgba(232,232,232, 0.8);}#ga7d9cb23-6854-4f84-84c8-9045d3728353-light .labelBkg{background-color:rgba(232, 232, 232, 0.5);}#ga7d9cb23-6854-4f84-84c8-9045d3728353-light .cluster rect{fill:#ffffde;stroke:#aaaa33;stroke-width:1px;}#ga7d9cb23-6854-4f84-84c8-9045d3728353-light .cluster text{fill:#333;}#ga7d9cb23-6854-4f84-84c8-9045d3728353-light .cluster span{color:#333;}#ga7d9cb23-6854-4f84-84c8-9045d3728353-light div.mermaidTooltip{position:absolute;text-align:center;max-width:200px;padding:2px;font-family:"trebuchet ms",verdana,arial,sans-serif;font-size:12px;background:hsl(80, 100%, 96.2745098039%);border:1px solid #aaaa33;border-radius:2px;pointer-events:none;z-index:100;}#ga7d9cb23-6854-4f84-84c8-9045d3728353-light .flowchartTitleText{text-anchor:middle;font-size:18px;fill:#333;}#ga7d9cb23-6854-4f84-84c8-9045d3728353-light rect.text{fill:none;stroke-width:0;}#ga7d9cb23-6854-4f84-84c8-9045d3728353-light .icon-shape,#ga7d9cb23-6854-4f84-84c8-9045d3728353-light .image-shape{background-color:rgba(232,232,232, 0.8);text-align:center;}#ga7d9cb23-6854-4f84-84c8-9045d3728353-light .icon-shape p,#ga7d9cb23-6854-4f84-84c8-9045d3728353-light .image-shape p{background-color:rgba(232,232,232, 0.8);padding:2px;}#ga7d9cb23-6854-4f84-84c8-9045d3728353-light .icon-shape .label rect,#ga7d9cb23-6854-4f84-84c8-9045d3728353-light .image-shape .label rect{opacity:0.5;background-color:rgba(232,232,232, 0.8);fill:rgba(232,232,232, 0.8);}#ga7d9cb23-6854-4f84-84c8-9045d3728353-light .label-icon{display:inline-block;height:1em;overflow:visible;vertical-align:-0.125em;}#ga7d9cb23-6854-4f84-84c8-9045d3728353-light .node .label-icon path{fill:currentColor;stroke:revert;stroke-width:revert;}#ga7d9cb23-6854-4f84-84c8-9045d3728353-light .node .neo-node{stroke:#9370DB;}#ga7d9cb23-6854-4f84-84c8-9045d3728353-light [data-look="neo"].node rect,#ga7d9cb23-6854-4f84-84c8-9045d3728353-light [data-look="neo"].cluster rect,#ga7d9cb23-6854-4f84-84c8-9045d3728353-light [data-look="neo"].node polygon{stroke:#9370DB;filter:drop-shadow(1px 2px 2px rgba(185, 185, 185, 1));}#ga7d9cb23-6854-4f84-84c8-9045d3728353-light [data-look="neo"].node path{stroke:#9370DB;stroke-width:1px;}#ga7d9cb23-6854-4f84-84c8-9045d3728353-light [data-look="neo"].node .outer-path{filter:drop-shadow(1px 2px 2px rgba(185, 185, 185, 1));}#ga7d9cb23-6854-4f84-84c8-9045d3728353-light [data-look="neo"].node .neo-line path{stroke:#9370DB;filter:none;}#ga7d9cb23-6854-4f84-84c8-9045d3728353-light [data-look="neo"].node circle{stroke:#9370DB;filter:drop-shadow(1px 2px 2px rgba(185, 185, 185, 1));}#ga7d9cb23-6854-4f84-84c8-9045d3728353-light [data-look="neo"].node circle .state-start{fill:#000000;}#ga7d9cb23-6854-4f84-84c8-9045d3728353-light [data-look="neo"].icon-shape .icon{fill:#9370DB;filter:drop-shadow(1px 2px 2px rgba(185, 185, 185, 1));}#ga7d9cb23-6854-4f84-84c8-9045d3728353-light [data-look="neo"].icon-shape .icon-neo path{stroke:#9370DB;filter:drop-shadow(1px 2px 2px rgba(185, 185, 185, 1));}#ga7d9cb23-6854-4f84-84c8-9045d3728353-light :root{--mermaid-font-family:"trebuchet ms",verdana,arial,sans-serif;}</style><g><marker id="ga7d9cb23-6854-4f84-84c8-9045d3728353-light_flowchart-v2-pointEnd" class="marker flowchart-v2" viewBox="0 0 10 10" refX="5" refY="5" markerUnits="userSpaceOnUse" markerWidth="8" markerHeight="8" orient="auto"><path d="M 0 0 L 10 5 L 0 10 z" class="arrowMarkerPath" style="stroke-width: 1; stroke-dasharray: 1, 0;"></path></marker><marker id="ga7d9cb23-6854-4f84-84c8-9045d3728353-light_flowchart-v2-pointStart" class="marker flowchart-v2" viewBox="0 0 10 10" refX="4.5" refY="5" markerUnits="userSpaceOnUse" markerWidth="8" markerHeight="8" orient="auto"><path d="M 0 5 L 10 10 L 10 0 z" class="arrowMarkerPath" style="stroke-width: 1; stroke-dasharray: 1, 0;"></path></marker><marker id="ga7d9cb23-6854-4f84-84c8-9045d3728353-light_flowchart-v2-pointEnd-margin" class="marker flowchart-v2" viewBox="0 0 11.5 14" refX="11.5" refY="7" markerUnits="userSpaceOnUse" markerWidth="10.5" markerHeight="14" orient="auto"><path d="M 0 0 L 11.5 7 L 0 14 z" class="arrowMarkerPath" style="stroke-width: 0; stroke-dasharray: 1, 0;"></path></marker><marker id="ga7d9cb23-6854-4f84-84c8-9045d3728353-light_flowchart-v2-pointStart-margin" class="marker flowchart-v2" viewBox="0 0 11.5 14" refX="1" refY="7" markerUnits="userSpaceOnUse" markerWidth="11.5" markerHeight="14" orient="auto"><polygon points="0,7 11.5,14 11.5,0" class="arrowMarkerPath" style="stroke-width: 0; stroke-dasharray: 1, 0;"></polygon></marker><marker id="ga7d9cb23-6854-4f84-84c8-9045d3728353-light_flowchart-v2-circleEnd" class="marker flowchart-v2" viewBox="0 0 10 10" refX="11" refY="5" markerUnits="userSpaceOnUse" markerWidth="11" markerHeight="11" orient="auto"><circle cx="5" cy="5" r="5" class="arrowMarkerPath" style="stroke-width: 1; stroke-dasharray: 1, 0;"></circle></marker><marker id="ga7d9cb23-6854-4f84-84c8-9045d3728353-light_flowchart-v2-circleStart" class="marker flowchart-v2" viewBox="0 0 10 10" refX="-1" refY="5" markerUnits="userSpaceOnUse" markerWidth="11" markerHeight="11" orient="auto"><circle cx="5" cy="5" r="5" class="arrowMarkerPath" style="stroke-width: 1; stroke-dasharray: 1, 0;"></circle></marker><marker id="ga7d9cb23-6854-4f84-84c8-9045d3728353-light_flowchart-v2-circleEnd-margin" class="marker flowchart-v2" viewBox="0 0 10 10" refY="5" refX="12.25" markerUnits="userSpaceOnUse" markerWidth="14" markerHeight="14" orient="auto"><circle cx="5" cy="5" r="5" class="arrowMarkerPath" style="stroke-width: 0; stroke-dasharray: 1, 0;"></circle></marker><marker id="ga7d9cb23-6854-4f84-84c8-9045d3728353-light_flowchart-v2-circleStart-margin" class="marker flowchart-v2" viewBox="0 0 10 10" refX="-2" refY="5" markerUnits="userSpaceOnUse" markerWidth="14" markerHeight="14" orient="auto"><circle cx="5" cy="5" r="5" class="arrowMarkerPath" style="stroke-width: 0; stroke-dasharray: 1, 0;"></circle></marker><marker id="ga7d9cb23-6854-4f84-84c8-9045d3728353-light_flowchart-v2-crossEnd" class="marker cross flowchart-v2" viewBox="0 0 11 11" refX="12" refY="5.2" markerUnits="userSpaceOnUse" markerWidth="11" markerHeight="11" orient="auto"><path d="M 1,1 l 9,9 M 10,1 l -9,9" class="arrowMarkerPath" style="stroke-width: 2; stroke-dasharray: 1, 0;"></path></marker><marker id="ga7d9cb23-6854-4f84-84c8-9045d3728353-light_flowchart-v2-crossStart" class="marker cross flowchart-v2" viewBox="0 0 11 11" refX="-1" refY="5.2" markerUnits="userSpaceOnUse" markerWidth="11" markerHeight="11" orient="auto"><path d="M 1,1 l 9,9 M 10,1 l -9,9" class="arrowMarkerPath" style="stroke-width: 2; stroke-dasharray: 1, 0;"></path></marker><marker id="ga7d9cb23-6854-4f84-84c8-9045d3728353-light_flowchart-v2-crossEnd-margin" class="marker cross flowchart-v2" viewBox="0 0 15 15" refX="17.7" refY="7.5" markerUnits="userSpaceOnUse" markerWidth="12" markerHeight="12" orient="auto"><path d="M 1,1 L 14,14 M 1,14 L 14,1" class="arrowMarkerPath" style="stroke-width: 2.5;"></path></marker><marker id="ga7d9cb23-6854-4f84-84c8-9045d3728353-light_flowchart-v2-crossStart-margin" class="marker cross flowchart-v2" viewBox="0 0 15 15" refX="-3.5" refY="7.5" markerUnits="userSpaceOnUse" markerWidth="12" markerHeight="12" orient="auto"><path d="M 1,1 L 14,14 M 1,14 L 14,1" class="arrowMarkerPath" style="stroke-width: 2.5; stroke-dasharray: 1, 0;"></path></marker><g class="root"><g class="clusters"></g><g class="edgePaths"><path d="M280.942,42.5L280.859,46.583C280.776,50.667,280.609,58.833,280.526,66.417C280.442,74,280.442,81,280.442,84.5L280.442,88" id="ga7d9cb23-6854-4f84-84c8-9045d3728353-light-L_start_docsQ_0" class="edge-thickness-normal edge-pattern-solid edge-thickness-normal edge-pattern-solid flowchart-link" style=";" data-edge="true" data-et="edge" data-id="L_start_docsQ_0" data-points="W3sieCI6MjgwLjk0MjE4NDQ0ODI0MjIsInkiOjQyLjV9LHsieCI6MjgwLjQ0MjE4NDQ0ODI0MjIsInkiOjY3fSx7IngiOjI4MC40NDIxODQ0NDgyNDIyLCJ5Ijo5MS45OTk5OTk5OTk5OTk5N31d" data-look="classic" marker-end="url(#ga7d9cb23-6854-4f84-84c8-9045d3728353-light_flowchart-v2-pointEnd)"></path><path d="M216.2,298.058L200.989,314.849C185.777,331.639,155.353,365.219,140.141,402.959C124.93,440.698,124.93,482.597,124.93,503.546L124.93,524.495" id="ga7d9cb23-6854-4f84-84c8-9045d3728353-light-L_docsQ_docs_0" class="edge-thickness-normal edge-pattern-solid edge-thickness-normal edge-pattern-solid flowchart-link" style=";" data-edge="true" data-et="edge" data-id="L_docsQ_docs_0" data-points="W3sieCI6MjE2LjIwMDM2Mjc0MTI1MTMsInkiOjI5OC4wNTgxOTY2MDM1NTZ9LHsieCI6MTI0LjkyOTY4NzUsInkiOjM5OC44MDAwMTgzMTA1NDY5fSx7IngiOjEyNC45Mjk2ODc1LCJ5Ijo1MjguNDk1MzIzMTgxMTUyM31d" data-look="classic" marker-end="url(#ga7d9cb23-6854-4f84-84c8-9045d3728353-light_flowchart-v2-pointEnd)"></path><path d="M344.684,298.058L359.896,314.849C375.108,331.639,405.531,365.219,420.743,387.426C435.955,409.633,435.955,420.467,435.955,425.883L435.955,431.3" id="ga7d9cb23-6854-4f84-84c8-9045d3728353-light-L_docsQ_hostQ_0" class="edge-thickness-normal edge-pattern-solid edge-thickness-normal edge-pattern-solid flowchart-link" style=";" data-edge="true" data-et="edge" data-id="L_docsQ_hostQ_0" data-points="W3sieCI6MzQ0LjY4NDAwNjE1NTIzMzEsInkiOjI5OC4wNTgxOTY2MDM1NTZ9LHsieCI6NDM1Ljk1NDY4MTM5NjQ4NDQsInkiOjM5OC44MDAwMTgzMTA1NDY5fSx7IngiOjQzNS45NTQ2ODEzOTY0ODQzLCJ5Ijo0MzUuMzAwMDE4MzEwNTQ2OH1d" data-look="classic" marker-end="url(#ga7d9cb23-6854-4f84-84c8-9045d3728353-light_flowchart-v2-pointEnd)"></path><path d="M495.501,663.944L506.776,679.952C518.05,695.959,540.598,727.975,551.872,749.4C563.146,770.824,563.146,781.657,563.146,787.074L563.146,792.491" id="ga7d9cb23-6854-4f84-84c8-9045d3728353-light-L_hostQ_core_0" class="edge-thickness-normal edge-pattern-solid edge-thickness-normal edge-pattern-solid flowchart-link" style=";" data-edge="true" data-et="edge" data-id="L_hostQ_core_0" data-points="W3sieCI6NDk1LjUwMTM4NjYzNTk3OTc3LCJ5Ijo2NjMuOTQzOTI1ODY0MDIwMn0seyJ4Ijo1NjMuMTQ2MDg3NjQ2NDg0NCwieSI6NzU5Ljk5MDYzMTEwMzUxNTZ9LHsieCI6NTYzLjE0NjA4NzY0NjQ4NDQsInkiOjc5Ni40OTA2MzExMDM1MTU2fV0=" data-look="classic" marker-end="url(#ga7d9cb23-6854-4f84-84c8-9045d3728353-light_flowchart-v2-pointEnd)"></path><path d="M366.894,654.43L350.701,672.023C334.508,689.617,302.122,724.804,285.929,758.43C269.736,792.057,269.736,824.124,269.736,856.191C269.736,888.257,269.736,920.324,269.736,964.248C269.736,1008.173,269.736,1063.955,269.736,1119.738C269.736,1175.52,269.736,1231.302,270.597,1264.618C271.458,1297.934,273.18,1308.784,274.041,1314.209L274.902,1319.634" id="ga7d9cb23-6854-4f84-84c8-9045d3728353-light-L_hostQ_site_0" class="edge-thickness-normal edge-pattern-solid edge-thickness-normal edge-pattern-solid flowchart-link" style=";" data-edge="true" data-et="edge" data-id="L_hostQ_site_0" data-points="W3sieCI6MzY2Ljg5MzYzNDc5NzE4MjIsInkiOjY1NC40Mjk1ODQ1MDQyMTM0fSx7IngiOjI2OS43MzU5MzEzOTY0ODQ0LCJ5Ijo3NTkuOTkwNjMxMTAzNTE1Nn0seyJ4IjoyNjkuNzM1OTMxMzk2NDg0NCwieSI6ODU2LjE5MDYzMTg2NjQ1NTF9LHsieCI6MjY5LjczNTkzMTM5NjQ4NDQsInkiOjk1Mi4zOTA2MzI2MjkzOTQ1fSx7IngiOjI2OS43MzU5MzEzOTY0ODQ0LCJ5IjoxMTE5LjczNzUxMDY4MTE1MjN9LHsieCI6MjY5LjczNTkzMTM5NjQ4NDQsInkiOjEyODcuMDg0Mzg4NzMyOTEwMn0seyJ4IjoyNzUuNTI4Njc2OTMyMTk4NjYsInkiOjEzMjMuNTg0Mzg4NzMyOTEwMn1d" data-look="classic" marker-end="url(#ga7d9cb23-6854-4f84-84c8-9045d3728353-light_flowchart-v2-pointEnd)"></path><path d="M563.146,915.891L563.146,921.974C563.146,928.057,563.146,940.224,563.146,951.724C563.146,963.224,563.146,974.057,563.146,979.474L563.146,984.891" id="ga7d9cb23-6854-4f84-84c8-9045d3728353-light-L_core_siteQ_0" class="edge-thickness-normal edge-pattern-solid edge-thickness-normal edge-pattern-solid flowchart-link" style=";" data-edge="true" data-et="edge" data-id="L_core_siteQ_0" data-points="W3sieCI6NTYzLjE0NjA4NzY0NjQ4NDQsInkiOjkxNS44OTA2MzI2MjkzOTQ1fSx7IngiOjU2My4xNDYwODc2NDY0ODQ0LCJ5Ijo5NTIuMzkwNjMyNjI5Mzk0NX0seyJ4Ijo1NjMuMTQ2MDg3NjQ2NDg0NCwieSI6OTg4Ljg5MDYzMjYyOTM5NDR9XQ==" data-look="classic" marker-end="url(#ga7d9cb23-6854-4f84-84c8-9045d3728353-light_flowchart-v2-pointEnd)"></path><path d="M501.396,1188.834L486.762,1205.209C472.128,1221.584,442.86,1254.334,421.371,1276.368C399.882,1298.402,386.172,1309.72,379.317,1315.379L372.462,1321.038" id="ga7d9cb23-6854-4f84-84c8-9045d3728353-light-L_siteQ_site_0" class="edge-thickness-normal edge-pattern-solid edge-thickness-normal edge-pattern-solid flowchart-link" style=";" data-edge="true" data-et="edge" data-id="L_siteQ_site_0" data-points="W3sieCI6NTAxLjM5NTc5NjQzNzU3MiwieSI6MTE4OC44MzQwOTc1MjM5OTh9LHsieCI6NDEzLjU5MTQwMDE0NjQ4NDQsInkiOjEyODcuMDg0Mzg4NzMyOTEwMn0seyJ4IjozNjkuMzc3MjQ0NjQwNTMyLCJ5IjoxMzIzLjU4NDM4ODczMjkxMDJ9XQ==" data-look="classic" marker-end="url(#ga7d9cb23-6854-4f84-84c8-9045d3728353-light_flowchart-v2-pointEnd)"></path><path d="M578.57,1235.16L579.727,1243.814C580.883,1252.468,583.196,1269.776,584.353,1291.18C585.509,1312.584,585.509,1338.084,585.509,1350.834L585.509,1363.584" id="ga7d9cb23-6854-4f84-84c8-9045d3728353-light-L_siteQ_coreOnly_0" class="edge-thickness-normal edge-pattern-solid edge-thickness-normal edge-pattern-solid flowchart-link" style=";" data-edge="true" data-et="edge" data-id="L_siteQ_coreOnly_0" data-points="W3sieCI6NTc4LjU3MDQ4ODQ1NTIwMTcsInkiOjEyMzUuMTU5OTg3OTI0MTkzfSx7IngiOjU4NS41MDkzNjg4OTY0ODQ0LCJ5IjoxMjg3LjA4NDM4ODczMjkxMDJ9LHsieCI6NTg1LjUwOTM2ODg5NjQ4NDQsInkiOjEzNjcuNTg0Mzg4NzMyOTEwMn1d" data-look="classic" marker-end="url(#ga7d9cb23-6854-4f84-84c8-9045d3728353-light_flowchart-v2-pointEnd)"></path></g><g class="edgeLabels"><g class="edgeLabel"><g class="label" data-id="L_start_docsQ_0" transform="translate(0, 0)"><text y="-10.1" text-anchor="middle"><tspan class="text-outer-tspan row" x="0" y="-0.1em" dy="1.1em" text-anchor="middle"></tspan></text></g></g><g><rect class="background" style="stroke: none"></rect></g><g class="edgeLabel" transform="translate(124.9296875, 398.8000183105469)"><g class="label" data-id="L_docsQ_docs_0" transform="translate(0, -10.5)"><g><rect class="background" style="" x="-13.328125" y="-1" width="26.65625" height="23"></rect><text y="-10.1" text-anchor="middle" style=""><tspan class="text-outer-tspan row" x="0" y="-0.1em" dy="1.1em" text-anchor="middle"><tspan font-style="normal" class="text-inner-tspan" font-weight="normal">Yes</tspan></tspan></text></g></g></g><g class="edgeLabel" transform="translate(435.9546813964844, 398.8000183105469)"><g class="label" data-id="L_docsQ_hostQ_0" transform="translate(0, -10.5)"><g><rect class="background" style="" x="-11.3984375" y="-1" width="22.796875" height="23"></rect><text y="-10.1" text-anchor="middle" style=""><tspan class="text-outer-tspan row" x="0" y="-0.1em" dy="1.1em" text-anchor="middle"><tspan font-style="normal" class="text-inner-tspan" font-weight="normal">No</tspan></tspan></text></g></g></g><g class="edgeLabel" transform="translate(563.1460876464844, 759.9906311035156)"><g class="label" data-id="L_hostQ_core_0" transform="translate(0, -10.5)"><g><rect class="background" style="" x="-13.328125" y="-1" width="26.65625" height="23"></rect><text y="-10.1" text-anchor="middle" style=""><tspan class="text-outer-tspan row" x="0" y="-0.1em" dy="1.1em" text-anchor="middle"><tspan font-style="normal" class="text-inner-tspan" font-weight="normal">Yes</tspan></tspan></text></g></g></g><g class="edgeLabel" transform="translate(269.7359313964844, 952.3906326293945)"><g class="label" data-id="L_hostQ_site_0" transform="translate(0, -10.5)"><g><rect class="background" style="" x="-11.3984375" y="-1" width="22.796875" height="23"></rect><text y="-10.1" text-anchor="middle" style=""><tspan class="text-outer-tspan row" x="0" y="-0.1em" dy="1.1em" text-anchor="middle"><tspan font-style="normal" class="text-inner-tspan" font-weight="normal">No</tspan></tspan></text></g></g></g><g class="edgeLabel"><g class="label" data-id="L_core_siteQ_0" transform="translate(0, 0)"><text y="-10.1" text-anchor="middle"><tspan class="text-outer-tspan row" x="0" y="-0.1em" dy="1.1em" text-anchor="middle"></tspan></text></g></g><g><rect class="background" style="stroke: none"></rect></g><g class="edgeLabel" transform="translate(438.39126, 1259.33414)"><g class="label" data-id="L_siteQ_site_0" transform="translate(0, -10.5)"><g><rect class="background" style="" x="-13.328125" y="-1" width="26.65625" height="23"></rect><text y="-10.1" text-anchor="middle" style=""><tspan class="text-outer-tspan row" x="0" y="-0.1em" dy="1.1em" text-anchor="middle"><tspan font-style="normal" class="text-inner-tspan" font-weight="normal">Yes</tspan></tspan></text></g></g></g><g class="edgeLabel" transform="translate(585.5093688964844, 1287.0843887329102)"><g class="label" data-id="L_siteQ_coreOnly_0" transform="translate(0, -10.5)"><g><rect class="background" style="" x="-11.3984375" y="-1" width="22.796875" height="23"></rect><text y="-10.1" text-anchor="middle" style=""><tspan class="text-outer-tspan row" x="0" y="-0.1em" dy="1.1em" text-anchor="middle"><tspan font-style="normal" class="text-inner-tspan" font-weight="normal">No</tspan></tspan></text></g></g></g></g><g class="nodes"><g class="node default" id="ga7d9cb23-6854-4f84-84c8-9045d3728353-light-flowchart-start-0" data-look="classic" transform="translate(280.4421844482422, 25)"><g class="basic label-container outer-path"><path d="M-30.875 -17 C-10.627623553249006 -17, 9.619752893501989 -17, 30.875 -17 C30.875 -17, 30.875 -17, 30.875 -17 C31.22139781975691 -16.98889169614285, 31.56779563951382 -16.977783392285698, 31.96419373967212 -16.965071676755716 C32.26347527814812 -16.936200346677648, 32.562756816624116 -16.90732901659958, 33.0489117486366 -16.860430234995185 C33.35437413110392 -16.811045445894024, 33.659836513571236 -16.761660656792866, 34.124696687923326 -16.686505668848113 C34.53214000580593 -16.593509390357536, 34.93958332368854 -16.500513111866958, 35.18712792646162 -16.4440126716635 C35.560166544459776 -16.33329676796131, 35.93320516245794 -16.222580864259122, 36.23183970640155 -16.133947699181366 C36.560193488131596 -16.013110472235624, 36.88854726986163 -15.892273245289884, 37.25453908294936 -15.757584874882369 C37.53738673636734 -15.632376609091757, 37.82023438978533 -15.507168343301144, 38.25102356499849 -15.316470754341125 C38.46171885725416 -15.206551155328116, 38.672414149509834 -15.096631556315108, 39.21719838406694 -14.812417970097622 C39.570218191928404 -14.598415287997337, 39.92323799978987 -14.384412605897051, 40.149093320579325 -14.247497783161291 C40.49416439402805 -14.00679114020948, 40.83923546747677 -13.766084497257665, 41.042879018350675 -13.624031571755262 C41.28927574711786 -13.427536737455751, 41.53567247588506 -13.231041903156243, 41.8948827202324 -12.944581292275288 C42.09118578531687 -12.766304042460062, 42.28748885040133 -12.588026792644836, 42.70160336025927 -12.21193895166137 C42.85517651816463 -12.053362057533327, 43.00874967607 -11.894785163405286, 43.45972595028036 -11.42911513444239 C43.70568408541266 -11.140198713501624, 43.95164222054497 -10.851282292560859, 44.16613520195651 -10.59932663159847 C44.32664053933579 -10.384264101847274, 44.487145876715076 -10.169201572096076, 44.81792832814825 -9.725983222076888 C45.02064824734566 -9.414550988269323, 45.22336816654308 -9.103118754461757, 45.41242697109088 -8.812673661278927 C45.58369656147627 -8.50856716062304, 45.754966151861666 -8.20446065996715, 45.947188208341004 -7.863150934094199 C46.105003443557855 -7.535444221461315, 46.2628186787747 -7.207737508828431, 46.42001459126881 -6.881316833080699 C46.56680774335796 -6.518734909367959, 46.71360089544712 -6.15615298565522, 46.828963174845924 -5.871205925162238 C46.94733052588231 -5.514702323116914, 47.065697876918684 -5.158198721071591, 47.172353501623235 -4.836968972727556 C47.274740205938016 -4.446524094496949, 47.37712691025279 -4.056079216266343, 47.448774507091 -3.7828558772573464 C47.50802783959634 -3.478602538038709, 47.56728117210167 -3.1743491988200714, 47.65709031804565 -2.713198215567453 C47.7112604172299 -2.2930656233903632, 47.76543051641416 -1.8729330312132735, 47.796444920136366 -1.632391440430593 C47.81053313957157 -1.4129560509213248, 47.82462135900676 -1.1935206614120564, 47.8662656754117 -0.5448768187181379 C47.8662656754117 -0.15758629027943788, 47.8662656754117 0.2297042381592621, 47.8662656754117 0.5448768187181336 C47.844290393297385 0.8871595757769203, 47.82231511118308 1.229442332835707, 47.796444920136366 1.6323914404305815 C47.75506681478279 1.9533118545218116, 47.71368870942922 2.2742322686130416, 47.657090318045654 2.7131982155674415 C47.59845606895451 3.014272692297519, 47.53982181986337 3.315347169027596, 47.448774507091 3.782855877257343 C47.3418331922765 4.1906694593040505, 47.234891877462005 4.598483041350759, 47.172353501623235 4.836968972727545 C47.05905821026242 5.178196339153025, 46.94576291890161 5.519423705578504, 46.828963174845924 5.871205925162227 C46.718699885422964 6.143558381832614, 46.608436596000004 6.4159108385030015, 46.42001459126881 6.881316833080694 C46.2521512229861 7.2298887090204484, 46.08428785470339 7.578460584960203, 45.947188208341004 7.863150934094196 C45.81337223872092 8.100754738490915, 45.67955626910085 8.338358542887635, 45.41242697109089 8.812673661278923 C45.258681440726654 9.048868082373936, 45.10493591036242 9.285062503468948, 44.817928328148255 9.725983222076879 C44.66988774601848 9.92434411535629, 44.521847163888715 10.1227050086357, 44.16613520195651 10.599326631598467 C43.935474587993795 10.870273713719818, 43.70481397403108 11.14122079584117, 43.45972595028037 11.42911513444238 C43.20250558991408 11.6947162747049, 42.9452852295478 11.96031741496742, 42.70160336025927 12.211938951661365 C42.51708680460286 12.379512005467982, 42.33257024894645 12.547085059274599, 41.89488272023242 12.944581292275275 C41.58987759979836 13.187814759294305, 41.28487247936431 13.431048226313333, 41.042879018350675 13.62403157175526 C40.814472222438006 13.783358265013101, 40.586065426525344 13.942684958270942, 40.14909332057934 14.247497783161286 C39.87830714519249 14.411649953996996, 39.607520969805634 14.575802124832705, 39.21719838406695 14.81241797009762 C38.94143732465264 14.956282338160674, 38.66567626523833 15.10014670622373, 38.25102356499849 15.316470754341124 C37.945845548886346 15.451564009289767, 37.6406675327742 15.586657264238411, 37.254539082949364 15.757584874882367 C36.92904181329902 15.87737087897747, 36.60354454364868 15.997156883072572, 36.23183970640156 16.133947699181363 C35.86037559526554 16.24419629751163, 35.48891148412951 16.35444489584189, 35.18712792646164 16.444012671663497 C34.87917548129347 16.514300807695623, 34.57122303612531 16.584588943727745, 34.12469668792333 16.68650566884811 C33.86654033638356 16.728242385732653, 33.60838398484379 16.769979102617196, 33.04891174863661 16.86043023499518 C32.77480796301922 16.886872697535658, 32.50070417740182 16.913315160076138, 31.96419373967212 16.965071676755716 C31.702004526152443 16.973479574512947, 31.439815312632767 16.98188747227018, 30.875000000000004 17 C30.875000000000004 17, 30.875000000000004 17, 30.875 17 C8.809767827069589 17, -13.255464345860823 17, -30.874999999999996 17 C-31.224178721428867 16.988802518038927, -31.573357442857734 16.97760503607785, -31.964193739672112 16.965071676755716 C-32.38159388450348 16.924805586780952, -32.79899402933485 16.88453949680619, -33.048911748636606 16.86043023499518 C-33.3827008164365 16.806465807086177, -33.71648988423639 16.752501379177172, -34.124696687923326 16.68650566884811 C-34.54229454106673 16.591191683948793, -34.95989239421014 16.495877699049476, -35.18712792646162 16.4440126716635 C-35.51239323267159 16.347475636132817, -35.83765853888156 16.25093860060213, -36.231839706401544 16.13394769918137 C-36.512544435590826 16.030645764033643, -36.79324916478011 15.927343828885915, -37.254539082949364 15.757584874882369 C-37.53941968815882 15.631476681639041, -37.82430029336829 15.505368488395712, -38.25102356499848 15.316470754341127 C-38.48107204876161 15.196454607714989, -38.711120532524745 15.07643846108885, -39.21719838406693 14.812417970097624 C-39.56915793604843 14.599058021342534, -39.921117488029914 14.385698072587447, -40.14909332057932 14.247497783161299 C-40.39428720103577 14.076461146426889, -40.63948108149223 13.90542450969248, -41.04287901835067 13.624031571755264 C-41.337404159508786 13.389155609324833, -41.631929300666904 13.154279646894402, -41.8948827202324 12.94458129227529 C-42.070384833649506 12.785194916401341, -42.2458869470666 12.625808540527393, -42.70160336025926 12.211938951661377 C-42.90830722564056 11.998500239952225, -43.11501109102186 11.785061528243073, -43.459725950280365 11.429115134442386 C-43.673287468435845 11.178253623222327, -43.886848986591325 10.927392112002268, -44.16613520195651 10.599326631598473 C-44.35841187424032 10.341693407503367, -44.55068854652413 10.084060183408264, -44.81792832814825 9.72598322207689 C-45.047652143528076 9.373065752171705, -45.2773759589079 9.020148282266522, -45.41242697109088 8.812673661278936 C-45.529603332775054 8.604615165715432, -45.64677969445922 8.396556670151927, -45.947188208341004 7.863150934094201 C-46.104099625924796 7.537321018114958, -46.26101104350859 7.211491102135714, -46.42001459126881 6.881316833080701 C-46.57916625489813 6.4882091469282, -46.73831791852744 6.095101460775698, -46.828963174845924 5.87120592516224 C-46.92851446950592 5.571373286991123, -47.028065764165916 5.271540648820006, -47.172353501623235 4.8369689727275516 C-47.244159425281374 4.563141864934876, -47.31596534893952 4.2893147571422, -47.448774507091 3.782855877257349 C-47.506969092449154 3.484038980873192, -47.56516367780731 3.185222084489035, -47.65709031804565 2.713198215567455 C-47.71140235143851 2.2919648096965073, -47.76571438483137 1.8707314038255594, -47.796444920136366 1.6323914404306026 C-47.811751715881805 1.3939757412722735, -47.82705851162724 1.1555600421139447, -47.8662656754117 0.54487681871814 C-47.8662656754117 0.26322245005238154, -47.8662656754117 -0.018431918613376896, -47.8662656754117 -0.5448768187181317 C-47.848723927429255 -0.8181037029887683, -47.83118217944681 -1.091330587259405, -47.796444920136366 -1.6323914404305793 C-47.757759044768605 -1.932431450392769, -47.71907316940085 -2.232471460354959, -47.657090318045654 -2.713198215567447 C-47.58004174526035 -3.1088263525983457, -47.50299317247505 -3.5044544896292447, -47.448774507091 -3.782855877257341 C-47.38309412631219 -4.0333236352240505, -47.31741374553338 -4.283791393190759, -47.172353501623235 -4.836968972727544 C-47.043699207547306 -5.224455208206203, -46.91504491347138 -5.611941443684864, -46.82896317484593 -5.871205925162218 C-46.706929761650656 -6.17263081511009, -46.58489634845537 -6.474055705057963, -46.42001459126881 -6.881316833080692 C-46.30333342130124 -7.123607779095451, -46.18665225133367 -7.365898725110209, -45.947188208341004 -7.863150934094194 C-45.7571818963389 -8.200526381279364, -45.56717558433679 -8.537901828464534, -45.41242697109088 -8.812673661278929 C-45.260447888368475 -9.046154344438484, -45.108468805646076 -9.27963502759804, -44.81792832814825 -9.725983222076884 C-44.67688310739485 -9.914970968402484, -44.53583788664146 -10.103958714728082, -44.16613520195651 -10.599326631598467 C-43.96425741357608 -10.836463769001695, -43.762379625195656 -11.073600906404923, -43.45972595028037 -11.42911513444238 C-43.22145003573721 -11.675154579024595, -42.983174121194054 -11.921194023606809, -42.70160336025928 -12.21193895166136 C-42.525900086970424 -12.371508015608434, -42.35019681368157 -12.53107707955551, -41.89488272023242 -12.944581292275274 C-41.707557947905826 -13.093967813284182, -41.52023317557924 -13.243354334293091, -41.042879018350675 -13.624031571755259 C-40.691596566186554 -13.869071003612687, -40.34031411402243 -14.114110435470113, -40.14909332057934 -14.247497783161284 C-39.83725491074366 -14.436536059769582, -39.52541650090798 -14.62557433637788, -39.21719838406695 -14.812417970097618 C-38.87022964562979 -14.9934313386962, -38.52326090719263 -15.174444707294782, -38.25102356499849 -15.316470754341124 C-38.01408255767434 -15.421357509678268, -37.777141550350194 -15.526244265015414, -37.25453908294937 -15.757584874882365 C-36.96965369716109 -15.86242533030409, -36.68476831137282 -15.967265785725814, -36.231839706401566 -16.133947699181363 C-35.90242615733471 -16.231715911417403, -35.573012608267845 -16.32948412365344, -35.18712792646164 -16.444012671663494 C-34.862819204909265 -16.518034021045636, -34.53851048335689 -16.59205537042778, -34.12469668792333 -16.68650566884811 C-33.886116922063984 -16.72507739517853, -33.64753715620464 -16.763649121508955, -33.04891174863661 -16.86043023499518 C-32.8250273099504 -16.88202809753481, -32.60114287126419 -16.903625960074436, -31.96419373967212 -16.965071676755716 C-31.646260615699212 -16.975267173222242, -31.328327491726302 -16.985462669688772, -30.875000000000004 -17 C-30.875000000000004 -17, -30.875 -17, -30.875 -17" stroke="none" stroke-width="0" fill="#ECECFF" style=""></path><path d="M-30.875 -17 C-11.72592467665067 -17, 7.423150646698659 -17, 30.875 -17 M-30.875 -17 C-15.05407428660052 -17, 0.7668514267989615 -17, 30.875 -17 M30.875 -17 C30.875 -17, 30.875 -17, 30.875 -17 M30.875 -17 C30.875 -17, 30.875 -17, 30.875 -17 M30.875 -17 C31.12013862370282 -16.992138881471234, 31.36527724740564 -16.984277762942472, 31.96419373967212 -16.965071676755716 M30.875 -17 C31.130143634070087 -16.991818040262327, 31.38528726814018 -16.983636080524658, 31.96419373967212 -16.965071676755716 M31.96419373967212 -16.965071676755716 C32.348474797337 -16.928000545288377, 32.73275585500188 -16.890929413821034, 33.0489117486366 -16.860430234995185 M31.96419373967212 -16.965071676755716 C32.31218550414459 -16.931501329758387, 32.66017726861705 -16.897930982761057, 33.0489117486366 -16.860430234995185 M33.0489117486366 -16.860430234995185 C33.30527733446013 -16.818983035224047, 33.56164292028366 -16.77753583545291, 34.124696687923326 -16.686505668848113 M33.0489117486366 -16.860430234995185 C33.43279581392955 -16.79836683638401, 33.8166798792225 -16.736303437772836, 34.124696687923326 -16.686505668848113 M34.124696687923326 -16.686505668848113 C34.34705526388752 -16.6357537749096, 34.56941383985171 -16.585001880971085, 35.18712792646162 -16.4440126716635 M34.124696687923326 -16.686505668848113 C34.54563903376394 -16.59042832531551, 34.96658137960456 -16.494350981782908, 35.18712792646162 -16.4440126716635 M35.18712792646162 -16.4440126716635 C35.55183197888966 -16.335770423273495, 35.91653603131769 -16.227528174883492, 36.23183970640155 -16.133947699181366 M35.18712792646162 -16.4440126716635 C35.46507396194527 -16.361519747300466, 35.74301999742892 -16.279026822937432, 36.23183970640155 -16.133947699181366 M36.23183970640155 -16.133947699181366 C36.474151608872155 -16.04477467916551, 36.71646351134276 -15.955601659149655, 37.25453908294936 -15.757584874882369 M36.23183970640155 -16.133947699181366 C36.443547003640695 -16.05603745679656, 36.65525430087983 -15.978127214411751, 37.25453908294936 -15.757584874882369 M37.25453908294936 -15.757584874882369 C37.49411832685185 -15.6515302504725, 37.73369757075434 -15.545475626062633, 38.25102356499849 -15.316470754341125 M37.25453908294936 -15.757584874882369 C37.57241858230412 -15.616869050078334, 37.89029808165888 -15.476153225274299, 38.25102356499849 -15.316470754341125 M38.25102356499849 -15.316470754341125 C38.593032989293434 -15.138044656753944, 38.93504241358838 -14.959618559166765, 39.21719838406694 -14.812417970097622 M38.25102356499849 -15.316470754341125 C38.44797024059941 -15.213723799830492, 38.64491691620033 -15.110976845319856, 39.21719838406694 -14.812417970097622 M39.21719838406694 -14.812417970097622 C39.49233371504082 -14.64562931558658, 39.767469046014696 -14.47884066107554, 40.149093320579325 -14.247497783161291 M39.21719838406694 -14.812417970097622 C39.539016559824034 -14.617329900740147, 39.860834735581136 -14.42224183138267, 40.149093320579325 -14.247497783161291 M40.149093320579325 -14.247497783161291 C40.39641298958372 -14.074978288359743, 40.643732658588114 -13.902458793558193, 41.042879018350675 -13.624031571755262 M40.149093320579325 -14.247497783161291 C40.45330659636851 -14.035291771151213, 40.7575198721577 -13.823085759141136, 41.042879018350675 -13.624031571755262 M41.042879018350675 -13.624031571755262 C41.32474711781597 -13.399249263256833, 41.60661521728126 -13.174466954758403, 41.8948827202324 -12.944581292275288 M41.042879018350675 -13.624031571755262 C41.30791602941135 -13.412671608365443, 41.57295304047203 -13.201311644975622, 41.8948827202324 -12.944581292275288 M41.8948827202324 -12.944581292275288 C42.16888448967027 -12.695740134961367, 42.442886259108136 -12.446898977647447, 42.70160336025927 -12.21193895166137 M41.8948827202324 -12.944581292275288 C42.11537551325672 -12.744335571570213, 42.33586830628105 -12.544089850865136, 42.70160336025927 -12.21193895166137 M42.70160336025927 -12.21193895166137 C42.95910599385173 -11.946046341117764, 43.21660862744418 -11.680153730574158, 43.45972595028036 -11.42911513444239 M42.70160336025927 -12.21193895166137 C42.99360193058287 -11.910426454273779, 43.285600500906476 -11.608913956886186, 43.45972595028036 -11.42911513444239 M43.45972595028036 -11.42911513444239 C43.721029346579236 -11.122173296565268, 43.98233274287812 -10.815231458688148, 44.16613520195651 -10.59932663159847 M43.45972595028036 -11.42911513444239 C43.61944329717102 -11.241502050610126, 43.779160644061676 -11.053888966777865, 44.16613520195651 -10.59932663159847 M44.16613520195651 -10.59932663159847 C44.38665168458328 -10.303854634343447, 44.60716816721005 -10.00838263708842, 44.81792832814825 -9.725983222076888 M44.16613520195651 -10.59932663159847 C44.37181921310451 -10.323728794859045, 44.57750322425251 -10.04813095811962, 44.81792832814825 -9.725983222076888 M44.81792832814825 -9.725983222076888 C44.96341434516129 -9.502477631479186, 45.10890036217433 -9.278972040881486, 45.41242697109088 -8.812673661278927 M44.81792832814825 -9.725983222076888 C44.95563971838624 -9.514421545985273, 45.093351108624226 -9.302859869893657, 45.41242697109088 -8.812673661278927 M45.41242697109088 -8.812673661278927 C45.567000681771255 -8.538212385680449, 45.72157439245162 -8.263751110081971, 45.947188208341004 -7.863150934094199 M45.41242697109088 -8.812673661278927 C45.602906427194846 -8.474458098829873, 45.79338588329882 -8.136242536380816, 45.947188208341004 -7.863150934094199 M45.947188208341004 -7.863150934094199 C46.12891994959644 -7.485781084940946, 46.31065169085187 -7.108411235787693, 46.42001459126881 -6.881316833080699 M45.947188208341004 -7.863150934094199 C46.099540475368606 -7.546788191795075, 46.251892742396215 -7.23042544949595, 46.42001459126881 -6.881316833080699 M46.42001459126881 -6.881316833080699 C46.57736308043138 -6.492663022723063, 46.734711569593955 -6.104009212365428, 46.828963174845924 -5.871205925162238 M46.42001459126881 -6.881316833080699 C46.546773269324255 -6.568220447571434, 46.67353194737969 -6.25512406206217, 46.828963174845924 -5.871205925162238 M46.828963174845924 -5.871205925162238 C46.91665022491593 -5.6071065013855135, 47.004337274985936 -5.343007077608789, 47.172353501623235 -4.836968972727556 M46.828963174845924 -5.871205925162238 C46.921940254741365 -5.591173774403096, 47.014917334636806 -5.311141623643953, 47.172353501623235 -4.836968972727556 M47.172353501623235 -4.836968972727556 C47.27173658841925 -4.457978189872046, 47.371119675215276 -4.078987407016537, 47.448774507091 -3.7828558772573464 M47.172353501623235 -4.836968972727556 C47.24934350596104 -4.543372718508541, 47.326333510298845 -4.249776464289527, 47.448774507091 -3.7828558772573464 M47.448774507091 -3.7828558772573464 C47.52182959375949 -3.4077334474126726, 47.59488468042798 -3.0326110175679992, 47.65709031804565 -2.713198215567453 M47.448774507091 -3.7828558772573464 C47.49047535254832 -3.5687308493107985, 47.532176198005644 -3.3546058213642507, 47.65709031804565 -2.713198215567453 M47.65709031804565 -2.713198215567453 C47.69611225679698 -2.4105517643654912, 47.73513419554831 -2.1079053131635295, 47.796444920136366 -1.632391440430593 M47.65709031804565 -2.713198215567453 C47.6946481811739 -2.421906845783676, 47.73220604430215 -2.1306154759998988, 47.796444920136366 -1.632391440430593 M47.796444920136366 -1.632391440430593 C47.81273152344447 -1.3787144475973039, 47.82901812675258 -1.1250374547640147, 47.8662656754117 -0.5448768187181379 M47.796444920136366 -1.632391440430593 C47.81160002467777 -1.3963384542180202, 47.82675512921918 -1.1602854680054473, 47.8662656754117 -0.5448768187181379 M47.8662656754117 -0.5448768187181379 C47.8662656754117 -0.17698870456722887, 47.8662656754117 0.19089940958368012, 47.8662656754117 0.5448768187181336 M47.8662656754117 -0.5448768187181379 C47.8662656754117 -0.28533341346451185, 47.8662656754117 -0.02579000821088584, 47.8662656754117 0.5448768187181336 M47.8662656754117 0.5448768187181336 C47.85034576630847 0.7928422533202136, 47.83442585720524 1.0408076879222936, 47.796444920136366 1.6323914404305815 M47.8662656754117 0.5448768187181336 C47.84878338204062 0.8171776494257704, 47.831301088669555 1.0894784801334072, 47.796444920136366 1.6323914404305815 M47.796444920136366 1.6323914404305815 C47.74439669885961 2.0360671665693055, 47.692348477582854 2.4397428927080296, 47.657090318045654 2.7131982155674415 M47.796444920136366 1.6323914404305815 C47.767163814952106 1.8594899100314637, 47.73788270976785 2.086588379632346, 47.657090318045654 2.7131982155674415 M47.657090318045654 2.7131982155674415 C47.60236062074425 2.9942236440845376, 47.547630923442846 3.275249072601634, 47.448774507091 3.782855877257343 M47.657090318045654 2.7131982155674415 C47.5792759376461 3.112758612844011, 47.50146155724655 3.5123190101205806, 47.448774507091 3.782855877257343 M47.448774507091 3.782855877257343 C47.35859755265198 4.126739687472609, 47.26842059821296 4.4706234976878765, 47.172353501623235 4.836968972727545 M47.448774507091 3.782855877257343 C47.37604518107096 4.0602043184610785, 47.303315855050904 4.337552759664814, 47.172353501623235 4.836968972727545 M47.172353501623235 4.836968972727545 C47.03629966197629 5.246741460508628, 46.90024582232934 5.656513948289711, 46.828963174845924 5.871205925162227 M47.172353501623235 4.836968972727545 C47.09328957172218 5.075096932463003, 47.014225641821135 5.313224892198461, 46.828963174845924 5.871205925162227 M46.828963174845924 5.871205925162227 C46.69860641847006 6.193189633687057, 46.56824966209419 6.515173342211887, 46.42001459126881 6.881316833080694 M46.828963174845924 5.871205925162227 C46.71490491165339 6.1529320404142895, 46.60084664846086 6.4346581556663525, 46.42001459126881 6.881316833080694 M46.42001459126881 6.881316833080694 C46.29293321270122 7.145204034782208, 46.165851834133626 7.409091236483721, 45.947188208341004 7.863150934094196 M46.42001459126881 6.881316833080694 C46.263636385097676 7.206039524152658, 46.10725817892654 7.530762215224621, 45.947188208341004 7.863150934094196 M45.947188208341004 7.863150934094196 C45.81267379648693 8.10199489340231, 45.67815938463287 8.340838852710423, 45.41242697109089 8.812673661278923 M45.947188208341004 7.863150934094196 C45.78629155541679 8.148839233913954, 45.62539490249257 8.43452753373371, 45.41242697109089 8.812673661278923 M45.41242697109089 8.812673661278923 C45.25351583849993 9.056803834552602, 45.09460470590898 9.30093400782628, 44.817928328148255 9.725983222076879 M45.41242697109089 8.812673661278923 C45.18636563785016 9.159964575104294, 44.96030430460943 9.507255488929665, 44.817928328148255 9.725983222076879 M44.817928328148255 9.725983222076879 C44.574333669827226 10.05237787229715, 44.3307390115062 10.378772522517421, 44.16613520195651 10.599326631598467 M44.817928328148255 9.725983222076879 C44.677282631909 9.914435641950957, 44.536636935669755 10.102888061825034, 44.16613520195651 10.599326631598467 M44.16613520195651 10.599326631598467 C44.010042076668896 10.78268249851174, 43.853948951381284 10.966038365425012, 43.45972595028037 11.42911513444238 M44.16613520195651 10.599326631598467 C43.96014787284969 10.841291069378403, 43.75416054374288 11.083255507158338, 43.45972595028037 11.42911513444238 M43.45972595028037 11.42911513444238 C43.24733586315485 11.648425336949924, 43.03494577602933 11.867735539457469, 42.70160336025927 12.211938951661365 M43.45972595028037 11.42911513444238 C43.2049902123251 11.692150698074233, 42.95025447436983 11.955186261706086, 42.70160336025927 12.211938951661365 M42.70160336025927 12.211938951661365 C42.52192504889398 12.375118040015716, 42.34224673752869 12.538297128370065, 41.89488272023242 12.944581292275275 M42.70160336025927 12.211938951661365 C42.388287285677656 12.496484320707328, 42.07497121109604 12.78102968975329, 41.89488272023242 12.944581292275275 M41.89488272023242 12.944581292275275 C41.64437699618899 13.14435294096263, 41.39387127214556 13.344124589649983, 41.042879018350675 13.62403157175526 M41.89488272023242 12.944581292275275 C41.648900259985346 13.140745758454136, 41.40291779973828 13.336910224632994, 41.042879018350675 13.62403157175526 M41.042879018350675 13.62403157175526 C40.86153485466154 13.750529410082475, 40.68019069097242 13.877027248409691, 40.14909332057934 14.247497783161286 M41.042879018350675 13.62403157175526 C40.75691002833562 13.823511159791709, 40.47094103832056 14.022990747828155, 40.14909332057934 14.247497783161286 M40.14909332057934 14.247497783161286 C39.904032835288014 14.396054889480151, 39.65897234999669 14.544611995799018, 39.21719838406695 14.81241797009762 M40.14909332057934 14.247497783161286 C39.86199821791857 14.42153652155234, 39.5749031152578 14.595575259943393, 39.21719838406695 14.81241797009762 M39.21719838406695 14.81241797009762 C38.867771494938765 14.994713754337187, 38.51834460581058 15.177009538576753, 38.25102356499849 15.316470754341124 M39.21719838406695 14.81241797009762 C38.95454378265393 14.94944470741649, 38.69188918124091 15.086471444735361, 38.25102356499849 15.316470754341124 M38.25102356499849 15.316470754341124 C37.94119276826071 15.453623657252903, 37.63136197152293 15.590776560164683, 37.254539082949364 15.757584874882367 M38.25102356499849 15.316470754341124 C37.890326645031095 15.476140581116718, 37.5296297250637 15.635810407892315, 37.254539082949364 15.757584874882367 M37.254539082949364 15.757584874882367 C36.98092903943111 15.858275900120601, 36.70731899591286 15.958966925358835, 36.23183970640156 16.133947699181363 M37.254539082949364 15.757584874882367 C37.02073540603732 15.843626789243498, 36.78693172912527 15.929668703604627, 36.23183970640156 16.133947699181363 M36.23183970640156 16.133947699181363 C35.93847771688243 16.221015997782136, 35.645115727363304 16.30808429638291, 35.18712792646164 16.444012671663497 M36.23183970640156 16.133947699181363 C35.95046925637682 16.217456971805074, 35.66909880635208 16.300966244428786, 35.18712792646164 16.444012671663497 M35.18712792646164 16.444012671663497 C34.79714687053232 16.533023302815145, 34.407165814603005 16.62203393396679, 34.12469668792333 16.68650566884811 M35.18712792646164 16.444012671663497 C34.88302844465423 16.513421393951464, 34.57892896284682 16.582830116239432, 34.12469668792333 16.68650566884811 M34.12469668792333 16.68650566884811 C33.87351101878209 16.727115419860908, 33.62232534964085 16.767725170873707, 33.04891174863661 16.86043023499518 M34.12469668792333 16.68650566884811 C33.72206011821477 16.751600826945356, 33.31942354850621 16.816695985042603, 33.04891174863661 16.86043023499518 M33.04891174863661 16.86043023499518 C32.707006238646954 16.893413448342347, 32.365100728657296 16.926396661689513, 31.96419373967212 16.965071676755716 M33.04891174863661 16.86043023499518 C32.803178479830244 16.88413582789944, 32.557445211023875 16.907841420803695, 31.96419373967212 16.965071676755716 M31.96419373967212 16.965071676755716 C31.693825749594968 16.973741851958124, 31.423457759517817 16.98241202716053, 30.875000000000004 17 M31.96419373967212 16.965071676755716 C31.560306753135837 16.978023546295606, 31.156419766599555 16.990975415835496, 30.875000000000004 17 M30.875000000000004 17 C30.875000000000004 17, 30.875000000000004 17, 30.875 17 M30.875000000000004 17 C30.875000000000004 17, 30.875000000000004 17, 30.875 17 M30.875 17 C17.43938027947162 17, 4.003760558943242 17, -30.874999999999996 17 M30.875 17 C12.360856174295485 17, -6.1532876514090304 17, -30.874999999999996 17 M-30.874999999999996 17 C-31.184764122338212 16.9900664675159, -31.49452824467643 16.9801329350318, -31.964193739672112 16.965071676755716 M-30.874999999999996 17 C-31.15129169455409 16.991139863124808, -31.427583389108186 16.98227972624962, -31.964193739672112 16.965071676755716 M-31.964193739672112 16.965071676755716 C-32.36542289384511 16.926365582801303, -32.76665204801811 16.887659488846893, -33.048911748636606 16.86043023499518 M-31.964193739672112 16.965071676755716 C-32.22674102523697 16.93974405587658, -32.48928831080183 16.91441643499745, -33.048911748636606 16.86043023499518 M-33.048911748636606 16.86043023499518 C-33.42387503907811 16.799809078080344, -33.79883832951962 16.73918792116551, -34.124696687923326 16.68650566884811 M-33.048911748636606 16.86043023499518 C-33.29262283672142 16.821028916281346, -33.536333924806236 16.781627597567507, -34.124696687923326 16.68650566884811 M-34.124696687923326 16.68650566884811 C-34.41050149908106 16.62127258575205, -34.696306310238796 16.556039502655988, -35.18712792646162 16.4440126716635 M-34.124696687923326 16.68650566884811 C-34.44123854986653 16.614257054488263, -34.75778041180975 16.54200844012842, -35.18712792646162 16.4440126716635 M-35.18712792646162 16.4440126716635 C-35.58819396293992 16.32497837727533, -35.98925999941822 16.205944082887154, -36.231839706401544 16.13394769918137 M-35.18712792646162 16.4440126716635 C-35.50130349020968 16.350767013484266, -35.81547905395773 16.25752135530503, -36.231839706401544 16.13394769918137 M-36.231839706401544 16.13394769918137 C-36.52792973036718 16.02498383333584, -36.82401975433282 15.916019967490307, -37.254539082949364 15.757584874882369 M-36.231839706401544 16.13394769918137 C-36.44258920755665 16.056389934609257, -36.65333870871176 15.978832170037146, -37.254539082949364 15.757584874882369 M-37.254539082949364 15.757584874882369 C-37.50206935619564 15.648010565640911, -37.74959962944192 15.538436256399454, -38.25102356499848 15.316470754341127 M-37.254539082949364 15.757584874882369 C-37.559036667253366 15.622792826910896, -37.863534251557375 15.488000778939423, -38.25102356499848 15.316470754341127 M-38.25102356499848 15.316470754341127 C-38.60123378584096 15.13376630644796, -38.95144400668343 14.951061858554793, -39.21719838406693 14.812417970097624 M-38.25102356499848 15.316470754341127 C-38.486280206415 15.1937375152032, -38.72153684783152 15.07100427606527, -39.21719838406693 14.812417970097624 M-39.21719838406693 14.812417970097624 C-39.5354699130332 14.619479898867164, -39.85374144199946 14.426541827636704, -40.14909332057932 14.247497783161299 M-39.21719838406693 14.812417970097624 C-39.56643930122015 14.600706073751905, -39.915680218373375 14.388994177406186, -40.14909332057932 14.247497783161299 M-40.14909332057932 14.247497783161299 C-40.340361229360816 14.11407756984965, -40.53162913814231 13.980657356538002, -41.04287901835067 13.624031571755264 M-40.14909332057932 14.247497783161299 C-40.43319688170434 14.049319437565424, -40.71730044282936 13.85114109196955, -41.04287901835067 13.624031571755264 M-41.04287901835067 13.624031571755264 C-41.28607737631138 13.430087353061696, -41.529275734272105 13.236143134368128, -41.8948827202324 12.94458129227529 M-41.04287901835067 13.624031571755264 C-41.28681118867687 13.429502157227791, -41.53074335900307 13.234972742700316, -41.8948827202324 12.94458129227529 M-41.8948827202324 12.94458129227529 C-42.212657298683936 12.655986827980213, -42.53043187713548 12.367392363685136, -42.70160336025926 12.211938951661377 M-41.8948827202324 12.94458129227529 C-42.13504673843092 12.726470685339105, -42.37521075662944 12.50836007840292, -42.70160336025926 12.211938951661377 M-42.70160336025926 12.211938951661377 C-42.9474837602927 11.95804725147058, -43.19336416032614 11.704155551279783, -43.459725950280365 11.429115134442386 M-42.70160336025926 12.211938951661377 C-42.973095836491595 11.93160068000466, -43.24458831272393 11.651262408347941, -43.459725950280365 11.429115134442386 M-43.459725950280365 11.429115134442386 C-43.648694726499336 11.207141657267607, -43.83766350271831 10.98516818009283, -44.16613520195651 10.599326631598473 M-43.459725950280365 11.429115134442386 C-43.67659642198835 11.174366738094758, -43.89346689369634 10.919618341747132, -44.16613520195651 10.599326631598473 M-44.16613520195651 10.599326631598473 C-44.34608562485825 10.358209458730922, -44.52603604775999 10.11709228586337, -44.81792832814825 9.72598322207689 M-44.16613520195651 10.599326631598473 C-44.38965849122846 10.29982578736462, -44.61318178050042 10.000324943130767, -44.81792832814825 9.72598322207689 M-44.81792832814825 9.72598322207689 C-44.9841060000127 9.47068969314011, -45.150283671877155 9.21539616420333, -45.41242697109088 8.812673661278936 M-44.81792832814825 9.72598322207689 C-44.95108811488287 9.521414031243125, -45.08424790161749 9.316844840409361, -45.41242697109088 8.812673661278936 M-45.41242697109088 8.812673661278936 C-45.61117010086042 8.459785109448964, -45.80991323062995 8.10689655761899, -45.947188208341004 7.863150934094201 M-45.41242697109088 8.812673661278936 C-45.59361225805824 8.490960837268597, -45.774797545025606 8.169248013258256, -45.947188208341004 7.863150934094201 M-45.947188208341004 7.863150934094201 C-46.05622619376536 7.636731224321382, -46.16526417918972 7.410311514548562, -46.42001459126881 6.881316833080701 M-45.947188208341004 7.863150934094201 C-46.104962463831704 7.535529316739494, -46.2627367193224 7.207907699384786, -46.42001459126881 6.881316833080701 M-46.42001459126881 6.881316833080701 C-46.56935304608688 6.512447962417468, -46.718691500904946 6.143579091754236, -46.828963174845924 5.87120592516224 M-46.42001459126881 6.881316833080701 C-46.503962596149826 6.673963638000334, -46.58791060103084 6.466610442919967, -46.828963174845924 5.87120592516224 M-46.828963174845924 5.87120592516224 C-46.96154092100092 5.471902877138649, -47.094118667155904 5.072599829115059, -47.172353501623235 4.8369689727275516 M-46.828963174845924 5.87120592516224 C-46.91635662803529 5.607990768411702, -47.003750081224645 5.344775611661164, -47.172353501623235 4.8369689727275516 M-47.172353501623235 4.8369689727275516 C-47.26692616185905 4.47632243119816, -47.361498822094866 4.11567588966877, -47.448774507091 3.782855877257349 M-47.172353501623235 4.8369689727275516 C-47.25619744487907 4.517235678898165, -47.340041388134914 4.197502385068779, -47.448774507091 3.782855877257349 M-47.448774507091 3.782855877257349 C-47.51778956085866 3.4284781624971887, -47.586804614626324 3.074100447737028, -47.65709031804565 2.713198215567455 M-47.448774507091 3.782855877257349 C-47.501294544067434 3.513176587497118, -47.55381458104386 3.2434972977368868, -47.65709031804565 2.713198215567455 M-47.65709031804565 2.713198215567455 C-47.69618427696041 2.4099931901999607, -47.735278235875164 2.1067881648324667, -47.796444920136366 1.6323914404306026 M-47.65709031804565 2.713198215567455 C-47.698718104427755 2.3903413247240093, -47.74034589080987 2.0674844338805634, -47.796444920136366 1.6323914404306026 M-47.796444920136366 1.6323914404306026 C-47.81940010903443 1.274845844248214, -47.84235529793251 0.9173002480658252, -47.8662656754117 0.54487681871814 M-47.796444920136366 1.6323914404306026 C-47.81799473110301 1.2967357399308164, -47.83954454206965 0.9610800394310302, -47.8662656754117 0.54487681871814 M-47.8662656754117 0.54487681871814 C-47.8662656754117 0.1652884367103809, -47.8662656754117 -0.21429994529737817, -47.8662656754117 -0.5448768187181317 M-47.8662656754117 0.54487681871814 C-47.8662656754117 0.11856933951814708, -47.8662656754117 -0.3077381396818458, -47.8662656754117 -0.5448768187181317 M-47.8662656754117 -0.5448768187181317 C-47.844814149178724 -0.8790016551569771, -47.82336262294575 -1.2131264915958226, -47.796444920136366 -1.6323914404305793 M-47.8662656754117 -0.5448768187181317 C-47.84999827010671 -0.7982547871565184, -47.83373086480172 -1.0516327555949054, -47.796444920136366 -1.6323914404305793 M-47.796444920136366 -1.6323914404305793 C-47.759402575212114 -1.9196845528247461, -47.722360230287855 -2.206977665218913, -47.657090318045654 -2.713198215567447 M-47.796444920136366 -1.6323914404305793 C-47.74612144832608 -2.0226903502976974, -47.695797976515784 -2.412989260164815, -47.657090318045654 -2.713198215567447 M-47.657090318045654 -2.713198215567447 C-47.61102044178611 -2.949757293288392, -47.56495056552657 -3.1863163710093376, -47.448774507091 -3.782855877257341 M-47.657090318045654 -2.713198215567447 C-47.611877011332716 -2.9453589897026404, -47.56666370461977 -3.1775197638378345, -47.448774507091 -3.782855877257341 M-47.448774507091 -3.782855877257341 C-47.37156654807327 -4.077283287133086, -47.29435858905553 -4.37171069700883, -47.172353501623235 -4.836968972727544 M-47.448774507091 -3.782855877257341 C-47.3598445224603 -4.121984451153355, -47.2709145378296 -4.46111302504937, -47.172353501623235 -4.836968972727544 M-47.172353501623235 -4.836968972727544 C-47.03739592583731 -5.243439688425164, -46.902438350051376 -5.649910404122785, -46.82896317484593 -5.871205925162218 M-47.172353501623235 -4.836968972727544 C-47.074646090418824 -5.131248127713363, -46.97693867921442 -5.425527282699183, -46.82896317484593 -5.871205925162218 M-46.82896317484593 -5.871205925162218 C-46.71528889676985 -6.1519835897527875, -46.60161461869377 -6.432761254343358, -46.42001459126881 -6.881316833080692 M-46.82896317484593 -5.871205925162218 C-46.66690832766955 -6.271484530805188, -46.50485348049318 -6.671763136448159, -46.42001459126881 -6.881316833080692 M-46.42001459126881 -6.881316833080692 C-46.28525479268161 -7.161148438244784, -46.150494994094416 -7.440980043408876, -45.947188208341004 -7.863150934094194 M-46.42001459126881 -6.881316833080692 C-46.2716477770941 -7.18940369725574, -46.1232809629194 -7.497490561430787, -45.947188208341004 -7.863150934094194 M-45.947188208341004 -7.863150934094194 C-45.81149798678217 -8.104082662596763, -45.67580776522334 -8.345014391099332, -45.41242697109088 -8.812673661278929 M-45.947188208341004 -7.863150934094194 C-45.7372259956171 -8.235960103764976, -45.52726378289321 -8.608769273435758, -45.41242697109088 -8.812673661278929 M-45.41242697109088 -8.812673661278929 C-45.187127664397096 -9.158793897695412, -44.96182835770331 -9.504914134111896, -44.81792832814825 -9.725983222076884 M-45.41242697109088 -8.812673661278929 C-45.20909867081256 -9.125040531799959, -45.005770370534236 -9.437407402320991, -44.81792832814825 -9.725983222076884 M-44.81792832814825 -9.725983222076884 C-44.683832579383626 -9.90565930904745, -44.549736830619004 -10.085335396018017, -44.16613520195651 -10.599326631598467 M-44.81792832814825 -9.725983222076884 C-44.557628016730185 -10.074761925530876, -44.29732770531213 -10.423540628984865, -44.16613520195651 -10.599326631598467 M-44.16613520195651 -10.599326631598467 C-43.98688415610246 -10.809885109732084, -43.80763311024842 -11.020443587865703, -43.45972595028037 -11.42911513444238 M-44.16613520195651 -10.599326631598467 C-43.94299099205715 -10.861444517811503, -43.71984678215778 -11.123562404024536, -43.45972595028037 -11.42911513444238 M-43.45972595028037 -11.42911513444238 C-43.168838863903325 -11.729479933400622, -42.87795177752628 -12.029844732358866, -42.70160336025928 -12.21193895166136 M-43.45972595028037 -11.42911513444238 C-43.18765577601573 -11.71004992674735, -42.91558560175108 -11.990984719052319, -42.70160336025928 -12.21193895166136 M-42.70160336025928 -12.21193895166136 C-42.468099160264636 -12.424001287913917, -42.23459496026999 -12.636063624166477, -41.89488272023242 -12.944581292275274 M-42.70160336025928 -12.21193895166136 C-42.47364403755106 -12.4189655770718, -42.24568471484284 -12.625992202482239, -41.89488272023242 -12.944581292275274 M-41.89488272023242 -12.944581292275274 C-41.62828714048523 -13.157184172717331, -41.361691560738045 -13.36978705315939, -41.042879018350675 -13.624031571755259 M-41.89488272023242 -12.944581292275274 C-41.58039371340881 -13.195377906313155, -41.26590470658521 -13.446174520351034, -41.042879018350675 -13.624031571755259 M-41.042879018350675 -13.624031571755259 C-40.802424137131695 -13.791762487769576, -40.56196925591272 -13.959493403783895, -40.14909332057934 -14.247497783161284 M-41.042879018350675 -13.624031571755259 C-40.72504154520363 -13.845741234060183, -40.40720407205658 -14.067450896365107, -40.14909332057934 -14.247497783161284 M-40.14909332057934 -14.247497783161284 C-39.80452520482372 -14.456376999839353, -39.45995708906809 -14.665256216517422, -39.21719838406695 -14.812417970097618 M-40.14909332057934 -14.247497783161284 C-39.77802147635037 -14.472443715793093, -39.4069496321214 -14.697389648424899, -39.21719838406695 -14.812417970097618 M-39.21719838406695 -14.812417970097618 C-38.91867300658771 -14.968158468313906, -38.62014762910847 -15.123898966530193, -38.25102356499849 -15.316470754341124 M-39.21719838406695 -14.812417970097618 C-38.9229823585738 -14.965910282143037, -38.62876633308064 -15.119402594188456, -38.25102356499849 -15.316470754341124 M-38.25102356499849 -15.316470754341124 C-37.91454825195711 -15.465418394239014, -37.578072938915724 -15.614366034136905, -37.25453908294937 -15.757584874882365 M-38.25102356499849 -15.316470754341124 C-38.02321099347078 -15.417316621936614, -37.79539842194306 -15.518162489532106, -37.25453908294937 -15.757584874882365 M-37.25453908294937 -15.757584874882365 C-36.97379420002775 -15.860901586974771, -36.69304931710612 -15.964218299067179, -36.231839706401566 -16.133947699181363 M-37.25453908294937 -15.757584874882365 C-36.99170493042973 -15.854310272621866, -36.72887077791008 -15.951035670361367, -36.231839706401566 -16.133947699181363 M-36.231839706401566 -16.133947699181363 C-35.885381431881314 -16.23677469646238, -35.53892315736107 -16.339601693743393, -35.18712792646164 -16.444012671663494 M-36.231839706401566 -16.133947699181363 C-35.9140130226667 -16.22827699060756, -35.59618633893184 -16.322606282033764, -35.18712792646164 -16.444012671663494 M-35.18712792646164 -16.444012671663494 C-34.93191566699755 -16.50226320447054, -34.67670340753345 -16.560513737277585, -34.12469668792333 -16.68650566884811 M-35.18712792646164 -16.444012671663494 C-34.85494903911277 -16.519830335031056, -34.522770151763886 -16.59564799839862, -34.12469668792333 -16.68650566884811 M-34.12469668792333 -16.68650566884811 C-33.70128907084923 -16.75495892880154, -33.27788145377512 -16.82341218875497, -33.04891174863661 -16.86043023499518 M-34.12469668792333 -16.68650566884811 C-33.88110746627143 -16.72588728514216, -33.637518244619535 -16.765268901436215, -33.04891174863661 -16.86043023499518 M-33.04891174863661 -16.86043023499518 C-32.6713722531566 -16.896851016066464, -32.293832757676576 -16.93327179713775, -31.96419373967212 -16.965071676755716 M-33.04891174863661 -16.86043023499518 C-32.67510988174261 -16.89649045153193, -32.30130801484861 -16.932550668068675, -31.96419373967212 -16.965071676755716 M-31.96419373967212 -16.965071676755716 C-31.61458210885317 -16.97628304127832, -31.264970478034225 -16.98749440580093, -30.875000000000004 -17 M-31.96419373967212 -16.965071676755716 C-31.63459727078168 -16.975641193992427, -31.305000801891236 -16.986210711229134, -30.875000000000004 -17 M-30.875000000000004 -17 C-30.875000000000004 -17, -30.875 -17, -30.875 -17 M-30.875000000000004 -17 C-30.875000000000004 -17, -30.875000000000004 -17, -30.875 -17" stroke="#9370DB" stroke-width="1.3" fill="none" stroke-dasharray="0 0" style=""></path></g><g class="label" style="" transform="translate(0, -9.5)"><rect></rect><g><rect class="background" style="stroke: none"></rect><text y="-10.1" style=""><tspan class="text-outer-tspan row" x="0" y="-0.1em" dy="1.1em"><tspan font-style="normal" class="text-inner-tspan" font-weight="normal">Start</tspan><tspan font-style="normal" class="text-inner-tspan" font-weight="normal"> here</tspan></tspan></text></g></g></g><g class="node default" id="ga7d9cb23-6854-4f84-84c8-9045d3728353-light-flowchart-docsQ-1" data-look="classic" transform="translate(280.4421844482422, 227.15000915527344)"><polygon points="135.1500015258789,0 270.3000030517578,-135.1500015258789 135.1500015258789,-270.3000030517578 0,-135.1500015258789" class="label-container" transform="translate(-134.6500015258789, 135.1500015258789)"></polygon><g class="label" style="" transform="translate(0, -35.900001525878906)"><rect></rect><g><rect class="background" style="stroke: none"></rect><text y="-10.1" style=""><tspan class="text-outer-tspan row" x="0" y="-0.1em" dy="1.1em"><tspan font-style="normal" class="text-inner-tspan" font-weight="normal">Need</tspan><tspan font-style="normal" class="text-inner-tspan" font-weight="normal"> built-in</tspan><tspan font-style="normal" class="text-inner-tspan" font-weight="normal"> docs</tspan></tspan><tspan class="text-outer-tspan row" x="0" y="1em" dy="1.1em"><tspan font-style="normal" class="text-inner-tspan" font-weight="normal">navigation,</tspan></tspan><tspan class="text-outer-tspan row" x="0" y="2.1em" dy="1.1em"><tspan font-style="normal" class="text-inner-tspan" font-weight="normal">search,</tspan><tspan font-style="normal" class="text-inner-tspan" font-weight="normal"> and</tspan><tspan font-style="normal" class="text-inner-tspan" font-weight="normal"> the</tspan><tspan font-style="normal" class="text-inner-tspan" font-weight="normal"> default</tspan></tspan><tspan class="text-outer-tspan row" x="0" y="3.2em" dy="1.1em"><tspan font-style="normal" class="text-inner-tspan" font-weight="normal">theme?</tspan></tspan></text></g></g></g><g class="node default" id="ga7d9cb23-6854-4f84-84c8-9045d3728353-light-flowchart-docs-3" data-look="classic" transform="translate(124.9296875, 579.3953247070312)"><rect class="basic label-container" style="" x="-116.9296875" y="-50.900001525878906" width="233.859375" height="101.80000305175781"></rect><g class="label" style="" transform="translate(0, -35.900001525878906)"><rect></rect><g><rect class="background" style="stroke: none"></rect><text y="-10.1" style=""><tspan class="text-outer-tspan row" x="0" y="-0.1em" dy="1.1em"><tspan font-style="normal" class="text-inner-tspan" font-weight="normal">@pagesmith/docs</tspan></tspan><tspan class="text-outer-tspan row" x="0" y="1em" dy="1.1em"><tspan font-style="normal" class="text-inner-tspan" font-weight="normal">Docs</tspan><tspan font-style="normal" class="text-inner-tspan" font-weight="normal"> preset</tspan><tspan font-style="normal" class="text-inner-tspan" font-weight="normal"> with</tspan><tspan font-style="normal" class="text-inner-tspan" font-weight="normal"> config,</tspan></tspan><tspan class="text-outer-tspan row" x="0" y="2.1em" dy="1.1em"><tspan font-style="normal" class="text-inner-tspan" font-weight="normal">navigation,</tspan><tspan font-style="normal" class="text-inner-tspan" font-weight="normal"> search,</tspan><tspan font-style="normal" class="text-inner-tspan" font-weight="normal"> and</tspan></tspan><tspan class="text-outer-tspan row" x="0" y="3.2em" dy="1.1em"><tspan font-style="normal" class="text-inner-tspan" font-weight="normal">theme</tspan></tspan></text></g></g></g><g class="node default" id="ga7d9cb23-6854-4f84-84c8-9045d3728353-light-flowchart-hostQ-5" data-look="classic" transform="translate(435.9546813964844, 579.3953247070312)"><polygon points="144.0953140258789,0 288.1906280517578,-144.0953140258789 144.0953140258789,-288.1906280517578 0,-144.0953140258789" class="label-container" transform="translate(-143.5953140258789, 144.0953140258789)"></polygon><g class="label" style="" transform="translate(0, -35.900001525878906)"><rect></rect><g><rect class="background" style="stroke: none"></rect><text y="-10.1" style=""><tspan class="text-outer-tspan row" x="0" y="-0.1em" dy="1.1em"><tspan font-style="normal" class="text-inner-tspan" font-weight="normal">Does</tspan><tspan font-style="normal" class="text-inner-tspan" font-weight="normal"> the</tspan><tspan font-style="normal" class="text-inner-tspan" font-weight="normal"> host</tspan><tspan font-style="normal" class="text-inner-tspan" font-weight="normal"> app</tspan><tspan font-style="normal" class="text-inner-tspan" font-weight="normal"> already</tspan></tspan><tspan class="text-outer-tspan row" x="0" y="1em" dy="1.1em"><tspan font-style="normal" class="text-inner-tspan" font-weight="normal">own</tspan></tspan><tspan class="text-outer-tspan row" x="0" y="2.1em" dy="1.1em"><tspan font-style="normal" class="text-inner-tspan" font-weight="normal">routing,</tspan><tspan font-style="normal" class="text-inner-tspan" font-weight="normal"> layout,</tspan><tspan font-style="normal" class="text-inner-tspan" font-weight="normal"> and</tspan><tspan font-style="normal" class="text-inner-tspan" font-weight="normal"> build</tspan></tspan><tspan class="text-outer-tspan row" x="0" y="3.2em" dy="1.1em"><tspan font-style="normal" class="text-inner-tspan" font-weight="normal">tooling?</tspan></tspan></text></g></g></g><g class="node default" id="ga7d9cb23-6854-4f84-84c8-9045d3728353-light-flowchart-core-7" data-look="classic" transform="translate(563.1460876464844, 856.1906318664551)"><rect class="basic label-container" style="" x="-111.96875" y="-59.70000076293945" width="223.9375" height="119.4000015258789"></rect><g class="label" style="" transform="translate(0, -44.70000076293945)"><rect></rect><g><rect class="background" style="stroke: none"></rect><text y="-10.1" style=""><tspan class="text-outer-tspan row" x="0" y="-0.1em" dy="1.1em"><tspan font-style="normal" class="text-inner-tspan" font-weight="normal">@pagesmith/core</tspan></tspan><tspan class="text-outer-tspan row" x="0" y="1em" dy="1.1em"><tspan font-style="normal" class="text-inner-tspan" font-weight="normal">Headless</tspan><tspan font-style="normal" class="text-inner-tspan" font-weight="normal"> content</tspan><tspan font-style="normal" class="text-inner-tspan" font-weight="normal"> layer</tspan></tspan><tspan class="text-outer-tspan row" x="0" y="2.1em" dy="1.1em"><tspan font-style="normal" class="text-inner-tspan" font-weight="normal">with</tspan></tspan><tspan class="text-outer-tspan row" x="0" y="3.2em" dy="1.1em"><tspan font-style="normal" class="text-inner-tspan" font-weight="normal">schemas,</tspan><tspan font-style="normal" class="text-inner-tspan" font-weight="normal"> loaders,</tspan><tspan font-style="normal" class="text-inner-tspan" font-weight="normal"> and</tspan></tspan><tspan class="text-outer-tspan row" x="0" y="4.300000000000001em" dy="1.1em"><tspan font-style="normal" class="text-inner-tspan" font-weight="normal">markdown</tspan></tspan></text></g></g></g><g class="node default" id="ga7d9cb23-6854-4f84-84c8-9045d3728353-light-flowchart-site-9" data-look="classic" transform="translate(286.3999938964844, 1392.0843887329102)"><rect class="basic label-container" style="" x="-127.6171875" y="-68.5" width="255.234375" height="137"></rect><g class="label" style="" transform="translate(0, -53.5)"><rect></rect><g><rect class="background" style="stroke: none"></rect><text y="-10.1" style=""><tspan class="text-outer-tspan row" x="0" y="-0.1em" dy="1.1em"><tspan font-style="normal" class="text-inner-tspan" font-weight="normal">@pagesmith/site</tspan><tspan font-style="normal" class="text-inner-tspan" font-weight="normal"> +</tspan></tspan><tspan class="text-outer-tspan row" x="0" y="1em" dy="1.1em"><tspan font-style="normal" class="text-inner-tspan" font-weight="normal">@pagesmith/core</tspan></tspan><tspan class="text-outer-tspan row" x="0" y="2.1em" dy="1.1em"><tspan font-style="normal" class="text-inner-tspan" font-weight="normal">Custom</tspan><tspan font-style="normal" class="text-inner-tspan" font-weight="normal"> site</tspan><tspan font-style="normal" class="text-inner-tspan" font-weight="normal"> shell</tspan><tspan font-style="normal" class="text-inner-tspan" font-weight="normal"> with</tspan></tspan><tspan class="text-outer-tspan row" x="0" y="3.2em" dy="1.1em"><tspan font-style="normal" class="text-inner-tspan" font-weight="normal">shared</tspan></tspan><tspan class="text-outer-tspan row" x="0" y="4.300000000000001em" dy="1.1em"><tspan font-style="normal" class="text-inner-tspan" font-weight="normal">JSX,</tspan><tspan font-style="normal" class="text-inner-tspan" font-weight="normal"> CSS/runtime,</tspan><tspan font-style="normal" class="text-inner-tspan" font-weight="normal"> and</tspan><tspan font-style="normal" class="text-inner-tspan" font-weight="normal"> Vite</tspan></tspan><tspan class="text-outer-tspan row" x="0" y="5.4em" dy="1.1em"><tspan font-style="normal" class="text-inner-tspan" font-weight="normal">SSG</tspan></tspan></text></g></g></g><g class="node default" id="ga7d9cb23-6854-4f84-84c8-9045d3728353-light-flowchart-siteQ-11" data-look="classic" transform="translate(563.1460876464844, 1119.7375106811523)"><polygon points="130.84687423706055,0 261.6937484741211,-130.84687423706055 130.84687423706055,-261.6937484741211 0,-130.84687423706055" class="label-container" transform="translate(-130.34687423706055, 130.84687423706055)"></polygon><g class="label" style="" transform="translate(0, -18.299999237060547)"><rect></rect><g><rect class="background" style="stroke: none"></rect><text y="-10.1" style=""><tspan class="text-outer-tspan row" x="0" y="-0.1em" dy="1.1em"><tspan font-style="normal" class="text-inner-tspan" font-weight="normal">Need</tspan><tspan font-style="normal" class="text-inner-tspan" font-weight="normal"> the</tspan><tspan font-style="normal" class="text-inner-tspan" font-weight="normal"> shared</tspan><tspan font-style="normal" class="text-inner-tspan" font-weight="normal"> Pagesmith</tspan></tspan><tspan class="text-outer-tspan row" x="0" y="1em" dy="1.1em"><tspan font-style="normal" class="text-inner-tspan" font-weight="normal">site</tspan><tspan font-style="normal" class="text-inner-tspan" font-weight="normal"> layer</tspan><tspan font-style="normal" class="text-inner-tspan" font-weight="normal"> too?</tspan></tspan></text></g></g></g><g class="node default" id="ga7d9cb23-6854-4f84-84c8-9045d3728353-light-flowchart-coreOnly-15" data-look="classic" transform="translate(585.5093688964844, 1392.0843887329102)"><rect class="basic label-container" style="" x="-121.4921875" y="-24.5" width="242.984375" height="49"></rect><g class="label" style="" transform="translate(0, -9.5)"><rect></rect><g><rect class="background" style="stroke: none"></rect><text y="-10.1" style=""><tspan class="text-outer-tspan row" x="0" y="-0.1em" dy="1.1em"><tspan font-style="normal" class="text-inner-tspan" font-weight="normal">Stay</tspan><tspan font-style="normal" class="text-inner-tspan" font-weight="normal"> on</tspan><tspan font-style="normal" class="text-inner-tspan" font-weight="normal"> @pagesmith/core</tspan></tspan></text></g></g></g></g></g></g><defs><filter id="ga7d9cb23-6854-4f84-84c8-9045d3728353-light-drop-shadow" height="130%" width="130%"><feDropShadow dx="4" dy="4" stdDeviation="0" flood-opacity="0.06" flood-color="#000000"></feDropShadow></filter></defs><defs><filter id="ga7d9cb23-6854-4f84-84c8-9045d3728353-light-drop-shadow-small" height="150%" width="150%"><feDropShadow dx="2" dy="2" stdDeviation="0" flood-opacity="0.06" flood-color="#000000"></feDropShadow></filter></defs></svg>