<svg id="g0376749c-d42e-4e1b-b138-dbb8856ca410-light" width="100%" xmlns="http://www.w3.org/2000/svg" xmlns:xlink="http://www.w3.org/1999/xlink" class="flowchart" style="max-width: 715.0015869140625px;" viewBox="0 0 715.0015869140625 1468.5843505859375" role="graphics-document document" aria-roledescription="flowchart-v2"><rect x="0" y="0" width="715.0015869140625" height="1468.5843505859375" fill="#ffffff"/><style>#g0376749c-d42e-4e1b-b138-dbb8856ca410-light{font-family:"trebuchet ms",verdana,arial,sans-serif;font-size:16px;fill:#333;}@keyframes edge-animation-frame{from{stroke-dashoffset:0;}}@keyframes dash{to{stroke-dashoffset:0;}}#g0376749c-d42e-4e1b-b138-dbb8856ca410-light .edge-animation-slow{stroke-dasharray:9,5!important;stroke-dashoffset:900;animation:dash 50s linear infinite;stroke-linecap:round;}#g0376749c-d42e-4e1b-b138-dbb8856ca410-light .edge-animation-fast{stroke-dasharray:9,5!important;stroke-dashoffset:900;animation:dash 20s linear infinite;stroke-linecap:round;}#g0376749c-d42e-4e1b-b138-dbb8856ca410-light .error-icon{fill:#552222;}#g0376749c-d42e-4e1b-b138-dbb8856ca410-light .error-text{fill:#552222;stroke:#552222;}#g0376749c-d42e-4e1b-b138-dbb8856ca410-light .edge-thickness-normal{stroke-width:1px;}#g0376749c-d42e-4e1b-b138-dbb8856ca410-light .edge-thickness-thick{stroke-width:3.5px;}#g0376749c-d42e-4e1b-b138-dbb8856ca410-light .edge-pattern-solid{stroke-dasharray:0;}#g0376749c-d42e-4e1b-b138-dbb8856ca410-light .edge-thickness-invisible{stroke-width:0;fill:none;}#g0376749c-d42e-4e1b-b138-dbb8856ca410-light .edge-pattern-dashed{stroke-dasharray:3;}#g0376749c-d42e-4e1b-b138-dbb8856ca410-light .edge-pattern-dotted{stroke-dasharray:2;}#g0376749c-d42e-4e1b-b138-dbb8856ca410-light .marker{fill:#333333;stroke:#333333;}#g0376749c-d42e-4e1b-b138-dbb8856ca410-light .marker.cross{stroke:#333333;}#g0376749c-d42e-4e1b-b138-dbb8856ca410-light svg{font-family:"trebuchet ms",verdana,arial,sans-serif;font-size:16px;}#g0376749c-d42e-4e1b-b138-dbb8856ca410-light p{margin:0;}#g0376749c-d42e-4e1b-b138-dbb8856ca410-light .label{font-family:"trebuchet ms",verdana,arial,sans-serif;color:#333;}#g0376749c-d42e-4e1b-b138-dbb8856ca410-light .cluster-label text{fill:#333;}#g0376749c-d42e-4e1b-b138-dbb8856ca410-light .cluster-label span{color:#333;}#g0376749c-d42e-4e1b-b138-dbb8856ca410-light .cluster-label span p{background-color:transparent;}#g0376749c-d42e-4e1b-b138-dbb8856ca410-light .label text,#g0376749c-d42e-4e1b-b138-dbb8856ca410-light span{fill:#333;color:#333;}#g0376749c-d42e-4e1b-b138-dbb8856ca410-light .node rect,#g0376749c-d42e-4e1b-b138-dbb8856ca410-light .node circle,#g0376749c-d42e-4e1b-b138-dbb8856ca410-light .node ellipse,#g0376749c-d42e-4e1b-b138-dbb8856ca410-light .node polygon,#g0376749c-d42e-4e1b-b138-dbb8856ca410-light .node path{fill:#ECECFF;stroke:#9370DB;stroke-width:1px;}#g0376749c-d42e-4e1b-b138-dbb8856ca410-light .rough-node .label text,#g0376749c-d42e-4e1b-b138-dbb8856ca410-light .node .label text,#g0376749c-d42e-4e1b-b138-dbb8856ca410-light .image-shape .label,#g0376749c-d42e-4e1b-b138-dbb8856ca410-light .icon-shape .label{text-anchor:middle;}#g0376749c-d42e-4e1b-b138-dbb8856ca410-light .node .katex path{fill:#000;stroke:#000;stroke-width:1px;}#g0376749c-d42e-4e1b-b138-dbb8856ca410-light .rough-node .label,#g0376749c-d42e-4e1b-b138-dbb8856ca410-light .node .label,#g0376749c-d42e-4e1b-b138-dbb8856ca410-light .image-shape .label,#g0376749c-d42e-4e1b-b138-dbb8856ca410-light .icon-shape .label{text-align:center;}#g0376749c-d42e-4e1b-b138-dbb8856ca410-light .node.clickable{cursor:pointer;}#g0376749c-d42e-4e1b-b138-dbb8856ca410-light .root .anchor path{fill:#333333!important;stroke-width:0;stroke:#333333;}#g0376749c-d42e-4e1b-b138-dbb8856ca410-light .arrowheadPath{fill:#333333;}#g0376749c-d42e-4e1b-b138-dbb8856ca410-light .edgePath .path{stroke:#333333;stroke-width:1px;}#g0376749c-d42e-4e1b-b138-dbb8856ca410-light .flowchart-link{stroke:#333333;fill:none;}#g0376749c-d42e-4e1b-b138-dbb8856ca410-light .edgeLabel{background-color:rgba(232,232,232, 0.8);text-align:center;}#g0376749c-d42e-4e1b-b138-dbb8856ca410-light .edgeLabel p{background-color:rgba(232,232,232, 0.8);}#g0376749c-d42e-4e1b-b138-dbb8856ca410-light .edgeLabel rect{opacity:0.5;background-color:rgba(232,232,232, 0.8);fill:rgba(232,232,232, 0.8);}#g0376749c-d42e-4e1b-b138-dbb8856ca410-light .labelBkg{background-color:rgba(232, 232, 232, 0.5);}#g0376749c-d42e-4e1b-b138-dbb8856ca410-light .cluster rect{fill:#ffffde;stroke:#aaaa33;stroke-width:1px;}#g0376749c-d42e-4e1b-b138-dbb8856ca410-light .cluster text{fill:#333;}#g0376749c-d42e-4e1b-b138-dbb8856ca410-light .cluster span{color:#333;}#g0376749c-d42e-4e1b-b138-dbb8856ca410-light div.mermaidTooltip{position:absolute;text-align:center;max-width:200px;padding:2px;font-family:"trebuchet ms",verdana,arial,sans-serif;font-size:12px;background:hsl(80, 100%, 96.2745098039%);border:1px solid #aaaa33;border-radius:2px;pointer-events:none;z-index:100;}#g0376749c-d42e-4e1b-b138-dbb8856ca410-light .flowchartTitleText{text-anchor:middle;font-size:18px;fill:#333;}#g0376749c-d42e-4e1b-b138-dbb8856ca410-light rect.text{fill:none;stroke-width:0;}#g0376749c-d42e-4e1b-b138-dbb8856ca410-light .icon-shape,#g0376749c-d42e-4e1b-b138-dbb8856ca410-light .image-shape{background-color:rgba(232,232,232, 0.8);text-align:center;}#g0376749c-d42e-4e1b-b138-dbb8856ca410-light .icon-shape p,#g0376749c-d42e-4e1b-b138-dbb8856ca410-light .image-shape p{background-color:rgba(232,232,232, 0.8);padding:2px;}#g0376749c-d42e-4e1b-b138-dbb8856ca410-light .icon-shape .label rect,#g0376749c-d42e-4e1b-b138-dbb8856ca410-light .image-shape .label rect{opacity:0.5;background-color:rgba(232,232,232, 0.8);fill:rgba(232,232,232, 0.8);}#g0376749c-d42e-4e1b-b138-dbb8856ca410-light .label-icon{display:inline-block;height:1em;overflow:visible;vertical-align:-0.125em;}#g0376749c-d42e-4e1b-b138-dbb8856ca410-light .node .label-icon path{fill:currentColor;stroke:revert;stroke-width:revert;}#g0376749c-d42e-4e1b-b138-dbb8856ca410-light .node .neo-node{stroke:#9370DB;}#g0376749c-d42e-4e1b-b138-dbb8856ca410-light [data-look="neo"].node rect,#g0376749c-d42e-4e1b-b138-dbb8856ca410-light [data-look="neo"].cluster rect,#g0376749c-d42e-4e1b-b138-dbb8856ca410-light [data-look="neo"].node polygon{stroke:#9370DB;filter:drop-shadow(1px 2px 2px rgba(185, 185, 185, 1));}#g0376749c-d42e-4e1b-b138-dbb8856ca410-light [data-look="neo"].node path{stroke:#9370DB;stroke-width:1px;}#g0376749c-d42e-4e1b-b138-dbb8856ca410-light [data-look="neo"].node .outer-path{filter:drop-shadow(1px 2px 2px rgba(185, 185, 185, 1));}#g0376749c-d42e-4e1b-b138-dbb8856ca410-light [data-look="neo"].node .neo-line path{stroke:#9370DB;filter:none;}#g0376749c-d42e-4e1b-b138-dbb8856ca410-light [data-look="neo"].node circle{stroke:#9370DB;filter:drop-shadow(1px 2px 2px rgba(185, 185, 185, 1));}#g0376749c-d42e-4e1b-b138-dbb8856ca410-light [data-look="neo"].node circle .state-start{fill:#000000;}#g0376749c-d42e-4e1b-b138-dbb8856ca410-light [data-look="neo"].icon-shape .icon{fill:#9370DB;filter:drop-shadow(1px 2px 2px rgba(185, 185, 185, 1));}#g0376749c-d42e-4e1b-b138-dbb8856ca410-light [data-look="neo"].icon-shape .icon-neo path{stroke:#9370DB;filter:drop-shadow(1px 2px 2px rgba(185, 185, 185, 1));}#g0376749c-d42e-4e1b-b138-dbb8856ca410-light :root{--mermaid-font-family:"trebuchet ms",verdana,arial,sans-serif;}</style><g><marker id="g0376749c-d42e-4e1b-b138-dbb8856ca410-light_flowchart-v2-pointEnd" class="marker flowchart-v2" viewBox="0 0 10 10" refX="5" refY="5" markerUnits="userSpaceOnUse" markerWidth="8" markerHeight="8" orient="auto"><path d="M 0 0 L 10 5 L 0 10 z" class="arrowMarkerPath" style="stroke-width: 1; stroke-dasharray: 1, 0;"></path></marker><marker id="g0376749c-d42e-4e1b-b138-dbb8856ca410-light_flowchart-v2-pointStart" class="marker flowchart-v2" viewBox="0 0 10 10" refX="4.5" refY="5" markerUnits="userSpaceOnUse" markerWidth="8" markerHeight="8" orient="auto"><path d="M 0 5 L 10 10 L 10 0 z" class="arrowMarkerPath" style="stroke-width: 1; stroke-dasharray: 1, 0;"></path></marker><marker id="g0376749c-d42e-4e1b-b138-dbb8856ca410-light_flowchart-v2-pointEnd-margin" class="marker flowchart-v2" viewBox="0 0 11.5 14" refX="11.5" refY="7" markerUnits="userSpaceOnUse" markerWidth="10.5" markerHeight="14" orient="auto"><path d="M 0 0 L 11.5 7 L 0 14 z" class="arrowMarkerPath" style="stroke-width: 0; stroke-dasharray: 1, 0;"></path></marker><marker id="g0376749c-d42e-4e1b-b138-dbb8856ca410-light_flowchart-v2-pointStart-margin" class="marker flowchart-v2" viewBox="0 0 11.5 14" refX="1" refY="7" markerUnits="userSpaceOnUse" markerWidth="11.5" markerHeight="14" orient="auto"><polygon points="0,7 11.5,14 11.5,0" class="arrowMarkerPath" style="stroke-width: 0; stroke-dasharray: 1, 0;"></polygon></marker><marker id="g0376749c-d42e-4e1b-b138-dbb8856ca410-light_flowchart-v2-circleEnd" class="marker flowchart-v2" viewBox="0 0 10 10" refX="11" refY="5" markerUnits="userSpaceOnUse" markerWidth="11" markerHeight="11" orient="auto"><circle cx="5" cy="5" r="5" class="arrowMarkerPath" style="stroke-width: 1; stroke-dasharray: 1, 0;"></circle></marker><marker id="g0376749c-d42e-4e1b-b138-dbb8856ca410-light_flowchart-v2-circleStart" class="marker flowchart-v2" viewBox="0 0 10 10" refX="-1" refY="5" markerUnits="userSpaceOnUse" markerWidth="11" markerHeight="11" orient="auto"><circle cx="5" cy="5" r="5" class="arrowMarkerPath" style="stroke-width: 1; stroke-dasharray: 1, 0;"></circle></marker><marker id="g0376749c-d42e-4e1b-b138-dbb8856ca410-light_flowchart-v2-circleEnd-margin" class="marker flowchart-v2" viewBox="0 0 10 10" refY="5" refX="12.25" markerUnits="userSpaceOnUse" markerWidth="14" markerHeight="14" orient="auto"><circle cx="5" cy="5" r="5" class="arrowMarkerPath" style="stroke-width: 0; stroke-dasharray: 1, 0;"></circle></marker><marker id="g0376749c-d42e-4e1b-b138-dbb8856ca410-light_flowchart-v2-circleStart-margin" class="marker flowchart-v2" viewBox="0 0 10 10" refX="-2" refY="5" markerUnits="userSpaceOnUse" markerWidth="14" markerHeight="14" orient="auto"><circle cx="5" cy="5" r="5" class="arrowMarkerPath" style="stroke-width: 0; stroke-dasharray: 1, 0;"></circle></marker><marker id="g0376749c-d42e-4e1b-b138-dbb8856ca410-light_flowchart-v2-crossEnd" class="marker cross flowchart-v2" viewBox="0 0 11 11" refX="12" refY="5.2" markerUnits="userSpaceOnUse" markerWidth="11" markerHeight="11" orient="auto"><path d="M 1,1 l 9,9 M 10,1 l -9,9" class="arrowMarkerPath" style="stroke-width: 2; stroke-dasharray: 1, 0;"></path></marker><marker id="g0376749c-d42e-4e1b-b138-dbb8856ca410-light_flowchart-v2-crossStart" class="marker cross flowchart-v2" viewBox="0 0 11 11" refX="-1" refY="5.2" markerUnits="userSpaceOnUse" markerWidth="11" markerHeight="11" orient="auto"><path d="M 1,1 l 9,9 M 10,1 l -9,9" class="arrowMarkerPath" style="stroke-width: 2; stroke-dasharray: 1, 0;"></path></marker><marker id="g0376749c-d42e-4e1b-b138-dbb8856ca410-light_flowchart-v2-crossEnd-margin" class="marker cross flowchart-v2" viewBox="0 0 15 15" refX="17.7" refY="7.5" markerUnits="userSpaceOnUse" markerWidth="12" markerHeight="12" orient="auto"><path d="M 1,1 L 14,14 M 1,14 L 14,1" class="arrowMarkerPath" style="stroke-width: 2.5;"></path></marker><marker id="g0376749c-d42e-4e1b-b138-dbb8856ca410-light_flowchart-v2-crossStart-margin" class="marker cross flowchart-v2" viewBox="0 0 15 15" refX="-3.5" refY="7.5" markerUnits="userSpaceOnUse" markerWidth="12" markerHeight="12" orient="auto"><path d="M 1,1 L 14,14 M 1,14 L 14,1" class="arrowMarkerPath" style="stroke-width: 2.5; stroke-dasharray: 1, 0;"></path></marker><g class="root"><g class="clusters"></g><g class="edgePaths"><path d="M280.942,42.5L280.859,46.583C280.776,50.667,280.609,58.833,280.526,66.417C280.442,74,280.442,81,280.442,84.5L280.442,88" id="g0376749c-d42e-4e1b-b138-dbb8856ca410-light-L_start_docsQ_0" class="edge-thickness-normal edge-pattern-solid edge-thickness-normal edge-pattern-solid flowchart-link" style=";" data-edge="true" data-et="edge" data-id="L_start_docsQ_0" data-points="W3sieCI6MjgwLjk0MjE4NDQ0ODI0MjIsInkiOjQyLjV9LHsieCI6MjgwLjQ0MjE4NDQ0ODI0MjIsInkiOjY3fSx7IngiOjI4MC40NDIxODQ0NDgyNDIyLCJ5Ijo5MS45OTk5OTk5OTk5OTk5N31d" data-look="classic" marker-end="url(#g0376749c-d42e-4e1b-b138-dbb8856ca410-light_flowchart-v2-pointEnd)"></path><path d="M216.2,298.058L200.989,314.849C185.777,331.639,155.353,365.219,140.141,402.959C124.93,440.698,124.93,482.597,124.93,503.546L124.93,524.495" id="g0376749c-d42e-4e1b-b138-dbb8856ca410-light-L_docsQ_docs_0" class="edge-thickness-normal edge-pattern-solid edge-thickness-normal edge-pattern-solid flowchart-link" style=";" data-edge="true" data-et="edge" data-id="L_docsQ_docs_0" data-points="W3sieCI6MjE2LjIwMDM2Mjc0MTI1MTMsInkiOjI5OC4wNTgxOTY2MDM1NTZ9LHsieCI6MTI0LjkyOTY4NzUsInkiOjM5OC44MDAwMTgzMTA1NDY5fSx7IngiOjEyNC45Mjk2ODc1LCJ5Ijo1MjguNDk1MzIzMTgxMTUyM31d" data-look="classic" marker-end="url(#g0376749c-d42e-4e1b-b138-dbb8856ca410-light_flowchart-v2-pointEnd)"></path><path d="M344.684,298.058L359.896,314.849C375.108,331.639,405.531,365.219,420.743,387.426C435.955,409.633,435.955,420.467,435.955,425.883L435.955,431.3" id="g0376749c-d42e-4e1b-b138-dbb8856ca410-light-L_docsQ_hostQ_0" class="edge-thickness-normal edge-pattern-solid edge-thickness-normal edge-pattern-solid flowchart-link" style=";" data-edge="true" data-et="edge" data-id="L_docsQ_hostQ_0" data-points="W3sieCI6MzQ0LjY4NDAwNjE1NTIzMzEsInkiOjI5OC4wNTgxOTY2MDM1NTZ9LHsieCI6NDM1Ljk1NDY4MTM5NjQ4NDQsInkiOjM5OC44MDAwMTgzMTA1NDY5fSx7IngiOjQzNS45NTQ2ODEzOTY0ODQzLCJ5Ijo0MzUuMzAwMDE4MzEwNTQ2OH1d" data-look="classic" marker-end="url(#g0376749c-d42e-4e1b-b138-dbb8856ca410-light_flowchart-v2-pointEnd)"></path><path d="M495.501,663.944L506.776,679.952C518.05,695.959,540.598,727.975,551.872,749.4C563.146,770.824,563.146,781.657,563.146,787.074L563.146,792.491" id="g0376749c-d42e-4e1b-b138-dbb8856ca410-light-L_hostQ_core_0" class="edge-thickness-normal edge-pattern-solid edge-thickness-normal edge-pattern-solid flowchart-link" style=";" data-edge="true" data-et="edge" data-id="L_hostQ_core_0" data-points="W3sieCI6NDk1LjUwMTM4NjYzNTk3OTc3LCJ5Ijo2NjMuOTQzOTI1ODY0MDIwMn0seyJ4Ijo1NjMuMTQ2MDg3NjQ2NDg0NCwieSI6NzU5Ljk5MDYzMTEwMzUxNTZ9LHsieCI6NTYzLjE0NjA4NzY0NjQ4NDQsInkiOjc5Ni40OTA2MzExMDM1MTU2fV0=" data-look="classic" marker-end="url(#g0376749c-d42e-4e1b-b138-dbb8856ca410-light_flowchart-v2-pointEnd)"></path><path d="M366.894,654.43L350.701,672.023C334.508,689.617,302.122,724.804,285.929,758.43C269.736,792.057,269.736,824.124,269.736,856.191C269.736,888.257,269.736,920.324,269.736,964.248C269.736,1008.173,269.736,1063.955,269.736,1119.738C269.736,1175.52,269.736,1231.302,270.597,1264.618C271.458,1297.934,273.18,1308.784,274.041,1314.209L274.902,1319.634" id="g0376749c-d42e-4e1b-b138-dbb8856ca410-light-L_hostQ_site_0" class="edge-thickness-normal edge-pattern-solid edge-thickness-normal edge-pattern-solid flowchart-link" style=";" data-edge="true" data-et="edge" data-id="L_hostQ_site_0" data-points="W3sieCI6MzY2Ljg5MzYzNDc5NzE4MjIsInkiOjY1NC40Mjk1ODQ1MDQyMTM0fSx7IngiOjI2OS43MzU5MzEzOTY0ODQ0LCJ5Ijo3NTkuOTkwNjMxMTAzNTE1Nn0seyJ4IjoyNjkuNzM1OTMxMzk2NDg0NCwieSI6ODU2LjE5MDYzMTg2NjQ1NTF9LHsieCI6MjY5LjczNTkzMTM5NjQ4NDQsInkiOjk1Mi4zOTA2MzI2MjkzOTQ1fSx7IngiOjI2OS43MzU5MzEzOTY0ODQ0LCJ5IjoxMTE5LjczNzUxMDY4MTE1MjN9LHsieCI6MjY5LjczNTkzMTM5NjQ4NDQsInkiOjEyODcuMDg0Mzg4NzMyOTEwMn0seyJ4IjoyNzUuNTI4Njc2OTMyMTk4NjYsInkiOjEzMjMuNTg0Mzg4NzMyOTEwMn1d" data-look="classic" marker-end="url(#g0376749c-d42e-4e1b-b138-dbb8856ca410-light_flowchart-v2-pointEnd)"></path><path d="M563.146,915.891L563.146,921.974C563.146,928.057,563.146,940.224,563.146,951.724C563.146,963.224,563.146,974.057,563.146,979.474L563.146,984.891" id="g0376749c-d42e-4e1b-b138-dbb8856ca410-light-L_core_siteQ_0" class="edge-thickness-normal edge-pattern-solid edge-thickness-normal edge-pattern-solid flowchart-link" style=";" data-edge="true" data-et="edge" data-id="L_core_siteQ_0" data-points="W3sieCI6NTYzLjE0NjA4NzY0NjQ4NDQsInkiOjkxNS44OTA2MzI2MjkzOTQ1fSx7IngiOjU2My4xNDYwODc2NDY0ODQ0LCJ5Ijo5NTIuMzkwNjMyNjI5Mzk0NX0seyJ4Ijo1NjMuMTQ2MDg3NjQ2NDg0NCwieSI6OTg4Ljg5MDYzMjYyOTM5NDR9XQ==" data-look="classic" marker-end="url(#g0376749c-d42e-4e1b-b138-dbb8856ca410-light_flowchart-v2-pointEnd)"></path><path d="M501.396,1188.834L486.762,1205.209C472.128,1221.584,442.86,1254.334,421.371,1276.368C399.882,1298.402,386.172,1309.72,379.317,1315.379L372.462,1321.038" id="g0376749c-d42e-4e1b-b138-dbb8856ca410-light-L_siteQ_site_0" class="edge-thickness-normal edge-pattern-solid edge-thickness-normal edge-pattern-solid flowchart-link" style=";" data-edge="true" data-et="edge" data-id="L_siteQ_site_0" data-points="W3sieCI6NTAxLjM5NTc5NjQzNzU3MiwieSI6MTE4OC44MzQwOTc1MjM5OTh9LHsieCI6NDEzLjU5MTQwMDE0NjQ4NDQsInkiOjEyODcuMDg0Mzg4NzMyOTEwMn0seyJ4IjozNjkuMzc3MjQ0NjQwNTMyLCJ5IjoxMzIzLjU4NDM4ODczMjkxMDJ9XQ==" data-look="classic" marker-end="url(#g0376749c-d42e-4e1b-b138-dbb8856ca410-light_flowchart-v2-pointEnd)"></path><path d="M578.57,1235.16L579.727,1243.814C580.883,1252.468,583.196,1269.776,584.353,1291.18C585.509,1312.584,585.509,1338.084,585.509,1350.834L585.509,1363.584" id="g0376749c-d42e-4e1b-b138-dbb8856ca410-light-L_siteQ_coreOnly_0" class="edge-thickness-normal edge-pattern-solid edge-thickness-normal edge-pattern-solid flowchart-link" style=";" data-edge="true" data-et="edge" data-id="L_siteQ_coreOnly_0" data-points="W3sieCI6NTc4LjU3MDQ4ODQ1NTIwMTcsInkiOjEyMzUuMTU5OTg3OTI0MTkzfSx7IngiOjU4NS41MDkzNjg4OTY0ODQ0LCJ5IjoxMjg3LjA4NDM4ODczMjkxMDJ9LHsieCI6NTg1LjUwOTM2ODg5NjQ4NDQsInkiOjEzNjcuNTg0Mzg4NzMyOTEwMn1d" data-look="classic" marker-end="url(#g0376749c-d42e-4e1b-b138-dbb8856ca410-light_flowchart-v2-pointEnd)"></path></g><g class="edgeLabels"><g class="edgeLabel"><g class="label" data-id="L_start_docsQ_0" transform="translate(0, 0)"><text y="-10.1" text-anchor="middle"><tspan class="text-outer-tspan row" x="0" y="-0.1em" dy="1.1em" text-anchor="middle"></tspan></text></g></g><g><rect class="background" style="stroke: none"></rect></g><g class="edgeLabel" transform="translate(124.9296875, 398.8000183105469)"><g class="label" data-id="L_docsQ_docs_0" transform="translate(0, -10.5)"><g><rect class="background" style="" x="-13.328125" y="-1" width="26.65625" height="23"></rect><text y="-10.1" text-anchor="middle" style=""><tspan class="text-outer-tspan row" x="0" y="-0.1em" dy="1.1em" text-anchor="middle"><tspan font-style="normal" class="text-inner-tspan" font-weight="normal">Yes</tspan></tspan></text></g></g></g><g class="edgeLabel" transform="translate(435.9546813964844, 398.8000183105469)"><g class="label" data-id="L_docsQ_hostQ_0" transform="translate(0, -10.5)"><g><rect class="background" style="" x="-11.3984375" y="-1" width="22.796875" height="23"></rect><text y="-10.1" text-anchor="middle" style=""><tspan class="text-outer-tspan row" x="0" y="-0.1em" dy="1.1em" text-anchor="middle"><tspan font-style="normal" class="text-inner-tspan" font-weight="normal">No</tspan></tspan></text></g></g></g><g class="edgeLabel" transform="translate(563.1460876464844, 759.9906311035156)"><g class="label" data-id="L_hostQ_core_0" transform="translate(0, -10.5)"><g><rect class="background" style="" x="-13.328125" y="-1" width="26.65625" height="23"></rect><text y="-10.1" text-anchor="middle" style=""><tspan class="text-outer-tspan row" x="0" y="-0.1em" dy="1.1em" text-anchor="middle"><tspan font-style="normal" class="text-inner-tspan" font-weight="normal">Yes</tspan></tspan></text></g></g></g><g class="edgeLabel" transform="translate(269.7359313964844, 952.3906326293945)"><g class="label" data-id="L_hostQ_site_0" transform="translate(0, -10.5)"><g><rect class="background" style="" x="-11.3984375" y="-1" width="22.796875" height="23"></rect><text y="-10.1" text-anchor="middle" style=""><tspan class="text-outer-tspan row" x="0" y="-0.1em" dy="1.1em" text-anchor="middle"><tspan font-style="normal" class="text-inner-tspan" font-weight="normal">No</tspan></tspan></text></g></g></g><g class="edgeLabel"><g class="label" data-id="L_core_siteQ_0" transform="translate(0, 0)"><text y="-10.1" text-anchor="middle"><tspan class="text-outer-tspan row" x="0" y="-0.1em" dy="1.1em" text-anchor="middle"></tspan></text></g></g><g><rect class="background" style="stroke: none"></rect></g><g class="edgeLabel" transform="translate(438.39126, 1259.33414)"><g class="label" data-id="L_siteQ_site_0" transform="translate(0, -10.5)"><g><rect class="background" style="" x="-13.328125" y="-1" width="26.65625" height="23"></rect><text y="-10.1" text-anchor="middle" style=""><tspan class="text-outer-tspan row" x="0" y="-0.1em" dy="1.1em" text-anchor="middle"><tspan font-style="normal" class="text-inner-tspan" font-weight="normal">Yes</tspan></tspan></text></g></g></g><g class="edgeLabel" transform="translate(585.5093688964844, 1287.0843887329102)"><g class="label" data-id="L_siteQ_coreOnly_0" transform="translate(0, -10.5)"><g><rect class="background" style="" x="-11.3984375" y="-1" width="22.796875" height="23"></rect><text y="-10.1" text-anchor="middle" style=""><tspan class="text-outer-tspan row" x="0" y="-0.1em" dy="1.1em" text-anchor="middle"><tspan font-style="normal" class="text-inner-tspan" font-weight="normal">No</tspan></tspan></text></g></g></g></g><g class="nodes"><g class="node default" id="g0376749c-d42e-4e1b-b138-dbb8856ca410-light-flowchart-start-0" data-look="classic" transform="translate(280.4421844482422, 25)"><g class="basic label-container outer-path"><path d="M-30.875 -17 C-16.145681990338126 -17, -1.4163639806762518 -17, 30.875 -17 C30.875 -17, 30.875 -17, 30.875 -17 C31.166143357972693 -16.990663599185982, 31.457286715945386 -16.981327198371968, 31.96419373967212 -16.965071676755716 C32.28469099958922 -16.934153691545863, 32.60518825950633 -16.90323570633601, 33.0489117486366 -16.860430234995185 C33.43456124460247 -16.79808141524393, 33.82021074056834 -16.735732595492678, 34.124696687923326 -16.686505668848113 C34.344393741649505 -16.63636124999237, 34.564090795375684 -16.58621683113663, 35.18712792646162 -16.4440126716635 C35.43980253097458 -16.36902017536012, 35.692477135487536 -16.294027679056736, 36.23183970640155 -16.133947699181366 C36.57212631487934 -16.008719081686614, 36.91241292335713 -15.883490464191858, 37.25453908294936 -15.757584874882369 C37.64632034123156 -15.584154933618946, 38.03810159951375 -15.410724992355522, 38.25102356499849 -15.316470754341125 C38.50346054883343 -15.184774541568043, 38.755897532668364 -15.053078328794962, 39.21719838406694 -14.812417970097622 C39.47455390867613 -14.656407538690596, 39.73190943328532 -14.500397107283572, 40.149093320579325 -14.247497783161291 C40.419940340929756 -14.058566626543373, 40.69078736128019 -13.869635469925454, 41.042879018350675 -13.624031571755262 C41.32771668585365 -13.396881111770305, 41.61255435335663 -13.169730651785347, 41.8948827202324 -12.944581292275288 C42.137304948514576 -12.72441983869009, 42.379727176796756 -12.504258385104896, 42.70160336025927 -12.21193895166137 C42.95414148791085 -11.951172601095232, 43.20667961556244 -11.690406250529094, 43.45972595028036 -11.42911513444239 C43.72790524465437 -11.114096475436527, 43.996084539028395 -10.799077816430666, 44.16613520195651 -10.59932663159847 C44.32175696552859 -10.390807645846198, 44.47737872910067 -10.182288660093926, 44.81792832814825 -9.725983222076888 C45.045483441619375 -9.376397460681469, 45.2730385550905 -9.02681169928605, 45.41242697109088 -8.812673661278927 C45.5516253678078 -8.56551281254192, 45.69082376452472 -8.318351963804911, 45.947188208341004 -7.863150934094199 C46.084308390253526 -7.578417942450961, 46.22142857216604 -7.293684950807722, 46.42001459126881 -6.881316833080699 C46.52331059379375 -6.626173709751748, 46.626606596318695 -6.371030586422796, 46.828963174845924 -5.871205925162238 C46.93692729726644 -5.546035190178509, 47.04489141968696 -5.220864455194779, 47.172353501623235 -4.836968972727556 C47.26059271443008 -4.500474611178295, 47.34883192723693 -4.163980249629035, 47.448774507091 -3.7828558772573464 C47.50658394432216 -3.486016635104231, 47.564393381553316 -3.189177392951116, 47.65709031804565 -2.713198215567453 C47.70401235716128 -2.349280145991258, 47.75093439627691 -1.985362076415063, 47.796444920136366 -1.632391440430593 C47.81526944924529 -1.3391842046726579, 47.834093978354225 -1.0459769689147227, 47.8662656754117 -0.5448768187181379 C47.8662656754117 -0.24805096383161102, 47.8662656754117 0.04877489105491584, 47.8662656754117 0.5448768187181336 C47.8408540280679 0.9406837380102341, 47.81544238072411 1.3364906573023345, 47.796444920136366 1.6323914404305815 C47.749593804362746 1.9957594425715295, 47.702742688589126 2.3591274447124775, 47.657090318045654 2.7131982155674415 C47.5831083436206 3.093080018144257, 47.50912636919555 3.472961820721072, 47.448774507091 3.782855877257343 C47.344061919003146 4.182170358359108, 47.23934933091528 4.581484839460873, 47.172353501623235 4.836968972727545 C47.0951838154202 5.0693917722513335, 47.01801412921716 5.301814571775121, 46.828963174845924 5.871205925162227 C46.73547756340013 6.102117192854682, 46.64199195195433 6.333028460547138, 46.42001459126881 6.881316833080694 C46.32350445360532 7.081722198925086, 46.226994315941816 7.282127564769478, 45.947188208341004 7.863150934094196 C45.7774922501958 8.164463291360088, 45.6077962920506 8.46577564862598, 45.41242697109089 8.812673661278923 C45.25456117716564 9.055197913649335, 45.096695383240395 9.297722166019746, 44.817928328148255 9.725983222076879 C44.68283065950797 9.907001790404056, 44.54773299086768 10.088020358731233, 44.16613520195651 10.599326631598467 C44.000174174154544 10.79427389830466, 43.834213146352575 10.989221165010854, 43.45972595028037 11.42911513444238 C43.27122568871799 11.623757130664831, 43.0827254271556 11.818399126887282, 42.70160336025927 12.211938951661365 C42.51163626452871 12.384462041749938, 42.32166916879815 12.55698513183851, 41.89488272023242 12.944581292275275 C41.57153166583735 13.202445153422406, 41.24818061144229 13.460309014569539, 41.042879018350675 13.62403157175526 C40.734816114836725 13.838922917418438, 40.42675321132277 14.053814263081614, 40.14909332057934 14.247497783161286 C39.82715351503256 14.442659585212041, 39.50521370948579 14.637821387262797, 39.21719838406695 14.81241797009762 C38.856278315059335 15.000709738918552, 38.49535824605173 15.189001507739484, 38.25102356499849 15.316470754341124 C37.89923706231691 15.472196203702428, 37.54745055963532 15.627921653063732, 37.254539082949364 15.757584874882367 C36.87883997628023 15.89584561906108, 36.503140869611094 16.034106363239793, 36.23183970640156 16.133947699181363 C35.99881729280726 16.203107528376542, 35.76579487921296 16.27226735757172, 35.18712792646164 16.444012671663497 C34.864271472314364 16.517702550487353, 34.54141501816709 16.591392429311213, 34.12469668792333 16.68650566884811 C33.81117006651625 16.737194221561946, 33.49764344510916 16.78788277427578, 33.04891174863661 16.86043023499518 C32.6739889311244 16.896598588289926, 32.29906611361219 16.93276694158467, 31.96419373967212 16.965071676755716 C31.54044830331448 16.97866036812925, 31.116702866956846 16.992249059502782, 30.875000000000004 17 C30.875000000000004 17, 30.875 17, 30.875 17 C16.193785193769493 17, 1.5125703875389824 17, -30.874999999999996 17 C-31.259683111991066 16.9876639613387, -31.644366223982132 16.9753279226774, -31.964193739672112 16.965071676755716 C-32.2345076926922 16.938994814807963, -32.50482164571228 16.912917952860205, -33.048911748636606 16.86043023499518 C-33.37793867550047 16.807235713101758, -33.70696560236433 16.754041191208337, -34.124696687923326 16.68650566884811 C-34.53016861369906 16.593959347741393, -34.93564053947479 16.501413026634673, -35.18712792646162 16.4440126716635 C-35.489991351598974 16.354124396845293, -35.79285477673633 16.264236122027086, -36.231839706401544 16.13394769918137 C-36.63846055603826 15.984307467753128, -37.04508140567498 15.834667236324886, -37.254539082949364 15.757584874882369 C-37.46092245912584 15.666225076394378, -37.667305835302315 15.574865277906385, -38.25102356499848 15.316470754341127 C-38.47722038817518 15.198464016575821, -38.70341721135188 15.080457278810517, -39.21719838406693 14.812417970097624 C-39.43908523842941 14.677908855031198, -39.66097209279189 14.543399739964771, -40.14909332057932 14.247497783161299 C-40.38164091707214 14.085282646671107, -40.61418851356497 13.923067510180916, -41.04287901835067 13.624031571755264 C-41.22125938627438 13.481777975237051, -41.3996397541981 13.339524378718838, -41.8948827202324 12.94458129227529 C-42.17630468480785 12.689001310065018, -42.457726649383304 12.433421327854747, -42.70160336025926 12.211938951661377 C-42.926930024785214 11.97927067087513, -43.15225668931116 11.746602390088881, -43.459725950280365 11.429115134442386 C-43.66546830296924 11.187438459902518, -43.87121065565812 10.94576178536265, -44.16613520195651 10.599326631598473 C-44.302582386051725 10.41649983550507, -44.43902957014695 10.233673039411666, -44.81792832814825 9.72598322207689 C-44.97422048538926 9.485876498234079, -45.13051264263027 9.245769774391267, -45.41242697109088 8.812673661278936 C-45.604880883785846 8.470952251217156, -45.797334796480804 8.129230841155376, -45.947188208341004 7.863150934094201 C-46.104622042121456 7.536236209704671, -46.262055875901915 7.209321485315142, -46.42001459126881 6.881316833080701 C-46.50290719735701 6.676570493423329, -46.58579980344521 6.471824153765955, -46.828963174845924 5.87120592516224 C-46.92777599260872 5.5735974617451784, -47.026588810371514 5.275988998328117, -47.172353501623235 4.8369689727275516 C-47.266889019118885 4.476464072564167, -47.36142453661454 4.115959172400783, -47.448774507091 3.782855877257349 C-47.517877245724385 3.428027919243886, -47.586979984357775 3.073199961230423, -47.65709031804565 2.713198215567455 C-47.69841240956152 2.392712233740297, -47.739734501077386 2.072226251913138, -47.796444920136366 1.6323914404306026 C-47.81710164998667 1.3106461991999643, -47.83775837983697 0.9889009579693262, -47.8662656754117 0.54487681871814 C-47.8662656754117 0.18849464825751888, -47.8662656754117 -0.1678875222031022, -47.8662656754117 -0.5448768187181317 C-47.842852791912314 -0.9095513777604017, -47.81943990841293 -1.2742259368026718, -47.796444920136366 -1.6323914404305793 C-47.754158816763876 -1.9603541078520357, -47.71187271339139 -2.288316775273492, -47.657090318045654 -2.713198215567447 C-47.59598933123906 -3.0269388691211665, -47.53488834443247 -3.340679522674886, -47.448774507091 -3.782855877257341 C-47.38825299826548 -4.013650620596916, -47.327731489439955 -4.244445363936492, -47.172353501623235 -4.836968972727544 C-47.05137509354267 -5.201336662574524, -46.9303966854621 -5.565704352421503, -46.82896317484593 -5.871205925162218 C-46.69693748634021 -6.197311928314379, -46.5649117978345 -6.52341793146654, -46.42001459126881 -6.881316833080692 C-46.311727189783184 -7.106177939244809, -46.203439788297565 -7.331039045408925, -45.947188208341004 -7.863150934094194 C-45.79725952428165 -8.129364494567104, -45.6473308402223 -8.395578055040016, -45.41242697109088 -8.812673661278929 C-45.254192960567146 -9.055763593224619, -45.09595895004342 -9.298853525170308, -44.81792832814825 -9.725983222076884 C-44.6575711360164 -9.940847250692824, -44.49721394388455 -10.155711279308765, -44.16613520195651 -10.599326631598467 C-44.004458646722554 -10.78924111303288, -43.842782091488594 -10.979155594467294, -43.45972595028037 -11.42911513444238 C-43.191700759804704 -11.70587314888589, -42.92367556932903 -11.9826311633294, -42.70160336025928 -12.21193895166136 C-42.53601314307514 -12.362323605630932, -42.370422925891006 -12.512708259600506, -41.89488272023242 -12.944581292275274 C-41.5788201588136 -13.196632774228792, -41.26275759739478 -13.44868425618231, -41.042879018350675 -13.624031571755259 C-40.70047884473628 -13.862875110604037, -40.35807867112189 -14.101718649452815, -40.14909332057934 -14.247497783161284 C-39.88706383599442 -14.406341596572837, -39.6250343514095 -14.56518540998439, -39.21719838406695 -14.812417970097618 C-38.90246882346419 -14.97661218027017, -38.58773926286144 -15.140806390442721, -38.25102356499849 -15.316470754341124 C-37.921299960033174 -15.462429613356045, -37.59157635506786 -15.608388472370965, -37.25453908294937 -15.757584874882365 C-36.961894116313644 -15.86528092778473, -36.669249149677924 -15.972976980687093, -36.231839706401566 -16.133947699181363 C-35.93995914728227 -16.22057631701565, -35.64807858816298 -16.307204934849935, -35.18712792646164 -16.444012671663494 C-34.91636814830118 -16.505811824155945, -34.64560837014072 -16.567610976648393, -34.12469668792333 -16.68650566884811 C-33.77257645048389 -16.743433738104095, -33.420456213044446 -16.800361807360076, -33.04891174863661 -16.86043023499518 C-32.632308791746524 -16.90061942120801, -32.21570583485643 -16.940808607420834, -31.96419373967212 -16.965071676755716 C-31.621185268144178 -16.97607129081213, -31.278176796616236 -16.987070904868546, -30.875000000000004 -17 C-30.875000000000004 -17, -30.875 -17, -30.875 -17" stroke="none" stroke-width="0" fill="#ECECFF" style=""></path><path d="M-30.875 -17 C-9.487767996847758 -17, 11.899464006304484 -17, 30.875 -17 M-30.875 -17 C-8.412927176854996 -17, 14.049145646290008 -17, 30.875 -17 M30.875 -17 C30.875 -17, 30.875 -17, 30.875 -17 M30.875 -17 C30.875 -17, 30.875 -17, 30.875 -17 M30.875 -17 C31.205624438456294 -16.989397517780137, 31.536248876912587 -16.97879503556027, 31.96419373967212 -16.965071676755716 M30.875 -17 C31.163659621461967 -16.990743247781584, 31.45231924292393 -16.981486495563164, 31.96419373967212 -16.965071676755716 M31.96419373967212 -16.965071676755716 C32.31685007085474 -16.93105134461782, 32.66950640203736 -16.897031012479925, 33.0489117486366 -16.860430234995185 M31.96419373967212 -16.965071676755716 C32.2102715058913 -16.941332850600364, 32.45634927211048 -16.917594024445016, 33.0489117486366 -16.860430234995185 M33.0489117486366 -16.860430234995185 C33.36417563398161 -16.80946081492055, 33.67943951932662 -16.758491394845915, 34.124696687923326 -16.686505668848113 M33.0489117486366 -16.860430234995185 C33.33502083100492 -16.814174337366946, 33.621129913373245 -16.767918439738708, 34.124696687923326 -16.686505668848113 M34.124696687923326 -16.686505668848113 C34.545450801230075 -16.590471288163034, 34.966204914536824 -16.494436907477954, 35.18712792646162 -16.4440126716635 M34.124696687923326 -16.686505668848113 C34.44045790550046 -16.614435231470644, 34.756219123077585 -16.542364794093174, 35.18712792646162 -16.4440126716635 M35.18712792646162 -16.4440126716635 C35.53790743602555 -16.339903154504146, 35.88868694558947 -16.235793637344795, 36.23183970640155 -16.133947699181366 M35.18712792646162 -16.4440126716635 C35.522484320622354 -16.34448065419823, 35.85784071478309 -16.24494863673296, 36.23183970640155 -16.133947699181366 M36.23183970640155 -16.133947699181366 C36.47874401445138 -16.043084631460626, 36.72564832250121 -15.952221563739883, 37.25453908294936 -15.757584874882369 M36.23183970640155 -16.133947699181366 C36.61668008517731 -15.992322882366423, 37.001520463953064 -15.85069806555148, 37.25453908294936 -15.757584874882369 M37.25453908294936 -15.757584874882369 C37.63996890149578 -15.58696652758121, 38.02539872004219 -15.416348180280051, 38.25102356499849 -15.316470754341125 M37.25453908294936 -15.757584874882369 C37.64277579858873 -15.585723997501804, 38.0310125142281 -15.413863120121237, 38.25102356499849 -15.316470754341125 M38.25102356499849 -15.316470754341125 C38.527406207821855 -15.172282106611709, 38.80378885064521 -15.028093458882292, 39.21719838406694 -14.812417970097622 M38.25102356499849 -15.316470754341125 C38.63423175648915 -15.11655128629701, 39.0174399479798 -14.916631818252895, 39.21719838406694 -14.812417970097622 M39.21719838406694 -14.812417970097622 C39.45659220087856 -14.667296031512194, 39.69598601769018 -14.522174092926765, 40.149093320579325 -14.247497783161291 M39.21719838406694 -14.812417970097622 C39.47463872474352 -14.656356122692106, 39.73207906542011 -14.500294275286592, 40.149093320579325 -14.247497783161291 M40.149093320579325 -14.247497783161291 C40.364731393740065 -14.097077998146094, 40.58036946690081 -13.946658213130897, 41.042879018350675 -13.624031571755262 M40.149093320579325 -14.247497783161291 C40.34718483955191 -14.109317714769665, 40.54527635852449 -13.97113764637804, 41.042879018350675 -13.624031571755262 M41.042879018350675 -13.624031571755262 C41.226479991026174 -13.477614681873627, 41.410080963701674 -13.331197791991992, 41.8948827202324 -12.944581292275288 M41.042879018350675 -13.624031571755262 C41.3142935778766 -13.407585683178102, 41.58570813740251 -13.191139794600941, 41.8948827202324 -12.944581292275288 M41.8948827202324 -12.944581292275288 C42.20046856600202 -12.667056312505732, 42.50605441177164 -12.389531332736178, 42.70160336025927 -12.21193895166137 M41.8948827202324 -12.944581292275288 C42.06448075642843 -12.790556843120193, 42.234078792624466 -12.636532393965098, 42.70160336025927 -12.21193895166137 M42.70160336025927 -12.21193895166137 C42.867276503253365 -12.040867829501963, 43.03294964624746 -11.869796707342555, 43.45972595028036 -11.42911513444239 M42.70160336025927 -12.21193895166137 C42.97369823637038 -11.930978652671861, 43.24579311248149 -11.650018353682352, 43.45972595028036 -11.42911513444239 M43.45972595028036 -11.42911513444239 C43.650269910282965 -11.20529135676486, 43.840813870285565 -10.98146757908733, 44.16613520195651 -10.59932663159847 M43.45972595028036 -11.42911513444239 C43.62466524192951 -11.235368057159722, 43.789604533578675 -11.041620979877052, 44.16613520195651 -10.59932663159847 M44.16613520195651 -10.59932663159847 C44.38889180497362 -10.300853077099552, 44.611648407990735 -10.00237952260063, 44.81792832814825 -9.725983222076888 M44.16613520195651 -10.59932663159847 C44.36902234303009 -10.327476345958667, 44.571909484103664 -10.055626060318861, 44.81792832814825 -9.725983222076888 M44.81792832814825 -9.725983222076888 C44.98680989652019 -9.46653578200673, 45.15569146489213 -9.207088341936572, 45.41242697109088 -8.812673661278927 M44.81792832814825 -9.725983222076888 C45.052318913983804 -9.365896339548371, 45.28670949981936 -9.005809457019852, 45.41242697109088 -8.812673661278927 M45.41242697109088 -8.812673661278927 C45.62461117808173 -8.435919115785861, 45.83679538507258 -8.059164570292795, 45.947188208341004 -7.863150934094199 M45.41242697109088 -8.812673661278927 C45.597564615295994 -8.483943026773396, 45.78270225950111 -8.155212392267865, 45.947188208341004 -7.863150934094199 M45.947188208341004 -7.863150934094199 C46.11931570426417 -7.505724505871336, 46.291443200187324 -7.148298077648471, 46.42001459126881 -6.881316833080699 M45.947188208341004 -7.863150934094199 C46.05925018328181 -7.630451845387455, 46.17131215822262 -7.3977527566807115, 46.42001459126881 -6.881316833080699 M46.42001459126881 -6.881316833080699 C46.506268786269224 -6.668267303818265, 46.59252298126964 -6.455217774555832, 46.828963174845924 -5.871205925162238 M46.42001459126881 -6.881316833080699 C46.54975013505853 -6.560867531653979, 46.67948567884826 -6.240418230227259, 46.828963174845924 -5.871205925162238 M46.828963174845924 -5.871205925162238 C46.93705662322142 -5.5456456810073975, 47.04515007159692 -5.220085436852557, 47.172353501623235 -4.836968972727556 M46.828963174845924 -5.871205925162238 C46.94577976206179 -5.519372976663634, 47.06259634927766 -5.16754002816503, 47.172353501623235 -4.836968972727556 M47.172353501623235 -4.836968972727556 C47.23809114968826 -4.586282829778722, 47.30382879775328 -4.335596686829887, 47.448774507091 -3.7828558772573464 M47.172353501623235 -4.836968972727556 C47.246297571611386 -4.554988186300076, 47.32024164159954 -4.273007399872595, 47.448774507091 -3.7828558772573464 M47.448774507091 -3.7828558772573464 C47.493071834495474 -3.555398463278844, 47.537369161899946 -3.327941049300341, 47.65709031804565 -2.713198215567453 M47.448774507091 -3.7828558772573464 C47.50669987246931 -3.4854213685700244, 47.56462523784762 -3.187986859882702, 47.65709031804565 -2.713198215567453 M47.65709031804565 -2.713198215567453 C47.70137803370278 -2.369711438529369, 47.745665749359915 -2.0262246614912844, 47.796444920136366 -1.632391440430593 M47.65709031804565 -2.713198215567453 C47.691871599677555 -2.443441463571296, 47.72665288130946 -2.1736847115751385, 47.796444920136366 -1.632391440430593 M47.796444920136366 -1.632391440430593 C47.816835511657096 -1.3147915185060626, 47.83722610317782 -0.9971915965815319, 47.8662656754117 -0.5448768187181379 M47.796444920136366 -1.632391440430593 C47.82222814186762 -1.2307969501244158, 47.848011363598864 -0.8292024598182387, 47.8662656754117 -0.5448768187181379 M47.8662656754117 -0.5448768187181379 C47.8662656754117 -0.11946165698819433, 47.8662656754117 0.3059535047417492, 47.8662656754117 0.5448768187181336 M47.8662656754117 -0.5448768187181379 C47.8662656754117 -0.2551670164396478, 47.8662656754117 0.034542785838842294, 47.8662656754117 0.5448768187181336 M47.8662656754117 0.5448768187181336 C47.84418960060524 0.8887295033155315, 47.822113525798784 1.2325821879129293, 47.796444920136366 1.6323914404305815 M47.8662656754117 0.5448768187181336 C47.85089361473948 0.784309071791833, 47.83552155406728 1.0237413248655323, 47.796444920136366 1.6323914404305815 M47.796444920136366 1.6323914404305815 C47.75608838007451 1.9453887958501523, 47.71573184001265 2.258386151269723, 47.657090318045654 2.7131982155674415 M47.796444920136366 1.6323914404305815 C47.74670632257926 2.018154181086487, 47.696967725022155 2.4039169217423932, 47.657090318045654 2.7131982155674415 M47.657090318045654 2.7131982155674415 C47.60217057465123 2.9951994906059305, 47.547250831256804 3.2772007656444195, 47.448774507091 3.782855877257343 M47.657090318045654 2.7131982155674415 C47.578764609643315 3.1153841740691077, 47.50043890124098 3.5175701325707744, 47.448774507091 3.782855877257343 M47.448774507091 3.782855877257343 C47.377270759391216 4.055530657156911, 47.30576701169143 4.3282054370564795, 47.172353501623235 4.836968972727545 M47.448774507091 3.782855877257343 C47.34933699825342 4.162054194943987, 47.24989948941584 4.5412525126306305, 47.172353501623235 4.836968972727545 M47.172353501623235 4.836968972727545 C47.06848678895704 5.14979896236485, 46.96462007629084 5.462628952002153, 46.828963174845924 5.871205925162227 M47.172353501623235 4.836968972727545 C47.08940339161959 5.086801487753293, 47.00645328161595 5.336634002779042, 46.828963174845924 5.871205925162227 M46.828963174845924 5.871205925162227 C46.734766399087846 6.103873782455443, 46.640569623329775 6.336541639748658, 46.42001459126881 6.881316833080694 M46.828963174845924 5.871205925162227 C46.739377321141916 6.092484715835783, 46.64979146743791 6.313763506509339, 46.42001459126881 6.881316833080694 M46.42001459126881 6.881316833080694 C46.306526689467596 7.116976889423011, 46.19303878766639 7.352636945765329, 45.947188208341004 7.863150934094196 M46.42001459126881 6.881316833080694 C46.2721668202052 7.188325893129805, 46.1243190491416 7.495334953178915, 45.947188208341004 7.863150934094196 M45.947188208341004 7.863150934094196 C45.79100650905117 8.140467356295279, 45.63482480976134 8.41778377849636, 45.41242697109089 8.812673661278923 M45.947188208341004 7.863150934094196 C45.76536440922755 8.185997501076281, 45.5835406101141 8.508844068058366, 45.41242697109089 8.812673661278923 M45.41242697109089 8.812673661278923 C45.21567666295969 9.114934969423757, 45.01892635482849 9.417196277568591, 44.817928328148255 9.725983222076879 M45.41242697109089 8.812673661278923 C45.185971449616545 9.160570154085491, 44.959515928142196 9.508466646892058, 44.817928328148255 9.725983222076879 M44.817928328148255 9.725983222076879 C44.59174727120263 10.02904523286583, 44.36556621425701 10.332107243654782, 44.16613520195651 10.599326631598467 M44.817928328148255 9.725983222076879 C44.580241725234174 10.044461616286759, 44.3425551223201 10.362940010496638, 44.16613520195651 10.599326631598467 M44.16613520195651 10.599326631598467 C43.91051115205337 10.899597186035189, 43.654887102150234 11.19986774047191, 43.45972595028037 11.42911513444238 M44.16613520195651 10.599326631598467 C43.97164008366184 10.827791664633134, 43.77714496536717 11.056256697667802, 43.45972595028037 11.42911513444238 M43.45972595028037 11.42911513444238 C43.19575591635124 11.70168586681704, 42.93178588242211 11.974256599191703, 42.70160336025927 12.211938951661365 M43.45972595028037 11.42911513444238 C43.1733859785382 11.724784664215058, 42.88704600679603 12.020454193987733, 42.70160336025927 12.211938951661365 M42.70160336025927 12.211938951661365 C42.4943762410222 12.400137138423354, 42.287149121785134 12.58833532518534, 41.89488272023242 12.944581292275275 M42.70160336025927 12.211938951661365 C42.392223051002844 12.492909962773636, 42.08284274174642 12.773880973885909, 41.89488272023242 12.944581292275275 M41.89488272023242 12.944581292275275 C41.6845299569633 13.112332023260272, 41.47417719369419 13.28008275424527, 41.042879018350675 13.62403157175526 M41.89488272023242 12.944581292275275 C41.582402316844686 13.193776098524229, 41.26992191345696 13.442970904773182, 41.042879018350675 13.62403157175526 M41.042879018350675 13.62403157175526 C40.791821035659055 13.799158752356028, 40.540763052967435 13.974285932956798, 40.14909332057934 14.247497783161286 M41.042879018350675 13.62403157175526 C40.80522661171226 13.78980760281935, 40.56757420507384 13.955583633883439, 40.14909332057934 14.247497783161286 M40.14909332057934 14.247497783161286 C39.894771688618555 14.401669051015718, 39.64045005665776 14.555840318870152, 39.21719838406695 14.81241797009762 M40.14909332057934 14.247497783161286 C39.96017462150589 14.362021408749115, 39.77125592243245 14.476545034336944, 39.21719838406695 14.81241797009762 M39.21719838406695 14.81241797009762 C38.94235104433939 14.955805651185363, 38.66750370461183 15.099193332273105, 38.25102356499849 15.316470754341124 M39.21719838406695 14.81241797009762 C38.959338797746966 14.946943151113803, 38.70147921142699 15.081468332129988, 38.25102356499849 15.316470754341124 M38.25102356499849 15.316470754341124 C37.903479148529115 15.4703183579733, 37.55593473205974 15.624165961605478, 37.254539082949364 15.757584874882367 M38.25102356499849 15.316470754341124 C37.867167888622966 15.486392275598497, 37.48331221224744 15.656313796855873, 37.254539082949364 15.757584874882367 M37.254539082949364 15.757584874882367 C37.009590436387775 15.8477282410975, 36.764641789826186 15.93787160731263, 36.23183970640156 16.133947699181363 M37.254539082949364 15.757584874882367 C37.025419645377454 15.841902945865694, 36.796300207805544 15.92622101684902, 36.23183970640156 16.133947699181363 M36.23183970640156 16.133947699181363 C35.8729761933087 16.240456506154302, 35.51411268021585 16.346965313127246, 35.18712792646164 16.444012671663497 M36.23183970640156 16.133947699181363 C35.8860528264927 16.23657543006594, 35.540265946583844 16.339203160950518, 35.18712792646164 16.444012671663497 M35.18712792646164 16.444012671663497 C34.9473411294428 16.498742443327963, 34.707554332423946 16.553472214992432, 34.12469668792333 16.68650566884811 M35.18712792646164 16.444012671663497 C34.8566417459434 16.51944398574291, 34.52615556542516 16.594875299822323, 34.12469668792333 16.68650566884811 M34.12469668792333 16.68650566884811 C33.7441709495593 16.748026119205633, 33.36364521119526 16.809546569563153, 33.04891174863661 16.86043023499518 M34.12469668792333 16.68650566884811 C33.886816557088814 16.724964283613467, 33.6489364262543 16.763422898378824, 33.04891174863661 16.86043023499518 M33.04891174863661 16.86043023499518 C32.6165868000869 16.90213610283495, 32.18426185153719 16.943841970674722, 31.96419373967212 16.965071676755716 M33.04891174863661 16.86043023499518 C32.79389738778521 16.885031163686875, 32.53888302693381 16.90963209237857, 31.96419373967212 16.965071676755716 M31.96419373967212 16.965071676755716 C31.676116528179996 16.974309752219995, 31.388039316687873 16.98354782768427, 30.875000000000004 17 M31.96419373967212 16.965071676755716 C31.69339453782922 16.97375568008015, 31.422595335986323 16.98243968340458, 30.875000000000004 17 M30.875000000000004 17 C30.875000000000004 17, 30.875 17, 30.875 17 M30.875000000000004 17 C30.875000000000004 17, 30.875 17, 30.875 17 M30.875 17 C10.396423273142776 17, -10.082153453714447 17, -30.874999999999996 17 M30.875 17 C9.705464992979255 17, -11.46407001404149 17, -30.874999999999996 17 M-30.874999999999996 17 C-31.189879224472033 16.989902436146412, -31.50475844894407 16.97980487229282, -31.964193739672112 16.965071676755716 M-30.874999999999996 17 C-31.226755932632724 16.988719871891856, -31.578511865265455 16.977439743783712, -31.964193739672112 16.965071676755716 M-31.964193739672112 16.965071676755716 C-32.31255475705957 16.931465708373768, -32.660915774447034 16.89785973999182, -33.048911748636606 16.86043023499518 M-31.964193739672112 16.965071676755716 C-32.31022335874875 16.931690615564897, -32.65625297782539 16.898309554374077, -33.048911748636606 16.86043023499518 M-33.048911748636606 16.86043023499518 C-33.30997648071865 16.81822331369939, -33.571041212800694 16.7760163924036, -34.124696687923326 16.68650566884811 M-33.048911748636606 16.86043023499518 C-33.378060777342476 16.807215972622856, -33.70720980604834 16.754001710250535, -34.124696687923326 16.68650566884811 M-34.124696687923326 16.68650566884811 C-34.34745065932627 16.635663528480897, -34.57020463072922 16.584821388113685, -35.18712792646162 16.4440126716635 M-34.124696687923326 16.68650566884811 C-34.42492627915799 16.617980223829974, -34.725155870392655 16.549454778811842, -35.18712792646162 16.4440126716635 M-35.18712792646162 16.4440126716635 C-35.559262620903894 16.333565047727905, -35.93139731534617 16.223117423792313, -36.231839706401544 16.13394769918137 M-35.18712792646162 16.4440126716635 C-35.563254253606 16.33238035209443, -35.939380580750374 16.22074803252536, -36.231839706401544 16.13394769918137 M-36.231839706401544 16.13394769918137 C-36.48974965193529 16.03903445513155, -36.74765959746904 15.944121211081727, -37.254539082949364 15.757584874882369 M-36.231839706401544 16.13394769918137 C-36.515795888767656 16.029449199208464, -36.79975207113377 15.924950699235563, -37.254539082949364 15.757584874882369 M-37.254539082949364 15.757584874882369 C-37.64616764333315 15.584222528448949, -38.03779620371694 15.41086018201553, -38.25102356499848 15.316470754341127 M-37.254539082949364 15.757584874882369 C-37.529962898886176 15.635662921724357, -37.80538671482298 15.513740968566346, -38.25102356499848 15.316470754341127 M-38.25102356499848 15.316470754341127 C-38.46043689166775 15.20721995595341, -38.66985021833702 15.09796915756569, -39.21719838406693 14.812417970097624 M-38.25102356499848 15.316470754341127 C-38.552978613431996 15.158940998984804, -38.85493366186551 15.001411243628478, -39.21719838406693 14.812417970097624 M-39.21719838406693 14.812417970097624 C-39.48375616512089 14.650829076755322, -39.75031394617484 14.489240183413019, -40.14909332057932 14.247497783161299 M-39.21719838406693 14.812417970097624 C-39.419083728091685 14.69003388813985, -39.62096907211643 14.567649806182077, -40.14909332057932 14.247497783161299 M-40.14909332057932 14.247497783161299 C-40.45272938623541 14.035694407953045, -40.7563654518915 13.82389103274479, -41.04287901835067 13.624031571755264 M-40.14909332057932 14.247497783161299 C-40.381505497421124 14.085377109557436, -40.61391767426293 13.923256435953574, -41.04287901835067 13.624031571755264 M-41.04287901835067 13.624031571755264 C-41.317718528061455 13.404854376547423, -41.59255803777225 13.185677181339583, -41.8948827202324 12.94458129227529 M-41.04287901835067 13.624031571755264 C-41.32206598018396 13.401387399170291, -41.60125294201725 13.178743226585317, -41.8948827202324 12.94458129227529 M-41.8948827202324 12.94458129227529 C-42.091636865220856 12.765894383626184, -42.2883910102093 12.587207474977077, -42.70160336025926 12.211938951661377 M-41.8948827202324 12.94458129227529 C-42.21669434180178 12.6523204922349, -42.53850596337115 12.36005969219451, -42.70160336025926 12.211938951661377 M-42.70160336025926 12.211938951661377 C-42.89077890780362 12.016599667220527, -43.07995445534797 11.821260382779677, -43.459725950280365 11.429115134442386 M-42.70160336025926 12.211938951661377 C-42.919522341333334 11.986919712221313, -43.13744132240741 11.76190047278125, -43.459725950280365 11.429115134442386 M-43.459725950280365 11.429115134442386 C-43.73664722785285 11.103827644538665, -44.01356850542534 10.778540154634946, -44.16613520195651 10.599326631598473 M-43.459725950280365 11.429115134442386 C-43.69684445920719 11.150582241431557, -43.93396296813401 10.87204934842073, -44.16613520195651 10.599326631598473 M-44.16613520195651 10.599326631598473 C-44.303676664134535 10.415033602564888, -44.44121812631257 10.230740573531303, -44.81792832814825 9.72598322207689 M-44.16613520195651 10.599326631598473 C-44.3134382477859 10.401953969770625, -44.4607412936153 10.204581307942776, -44.81792832814825 9.72598322207689 M-44.81792832814825 9.72598322207689 C-45.02007101123431 9.415437777945968, -45.22221369432037 9.104892333815046, -45.41242697109088 8.812673661278936 M-44.81792832814825 9.72598322207689 C-45.03325173352955 9.395188648980955, -45.24857513891086 9.06439407588502, -45.41242697109088 8.812673661278936 M-45.41242697109088 8.812673661278936 C-45.547621851491314 8.57262146116184, -45.68281673189175 8.332569261044744, -45.947188208341004 7.863150934094201 M-45.41242697109088 8.812673661278936 C-45.62527662663889 8.434737544488645, -45.83812628218691 8.056801427698353, -45.947188208341004 7.863150934094201 M-45.947188208341004 7.863150934094201 C-46.04207881797408 7.666108552857321, -46.136969427607156 7.469066171620442, -46.42001459126881 6.881316833080701 M-45.947188208341004 7.863150934094201 C-46.13312879314592 7.477041331255616, -46.31906937795084 7.090931728417031, -46.42001459126881 6.881316833080701 M-46.42001459126881 6.881316833080701 C-46.52961360497737 6.610605150267777, -46.63921261868593 6.339893467454854, -46.828963174845924 5.87120592516224 M-46.42001459126881 6.881316833080701 C-46.51249771439661 6.652881730915484, -46.604980837524415 6.424446628750268, -46.828963174845924 5.87120592516224 M-46.828963174845924 5.87120592516224 C-46.95765112480978 5.483618323511497, -47.08633907477363 5.096030721860753, -47.172353501623235 4.8369689727275516 M-46.828963174845924 5.87120592516224 C-46.917523413872075 5.604476595373371, -47.006083652898226 5.337747265584503, -47.172353501623235 4.8369689727275516 M-47.172353501623235 4.8369689727275516 C-47.229947378679775 4.617338558166751, -47.287541255736315 4.397708143605951, -47.448774507091 3.782855877257349 M-47.172353501623235 4.8369689727275516 C-47.28095870553398 4.422810260422742, -47.38956390944473 4.008651548117932, -47.448774507091 3.782855877257349 M-47.448774507091 3.782855877257349 C-47.5159673861726 3.4378346443933543, -47.5831602652542 3.0928134115293595, -47.65709031804565 2.713198215567455 M-47.448774507091 3.782855877257349 C-47.50552044131348 3.491477498282357, -47.56226637553596 3.2000991193073647, -47.65709031804565 2.713198215567455 M-47.65709031804565 2.713198215567455 C-47.70165029050943 2.367599868500192, -47.746210262973214 2.0220015214329288, -47.796444920136366 1.6323914404306026 M-47.65709031804565 2.713198215567455 C-47.69370145730229 2.429249449180145, -47.730312596558925 2.1453006827928354, -47.796444920136366 1.6323914404306026 M-47.796444920136366 1.6323914404306026 C-47.813804676811586 1.3619992176707145, -47.831164433486805 1.0916069949108265, -47.8662656754117 0.54487681871814 M-47.796444920136366 1.6323914404306026 C-47.8145238730088 1.3507971563743815, -47.83260282588123 1.0692028723181604, -47.8662656754117 0.54487681871814 M-47.8662656754117 0.54487681871814 C-47.8662656754117 0.2668724380059271, -47.8662656754117 -0.011131942706285813, -47.8662656754117 -0.5448768187181317 M-47.8662656754117 0.54487681871814 C-47.8662656754117 0.30852475607142005, -47.8662656754117 0.07217269342470017, -47.8662656754117 -0.5448768187181317 M-47.8662656754117 -0.5448768187181317 C-47.839502174763474 -0.961739944423046, -47.81273867411525 -1.3786030701279604, -47.796444920136366 -1.6323914404305793 M-47.8662656754117 -0.5448768187181317 C-47.83930714419963 -0.9647777028807385, -47.81234861298756 -1.3846785870433453, -47.796444920136366 -1.6323914404305793 M-47.796444920136366 -1.6323914404305793 C-47.74336328767404 -2.0440820996544167, -47.69028165521173 -2.455772758878254, -47.657090318045654 -2.713198215567447 M-47.796444920136366 -1.6323914404305793 C-47.740721371702435 -2.0645722782249276, -47.6849978232685 -2.496753116019276, -47.657090318045654 -2.713198215567447 M-47.657090318045654 -2.713198215567447 C-47.59970528107149 -3.007858252097898, -47.54232024409733 -3.302518288628349, -47.448774507091 -3.782855877257341 M-47.657090318045654 -2.713198215567447 C-47.57879958765342 -3.1152045693798356, -47.50050885726119 -3.517210923192224, -47.448774507091 -3.782855877257341 M-47.448774507091 -3.782855877257341 C-47.37692478479125 -4.05685000825293, -47.3050750624915 -4.3308441392485175, -47.172353501623235 -4.836968972727544 M-47.448774507091 -3.782855877257341 C-47.3857698890117 -4.0231197923679325, -47.32276527093239 -4.263383707478524, -47.172353501623235 -4.836968972727544 M-47.172353501623235 -4.836968972727544 C-47.093586047453655 -5.074203994796795, -47.01481859328408 -5.311439016866046, -46.82896317484593 -5.871205925162218 M-47.172353501623235 -4.836968972727544 C-47.080128180810796 -5.114736944905238, -46.98790285999836 -5.392504917082934, -46.82896317484593 -5.871205925162218 M-46.82896317484593 -5.871205925162218 C-46.673174814079005 -6.256006188219584, -46.51738645331207 -6.64080645127695, -46.42001459126881 -6.881316833080692 M-46.82896317484593 -5.871205925162218 C-46.684733010504296 -6.227457219586582, -46.54050284616266 -6.583708514010946, -46.42001459126881 -6.881316833080692 M-46.42001459126881 -6.881316833080692 C-46.31038128068423 -7.108972748286632, -46.200747970099656 -7.336628663492572, -45.947188208341004 -7.863150934094194 M-46.42001459126881 -6.881316833080692 C-46.29349148912739 -7.144044761838055, -46.16696838698598 -7.406772690595417, -45.947188208341004 -7.863150934094194 M-45.947188208341004 -7.863150934094194 C-45.83767448780072 -8.057603634380168, -45.72816076726044 -8.252056334666143, -45.41242697109088 -8.812673661278929 M-45.947188208341004 -7.863150934094194 C-45.83605543598854 -8.060478424819465, -45.724922663636086 -8.257805915544735, -45.41242697109088 -8.812673661278929 M-45.41242697109088 -8.812673661278929 C-45.18835119419692 -9.156914227359136, -44.96427541730295 -9.501154793439342, -44.81792832814825 -9.725983222076884 M-45.41242697109088 -8.812673661278929 C-45.209086139726566 -9.125059782913116, -45.00574530836224 -9.437445904547305, -44.81792832814825 -9.725983222076884 M-44.81792832814825 -9.725983222076884 C-44.57861434118434 -10.046642162655802, -44.33930035422043 -10.367301103234722, -44.16613520195651 -10.599326631598467 M-44.81792832814825 -9.725983222076884 C-44.599416848445735 -10.018768698072929, -44.38090536874322 -10.311554174068975, -44.16613520195651 -10.599326631598467 M-44.16613520195651 -10.599326631598467 C-43.95818500998344 -10.843596759791163, -43.75023481801037 -11.08786688798386, -43.45972595028037 -11.42911513444238 M-44.16613520195651 -10.599326631598467 C-44.00713821570704 -10.786093538831906, -43.84814122945757 -10.972860446065347, -43.45972595028037 -11.42911513444238 M-43.45972595028037 -11.42911513444238 C-43.235086240342184 -11.66107407821674, -43.010446530403996 -11.893033021991101, -42.70160336025928 -12.21193895166136 M-43.45972595028037 -11.42911513444238 C-43.233368998591324 -11.662847271312678, -43.00701204690227 -11.896579408182976, -42.70160336025928 -12.21193895166136 M-42.70160336025928 -12.21193895166136 C-42.38779423823925 -12.496932093345563, -42.073985116219234 -12.781925235029767, -41.89488272023242 -12.944581292275274 M-42.70160336025928 -12.21193895166136 C-42.45086494393336 -12.439652947193602, -42.200126527607445 -12.667366942725844, -41.89488272023242 -12.944581292275274 M-41.89488272023242 -12.944581292275274 C-41.55784528296628 -13.213359679552143, -41.220807845700136 -13.48213806682901, -41.042879018350675 -13.624031571755259 M-41.89488272023242 -12.944581292275274 C-41.672487963092564 -13.121935192921274, -41.450093205952705 -13.299289093567273, -41.042879018350675 -13.624031571755259 M-41.042879018350675 -13.624031571755259 C-40.853477596350984 -13.75614980468683, -40.664076174351294 -13.888268037618401, -40.14909332057934 -14.247497783161284 M-41.042879018350675 -13.624031571755259 C-40.84620124542013 -13.76122547210804, -40.649523472489584 -13.89841937246082, -40.14909332057934 -14.247497783161284 M-40.14909332057934 -14.247497783161284 C-39.88686575355236 -14.406461675313274, -39.62463818652538 -14.565425567465264, -39.21719838406695 -14.812417970097618 M-40.14909332057934 -14.247497783161284 C-39.823328800482116 -14.444978149649039, -39.497564280384886 -14.642458516136795, -39.21719838406695 -14.812417970097618 M-39.21719838406695 -14.812417970097618 C-38.95888032987516 -14.947182333508865, -38.70056227568336 -15.081946696920113, -38.25102356499849 -15.316470754341124 M-39.21719838406695 -14.812417970097618 C-39.003380748721085 -14.923966493500824, -38.789563113375216 -15.035515016904029, -38.25102356499849 -15.316470754341124 M-38.25102356499849 -15.316470754341124 C-37.943131648783854 -15.452765372360155, -37.63523973256922 -15.589059990379186, -37.25453908294937 -15.757584874882365 M-38.25102356499849 -15.316470754341124 C-37.89722451856837 -15.473087097119915, -37.54342547213825 -15.629703439898707, -37.25453908294937 -15.757584874882365 M-37.25453908294937 -15.757584874882365 C-36.91433831063289 -15.882781903876294, -36.574137538316414 -16.007978932870223, -36.231839706401566 -16.133947699181363 M-37.25453908294937 -15.757584874882365 C-36.919990848961426 -15.880701717519903, -36.58544261497349 -16.00381856015744, -36.231839706401566 -16.133947699181363 M-36.231839706401566 -16.133947699181363 C-36.00484845719206 -16.20131751044536, -35.77785720798256 -16.26868732170936, -35.18712792646164 -16.444012671663494 M-36.231839706401566 -16.133947699181363 C-35.86631183877185 -16.242434451598932, -35.500783971142134 -16.350921204016498, -35.18712792646164 -16.444012671663494 M-35.18712792646164 -16.444012671663494 C-34.88104709917335 -16.513873623127985, -34.57496627188506 -16.583734574592476, -34.12469668792333 -16.68650566884811 M-35.18712792646164 -16.444012671663494 C-34.885478890349304 -16.512862095712215, -34.58382985423696 -16.581711519760937, -34.12469668792333 -16.68650566884811 M-34.12469668792333 -16.68650566884811 C-33.803817338613314 -16.738382953588033, -33.482937989303295 -16.79026023832796, -33.04891174863661 -16.86043023499518 M-34.12469668792333 -16.68650566884811 C-33.8312750156605 -16.73394380930051, -33.53785334339768 -16.781381949752912, -33.04891174863661 -16.86043023499518 M-33.04891174863661 -16.86043023499518 C-32.79259307044929 -16.885156989611602, -32.53627439226198 -16.90988374422802, -31.96419373967212 -16.965071676755716 M-33.04891174863661 -16.86043023499518 C-32.669060620769926 -16.89707401646266, -32.28920949290324 -16.933717797930143, -31.96419373967212 -16.965071676755716 M-31.96419373967212 -16.965071676755716 C-31.709357929783568 -16.97324376517103, -31.454522119895017 -16.98141585358634, -30.875000000000004 -17 M-31.96419373967212 -16.965071676755716 C-31.627780884385917 -16.975859782236846, -31.291368029099715 -16.986647887717975, -30.875000000000004 -17 M-30.875000000000004 -17 C-30.875000000000004 -17, -30.875 -17, -30.875 -17 M-30.875000000000004 -17 C-30.875000000000004 -17, -30.875 -17, -30.875 -17" stroke="#9370DB" stroke-width="1.3" fill="none" stroke-dasharray="0 0" style=""></path></g><g class="label" style="" transform="translate(0, -9.5)"><rect></rect><g><rect class="background" style="stroke: none"></rect><text y="-10.1" style=""><tspan class="text-outer-tspan row" x="0" y="-0.1em" dy="1.1em"><tspan font-style="normal" class="text-inner-tspan" font-weight="normal">Start</tspan><tspan font-style="normal" class="text-inner-tspan" font-weight="normal"> here</tspan></tspan></text></g></g></g><g class="node default" id="g0376749c-d42e-4e1b-b138-dbb8856ca410-light-flowchart-docsQ-1" data-look="classic" transform="translate(280.4421844482422, 227.15000915527344)"><polygon points="135.1500015258789,0 270.3000030517578,-135.1500015258789 135.1500015258789,-270.3000030517578 0,-135.1500015258789" class="label-container" transform="translate(-134.6500015258789, 135.1500015258789)"></polygon><g class="label" style="" transform="translate(0, -35.900001525878906)"><rect></rect><g><rect class="background" style="stroke: none"></rect><text y="-10.1" style=""><tspan class="text-outer-tspan row" x="0" y="-0.1em" dy="1.1em"><tspan font-style="normal" class="text-inner-tspan" font-weight="normal">Need</tspan><tspan font-style="normal" class="text-inner-tspan" font-weight="normal"> built-in</tspan><tspan font-style="normal" class="text-inner-tspan" font-weight="normal"> docs</tspan></tspan><tspan class="text-outer-tspan row" x="0" y="1em" dy="1.1em"><tspan font-style="normal" class="text-inner-tspan" font-weight="normal">navigation,</tspan></tspan><tspan class="text-outer-tspan row" x="0" y="2.1em" dy="1.1em"><tspan font-style="normal" class="text-inner-tspan" font-weight="normal">search,</tspan><tspan font-style="normal" class="text-inner-tspan" font-weight="normal"> and</tspan><tspan font-style="normal" class="text-inner-tspan" font-weight="normal"> the</tspan><tspan font-style="normal" class="text-inner-tspan" font-weight="normal"> default</tspan></tspan><tspan class="text-outer-tspan row" x="0" y="3.2em" dy="1.1em"><tspan font-style="normal" class="text-inner-tspan" font-weight="normal">theme?</tspan></tspan></text></g></g></g><g class="node default" id="g0376749c-d42e-4e1b-b138-dbb8856ca410-light-flowchart-docs-3" data-look="classic" transform="translate(124.9296875, 579.3953247070312)"><rect class="basic label-container" style="" x="-116.9296875" y="-50.900001525878906" width="233.859375" height="101.80000305175781"></rect><g class="label" style="" transform="translate(0, -35.900001525878906)"><rect></rect><g><rect class="background" style="stroke: none"></rect><text y="-10.1" style=""><tspan class="text-outer-tspan row" x="0" y="-0.1em" dy="1.1em"><tspan font-style="normal" class="text-inner-tspan" font-weight="normal">@pagesmith/docs</tspan></tspan><tspan class="text-outer-tspan row" x="0" y="1em" dy="1.1em"><tspan font-style="normal" class="text-inner-tspan" font-weight="normal">Docs</tspan><tspan font-style="normal" class="text-inner-tspan" font-weight="normal"> preset</tspan><tspan font-style="normal" class="text-inner-tspan" font-weight="normal"> with</tspan><tspan font-style="normal" class="text-inner-tspan" font-weight="normal"> config,</tspan></tspan><tspan class="text-outer-tspan row" x="0" y="2.1em" dy="1.1em"><tspan font-style="normal" class="text-inner-tspan" font-weight="normal">navigation,</tspan><tspan font-style="normal" class="text-inner-tspan" font-weight="normal"> search,</tspan><tspan font-style="normal" class="text-inner-tspan" font-weight="normal"> and</tspan></tspan><tspan class="text-outer-tspan row" x="0" y="3.2em" dy="1.1em"><tspan font-style="normal" class="text-inner-tspan" font-weight="normal">theme</tspan></tspan></text></g></g></g><g class="node default" id="g0376749c-d42e-4e1b-b138-dbb8856ca410-light-flowchart-hostQ-5" data-look="classic" transform="translate(435.9546813964844, 579.3953247070312)"><polygon points="144.0953140258789,0 288.1906280517578,-144.0953140258789 144.0953140258789,-288.1906280517578 0,-144.0953140258789" class="label-container" transform="translate(-143.5953140258789, 144.0953140258789)"></polygon><g class="label" style="" transform="translate(0, -35.900001525878906)"><rect></rect><g><rect class="background" style="stroke: none"></rect><text y="-10.1" style=""><tspan class="text-outer-tspan row" x="0" y="-0.1em" dy="1.1em"><tspan font-style="normal" class="text-inner-tspan" font-weight="normal">Does</tspan><tspan font-style="normal" class="text-inner-tspan" font-weight="normal"> the</tspan><tspan font-style="normal" class="text-inner-tspan" font-weight="normal"> host</tspan><tspan font-style="normal" class="text-inner-tspan" font-weight="normal"> app</tspan><tspan font-style="normal" class="text-inner-tspan" font-weight="normal"> already</tspan></tspan><tspan class="text-outer-tspan row" x="0" y="1em" dy="1.1em"><tspan font-style="normal" class="text-inner-tspan" font-weight="normal">own</tspan></tspan><tspan class="text-outer-tspan row" x="0" y="2.1em" dy="1.1em"><tspan font-style="normal" class="text-inner-tspan" font-weight="normal">routing,</tspan><tspan font-style="normal" class="text-inner-tspan" font-weight="normal"> layout,</tspan><tspan font-style="normal" class="text-inner-tspan" font-weight="normal"> and</tspan><tspan font-style="normal" class="text-inner-tspan" font-weight="normal"> build</tspan></tspan><tspan class="text-outer-tspan row" x="0" y="3.2em" dy="1.1em"><tspan font-style="normal" class="text-inner-tspan" font-weight="normal">tooling?</tspan></tspan></text></g></g></g><g class="node default" id="g0376749c-d42e-4e1b-b138-dbb8856ca410-light-flowchart-core-7" data-look="classic" transform="translate(563.1460876464844, 856.1906318664551)"><rect class="basic label-container" style="" x="-111.96875" y="-59.70000076293945" width="223.9375" height="119.4000015258789"></rect><g class="label" style="" transform="translate(0, -44.70000076293945)"><rect></rect><g><rect class="background" style="stroke: none"></rect><text y="-10.1" style=""><tspan class="text-outer-tspan row" x="0" y="-0.1em" dy="1.1em"><tspan font-style="normal" class="text-inner-tspan" font-weight="normal">@pagesmith/core</tspan></tspan><tspan class="text-outer-tspan row" x="0" y="1em" dy="1.1em"><tspan font-style="normal" class="text-inner-tspan" font-weight="normal">Headless</tspan><tspan font-style="normal" class="text-inner-tspan" font-weight="normal"> content</tspan><tspan font-style="normal" class="text-inner-tspan" font-weight="normal"> layer</tspan></tspan><tspan class="text-outer-tspan row" x="0" y="2.1em" dy="1.1em"><tspan font-style="normal" class="text-inner-tspan" font-weight="normal">with</tspan></tspan><tspan class="text-outer-tspan row" x="0" y="3.2em" dy="1.1em"><tspan font-style="normal" class="text-inner-tspan" font-weight="normal">schemas,</tspan><tspan font-style="normal" class="text-inner-tspan" font-weight="normal"> loaders,</tspan><tspan font-style="normal" class="text-inner-tspan" font-weight="normal"> and</tspan></tspan><tspan class="text-outer-tspan row" x="0" y="4.300000000000001em" dy="1.1em"><tspan font-style="normal" class="text-inner-tspan" font-weight="normal">markdown</tspan></tspan></text></g></g></g><g class="node default" id="g0376749c-d42e-4e1b-b138-dbb8856ca410-light-flowchart-site-9" data-look="classic" transform="translate(286.3999938964844, 1392.0843887329102)"><rect class="basic label-container" style="" x="-127.6171875" y="-68.5" width="255.234375" height="137"></rect><g class="label" style="" transform="translate(0, -53.5)"><rect></rect><g><rect class="background" style="stroke: none"></rect><text y="-10.1" style=""><tspan class="text-outer-tspan row" x="0" y="-0.1em" dy="1.1em"><tspan font-style="normal" class="text-inner-tspan" font-weight="normal">@pagesmith/site</tspan><tspan font-style="normal" class="text-inner-tspan" font-weight="normal"> +</tspan></tspan><tspan class="text-outer-tspan row" x="0" y="1em" dy="1.1em"><tspan font-style="normal" class="text-inner-tspan" font-weight="normal">@pagesmith/core</tspan></tspan><tspan class="text-outer-tspan row" x="0" y="2.1em" dy="1.1em"><tspan font-style="normal" class="text-inner-tspan" font-weight="normal">Custom</tspan><tspan font-style="normal" class="text-inner-tspan" font-weight="normal"> site</tspan><tspan font-style="normal" class="text-inner-tspan" font-weight="normal"> shell</tspan><tspan font-style="normal" class="text-inner-tspan" font-weight="normal"> with</tspan></tspan><tspan class="text-outer-tspan row" x="0" y="3.2em" dy="1.1em"><tspan font-style="normal" class="text-inner-tspan" font-weight="normal">shared</tspan></tspan><tspan class="text-outer-tspan row" x="0" y="4.300000000000001em" dy="1.1em"><tspan font-style="normal" class="text-inner-tspan" font-weight="normal">JSX,</tspan><tspan font-style="normal" class="text-inner-tspan" font-weight="normal"> CSS/runtime,</tspan><tspan font-style="normal" class="text-inner-tspan" font-weight="normal"> and</tspan><tspan font-style="normal" class="text-inner-tspan" font-weight="normal"> Vite</tspan></tspan><tspan class="text-outer-tspan row" x="0" y="5.4em" dy="1.1em"><tspan font-style="normal" class="text-inner-tspan" font-weight="normal">SSG</tspan></tspan></text></g></g></g><g class="node default" id="g0376749c-d42e-4e1b-b138-dbb8856ca410-light-flowchart-siteQ-11" data-look="classic" transform="translate(563.1460876464844, 1119.7375106811523)"><polygon points="130.84687423706055,0 261.6937484741211,-130.84687423706055 130.84687423706055,-261.6937484741211 0,-130.84687423706055" class="label-container" transform="translate(-130.34687423706055, 130.84687423706055)"></polygon><g class="label" style="" transform="translate(0, -18.299999237060547)"><rect></rect><g><rect class="background" style="stroke: none"></rect><text y="-10.1" style=""><tspan class="text-outer-tspan row" x="0" y="-0.1em" dy="1.1em"><tspan font-style="normal" class="text-inner-tspan" font-weight="normal">Need</tspan><tspan font-style="normal" class="text-inner-tspan" font-weight="normal"> the</tspan><tspan font-style="normal" class="text-inner-tspan" font-weight="normal"> shared</tspan><tspan font-style="normal" class="text-inner-tspan" font-weight="normal"> Pagesmith</tspan></tspan><tspan class="text-outer-tspan row" x="0" y="1em" dy="1.1em"><tspan font-style="normal" class="text-inner-tspan" font-weight="normal">site</tspan><tspan font-style="normal" class="text-inner-tspan" font-weight="normal"> layer</tspan><tspan font-style="normal" class="text-inner-tspan" font-weight="normal"> too?</tspan></tspan></text></g></g></g><g class="node default" id="g0376749c-d42e-4e1b-b138-dbb8856ca410-light-flowchart-coreOnly-15" data-look="classic" transform="translate(585.5093688964844, 1392.0843887329102)"><rect class="basic label-container" style="" x="-121.4921875" y="-24.5" width="242.984375" height="49"></rect><g class="label" style="" transform="translate(0, -9.5)"><rect></rect><g><rect class="background" style="stroke: none"></rect><text y="-10.1" style=""><tspan class="text-outer-tspan row" x="0" y="-0.1em" dy="1.1em"><tspan font-style="normal" class="text-inner-tspan" font-weight="normal">Stay</tspan><tspan font-style="normal" class="text-inner-tspan" font-weight="normal"> on</tspan><tspan font-style="normal" class="text-inner-tspan" font-weight="normal"> @pagesmith/core</tspan></tspan></text></g></g></g></g></g></g><defs><filter id="g0376749c-d42e-4e1b-b138-dbb8856ca410-light-drop-shadow" height="130%" width="130%"><feDropShadow dx="4" dy="4" stdDeviation="0" flood-opacity="0.06" flood-color="#000000"></feDropShadow></filter></defs><defs><filter id="g0376749c-d42e-4e1b-b138-dbb8856ca410-light-drop-shadow-small" height="150%" width="150%"><feDropShadow dx="2" dy="2" stdDeviation="0" flood-opacity="0.06" flood-color="#000000"></feDropShadow></filter></defs></svg>