<svg id="gbc2bb5bc-6417-44be-a8c1-e61746d196a8-light" width="100%" xmlns="http://www.w3.org/2000/svg" xmlns:xlink="http://www.w3.org/1999/xlink" class="flowchart" style="max-width: 715.0015869140625px;" viewBox="0 0 715.0015869140625 1468.5843505859375" role="graphics-document document" aria-roledescription="flowchart-v2"><style>#gbc2bb5bc-6417-44be-a8c1-e61746d196a8-light{font-family:"trebuchet ms",verdana,arial,sans-serif;font-size:16px;fill:#333;}@keyframes edge-animation-frame{from{stroke-dashoffset:0;}}@keyframes dash{to{stroke-dashoffset:0;}}#gbc2bb5bc-6417-44be-a8c1-e61746d196a8-light .edge-animation-slow{stroke-dasharray:9,5!important;stroke-dashoffset:900;animation:dash 50s linear infinite;stroke-linecap:round;}#gbc2bb5bc-6417-44be-a8c1-e61746d196a8-light .edge-animation-fast{stroke-dasharray:9,5!important;stroke-dashoffset:900;animation:dash 20s linear infinite;stroke-linecap:round;}#gbc2bb5bc-6417-44be-a8c1-e61746d196a8-light .error-icon{fill:#552222;}#gbc2bb5bc-6417-44be-a8c1-e61746d196a8-light .error-text{fill:#552222;stroke:#552222;}#gbc2bb5bc-6417-44be-a8c1-e61746d196a8-light .edge-thickness-normal{stroke-width:1px;}#gbc2bb5bc-6417-44be-a8c1-e61746d196a8-light .edge-thickness-thick{stroke-width:3.5px;}#gbc2bb5bc-6417-44be-a8c1-e61746d196a8-light .edge-pattern-solid{stroke-dasharray:0;}#gbc2bb5bc-6417-44be-a8c1-e61746d196a8-light .edge-thickness-invisible{stroke-width:0;fill:none;}#gbc2bb5bc-6417-44be-a8c1-e61746d196a8-light .edge-pattern-dashed{stroke-dasharray:3;}#gbc2bb5bc-6417-44be-a8c1-e61746d196a8-light .edge-pattern-dotted{stroke-dasharray:2;}#gbc2bb5bc-6417-44be-a8c1-e61746d196a8-light .marker{fill:#333333;stroke:#333333;}#gbc2bb5bc-6417-44be-a8c1-e61746d196a8-light .marker.cross{stroke:#333333;}#gbc2bb5bc-6417-44be-a8c1-e61746d196a8-light svg{font-family:"trebuchet ms",verdana,arial,sans-serif;font-size:16px;}#gbc2bb5bc-6417-44be-a8c1-e61746d196a8-light p{margin:0;}#gbc2bb5bc-6417-44be-a8c1-e61746d196a8-light .label{font-family:"trebuchet ms",verdana,arial,sans-serif;color:#333;}#gbc2bb5bc-6417-44be-a8c1-e61746d196a8-light .cluster-label text{fill:#333;}#gbc2bb5bc-6417-44be-a8c1-e61746d196a8-light .cluster-label span{color:#333;}#gbc2bb5bc-6417-44be-a8c1-e61746d196a8-light .cluster-label span p{background-color:transparent;}#gbc2bb5bc-6417-44be-a8c1-e61746d196a8-light .label text,#gbc2bb5bc-6417-44be-a8c1-e61746d196a8-light span{fill:#333;color:#333;}#gbc2bb5bc-6417-44be-a8c1-e61746d196a8-light .node rect,#gbc2bb5bc-6417-44be-a8c1-e61746d196a8-light .node circle,#gbc2bb5bc-6417-44be-a8c1-e61746d196a8-light .node ellipse,#gbc2bb5bc-6417-44be-a8c1-e61746d196a8-light .node polygon,#gbc2bb5bc-6417-44be-a8c1-e61746d196a8-light .node path{fill:#ECECFF;stroke:#9370DB;stroke-width:1px;}#gbc2bb5bc-6417-44be-a8c1-e61746d196a8-light .rough-node .label text,#gbc2bb5bc-6417-44be-a8c1-e61746d196a8-light .node .label text,#gbc2bb5bc-6417-44be-a8c1-e61746d196a8-light .image-shape .label,#gbc2bb5bc-6417-44be-a8c1-e61746d196a8-light .icon-shape .label{text-anchor:middle;}#gbc2bb5bc-6417-44be-a8c1-e61746d196a8-light .node .katex path{fill:#000;stroke:#000;stroke-width:1px;}#gbc2bb5bc-6417-44be-a8c1-e61746d196a8-light .rough-node .label,#gbc2bb5bc-6417-44be-a8c1-e61746d196a8-light .node .label,#gbc2bb5bc-6417-44be-a8c1-e61746d196a8-light .image-shape .label,#gbc2bb5bc-6417-44be-a8c1-e61746d196a8-light .icon-shape .label{text-align:center;}#gbc2bb5bc-6417-44be-a8c1-e61746d196a8-light .node.clickable{cursor:pointer;}#gbc2bb5bc-6417-44be-a8c1-e61746d196a8-light .root .anchor path{fill:#333333!important;stroke-width:0;stroke:#333333;}#gbc2bb5bc-6417-44be-a8c1-e61746d196a8-light .arrowheadPath{fill:#333333;}#gbc2bb5bc-6417-44be-a8c1-e61746d196a8-light .edgePath .path{stroke:#333333;stroke-width:1px;}#gbc2bb5bc-6417-44be-a8c1-e61746d196a8-light .flowchart-link{stroke:#333333;fill:none;}#gbc2bb5bc-6417-44be-a8c1-e61746d196a8-light .edgeLabel{background-color:rgba(232,232,232, 0.8);text-align:center;}#gbc2bb5bc-6417-44be-a8c1-e61746d196a8-light .edgeLabel p{background-color:rgba(232,232,232, 0.8);}#gbc2bb5bc-6417-44be-a8c1-e61746d196a8-light .edgeLabel rect{opacity:0.5;background-color:rgba(232,232,232, 0.8);fill:rgba(232,232,232, 0.8);}#gbc2bb5bc-6417-44be-a8c1-e61746d196a8-light .labelBkg{background-color:rgba(232, 232, 232, 0.5);}#gbc2bb5bc-6417-44be-a8c1-e61746d196a8-light .cluster rect{fill:#ffffde;stroke:#aaaa33;stroke-width:1px;}#gbc2bb5bc-6417-44be-a8c1-e61746d196a8-light .cluster text{fill:#333;}#gbc2bb5bc-6417-44be-a8c1-e61746d196a8-light .cluster span{color:#333;}#gbc2bb5bc-6417-44be-a8c1-e61746d196a8-light div.mermaidTooltip{position:absolute;text-align:center;max-width:200px;padding:2px;font-family:"trebuchet ms",verdana,arial,sans-serif;font-size:12px;background:hsl(80, 100%, 96.2745098039%);border:1px solid #aaaa33;border-radius:2px;pointer-events:none;z-index:100;}#gbc2bb5bc-6417-44be-a8c1-e61746d196a8-light .flowchartTitleText{text-anchor:middle;font-size:18px;fill:#333;}#gbc2bb5bc-6417-44be-a8c1-e61746d196a8-light rect.text{fill:none;stroke-width:0;}#gbc2bb5bc-6417-44be-a8c1-e61746d196a8-light .icon-shape,#gbc2bb5bc-6417-44be-a8c1-e61746d196a8-light .image-shape{background-color:rgba(232,232,232, 0.8);text-align:center;}#gbc2bb5bc-6417-44be-a8c1-e61746d196a8-light .icon-shape p,#gbc2bb5bc-6417-44be-a8c1-e61746d196a8-light .image-shape p{background-color:rgba(232,232,232, 0.8);padding:2px;}#gbc2bb5bc-6417-44be-a8c1-e61746d196a8-light .icon-shape .label rect,#gbc2bb5bc-6417-44be-a8c1-e61746d196a8-light .image-shape .label rect{opacity:0.5;background-color:rgba(232,232,232, 0.8);fill:rgba(232,232,232, 0.8);}#gbc2bb5bc-6417-44be-a8c1-e61746d196a8-light .label-icon{display:inline-block;height:1em;overflow:visible;vertical-align:-0.125em;}#gbc2bb5bc-6417-44be-a8c1-e61746d196a8-light .node .label-icon path{fill:currentColor;stroke:revert;stroke-width:revert;}#gbc2bb5bc-6417-44be-a8c1-e61746d196a8-light .node .neo-node{stroke:#9370DB;}#gbc2bb5bc-6417-44be-a8c1-e61746d196a8-light [data-look="neo"].node rect,#gbc2bb5bc-6417-44be-a8c1-e61746d196a8-light [data-look="neo"].cluster rect,#gbc2bb5bc-6417-44be-a8c1-e61746d196a8-light [data-look="neo"].node polygon{stroke:#9370DB;filter:drop-shadow(1px 2px 2px rgba(185, 185, 185, 1));}#gbc2bb5bc-6417-44be-a8c1-e61746d196a8-light [data-look="neo"].node path{stroke:#9370DB;stroke-width:1px;}#gbc2bb5bc-6417-44be-a8c1-e61746d196a8-light [data-look="neo"].node .outer-path{filter:drop-shadow(1px 2px 2px rgba(185, 185, 185, 1));}#gbc2bb5bc-6417-44be-a8c1-e61746d196a8-light [data-look="neo"].node .neo-line path{stroke:#9370DB;filter:none;}#gbc2bb5bc-6417-44be-a8c1-e61746d196a8-light [data-look="neo"].node circle{stroke:#9370DB;filter:drop-shadow(1px 2px 2px rgba(185, 185, 185, 1));}#gbc2bb5bc-6417-44be-a8c1-e61746d196a8-light [data-look="neo"].node circle .state-start{fill:#000000;}#gbc2bb5bc-6417-44be-a8c1-e61746d196a8-light [data-look="neo"].icon-shape .icon{fill:#9370DB;filter:drop-shadow(1px 2px 2px rgba(185, 185, 185, 1));}#gbc2bb5bc-6417-44be-a8c1-e61746d196a8-light [data-look="neo"].icon-shape .icon-neo path{stroke:#9370DB;filter:drop-shadow(1px 2px 2px rgba(185, 185, 185, 1));}#gbc2bb5bc-6417-44be-a8c1-e61746d196a8-light :root{--mermaid-font-family:"trebuchet ms",verdana,arial,sans-serif;}</style><g><marker id="gbc2bb5bc-6417-44be-a8c1-e61746d196a8-light_flowchart-v2-pointEnd" class="marker flowchart-v2" viewBox="0 0 10 10" refX="5" refY="5" markerUnits="userSpaceOnUse" markerWidth="8" markerHeight="8" orient="auto"><path d="M 0 0 L 10 5 L 0 10 z" class="arrowMarkerPath" style="stroke-width: 1; stroke-dasharray: 1, 0;"></path></marker><marker id="gbc2bb5bc-6417-44be-a8c1-e61746d196a8-light_flowchart-v2-pointStart" class="marker flowchart-v2" viewBox="0 0 10 10" refX="4.5" refY="5" markerUnits="userSpaceOnUse" markerWidth="8" markerHeight="8" orient="auto"><path d="M 0 5 L 10 10 L 10 0 z" class="arrowMarkerPath" style="stroke-width: 1; stroke-dasharray: 1, 0;"></path></marker><marker id="gbc2bb5bc-6417-44be-a8c1-e61746d196a8-light_flowchart-v2-pointEnd-margin" class="marker flowchart-v2" viewBox="0 0 11.5 14" refX="11.5" refY="7" markerUnits="userSpaceOnUse" markerWidth="10.5" markerHeight="14" orient="auto"><path d="M 0 0 L 11.5 7 L 0 14 z" class="arrowMarkerPath" style="stroke-width: 0; stroke-dasharray: 1, 0;"></path></marker><marker id="gbc2bb5bc-6417-44be-a8c1-e61746d196a8-light_flowchart-v2-pointStart-margin" class="marker flowchart-v2" viewBox="0 0 11.5 14" refX="1" refY="7" markerUnits="userSpaceOnUse" markerWidth="11.5" markerHeight="14" orient="auto"><polygon points="0,7 11.5,14 11.5,0" class="arrowMarkerPath" style="stroke-width: 0; stroke-dasharray: 1, 0;"></polygon></marker><marker id="gbc2bb5bc-6417-44be-a8c1-e61746d196a8-light_flowchart-v2-circleEnd" class="marker flowchart-v2" viewBox="0 0 10 10" refX="11" refY="5" markerUnits="userSpaceOnUse" markerWidth="11" markerHeight="11" orient="auto"><circle cx="5" cy="5" r="5" class="arrowMarkerPath" style="stroke-width: 1; stroke-dasharray: 1, 0;"></circle></marker><marker id="gbc2bb5bc-6417-44be-a8c1-e61746d196a8-light_flowchart-v2-circleStart" class="marker flowchart-v2" viewBox="0 0 10 10" refX="-1" refY="5" markerUnits="userSpaceOnUse" markerWidth="11" markerHeight="11" orient="auto"><circle cx="5" cy="5" r="5" class="arrowMarkerPath" style="stroke-width: 1; stroke-dasharray: 1, 0;"></circle></marker><marker id="gbc2bb5bc-6417-44be-a8c1-e61746d196a8-light_flowchart-v2-circleEnd-margin" class="marker flowchart-v2" viewBox="0 0 10 10" refY="5" refX="12.25" markerUnits="userSpaceOnUse" markerWidth="14" markerHeight="14" orient="auto"><circle cx="5" cy="5" r="5" class="arrowMarkerPath" style="stroke-width: 0; stroke-dasharray: 1, 0;"></circle></marker><marker id="gbc2bb5bc-6417-44be-a8c1-e61746d196a8-light_flowchart-v2-circleStart-margin" class="marker flowchart-v2" viewBox="0 0 10 10" refX="-2" refY="5" markerUnits="userSpaceOnUse" markerWidth="14" markerHeight="14" orient="auto"><circle cx="5" cy="5" r="5" class="arrowMarkerPath" style="stroke-width: 0; stroke-dasharray: 1, 0;"></circle></marker><marker id="gbc2bb5bc-6417-44be-a8c1-e61746d196a8-light_flowchart-v2-crossEnd" class="marker cross flowchart-v2" viewBox="0 0 11 11" refX="12" refY="5.2" markerUnits="userSpaceOnUse" markerWidth="11" markerHeight="11" orient="auto"><path d="M 1,1 l 9,9 M 10,1 l -9,9" class="arrowMarkerPath" style="stroke-width: 2; stroke-dasharray: 1, 0;"></path></marker><marker id="gbc2bb5bc-6417-44be-a8c1-e61746d196a8-light_flowchart-v2-crossStart" class="marker cross flowchart-v2" viewBox="0 0 11 11" refX="-1" refY="5.2" markerUnits="userSpaceOnUse" markerWidth="11" markerHeight="11" orient="auto"><path d="M 1,1 l 9,9 M 10,1 l -9,9" class="arrowMarkerPath" style="stroke-width: 2; stroke-dasharray: 1, 0;"></path></marker><marker id="gbc2bb5bc-6417-44be-a8c1-e61746d196a8-light_flowchart-v2-crossEnd-margin" class="marker cross flowchart-v2" viewBox="0 0 15 15" refX="17.7" refY="7.5" markerUnits="userSpaceOnUse" markerWidth="12" markerHeight="12" orient="auto"><path d="M 1,1 L 14,14 M 1,14 L 14,1" class="arrowMarkerPath" style="stroke-width: 2.5;"></path></marker><marker id="gbc2bb5bc-6417-44be-a8c1-e61746d196a8-light_flowchart-v2-crossStart-margin" class="marker cross flowchart-v2" viewBox="0 0 15 15" refX="-3.5" refY="7.5" markerUnits="userSpaceOnUse" markerWidth="12" markerHeight="12" orient="auto"><path d="M 1,1 L 14,14 M 1,14 L 14,1" class="arrowMarkerPath" style="stroke-width: 2.5; stroke-dasharray: 1, 0;"></path></marker><g class="root"><g class="clusters"></g><g class="edgePaths"><path d="M280.942,42.5L280.859,46.583C280.776,50.667,280.609,58.833,280.526,66.417C280.442,74,280.442,81,280.442,84.5L280.442,88" id="gbc2bb5bc-6417-44be-a8c1-e61746d196a8-light-L_start_docsQ_0" class="edge-thickness-normal edge-pattern-solid edge-thickness-normal edge-pattern-solid flowchart-link" style=";" data-edge="true" data-et="edge" data-id="L_start_docsQ_0" data-points="W3sieCI6MjgwLjk0MjE4NDQ0ODI0MjIsInkiOjQyLjV9LHsieCI6MjgwLjQ0MjE4NDQ0ODI0MjIsInkiOjY3fSx7IngiOjI4MC40NDIxODQ0NDgyNDIyLCJ5Ijo5MS45OTk5OTk5OTk5OTk5N31d" data-look="classic" marker-end="url(#gbc2bb5bc-6417-44be-a8c1-e61746d196a8-light_flowchart-v2-pointEnd)"></path><path d="M216.2,298.058L200.989,314.849C185.777,331.639,155.353,365.219,140.141,402.959C124.93,440.698,124.93,482.597,124.93,503.546L124.93,524.495" id="gbc2bb5bc-6417-44be-a8c1-e61746d196a8-light-L_docsQ_docs_0" class="edge-thickness-normal edge-pattern-solid edge-thickness-normal edge-pattern-solid flowchart-link" style=";" data-edge="true" data-et="edge" data-id="L_docsQ_docs_0" data-points="W3sieCI6MjE2LjIwMDM2Mjc0MTI1MTMsInkiOjI5OC4wNTgxOTY2MDM1NTZ9LHsieCI6MTI0LjkyOTY4NzUsInkiOjM5OC44MDAwMTgzMTA1NDY5fSx7IngiOjEyNC45Mjk2ODc1LCJ5Ijo1MjguNDk1MzIzMTgxMTUyM31d" data-look="classic" marker-end="url(#gbc2bb5bc-6417-44be-a8c1-e61746d196a8-light_flowchart-v2-pointEnd)"></path><path d="M344.684,298.058L359.896,314.849C375.108,331.639,405.531,365.219,420.743,387.426C435.955,409.633,435.955,420.467,435.955,425.883L435.955,431.3" id="gbc2bb5bc-6417-44be-a8c1-e61746d196a8-light-L_docsQ_hostQ_0" class="edge-thickness-normal edge-pattern-solid edge-thickness-normal edge-pattern-solid flowchart-link" style=";" data-edge="true" data-et="edge" data-id="L_docsQ_hostQ_0" data-points="W3sieCI6MzQ0LjY4NDAwNjE1NTIzMzEsInkiOjI5OC4wNTgxOTY2MDM1NTZ9LHsieCI6NDM1Ljk1NDY4MTM5NjQ4NDQsInkiOjM5OC44MDAwMTgzMTA1NDY5fSx7IngiOjQzNS45NTQ2ODEzOTY0ODQzLCJ5Ijo0MzUuMzAwMDE4MzEwNTQ2OH1d" data-look="classic" marker-end="url(#gbc2bb5bc-6417-44be-a8c1-e61746d196a8-light_flowchart-v2-pointEnd)"></path><path d="M495.501,663.944L506.776,679.952C518.05,695.959,540.598,727.975,551.872,749.4C563.146,770.824,563.146,781.657,563.146,787.074L563.146,792.491" id="gbc2bb5bc-6417-44be-a8c1-e61746d196a8-light-L_hostQ_core_0" class="edge-thickness-normal edge-pattern-solid edge-thickness-normal edge-pattern-solid flowchart-link" style=";" data-edge="true" data-et="edge" data-id="L_hostQ_core_0" data-points="W3sieCI6NDk1LjUwMTM4NjYzNTk3OTc3LCJ5Ijo2NjMuOTQzOTI1ODY0MDIwMn0seyJ4Ijo1NjMuMTQ2MDg3NjQ2NDg0NCwieSI6NzU5Ljk5MDYzMTEwMzUxNTZ9LHsieCI6NTYzLjE0NjA4NzY0NjQ4NDQsInkiOjc5Ni40OTA2MzExMDM1MTU2fV0=" data-look="classic" marker-end="url(#gbc2bb5bc-6417-44be-a8c1-e61746d196a8-light_flowchart-v2-pointEnd)"></path><path d="M366.894,654.43L350.701,672.023C334.508,689.617,302.122,724.804,285.929,758.43C269.736,792.057,269.736,824.124,269.736,856.191C269.736,888.257,269.736,920.324,269.736,964.248C269.736,1008.173,269.736,1063.955,269.736,1119.738C269.736,1175.52,269.736,1231.302,270.597,1264.618C271.458,1297.934,273.18,1308.784,274.041,1314.209L274.902,1319.634" id="gbc2bb5bc-6417-44be-a8c1-e61746d196a8-light-L_hostQ_site_0" class="edge-thickness-normal edge-pattern-solid edge-thickness-normal edge-pattern-solid flowchart-link" style=";" data-edge="true" data-et="edge" data-id="L_hostQ_site_0" data-points="W3sieCI6MzY2Ljg5MzYzNDc5NzE4MjIsInkiOjY1NC40Mjk1ODQ1MDQyMTM0fSx7IngiOjI2OS43MzU5MzEzOTY0ODQ0LCJ5Ijo3NTkuOTkwNjMxMTAzNTE1Nn0seyJ4IjoyNjkuNzM1OTMxMzk2NDg0NCwieSI6ODU2LjE5MDYzMTg2NjQ1NTF9LHsieCI6MjY5LjczNTkzMTM5NjQ4NDQsInkiOjk1Mi4zOTA2MzI2MjkzOTQ1fSx7IngiOjI2OS43MzU5MzEzOTY0ODQ0LCJ5IjoxMTE5LjczNzUxMDY4MTE1MjN9LHsieCI6MjY5LjczNTkzMTM5NjQ4NDQsInkiOjEyODcuMDg0Mzg4NzMyOTEwMn0seyJ4IjoyNzUuNTI4Njc2OTMyMTk4NjYsInkiOjEzMjMuNTg0Mzg4NzMyOTEwMn1d" data-look="classic" marker-end="url(#gbc2bb5bc-6417-44be-a8c1-e61746d196a8-light_flowchart-v2-pointEnd)"></path><path d="M563.146,915.891L563.146,921.974C563.146,928.057,563.146,940.224,563.146,951.724C563.146,963.224,563.146,974.057,563.146,979.474L563.146,984.891" id="gbc2bb5bc-6417-44be-a8c1-e61746d196a8-light-L_core_siteQ_0" class="edge-thickness-normal edge-pattern-solid edge-thickness-normal edge-pattern-solid flowchart-link" style=";" data-edge="true" data-et="edge" data-id="L_core_siteQ_0" data-points="W3sieCI6NTYzLjE0NjA4NzY0NjQ4NDQsInkiOjkxNS44OTA2MzI2MjkzOTQ1fSx7IngiOjU2My4xNDYwODc2NDY0ODQ0LCJ5Ijo5NTIuMzkwNjMyNjI5Mzk0NX0seyJ4Ijo1NjMuMTQ2MDg3NjQ2NDg0NCwieSI6OTg4Ljg5MDYzMjYyOTM5NDR9XQ==" data-look="classic" marker-end="url(#gbc2bb5bc-6417-44be-a8c1-e61746d196a8-light_flowchart-v2-pointEnd)"></path><path d="M501.396,1188.834L486.762,1205.209C472.128,1221.584,442.86,1254.334,421.371,1276.368C399.882,1298.402,386.172,1309.72,379.317,1315.379L372.462,1321.038" id="gbc2bb5bc-6417-44be-a8c1-e61746d196a8-light-L_siteQ_site_0" class="edge-thickness-normal edge-pattern-solid edge-thickness-normal edge-pattern-solid flowchart-link" style=";" data-edge="true" data-et="edge" data-id="L_siteQ_site_0" data-points="W3sieCI6NTAxLjM5NTc5NjQzNzU3MiwieSI6MTE4OC44MzQwOTc1MjM5OTh9LHsieCI6NDEzLjU5MTQwMDE0NjQ4NDQsInkiOjEyODcuMDg0Mzg4NzMyOTEwMn0seyJ4IjozNjkuMzc3MjQ0NjQwNTMyLCJ5IjoxMzIzLjU4NDM4ODczMjkxMDJ9XQ==" data-look="classic" marker-end="url(#gbc2bb5bc-6417-44be-a8c1-e61746d196a8-light_flowchart-v2-pointEnd)"></path><path d="M578.57,1235.16L579.727,1243.814C580.883,1252.468,583.196,1269.776,584.353,1291.18C585.509,1312.584,585.509,1338.084,585.509,1350.834L585.509,1363.584" id="gbc2bb5bc-6417-44be-a8c1-e61746d196a8-light-L_siteQ_coreOnly_0" class="edge-thickness-normal edge-pattern-solid edge-thickness-normal edge-pattern-solid flowchart-link" style=";" data-edge="true" data-et="edge" data-id="L_siteQ_coreOnly_0" data-points="W3sieCI6NTc4LjU3MDQ4ODQ1NTIwMTcsInkiOjEyMzUuMTU5OTg3OTI0MTkzfSx7IngiOjU4NS41MDkzNjg4OTY0ODQ0LCJ5IjoxMjg3LjA4NDM4ODczMjkxMDJ9LHsieCI6NTg1LjUwOTM2ODg5NjQ4NDQsInkiOjEzNjcuNTg0Mzg4NzMyOTEwMn1d" data-look="classic" marker-end="url(#gbc2bb5bc-6417-44be-a8c1-e61746d196a8-light_flowchart-v2-pointEnd)"></path></g><g class="edgeLabels"><g class="edgeLabel"><g class="label" data-id="L_start_docsQ_0" transform="translate(0, 0)"><text y="-10.1" text-anchor="middle"><tspan class="text-outer-tspan row" x="0" y="-0.1em" dy="1.1em" text-anchor="middle"></tspan></text></g></g><g><rect class="background" style="stroke: none"></rect></g><g class="edgeLabel" transform="translate(124.9296875, 398.8000183105469)"><g class="label" data-id="L_docsQ_docs_0" transform="translate(0, -10.5)"><g><rect class="background" style="" x="-13.328125" y="-1" width="26.65625" height="23"></rect><text y="-10.1" text-anchor="middle" style=""><tspan class="text-outer-tspan row" x="0" y="-0.1em" dy="1.1em" text-anchor="middle"><tspan font-style="normal" class="text-inner-tspan" font-weight="normal">Yes</tspan></tspan></text></g></g></g><g class="edgeLabel" transform="translate(435.9546813964844, 398.8000183105469)"><g class="label" data-id="L_docsQ_hostQ_0" transform="translate(0, -10.5)"><g><rect class="background" style="" x="-11.3984375" y="-1" width="22.796875" height="23"></rect><text y="-10.1" text-anchor="middle" style=""><tspan class="text-outer-tspan row" x="0" y="-0.1em" dy="1.1em" text-anchor="middle"><tspan font-style="normal" class="text-inner-tspan" font-weight="normal">No</tspan></tspan></text></g></g></g><g class="edgeLabel" transform="translate(563.1460876464844, 759.9906311035156)"><g class="label" data-id="L_hostQ_core_0" transform="translate(0, -10.5)"><g><rect class="background" style="" x="-13.328125" y="-1" width="26.65625" height="23"></rect><text y="-10.1" text-anchor="middle" style=""><tspan class="text-outer-tspan row" x="0" y="-0.1em" dy="1.1em" text-anchor="middle"><tspan font-style="normal" class="text-inner-tspan" font-weight="normal">Yes</tspan></tspan></text></g></g></g><g class="edgeLabel" transform="translate(269.7359313964844, 952.3906326293945)"><g class="label" data-id="L_hostQ_site_0" transform="translate(0, -10.5)"><g><rect class="background" style="" x="-11.3984375" y="-1" width="22.796875" height="23"></rect><text y="-10.1" text-anchor="middle" style=""><tspan class="text-outer-tspan row" x="0" y="-0.1em" dy="1.1em" text-anchor="middle"><tspan font-style="normal" class="text-inner-tspan" font-weight="normal">No</tspan></tspan></text></g></g></g><g class="edgeLabel"><g class="label" data-id="L_core_siteQ_0" transform="translate(0, 0)"><text y="-10.1" text-anchor="middle"><tspan class="text-outer-tspan row" x="0" y="-0.1em" dy="1.1em" text-anchor="middle"></tspan></text></g></g><g><rect class="background" style="stroke: none"></rect></g><g class="edgeLabel" transform="translate(438.39126, 1259.33414)"><g class="label" data-id="L_siteQ_site_0" transform="translate(0, -10.5)"><g><rect class="background" style="" x="-13.328125" y="-1" width="26.65625" height="23"></rect><text y="-10.1" text-anchor="middle" style=""><tspan class="text-outer-tspan row" x="0" y="-0.1em" dy="1.1em" text-anchor="middle"><tspan font-style="normal" class="text-inner-tspan" font-weight="normal">Yes</tspan></tspan></text></g></g></g><g class="edgeLabel" transform="translate(585.5093688964844, 1287.0843887329102)"><g class="label" data-id="L_siteQ_coreOnly_0" transform="translate(0, -10.5)"><g><rect class="background" style="" x="-11.3984375" y="-1" width="22.796875" height="23"></rect><text y="-10.1" text-anchor="middle" style=""><tspan class="text-outer-tspan row" x="0" y="-0.1em" dy="1.1em" text-anchor="middle"><tspan font-style="normal" class="text-inner-tspan" font-weight="normal">No</tspan></tspan></text></g></g></g></g><g class="nodes"><g class="node default" id="gbc2bb5bc-6417-44be-a8c1-e61746d196a8-light-flowchart-start-0" data-look="classic" transform="translate(280.4421844482422, 25)"><g class="basic label-container outer-path"><path d="M-30.875 -17 C-10.54423956792423 -17, 9.78652086415154 -17, 30.875 -17 C30.875 -17, 30.875 -17, 30.875 -17 C31.241111312720918 -16.98825952279348, 31.607222625441835 -16.976519045586958, 31.96419373967212 -16.965071676755716 C32.23541554792053 -16.93890723510594, 32.50663735616895 -16.912742793456164, 33.0489117486366 -16.860430234995185 C33.379694744210454 -16.80695180553125, 33.71047773978431 -16.753473376067312, 34.124696687923326 -16.686505668848113 C34.486908550965836 -16.60383317476196, 34.84912041400835 -16.52116068067581, 35.18712792646162 -16.4440126716635 C35.60238216900805 -16.32076739218972, 36.017636411554484 -16.197522112715937, 36.23183970640155 -16.133947699181366 C36.61706629328216 -15.99218075421377, 37.00229288016276 -15.850413809246175, 37.25453908294936 -15.757584874882369 C37.489173191758056 -15.6537193150863, 37.723807300566754 -15.549853755290233, 38.25102356499849 -15.316470754341125 C38.57128111303086 -15.149392596667392, 38.891538661063215 -14.982314438993656, 39.21719838406694 -14.812417970097622 C39.5223517490768 -14.627432206948423, 39.82750511408665 -14.442446443799225, 40.149093320579325 -14.247497783161291 C40.47826946684147 -14.017878753334527, 40.80744561310361 -13.788259723507762, 41.042879018350675 -13.624031571755262 C41.27385089297717 -13.439837648160346, 41.50482276760368 -13.255643724565429, 41.8948827202324 -12.944581292275288 C42.114304054111116 -12.745308642416996, 42.33372538798984 -12.546035992558703, 42.70160336025927 -12.21193895166137 C42.91216003391157 -11.99452189909097, 43.12271670756387 -11.777104846520569, 43.45972595028036 -11.42911513444239 C43.64092708346706 -11.21626597276472, 43.82212821665377 -11.00341681108705, 44.16613520195651 -10.59932663159847 C44.29693520496692 -10.424066543689932, 44.42773520797733 -10.248806455781395, 44.81792832814825 -9.725983222076888 C44.95550570007617 -9.514627434098488, 45.09308307200409 -9.30327164612009, 45.41242697109088 -8.812673661278927 C45.529594438737895 -8.60463095797901, 45.64676190638492 -8.396588254679093, 45.947188208341004 -7.863150934094199 C46.12186940801147 -7.500421685399555, 46.29655060768193 -7.137692436704912, 46.42001459126881 -6.881316833080699 C46.53048956447011 -6.608441513385187, 46.64096453767141 -6.335566193689674, 46.828963174845924 -5.871205925162238 C46.953533317432445 -5.496020503248513, 47.078103460018966 -5.120835081334787, 47.172353501623235 -4.836968972727556 C47.229484779499344 -4.619102649333483, 47.286616057375454 -4.40123632593941, 47.448774507091 -3.7828558772573464 C47.52595322810168 -3.3865594565959847, 47.60313194911235 -2.990263035934623, 47.65709031804565 -2.713198215567453 C47.70364088956789 -2.3521611752910125, 47.75019146109013 -1.9911241350145716, 47.796444920136366 -1.632391440430593 C47.82071286304641 -1.2543986408757553, 47.84498080595645 -0.8764058413209173, 47.8662656754117 -0.5448768187181379 C47.8662656754117 -0.26480161684180387, 47.8662656754117 0.015273585034530135, 47.8662656754117 0.5448768187181336 C47.852208311429486 0.7638316096410102, 47.838150947447275 0.9827864005638867, 47.796444920136366 1.6323914404305815 C47.76351935886825 1.8877555917386037, 47.730593797600136 2.143119743046626, 47.657090318045654 2.7131982155674415 C47.607270124947746 2.969014377623663, 47.55744993184984 3.2248305396798846, 47.448774507091 3.782855877257343 C47.373294883000355 4.070692396990995, 47.29781525890971 4.358528916724647, 47.172353501623235 4.836968972727545 C47.09792613461977 5.0611323437514555, 47.0234987676163 5.285295714775365, 46.828963174845924 5.871205925162227 C46.71220449779629 6.159602114850264, 46.59544582074667 6.447998304538302, 46.42001459126881 6.881316833080694 C46.306969398794436 7.1160575940333715, 46.19392420632006 7.350798354986048, 45.947188208341004 7.863150934094196 C45.73408107703099 8.241544225172158, 45.52097394572098 8.619937516250118, 45.41242697109089 8.812673661278923 C45.25775980829728 9.050283957278412, 45.10309264550368 9.2878942532779, 44.817928328148255 9.725983222076879 C44.6656687695287 9.929997159495935, 44.513409210909145 10.13401109691499, 44.16613520195651 10.599326631598467 C43.95113011587601 10.851883839844595, 43.73612502979552 11.10444104809072, 43.45972595028037 11.42911513444238 C43.284043657438986 11.610521525585597, 43.108361364597606 11.791927916728813, 42.70160336025927 12.211938951661365 C42.52446444298654 12.372811829489537, 42.34732552571381 12.53368470731771, 41.89488272023242 12.944581292275275 C41.69333434458913 13.105310758423268, 41.49178596894585 13.266040224571261, 41.042879018350675 13.62403157175526 C40.70789155569775 13.857704324328408, 40.372904093044816 14.091377076901553, 40.14909332057934 14.247497783161286 C39.95254267885482 14.366647937234472, 39.7559920371303 14.485798091307656, 39.21719838406695 14.81241797009762 C38.98024072423542 14.936038629453101, 38.7432830644039 15.05965928880858, 38.25102356499849 15.316470754341124 C37.954515374085524 15.447726134855317, 37.65800718317256 15.578981515369513, 37.254539082949364 15.757584874882367 C36.897320875039625 15.889044477482068, 36.54010266712988 16.020504080081768, 36.23183970640156 16.133947699181363 C35.83012559971323 16.253174337406087, 35.428411493024896 16.372400975630807, 35.18712792646164 16.444012671663497 C34.935009499182726 16.501557057463415, 34.68289107190381 16.559101443263337, 34.12469668792333 16.68650566884811 C33.71810470883167 16.75224030685976, 33.31151272974 16.81797494487141, 33.04891174863661 16.86043023499518 C32.68897577144711 16.89515282582831, 32.32903979425761 16.92987541666143, 31.96419373967212 16.965071676755716 C31.724796228525694 16.972748688979195, 31.485398717379272 16.980425701202673, 30.875000000000004 17 C30.875000000000004 17, 30.875 17, 30.875 17 C6.488615190774581 17, -17.897769618450837 17, -30.874999999999996 17 C-31.27737594202453 16.987096586716532, -31.679751884049068 16.97419317343306, -31.964193739672112 16.965071676755716 C-32.237233491337996 16.938731860290854, -32.51027324300389 16.91239204382599, -33.048911748636606 16.86043023499518 C-33.405149184805914 16.802836528977906, -33.76138662097523 16.74524282296063, -34.124696687923326 16.68650566884811 C-34.463583204755835 16.60915703282228, -34.802469721588345 16.531808396796453, -35.18712792646162 16.4440126716635 C-35.520630074011066 16.34503098485932, -35.85413222156051 16.24604929805514, -36.231839706401544 16.13394769918137 C-36.46136529516074 16.049480160806702, -36.69089088391994 15.965012622432033, -37.254539082949364 15.757584874882369 C-37.47442848928481 15.660246357485152, -37.69431789562025 15.562907840087933, -38.25102356499848 15.316470754341127 C-38.539039101559446 15.166213233400027, -38.82705463812041 15.01595571245893, -39.21719838406693 14.812417970097624 C-39.43769879017629 14.678749328109912, -39.65819919628565 14.545080686122201, -40.14909332057932 14.247497783161299 C-40.358630449234944 14.101333752927237, -40.56816757789057 13.955169722693178, -41.04287901835067 13.624031571755264 C-41.333219631314 13.3924926592052, -41.62356024427734 13.160953746655137, -41.8948827202324 12.94458129227529 C-42.11680434474794 12.743037944614702, -42.33872596926348 12.541494596954117, -42.70160336025926 12.211938951661377 C-42.89069355681334 12.016687799125437, -43.079783753367415 11.821436646589495, -43.459725950280365 11.429115134442386 C-43.666851923092196 11.185813180975877, -43.873977895904034 10.942511227509367, -44.16613520195651 10.599326631598473 C-44.40800865185566 10.2752382438582, -44.64988210175481 9.951149856117928, -44.81792832814825 9.72598322207689 C-45.055264485823145 9.361371150206356, -45.29260064349804 8.996759078335822, -45.41242697109088 8.812673661278936 C-45.52382217379624 8.614880198888134, -45.6352173765016 8.417086736497332, -45.947188208341004 7.863150934094201 C-46.10603894350039 7.533293983674499, -46.26488967865976 7.203437033254797, -46.42001459126881 6.881316833080701 C-46.520510155989335 6.633090845271437, -46.62100572070986 6.384864857462172, -46.828963174845924 5.87120592516224 C-46.918195187822334 5.602453319267837, -47.00742720079874 5.3337007133734335, -47.172353501623235 4.8369689727275516 C-47.25213385325058 4.532731914949381, -47.33191420487792 4.228494857171211, -47.448774507091 3.782855877257349 C-47.528695711221175 3.3724773854013783, -47.60861691535135 2.9620988935454076, -47.65709031804565 2.713198215567455 C-47.71214177731577 2.286229968608609, -47.767193236585896 1.8592617216497627, -47.796444920136366 1.6323914404306026 C-47.82118201588866 1.24709120666436, -47.84591911164095 0.8617909728981177, -47.8662656754117 0.54487681871814 C-47.8662656754117 0.24714614823906955, -47.8662656754117 -0.05058452224000087, -47.8662656754117 -0.5448768187181317 C-47.84424464409812 -0.8878721564836789, -47.82222361278453 -1.2308674942492264, -47.796444920136366 -1.6323914404305793 C-47.74331534584551 -2.0444539270093824, -47.690185771554646 -2.4565164135881856, -47.657090318045654 -2.713198215567447 C-47.577635283494644 -3.121183025159369, -47.49818024894364 -3.5291678347512914, -47.448774507091 -3.782855877257341 C-47.34747994037595 -4.1691359614847645, -47.24618537366089 -4.555416045712187, -47.172353501623235 -4.836968972727544 C-47.10317301120509 -5.045329587452735, -47.03399252078694 -5.2536902021779275, -46.82896317484593 -5.871205925162218 C-46.70809943293062 -6.16974170443453, -46.5872356910153 -6.468277483706843, -46.42001459126881 -6.881316833080692 C-46.277146800321546 -7.177984857863719, -46.134279009374275 -7.474652882646746, -45.947188208341004 -7.863150934094194 C-45.83813663615541 -8.056783043178823, -45.72908506396982 -8.250415152263452, -45.41242697109088 -8.812673661278929 C-45.26734410089001 -9.035559910113063, -45.12226123068913 -9.258446158947196, -44.81792832814825 -9.725983222076884 C-44.601681030489836 -10.015734900405059, -44.38543373283143 -10.305486578733236, -44.16613520195651 -10.599326631598467 C-43.962118216593616 -10.838976591501057, -43.75810123123072 -11.078626551403648, -43.45972595028037 -11.42911513444238 C-43.27226551637625 -11.622683423236237, -43.08480508247213 -11.816251712030095, -42.70160336025928 -12.21193895166136 C-42.40822492129917 -12.4783774875568, -42.11484648233906 -12.744816023452241, -41.89488272023242 -12.944581292275274 C-41.55535008612991 -13.215349532629165, -41.215817452027416 -13.486117772983055, -41.042879018350675 -13.624031571755259 C-40.690044832490564 -13.870153425865542, -40.337210646630446 -14.116275279975826, -40.14909332057934 -14.247497783161284 C-39.801415252491275 -14.458262271219388, -39.45373718440321 -14.669026759277491, -39.21719838406695 -14.812417970097618 C-39.00642200877646 -14.922379870077952, -38.79564563348598 -15.032341770058284, -38.25102356499849 -15.316470754341124 C-37.97408913618831 -15.439061411007438, -37.69715470737813 -15.561652067673752, -37.25453908294937 -15.757584874882365 C-36.874846286590156 -15.89731533378429, -36.49515349023094 -16.037045792686214, -36.231839706401566 -16.133947699181363 C-35.98421097891232 -16.207442605670455, -35.73658225142307 -16.280937512159547, -35.18712792646164 -16.444012671663494 C-34.82650074606154 -16.526323472277536, -34.46587356566143 -16.60863427289158, -34.12469668792333 -16.68650566884811 C-33.74779245407673 -16.74744062244044, -33.37088822023012 -16.808375576032773, -33.04891174863661 -16.86043023499518 C-32.82170691251187 -16.88234841228234, -32.59450207638714 -16.904266589569502, -31.96419373967212 -16.965071676755716 C-31.535854411950982 -16.97880768528381, -31.107515084229842 -16.992543693811903, -30.875000000000004 -17 C-30.875000000000004 -17, -30.875 -17, -30.875 -17" stroke="none" stroke-width="0" fill="#ECECFF" style=""></path><path d="M-30.875 -17 C-12.762413758227009 -17, 5.3501724835459825 -17, 30.875 -17 M-30.875 -17 C-18.451629988150778 -17, -6.028259976301555 -17, 30.875 -17 M30.875 -17 C30.875 -17, 30.875 -17, 30.875 -17 M30.875 -17 C30.875 -17, 30.875 -17, 30.875 -17 M30.875 -17 C31.206250251355144 -16.98937744917854, 31.53750050271029 -16.97875489835708, 31.96419373967212 -16.965071676755716 M30.875 -17 C31.23802893427998 -16.988358368670596, 31.601057868559963 -16.97671673734119, 31.96419373967212 -16.965071676755716 M31.96419373967212 -16.965071676755716 C32.19123249360458 -16.943169521217904, 32.41827124753705 -16.921267365680087, 33.0489117486366 -16.860430234995185 M31.96419373967212 -16.965071676755716 C32.255741949846595 -16.936946371558207, 32.54729016002107 -16.9088210663607, 33.0489117486366 -16.860430234995185 M33.0489117486366 -16.860430234995185 C33.45358908607292 -16.795005141398104, 33.858266423509235 -16.729580047801022, 34.124696687923326 -16.686505668848113 M33.0489117486366 -16.860430234995185 C33.42874434319087 -16.799021846753416, 33.808576937745144 -16.737613458511646, 34.124696687923326 -16.686505668848113 M34.124696687923326 -16.686505668848113 C34.442472866776555 -16.613975329708225, 34.76024904562978 -16.54144499056834, 35.18712792646162 -16.4440126716635 M34.124696687923326 -16.686505668848113 C34.376015551000194 -16.629143778359666, 34.62733441407706 -16.571781887871218, 35.18712792646162 -16.4440126716635 M35.18712792646162 -16.4440126716635 C35.48368766511127 -16.35599529790612, 35.78024740376092 -16.267977924148738, 36.23183970640155 -16.133947699181366 M35.18712792646162 -16.4440126716635 C35.50265479845877 -16.350365952289096, 35.81818167045592 -16.25671923291469, 36.23183970640155 -16.133947699181366 M36.23183970640155 -16.133947699181366 C36.44106565388851 -16.05695061644271, 36.650291601375464 -15.979953533704052, 37.25453908294936 -15.757584874882369 M36.23183970640155 -16.133947699181366 C36.55593536454592 -16.014677501076818, 36.880031022690275 -15.89540730297227, 37.25453908294936 -15.757584874882369 M37.25453908294936 -15.757584874882369 C37.64986174396061 -15.582587259682773, 38.04518440497186 -15.407589644483178, 38.25102356499849 -15.316470754341125 M37.25453908294936 -15.757584874882369 C37.492517130607354 -15.652239052552137, 37.73049517826536 -15.546893230221906, 38.25102356499849 -15.316470754341125 M38.25102356499849 -15.316470754341125 C38.465729364747524 -15.20445887613768, 38.680435164496565 -15.092446997934237, 39.21719838406694 -14.812417970097622 M38.25102356499849 -15.316470754341125 C38.46087149099504 -15.206993225762739, 38.67071941699158 -15.097515697184352, 39.21719838406694 -14.812417970097622 M39.21719838406694 -14.812417970097622 C39.47723672378314 -14.65478120040675, 39.73727506349935 -14.497144430715881, 40.149093320579325 -14.247497783161291 M39.21719838406694 -14.812417970097622 C39.41843783365865 -14.690425433140852, 39.61967728325036 -14.568432896184083, 40.149093320579325 -14.247497783161291 M40.149093320579325 -14.247497783161291 C40.49763214140525 -14.004372189755507, 40.84617096223117 -13.761246596349723, 41.042879018350675 -13.624031571755262 M40.149093320579325 -14.247497783161291 C40.36143050349512 -14.099380556287734, 40.57376768641092 -13.951263329414177, 41.042879018350675 -13.624031571755262 M41.042879018350675 -13.624031571755262 C41.330243234603564 -13.394866256376533, 41.61760745085646 -13.165700940997802, 41.8948827202324 -12.944581292275288 M41.042879018350675 -13.624031571755262 C41.25797532017395 -13.452497995004183, 41.47307162199722 -13.280964418253106, 41.8948827202324 -12.944581292275288 M41.8948827202324 -12.944581292275288 C42.21310229042229 -12.655582698257279, 42.531321860612174 -12.36658410423927, 42.70160336025927 -12.21193895166137 M41.8948827202324 -12.944581292275288 C42.1202107118423 -12.73994437214714, 42.34553870345219 -12.53530745201899, 42.70160336025927 -12.21193895166137 M42.70160336025927 -12.21193895166137 C42.92580170190733 -11.98043575688357, 43.150000043555394 -11.748932562105772, 43.45972595028036 -11.42911513444239 M42.70160336025927 -12.21193895166137 C42.924521120992914 -11.981758061815356, 43.14743888172656 -11.75157717196934, 43.45972595028036 -11.42911513444239 M43.45972595028036 -11.42911513444239 C43.65546630992204 -11.199187370065285, 43.851206669563716 -10.96925960568818, 44.16613520195651 -10.59932663159847 M43.45972595028036 -11.42911513444239 C43.612030383753996 -11.25020968051648, 43.764334817227635 -11.071304226590572, 44.16613520195651 -10.59932663159847 M44.16613520195651 -10.59932663159847 C44.310330556839205 -10.406117992522729, 44.4545259117219 -10.212909353446987, 44.81792832814825 -9.725983222076888 M44.16613520195651 -10.59932663159847 C44.33863980564619 -10.368186178146994, 44.51114440933587 -10.137045724695518, 44.81792832814825 -9.725983222076888 M44.81792832814825 -9.725983222076888 C44.991919112499 -9.458686654246693, 45.16590989684974 -9.191390086416497, 45.41242697109088 -8.812673661278927 M44.81792832814825 -9.725983222076888 C45.01546833818 -9.422508719748159, 45.213008348211744 -9.11903421741943, 45.41242697109088 -8.812673661278927 M45.41242697109088 -8.812673661278927 C45.53803791760351 -8.589638706258166, 45.66364886411614 -8.366603751237404, 45.947188208341004 -7.863150934094199 M45.41242697109088 -8.812673661278927 C45.56103951660797 -8.548797038061286, 45.70965206212506 -8.284920414843643, 45.947188208341004 -7.863150934094199 M45.947188208341004 -7.863150934094199 C46.07446661879644 -7.598854591461767, 46.201745029251875 -7.3345582488293335, 46.42001459126881 -6.881316833080699 M45.947188208341004 -7.863150934094199 C46.05655179448519 -7.636055107459918, 46.16591538062937 -7.408959280825636, 46.42001459126881 -6.881316833080699 M46.42001459126881 -6.881316833080699 C46.57652251119836 -6.494739244979929, 46.73303043112791 -6.108161656879159, 46.828963174845924 -5.871205925162238 M46.42001459126881 -6.881316833080699 C46.55428823371564 -6.549658340232761, 46.68856187616247 -6.217999847384823, 46.828963174845924 -5.871205925162238 M46.828963174845924 -5.871205925162238 C46.93905384758847 -5.5396303594283465, 47.04914452033101 -5.208054793694455, 47.172353501623235 -4.836968972727556 M46.828963174845924 -5.871205925162238 C46.91104622330427 -5.623984861363441, 46.993129271762605 -5.376763797564645, 47.172353501623235 -4.836968972727556 M47.172353501623235 -4.836968972727556 C47.22953868568959 -4.618897081666978, 47.28672386975595 -4.400825190606399, 47.448774507091 -3.7828558772573464 M47.172353501623235 -4.836968972727556 C47.254476138256834 -4.523799767067764, 47.33659877489044 -4.210630561407972, 47.448774507091 -3.7828558772573464 M47.448774507091 -3.7828558772573464 C47.521596765665265 -3.4089289704683012, 47.59441902423953 -3.035002063679256, 47.65709031804565 -2.713198215567453 M47.448774507091 -3.7828558772573464 C47.51900613104275 -3.422231331724068, 47.58923775499451 -3.061606786190789, 47.65709031804565 -2.713198215567453 M47.65709031804565 -2.713198215567453 C47.69714855756905 -2.402514420218059, 47.737206797092455 -2.091830624868665, 47.796444920136366 -1.632391440430593 M47.65709031804565 -2.713198215567453 C47.699837671679994 -2.3816581821992258, 47.74258502531434 -2.0501181488309985, 47.796444920136366 -1.632391440430593 M47.796444920136366 -1.632391440430593 C47.82345721858829 -1.2116530881071261, 47.8504695170402 -0.790914735783659, 47.8662656754117 -0.5448768187181379 M47.796444920136366 -1.632391440430593 C47.81972625525829 -1.2697658535512564, 47.8430075903802 -0.9071402666719197, 47.8662656754117 -0.5448768187181379 M47.8662656754117 -0.5448768187181379 C47.8662656754117 -0.19075257567322845, 47.8662656754117 0.16337166737168096, 47.8662656754117 0.5448768187181336 M47.8662656754117 -0.5448768187181379 C47.8662656754117 -0.19734724377624263, 47.8662656754117 0.1501823311656526, 47.8662656754117 0.5448768187181336 M47.8662656754117 0.5448768187181336 C47.841710546879995 0.9273427661424183, 47.817155418348285 1.309808713566703, 47.796444920136366 1.6323914404305815 M47.8662656754117 0.5448768187181336 C47.83927890660674 0.9652175261830374, 47.81229213780178 1.385558233647941, 47.796444920136366 1.6323914404305815 M47.796444920136366 1.6323914404305815 C47.74398910276003 2.039228401428671, 47.6915332853837 2.44606536242676, 47.657090318045654 2.7131982155674415 M47.796444920136366 1.6323914404305815 C47.76120894024537 1.9056747423339417, 47.72597296035437 2.178958044237302, 47.657090318045654 2.7131982155674415 M47.657090318045654 2.7131982155674415 C47.59622645406407 3.025721293530652, 47.53536259008249 3.3382443714938628, 47.448774507091 3.782855877257343 M47.657090318045654 2.7131982155674415 C47.611816062089204 2.945671951186444, 47.56654180613275 3.178145686805447, 47.448774507091 3.782855877257343 M47.448774507091 3.782855877257343 C47.36434932740152 4.104805677517677, 47.27992414771204 4.426755477778011, 47.172353501623235 4.836968972727545 M47.448774507091 3.782855877257343 C47.36807288826808 4.090606126131995, 47.28737126944516 4.398356375006648, 47.172353501623235 4.836968972727545 M47.172353501623235 4.836968972727545 C47.08971120075398 5.085874415683236, 47.00706889988473 5.334779858638926, 46.828963174845924 5.871205925162227 M47.172353501623235 4.836968972727545 C47.0472498354393 5.213761282711231, 46.92214616925537 5.590553592694916, 46.828963174845924 5.871205925162227 M46.828963174845924 5.871205925162227 C46.73059987933229 6.114165166805849, 46.63223658381866 6.3571244084494705, 46.42001459126881 6.881316833080694 M46.828963174845924 5.871205925162227 C46.74154317909226 6.087135004824406, 46.654123183338605 6.303064084486586, 46.42001459126881 6.881316833080694 M46.42001459126881 6.881316833080694 C46.232676270318066 7.270328864932855, 46.04533794936732 7.659340896785016, 45.947188208341004 7.863150934094196 M46.42001459126881 6.881316833080694 C46.277558618853895 7.177129707869791, 46.13510264643897 7.472942582658888, 45.947188208341004 7.863150934094196 M45.947188208341004 7.863150934094196 C45.73887735617587 8.233027945874507, 45.53056650401073 8.602904957654818, 45.41242697109089 8.812673661278923 M45.947188208341004 7.863150934094196 C45.75153057089857 8.210560881857429, 45.55587293345613 8.557970829620661, 45.41242697109089 8.812673661278923 M45.41242697109089 8.812673661278923 C45.25315743899179 9.057354432440853, 45.09388790689269 9.302035203602781, 44.817928328148255 9.725983222076879 M45.41242697109089 8.812673661278923 C45.226842415484676 9.097781375121007, 45.04125785987846 9.38288908896309, 44.817928328148255 9.725983222076879 M44.817928328148255 9.725983222076879 C44.651948142073145 9.948381550311504, 44.485967955998035 10.170779878546128, 44.16613520195651 10.599326631598467 M44.817928328148255 9.725983222076879 C44.575327862012855 10.051045745341177, 44.33272739587746 10.376108268605476, 44.16613520195651 10.599326631598467 M44.16613520195651 10.599326631598467 C43.9917359722851 10.804185890367794, 43.81733674261369 11.009045149137123, 43.45972595028037 11.42911513444238 M44.16613520195651 10.599326631598467 C43.98100451203285 10.816791674217477, 43.795873822109186 11.034256716836488, 43.45972595028037 11.42911513444238 M43.45972595028037 11.42911513444238 C43.26436502629771 11.63084132788463, 43.06900410231505 11.832567521326878, 42.70160336025927 12.211938951661365 M43.45972595028037 11.42911513444238 C43.16603423403829 11.732375944000658, 42.87234251779622 12.035636753558935, 42.70160336025927 12.211938951661365 M42.70160336025927 12.211938951661365 C42.47987614776405 12.413305739468962, 42.25814893526883 12.614672527276559, 41.89488272023242 12.944581292275275 M42.70160336025927 12.211938951661365 C42.53803362653925 12.360488656007886, 42.37446389281924 12.509038360354406, 41.89488272023242 12.944581292275275 M41.89488272023242 12.944581292275275 C41.65398702685828 13.136689197237526, 41.41309133348414 13.328797102199776, 41.042879018350675 13.62403157175526 M41.89488272023242 12.944581292275275 C41.683218490701506 13.113377882704473, 41.471554261170596 13.28217447313367, 41.042879018350675 13.62403157175526 M41.042879018350675 13.62403157175526 C40.85716968178217 13.753574365717842, 40.67146034521366 13.883117159680424, 40.14909332057934 14.247497783161286 M41.042879018350675 13.62403157175526 C40.760649743542935 13.820902496352748, 40.47842046873519 14.017773420950236, 40.14909332057934 14.247497783161286 M40.14909332057934 14.247497783161286 C39.7808183231099 14.47074825085137, 39.41254332564046 14.693998718541456, 39.21719838406695 14.81241797009762 M40.14909332057934 14.247497783161286 C39.858812578154755 14.423467675098061, 39.56853183573017 14.599437567034837, 39.21719838406695 14.81241797009762 M39.21719838406695 14.81241797009762 C38.9029636846953 14.976354011482877, 38.58872898532365 15.140290052868135, 38.25102356499849 15.316470754341124 M39.21719838406695 14.81241797009762 C38.83598258581031 15.011298007867737, 38.454766787553666 15.210178045637852, 38.25102356499849 15.316470754341124 M38.25102356499849 15.316470754341124 C37.9979303723734 15.42850760297344, 37.744837179748316 15.540544451605756, 37.254539082949364 15.757584874882367 M38.25102356499849 15.316470754341124 C37.85420691960882 15.492129712107573, 37.45739027421916 15.667788669874023, 37.254539082949364 15.757584874882367 M37.254539082949364 15.757584874882367 C36.97766871345724 15.859475730217108, 36.70079834396511 15.96136658555185, 36.23183970640156 16.133947699181363 M37.254539082949364 15.757584874882367 C36.98183647589287 15.857941955114423, 36.709133868836375 15.958299035346478, 36.23183970640156 16.133947699181363 M36.23183970640156 16.133947699181363 C35.87905589936478 16.238652081309887, 35.526272092328 16.343356463438415, 35.18712792646164 16.444012671663497 M36.23183970640156 16.133947699181363 C35.81396144383347 16.25797177402381, 35.39608318126539 16.38199584886626, 35.18712792646164 16.444012671663497 M35.18712792646164 16.444012671663497 C34.83403313885536 16.524604252775806, 34.48093835124908 16.605195833888114, 34.12469668792333 16.68650566884811 M35.18712792646164 16.444012671663497 C34.94343573164916 16.49963382488926, 34.699743536836685 16.55525497811502, 34.12469668792333 16.68650566884811 M34.12469668792333 16.68650566884811 C33.7741195029687 16.7431842693449, 33.423542318014064 16.79986286984169, 33.04891174863661 16.86043023499518 M34.12469668792333 16.68650566884811 C33.752705930513336 16.74664624967475, 33.38071517310334 16.806786830501387, 33.04891174863661 16.86043023499518 M33.04891174863661 16.86043023499518 C32.68197560298873 16.895828123660554, 32.315039457340845 16.931226012325922, 31.96419373967212 16.965071676755716 M33.04891174863661 16.86043023499518 C32.7981200782271 16.884623805818475, 32.54732840781758 16.908817376641768, 31.96419373967212 16.965071676755716 M31.96419373967212 16.965071676755716 C31.742252456486565 16.972188901724977, 31.52031117330101 16.979306126694237, 30.875000000000004 17 M31.96419373967212 16.965071676755716 C31.609587800317097 16.976443199032243, 31.25498186096208 16.98781472130877, 30.875000000000004 17 M30.875000000000004 17 C30.875000000000004 17, 30.875 17, 30.875 17 M30.875000000000004 17 C30.875000000000004 17, 30.875 17, 30.875 17 M30.875 17 C13.021497802251847 17, -4.8320043954963054 17, -30.874999999999996 17 M30.875 17 C14.011649360871637 17, -2.8517012782567264 17, -30.874999999999996 17 M-30.874999999999996 17 C-31.264183199264885 16.98751965229872, -31.653366398529776 16.975039304597434, -31.964193739672112 16.965071676755716 M-30.874999999999996 17 C-31.11780847331446 16.992213604858826, -31.36061694662893 16.984427209717655, -31.964193739672112 16.965071676755716 M-31.964193739672112 16.965071676755716 C-32.35817158360603 16.927065107979093, -32.75214942753994 16.88905853920247, -33.048911748636606 16.86043023499518 M-31.964193739672112 16.965071676755716 C-32.19267445309613 16.943030417119964, -32.42115516652015 16.920989157484208, -33.048911748636606 16.86043023499518 M-33.048911748636606 16.86043023499518 C-33.390929413879164 16.805135471265373, -33.732947079121715 16.749840707535565, -34.124696687923326 16.68650566884811 M-33.048911748636606 16.86043023499518 C-33.306739448077785 16.818746652033205, -33.56456714751896 16.777063069071225, -34.124696687923326 16.68650566884811 M-34.124696687923326 16.68650566884811 C-34.40128754238592 16.623375611241027, -34.67787839684852 16.560245553633944, -35.18712792646162 16.4440126716635 M-34.124696687923326 16.68650566884811 C-34.5011509497868 16.60058244017141, -34.87760521165028 16.514659211494713, -35.18712792646162 16.4440126716635 M-35.18712792646162 16.4440126716635 C-35.51602260980598 16.346398456050316, -35.84491729315034 16.248784240437136, -36.231839706401544 16.13394769918137 M-35.18712792646162 16.4440126716635 C-35.45271315806119 16.36518836901008, -35.718298389660745 16.286364066356658, -36.231839706401544 16.13394769918137 M-36.231839706401544 16.13394769918137 C-36.50246585610489 16.034354774449834, -36.77309200580824 15.934761849718297, -37.254539082949364 15.757584874882369 M-36.231839706401544 16.13394769918137 C-36.46110440143415 16.049576172109763, -36.69036909646675 15.965204645038156, -37.254539082949364 15.757584874882369 M-37.254539082949364 15.757584874882369 C-37.59182547136868 15.608278195974362, -37.929111859787994 15.458971517066358, -38.25102356499848 15.316470754341127 M-37.254539082949364 15.757584874882369 C-37.62565335151514 15.593303596901936, -37.99676762008092 15.429022318921504, -38.25102356499848 15.316470754341127 M-38.25102356499848 15.316470754341127 C-38.48188711746705 15.196029386893436, -38.71275066993562 15.075588019445744, -39.21719838406693 14.812417970097624 M-38.25102356499848 15.316470754341127 C-38.506709002052474 15.183079825604398, -38.762394439106465 15.049688896867668, -39.21719838406693 14.812417970097624 M-39.21719838406693 14.812417970097624 C-39.45806234150046 14.666404823627692, -39.69892629893398 14.52039167715776, -40.14909332057932 14.247497783161299 M-39.21719838406693 14.812417970097624 C-39.545205191410275 14.61357831590413, -39.873211998753625 14.414738661710638, -40.14909332057932 14.247497783161299 M-40.14909332057932 14.247497783161299 C-40.504293673934036 13.999725393036522, -40.85949402728875 13.751953002911746, -41.04287901835067 13.624031571755264 M-40.14909332057932 14.247497783161299 C-40.45181120922393 14.036334888489007, -40.75452909786855 13.825171993816713, -41.04287901835067 13.624031571755264 M-41.04287901835067 13.624031571755264 C-41.35248219618832 13.377131276316314, -41.66208537402597 13.130230980877363, -41.8948827202324 12.94458129227529 M-41.04287901835067 13.624031571755264 C-41.27724845017317 13.437128186709334, -41.51161788199566 13.250224801663405, -41.8948827202324 12.94458129227529 M-41.8948827202324 12.94458129227529 C-42.11604086068541 12.743731320639613, -42.337199001138416 12.542881349003935, -42.70160336025926 12.211938951661377 M-41.8948827202324 12.94458129227529 C-42.172755091869604 12.692224956454456, -42.4506274635068 12.439868620633623, -42.70160336025926 12.211938951661377 M-42.70160336025926 12.211938951661377 C-42.95028976154052 11.955149824805225, -43.198976162821765 11.698360697949074, -43.459725950280365 11.429115134442386 M-42.70160336025926 12.211938951661377 C-42.97945400730174 11.925035346627654, -43.25730465434421 11.638131741593932, -43.459725950280365 11.429115134442386 M-43.459725950280365 11.429115134442386 C-43.626649809466436 11.233036871205762, -43.79357366865251 11.03695860796914, -44.16613520195651 10.599326631598473 M-43.459725950280365 11.429115134442386 C-43.7339836414607 11.106956444677246, -44.008241332641035 10.784797754912105, -44.16613520195651 10.599326631598473 M-44.16613520195651 10.599326631598473 C-44.31433173221078 10.400756782039393, -44.46252826246506 10.202186932480313, -44.81792832814825 9.72598322207689 M-44.16613520195651 10.599326631598473 C-44.359183538860485 10.340659447212436, -44.55223187576446 10.081992262826402, -44.81792832814825 9.72598322207689 M-44.81792832814825 9.72598322207689 C-45.012175025246655 9.427568132792116, -45.20642172234507 9.129153043507342, -45.41242697109088 8.812673661278936 M-44.81792832814825 9.72598322207689 C-44.954941330924854 9.515494456669252, -45.09195433370146 9.305005691261615, -45.41242697109088 8.812673661278936 M-45.41242697109088 8.812673661278936 C-45.534530933893244 8.595865710956359, -45.65663489669561 8.379057760633781, -45.947188208341004 7.863150934094201 M-45.41242697109088 8.812673661278936 C-45.56604686049313 8.53990599194464, -45.719666749895374 8.267138322610345, -45.947188208341004 7.863150934094201 M-45.947188208341004 7.863150934094201 C-46.05695280615579 7.6352223981456335, -46.16671740397058 7.407293862197066, -46.42001459126881 6.881316833080701 M-45.947188208341004 7.863150934094201 C-46.11865994808198 7.5070861976145915, -46.29013168782294 7.151021461134983, -46.42001459126881 6.881316833080701 M-46.42001459126881 6.881316833080701 C-46.52201688417284 6.629369197527568, -46.624019177076875 6.377421561974435, -46.828963174845924 5.87120592516224 M-46.42001459126881 6.881316833080701 C-46.510712350567 6.657291614092289, -46.60141010986519 6.433266395103876, -46.828963174845924 5.87120592516224 M-46.828963174845924 5.87120592516224 C-46.91411723216645 5.6147354719693645, -46.99927128948697 5.358265018776488, -47.172353501623235 4.8369689727275516 M-46.828963174845924 5.87120592516224 C-46.95691285733939 5.4858418675053535, -47.084862539832855 5.100477809848468, -47.172353501623235 4.8369689727275516 M-47.172353501623235 4.8369689727275516 C-47.22882532138687 4.621617448927289, -47.285297141150515 4.406265925127026, -47.448774507091 3.782855877257349 M-47.172353501623235 4.8369689727275516 C-47.269425702181515 4.466790600640978, -47.366497902739795 4.096612228554404, -47.448774507091 3.782855877257349 M-47.448774507091 3.782855877257349 C-47.50413911960998 3.4985702932873783, -47.55950373212896 3.2142847093174076, -47.65709031804565 2.713198215567455 M-47.448774507091 3.782855877257349 C-47.52999645689486 3.3657983312797097, -47.61121840669871 2.94874078530207, -47.65709031804565 2.713198215567455 M-47.65709031804565 2.713198215567455 C-47.68624887434198 2.4870502109413404, -47.71540743063831 2.2609022063152255, -47.796444920136366 1.6323914404306026 M-47.65709031804565 2.713198215567455 C-47.684997186961226 2.4967580510927863, -47.71290405587681 2.2803178866181173, -47.796444920136366 1.6323914404306026 M-47.796444920136366 1.6323914404306026 C-47.82229878937546 1.229696558164072, -47.84815265861456 0.8270016758975415, -47.8662656754117 0.54487681871814 M-47.796444920136366 1.6323914404306026 C-47.816825134348015 1.3149531534714005, -47.837205348559664 0.9975148665121985, -47.8662656754117 0.54487681871814 M-47.8662656754117 0.54487681871814 C-47.8662656754117 0.3024282199759936, -47.8662656754117 0.05997962123384726, -47.8662656754117 -0.5448768187181317 M-47.8662656754117 0.54487681871814 C-47.8662656754117 0.15481737957117847, -47.8662656754117 -0.23524205957578304, -47.8662656754117 -0.5448768187181317 M-47.8662656754117 -0.5448768187181317 C-47.85212435530447 -0.7651392940563538, -47.83798303519724 -0.985401769394576, -47.796444920136366 -1.6323914404305793 M-47.8662656754117 -0.5448768187181317 C-47.84904396425006 -0.8131188711756727, -47.83182225308842 -1.081360923633214, -47.796444920136366 -1.6323914404305793 M-47.796444920136366 -1.6323914404305793 C-47.764420541144915 -1.8807661999593484, -47.73239616215347 -2.1291409594881174, -47.657090318045654 -2.713198215567447 M-47.796444920136366 -1.6323914404305793 C-47.76267407432594 -1.8943114517284383, -47.72890322851552 -2.1562314630262973, -47.657090318045654 -2.713198215567447 M-47.657090318045654 -2.713198215567447 C-47.591547802411995 -3.0497451809306915, -47.526005286778336 -3.3862921462939357, -47.448774507091 -3.782855877257341 M-47.657090318045654 -2.713198215567447 C-47.61308925662973 -2.9391343663105873, -47.56908819521381 -3.1650705170537283, -47.448774507091 -3.782855877257341 M-47.448774507091 -3.782855877257341 C-47.34055963554372 -4.1955260830891525, -47.23234476399643 -4.608196288920964, -47.172353501623235 -4.836968972727544 M-47.448774507091 -3.782855877257341 C-47.360975011548824 -4.117673406301743, -47.273175516006646 -4.452490935346146, -47.172353501623235 -4.836968972727544 M-47.172353501623235 -4.836968972727544 C-47.08053629905397 -5.113507757781624, -46.988719096484694 -5.390046542835704, -46.82896317484593 -5.871205925162218 M-47.172353501623235 -4.836968972727544 C-47.04353203458577 -5.224958706530936, -46.91471056754832 -5.612948440334329, -46.82896317484593 -5.871205925162218 M-46.82896317484593 -5.871205925162218 C-46.717619619649405 -6.146226659178825, -46.606276064452885 -6.421247393195431, -46.42001459126881 -6.881316833080692 M-46.82896317484593 -5.871205925162218 C-46.674552182392446 -6.252604061855778, -46.520141189938954 -6.6340021985493385, -46.42001459126881 -6.881316833080692 M-46.42001459126881 -6.881316833080692 C-46.24429086765126 -7.246210905057905, -46.06856714403371 -7.611104977035118, -45.947188208341004 -7.863150934094194 M-46.42001459126881 -6.881316833080692 C-46.30020625649376 -7.130101403728787, -46.18039792171871 -7.378885974376882, -45.947188208341004 -7.863150934094194 M-45.947188208341004 -7.863150934094194 C-45.7375242476206 -8.235430527131482, -45.52786028690019 -8.60771012016877, -45.41242697109088 -8.812673661278929 M-45.947188208341004 -7.863150934094194 C-45.806331863016894 -8.11325563846877, -45.665475517692784 -8.363360342843345, -45.41242697109088 -8.812673661278929 M-45.41242697109088 -8.812673661278929 C-45.21807909256382 -9.11124419240913, -45.02373121403676 -9.409814723539332, -44.81792832814825 -9.725983222076884 M-45.41242697109088 -8.812673661278929 C-45.27087825824845 -9.030130495356362, -45.12932954540602 -9.247587329433795, -44.81792832814825 -9.725983222076884 M-44.81792832814825 -9.725983222076884 C-44.58211118574547 -10.041956709512979, -44.346294043342695 -10.357930196949072, -44.16613520195651 -10.599326631598467 M-44.81792832814825 -9.725983222076884 C-44.65401089993694 -9.945617642695122, -44.49009347172563 -10.16525206331336, -44.16613520195651 -10.599326631598467 M-44.16613520195651 -10.599326631598467 C-43.89820500213984 -10.914052689963384, -43.63027480232318 -11.2287787483283, -43.45972595028037 -11.42911513444238 M-44.16613520195651 -10.599326631598467 C-44.002852663651865 -10.791127592130735, -43.83957012534722 -10.982928552663001, -43.45972595028037 -11.42911513444238 M-43.45972595028037 -11.42911513444238 C-43.269646356988886 -11.62538792034068, -43.07956676369739 -11.82166070623898, -42.70160336025928 -12.21193895166136 M-43.45972595028037 -11.42911513444238 C-43.30487333582065 -11.589013172508132, -43.150020721360924 -11.748911210573885, -42.70160336025928 -12.21193895166136 M-42.70160336025928 -12.21193895166136 C-42.47888881872973 -12.41420240557464, -42.256174277200174 -12.61646585948792, -41.89488272023242 -12.944581292275274 M-42.70160336025928 -12.21193895166136 C-42.38424956225376 -12.500151274288609, -42.06689576424823 -12.788363596915856, -41.89488272023242 -12.944581292275274 M-41.89488272023242 -12.944581292275274 C-41.64321533823776 -13.145279332265714, -41.39154795624311 -13.345977372256154, -41.042879018350675 -13.624031571755259 M-41.89488272023242 -12.944581292275274 C-41.562876500076996 -13.209347417792657, -41.23087027992157 -13.47411354331004, -41.042879018350675 -13.624031571755259 M-41.042879018350675 -13.624031571755259 C-40.77488329271219 -13.810973788612687, -40.5068875670737 -13.997916005470115, -40.14909332057934 -14.247497783161284 M-41.042879018350675 -13.624031571755259 C-40.73253695926543 -13.840512757681914, -40.42219490018019 -14.056993943608571, -40.14909332057934 -14.247497783161284 M-40.14909332057934 -14.247497783161284 C-39.8238046197086 -14.444689705237716, -39.49851591883787 -14.641881627314147, -39.21719838406695 -14.812417970097618 M-40.14909332057934 -14.247497783161284 C-39.84819993377152 -14.429901122489998, -39.5473065469637 -14.612304461818711, -39.21719838406695 -14.812417970097618 M-39.21719838406695 -14.812417970097618 C-38.93559097968705 -14.959332372584457, -38.65398357530716 -15.106246775071298, -38.25102356499849 -15.316470754341124 M-39.21719838406695 -14.812417970097618 C-38.87726033456878 -14.989763432780098, -38.537322285070616 -15.16710889546258, -38.25102356499849 -15.316470754341124 M-38.25102356499849 -15.316470754341124 C-38.04066678595111 -15.409589460413255, -37.83031000690374 -15.502708166485387, -37.25453908294937 -15.757584874882365 M-38.25102356499849 -15.316470754341124 C-38.03303047708277 -15.412969827826217, -37.815037389167045 -15.509468901311312, -37.25453908294937 -15.757584874882365 M-37.25453908294937 -15.757584874882365 C-36.8522766424296 -15.90562117146688, -36.45001420190982 -16.053657468051394, -36.231839706401566 -16.133947699181363 M-37.25453908294937 -15.757584874882365 C-36.931696159405995 -15.876394055073598, -36.60885323586262 -15.995203235264832, -36.231839706401566 -16.133947699181363 M-36.231839706401566 -16.133947699181363 C-35.82780352399225 -16.253863517291247, -35.423767341582945 -16.373779335401128, -35.18712792646164 -16.444012671663494 M-36.231839706401566 -16.133947699181363 C-35.82576869338299 -16.25446744433503, -35.41969768036442 -16.3749871894887, -35.18712792646164 -16.444012671663494 M-35.18712792646164 -16.444012671663494 C-34.87164062039872 -16.516020590525283, -34.5561533143358 -16.588028509387076, -34.12469668792333 -16.68650566884811 M-35.18712792646164 -16.444012671663494 C-34.83726052430154 -16.523867623108373, -34.487393122141434 -16.603722574553252, -34.12469668792333 -16.68650566884811 M-34.12469668792333 -16.68650566884811 C-33.86183240251363 -16.72900352797017, -33.59896811710393 -16.771501387092233, -33.04891174863661 -16.86043023499518 M-34.12469668792333 -16.68650566884811 C-33.84671518160983 -16.7314475630101, -33.56873367529632 -16.776389457172087, -33.04891174863661 -16.86043023499518 M-33.04891174863661 -16.86043023499518 C-32.71908051654789 -16.89224865727469, -32.38924928445917 -16.924067079554195, -31.96419373967212 -16.965071676755716 M-33.04891174863661 -16.86043023499518 C-32.71184728715917 -16.892946438214587, -32.374782825681734 -16.92546264143399, -31.96419373967212 -16.965071676755716 M-31.96419373967212 -16.965071676755716 C-31.54741978454824 -16.97843680629525, -31.130645829424356 -16.991801935834783, -30.875000000000004 -17 M-31.96419373967212 -16.965071676755716 C-31.648321668157 -16.97520107928152, -31.33244959664188 -16.98533048180732, -30.875000000000004 -17 M-30.875000000000004 -17 C-30.875000000000004 -17, -30.875 -17, -30.875 -17 M-30.875000000000004 -17 C-30.875000000000004 -17, -30.875 -17, -30.875 -17" stroke="#9370DB" stroke-width="1.3" fill="none" stroke-dasharray="0 0" style=""></path></g><g class="label" style="" transform="translate(0, -9.5)"><rect></rect><g><rect class="background" style="stroke: none"></rect><text y="-10.1" style=""><tspan class="text-outer-tspan row" x="0" y="-0.1em" dy="1.1em"><tspan font-style="normal" class="text-inner-tspan" font-weight="normal">Start</tspan><tspan font-style="normal" class="text-inner-tspan" font-weight="normal"> here</tspan></tspan></text></g></g></g><g class="node default" id="gbc2bb5bc-6417-44be-a8c1-e61746d196a8-light-flowchart-docsQ-1" data-look="classic" transform="translate(280.4421844482422, 227.15000915527344)"><polygon points="135.1500015258789,0 270.3000030517578,-135.1500015258789 135.1500015258789,-270.3000030517578 0,-135.1500015258789" class="label-container" transform="translate(-134.6500015258789, 135.1500015258789)"></polygon><g class="label" style="" transform="translate(0, -35.900001525878906)"><rect></rect><g><rect class="background" style="stroke: none"></rect><text y="-10.1" style=""><tspan class="text-outer-tspan row" x="0" y="-0.1em" dy="1.1em"><tspan font-style="normal" class="text-inner-tspan" font-weight="normal">Need</tspan><tspan font-style="normal" class="text-inner-tspan" font-weight="normal"> built-in</tspan><tspan font-style="normal" class="text-inner-tspan" font-weight="normal"> docs</tspan></tspan><tspan class="text-outer-tspan row" x="0" y="1em" dy="1.1em"><tspan font-style="normal" class="text-inner-tspan" font-weight="normal">navigation,</tspan></tspan><tspan class="text-outer-tspan row" x="0" y="2.1em" dy="1.1em"><tspan font-style="normal" class="text-inner-tspan" font-weight="normal">search,</tspan><tspan font-style="normal" class="text-inner-tspan" font-weight="normal"> and</tspan><tspan font-style="normal" class="text-inner-tspan" font-weight="normal"> the</tspan><tspan font-style="normal" class="text-inner-tspan" font-weight="normal"> default</tspan></tspan><tspan class="text-outer-tspan row" x="0" y="3.2em" dy="1.1em"><tspan font-style="normal" class="text-inner-tspan" font-weight="normal">theme?</tspan></tspan></text></g></g></g><g class="node default" id="gbc2bb5bc-6417-44be-a8c1-e61746d196a8-light-flowchart-docs-3" data-look="classic" transform="translate(124.9296875, 579.3953247070312)"><rect class="basic label-container" style="" x="-116.9296875" y="-50.900001525878906" width="233.859375" height="101.80000305175781"></rect><g class="label" style="" transform="translate(0, -35.900001525878906)"><rect></rect><g><rect class="background" style="stroke: none"></rect><text y="-10.1" style=""><tspan class="text-outer-tspan row" x="0" y="-0.1em" dy="1.1em"><tspan font-style="normal" class="text-inner-tspan" font-weight="normal">@pagesmith/docs</tspan></tspan><tspan class="text-outer-tspan row" x="0" y="1em" dy="1.1em"><tspan font-style="normal" class="text-inner-tspan" font-weight="normal">Docs</tspan><tspan font-style="normal" class="text-inner-tspan" font-weight="normal"> preset</tspan><tspan font-style="normal" class="text-inner-tspan" font-weight="normal"> with</tspan><tspan font-style="normal" class="text-inner-tspan" font-weight="normal"> config,</tspan></tspan><tspan class="text-outer-tspan row" x="0" y="2.1em" dy="1.1em"><tspan font-style="normal" class="text-inner-tspan" font-weight="normal">navigation,</tspan><tspan font-style="normal" class="text-inner-tspan" font-weight="normal"> search,</tspan><tspan font-style="normal" class="text-inner-tspan" font-weight="normal"> and</tspan></tspan><tspan class="text-outer-tspan row" x="0" y="3.2em" dy="1.1em"><tspan font-style="normal" class="text-inner-tspan" font-weight="normal">theme</tspan></tspan></text></g></g></g><g class="node default" id="gbc2bb5bc-6417-44be-a8c1-e61746d196a8-light-flowchart-hostQ-5" data-look="classic" transform="translate(435.9546813964844, 579.3953247070312)"><polygon points="144.0953140258789,0 288.1906280517578,-144.0953140258789 144.0953140258789,-288.1906280517578 0,-144.0953140258789" class="label-container" transform="translate(-143.5953140258789, 144.0953140258789)"></polygon><g class="label" style="" transform="translate(0, -35.900001525878906)"><rect></rect><g><rect class="background" style="stroke: none"></rect><text y="-10.1" style=""><tspan class="text-outer-tspan row" x="0" y="-0.1em" dy="1.1em"><tspan font-style="normal" class="text-inner-tspan" font-weight="normal">Does</tspan><tspan font-style="normal" class="text-inner-tspan" font-weight="normal"> the</tspan><tspan font-style="normal" class="text-inner-tspan" font-weight="normal"> host</tspan><tspan font-style="normal" class="text-inner-tspan" font-weight="normal"> app</tspan><tspan font-style="normal" class="text-inner-tspan" font-weight="normal"> already</tspan></tspan><tspan class="text-outer-tspan row" x="0" y="1em" dy="1.1em"><tspan font-style="normal" class="text-inner-tspan" font-weight="normal">own</tspan></tspan><tspan class="text-outer-tspan row" x="0" y="2.1em" dy="1.1em"><tspan font-style="normal" class="text-inner-tspan" font-weight="normal">routing,</tspan><tspan font-style="normal" class="text-inner-tspan" font-weight="normal"> layout,</tspan><tspan font-style="normal" class="text-inner-tspan" font-weight="normal"> and</tspan><tspan font-style="normal" class="text-inner-tspan" font-weight="normal"> build</tspan></tspan><tspan class="text-outer-tspan row" x="0" y="3.2em" dy="1.1em"><tspan font-style="normal" class="text-inner-tspan" font-weight="normal">tooling?</tspan></tspan></text></g></g></g><g class="node default" id="gbc2bb5bc-6417-44be-a8c1-e61746d196a8-light-flowchart-core-7" data-look="classic" transform="translate(563.1460876464844, 856.1906318664551)"><rect class="basic label-container" style="" x="-111.96875" y="-59.70000076293945" width="223.9375" height="119.4000015258789"></rect><g class="label" style="" transform="translate(0, -44.70000076293945)"><rect></rect><g><rect class="background" style="stroke: none"></rect><text y="-10.1" style=""><tspan class="text-outer-tspan row" x="0" y="-0.1em" dy="1.1em"><tspan font-style="normal" class="text-inner-tspan" font-weight="normal">@pagesmith/core</tspan></tspan><tspan class="text-outer-tspan row" x="0" y="1em" dy="1.1em"><tspan font-style="normal" class="text-inner-tspan" font-weight="normal">Headless</tspan><tspan font-style="normal" class="text-inner-tspan" font-weight="normal"> content</tspan><tspan font-style="normal" class="text-inner-tspan" font-weight="normal"> layer</tspan></tspan><tspan class="text-outer-tspan row" x="0" y="2.1em" dy="1.1em"><tspan font-style="normal" class="text-inner-tspan" font-weight="normal">with</tspan></tspan><tspan class="text-outer-tspan row" x="0" y="3.2em" dy="1.1em"><tspan font-style="normal" class="text-inner-tspan" font-weight="normal">schemas,</tspan><tspan font-style="normal" class="text-inner-tspan" font-weight="normal"> loaders,</tspan><tspan font-style="normal" class="text-inner-tspan" font-weight="normal"> and</tspan></tspan><tspan class="text-outer-tspan row" x="0" y="4.300000000000001em" dy="1.1em"><tspan font-style="normal" class="text-inner-tspan" font-weight="normal">markdown</tspan></tspan></text></g></g></g><g class="node default" id="gbc2bb5bc-6417-44be-a8c1-e61746d196a8-light-flowchart-site-9" data-look="classic" transform="translate(286.3999938964844, 1392.0843887329102)"><rect class="basic label-container" style="" x="-127.6171875" y="-68.5" width="255.234375" height="137"></rect><g class="label" style="" transform="translate(0, -53.5)"><rect></rect><g><rect class="background" style="stroke: none"></rect><text y="-10.1" style=""><tspan class="text-outer-tspan row" x="0" y="-0.1em" dy="1.1em"><tspan font-style="normal" class="text-inner-tspan" font-weight="normal">@pagesmith/site</tspan><tspan font-style="normal" class="text-inner-tspan" font-weight="normal"> +</tspan></tspan><tspan class="text-outer-tspan row" x="0" y="1em" dy="1.1em"><tspan font-style="normal" class="text-inner-tspan" font-weight="normal">@pagesmith/core</tspan></tspan><tspan class="text-outer-tspan row" x="0" y="2.1em" dy="1.1em"><tspan font-style="normal" class="text-inner-tspan" font-weight="normal">Custom</tspan><tspan font-style="normal" class="text-inner-tspan" font-weight="normal"> site</tspan><tspan font-style="normal" class="text-inner-tspan" font-weight="normal"> shell</tspan><tspan font-style="normal" class="text-inner-tspan" font-weight="normal"> with</tspan></tspan><tspan class="text-outer-tspan row" x="0" y="3.2em" dy="1.1em"><tspan font-style="normal" class="text-inner-tspan" font-weight="normal">shared</tspan></tspan><tspan class="text-outer-tspan row" x="0" y="4.300000000000001em" dy="1.1em"><tspan font-style="normal" class="text-inner-tspan" font-weight="normal">JSX,</tspan><tspan font-style="normal" class="text-inner-tspan" font-weight="normal"> CSS/runtime,</tspan><tspan font-style="normal" class="text-inner-tspan" font-weight="normal"> and</tspan><tspan font-style="normal" class="text-inner-tspan" font-weight="normal"> Vite</tspan></tspan><tspan class="text-outer-tspan row" x="0" y="5.4em" dy="1.1em"><tspan font-style="normal" class="text-inner-tspan" font-weight="normal">SSG</tspan></tspan></text></g></g></g><g class="node default" id="gbc2bb5bc-6417-44be-a8c1-e61746d196a8-light-flowchart-siteQ-11" data-look="classic" transform="translate(563.1460876464844, 1119.7375106811523)"><polygon points="130.84687423706055,0 261.6937484741211,-130.84687423706055 130.84687423706055,-261.6937484741211 0,-130.84687423706055" class="label-container" transform="translate(-130.34687423706055, 130.84687423706055)"></polygon><g class="label" style="" transform="translate(0, -18.299999237060547)"><rect></rect><g><rect class="background" style="stroke: none"></rect><text y="-10.1" style=""><tspan class="text-outer-tspan row" x="0" y="-0.1em" dy="1.1em"><tspan font-style="normal" class="text-inner-tspan" font-weight="normal">Need</tspan><tspan font-style="normal" class="text-inner-tspan" font-weight="normal"> the</tspan><tspan font-style="normal" class="text-inner-tspan" font-weight="normal"> shared</tspan><tspan font-style="normal" class="text-inner-tspan" font-weight="normal"> Pagesmith</tspan></tspan><tspan class="text-outer-tspan row" x="0" y="1em" dy="1.1em"><tspan font-style="normal" class="text-inner-tspan" font-weight="normal">site</tspan><tspan font-style="normal" class="text-inner-tspan" font-weight="normal"> layer</tspan><tspan font-style="normal" class="text-inner-tspan" font-weight="normal"> too?</tspan></tspan></text></g></g></g><g class="node default" id="gbc2bb5bc-6417-44be-a8c1-e61746d196a8-light-flowchart-coreOnly-15" data-look="classic" transform="translate(585.5093688964844, 1392.0843887329102)"><rect class="basic label-container" style="" x="-121.4921875" y="-24.5" width="242.984375" height="49"></rect><g class="label" style="" transform="translate(0, -9.5)"><rect></rect><g><rect class="background" style="stroke: none"></rect><text y="-10.1" style=""><tspan class="text-outer-tspan row" x="0" y="-0.1em" dy="1.1em"><tspan font-style="normal" class="text-inner-tspan" font-weight="normal">Stay</tspan><tspan font-style="normal" class="text-inner-tspan" font-weight="normal"> on</tspan><tspan font-style="normal" class="text-inner-tspan" font-weight="normal"> @pagesmith/core</tspan></tspan></text></g></g></g></g></g></g><defs><filter id="gbc2bb5bc-6417-44be-a8c1-e61746d196a8-light-drop-shadow" height="130%" width="130%"><feDropShadow dx="4" dy="4" stdDeviation="0" flood-opacity="0.06" flood-color="#000000"></feDropShadow></filter></defs><defs><filter id="gbc2bb5bc-6417-44be-a8c1-e61746d196a8-light-drop-shadow-small" height="150%" width="150%"><feDropShadow dx="2" dy="2" stdDeviation="0" flood-opacity="0.06" flood-color="#000000"></feDropShadow></filter></defs></svg>