<svg id="gefcc066a-6de6-4a64-9479-ad379e1bdbc6-dark" width="100%" xmlns="http://www.w3.org/2000/svg" xmlns:xlink="http://www.w3.org/1999/xlink" class="flowchart" style="max-width: 653.48828125px;" viewBox="0 0 653.48828125 609.800048828125" role="graphics-document document" aria-roledescription="flowchart-v2"><style>#gefcc066a-6de6-4a64-9479-ad379e1bdbc6-dark{font-family:"trebuchet ms",verdana,arial,sans-serif;font-size:16px;fill:#e5e5e5;}@keyframes edge-animation-frame{from{stroke-dashoffset:0;}}@keyframes dash{to{stroke-dashoffset:0;}}#gefcc066a-6de6-4a64-9479-ad379e1bdbc6-dark .edge-animation-slow{stroke-dasharray:9,5!important;stroke-dashoffset:900;animation:dash 50s linear infinite;stroke-linecap:round;}#gefcc066a-6de6-4a64-9479-ad379e1bdbc6-dark .edge-animation-fast{stroke-dasharray:9,5!important;stroke-dashoffset:900;animation:dash 20s linear infinite;stroke-linecap:round;}#gefcc066a-6de6-4a64-9479-ad379e1bdbc6-dark .error-icon{fill:#252525;}#gefcc066a-6de6-4a64-9479-ad379e1bdbc6-dark .error-text{fill:#cccccc;stroke:#cccccc;}#gefcc066a-6de6-4a64-9479-ad379e1bdbc6-dark .edge-thickness-normal{stroke-width:1px;}#gefcc066a-6de6-4a64-9479-ad379e1bdbc6-dark .edge-thickness-thick{stroke-width:3.5px;}#gefcc066a-6de6-4a64-9479-ad379e1bdbc6-dark .edge-pattern-solid{stroke-dasharray:0;}#gefcc066a-6de6-4a64-9479-ad379e1bdbc6-dark .edge-thickness-invisible{stroke-width:0;fill:none;}#gefcc066a-6de6-4a64-9479-ad379e1bdbc6-dark .edge-pattern-dashed{stroke-dasharray:3;}#gefcc066a-6de6-4a64-9479-ad379e1bdbc6-dark .edge-pattern-dotted{stroke-dasharray:2;}#gefcc066a-6de6-4a64-9479-ad379e1bdbc6-dark .marker{fill:#cccccc;stroke:#cccccc;}#gefcc066a-6de6-4a64-9479-ad379e1bdbc6-dark .marker.cross{stroke:#cccccc;}#gefcc066a-6de6-4a64-9479-ad379e1bdbc6-dark svg{font-family:"trebuchet ms",verdana,arial,sans-serif;font-size:16px;}#gefcc066a-6de6-4a64-9479-ad379e1bdbc6-dark p{margin:0;}#gefcc066a-6de6-4a64-9479-ad379e1bdbc6-dark .label{font-family:"trebuchet ms",verdana,arial,sans-serif;color:#e5e5e5;}#gefcc066a-6de6-4a64-9479-ad379e1bdbc6-dark .cluster-label text{fill:#e5e5e5;}#gefcc066a-6de6-4a64-9479-ad379e1bdbc6-dark .cluster-label span{color:#e5e5e5;}#gefcc066a-6de6-4a64-9479-ad379e1bdbc6-dark .cluster-label span p{background-color:transparent;}#gefcc066a-6de6-4a64-9479-ad379e1bdbc6-dark .label text,#gefcc066a-6de6-4a64-9479-ad379e1bdbc6-dark span{fill:#e5e5e5;color:#e5e5e5;}#gefcc066a-6de6-4a64-9479-ad379e1bdbc6-dark .node rect,#gefcc066a-6de6-4a64-9479-ad379e1bdbc6-dark .node circle,#gefcc066a-6de6-4a64-9479-ad379e1bdbc6-dark .node ellipse,#gefcc066a-6de6-4a64-9479-ad379e1bdbc6-dark .node polygon,#gefcc066a-6de6-4a64-9479-ad379e1bdbc6-dark .node path{fill:#2d2d2d;stroke:#555555;stroke-width:1px;}#gefcc066a-6de6-4a64-9479-ad379e1bdbc6-dark .rough-node .label text,#gefcc066a-6de6-4a64-9479-ad379e1bdbc6-dark .node .label text,#gefcc066a-6de6-4a64-9479-ad379e1bdbc6-dark .image-shape .label,#gefcc066a-6de6-4a64-9479-ad379e1bdbc6-dark .icon-shape .label{text-anchor:middle;}#gefcc066a-6de6-4a64-9479-ad379e1bdbc6-dark .node .katex path{fill:#000;stroke:#000;stroke-width:1px;}#gefcc066a-6de6-4a64-9479-ad379e1bdbc6-dark .rough-node .label,#gefcc066a-6de6-4a64-9479-ad379e1bdbc6-dark .node .label,#gefcc066a-6de6-4a64-9479-ad379e1bdbc6-dark .image-shape .label,#gefcc066a-6de6-4a64-9479-ad379e1bdbc6-dark .icon-shape .label{text-align:center;}#gefcc066a-6de6-4a64-9479-ad379e1bdbc6-dark .node.clickable{cursor:pointer;}#gefcc066a-6de6-4a64-9479-ad379e1bdbc6-dark .root .anchor path{fill:#cccccc!important;stroke-width:0;stroke:#cccccc;}#gefcc066a-6de6-4a64-9479-ad379e1bdbc6-dark .arrowheadPath{fill:#cccccc;}#gefcc066a-6de6-4a64-9479-ad379e1bdbc6-dark .edgePath .path{stroke:#cccccc;stroke-width:1px;}#gefcc066a-6de6-4a64-9479-ad379e1bdbc6-dark .flowchart-link{stroke:#cccccc;fill:none;}#gefcc066a-6de6-4a64-9479-ad379e1bdbc6-dark .edgeLabel{background-color:#1e1e1e;text-align:center;}#gefcc066a-6de6-4a64-9479-ad379e1bdbc6-dark .edgeLabel p{background-color:#1e1e1e;}#gefcc066a-6de6-4a64-9479-ad379e1bdbc6-dark .edgeLabel rect{opacity:0.5;background-color:#1e1e1e;fill:#1e1e1e;}#gefcc066a-6de6-4a64-9479-ad379e1bdbc6-dark .labelBkg{background-color:rgba(30, 30, 30, 0.5);}#gefcc066a-6de6-4a64-9479-ad379e1bdbc6-dark .cluster rect{fill:#1e1e1e;stroke:#555555;stroke-width:1px;}#gefcc066a-6de6-4a64-9479-ad379e1bdbc6-dark .cluster text{fill:#e5e5e5;}#gefcc066a-6de6-4a64-9479-ad379e1bdbc6-dark .cluster span{color:#e5e5e5;}#gefcc066a-6de6-4a64-9479-ad379e1bdbc6-dark div.mermaidTooltip{position:absolute;text-align:center;max-width:200px;padding:2px;font-family:"trebuchet ms",verdana,arial,sans-serif;font-size:12px;background:#252525;border:1px solid #555555;border-radius:2px;pointer-events:none;z-index:100;}#gefcc066a-6de6-4a64-9479-ad379e1bdbc6-dark .flowchartTitleText{text-anchor:middle;font-size:18px;fill:#e5e5e5;}#gefcc066a-6de6-4a64-9479-ad379e1bdbc6-dark rect.text{fill:none;stroke-width:0;}#gefcc066a-6de6-4a64-9479-ad379e1bdbc6-dark .icon-shape,#gefcc066a-6de6-4a64-9479-ad379e1bdbc6-dark .image-shape{background-color:#1e1e1e;text-align:center;}#gefcc066a-6de6-4a64-9479-ad379e1bdbc6-dark .icon-shape p,#gefcc066a-6de6-4a64-9479-ad379e1bdbc6-dark .image-shape p{background-color:#1e1e1e;padding:2px;}#gefcc066a-6de6-4a64-9479-ad379e1bdbc6-dark .icon-shape .label rect,#gefcc066a-6de6-4a64-9479-ad379e1bdbc6-dark .image-shape .label rect{opacity:0.5;background-color:#1e1e1e;fill:#1e1e1e;}#gefcc066a-6de6-4a64-9479-ad379e1bdbc6-dark .label-icon{display:inline-block;height:1em;overflow:visible;vertical-align:-0.125em;}#gefcc066a-6de6-4a64-9479-ad379e1bdbc6-dark .node .label-icon path{fill:currentColor;stroke:revert;stroke-width:revert;}#gefcc066a-6de6-4a64-9479-ad379e1bdbc6-dark .node .neo-node{stroke:#555555;}#gefcc066a-6de6-4a64-9479-ad379e1bdbc6-dark [data-look="neo"].node rect,#gefcc066a-6de6-4a64-9479-ad379e1bdbc6-dark [data-look="neo"].cluster rect,#gefcc066a-6de6-4a64-9479-ad379e1bdbc6-dark [data-look="neo"].node polygon{stroke:url(#gefcc066a-6de6-4a64-9479-ad379e1bdbc6-dark-gradient);filter:drop-shadow( 1px 2px 2px rgba(185,185,185,1));}#gefcc066a-6de6-4a64-9479-ad379e1bdbc6-dark [data-look="neo"].node path{stroke:url(#gefcc066a-6de6-4a64-9479-ad379e1bdbc6-dark-gradient);stroke-width:1px;}#gefcc066a-6de6-4a64-9479-ad379e1bdbc6-dark [data-look="neo"].node .outer-path{filter:drop-shadow( 1px 2px 2px rgba(185,185,185,1));}#gefcc066a-6de6-4a64-9479-ad379e1bdbc6-dark [data-look="neo"].node .neo-line path{stroke:#555555;filter:none;}#gefcc066a-6de6-4a64-9479-ad379e1bdbc6-dark [data-look="neo"].node circle{stroke:url(#gefcc066a-6de6-4a64-9479-ad379e1bdbc6-dark-gradient);filter:drop-shadow( 1px 2px 2px rgba(185,185,185,1));}#gefcc066a-6de6-4a64-9479-ad379e1bdbc6-dark [data-look="neo"].node circle .state-start{fill:#000000;}#gefcc066a-6de6-4a64-9479-ad379e1bdbc6-dark [data-look="neo"].icon-shape .icon{fill:url(#gefcc066a-6de6-4a64-9479-ad379e1bdbc6-dark-gradient);filter:drop-shadow( 1px 2px 2px rgba(185,185,185,1));}#gefcc066a-6de6-4a64-9479-ad379e1bdbc6-dark [data-look="neo"].icon-shape .icon-neo path{stroke:url(#gefcc066a-6de6-4a64-9479-ad379e1bdbc6-dark-gradient);filter:drop-shadow( 1px 2px 2px rgba(185,185,185,1));}#gefcc066a-6de6-4a64-9479-ad379e1bdbc6-dark :root{--mermaid-font-family:"trebuchet ms",verdana,arial,sans-serif;}</style><g><marker id="gefcc066a-6de6-4a64-9479-ad379e1bdbc6-dark_flowchart-v2-pointEnd" class="marker flowchart-v2" viewBox="0 0 10 10" refX="5" refY="5" markerUnits="userSpaceOnUse" markerWidth="8" markerHeight="8" orient="auto"><path d="M 0 0 L 10 5 L 0 10 z" class="arrowMarkerPath" style="stroke-width: 1; stroke-dasharray: 1, 0;"></path></marker><marker id="gefcc066a-6de6-4a64-9479-ad379e1bdbc6-dark_flowchart-v2-pointStart" class="marker flowchart-v2" viewBox="0 0 10 10" refX="4.5" refY="5" markerUnits="userSpaceOnUse" markerWidth="8" markerHeight="8" orient="auto"><path d="M 0 5 L 10 10 L 10 0 z" class="arrowMarkerPath" style="stroke-width: 1; stroke-dasharray: 1, 0;"></path></marker><marker id="gefcc066a-6de6-4a64-9479-ad379e1bdbc6-dark_flowchart-v2-pointEnd-margin" class="marker flowchart-v2" viewBox="0 0 11.5 14" refX="11.5" refY="7" markerUnits="userSpaceOnUse" markerWidth="10.5" markerHeight="14" orient="auto"><path d="M 0 0 L 11.5 7 L 0 14 z" class="arrowMarkerPath" style="stroke-width: 0; stroke-dasharray: 1, 0;"></path></marker><marker id="gefcc066a-6de6-4a64-9479-ad379e1bdbc6-dark_flowchart-v2-pointStart-margin" class="marker flowchart-v2" viewBox="0 0 11.5 14" refX="1" refY="7" markerUnits="userSpaceOnUse" markerWidth="11.5" markerHeight="14" orient="auto"><polygon points="0,7 11.5,14 11.5,0" class="arrowMarkerPath" style="stroke-width: 0; stroke-dasharray: 1, 0;"></polygon></marker><marker id="gefcc066a-6de6-4a64-9479-ad379e1bdbc6-dark_flowchart-v2-circleEnd" class="marker flowchart-v2" viewBox="0 0 10 10" refX="11" refY="5" markerUnits="userSpaceOnUse" markerWidth="11" markerHeight="11" orient="auto"><circle cx="5" cy="5" r="5" class="arrowMarkerPath" style="stroke-width: 1; stroke-dasharray: 1, 0;"></circle></marker><marker id="gefcc066a-6de6-4a64-9479-ad379e1bdbc6-dark_flowchart-v2-circleStart" class="marker flowchart-v2" viewBox="0 0 10 10" refX="-1" refY="5" markerUnits="userSpaceOnUse" markerWidth="11" markerHeight="11" orient="auto"><circle cx="5" cy="5" r="5" class="arrowMarkerPath" style="stroke-width: 1; stroke-dasharray: 1, 0;"></circle></marker><marker id="gefcc066a-6de6-4a64-9479-ad379e1bdbc6-dark_flowchart-v2-circleEnd-margin" class="marker flowchart-v2" viewBox="0 0 10 10" refY="5" refX="12.25" markerUnits="userSpaceOnUse" markerWidth="14" markerHeight="14" orient="auto"><circle cx="5" cy="5" r="5" class="arrowMarkerPath" style="stroke-width: 0; stroke-dasharray: 1, 0;"></circle></marker><marker id="gefcc066a-6de6-4a64-9479-ad379e1bdbc6-dark_flowchart-v2-circleStart-margin" class="marker flowchart-v2" viewBox="0 0 10 10" refX="-2" refY="5" markerUnits="userSpaceOnUse" markerWidth="14" markerHeight="14" orient="auto"><circle cx="5" cy="5" r="5" class="arrowMarkerPath" style="stroke-width: 0; stroke-dasharray: 1, 0;"></circle></marker><marker id="gefcc066a-6de6-4a64-9479-ad379e1bdbc6-dark_flowchart-v2-crossEnd" class="marker cross flowchart-v2" viewBox="0 0 11 11" refX="12" refY="5.2" markerUnits="userSpaceOnUse" markerWidth="11" markerHeight="11" orient="auto"><path d="M 1,1 l 9,9 M 10,1 l -9,9" class="arrowMarkerPath" style="stroke-width: 2; stroke-dasharray: 1, 0;"></path></marker><marker id="gefcc066a-6de6-4a64-9479-ad379e1bdbc6-dark_flowchart-v2-crossStart" class="marker cross flowchart-v2" viewBox="0 0 11 11" refX="-1" refY="5.2" markerUnits="userSpaceOnUse" markerWidth="11" markerHeight="11" orient="auto"><path d="M 1,1 l 9,9 M 10,1 l -9,9" class="arrowMarkerPath" style="stroke-width: 2; stroke-dasharray: 1, 0;"></path></marker><marker id="gefcc066a-6de6-4a64-9479-ad379e1bdbc6-dark_flowchart-v2-crossEnd-margin" class="marker cross flowchart-v2" viewBox="0 0 15 15" refX="17.7" refY="7.5" markerUnits="userSpaceOnUse" markerWidth="12" markerHeight="12" orient="auto"><path d="M 1,1 L 14,14 M 1,14 L 14,1" class="arrowMarkerPath" style="stroke-width: 2.5;"></path></marker><marker id="gefcc066a-6de6-4a64-9479-ad379e1bdbc6-dark_flowchart-v2-crossStart-margin" class="marker cross flowchart-v2" viewBox="0 0 15 15" refX="-3.5" refY="7.5" markerUnits="userSpaceOnUse" markerWidth="12" markerHeight="12" orient="auto"><path d="M 1,1 L 14,14 M 1,14 L 14,1" class="arrowMarkerPath" style="stroke-width: 2.5; stroke-dasharray: 1, 0;"></path></marker><g class="root"><g class="clusters"></g><g class="edgePaths"><path d="M203.574,42.5L203.491,46.583C203.408,50.667,203.241,58.833,203.158,66.417C203.074,74,203.074,81,203.074,84.5L203.074,88" id="gefcc066a-6de6-4a64-9479-ad379e1bdbc6-dark-L_start_init_0" class="edge-thickness-normal edge-pattern-solid edge-thickness-normal edge-pattern-solid flowchart-link" style=";" data-edge="true" data-et="edge" data-id="L_start_init_0" data-points="W3sieCI6MjAzLjU3NDIxODc1LCJ5Ijo0Mi41fSx7IngiOjIwMy4wNzQyMTg3NSwieSI6Njd9LHsieCI6MjAzLjA3NDIxODc1LCJ5Ijo5Mn1d" data-look="classic" marker-end="url(#gefcc066a-6de6-4a64-9479-ad379e1bdbc6-dark_flowchart-v2-pointEnd)"></path><path d="M139.96,42.5L124.285,46.583C108.61,50.667,77.26,58.833,61.585,74.1C45.91,89.367,45.91,111.733,45.91,136.017C45.91,160.3,45.91,186.5,52.987,206.679C60.064,226.857,74.218,241.014,81.295,248.093L88.372,255.171" id="gefcc066a-6de6-4a64-9479-ad379e1bdbc6-dark-L_start_dev_0" class="edge-thickness-normal edge-pattern-solid edge-thickness-normal edge-pattern-solid flowchart-link" style=";" data-edge="true" data-et="edge" data-id="L_start_dev_0" data-points="W3sieCI6MTM5Ljk2MDE5MzQ1MjM4MDk2LCJ5Ijo0Mi41fSx7IngiOjQ1LjkxMDE1NjI1LCJ5Ijo2N30seyJ4Ijo0NS45MTAxNTYyNSwieSI6MTM0LjA5OTk5ODQ3NDEyMTF9LHsieCI6NDUuOTEwMTU2MjUsInkiOjIxMi42OTk5OTY5NDgyNDIyfSx7IngiOjkxLjE5OTgwMDMzMTE0NzM0LCJ5IjoyNTcuOTk5OTk2MTg1MzAyNzN9XQ==" data-look="classic" marker-end="url(#gefcc066a-6de6-4a64-9479-ad379e1bdbc6-dark_flowchart-v2-pointEnd)"></path><path d="M203.074,176.2L203.074,182.283C203.074,188.367,203.074,200.533,195.997,213.695C188.92,226.857,174.767,241.014,167.69,248.093L160.613,255.171" id="gefcc066a-6de6-4a64-9479-ad379e1bdbc6-dark-L_init_dev_0" class="edge-thickness-normal edge-pattern-solid edge-thickness-normal edge-pattern-solid flowchart-link" style=";" data-edge="true" data-et="edge" data-id="L_init_dev_0" data-points="W3sieCI6MjAzLjA3NDIxODc1LCJ5IjoxNzYuMTk5OTk2OTQ4MjQyMn0seyJ4IjoyMDMuMDc0MjE4NzUsInkiOjIxMi42OTk5OTY5NDgyNDIyfSx7IngiOjE1Ny43ODQ1NzQ2Njg4NTI2NiwieSI6MjU3Ljk5OTk5NjE4NTMwMjczfV0=" data-look="classic" marker-end="url(#gefcc066a-6de6-4a64-9479-ad379e1bdbc6-dark_flowchart-v2-pointEnd)"></path><path d="M124.492,324.6L124.492,330.233C124.492,335.867,124.492,347.133,124.492,356.267C124.492,365.4,124.492,372.4,124.492,375.9L124.492,379.4" id="gefcc066a-6de6-4a64-9479-ad379e1bdbc6-dark-L_dev_build_0" class="edge-thickness-normal edge-pattern-solid edge-thickness-normal edge-pattern-solid flowchart-link" style=";" data-edge="true" data-et="edge" data-id="L_dev_build_0" data-points="W3sieCI6MTI0LjQ5MjE4NzUsInkiOjMyNC41OTk5OTQ2NTk0MjM4fSx7IngiOjEyNC40OTIxODc1LCJ5IjozNTguMzk5OTkzODk2NDg0NH0seyJ4IjoxMjQuNDkyMTg3NSwieSI6MzgzLjM5OTk5Mzg5NjQ4NDR9XQ==" data-look="classic" marker-end="url(#gefcc066a-6de6-4a64-9479-ad379e1bdbc6-dark_flowchart-v2-pointEnd)"></path><path d="M124.492,467.6L124.492,471.767C124.492,475.933,124.492,484.267,124.492,491.933C124.492,499.6,124.492,506.6,124.492,510.1L124.492,513.6" id="gefcc066a-6de6-4a64-9479-ad379e1bdbc6-dark-L_build_preview_0" class="edge-thickness-normal edge-pattern-solid edge-thickness-normal edge-pattern-solid flowchart-link" style=";" data-edge="true" data-et="edge" data-id="L_build_preview_0" data-points="W3sieCI6MTI0LjQ5MjE4NzUsInkiOjQ2Ny41OTk5OTA4NDQ3MjY1Nn0seyJ4IjoxMjQuNDkyMTg3NSwieSI6NDkyLjU5OTk5MDg0NDcyNjU2fSx7IngiOjEyNC40OTIxODc1LCJ5Ijo1MTcuNTk5OTkwODQ0NzI2Nn1d" data-look="classic" marker-end="url(#gefcc066a-6de6-4a64-9479-ad379e1bdbc6-dark_flowchart-v2-pointEnd)"></path><path d="M291.499,40.116L318.872,44.596C346.245,49.077,400.992,58.039,428.365,73.703C455.738,89.367,455.738,111.733,455.738,136.017C455.738,160.3,455.738,186.5,460.045,205.156C464.352,223.813,472.965,234.926,477.272,240.482L481.579,246.038" id="gefcc066a-6de6-4a64-9479-ad379e1bdbc6-dark-L_start_mcp_0" class="edge-thickness-normal edge-pattern-dotted edge-thickness-normal edge-pattern-solid flowchart-link" style=";" data-edge="true" data-et="edge" data-id="L_start_mcp_0" data-points="W3sieCI6MjkxLjQ5ODkwMzUyMTg2ODQ0LCJ5Ijo0MC4xMTU1OTk1NTg4NzQ2NH0seyJ4Ijo0NTUuNzM4MjgxMjUsInkiOjY3fSx7IngiOjQ1NS43MzgyODEyNSwieSI6MTM0LjA5OTk5ODQ3NDEyMTF9LHsieCI6NDU1LjczODI4MTI1LCJ5IjoyMTIuNjk5OTk2OTQ4MjQyMn0seyJ4Ijo0ODQuMDI4OTc0Mzg4MjcxOSwieSI6MjQ5LjE5OTk5Njk0ODI0MjJ9XQ==" data-look="classic" marker-end="url(#gefcc066a-6de6-4a64-9479-ad379e1bdbc6-dark_flowchart-v2-pointEnd)"></path><path d="M325.238,159.739L367.296,168.566C409.353,177.393,493.467,195.046,531.218,209.43C568.969,223.813,560.355,234.926,556.049,240.482L551.742,246.038" id="gefcc066a-6de6-4a64-9479-ad379e1bdbc6-dark-L_init_mcp_0" class="edge-thickness-normal edge-pattern-dotted edge-thickness-normal edge-pattern-solid flowchart-link" style=";" data-edge="true" data-et="edge" data-id="L_init_mcp_0" data-points="W3sieCI6MzI1LjIzODI4MTI1LCJ5IjoxNTkuNzM5MjM2OTc3NTcwMDJ9LHsieCI6NTc3LjU4MjAzMTI1LCJ5IjoyMTIuNjk5OTk2OTQ4MjQyMn0seyJ4Ijo1NDkuMjkxMzM4MTExNzI4MSwieSI6MjQ5LjE5OTk5Njk0ODI0MjJ9XQ==" data-look="classic" marker-end="url(#gefcc066a-6de6-4a64-9479-ad379e1bdbc6-dark_flowchart-v2-pointEnd)"></path></g><g class="edgeLabels"><g class="edgeLabel"><g class="label" data-id="L_start_init_0" transform="translate(0, 0)"><text y="-10.1" text-anchor="middle"><tspan class="text-outer-tspan row" x="0" y="-0.1em" dy="1.1em" text-anchor="middle"></tspan></text></g></g><g><rect class="background" style="stroke: none"></rect></g><g class="edgeLabel"><g class="label" data-id="L_start_dev_0" transform="translate(0, 0)"><text y="-10.1" text-anchor="middle"><tspan class="text-outer-tspan row" x="0" y="-0.1em" dy="1.1em" text-anchor="middle"></tspan></text></g></g><g><rect class="background" style="stroke: none"></rect></g><g class="edgeLabel"><g class="label" data-id="L_init_dev_0" transform="translate(0, 0)"><text y="-10.1" text-anchor="middle"><tspan class="text-outer-tspan row" x="0" y="-0.1em" dy="1.1em" text-anchor="middle"></tspan></text></g></g><g><rect class="background" style="stroke: none"></rect></g><g class="edgeLabel"><g class="label" data-id="L_dev_build_0" transform="translate(0, 0)"><text y="-10.1" text-anchor="middle"><tspan class="text-outer-tspan row" x="0" y="-0.1em" dy="1.1em" text-anchor="middle"></tspan></text></g></g><g><rect class="background" style="stroke: none"></rect></g><g class="edgeLabel"><g class="label" data-id="L_build_preview_0" transform="translate(0, 0)"><text y="-10.1" text-anchor="middle"><tspan class="text-outer-tspan row" x="0" y="-0.1em" dy="1.1em" text-anchor="middle"></tspan></text></g></g><g><rect class="background" style="stroke: none"></rect></g><g class="edgeLabel" transform="translate(455.73828125, 134.0999984741211)"><g class="label" data-id="L_start_mcp_0" transform="translate(0, -10.5)"><g><rect class="background" style="" x="-95.5" y="-1" width="191" height="23"></rect><text y="-10.1" text-anchor="middle" style=""><tspan class="text-outer-tspan row" x="0" y="-0.1em" dy="1.1em" text-anchor="middle"><tspan font-style="normal" class="text-inner-tspan" font-weight="normal">assistant</tspan><tspan font-style="normal" class="text-inner-tspan" font-weight="normal"> or</tspan><tspan font-style="normal" class="text-inner-tspan" font-weight="normal"> tooling</tspan><tspan font-style="normal" class="text-inner-tspan" font-weight="normal"> access</tspan></tspan></text></g></g></g><g class="edgeLabel" transform="translate(474.00794, 190.96234)"><g class="label" data-id="L_init_mcp_0" transform="translate(0, -10.5)"><g><rect class="background" style="" x="-101.84375" y="-1" width="203.6875" height="23"></rect><text y="-10.1" text-anchor="middle" style=""><tspan class="text-outer-tspan row" x="0" y="-0.1em" dy="1.1em" text-anchor="middle"><tspan font-style="normal" class="text-inner-tspan" font-weight="normal">project</tspan><tspan font-style="normal" class="text-inner-tspan" font-weight="normal"> metadata</tspan><tspan font-style="normal" class="text-inner-tspan" font-weight="normal"> +</tspan><tspan font-style="normal" class="text-inner-tspan" font-weight="normal"> content</tspan></tspan></text></g></g></g></g><g class="nodes"><g class="node default" id="gefcc066a-6de6-4a64-9479-ad379e1bdbc6-dark-flowchart-start-0" data-look="classic" transform="translate(203.07421875, 25)"><g class="basic label-container outer-path"><path d="M-79.2578125 -17 C-35.0612611509385 -17, 9.135290198123002 -17, 79.2578125 -17 C79.2578125 -17, 79.2578125 -17, 79.2578125 -17 C79.61030020793024 -16.98869640528238, 79.96278791586049 -16.97739281056476, 80.34700623967211 -16.965071676755716 C80.74293328211377 -16.926877071143306, 81.13886032455542 -16.888682465530895, 81.4317242486366 -16.860430234995185 C81.6782064178238 -16.82058090937877, 81.924688587011 -16.780731583762353, 82.50750918792333 -16.686505668848113 C82.7271846811684 -16.63636617103149, 82.94686017441346 -16.586226673214863, 83.56994042646163 -16.4440126716635 C83.97077027792328 -16.32504847574851, 84.37160012938492 -16.20608427983352, 84.61465220640156 -16.133947699181366 C84.97071388182609 -16.00291371122709, 85.32677555725063 -15.871879723272816, 85.63735158294936 -15.757584874882369 C85.865712429578 -15.656496302163706, 86.09407327620663 -15.555407729445042, 86.63383606499849 -15.316470754341125 C86.90648886151115 -15.174227965042917, 87.17914165802382 -15.03198517574471, 87.60001088406693 -14.812417970097622 C87.86232747995126 -14.653400108129114, 88.12464407583559 -14.494382246160606, 88.53190582057933 -14.247497783161291 C88.79055250665753 -14.067077051587717, 89.04919919273574 -13.886656320014144, 89.42569151835067 -13.624031571755262 C89.6188442943 -13.469997372946905, 89.81199707024935 -13.315963174138545, 90.2776952202324 -12.944581292275288 C90.54456987308713 -12.702212793669002, 90.81144452594185 -12.459844295062718, 91.08441586025927 -12.21193895166137 C91.30776599653808 -11.981311598566286, 91.53111613281688 -11.750684245471204, 91.84253845028036 -11.42911513444239 C92.00105229102142 -11.242915757414883, 92.15956613176249 -11.056716380387376, 92.54894770195651 -10.59932663159847 C92.73205866627191 -10.353974621167852, 92.91516963058731 -10.108622610737234, 93.20074082814824 -9.725983222076888 C93.32740500115294 -9.531393038248801, 93.45406917415764 -9.336802854420712, 93.79523947109088 -8.812673661278927 C93.96733876906727 -8.507093930778213, 94.13943806704367 -8.2015142002775, 94.330000708341 -7.863150934094199 C94.43268003939245 -7.649935106180131, 94.5353593704439 -7.436719278266063, 94.80282709126881 -6.881316833080699 C94.93968650015255 -6.543271447141193, 95.0765459090363 -6.205226061201687, 95.21177567484592 -5.871205925162238 C95.34687613171675 -5.464304874401923, 95.48197658858757 -5.057403823641608, 95.55516600162323 -4.836968972727556 C95.62856262884074 -4.55707582284775, 95.70195925605825 -4.277182672967944, 95.831587007091 -3.7828558772573464 C95.89866606923871 -3.438419070293672, 95.96574513138641 -3.0939822633299974, 96.03990281804565 -2.713198215567453 C96.06859585083585 -2.4906607193268795, 96.09728888362605 -2.2681232230863055, 96.17925742013637 -1.632391440430593 C96.19450446480445 -1.3949064125322963, 96.20975150947253 -1.1574213846339996, 96.2490781754117 -0.5448768187181379 C96.2490781754117 -0.21455003244907067, 96.2490781754117 0.11577675381999653, 96.2490781754117 0.5448768187181336 C96.22814994495779 0.8708509010012708, 96.20722171450389 1.196824983284408, 96.17925742013637 1.6323914404305815 C96.14352429147189 1.9095305300478191, 96.10779116280743 2.186669619665057, 96.03990281804565 2.7131982155674415 C95.97010278573434 3.0716066292439903, 95.90030275342302 3.430015042920539, 95.831587007091 3.782855877257343 C95.77109060305901 4.013554885138724, 95.710594199027 4.244253893020105, 95.55516600162323 4.836968972727545 C95.42200579549484 5.238026297388651, 95.28884558936643 5.639083622049757, 95.21177567484592 5.871205925162227 C95.10201633137464 6.142313625588851, 94.99225698790335 6.413421326015475, 94.80282709126881 6.881316833080694 C94.66294715373091 7.171780516329351, 94.52306721619301 7.462244199578007, 94.330000708341 7.863150934094196 C94.1818427928448 8.126220315673462, 94.0336848773486 8.389289697252728, 93.79523947109088 8.812673661278923 C93.65314243911784 9.030972860785285, 93.51104540714479 9.249272060291647, 93.20074082814826 9.725983222076879 C93.04411810503044 9.93584340243114, 92.88749538191263 10.145703582785401, 92.54894770195651 10.599326631598467 C92.38280211597177 10.7944906908478, 92.21665652998703 10.98965475009713, 91.84253845028037 11.42911513444238 C91.57556227261469 11.704789957034018, 91.30858609494902 11.980464779625654, 91.08441586025927 12.211938951661365 C90.79268168281382 12.47688421275397, 90.50094750536837 12.741829473846575, 90.27769522023242 12.944581292275275 C90.06183671363117 13.116722707053665, 89.84597820702993 13.288864121832054, 89.42569151835067 13.62403157175526 C89.2352271920288 13.756891240729596, 89.04476286570694 13.889750909703933, 88.53190582057934 14.247497783161286 C88.23020118306405 14.430392907436307, 87.92849654554875 14.613288031711328, 87.60001088406695 14.81241797009762 C87.35872724101759 14.938295492126922, 87.11744359796822 15.064173014156223, 86.63383606499849 15.316470754341124 C86.32039707649045 15.455220896716392, 86.00695808798241 15.59397103909166, 85.63735158294936 15.757584874882367 C85.22945157141389 15.907695849713791, 84.82155155987843 16.057806824545217, 84.61465220640156 16.133947699181363 C84.39984017563926 16.197702782340258, 84.18502814487695 16.26145786549915, 83.56994042646164 16.444012671663497 C83.23840739201984 16.519682923319603, 82.90687435757805 16.595353174975706, 82.50750918792333 16.68650566884811 C82.15139401038867 16.744079609037467, 81.795278832854 16.801653549226824, 81.43172424863661 16.86043023499518 C81.13142246866171 16.88939998654363, 80.83112068868682 16.918369738092075, 80.34700623967211 16.965071676755716 C79.94296265600227 16.978028568060882, 79.5389190723324 16.990985459366048, 79.2578125 17 C79.2578125 17, 79.2578125 17, 79.2578125 17 C43.24799424489746 17, 7.238175989794925 17, -79.2578125 17 C-79.54597736421404 16.990759113683538, -79.83414222842809 16.981518227367072, -80.34700623967211 16.965071676755716 C-80.63776603412335 16.93702242907482, -80.92852582857459 16.90897318139392, -81.4317242486366 16.86043023499518 C-81.67973419011457 16.820333911002844, -81.92774413159255 16.780237587010507, -82.50750918792333 16.68650566884811 C-82.86321848760092 16.605317342416807, -83.21892778727852 16.52412901598551, -83.56994042646161 16.4440126716635 C-83.79584923267731 16.376964123798206, -84.021758038893 16.30991557593291, -84.61465220640154 16.13394769918137 C-85.01878020178144 15.98522486116333, -85.42290819716133 15.836502023145291, -85.63735158294936 15.757584874882369 C-85.88553106167826 15.64772318163175, -86.13371054040717 15.537861488381132, -86.63383606499849 15.316470754341127 C-86.9109104751853 15.171921212021294, -87.18798488537212 15.027371669701461, -87.60001088406693 14.812417970097624 C-87.8969509511127 14.632411156440954, -88.19389101815847 14.452404342784282, -88.53190582057931 14.247497783161299 C-88.78744456530478 14.069245016934785, -89.04298331003025 13.89099225070827, -89.42569151835067 13.624031571755264 C-89.73613587695175 13.376460457042242, -90.04658023555282 13.12888934232922, -90.2776952202324 12.94458129227529 C-90.59645920659872 12.655088273890303, -90.91522319296504 12.365595255505317, -91.08441586025926 12.211938951661377 C-91.3025813008909 11.986665222493409, -91.52074674152256 11.76139149332544, -91.84253845028036 11.429115134442386 C-92.04356137542489 11.192982168039151, -92.2445843005694 10.956849201635919, -92.54894770195651 10.599326631598473 C-92.7187289973928 10.371835163108042, -92.8885102928291 10.14434369461761, -93.20074082814824 9.72598322207689 C-93.33297571354957 9.52283492806184, -93.4652105989509 9.319686634046791, -93.79523947109088 8.812673661278936 C-93.90229868251443 8.622579190475737, -94.00935789393796 8.432484719672535, -94.330000708341 7.863150934094201 C-94.47343007166779 7.5653167922493765, -94.61685943499458 7.267482650404552, -94.80282709126881 6.881316833080701 C-94.96471918424851 6.481440233450175, -95.12661127722819 6.081563633819648, -95.21177567484592 5.87120592516224 C-95.30294584696827 5.5966158927239915, -95.39411601909062 5.322025860285744, -95.55516600162323 4.8369689727275516 C-95.62048854964867 4.587865786135167, -95.6858110976741 4.338762599542782, -95.831587007091 3.782855877257349 C-95.89912232654498 3.436076285455942, -95.96665764599898 3.089296693654535, -96.03990281804565 2.713198215567455 C-96.08675344183207 2.3498340291820172, -96.1336040656185 1.986469842796579, -96.17925742013637 1.6323914404306026 C-96.19389531482938 1.4043944150911023, -96.20853320952239 1.1763973897516018, -96.2490781754117 0.54487681871814 C-96.2490781754117 0.22613156112920324, -96.2490781754117 -0.0926136964597335, -96.2490781754117 -0.5448768187181317 C-96.23124673478809 -0.8226158997107432, -96.21341529416446 -1.1003549807033548, -96.17925742013637 -1.6323914404305793 C-96.1290069482461 -2.022124177333377, -96.07875647635585 -2.411856914236175, -96.03990281804565 -2.713198215567447 C-95.95903475753617 -3.128438614812932, -95.87816669702671 -3.5436790140584176, -95.831587007091 -3.782855877257341 C-95.7681482607417 -4.024775311613856, -95.70470951439238 -4.266694745970371, -95.55516600162323 -4.836968972727544 C-95.42700435954534 -5.222971418881562, -95.29884271746745 -5.608973865035581, -95.21177567484594 -5.871205925162218 C-95.10857949574529 -6.126102482703201, -95.00538331664464 -6.380999040244184, -94.80282709126881 -6.881316833080692 C-94.69408047769728 -7.107131502966754, -94.58533386412576 -7.332946172852817, -94.330000708341 -7.863150934094194 C-94.13834375258682 -8.203457266406971, -93.94668679683265 -8.54376359871975, -93.79523947109088 -8.812673661278929 C-93.60186907345651 -9.10974251926759, -93.40849867582213 -9.40681137725625, -93.20074082814826 -9.725983222076884 C-93.04020883727085 -9.941081465087372, -92.87967684639345 -10.15617970809786, -92.54894770195651 -10.599326631598467 C-92.35954444199936 -10.821810478094939, -92.1701411820422 -11.044294324591412, -91.84253845028037 -11.42911513444238 C-91.6153379738221 -11.663718279891576, -91.38813749736381 -11.898321425340772, -91.08441586025927 -12.21193895166136 C-90.9020288193835 -12.377578036488066, -90.71964177850775 -12.543217121314774, -90.27769522023242 -12.944581292275274 C-90.02262740800857 -13.14799108488424, -89.76755959578473 -13.351400877493205, -89.42569151835067 -13.624031571755259 C-89.09142494263577 -13.857201464807137, -88.75715836692085 -14.090371357859016, -88.53190582057934 -14.247497783161284 C-88.34441122370455 -14.36115810962733, -88.15691662682977 -14.474818436093377, -87.60001088406695 -14.812417970097618 C-87.36882067213531 -14.93302975557795, -87.1376304602037 -15.053641541058282, -86.63383606499849 -15.316470754341124 C-86.41182040691089 -15.414750500316003, -86.18980474882329 -15.513030246290883, -85.63735158294936 -15.757584874882365 C-85.28991854217367 -15.885443445523645, -84.94248550139797 -16.013302016164925, -84.61465220640156 -16.133947699181363 C-84.30694895424281 -16.22527240925475, -83.99924570208405 -16.316597119328137, -83.56994042646164 -16.444012671663494 C-83.24185745857643 -16.518895468141846, -82.91377449069122 -16.593778264620198, -82.50750918792333 -16.68650566884811 C-82.2205355154275 -16.73290134670317, -81.93356184293167 -16.779297024558225, -81.43172424863661 -16.86043023499518 C-81.19654459900312 -16.883117732950414, -80.96136494936962 -16.90580523090565, -80.34700623967213 -16.965071676755716 C-80.00194768062026 -16.97613703312877, -79.6568891215684 -16.98720238950182, -79.2578125 -17 C-79.2578125 -17, -79.2578125 -17, -79.2578125 -17" stroke="none" stroke-width="0" fill="#2d2d2d" style=""></path><path d="M-79.2578125 -17 C-35.669795186745404 -17, 7.9182221265091925 -17, 79.2578125 -17 M-79.2578125 -17 C-15.96401140671783 -17, 47.32978968656434 -17, 79.2578125 -17 M79.2578125 -17 C79.2578125 -17, 79.2578125 -17, 79.2578125 -17 M79.2578125 -17 C79.2578125 -17, 79.2578125 -17, 79.2578125 -17 M79.2578125 -17 C79.57231911435345 -16.98991438502767, 79.8868257287069 -16.979828770055345, 80.34700623967211 -16.965071676755716 M79.2578125 -17 C79.52199028863157 -16.991528332509457, 79.78616807726314 -16.983056665018914, 80.34700623967211 -16.965071676755716 M80.34700623967211 -16.965071676755716 C80.64934322607158 -16.935905591291185, 80.95168021247105 -16.906739505826653, 81.4317242486366 -16.860430234995185 M80.34700623967211 -16.965071676755716 C80.56883163153 -16.94367244798725, 80.79065702338791 -16.922273219218788, 81.4317242486366 -16.860430234995185 M81.4317242486366 -16.860430234995185 C81.73503590443103 -16.811393158703364, 82.03834756022545 -16.762356082411543, 82.50750918792333 -16.686505668848113 M81.4317242486366 -16.860430234995185 C81.82910709681944 -16.796184457851, 82.22648994500229 -16.73193868070681, 82.50750918792333 -16.686505668848113 M82.50750918792333 -16.686505668848113 C82.87331635153947 -16.60301257086756, 83.23912351515561 -16.519519472887005, 83.56994042646163 -16.4440126716635 M82.50750918792333 -16.686505668848113 C82.73640253160056 -16.634262256822446, 82.96529587527777 -16.582018844796774, 83.56994042646163 -16.4440126716635 M83.56994042646163 -16.4440126716635 C83.8834973188191 -16.35095063190552, 84.19705421117658 -16.257888592147534, 84.61465220640156 -16.133947699181366 M83.56994042646163 -16.4440126716635 C83.8346325971942 -16.36545342478763, 84.09932476792676 -16.286894177911762, 84.61465220640156 -16.133947699181366 M84.61465220640156 -16.133947699181366 C84.94031563241137 -16.014100548010045, 85.26597905842118 -15.894253396838726, 85.63735158294936 -15.757584874882369 M84.61465220640156 -16.133947699181366 C85.01518554558933 -15.986547727870667, 85.41571888477709 -15.839147756559967, 85.63735158294936 -15.757584874882369 M85.63735158294936 -15.757584874882369 C85.99843379601921 -15.59774449027963, 86.35951600908906 -15.437904105676893, 86.63383606499849 -15.316470754341125 M85.63735158294936 -15.757584874882369 C86.0121239557222 -15.591684262683275, 86.38689632849506 -15.42578365048418, 86.63383606499849 -15.316470754341125 M86.63383606499849 -15.316470754341125 C87.00459614209197 -15.123045459604622, 87.37535621918543 -14.929620164868119, 87.60001088406693 -14.812417970097622 M86.63383606499849 -15.316470754341125 C86.85493218054096 -15.201125052481443, 87.07602829608341 -15.085779350621761, 87.60001088406693 -14.812417970097622 M87.60001088406693 -14.812417970097622 C87.95588977500735 -14.596682095033037, 88.31176866594778 -14.380946219968452, 88.53190582057933 -14.247497783161291 M87.60001088406693 -14.812417970097622 C87.88474041043636 -14.63981325795605, 88.1694699368058 -14.467208545814476, 88.53190582057933 -14.247497783161291 M88.53190582057933 -14.247497783161291 C88.85415735248026 -14.022709064551185, 89.17640888438119 -13.797920345941076, 89.42569151835067 -13.624031571755262 M88.53190582057933 -14.247497783161291 C88.72277997887764 -14.114352233141526, 88.91365413717595 -13.98120668312176, 89.42569151835067 -13.624031571755262 M89.42569151835067 -13.624031571755262 C89.66739377210554 -13.431280456352859, 89.90909602586039 -13.238529340950455, 90.2776952202324 -12.944581292275288 M89.42569151835067 -13.624031571755262 C89.7106509182723 -13.39678403340588, 89.9956103181939 -13.169536495056494, 90.2776952202324 -12.944581292275288 M90.2776952202324 -12.944581292275288 C90.59954153749212 -12.652288982526926, 90.92138785475184 -12.359996672778564, 91.08441586025927 -12.21193895166137 M90.2776952202324 -12.944581292275288 C90.50846012438411 -12.735006712029483, 90.73922502853583 -12.525432131783676, 91.08441586025927 -12.21193895166137 M91.08441586025927 -12.21193895166137 C91.34417044893296 -11.943721012607437, 91.60392503760666 -11.675503073553505, 91.84253845028036 -11.42911513444239 M91.08441586025927 -12.21193895166137 C91.38395364663569 -11.902641594718096, 91.68349143301211 -11.593344237774822, 91.84253845028036 -11.42911513444239 M91.84253845028036 -11.42911513444239 C92.10287311544 -11.12331122328377, 92.36320778059967 -10.81750731212515, 92.54894770195651 -10.59932663159847 M91.84253845028036 -11.42911513444239 C91.99478228469515 -11.250280863619182, 92.14702611910995 -11.071446592795974, 92.54894770195651 -10.59932663159847 M92.54894770195651 -10.59932663159847 C92.71231670511762 -10.380427050584945, 92.87568570827872 -10.16152746957142, 93.20074082814824 -9.725983222076888 M92.54894770195651 -10.59932663159847 C92.71812855134259 -10.372639706113562, 92.88730940072868 -10.145952780628651, 93.20074082814824 -9.725983222076888 M93.20074082814824 -9.725983222076888 C93.35897675673718 -9.482890343467966, 93.51721268532613 -9.239797464859047, 93.79523947109088 -8.812673661278927 M93.20074082814824 -9.725983222076888 C93.35375611399311 -9.490910652661727, 93.50677139983799 -9.255838083246564, 93.79523947109088 -8.812673661278927 M93.79523947109088 -8.812673661278927 C93.98446437553181 -8.476685682344716, 94.17368927997275 -8.140697703410506, 94.330000708341 -7.863150934094199 M93.79523947109088 -8.812673661278927 C93.97818426778429 -8.487836649580316, 94.1611290644777 -8.162999637881704, 94.330000708341 -7.863150934094199 M94.330000708341 -7.863150934094199 C94.44304938522916 -7.628402937681743, 94.55609806211733 -7.393654941269287, 94.80282709126881 -6.881316833080699 M94.330000708341 -7.863150934094199 C94.47681938944609 -7.558278801362943, 94.6236380705512 -7.253406668631687, 94.80282709126881 -6.881316833080699 M94.80282709126881 -6.881316833080699 C94.8935965616482 -6.657114486335283, 94.9843660320276 -6.4329121395898685, 95.21177567484592 -5.871205925162238 M94.80282709126881 -6.881316833080699 C94.96436996594542 -6.482302809410463, 95.12591284062204 -6.083288785740228, 95.21177567484592 -5.871205925162238 M95.21177567484592 -5.871205925162238 C95.2969537663627 -5.614663084799545, 95.3821318578795 -5.3581202444368525, 95.55516600162323 -4.836968972727556 M95.21177567484592 -5.871205925162238 C95.3293181217465 -5.517186802943345, 95.44686056864707 -5.163167680724453, 95.55516600162323 -4.836968972727556 M95.55516600162323 -4.836968972727556 C95.65188527374937 -4.4681364697128725, 95.74860454587552 -4.09930396669819, 95.831587007091 -3.7828558772573464 M95.55516600162323 -4.836968972727556 C95.65742830590112 -4.446998485752956, 95.75969061017899 -4.057027998778355, 95.831587007091 -3.7828558772573464 M95.831587007091 -3.7828558772573464 C95.88460382127457 -3.5106257415324027, 95.93762063545812 -3.238395605807459, 96.03990281804565 -2.713198215567453 M95.831587007091 -3.7828558772573464 C95.9094914274867 -3.3828331436305072, 95.9873958478824 -2.982810410003668, 96.03990281804565 -2.713198215567453 M96.03990281804565 -2.713198215567453 C96.07680732902143 -2.4269741160592093, 96.11371183999722 -2.140750016550966, 96.17925742013637 -1.632391440430593 M96.03990281804565 -2.713198215567453 C96.08503669581665 -2.3631487722678126, 96.13017057358765 -2.0130993289681722, 96.17925742013637 -1.632391440430593 M96.17925742013637 -1.632391440430593 C96.19559781869567 -1.37787654313699, 96.211938217255 -1.1233616458433868, 96.2490781754117 -0.5448768187181379 M96.17925742013637 -1.632391440430593 C96.1939720927604 -1.4031985368412274, 96.20868676538444 -1.1740056332518618, 96.2490781754117 -0.5448768187181379 M96.2490781754117 -0.5448768187181379 C96.2490781754117 -0.1878672496938677, 96.2490781754117 0.16914231933040247, 96.2490781754117 0.5448768187181336 M96.2490781754117 -0.5448768187181379 C96.2490781754117 -0.13615347949591994, 96.2490781754117 0.272569859726298, 96.2490781754117 0.5448768187181336 M96.2490781754117 0.5448768187181336 C96.22309958438832 0.949514343448512, 96.19712099336493 1.3541518681788904, 96.17925742013637 1.6323914404305815 M96.2490781754117 0.5448768187181336 C96.23059994649589 0.8326901494398916, 96.21212171758006 1.1205034801616496, 96.17925742013637 1.6323914404305815 M96.17925742013637 1.6323914404305815 C96.13206806258724 1.9983827789890105, 96.0848787050381 2.3643741175474395, 96.03990281804565 2.7131982155674415 M96.17925742013637 1.6323914404305815 C96.1309814476129 2.0068103501535512, 96.08270547508943 2.381229259876521, 96.03990281804565 2.7131982155674415 M96.03990281804565 2.7131982155674415 C95.96660095201814 3.0895878052638395, 95.89329908599063 3.465977394960237, 95.831587007091 3.782855877257343 M96.03990281804565 2.7131982155674415 C95.99541478565429 2.941634859348063, 95.95092675326295 3.1700715031286846, 95.831587007091 3.782855877257343 M95.831587007091 3.782855877257343 C95.76838755822563 4.023862766595444, 95.70518810936024 4.264869655933545, 95.55516600162323 4.836968972727545 M95.831587007091 3.782855877257343 C95.72149315565672 4.20269144775333, 95.61139930422243 4.622527018249317, 95.55516600162323 4.836968972727545 M95.55516600162323 4.836968972727545 C95.47242579981447 5.086169277714622, 95.38968559800573 5.3353695827016985, 95.21177567484592 5.871205925162227 M95.55516600162323 4.836968972727545 C95.46277296614717 5.115242074750392, 95.37037993067109 5.393515176773239, 95.21177567484592 5.871205925162227 M95.21177567484592 5.871205925162227 C95.0515918270652 6.266863126124646, 94.89140797928447 6.662520327087066, 94.80282709126881 6.881316833080694 M95.21177567484592 5.871205925162227 C95.12910490273123 6.075404330616165, 95.04643413061653 6.279602736070103, 94.80282709126881 6.881316833080694 M94.80282709126881 6.881316833080694 C94.67869142169464 7.139087207029287, 94.55455575212048 7.39685758097788, 94.330000708341 7.863150934094196 M94.80282709126881 6.881316833080694 C94.62237294059437 7.25603373805644, 94.44191878991995 7.630750643032186, 94.330000708341 7.863150934094196 M94.330000708341 7.863150934094196 C94.17927004689085 8.130788486633497, 94.0285393854407 8.398426039172797, 93.79523947109088 8.812673661278923 M94.330000708341 7.863150934094196 C94.19928599727342 8.095248139894478, 94.06857128620584 8.327345345694761, 93.79523947109088 8.812673661278923 M93.79523947109088 8.812673661278923 C93.5978238430705 9.115957079436944, 93.40040821505012 9.419240497594963, 93.20074082814826 9.725983222076879 M93.79523947109088 8.812673661278923 C93.61797082940349 9.085005898206152, 93.44070218771608 9.35733813513338, 93.20074082814826 9.725983222076879 M93.20074082814826 9.725983222076879 C93.00273738517927 9.991289797170564, 92.8047339422103 10.25659637226425, 92.54894770195651 10.599326631598467 M93.20074082814826 9.725983222076879 C92.99220297443092 10.00540494786879, 92.78366512071361 10.2848266736607, 92.54894770195651 10.599326631598467 M92.54894770195651 10.599326631598467 C92.2993657013186 10.892499851165892, 92.04978370068072 11.185673070733317, 91.84253845028037 11.42911513444238 M92.54894770195651 10.599326631598467 C92.34786551334723 10.835529212239594, 92.14678332473795 11.07173179288072, 91.84253845028037 11.42911513444238 M91.84253845028037 11.42911513444238 C91.54690318296505 11.734382820052291, 91.25126791564973 12.039650505662202, 91.08441586025927 12.211938951661365 M91.84253845028037 11.42911513444238 C91.68951381496173 11.587125633965087, 91.53648917964308 11.745136133487796, 91.08441586025927 12.211938951661365 M91.08441586025927 12.211938951661365 C90.78863199015193 12.480562036480507, 90.49284812004458 12.749185121299647, 90.27769522023242 12.944581292275275 M91.08441586025927 12.211938951661365 C90.82856045502926 12.444300061128198, 90.57270504979925 12.676661170595029, 90.27769522023242 12.944581292275275 M90.27769522023242 12.944581292275275 C89.96911493656378 13.190665856834787, 89.66053465289517 13.4367504213943, 89.42569151835067 13.62403157175526 M90.27769522023242 12.944581292275275 C90.08553023851995 13.097827751466038, 89.89336525680748 13.251074210656801, 89.42569151835067 13.62403157175526 M89.42569151835067 13.62403157175526 C89.19560605814556 13.784529228555307, 88.96552059794044 13.945026885355356, 88.53190582057934 14.247497783161286 M89.42569151835067 13.62403157175526 C89.2012220977177 13.780611722464219, 88.97675267708473 13.937191873173175, 88.53190582057934 14.247497783161286 M88.53190582057934 14.247497783161286 C88.19741232783224 14.45026970416653, 87.86291883508514 14.653041625171776, 87.60001088406695 14.81241797009762 M88.53190582057934 14.247497783161286 C88.18880576543441 14.455487052869875, 87.84570571028947 14.663476322578463, 87.60001088406695 14.81241797009762 M87.60001088406695 14.81241797009762 C87.39943858273594 14.917056411229318, 87.19886628140492 15.021694852361017, 86.63383606499849 15.316470754341124 M87.60001088406695 14.81241797009762 C87.34113013537733 14.947475890867965, 87.08224938668769 15.082533811638308, 86.63383606499849 15.316470754341124 M86.63383606499849 15.316470754341124 C86.37556361123397 15.430800308242544, 86.11729115746945 15.545129862143964, 85.63735158294936 15.757584874882367 M86.63383606499849 15.316470754341124 C86.39990352912471 15.420025748610323, 86.16597099325094 15.523580742879522, 85.63735158294936 15.757584874882367 M85.63735158294936 15.757584874882367 C85.31927949996947 15.874638341645074, 85.00120741698956 15.991691808407783, 84.61465220640156 16.133947699181363 M85.63735158294936 15.757584874882367 C85.35113925559276 15.86291365706735, 85.06492692823615 15.968242439252334, 84.61465220640156 16.133947699181363 M84.61465220640156 16.133947699181363 C84.25571829394906 16.240477400314713, 83.89678438149656 16.34700710144806, 83.56994042646164 16.444012671663497 M84.61465220640156 16.133947699181363 C84.19798954835126 16.25761098898377, 83.78132689030096 16.381274278786176, 83.56994042646164 16.444012671663497 M83.56994042646164 16.444012671663497 C83.20814313052142 16.526590543513855, 82.8463458345812 16.609168415364213, 82.50750918792333 16.68650566884811 M83.56994042646164 16.444012671663497 C83.30471028520815 16.504549720616186, 83.03948014395465 16.56508676956887, 82.50750918792333 16.68650566884811 M82.50750918792333 16.68650566884811 C82.17628993704488 16.740054628686483, 81.84507068616642 16.79360358852486, 81.43172424863661 16.86043023499518 M82.50750918792333 16.68650566884811 C82.08249282589559 16.75521901820964, 81.65747646386785 16.82393236757117, 81.43172424863661 16.86043023499518 M81.43172424863661 16.86043023499518 C81.12284829098834 16.89022712715182, 80.81397233334006 16.920024019308464, 80.34700623967211 16.965071676755716 M81.43172424863661 16.86043023499518 C81.13579566756358 16.888978109305107, 80.83986708649054 16.917525983615032, 80.34700623967211 16.965071676755716 M80.34700623967211 16.965071676755716 C80.0293746041763 16.975257505073596, 79.71174296868048 16.985443333391473, 79.2578125 17 M80.34700623967211 16.965071676755716 C80.01313654837502 16.975778227917683, 79.67926685707793 16.98648477907965, 79.2578125 17 M79.2578125 17 C79.2578125 17, 79.2578125 17, 79.2578125 17 M79.2578125 17 C79.2578125 17, 79.2578125 17, 79.2578125 17 M79.2578125 17 C44.99773253271878 17, 10.737652565437557 17, -79.2578125 17 M79.2578125 17 C31.780794436305 17, -15.696223627389998 17, -79.2578125 17 M-79.2578125 17 C-79.55022888013097 16.990622775843153, -79.84264526026195 16.98124555168631, -80.34700623967211 16.965071676755716 M-79.2578125 17 C-79.51782363310295 16.991661949042356, -79.77783476620588 16.983323898084713, -80.34700623967211 16.965071676755716 M-80.34700623967211 16.965071676755716 C-80.72547738774041 16.928561020279716, -81.10394853580871 16.89205036380372, -81.4317242486366 16.86043023499518 M-80.34700623967211 16.965071676755716 C-80.65508590455185 16.935351602004772, -80.9631655694316 16.90563152725383, -81.4317242486366 16.86043023499518 M-81.4317242486366 16.86043023499518 C-81.754772769069 16.808202255490365, -82.0778212895014 16.755974275985547, -82.50750918792333 16.68650566884811 M-81.4317242486366 16.86043023499518 C-81.72305425807377 16.813330258367344, -82.01438426751095 16.76623028173951, -82.50750918792333 16.68650566884811 M-82.50750918792333 16.68650566884811 C-82.8584079883342 16.606415307482994, -83.2093067887451 16.526324946117878, -83.56994042646161 16.4440126716635 M-82.50750918792333 16.68650566884811 C-82.8287629327472 16.613181597968662, -83.15001667757106 16.539857527089218, -83.56994042646161 16.4440126716635 M-83.56994042646161 16.4440126716635 C-83.88943875805361 16.34918724392796, -84.20893708964563 16.254361816192418, -84.61465220640154 16.13394769918137 M-83.56994042646161 16.4440126716635 C-83.94916419870596 16.331461046647583, -84.3283879709503 16.21890942163166, -84.61465220640154 16.13394769918137 M-84.61465220640154 16.13394769918137 C-85.01142325100618 15.987932287055536, -85.4081942956108 15.841916874929701, -85.63735158294936 15.757584874882369 M-84.61465220640154 16.13394769918137 C-84.92186261730781 16.020891428145955, -85.22907302821407 15.907835157110542, -85.63735158294936 15.757584874882369 M-85.63735158294936 15.757584874882369 C-85.97640218676457 15.607497230152193, -86.31545279057978 15.457409585422015, -86.63383606499849 15.316470754341127 M-85.63735158294936 15.757584874882369 C-86.02983300338495 15.583844992603215, -86.42231442382054 15.410105110324059, -86.63383606499849 15.316470754341127 M-86.63383606499849 15.316470754341127 C-86.91699977773115 15.16874442678351, -87.20016349046382 15.021018099225893, -87.60001088406693 14.812417970097624 M-86.63383606499849 15.316470754341127 C-86.83945317124255 15.209200441717638, -87.04507027748663 15.10193012909415, -87.60001088406693 14.812417970097624 M-87.60001088406693 14.812417970097624 C-87.88636231153728 14.638830051977322, -88.17271373900763 14.465242133857023, -88.53190582057931 14.247497783161299 M-87.60001088406693 14.812417970097624 C-87.8983920051207 14.63153758103273, -88.19677312617446 14.450657191967833, -88.53190582057931 14.247497783161299 M-88.53190582057931 14.247497783161299 C-88.78339905493615 14.072066989840614, -89.034892289293 13.896636196519928, -89.42569151835067 13.624031571755264 M-88.53190582057931 14.247497783161299 C-88.81949056007699 14.046891118230453, -89.10707529957465 13.846284453299607, -89.42569151835067 13.624031571755264 M-89.42569151835067 13.624031571755264 C-89.64272189299479 13.450955623397407, -89.8597522676389 13.27787967503955, -90.2776952202324 12.94458129227529 M-89.42569151835067 13.624031571755264 C-89.76082591565878 13.356770808202903, -90.0959603129669 13.089510044650543, -90.2776952202324 12.94458129227529 M-90.2776952202324 12.94458129227529 C-90.59719637720238 12.654418795052527, -90.91669753417236 12.364256297829764, -91.08441586025926 12.211938951661377 M-90.2776952202324 12.94458129227529 C-90.58787601227232 12.662883303878672, -90.89805680431222 12.381185315482055, -91.08441586025926 12.211938951661377 M-91.08441586025926 12.211938951661377 C-91.27405210978083 12.016123954604716, -91.4636883593024 11.820308957548054, -91.84253845028036 11.429115134442386 M-91.08441586025926 12.211938951661377 C-91.26335688950599 12.027167647632405, -91.44229791875271 11.842396343603435, -91.84253845028036 11.429115134442386 M-91.84253845028036 11.429115134442386 C-92.0819485133417 11.14789045155203, -92.32135857640304 10.866665768661674, -92.54894770195651 10.599326631598473 M-91.84253845028036 11.429115134442386 C-92.03184183021574 11.206748612702821, -92.22114521015112 10.984382090963257, -92.54894770195651 10.599326631598473 M-92.54894770195651 10.599326631598473 C-92.77580719297858 10.29535558095369, -93.00266668400066 9.991384530308908, -93.20074082814824 9.72598322207689 M-92.54894770195651 10.599326631598473 C-92.78589359857013 10.28184071635148, -93.02283949518373 9.964354801104488, -93.20074082814824 9.72598322207689 M-93.20074082814824 9.72598322207689 C-93.42173445665074 9.386477663598713, -93.64272808515322 9.046972105120537, -93.79523947109088 8.812673661278936 M-93.20074082814824 9.72598322207689 C-93.40793734337679 9.407673734631162, -93.61513385860533 9.089364247185435, -93.79523947109088 8.812673661278936 M-93.79523947109088 8.812673661278936 C-93.92288626694352 8.586023849602874, -94.05053306279618 8.359374037926813, -94.330000708341 7.863150934094201 M-93.79523947109088 8.812673661278936 C-93.99467100707626 8.458562774504049, -94.19410254306163 8.10445188772916, -94.330000708341 7.863150934094201 M-94.330000708341 7.863150934094201 C-94.47019768552393 7.5720289112391015, -94.61039466270684 7.280906888384001, -94.80282709126881 6.881316833080701 M-94.330000708341 7.863150934094201 C-94.47424586138784 7.5636227874405915, -94.61849101443468 7.264094640786981, -94.80282709126881 6.881316833080701 M-94.80282709126881 6.881316833080701 C-94.9427589229887 6.535682503334661, -95.08269075470858 6.19004817358862, -95.21177567484592 5.87120592516224 M-94.80282709126881 6.881316833080701 C-94.96533790870001 6.479911972092726, -95.1278487261312 6.0785071111047495, -95.21177567484592 5.87120592516224 M-95.21177567484592 5.87120592516224 C-95.33982910304616 5.48552940196619, -95.4678825312464 5.099852878770139, -95.55516600162323 4.8369689727275516 M-95.21177567484592 5.87120592516224 C-95.32215754440216 5.538753321021407, -95.43253941395841 5.206300716880573, -95.55516600162323 4.8369689727275516 M-95.55516600162323 4.8369689727275516 C-95.61761580463178 4.598820807940132, -95.68006560764033 4.3606726431527125, -95.831587007091 3.782855877257349 M-95.55516600162323 4.8369689727275516 C-95.61853397547114 4.595319424591903, -95.68190194931904 4.353669876456255, -95.831587007091 3.782855877257349 M-95.831587007091 3.782855877257349 C-95.89786435910098 3.442535682409391, -95.96414171111097 3.102215487561433, -96.03990281804565 2.713198215567455 M-95.831587007091 3.782855877257349 C-95.90019280078967 3.4305796264543074, -95.96879859448833 3.078303375651265, -96.03990281804565 2.713198215567455 M-96.03990281804565 2.713198215567455 C-96.07337923005696 2.4535617746729783, -96.10685564206827 2.193925333778501, -96.17925742013637 1.6323914404306026 M-96.03990281804565 2.713198215567455 C-96.07951494988063 2.405974343355472, -96.11912708171563 2.098750471143489, -96.17925742013637 1.6323914404306026 M-96.17925742013637 1.6323914404306026 C-96.19584338181424 1.3740516993503442, -96.21242934349213 1.1157119582700858, -96.2490781754117 0.54487681871814 M-96.17925742013637 1.6323914404306026 C-96.20636794894948 1.210123070941548, -96.23347847776257 0.7878547014524933, -96.2490781754117 0.54487681871814 M-96.2490781754117 0.54487681871814 C-96.2490781754117 0.2793806115105197, -96.2490781754117 0.013884404302899389, -96.2490781754117 -0.5448768187181317 M-96.2490781754117 0.54487681871814 C-96.2490781754117 0.19147756022271478, -96.2490781754117 -0.1619216982727104, -96.2490781754117 -0.5448768187181317 M-96.2490781754117 -0.5448768187181317 C-96.23163293484471 -0.8166005220936425, -96.21418769427773 -1.0883242254691534, -96.17925742013637 -1.6323914404305793 M-96.2490781754117 -0.5448768187181317 C-96.22440466797099 -0.9291866132037923, -96.19973116053029 -1.313496407689453, -96.17925742013637 -1.6323914404305793 M-96.17925742013637 -1.6323914404305793 C-96.1506714697966 -1.8540984263313869, -96.12208551945685 -2.0758054122321945, -96.03990281804565 -2.713198215567447 M-96.17925742013637 -1.6323914404305793 C-96.12619813446295 -2.0439087823725233, -96.07313884878954 -2.455426124314467, -96.03990281804565 -2.713198215567447 M-96.03990281804565 -2.713198215567447 C-95.9941586341357 -2.9480849319083635, -95.94841445022574 -3.1829716482492802, -95.831587007091 -3.782855877257341 M-96.03990281804565 -2.713198215567447 C-95.97687942770492 -3.0368100049688804, -95.91385603736417 -3.3604217943703145, -95.831587007091 -3.782855877257341 M-95.831587007091 -3.782855877257341 C-95.72808580235903 -4.177550828606257, -95.62458459762705 -4.572245779955173, -95.55516600162323 -4.836968972727544 M-95.831587007091 -3.782855877257341 C-95.76221189504977 -4.047413246834309, -95.69283678300854 -4.311970616411277, -95.55516600162323 -4.836968972727544 M-95.55516600162323 -4.836968972727544 C-95.41903773512107 -5.246965622338234, -95.28290946861891 -5.656962271948923, -95.21177567484594 -5.871205925162218 M-95.55516600162323 -4.836968972727544 C-95.46029477403893 -5.122705994534128, -95.36542354645461 -5.408443016340711, -95.21177567484594 -5.871205925162218 M-95.21177567484594 -5.871205925162218 C-95.07343159458769 -6.212918478100904, -94.93508751432945 -6.554631031039589, -94.80282709126881 -6.881316833080692 M-95.21177567484594 -5.871205925162218 C-95.10686506443272 -6.130337161191512, -95.00195445401951 -6.389468397220806, -94.80282709126881 -6.881316833080692 M-94.80282709126881 -6.881316833080692 C-94.66438650885121 -7.168791664624783, -94.52594592643361 -7.456266496168875, -94.330000708341 -7.863150934094194 M-94.80282709126881 -6.881316833080692 C-94.64496771596613 -7.209115203546242, -94.48710834066345 -7.536913574011791, -94.330000708341 -7.863150934094194 M-94.330000708341 -7.863150934094194 C-94.14729326080081 -8.187566508337065, -93.96458581326061 -8.511982082579937, -93.79523947109088 -8.812673661278929 M-94.330000708341 -7.863150934094194 C-94.11871571589633 -8.238308833105176, -93.90743072345167 -8.613466732116159, -93.79523947109088 -8.812673661278929 M-93.79523947109088 -8.812673661278929 C-93.57372487968082 -9.152979558681261, -93.35221028827077 -9.493285456083594, -93.20074082814826 -9.725983222076884 M-93.79523947109088 -8.812673661278929 C-93.63737433821693 -9.05519689809703, -93.47950920534299 -9.297720134915131, -93.20074082814826 -9.725983222076884 M-93.20074082814826 -9.725983222076884 C-92.95631984555754 -10.053485071538846, -92.71189886296682 -10.380986921000806, -92.54894770195651 -10.599326631598467 M-93.20074082814826 -9.725983222076884 C-92.9930703325035 -10.00424276706949, -92.78539983685876 -10.282502312062096, -92.54894770195651 -10.599326631598467 M-92.54894770195651 -10.599326631598467 C-92.35458439008842 -10.827636837304476, -92.16022107822033 -11.055947043010487, -91.84253845028037 -11.42911513444238 M-92.54894770195651 -10.599326631598467 C-92.39025997734015 -10.785730262520165, -92.23157225272381 -10.972133893441862, -91.84253845028037 -11.42911513444238 M-91.84253845028037 -11.42911513444238 C-91.64297410049542 -11.635181710133159, -91.44340975071049 -11.841248285823939, -91.08441586025927 -12.21193895166136 M-91.84253845028037 -11.42911513444238 C-91.56969259164896 -11.710850884540902, -91.29684673301756 -11.992586634639421, -91.08441586025927 -12.21193895166136 M-91.08441586025927 -12.21193895166136 C-90.86269635896144 -12.413298736363515, -90.6409768576636 -12.614658521065673, -90.27769522023242 -12.944581292275274 M-91.08441586025927 -12.21193895166136 C-90.7828756185791 -12.485789820837702, -90.48133537689891 -12.759640690014047, -90.27769522023242 -12.944581292275274 M-90.27769522023242 -12.944581292275274 C-90.07840068325967 -13.10351338206068, -89.87910614628693 -13.262445471846084, -89.42569151835067 -13.624031571755259 M-90.27769522023242 -12.944581292275274 C-89.96941011989189 -13.190430455985789, -89.66112501955135 -13.436279619696302, -89.42569151835067 -13.624031571755259 M-89.42569151835067 -13.624031571755259 C-89.17358309173007 -13.79989149656791, -88.92147466510944 -13.975751421380558, -88.53190582057934 -14.247497783161284 M-89.42569151835067 -13.624031571755259 C-89.24614726790408 -13.749273868521469, -89.0666030174575 -13.874516165287677, -88.53190582057934 -14.247497783161284 M-88.53190582057934 -14.247497783161284 C-88.34275819476565 -14.362160185484372, -88.15361056895196 -14.47682258780746, -87.60001088406695 -14.812417970097618 M-88.53190582057934 -14.247497783161284 C-88.31383808666752 -14.379691724966884, -88.09577035275568 -14.511885666772486, -87.60001088406695 -14.812417970097618 M-87.60001088406695 -14.812417970097618 C-87.36137521209373 -14.936914047312603, -87.1227395401205 -15.061410124527589, -86.63383606499849 -15.316470754341124 M-87.60001088406695 -14.812417970097618 C-87.28008158713853 -14.979324879380682, -86.96015229021009 -15.146231788663748, -86.63383606499849 -15.316470754341124 M-86.63383606499849 -15.316470754341124 C-86.34927990028888 -15.442435327399355, -86.06472373557925 -15.568399900457587, -85.63735158294936 -15.757584874882365 M-86.63383606499849 -15.316470754341124 C-86.29340360416259 -15.46717010618303, -85.95297114332668 -15.617869458024934, -85.63735158294936 -15.757584874882365 M-85.63735158294936 -15.757584874882365 C-85.30041959046639 -15.881578962681294, -84.96348759798343 -16.005573050480223, -84.61465220640156 -16.133947699181363 M-85.63735158294936 -15.757584874882365 C-85.23897066955831 -15.904192733603066, -84.84058975616726 -16.050800592323768, -84.61465220640156 -16.133947699181363 M-84.61465220640156 -16.133947699181363 C-84.39162858888838 -16.200139938184417, -84.1686049713752 -16.266332177187472, -83.56994042646164 -16.444012671663494 M-84.61465220640156 -16.133947699181363 C-84.21843206092491 -16.251543758556846, -83.82221191544826 -16.36913981793233, -83.56994042646164 -16.444012671663494 M-83.56994042646164 -16.444012671663494 C-83.30940719868343 -16.503477680765673, -83.0488739709052 -16.562942689867857, -82.50750918792333 -16.68650566884811 M-83.56994042646164 -16.444012671663494 C-83.25626555661432 -16.515606913786325, -82.94259068676702 -16.587201155909153, -82.50750918792333 -16.68650566884811 M-82.50750918792333 -16.68650566884811 C-82.23274868283325 -16.730926816511534, -81.95798817774316 -16.77534796417496, -81.43172424863661 -16.86043023499518 M-82.50750918792333 -16.68650566884811 C-82.18502029345056 -16.738643172367738, -81.8625313989778 -16.79078067588737, -81.43172424863661 -16.86043023499518 M-81.43172424863661 -16.86043023499518 C-81.1071986894907 -16.8917368253869, -80.7826731303448 -16.92304341577862, -80.34700623967213 -16.965071676755716 M-81.43172424863661 -16.86043023499518 C-81.10456356380729 -16.891991032792376, -80.77740287897797 -16.92355183058957, -80.34700623967213 -16.965071676755716 M-80.34700623967213 -16.965071676755716 C-79.96601290665868 -16.977289391386922, -79.58501957364524 -16.98950710601813, -79.2578125 -17 M-80.34700623967213 -16.965071676755716 C-79.94676895748454 -16.97790650738086, -79.54653167529693 -16.99074133800601, -79.2578125 -17 M-79.2578125 -17 C-79.2578125 -17, -79.2578125 -17, -79.2578125 -17 M-79.2578125 -17 C-79.2578125 -17, -79.2578125 -17, -79.2578125 -17" stroke="#555555" stroke-width="1.3" fill="none" stroke-dasharray="0 0" style=""></path></g><g class="label" style="" transform="translate(0, -9.5)"><rect></rect><g><rect class="background" style="stroke: none"></rect><text y="-10.1" style=""><tspan class="text-outer-tspan row" x="0" y="-0.1em" dy="1.1em"><tspan font-style="normal" class="text-inner-tspan" font-weight="normal">Project</tspan><tspan font-style="normal" class="text-inner-tspan" font-weight="normal"> or</tspan><tspan font-style="normal" class="text-inner-tspan" font-weight="normal"> existing</tspan><tspan font-style="normal" class="text-inner-tspan" font-weight="normal"> repo</tspan></tspan></text></g></g></g><g class="node default" id="gefcc066a-6de6-4a64-9479-ad379e1bdbc6-dark-flowchart-init-1" data-look="classic" transform="translate(203.07421875, 134.0999984741211)"><rect class="basic label-container" style="" x="-122.1640625" y="-42.099998474121094" width="244.328125" height="84.19999694824219"></rect><g class="label" style="" transform="translate(0, -27.099998474121094)"><rect></rect><g><rect class="background" style="stroke: none"></rect><text y="-10.1" style=""><tspan class="text-outer-tspan row" x="0" y="-0.1em" dy="1.1em"><tspan font-style="normal" class="text-inner-tspan" font-weight="normal">pagesmith-docs</tspan><tspan font-style="normal" class="text-inner-tspan" font-weight="normal"> init</tspan></tspan><tspan class="text-outer-tspan row" x="0" y="1em" dy="1.1em"><tspan font-style="normal" class="text-inner-tspan" font-weight="normal">Scaffold</tspan><tspan font-style="normal" class="text-inner-tspan" font-weight="normal"> or</tspan><tspan font-style="normal" class="text-inner-tspan" font-weight="normal"> backfill</tspan><tspan font-style="normal" class="text-inner-tspan" font-weight="normal"> config</tspan></tspan><tspan class="text-outer-tspan row" x="0" y="2.1em" dy="1.1em"><tspan font-style="normal" class="text-inner-tspan" font-weight="normal">and</tspan><tspan font-style="normal" class="text-inner-tspan" font-weight="normal"> starter</tspan><tspan font-style="normal" class="text-inner-tspan" font-weight="normal"> docs</tspan></tspan></text></g></g></g><g class="node default" id="gefcc066a-6de6-4a64-9479-ad379e1bdbc6-dark-flowchart-dev-2" data-look="classic" transform="translate(124.4921875, 291.2999954223633)"><rect class="basic label-container" style="" x="-115.5" y="-33.29999923706055" width="231" height="66.5999984741211"></rect><g class="label" style="" transform="translate(0, -18.299999237060547)"><rect></rect><g><rect class="background" style="stroke: none"></rect><text y="-10.1" style=""><tspan class="text-outer-tspan row" x="0" y="-0.1em" dy="1.1em"><tspan font-style="normal" class="text-inner-tspan" font-weight="normal">pagesmith-docs</tspan><tspan font-style="normal" class="text-inner-tspan" font-weight="normal"> dev</tspan></tspan><tspan class="text-outer-tspan row" x="0" y="1em" dy="1.1em"><tspan font-style="normal" class="text-inner-tspan" font-weight="normal">Live-reload</tspan><tspan font-style="normal" class="text-inner-tspan" font-weight="normal"> editing</tspan><tspan font-style="normal" class="text-inner-tspan" font-weight="normal"> loop</tspan></tspan></text></g></g></g><g class="node default" id="gefcc066a-6de6-4a64-9479-ad379e1bdbc6-dark-flowchart-build-3" data-look="classic" transform="translate(124.4921875, 425.49999237060547)"><rect class="basic label-container" style="" x="-113.9765625" y="-42.099998474121094" width="227.953125" height="84.19999694824219"></rect><g class="label" style="" transform="translate(0, -27.099998474121094)"><rect></rect><g><rect class="background" style="stroke: none"></rect><text y="-10.1" style=""><tspan class="text-outer-tspan row" x="0" y="-0.1em" dy="1.1em"><tspan font-style="normal" class="text-inner-tspan" font-weight="normal">pagesmith-docs</tspan><tspan font-style="normal" class="text-inner-tspan" font-weight="normal"> build</tspan></tspan><tspan class="text-outer-tspan row" x="0" y="1em" dy="1.1em"><tspan font-style="normal" class="text-inner-tspan" font-weight="normal">Static</tspan><tspan font-style="normal" class="text-inner-tspan" font-weight="normal"> output</tspan><tspan font-style="normal" class="text-inner-tspan" font-weight="normal"> +</tspan><tspan font-style="normal" class="text-inner-tspan" font-weight="normal"> assets</tspan><tspan font-style="normal" class="text-inner-tspan" font-weight="normal"> +</tspan></tspan><tspan class="text-outer-tspan row" x="0" y="2.1em" dy="1.1em"><tspan font-style="normal" class="text-inner-tspan" font-weight="normal">Pagefind</tspan></tspan></text></g></g></g><g class="node default" id="gefcc066a-6de6-4a64-9479-ad379e1bdbc6-dark-flowchart-preview-4" data-look="classic" transform="translate(124.4921875, 559.6999893188477)"><rect class="basic label-container" style="" x="-116.4921875" y="-42.099998474121094" width="232.984375" height="84.19999694824219"></rect><g class="label" style="" transform="translate(0, -27.099998474121094)"><rect></rect><g><rect class="background" style="stroke: none"></rect><text y="-10.1" style=""><tspan class="text-outer-tspan row" x="0" y="-0.1em" dy="1.1em"><tspan font-style="normal" class="text-inner-tspan" font-weight="normal">pagesmith-docs</tspan><tspan font-style="normal" class="text-inner-tspan" font-weight="normal"> preview</tspan></tspan><tspan class="text-outer-tspan row" x="0" y="1em" dy="1.1em"><tspan font-style="normal" class="text-inner-tspan" font-weight="normal">Serve</tspan><tspan font-style="normal" class="text-inner-tspan" font-weight="normal"> built</tspan><tspan font-style="normal" class="text-inner-tspan" font-weight="normal"> output</tspan><tspan font-style="normal" class="text-inner-tspan" font-weight="normal"> from</tspan></tspan><tspan class="text-outer-tspan row" x="0" y="2.1em" dy="1.1em"><tspan font-style="normal" class="text-inner-tspan" font-weight="normal">disk</tspan></tspan></text></g></g></g><g class="node default" id="gefcc066a-6de6-4a64-9479-ad379e1bdbc6-dark-flowchart-mcp-5" data-look="classic" transform="translate(516.66015625, 291.2999954223633)"><rect class="basic label-container" style="" x="-128.828125" y="-42.099998474121094" width="257.65625" height="84.19999694824219"></rect><g class="label" style="" transform="translate(0, -27.099998474121094)"><rect></rect><g><rect class="background" style="stroke: none"></rect><text y="-10.1" style=""><tspan class="text-outer-tspan row" x="0" y="-0.1em" dy="1.1em"><tspan font-style="normal" class="text-inner-tspan" font-weight="normal">pagesmith-docs</tspan><tspan font-style="normal" class="text-inner-tspan" font-weight="normal"> mcp</tspan><tspan font-style="normal" class="text-inner-tspan" font-weight="normal"> --stdio</tspan></tspan><tspan class="text-outer-tspan row" x="0" y="1em" dy="1.1em"><tspan font-style="normal" class="text-inner-tspan" font-weight="normal">Expose</tspan><tspan font-style="normal" class="text-inner-tspan" font-weight="normal"> docs-aware</tspan><tspan font-style="normal" class="text-inner-tspan" font-weight="normal"> MCP</tspan></tspan><tspan class="text-outer-tspan row" x="0" y="2.1em" dy="1.1em"><tspan font-style="normal" class="text-inner-tspan" font-weight="normal">tools</tspan></tspan></text></g></g></g></g></g></g><defs><filter id="gefcc066a-6de6-4a64-9479-ad379e1bdbc6-dark-drop-shadow" height="130%" width="130%"><feDropShadow dx="4" dy="4" stdDeviation="0" flood-opacity="0.06" flood-color="#000000"></feDropShadow></filter></defs><defs><filter id="gefcc066a-6de6-4a64-9479-ad379e1bdbc6-dark-drop-shadow-small" height="150%" width="150%"><feDropShadow dx="2" dy="2" stdDeviation="0" flood-opacity="0.06" flood-color="#000000"></feDropShadow></filter></defs><linearGradient id="gefcc066a-6de6-4a64-9479-ad379e1bdbc6-dark-gradient" gradientUnits="objectBoundingBox" x1="0%" y1="0%" x2="100%" y2="0%"><stop offset="0%" stop-color="#555555" stop-opacity="1"></stop><stop offset="100%" stop-color="#555555" stop-opacity="1"></stop></linearGradient></svg>