<svg id="ge6e54398-c50a-4ad3-9871-5fa22c437e30-dark" width="100%" xmlns="http://www.w3.org/2000/svg" xmlns:xlink="http://www.w3.org/1999/xlink" class="flowchart" style="max-width: 653.48828125px;" viewBox="0 0 653.48828125 609.800048828125" role="graphics-document document" aria-roledescription="flowchart-v2"><style>#ge6e54398-c50a-4ad3-9871-5fa22c437e30-dark{font-family:"trebuchet ms",verdana,arial,sans-serif;font-size:16px;fill:#e5e5e5;}@keyframes edge-animation-frame{from{stroke-dashoffset:0;}}@keyframes dash{to{stroke-dashoffset:0;}}#ge6e54398-c50a-4ad3-9871-5fa22c437e30-dark .edge-animation-slow{stroke-dasharray:9,5!important;stroke-dashoffset:900;animation:dash 50s linear infinite;stroke-linecap:round;}#ge6e54398-c50a-4ad3-9871-5fa22c437e30-dark .edge-animation-fast{stroke-dasharray:9,5!important;stroke-dashoffset:900;animation:dash 20s linear infinite;stroke-linecap:round;}#ge6e54398-c50a-4ad3-9871-5fa22c437e30-dark .error-icon{fill:#252525;}#ge6e54398-c50a-4ad3-9871-5fa22c437e30-dark .error-text{fill:#cccccc;stroke:#cccccc;}#ge6e54398-c50a-4ad3-9871-5fa22c437e30-dark .edge-thickness-normal{stroke-width:1px;}#ge6e54398-c50a-4ad3-9871-5fa22c437e30-dark .edge-thickness-thick{stroke-width:3.5px;}#ge6e54398-c50a-4ad3-9871-5fa22c437e30-dark .edge-pattern-solid{stroke-dasharray:0;}#ge6e54398-c50a-4ad3-9871-5fa22c437e30-dark .edge-thickness-invisible{stroke-width:0;fill:none;}#ge6e54398-c50a-4ad3-9871-5fa22c437e30-dark .edge-pattern-dashed{stroke-dasharray:3;}#ge6e54398-c50a-4ad3-9871-5fa22c437e30-dark .edge-pattern-dotted{stroke-dasharray:2;}#ge6e54398-c50a-4ad3-9871-5fa22c437e30-dark .marker{fill:#cccccc;stroke:#cccccc;}#ge6e54398-c50a-4ad3-9871-5fa22c437e30-dark .marker.cross{stroke:#cccccc;}#ge6e54398-c50a-4ad3-9871-5fa22c437e30-dark svg{font-family:"trebuchet ms",verdana,arial,sans-serif;font-size:16px;}#ge6e54398-c50a-4ad3-9871-5fa22c437e30-dark p{margin:0;}#ge6e54398-c50a-4ad3-9871-5fa22c437e30-dark .label{font-family:"trebuchet ms",verdana,arial,sans-serif;color:#e5e5e5;}#ge6e54398-c50a-4ad3-9871-5fa22c437e30-dark .cluster-label text{fill:#e5e5e5;}#ge6e54398-c50a-4ad3-9871-5fa22c437e30-dark .cluster-label span{color:#e5e5e5;}#ge6e54398-c50a-4ad3-9871-5fa22c437e30-dark .cluster-label span p{background-color:transparent;}#ge6e54398-c50a-4ad3-9871-5fa22c437e30-dark .label text,#ge6e54398-c50a-4ad3-9871-5fa22c437e30-dark span{fill:#e5e5e5;color:#e5e5e5;}#ge6e54398-c50a-4ad3-9871-5fa22c437e30-dark .node rect,#ge6e54398-c50a-4ad3-9871-5fa22c437e30-dark .node circle,#ge6e54398-c50a-4ad3-9871-5fa22c437e30-dark .node ellipse,#ge6e54398-c50a-4ad3-9871-5fa22c437e30-dark .node polygon,#ge6e54398-c50a-4ad3-9871-5fa22c437e30-dark .node path{fill:#2d2d2d;stroke:#555555;stroke-width:1px;}#ge6e54398-c50a-4ad3-9871-5fa22c437e30-dark .rough-node .label text,#ge6e54398-c50a-4ad3-9871-5fa22c437e30-dark .node .label text,#ge6e54398-c50a-4ad3-9871-5fa22c437e30-dark .image-shape .label,#ge6e54398-c50a-4ad3-9871-5fa22c437e30-dark .icon-shape .label{text-anchor:middle;}#ge6e54398-c50a-4ad3-9871-5fa22c437e30-dark .node .katex path{fill:#000;stroke:#000;stroke-width:1px;}#ge6e54398-c50a-4ad3-9871-5fa22c437e30-dark .rough-node .label,#ge6e54398-c50a-4ad3-9871-5fa22c437e30-dark .node .label,#ge6e54398-c50a-4ad3-9871-5fa22c437e30-dark .image-shape .label,#ge6e54398-c50a-4ad3-9871-5fa22c437e30-dark .icon-shape .label{text-align:center;}#ge6e54398-c50a-4ad3-9871-5fa22c437e30-dark .node.clickable{cursor:pointer;}#ge6e54398-c50a-4ad3-9871-5fa22c437e30-dark .root .anchor path{fill:#cccccc!important;stroke-width:0;stroke:#cccccc;}#ge6e54398-c50a-4ad3-9871-5fa22c437e30-dark .arrowheadPath{fill:#cccccc;}#ge6e54398-c50a-4ad3-9871-5fa22c437e30-dark .edgePath .path{stroke:#cccccc;stroke-width:1px;}#ge6e54398-c50a-4ad3-9871-5fa22c437e30-dark .flowchart-link{stroke:#cccccc;fill:none;}#ge6e54398-c50a-4ad3-9871-5fa22c437e30-dark .edgeLabel{background-color:#1e1e1e;text-align:center;}#ge6e54398-c50a-4ad3-9871-5fa22c437e30-dark .edgeLabel p{background-color:#1e1e1e;}#ge6e54398-c50a-4ad3-9871-5fa22c437e30-dark .edgeLabel rect{opacity:0.5;background-color:#1e1e1e;fill:#1e1e1e;}#ge6e54398-c50a-4ad3-9871-5fa22c437e30-dark .labelBkg{background-color:rgba(30, 30, 30, 0.5);}#ge6e54398-c50a-4ad3-9871-5fa22c437e30-dark .cluster rect{fill:#1e1e1e;stroke:#555555;stroke-width:1px;}#ge6e54398-c50a-4ad3-9871-5fa22c437e30-dark .cluster text{fill:#e5e5e5;}#ge6e54398-c50a-4ad3-9871-5fa22c437e30-dark .cluster span{color:#e5e5e5;}#ge6e54398-c50a-4ad3-9871-5fa22c437e30-dark div.mermaidTooltip{position:absolute;text-align:center;max-width:200px;padding:2px;font-family:"trebuchet ms",verdana,arial,sans-serif;font-size:12px;background:#252525;border:1px solid #555555;border-radius:2px;pointer-events:none;z-index:100;}#ge6e54398-c50a-4ad3-9871-5fa22c437e30-dark .flowchartTitleText{text-anchor:middle;font-size:18px;fill:#e5e5e5;}#ge6e54398-c50a-4ad3-9871-5fa22c437e30-dark rect.text{fill:none;stroke-width:0;}#ge6e54398-c50a-4ad3-9871-5fa22c437e30-dark .icon-shape,#ge6e54398-c50a-4ad3-9871-5fa22c437e30-dark .image-shape{background-color:#1e1e1e;text-align:center;}#ge6e54398-c50a-4ad3-9871-5fa22c437e30-dark .icon-shape p,#ge6e54398-c50a-4ad3-9871-5fa22c437e30-dark .image-shape p{background-color:#1e1e1e;padding:2px;}#ge6e54398-c50a-4ad3-9871-5fa22c437e30-dark .icon-shape .label rect,#ge6e54398-c50a-4ad3-9871-5fa22c437e30-dark .image-shape .label rect{opacity:0.5;background-color:#1e1e1e;fill:#1e1e1e;}#ge6e54398-c50a-4ad3-9871-5fa22c437e30-dark .label-icon{display:inline-block;height:1em;overflow:visible;vertical-align:-0.125em;}#ge6e54398-c50a-4ad3-9871-5fa22c437e30-dark .node .label-icon path{fill:currentColor;stroke:revert;stroke-width:revert;}#ge6e54398-c50a-4ad3-9871-5fa22c437e30-dark .node .neo-node{stroke:#555555;}#ge6e54398-c50a-4ad3-9871-5fa22c437e30-dark [data-look="neo"].node rect,#ge6e54398-c50a-4ad3-9871-5fa22c437e30-dark [data-look="neo"].cluster rect,#ge6e54398-c50a-4ad3-9871-5fa22c437e30-dark [data-look="neo"].node polygon{stroke:url(#ge6e54398-c50a-4ad3-9871-5fa22c437e30-dark-gradient);filter:drop-shadow( 1px 2px 2px rgba(185,185,185,1));}#ge6e54398-c50a-4ad3-9871-5fa22c437e30-dark [data-look="neo"].node path{stroke:url(#ge6e54398-c50a-4ad3-9871-5fa22c437e30-dark-gradient);stroke-width:1px;}#ge6e54398-c50a-4ad3-9871-5fa22c437e30-dark [data-look="neo"].node .outer-path{filter:drop-shadow( 1px 2px 2px rgba(185,185,185,1));}#ge6e54398-c50a-4ad3-9871-5fa22c437e30-dark [data-look="neo"].node .neo-line path{stroke:#555555;filter:none;}#ge6e54398-c50a-4ad3-9871-5fa22c437e30-dark [data-look="neo"].node circle{stroke:url(#ge6e54398-c50a-4ad3-9871-5fa22c437e30-dark-gradient);filter:drop-shadow( 1px 2px 2px rgba(185,185,185,1));}#ge6e54398-c50a-4ad3-9871-5fa22c437e30-dark [data-look="neo"].node circle .state-start{fill:#000000;}#ge6e54398-c50a-4ad3-9871-5fa22c437e30-dark [data-look="neo"].icon-shape .icon{fill:url(#ge6e54398-c50a-4ad3-9871-5fa22c437e30-dark-gradient);filter:drop-shadow( 1px 2px 2px rgba(185,185,185,1));}#ge6e54398-c50a-4ad3-9871-5fa22c437e30-dark [data-look="neo"].icon-shape .icon-neo path{stroke:url(#ge6e54398-c50a-4ad3-9871-5fa22c437e30-dark-gradient);filter:drop-shadow( 1px 2px 2px rgba(185,185,185,1));}#ge6e54398-c50a-4ad3-9871-5fa22c437e30-dark :root{--mermaid-font-family:"trebuchet ms",verdana,arial,sans-serif;}</style><g><marker id="ge6e54398-c50a-4ad3-9871-5fa22c437e30-dark_flowchart-v2-pointEnd" class="marker flowchart-v2" viewBox="0 0 10 10" refX="5" refY="5" markerUnits="userSpaceOnUse" markerWidth="8" markerHeight="8" orient="auto"><path d="M 0 0 L 10 5 L 0 10 z" class="arrowMarkerPath" style="stroke-width: 1; stroke-dasharray: 1, 0;"></path></marker><marker id="ge6e54398-c50a-4ad3-9871-5fa22c437e30-dark_flowchart-v2-pointStart" class="marker flowchart-v2" viewBox="0 0 10 10" refX="4.5" refY="5" markerUnits="userSpaceOnUse" markerWidth="8" markerHeight="8" orient="auto"><path d="M 0 5 L 10 10 L 10 0 z" class="arrowMarkerPath" style="stroke-width: 1; stroke-dasharray: 1, 0;"></path></marker><marker id="ge6e54398-c50a-4ad3-9871-5fa22c437e30-dark_flowchart-v2-pointEnd-margin" class="marker flowchart-v2" viewBox="0 0 11.5 14" refX="11.5" refY="7" markerUnits="userSpaceOnUse" markerWidth="10.5" markerHeight="14" orient="auto"><path d="M 0 0 L 11.5 7 L 0 14 z" class="arrowMarkerPath" style="stroke-width: 0; stroke-dasharray: 1, 0;"></path></marker><marker id="ge6e54398-c50a-4ad3-9871-5fa22c437e30-dark_flowchart-v2-pointStart-margin" class="marker flowchart-v2" viewBox="0 0 11.5 14" refX="1" refY="7" markerUnits="userSpaceOnUse" markerWidth="11.5" markerHeight="14" orient="auto"><polygon points="0,7 11.5,14 11.5,0" class="arrowMarkerPath" style="stroke-width: 0; stroke-dasharray: 1, 0;"></polygon></marker><marker id="ge6e54398-c50a-4ad3-9871-5fa22c437e30-dark_flowchart-v2-circleEnd" class="marker flowchart-v2" viewBox="0 0 10 10" refX="11" refY="5" markerUnits="userSpaceOnUse" markerWidth="11" markerHeight="11" orient="auto"><circle cx="5" cy="5" r="5" class="arrowMarkerPath" style="stroke-width: 1; stroke-dasharray: 1, 0;"></circle></marker><marker id="ge6e54398-c50a-4ad3-9871-5fa22c437e30-dark_flowchart-v2-circleStart" class="marker flowchart-v2" viewBox="0 0 10 10" refX="-1" refY="5" markerUnits="userSpaceOnUse" markerWidth="11" markerHeight="11" orient="auto"><circle cx="5" cy="5" r="5" class="arrowMarkerPath" style="stroke-width: 1; stroke-dasharray: 1, 0;"></circle></marker><marker id="ge6e54398-c50a-4ad3-9871-5fa22c437e30-dark_flowchart-v2-circleEnd-margin" class="marker flowchart-v2" viewBox="0 0 10 10" refY="5" refX="12.25" markerUnits="userSpaceOnUse" markerWidth="14" markerHeight="14" orient="auto"><circle cx="5" cy="5" r="5" class="arrowMarkerPath" style="stroke-width: 0; stroke-dasharray: 1, 0;"></circle></marker><marker id="ge6e54398-c50a-4ad3-9871-5fa22c437e30-dark_flowchart-v2-circleStart-margin" class="marker flowchart-v2" viewBox="0 0 10 10" refX="-2" refY="5" markerUnits="userSpaceOnUse" markerWidth="14" markerHeight="14" orient="auto"><circle cx="5" cy="5" r="5" class="arrowMarkerPath" style="stroke-width: 0; stroke-dasharray: 1, 0;"></circle></marker><marker id="ge6e54398-c50a-4ad3-9871-5fa22c437e30-dark_flowchart-v2-crossEnd" class="marker cross flowchart-v2" viewBox="0 0 11 11" refX="12" refY="5.2" markerUnits="userSpaceOnUse" markerWidth="11" markerHeight="11" orient="auto"><path d="M 1,1 l 9,9 M 10,1 l -9,9" class="arrowMarkerPath" style="stroke-width: 2; stroke-dasharray: 1, 0;"></path></marker><marker id="ge6e54398-c50a-4ad3-9871-5fa22c437e30-dark_flowchart-v2-crossStart" class="marker cross flowchart-v2" viewBox="0 0 11 11" refX="-1" refY="5.2" markerUnits="userSpaceOnUse" markerWidth="11" markerHeight="11" orient="auto"><path d="M 1,1 l 9,9 M 10,1 l -9,9" class="arrowMarkerPath" style="stroke-width: 2; stroke-dasharray: 1, 0;"></path></marker><marker id="ge6e54398-c50a-4ad3-9871-5fa22c437e30-dark_flowchart-v2-crossEnd-margin" class="marker cross flowchart-v2" viewBox="0 0 15 15" refX="17.7" refY="7.5" markerUnits="userSpaceOnUse" markerWidth="12" markerHeight="12" orient="auto"><path d="M 1,1 L 14,14 M 1,14 L 14,1" class="arrowMarkerPath" style="stroke-width: 2.5;"></path></marker><marker id="ge6e54398-c50a-4ad3-9871-5fa22c437e30-dark_flowchart-v2-crossStart-margin" class="marker cross flowchart-v2" viewBox="0 0 15 15" refX="-3.5" refY="7.5" markerUnits="userSpaceOnUse" markerWidth="12" markerHeight="12" orient="auto"><path d="M 1,1 L 14,14 M 1,14 L 14,1" class="arrowMarkerPath" style="stroke-width: 2.5; stroke-dasharray: 1, 0;"></path></marker><g class="root"><g class="clusters"></g><g class="edgePaths"><path d="M203.574,42.5L203.491,46.583C203.408,50.667,203.241,58.833,203.158,66.417C203.074,74,203.074,81,203.074,84.5L203.074,88" id="ge6e54398-c50a-4ad3-9871-5fa22c437e30-dark-L_start_init_0" class="edge-thickness-normal edge-pattern-solid edge-thickness-normal edge-pattern-solid flowchart-link" style=";" data-edge="true" data-et="edge" data-id="L_start_init_0" data-points="W3sieCI6MjAzLjU3NDIxODc1LCJ5Ijo0Mi41fSx7IngiOjIwMy4wNzQyMTg3NSwieSI6Njd9LHsieCI6MjAzLjA3NDIxODc1LCJ5Ijo5Mn1d" data-look="classic" marker-end="url(#ge6e54398-c50a-4ad3-9871-5fa22c437e30-dark_flowchart-v2-pointEnd)"></path><path d="M139.96,42.5L124.285,46.583C108.61,50.667,77.26,58.833,61.585,74.1C45.91,89.367,45.91,111.733,45.91,136.017C45.91,160.3,45.91,186.5,52.987,206.679C60.064,226.857,74.218,241.014,81.295,248.093L88.372,255.171" id="ge6e54398-c50a-4ad3-9871-5fa22c437e30-dark-L_start_dev_0" class="edge-thickness-normal edge-pattern-solid edge-thickness-normal edge-pattern-solid flowchart-link" style=";" data-edge="true" data-et="edge" data-id="L_start_dev_0" data-points="W3sieCI6MTM5Ljk2MDE5MzQ1MjM4MDk2LCJ5Ijo0Mi41fSx7IngiOjQ1LjkxMDE1NjI1LCJ5Ijo2N30seyJ4Ijo0NS45MTAxNTYyNSwieSI6MTM0LjA5OTk5ODQ3NDEyMTF9LHsieCI6NDUuOTEwMTU2MjUsInkiOjIxMi42OTk5OTY5NDgyNDIyfSx7IngiOjkxLjE5OTgwMDMzMTE0NzM0LCJ5IjoyNTcuOTk5OTk2MTg1MzAyNzN9XQ==" data-look="classic" marker-end="url(#ge6e54398-c50a-4ad3-9871-5fa22c437e30-dark_flowchart-v2-pointEnd)"></path><path d="M203.074,176.2L203.074,182.283C203.074,188.367,203.074,200.533,195.997,213.695C188.92,226.857,174.767,241.014,167.69,248.093L160.613,255.171" id="ge6e54398-c50a-4ad3-9871-5fa22c437e30-dark-L_init_dev_0" class="edge-thickness-normal edge-pattern-solid edge-thickness-normal edge-pattern-solid flowchart-link" style=";" data-edge="true" data-et="edge" data-id="L_init_dev_0" data-points="W3sieCI6MjAzLjA3NDIxODc1LCJ5IjoxNzYuMTk5OTk2OTQ4MjQyMn0seyJ4IjoyMDMuMDc0MjE4NzUsInkiOjIxMi42OTk5OTY5NDgyNDIyfSx7IngiOjE1Ny43ODQ1NzQ2Njg4NTI2NiwieSI6MjU3Ljk5OTk5NjE4NTMwMjczfV0=" data-look="classic" marker-end="url(#ge6e54398-c50a-4ad3-9871-5fa22c437e30-dark_flowchart-v2-pointEnd)"></path><path d="M124.492,324.6L124.492,330.233C124.492,335.867,124.492,347.133,124.492,356.267C124.492,365.4,124.492,372.4,124.492,375.9L124.492,379.4" id="ge6e54398-c50a-4ad3-9871-5fa22c437e30-dark-L_dev_build_0" class="edge-thickness-normal edge-pattern-solid edge-thickness-normal edge-pattern-solid flowchart-link" style=";" data-edge="true" data-et="edge" data-id="L_dev_build_0" data-points="W3sieCI6MTI0LjQ5MjE4NzUsInkiOjMyNC41OTk5OTQ2NTk0MjM4fSx7IngiOjEyNC40OTIxODc1LCJ5IjozNTguMzk5OTkzODk2NDg0NH0seyJ4IjoxMjQuNDkyMTg3NSwieSI6MzgzLjM5OTk5Mzg5NjQ4NDR9XQ==" data-look="classic" marker-end="url(#ge6e54398-c50a-4ad3-9871-5fa22c437e30-dark_flowchart-v2-pointEnd)"></path><path d="M124.492,467.6L124.492,471.767C124.492,475.933,124.492,484.267,124.492,491.933C124.492,499.6,124.492,506.6,124.492,510.1L124.492,513.6" id="ge6e54398-c50a-4ad3-9871-5fa22c437e30-dark-L_build_preview_0" class="edge-thickness-normal edge-pattern-solid edge-thickness-normal edge-pattern-solid flowchart-link" style=";" data-edge="true" data-et="edge" data-id="L_build_preview_0" data-points="W3sieCI6MTI0LjQ5MjE4NzUsInkiOjQ2Ny41OTk5OTA4NDQ3MjY1Nn0seyJ4IjoxMjQuNDkyMTg3NSwieSI6NDkyLjU5OTk5MDg0NDcyNjU2fSx7IngiOjEyNC40OTIxODc1LCJ5Ijo1MTcuNTk5OTkwODQ0NzI2Nn1d" data-look="classic" marker-end="url(#ge6e54398-c50a-4ad3-9871-5fa22c437e30-dark_flowchart-v2-pointEnd)"></path><path d="M291.499,40.116L318.872,44.596C346.245,49.077,400.992,58.039,428.365,73.703C455.738,89.367,455.738,111.733,455.738,136.017C455.738,160.3,455.738,186.5,460.045,205.156C464.352,223.813,472.965,234.926,477.272,240.482L481.579,246.038" id="ge6e54398-c50a-4ad3-9871-5fa22c437e30-dark-L_start_mcp_0" class="edge-thickness-normal edge-pattern-dotted edge-thickness-normal edge-pattern-solid flowchart-link" style=";" data-edge="true" data-et="edge" data-id="L_start_mcp_0" data-points="W3sieCI6MjkxLjQ5ODkwMzUyMTg2ODQ0LCJ5Ijo0MC4xMTU1OTk1NTg4NzQ2NH0seyJ4Ijo0NTUuNzM4MjgxMjUsInkiOjY3fSx7IngiOjQ1NS43MzgyODEyNSwieSI6MTM0LjA5OTk5ODQ3NDEyMTF9LHsieCI6NDU1LjczODI4MTI1LCJ5IjoyMTIuNjk5OTk2OTQ4MjQyMn0seyJ4Ijo0ODQuMDI4OTc0Mzg4MjcxOSwieSI6MjQ5LjE5OTk5Njk0ODI0MjJ9XQ==" data-look="classic" marker-end="url(#ge6e54398-c50a-4ad3-9871-5fa22c437e30-dark_flowchart-v2-pointEnd)"></path><path d="M325.238,159.739L367.296,168.566C409.353,177.393,493.467,195.046,531.218,209.43C568.969,223.813,560.355,234.926,556.049,240.482L551.742,246.038" id="ge6e54398-c50a-4ad3-9871-5fa22c437e30-dark-L_init_mcp_0" class="edge-thickness-normal edge-pattern-dotted edge-thickness-normal edge-pattern-solid flowchart-link" style=";" data-edge="true" data-et="edge" data-id="L_init_mcp_0" data-points="W3sieCI6MzI1LjIzODI4MTI1LCJ5IjoxNTkuNzM5MjM2OTc3NTcwMDJ9LHsieCI6NTc3LjU4MjAzMTI1LCJ5IjoyMTIuNjk5OTk2OTQ4MjQyMn0seyJ4Ijo1NDkuMjkxMzM4MTExNzI4MSwieSI6MjQ5LjE5OTk5Njk0ODI0MjJ9XQ==" data-look="classic" marker-end="url(#ge6e54398-c50a-4ad3-9871-5fa22c437e30-dark_flowchart-v2-pointEnd)"></path></g><g class="edgeLabels"><g class="edgeLabel"><g class="label" data-id="L_start_init_0" transform="translate(0, 0)"><text y="-10.1" text-anchor="middle"><tspan class="text-outer-tspan row" x="0" y="-0.1em" dy="1.1em" text-anchor="middle"></tspan></text></g></g><g><rect class="background" style="stroke: none"></rect></g><g class="edgeLabel"><g class="label" data-id="L_start_dev_0" transform="translate(0, 0)"><text y="-10.1" text-anchor="middle"><tspan class="text-outer-tspan row" x="0" y="-0.1em" dy="1.1em" text-anchor="middle"></tspan></text></g></g><g><rect class="background" style="stroke: none"></rect></g><g class="edgeLabel"><g class="label" data-id="L_init_dev_0" transform="translate(0, 0)"><text y="-10.1" text-anchor="middle"><tspan class="text-outer-tspan row" x="0" y="-0.1em" dy="1.1em" text-anchor="middle"></tspan></text></g></g><g><rect class="background" style="stroke: none"></rect></g><g class="edgeLabel"><g class="label" data-id="L_dev_build_0" transform="translate(0, 0)"><text y="-10.1" text-anchor="middle"><tspan class="text-outer-tspan row" x="0" y="-0.1em" dy="1.1em" text-anchor="middle"></tspan></text></g></g><g><rect class="background" style="stroke: none"></rect></g><g class="edgeLabel"><g class="label" data-id="L_build_preview_0" transform="translate(0, 0)"><text y="-10.1" text-anchor="middle"><tspan class="text-outer-tspan row" x="0" y="-0.1em" dy="1.1em" text-anchor="middle"></tspan></text></g></g><g><rect class="background" style="stroke: none"></rect></g><g class="edgeLabel" transform="translate(455.73828125, 134.0999984741211)"><g class="label" data-id="L_start_mcp_0" transform="translate(0, -10.5)"><g><rect class="background" style="" x="-95.5" y="-1" width="191" height="23"></rect><text y="-10.1" text-anchor="middle" style=""><tspan class="text-outer-tspan row" x="0" y="-0.1em" dy="1.1em" text-anchor="middle"><tspan font-style="normal" class="text-inner-tspan" font-weight="normal">assistant</tspan><tspan font-style="normal" class="text-inner-tspan" font-weight="normal"> or</tspan><tspan font-style="normal" class="text-inner-tspan" font-weight="normal"> tooling</tspan><tspan font-style="normal" class="text-inner-tspan" font-weight="normal"> access</tspan></tspan></text></g></g></g><g class="edgeLabel" transform="translate(474.00794, 190.96234)"><g class="label" data-id="L_init_mcp_0" transform="translate(0, -10.5)"><g><rect class="background" style="" x="-101.84375" y="-1" width="203.6875" height="23"></rect><text y="-10.1" text-anchor="middle" style=""><tspan class="text-outer-tspan row" x="0" y="-0.1em" dy="1.1em" text-anchor="middle"><tspan font-style="normal" class="text-inner-tspan" font-weight="normal">project</tspan><tspan font-style="normal" class="text-inner-tspan" font-weight="normal"> metadata</tspan><tspan font-style="normal" class="text-inner-tspan" font-weight="normal"> +</tspan><tspan font-style="normal" class="text-inner-tspan" font-weight="normal"> content</tspan></tspan></text></g></g></g></g><g class="nodes"><g class="node default" id="ge6e54398-c50a-4ad3-9871-5fa22c437e30-dark-flowchart-start-0" data-look="classic" transform="translate(203.07421875, 25)"><g class="basic label-container outer-path"><path d="M-79.2578125 -17 C-16.02776344268422 -17, 47.20228561463156 -17, 79.2578125 -17 C79.2578125 -17, 79.2578125 -17, 79.2578125 -17 C79.5993042184183 -16.989049025263633, 79.9407959368366 -16.97809805052726, 80.34700623967211 -16.965071676755716 C80.75855652143414 -16.925369916035763, 81.17010680319616 -16.885668155315813, 81.4317242486366 -16.860430234995185 C81.76577664657822 -16.806423233911023, 82.09982904451985 -16.752416232826857, 82.50750918792333 -16.686505668848113 C82.79211903537654 -16.621545328419742, 83.07672888282974 -16.55658498799137, 83.56994042646163 -16.4440126716635 C83.90311046051062 -16.34512955440296, 84.23628049455961 -16.246246437142414, 84.61465220640156 -16.133947699181366 C84.9489320314402 -16.01092963351832, 85.28321185647883 -15.887911567855271, 85.63735158294936 -15.757584874882369 C85.90920163228927 -15.63724492218479, 86.18105168162917 -15.51690496948721, 86.63383606499849 -15.316470754341125 C86.98831029930665 -15.131541773354142, 87.3427845336148 -14.946612792367157, 87.60001088406693 -14.812417970097622 C87.91124726550575 -14.623744646641414, 88.22248364694457 -14.435071323185205, 88.53190582057933 -14.247497783161291 C88.78976680073103 -14.067625126029382, 89.04762778088273 -13.887752468897473, 89.42569151835067 -13.624031571755262 C89.63869060527661 -13.454170468075587, 89.85168969220253 -13.28430936439591, 90.2776952202324 -12.944581292275288 C90.57686853946674 -12.672879999438923, 90.87604185870107 -12.40117870660256, 91.08441586025927 -12.21193895166137 C91.30159145622216 -11.987687318381662, 91.51876705218504 -11.763435685101953, 91.84253845028036 -11.42911513444239 C92.05297818583725 -11.181920646697101, 92.26341792139412 -10.934726158951813, 92.54894770195651 -10.59932663159847 C92.7039657630064 -10.391616552227513, 92.85898382405627 -10.183906472856554, 93.20074082814824 -9.725983222076888 C93.4256786780127 -9.380418280414998, 93.65061652787716 -9.034853338753111, 93.79523947109088 -8.812673661278927 C94.00586094079786 -8.438693914077692, 94.21648241050482 -8.064714166876458, 94.330000708341 -7.863150934094199 C94.43095896047977 -7.653508963367506, 94.53191721261854 -7.443866992640813, 94.80282709126881 -6.881316833080699 C94.94128749831728 -6.5393169507211155, 95.07974790536575 -6.197317068361532, 95.21177567484592 -5.871205925162238 C95.31241704061297 -5.568090166495915, 95.41305840638003 -5.264974407829592, 95.55516600162323 -4.836968972727556 C95.65172686856471 -4.468740537335273, 95.74828773550617 -4.10051210194299, 95.831587007091 -3.7828558772573464 C95.88090253920845 -3.5296310426756268, 95.93021807132591 -3.2764062080939067, 96.03990281804565 -2.713198215567453 C96.09104660885188 -2.316537073558075, 96.14219039965813 -1.9198759315486973, 96.17925742013637 -1.632391440430593 C96.19792000514936 -1.3417066146858347, 96.21658259016235 -1.0510217889410765, 96.2490781754117 -0.5448768187181379 C96.2490781754117 -0.27050914547235766, 96.2490781754117 0.0038585277734225487, 96.2490781754117 0.5448768187181336 C96.22956705985845 0.8487781925487838, 96.21005594430522 1.152679566379434, 96.17925742013637 1.6323914404305815 C96.1367197032052 1.9623055729263839, 96.09418198627404 2.292219705422186, 96.03990281804565 2.7131982155674415 C95.99747030990123 2.931080176775232, 95.95503780175682 3.148962137983023, 95.831587007091 3.782855877257343 C95.72742664427483 4.180064484062198, 95.62326628145867 4.5772730908670525, 95.55516600162323 4.836968972727545 C95.48031830106409 5.062398321450122, 95.40547060050493 5.287827670172699, 95.21177567484592 5.871205925162227 C95.0886932840983 6.175221809944994, 94.96561089335069 6.479237694727762, 94.80282709126881 6.881316833080694 C94.62279535250127 7.255156590693618, 94.44276361373373 7.628996348306541, 94.330000708341 7.863150934094196 C94.20511353002134 8.084900765398869, 94.08022635170167 8.306650596703543, 93.79523947109088 8.812673661278923 C93.57591439232354 9.149615879295574, 93.3565893135562 9.486558097312223, 93.20074082814826 9.725983222076879 C93.053841851196 9.922814468420789, 92.90694287424374 10.119645714764701, 92.54894770195651 10.599326631598467 C92.40044032654873 10.773771845061496, 92.25193295114094 10.948217058524525, 91.84253845028037 11.42911513444238 C91.64470993871018 11.633389314661464, 91.44688142713999 11.83766349488055, 91.08441586025927 12.211938951661365 C90.76273900868513 12.504077357157902, 90.44106215711099 12.796215762654441, 90.27769522023242 12.944581292275275 C90.06030338880933 13.117945492795597, 89.84291155738624 13.291309693315917, 89.42569151835067 13.62403157175526 C89.1966075358272 13.783830641077868, 88.96752355330372 13.943629710400476, 88.53190582057934 14.247497783161286 C88.17653582340513 14.462925163834202, 87.82116582623092 14.678352544507117, 87.60001088406695 14.81241797009762 C87.26165266761569 14.98893923489146, 86.92329445116442 15.1654604996853, 86.63383606499849 15.316470754341124 C86.29265968523534 15.467499417024552, 85.95148330547218 15.61852807970798, 85.63735158294936 15.757584874882367 C85.28351507440965 15.887799980853812, 84.92967856586993 16.018015086825255, 84.61465220640156 16.133947699181363 C84.34485567713898 16.214021892875614, 84.07505914787642 16.294096086569866, 83.56994042646164 16.444012671663497 C83.33668576098367 16.4972515269299, 83.1034310955057 16.55049038219631, 82.50750918792333 16.68650566884811 C82.11641214047557 16.74973520647656, 81.72531509302782 16.812964744105013, 81.43172424863661 16.86043023499518 C81.18504731908178 16.884226861716925, 80.93837038952694 16.908023488438666, 80.34700623967211 16.965071676755716 C79.93875749721003 16.978163419318506, 79.53050875474796 16.99125516188129, 79.2578125 17 C79.2578125 17, 79.2578125 17, 79.2578125 17 C43.99949235346363 17, 8.74117220692726 17, -79.2578125 17 C-79.55394489090347 16.990503610610457, -79.85007728180692 16.981007221220914, -80.34700623967211 16.965071676755716 C-80.70139479242815 16.930884239285934, -81.05578334518418 16.89669680181615, -81.4317242486366 16.86043023499518 C-81.82458321985861 16.79691584319483, -82.21744219108062 16.73340145139448, -82.50750918792333 16.68650566884811 C-82.92320054913439 16.591626828291325, -83.33889191034545 16.49674798773454, -83.56994042646161 16.4440126716635 C-83.98132807265748 16.321914977690394, -84.39271571885332 16.199817283717284, -84.61465220640154 16.13394769918137 C-84.96263068026161 16.005888404123116, -85.31060915412168 15.87782910906486, -85.63735158294936 15.757584874882369 C-85.9698648114843 15.610391132264422, -86.30237804001924 15.463197389646476, -86.63383606499849 15.316470754341127 C-86.95625675934977 15.148264084618372, -87.27867745370105 14.980057414895619, -87.60001088406693 14.812417970097624 C-87.89394522287878 14.634233246559969, -88.18787956169064 14.456048523022314, -88.53190582057931 14.247497783161299 C-88.73340159671606 14.10694305233987, -88.9348973728528 13.966388321518442, -89.42569151835067 13.624031571755264 C-89.66306197734569 13.434734947399939, -89.90043243634071 13.245438323044613, -90.2776952202324 12.94458129227529 C-90.48939515535969 12.752321012466036, -90.70109509048696 12.560060732656781, -91.08441586025926 12.211938951661377 C-91.23769753926415 12.053663033428933, -91.39097921826905 11.895387115196487, -91.84253845028036 11.429115134442386 C-92.05170199143345 11.183419737261323, -92.26086553258652 10.93772434008026, -92.54894770195651 10.599326631598473 C-92.80158172461545 10.260820056668432, -93.05421574727438 9.922313481738392, -93.20074082814824 9.72598322207689 C-93.4229296558019 9.384641516746619, -93.64511848345555 9.043299811416349, -93.79523947109088 8.812673661278936 C-93.97486365254052 8.493732738194392, -94.15448783399016 8.174791815109849, -94.330000708341 7.863150934094201 C-94.50226261015835 7.505445409156225, -94.6745245119757 7.1477398842182485, -94.80282709126881 6.881316833080701 C-94.9309787775373 6.5647796903532205, -95.0591304638058 6.24824254762574, -95.21177567484592 5.87120592516224 C-95.33143307703878 5.510816894575326, -95.45109047923165 5.150427863988412, -95.55516600162323 4.8369689727275516 C-95.62096122036212 4.586063287847996, -95.686756439101 4.335157602968441, -95.831587007091 3.782855877257349 C-95.89127297737144 3.476381034501595, -95.95095894765187 3.169906191745841, -96.03990281804565 2.713198215567455 C-96.08055278132548 2.3979251276122575, -96.12120274460531 2.08265203965706, -96.17925742013637 1.6323914404306026 C-96.20093097649514 1.2948083055628656, -96.22260453285392 0.9572251706951288, -96.2490781754117 0.54487681871814 C-96.2490781754117 0.1603048868997201, -96.2490781754117 -0.22426704491869975, -96.2490781754117 -0.5448768187181317 C-96.2325479724034 -0.8023480735122044, -96.21601776939508 -1.0598193283062773, -96.17925742013637 -1.6323914404305793 C-96.13254106871632 -1.9947142368573838, -96.08582471729629 -2.3570370332841883, -96.03990281804565 -2.713198215567447 C-95.95821160931361 -3.1326653069634, -95.87652040058157 -3.5521323983593533, -95.831587007091 -3.782855877257341 C-95.75057299082273 -4.0917974329850155, -95.66955897455446 -4.400738988712691, -95.55516600162323 -4.836968972727544 C-95.44894985756477 -5.1568750753873305, -95.34273371350629 -5.4767811780471165, -95.21177567484594 -5.871205925162218 C-95.0701446580834 -6.2210372748151155, -94.92851364132086 -6.570868624468013, -94.80282709126881 -6.881316833080692 C-94.65735563653938 -7.183391421416864, -94.51188418180995 -7.485466009753036, -94.330000708341 -7.863150934094194 C-94.13857849210456 -8.203040462623271, -93.94715627586812 -8.542929991152349, -93.79523947109088 -8.812673661278929 C-93.60447931390772 -9.105732488986828, -93.41371915672455 -9.398791316694728, -93.20074082814826 -9.725983222076884 C-93.05214874591583 -9.92508307525115, -92.90355666368342 -10.124182928425416, -92.54894770195651 -10.599326631598467 C-92.36110066833372 -10.81998244609081, -92.17325363471093 -11.040638260583151, -91.84253845028037 -11.42911513444238 C-91.60726522356063 -11.672054057321658, -91.37199199684089 -11.914992980200935, -91.08441586025927 -12.21193895166136 C-90.85672068103922 -12.418725688944704, -90.62902550181916 -12.625512426228047, -90.27769522023242 -12.944581292275274 C-89.97125704685034 -13.188957580885214, -89.66481887346826 -13.433333869495154, -89.42569151835067 -13.624031571755259 C-89.1208891369224 -13.836648518357189, -88.81608675549414 -14.04926546495912, -88.53190582057934 -14.247497783161284 C-88.17937210814586 -14.461205791356516, -87.82683839571237 -14.674913799551748, -87.60001088406695 -14.812417970097618 C-87.29642910109666 -14.9707963918198, -86.9928473181264 -15.12917481354198, -86.63383606499849 -15.316470754341124 C-86.33675367161581 -15.44798031725555, -86.03967127823313 -15.579489880169977, -85.63735158294936 -15.757584874882365 C-85.24100065978664 -15.903445678434021, -84.84464973662391 -16.049306481985678, -84.61465220640156 -16.133947699181363 C-84.19884086069106 -16.257358323949944, -83.78302951498057 -16.380768948718526, -83.56994042646164 -16.444012671663494 C-83.27742661813734 -16.510777039582525, -82.98491280981305 -16.577541407501556, -82.50750918792333 -16.68650566884811 C-82.24839836362719 -16.728396697485856, -81.98928753933103 -16.770287726123605, -81.43172424863661 -16.86043023499518 C-81.03738986542972 -16.898471198686668, -80.64305548222282 -16.936512162378158, -80.34700623967213 -16.965071676755716 C-80.07562781333377 -16.973774254682326, -79.80424938699542 -16.982476832608935, -79.2578125 -17 C-79.2578125 -17, -79.2578125 -17, -79.2578125 -17" stroke="none" stroke-width="0" fill="#2d2d2d" style=""></path><path d="M-79.2578125 -17 C-25.473603030195974 -17, 28.31060643960805 -17, 79.2578125 -17 M-79.2578125 -17 C-40.768739330741276 -17, -2.2796661614825524 -17, 79.2578125 -17 M79.2578125 -17 C79.2578125 -17, 79.2578125 -17, 79.2578125 -17 M79.2578125 -17 C79.2578125 -17, 79.2578125 -17, 79.2578125 -17 M79.2578125 -17 C79.65589819910315 -16.98723416645657, 80.0539838982063 -16.974468332913137, 80.34700623967211 -16.965071676755716 M79.2578125 -17 C79.6284476588273 -16.98811445185398, 79.99908281765458 -16.976228903707963, 80.34700623967211 -16.965071676755716 M80.34700623967211 -16.965071676755716 C80.7347284591723 -16.927668580544726, 81.1224506786725 -16.890265484333735, 81.4317242486366 -16.860430234995185 M80.34700623967211 -16.965071676755716 C80.7274746149282 -16.92836835017493, 81.10794299018428 -16.891665023594143, 81.4317242486366 -16.860430234995185 M81.4317242486366 -16.860430234995185 C81.6726964731166 -16.821471714508768, 81.9136686975966 -16.782513194022354, 82.50750918792333 -16.686505668848113 M81.4317242486366 -16.860430234995185 C81.72834173248897 -16.812475420508875, 82.02495921634134 -16.764520606022568, 82.50750918792333 -16.686505668848113 M82.50750918792333 -16.686505668848113 C82.73727199837951 -16.63406380670395, 82.9670348088357 -16.58162194455978, 83.56994042646163 -16.4440126716635 M82.50750918792333 -16.686505668848113 C82.84002526903308 -16.61061104320503, 83.17254135014281 -16.534716417561945, 83.56994042646163 -16.4440126716635 M83.56994042646163 -16.4440126716635 C83.9062123331411 -16.344208934888293, 84.24248423982056 -16.244405198113085, 84.61465220640156 -16.133947699181366 M83.56994042646163 -16.4440126716635 C83.95053324632387 -16.331054720500862, 84.33112606618613 -16.218096769338228, 84.61465220640156 -16.133947699181366 M84.61465220640156 -16.133947699181366 C84.90144799038848 -16.028404199563013, 85.1882437743754 -15.92286069994466, 85.63735158294936 -15.757584874882369 M84.61465220640156 -16.133947699181366 C84.91772403794398 -16.022414463608452, 85.22079586948642 -15.910881228035539, 85.63735158294936 -15.757584874882369 M85.63735158294936 -15.757584874882369 C85.93930191117992 -15.623920421612942, 86.24125223941049 -15.490255968343515, 86.63383606499849 -15.316470754341125 M85.63735158294936 -15.757584874882369 C85.86015111687868 -15.658958130325214, 86.08295065080799 -15.560331385768057, 86.63383606499849 -15.316470754341125 M86.63383606499849 -15.316470754341125 C86.99840544266146 -15.126275143532181, 87.36297482032444 -14.936079532723237, 87.60001088406693 -14.812417970097622 M86.63383606499849 -15.316470754341125 C86.86593313100235 -15.195385863672179, 87.0980301970062 -15.074300973003234, 87.60001088406693 -14.812417970097622 M87.60001088406693 -14.812417970097622 C87.91147229903626 -14.623608229992772, 88.2229337140056 -14.434798489887921, 88.53190582057933 -14.247497783161291 M87.60001088406693 -14.812417970097622 C87.96296168427888 -14.592395062073487, 88.32591248449083 -14.372372154049351, 88.53190582057933 -14.247497783161291 M88.53190582057933 -14.247497783161291 C88.7437668283078 -14.09971271548512, 88.95562783603627 -13.95192764780895, 89.42569151835067 -13.624031571755262 M88.53190582057933 -14.247497783161291 C88.79665542593148 -14.062819919293327, 89.06140503128364 -13.878142055425362, 89.42569151835067 -13.624031571755262 M89.42569151835067 -13.624031571755262 C89.694173023268 -13.4099247161766, 89.96265452818531 -13.19581786059794, 90.2776952202324 -12.944581292275288 M89.42569151835067 -13.624031571755262 C89.64168580360808 -13.451781877111799, 89.85768008886551 -13.279532182468335, 90.2776952202324 -12.944581292275288 M90.2776952202324 -12.944581292275288 C90.48342153657832 -12.75774609498998, 90.68914785292424 -12.570910897704671, 91.08441586025927 -12.21193895166137 M90.2776952202324 -12.944581292275288 C90.4919643079184 -12.749987776088261, 90.7062333956044 -12.555394259901236, 91.08441586025927 -12.21193895166137 M91.08441586025927 -12.21193895166137 C91.27435876918727 -12.015807303590359, 91.46430167811528 -11.81967565551935, 91.84253845028036 -11.42911513444239 M91.08441586025927 -12.21193895166137 C91.29820463251446 -11.991184491923255, 91.51199340476964 -11.77043003218514, 91.84253845028036 -11.42911513444239 M91.84253845028036 -11.42911513444239 C91.99368740029404 -11.251566977137426, 92.14483635030771 -11.074018819832464, 92.54894770195651 -10.59932663159847 M91.84253845028036 -11.42911513444239 C92.0997729115628 -11.126952899164545, 92.35700737284523 -10.824790663886702, 92.54894770195651 -10.59932663159847 M92.54894770195651 -10.59932663159847 C92.75351242831461 -10.325228534508563, 92.95807715467272 -10.051130437418655, 93.20074082814824 -9.725983222076888 M92.54894770195651 -10.59932663159847 C92.79315138173062 -10.272115948114058, 93.03735506150473 -9.944905264629647, 93.20074082814824 -9.725983222076888 M93.20074082814824 -9.725983222076888 C93.34024535068491 -9.511666813251052, 93.47974987322159 -9.297350404425215, 93.79523947109088 -8.812673661278927 M93.20074082814824 -9.725983222076888 C93.40669694902961 -9.409579313440949, 93.61265306991098 -9.093175404805008, 93.79523947109088 -8.812673661278927 M93.79523947109088 -8.812673661278927 C93.94436021458394 -8.547894681094329, 94.093480958077 -8.283115700909732, 94.330000708341 -7.863150934094199 M93.79523947109088 -8.812673661278927 C94.00331238988974 -8.443219124283818, 94.21138530868859 -8.07376458728871, 94.330000708341 -7.863150934094199 M94.330000708341 -7.863150934094199 C94.43871581320175 -7.637401692720245, 94.5474309180625 -7.411652451346291, 94.80282709126881 -6.881316833080699 M94.330000708341 -7.863150934094199 C94.43536986267638 -7.644349630578047, 94.54073901701176 -7.425548327061894, 94.80282709126881 -6.881316833080699 M94.80282709126881 -6.881316833080699 C94.92111900061015 -6.589133529989116, 95.03941090995148 -6.296950226897533, 95.21177567484592 -5.871205925162238 M94.80282709126881 -6.881316833080699 C94.92387204123104 -6.582333466429086, 95.04491699119328 -6.283350099777473, 95.21177567484592 -5.871205925162238 M95.21177567484592 -5.871205925162238 C95.3322109121951 -5.508474179015726, 95.45264614954426 -5.1457424328692145, 95.55516600162323 -4.836968972727556 M95.21177567484592 -5.871205925162238 C95.32881652801879 -5.518697523333094, 95.44585738119166 -5.166189121503949, 95.55516600162323 -4.836968972727556 M95.55516600162323 -4.836968972727556 C95.62888680143955 -4.555839612231208, 95.70260760125586 -4.274710251734859, 95.831587007091 -3.7828558772573464 M95.55516600162323 -4.836968972727556 C95.65551114243925 -4.45430946093695, 95.75585628325527 -4.0716499491463445, 95.831587007091 -3.7828558772573464 M95.831587007091 -3.7828558772573464 C95.91479937487007 -3.355577955651995, 95.99801174264913 -2.928300034046644, 96.03990281804565 -2.713198215567453 M95.831587007091 -3.7828558772573464 C95.9121457512572 -3.3692037520605482, 95.99270449542338 -2.95555162686375, 96.03990281804565 -2.713198215567453 M96.03990281804565 -2.713198215567453 C96.07025185762043 -2.4778170577211553, 96.10060089719522 -2.2424358998748577, 96.17925742013637 -1.632391440430593 M96.03990281804565 -2.713198215567453 C96.09345379055284 -2.297867447637298, 96.14700476306002 -1.882536679707143, 96.17925742013637 -1.632391440430593 M96.17925742013637 -1.632391440430593 C96.19516660398313 -1.3845930603552832, 96.21107578782988 -1.136794680279973, 96.2490781754117 -0.5448768187181379 M96.17925742013637 -1.632391440430593 C96.1970557939939 -1.3551674010106796, 96.21485416785144 -1.077943361590766, 96.2490781754117 -0.5448768187181379 M96.2490781754117 -0.5448768187181379 C96.2490781754117 -0.22404248819111705, 96.2490781754117 0.09679184233590377, 96.2490781754117 0.5448768187181336 M96.2490781754117 -0.5448768187181379 C96.2490781754117 -0.18454716155899192, 96.2490781754117 0.17578249560015402, 96.2490781754117 0.5448768187181336 M96.2490781754117 0.5448768187181336 C96.22473645632313 0.9240187418046543, 96.20039473723455 1.3031606648911749, 96.17925742013637 1.6323914404305815 M96.2490781754117 0.5448768187181336 C96.22616531204142 0.901763160640593, 96.20325244867114 1.2586495025630524, 96.17925742013637 1.6323914404305815 M96.17925742013637 1.6323914404305815 C96.14473090935115 1.900172240049968, 96.11020439856594 2.1679530396693547, 96.03990281804565 2.7131982155674415 M96.17925742013637 1.6323914404305815 C96.13738266600825 1.9571637643427802, 96.09550791188012 2.281936088254979, 96.03990281804565 2.7131982155674415 M96.03990281804565 2.7131982155674415 C95.9647582838159 3.0990495170343006, 95.88961374958615 3.4849008185011603, 95.831587007091 3.782855877257343 M96.03990281804565 2.7131982155674415 C95.97640587266531 3.039241610011294, 95.91290892728499 3.3652850044551466, 95.831587007091 3.782855877257343 M95.831587007091 3.782855877257343 C95.75615164691195 4.070523599511984, 95.6807162867329 4.358191321766625, 95.55516600162323 4.836968972727545 M95.831587007091 3.782855877257343 C95.73062877527786 4.167853370735305, 95.62967054346473 4.552850864213266, 95.55516600162323 4.836968972727545 M95.55516600162323 4.836968972727545 C95.45339767821724 5.143478948246031, 95.35162935481125 5.449988923764517, 95.21177567484592 5.871205925162227 M95.55516600162323 4.836968972727545 C95.4721281236592 5.087065830866049, 95.38909024569517 5.337162689004552, 95.21177567484592 5.871205925162227 M95.21177567484592 5.871205925162227 C95.12349788769372 6.089253766163087, 95.03522010054151 6.307301607163947, 94.80282709126881 6.881316833080694 M95.21177567484592 5.871205925162227 C95.07944328146206 6.198069495293154, 94.94711088807819 6.524933065424082, 94.80282709126881 6.881316833080694 M94.80282709126881 6.881316833080694 C94.64808823757392 7.202635373659216, 94.49334938387902 7.523953914237739, 94.330000708341 7.863150934094196 M94.80282709126881 6.881316833080694 C94.69036452682515 7.114847754461351, 94.57790196238149 7.348378675842009, 94.330000708341 7.863150934094196 M94.330000708341 7.863150934094196 C94.12953216796255 8.219103127177055, 93.92906362758411 8.575055320259915, 93.79523947109088 8.812673661278923 M94.330000708341 7.863150934094196 C94.12442681963512 8.228168190104999, 93.91885293092923 8.593185446115802, 93.79523947109088 8.812673661278923 M93.79523947109088 8.812673661278923 C93.56359932554336 9.168535128928392, 93.33195917999583 9.52439659657786, 93.20074082814826 9.725983222076879 M93.79523947109088 8.812673661278923 C93.6408629178073 9.04983750303145, 93.4864863645237 9.287001344783976, 93.20074082814826 9.725983222076879 M93.20074082814826 9.725983222076879 C92.9810646372116 10.020329305019297, 92.76138844627495 10.314675387961715, 92.54894770195651 10.599326631598467 M93.20074082814826 9.725983222076879 C92.96891234997477 10.036612262820498, 92.7370838718013 10.347241303564115, 92.54894770195651 10.599326631598467 M92.54894770195651 10.599326631598467 C92.38906625542636 10.78713247620481, 92.2291848088962 10.974938320811154, 91.84253845028037 11.42911513444238 M92.54894770195651 10.599326631598467 C92.28270478142827 10.91207071570229, 92.01646186090002 11.224814799806111, 91.84253845028037 11.42911513444238 M91.84253845028037 11.42911513444238 C91.57512454241994 11.70524194939841, 91.30771063455953 11.98136876435444, 91.08441586025927 12.211938951661365 M91.84253845028037 11.42911513444238 C91.68095167046465 11.595966751123452, 91.51936489064894 11.762818367804524, 91.08441586025927 12.211938951661365 M91.08441586025927 12.211938951661365 C90.87210649908144 12.4047526960852, 90.65979713790361 12.597566440509038, 90.27769522023242 12.944581292275275 M91.08441586025927 12.211938951661365 C90.92197509596163 12.359463355849385, 90.75953433166399 12.506987760037404, 90.27769522023242 12.944581292275275 M90.27769522023242 12.944581292275275 C90.0244805390028 13.146513262230236, 89.77126585777317 13.348445232185199, 89.42569151835067 13.62403157175526 M90.27769522023242 12.944581292275275 C90.06071979299698 13.117613421536927, 89.84374436576154 13.290645550798576, 89.42569151835067 13.62403157175526 M89.42569151835067 13.62403157175526 C89.24144322232212 13.7525552070846, 89.05719492629356 13.881078842413938, 88.53190582057934 14.247497783161286 M89.42569151835067 13.62403157175526 C89.1570871359315 13.811398361234566, 88.88848275351233 13.998765150713872, 88.53190582057934 14.247497783161286 M88.53190582057934 14.247497783161286 C88.31823310645193 14.377027438145571, 88.10456039232452 14.506557093129857, 87.60001088406695 14.81241797009762 M88.53190582057934 14.247497783161286 C88.22516885672029 14.433443533239132, 87.91843189286122 14.619389283316977, 87.60001088406695 14.81241797009762 M87.60001088406695 14.81241797009762 C87.26385014196225 14.987792813932405, 86.92768939985757 15.163167657767188, 86.63383606499849 15.316470754341124 M87.60001088406695 14.81241797009762 C87.24788840845903 14.99612004007706, 86.89576593285112 15.179822110056497, 86.63383606499849 15.316470754341124 M86.63383606499849 15.316470754341124 C86.42878669234723 15.40724002904031, 86.22373731969597 15.498009303739497, 85.63735158294936 15.757584874882367 M86.63383606499849 15.316470754341124 C86.40582477279108 15.417404589686674, 86.17781348058368 15.518338425032224, 85.63735158294936 15.757584874882367 M85.63735158294936 15.757584874882367 C85.325706903431 15.872272997756964, 85.01406222391263 15.98696112063156, 84.61465220640156 16.133947699181363 M85.63735158294936 15.757584874882367 C85.32039287256602 15.874228610237639, 85.00343416218267 15.99087234559291, 84.61465220640156 16.133947699181363 M84.61465220640156 16.133947699181363 C84.28415371448767 16.23203791675942, 83.95365522257377 16.330128134337482, 83.56994042646164 16.444012671663497 M84.61465220640156 16.133947699181363 C84.30346643581001 16.226306002445494, 83.99228066521846 16.318664305709625, 83.56994042646164 16.444012671663497 M83.56994042646164 16.444012671663497 C83.16830558670243 16.53568320292627, 82.76667074694323 16.62735373418904, 82.50750918792333 16.68650566884811 M83.56994042646164 16.444012671663497 C83.30608479685343 16.504235997302676, 83.04222916724522 16.564459322941854, 82.50750918792333 16.68650566884811 M82.50750918792333 16.68650566884811 C82.2237150569696 16.732387303084355, 81.93992092601584 16.7782689373206, 81.43172424863661 16.86043023499518 M82.50750918792333 16.68650566884811 C82.19961971693591 16.736282850798847, 81.89173024594848 16.786060032749585, 81.43172424863661 16.86043023499518 M81.43172424863661 16.86043023499518 C81.10772248793903 16.89168629518055, 80.78372072724144 16.92294235536592, 80.34700623967211 16.965071676755716 M81.43172424863661 16.86043023499518 C81.04126405910185 16.898097459882518, 80.65080386956708 16.935764684769854, 80.34700623967211 16.965071676755716 M80.34700623967211 16.965071676755716 C80.02329691467142 16.975452404746513, 79.69958758967073 16.985833132737305, 79.2578125 17 M80.34700623967211 16.965071676755716 C80.01691925372428 16.975656923919722, 79.68683226777645 16.986242171083727, 79.2578125 17 M79.2578125 17 C79.2578125 17, 79.2578125 17, 79.2578125 17 M79.2578125 17 C79.2578125 17, 79.2578125 17, 79.2578125 17 M79.2578125 17 C40.55134938740683 17, 1.8448862748136605 17, -79.2578125 17 M79.2578125 17 C26.501116616086662 17, -26.255579267826676 17, -79.2578125 17 M-79.2578125 17 C-79.4777114069215 16.992948270062282, -79.69761031384301 16.985896540124568, -80.34700623967211 16.965071676755716 M-79.2578125 17 C-79.50077754632214 16.99220858386722, -79.7437425926443 16.984417167734442, -80.34700623967211 16.965071676755716 M-80.34700623967211 16.965071676755716 C-80.70050770100137 16.93096981592899, -81.05400916233063 16.896867955102266, -81.4317242486366 16.86043023499518 M-80.34700623967211 16.965071676755716 C-80.76887879355893 16.924374138858234, -81.19075134744575 16.883676600960747, -81.4317242486366 16.86043023499518 M-81.4317242486366 16.86043023499518 C-81.83717837134476 16.79487955677941, -82.24263249405294 16.729328878563635, -82.50750918792333 16.68650566884811 M-81.4317242486366 16.86043023499518 C-81.80776889106961 16.79963425347637, -82.18381353350263 16.738838271957558, -82.50750918792333 16.68650566884811 M-82.50750918792333 16.68650566884811 C-82.84750837239105 16.60890307369538, -83.18750755685876 16.53130047854265, -83.56994042646161 16.4440126716635 M-82.50750918792333 16.68650566884811 C-82.76178597023953 16.628468652595515, -83.01606275255571 16.570431636342917, -83.56994042646161 16.4440126716635 M-83.56994042646161 16.4440126716635 C-83.94113549479403 16.333843923825118, -84.31233056312644 16.22367517598673, -84.61465220640154 16.13394769918137 M-83.56994042646161 16.4440126716635 C-83.98591982765575 16.320552168909515, -84.40189922884989 16.197091666155533, -84.61465220640154 16.13394769918137 M-84.61465220640154 16.13394769918137 C-84.87945907775132 16.036496322676765, -85.1442659491011 15.939044946172162, -85.63735158294936 15.757584874882369 M-84.61465220640154 16.13394769918137 C-84.8683874953801 16.04057076733396, -85.12212278435867 15.947193835486548, -85.63735158294936 15.757584874882369 M-85.63735158294936 15.757584874882369 C-85.90853060636552 15.637541965455958, -86.17970962978167 15.517499056029544, -86.63383606499849 15.316470754341127 M-85.63735158294936 15.757584874882369 C-86.03242128286988 15.582699238053818, -86.42749098279039 15.407813601225268, -86.63383606499849 15.316470754341127 M-86.63383606499849 15.316470754341127 C-86.86534757633399 15.195691347167598, -87.09685908766949 15.074911939994069, -87.60001088406693 14.812417970097624 M-86.63383606499849 15.316470754341127 C-86.91085227602031 15.171951574488393, -87.18786848704214 15.02743239463566, -87.60001088406693 14.812417970097624 M-87.60001088406693 14.812417970097624 C-87.85536774960089 14.657619137567426, -88.11072461513486 14.502820305037227, -88.53190582057931 14.247497783161299 M-87.60001088406693 14.812417970097624 C-87.88396682091721 14.640282212468676, -88.16792275776749 14.468146454839728, -88.53190582057931 14.247497783161299 M-88.53190582057931 14.247497783161299 C-88.78265866438375 14.07258345423898, -89.0334115081882 13.897669125316664, -89.42569151835067 13.624031571755264 M-88.53190582057931 14.247497783161299 C-88.72569038363841 14.112322060769808, -88.9194749466975 13.977146338378315, -89.42569151835067 13.624031571755264 M-89.42569151835067 13.624031571755264 C-89.64337536672393 13.450434495488077, -89.8610592150972 13.276837419220891, -90.2776952202324 12.94458129227529 M-89.42569151835067 13.624031571755264 C-89.66606853382979 13.432337298611703, -89.90644554930888 13.240643025468142, -90.2776952202324 12.94458129227529 M-90.2776952202324 12.94458129227529 C-90.53945384892151 12.706859031453632, -90.80121247761062 12.469136770631975, -91.08441586025926 12.211938951661377 M-90.2776952202324 12.94458129227529 C-90.48080818259965 12.760119473927858, -90.68392114496687 12.575657655580427, -91.08441586025926 12.211938951661377 M-91.08441586025926 12.211938951661377 C-91.37855275436887 11.908218459405086, -91.67268964847848 11.604497967148797, -91.84253845028036 11.429115134442386 M-91.08441586025926 12.211938951661377 C-91.28175622851646 12.00816881949027, -91.47909659677366 11.804398687319164, -91.84253845028036 11.429115134442386 M-91.84253845028036 11.429115134442386 C-92.02949674472204 11.209503283562874, -92.2164550391637 10.989891432683361, -92.54894770195651 10.599326631598473 M-91.84253845028036 11.429115134442386 C-91.99906205545733 11.245253601356067, -92.15558566063432 11.061392068269749, -92.54894770195651 10.599326631598473 M-92.54894770195651 10.599326631598473 C-92.7666291541067 10.307653316905473, -92.98431060625688 10.015980002212471, -93.20074082814824 9.72598322207689 M-92.54894770195651 10.599326631598473 C-92.74851679506494 10.331922227951564, -92.94808588817338 10.064517824304657, -93.20074082814824 9.72598322207689 M-93.20074082814824 9.72598322207689 C-93.34023021279549 9.511690069114307, -93.47971959744274 9.297396916151726, -93.79523947109088 8.812673661278936 M-93.20074082814824 9.72598322207689 C-93.328769402214 9.529296951826028, -93.45679797627976 9.332610681575169, -93.79523947109088 8.812673661278936 M-93.79523947109088 8.812673661278936 C-93.94077440983502 8.554261640528152, -94.08630934857915 8.29584961977737, -94.330000708341 7.863150934094201 M-93.79523947109088 8.812673661278936 C-93.97822408365259 8.487765952474351, -94.16120869621432 8.162858243669769, -94.330000708341 7.863150934094201 M-94.330000708341 7.863150934094201 C-94.46304127928184 7.586889341923359, -94.59608185022267 7.310627749752517, -94.80282709126881 6.881316833080701 M-94.330000708341 7.863150934094201 C-94.44728962962523 7.619597979466624, -94.56457855090945 7.376045024839047, -94.80282709126881 6.881316833080701 M-94.80282709126881 6.881316833080701 C-94.95248961163533 6.511647514247427, -95.10215213200183 6.141978195414152, -95.21177567484592 5.87120592516224 M-94.80282709126881 6.881316833080701 C-94.96350033952508 6.484450803481785, -95.12417358778136 6.0875847738828694, -95.21177567484592 5.87120592516224 M-95.21177567484592 5.87120592516224 C-95.31488319798756 5.560662493412502, -95.41799072112919 5.250119061662763, -95.55516600162323 4.8369689727275516 M-95.21177567484592 5.87120592516224 C-95.30420417076624 5.59282602193118, -95.39663266668656 5.31444611870012, -95.55516600162323 4.8369689727275516 M-95.55516600162323 4.8369689727275516 C-95.66105564752537 4.433165860039864, -95.76694529342751 4.029362747352177, -95.831587007091 3.782855877257349 M-95.55516600162323 4.8369689727275516 C-95.61243541596741 4.618575875112016, -95.66970483031159 4.400182777496481, -95.831587007091 3.782855877257349 M-95.831587007091 3.782855877257349 C-95.89954499099792 3.433905992820265, -95.96750297490485 3.0849561083831807, -96.03990281804565 2.713198215567455 M-95.831587007091 3.782855877257349 C-95.87552733554827 3.5572315774209526, -95.91946766400555 3.3316072775845558, -96.03990281804565 2.713198215567455 M-96.03990281804565 2.713198215567455 C-96.07436737906576 2.4458978860927845, -96.10883194008588 2.1785975566181137, -96.17925742013637 1.6323914404306026 M-96.03990281804565 2.713198215567455 C-96.08353078927854 2.374828286002495, -96.12715876051143 2.036458356437535, -96.17925742013637 1.6323914404306026 M-96.17925742013637 1.6323914404306026 C-96.1996428789138 1.3148714651258904, -96.22002833769125 0.9973514898211779, -96.2490781754117 0.54487681871814 M-96.17925742013637 1.6323914404306026 C-96.20632056566284 1.2108611038780452, -96.2333837111893 0.7893307673254878, -96.2490781754117 0.54487681871814 M-96.2490781754117 0.54487681871814 C-96.2490781754117 0.18269810539733616, -96.2490781754117 -0.17948060792346765, -96.2490781754117 -0.5448768187181317 M-96.2490781754117 0.54487681871814 C-96.2490781754117 0.12281731605420354, -96.2490781754117 -0.2992421866097329, -96.2490781754117 -0.5448768187181317 M-96.2490781754117 -0.5448768187181317 C-96.23356375216653 -0.7865264837786912, -96.21804932892135 -1.0281761488392507, -96.17925742013637 -1.6323914404305793 M-96.2490781754117 -0.5448768187181317 C-96.22484959128501 -0.922256573452475, -96.2006210071583 -1.2996363281868184, -96.17925742013637 -1.6323914404305793 M-96.17925742013637 -1.6323914404305793 C-96.1395127115339 -1.9406435518708893, -96.09976800293143 -2.2488956633111994, -96.03990281804565 -2.713198215567447 M-96.17925742013637 -1.6323914404305793 C-96.13630925320403 -1.965488942082886, -96.09336108627171 -2.298586443735193, -96.03990281804565 -2.713198215567447 M-96.03990281804565 -2.713198215567447 C-95.9688793134112 -3.077888901042353, -95.89785580877674 -3.442579586517259, -95.831587007091 -3.782855877257341 M-96.03990281804565 -2.713198215567447 C-95.99647702291061 -2.936180495540833, -95.95305122777556 -3.1591627755142193, -95.831587007091 -3.782855877257341 M-95.831587007091 -3.782855877257341 C-95.77283415606794 -4.0069059618549945, -95.71408130504487 -4.230956046452648, -95.55516600162323 -4.836968972727544 M-95.831587007091 -3.782855877257341 C-95.75408271335587 -4.078413339842795, -95.67657841962074 -4.373970802428249, -95.55516600162323 -4.836968972727544 M-95.55516600162323 -4.836968972727544 C-95.48428465035191 -5.050452309347123, -95.41340329908058 -5.263935645966703, -95.21177567484594 -5.871205925162218 M-95.55516600162323 -4.836968972727544 C-95.47747270348302 -5.070968807979876, -95.39977940534281 -5.3049686432322085, -95.21177567484594 -5.871205925162218 M-95.21177567484594 -5.871205925162218 C-95.08245816169992 -6.190622682816895, -94.95314064855391 -6.510039440471573, -94.80282709126881 -6.881316833080692 M-95.21177567484594 -5.871205925162218 C-95.07178362190847 -6.216989002479994, -94.931791568971 -6.562772079797769, -94.80282709126881 -6.881316833080692 M-94.80282709126881 -6.881316833080692 C-94.70757108171455 -7.079117975072212, -94.61231507216029 -7.276919117063732, -94.330000708341 -7.863150934094194 M-94.80282709126881 -6.881316833080692 C-94.61663968985458 -7.267938955889558, -94.43045228844034 -7.654561078698423, -94.330000708341 -7.863150934094194 M-94.330000708341 -7.863150934094194 C-94.15426957353357 -8.175179358651793, -93.97853843872612 -8.487207783209392, -93.79523947109088 -8.812673661278929 M-94.330000708341 -7.863150934094194 C-94.15050819462489 -8.181858067785058, -93.97101568090878 -8.50056520147592, -93.79523947109088 -8.812673661278929 M-93.79523947109088 -8.812673661278929 C-93.61854770704517 -9.084119659235201, -93.44185594299944 -9.355565657191475, -93.20074082814826 -9.725983222076884 M-93.79523947109088 -8.812673661278929 C-93.61877806330295 -9.083765770163915, -93.44231665551503 -9.3548578790489, -93.20074082814826 -9.725983222076884 M-93.20074082814826 -9.725983222076884 C-93.0413585416671 -9.939540965936642, -92.88197625518592 -10.153098709796398, -92.54894770195651 -10.599326631598467 M-93.20074082814826 -9.725983222076884 C-93.01537106012717 -9.974361823691865, -92.83000129210608 -10.222740425306846, -92.54894770195651 -10.599326631598467 M-92.54894770195651 -10.599326631598467 C-92.31262178514643 -10.876928500809203, -92.07629586833635 -11.154530370019938, -91.84253845028037 -11.42911513444238 M-92.54894770195651 -10.599326631598467 C-92.33595673790246 -10.849517937505539, -92.12296577384842 -11.09970924341261, -91.84253845028037 -11.42911513444238 M-91.84253845028037 -11.42911513444238 C-91.5850398594139 -11.695003570539496, -91.3275412685474 -11.960892006636612, -91.08441586025927 -12.21193895166136 M-91.84253845028037 -11.42911513444238 C-91.55227449175395 -11.728836502735101, -91.26201053322752 -12.028557871027822, -91.08441586025927 -12.21193895166136 M-91.08441586025927 -12.21193895166136 C-90.80892518036393 -12.462132298058348, -90.53343450046859 -12.712325644455337, -90.27769522023242 -12.944581292275274 M-91.08441586025927 -12.21193895166136 C-90.83220710324719 -12.440988271701706, -90.57999834623509 -12.670037591742053, -90.27769522023242 -12.944581292275274 M-90.27769522023242 -12.944581292275274 C-90.09457356414353 -13.090615939934237, -89.91145190805464 -13.236650587593202, -89.42569151835067 -13.624031571755259 M-90.27769522023242 -12.944581292275274 C-89.94068861416959 -13.213335092487952, -89.60368200810676 -13.482088892700633, -89.42569151835067 -13.624031571755259 M-89.42569151835067 -13.624031571755259 C-89.23750214079439 -13.755304334951669, -89.0493127632381 -13.886577098148077, -88.53190582057934 -14.247497783161284 M-89.42569151835067 -13.624031571755259 C-89.06850289777125 -13.873190891025292, -88.71131427719183 -14.122350210295327, -88.53190582057934 -14.247497783161284 M-88.53190582057934 -14.247497783161284 C-88.3282154021389 -14.37097611183765, -88.12452498369845 -14.494454440514014, -87.60001088406695 -14.812417970097618 M-88.53190582057934 -14.247497783161284 C-88.20134058646532 -14.447888370698143, -87.87077535235132 -14.648278958235002, -87.60001088406695 -14.812417970097618 M-87.60001088406695 -14.812417970097618 C-87.27160716430707 -14.983745980343723, -86.9432034445472 -15.155073990589829, -86.63383606499849 -15.316470754341124 M-87.60001088406695 -14.812417970097618 C-87.26404141418476 -14.987693027336437, -86.92807194430257 -15.162968084575258, -86.63383606499849 -15.316470754341124 M-86.63383606499849 -15.316470754341124 C-86.27104322751839 -15.477068381626411, -85.90825039003828 -15.637666008911697, -85.63735158294936 -15.757584874882365 M-86.63383606499849 -15.316470754341124 C-86.42812398358895 -15.407533390549048, -86.22241190217939 -15.498596026756973, -85.63735158294936 -15.757584874882365 M-85.63735158294936 -15.757584874882365 C-85.38393088587613 -15.85084603400056, -85.1305101888029 -15.944107193118752, -84.61465220640156 -16.133947699181363 M-85.63735158294936 -15.757584874882365 C-85.36517318065722 -15.857749042915446, -85.09299477836507 -15.957913210948526, -84.61465220640156 -16.133947699181363 M-84.61465220640156 -16.133947699181363 C-84.40055040023253 -16.197491991409013, -84.18644859406352 -16.261036283636663, -83.56994042646164 -16.444012671663494 M-84.61465220640156 -16.133947699181363 C-84.33278650997671 -16.217603958337023, -84.05092081355188 -16.301260217492683, -83.56994042646164 -16.444012671663494 M-83.56994042646164 -16.444012671663494 C-83.35379329967287 -16.49334684286121, -83.13764617288412 -16.542681014058928, -82.50750918792333 -16.68650566884811 M-83.56994042646164 -16.444012671663494 C-83.18422569339509 -16.532049542462072, -82.79851096032854 -16.620086413260655, -82.50750918792333 -16.68650566884811 M-82.50750918792333 -16.68650566884811 C-82.09710589010787 -16.752856491313807, -81.68670259229239 -16.819207313779504, -81.43172424863661 -16.86043023499518 M-82.50750918792333 -16.68650566884811 C-82.10196481198638 -16.75207093850599, -81.69642043604941 -16.817636208163872, -81.43172424863661 -16.86043023499518 M-81.43172424863661 -16.86043023499518 C-81.10196294204702 -16.892241911645883, -80.77220163545744 -16.924053588296587, -80.34700623967213 -16.965071676755716 M-81.43172424863661 -16.86043023499518 C-81.11852754770474 -16.89064394405994, -80.80533084677288 -16.920857653124692, -80.34700623967213 -16.965071676755716 M-80.34700623967213 -16.965071676755716 C-80.06075433662315 -16.97425121813097, -79.77450243357418 -16.98343075950622, -79.2578125 -17 M-80.34700623967213 -16.965071676755716 C-80.10582848352304 -16.972805777971395, -79.86465072737397 -16.98053987918707, -79.2578125 -17 M-79.2578125 -17 C-79.2578125 -17, -79.2578125 -17, -79.2578125 -17 M-79.2578125 -17 C-79.2578125 -17, -79.2578125 -17, -79.2578125 -17" stroke="#555555" stroke-width="1.3" fill="none" stroke-dasharray="0 0" style=""></path></g><g class="label" style="" transform="translate(0, -9.5)"><rect></rect><g><rect class="background" style="stroke: none"></rect><text y="-10.1" style=""><tspan class="text-outer-tspan row" x="0" y="-0.1em" dy="1.1em"><tspan font-style="normal" class="text-inner-tspan" font-weight="normal">Project</tspan><tspan font-style="normal" class="text-inner-tspan" font-weight="normal"> or</tspan><tspan font-style="normal" class="text-inner-tspan" font-weight="normal"> existing</tspan><tspan font-style="normal" class="text-inner-tspan" font-weight="normal"> repo</tspan></tspan></text></g></g></g><g class="node default" id="ge6e54398-c50a-4ad3-9871-5fa22c437e30-dark-flowchart-init-1" data-look="classic" transform="translate(203.07421875, 134.0999984741211)"><rect class="basic label-container" style="" x="-122.1640625" y="-42.099998474121094" width="244.328125" height="84.19999694824219"></rect><g class="label" style="" transform="translate(0, -27.099998474121094)"><rect></rect><g><rect class="background" style="stroke: none"></rect><text y="-10.1" style=""><tspan class="text-outer-tspan row" x="0" y="-0.1em" dy="1.1em"><tspan font-style="normal" class="text-inner-tspan" font-weight="normal">pagesmith-docs</tspan><tspan font-style="normal" class="text-inner-tspan" font-weight="normal"> init</tspan></tspan><tspan class="text-outer-tspan row" x="0" y="1em" dy="1.1em"><tspan font-style="normal" class="text-inner-tspan" font-weight="normal">Scaffold</tspan><tspan font-style="normal" class="text-inner-tspan" font-weight="normal"> or</tspan><tspan font-style="normal" class="text-inner-tspan" font-weight="normal"> backfill</tspan><tspan font-style="normal" class="text-inner-tspan" font-weight="normal"> config</tspan></tspan><tspan class="text-outer-tspan row" x="0" y="2.1em" dy="1.1em"><tspan font-style="normal" class="text-inner-tspan" font-weight="normal">and</tspan><tspan font-style="normal" class="text-inner-tspan" font-weight="normal"> starter</tspan><tspan font-style="normal" class="text-inner-tspan" font-weight="normal"> docs</tspan></tspan></text></g></g></g><g class="node default" id="ge6e54398-c50a-4ad3-9871-5fa22c437e30-dark-flowchart-dev-2" data-look="classic" transform="translate(124.4921875, 291.2999954223633)"><rect class="basic label-container" style="" x="-115.5" y="-33.29999923706055" width="231" height="66.5999984741211"></rect><g class="label" style="" transform="translate(0, -18.299999237060547)"><rect></rect><g><rect class="background" style="stroke: none"></rect><text y="-10.1" style=""><tspan class="text-outer-tspan row" x="0" y="-0.1em" dy="1.1em"><tspan font-style="normal" class="text-inner-tspan" font-weight="normal">pagesmith-docs</tspan><tspan font-style="normal" class="text-inner-tspan" font-weight="normal"> dev</tspan></tspan><tspan class="text-outer-tspan row" x="0" y="1em" dy="1.1em"><tspan font-style="normal" class="text-inner-tspan" font-weight="normal">Live-reload</tspan><tspan font-style="normal" class="text-inner-tspan" font-weight="normal"> editing</tspan><tspan font-style="normal" class="text-inner-tspan" font-weight="normal"> loop</tspan></tspan></text></g></g></g><g class="node default" id="ge6e54398-c50a-4ad3-9871-5fa22c437e30-dark-flowchart-build-3" data-look="classic" transform="translate(124.4921875, 425.49999237060547)"><rect class="basic label-container" style="" x="-113.9765625" y="-42.099998474121094" width="227.953125" height="84.19999694824219"></rect><g class="label" style="" transform="translate(0, -27.099998474121094)"><rect></rect><g><rect class="background" style="stroke: none"></rect><text y="-10.1" style=""><tspan class="text-outer-tspan row" x="0" y="-0.1em" dy="1.1em"><tspan font-style="normal" class="text-inner-tspan" font-weight="normal">pagesmith-docs</tspan><tspan font-style="normal" class="text-inner-tspan" font-weight="normal"> build</tspan></tspan><tspan class="text-outer-tspan row" x="0" y="1em" dy="1.1em"><tspan font-style="normal" class="text-inner-tspan" font-weight="normal">Static</tspan><tspan font-style="normal" class="text-inner-tspan" font-weight="normal"> output</tspan><tspan font-style="normal" class="text-inner-tspan" font-weight="normal"> +</tspan><tspan font-style="normal" class="text-inner-tspan" font-weight="normal"> assets</tspan><tspan font-style="normal" class="text-inner-tspan" font-weight="normal"> +</tspan></tspan><tspan class="text-outer-tspan row" x="0" y="2.1em" dy="1.1em"><tspan font-style="normal" class="text-inner-tspan" font-weight="normal">Pagefind</tspan></tspan></text></g></g></g><g class="node default" id="ge6e54398-c50a-4ad3-9871-5fa22c437e30-dark-flowchart-preview-4" data-look="classic" transform="translate(124.4921875, 559.6999893188477)"><rect class="basic label-container" style="" x="-116.4921875" y="-42.099998474121094" width="232.984375" height="84.19999694824219"></rect><g class="label" style="" transform="translate(0, -27.099998474121094)"><rect></rect><g><rect class="background" style="stroke: none"></rect><text y="-10.1" style=""><tspan class="text-outer-tspan row" x="0" y="-0.1em" dy="1.1em"><tspan font-style="normal" class="text-inner-tspan" font-weight="normal">pagesmith-docs</tspan><tspan font-style="normal" class="text-inner-tspan" font-weight="normal"> preview</tspan></tspan><tspan class="text-outer-tspan row" x="0" y="1em" dy="1.1em"><tspan font-style="normal" class="text-inner-tspan" font-weight="normal">Serve</tspan><tspan font-style="normal" class="text-inner-tspan" font-weight="normal"> built</tspan><tspan font-style="normal" class="text-inner-tspan" font-weight="normal"> output</tspan><tspan font-style="normal" class="text-inner-tspan" font-weight="normal"> from</tspan></tspan><tspan class="text-outer-tspan row" x="0" y="2.1em" dy="1.1em"><tspan font-style="normal" class="text-inner-tspan" font-weight="normal">disk</tspan></tspan></text></g></g></g><g class="node default" id="ge6e54398-c50a-4ad3-9871-5fa22c437e30-dark-flowchart-mcp-5" data-look="classic" transform="translate(516.66015625, 291.2999954223633)"><rect class="basic label-container" style="" x="-128.828125" y="-42.099998474121094" width="257.65625" height="84.19999694824219"></rect><g class="label" style="" transform="translate(0, -27.099998474121094)"><rect></rect><g><rect class="background" style="stroke: none"></rect><text y="-10.1" style=""><tspan class="text-outer-tspan row" x="0" y="-0.1em" dy="1.1em"><tspan font-style="normal" class="text-inner-tspan" font-weight="normal">pagesmith-docs</tspan><tspan font-style="normal" class="text-inner-tspan" font-weight="normal"> mcp</tspan><tspan font-style="normal" class="text-inner-tspan" font-weight="normal"> --stdio</tspan></tspan><tspan class="text-outer-tspan row" x="0" y="1em" dy="1.1em"><tspan font-style="normal" class="text-inner-tspan" font-weight="normal">Expose</tspan><tspan font-style="normal" class="text-inner-tspan" font-weight="normal"> docs-aware</tspan><tspan font-style="normal" class="text-inner-tspan" font-weight="normal"> MCP</tspan></tspan><tspan class="text-outer-tspan row" x="0" y="2.1em" dy="1.1em"><tspan font-style="normal" class="text-inner-tspan" font-weight="normal">tools</tspan></tspan></text></g></g></g></g></g></g><defs><filter id="ge6e54398-c50a-4ad3-9871-5fa22c437e30-dark-drop-shadow" height="130%" width="130%"><feDropShadow dx="4" dy="4" stdDeviation="0" flood-opacity="0.06" flood-color="#000000"></feDropShadow></filter></defs><defs><filter id="ge6e54398-c50a-4ad3-9871-5fa22c437e30-dark-drop-shadow-small" height="150%" width="150%"><feDropShadow dx="2" dy="2" stdDeviation="0" flood-opacity="0.06" flood-color="#000000"></feDropShadow></filter></defs><linearGradient id="ge6e54398-c50a-4ad3-9871-5fa22c437e30-dark-gradient" gradientUnits="objectBoundingBox" x1="0%" y1="0%" x2="100%" y2="0%"><stop offset="0%" stop-color="#555555" stop-opacity="1"></stop><stop offset="100%" stop-color="#555555" stop-opacity="1"></stop></linearGradient></svg>