<svg id="ge6e54398-c50a-4ad3-9871-5fa22c437e30-light" width="100%" xmlns="http://www.w3.org/2000/svg" xmlns:xlink="http://www.w3.org/1999/xlink" class="flowchart" style="max-width: 653.48828125px;" viewBox="0 0 653.48828125 609.800048828125" role="graphics-document document" aria-roledescription="flowchart-v2"><style>#ge6e54398-c50a-4ad3-9871-5fa22c437e30-light{font-family:"trebuchet ms",verdana,arial,sans-serif;font-size:16px;fill:#333;}@keyframes edge-animation-frame{from{stroke-dashoffset:0;}}@keyframes dash{to{stroke-dashoffset:0;}}#ge6e54398-c50a-4ad3-9871-5fa22c437e30-light .edge-animation-slow{stroke-dasharray:9,5!important;stroke-dashoffset:900;animation:dash 50s linear infinite;stroke-linecap:round;}#ge6e54398-c50a-4ad3-9871-5fa22c437e30-light .edge-animation-fast{stroke-dasharray:9,5!important;stroke-dashoffset:900;animation:dash 20s linear infinite;stroke-linecap:round;}#ge6e54398-c50a-4ad3-9871-5fa22c437e30-light .error-icon{fill:#552222;}#ge6e54398-c50a-4ad3-9871-5fa22c437e30-light .error-text{fill:#552222;stroke:#552222;}#ge6e54398-c50a-4ad3-9871-5fa22c437e30-light .edge-thickness-normal{stroke-width:1px;}#ge6e54398-c50a-4ad3-9871-5fa22c437e30-light .edge-thickness-thick{stroke-width:3.5px;}#ge6e54398-c50a-4ad3-9871-5fa22c437e30-light .edge-pattern-solid{stroke-dasharray:0;}#ge6e54398-c50a-4ad3-9871-5fa22c437e30-light .edge-thickness-invisible{stroke-width:0;fill:none;}#ge6e54398-c50a-4ad3-9871-5fa22c437e30-light .edge-pattern-dashed{stroke-dasharray:3;}#ge6e54398-c50a-4ad3-9871-5fa22c437e30-light .edge-pattern-dotted{stroke-dasharray:2;}#ge6e54398-c50a-4ad3-9871-5fa22c437e30-light .marker{fill:#333333;stroke:#333333;}#ge6e54398-c50a-4ad3-9871-5fa22c437e30-light .marker.cross{stroke:#333333;}#ge6e54398-c50a-4ad3-9871-5fa22c437e30-light svg{font-family:"trebuchet ms",verdana,arial,sans-serif;font-size:16px;}#ge6e54398-c50a-4ad3-9871-5fa22c437e30-light p{margin:0;}#ge6e54398-c50a-4ad3-9871-5fa22c437e30-light .label{font-family:"trebuchet ms",verdana,arial,sans-serif;color:#333;}#ge6e54398-c50a-4ad3-9871-5fa22c437e30-light .cluster-label text{fill:#333;}#ge6e54398-c50a-4ad3-9871-5fa22c437e30-light .cluster-label span{color:#333;}#ge6e54398-c50a-4ad3-9871-5fa22c437e30-light .cluster-label span p{background-color:transparent;}#ge6e54398-c50a-4ad3-9871-5fa22c437e30-light .label text,#ge6e54398-c50a-4ad3-9871-5fa22c437e30-light span{fill:#333;color:#333;}#ge6e54398-c50a-4ad3-9871-5fa22c437e30-light .node rect,#ge6e54398-c50a-4ad3-9871-5fa22c437e30-light .node circle,#ge6e54398-c50a-4ad3-9871-5fa22c437e30-light .node ellipse,#ge6e54398-c50a-4ad3-9871-5fa22c437e30-light .node polygon,#ge6e54398-c50a-4ad3-9871-5fa22c437e30-light .node path{fill:#ECECFF;stroke:#9370DB;stroke-width:1px;}#ge6e54398-c50a-4ad3-9871-5fa22c437e30-light .rough-node .label text,#ge6e54398-c50a-4ad3-9871-5fa22c437e30-light .node .label text,#ge6e54398-c50a-4ad3-9871-5fa22c437e30-light .image-shape .label,#ge6e54398-c50a-4ad3-9871-5fa22c437e30-light .icon-shape .label{text-anchor:middle;}#ge6e54398-c50a-4ad3-9871-5fa22c437e30-light .node .katex path{fill:#000;stroke:#000;stroke-width:1px;}#ge6e54398-c50a-4ad3-9871-5fa22c437e30-light .rough-node .label,#ge6e54398-c50a-4ad3-9871-5fa22c437e30-light .node .label,#ge6e54398-c50a-4ad3-9871-5fa22c437e30-light .image-shape .label,#ge6e54398-c50a-4ad3-9871-5fa22c437e30-light .icon-shape .label{text-align:center;}#ge6e54398-c50a-4ad3-9871-5fa22c437e30-light .node.clickable{cursor:pointer;}#ge6e54398-c50a-4ad3-9871-5fa22c437e30-light .root .anchor path{fill:#333333!important;stroke-width:0;stroke:#333333;}#ge6e54398-c50a-4ad3-9871-5fa22c437e30-light .arrowheadPath{fill:#333333;}#ge6e54398-c50a-4ad3-9871-5fa22c437e30-light .edgePath .path{stroke:#333333;stroke-width:1px;}#ge6e54398-c50a-4ad3-9871-5fa22c437e30-light .flowchart-link{stroke:#333333;fill:none;}#ge6e54398-c50a-4ad3-9871-5fa22c437e30-light .edgeLabel{background-color:rgba(232,232,232, 0.8);text-align:center;}#ge6e54398-c50a-4ad3-9871-5fa22c437e30-light .edgeLabel p{background-color:rgba(232,232,232, 0.8);}#ge6e54398-c50a-4ad3-9871-5fa22c437e30-light .edgeLabel rect{opacity:0.5;background-color:rgba(232,232,232, 0.8);fill:rgba(232,232,232, 0.8);}#ge6e54398-c50a-4ad3-9871-5fa22c437e30-light .labelBkg{background-color:rgba(232, 232, 232, 0.5);}#ge6e54398-c50a-4ad3-9871-5fa22c437e30-light .cluster rect{fill:#ffffde;stroke:#aaaa33;stroke-width:1px;}#ge6e54398-c50a-4ad3-9871-5fa22c437e30-light .cluster text{fill:#333;}#ge6e54398-c50a-4ad3-9871-5fa22c437e30-light .cluster span{color:#333;}#ge6e54398-c50a-4ad3-9871-5fa22c437e30-light div.mermaidTooltip{position:absolute;text-align:center;max-width:200px;padding:2px;font-family:"trebuchet ms",verdana,arial,sans-serif;font-size:12px;background:hsl(80, 100%, 96.2745098039%);border:1px solid #aaaa33;border-radius:2px;pointer-events:none;z-index:100;}#ge6e54398-c50a-4ad3-9871-5fa22c437e30-light .flowchartTitleText{text-anchor:middle;font-size:18px;fill:#333;}#ge6e54398-c50a-4ad3-9871-5fa22c437e30-light rect.text{fill:none;stroke-width:0;}#ge6e54398-c50a-4ad3-9871-5fa22c437e30-light .icon-shape,#ge6e54398-c50a-4ad3-9871-5fa22c437e30-light .image-shape{background-color:rgba(232,232,232, 0.8);text-align:center;}#ge6e54398-c50a-4ad3-9871-5fa22c437e30-light .icon-shape p,#ge6e54398-c50a-4ad3-9871-5fa22c437e30-light .image-shape p{background-color:rgba(232,232,232, 0.8);padding:2px;}#ge6e54398-c50a-4ad3-9871-5fa22c437e30-light .icon-shape .label rect,#ge6e54398-c50a-4ad3-9871-5fa22c437e30-light .image-shape .label rect{opacity:0.5;background-color:rgba(232,232,232, 0.8);fill:rgba(232,232,232, 0.8);}#ge6e54398-c50a-4ad3-9871-5fa22c437e30-light .label-icon{display:inline-block;height:1em;overflow:visible;vertical-align:-0.125em;}#ge6e54398-c50a-4ad3-9871-5fa22c437e30-light .node .label-icon path{fill:currentColor;stroke:revert;stroke-width:revert;}#ge6e54398-c50a-4ad3-9871-5fa22c437e30-light .node .neo-node{stroke:#9370DB;}#ge6e54398-c50a-4ad3-9871-5fa22c437e30-light [data-look="neo"].node rect,#ge6e54398-c50a-4ad3-9871-5fa22c437e30-light [data-look="neo"].cluster rect,#ge6e54398-c50a-4ad3-9871-5fa22c437e30-light [data-look="neo"].node polygon{stroke:#9370DB;filter:drop-shadow(1px 2px 2px rgba(185, 185, 185, 1));}#ge6e54398-c50a-4ad3-9871-5fa22c437e30-light [data-look="neo"].node path{stroke:#9370DB;stroke-width:1px;}#ge6e54398-c50a-4ad3-9871-5fa22c437e30-light [data-look="neo"].node .outer-path{filter:drop-shadow(1px 2px 2px rgba(185, 185, 185, 1));}#ge6e54398-c50a-4ad3-9871-5fa22c437e30-light [data-look="neo"].node .neo-line path{stroke:#9370DB;filter:none;}#ge6e54398-c50a-4ad3-9871-5fa22c437e30-light [data-look="neo"].node circle{stroke:#9370DB;filter:drop-shadow(1px 2px 2px rgba(185, 185, 185, 1));}#ge6e54398-c50a-4ad3-9871-5fa22c437e30-light [data-look="neo"].node circle .state-start{fill:#000000;}#ge6e54398-c50a-4ad3-9871-5fa22c437e30-light [data-look="neo"].icon-shape .icon{fill:#9370DB;filter:drop-shadow(1px 2px 2px rgba(185, 185, 185, 1));}#ge6e54398-c50a-4ad3-9871-5fa22c437e30-light [data-look="neo"].icon-shape .icon-neo path{stroke:#9370DB;filter:drop-shadow(1px 2px 2px rgba(185, 185, 185, 1));}#ge6e54398-c50a-4ad3-9871-5fa22c437e30-light :root{--mermaid-font-family:"trebuchet ms",verdana,arial,sans-serif;}</style><g><marker id="ge6e54398-c50a-4ad3-9871-5fa22c437e30-light_flowchart-v2-pointEnd" class="marker flowchart-v2" viewBox="0 0 10 10" refX="5" refY="5" markerUnits="userSpaceOnUse" markerWidth="8" markerHeight="8" orient="auto"><path d="M 0 0 L 10 5 L 0 10 z" class="arrowMarkerPath" style="stroke-width: 1; stroke-dasharray: 1, 0;"></path></marker><marker id="ge6e54398-c50a-4ad3-9871-5fa22c437e30-light_flowchart-v2-pointStart" class="marker flowchart-v2" viewBox="0 0 10 10" refX="4.5" refY="5" markerUnits="userSpaceOnUse" markerWidth="8" markerHeight="8" orient="auto"><path d="M 0 5 L 10 10 L 10 0 z" class="arrowMarkerPath" style="stroke-width: 1; stroke-dasharray: 1, 0;"></path></marker><marker id="ge6e54398-c50a-4ad3-9871-5fa22c437e30-light_flowchart-v2-pointEnd-margin" class="marker flowchart-v2" viewBox="0 0 11.5 14" refX="11.5" refY="7" markerUnits="userSpaceOnUse" markerWidth="10.5" markerHeight="14" orient="auto"><path d="M 0 0 L 11.5 7 L 0 14 z" class="arrowMarkerPath" style="stroke-width: 0; stroke-dasharray: 1, 0;"></path></marker><marker id="ge6e54398-c50a-4ad3-9871-5fa22c437e30-light_flowchart-v2-pointStart-margin" class="marker flowchart-v2" viewBox="0 0 11.5 14" refX="1" refY="7" markerUnits="userSpaceOnUse" markerWidth="11.5" markerHeight="14" orient="auto"><polygon points="0,7 11.5,14 11.5,0" class="arrowMarkerPath" style="stroke-width: 0; stroke-dasharray: 1, 0;"></polygon></marker><marker id="ge6e54398-c50a-4ad3-9871-5fa22c437e30-light_flowchart-v2-circleEnd" class="marker flowchart-v2" viewBox="0 0 10 10" refX="11" refY="5" markerUnits="userSpaceOnUse" markerWidth="11" markerHeight="11" orient="auto"><circle cx="5" cy="5" r="5" class="arrowMarkerPath" style="stroke-width: 1; stroke-dasharray: 1, 0;"></circle></marker><marker id="ge6e54398-c50a-4ad3-9871-5fa22c437e30-light_flowchart-v2-circleStart" class="marker flowchart-v2" viewBox="0 0 10 10" refX="-1" refY="5" markerUnits="userSpaceOnUse" markerWidth="11" markerHeight="11" orient="auto"><circle cx="5" cy="5" r="5" class="arrowMarkerPath" style="stroke-width: 1; stroke-dasharray: 1, 0;"></circle></marker><marker id="ge6e54398-c50a-4ad3-9871-5fa22c437e30-light_flowchart-v2-circleEnd-margin" class="marker flowchart-v2" viewBox="0 0 10 10" refY="5" refX="12.25" markerUnits="userSpaceOnUse" markerWidth="14" markerHeight="14" orient="auto"><circle cx="5" cy="5" r="5" class="arrowMarkerPath" style="stroke-width: 0; stroke-dasharray: 1, 0;"></circle></marker><marker id="ge6e54398-c50a-4ad3-9871-5fa22c437e30-light_flowchart-v2-circleStart-margin" class="marker flowchart-v2" viewBox="0 0 10 10" refX="-2" refY="5" markerUnits="userSpaceOnUse" markerWidth="14" markerHeight="14" orient="auto"><circle cx="5" cy="5" r="5" class="arrowMarkerPath" style="stroke-width: 0; stroke-dasharray: 1, 0;"></circle></marker><marker id="ge6e54398-c50a-4ad3-9871-5fa22c437e30-light_flowchart-v2-crossEnd" class="marker cross flowchart-v2" viewBox="0 0 11 11" refX="12" refY="5.2" markerUnits="userSpaceOnUse" markerWidth="11" markerHeight="11" orient="auto"><path d="M 1,1 l 9,9 M 10,1 l -9,9" class="arrowMarkerPath" style="stroke-width: 2; stroke-dasharray: 1, 0;"></path></marker><marker id="ge6e54398-c50a-4ad3-9871-5fa22c437e30-light_flowchart-v2-crossStart" class="marker cross flowchart-v2" viewBox="0 0 11 11" refX="-1" refY="5.2" markerUnits="userSpaceOnUse" markerWidth="11" markerHeight="11" orient="auto"><path d="M 1,1 l 9,9 M 10,1 l -9,9" class="arrowMarkerPath" style="stroke-width: 2; stroke-dasharray: 1, 0;"></path></marker><marker id="ge6e54398-c50a-4ad3-9871-5fa22c437e30-light_flowchart-v2-crossEnd-margin" class="marker cross flowchart-v2" viewBox="0 0 15 15" refX="17.7" refY="7.5" markerUnits="userSpaceOnUse" markerWidth="12" markerHeight="12" orient="auto"><path d="M 1,1 L 14,14 M 1,14 L 14,1" class="arrowMarkerPath" style="stroke-width: 2.5;"></path></marker><marker id="ge6e54398-c50a-4ad3-9871-5fa22c437e30-light_flowchart-v2-crossStart-margin" class="marker cross flowchart-v2" viewBox="0 0 15 15" refX="-3.5" refY="7.5" markerUnits="userSpaceOnUse" markerWidth="12" markerHeight="12" orient="auto"><path d="M 1,1 L 14,14 M 1,14 L 14,1" class="arrowMarkerPath" style="stroke-width: 2.5; stroke-dasharray: 1, 0;"></path></marker><g class="root"><g class="clusters"></g><g class="edgePaths"><path d="M203.574,42.5L203.491,46.583C203.408,50.667,203.241,58.833,203.158,66.417C203.074,74,203.074,81,203.074,84.5L203.074,88" id="ge6e54398-c50a-4ad3-9871-5fa22c437e30-light-L_start_init_0" class="edge-thickness-normal edge-pattern-solid edge-thickness-normal edge-pattern-solid flowchart-link" style=";" data-edge="true" data-et="edge" data-id="L_start_init_0" data-points="W3sieCI6MjAzLjU3NDIxODc1LCJ5Ijo0Mi41fSx7IngiOjIwMy4wNzQyMTg3NSwieSI6Njd9LHsieCI6MjAzLjA3NDIxODc1LCJ5Ijo5Mn1d" data-look="classic" marker-end="url(#ge6e54398-c50a-4ad3-9871-5fa22c437e30-light_flowchart-v2-pointEnd)"></path><path d="M139.96,42.5L124.285,46.583C108.61,50.667,77.26,58.833,61.585,74.1C45.91,89.367,45.91,111.733,45.91,136.017C45.91,160.3,45.91,186.5,52.987,206.679C60.064,226.857,74.218,241.014,81.295,248.093L88.372,255.171" id="ge6e54398-c50a-4ad3-9871-5fa22c437e30-light-L_start_dev_0" class="edge-thickness-normal edge-pattern-solid edge-thickness-normal edge-pattern-solid flowchart-link" style=";" data-edge="true" data-et="edge" data-id="L_start_dev_0" data-points="W3sieCI6MTM5Ljk2MDE5MzQ1MjM4MDk2LCJ5Ijo0Mi41fSx7IngiOjQ1LjkxMDE1NjI1LCJ5Ijo2N30seyJ4Ijo0NS45MTAxNTYyNSwieSI6MTM0LjA5OTk5ODQ3NDEyMTF9LHsieCI6NDUuOTEwMTU2MjUsInkiOjIxMi42OTk5OTY5NDgyNDIyfSx7IngiOjkxLjE5OTgwMDMzMTE0NzM0LCJ5IjoyNTcuOTk5OTk2MTg1MzAyNzN9XQ==" data-look="classic" marker-end="url(#ge6e54398-c50a-4ad3-9871-5fa22c437e30-light_flowchart-v2-pointEnd)"></path><path d="M203.074,176.2L203.074,182.283C203.074,188.367,203.074,200.533,195.997,213.695C188.92,226.857,174.767,241.014,167.69,248.093L160.613,255.171" id="ge6e54398-c50a-4ad3-9871-5fa22c437e30-light-L_init_dev_0" class="edge-thickness-normal edge-pattern-solid edge-thickness-normal edge-pattern-solid flowchart-link" style=";" data-edge="true" data-et="edge" data-id="L_init_dev_0" data-points="W3sieCI6MjAzLjA3NDIxODc1LCJ5IjoxNzYuMTk5OTk2OTQ4MjQyMn0seyJ4IjoyMDMuMDc0MjE4NzUsInkiOjIxMi42OTk5OTY5NDgyNDIyfSx7IngiOjE1Ny43ODQ1NzQ2Njg4NTI2NiwieSI6MjU3Ljk5OTk5NjE4NTMwMjczfV0=" data-look="classic" marker-end="url(#ge6e54398-c50a-4ad3-9871-5fa22c437e30-light_flowchart-v2-pointEnd)"></path><path d="M124.492,324.6L124.492,330.233C124.492,335.867,124.492,347.133,124.492,356.267C124.492,365.4,124.492,372.4,124.492,375.9L124.492,379.4" id="ge6e54398-c50a-4ad3-9871-5fa22c437e30-light-L_dev_build_0" class="edge-thickness-normal edge-pattern-solid edge-thickness-normal edge-pattern-solid flowchart-link" style=";" data-edge="true" data-et="edge" data-id="L_dev_build_0" data-points="W3sieCI6MTI0LjQ5MjE4NzUsInkiOjMyNC41OTk5OTQ2NTk0MjM4fSx7IngiOjEyNC40OTIxODc1LCJ5IjozNTguMzk5OTkzODk2NDg0NH0seyJ4IjoxMjQuNDkyMTg3NSwieSI6MzgzLjM5OTk5Mzg5NjQ4NDR9XQ==" data-look="classic" marker-end="url(#ge6e54398-c50a-4ad3-9871-5fa22c437e30-light_flowchart-v2-pointEnd)"></path><path d="M124.492,467.6L124.492,471.767C124.492,475.933,124.492,484.267,124.492,491.933C124.492,499.6,124.492,506.6,124.492,510.1L124.492,513.6" id="ge6e54398-c50a-4ad3-9871-5fa22c437e30-light-L_build_preview_0" class="edge-thickness-normal edge-pattern-solid edge-thickness-normal edge-pattern-solid flowchart-link" style=";" data-edge="true" data-et="edge" data-id="L_build_preview_0" data-points="W3sieCI6MTI0LjQ5MjE4NzUsInkiOjQ2Ny41OTk5OTA4NDQ3MjY1Nn0seyJ4IjoxMjQuNDkyMTg3NSwieSI6NDkyLjU5OTk5MDg0NDcyNjU2fSx7IngiOjEyNC40OTIxODc1LCJ5Ijo1MTcuNTk5OTkwODQ0NzI2Nn1d" data-look="classic" marker-end="url(#ge6e54398-c50a-4ad3-9871-5fa22c437e30-light_flowchart-v2-pointEnd)"></path><path d="M291.499,40.116L318.872,44.596C346.245,49.077,400.992,58.039,428.365,73.703C455.738,89.367,455.738,111.733,455.738,136.017C455.738,160.3,455.738,186.5,460.045,205.156C464.352,223.813,472.965,234.926,477.272,240.482L481.579,246.038" id="ge6e54398-c50a-4ad3-9871-5fa22c437e30-light-L_start_mcp_0" class="edge-thickness-normal edge-pattern-dotted edge-thickness-normal edge-pattern-solid flowchart-link" style=";" data-edge="true" data-et="edge" data-id="L_start_mcp_0" data-points="W3sieCI6MjkxLjQ5ODkwMzUyMTg2ODQ0LCJ5Ijo0MC4xMTU1OTk1NTg4NzQ2NH0seyJ4Ijo0NTUuNzM4MjgxMjUsInkiOjY3fSx7IngiOjQ1NS43MzgyODEyNSwieSI6MTM0LjA5OTk5ODQ3NDEyMTF9LHsieCI6NDU1LjczODI4MTI1LCJ5IjoyMTIuNjk5OTk2OTQ4MjQyMn0seyJ4Ijo0ODQuMDI4OTc0Mzg4MjcxOSwieSI6MjQ5LjE5OTk5Njk0ODI0MjJ9XQ==" data-look="classic" marker-end="url(#ge6e54398-c50a-4ad3-9871-5fa22c437e30-light_flowchart-v2-pointEnd)"></path><path d="M325.238,159.739L367.296,168.566C409.353,177.393,493.467,195.046,531.218,209.43C568.969,223.813,560.355,234.926,556.049,240.482L551.742,246.038" id="ge6e54398-c50a-4ad3-9871-5fa22c437e30-light-L_init_mcp_0" class="edge-thickness-normal edge-pattern-dotted edge-thickness-normal edge-pattern-solid flowchart-link" style=";" data-edge="true" data-et="edge" data-id="L_init_mcp_0" data-points="W3sieCI6MzI1LjIzODI4MTI1LCJ5IjoxNTkuNzM5MjM2OTc3NTcwMDJ9LHsieCI6NTc3LjU4MjAzMTI1LCJ5IjoyMTIuNjk5OTk2OTQ4MjQyMn0seyJ4Ijo1NDkuMjkxMzM4MTExNzI4MSwieSI6MjQ5LjE5OTk5Njk0ODI0MjJ9XQ==" data-look="classic" marker-end="url(#ge6e54398-c50a-4ad3-9871-5fa22c437e30-light_flowchart-v2-pointEnd)"></path></g><g class="edgeLabels"><g class="edgeLabel"><g class="label" data-id="L_start_init_0" transform="translate(0, 0)"><text y="-10.1" text-anchor="middle"><tspan class="text-outer-tspan row" x="0" y="-0.1em" dy="1.1em" text-anchor="middle"></tspan></text></g></g><g><rect class="background" style="stroke: none"></rect></g><g class="edgeLabel"><g class="label" data-id="L_start_dev_0" transform="translate(0, 0)"><text y="-10.1" text-anchor="middle"><tspan class="text-outer-tspan row" x="0" y="-0.1em" dy="1.1em" text-anchor="middle"></tspan></text></g></g><g><rect class="background" style="stroke: none"></rect></g><g class="edgeLabel"><g class="label" data-id="L_init_dev_0" transform="translate(0, 0)"><text y="-10.1" text-anchor="middle"><tspan class="text-outer-tspan row" x="0" y="-0.1em" dy="1.1em" text-anchor="middle"></tspan></text></g></g><g><rect class="background" style="stroke: none"></rect></g><g class="edgeLabel"><g class="label" data-id="L_dev_build_0" transform="translate(0, 0)"><text y="-10.1" text-anchor="middle"><tspan class="text-outer-tspan row" x="0" y="-0.1em" dy="1.1em" text-anchor="middle"></tspan></text></g></g><g><rect class="background" style="stroke: none"></rect></g><g class="edgeLabel"><g class="label" data-id="L_build_preview_0" transform="translate(0, 0)"><text y="-10.1" text-anchor="middle"><tspan class="text-outer-tspan row" x="0" y="-0.1em" dy="1.1em" text-anchor="middle"></tspan></text></g></g><g><rect class="background" style="stroke: none"></rect></g><g class="edgeLabel" transform="translate(455.73828125, 134.0999984741211)"><g class="label" data-id="L_start_mcp_0" transform="translate(0, -10.5)"><g><rect class="background" style="" x="-95.5" y="-1" width="191" height="23"></rect><text y="-10.1" text-anchor="middle" style=""><tspan class="text-outer-tspan row" x="0" y="-0.1em" dy="1.1em" text-anchor="middle"><tspan font-style="normal" class="text-inner-tspan" font-weight="normal">assistant</tspan><tspan font-style="normal" class="text-inner-tspan" font-weight="normal"> or</tspan><tspan font-style="normal" class="text-inner-tspan" font-weight="normal"> tooling</tspan><tspan font-style="normal" class="text-inner-tspan" font-weight="normal"> access</tspan></tspan></text></g></g></g><g class="edgeLabel" transform="translate(474.00794, 190.96234)"><g class="label" data-id="L_init_mcp_0" transform="translate(0, -10.5)"><g><rect class="background" style="" x="-101.84375" y="-1" width="203.6875" height="23"></rect><text y="-10.1" text-anchor="middle" style=""><tspan class="text-outer-tspan row" x="0" y="-0.1em" dy="1.1em" text-anchor="middle"><tspan font-style="normal" class="text-inner-tspan" font-weight="normal">project</tspan><tspan font-style="normal" class="text-inner-tspan" font-weight="normal"> metadata</tspan><tspan font-style="normal" class="text-inner-tspan" font-weight="normal"> +</tspan><tspan font-style="normal" class="text-inner-tspan" font-weight="normal"> content</tspan></tspan></text></g></g></g></g><g class="nodes"><g class="node default" id="ge6e54398-c50a-4ad3-9871-5fa22c437e30-light-flowchart-start-0" data-look="classic" transform="translate(203.07421875, 25)"><g class="basic label-container outer-path"><path d="M-79.2578125 -17 C-37.07084223739833 -17, 5.116128025203338 -17, 79.2578125 -17 C79.2578125 -17, 79.2578125 -17, 79.2578125 -17 C79.55290775676238 -16.9905368694837, 79.84800301352475 -16.981073738967407, 80.34700623967211 -16.965071676755716 C80.77246589756405 -16.924028095248985, 81.19792555545598 -16.88298451374225, 81.4317242486366 -16.860430234995185 C81.75829071382988 -16.8076335014635, 82.08485717902316 -16.75483676793181, 82.50750918792333 -16.686505668848113 C82.81964394012063 -16.615262948528695, 83.13177869231792 -16.544020228209273, 83.56994042646163 -16.4440126716635 C83.81656794156333 -16.37081491975556, 84.06319545666503 -16.29761716784762, 84.61465220640156 -16.133947699181366 C84.84997648175354 -16.047346190538082, 85.08530075710553 -15.960744681894795, 85.63735158294936 -15.757584874882369 C85.85275785387473 -15.662230908543702, 86.06816412480012 -15.566876942205036, 86.63383606499849 -15.316470754341125 C86.9906284609514 -15.130332389908927, 87.34742085690431 -14.944194025476728, 87.60001088406693 -14.812417970097622 C87.91367126832839 -14.622275201885312, 88.22733165258984 -14.432132433673, 88.53190582057933 -14.247497783161291 C88.79089699064555 -14.066836754470149, 89.04988816071177 -13.886175725779006, 89.42569151835067 -13.624031571755262 C89.71145966723309 -13.396139077631359, 89.99722781611548 -13.168246583507456, 90.2776952202324 -12.944581292275288 C90.51384602683834 -12.730115377923724, 90.74999683344429 -12.515649463572162, 91.08441586025927 -12.21193895166137 C91.383789056647 -11.902811547394503, 91.68316225303474 -11.593684143127636, 91.84253845028036 -11.42911513444239 C92.09473126354065 -11.132875105809253, 92.34692407680095 -10.836635077176117, 92.54894770195651 -10.59932663159847 C92.70280290192085 -10.393174680143316, 92.85665810188519 -10.187022728688161, 93.20074082814824 -9.725983222076888 C93.34024982064642 -9.511659946189836, 93.47975881314458 -9.297336670302784, 93.79523947109088 -8.812673661278927 C93.96267179897421 -8.51538060876041, 94.13010412685755 -8.218087556241892, 94.330000708341 -7.863150934094199 C94.5115710523034 -7.48611622987329, 94.69314139626579 -7.109081525652381, 94.80282709126881 -6.881316833080699 C94.88645617891869 -6.67475136972709, 94.97008526656856 -6.468185906373483, 95.21177567484592 -5.871205925162238 C95.32809205191454 -5.5208795299295135, 95.44440842898314 -5.170553134696788, 95.55516600162323 -4.836968972727556 C95.63140024708197 -4.54625475466242, 95.7076344925407 -4.255540536597284, 95.831587007091 -3.7828558772573464 C95.91108919613171 -3.3746289393268643, 95.99059138517244 -2.966402001396382, 96.03990281804565 -2.713198215567453 C96.06898747163461 -2.487623385745853, 96.0980721252236 -2.262048555924253, 96.17925742013637 -1.632391440430593 C96.19557049637291 -1.3783021103683928, 96.21188357260944 -1.1242127803061923, 96.2490781754117 -0.5448768187181379 C96.2490781754117 -0.15974884878123496, 96.2490781754117 0.22537912115566794, 96.2490781754117 0.5448768187181336 C96.23508924422165 0.7627657136649326, 96.22110031303163 0.9806546086117316, 96.17925742013637 1.6323914404305815 C96.14252461081223 1.9172838558348686, 96.10579180148811 2.2021762712391557, 96.03990281804565 2.7131982155674415 C95.98111470491317 3.0150627516306416, 95.92232659178067 3.316927287693842, 95.831587007091 3.782855877257343 C95.76905973173959 4.021299477664821, 95.70653245638819 4.2597430780723, 95.55516600162323 4.836968972727545 C95.45515643656606 5.138181848319494, 95.35514687150888 5.439394723911443, 95.21177567484592 5.871205925162227 C95.0966454548282 6.155579794497359, 94.9815152348105 6.439953663832492, 94.80282709126881 6.881316833080694 C94.68070788515304 7.134899977512525, 94.55858867903727 7.388483121944357, 94.330000708341 7.863150934094196 C94.16361562702278 8.158584494291155, 93.99723054570455 8.454018054488115, 93.79523947109088 8.812673661278923 C93.61288215138629 9.092823474141934, 93.43052483168171 9.372973287004944, 93.20074082814826 9.725983222076879 C93.04941893074793 9.928740778884858, 92.89809703334761 10.131498335692838, 92.54894770195651 10.599326631598467 C92.36218926318925 10.818703720630696, 92.175430824422 11.038080809662924, 91.84253845028037 11.42911513444238 C91.64746433878396 11.630545170444837, 91.45239022728754 11.831975206447291, 91.08441586025927 12.211938951661365 C90.88418564273005 12.393782737420162, 90.68395542520082 12.575626523178961, 90.27769522023242 12.944581292275275 C89.93737880287405 13.215974578918365, 89.5970623855157 13.487367865561456, 89.42569151835067 13.62403157175526 C89.09094299644462 13.85753764960696, 88.75619447453859 14.09104372745866, 88.53190582057934 14.247497783161286 C88.21064160682155 14.442250037499337, 87.88937739306377 14.637002291837385, 87.60001088406695 14.81241797009762 C87.27347981789866 14.98276901816448, 86.94694875173039 15.153120066231343, 86.63383606499849 15.316470754341124 C86.3055655865599 15.46178635734813, 85.97729510812131 15.607101960355136, 85.63735158294936 15.757584874882367 C85.40464506517682 15.843223024538132, 85.17193854740428 15.928861174193898, 84.61465220640156 16.133947699181363 C84.32185464176716 16.220848479439073, 84.02905707713276 16.307749259696784, 83.56994042646164 16.444012671663497 C83.34454155912056 16.49545849226903, 83.11914269177946 16.546904312874567, 82.50750918792333 16.68650566884811 C82.22029964533472 16.732939480350566, 81.93309010274612 16.779373291853027, 81.43172424863661 16.86043023499518 C81.12961558175503 16.889574294750417, 80.82750691487345 16.918718354505653, 80.34700623967211 16.965071676755716 C80.09078897818118 16.973288065635085, 79.83457171669025 16.981504454514454, 79.2578125 17 C79.2578125 17, 79.2578125 17, 79.2578125 17 C38.53964040614991 17, -2.178531687700186 17, -79.2578125 17 C-79.6404207221988 16.98773049901581, -80.0230289443976 16.975460998031622, -80.34700623967211 16.965071676755716 C-80.65255888624166 16.935595380421972, -80.95811153281123 16.90611908408823, -81.4317242486366 16.86043023499518 C-81.85567300434475 16.791889487943994, -82.27962176005289 16.723348740892803, -82.50750918792333 16.68650566884811 C-82.74059184975856 16.633306072290733, -82.9736745115938 16.580106475733356, -83.56994042646161 16.4440126716635 C-83.9559053466066 16.329460309335676, -84.34187026675158 16.214907947007855, -84.61465220640154 16.13394769918137 C-84.99408298033617 15.994313666953799, -85.37351375427082 15.854679634726228, -85.63735158294936 15.757584874882369 C-85.86662986014501 15.656090182866297, -86.09590813734067 15.554595490850225, -86.63383606499849 15.316470754341127 C-86.91590905898373 15.169313454055406, -87.19798205296895 15.022156153769682, -87.60001088406693 14.812417970097624 C-87.80000848589023 14.691178248555977, -88.00000608771352 14.56993852701433, -88.53190582057931 14.247497783161299 C-88.85315690236106 14.023406935245546, -89.17440798414282 13.799316087329792, -89.42569151835067 13.624031571755264 C-89.6784175418103 13.422489293368134, -89.93114356526995 13.220947014981004, -90.2776952202324 12.94458129227529 C-90.58409476025751 12.666317336912071, -90.89049430028261 12.388053381548852, -91.08441586025926 12.211938951661377 C-91.23848305366545 12.05285192531766, -91.39255024707165 11.893764898973942, -91.84253845028036 11.429115134442386 C-92.032009007446 11.206552236815494, -92.22147956461166 10.9839893391886, -92.54894770195651 10.599326631598473 C-92.72223765508588 10.36713388144461, -92.89552760821526 10.134941131290747, -93.20074082814824 9.72598322207689 C-93.429284593668 9.37487862564452, -93.65782835918777 9.023774029212152, -93.79523947109088 8.812673661278936 C-93.94837126997277 8.54077264608807, -94.10150306885465 8.268871630897205, -94.330000708341 7.863150934094201 C-94.47853496015638 7.554716382075695, -94.62706921197177 7.246281830057189, -94.80282709126881 6.881316833080701 C-94.96131647170547 6.4898449992184295, -95.11980585214214 6.098373165356158, -95.21177567484592 5.87120592516224 C-95.31125267385455 5.571597053655622, -95.4107296728632 5.271988182149004, -95.55516600162323 4.8369689727275516 C-95.64081489226409 4.510352632249976, -95.72646378290493 4.183736291772401, -95.831587007091 3.782855877257349 C-95.90168650384263 3.422909776971669, -95.97178600059424 3.0629636766859893, -96.03990281804565 2.713198215567455 C-96.09284664656414 2.3025763365195173, -96.14579047508263 1.8919544574715792, -96.17925742013637 1.6323914404306026 C-96.20238794368107 1.2721148655993388, -96.22551846722577 0.911838290768075, -96.2490781754117 0.54487681871814 C-96.2490781754117 0.20103297836771677, -96.2490781754117 -0.14281086198270643, -96.2490781754117 -0.5448768187181317 C-96.23043137540284 -0.8353157802821123, -96.21178457539398 -1.125754741846093, -96.17925742013637 -1.6323914404305793 C-96.12701548129223 -2.0375696017680056, -96.0747735424481 -2.4427477631054315, -96.03990281804565 -2.713198215567447 C-95.97895886905103 -3.026132513146636, -95.91801492005641 -3.3390668107258255, -95.831587007091 -3.782855877257341 C-95.74601588644074 -4.109175647055045, -95.6604447657905 -4.435495416852749, -95.55516600162323 -4.836968972727544 C-95.42815366888645 -5.219509882263693, -95.30114133614968 -5.602050791799841, -95.21177567484594 -5.871205925162218 C-95.07069917565032 -6.219667605703951, -94.9296226764547 -6.568129286245686, -94.80282709126881 -6.881316833080692 C-94.62797166944355 -7.244407857807511, -94.45311624761831 -7.607498882534331, -94.330000708341 -7.863150934094194 C-94.13057526633403 -8.21725100039334, -93.93114982432706 -8.571351066692486, -93.79523947109088 -8.812673661278929 C-93.61636435351895 -9.08747387656398, -93.43748923594701 -9.36227409184903, -93.20074082814826 -9.725983222076884 C-92.98932743357753 -10.009257910645182, -92.77791403900682 -10.292532599213478, -92.54894770195651 -10.599326631598467 C-92.26913698677811 -10.92800821932776, -91.9893262715997 -11.25668980705705, -91.84253845028037 -11.42911513444238 C-91.59001189394127 -11.689869536678357, -91.33748533760216 -11.950623938914335, -91.08441586025927 -12.21193895166136 C-90.86684627208376 -12.409529895066509, -90.64927668390825 -12.607120838471658, -90.27769522023242 -12.944581292275274 C-89.97778274218011 -13.183753512515763, -89.67787026412782 -13.42292573275625, -89.42569151835067 -13.624031571755259 C-89.19000985679908 -13.788432896358962, -88.95432819524747 -13.952834220962666, -88.53190582057934 -14.247497783161284 C-88.27686361141062 -14.402105869153745, -88.02182140224191 -14.556713955146204, -87.60001088406695 -14.812417970097618 C-87.33579228915808 -14.950260641821485, -87.07157369424922 -15.088103313545352, -86.63383606499849 -15.316470754341124 C-86.4232181846709 -15.409705042204708, -86.21260030434333 -15.50293933006829, -85.63735158294936 -15.757584874882365 C-85.27928984839103 -15.889354903086225, -84.92122811383268 -16.021124931290085, -84.61465220640156 -16.133947699181363 C-84.24493664252118 -16.24367733786446, -83.87522107864082 -16.353406976547557, -83.56994042646164 -16.444012671663494 C-83.30767574198454 -16.503872874458384, -83.04541105750742 -16.56373307725328, -82.50750918792333 -16.68650566884811 C-82.16693448476744 -16.741567145658085, -81.82635978161156 -16.79662862246806, -81.43172424863661 -16.86043023499518 C-81.17100068169826 -16.88558192393176, -80.91027711475991 -16.910733612868338, -80.34700623967213 -16.965071676755716 C-80.02758814612598 -16.97531479330614, -79.70817005257982 -16.985557909856563, -79.2578125 -17 C-79.2578125 -17, -79.2578125 -17, -79.2578125 -17" stroke="none" stroke-width="0" fill="#ECECFF" style=""></path><path d="M-79.2578125 -17 C-43.76425461275558 -17, -8.270696725511158 -17, 79.2578125 -17 M-79.2578125 -17 C-28.47164147605713 -17, 22.31452954788574 -17, 79.2578125 -17 M79.2578125 -17 C79.2578125 -17, 79.2578125 -17, 79.2578125 -17 M79.2578125 -17 C79.2578125 -17, 79.2578125 -17, 79.2578125 -17 M79.2578125 -17 C79.62526665193234 -16.988216460553648, 79.99272080386467 -16.976432921107296, 80.34700623967211 -16.965071676755716 M79.2578125 -17 C79.59872571722515 -16.989067576670912, 79.9396389344503 -16.97813515334182, 80.34700623967211 -16.965071676755716 M80.34700623967211 -16.965071676755716 C80.71825509902598 -16.92925774578593, 81.08950395837984 -16.893443814816138, 81.4317242486366 -16.860430234995185 M80.34700623967211 -16.965071676755716 C80.66814863048812 -16.93409145654393, 80.98929102130413 -16.90311123633214, 81.4317242486366 -16.860430234995185 M81.4317242486366 -16.860430234995185 C81.70135290078626 -16.816838765517055, 81.97098155293592 -16.773247296038925, 82.50750918792333 -16.686505668848113 M81.4317242486366 -16.860430234995185 C81.77360422193853 -16.80515773223052, 82.11548419524046 -16.749885229465857, 82.50750918792333 -16.686505668848113 M82.50750918792333 -16.686505668848113 C82.84503770500532 -16.609466987403565, 83.18256622208732 -16.532428305959016, 83.56994042646163 -16.4440126716635 M82.50750918792333 -16.686505668848113 C82.88397461254527 -16.600579892344637, 83.26044003716721 -16.51465411584116, 83.56994042646163 -16.4440126716635 M83.56994042646163 -16.4440126716635 C83.84244577781088 -16.363134513792822, 84.11495112916013 -16.282256355922144, 84.61465220640156 -16.133947699181366 M83.56994042646163 -16.4440126716635 C83.86122304269591 -16.35756152013882, 84.1525056589302 -16.27111036861414, 84.61465220640156 -16.133947699181366 M84.61465220640156 -16.133947699181366 C84.96350683027552 -16.005565972818953, 85.31236145414948 -15.877184246456542, 85.63735158294936 -15.757584874882369 M84.61465220640156 -16.133947699181366 C84.88135066136415 -16.035800202421637, 85.14804911632675 -15.93765270566191, 85.63735158294936 -15.757584874882369 M85.63735158294936 -15.757584874882369 C85.89920847381866 -15.641668597003212, 86.16106536468796 -15.525752319124056, 86.63383606499849 -15.316470754341125 M85.63735158294936 -15.757584874882369 C85.86138313760586 -15.658412751295888, 86.08541469226235 -15.559240627709409, 86.63383606499849 -15.316470754341125 M86.63383606499849 -15.316470754341125 C86.94453042227443 -15.154381707159502, 87.25522477955036 -14.99229265997788, 87.60001088406693 -14.812417970097622 M86.63383606499849 -15.316470754341125 C86.87443561446985 -15.190950123493288, 87.11503516394119 -15.065429492645452, 87.60001088406693 -14.812417970097622 M87.60001088406693 -14.812417970097622 C87.96810150592081 -14.589279271989206, 88.33619212777468 -14.366140573880788, 88.53190582057933 -14.247497783161291 M87.60001088406693 -14.812417970097622 C87.9580196053371 -14.595390979370876, 88.31602832660725 -14.37836398864413, 88.53190582057933 -14.247497783161291 M88.53190582057933 -14.247497783161291 C88.81656600023113 -14.048931164576762, 89.10122617988294 -13.850364545992232, 89.42569151835067 -13.624031571755262 M88.53190582057933 -14.247497783161291 C88.81589296323578 -14.049400646049419, 89.09988010589223 -13.851303508937546, 89.42569151835067 -13.624031571755262 M89.42569151835067 -13.624031571755262 C89.6835301730812 -13.418412105982439, 89.9413688278117 -13.212792640209614, 90.2776952202324 -12.944581292275288 M89.42569151835067 -13.624031571755262 C89.75410843835702 -13.362127817591482, 90.08252535836337 -13.100224063427701, 90.2776952202324 -12.944581292275288 M90.2776952202324 -12.944581292275288 C90.56826293680464 -12.680695380084867, 90.85883065337688 -12.416809467894446, 91.08441586025927 -12.21193895166137 M90.2776952202324 -12.944581292275288 C90.49158888976848 -12.750328720918993, 90.70548255930457 -12.556076149562701, 91.08441586025927 -12.21193895166137 M91.08441586025927 -12.21193895166137 C91.29836762897061 -11.991016184700024, 91.51231939768195 -11.770093417738678, 91.84253845028036 -11.42911513444239 M91.08441586025927 -12.21193895166137 C91.26804241742404 -12.022329455368018, 91.45166897458883 -11.832719959074664, 91.84253845028036 -11.42911513444239 M91.84253845028036 -11.42911513444239 C91.99211658865612 -11.25341214186904, 92.14169472703188 -11.077709149295693, 92.54894770195651 -10.59932663159847 M91.84253845028036 -11.42911513444239 C92.00921495572861 -11.233327426981045, 92.17589146117685 -11.037539719519703, 92.54894770195651 -10.59932663159847 M92.54894770195651 -10.59932663159847 C92.78252516414102 -10.286354111615777, 93.01610262632553 -9.973381591633085, 93.20074082814824 -9.725983222076888 M92.54894770195651 -10.59932663159847 C92.68002209316663 -10.423698888499608, 92.81109648437673 -10.248071145400743, 93.20074082814824 -9.725983222076888 M93.20074082814824 -9.725983222076888 C93.39828096584205 -9.422508523624956, 93.59582110353585 -9.119033825173021, 93.79523947109088 -8.812673661278927 M93.20074082814824 -9.725983222076888 C93.40814438821177 -9.40735565816532, 93.61554794827528 -9.088728094253753, 93.79523947109088 -8.812673661278927 M93.79523947109088 -8.812673661278927 C93.99367224295932 -8.460336181329493, 94.19210501482776 -8.107998701380062, 94.330000708341 -7.863150934094199 M93.79523947109088 -8.812673661278927 C93.94471728862419 -8.547260659978194, 94.0941951061575 -8.28184765867746, 94.330000708341 -7.863150934094199 M94.330000708341 -7.863150934094199 C94.44884709281021 -7.616363873838622, 94.56769347727942 -7.369576813583045, 94.80282709126881 -6.881316833080699 M94.330000708341 -7.863150934094199 C94.43672173011332 -7.641542448919932, 94.54344275188562 -7.419933963745663, 94.80282709126881 -6.881316833080699 M94.80282709126881 -6.881316833080699 C94.9059203784168 -6.626674420652073, 95.00901366556478 -6.372032008223446, 95.21177567484592 -5.871205925162238 M94.80282709126881 -6.881316833080699 C94.9279350296427 -6.572297806499776, 95.05304296801657 -6.263278779918854, 95.21177567484592 -5.871205925162238 M95.21177567484592 -5.871205925162238 C95.28170655339369 -5.660585260948744, 95.35163743194147 -5.449964596735249, 95.55516600162323 -4.836968972727556 M95.21177567484592 -5.871205925162238 C95.32055672295266 -5.543574740171044, 95.4293377710594 -5.21594355517985, 95.55516600162323 -4.836968972727556 M95.55516600162323 -4.836968972727556 C95.62361804429203 -4.575931666728485, 95.69207008696083 -4.314894360729413, 95.831587007091 -3.7828558772573464 M95.55516600162323 -4.836968972727556 C95.6117283478355 -4.621272232344264, 95.66829069404777 -4.405575491960972, 95.831587007091 -3.7828558772573464 M95.831587007091 -3.7828558772573464 C95.88830593368809 -3.4916161767306613, 95.94502486028519 -3.200376476203976, 96.03990281804565 -2.713198215567453 M95.831587007091 -3.7828558772573464 C95.89426230951423 -3.4610314457438744, 95.95693761193748 -3.1392070142304025, 96.03990281804565 -2.713198215567453 M96.03990281804565 -2.713198215567453 C96.07077016094914 -2.473797199454283, 96.10163750385263 -2.2343961833411132, 96.17925742013637 -1.632391440430593 M96.03990281804565 -2.713198215567453 C96.07543238144007 -2.4376379379861675, 96.1109619448345 -2.1620776604048815, 96.17925742013637 -1.632391440430593 M96.17925742013637 -1.632391440430593 C96.2049757837117 -1.2318071682553486, 96.23069414728704 -0.8312228960801045, 96.2490781754117 -0.5448768187181379 M96.17925742013637 -1.632391440430593 C96.20285257427031 -1.2648778691288685, 96.22644772840425 -0.8973642978271438, 96.2490781754117 -0.5448768187181379 M96.2490781754117 -0.5448768187181379 C96.2490781754117 -0.2691843725851368, 96.2490781754117 0.006508073547864313, 96.2490781754117 0.5448768187181336 M96.2490781754117 -0.5448768187181379 C96.2490781754117 -0.1255980492561834, 96.2490781754117 0.2936807202057711, 96.2490781754117 0.5448768187181336 M96.2490781754117 0.5448768187181336 C96.22394235415962 0.9363875239889926, 96.19880653290754 1.3278982292598516, 96.17925742013637 1.6323914404305815 M96.2490781754117 0.5448768187181336 C96.2331546461302 0.7928986405188385, 96.21723111684871 1.0409204623195434, 96.17925742013637 1.6323914404305815 M96.17925742013637 1.6323914404305815 C96.13747985167166 1.9564100115288507, 96.09570228320695 2.28042858262712, 96.03990281804565 2.7131982155674415 M96.17925742013637 1.6323914404305815 C96.14212627122241 1.9203732990324995, 96.10499512230847 2.2083551576344176, 96.03990281804565 2.7131982155674415 M96.03990281804565 2.7131982155674415 C95.9848052336893 2.9961126663587074, 95.92970764933295 3.2790271171499734, 95.831587007091 3.782855877257343 M96.03990281804565 2.7131982155674415 C95.99781316033288 2.929319712270217, 95.9557235026201 3.1454412089729926, 95.831587007091 3.782855877257343 M95.831587007091 3.782855877257343 C95.74067134363035 4.129556705130574, 95.64975568016972 4.476257533003806, 95.55516600162323 4.836968972727545 M95.831587007091 3.782855877257343 C95.74442299067182 4.11525004898736, 95.65725897425264 4.447644220717377, 95.55516600162323 4.836968972727545 M95.55516600162323 4.836968972727545 C95.44686596976729 5.163151413410901, 95.33856593791133 5.489333854094258, 95.21177567484592 5.871205925162227 M95.55516600162323 4.836968972727545 C95.43858909357834 5.188080045750855, 95.32201218553345 5.539191118774165, 95.21177567484592 5.871205925162227 M95.21177567484592 5.871205925162227 C95.0684570065751 6.225205806669127, 94.92513833830427 6.579205688176026, 94.80282709126881 6.881316833080694 M95.21177567484592 5.871205925162227 C95.09483057300523 6.16006258768847, 94.97788547116454 6.448919250214714, 94.80282709126881 6.881316833080694 M94.80282709126881 6.881316833080694 C94.69556827943971 7.104042050814746, 94.58830946761061 7.326767268548798, 94.330000708341 7.863150934094196 M94.80282709126881 6.881316833080694 C94.67706913530988 7.142455919418625, 94.55131117935095 7.403595005756555, 94.330000708341 7.863150934094196 M94.330000708341 7.863150934094196 C94.21743473385659 8.063023220332207, 94.10486875937217 8.262895506570219, 93.79523947109088 8.812673661278923 M94.330000708341 7.863150934094196 C94.119957548005 8.236103834447102, 93.90991438766899 8.609056734800006, 93.79523947109088 8.812673661278923 M93.79523947109088 8.812673661278923 C93.58506787394627 9.13555367346907, 93.37489627680168 9.458433685659218, 93.20074082814826 9.725983222076879 M93.79523947109088 8.812673661278923 C93.60418178424487 9.106189574446848, 93.41312409739888 9.39970548761477, 93.20074082814826 9.725983222076879 M93.20074082814826 9.725983222076879 C92.97141105480068 10.033264225990468, 92.74208128145312 10.340545229904059, 92.54894770195651 10.599326631598467 M93.20074082814826 9.725983222076879 C93.05676699840113 9.918895037652309, 92.912793168654 10.111806853227739, 92.54894770195651 10.599326631598467 M92.54894770195651 10.599326631598467 C92.26967574085533 10.92737536813266, 91.99040377975417 11.255424104666854, 91.84253845028037 11.42911513444238 M92.54894770195651 10.599326631598467 C92.39211808380226 10.783547624940523, 92.23528846564801 10.967768618282578, 91.84253845028037 11.42911513444238 M91.84253845028037 11.42911513444238 C91.65026515711297 11.627653095568673, 91.45799186394557 11.826191056694967, 91.08441586025927 12.211938951661365 M91.84253845028037 11.42911513444238 C91.54214782535693 11.739293117204797, 91.2417572004335 12.049471099967214, 91.08441586025927 12.211938951661365 M91.08441586025927 12.211938951661365 C90.82022282778941 12.451872073585907, 90.55602979531955 12.691805195510447, 90.27769522023242 12.944581292275275 M91.08441586025927 12.211938951661365 C90.76550773810762 12.50156287035297, 90.44659961595596 12.791186789044577, 90.27769522023242 12.944581292275275 M90.27769522023242 12.944581292275275 C90.00232826440887 13.164179111722111, 89.72696130858532 13.383776931168947, 89.42569151835067 13.62403157175526 M90.27769522023242 12.944581292275275 C90.07880859801755 13.103188080896347, 89.87992197580266 13.261794869517416, 89.42569151835067 13.62403157175526 M89.42569151835067 13.62403157175526 C89.24267553053454 13.75169560222137, 89.05965954271842 13.879359632687478, 88.53190582057934 14.247497783161286 M89.42569151835067 13.62403157175526 C89.2137206089831 13.77189330205731, 89.00174969961552 13.919755032359358, 88.53190582057934 14.247497783161286 M88.53190582057934 14.247497783161286 C88.25318836243649 14.41645794421307, 87.97447090429365 14.585418105264855, 87.60001088406695 14.81241797009762 M88.53190582057934 14.247497783161286 C88.21041121637329 14.442389701542997, 87.88891661216725 14.637281619924707, 87.60001088406695 14.81241797009762 M87.60001088406695 14.81241797009762 C87.29550294657447 14.971279566040803, 86.99099500908198 15.130141161983984, 86.63383606499849 15.316470754341124 M87.60001088406695 14.81241797009762 C87.21936074917902 15.011002901650608, 86.83871061429107 15.209587833203596, 86.63383606499849 15.316470754341124 M86.63383606499849 15.316470754341124 C86.4140885667995 15.413746453215888, 86.19434106860051 15.511022152090652, 85.63735158294936 15.757584874882367 M86.63383606499849 15.316470754341124 C86.38263668243519 15.427669269436967, 86.13143729987189 15.53886778453281, 85.63735158294936 15.757584874882367 M85.63735158294936 15.757584874882367 C85.30812872604032 15.87874192952762, 84.97890586913128 15.999898984172876, 84.61465220640156 16.133947699181363 M85.63735158294936 15.757584874882367 C85.39154432618238 15.848044217589988, 85.1457370694154 15.93850356029761, 84.61465220640156 16.133947699181363 M84.61465220640156 16.133947699181363 C84.39746509537504 16.198407693695625, 84.18027798434854 16.262867688209884, 83.56994042646164 16.444012671663497 M84.61465220640156 16.133947699181363 C84.40481770424329 16.19622547797816, 84.19498320208503 16.258503256774954, 83.56994042646164 16.444012671663497 M83.56994042646164 16.444012671663497 C83.1524162840091 16.53930983257863, 82.73489214155657 16.634606993493765, 82.50750918792333 16.68650566884811 M83.56994042646164 16.444012671663497 C83.243181646935 16.51859323079014, 82.91642286740836 16.593173789916786, 82.50750918792333 16.68650566884811 M82.50750918792333 16.68650566884811 C82.22893229829597 16.731543819967015, 81.95035540866863 16.77658197108592, 81.43172424863661 16.86043023499518 M82.50750918792333 16.68650566884811 C82.17077390454901 16.740946418042945, 81.83403862117467 16.795387167237784, 81.43172424863661 16.86043023499518 M81.43172424863661 16.86043023499518 C81.00149747534766 16.90193369439097, 80.57127070205871 16.943437153786757, 80.34700623967211 16.965071676755716 M81.43172424863661 16.86043023499518 C81.00522140429156 16.901574451444432, 80.5787185599465 16.942718667893683, 80.34700623967211 16.965071676755716 M80.34700623967211 16.965071676755716 C80.08496798284442 16.973474733625654, 79.82292972601674 16.981877790495595, 79.2578125 17 M80.34700623967211 16.965071676755716 C79.97697407763268 16.97693788796841, 79.60694191559325 16.988804099181106, 79.2578125 17 M79.2578125 17 C79.2578125 17, 79.2578125 17, 79.2578125 17 M79.2578125 17 C79.2578125 17, 79.2578125 17, 79.2578125 17 M79.2578125 17 C33.90945157154522 17, -11.438909356909562 17, -79.2578125 17 M79.2578125 17 C46.654693804081376 17, 14.051575108162751 17, -79.2578125 17 M-79.2578125 17 C-79.67713049385594 16.98655328809, -80.09644848771188 16.97310657618, -80.34700623967211 16.965071676755716 M-79.2578125 17 C-79.55591228989667 16.990440519954056, -79.85401207979335 16.98088103990811, -80.34700623967211 16.965071676755716 M-80.34700623967211 16.965071676755716 C-80.61607544967468 16.93911489366984, -80.88514465967724 16.91315811058396, -81.4317242486366 16.86043023499518 M-80.34700623967211 16.965071676755716 C-80.71207051359261 16.92985436530463, -81.0771347875131 16.894637053853547, -81.4317242486366 16.86043023499518 M-81.4317242486366 16.86043023499518 C-81.75202464317486 16.808646551172895, -82.07232503771311 16.756862867350605, -82.50750918792333 16.68650566884811 M-81.4317242486366 16.86043023499518 C-81.7350089270008 16.811397520205066, -82.03829360536501 16.76236480541495, -82.50750918792333 16.68650566884811 M-82.50750918792333 16.68650566884811 C-82.89832672580299 16.597304116149854, -83.28914426368264 16.508102563451594, -83.56994042646161 16.4440126716635 M-82.50750918792333 16.68650566884811 C-82.77583768424074 16.62526144057074, -83.04416618055816 16.56401721229337, -83.56994042646161 16.4440126716635 M-83.56994042646161 16.4440126716635 C-83.85834124219393 16.358416823400926, -84.14674205792625 16.272820975138348, -84.61465220640154 16.13394769918137 M-83.56994042646161 16.4440126716635 C-83.89367395793062 16.347930258835486, -84.2174074893996 16.251847846007472, -84.61465220640154 16.13394769918137 M-84.61465220640154 16.13394769918137 C-84.85846666215275 16.044221725668805, -85.10228111790394 15.954495752156241, -85.63735158294936 15.757584874882369 M-84.61465220640154 16.13394769918137 C-84.98638474826383 15.997146687518102, -85.3581172901261 15.860345675854834, -85.63735158294936 15.757584874882369 M-85.63735158294936 15.757584874882369 C-86.00062610321781 15.596774020915294, -86.36390062348626 15.43596316694822, -86.63383606499849 15.316470754341127 M-85.63735158294936 15.757584874882369 C-85.89939903136693 15.641584242829287, -86.16144647978447 15.525583610776206, -86.63383606499849 15.316470754341127 M-86.63383606499849 15.316470754341127 C-86.98055625274186 15.13558705448029, -87.32727644048524 14.954703354619452, -87.60001088406693 14.812417970097624 M-86.63383606499849 15.316470754341127 C-86.86804239619761 15.194285461370859, -87.10224872739673 15.072100168400592, -87.60001088406693 14.812417970097624 M-87.60001088406693 14.812417970097624 C-87.89281313533179 14.634919524683847, -88.18561538659664 14.457421079270068, -88.53190582057931 14.247497783161299 M-87.60001088406693 14.812417970097624 C-87.88353029079862 14.640546839591906, -88.16704969753029 14.468675709086188, -88.53190582057931 14.247497783161299 M-88.53190582057931 14.247497783161299 C-88.7179784863961 14.117701546443389, -88.90405115221289 13.98790530972548, -89.42569151835067 13.624031571755264 M-88.53190582057931 14.247497783161299 C-88.8089110026545 14.054270959506722, -89.08591618472967 13.861044135852143, -89.42569151835067 13.624031571755264 M-89.42569151835067 13.624031571755264 C-89.5970126342232 13.487407540893283, -89.76833375009574 13.350783510031302, -90.2776952202324 12.94458129227529 M-89.42569151835067 13.624031571755264 C-89.73009094033196 13.381281133134005, -90.03449036231324 13.138530694512745, -90.2776952202324 12.94458129227529 M-90.2776952202324 12.94458129227529 C-90.47632644608228 12.764189668452675, -90.67495767193215 12.58379804463006, -91.08441586025926 12.211938951661377 M-90.2776952202324 12.94458129227529 C-90.55184311857101 12.695607424560068, -90.82599101690963 12.446633556844846, -91.08441586025926 12.211938951661377 M-91.08441586025926 12.211938951661377 C-91.30520141736476 11.983959737118594, -91.52598697447026 11.75598052257581, -91.84253845028036 11.429115134442386 M-91.08441586025926 12.211938951661377 C-91.30309338084972 11.98613645789339, -91.52177090144018 11.760333964125405, -91.84253845028036 11.429115134442386 M-91.84253845028036 11.429115134442386 C-91.99126278275327 11.25441507086546, -92.13998711522616 11.079715007288534, -92.54894770195651 10.599326631598473 M-91.84253845028036 11.429115134442386 C-92.09426698123522 11.133420478223629, -92.34599551219007 10.83772582200487, -92.54894770195651 10.599326631598473 M-92.54894770195651 10.599326631598473 C-92.74302172158775 10.339285125799515, -92.937095741219 10.079243620000558, -93.20074082814824 9.72598322207689 M-92.54894770195651 10.599326631598473 C-92.7166680333059 10.374596667226818, -92.88438836465527 10.149866702855164, -93.20074082814824 9.72598322207689 M-93.20074082814824 9.72598322207689 C-93.39131511981684 9.43320993371126, -93.58188941148542 9.140436645345627, -93.79523947109088 8.812673661278936 M-93.20074082814824 9.72598322207689 C-93.38172267533464 9.447946504367907, -93.56270452252105 9.169909786658923, -93.79523947109088 8.812673661278936 M-93.79523947109088 8.812673661278936 C-93.94730788885998 8.54266078693282, -94.0993763066291 8.272647912586706, -94.330000708341 7.863150934094201 M-93.79523947109088 8.812673661278936 C-93.97328168386872 8.496541683762858, -94.15132389664657 8.180409706246781, -94.330000708341 7.863150934094201 M-94.330000708341 7.863150934094201 C-94.45797121562502 7.5974174375887165, -94.58594172290904 7.331683941083232, -94.80282709126881 6.881316833080701 M-94.330000708341 7.863150934094201 C-94.51764509415315 7.47350335200859, -94.7052894799653 7.083855769922979, -94.80282709126881 6.881316833080701 M-94.80282709126881 6.881316833080701 C-94.93843211458585 6.546369803742846, -95.07403713790289 6.211422774404991, -95.21177567484592 5.87120592516224 M-94.80282709126881 6.881316833080701 C-94.8929590505215 6.658689151143669, -94.9830910097742 6.436061469206637, -95.21177567484592 5.87120592516224 M-95.21177567484592 5.87120592516224 C-95.34683218705159 5.464437228731765, -95.48188869925724 5.05766853230129, -95.55516600162323 4.8369689727275516 M-95.21177567484592 5.87120592516224 C-95.29293155449791 5.626777346083877, -95.37408743414991 5.382348767005513, -95.55516600162323 4.8369689727275516 M-95.55516600162323 4.8369689727275516 C-95.6112015955613 4.623280967061702, -95.66723718949935 4.409592961395853, -95.831587007091 3.782855877257349 M-95.55516600162323 4.8369689727275516 C-95.62298192153663 4.578357478492148, -95.69079784145003 4.319745984256745, -95.831587007091 3.782855877257349 M-95.831587007091 3.782855877257349 C-95.89988128151288 3.4321792121010604, -95.96817555593474 3.081502546944772, -96.03990281804565 2.713198215567455 M-95.831587007091 3.782855877257349 C-95.89358207009845 3.4645243313753458, -95.95557713310588 3.146192785493343, -96.03990281804565 2.713198215567455 M-96.03990281804565 2.713198215567455 C-96.08962219851594 2.3275845188420914, -96.13934157898622 1.9419708221167273, -96.17925742013637 1.6323914404306026 M-96.03990281804565 2.713198215567455 C-96.08992429560367 2.325241513485487, -96.13994577316168 1.9372848114035193, -96.17925742013637 1.6323914404306026 M-96.17925742013637 1.6323914404306026 C-96.19732059147562 1.351042966492303, -96.21538376281487 1.0696944925540033, -96.2490781754117 0.54487681871814 M-96.17925742013637 1.6323914404306026 C-96.20008183737738 1.3080343327347508, -96.2209062546184 0.9836772250388989, -96.2490781754117 0.54487681871814 M-96.2490781754117 0.54487681871814 C-96.2490781754117 0.20720480086244614, -96.2490781754117 -0.1304672169932477, -96.2490781754117 -0.5448768187181317 M-96.2490781754117 0.54487681871814 C-96.2490781754117 0.13174246645219845, -96.2490781754117 -0.2813918858137431, -96.2490781754117 -0.5448768187181317 M-96.2490781754117 -0.5448768187181317 C-96.22761308852856 -0.8792128732292339, -96.20614800164542 -1.2135489277403364, -96.17925742013637 -1.6323914404305793 M-96.2490781754117 -0.5448768187181317 C-96.22135925205347 -0.9766214243345994, -96.19364032869525 -1.408366029951067, -96.17925742013637 -1.6323914404305793 M-96.17925742013637 -1.6323914404305793 C-96.13560860449974 -1.97092303507471, -96.09195978886311 -2.3094546297188407, -96.03990281804565 -2.713198215567447 M-96.17925742013637 -1.6323914404305793 C-96.14098807969705 -1.9292008877418763, -96.10271873925774 -2.2260103350531733, -96.03990281804565 -2.713198215567447 M-96.03990281804565 -2.713198215567447 C-95.98592009207071 -2.9903881041955866, -95.93193736609577 -3.2675779928237265, -95.831587007091 -3.782855877257341 M-96.03990281804565 -2.713198215567447 C-95.9823215842752 -3.0088656811806476, -95.92474035050475 -3.304533146793848, -95.831587007091 -3.782855877257341 M-95.831587007091 -3.782855877257341 C-95.73317262082259 -4.158152585163652, -95.63475823455416 -4.533449293069963, -95.55516600162323 -4.836968972727544 M-95.831587007091 -3.782855877257341 C-95.77169477508254 -4.011250915363176, -95.71180254307407 -4.23964595346901, -95.55516600162323 -4.836968972727544 M-95.55516600162323 -4.836968972727544 C-95.47342535827627 -5.0831587668857265, -95.39168471492931 -5.32934856104391, -95.21177567484594 -5.871205925162218 M-95.55516600162323 -4.836968972727544 C-95.47217828660406 -5.08691474806851, -95.3891905715849 -5.336860523409478, -95.21177567484594 -5.871205925162218 M-95.21177567484594 -5.871205925162218 C-95.11856449317793 -6.101439345997811, -95.0253533115099 -6.331672766833404, -94.80282709126881 -6.881316833080692 M-95.21177567484594 -5.871205925162218 C-95.12619379921628 -6.082594812580453, -95.04061192358664 -6.293983699998687, -94.80282709126881 -6.881316833080692 M-94.80282709126881 -6.881316833080692 C-94.64967288468121 -7.199344820034907, -94.49651867809361 -7.51737280698912, -94.330000708341 -7.863150934094194 M-94.80282709126881 -6.881316833080692 C-94.69956819462074 -7.095736141356869, -94.59630929797267 -7.310155449633045, -94.330000708341 -7.863150934094194 M-94.330000708341 -7.863150934094194 C-94.20614244663004 -8.083073819771007, -94.08228418491909 -8.302996705447821, -93.79523947109088 -8.812673661278929 M-94.330000708341 -7.863150934094194 C-94.14047993938021 -8.199664250442941, -93.95095917041942 -8.53617756679169, -93.79523947109088 -8.812673661278929 M-93.79523947109088 -8.812673661278929 C-93.61696424934546 -9.086552275479868, -93.43868902760005 -9.360430889680806, -93.20074082814826 -9.725983222076884 M-93.79523947109088 -8.812673661278929 C-93.64893720865882 -9.037433224032833, -93.50263494622676 -9.262192786786738, -93.20074082814826 -9.725983222076884 M-93.20074082814826 -9.725983222076884 C-93.03736640680775 -9.944890062957192, -92.87399198546724 -10.163796903837502, -92.54894770195651 -10.599326631598467 M-93.20074082814826 -9.725983222076884 C-92.96410728825434 -10.043050607775767, -92.72747374836041 -10.360117993474649, -92.54894770195651 -10.599326631598467 M-92.54894770195651 -10.599326631598467 C-92.28585099997349 -10.908374988374167, -92.02275429799046 -11.217423345149868, -91.84253845028037 -11.42911513444238 M-92.54894770195651 -10.599326631598467 C-92.4013083266564 -10.772752242744417, -92.25366895135629 -10.946177853890365, -91.84253845028037 -11.42911513444238 M-91.84253845028037 -11.42911513444238 C-91.65964238140548 -11.61797034160222, -91.47674631253058 -11.80682554876206, -91.08441586025927 -12.21193895166136 M-91.84253845028037 -11.42911513444238 C-91.67548570998017 -11.601610804087393, -91.50843296967994 -11.774106473732408, -91.08441586025927 -12.21193895166136 M-91.08441586025927 -12.21193895166136 C-90.76316678760381 -12.503688859662363, -90.44191771494835 -12.795438767663367, -90.27769522023242 -12.944581292275274 M-91.08441586025927 -12.21193895166136 C-90.79881361970472 -12.471315349911817, -90.51321137915015 -12.730691748162277, -90.27769522023242 -12.944581292275274 M-90.27769522023242 -12.944581292275274 C-90.08995867456571 -13.094296191565174, -89.90222212889901 -13.244011090855075, -89.42569151835067 -13.624031571755259 M-90.27769522023242 -12.944581292275274 C-90.06830050373337 -13.111568006455837, -89.85890578723432 -13.278554720636402, -89.42569151835067 -13.624031571755259 M-89.42569151835067 -13.624031571755259 C-89.24588128650957 -13.749459405628132, -89.06607105466847 -13.874887239501007, -88.53190582057934 -14.247497783161284 M-89.42569151835067 -13.624031571755259 C-89.14732914460578 -13.818205113566757, -88.86896677086088 -14.012378655378253, -88.53190582057934 -14.247497783161284 M-88.53190582057934 -14.247497783161284 C-88.2590977621669 -14.41287563136901, -87.98628970375445 -14.578253479576736, -87.60001088406695 -14.812417970097618 M-88.53190582057934 -14.247497783161284 C-88.16990721215859 -14.466943466925896, -87.80790860373784 -14.686389150690506, -87.60001088406695 -14.812417970097618 M-87.60001088406695 -14.812417970097618 C-87.3605176686492 -14.937361427178331, -87.12102445323146 -15.062304884259042, -86.63383606499849 -15.316470754341124 M-87.60001088406695 -14.812417970097618 C-87.33402514665113 -14.951182558935452, -87.06803940923531 -15.089947147773287, -86.63383606499849 -15.316470754341124 M-86.63383606499849 -15.316470754341124 C-86.39822500732608 -15.420768780419, -86.16261394965366 -15.525066806496875, -85.63735158294936 -15.757584874882365 M-86.63383606499849 -15.316470754341124 C-86.34085836455769 -15.446163291451569, -86.04788066411689 -15.575855828562014, -85.63735158294936 -15.757584874882365 M-85.63735158294936 -15.757584874882365 C-85.27466890040039 -15.891055454662357, -84.91198621785139 -16.02452603444235, -84.61465220640156 -16.133947699181363 M-85.63735158294936 -15.757584874882365 C-85.3266931497586 -15.871910049991646, -85.01603471656783 -15.986235225100925, -84.61465220640156 -16.133947699181363 M-84.61465220640156 -16.133947699181363 C-84.29863997033283 -16.227738472064484, -83.9826277342641 -16.32152924494761, -83.56994042646164 -16.444012671663494 M-84.61465220640156 -16.133947699181363 C-84.30400899190643 -16.226144974644008, -83.99336577741131 -16.318342250106653, -83.56994042646164 -16.444012671663494 M-83.56994042646164 -16.444012671663494 C-83.25658286686443 -16.51553448979238, -82.94322530726723 -16.587056307921266, -82.50750918792333 -16.68650566884811 M-83.56994042646164 -16.444012671663494 C-83.35362251875009 -16.49338582249239, -83.13730461103853 -16.542758973321284, -82.50750918792333 -16.68650566884811 M-82.50750918792333 -16.68650566884811 C-82.24906691076237 -16.728288611969703, -81.99062463360139 -16.770071555091295, -81.43172424863661 -16.86043023499518 M-82.50750918792333 -16.68650566884811 C-82.1778263125361 -16.739806239411834, -81.84814343714886 -16.79310680997556, -81.43172424863661 -16.86043023499518 M-81.43172424863661 -16.86043023499518 C-81.02726704384102 -16.899447735110858, -80.62280983904543 -16.93846523522653, -80.34700623967213 -16.965071676755716 M-81.43172424863661 -16.86043023499518 C-81.21269099518544 -16.881560109529588, -80.99365774173428 -16.902689984063993, -80.34700623967213 -16.965071676755716 M-80.34700623967213 -16.965071676755716 C-80.06802487004316 -16.974018066275423, -79.7890435004142 -16.98296445579513, -79.2578125 -17 M-80.34700623967213 -16.965071676755716 C-79.95653044832473 -16.977593475369208, -79.56605465697734 -16.9901152739827, -79.2578125 -17 M-79.2578125 -17 C-79.2578125 -17, -79.2578125 -17, -79.2578125 -17 M-79.2578125 -17 C-79.2578125 -17, -79.2578125 -17, -79.2578125 -17" stroke="#9370DB" stroke-width="1.3" fill="none" stroke-dasharray="0 0" style=""></path></g><g class="label" style="" transform="translate(0, -9.5)"><rect></rect><g><rect class="background" style="stroke: none"></rect><text y="-10.1" style=""><tspan class="text-outer-tspan row" x="0" y="-0.1em" dy="1.1em"><tspan font-style="normal" class="text-inner-tspan" font-weight="normal">Project</tspan><tspan font-style="normal" class="text-inner-tspan" font-weight="normal"> or</tspan><tspan font-style="normal" class="text-inner-tspan" font-weight="normal"> existing</tspan><tspan font-style="normal" class="text-inner-tspan" font-weight="normal"> repo</tspan></tspan></text></g></g></g><g class="node default" id="ge6e54398-c50a-4ad3-9871-5fa22c437e30-light-flowchart-init-1" data-look="classic" transform="translate(203.07421875, 134.0999984741211)"><rect class="basic label-container" style="" x="-122.1640625" y="-42.099998474121094" width="244.328125" height="84.19999694824219"></rect><g class="label" style="" transform="translate(0, -27.099998474121094)"><rect></rect><g><rect class="background" style="stroke: none"></rect><text y="-10.1" style=""><tspan class="text-outer-tspan row" x="0" y="-0.1em" dy="1.1em"><tspan font-style="normal" class="text-inner-tspan" font-weight="normal">pagesmith-docs</tspan><tspan font-style="normal" class="text-inner-tspan" font-weight="normal"> init</tspan></tspan><tspan class="text-outer-tspan row" x="0" y="1em" dy="1.1em"><tspan font-style="normal" class="text-inner-tspan" font-weight="normal">Scaffold</tspan><tspan font-style="normal" class="text-inner-tspan" font-weight="normal"> or</tspan><tspan font-style="normal" class="text-inner-tspan" font-weight="normal"> backfill</tspan><tspan font-style="normal" class="text-inner-tspan" font-weight="normal"> config</tspan></tspan><tspan class="text-outer-tspan row" x="0" y="2.1em" dy="1.1em"><tspan font-style="normal" class="text-inner-tspan" font-weight="normal">and</tspan><tspan font-style="normal" class="text-inner-tspan" font-weight="normal"> starter</tspan><tspan font-style="normal" class="text-inner-tspan" font-weight="normal"> docs</tspan></tspan></text></g></g></g><g class="node default" id="ge6e54398-c50a-4ad3-9871-5fa22c437e30-light-flowchart-dev-2" data-look="classic" transform="translate(124.4921875, 291.2999954223633)"><rect class="basic label-container" style="" x="-115.5" y="-33.29999923706055" width="231" height="66.5999984741211"></rect><g class="label" style="" transform="translate(0, -18.299999237060547)"><rect></rect><g><rect class="background" style="stroke: none"></rect><text y="-10.1" style=""><tspan class="text-outer-tspan row" x="0" y="-0.1em" dy="1.1em"><tspan font-style="normal" class="text-inner-tspan" font-weight="normal">pagesmith-docs</tspan><tspan font-style="normal" class="text-inner-tspan" font-weight="normal"> dev</tspan></tspan><tspan class="text-outer-tspan row" x="0" y="1em" dy="1.1em"><tspan font-style="normal" class="text-inner-tspan" font-weight="normal">Live-reload</tspan><tspan font-style="normal" class="text-inner-tspan" font-weight="normal"> editing</tspan><tspan font-style="normal" class="text-inner-tspan" font-weight="normal"> loop</tspan></tspan></text></g></g></g><g class="node default" id="ge6e54398-c50a-4ad3-9871-5fa22c437e30-light-flowchart-build-3" data-look="classic" transform="translate(124.4921875, 425.49999237060547)"><rect class="basic label-container" style="" x="-113.9765625" y="-42.099998474121094" width="227.953125" height="84.19999694824219"></rect><g class="label" style="" transform="translate(0, -27.099998474121094)"><rect></rect><g><rect class="background" style="stroke: none"></rect><text y="-10.1" style=""><tspan class="text-outer-tspan row" x="0" y="-0.1em" dy="1.1em"><tspan font-style="normal" class="text-inner-tspan" font-weight="normal">pagesmith-docs</tspan><tspan font-style="normal" class="text-inner-tspan" font-weight="normal"> build</tspan></tspan><tspan class="text-outer-tspan row" x="0" y="1em" dy="1.1em"><tspan font-style="normal" class="text-inner-tspan" font-weight="normal">Static</tspan><tspan font-style="normal" class="text-inner-tspan" font-weight="normal"> output</tspan><tspan font-style="normal" class="text-inner-tspan" font-weight="normal"> +</tspan><tspan font-style="normal" class="text-inner-tspan" font-weight="normal"> assets</tspan><tspan font-style="normal" class="text-inner-tspan" font-weight="normal"> +</tspan></tspan><tspan class="text-outer-tspan row" x="0" y="2.1em" dy="1.1em"><tspan font-style="normal" class="text-inner-tspan" font-weight="normal">Pagefind</tspan></tspan></text></g></g></g><g class="node default" id="ge6e54398-c50a-4ad3-9871-5fa22c437e30-light-flowchart-preview-4" data-look="classic" transform="translate(124.4921875, 559.6999893188477)"><rect class="basic label-container" style="" x="-116.4921875" y="-42.099998474121094" width="232.984375" height="84.19999694824219"></rect><g class="label" style="" transform="translate(0, -27.099998474121094)"><rect></rect><g><rect class="background" style="stroke: none"></rect><text y="-10.1" style=""><tspan class="text-outer-tspan row" x="0" y="-0.1em" dy="1.1em"><tspan font-style="normal" class="text-inner-tspan" font-weight="normal">pagesmith-docs</tspan><tspan font-style="normal" class="text-inner-tspan" font-weight="normal"> preview</tspan></tspan><tspan class="text-outer-tspan row" x="0" y="1em" dy="1.1em"><tspan font-style="normal" class="text-inner-tspan" font-weight="normal">Serve</tspan><tspan font-style="normal" class="text-inner-tspan" font-weight="normal"> built</tspan><tspan font-style="normal" class="text-inner-tspan" font-weight="normal"> output</tspan><tspan font-style="normal" class="text-inner-tspan" font-weight="normal"> from</tspan></tspan><tspan class="text-outer-tspan row" x="0" y="2.1em" dy="1.1em"><tspan font-style="normal" class="text-inner-tspan" font-weight="normal">disk</tspan></tspan></text></g></g></g><g class="node default" id="ge6e54398-c50a-4ad3-9871-5fa22c437e30-light-flowchart-mcp-5" data-look="classic" transform="translate(516.66015625, 291.2999954223633)"><rect class="basic label-container" style="" x="-128.828125" y="-42.099998474121094" width="257.65625" height="84.19999694824219"></rect><g class="label" style="" transform="translate(0, -27.099998474121094)"><rect></rect><g><rect class="background" style="stroke: none"></rect><text y="-10.1" style=""><tspan class="text-outer-tspan row" x="0" y="-0.1em" dy="1.1em"><tspan font-style="normal" class="text-inner-tspan" font-weight="normal">pagesmith-docs</tspan><tspan font-style="normal" class="text-inner-tspan" font-weight="normal"> mcp</tspan><tspan font-style="normal" class="text-inner-tspan" font-weight="normal"> --stdio</tspan></tspan><tspan class="text-outer-tspan row" x="0" y="1em" dy="1.1em"><tspan font-style="normal" class="text-inner-tspan" font-weight="normal">Expose</tspan><tspan font-style="normal" class="text-inner-tspan" font-weight="normal"> docs-aware</tspan><tspan font-style="normal" class="text-inner-tspan" font-weight="normal"> MCP</tspan></tspan><tspan class="text-outer-tspan row" x="0" y="2.1em" dy="1.1em"><tspan font-style="normal" class="text-inner-tspan" font-weight="normal">tools</tspan></tspan></text></g></g></g></g></g></g><defs><filter id="ge6e54398-c50a-4ad3-9871-5fa22c437e30-light-drop-shadow" height="130%" width="130%"><feDropShadow dx="4" dy="4" stdDeviation="0" flood-opacity="0.06" flood-color="#000000"></feDropShadow></filter></defs><defs><filter id="ge6e54398-c50a-4ad3-9871-5fa22c437e30-light-drop-shadow-small" height="150%" width="150%"><feDropShadow dx="2" dy="2" stdDeviation="0" flood-opacity="0.06" flood-color="#000000"></feDropShadow></filter></defs></svg>