<svg xmlns="http://www.w3.org/2000/svg" width="457pt" height="632" viewBox="0 0 457 474"><g id="graph0" class="graph" transform="translate(14.4 459.12)"><title>CodeBlockRenderingPipeline</title><g id="node1" class="node"><title>source</title><path fill="#dae8fc" stroke="#6c8ebf" d="M174.53-444.72H27.89c-6 0-12 6-12 12v26.88c0 6 6 12 12 12h146.64c6 0 12-6 12-12v-26.88c0-6-6-12-12-12"/><text xml:space="preserve" x="101.21" y="-423.48" fill="#333" font-family="Times,serif" font-size="14" text-anchor="middle">Markdown source</text><text xml:space="preserve" x="101.21" y="-406.68" fill="#333" font-family="Times,serif" font-size="14" text-anchor="middle">fenced code + meta string</text></g><g id="node2" class="node"><title>core</title><path fill="#dae8fc" stroke="#6c8ebf" d="M167.11-335.84H35.32c-6 0-12 6-12 12v60.48c0 6 6 12 12 12h131.79c6 0 12-6 12-12v-60.48c0-6-6-12-12-12"/><text xml:space="preserve" x="101.21" y="-314.6" fill="#333" font-family="Times,serif" font-size="14" text-anchor="middle">@pagesmith/core</text><text xml:space="preserve" x="101.21" y="-297.8" fill="#333" font-family="Times,serif" font-size="14" text-anchor="middle">Shiki highlighting</text><text xml:space="preserve" x="101.21" y="-281" fill="#333" font-family="Times,serif" font-size="14" text-anchor="middle">frame markup</text><text xml:space="preserve" x="101.21" y="-264.2" fill="#333" font-family="Times,serif" font-size="14" text-anchor="middle">inline light/dark tokens</text></g><g id="edge1" class="edge"><title>source-&gt;core</title><path fill="none" stroke="#aaa" d="M101.21-393.55v45.81"/><path fill="#aaa" stroke="#aaa" d="m104.71-347.85-3.5 10-3.5-10z"/></g><g id="node3" class="node"><title>html</title><path fill="#dae8fc" stroke="#6c8ebf" d="M190.42-184.96H12c-6 0-12 6-12 12v26.88c0 6 6 12 12 12h178.42c6 0 12-6 12-12v-26.88c0-6-6-12-12-12"/><text xml:space="preserve" x="101.21" y="-163.72" fill="#333" font-family="Times,serif" font-size="14" text-anchor="middle">Rendered HTML</text><text xml:space="preserve" x="101.21" y="-146.92" fill="#333" font-family="Times,serif" font-size="14" text-anchor="middle">Pagesmith code-block structure</text></g><g id="edge2" class="edge"><title>core-&gt;html</title><path fill="none" stroke="#aaa" d="M101.21-251.17v54.8"/><path fill="#aaa" stroke="#aaa" d="m104.71-196.78-3.5 10-3.5-10z"/></g><g id="node5" class="node"><title>browser</title><path fill="#dae8fc" stroke="#6c8ebf" d="M267.93-67.68H166.49c-6 0-12 6-12 12V-12c0 6 6 12 12 12h101.44c6 0 12-6 12-12v-43.68c0-6-6-12-12-12"/><text xml:space="preserve" x="217.21" y="-46.44" fill="#333" font-family="Times,serif" font-size="14" text-anchor="middle">Browser result</text><text xml:space="preserve" x="217.21" y="-29.64" fill="#333" font-family="Times,serif" font-size="14" text-anchor="middle">styled, interactive</text><text xml:space="preserve" x="217.21" y="-12.84" fill="#333" font-family="Times,serif" font-size="14" text-anchor="middle">code blocks</text></g><g id="edge3" class="edge"><title>html-&gt;browser</title><path fill="none" stroke="#aaa" d="M124.41-133.79c15.43 16.46 36.09 38.48 53.99 57.57"/><path fill="#aaa" stroke="#aaa" d="m180.82-78.76 4.29 9.69-9.4-4.9z"/></g><g id="node4" class="node"><title>site</title><path fill="#dae8fc" stroke="#6c8ebf" d="M416.4-193.36H250.02c-6 0-12 6-12 12v43.68c0 6 6 12 12 12H416.4c6 0 12-6 12-12v-43.68c0-6-6-12-12-12"/><text xml:space="preserve" x="333.21" y="-172.12" fill="#333" font-family="Times,serif" font-size="14" text-anchor="middle">@pagesmith/site</text><text xml:space="preserve" x="333.21" y="-155.32" fill="#333" font-family="Times,serif" font-size="14" text-anchor="middle">shared CSS</text><text xml:space="preserve" x="333.21" y="-138.52" fill="#333" font-family="Times,serif" font-size="14" text-anchor="middle">copy / collapse / tabs runtime</text></g><g id="edge4" class="edge"><title>site-&gt;browser</title><path fill="none" stroke="#aaa" d="M302.13-125.38c-14.18 15.12-31.1 33.16-46.1 49.16"/><path fill="#aaa" stroke="#aaa" d="m258.81-74.08-9.39 4.9 4.29-9.69z"/></g></g></svg>