<?xml version="1.0" encoding="UTF-8" standalone="no"?>
<!DOCTYPE svg PUBLIC "-//W3C//DTD SVG 1.1//EN"
 "http://www.w3.org/Graphics/SVG/1.1/DTD/svg11.dtd">
<!-- Generated by graphviz version 14.1.3 (20260303.0454)
 -->
<!-- Title: LayoutResolution Pages: 1 -->
<svg width="860pt" height="549pt"
 viewBox="0.00 0.00 860.00 549.00" xmlns="http://www.w3.org/2000/svg" xmlns:xlink="http://www.w3.org/1999/xlink">
<g id="graph0" class="graph" transform="scale(1 1) rotate(0) translate(14.4 534.4)">
<title>LayoutResolution</title>
<!-- route -->
<g id="node1" class="node">
<title>route</title>
<path fill="#f8fafc" stroke="#94a3b8" d="M392.39,-520C392.39,-520 335.58,-520 335.58,-520 329.58,-520 323.58,-514 323.58,-508 323.58,-508 323.58,-496 323.58,-496 323.58,-490 329.58,-484 335.58,-484 335.58,-484 392.39,-484 392.39,-484 398.39,-484 404.39,-490 404.39,-496 404.39,-496 404.39,-508 404.39,-508 404.39,-514 398.39,-520 392.39,-520"/>
<text xml:space="preserve" text-anchor="middle" x="363.99" y="-498.7" font-family="Arial" font-size="11.00">Current route</text>
</g>
<!-- kind -->
<g id="node2" class="node">
<title>kind</title>
<path fill="#fff7ed" stroke="#fb923c" d="M352.08,-441.54C352.08,-441.54 228.68,-426.46 228.68,-426.46 222.73,-425.73 222.73,-424.27 228.68,-423.54 228.68,-423.54 352.08,-408.46 352.08,-408.46 358.03,-407.73 369.94,-407.73 375.9,-408.46 375.9,-408.46 499.29,-423.54 499.29,-423.54 505.25,-424.27 505.25,-425.73 499.29,-426.46 499.29,-426.46 375.9,-441.54 375.9,-441.54 369.94,-442.27 358.03,-442.27 352.08,-441.54"/>
<text xml:space="preserve" text-anchor="middle" x="363.99" y="-421.7" font-family="Arial" font-size="11.00">Which page is being rendered?</text>
</g>
<!-- route&#45;&gt;kind -->
<g id="edge1" class="edge">
<title>route&#45;&gt;kind</title>
<path fill="none" stroke="#64748b" d="M363.99,-483.75C363.99,-483.75 363.99,-454.9 363.99,-454.9"/>
<polygon fill="#64748b" stroke="#64748b" points="367.49,-454.9 363.99,-444.9 360.49,-454.9 367.49,-454.9"/>
</g>
<!-- home -->
<g id="node3" class="node">
<title>home</title>
<path fill="#f8fafc" stroke="#94a3b8" d="M103.98,-355C103.98,-355 12,-355 12,-355 6,-355 0,-349 0,-343 0,-343 0,-331 0,-331 0,-325 6,-319 12,-319 12,-319 103.98,-319 103.98,-319 109.98,-319 115.98,-325 115.98,-331 115.98,-331 115.98,-343 115.98,-343 115.98,-349 109.98,-355 103.98,-355"/>
<text xml:space="preserve" text-anchor="middle" x="57.99" y="-333.7" font-family="Arial" font-size="11.00">layout name = home</text>
</g>
<!-- kind&#45;&gt;home -->
<g id="edge2" class="edge">
<title>kind&#45;&gt;home</title>
<path fill="none" stroke="#64748b" d="M212.78,-425C135.69,-425 57.99,-425 57.99,-425 57.99,-425 57.99,-366.75 57.99,-366.75"/>
<polygon fill="#64748b" stroke="#64748b" points="61.49,-366.75 57.99,-356.75 54.49,-366.75 61.49,-366.75"/>
<text xml:space="preserve" text-anchor="middle" x="178.51" y="-378" font-family="Arial" font-size="10.00">root content/README.md</text>
</g>
<!-- section -->
<g id="node4" class="node">
<title>section</title>
<path fill="#f8fafc" stroke="#94a3b8" d="M365.85,-355C365.85,-355 160.13,-355 160.13,-355 154.13,-355 148.13,-349 148.13,-343 148.13,-343 148.13,-331 148.13,-331 148.13,-325 154.13,-319 160.13,-319 160.13,-319 365.85,-319 365.85,-319 371.85,-319 377.85,-325 377.85,-331 377.85,-331 377.85,-343 377.85,-343 377.85,-349 371.85,-355 365.85,-355"/>
<text xml:space="preserve" text-anchor="middle" x="262.99" y="-333.7" font-family="Arial" font-size="11.00">layout name = section meta.layout\nor page</text>
</g>
<!-- kind&#45;&gt;section -->
<g id="edge3" class="edge">
<title>kind&#45;&gt;section</title>
<path fill="none" stroke="#64748b" d="M297.31,-414.91C297.31,-414.91 297.31,-366.73 297.31,-366.73"/>
<polygon fill="#64748b" stroke="#64748b" points="300.81,-366.73 297.31,-356.73 293.81,-366.73 300.81,-366.73"/>
<text xml:space="preserve" text-anchor="middle" x="345.95" y="-378" font-family="Arial" font-size="10.00">section README.md</text>
</g>
<!-- item -->
<g id="node5" class="node">
<title>item</title>
<path fill="#f8fafc" stroke="#94a3b8" d="M652.07,-355C652.07,-355 421.9,-355 421.9,-355 415.9,-355 409.9,-349 409.9,-343 409.9,-343 409.9,-331 409.9,-331 409.9,-325 415.9,-319 421.9,-319 421.9,-319 652.07,-319 652.07,-319 658.07,-319 664.07,-325 664.07,-331 664.07,-331 664.07,-343 664.07,-343 664.07,-349 658.07,-355 652.07,-355"/>
<text xml:space="preserve" text-anchor="middle" x="536.99" y="-333.7" font-family="Arial" font-size="11.00">layout name = section meta.itemLayout\nor page</text>
</g>
<!-- kind&#45;&gt;item -->
<g id="edge4" class="edge">
<title>kind&#45;&gt;item</title>
<path fill="none" stroke="#64748b" d="M460.55,-418.39C460.55,-418.39 460.55,-366.7 460.55,-366.7"/>
<polygon fill="#64748b" stroke="#64748b" points="464.05,-366.7 460.55,-356.7 457.05,-366.7 464.05,-366.7"/>
<text xml:space="preserve" text-anchor="middle" x="531.56" y="-378" font-family="Arial" font-size="10.00">section article</text>
</g>
<!-- missing -->
<g id="node6" class="node">
<title>missing</title>
<path fill="#f8fafc" stroke="#94a3b8" d="M819.46,-355C819.46,-355 708.52,-355 708.52,-355 702.52,-355 696.52,-349 696.52,-343 696.52,-343 696.52,-331 696.52,-331 696.52,-325 702.52,-319 708.52,-319 708.52,-319 819.46,-319 819.46,-319 825.46,-319 831.46,-325 831.46,-331 831.46,-331 831.46,-343 831.46,-343 831.46,-349 825.46,-355 819.46,-355"/>
<text xml:space="preserve" text-anchor="middle" x="763.99" y="-333.7" font-family="Arial" font-size="11.00">layout name = notFound</text>
</g>
<!-- kind&#45;&gt;missing -->
<g id="edge5" class="edge">
<title>kind&#45;&gt;missing</title>
<path fill="none" stroke="#64748b" d="M515.21,-425C628.48,-425 763.99,-425 763.99,-425 763.99,-425 763.99,-366.75 763.99,-366.75"/>
<polygon fill="#64748b" stroke="#64748b" points="767.49,-366.75 763.99,-356.75 760.49,-366.75 767.49,-366.75"/>
<text xml:space="preserve" text-anchor="middle" x="737.35" y="-378" font-family="Arial" font-size="10.00">no content match</text>
</g>
<!-- resolve -->
<g id="node7" class="node">
<title>resolve</title>
<path fill="#eff6ff" stroke="#60a5fa" d="M388.06,-276.67C388.06,-276.67 250.81,-261.33 250.81,-261.33 244.85,-260.67 244.85,-259.33 250.81,-258.67 250.81,-258.67 388.06,-243.33 388.06,-243.33 394.03,-242.67 405.95,-242.67 411.91,-243.33 411.91,-243.33 549.17,-258.67 549.17,-258.67 555.13,-259.33 555.13,-260.67 549.17,-261.33 549.17,-261.33 411.91,-276.67 411.91,-276.67 405.95,-277.33 394.03,-277.33 388.06,-276.67"/>
<text xml:space="preserve" text-anchor="middle" x="399.99" y="-256.7" font-family="Arial" font-size="11.00">How is that layout name resolved?</text>
</g>
<!-- home&#45;&gt;resolve -->
<g id="edge6" class="edge">
<title>home&#45;&gt;resolve</title>
<path fill="none" stroke="#64748b" d="M96.48,-318.75C96.48,-295.98 96.48,-260 96.48,-260 96.48,-260 222.96,-260 222.96,-260"/>
<polygon fill="#64748b" stroke="#64748b" points="222.96,-263.5 232.96,-260 222.96,-256.5 222.96,-263.5"/>
</g>
<!-- section&#45;&gt;resolve -->
<g id="edge7" class="edge">
<title>section&#45;&gt;resolve</title>
<path fill="none" stroke="#64748b" d="M308.36,-318.75C308.36,-318.75 308.36,-279.74 308.36,-279.74"/>
<polygon fill="#64748b" stroke="#64748b" points="311.86,-279.74 308.36,-269.74 304.86,-279.74 311.86,-279.74"/>
</g>
<!-- item&#45;&gt;resolve -->
<g id="edge8" class="edge">
<title>item&#45;&gt;resolve</title>
<path fill="none" stroke="#64748b" d="M485.5,-318.75C485.5,-318.75 485.5,-280.14 485.5,-280.14"/>
<polygon fill="#64748b" stroke="#64748b" points="489,-280.14 485.5,-270.14 482,-280.14 489,-280.14"/>
</g>
<!-- missing&#45;&gt;resolve -->
<g id="edge9" class="edge">
<title>missing&#45;&gt;resolve</title>
<path fill="none" stroke="#64748b" d="M733.52,-318.75C733.52,-295.98 733.52,-260 733.52,-260 733.52,-260 576.8,-260 576.8,-260"/>
<polygon fill="#64748b" stroke="#64748b" points="576.8,-256.5 566.8,-260 576.8,-263.5 576.8,-256.5"/>
</g>
<!-- custom -->
<g id="node8" class="node">
<title>custom</title>
<path fill="#f8fafc" stroke="#94a3b8" d="M220.99,-190C220.99,-190 88.99,-190 88.99,-190 82.99,-190 76.99,-184 76.99,-178 76.99,-178 76.99,-166 76.99,-166 76.99,-160 82.99,-154 88.99,-154 88.99,-154 220.99,-154 220.99,-154 226.99,-154 232.99,-160 232.99,-166 232.99,-166 232.99,-178 232.99,-178 232.99,-184 226.99,-190 220.99,-190"/>
<text xml:space="preserve" text-anchor="middle" x="154.99" y="-168.7" font-family="Arial" font-size="11.00">Use custom TSX component</text>
</g>
<!-- resolve&#45;&gt;custom -->
<g id="edge10" class="edge">
<title>resolve&#45;&gt;custom</title>
<path fill="none" stroke="#64748b" d="M251.84,-258.16C251.84,-245.52 251.84,-172 251.84,-172 251.84,-172 244.68,-172 244.68,-172"/>
<polygon fill="#64748b" stroke="#64748b" points="244.68,-168.5 234.68,-172 244.68,-175.5 244.68,-168.5"/>
<text xml:space="preserve" text-anchor="middle" x="259.57" y="-213" font-family="Arial" font-size="10.00">theme.layouts[name] exists</text>
</g>
<!-- builtin -->
<g id="node9" class="node">
<title>builtin</title>
<path fill="#f8fafc" stroke="#94a3b8" d="M523.17,-190C523.17,-190 276.8,-190 276.8,-190 270.8,-190 264.8,-184 264.8,-178 264.8,-178 264.8,-166 264.8,-166 264.8,-160 270.8,-154 276.8,-154 276.8,-154 523.17,-154 523.17,-154 529.17,-154 535.17,-160 535.17,-166 535.17,-166 535.17,-178 535.17,-178 535.17,-184 529.17,-190 523.17,-190"/>
<text xml:space="preserve" text-anchor="middle" x="399.99" y="-168.7" font-family="Arial" font-size="11.00">Use built&#45;in layout\nhome, page, listing, or notFound</text>
</g>
<!-- resolve&#45;&gt;builtin -->
<g id="edge11" class="edge">
<title>resolve&#45;&gt;builtin</title>
<path fill="none" stroke="#64748b" d="M399.99,-241.77C399.99,-241.77 399.99,-201.72 399.99,-201.72"/>
<polygon fill="#64748b" stroke="#64748b" points="403.49,-201.72 399.99,-191.72 396.49,-201.72 403.49,-201.72"/>
<text xml:space="preserve" text-anchor="middle" x="494.49" y="-213" font-family="Arial" font-size="10.00">no override, built&#45;in name\nincluding listing</text>
</g>
<!-- error -->
<g id="node10" class="node">
<title>error</title>
<path fill="#fef2f2" stroke="#f87171" d="M758.53,-190C758.53,-190 579.45,-190 579.45,-190 573.45,-190 567.45,-184 567.45,-178 567.45,-178 567.45,-166 567.45,-166 567.45,-160 573.45,-154 579.45,-154 579.45,-154 758.53,-154 758.53,-154 764.53,-154 770.53,-160 770.53,-166 770.53,-166 770.53,-178 770.53,-178 770.53,-184 764.53,-190 758.53,-190"/>
<text xml:space="preserve" text-anchor="middle" x="668.99" y="-168.7" font-family="Arial" font-size="11.00">Build error\nmissing layout registration</text>
</g>
<!-- resolve&#45;&gt;error -->
<g id="edge12" class="edge">
<title>resolve&#45;&gt;error</title>
<path fill="none" stroke="#64748b" d="M548.13,-258.16C548.13,-245.52 548.13,-172 548.13,-172 548.13,-172 555.5,-172 555.5,-172"/>
<polygon fill="#64748b" stroke="#64748b" points="555.5,-175.5 565.5,-172 555.5,-168.5 555.5,-175.5"/>
<text xml:space="preserve" text-anchor="middle" x="748.2" y="-213" font-family="Arial" font-size="10.00">no override, unknown custom name</text>
</g>
<!-- render -->
<g id="node11" class="node">
<title>render</title>
<path fill="#f8fafc" stroke="#94a3b8" d="M438.39,-113C438.39,-113 115.59,-113 115.59,-113 109.59,-113 103.59,-107 103.59,-101 103.59,-101 103.59,-89 103.59,-89 103.59,-83 109.59,-77 115.59,-77 115.59,-77 438.39,-77 438.39,-77 444.39,-77 450.39,-83 450.39,-89 450.39,-89 450.39,-101 450.39,-101 450.39,-107 444.39,-113 438.39,-113"/>
<text xml:space="preserve" text-anchor="middle" x="276.99" y="-91.7" font-family="Arial" font-size="11.00">Render with shared props\ncontent, frontmatter, headings, slug, site</text>
</g>
<!-- custom&#45;&gt;render -->
<g id="edge13" class="edge">
<title>custom&#45;&gt;render</title>
<path fill="none" stroke="#64748b" d="M168.29,-153.75C168.29,-153.75 168.29,-124.9 168.29,-124.9"/>
<polygon fill="#64748b" stroke="#64748b" points="171.79,-124.9 168.29,-114.9 164.79,-124.9 171.79,-124.9"/>
</g>
<!-- builtin&#45;&gt;render -->
<g id="edge14" class="edge">
<title>builtin&#45;&gt;render</title>
<path fill="none" stroke="#64748b" d="M357.6,-153.75C357.6,-153.75 357.6,-124.9 357.6,-124.9"/>
<polygon fill="#64748b" stroke="#64748b" points="361.1,-124.9 357.6,-114.9 354.1,-124.9 361.1,-124.9"/>
</g>
<!-- extra -->
<g id="node12" class="node">
<title>extra</title>
<path fill="#f8fafc" stroke="#94a3b8" d="M431.05,-36C431.05,-36 122.93,-36 122.93,-36 116.93,-36 110.93,-30 110.93,-24 110.93,-24 110.93,-12 110.93,-12 110.93,-6 116.93,0 122.93,0 122.93,0 431.05,0 431.05,0 437.05,0 443.05,-6 443.05,-12 443.05,-12 443.05,-24 443.05,-24 443.05,-30 437.05,-36 431.05,-36"/>
<text xml:space="preserve" text-anchor="middle" x="276.99" y="-14.7" font-family="Arial" font-size="11.00">Docs&#45;page layouts also receive\nsidebarSections, prev, and next</text>
</g>
<!-- render&#45;&gt;extra -->
<g id="edge15" class="edge">
<title>render&#45;&gt;extra</title>
<path fill="none" stroke="#64748b" d="M276.99,-76.75C276.99,-76.75 276.99,-47.9 276.99,-47.9"/>
<polygon fill="#64748b" stroke="#64748b" points="280.49,-47.9 276.99,-37.9 273.49,-47.9 280.49,-47.9"/>
</g>
</g>
</svg>
