<svg xmlns="http://www.w3.org/2000/svg" width="766pt" height="776" viewBox="0 0 766 582"><g id="graph0" class="graph" transform="translate(14.4 567.5)"><title>LayoutResolution</title><g id="node1" class="node"><title>route</title><path fill="#193966" stroke="#6c8ebf" d="M357.39-552h-56.81c-6 0-12 6-12 12v12c0 6 6 12 12 12h56.81c6 0 12-6 12-12v-12c0-6-6-12-12-12"/><text xml:space="preserve" x="328.99" y="-530.7" fill="#d9d9d9" font-family="Arial" font-size="11" text-anchor="middle">Current route</text></g><g id="node2" class="node"><title>kind</title><path fill="#664119" stroke="#d6b656" d="m317.08-470.54-123.4 15.08c-5.95.73-5.95 2.19 0 2.92l123.4 15.08c5.95.73 17.86.73 23.82 0l123.39-15.08c5.96-.73 5.96-2.19 0-2.92L340.9-470.54c-5.96-.73-17.87-.73-23.82 0"/><text xml:space="preserve" x="328.99" y="-450.7" fill="#d9d9d9" font-family="Arial" font-size="11" text-anchor="middle">Which page is being rendered?</text></g><g id="edge1" class="edge"><title>route-&gt;kind</title><path fill="none" stroke="#aaa" d="M328.99-515.85v31.98"/><path fill="#404040" stroke="#aaa" d="m332.49-483.87-3.5 10-3.5-10z"/></g><g id="node3" class="node"><title>home</title><path fill="#193966" stroke="#6c8ebf" d="M103.98-381H12c-6 0-12 6-12 12v12c0 6 6 12 12 12h91.98c6 0 12-6 12-12v-12c0-6-6-12-12-12"/><text xml:space="preserve" x="57.99" y="-359.7" fill="#d9d9d9" font-family="Arial" font-size="11" text-anchor="middle">layout name = home</text></g><g id="edge2" class="edge"><title>kind-&gt;home</title><path fill="none" stroke="#aaa" d="M178.04-454H57.99v61.07"/><path fill="#404040" stroke="#aaa" d="m61.49-392.93-3.5 10-3.5-10z"/><text xml:space="preserve" x="154.51" y="-406" fill="#d9d9d9" font-family="Arial" font-size="10" text-anchor="middle">root content/README.md</text></g><g id="node4" class="node"><title>section</title><path fill="#193966" stroke="#6c8ebf" d="M319.61-381H160.37c-6 0-12 6-12 12v12c0 6 6 12 12 12h159.24c6 0 12-6 12-12v-12c0-6-6-12-12-12"/><text xml:space="preserve" x="239.99" y="-366.3" fill="#d9d9d9" font-family="Arial" font-size="11" text-anchor="middle">layout name = section meta.layout</text><text xml:space="preserve" x="239.99" y="-353.1" fill="#d9d9d9" font-family="Arial" font-size="11" text-anchor="middle">or page</text></g><g id="edge3" class="edge"><title>kind-&gt;section</title><path fill="none" stroke="#aaa" d="M256.69-444.6v51.81"/><path fill="#404040" stroke="#aaa" d="m260.19-392.79-3.5 10-3.5-10z"/><text xml:space="preserve" x="310.95" y="-406" fill="#d9d9d9" font-family="Arial" font-size="10" text-anchor="middle">section README.md</text></g><g id="node5" class="node"><title>item</title><path fill="#193966" stroke="#6c8ebf" d="M558.83-381H375.14c-6 0-12 6-12 12v12c0 6 6 12 12 12h183.69c6 0 12-6 12-12v-12c0-6-6-12-12-12"/><text xml:space="preserve" x="466.99" y="-366.3" fill="#d9d9d9" font-family="Arial" font-size="11" text-anchor="middle">layout name = section meta.itemLayout</text><text xml:space="preserve" x="466.99" y="-353.1" fill="#d9d9d9" font-family="Arial" font-size="11" text-anchor="middle">or page</text></g><g id="edge4" class="edge"><title>kind-&gt;item</title><path fill="none" stroke="#aaa" d="M419.67-446.86v54.06"/><path fill="#404040" stroke="#aaa" d="m423.17-392.8-3.5 10-3.5-10z"/><text xml:space="preserve" x="473.56" y="-406" fill="#d9d9d9" font-family="Arial" font-size="10" text-anchor="middle">section article</text></g><g id="node6" class="node"><title>missing</title><path fill="#193966" stroke="#6c8ebf" d="M725.46-381H614.52c-6 0-12 6-12 12v12c0 6 6 12 12 12h110.94c6 0 12-6 12-12v-12c0-6-6-12-12-12"/><text xml:space="preserve" x="669.99" y="-359.7" fill="#d9d9d9" font-family="Arial" font-size="11" text-anchor="middle">layout name = notFound</text></g><g id="edge5" class="edge"><title>kind-&gt;missing</title><path fill="none" stroke="#aaa" d="M480.05-454h189.94v61.07"/><path fill="#404040" stroke="#aaa" d="m673.49-392.93-3.5 10-3.5-10z"/><text xml:space="preserve" x="655.35" y="-406" fill="#d9d9d9" font-family="Arial" font-size="10" text-anchor="middle">no content match</text></g><g id="node7" class="node"><title>resolve</title><path fill="#193966" stroke="#6c8ebf" d="m341.06-299.67-137.25 15.34c-5.96.66-5.96 2 0 2.66l137.25 15.34c5.97.66 17.89.66 23.85 0l137.26-15.34c5.96-.66 5.96-2 0-2.66l-137.26-15.34c-5.96-.66-17.88-.66-23.85 0"/><text xml:space="preserve" x="352.99" y="-279.7" fill="#d9d9d9" font-family="Arial" font-size="11" text-anchor="middle">How is that layout name resolved?</text></g><g id="edge6" class="edge"><title>home-&gt;resolve</title><path fill="none" stroke="#aaa" d="M96.98-344.85V-283h79.11"/><path fill="#404040" stroke="#aaa" d="m176.09-286.5 10 3.5-10 3.5z"/></g><g id="edge7" class="edge"><title>section-&gt;resolve</title><path fill="none" stroke="#aaa" d="M261.74-344.85v42.44"/><path fill="#404040" stroke="#aaa" d="m265.24-302.41-3.5 10-3.5-10z"/></g><g id="edge8" class="edge"><title>item-&gt;resolve</title><path fill="none" stroke="#aaa" d="M438.62-344.85v41.61"/><path fill="#404040" stroke="#aaa" d="m442.12-303.24-3.5 10-3.5-10z"/></g><g id="edge9" class="edge"><title>missing-&gt;resolve</title><path fill="none" stroke="#aaa" d="M608.54-344.85V-283h-78.58"/><path fill="#404040" stroke="#aaa" d="m529.96-279.5-10-3.5 10-3.5z"/></g><g id="node8" class="node"><title>custom</title><path fill="#193966" stroke="#6c8ebf" d="M221.99-197h-132c-6 0-12 6-12 12v12c0 6 6 12 12 12h132c6 0 12-6 12-12v-12c0-6-6-12-12-12"/><text xml:space="preserve" x="155.99" y="-175.7" fill="#d9d9d9" font-family="Arial" font-size="11" text-anchor="middle">Use custom TSX component</text></g><g id="edge10" class="edge"><title>resolve-&gt;custom</title><path fill="none" stroke="#aaa" d="M212.94-280.43v71.82"/><path fill="#404040" stroke="#aaa" d="m216.44-208.61-3.5 10-3.5-10z"/><text xml:space="preserve" x="236.57" y="-228" fill="#d9d9d9" font-family="Arial" font-size="10" text-anchor="middle">theme.layouts[name] exists</text></g><g id="node9" class="node"><title>builtin</title><path fill="#193966" stroke="#6c8ebf" d="M427.87-197H278.11c-6 0-12 6-12 12v12c0 6 6 12 12 12h149.76c6 0 12-6 12-12v-12c0-6-6-12-12-12"/><text xml:space="preserve" x="352.99" y="-182.3" fill="#d9d9d9" font-family="Arial" font-size="11" text-anchor="middle">Use built-in layout</text><text xml:space="preserve" x="352.99" y="-169.1" fill="#d9d9d9" font-family="Arial" font-size="11" text-anchor="middle">home, page, listing, or notFound</text></g><g id="edge11" class="edge"><title>resolve-&gt;builtin</title><path fill="none" stroke="#aaa" d="M352.99-264.88v56.11"/><path fill="#404040" stroke="#aaa" d="m356.49-208.77-3.5 10-3.5-10z"/><text xml:space="preserve" x="409.41" y="-234" fill="#d9d9d9" font-family="Arial" font-size="10" text-anchor="middle">no override, built-in name</text><text xml:space="preserve" x="409.41" y="-222" fill="#d9d9d9" font-family="Arial" font-size="10" text-anchor="middle">including listing</text></g><g id="node10" class="node"><title>error</title><path fill="#b43a3a" stroke="#8e2828" d="M602.57-197H483.41c-6 0-12 6-12 12v12c0 6 6 12 12 12h119.16c6 0 12-6 12-12v-12c0-6-6-12-12-12"/><text xml:space="preserve" x="542.99" y="-182.3" fill="#fff" font-family="Arial" font-size="11" text-anchor="middle">Build error</text><text xml:space="preserve" x="542.99" y="-169.1" fill="#fff" font-family="Arial" font-size="11" text-anchor="middle">missing layout registration</text></g><g id="edge12" class="edge"><title>resolve-&gt;error</title><path fill="none" stroke="#aaa" d="M492.75-280.43v71.82"/><path fill="#404040" stroke="#aaa" d="m496.25-208.61-3.5 10-3.5-10z"/><text xml:space="preserve" x="622.2" y="-228" fill="#d9d9d9" font-family="Arial" font-size="10" text-anchor="middle">no override, unknown custom name</text></g><g id="node11" class="node"><title>render</title><path fill="#193966" stroke="#6c8ebf" d="M347.82-117H160.16c-6 0-12 6-12 12v12c0 6 6 12 12 12h187.66c6 0 12-6 12-12v-12c0-6-6-12-12-12"/><text xml:space="preserve" x="253.99" y="-102.3" fill="#d9d9d9" font-family="Arial" font-size="11" text-anchor="middle">Render with shared props</text><text xml:space="preserve" x="253.99" y="-89.1" fill="#d9d9d9" font-family="Arial" font-size="11" text-anchor="middle">content, frontmatter, headings, slug, site</text></g><g id="edge13" class="edge"><title>custom-&gt;render</title><path fill="none" stroke="#aaa" d="M191.07-160.85v31.98"/><path fill="#404040" stroke="#aaa" d="m194.57-128.87-3.5 10-3.5-10z"/></g><g id="edge14" class="edge"><title>builtin-&gt;render</title><path fill="none" stroke="#aaa" d="M312.96-160.85v31.98"/><path fill="#404040" stroke="#aaa" d="m316.46-128.87-3.5 10-3.5-10z"/></g><g id="node12" class="node"><title>extra</title><path fill="#193966" stroke="#6c8ebf" d="M327.03-37H180.94c-6 0-12 6-12 12v12c0 6 6 12 12 12h146.09c6 0 12-6 12-12v-12c0-6-6-12-12-12"/><text xml:space="preserve" x="253.99" y="-22.3" fill="#d9d9d9" font-family="Arial" font-size="11" text-anchor="middle">Docs-page layouts also receive</text><text xml:space="preserve" x="253.99" y="-9.1" fill="#d9d9d9" font-family="Arial" font-size="11" text-anchor="middle">sidebarSections, prev, and next</text></g><g id="edge15" class="edge"><title>render-&gt;extra</title><path fill="none" stroke="#aaa" d="M253.99-80.85v31.98"/><path fill="#404040" stroke="#aaa" d="m257.49-48.87-3.5 10-3.5-10z"/></g></g></svg>