<?xml version="1.0" encoding="UTF-8" standalone="no"?>
<!DOCTYPE svg PUBLIC "-//W3C//DTD SVG 1.1//EN"
 "http://www.w3.org/Graphics/SVG/1.1/DTD/svg11.dtd">
<!-- Generated by graphviz version 14.1.5 (20260411.2331)
 -->
<!-- Title: LayoutResolution Pages: 1 -->
<svg width="766pt" height="582pt"
 viewBox="0.00 0.00 766.00 582.00" xmlns="http://www.w3.org/2000/svg" xmlns:xlink="http://www.w3.org/1999/xlink">
<g id="graph0" class="graph" transform="scale(1 1) rotate(0) translate(14.4 567.5)">
<title>LayoutResolution</title>
<!-- route -->
<g id="node1" class="node">
<title>route</title>
<path fill="#dae8fc" stroke="#6c8ebf" d="M357.39,-552C357.39,-552 300.58,-552 300.58,-552 294.58,-552 288.58,-546 288.58,-540 288.58,-540 288.58,-528 288.58,-528 288.58,-522 294.58,-516 300.58,-516 300.58,-516 357.39,-516 357.39,-516 363.39,-516 369.39,-522 369.39,-528 369.39,-528 369.39,-540 369.39,-540 369.39,-546 363.39,-552 357.39,-552"/>
<text xml:space="preserve" text-anchor="middle" x="328.99" y="-530.7" font-family="Arial" font-size="11.00" fill="#333333">Current route</text>
</g>
<!-- kind -->
<g id="node2" class="node">
<title>kind</title>
<path fill="#ffe6cc" stroke="#d6b656" d="M317.08,-470.54C317.08,-470.54 193.68,-455.46 193.68,-455.46 187.73,-454.73 187.73,-453.27 193.68,-452.54 193.68,-452.54 317.08,-437.46 317.08,-437.46 323.03,-436.73 334.94,-436.73 340.9,-437.46 340.9,-437.46 464.29,-452.54 464.29,-452.54 470.25,-453.27 470.25,-454.73 464.29,-455.46 464.29,-455.46 340.9,-470.54 340.9,-470.54 334.94,-471.27 323.03,-471.27 317.08,-470.54"/>
<text xml:space="preserve" text-anchor="middle" x="328.99" y="-450.7" font-family="Arial" font-size="11.00" fill="#333333">Which page is being rendered?</text>
</g>
<!-- route&#45;&gt;kind -->
<g id="edge1" class="edge">
<title>route&#45;&gt;kind</title>
<path fill="none" stroke="#aaaaaa" d="M328.99,-515.85C328.99,-515.85 328.99,-483.87 328.99,-483.87"/>
<polygon fill="#aaaaaa" stroke="#aaaaaa" points="332.49,-483.87 328.99,-473.87 325.49,-483.87 332.49,-483.87"/>
</g>
<!-- home -->
<g id="node3" class="node">
<title>home</title>
<path fill="#dae8fc" stroke="#6c8ebf" d="M103.98,-381C103.98,-381 12,-381 12,-381 6,-381 0,-375 0,-369 0,-369 0,-357 0,-357 0,-351 6,-345 12,-345 12,-345 103.98,-345 103.98,-345 109.98,-345 115.98,-351 115.98,-357 115.98,-357 115.98,-369 115.98,-369 115.98,-375 109.98,-381 103.98,-381"/>
<text xml:space="preserve" text-anchor="middle" x="57.99" y="-359.7" font-family="Arial" font-size="11.00" fill="#333333">layout name = home</text>
</g>
<!-- kind&#45;&gt;home -->
<g id="edge2" class="edge">
<title>kind&#45;&gt;home</title>
<path fill="none" stroke="#aaaaaa" d="M178.04,-454C115.81,-454 57.99,-454 57.99,-454 57.99,-454 57.99,-392.93 57.99,-392.93"/>
<polygon fill="#aaaaaa" stroke="#aaaaaa" points="61.49,-392.93 57.99,-382.93 54.49,-392.93 61.49,-392.93"/>
<text xml:space="preserve" text-anchor="middle" x="154.51" y="-406" font-family="Arial" font-size="10.00" fill="#333333">root content/README.md</text>
</g>
<!-- section -->
<g id="node4" class="node">
<title>section</title>
<path fill="#dae8fc" stroke="#6c8ebf" d="M319.61,-381C319.61,-381 160.37,-381 160.37,-381 154.37,-381 148.37,-375 148.37,-369 148.37,-369 148.37,-357 148.37,-357 148.37,-351 154.37,-345 160.37,-345 160.37,-345 319.61,-345 319.61,-345 325.61,-345 331.61,-351 331.61,-357 331.61,-357 331.61,-369 331.61,-369 331.61,-375 325.61,-381 319.61,-381"/>
<text xml:space="preserve" text-anchor="middle" x="239.99" y="-366.3" font-family="Arial" font-size="11.00" fill="#333333">layout name = section meta.layout</text>
<text xml:space="preserve" text-anchor="middle" x="239.99" y="-353.1" font-family="Arial" font-size="11.00" fill="#333333">or page</text>
</g>
<!-- kind&#45;&gt;section -->
<g id="edge3" class="edge">
<title>kind&#45;&gt;section</title>
<path fill="none" stroke="#aaaaaa" d="M256.69,-444.6C256.69,-444.6 256.69,-392.79 256.69,-392.79"/>
<polygon fill="#aaaaaa" stroke="#aaaaaa" points="260.19,-392.79 256.69,-382.79 253.19,-392.79 260.19,-392.79"/>
<text xml:space="preserve" text-anchor="middle" x="310.95" y="-406" font-family="Arial" font-size="10.00" fill="#333333">section README.md</text>
</g>
<!-- item -->
<g id="node5" class="node">
<title>item</title>
<path fill="#dae8fc" stroke="#6c8ebf" d="M558.83,-381C558.83,-381 375.14,-381 375.14,-381 369.14,-381 363.14,-375 363.14,-369 363.14,-369 363.14,-357 363.14,-357 363.14,-351 369.14,-345 375.14,-345 375.14,-345 558.83,-345 558.83,-345 564.83,-345 570.83,-351 570.83,-357 570.83,-357 570.83,-369 570.83,-369 570.83,-375 564.83,-381 558.83,-381"/>
<text xml:space="preserve" text-anchor="middle" x="466.99" y="-366.3" font-family="Arial" font-size="11.00" fill="#333333">layout name = section meta.itemLayout</text>
<text xml:space="preserve" text-anchor="middle" x="466.99" y="-353.1" font-family="Arial" font-size="11.00" fill="#333333">or page</text>
</g>
<!-- kind&#45;&gt;item -->
<g id="edge4" class="edge">
<title>kind&#45;&gt;item</title>
<path fill="none" stroke="#aaaaaa" d="M419.67,-446.86C419.67,-446.86 419.67,-392.8 419.67,-392.8"/>
<polygon fill="#aaaaaa" stroke="#aaaaaa" points="423.17,-392.8 419.67,-382.8 416.17,-392.8 423.17,-392.8"/>
<text xml:space="preserve" text-anchor="middle" x="473.56" y="-406" font-family="Arial" font-size="10.00" fill="#333333">section article</text>
</g>
<!-- missing -->
<g id="node6" class="node">
<title>missing</title>
<path fill="#dae8fc" stroke="#6c8ebf" d="M725.46,-381C725.46,-381 614.52,-381 614.52,-381 608.52,-381 602.52,-375 602.52,-369 602.52,-369 602.52,-357 602.52,-357 602.52,-351 608.52,-345 614.52,-345 614.52,-345 725.46,-345 725.46,-345 731.46,-345 737.46,-351 737.46,-357 737.46,-357 737.46,-369 737.46,-369 737.46,-375 731.46,-381 725.46,-381"/>
<text xml:space="preserve" text-anchor="middle" x="669.99" y="-359.7" font-family="Arial" font-size="11.00" fill="#333333">layout name = notFound</text>
</g>
<!-- kind&#45;&gt;missing -->
<g id="edge5" class="edge">
<title>kind&#45;&gt;missing</title>
<path fill="none" stroke="#aaaaaa" d="M480.05,-454C571.26,-454 669.99,-454 669.99,-454 669.99,-454 669.99,-392.93 669.99,-392.93"/>
<polygon fill="#aaaaaa" stroke="#aaaaaa" points="673.49,-392.93 669.99,-382.93 666.49,-392.93 673.49,-392.93"/>
<text xml:space="preserve" text-anchor="middle" x="655.35" y="-406" font-family="Arial" font-size="10.00" fill="#333333">no content match</text>
</g>
<!-- resolve -->
<g id="node7" class="node">
<title>resolve</title>
<path fill="#dae8fc" stroke="#6c8ebf" d="M341.06,-299.67C341.06,-299.67 203.81,-284.33 203.81,-284.33 197.85,-283.67 197.85,-282.33 203.81,-281.67 203.81,-281.67 341.06,-266.33 341.06,-266.33 347.03,-265.67 358.95,-265.67 364.91,-266.33 364.91,-266.33 502.17,-281.67 502.17,-281.67 508.13,-282.33 508.13,-283.67 502.17,-284.33 502.17,-284.33 364.91,-299.67 364.91,-299.67 358.95,-300.33 347.03,-300.33 341.06,-299.67"/>
<text xml:space="preserve" text-anchor="middle" x="352.99" y="-279.7" font-family="Arial" font-size="11.00" fill="#333333">How is that layout name resolved?</text>
</g>
<!-- home&#45;&gt;resolve -->
<g id="edge6" class="edge">
<title>home&#45;&gt;resolve</title>
<path fill="none" stroke="#aaaaaa" d="M96.98,-344.85C96.98,-321.24 96.98,-283 96.98,-283 96.98,-283 176.09,-283 176.09,-283"/>
<polygon fill="#aaaaaa" stroke="#aaaaaa" points="176.09,-286.5 186.09,-283 176.09,-279.5 176.09,-286.5"/>
</g>
<!-- section&#45;&gt;resolve -->
<g id="edge7" class="edge">
<title>section&#45;&gt;resolve</title>
<path fill="none" stroke="#aaaaaa" d="M261.74,-344.85C261.74,-344.85 261.74,-302.41 261.74,-302.41"/>
<polygon fill="#aaaaaa" stroke="#aaaaaa" points="265.24,-302.41 261.74,-292.41 258.24,-302.41 265.24,-302.41"/>
</g>
<!-- item&#45;&gt;resolve -->
<g id="edge8" class="edge">
<title>item&#45;&gt;resolve</title>
<path fill="none" stroke="#aaaaaa" d="M438.62,-344.85C438.62,-344.85 438.62,-303.24 438.62,-303.24"/>
<polygon fill="#aaaaaa" stroke="#aaaaaa" points="442.12,-303.24 438.62,-293.24 435.12,-303.24 442.12,-303.24"/>
</g>
<!-- missing&#45;&gt;resolve -->
<g id="edge9" class="edge">
<title>missing&#45;&gt;resolve</title>
<path fill="none" stroke="#aaaaaa" d="M608.54,-344.85C608.54,-321.24 608.54,-283 608.54,-283 608.54,-283 529.96,-283 529.96,-283"/>
<polygon fill="#aaaaaa" stroke="#aaaaaa" points="529.96,-279.5 519.96,-283 529.96,-286.5 529.96,-279.5"/>
</g>
<!-- custom -->
<g id="node8" class="node">
<title>custom</title>
<path fill="#dae8fc" stroke="#6c8ebf" d="M221.99,-197C221.99,-197 89.99,-197 89.99,-197 83.99,-197 77.99,-191 77.99,-185 77.99,-185 77.99,-173 77.99,-173 77.99,-167 83.99,-161 89.99,-161 89.99,-161 221.99,-161 221.99,-161 227.99,-161 233.99,-167 233.99,-173 233.99,-173 233.99,-185 233.99,-185 233.99,-191 227.99,-197 221.99,-197"/>
<text xml:space="preserve" text-anchor="middle" x="155.99" y="-175.7" font-family="Arial" font-size="11.00" fill="#333333">Use custom TSX component</text>
</g>
<!-- resolve&#45;&gt;custom -->
<g id="edge10" class="edge">
<title>resolve&#45;&gt;custom</title>
<path fill="none" stroke="#aaaaaa" d="M212.94,-280.43C212.94,-280.43 212.94,-208.61 212.94,-208.61"/>
<polygon fill="#aaaaaa" stroke="#aaaaaa" points="216.44,-208.61 212.94,-198.61 209.44,-208.61 216.44,-208.61"/>
<text xml:space="preserve" text-anchor="middle" x="236.57" y="-228" font-family="Arial" font-size="10.00" fill="#333333">theme.layouts[name] exists</text>
</g>
<!-- builtin -->
<g id="node9" class="node">
<title>builtin</title>
<path fill="#dae8fc" stroke="#6c8ebf" d="M427.87,-197C427.87,-197 278.11,-197 278.11,-197 272.11,-197 266.11,-191 266.11,-185 266.11,-185 266.11,-173 266.11,-173 266.11,-167 272.11,-161 278.11,-161 278.11,-161 427.87,-161 427.87,-161 433.87,-161 439.87,-167 439.87,-173 439.87,-173 439.87,-185 439.87,-185 439.87,-191 433.87,-197 427.87,-197"/>
<text xml:space="preserve" text-anchor="middle" x="352.99" y="-182.3" font-family="Arial" font-size="11.00" fill="#333333">Use built&#45;in layout</text>
<text xml:space="preserve" text-anchor="middle" x="352.99" y="-169.1" font-family="Arial" font-size="11.00" fill="#333333">home, page, listing, or notFound</text>
</g>
<!-- resolve&#45;&gt;builtin -->
<g id="edge11" class="edge">
<title>resolve&#45;&gt;builtin</title>
<path fill="none" stroke="#aaaaaa" d="M352.99,-264.88C352.99,-264.88 352.99,-208.77 352.99,-208.77"/>
<polygon fill="#aaaaaa" stroke="#aaaaaa" points="356.49,-208.77 352.99,-198.77 349.49,-208.77 356.49,-208.77"/>
<text xml:space="preserve" text-anchor="middle" x="409.41" y="-234" font-family="Arial" font-size="10.00" fill="#333333">no override, built&#45;in name</text>
<text xml:space="preserve" text-anchor="middle" x="409.41" y="-222" font-family="Arial" font-size="10.00" fill="#333333">including listing</text>
</g>
<!-- error -->
<g id="node10" class="node">
<title>error</title>
<path fill="#b43a3a" stroke="#8e2828" d="M602.57,-197C602.57,-197 483.41,-197 483.41,-197 477.41,-197 471.41,-191 471.41,-185 471.41,-185 471.41,-173 471.41,-173 471.41,-167 477.41,-161 483.41,-161 483.41,-161 602.57,-161 602.57,-161 608.57,-161 614.57,-167 614.57,-173 614.57,-173 614.57,-185 614.57,-185 614.57,-191 608.57,-197 602.57,-197"/>
<text xml:space="preserve" text-anchor="middle" x="542.99" y="-182.3" font-family="Arial" font-size="11.00" fill="#ffffff">Build error</text>
<text xml:space="preserve" text-anchor="middle" x="542.99" y="-169.1" font-family="Arial" font-size="11.00" fill="#ffffff">missing layout registration</text>
</g>
<!-- resolve&#45;&gt;error -->
<g id="edge12" class="edge">
<title>resolve&#45;&gt;error</title>
<path fill="none" stroke="#aaaaaa" d="M492.75,-280.43C492.75,-280.43 492.75,-208.61 492.75,-208.61"/>
<polygon fill="#aaaaaa" stroke="#aaaaaa" points="496.25,-208.61 492.75,-198.61 489.25,-208.61 496.25,-208.61"/>
<text xml:space="preserve" text-anchor="middle" x="622.2" y="-228" font-family="Arial" font-size="10.00" fill="#333333">no override, unknown custom name</text>
</g>
<!-- render -->
<g id="node11" class="node">
<title>render</title>
<path fill="#dae8fc" stroke="#6c8ebf" d="M347.82,-117C347.82,-117 160.16,-117 160.16,-117 154.16,-117 148.16,-111 148.16,-105 148.16,-105 148.16,-93 148.16,-93 148.16,-87 154.16,-81 160.16,-81 160.16,-81 347.82,-81 347.82,-81 353.82,-81 359.82,-87 359.82,-93 359.82,-93 359.82,-105 359.82,-105 359.82,-111 353.82,-117 347.82,-117"/>
<text xml:space="preserve" text-anchor="middle" x="253.99" y="-102.3" font-family="Arial" font-size="11.00" fill="#333333">Render with shared props</text>
<text xml:space="preserve" text-anchor="middle" x="253.99" y="-89.1" font-family="Arial" font-size="11.00" fill="#333333">content, frontmatter, headings, slug, site</text>
</g>
<!-- custom&#45;&gt;render -->
<g id="edge13" class="edge">
<title>custom&#45;&gt;render</title>
<path fill="none" stroke="#aaaaaa" d="M191.07,-160.85C191.07,-160.85 191.07,-128.87 191.07,-128.87"/>
<polygon fill="#aaaaaa" stroke="#aaaaaa" points="194.57,-128.87 191.07,-118.87 187.57,-128.87 194.57,-128.87"/>
</g>
<!-- builtin&#45;&gt;render -->
<g id="edge14" class="edge">
<title>builtin&#45;&gt;render</title>
<path fill="none" stroke="#aaaaaa" d="M312.96,-160.85C312.96,-160.85 312.96,-128.87 312.96,-128.87"/>
<polygon fill="#aaaaaa" stroke="#aaaaaa" points="316.46,-128.87 312.96,-118.87 309.46,-128.87 316.46,-128.87"/>
</g>
<!-- extra -->
<g id="node12" class="node">
<title>extra</title>
<path fill="#dae8fc" stroke="#6c8ebf" d="M327.03,-37C327.03,-37 180.94,-37 180.94,-37 174.94,-37 168.94,-31 168.94,-25 168.94,-25 168.94,-13 168.94,-13 168.94,-7 174.94,-1 180.94,-1 180.94,-1 327.03,-1 327.03,-1 333.03,-1 339.03,-7 339.03,-13 339.03,-13 339.03,-25 339.03,-25 339.03,-31 333.03,-37 327.03,-37"/>
<text xml:space="preserve" text-anchor="middle" x="253.99" y="-22.3" font-family="Arial" font-size="11.00" fill="#333333">Docs&#45;page layouts also receive</text>
<text xml:space="preserve" text-anchor="middle" x="253.99" y="-9.1" font-family="Arial" font-size="11.00" fill="#333333">sidebarSections, prev, and next</text>
</g>
<!-- render&#45;&gt;extra -->
<g id="edge15" class="edge">
<title>render&#45;&gt;extra</title>
<path fill="none" stroke="#aaaaaa" d="M253.99,-80.85C253.99,-80.85 253.99,-48.87 253.99,-48.87"/>
<polygon fill="#aaaaaa" stroke="#aaaaaa" points="257.49,-48.87 253.99,-38.87 250.49,-48.87 257.49,-48.87"/>
</g>
</g>
</svg>
