<svg xmlns="http://www.w3.org/2000/svg" width="583pt" height="331pt" viewBox="0 0 583 331"><g id="graph0" class="graph" transform="translate(7.2 323.36)"><title>CollectionPipeline</title><g id="node1" class="node"><title>files</title><path fill="#dae8fc" stroke="#6c8ebf" d="M97.2-316.16H12c-6 0-12 6-12 12v22.08c0 6 6 12 12 12h85.2c6 0 12-6 12-12v-22.08c0-6-6-12-12-12"/><text xml:space="preserve" x="54.6" y="-302.12" fill="#333" font-family="Times,serif" font-size="10" text-anchor="middle">Files</text><text xml:space="preserve" x="54.6" y="-290.12" fill="#333" font-family="Times,serif" font-size="10" text-anchor="middle">content/posts/*.md</text><text xml:space="preserve" x="54.6" y="-278.12" fill="#333" font-family="Times,serif" font-size="10" text-anchor="middle">content/authors/*.yaml</text></g><g id="node2" class="node"><title>loader</title><path fill="#dae8fc" stroke="#6c8ebf" d="M202.38-316.16h-63.56c-6 0-12 6-12 12v22.08c0 6 6 12 12 12h63.56c6 0 12-6 12-12v-22.08c0-6-6-12-12-12"/><text xml:space="preserve" x="170.6" y="-302.12" fill="#333" font-family="Times,serif" font-size="10" text-anchor="middle">Loader</text><text xml:space="preserve" x="170.6" y="-290.12" fill="#333" font-family="Times,serif" font-size="10" text-anchor="middle">md / json / yaml /</text><text xml:space="preserve" x="170.6" y="-278.12" fill="#333" font-family="Times,serif" font-size="10" text-anchor="middle">custom</text></g><g id="edge1" class="edge"><title>files-&gt;loader</title><path fill="none" stroke="#aaa" d="M109.43-293.12h5.91"/><path fill="#aaa" stroke="#aaa" d="m115.12-296.62 10 3.5-10 3.5z"/></g><g id="node4" class="node"><title>slugify</title><path fill="#dae8fc" stroke="#6c8ebf" d="M88.9-241.08H22.3c-6 0-12 6-12 12v12c0 6 6 12 12 12h66.6c6 0 12-6 12-12v-12c0-6-6-12-12-12"/><text xml:space="preserve" x="55.6" y="-226.08" fill="#333" font-family="Times,serif" font-size="10" text-anchor="middle">slugify()</text><text xml:space="preserve" x="55.6" y="-214.08" fill="#333" font-family="Times,serif" font-size="10" text-anchor="middle">optional URL rule</text></g><g id="edge9" class="edge"><title>files-&gt;slugify</title><path fill="none" stroke="#aaa" stroke-dasharray="5,2" d="M54.93-269.84c.08 5.52.17 11.51.25 17.29"/><path fill="#aaa" stroke="#aaa" d="m58.68-252.79-3.35 10.05-3.65-9.95z"/></g><g id="node3" class="node"><title>raw</title><path fill="#dae8fc" stroke="#6c8ebf" d="M208.26-241.08h-77.32c-6 0-12 6-12 12v12c0 6 6 12 12 12h77.32c6 0 12-6 12-12v-12c0-6-6-12-12-12"/><text xml:space="preserve" x="169.6" y="-226.08" fill="#333" font-family="Times,serif" font-size="10" text-anchor="middle">RawEntry</text><text xml:space="preserve" x="169.6" y="-214.08" fill="#333" font-family="Times,serif" font-size="10" text-anchor="middle">data + content + slug</text></g><g id="edge2" class="edge"><title>loader-&gt;raw</title><path fill="none" stroke="#aaa" d="M170.27-269.84c-.08 5.52-.16 11.51-.25 17.29"/><path fill="#aaa" stroke="#aaa" d="m173.52-252.69-3.64 9.95-3.36-10.05z"/></g><g id="node5" class="node"><title>transform</title><path fill="#dae8fc" stroke="#6c8ebf" d="M211.92-176.08h-84.64c-6 0-12 6-12 12v12c0 6 6 12 12 12h84.64c6 0 12-6 12-12v-12c0-6-6-12-12-12"/><text xml:space="preserve" x="169.6" y="-161.08" fill="#333" font-family="Times,serif" font-size="10" text-anchor="middle">transform()</text><text xml:space="preserve" x="169.6" y="-149.08" fill="#333" font-family="Times,serif" font-size="10" text-anchor="middle">optional pre-validation</text></g><g id="edge3" class="edge"><title>raw-&gt;transform</title><path fill="none" stroke="#aaa" d="M169.6-204.86v17.52"/><path fill="#aaa" stroke="#aaa" d="m173.1-187.79-3.5 10-3.5-10z"/></g><g id="edge10" class="edge"><title>slugify-&gt;raw</title><path fill="none" stroke="#aaa" stroke-dasharray="5,2" d="M101.02-223.08h6.36"/><path fill="#aaa" stroke="#aaa" d="m107.19-226.58 10 3.5-10 3.5z"/></g><g id="node6" class="node"><title>schema</title><path fill="#dae8fc" stroke="#6c8ebf" d="M333.73-176.08h-80.26c-6 0-12 6-12 12v12c0 6 6 12 12 12h80.26c6 0 12-6 12-12v-12c0-6-6-12-12-12"/><text xml:space="preserve" x="293.6" y="-161.08" fill="#333" font-family="Times,serif" font-size="10" text-anchor="middle">schema</text><text xml:space="preserve" x="293.6" y="-149.08" fill="#333" font-family="Times,serif" font-size="10" text-anchor="middle">Zod validate + coerce</text></g><g id="edge4" class="edge"><title>transform-&gt;schema</title><path fill="none" stroke="#aaa" d="M224.34-158.08h5.5"/><path fill="#aaa" stroke="#aaa" d="m229.6-161.58 10 3.5-10 3.5z"/></g><g id="node7" class="node"><title>derived</title><path fill="#dae8fc" stroke="#6c8ebf" d="M329.67-111.08h-72.14c-6 0-12 6-12 12v12c0 6 6 12 12 12h72.14c6 0 12-6 12-12v-12c0-6-6-12-12-12"/><text xml:space="preserve" x="293.6" y="-96.08" fill="#333" font-family="Times,serif" font-size="10" text-anchor="middle">computed /</text><text xml:space="preserve" x="293.6" y="-84.08" fill="#333" font-family="Times,serif" font-size="10" text-anchor="middle">validate / validators</text></g><g id="edge5" class="edge"><title>schema-&gt;derived</title><path fill="none" stroke="#aaa" d="M293.6-139.86v17.52"/><path fill="#aaa" stroke="#aaa" d="m297.1-122.79-3.5 10-3.5-10z"/></g><g id="node8" class="node"><title>filter</title><path fill="#dae8fc" stroke="#6c8ebf" d="M425.37-111.08h-53.53c-6 0-12 6-12 12v12c0 6 6 12 12 12h53.53c6 0 12-6 12-12v-12c0-6-6-12-12-12"/><text xml:space="preserve" x="398.6" y="-96.08" fill="#333" font-family="Times,serif" font-size="10" text-anchor="middle">filter()</text><text xml:space="preserve" x="398.6" y="-84.08" fill="#333" font-family="Times,serif" font-size="10" text-anchor="middle">exclude entries</text></g><g id="edge6" class="edge"><title>derived-&gt;filter</title><path fill="none" stroke="#aaa" d="M342-93.08h6.36"/><path fill="#aaa" stroke="#aaa" d="m348.17-96.58 10 3.5-10 3.5z"/></g><g id="node9" class="node"><title>entries</title><path fill="#dae8fc" stroke="#6c8ebf" d="M430.65-41.04h-64.1c-6 0-12 6-12 12v12c0 6 6 12 12 12h64.1c6 0 12-6 12-12v-12c0-6-6-12-12-12"/><text xml:space="preserve" x="398.6" y="-26.04" fill="#333" font-family="Times,serif" font-size="10" text-anchor="middle">Collection entries</text><text xml:space="preserve" x="398.6" y="-14.04" fill="#333" font-family="Times,serif" font-size="10" text-anchor="middle">typed data + slug</text></g><g id="edge7" class="edge"><title>filter-&gt;entries</title><path fill="none" stroke="#aaa" d="M398.6-74.91v22.14"/><path fill="#aaa" stroke="#aaa" d="m402.1-52.95-3.5 10-3.5-10z"/></g><g id="node10" class="node"><title>consume</title><path fill="#dae8fc" stroke="#6c8ebf" d="M556.63-46.08h-84.06c-6 0-12 6-12 12V-12c0 6 6 12 12 12h84.06c6 0 12-6 12-12v-22.08c0-6-6-12-12-12"/><text xml:space="preserve" x="514.6" y="-32.04" fill="#333" font-family="Times,serif" font-size="10" text-anchor="middle">Consume via</text><text xml:space="preserve" x="514.6" y="-20.04" fill="#333" font-family="Times,serif" font-size="10" text-anchor="middle">createContentLayer() /</text><text xml:space="preserve" x="514.6" y="-8.04" fill="#333" font-family="Times,serif" font-size="10" text-anchor="middle">pagesmithContent()</text></g><g id="edge8" class="edge"><title>entries-&gt;consume</title><path fill="none" stroke="#aaa" d="M443.01-23.04h5.96"/><path fill="#aaa" stroke="#aaa" d="m448.83-26.54 10 3.5-10 3.5z"/></g></g></svg>