<?xml version="1.0" encoding="UTF-8" standalone="no"?>
<!DOCTYPE svg PUBLIC "-//W3C//DTD SVG 1.1//EN"
 "http://www.w3.org/Graphics/SVG/1.1/DTD/svg11.dtd">
<!-- Generated by graphviz version 14.1.3 (20260303.0454)
 -->
<!-- Title: CollectionPipeline Pages: 1 -->
<svg width="388pt" height="980pt"
 viewBox="0.00 0.00 388.00 980.00" xmlns="http://www.w3.org/2000/svg" xmlns:xlink="http://www.w3.org/1999/xlink">
<g id="graph0" class="graph" transform="scale(1 1) rotate(0) translate(14.4 965.92)">
<title>CollectionPipeline</title>
<!-- files -->
<g id="node1" class="node">
<title>files</title>
<path fill="#193966" stroke="#6c8ebf" d="M240.62,-951.52C240.62,-951.52 110.01,-951.52 110.01,-951.52 104.01,-951.52 98.01,-945.52 98.01,-939.52 98.01,-939.52 98.01,-895.84 98.01,-895.84 98.01,-889.84 104.01,-883.84 110.01,-883.84 110.01,-883.84 240.62,-883.84 240.62,-883.84 246.62,-883.84 252.62,-889.84 252.62,-895.84 252.62,-895.84 252.62,-939.52 252.62,-939.52 252.62,-945.52 246.62,-951.52 240.62,-951.52"/>
<text xml:space="preserve" text-anchor="middle" x="175.31" y="-930.28" font-family="Times,serif" font-size="14.00" fill="#333333">Files in directory</text>
<text xml:space="preserve" text-anchor="middle" x="175.31" y="-913.48" font-family="Times,serif" font-size="14.00" fill="#333333">content/posts/*.md</text>
<text xml:space="preserve" text-anchor="middle" x="175.31" y="-896.68" font-family="Times,serif" font-size="14.00" fill="#333333">content/authors/*.yaml</text>
</g>
<!-- loader -->
<g id="node2" class="node">
<title>loader</title>
<path fill="#193966" stroke="#6c8ebf" d="M142.63,-836.84C142.63,-836.84 12,-836.84 12,-836.84 6,-836.84 0,-830.84 0,-824.84 0,-824.84 0,-781.16 0,-781.16 0,-775.16 6,-769.16 12,-769.16 12,-769.16 142.63,-769.16 142.63,-769.16 148.63,-769.16 154.63,-775.16 154.63,-781.16 154.63,-781.16 154.63,-824.84 154.63,-824.84 154.63,-830.84 148.63,-836.84 142.63,-836.84"/>
<text xml:space="preserve" text-anchor="middle" x="77.31" y="-815.6" font-family="Times,serif" font-size="14.00" fill="#333333">Loader</text>
<text xml:space="preserve" text-anchor="middle" x="77.31" y="-798.8" font-family="Times,serif" font-size="14.00" fill="#333333">markdown, json, yaml,</text>
<text xml:space="preserve" text-anchor="middle" x="77.31" y="-782" font-family="Times,serif" font-size="14.00" fill="#333333">or a custom Loader</text>
</g>
<!-- files&#45;&gt;loader -->
<g id="edge1" class="edge">
<title>files&#45;&gt;loader</title>
<path fill="none" stroke="#7b7b7b" d="M146.44,-883.48C136.07,-871.56 124.25,-857.97 113.35,-845.43"/>
<polygon fill="#7b7b7b" stroke="#7b7b7b" points="116.18,-843.35 106.97,-838.1 110.9,-847.95 116.18,-843.35"/>
</g>
<!-- slugify -->
<g id="node10" class="node">
<title>slugify</title>
<path fill="#193966" stroke="#6c8ebf" d="M347.57,-828.44C347.57,-828.44 199.06,-828.44 199.06,-828.44 193.06,-828.44 187.06,-822.44 187.06,-816.44 187.06,-816.44 187.06,-789.56 187.06,-789.56 187.06,-783.56 193.06,-777.56 199.06,-777.56 199.06,-777.56 347.57,-777.56 347.57,-777.56 353.57,-777.56 359.57,-783.56 359.57,-789.56 359.57,-789.56 359.57,-816.44 359.57,-816.44 359.57,-822.44 353.57,-828.44 347.57,-828.44"/>
<text xml:space="preserve" text-anchor="middle" x="273.31" y="-807.2" font-family="Times,serif" font-size="14.00" fill="#333333">slugify()</text>
<text xml:space="preserve" text-anchor="middle" x="273.31" y="-790.4" font-family="Times,serif" font-size="14.00" fill="#333333">optional custom URL rule</text>
</g>
<!-- files&#45;&gt;slugify -->
<g id="edge9" class="edge">
<title>files&#45;&gt;slugify</title>
<path fill="none" stroke="#7b7b7b" stroke-dasharray="5,2" d="M204.19,-883.48C216.93,-868.83 231.87,-851.65 244.6,-837.02"/>
<polygon fill="#7b7b7b" stroke="#7b7b7b" points="246.88,-839.72 250.81,-829.88 241.6,-835.13 246.88,-839.72"/>
</g>
<!-- raw -->
<g id="node3" class="node">
<title>raw</title>
<path fill="#193966" stroke="#6c8ebf" d="M240.67,-722.16C240.67,-722.16 109.95,-722.16 109.95,-722.16 103.95,-722.16 97.95,-716.16 97.95,-710.16 97.95,-710.16 97.95,-666.48 97.95,-666.48 97.95,-660.48 103.95,-654.48 109.95,-654.48 109.95,-654.48 240.67,-654.48 240.67,-654.48 246.67,-654.48 252.67,-660.48 252.67,-666.48 252.67,-666.48 252.67,-710.16 252.67,-710.16 252.67,-716.16 246.67,-722.16 240.67,-722.16"/>
<text xml:space="preserve" text-anchor="middle" x="175.31" y="-700.92" font-family="Times,serif" font-size="14.00" fill="#333333">RawEntry</text>
<text xml:space="preserve" text-anchor="middle" x="175.31" y="-684.12" font-family="Times,serif" font-size="14.00" fill="#333333">data + optional content</text>
<text xml:space="preserve" text-anchor="middle" x="175.31" y="-667.32" font-family="Times,serif" font-size="14.00" fill="#333333">+ filePath + slug</text>
</g>
<!-- loader&#45;&gt;raw -->
<g id="edge2" class="edge">
<title>loader&#45;&gt;raw</title>
<path fill="none" stroke="#7b7b7b" d="M106.19,-768.8C116.55,-756.88 128.38,-743.29 139.28,-730.75"/>
<polygon fill="#7b7b7b" stroke="#7b7b7b" points="141.73,-733.27 145.65,-723.42 136.45,-728.67 141.73,-733.27"/>
</g>
<!-- transform -->
<g id="node4" class="node">
<title>transform</title>
<path fill="#193966" stroke="#6c8ebf" d="M240.23,-607.48C240.23,-607.48 110.4,-607.48 110.4,-607.48 104.4,-607.48 98.4,-601.48 98.4,-595.48 98.4,-595.48 98.4,-551.8 98.4,-551.8 98.4,-545.8 104.4,-539.8 110.4,-539.8 110.4,-539.8 240.23,-539.8 240.23,-539.8 246.23,-539.8 252.23,-545.8 252.23,-551.8 252.23,-551.8 252.23,-595.48 252.23,-595.48 252.23,-601.48 246.23,-607.48 240.23,-607.48"/>
<text xml:space="preserve" text-anchor="middle" x="175.31" y="-586.24" font-family="Times,serif" font-size="14.00" fill="#333333">transform()</text>
<text xml:space="preserve" text-anchor="middle" x="175.31" y="-569.44" font-family="Times,serif" font-size="14.00" fill="#333333">optional pre&#45;validation</text>
<text xml:space="preserve" text-anchor="middle" x="175.31" y="-552.64" font-family="Times,serif" font-size="14.00" fill="#333333">normalization</text>
</g>
<!-- raw&#45;&gt;transform -->
<g id="edge3" class="edge">
<title>raw&#45;&gt;transform</title>
<path fill="none" stroke="#7b7b7b" d="M175.31,-654.12C175.31,-643.12 175.31,-630.69 175.31,-618.98"/>
<polygon fill="#7b7b7b" stroke="#7b7b7b" points="178.81,-619.11 175.31,-609.11 171.81,-619.11 178.81,-619.11"/>
</g>
<!-- schema -->
<g id="node5" class="node">
<title>schema</title>
<path fill="#193966" stroke="#6c8ebf" d="M262.18,-492.8C262.18,-492.8 88.45,-492.8 88.45,-492.8 82.45,-492.8 76.45,-486.8 76.45,-480.8 76.45,-480.8 76.45,-453.92 76.45,-453.92 76.45,-447.92 82.45,-441.92 88.45,-441.92 88.45,-441.92 262.18,-441.92 262.18,-441.92 268.18,-441.92 274.18,-447.92 274.18,-453.92 274.18,-453.92 274.18,-480.8 274.18,-480.8 274.18,-486.8 268.18,-492.8 262.18,-492.8"/>
<text xml:space="preserve" text-anchor="middle" x="175.31" y="-471.56" font-family="Times,serif" font-size="14.00" fill="#333333">schema</text>
<text xml:space="preserve" text-anchor="middle" x="175.31" y="-454.76" font-family="Times,serif" font-size="14.00" fill="#333333">Zod validates and coerces data</text>
</g>
<!-- transform&#45;&gt;schema -->
<g id="edge4" class="edge">
<title>transform&#45;&gt;schema</title>
<path fill="none" stroke="#7b7b7b" d="M175.31,-539.36C175.31,-528.21 175.31,-515.73 175.31,-504.38"/>
<polygon fill="#7b7b7b" stroke="#7b7b7b" points="178.81,-504.58 175.31,-494.58 171.81,-504.58 178.81,-504.58"/>
</g>
<!-- derived -->
<g id="node6" class="node">
<title>derived</title>
<path fill="#193966" stroke="#6c8ebf" d="M239.26,-394.92C239.26,-394.92 111.37,-394.92 111.37,-394.92 105.37,-394.92 99.37,-388.92 99.37,-382.92 99.37,-382.92 99.37,-322.44 99.37,-322.44 99.37,-316.44 105.37,-310.44 111.37,-310.44 111.37,-310.44 239.26,-310.44 239.26,-310.44 245.26,-310.44 251.26,-316.44 251.26,-322.44 251.26,-322.44 251.26,-382.92 251.26,-382.92 251.26,-388.92 245.26,-394.92 239.26,-394.92"/>
<text xml:space="preserve" text-anchor="middle" x="175.31" y="-373.68" font-family="Times,serif" font-size="14.00" fill="#333333">computed / validate /</text>
<text xml:space="preserve" text-anchor="middle" x="175.31" y="-356.88" font-family="Times,serif" font-size="14.00" fill="#333333">validators</text>
<text xml:space="preserve" text-anchor="middle" x="175.31" y="-340.08" font-family="Times,serif" font-size="14.00" fill="#333333">optional derived fields</text>
<text xml:space="preserve" text-anchor="middle" x="175.31" y="-323.28" font-family="Times,serif" font-size="14.00" fill="#333333">and checks</text>
</g>
<!-- schema&#45;&gt;derived -->
<g id="edge5" class="edge">
<title>schema&#45;&gt;derived</title>
<path fill="none" stroke="#7b7b7b" d="M175.31,-441.63C175.31,-431.22 175.31,-418.67 175.31,-406.36"/>
<polygon fill="#7b7b7b" stroke="#7b7b7b" points="178.81,-406.7 175.31,-396.7 171.81,-406.7 178.81,-406.7"/>
</g>
<!-- filter -->
<g id="node7" class="node">
<title>filter</title>
<path fill="#193966" stroke="#6c8ebf" d="M265.5,-263.44C265.5,-263.44 85.13,-263.44 85.13,-263.44 79.13,-263.44 73.13,-257.44 73.13,-251.44 73.13,-251.44 73.13,-224.56 73.13,-224.56 73.13,-218.56 79.13,-212.56 85.13,-212.56 85.13,-212.56 265.5,-212.56 265.5,-212.56 271.5,-212.56 277.5,-218.56 277.5,-224.56 277.5,-224.56 277.5,-251.44 277.5,-251.44 277.5,-257.44 271.5,-263.44 265.5,-263.44"/>
<text xml:space="preserve" text-anchor="middle" x="175.31" y="-242.2" font-family="Times,serif" font-size="14.00" fill="#333333">filter()</text>
<text xml:space="preserve" text-anchor="middle" x="175.31" y="-225.4" font-family="Times,serif" font-size="14.00" fill="#333333">exclude entries you do not want</text>
</g>
<!-- derived&#45;&gt;filter -->
<g id="edge6" class="edge">
<title>derived&#45;&gt;filter</title>
<path fill="none" stroke="#7b7b7b" d="M175.31,-310.04C175.31,-298.62 175.31,-286.34 175.31,-275.25"/>
<polygon fill="#7b7b7b" stroke="#7b7b7b" points="178.81,-275.3 175.31,-265.3 171.81,-275.3 178.81,-275.3"/>
</g>
<!-- entries -->
<g id="node8" class="node">
<title>entries</title>
<path fill="#193966" stroke="#6c8ebf" d="M240.48,-165.56C240.48,-165.56 110.14,-165.56 110.14,-165.56 104.14,-165.56 98.14,-159.56 98.14,-153.56 98.14,-153.56 98.14,-126.68 98.14,-126.68 98.14,-120.68 104.14,-114.68 110.14,-114.68 110.14,-114.68 240.48,-114.68 240.48,-114.68 246.48,-114.68 252.48,-120.68 252.48,-126.68 252.48,-126.68 252.48,-153.56 252.48,-153.56 252.48,-159.56 246.48,-165.56 240.48,-165.56"/>
<text xml:space="preserve" text-anchor="middle" x="175.31" y="-144.32" font-family="Times,serif" font-size="14.00" fill="#333333">Collection entries</text>
<text xml:space="preserve" text-anchor="middle" x="175.31" y="-127.52" font-family="Times,serif" font-size="14.00" fill="#333333">typed entry.data + slug</text>
</g>
<!-- filter&#45;&gt;entries -->
<g id="edge7" class="edge">
<title>filter&#45;&gt;entries</title>
<path fill="none" stroke="#7b7b7b" d="M175.31,-212.31C175.31,-201.57 175.31,-188.78 175.31,-177.03"/>
<polygon fill="#7b7b7b" stroke="#7b7b7b" points="178.81,-177.24 175.31,-167.24 171.81,-177.24 178.81,-177.24"/>
</g>
<!-- consume -->
<g id="node9" class="node">
<title>consume</title>
<path fill="#193966" stroke="#6c8ebf" d="M239.45,-67.68C239.45,-67.68 111.17,-67.68 111.17,-67.68 105.17,-67.68 99.17,-61.68 99.17,-55.68 99.17,-55.68 99.17,-12 99.17,-12 99.17,-6 105.17,0 111.17,0 111.17,0 239.45,0 239.45,0 245.45,0 251.45,-6 251.45,-12 251.45,-12 251.45,-55.68 251.45,-55.68 251.45,-61.68 245.45,-67.68 239.45,-67.68"/>
<text xml:space="preserve" text-anchor="middle" x="175.31" y="-46.44" font-family="Times,serif" font-size="14.00" fill="#333333">Consume via</text>
<text xml:space="preserve" text-anchor="middle" x="175.31" y="-29.64" font-family="Times,serif" font-size="14.00" fill="#333333">createContentLayer()</text>
<text xml:space="preserve" text-anchor="middle" x="175.31" y="-12.84" font-family="Times,serif" font-size="14.00" fill="#333333">or pagesmithContent()</text>
</g>
<!-- entries&#45;&gt;consume -->
<g id="edge8" class="edge">
<title>entries&#45;&gt;consume</title>
<path fill="none" stroke="#7b7b7b" d="M175.31,-114.41C175.31,-103.91 175.31,-91.34 175.31,-79.32"/>
<polygon fill="#7b7b7b" stroke="#7b7b7b" points="178.81,-79.57 175.31,-69.57 171.81,-79.57 178.81,-79.57"/>
</g>
<!-- slugify&#45;&gt;raw -->
<g id="edge10" class="edge">
<title>slugify&#45;&gt;raw</title>
<path fill="none" stroke="#7b7b7b" stroke-dasharray="5,2" d="M251.81,-777.27C240.02,-763.72 225.09,-746.55 211.55,-730.99"/>
<polygon fill="#7b7b7b" stroke="#7b7b7b" points="214.4,-728.93 205.2,-723.68 209.12,-733.53 214.4,-728.93"/>
</g>
</g>
</svg>
