<svg xmlns="http://www.w3.org/2000/svg" width="952" height="437pt" viewBox="0 0 714 437"><g id="graph0" class="graph" transform="translate(7.2 430.24)"><title>ValidationRenderingFlow</title><g id="node1" class="node"><title>start</title><path fill="#dae8fc" stroke="#6c8ebf" d="M65.82-418H12c-6 0-12 6-12 12v12c0 6 6 12 12 12h53.82c6 0 12-6 12-12v-12c0-6-6-12-12-12"/><text xml:space="preserve" x="38.91" y="-403" fill="#333" font-family="Times,serif" font-size="10" text-anchor="middle">getCollection()</text><text xml:space="preserve" x="38.91" y="-391" fill="#333" font-family="Times,serif" font-size="10" text-anchor="middle">load files</text></g><g id="node2" class="node"><title>schema</title><path fill="#dae8fc" stroke="#6c8ebf" d="M190.79-423.04h-65.76c-6 0-12 6-12 12v22.08c0 6 6 12 12 12h65.76c6 0 12-6 12-12v-22.08c0-6-6-12-12-12"/><text xml:space="preserve" x="157.91" y="-409" fill="#333" font-family="Times,serif" font-size="10" text-anchor="middle">Phase 1</text><text xml:space="preserve" x="157.91" y="-397" fill="#333" font-family="Times,serif" font-size="10" text-anchor="middle">schema validation</text><text xml:space="preserve" x="157.91" y="-385" fill="#333" font-family="Times,serif" font-size="10" text-anchor="middle">(Zod)</text></g><g id="edge1" class="edge"><title>start-&gt;schema</title><path fill="none" stroke="#aaa" d="M77.96-400h23.29"/><path fill="#aaa" stroke="#aaa" d="m101.11-403.5 10 3.5-10 3.5z"/></g><g id="node3" class="node"><title>mdast</title><path fill="#dae8fc" stroke="#6c8ebf" d="M188.01-345.96H127.8c-6 0-12 6-12 12v12c0 6 6 12 12 12h60.21c6 0 12-6 12-12v-12c0-6-6-12-12-12"/><text xml:space="preserve" x="157.91" y="-330.96" fill="#333" font-family="Times,serif" font-size="10" text-anchor="middle">Parse markdown</text><text xml:space="preserve" x="157.91" y="-318.96" fill="#333" font-family="Times,serif" font-size="10" text-anchor="middle">shared MDAST</text></g><g id="edge2" class="edge"><title>schema-&gt;mdast</title><path fill="none" stroke="#aaa" d="M157.91-376.84v19.57"/><path fill="#aaa" stroke="#aaa" d="m161.41-357.61-3.5 10-3.5-10z"/></g><g id="node4" class="node"><title>validators</title><path fill="#dae8fc" stroke="#6c8ebf" d="M312.23-345.96h-64.65c-6 0-12 6-12 12v12c0 6 6 12 12 12h64.65c6 0 12-6 12-12v-12c0-6-6-12-12-12"/><text xml:space="preserve" x="279.91" y="-330.96" fill="#333" font-family="Times,serif" font-size="10" text-anchor="middle">Phase 2</text><text xml:space="preserve" x="279.91" y="-318.96" fill="#333" font-family="Times,serif" font-size="10" text-anchor="middle">content validators</text></g><g id="edge3" class="edge"><title>mdast-&gt;validators</title><path fill="none" stroke="#aaa" d="M200.32-327.96h23.4"/><path fill="#aaa" stroke="#aaa" d="m223.63-331.46 10 3.5-10 3.5z"/></g><g id="node5" class="node"><title>plugins</title><path fill="#dae8fc" stroke="#6c8ebf" d="M309.73-278.96h-59.65c-6 0-12 6-12 12v12c0 6 6 12 12 12h59.65c6 0 12-6 12-12v-12c0-6-6-12-12-12"/><text xml:space="preserve" x="279.91" y="-263.96" fill="#333" font-family="Times,serif" font-size="10" text-anchor="middle">Phase 3</text><text xml:space="preserve" x="279.91" y="-251.96" fill="#333" font-family="Times,serif" font-size="10" text-anchor="middle">plugin validate()</text></g><g id="edge4" class="edge"><title>validators-&gt;plugins</title><path fill="none" stroke="#aaa" d="M279.91-309.54v18.94"/><path fill="#aaa" stroke="#aaa" d="m283.41-290.94-3.5 10-3.5-10z"/></g><g id="node6" class="node"><title>entry</title><path fill="#dae8fc" stroke="#6c8ebf" d="M446.35-278.96h-76.88c-6 0-12 6-12 12v12c0 6 6 12 12 12h76.88c6 0 12-6 12-12v-12c0-6-6-12-12-12"/><text xml:space="preserve" x="407.91" y="-263.96" fill="#333" font-family="Times,serif" font-size="10" text-anchor="middle">Return ContentEntry</text><text xml:space="preserve" x="407.91" y="-251.96" fill="#333" font-family="Times,serif" font-size="10" text-anchor="middle">+ issues</text></g><g id="edge5" class="edge"><title>plugins-&gt;entry</title><path fill="none" stroke="#aaa" d="M322.16-260.96h23.4"/><path fill="#aaa" stroke="#aaa" d="m345.48-264.46 10 3.5-10 3.5z"/></g><g id="node7" class="node"><title>render</title><path fill="#dae8fc" stroke="#6c8ebf" d="m397.05-206.86-50.8 23.88c-5.44 2.55-5.44 7.65 0 10.2l50.8 23.88c5.43 2.55 16.29 2.55 21.72 0l50.8-23.88c5.43-2.55 5.43-7.65 0-10.2l-50.8-23.88c-5.43-2.55-16.29-2.55-21.72 0"/><text xml:space="preserve" x="407.91" y="-180.88" fill="#333" font-family="Times,serif" font-size="10" text-anchor="middle">entry.render()</text><text xml:space="preserve" x="407.91" y="-168.88" fill="#333" font-family="Times,serif" font-size="10" text-anchor="middle">called?</text></g><g id="edge6" class="edge"><title>entry-&gt;render</title><path fill="none" stroke="#aaa" d="M407.91-242.77v18.98"/><path fill="#aaa" stroke="#aaa" d="m411.41-223.94-3.5 10-3.5-10z"/></g><g id="node8" class="node"><title>wait</title><path fill="#dae8fc" stroke="#6c8ebf" d="M601.54-195.88h-73.26c-6 0-12 6-12 12v12c0 6 6 12 12 12h73.26c6 0 12-6 12-12v-12c0-6-6-12-12-12"/><text xml:space="preserve" x="564.91" y="-180.88" fill="#333" font-family="Times,serif" font-size="10" text-anchor="middle">Loading stays fast</text><text xml:space="preserve" x="564.91" y="-168.88" fill="#333" font-family="Times,serif" font-size="10" text-anchor="middle">until HTML needed</text></g><g id="edge7" class="edge"><title>render-&gt;wait</title><path fill="none" stroke="#aaa" d="M481.35-177.88h23.42"/><path fill="#aaa" stroke="#aaa" d="m504.66-181.38 10 3.5-10 3.5z"/><text xml:space="preserve" x="498.36" y="-183.58" fill="#333" font-family="Times,serif" font-size="9" text-anchor="middle">No</text></g><g id="node9" class="node"><title>pipeline</title><path fill="#dae8fc" stroke="#6c8ebf" d="M452.87-103h-89.93c-6 0-12 6-12 12v12c0 6 6 12 12 12h89.93c6 0 12-6 12-12v-12c0-6-6-12-12-12"/><text xml:space="preserve" x="407.91" y="-88" fill="#333" font-family="Times,serif" font-size="10" text-anchor="middle">Run markdown pipeline</text><text xml:space="preserve" x="407.91" y="-76" fill="#333" font-family="Times,serif" font-size="10" text-anchor="middle">build HTML</text></g><g id="edge8" class="edge"><title>render-&gt;pipeline</title><path fill="none" stroke="#aaa" d="M407.91-143.3v28.68"/><path fill="#aaa" stroke="#aaa" d="m411.41-114.92-3.5 10-3.5-10z"/><text xml:space="preserve" x="414.91" y="-120.7" fill="#333" font-family="Times,serif" font-size="9" text-anchor="middle">Yes</text></g><g id="node10" class="node"><title>headings</title><path fill="#dae8fc" stroke="#6c8ebf" d="M573.01-103h-60.2c-6 0-12 6-12 12v12c0 6 6 12 12 12h60.2c6 0 12-6 12-12v-12c0-6-6-12-12-12"/><text xml:space="preserve" x="542.91" y="-88" fill="#333" font-family="Times,serif" font-size="10" text-anchor="middle">Extract headings</text><text xml:space="preserve" x="542.91" y="-76" fill="#333" font-family="Times,serif" font-size="10" text-anchor="middle">+ read time</text></g><g id="edge9" class="edge"><title>pipeline-&gt;headings</title><path fill="none" stroke="#aaa" d="M465.13-85h23.95"/><path fill="#aaa" stroke="#aaa" d="m488.86-88.5 10 3.5-10 3.5z"/></g><g id="node11" class="node"><title>cache</title><path fill="#dae8fc" stroke="#6c8ebf" d="M588.28-36h-90.74c-6 0-12 6-12 12v12c0 6 6 12 12 12h90.74c6 0 12-6 12-12v-12c0-6-6-12-12-12"/><text xml:space="preserve" x="542.91" y="-15" fill="#333" font-family="Times,serif" font-size="10" text-anchor="middle">Cache RenderedContent</text></g><g id="edge10" class="edge"><title>headings-&gt;cache</title><path fill="none" stroke="#aaa" d="M542.91-66.58v18.94"/><path fill="#aaa" stroke="#aaa" d="m546.41-47.98-3.5 10-3.5-10z"/></g><g id="node12" class="node"><title>reuse</title><path fill="#dae8fc" stroke="#6c8ebf" d="M687.72-36h-39.63c-6 0-12 6-12 12v12c0 6 6 12 12 12h39.63c6 0 12-6 12-12v-12c0-6-6-12-12-12"/><text xml:space="preserve" x="667.91" y="-21" fill="#333" font-family="Times,serif" font-size="10" text-anchor="middle">Later calls</text><text xml:space="preserve" x="667.91" y="-9" fill="#333" font-family="Times,serif" font-size="10" text-anchor="middle">reuse cache</text></g><g id="edge11" class="edge"><title>cache-&gt;reuse</title><path fill="none" stroke="#aaa" d="M600.53-18h23.97"/><path fill="#aaa" stroke="#aaa" d="m624.28-21.5 10 3.5-10 3.5z"/></g></g></svg>