<svg id="ge90f83a7-08d6-4971-8d10-2208d0a57dce-light" width="100%" xmlns="http://www.w3.org/2000/svg" xmlns:xlink="http://www.w3.org/1999/xlink" class="flowchart" style="max-width: 1885.609375px;" viewBox="0 0 1885.609375 219.39999389648438" role="graphics-document document" aria-roledescription="flowchart-v2"><style>#ge90f83a7-08d6-4971-8d10-2208d0a57dce-light{font-family:"trebuchet ms",verdana,arial,sans-serif;font-size:16px;fill:#333;}@keyframes edge-animation-frame{from{stroke-dashoffset:0;}}@keyframes dash{to{stroke-dashoffset:0;}}#ge90f83a7-08d6-4971-8d10-2208d0a57dce-light .edge-animation-slow{stroke-dasharray:9,5!important;stroke-dashoffset:900;animation:dash 50s linear infinite;stroke-linecap:round;}#ge90f83a7-08d6-4971-8d10-2208d0a57dce-light .edge-animation-fast{stroke-dasharray:9,5!important;stroke-dashoffset:900;animation:dash 20s linear infinite;stroke-linecap:round;}#ge90f83a7-08d6-4971-8d10-2208d0a57dce-light .error-icon{fill:#552222;}#ge90f83a7-08d6-4971-8d10-2208d0a57dce-light .error-text{fill:#552222;stroke:#552222;}#ge90f83a7-08d6-4971-8d10-2208d0a57dce-light .edge-thickness-normal{stroke-width:1px;}#ge90f83a7-08d6-4971-8d10-2208d0a57dce-light .edge-thickness-thick{stroke-width:3.5px;}#ge90f83a7-08d6-4971-8d10-2208d0a57dce-light .edge-pattern-solid{stroke-dasharray:0;}#ge90f83a7-08d6-4971-8d10-2208d0a57dce-light .edge-thickness-invisible{stroke-width:0;fill:none;}#ge90f83a7-08d6-4971-8d10-2208d0a57dce-light .edge-pattern-dashed{stroke-dasharray:3;}#ge90f83a7-08d6-4971-8d10-2208d0a57dce-light .edge-pattern-dotted{stroke-dasharray:2;}#ge90f83a7-08d6-4971-8d10-2208d0a57dce-light .marker{fill:#333333;stroke:#333333;}#ge90f83a7-08d6-4971-8d10-2208d0a57dce-light .marker.cross{stroke:#333333;}#ge90f83a7-08d6-4971-8d10-2208d0a57dce-light svg{font-family:"trebuchet ms",verdana,arial,sans-serif;font-size:16px;}#ge90f83a7-08d6-4971-8d10-2208d0a57dce-light p{margin:0;}#ge90f83a7-08d6-4971-8d10-2208d0a57dce-light .label{font-family:"trebuchet ms",verdana,arial,sans-serif;color:#333;}#ge90f83a7-08d6-4971-8d10-2208d0a57dce-light .cluster-label text{fill:#333;}#ge90f83a7-08d6-4971-8d10-2208d0a57dce-light .cluster-label span{color:#333;}#ge90f83a7-08d6-4971-8d10-2208d0a57dce-light .cluster-label span p{background-color:transparent;}#ge90f83a7-08d6-4971-8d10-2208d0a57dce-light .label text,#ge90f83a7-08d6-4971-8d10-2208d0a57dce-light span{fill:#333;color:#333;}#ge90f83a7-08d6-4971-8d10-2208d0a57dce-light .node rect,#ge90f83a7-08d6-4971-8d10-2208d0a57dce-light .node circle,#ge90f83a7-08d6-4971-8d10-2208d0a57dce-light .node ellipse,#ge90f83a7-08d6-4971-8d10-2208d0a57dce-light .node polygon,#ge90f83a7-08d6-4971-8d10-2208d0a57dce-light .node path{fill:#ECECFF;stroke:#9370DB;stroke-width:1px;}#ge90f83a7-08d6-4971-8d10-2208d0a57dce-light .rough-node .label text,#ge90f83a7-08d6-4971-8d10-2208d0a57dce-light .node .label text,#ge90f83a7-08d6-4971-8d10-2208d0a57dce-light .image-shape .label,#ge90f83a7-08d6-4971-8d10-2208d0a57dce-light .icon-shape .label{text-anchor:middle;}#ge90f83a7-08d6-4971-8d10-2208d0a57dce-light .node .katex path{fill:#000;stroke:#000;stroke-width:1px;}#ge90f83a7-08d6-4971-8d10-2208d0a57dce-light .rough-node .label,#ge90f83a7-08d6-4971-8d10-2208d0a57dce-light .node .label,#ge90f83a7-08d6-4971-8d10-2208d0a57dce-light .image-shape .label,#ge90f83a7-08d6-4971-8d10-2208d0a57dce-light .icon-shape .label{text-align:center;}#ge90f83a7-08d6-4971-8d10-2208d0a57dce-light .node.clickable{cursor:pointer;}#ge90f83a7-08d6-4971-8d10-2208d0a57dce-light .root .anchor path{fill:#333333!important;stroke-width:0;stroke:#333333;}#ge90f83a7-08d6-4971-8d10-2208d0a57dce-light .arrowheadPath{fill:#333333;}#ge90f83a7-08d6-4971-8d10-2208d0a57dce-light .edgePath .path{stroke:#333333;stroke-width:1px;}#ge90f83a7-08d6-4971-8d10-2208d0a57dce-light .flowchart-link{stroke:#333333;fill:none;}#ge90f83a7-08d6-4971-8d10-2208d0a57dce-light .edgeLabel{background-color:rgba(232,232,232, 0.8);text-align:center;}#ge90f83a7-08d6-4971-8d10-2208d0a57dce-light .edgeLabel p{background-color:rgba(232,232,232, 0.8);}#ge90f83a7-08d6-4971-8d10-2208d0a57dce-light .edgeLabel rect{opacity:0.5;background-color:rgba(232,232,232, 0.8);fill:rgba(232,232,232, 0.8);}#ge90f83a7-08d6-4971-8d10-2208d0a57dce-light .labelBkg{background-color:rgba(232, 232, 232, 0.5);}#ge90f83a7-08d6-4971-8d10-2208d0a57dce-light .cluster rect{fill:#ffffde;stroke:#aaaa33;stroke-width:1px;}#ge90f83a7-08d6-4971-8d10-2208d0a57dce-light .cluster text{fill:#333;}#ge90f83a7-08d6-4971-8d10-2208d0a57dce-light .cluster span{color:#333;}#ge90f83a7-08d6-4971-8d10-2208d0a57dce-light div.mermaidTooltip{position:absolute;text-align:center;max-width:200px;padding:2px;font-family:"trebuchet ms",verdana,arial,sans-serif;font-size:12px;background:hsl(80, 100%, 96.2745098039%);border:1px solid #aaaa33;border-radius:2px;pointer-events:none;z-index:100;}#ge90f83a7-08d6-4971-8d10-2208d0a57dce-light .flowchartTitleText{text-anchor:middle;font-size:18px;fill:#333;}#ge90f83a7-08d6-4971-8d10-2208d0a57dce-light rect.text{fill:none;stroke-width:0;}#ge90f83a7-08d6-4971-8d10-2208d0a57dce-light .icon-shape,#ge90f83a7-08d6-4971-8d10-2208d0a57dce-light .image-shape{background-color:rgba(232,232,232, 0.8);text-align:center;}#ge90f83a7-08d6-4971-8d10-2208d0a57dce-light .icon-shape p,#ge90f83a7-08d6-4971-8d10-2208d0a57dce-light .image-shape p{background-color:rgba(232,232,232, 0.8);padding:2px;}#ge90f83a7-08d6-4971-8d10-2208d0a57dce-light .icon-shape .label rect,#ge90f83a7-08d6-4971-8d10-2208d0a57dce-light .image-shape .label rect{opacity:0.5;background-color:rgba(232,232,232, 0.8);fill:rgba(232,232,232, 0.8);}#ge90f83a7-08d6-4971-8d10-2208d0a57dce-light .label-icon{display:inline-block;height:1em;overflow:visible;vertical-align:-0.125em;}#ge90f83a7-08d6-4971-8d10-2208d0a57dce-light .node .label-icon path{fill:currentColor;stroke:revert;stroke-width:revert;}#ge90f83a7-08d6-4971-8d10-2208d0a57dce-light .node .neo-node{stroke:#9370DB;}#ge90f83a7-08d6-4971-8d10-2208d0a57dce-light [data-look="neo"].node rect,#ge90f83a7-08d6-4971-8d10-2208d0a57dce-light [data-look="neo"].cluster rect,#ge90f83a7-08d6-4971-8d10-2208d0a57dce-light [data-look="neo"].node polygon{stroke:#9370DB;filter:drop-shadow(1px 2px 2px rgba(185, 185, 185, 1));}#ge90f83a7-08d6-4971-8d10-2208d0a57dce-light [data-look="neo"].node path{stroke:#9370DB;stroke-width:1px;}#ge90f83a7-08d6-4971-8d10-2208d0a57dce-light [data-look="neo"].node .outer-path{filter:drop-shadow(1px 2px 2px rgba(185, 185, 185, 1));}#ge90f83a7-08d6-4971-8d10-2208d0a57dce-light [data-look="neo"].node .neo-line path{stroke:#9370DB;filter:none;}#ge90f83a7-08d6-4971-8d10-2208d0a57dce-light [data-look="neo"].node circle{stroke:#9370DB;filter:drop-shadow(1px 2px 2px rgba(185, 185, 185, 1));}#ge90f83a7-08d6-4971-8d10-2208d0a57dce-light [data-look="neo"].node circle .state-start{fill:#000000;}#ge90f83a7-08d6-4971-8d10-2208d0a57dce-light [data-look="neo"].icon-shape .icon{fill:#9370DB;filter:drop-shadow(1px 2px 2px rgba(185, 185, 185, 1));}#ge90f83a7-08d6-4971-8d10-2208d0a57dce-light [data-look="neo"].icon-shape .icon-neo path{stroke:#9370DB;filter:drop-shadow(1px 2px 2px rgba(185, 185, 185, 1));}#ge90f83a7-08d6-4971-8d10-2208d0a57dce-light :root{--mermaid-font-family:"trebuchet ms",verdana,arial,sans-serif;}#ge90f83a7-08d6-4971-8d10-2208d0a57dce-light .hub rect{fill:#2E5A88!important;stroke:#1F4870!important;color:#ffffff!important;}#ge90f83a7-08d6-4971-8d10-2208d0a57dce-light .hub polygon{fill:#2E5A88!important;stroke:#1F4870!important;color:#ffffff!important;}#ge90f83a7-08d6-4971-8d10-2208d0a57dce-light .hub ellipse{fill:#2E5A88!important;stroke:#1F4870!important;color:#ffffff!important;}#ge90f83a7-08d6-4971-8d10-2208d0a57dce-light .hub circle{fill:#2E5A88!important;stroke:#1F4870!important;color:#ffffff!important;}#ge90f83a7-08d6-4971-8d10-2208d0a57dce-light .hub path{fill:#2E5A88!important;stroke:#1F4870!important;color:#ffffff!important;}#ge90f83a7-08d6-4971-8d10-2208d0a57dce-light .hub tspan{fill:#ffffff!important;}#ge90f83a7-08d6-4971-8d10-2208d0a57dce-light .tenet rect{fill:#1F6E68!important;stroke:#155752!important;color:#ffffff!important;}#ge90f83a7-08d6-4971-8d10-2208d0a57dce-light .tenet polygon{fill:#1F6E68!important;stroke:#155752!important;color:#ffffff!important;}#ge90f83a7-08d6-4971-8d10-2208d0a57dce-light .tenet ellipse{fill:#1F6E68!important;stroke:#155752!important;color:#ffffff!important;}#ge90f83a7-08d6-4971-8d10-2208d0a57dce-light .tenet circle{fill:#1F6E68!important;stroke:#155752!important;color:#ffffff!important;}#ge90f83a7-08d6-4971-8d10-2208d0a57dce-light .tenet path{fill:#1F6E68!important;stroke:#155752!important;color:#ffffff!important;}#ge90f83a7-08d6-4971-8d10-2208d0a57dce-light .tenet tspan{fill:#ffffff!important;}</style><g><marker id="ge90f83a7-08d6-4971-8d10-2208d0a57dce-light_flowchart-v2-pointEnd" class="marker flowchart-v2" viewBox="0 0 10 10" refX="5" refY="5" markerUnits="userSpaceOnUse" markerWidth="8" markerHeight="8" orient="auto"><path d="M 0 0 L 10 5 L 0 10 z" class="arrowMarkerPath" style="stroke-width: 1; stroke-dasharray: 1, 0;"></path></marker><marker id="ge90f83a7-08d6-4971-8d10-2208d0a57dce-light_flowchart-v2-pointStart" class="marker flowchart-v2" viewBox="0 0 10 10" refX="4.5" refY="5" markerUnits="userSpaceOnUse" markerWidth="8" markerHeight="8" orient="auto"><path d="M 0 5 L 10 10 L 10 0 z" class="arrowMarkerPath" style="stroke-width: 1; stroke-dasharray: 1, 0;"></path></marker><marker id="ge90f83a7-08d6-4971-8d10-2208d0a57dce-light_flowchart-v2-pointEnd-margin" class="marker flowchart-v2" viewBox="0 0 11.5 14" refX="11.5" refY="7" markerUnits="userSpaceOnUse" markerWidth="10.5" markerHeight="14" orient="auto"><path d="M 0 0 L 11.5 7 L 0 14 z" class="arrowMarkerPath" style="stroke-width: 0; stroke-dasharray: 1, 0;"></path></marker><marker id="ge90f83a7-08d6-4971-8d10-2208d0a57dce-light_flowchart-v2-pointStart-margin" class="marker flowchart-v2" viewBox="0 0 11.5 14" refX="1" refY="7" markerUnits="userSpaceOnUse" markerWidth="11.5" markerHeight="14" orient="auto"><polygon points="0,7 11.5,14 11.5,0" class="arrowMarkerPath" style="stroke-width: 0; stroke-dasharray: 1, 0;"></polygon></marker><marker id="ge90f83a7-08d6-4971-8d10-2208d0a57dce-light_flowchart-v2-circleEnd" class="marker flowchart-v2" viewBox="0 0 10 10" refX="11" refY="5" markerUnits="userSpaceOnUse" markerWidth="11" markerHeight="11" orient="auto"><circle cx="5" cy="5" r="5" class="arrowMarkerPath" style="stroke-width: 1; stroke-dasharray: 1, 0;"></circle></marker><marker id="ge90f83a7-08d6-4971-8d10-2208d0a57dce-light_flowchart-v2-circleStart" class="marker flowchart-v2" viewBox="0 0 10 10" refX="-1" refY="5" markerUnits="userSpaceOnUse" markerWidth="11" markerHeight="11" orient="auto"><circle cx="5" cy="5" r="5" class="arrowMarkerPath" style="stroke-width: 1; stroke-dasharray: 1, 0;"></circle></marker><marker id="ge90f83a7-08d6-4971-8d10-2208d0a57dce-light_flowchart-v2-circleEnd-margin" class="marker flowchart-v2" viewBox="0 0 10 10" refY="5" refX="12.25" markerUnits="userSpaceOnUse" markerWidth="14" markerHeight="14" orient="auto"><circle cx="5" cy="5" r="5" class="arrowMarkerPath" style="stroke-width: 0; stroke-dasharray: 1, 0;"></circle></marker><marker id="ge90f83a7-08d6-4971-8d10-2208d0a57dce-light_flowchart-v2-circleStart-margin" class="marker flowchart-v2" viewBox="0 0 10 10" refX="-2" refY="5" markerUnits="userSpaceOnUse" markerWidth="14" markerHeight="14" orient="auto"><circle cx="5" cy="5" r="5" class="arrowMarkerPath" style="stroke-width: 0; stroke-dasharray: 1, 0;"></circle></marker><marker id="ge90f83a7-08d6-4971-8d10-2208d0a57dce-light_flowchart-v2-crossEnd" class="marker cross flowchart-v2" viewBox="0 0 11 11" refX="12" refY="5.2" markerUnits="userSpaceOnUse" markerWidth="11" markerHeight="11" orient="auto"><path d="M 1,1 l 9,9 M 10,1 l -9,9" class="arrowMarkerPath" style="stroke-width: 2; stroke-dasharray: 1, 0;"></path></marker><marker id="ge90f83a7-08d6-4971-8d10-2208d0a57dce-light_flowchart-v2-crossStart" class="marker cross flowchart-v2" viewBox="0 0 11 11" refX="-1" refY="5.2" markerUnits="userSpaceOnUse" markerWidth="11" markerHeight="11" orient="auto"><path d="M 1,1 l 9,9 M 10,1 l -9,9" class="arrowMarkerPath" style="stroke-width: 2; stroke-dasharray: 1, 0;"></path></marker><marker id="ge90f83a7-08d6-4971-8d10-2208d0a57dce-light_flowchart-v2-crossEnd-margin" class="marker cross flowchart-v2" viewBox="0 0 15 15" refX="17.7" refY="7.5" markerUnits="userSpaceOnUse" markerWidth="12" markerHeight="12" orient="auto"><path d="M 1,1 L 14,14 M 1,14 L 14,1" class="arrowMarkerPath" style="stroke-width: 2.5;"></path></marker><marker id="ge90f83a7-08d6-4971-8d10-2208d0a57dce-light_flowchart-v2-crossStart-margin" class="marker cross flowchart-v2" viewBox="0 0 15 15" refX="-3.5" refY="7.5" markerUnits="userSpaceOnUse" markerWidth="12" markerHeight="12" orient="auto"><path d="M 1,1 L 14,14 M 1,14 L 14,1" class="arrowMarkerPath" style="stroke-width: 2.5; stroke-dasharray: 1, 0;"></path></marker><g class="root"><g class="clusters"></g><g class="edgePaths"><path d="M833.72,40.455L716.83,47.813C599.941,55.17,366.162,69.885,249.272,81.409C132.383,92.933,132.383,101.267,132.383,105.433L132.383,109.6" id="ge90f83a7-08d6-4971-8d10-2208d0a57dce-light-L_hub_filesystem_0" class="edge-thickness-normal edge-pattern-solid edge-thickness-normal edge-pattern-solid flowchart-link" style=";" data-edge="true" data-et="edge" data-id="L_hub_filesystem_0" data-points="W3sieCI6ODMzLjcxOTUyMDc1OTIzOSwieSI6NDAuNDU1MTczMTY1ODMwMjR9LHsieCI6MTMyLjM4MjgxMjUsInkiOjg0LjU5OTk5ODQ3NDEyMTF9LHsieCI6MTMyLjM4MjgxMjUsInkiOjEwOS41OTk5OTg0NzQxMjExfV0=" data-look="classic"></path><path d="M834.655,43.466L762.136,50.322C689.616,57.178,544.578,70.889,472.058,83.378C399.539,95.867,399.539,107.133,399.539,112.767L399.539,118.4" id="ge90f83a7-08d6-4971-8d10-2208d0a57dce-light-L_hub_boundaries_0" class="edge-thickness-normal edge-pattern-solid edge-thickness-normal edge-pattern-solid flowchart-link" style=";" data-edge="true" data-et="edge" data-id="L_hub_boundaries_0" data-points="W3sieCI6ODM0LjY1NTIwNzA5MjMyNTcsInkiOjQzLjQ2NjM4NjA3MzMxNzR9LHsieCI6Mzk5LjUzOTA2MjUsInkiOjg0LjU5OTk5ODQ3NDEyMTF9LHsieCI6Mzk5LjUzOTA2MjUsInkiOjExOC40MDAwMDE1MjU4Nzg5fV0=" data-look="classic"></path><path d="M839.456,51.4L809.521,56.934C779.585,62.467,719.715,73.533,689.779,84.7C659.844,95.867,659.844,107.133,659.844,112.767L659.844,118.4" id="ge90f83a7-08d6-4971-8d10-2208d0a57dce-light-L_hub_validation_0" class="edge-thickness-normal edge-pattern-solid edge-thickness-normal edge-pattern-solid flowchart-link" style=";" data-edge="true" data-et="edge" data-id="L_hub_validation_0" data-points="W3sieCI6ODM5LjQ1NjI3MzU3MzA1NjUsInkiOjUxLjQwMDMwOTM1OTgyNzU2fSx7IngiOjY1OS44NDM3NSwieSI6ODQuNTk5OTk4NDc0MTIxMX0seyJ4Ijo2NTkuODQzNzUsInkiOjExOC40MDAwMDE1MjU4Nzg5fV0=" data-look="classic"></path><path d="M930.344,60.1L930.26,64.183C930.177,68.267,930.01,76.433,929.927,86.15C929.844,95.867,929.844,107.133,929.844,112.767L929.844,118.4" id="ge90f83a7-08d6-4971-8d10-2208d0a57dce-light-L_hub_vite_0" class="edge-thickness-normal edge-pattern-solid edge-thickness-normal edge-pattern-solid flowchart-link" style=";" data-edge="true" data-et="edge" data-id="L_hub_vite_0" data-points="W3sieCI6OTMwLjM0Mzc1MDAwMDAwMDEsInkiOjYwLjA5OTk5ODQ3NDEyMTA5NH0seyJ4Ijo5MjkuODQzNzUsInkiOjg0LjU5OTk5ODQ3NDEyMTF9LHsieCI6OTI5Ljg0Mzc1LCJ5IjoxMTguNDAwMDAxNTI1ODc4OX1d" data-look="classic"></path><path d="M1020.928,51.743L1049.714,57.22C1078.501,62.696,1136.075,73.648,1164.862,84.757C1193.648,95.867,1193.648,107.133,1193.648,112.767L1193.648,118.4" id="ge90f83a7-08d6-4971-8d10-2208d0a57dce-light-L_hub_progressive_0" class="edge-thickness-normal edge-pattern-solid edge-thickness-normal edge-pattern-solid flowchart-link" style=";" data-edge="true" data-et="edge" data-id="L_hub_progressive_0" data-points="W3sieCI6MTAyMC45Mjc2Mjc2OTk4OTk0LCJ5Ijo1MS43NDM0MzgwMjM3MzgyMTR9LHsieCI6MTE5My42NDg0Mzc1LCJ5Ijo4NC41OTk5OTg0NzQxMjExfSx7IngiOjExOTMuNjQ4NDM3NSwieSI6MTE4LjQwMDAwMTUyNTg3ODl9XQ==" data-look="classic"></path><path d="M1026.065,43.386L1099.223,50.255C1172.382,57.124,1318.699,70.862,1391.857,83.364C1465.016,95.867,1465.016,107.133,1465.016,112.767L1465.016,118.4" id="ge90f83a7-08d6-4971-8d10-2208d0a57dce-light-L_hub_config_0" class="edge-thickness-normal edge-pattern-solid edge-thickness-normal edge-pattern-solid flowchart-link" style=";" data-edge="true" data-et="edge" data-id="L_hub_config_0" data-points="W3sieCI6MTAyNi4wNjQ3OTM1OTAyMjcsInkiOjQzLjM4NjEwNjI3NzYzMzU3fSx7IngiOjE0NjUuMDE1NjI1LCJ5Ijo4NC41OTk5OTg0NzQxMjExfSx7IngiOjE0NjUuMDE1NjI1LCJ5IjoxMTguNDAwMDAxNTI1ODc4OX1d" data-look="classic"></path><path d="M1027.014,40.278L1147.733,47.665C1268.452,55.052,1509.89,69.826,1630.609,82.846C1751.328,95.867,1751.328,107.133,1751.328,112.767L1751.328,118.4" id="ge90f83a7-08d6-4971-8d10-2208d0a57dce-light-L_hub_parity_0" class="edge-thickness-normal edge-pattern-solid edge-thickness-normal edge-pattern-solid flowchart-link" style=";" data-edge="true" data-et="edge" data-id="L_hub_parity_0" data-points="W3sieCI6MTAyNy4wMTQ0MjY5ODg4MDc2LCJ5Ijo0MC4yNzgwNDM5NDA5MjY3MX0seyJ4IjoxNzUxLjMyODEyNSwieSI6ODQuNTk5OTk4NDc0MTIxMX0seyJ4IjoxNzUxLjMyODEyNSwieSI6MTE4LjQwMDAwMTUyNTg3ODl9XQ==" data-look="classic"></path></g><g class="edgeLabels"><g class="edgeLabel"><g class="label" data-id="L_hub_filesystem_0" transform="translate(0, 0)"><text y="-10.1" text-anchor="middle"><tspan class="text-outer-tspan row" x="0" y="-0.1em" dy="1.1em" text-anchor="middle"></tspan></text></g></g><g><rect class="background" style="stroke: none"></rect></g><g class="edgeLabel"><g class="label" data-id="L_hub_boundaries_0" transform="translate(0, 0)"><text y="-10.1" text-anchor="middle"><tspan class="text-outer-tspan row" x="0" y="-0.1em" dy="1.1em" text-anchor="middle"></tspan></text></g></g><g><rect class="background" style="stroke: none"></rect></g><g class="edgeLabel"><g class="label" data-id="L_hub_validation_0" transform="translate(0, 0)"><text y="-10.1" text-anchor="middle"><tspan class="text-outer-tspan row" x="0" y="-0.1em" dy="1.1em" text-anchor="middle"></tspan></text></g></g><g><rect class="background" style="stroke: none"></rect></g><g class="edgeLabel"><g class="label" data-id="L_hub_vite_0" transform="translate(0, 0)"><text y="-10.1" text-anchor="middle"><tspan class="text-outer-tspan row" x="0" y="-0.1em" dy="1.1em" text-anchor="middle"></tspan></text></g></g><g><rect class="background" style="stroke: none"></rect></g><g class="edgeLabel"><g class="label" data-id="L_hub_progressive_0" transform="translate(0, 0)"><text y="-10.1" text-anchor="middle"><tspan class="text-outer-tspan row" x="0" y="-0.1em" dy="1.1em" text-anchor="middle"></tspan></text></g></g><g><rect class="background" style="stroke: none"></rect></g><g class="edgeLabel"><g class="label" data-id="L_hub_config_0" transform="translate(0, 0)"><text y="-10.1" text-anchor="middle"><tspan class="text-outer-tspan row" x="0" y="-0.1em" dy="1.1em" text-anchor="middle"></tspan></text></g></g><g><rect class="background" style="stroke: none"></rect></g><g class="edgeLabel"><g class="label" data-id="L_hub_parity_0" transform="translate(0, 0)"><text y="-10.1" text-anchor="middle"><tspan class="text-outer-tspan row" x="0" y="-0.1em" dy="1.1em" text-anchor="middle"></tspan></text></g></g><g><rect class="background" style="stroke: none"></rect></g></g><g class="nodes"><g class="node default hub" id="ge90f83a7-08d6-4971-8d10-2208d0a57dce-light-flowchart-hub-0" data-look="classic" transform="translate(929.84375, 33.79999923706055)"><g class="basic label-container outer-path"><path d="M-71.57968807220459 -25.799999237060547 C-40.857816861554596 -25.799999237060547, -10.13594565090461 -25.799999237060547, 71.57968807220459 -25.799999237060547 C71.57968807220459 -25.799999237060547, 71.57968807220459 -25.799999237060547, 71.57968807220459 -25.799999237060547 C72.1712471490208 -25.781029088866944, 72.76280622583701 -25.762058940673338, 73.23269969882529 -25.746990371586765 C73.88494854801834 -25.68406870954912, 74.5371973972114 -25.621147047511474, 74.87891874610231 -25.58818159996402 C75.31005465517039 -25.518478889694805, 75.74119056423848 -25.448776179425586, 76.51158054685753 -25.32422550149928 C76.96298158377581 -25.221196160489736, 77.41438262069408 -25.11816681948019, 78.12397614354678 -24.956206728419545 C78.61418340090928 -24.81071578758476, 79.10439065827178 -24.665224846749975, 79.70947985680552 -24.48563754880318 C80.04647682968975 -24.361619547615913, 80.38347380257399 -24.237601546428646, 81.26157651178644 -23.914451632345997 C81.72879721220573 -23.707626887880018, 82.19601791262504 -23.50080214341404, 82.77388821041056 -23.24499610449772 C83.15820943256783 -23.044495969067768, 83.54253065472508 -22.843995833637813, 84.2402005395184 -22.480021901620034 C84.52691090013803 -22.306216396115314, 84.81362126075766 -22.132410890610593, 85.65448810722664 -21.62267246679901 C86.17229088911228 -21.26147566147675, 86.6900936709979 -20.900278856154497, 87.01093930255584 -20.67647083276321 C87.4442547239731 -20.33091331519058, 87.87757014539037 -19.98535579761794, 88.3039801765865 -19.64530514498651 C88.62829581330486 -19.350770264640435, 88.9526114500232 -19.05623538429436, 89.52829734701088 -18.533412684464313 C89.7966184973418 -18.256349067171506, 90.06493964767272 -17.979285449878695, 90.67885983196044 -17.345362455817106 C91.09874502340514 -16.852141417801928, 91.51863021484985 -16.358920379786746, 91.75093972338968 -16.086036412270357 C92.132772155589 -15.574415738773444, 92.51460458778833 -15.062795065276532, 92.74013161506427 -14.76060939466161 C92.97691123976008 -14.39685230689698, 93.2136908644559 -14.033095219132347, 93.64237070532036 -13.374527866909407 C93.93013544965916 -12.863572423995741, 94.21790019399796 -12.352616981082074, 94.4539495002064 -11.93348753532484 C94.63707432149191 -11.553224925682022, 94.8201991427774 -11.172962316039202, 95.17153304837109 -10.443409943732584 C95.37780297865983 -9.933919227961587, 95.58407290894857 -9.424428512190588, 95.79217264509381 -8.910418140577123 C95.91101770604192 -8.552475752390421, 96.02986276699002 -8.194533364203721, 96.3133179491449 -7.340811518003323 C96.47464511789032 -6.725601103939835, 96.63597228663573 -6.110390689876346, 96.73282746268467 -5.741039926302914 C96.79643196456671 -5.414444251954885, 96.86003646644875 -5.087848577606856, 97.04897733113748 -4.117677170096137 C97.1077649920315 -3.661731681138731, 97.16655265292555 -3.2057861921813253, 97.26046842687991 -2.4773939951584394 C97.29773062814026 -1.8970051330210969, 97.33499282940059 -1.3166162708837543, 97.36643168763487 -0.8269306768952902 C97.36643168763487 -0.3815900496815572, 97.36643168763487 0.06375057753217583, 97.36643168763487 0.826930676895284 C97.34309680090954 1.1903903732239445, 97.3197619141842 1.5538500695526047, 97.26046842687991 2.4773939951584216 C97.20723799802155 2.890238689846703, 97.1540075691632 3.3030833845349847, 97.04897733113748 4.117677170096119 C96.97736270680501 4.485403130287125, 96.90574808247254 4.85312909047813, 96.73282746268467 5.741039926302909 C96.63361048198688 6.119397274615026, 96.53439350128909 6.497754622927143, 96.3133179491449 7.340811518003306 C96.13878062234997 7.86649013756311, 95.96424329555505 8.392168757122915, 95.79217264509383 8.910418140577105 C95.61714848933231 9.342731189169918, 95.44212433357079 9.77504423776273, 95.17153304837109 10.443409943732577 C94.97293534835188 10.85580231713252, 94.77433764833268 11.26819469053246, 94.4539495002064 11.933487535324835 C94.15465851570592 12.464908984803968, 93.85536753120542 12.9963304342831, 93.64237070532037 13.374527866909402 C93.29382604835924 13.909986057346961, 92.9452813913981 14.44544424778452, 92.74013161506429 14.760609394661596 C92.49040350729265 15.095222308376945, 92.24067539952101 15.429835222092294, 91.75093972338968 16.086036412270353 C91.44785974777875 16.442051397362107, 91.14477977216784 16.79806638245386, 90.67885983196045 17.345362455817092 C90.3775955145412 17.65644259781292, 90.07633119712196 17.967522739808743, 89.52829734701088 18.533412684464306 C89.1189439398172 18.90517661797997, 88.70959053262352 19.27694055149563, 88.30398017658653 19.64530514498649 C88.0067724268083 19.88232041640425, 87.70956467703006 20.119335687822012, 87.01093930255584 20.676470832763208 C86.577359651235 20.97891722816403, 86.14377999991417 21.28136362356485, 85.65448810722665 21.622672466799003 C85.16587610542648 21.91887193369312, 84.6772641036263 22.21507140058723, 84.24020053951841 22.48002190162003 C83.86041557375458 22.678155474995144, 83.48063060799075 22.876289048370257, 82.77388821041058 23.244996104497716 C82.25212385800648 23.47596570571741, 81.7303595056024 23.706935306937105, 81.26157651178644 23.914451632345994 C80.84092334482062 24.069255886264667, 80.4202701778548 24.22406014018334, 79.70947985680553 24.485637548803172 C79.0952890911221 24.6679261441049, 78.48109832543865 24.850214739406628, 78.12397614354681 24.95620672841954 C77.57332071773979 25.081890235997523, 77.02266529193278 25.2075737435755, 76.51158054685754 25.324225501499278 C76.11266178034488 25.388719594007807, 75.71374301383223 25.453213686516335, 74.87891874610233 25.588181599964017 C74.41426582036893 25.633006108882615, 73.94961289463554 25.677830617801213, 73.23269969882529 25.746990371586765 C72.7665626955442 25.761938478001355, 72.30042569226309 25.776886584415944, 71.57968807220459 25.799999237060547 C71.57968807220459 25.799999237060547, 71.57968807220459 25.799999237060547, 71.57968807220459 25.799999237060547 C37.77722056580767 25.799999237060547, 3.9747530594107445 25.799999237060547, -71.57968807220459 25.799999237060547 C-72.21363489396279 25.779669796389392, -72.847581715721 25.75934035571824, -73.23269969882527 25.746990371586765 C-73.61601933439191 25.71001198735296, -73.99933896995854 25.67303360311916, -74.87891874610231 25.588181599964017 C-75.46612960558586 25.493245902090944, -76.05334046506941 25.39831020421787, -76.51158054685753 25.324225501499278 C-76.87973864354193 25.240195818387168, -77.24789674022632 25.156166135275054, -78.12397614354678 24.956206728419545 C-78.70213363268961 24.784612620452545, -79.28029112183243 24.613018512485546, -79.7094798568055 24.485637548803183 C-80.10601380786915 24.339709389292096, -80.5025477589328 24.193781229781013, -81.26157651178644 23.914451632345997 C-81.72450134146526 23.709528542424355, -82.18742617114407 23.50460545250271, -82.77388821041056 23.244996104497723 C-83.2607302112867 22.991010944477825, -83.74757221216284 22.73702578445793, -84.2402005395184 22.480021901620038 C-84.71871684590423 22.18994250461499, -85.19723315229007 21.899863107609946, -85.65448810722663 21.622672466799017 C-86.10772588435219 21.306513413823374, -86.56096366147774 20.990354360847736, -87.01093930255584 20.67647083276321 C-87.39296121879563 20.371818520592115, -87.77498313503543 20.067166208421018, -88.3039801765865 19.645305144986512 C-88.58265767529905 19.392217614058342, -88.8613351740116 19.139130083130176, -89.52829734701086 18.533412684464324 C-89.94913479862522 18.098863464275155, -90.36997225023957 17.664314244085986, -90.67885983196044 17.3453624558171 C-91.0631841909263 16.893913195100264, -91.44750854989216 16.44246393438343, -91.75093972338968 16.08603641227036 C-92.10120485776811 15.616713042013444, -92.45146999214654 15.14738967175653, -92.74013161506427 14.760609394661614 C-92.95326502042309 14.433179249697568, -93.1663984257819 14.105749104733523, -93.64237070532036 13.374527866909418 C-93.89008936824966 12.934678296643787, -94.13780803117895 12.494828726378158, -94.45394950020639 11.933487535324842 C-94.63368378295468 11.56026545150046, -94.81341806570296 11.187043367676075, -95.17153304837109 10.443409943732586 C-95.39719437733646 9.88602209832313, -95.62285570630182 9.328634252913673, -95.79217264509381 8.910418140577127 C-95.97721557524201 8.353098317557857, -96.16225850539021 7.795778494538587, -96.3133179491449 7.340811518003316 C-96.45799230029057 6.789105514824456, -96.60266665143624 6.237399511645596, -96.73282746268467 5.741039926302918 C-96.8197435968791 5.294743946945979, -96.90665973107353 4.84844796758904, -97.04897733113748 4.117677170096139 C-97.1119399440267 3.6293515779015104, -97.17490255691594 3.141025985706881, -97.26046842687991 2.477393995158454 C-97.28313376053663 2.1243631283270488, -97.30579909419335 1.7713322614956435, -97.36643168763487 0.8269306768952934 C-97.36643168763487 0.27647878151657945, -97.36643168763487 -0.2739731138621345, -97.36643168763487 -0.8269306768952809 C-97.34457162192658 -1.1674188454295331, -97.32271155621827 -1.5079070139637856, -97.26046842687991 -2.4773939951584185 C-97.21755996988324 -2.810183514391433, -97.17465151288656 -3.1429730336244477, -97.04897733113748 -4.117677170096128 C-96.96894593659412 -4.5286214664350135, -96.88891454205077 -4.939565762773899, -96.73282746268467 -5.741039926302906 C-96.57192738149045 -6.354621670432731, -96.41102730029625 -6.968203414562556, -96.3133179491449 -7.340811518003303 C-96.11141287426774 -7.948917434328298, -95.90950779939058 -8.557023350653292, -95.79217264509383 -8.910418140577093 C-95.62287379254477 -9.328589579543936, -95.45357493999569 -9.746761018510778, -95.17153304837109 -10.443409943732574 C-95.01944246389195 -10.759229296620685, -94.86735187941282 -11.075048649508798, -94.4539495002064 -11.933487535324831 C-94.27051981890504 -12.259185508744753, -94.08709013760368 -12.584883482164676, -93.64237070532036 -13.374527866909409 C-93.36669845843662 -13.79803446648608, -93.09102621155287 -14.22154106606275, -92.74013161506429 -14.760609394661605 C-92.45435095691958 -15.14352944142196, -92.16857029877487 -15.526449488182312, -91.75093972338968 -16.086036412270353 C-91.48570999097002 -16.39759034796979, -91.22048025855037 -16.70914428366923, -90.67885983196045 -17.345362455817092 C-90.31093525475677 -17.725274788949456, -89.94301067755309 -18.105187122081816, -89.52829734701089 -18.5334126844643 C-89.10040608211297 -18.92201220986211, -88.67251481721506 -19.31061173525992, -88.30398017658653 -19.645305144986487 C-87.7907815940321 -20.05456735778582, -87.27758301147767 -20.46382957058515, -87.01093930255585 -20.676470832763204 C-86.61069561295682 -20.95566350435742, -86.21045192335777 -21.234856175951638, -85.65448810722665 -21.622672466799 C-85.31669457149137 -21.827444893256892, -84.97890103575607 -22.03221731971479, -84.24020053951841 -22.480021901620027 C-83.66771439213873 -22.77868755801313, -83.09522824475904 -23.077353214406234, -82.77388821041058 -23.244996104497716 C-82.27003951993558 -23.46803497363063, -81.76619082946058 -23.691073842763544, -81.26157651178646 -23.91445163234599 C-80.74719010292006 -24.103750585744667, -80.23280369405366 -24.29304953914334, -79.70947985680553 -24.485637548803172 C-79.28851885763524 -24.61057656368754, -78.86755785846493 -24.73551557857191, -78.12397614354681 -24.956206728419538 C-77.6700955899148 -25.059802002938635, -77.21621503628276 -25.163397277457733, -76.51158054685754 -25.324225501499278 C-75.86262103455267 -25.429144242692548, -75.2136615222478 -25.534062983885818, -74.87891874610233 -25.588181599964017 C-74.52109828347615 -25.622700109651497, -74.16327782084997 -25.657218619338977, -73.23269969882529 -25.746990371586765 C-72.8530282955304 -25.759165694504876, -72.4733568922355 -25.77134101742299, -71.5796880722046 -25.799999237060547 C-71.5796880722046 -25.799999237060547, -71.5796880722046 -25.799999237060547, -71.57968807220459 -25.799999237060547" stroke="none" stroke-width="0" fill="#2E5A88" style="fill:#2E5A88 !important;stroke:#1F4870 !important"></path><path d="M-71.57968807220459 -25.799999237060547 C-17.59721626641378 -25.799999237060547, 36.38525553937703 -25.799999237060547, 71.57968807220459 -25.799999237060547 M-71.57968807220459 -25.799999237060547 C-30.90398535400594 -25.799999237060547, 9.77171736419271 -25.799999237060547, 71.57968807220459 -25.799999237060547 M71.57968807220459 -25.799999237060547 C71.57968807220459 -25.799999237060547, 71.57968807220459 -25.799999237060547, 71.57968807220459 -25.799999237060547 M71.57968807220459 -25.799999237060547 C71.57968807220459 -25.799999237060547, 71.57968807220459 -25.799999237060547, 71.57968807220459 -25.799999237060547 M71.57968807220459 -25.799999237060547 C72.08853886513343 -25.783681382549304, 72.59738965806226 -25.767363528038057, 73.23269969882529 -25.746990371586765 M71.57968807220459 -25.799999237060547 C71.92028707593434 -25.789076889946678, 72.26088607966409 -25.778154542832805, 73.23269969882529 -25.746990371586765 M73.23269969882529 -25.746990371586765 C73.8716023400189 -25.685356202183662, 74.51050498121252 -25.623722032780563, 74.87891874610231 -25.58818159996402 M73.23269969882529 -25.746990371586765 C73.59232618697439 -25.712297636789152, 73.9519526751235 -25.67760490199154, 74.87891874610231 -25.58818159996402 M74.87891874610231 -25.58818159996402 C75.32886599429625 -25.51543761826905, 75.77881324249017 -25.442693636574077, 76.51158054685753 -25.32422550149928 M74.87891874610231 -25.58818159996402 C75.50933801607512 -25.486260301369274, 76.13975728604792 -25.384339002774524, 76.51158054685753 -25.32422550149928 M76.51158054685753 -25.32422550149928 C76.94392146320423 -25.225546508631286, 77.37626237955094 -25.126867515763294, 78.12397614354678 -24.956206728419545 M76.51158054685753 -25.32422550149928 C77.1416175372815 -25.1804236698106, 77.77165452770546 -25.03662183812192, 78.12397614354678 -24.956206728419545 M78.12397614354678 -24.956206728419545 C78.52459916024755 -24.837303919975888, 78.92522217694831 -24.71840111153223, 79.70947985680552 -24.48563754880318 M78.12397614354678 -24.956206728419545 C78.67583602880617 -24.79241761124621, 79.22769591406555 -24.628628494072878, 79.70947985680552 -24.48563754880318 M79.70947985680552 -24.48563754880318 C80.04021528402478 -24.363923854301714, 80.37095071124405 -24.242210159800248, 81.26157651178644 -23.914451632345997 M79.70947985680552 -24.48563754880318 C80.14297302524383 -24.32610805565096, 80.57646619368215 -24.166578562498735, 81.26157651178644 -23.914451632345997 M81.26157651178644 -23.914451632345997 C81.6897329303933 -23.72491948663764, 82.11788934900015 -23.53538734092928, 82.77388821041056 -23.24499610449772 M81.26157651178644 -23.914451632345997 C81.81153718785185 -23.67100035505566, 82.36149786391725 -23.42754907776532, 82.77388821041056 -23.24499610449772 M82.77388821041056 -23.24499610449772 C83.13315556096491 -23.05756655783524, 83.49242291151924 -22.870137011172762, 84.2402005395184 -22.480021901620034 M82.77388821041056 -23.24499610449772 C83.13776460873167 -23.055162020567554, 83.50164100705278 -22.865327936637385, 84.2402005395184 -22.480021901620034 M84.2402005395184 -22.480021901620034 C84.54697918157014 -22.294050885976855, 84.85375782362189 -22.108079870333675, 85.65448810722664 -21.62267246679901 M84.2402005395184 -22.480021901620034 C84.55409658908604 -22.289736271714183, 84.86799263865369 -22.099450641808332, 85.65448810722664 -21.62267246679901 M85.65448810722664 -21.62267246679901 C86.10223815660717 -21.310341415138396, 86.5499882059877 -20.998010363477782, 87.01093930255584 -20.67647083276321 M85.65448810722664 -21.62267246679901 C86.12814286517022 -21.29227141184157, 86.60179762311381 -20.961870356884127, 87.01093930255584 -20.67647083276321 M87.01093930255584 -20.67647083276321 C87.29873444199055 -20.44696186761433, 87.58652958142525 -20.21745290246545, 88.3039801765865 -19.64530514498651 M87.01093930255584 -20.67647083276321 C87.47550974477562 -20.305988267831605, 87.9400801869954 -19.935505702900002, 88.3039801765865 -19.64530514498651 M88.3039801765865 -19.64530514498651 C88.59966057418268 -19.376776031164283, 88.89534097177885 -19.108246917342054, 89.52829734701088 -18.533412684464313 M88.3039801765865 -19.64530514498651 C88.75850982856544 -19.232513341254826, 89.21303948054435 -18.819721537523144, 89.52829734701088 -18.533412684464313 M89.52829734701088 -18.533412684464313 C89.86585152373885 -18.184860283279356, 90.20340570046685 -17.8363078820944, 90.67885983196044 -17.345362455817106 M89.52829734701088 -18.533412684464313 C89.93906718718331 -18.109259099655194, 90.34983702735576 -17.68510551484608, 90.67885983196044 -17.345362455817106 M90.67885983196044 -17.345362455817106 C91.09017769491679 -16.86220508933914, 91.50149555787316 -16.379047722861177, 91.75093972338968 -16.086036412270357 M90.67885983196044 -17.345362455817106 C90.97365901007679 -16.99907456665321, 91.26845818819314 -16.65278667748931, 91.75093972338968 -16.086036412270357 M91.75093972338968 -16.086036412270357 C92.04398999929629 -15.693375739984853, 92.3370402752029 -15.300715067699349, 92.74013161506427 -14.76060939466161 M91.75093972338968 -16.086036412270357 C92.12973973346371 -15.578478908161992, 92.50853974353774 -15.070921404053626, 92.74013161506427 -14.76060939466161 M92.74013161506427 -14.76060939466161 C92.98844807991364 -14.379128622345757, 93.23676454476302 -13.997647850029903, 93.64237070532036 -13.374527866909407 M92.74013161506427 -14.76060939466161 C92.97390813694234 -14.401465879271049, 93.20768465882041 -14.042322363880489, 93.64237070532036 -13.374527866909407 M93.64237070532036 -13.374527866909407 C93.92891179076922 -12.865745154263747, 94.21545287621807 -12.356962441618087, 94.4539495002064 -11.93348753532484 M93.64237070532036 -13.374527866909407 C93.85371525844192 -12.999264211885437, 94.06505981156349 -12.62400055686147, 94.4539495002064 -11.93348753532484 M94.4539495002064 -11.93348753532484 C94.70652710042208 -11.409004744182093, 94.95910470063777 -10.884521953039345, 95.17153304837109 -10.443409943732584 M94.4539495002064 -11.93348753532484 C94.697356729053 -11.42804721654452, 94.94076395789958 -10.9226068977642, 95.17153304837109 -10.443409943732584 M95.17153304837109 -10.443409943732584 C95.35259209361047 -9.996190601452804, 95.53365113884985 -9.548971259173022, 95.79217264509381 -8.910418140577123 M95.17153304837109 -10.443409943732584 C95.41557624314846 -9.840618534378269, 95.65961943792584 -9.237827125023951, 95.79217264509381 -8.910418140577123 M95.79217264509381 -8.910418140577123 C95.92582623840175 -8.5078748123418, 96.05947983170971 -8.105331484106477, 96.3133179491449 -7.340811518003323 M95.79217264509381 -8.910418140577123 C95.95570094672216 -8.417896950769096, 96.11922924835052 -7.92537576096107, 96.3133179491449 -7.340811518003323 M96.3133179491449 -7.340811518003323 C96.40283615932955 -6.99943978513154, 96.4923543695142 -6.6580680522597575, 96.73282746268467 -5.741039926302914 M96.3133179491449 -7.340811518003323 C96.44849192421076 -6.82533456630582, 96.58366589927662 -6.309857614608316, 96.73282746268467 -5.741039926302914 M96.73282746268467 -5.741039926302914 C96.79810668911145 -5.405844895370775, 96.86338591553823 -5.070649864438636, 97.04897733113748 -4.117677170096137 M96.73282746268467 -5.741039926302914 C96.83036734310659 -5.240193255397418, 96.92790722352849 -4.739346584491923, 97.04897733113748 -4.117677170096137 M97.04897733113748 -4.117677170096137 C97.11819712283682 -3.580822134670003, 97.18741691453616 -3.0439670992438694, 97.26046842687991 -2.4773939951584394 M97.04897733113748 -4.117677170096137 C97.12668872454047 -3.5149629487128617, 97.20440011794346 -2.9122487273295867, 97.26046842687991 -2.4773939951584394 M97.26046842687991 -2.4773939951584394 C97.29218384834485 -1.9834007056146705, 97.32389926980977 -1.4894074160709017, 97.36643168763487 -0.8269306768952902 M97.26046842687991 -2.4773939951584394 C97.30215183372069 -1.8281412873729008, 97.34383524056146 -1.1788885795873623, 97.36643168763487 -0.8269306768952902 M97.36643168763487 -0.8269306768952902 C97.36643168763487 -0.23102643851145988, 97.36643168763487 0.36487779987237046, 97.36643168763487 0.826930676895284 M97.36643168763487 -0.8269306768952902 C97.36643168763487 -0.4050591513929503, 97.36643168763487 0.016812374109389627, 97.36643168763487 0.826930676895284 M97.36643168763487 0.826930676895284 C97.3346438333318 1.3220521663598779, 97.30285597902872 1.817173655824472, 97.26046842687991 2.4773939951584216 M97.36643168763487 0.826930676895284 C97.32978662947431 1.3977070371045108, 97.29314157131375 1.9684833973137377, 97.26046842687991 2.4773939951584216 M97.26046842687991 2.4773939951584216 C97.18501750635765 3.062576435259559, 97.1095665858354 3.6477588753606964, 97.04897733113748 4.117677170096119 M97.26046842687991 2.4773939951584216 C97.21483634651416 2.8313073994016618, 97.16920426614843 3.1852208036449023, 97.04897733113748 4.117677170096119 M97.04897733113748 4.117677170096119 C96.94616431336473 4.645600286820161, 96.84335129559199 5.173523403544204, 96.73282746268467 5.741039926302909 M97.04897733113748 4.117677170096119 C96.92651358274055 4.746502635391954, 96.80404983434362 5.3753281006877875, 96.73282746268467 5.741039926302909 M96.73282746268467 5.741039926302909 C96.57738570468311 6.333806718446915, 96.42194394668155 6.926573510590922, 96.3133179491449 7.340811518003306 M96.73282746268467 5.741039926302909 C96.57426344234311 6.345713257946406, 96.41569942200155 6.950386589589904, 96.3133179491449 7.340811518003306 M96.3133179491449 7.340811518003306 C96.1132780067034 7.943299952600634, 95.91323806426188 8.545788387197963, 95.79217264509383 8.910418140577105 M96.3133179491449 7.340811518003306 C96.11145163550378 7.948800691661095, 95.90958532186268 8.556789865318885, 95.79217264509383 8.910418140577105 M95.79217264509383 8.910418140577105 C95.58590154365548 9.419911749110282, 95.37963044221712 9.929405357643459, 95.17153304837109 10.443409943732577 M95.79217264509383 8.910418140577105 C95.60421735718224 9.374671335587037, 95.41626206927063 9.838924530596968, 95.17153304837109 10.443409943732577 M95.17153304837109 10.443409943732577 C94.90071697051462 11.005765323937327, 94.62990089265816 11.568120704142075, 94.4539495002064 11.933487535324835 M95.17153304837109 10.443409943732577 C94.95982062239977 10.883035326182258, 94.74810819642845 11.32266070863194, 94.4539495002064 11.933487535324835 M94.4539495002064 11.933487535324835 C94.1636529973812 12.448938371799455, 93.873356494556 12.964389208274078, 93.64237070532037 13.374527866909402 M94.4539495002064 11.933487535324835 C94.17439628003854 12.429862585566028, 93.89484305987067 12.926237635807222, 93.64237070532037 13.374527866909402 M93.64237070532037 13.374527866909402 C93.4057503896721 13.738040213196559, 93.1691300740238 14.101552559483718, 92.74013161506429 14.760609394661596 M93.64237070532037 13.374527866909402 C93.32750170234924 13.85825120963907, 93.01263269937809 14.341974552368738, 92.74013161506429 14.760609394661596 M92.74013161506429 14.760609394661596 C92.35263779522404 15.279815811834325, 91.96514397538378 15.799022229007054, 91.75093972338968 16.086036412270353 M92.74013161506429 14.760609394661596 C92.52526159626132 15.048515644796169, 92.31039157745835 15.33642189493074, 91.75093972338968 16.086036412270353 M91.75093972338968 16.086036412270353 C91.38881129547096 16.511413069394973, 91.02668286755222 16.936789726519592, 90.67885983196045 17.345362455817092 M91.75093972338968 16.086036412270353 C91.42545719954958 16.468366705253192, 91.0999746757095 16.85069699823603, 90.67885983196045 17.345362455817092 M90.67885983196045 17.345362455817092 C90.26896416877983 17.76861338111089, 89.85906850559921 18.191864306404682, 89.52829734701088 18.533412684464306 M90.67885983196045 17.345362455817092 C90.25978881298022 17.77808768928471, 89.84071779399999 18.210812922752332, 89.52829734701088 18.533412684464306 M89.52829734701088 18.533412684464306 C89.20389953410746 18.828022195047392, 88.87950172120406 19.12263170563048, 88.30398017658653 19.64530514498649 M89.52829734701088 18.533412684464306 C89.25015151005347 18.78601737425346, 88.97200567309605 19.038622064042617, 88.30398017658653 19.64530514498649 M88.30398017658653 19.64530514498649 C87.83089886310036 20.02257490326925, 87.35781754961418 20.399844661552006, 87.01093930255584 20.676470832763208 M88.30398017658653 19.64530514498649 C87.92073287758812 19.95093466729878, 87.53748557858971 20.256564189611076, 87.01093930255584 20.676470832763208 M87.01093930255584 20.676470832763208 C86.61170743997941 20.954957697627744, 86.21247557740297 21.233444562492277, 85.65448810722665 21.622672466799003 M87.01093930255584 20.676470832763208 C86.71598642428933 20.882217192337617, 86.42103354602281 21.087963551912026, 85.65448810722665 21.622672466799003 M85.65448810722665 21.622672466799003 C85.34477812135417 21.810420480292805, 85.03506813548168 21.99816849378661, 84.24020053951841 22.48002190162003 M85.65448810722665 21.622672466799003 C85.18719066385204 21.90595092311729, 84.71989322047742 22.18922937943558, 84.24020053951841 22.48002190162003 M84.24020053951841 22.48002190162003 C83.76396961054294 22.728471272226063, 83.28773868156748 22.9769206428321, 82.77388821041058 23.244996104497716 M84.24020053951841 22.48002190162003 C83.83119014072975 22.693402364684413, 83.4221797419411 22.906782827748792, 82.77388821041058 23.244996104497716 M82.77388821041058 23.244996104497716 C82.44732378526552 23.38955648831994, 82.12075936012049 23.534116872142167, 81.26157651178644 23.914451632345994 M82.77388821041058 23.244996104497716 C82.35160570592822 23.431928042666623, 81.92932320144588 23.618859980835534, 81.26157651178644 23.914451632345994 M81.26157651178644 23.914451632345994 C80.94444898374253 24.031157494160887, 80.62732145569862 24.147863355975783, 79.70947985680553 24.485637548803172 M81.26157651178644 23.914451632345994 C80.64395703370101 24.1417413094933, 80.0263375556156 24.369030986640606, 79.70947985680553 24.485637548803172 M79.70947985680553 24.485637548803172 C79.3241661525817 24.5999966336639, 78.93885244835786 24.71435571852463, 78.12397614354681 24.95620672841954 M79.70947985680553 24.485637548803172 C79.28246980632916 24.612371890363065, 78.8554597558528 24.739106231922957, 78.12397614354681 24.95620672841954 M78.12397614354681 24.95620672841954 C77.76645250136616 25.037809166687474, 77.40892885918552 25.119411604955406, 76.51158054685754 25.324225501499278 M78.12397614354681 24.95620672841954 C77.52461991015134 25.093005877527116, 76.92526367675589 25.22980502663469, 76.51158054685754 25.324225501499278 M76.51158054685754 25.324225501499278 C75.97476451437201 25.41101375456103, 75.43794848188648 25.497802007622784, 74.87891874610233 25.588181599964017 M76.51158054685754 25.324225501499278 C75.91624246191097 25.42047514615764, 75.32090437696439 25.516724790816, 74.87891874610233 25.588181599964017 M74.87891874610233 25.588181599964017 C74.29500120768795 25.64451142263127, 73.71108366927358 25.70084124529852, 73.23269969882529 25.746990371586765 M74.87891874610233 25.588181599964017 C74.32946524918964 25.641186717996675, 73.78001175227695 25.694191836029333, 73.23269969882529 25.746990371586765 M73.23269969882529 25.746990371586765 C72.67740673528523 25.76479753611531, 72.12211377174518 25.782604700643855, 71.57968807220459 25.799999237060547 M73.23269969882529 25.746990371586765 C72.89226762427425 25.757907365606783, 72.55183554972321 25.768824359626798, 71.57968807220459 25.799999237060547 M71.57968807220459 25.799999237060547 C71.57968807220459 25.799999237060547, 71.57968807220459 25.799999237060547, 71.57968807220459 25.799999237060547 M71.57968807220459 25.799999237060547 C71.57968807220459 25.799999237060547, 71.57968807220459 25.799999237060547, 71.57968807220459 25.799999237060547 M71.57968807220459 25.799999237060547 C39.67495474188925 25.799999237060547, 7.770221411573921 25.799999237060547, -71.57968807220459 25.799999237060547 M71.57968807220459 25.799999237060547 C23.956181111816974 25.799999237060547, -23.66732584857064 25.799999237060547, -71.57968807220459 25.799999237060547 M-71.57968807220459 25.799999237060547 C-71.96958061924747 25.787496141956687, -72.35947316629036 25.774993046852824, -73.23269969882527 25.746990371586765 M-71.57968807220459 25.799999237060547 C-71.97436927541466 25.787342579073957, -72.36905047862473 25.774685921087368, -73.23269969882527 25.746990371586765 M-73.23269969882527 25.746990371586765 C-73.67239815671716 25.7045731901687, -74.11209661460906 25.66215600875063, -74.87891874610231 25.588181599964017 M-73.23269969882527 25.746990371586765 C-73.61306018389078 25.710297453042905, -73.9934206689563 25.673604534499045, -74.87891874610231 25.588181599964017 M-74.87891874610231 25.588181599964017 C-75.24002492893005 25.5298007527447, -75.6011311117578 25.471419905525384, -76.51158054685753 25.324225501499278 M-74.87891874610231 25.588181599964017 C-75.24725101977148 25.52863249441663, -75.61558329344064 25.469083388869244, -76.51158054685753 25.324225501499278 M-76.51158054685753 25.324225501499278 C-76.98515155336564 25.216136009603424, -77.45872255987376 25.108046517707574, -78.12397614354678 24.956206728419545 M-76.51158054685753 25.324225501499278 C-76.94416683818949 25.22549050339212, -77.37675312952146 25.126755505284965, -78.12397614354678 24.956206728419545 M-78.12397614354678 24.956206728419545 C-78.73312025689259 24.775415953041207, -79.34226437023841 24.594625177662873, -79.7094798568055 24.485637548803183 M-78.12397614354678 24.956206728419545 C-78.52820894144509 24.836232555864584, -78.9324417393434 24.716258383309622, -79.7094798568055 24.485637548803183 M-79.7094798568055 24.485637548803183 C-80.07153958250312 24.352396222903046, -80.43359930820074 24.219154897002905, -81.26157651178644 23.914451632345997 M-79.7094798568055 24.485637548803183 C-80.28505913794629 24.273819052746823, -80.8606384190871 24.06200055669046, -81.26157651178644 23.914451632345997 M-81.26157651178644 23.914451632345997 C-81.59988248574929 23.7646936131628, -81.93818845971214 23.614935593979602, -82.77388821041056 23.244996104497723 M-81.26157651178644 23.914451632345997 C-81.71104630472503 23.71548468805977, -82.16051609766362 23.51651774377354, -82.77388821041056 23.244996104497723 M-82.77388821041056 23.244996104497723 C-83.13736264377455 23.055371725428216, -83.50083707713853 22.865747346358713, -84.2402005395184 22.480021901620038 M-82.77388821041056 23.244996104497723 C-83.26042144719663 22.99117202650584, -83.74695468398272 22.737347948513953, -84.2402005395184 22.480021901620038 M-84.2402005395184 22.480021901620038 C-84.59836159003983 22.26290256800598, -84.95652264056127 22.045783234391926, -85.65448810722663 21.622672466799017 M-84.2402005395184 22.480021901620038 C-84.70968588143258 22.195417128349547, -85.17917122334676 21.91081235507906, -85.65448810722663 21.622672466799017 M-85.65448810722663 21.622672466799017 C-86.13786952077636 21.28548651795086, -86.6212509343261 20.948300569102702, -87.01093930255584 20.67647083276321 M-85.65448810722663 21.622672466799017 C-86.08932325454747 21.319350291738147, -86.5241584018683 21.016028116677276, -87.01093930255584 20.67647083276321 M-87.01093930255584 20.67647083276321 C-87.50620801281464 20.28150721598571, -88.00147672307344 19.88654359920821, -88.3039801765865 19.645305144986512 M-87.01093930255584 20.67647083276321 C-87.5213172208388 20.26945802465936, -88.03169513912174 19.86244521655551, -88.3039801765865 19.645305144986512 M-88.3039801765865 19.645305144986512 C-88.6907631246539 19.294039105267718, -89.0775460727213 18.94277306554892, -89.52829734701086 18.533412684464324 M-88.3039801765865 19.645305144986512 C-88.57424086289727 19.399861540384993, -88.84450154920802 19.154417935783474, -89.52829734701086 18.533412684464324 M-89.52829734701086 18.533412684464324 C-89.81153689642932 18.24094459529029, -90.09477644584777 17.94847650611626, -90.67885983196044 17.3453624558171 M-89.52829734701086 18.533412684464324 C-89.82672928473767 18.225257207043633, -90.12516122246448 17.917101729622946, -90.67885983196044 17.3453624558171 M-90.67885983196044 17.3453624558171 C-91.05792862690943 16.90008667964454, -91.43699742185842 16.454810903471987, -91.75093972338968 16.08603641227036 M-90.67885983196044 17.3453624558171 C-90.98483834503077 16.98594268369407, -91.29081685810111 16.626522911571044, -91.75093972338968 16.08603641227036 M-91.75093972338968 16.08603641227036 C-91.95804697540339 15.808531562430794, -92.1651542274171 15.531026712591228, -92.74013161506427 14.760609394661614 M-91.75093972338968 16.08603641227036 C-92.14481674267712 15.55827708935983, -92.53869376196455 15.030517766449298, -92.74013161506427 14.760609394661614 M-92.74013161506427 14.760609394661614 C-93.01626628036462 14.336392396220315, -93.29240094566497 13.912175397779016, -93.64237070532036 13.374527866909418 M-92.74013161506427 14.760609394661614 C-93.08278200289512 14.23420638444107, -93.42543239072594 13.707803374220525, -93.64237070532036 13.374527866909418 M-93.64237070532036 13.374527866909418 C-93.91408182394167 12.892077262063017, -94.185792942563 12.409626657216617, -94.45394950020639 11.933487535324842 M-93.64237070532036 13.374527866909418 C-93.86066262888785 12.986928452161141, -94.07895455245534 12.599329037412865, -94.45394950020639 11.933487535324842 M-94.45394950020639 11.933487535324842 C-94.64782598050111 11.530898875700734, -94.84170246079583 11.128310216076628, -95.17153304837109 10.443409943732586 M-94.45394950020639 11.933487535324842 C-94.69208892902346 11.438985916018694, -94.93022835784053 10.944484296712545, -95.17153304837109 10.443409943732586 M-95.17153304837109 10.443409943732586 C-95.32386630370911 10.067143857884528, -95.47619955904713 9.690877772036467, -95.79217264509381 8.910418140577127 M-95.17153304837109 10.443409943732586 C-95.37499635947026 9.940851631622127, -95.57845967056942 9.438293319511668, -95.79217264509381 8.910418140577127 M-95.79217264509381 8.910418140577127 C-95.90781847013261 8.562111341220223, -96.02346429517142 8.21380454186332, -96.3133179491449 7.340811518003316 M-95.79217264509381 8.910418140577127 C-95.90755044887862 8.562918578533877, -96.02292825266342 8.215419016490626, -96.3133179491449 7.340811518003316 M-96.3133179491449 7.340811518003316 C-96.40358512921993 6.9965836383338935, -96.49385230929497 6.65235575866447, -96.73282746268467 5.741039926302918 M-96.3133179491449 7.340811518003316 C-96.4465222459619 6.832845803132658, -96.57972654277891 6.324880088261999, -96.73282746268467 5.741039926302918 M-96.73282746268467 5.741039926302918 C-96.83880868062009 5.196848771342854, -96.94478989855553 4.65265761638279, -97.04897733113748 4.117677170096139 M-96.73282746268467 5.741039926302918 C-96.84692319999382 5.155182429363041, -96.96101893730298 4.569324932423164, -97.04897733113748 4.117677170096139 M-97.04897733113748 4.117677170096139 C-97.10655538448775 3.6711131583841308, -97.16413343783802 3.2245491466721226, -97.26046842687991 2.477393995158454 M-97.04897733113748 4.117677170096139 C-97.12165302925449 3.5540188069404577, -97.1943287273715 2.990360443784776, -97.26046842687991 2.477393995158454 M-97.26046842687991 2.477393995158454 C-97.29240013760004 1.9800318258794176, -97.32433184832017 1.4826696566003812, -97.36643168763487 0.8269306768952934 M-97.26046842687991 2.477393995158454 C-97.28384365773094 2.113305906506982, -97.30721888858196 1.7492178178555098, -97.36643168763487 0.8269306768952934 M-97.36643168763487 0.8269306768952934 C-97.36643168763487 0.36626364885136437, -97.36643168763487 -0.0944033791925647, -97.36643168763487 -0.8269306768952809 M-97.36643168763487 0.8269306768952934 C-97.36643168763487 0.48396398005234176, -97.36643168763487 0.1409972832093901, -97.36643168763487 -0.8269306768952809 M-97.36643168763487 -0.8269306768952809 C-97.3343169766576 -1.3271432228943025, -97.30220226568035 -1.8273557688933244, -97.26046842687991 -2.4773939951584185 M-97.36643168763487 -0.8269306768952809 C-97.32522422762358 -1.4687701286342594, -97.28401676761229 -2.110609580373238, -97.26046842687991 -2.4773939951584185 M-97.26046842687991 -2.4773939951584185 C-97.19579018430565 -2.9790256724008173, -97.13111194173138 -3.4806573496432165, -97.04897733113748 -4.117677170096128 M-97.26046842687991 -2.4773939951584185 C-97.17858443870988 -3.112470037582804, -97.09670045053984 -3.74754608000719, -97.04897733113748 -4.117677170096128 M-97.04897733113748 -4.117677170096128 C-96.92438793836205 -4.757417370020471, -96.79979854558661 -5.397157569944815, -96.73282746268467 -5.741039926302906 M-97.04897733113748 -4.117677170096128 C-96.92737292489652 -4.742090095043073, -96.80576851865555 -5.366503019990017, -96.73282746268467 -5.741039926302906 M-96.73282746268467 -5.741039926302906 C-96.60310060543507 -6.235744656971182, -96.47337374818548 -6.730449387639458, -96.3133179491449 -7.340811518003303 M-96.73282746268467 -5.741039926302906 C-96.59734442199449 -6.257695479175833, -96.4618613813043 -6.774351032048761, -96.3133179491449 -7.340811518003303 M-96.3133179491449 -7.340811518003303 C-96.17140013497607 -7.768245362746856, -96.02948232080723 -8.195679207490409, -95.79217264509383 -8.910418140577093 M-96.3133179491449 -7.340811518003303 C-96.13639415228411 -7.873677805169111, -95.95947035542332 -8.406544092334919, -95.79217264509383 -8.910418140577093 M-95.79217264509383 -8.910418140577093 C-95.60106589197942 -9.382455515567395, -95.40995913886502 -9.854492890557697, -95.17153304837109 -10.443409943732574 M-95.79217264509383 -8.910418140577093 C-95.57733044859735 -9.441082519614694, -95.36248825210087 -9.971746898652295, -95.17153304837109 -10.443409943732574 M-95.17153304837109 -10.443409943732574 C-95.02591680175018 -10.745785195529434, -94.88030055512928 -11.048160447326296, -94.4539495002064 -11.933487535324831 M-95.17153304837109 -10.443409943732574 C-94.88471760461394 -11.038988349561684, -94.59790216085679 -11.634566755390795, -94.4539495002064 -11.933487535324831 M-94.4539495002064 -11.933487535324831 C-94.23377565573165 -12.324428491209096, -94.0136018112569 -12.715369447093359, -93.64237070532036 -13.374527866909409 M-94.4539495002064 -11.933487535324831 C-94.24534253450224 -12.303890326678419, -94.0367355687981 -12.674293118032006, -93.64237070532036 -13.374527866909409 M-93.64237070532036 -13.374527866909409 C-93.44430143239855 -13.678815459164259, -93.24623215947675 -13.983103051419109, -92.74013161506429 -14.760609394661605 M-93.64237070532036 -13.374527866909409 C-93.38256193693337 -13.77366390357464, -93.12275316854638 -14.172799940239871, -92.74013161506429 -14.760609394661605 M-92.74013161506429 -14.760609394661605 C-92.39964928242803 -15.216824701815561, -92.05916694979179 -15.673040008969517, -91.75093972338968 -16.086036412270353 M-92.74013161506429 -14.760609394661605 C-92.5378131206186 -15.03169774562481, -92.3354946261729 -15.302786096588013, -91.75093972338968 -16.086036412270353 M-91.75093972338968 -16.086036412270353 C-91.50869723541349 -16.370588222635227, -91.26645474743731 -16.6551400330001, -90.67885983196045 -17.345362455817092 M-91.75093972338968 -16.086036412270353 C-91.41412065878437 -16.481683251103465, -91.07730159417906 -16.877330089936574, -90.67885983196045 -17.345362455817092 M-90.67885983196045 -17.345362455817092 C-90.2843345011581 -17.75274225100257, -89.88980917035576 -18.160122046188047, -89.52829734701089 -18.5334126844643 M-90.67885983196045 -17.345362455817092 C-90.42367497217168 -17.60886177461562, -90.16849011238293 -17.872361093414145, -89.52829734701089 -18.5334126844643 M-89.52829734701089 -18.5334126844643 C-89.16660689355925 -18.86189038448409, -88.8049164401076 -19.190368084503884, -88.30398017658653 -19.645305144986487 M-89.52829734701089 -18.5334126844643 C-89.18681192648525 -18.843540708176576, -88.8453265059596 -19.153668731888853, -88.30398017658653 -19.645305144986487 M-88.30398017658653 -19.645305144986487 C-87.80850751346415 -20.040431408745285, -87.31303485034177 -20.435557672504082, -87.01093930255585 -20.676470832763204 M-88.30398017658653 -19.645305144986487 C-88.03671112602412 -19.858445100481884, -87.7694420754617 -20.07158505597728, -87.01093930255585 -20.676470832763204 M-87.01093930255585 -20.676470832763204 C-86.6590357183358 -20.92194353945447, -86.30713213411576 -21.167416246145738, -85.65448810722665 -21.622672466799 M-87.01093930255585 -20.676470832763204 C-86.49298946310283 -21.037770219078457, -85.9750396236498 -21.399069605393713, -85.65448810722665 -21.622672466799 M-85.65448810722665 -21.622672466799 C-85.13461342236475 -21.937823555885053, -84.61473873750283 -22.252974644971108, -84.24020053951841 -22.480021901620027 M-85.65448810722665 -21.622672466799 C-85.1430375240796 -21.932716815919992, -84.63158694093254 -22.242761165040985, -84.24020053951841 -22.480021901620027 M-84.24020053951841 -22.480021901620027 C-83.902032826313 -22.656443780992532, -83.5638651131076 -22.832865660365037, -82.77388821041058 -23.244996104497716 M-84.24020053951841 -22.480021901620027 C-83.76552541152843 -22.72765961184847, -83.29085028353846 -22.975297322076912, -82.77388821041058 -23.244996104497716 M-82.77388821041058 -23.244996104497716 C-82.38123935323459 -23.418810106055012, -81.9885904960586 -23.59262410761231, -81.26157651178646 -23.91445163234599 M-82.77388821041058 -23.244996104497716 C-82.46627894780599 -23.3811656001482, -82.1586696852014 -23.517335095798686, -81.26157651178646 -23.91445163234599 M-81.26157651178646 -23.91445163234599 C-80.84135452538632 -24.069097207830698, -80.4211325389862 -24.223742783315405, -79.70947985680553 -24.485637548803172 M-81.26157651178646 -23.91445163234599 C-80.80402167289742 -24.082836042647724, -80.34646683400837 -24.251220452949457, -79.70947985680553 -24.485637548803172 M-79.70947985680553 -24.485637548803172 C-79.21532176335006 -24.63230107705199, -78.72116366989458 -24.778964605300814, -78.12397614354681 -24.956206728419538 M-79.70947985680553 -24.485637548803172 C-79.21405926310089 -24.632675780498946, -78.71863866939626 -24.77971401219472, -78.12397614354681 -24.956206728419538 M-78.12397614354681 -24.956206728419538 C-77.68194262540476 -25.057097994397182, -77.23990910726269 -25.15798926037483, -76.51158054685754 -25.324225501499278 M-78.12397614354681 -24.956206728419538 C-77.61098495321819 -25.073293620031684, -77.09799376288956 -25.190380511643827, -76.51158054685754 -25.324225501499278 M-76.51158054685754 -25.324225501499278 C-76.16777740634195 -25.379808927024666, -75.82397426582635 -25.43539235255005, -74.87891874610233 -25.588181599964017 M-76.51158054685754 -25.324225501499278 C-76.12844653287122 -25.38616763763193, -75.74531251888489 -25.44810977376459, -74.87891874610233 -25.588181599964017 M-74.87891874610233 -25.588181599964017 C-74.54023980604263 -25.620853549990557, -74.20156086598294 -25.653525500017096, -73.23269969882529 -25.746990371586765 M-74.87891874610233 -25.588181599964017 C-74.54367010395377 -25.620522633276607, -74.2084214618052 -25.652863666589198, -73.23269969882529 -25.746990371586765 M-73.23269969882529 -25.746990371586765 C-72.622281298067 -25.766565301591744, -72.0118628973087 -25.786140231596725, -71.5796880722046 -25.799999237060547 M-73.23269969882529 -25.746990371586765 C-72.69106459052679 -25.764359555281114, -72.14942948222829 -25.781728738975467, -71.5796880722046 -25.799999237060547 M-71.5796880722046 -25.799999237060547 C-71.5796880722046 -25.799999237060547, -71.57968807220459 -25.799999237060547, -71.57968807220459 -25.799999237060547 M-71.5796880722046 -25.799999237060547 C-71.5796880722046 -25.799999237060547, -71.57968807220459 -25.799999237060547, -71.57968807220459 -25.799999237060547" stroke="#1F4870" stroke-width="1.3" fill="none" stroke-dasharray="0 0" style="fill:#2E5A88 !important;stroke:#1F4870 !important"></path></g><g class="label" style="color:#ffffff !important" transform="translate(0, -18.299999237060547)"><rect></rect><g><rect class="background" style="stroke: none"></rect><text y="-10.1" style="fill:#ffffff !important"><tspan class="text-outer-tspan row" x="0" y="-0.1em" dy="1.1em"><tspan font-style="normal" class="text-inner-tspan" font-weight="normal">Pagesmith</tspan></tspan><tspan class="text-outer-tspan row" x="0" y="1em" dy="1.1em"><tspan font-style="normal" class="text-inner-tspan" font-weight="normal">seven</tspan><tspan font-style="normal" class="text-inner-tspan" font-weight="normal"> locked</tspan><tspan font-style="normal" class="text-inner-tspan" font-weight="normal"> principles</tspan></tspan></text></g></g></g><g class="node default tenet" id="ge90f83a7-08d6-4971-8d10-2208d0a57dce-light-flowchart-filesystem-2" data-look="classic" transform="translate(132.3828125, 160.5)"><rect class="basic label-container" style="fill:#1F6E68 !important;stroke:#155752 !important" x="-124.3828125" y="-50.900001525878906" width="248.765625" height="101.80000305175781"></rect><g class="label" style="color:#ffffff !important" transform="translate(0, -35.900001525878906)"><rect></rect><g><rect class="background" style="stroke: none"></rect><text y="-10.1" style="fill:#ffffff !important"><tspan class="text-outer-tspan row" x="0" y="-0.1em" dy="1.1em"><tspan font-style="normal" class="text-inner-tspan" font-weight="normal">1.</tspan><tspan font-style="normal" class="text-inner-tspan" font-weight="normal"> Filesystem-first</tspan></tspan><tspan class="text-outer-tspan row" x="0" y="1em" dy="1.1em"><tspan font-style="normal" class="text-inner-tspan" font-weight="normal">source</tspan><tspan font-style="normal" class="text-inner-tspan" font-weight="normal"> of</tspan><tspan font-style="normal" class="text-inner-tspan" font-weight="normal"> truth</tspan></tspan><tspan class="text-outer-tspan row" x="0" y="2.1em" dy="1.1em"><tspan font-style="normal" class="text-inner-tspan" font-weight="normal">collections,</tspan><tspan font-style="normal" class="text-inner-tspan" font-weight="normal"> assets,</tspan><tspan font-style="normal" class="text-inner-tspan" font-weight="normal"> nav</tspan><tspan font-style="normal" class="text-inner-tspan" font-weight="normal"> on</tspan></tspan><tspan class="text-outer-tspan row" x="0" y="3.2em" dy="1.1em"><tspan font-style="normal" class="text-inner-tspan" font-weight="normal">disk</tspan></tspan></text></g></g></g><g class="node default tenet" id="ge90f83a7-08d6-4971-8d10-2208d0a57dce-light-flowchart-boundaries-4" data-look="classic" transform="translate(399.5390625, 160.5)"><rect class="basic label-container" style="fill:#1F6E68 !important;stroke:#155752 !important" x="-92.7734375" y="-42.099998474121094" width="185.546875" height="84.19999694824219"></rect><g class="label" style="color:#ffffff !important" transform="translate(0, -27.099998474121094)"><rect></rect><g><rect class="background" style="stroke: none"></rect><text y="-10.1" style="fill:#ffffff !important"><tspan class="text-outer-tspan row" x="0" y="-0.1em" dy="1.1em"><tspan font-style="normal" class="text-inner-tspan" font-weight="normal">2.</tspan><tspan font-style="normal" class="text-inner-tspan" font-weight="normal"> Strict</tspan><tspan font-style="normal" class="text-inner-tspan" font-weight="normal"> package</tspan></tspan><tspan class="text-outer-tspan row" x="0" y="1em" dy="1.1em"><tspan font-style="normal" class="text-inner-tspan" font-weight="normal">boundaries</tspan></tspan><tspan class="text-outer-tspan row" x="0" y="2.1em" dy="1.1em"><tspan font-style="normal" class="text-inner-tspan" font-weight="normal">core</tspan><tspan font-style="normal" class="text-inner-tspan" font-weight="normal"> /</tspan><tspan font-style="normal" class="text-inner-tspan" font-weight="normal"> site</tspan><tspan font-style="normal" class="text-inner-tspan" font-weight="normal"> /</tspan><tspan font-style="normal" class="text-inner-tspan" font-weight="normal"> docs</tspan></tspan></text></g></g></g><g class="node default tenet" id="ge90f83a7-08d6-4971-8d10-2208d0a57dce-light-flowchart-validation-6" data-look="classic" transform="translate(659.84375, 160.5)"><rect class="basic label-container" style="fill:#1F6E68 !important;stroke:#155752 !important" x="-117.53125" y="-42.099998474121094" width="235.0625" height="84.19999694824219"></rect><g class="label" style="color:#ffffff !important" transform="translate(0, -27.099998474121094)"><rect></rect><g><rect class="background" style="stroke: none"></rect><text y="-10.1" style="fill:#ffffff !important"><tspan class="text-outer-tspan row" x="0" y="-0.1em" dy="1.1em"><tspan font-style="normal" class="text-inner-tspan" font-weight="normal">3.</tspan><tspan font-style="normal" class="text-inner-tspan" font-weight="normal"> Validation</tspan><tspan font-style="normal" class="text-inner-tspan" font-weight="normal"> before</tspan></tspan><tspan class="text-outer-tspan row" x="0" y="1em" dy="1.1em"><tspan font-style="normal" class="text-inner-tspan" font-weight="normal">render</tspan><tspan font-style="normal" class="text-inner-tspan" font-weight="normal"> or</tspan><tspan font-style="normal" class="text-inner-tspan" font-weight="normal"> runtime</tspan></tspan><tspan class="text-outer-tspan row" x="0" y="2.1em" dy="1.1em"><tspan font-style="normal" class="text-inner-tspan" font-weight="normal">Zod</tspan><tspan font-style="normal" class="text-inner-tspan" font-weight="normal"> +</tspan><tspan font-style="normal" class="text-inner-tspan" font-weight="normal"> content</tspan><tspan font-style="normal" class="text-inner-tspan" font-weight="normal"> validators</tspan></tspan></text></g></g></g><g class="node default tenet" id="ge90f83a7-08d6-4971-8d10-2208d0a57dce-light-flowchart-vite-8" data-look="classic" transform="translate(929.84375, 160.5)"><rect class="basic label-container" style="fill:#1F6E68 !important;stroke:#155752 !important" x="-102.46875" y="-42.099998474121094" width="204.9375" height="84.19999694824219"></rect><g class="label" style="color:#ffffff !important" transform="translate(0, -27.099998474121094)"><rect></rect><g><rect class="background" style="stroke: none"></rect><text y="-10.1" style="fill:#ffffff !important"><tspan class="text-outer-tspan row" x="0" y="-0.1em" dy="1.1em"><tspan font-style="normal" class="text-inner-tspan" font-weight="normal">4.</tspan><tspan font-style="normal" class="text-inner-tspan" font-weight="normal"> Vite-native</tspan></tspan><tspan class="text-outer-tspan row" x="0" y="1em" dy="1.1em"><tspan font-style="normal" class="text-inner-tspan" font-weight="normal">execution</tspan></tspan><tspan class="text-outer-tspan row" x="0" y="2.1em" dy="1.1em"><tspan font-style="normal" class="text-inner-tspan" font-weight="normal">no</tspan><tspan font-style="normal" class="text-inner-tspan" font-weight="normal"> custom</tspan><tspan font-style="normal" class="text-inner-tspan" font-weight="normal"> toolchain</tspan></tspan></text></g></g></g><g class="node default tenet" id="ge90f83a7-08d6-4971-8d10-2208d0a57dce-light-flowchart-progressive-10" data-look="classic" transform="translate(1193.6484375, 160.5)"><rect class="basic label-container" style="fill:#1F6E68 !important;stroke:#155752 !important" x="-111.3359375" y="-42.099998474121094" width="222.671875" height="84.19999694824219"></rect><g class="label" style="color:#ffffff !important" transform="translate(0, -27.099998474121094)"><rect></rect><g><rect class="background" style="stroke: none"></rect><text y="-10.1" style="fill:#ffffff !important"><tspan class="text-outer-tspan row" x="0" y="-0.1em" dy="1.1em"><tspan font-style="normal" class="text-inner-tspan" font-weight="normal">5.</tspan><tspan font-style="normal" class="text-inner-tspan" font-weight="normal"> Progressive</tspan></tspan><tspan class="text-outer-tspan row" x="0" y="1em" dy="1.1em"><tspan font-style="normal" class="text-inner-tspan" font-weight="normal">enhancement</tspan></tspan><tspan class="text-outer-tspan row" x="0" y="2.1em" dy="1.1em"><tspan font-style="normal" class="text-inner-tspan" font-weight="normal">HTML</tspan><tspan font-style="normal" class="text-inner-tspan" font-weight="normal"> first,</tspan><tspan font-style="normal" class="text-inner-tspan" font-weight="normal"> JS</tspan><tspan font-style="normal" class="text-inner-tspan" font-weight="normal"> optional</tspan></tspan></text></g></g></g><g class="node default tenet" id="ge90f83a7-08d6-4971-8d10-2208d0a57dce-light-flowchart-config-12" data-look="classic" transform="translate(1465.015625, 160.5)"><rect class="basic label-container" style="fill:#1F6E68 !important;stroke:#155752 !important" x="-110.03125" y="-42.099998474121094" width="220.0625" height="84.19999694824219"></rect><g class="label" style="color:#ffffff !important" transform="translate(0, -27.099998474121094)"><rect></rect><g><rect class="background" style="stroke: none"></rect><text y="-10.1" style="fill:#ffffff !important"><tspan class="text-outer-tspan row" x="0" y="-0.1em" dy="1.1em"><tspan font-style="normal" class="text-inner-tspan" font-weight="normal">6.</tspan><tspan font-style="normal" class="text-inner-tspan" font-weight="normal"> Configuration</tspan></tspan><tspan class="text-outer-tspan row" x="0" y="1em" dy="1.1em"><tspan font-style="normal" class="text-inner-tspan" font-weight="normal">before</tspan><tspan font-style="normal" class="text-inner-tspan" font-weight="normal"> customization</tspan></tspan><tspan class="text-outer-tspan row" x="0" y="2.1em" dy="1.1em"><tspan font-style="normal" class="text-inner-tspan" font-weight="normal">JSON5</tspan><tspan font-style="normal" class="text-inner-tspan" font-weight="normal"> over</tspan><tspan font-style="normal" class="text-inner-tspan" font-weight="normal"> TypeScript</tspan></tspan></text></g></g></g><g class="node default tenet" id="ge90f83a7-08d6-4971-8d10-2208d0a57dce-light-flowchart-parity-14" data-look="classic" transform="translate(1751.328125, 160.5)"><rect class="basic label-container" style="fill:#1F6E68 !important;stroke:#155752 !important" x="-126.28125" y="-42.099998474121094" width="252.5625" height="84.19999694824219"></rect><g class="label" style="color:#ffffff !important" transform="translate(0, -27.099998474121094)"><rect></rect><g><rect class="background" style="stroke: none"></rect><text y="-10.1" style="fill:#ffffff !important"><tspan class="text-outer-tspan row" x="0" y="-0.1em" dy="1.1em"><tspan font-style="normal" class="text-inner-tspan" font-weight="normal">7.</tspan><tspan font-style="normal" class="text-inner-tspan" font-weight="normal"> Docs,</tspan><tspan font-style="normal" class="text-inner-tspan" font-weight="normal"> examples,</tspan></tspan><tspan class="text-outer-tspan row" x="0" y="1em" dy="1.1em"><tspan font-style="normal" class="text-inner-tspan" font-weight="normal">AI</tspan><tspan font-style="normal" class="text-inner-tspan" font-weight="normal"> guidance</tspan><tspan font-style="normal" class="text-inner-tspan" font-weight="normal"> move</tspan><tspan font-style="normal" class="text-inner-tspan" font-weight="normal"> together</tspan></tspan><tspan class="text-outer-tspan row" x="0" y="2.1em" dy="1.1em"><tspan font-style="normal" class="text-inner-tspan" font-weight="normal">same</tspan><tspan font-style="normal" class="text-inner-tspan" font-weight="normal"> branch,</tspan><tspan font-style="normal" class="text-inner-tspan" font-weight="normal"> same</tspan><tspan font-style="normal" class="text-inner-tspan" font-weight="normal"> PR</tspan></tspan></text></g></g></g></g></g></g><defs><filter id="ge90f83a7-08d6-4971-8d10-2208d0a57dce-light-drop-shadow" height="130%" width="130%"><feDropShadow dx="4" dy="4" stdDeviation="0" flood-opacity="0.06" flood-color="#000000"></feDropShadow></filter></defs><defs><filter id="ge90f83a7-08d6-4971-8d10-2208d0a57dce-light-drop-shadow-small" height="150%" width="150%"><feDropShadow dx="2" dy="2" stdDeviation="0" flood-opacity="0.06" flood-color="#000000"></feDropShadow></filter></defs></svg>