<svg id="ge90f83a7-08d6-4971-8d10-2208d0a57dce-dark" width="100%" xmlns="http://www.w3.org/2000/svg" xmlns:xlink="http://www.w3.org/1999/xlink" class="flowchart" style="max-width: 1885.609375px;" viewBox="0 0 1885.609375 219.39999389648438" role="graphics-document document" aria-roledescription="flowchart-v2"><style>#ge90f83a7-08d6-4971-8d10-2208d0a57dce-dark{font-family:"trebuchet ms",verdana,arial,sans-serif;font-size:16px;fill:#e5e5e5;}@keyframes edge-animation-frame{from{stroke-dashoffset:0;}}@keyframes dash{to{stroke-dashoffset:0;}}#ge90f83a7-08d6-4971-8d10-2208d0a57dce-dark .edge-animation-slow{stroke-dasharray:9,5!important;stroke-dashoffset:900;animation:dash 50s linear infinite;stroke-linecap:round;}#ge90f83a7-08d6-4971-8d10-2208d0a57dce-dark .edge-animation-fast{stroke-dasharray:9,5!important;stroke-dashoffset:900;animation:dash 20s linear infinite;stroke-linecap:round;}#ge90f83a7-08d6-4971-8d10-2208d0a57dce-dark .error-icon{fill:#252525;}#ge90f83a7-08d6-4971-8d10-2208d0a57dce-dark .error-text{fill:#cccccc;stroke:#cccccc;}#ge90f83a7-08d6-4971-8d10-2208d0a57dce-dark .edge-thickness-normal{stroke-width:1px;}#ge90f83a7-08d6-4971-8d10-2208d0a57dce-dark .edge-thickness-thick{stroke-width:3.5px;}#ge90f83a7-08d6-4971-8d10-2208d0a57dce-dark .edge-pattern-solid{stroke-dasharray:0;}#ge90f83a7-08d6-4971-8d10-2208d0a57dce-dark .edge-thickness-invisible{stroke-width:0;fill:none;}#ge90f83a7-08d6-4971-8d10-2208d0a57dce-dark .edge-pattern-dashed{stroke-dasharray:3;}#ge90f83a7-08d6-4971-8d10-2208d0a57dce-dark .edge-pattern-dotted{stroke-dasharray:2;}#ge90f83a7-08d6-4971-8d10-2208d0a57dce-dark .marker{fill:#cccccc;stroke:#cccccc;}#ge90f83a7-08d6-4971-8d10-2208d0a57dce-dark .marker.cross{stroke:#cccccc;}#ge90f83a7-08d6-4971-8d10-2208d0a57dce-dark svg{font-family:"trebuchet ms",verdana,arial,sans-serif;font-size:16px;}#ge90f83a7-08d6-4971-8d10-2208d0a57dce-dark p{margin:0;}#ge90f83a7-08d6-4971-8d10-2208d0a57dce-dark .label{font-family:"trebuchet ms",verdana,arial,sans-serif;color:#e5e5e5;}#ge90f83a7-08d6-4971-8d10-2208d0a57dce-dark .cluster-label text{fill:#e5e5e5;}#ge90f83a7-08d6-4971-8d10-2208d0a57dce-dark .cluster-label span{color:#e5e5e5;}#ge90f83a7-08d6-4971-8d10-2208d0a57dce-dark .cluster-label span p{background-color:transparent;}#ge90f83a7-08d6-4971-8d10-2208d0a57dce-dark .label text,#ge90f83a7-08d6-4971-8d10-2208d0a57dce-dark span{fill:#e5e5e5;color:#e5e5e5;}#ge90f83a7-08d6-4971-8d10-2208d0a57dce-dark .node rect,#ge90f83a7-08d6-4971-8d10-2208d0a57dce-dark .node circle,#ge90f83a7-08d6-4971-8d10-2208d0a57dce-dark .node ellipse,#ge90f83a7-08d6-4971-8d10-2208d0a57dce-dark .node polygon,#ge90f83a7-08d6-4971-8d10-2208d0a57dce-dark .node path{fill:#2d2d2d;stroke:#555555;stroke-width:1px;}#ge90f83a7-08d6-4971-8d10-2208d0a57dce-dark .rough-node .label text,#ge90f83a7-08d6-4971-8d10-2208d0a57dce-dark .node .label text,#ge90f83a7-08d6-4971-8d10-2208d0a57dce-dark .image-shape .label,#ge90f83a7-08d6-4971-8d10-2208d0a57dce-dark .icon-shape .label{text-anchor:middle;}#ge90f83a7-08d6-4971-8d10-2208d0a57dce-dark .node .katex path{fill:#000;stroke:#000;stroke-width:1px;}#ge90f83a7-08d6-4971-8d10-2208d0a57dce-dark .rough-node .label,#ge90f83a7-08d6-4971-8d10-2208d0a57dce-dark .node .label,#ge90f83a7-08d6-4971-8d10-2208d0a57dce-dark .image-shape .label,#ge90f83a7-08d6-4971-8d10-2208d0a57dce-dark .icon-shape .label{text-align:center;}#ge90f83a7-08d6-4971-8d10-2208d0a57dce-dark .node.clickable{cursor:pointer;}#ge90f83a7-08d6-4971-8d10-2208d0a57dce-dark .root .anchor path{fill:#cccccc!important;stroke-width:0;stroke:#cccccc;}#ge90f83a7-08d6-4971-8d10-2208d0a57dce-dark .arrowheadPath{fill:#cccccc;}#ge90f83a7-08d6-4971-8d10-2208d0a57dce-dark .edgePath .path{stroke:#cccccc;stroke-width:1px;}#ge90f83a7-08d6-4971-8d10-2208d0a57dce-dark .flowchart-link{stroke:#cccccc;fill:none;}#ge90f83a7-08d6-4971-8d10-2208d0a57dce-dark .edgeLabel{background-color:#1e1e1e;text-align:center;}#ge90f83a7-08d6-4971-8d10-2208d0a57dce-dark .edgeLabel p{background-color:#1e1e1e;}#ge90f83a7-08d6-4971-8d10-2208d0a57dce-dark .edgeLabel rect{opacity:0.5;background-color:#1e1e1e;fill:#1e1e1e;}#ge90f83a7-08d6-4971-8d10-2208d0a57dce-dark .labelBkg{background-color:rgba(30, 30, 30, 0.5);}#ge90f83a7-08d6-4971-8d10-2208d0a57dce-dark .cluster rect{fill:#1e1e1e;stroke:#555555;stroke-width:1px;}#ge90f83a7-08d6-4971-8d10-2208d0a57dce-dark .cluster text{fill:#e5e5e5;}#ge90f83a7-08d6-4971-8d10-2208d0a57dce-dark .cluster span{color:#e5e5e5;}#ge90f83a7-08d6-4971-8d10-2208d0a57dce-dark div.mermaidTooltip{position:absolute;text-align:center;max-width:200px;padding:2px;font-family:"trebuchet ms",verdana,arial,sans-serif;font-size:12px;background:#252525;border:1px solid #555555;border-radius:2px;pointer-events:none;z-index:100;}#ge90f83a7-08d6-4971-8d10-2208d0a57dce-dark .flowchartTitleText{text-anchor:middle;font-size:18px;fill:#e5e5e5;}#ge90f83a7-08d6-4971-8d10-2208d0a57dce-dark rect.text{fill:none;stroke-width:0;}#ge90f83a7-08d6-4971-8d10-2208d0a57dce-dark .icon-shape,#ge90f83a7-08d6-4971-8d10-2208d0a57dce-dark .image-shape{background-color:#1e1e1e;text-align:center;}#ge90f83a7-08d6-4971-8d10-2208d0a57dce-dark .icon-shape p,#ge90f83a7-08d6-4971-8d10-2208d0a57dce-dark .image-shape p{background-color:#1e1e1e;padding:2px;}#ge90f83a7-08d6-4971-8d10-2208d0a57dce-dark .icon-shape .label rect,#ge90f83a7-08d6-4971-8d10-2208d0a57dce-dark .image-shape .label rect{opacity:0.5;background-color:#1e1e1e;fill:#1e1e1e;}#ge90f83a7-08d6-4971-8d10-2208d0a57dce-dark .label-icon{display:inline-block;height:1em;overflow:visible;vertical-align:-0.125em;}#ge90f83a7-08d6-4971-8d10-2208d0a57dce-dark .node .label-icon path{fill:currentColor;stroke:revert;stroke-width:revert;}#ge90f83a7-08d6-4971-8d10-2208d0a57dce-dark .node .neo-node{stroke:#555555;}#ge90f83a7-08d6-4971-8d10-2208d0a57dce-dark [data-look="neo"].node rect,#ge90f83a7-08d6-4971-8d10-2208d0a57dce-dark [data-look="neo"].cluster rect,#ge90f83a7-08d6-4971-8d10-2208d0a57dce-dark [data-look="neo"].node polygon{stroke:url(#ge90f83a7-08d6-4971-8d10-2208d0a57dce-dark-gradient);filter:drop-shadow( 1px 2px 2px rgba(185,185,185,1));}#ge90f83a7-08d6-4971-8d10-2208d0a57dce-dark [data-look="neo"].node path{stroke:url(#ge90f83a7-08d6-4971-8d10-2208d0a57dce-dark-gradient);stroke-width:1px;}#ge90f83a7-08d6-4971-8d10-2208d0a57dce-dark [data-look="neo"].node .outer-path{filter:drop-shadow( 1px 2px 2px rgba(185,185,185,1));}#ge90f83a7-08d6-4971-8d10-2208d0a57dce-dark [data-look="neo"].node .neo-line path{stroke:#555555;filter:none;}#ge90f83a7-08d6-4971-8d10-2208d0a57dce-dark [data-look="neo"].node circle{stroke:url(#ge90f83a7-08d6-4971-8d10-2208d0a57dce-dark-gradient);filter:drop-shadow( 1px 2px 2px rgba(185,185,185,1));}#ge90f83a7-08d6-4971-8d10-2208d0a57dce-dark [data-look="neo"].node circle .state-start{fill:#000000;}#ge90f83a7-08d6-4971-8d10-2208d0a57dce-dark [data-look="neo"].icon-shape .icon{fill:url(#ge90f83a7-08d6-4971-8d10-2208d0a57dce-dark-gradient);filter:drop-shadow( 1px 2px 2px rgba(185,185,185,1));}#ge90f83a7-08d6-4971-8d10-2208d0a57dce-dark [data-look="neo"].icon-shape .icon-neo path{stroke:url(#ge90f83a7-08d6-4971-8d10-2208d0a57dce-dark-gradient);filter:drop-shadow( 1px 2px 2px rgba(185,185,185,1));}#ge90f83a7-08d6-4971-8d10-2208d0a57dce-dark :root{--mermaid-font-family:"trebuchet ms",verdana,arial,sans-serif;}#ge90f83a7-08d6-4971-8d10-2208d0a57dce-dark .hub rect{fill:#2E5A88!important;stroke:#1F4870!important;color:#ffffff!important;}#ge90f83a7-08d6-4971-8d10-2208d0a57dce-dark .hub polygon{fill:#2E5A88!important;stroke:#1F4870!important;color:#ffffff!important;}#ge90f83a7-08d6-4971-8d10-2208d0a57dce-dark .hub ellipse{fill:#2E5A88!important;stroke:#1F4870!important;color:#ffffff!important;}#ge90f83a7-08d6-4971-8d10-2208d0a57dce-dark .hub circle{fill:#2E5A88!important;stroke:#1F4870!important;color:#ffffff!important;}#ge90f83a7-08d6-4971-8d10-2208d0a57dce-dark .hub path{fill:#2E5A88!important;stroke:#1F4870!important;color:#ffffff!important;}#ge90f83a7-08d6-4971-8d10-2208d0a57dce-dark .hub tspan{fill:#ffffff!important;}#ge90f83a7-08d6-4971-8d10-2208d0a57dce-dark .tenet rect{fill:#1F6E68!important;stroke:#155752!important;color:#ffffff!important;}#ge90f83a7-08d6-4971-8d10-2208d0a57dce-dark .tenet polygon{fill:#1F6E68!important;stroke:#155752!important;color:#ffffff!important;}#ge90f83a7-08d6-4971-8d10-2208d0a57dce-dark .tenet ellipse{fill:#1F6E68!important;stroke:#155752!important;color:#ffffff!important;}#ge90f83a7-08d6-4971-8d10-2208d0a57dce-dark .tenet circle{fill:#1F6E68!important;stroke:#155752!important;color:#ffffff!important;}#ge90f83a7-08d6-4971-8d10-2208d0a57dce-dark .tenet path{fill:#1F6E68!important;stroke:#155752!important;color:#ffffff!important;}#ge90f83a7-08d6-4971-8d10-2208d0a57dce-dark .tenet tspan{fill:#ffffff!important;}</style><g><marker id="ge90f83a7-08d6-4971-8d10-2208d0a57dce-dark_flowchart-v2-pointEnd" class="marker flowchart-v2" viewBox="0 0 10 10" refX="5" refY="5" markerUnits="userSpaceOnUse" markerWidth="8" markerHeight="8" orient="auto"><path d="M 0 0 L 10 5 L 0 10 z" class="arrowMarkerPath" style="stroke-width: 1; stroke-dasharray: 1, 0;"></path></marker><marker id="ge90f83a7-08d6-4971-8d10-2208d0a57dce-dark_flowchart-v2-pointStart" class="marker flowchart-v2" viewBox="0 0 10 10" refX="4.5" refY="5" markerUnits="userSpaceOnUse" markerWidth="8" markerHeight="8" orient="auto"><path d="M 0 5 L 10 10 L 10 0 z" class="arrowMarkerPath" style="stroke-width: 1; stroke-dasharray: 1, 0;"></path></marker><marker id="ge90f83a7-08d6-4971-8d10-2208d0a57dce-dark_flowchart-v2-pointEnd-margin" class="marker flowchart-v2" viewBox="0 0 11.5 14" refX="11.5" refY="7" markerUnits="userSpaceOnUse" markerWidth="10.5" markerHeight="14" orient="auto"><path d="M 0 0 L 11.5 7 L 0 14 z" class="arrowMarkerPath" style="stroke-width: 0; stroke-dasharray: 1, 0;"></path></marker><marker id="ge90f83a7-08d6-4971-8d10-2208d0a57dce-dark_flowchart-v2-pointStart-margin" class="marker flowchart-v2" viewBox="0 0 11.5 14" refX="1" refY="7" markerUnits="userSpaceOnUse" markerWidth="11.5" markerHeight="14" orient="auto"><polygon points="0,7 11.5,14 11.5,0" class="arrowMarkerPath" style="stroke-width: 0; stroke-dasharray: 1, 0;"></polygon></marker><marker id="ge90f83a7-08d6-4971-8d10-2208d0a57dce-dark_flowchart-v2-circleEnd" class="marker flowchart-v2" viewBox="0 0 10 10" refX="11" refY="5" markerUnits="userSpaceOnUse" markerWidth="11" markerHeight="11" orient="auto"><circle cx="5" cy="5" r="5" class="arrowMarkerPath" style="stroke-width: 1; stroke-dasharray: 1, 0;"></circle></marker><marker id="ge90f83a7-08d6-4971-8d10-2208d0a57dce-dark_flowchart-v2-circleStart" class="marker flowchart-v2" viewBox="0 0 10 10" refX="-1" refY="5" markerUnits="userSpaceOnUse" markerWidth="11" markerHeight="11" orient="auto"><circle cx="5" cy="5" r="5" class="arrowMarkerPath" style="stroke-width: 1; stroke-dasharray: 1, 0;"></circle></marker><marker id="ge90f83a7-08d6-4971-8d10-2208d0a57dce-dark_flowchart-v2-circleEnd-margin" class="marker flowchart-v2" viewBox="0 0 10 10" refY="5" refX="12.25" markerUnits="userSpaceOnUse" markerWidth="14" markerHeight="14" orient="auto"><circle cx="5" cy="5" r="5" class="arrowMarkerPath" style="stroke-width: 0; stroke-dasharray: 1, 0;"></circle></marker><marker id="ge90f83a7-08d6-4971-8d10-2208d0a57dce-dark_flowchart-v2-circleStart-margin" class="marker flowchart-v2" viewBox="0 0 10 10" refX="-2" refY="5" markerUnits="userSpaceOnUse" markerWidth="14" markerHeight="14" orient="auto"><circle cx="5" cy="5" r="5" class="arrowMarkerPath" style="stroke-width: 0; stroke-dasharray: 1, 0;"></circle></marker><marker id="ge90f83a7-08d6-4971-8d10-2208d0a57dce-dark_flowchart-v2-crossEnd" class="marker cross flowchart-v2" viewBox="0 0 11 11" refX="12" refY="5.2" markerUnits="userSpaceOnUse" markerWidth="11" markerHeight="11" orient="auto"><path d="M 1,1 l 9,9 M 10,1 l -9,9" class="arrowMarkerPath" style="stroke-width: 2; stroke-dasharray: 1, 0;"></path></marker><marker id="ge90f83a7-08d6-4971-8d10-2208d0a57dce-dark_flowchart-v2-crossStart" class="marker cross flowchart-v2" viewBox="0 0 11 11" refX="-1" refY="5.2" markerUnits="userSpaceOnUse" markerWidth="11" markerHeight="11" orient="auto"><path d="M 1,1 l 9,9 M 10,1 l -9,9" class="arrowMarkerPath" style="stroke-width: 2; stroke-dasharray: 1, 0;"></path></marker><marker id="ge90f83a7-08d6-4971-8d10-2208d0a57dce-dark_flowchart-v2-crossEnd-margin" class="marker cross flowchart-v2" viewBox="0 0 15 15" refX="17.7" refY="7.5" markerUnits="userSpaceOnUse" markerWidth="12" markerHeight="12" orient="auto"><path d="M 1,1 L 14,14 M 1,14 L 14,1" class="arrowMarkerPath" style="stroke-width: 2.5;"></path></marker><marker id="ge90f83a7-08d6-4971-8d10-2208d0a57dce-dark_flowchart-v2-crossStart-margin" class="marker cross flowchart-v2" viewBox="0 0 15 15" refX="-3.5" refY="7.5" markerUnits="userSpaceOnUse" markerWidth="12" markerHeight="12" orient="auto"><path d="M 1,1 L 14,14 M 1,14 L 14,1" class="arrowMarkerPath" style="stroke-width: 2.5; stroke-dasharray: 1, 0;"></path></marker><g class="root"><g class="clusters"></g><g class="edgePaths"><path d="M833.72,40.455L716.83,47.813C599.941,55.17,366.162,69.885,249.272,81.409C132.383,92.933,132.383,101.267,132.383,105.433L132.383,109.6" id="ge90f83a7-08d6-4971-8d10-2208d0a57dce-dark-L_hub_filesystem_0" class="edge-thickness-normal edge-pattern-solid edge-thickness-normal edge-pattern-solid flowchart-link" style=";" data-edge="true" data-et="edge" data-id="L_hub_filesystem_0" data-points="W3sieCI6ODMzLjcxOTUyMDc1OTIzOSwieSI6NDAuNDU1MTczMTY1ODMwMjR9LHsieCI6MTMyLjM4MjgxMjUsInkiOjg0LjU5OTk5ODQ3NDEyMTF9LHsieCI6MTMyLjM4MjgxMjUsInkiOjEwOS41OTk5OTg0NzQxMjExfV0=" data-look="classic"></path><path d="M834.655,43.466L762.136,50.322C689.616,57.178,544.578,70.889,472.058,83.378C399.539,95.867,399.539,107.133,399.539,112.767L399.539,118.4" id="ge90f83a7-08d6-4971-8d10-2208d0a57dce-dark-L_hub_boundaries_0" class="edge-thickness-normal edge-pattern-solid edge-thickness-normal edge-pattern-solid flowchart-link" style=";" data-edge="true" data-et="edge" data-id="L_hub_boundaries_0" data-points="W3sieCI6ODM0LjY1NTIwNzA5MjMyNTcsInkiOjQzLjQ2NjM4NjA3MzMxNzR9LHsieCI6Mzk5LjUzOTA2MjUsInkiOjg0LjU5OTk5ODQ3NDEyMTF9LHsieCI6Mzk5LjUzOTA2MjUsInkiOjExOC40MDAwMDE1MjU4Nzg5fV0=" data-look="classic"></path><path d="M839.456,51.4L809.521,56.934C779.585,62.467,719.715,73.533,689.779,84.7C659.844,95.867,659.844,107.133,659.844,112.767L659.844,118.4" id="ge90f83a7-08d6-4971-8d10-2208d0a57dce-dark-L_hub_validation_0" class="edge-thickness-normal edge-pattern-solid edge-thickness-normal edge-pattern-solid flowchart-link" style=";" data-edge="true" data-et="edge" data-id="L_hub_validation_0" data-points="W3sieCI6ODM5LjQ1NjI3MzU3MzA1NjUsInkiOjUxLjQwMDMwOTM1OTgyNzU2fSx7IngiOjY1OS44NDM3NSwieSI6ODQuNTk5OTk4NDc0MTIxMX0seyJ4Ijo2NTkuODQzNzUsInkiOjExOC40MDAwMDE1MjU4Nzg5fV0=" data-look="classic"></path><path d="M930.344,60.1L930.26,64.183C930.177,68.267,930.01,76.433,929.927,86.15C929.844,95.867,929.844,107.133,929.844,112.767L929.844,118.4" id="ge90f83a7-08d6-4971-8d10-2208d0a57dce-dark-L_hub_vite_0" class="edge-thickness-normal edge-pattern-solid edge-thickness-normal edge-pattern-solid flowchart-link" style=";" data-edge="true" data-et="edge" data-id="L_hub_vite_0" data-points="W3sieCI6OTMwLjM0Mzc1MDAwMDAwMDEsInkiOjYwLjA5OTk5ODQ3NDEyMTA5NH0seyJ4Ijo5MjkuODQzNzUsInkiOjg0LjU5OTk5ODQ3NDEyMTF9LHsieCI6OTI5Ljg0Mzc1LCJ5IjoxMTguNDAwMDAxNTI1ODc4OX1d" data-look="classic"></path><path d="M1020.928,51.743L1049.714,57.22C1078.501,62.696,1136.075,73.648,1164.862,84.757C1193.648,95.867,1193.648,107.133,1193.648,112.767L1193.648,118.4" id="ge90f83a7-08d6-4971-8d10-2208d0a57dce-dark-L_hub_progressive_0" class="edge-thickness-normal edge-pattern-solid edge-thickness-normal edge-pattern-solid flowchart-link" style=";" data-edge="true" data-et="edge" data-id="L_hub_progressive_0" data-points="W3sieCI6MTAyMC45Mjc2Mjc2OTk4OTk0LCJ5Ijo1MS43NDM0MzgwMjM3MzgyMTR9LHsieCI6MTE5My42NDg0Mzc1LCJ5Ijo4NC41OTk5OTg0NzQxMjExfSx7IngiOjExOTMuNjQ4NDM3NSwieSI6MTE4LjQwMDAwMTUyNTg3ODl9XQ==" data-look="classic"></path><path d="M1026.065,43.386L1099.223,50.255C1172.382,57.124,1318.699,70.862,1391.857,83.364C1465.016,95.867,1465.016,107.133,1465.016,112.767L1465.016,118.4" id="ge90f83a7-08d6-4971-8d10-2208d0a57dce-dark-L_hub_config_0" class="edge-thickness-normal edge-pattern-solid edge-thickness-normal edge-pattern-solid flowchart-link" style=";" data-edge="true" data-et="edge" data-id="L_hub_config_0" data-points="W3sieCI6MTAyNi4wNjQ3OTM1OTAyMjcsInkiOjQzLjM4NjEwNjI3NzYzMzU3fSx7IngiOjE0NjUuMDE1NjI1LCJ5Ijo4NC41OTk5OTg0NzQxMjExfSx7IngiOjE0NjUuMDE1NjI1LCJ5IjoxMTguNDAwMDAxNTI1ODc4OX1d" data-look="classic"></path><path d="M1027.014,40.278L1147.733,47.665C1268.452,55.052,1509.89,69.826,1630.609,82.846C1751.328,95.867,1751.328,107.133,1751.328,112.767L1751.328,118.4" id="ge90f83a7-08d6-4971-8d10-2208d0a57dce-dark-L_hub_parity_0" class="edge-thickness-normal edge-pattern-solid edge-thickness-normal edge-pattern-solid flowchart-link" style=";" data-edge="true" data-et="edge" data-id="L_hub_parity_0" data-points="W3sieCI6MTAyNy4wMTQ0MjY5ODg4MDc2LCJ5Ijo0MC4yNzgwNDM5NDA5MjY3MX0seyJ4IjoxNzUxLjMyODEyNSwieSI6ODQuNTk5OTk4NDc0MTIxMX0seyJ4IjoxNzUxLjMyODEyNSwieSI6MTE4LjQwMDAwMTUyNTg3ODl9XQ==" data-look="classic"></path></g><g class="edgeLabels"><g class="edgeLabel"><g class="label" data-id="L_hub_filesystem_0" transform="translate(0, 0)"><text y="-10.1" text-anchor="middle"><tspan class="text-outer-tspan row" x="0" y="-0.1em" dy="1.1em" text-anchor="middle"></tspan></text></g></g><g><rect class="background" style="stroke: none"></rect></g><g class="edgeLabel"><g class="label" data-id="L_hub_boundaries_0" transform="translate(0, 0)"><text y="-10.1" text-anchor="middle"><tspan class="text-outer-tspan row" x="0" y="-0.1em" dy="1.1em" text-anchor="middle"></tspan></text></g></g><g><rect class="background" style="stroke: none"></rect></g><g class="edgeLabel"><g class="label" data-id="L_hub_validation_0" transform="translate(0, 0)"><text y="-10.1" text-anchor="middle"><tspan class="text-outer-tspan row" x="0" y="-0.1em" dy="1.1em" text-anchor="middle"></tspan></text></g></g><g><rect class="background" style="stroke: none"></rect></g><g class="edgeLabel"><g class="label" data-id="L_hub_vite_0" transform="translate(0, 0)"><text y="-10.1" text-anchor="middle"><tspan class="text-outer-tspan row" x="0" y="-0.1em" dy="1.1em" text-anchor="middle"></tspan></text></g></g><g><rect class="background" style="stroke: none"></rect></g><g class="edgeLabel"><g class="label" data-id="L_hub_progressive_0" transform="translate(0, 0)"><text y="-10.1" text-anchor="middle"><tspan class="text-outer-tspan row" x="0" y="-0.1em" dy="1.1em" text-anchor="middle"></tspan></text></g></g><g><rect class="background" style="stroke: none"></rect></g><g class="edgeLabel"><g class="label" data-id="L_hub_config_0" transform="translate(0, 0)"><text y="-10.1" text-anchor="middle"><tspan class="text-outer-tspan row" x="0" y="-0.1em" dy="1.1em" text-anchor="middle"></tspan></text></g></g><g><rect class="background" style="stroke: none"></rect></g><g class="edgeLabel"><g class="label" data-id="L_hub_parity_0" transform="translate(0, 0)"><text y="-10.1" text-anchor="middle"><tspan class="text-outer-tspan row" x="0" y="-0.1em" dy="1.1em" text-anchor="middle"></tspan></text></g></g><g><rect class="background" style="stroke: none"></rect></g></g><g class="nodes"><g class="node default hub" id="ge90f83a7-08d6-4971-8d10-2208d0a57dce-dark-flowchart-hub-0" data-look="classic" transform="translate(929.84375, 33.79999923706055)"><g class="basic label-container outer-path"><path d="M-71.57968807220459 -25.799999237060547 C-37.410224055989104 -25.799999237060547, -3.240760039773619 -25.799999237060547, 71.57968807220459 -25.799999237060547 C71.57968807220459 -25.799999237060547, 71.57968807220459 -25.799999237060547, 71.57968807220459 -25.799999237060547 C71.9991382853875 -25.78654828513408, 72.41858849857041 -25.773097333207616, 73.23269969882529 -25.746990371586765 C73.73782054469055 -25.69826197108284, 74.2429413905558 -25.649533570578917, 74.87891874610231 -25.58818159996402 C75.52969544465422 -25.48296907019082, 76.18047214320613 -25.37775654041762, 76.51158054685753 -25.32422550149928 C77.05876388734787 -25.199334474737356, 77.60594722783821 -25.074443447975433, 78.12397614354678 -24.956206728419545 C78.73540667969758 -24.77473735475437, 79.34683721584835 -24.593267981089195, 79.70947985680552 -24.48563754880318 C80.21336558242243 -24.30020294390757, 80.71725130803932 -24.114768339011963, 81.26157651178644 -23.914451632345997 C81.69145456570368 -23.724157369756234, 82.1213326196209 -23.533863107166468, 82.77388821041056 -23.24499610449772 C83.15515573240774 -23.0460890824853, 83.5364232544049 -22.847182060472882, 84.2402005395184 -22.480021901620034 C84.72732349319467 -22.184725104449246, 85.21444644687097 -21.889428307278457, 85.65448810722664 -21.62267246679901 C86.04845829568228 -21.347855918026937, 86.44242848413793 -21.073039369254865, 87.01093930255584 -20.67647083276321 C87.43957554853964 -20.334644833080684, 87.86821179452343 -19.992818833398157, 88.3039801765865 -19.64530514498651 C88.61784183497254 -19.360264291164736, 88.93170349335857 -19.07522343734296, 89.52829734701088 -18.533412684464313 C89.76834307162878 -18.285545765675824, 90.00838879624666 -18.03767884688734, 90.67885983196044 -17.345362455817106 C91.07643689539844 -16.878345814327044, 91.47401395883644 -16.411329172836982, 91.75093972338968 -16.086036412270357 C91.98888022628002 -15.767217815223047, 92.22682072917036 -15.448399218175737, 92.74013161506427 -14.76060939466161 C92.9298203983406 -14.469196484978799, 93.11950918161692 -14.177783575295988, 93.64237070532036 -13.374527866909407 C93.85781986372719 -12.99197606956509, 94.07326902213401 -12.609424272220773, 94.4539495002064 -11.93348753532484 C94.71644691064485 -11.38840604600459, 94.97894432108329 -10.84332455668434, 95.17153304837109 -10.443409943732584 C95.31692281600489 -10.084294406757152, 95.46231258363869 -9.725178869781722, 95.79217264509381 -8.910418140577123 C95.92184445728154 -8.51986730266526, 96.05151626946925 -8.129316464753396, 96.3133179491449 -7.340811518003323 C96.45881793933255 -6.785956995323195, 96.60431792952019 -6.231102472643067, 96.73282746268467 -5.741039926302914 C96.83642864262728 -5.209069763414774, 96.94002982256988 -4.677099600526633, 97.04897733113748 -4.117677170096137 C97.10217448336847 -3.70509056235849, 97.15537163559945 -3.292503954620843, 97.26046842687991 -2.4773939951584394 C97.30008901239933 -1.8602713945325478, 97.33970959791874 -1.2431487939066561, 97.36643168763487 -0.8269306768952902 C97.36643168763487 -0.2970269130792518, 97.36643168763487 0.23287685073678666, 97.36643168763487 0.826930676895284 C97.33382054768093 1.3348755049163754, 97.30120940772699 1.8428203329374668, 97.26046842687991 2.4773939951584216 C97.21175221845884 2.8552272875687703, 97.16303601003777 3.233060579979119, 97.04897733113748 4.117677170096119 C96.98151824583064 4.46406531566397, 96.91405916052382 4.8104534612318215, 96.73282746268467 5.741039926302909 C96.599937035355 6.247808720786447, 96.46704660802534 6.754577515269983, 96.3133179491449 7.340811518003306 C96.13143231224583 7.888622076802586, 95.94954667534675 8.436432635601868, 95.79217264509383 8.910418140577105 C95.66576020785037 9.222659304586644, 95.53934777060692 9.534900468596183, 95.17153304837109 10.443409943732577 C94.93601696024014 10.932464139973506, 94.70050087210919 11.421518336214433, 94.4539495002064 11.933487535324835 C94.27668670323678 12.248235581149011, 94.09942390626715 12.562983626973185, 93.64237070532037 13.374527866909402 C93.37756660626529 13.781338072914922, 93.1127625072102 14.188148278920442, 92.74013161506429 14.760609394661596 C92.37327328355882 15.252166137397374, 92.00641495205336 15.743722880133152, 91.75093972338968 16.086036412270353 C91.36967059659992 16.533896823425508, 90.98840146981016 16.981757234580662, 90.67885983196045 17.345362455817092 C90.25851061282196 17.779407535890297, 89.83816139368346 18.213452615963497, 89.52829734701088 18.533412684464306 C89.06448388663566 18.954635797345404, 88.60067042626042 19.375858910226498, 88.30398017658653 19.64530514498649 C88.03736131913492 19.857926588778387, 87.7707424616833 20.07054803257028, 87.01093930255584 20.676470832763208 C86.48062538174085 21.04639486700411, 85.95031146092587 21.416318901245017, 85.65448810722665 21.622672466799003 C85.31529306393752 21.82829449537221, 84.9760980206484 22.03391652394541, 84.24020053951841 22.48002190162003 C83.73594234131447 22.743093080630235, 83.23168414311053 23.00616425964044, 82.77388821041058 23.244996104497716 C82.3265279458955 23.44302922312779, 81.87916768138044 23.641062341757866, 81.26157651178644 23.914451632345994 C80.93811110299688 24.03348989286201, 80.61464569420734 24.15252815337803, 79.70947985680553 24.485637548803172 C79.1739944650829 24.64456680224627, 78.63850907336027 24.80349605568937, 78.12397614354681 24.95620672841954 C77.62519404461487 25.07005048764338, 77.12641194568295 25.18389424686721, 76.51158054685754 25.324225501499278 C76.15655455899757 25.38162334994882, 75.8015285711376 25.43902119839837, 74.87891874610233 25.588181599964017 C74.495328457302 25.625186093789768, 74.11173816850167 25.662190587615516, 73.23269969882529 25.746990371586765 C72.83868817837356 25.75962555415075, 72.44467665792185 25.77226073671474, 71.57968807220459 25.799999237060547 C71.57968807220459 25.799999237060547, 71.57968807220459 25.799999237060547, 71.57968807220459 25.799999237060547 C23.361323131937958 25.799999237060547, -24.857041808328674 25.799999237060547, -71.57968807220459 25.799999237060547 C-71.96798293625557 25.787547376540534, -72.35627780030653 25.775095516020524, -73.23269969882527 25.746990371586765 C-73.68107108747671 25.70373652296905, -74.12944247612815 25.660482674351336, -74.87891874610231 25.588181599964017 C-75.50914327543651 25.486291785525484, -76.13936780477071 25.384401971086948, -76.51158054685753 25.324225501499278 C-77.07564342579217 25.19548183023673, -77.63970630472679 25.06673815897418, -78.12397614354678 24.956206728419545 C-78.4569842738768 24.85737166333294, -78.78999240420683 24.758536598246337, -79.7094798568055 24.485637548803183 C-80.19801526963718 24.305852000909272, -80.68655068246888 24.126066453015362, -81.26157651178644 23.914451632345997 C-81.83927437263216 23.658721926147766, -82.41697223347789 23.40299221994954, -82.77388821041056 23.244996104497723 C-83.3493143085366 22.94479667768337, -83.92474040666265 22.64459725086902, -84.2402005395184 22.480021901620038 C-84.62845042925834 22.244662536850075, -85.01670031899828 22.009303172080116, -85.65448810722663 21.622672466799017 C-86.18910047281908 21.249750023558033, -86.72371283841153 20.87682758031705, -87.01093930255584 20.67647083276321 C-87.51172142325913 20.277110417874244, -88.01250354396241 19.877750002985277, -88.3039801765865 19.645305144986512 C-88.58900541675847 19.386452763216937, -88.87403065693043 19.12760038144736, -89.52829734701086 18.533412684464324 C-89.77531198126881 18.278349794314355, -90.02232661552677 18.023286904164383, -90.67885983196044 17.3453624558171 C-90.90269561754043 17.082432205457835, -91.12653140312042 16.819501955098566, -91.75093972338968 16.08603641227036 C-92.0102782513323 15.738546411053177, -92.26961677927493 15.391056409835995, -92.74013161506427 14.760609394661614 C-92.95283626022746 14.433837940496305, -93.16554090539063 14.107066486330995, -93.64237070532036 13.374527866909418 C-93.96493221578804 12.801787242179271, -94.28749372625572 12.229046617449127, -94.45394950020639 11.933487535324842 C-94.67674998268363 11.470837566294222, -94.89955046516087 11.008187597263603, -95.17153304837109 10.443409943732586 C-95.36812497019174 9.957824095989318, -95.5647168920124 9.472238248246052, -95.79217264509381 8.910418140577127 C-95.94828354653086 8.440236978343087, -96.1043944479679 7.9700558161090465, -96.3133179491449 7.340811518003316 C-96.4542259823864 6.803468117325556, -96.5951340156279 6.266124716647795, -96.73282746268467 5.741039926302918 C-96.81994877262849 5.293690412836754, -96.90707008257232 4.846340899370591, -97.04897733113748 4.117677170096139 C-97.11537464882842 3.6027126857185428, -97.18177196651938 3.087748201340946, -97.26046842687991 2.477393995158454 C-97.28789306889975 2.0502330589267914, -97.3153177109196 1.6230721226951288, -97.36643168763487 0.8269306768952934 C-97.36643168763487 0.26655891774796114, -97.36643168763487 -0.29381284139937114, -97.36643168763487 -0.8269306768952809 C-97.3367779991284 -1.2888108114101788, -97.30712431062192 -1.750690945925077, -97.26046842687991 -2.4773939951584185 C-97.19725781313025 -2.9676430330532764, -97.13404719938059 -3.4578920709481342, -97.04897733113748 -4.117677170096128 C-96.97453513254585 -4.499922126499871, -96.90009293395423 -4.882167082903614, -96.73282746268467 -5.741039926302906 C-96.63194710716817 -6.125740443709931, -96.5310667516517 -6.510440961116957, -96.3133179491449 -7.340811518003303 C-96.18594682342811 -7.724433054829361, -96.05857569771132 -8.108054591655419, -95.79217264509383 -8.910418140577093 C-95.60674005812221 -9.368440215492168, -95.4213074711506 -9.826462290407243, -95.17153304837109 -10.443409943732574 C-94.93796487228589 -10.928419258931875, -94.70439669620067 -11.413428574131178, -94.4539495002064 -11.933487535324831 C-94.14889615771361 -12.475140634921312, -93.84384281522081 -13.016793734517794, -93.64237070532036 -13.374527866909409 C-93.3004171407993 -13.89986036940288, -92.95846357627825 -14.425192871896353, -92.74013161506429 -14.760609394661605 C-92.48729366853364 -15.09938920900189, -92.23445572200299 -15.438169023342176, -91.75093972338968 -16.086036412270353 C-91.43581239905672 -16.456202898684584, -91.12068507472374 -16.826369385098815, -90.67885983196045 -17.345362455817092 C-90.2989194579453 -17.73768208567256, -89.91897908393017 -18.130001715528024, -89.52829734701089 -18.5334126844643 C-89.2339627583097 -18.800719570256252, -88.93962816960851 -19.068026456048205, -88.30398017658653 -19.645305144986487 C-87.98133806208979 -19.90260364543039, -87.65869594759306 -20.15990214587429, -87.01093930255585 -20.676470832763204 C-86.7285597245842 -20.873446602341318, -86.44618014661255 -21.070422371919427, -85.65448810722665 -21.622672466799 C-85.35641243082954 -21.803367693518044, -85.05833675443242 -21.98406292023709, -84.24020053951841 -22.480021901620027 C-83.68239346443082 -22.771029495400743, -83.12458638934322 -23.062037089181462, -82.77388821041058 -23.244996104497716 C-82.39953507200445 -23.410711134078806, -82.02518193359833 -23.5764261636599, -81.26157651178646 -23.91445163234599 C-80.87972325018492 -24.054977162428212, -80.49786998858339 -24.195502692510434, -79.70947985680553 -24.485637548803172 C-79.11190538322718 -24.662994515828807, -78.51433090964882 -24.84035148285444, -78.12397614354681 -24.956206728419538 C-77.7500642442089 -25.041549679440244, -77.37615234487097 -25.12689263046095, -76.51158054685754 -25.324225501499278 C-76.07914199485745 -25.394138812975594, -75.64670344285737 -25.46405212445191, -74.87891874610233 -25.588181599964017 C-74.42533770689101 -25.63193801730572, -73.9717566676797 -25.675694434647426, -73.23269969882529 -25.746990371586765 C-72.66806565261629 -25.76509708645519, -72.1034316064073 -25.783203801323612, -71.5796880722046 -25.799999237060547 C-71.5796880722046 -25.799999237060547, -71.57968807220459 -25.799999237060547, -71.57968807220459 -25.799999237060547" stroke="none" stroke-width="0" fill="#2E5A88" style="fill:#2E5A88 !important;stroke:#1F4870 !important"></path><path d="M-71.57968807220459 -25.799999237060547 C-41.78354275455524 -25.799999237060547, -11.987397436905887 -25.799999237060547, 71.57968807220459 -25.799999237060547 M-71.57968807220459 -25.799999237060547 C-39.47997871302308 -25.799999237060547, -7.38026935384157 -25.799999237060547, 71.57968807220459 -25.799999237060547 M71.57968807220459 -25.799999237060547 C71.57968807220459 -25.799999237060547, 71.57968807220459 -25.799999237060547, 71.57968807220459 -25.799999237060547 M71.57968807220459 -25.799999237060547 C71.57968807220459 -25.799999237060547, 71.57968807220459 -25.799999237060547, 71.57968807220459 -25.799999237060547 M71.57968807220459 -25.799999237060547 C72.07846824448603 -25.78400432775219, 72.57724841676747 -25.768009418443835, 73.23269969882529 -25.746990371586765 M71.57968807220459 -25.799999237060547 C72.14208658389452 -25.781964211432946, 72.70448509558447 -25.763929185805345, 73.23269969882529 -25.746990371586765 M73.23269969882529 -25.746990371586765 C73.87098706472398 -25.68541555705139, 74.50927443062265 -25.623840742516013, 74.87891874610231 -25.58818159996402 M73.23269969882529 -25.746990371586765 C73.57817330559028 -25.713662948234948, 73.92364691235527 -25.68033552488313, 74.87891874610231 -25.58818159996402 M74.87891874610231 -25.58818159996402 C75.51984677417333 -25.484561326856593, 76.16077480224433 -25.38094105374916, 76.51158054685753 -25.32422550149928 M74.87891874610231 -25.58818159996402 C75.42234189100968 -25.500325160204827, 75.96576503591706 -25.41246872044563, 76.51158054685753 -25.32422550149928 M76.51158054685753 -25.32422550149928 C76.89743703456118 -25.236156276129822, 77.28329352226481 -25.14808705076036, 78.12397614354678 -24.956206728419545 M76.51158054685753 -25.32422550149928 C76.94613894255691 -25.225040383439445, 77.3806973382563 -25.125855265379606, 78.12397614354678 -24.956206728419545 M78.12397614354678 -24.956206728419545 C78.54955070345046 -24.829898432926583, 78.97512526335416 -24.70359013743362, 79.70947985680552 -24.48563754880318 M78.12397614354678 -24.956206728419545 C78.50244275305384 -24.843879825329623, 78.8809093625609 -24.7315529222397, 79.70947985680552 -24.48563754880318 M79.70947985680552 -24.48563754880318 C80.26154234515455 -24.282473449881035, 80.81360483350358 -24.07930935095889, 81.26157651178644 -23.914451632345997 M79.70947985680552 -24.48563754880318 C80.14319166922897 -24.326027592643307, 80.57690348165241 -24.16641763648343, 81.26157651178644 -23.914451632345997 M81.26157651178644 -23.914451632345997 C81.57094080245608 -23.777505237832177, 81.8803050931257 -23.640558843318356, 82.77388821041056 -23.24499610449772 M81.26157651178644 -23.914451632345997 C81.69544469285101 -23.722391058831022, 82.1293128739156 -23.530330485316043, 82.77388821041056 -23.24499610449772 M82.77388821041056 -23.24499610449772 C83.1889410770907 -23.028463289804737, 83.60399394377085 -22.811930475111758, 84.2402005395184 -22.480021901620034 M82.77388821041056 -23.24499610449772 C83.2690389425743 -22.98667628468708, 83.76418967473803 -22.728356464876438, 84.2402005395184 -22.480021901620034 M84.2402005395184 -22.480021901620034 C84.66571647374784 -22.222071641680955, 85.09123240797727 -21.964121381741876, 85.65448810722664 -21.62267246679901 M84.2402005395184 -22.480021901620034 C84.57181033978583 -22.278998091942423, 84.90342014005326 -22.077974282264808, 85.65448810722664 -21.62267246679901 M85.65448810722664 -21.62267246679901 C86.11700721740813 -21.30003915766598, 86.57952632758963 -20.97740584853295, 87.01093930255584 -20.67647083276321 M85.65448810722664 -21.62267246679901 C86.10853180377391 -21.30595123932247, 86.56257550032117 -20.989230011845933, 87.01093930255584 -20.67647083276321 M87.01093930255584 -20.67647083276321 C87.51718528111769 -20.272753136631405, 88.02343125967953 -19.8690354404996, 88.3039801765865 -19.64530514498651 M87.01093930255584 -20.67647083276321 C87.41035762794117 -20.357945347236438, 87.8097759533265 -20.039419861709668, 88.3039801765865 -19.64530514498651 M88.3039801765865 -19.64530514498651 C88.78167803066175 -19.21147259310799, 89.25937588473698 -18.77764004122947, 89.52829734701088 -18.533412684464313 M88.3039801765865 -19.64530514498651 C88.6205057823178 -19.35784496466995, 88.93703138804909 -19.070384784353394, 89.52829734701088 -18.533412684464313 M89.52829734701088 -18.533412684464313 C89.95043845083819 -18.09751733633343, 90.3725795546655 -17.661621988202544, 90.67885983196044 -17.345362455817106 M89.52829734701088 -18.533412684464313 C89.8918525193446 -18.158012120595, 90.2554076916783 -17.782611556725687, 90.67885983196044 -17.345362455817106 M90.67885983196044 -17.345362455817106 C91.03893655711524 -16.922395845504195, 91.39901328227003 -16.499429235191283, 91.75093972338968 -16.086036412270357 M90.67885983196044 -17.345362455817106 C90.91427887071735 -17.06882585717044, 91.14969790947427 -16.79228925852378, 91.75093972338968 -16.086036412270357 M91.75093972338968 -16.086036412270357 C92.12044489551816 -15.590933144231865, 92.48995006764666 -15.095829876193374, 92.74013161506427 -14.76060939466161 M91.75093972338968 -16.086036412270357 C92.06568019985667 -15.664312847251853, 92.38042067632367 -15.242589282233348, 92.74013161506427 -14.76060939466161 M92.74013161506427 -14.76060939466161 C93.03308430702693 -14.31055539099452, 93.32603699898957 -13.860501387327428, 93.64237070532036 -13.374527866909407 M92.74013161506427 -14.76060939466161 C92.95481140743073 -14.430803583990778, 93.16949119979718 -14.100997773319946, 93.64237070532036 -13.374527866909407 M93.64237070532036 -13.374527866909407 C93.82780524242543 -13.045270068996336, 94.01323977953051 -12.716012271083265, 94.4539495002064 -11.93348753532484 M93.64237070532036 -13.374527866909407 C93.90054500557979 -12.916113253816045, 94.15871930583923 -12.45769864072268, 94.4539495002064 -11.93348753532484 M94.4539495002064 -11.93348753532484 C94.72458996614536 -11.371496817024287, 94.99523043208433 -10.809506098723732, 95.17153304837109 -10.443409943732584 M94.4539495002064 -11.93348753532484 C94.61979623855157 -11.589103234599367, 94.78564297689674 -11.244718933873893, 95.17153304837109 -10.443409943732584 M95.17153304837109 -10.443409943732584 C95.34230106553494 -10.021609639762861, 95.51306908269879 -9.59980933579314, 95.79217264509381 -8.910418140577123 M95.17153304837109 -10.443409943732584 C95.33471632283953 -10.040344100861558, 95.49789959730796 -9.63727825799053, 95.79217264509381 -8.910418140577123 M95.79217264509381 -8.910418140577123 C95.93845276653127 -8.469845721379752, 96.08473288796874 -8.02927330218238, 96.3133179491449 -7.340811518003323 M95.79217264509381 -8.910418140577123 C95.99259910964628 -8.306765562965579, 96.19302557419873 -7.703112985354032, 96.3133179491449 -7.340811518003323 M96.3133179491449 -7.340811518003323 C96.4797767190892 -6.706032084518433, 96.64623548903351 -6.071252651033542, 96.73282746268467 -5.741039926302914 M96.3133179491449 -7.340811518003323 C96.43667811470776 -6.870385742078165, 96.56003828027063 -6.399959966153006, 96.73282746268467 -5.741039926302914 M96.73282746268467 -5.741039926302914 C96.82208779042634 -5.282707008526404, 96.91134811816801 -4.8243740907498935, 97.04897733113748 -4.117677170096137 M96.73282746268467 -5.741039926302914 C96.80485679015823 -5.371184553129983, 96.87688611763177 -5.001329179957053, 97.04897733113748 -4.117677170096137 M97.04897733113748 -4.117677170096137 C97.10073316396297 -3.7162691510468226, 97.15248899678846 -3.314861131997509, 97.26046842687991 -2.4773939951584394 M97.04897733113748 -4.117677170096137 C97.12727931068933 -3.510382479166775, 97.20558129024117 -2.9030877882374133, 97.26046842687991 -2.4773939951584394 M97.26046842687991 -2.4773939951584394 C97.28951817542297 -2.024920713065377, 97.31856792396601 -1.5724474309723142, 97.36643168763487 -0.8269306768952902 M97.26046842687991 -2.4773939951584394 C97.30101746059484 -1.8458100644574933, 97.34156649430977 -1.214226133756547, 97.36643168763487 -0.8269306768952902 M97.36643168763487 -0.8269306768952902 C97.36643168763487 -0.37859220725536824, 97.36643168763487 0.06974626238455373, 97.36643168763487 0.826930676895284 M97.36643168763487 -0.8269306768952902 C97.36643168763487 -0.3616461847559905, 97.36643168763487 0.10363830738330926, 97.36643168763487 0.826930676895284 M97.36643168763487 0.826930676895284 C97.33567990344868 1.3059145379887676, 97.30492811926247 1.784898399082251, 97.26046842687991 2.4773939951584216 M97.36643168763487 0.826930676895284 C97.33857779190014 1.2607775862238455, 97.31072389616538 1.6946244955524072, 97.26046842687991 2.4773939951584216 M97.26046842687991 2.4773939951584216 C97.19527793235468 2.982998597376845, 97.13008743782946 3.4886031995952687, 97.04897733113748 4.117677170096119 M97.26046842687991 2.4773939951584216 C97.17629688677955 3.130211838626159, 97.09212534667921 3.783029682093896, 97.04897733113748 4.117677170096119 M97.04897733113748 4.117677170096119 C96.94337177663216 4.659939372739096, 96.83776622212683 5.202201575382072, 96.73282746268467 5.741039926302909 M97.04897733113748 4.117677170096119 C96.95802222045602 4.5847124400759665, 96.86706710977455 5.051747710055815, 96.73282746268467 5.741039926302909 M96.73282746268467 5.741039926302909 C96.58828466805176 6.29224424748167, 96.44374187341884 6.843448568660432, 96.3133179491449 7.340811518003306 M96.73282746268467 5.741039926302909 C96.61577301461998 6.187419268492289, 96.49871856655528 6.633798610681668, 96.3133179491449 7.340811518003306 M96.3133179491449 7.340811518003306 C96.1233481699066 7.912970225495173, 95.9333783906683 8.485128932987042, 95.79217264509383 8.910418140577105 M96.3133179491449 7.340811518003306 C96.16005119285772 7.8024265681989675, 96.00678443657053 8.26404161839463, 95.79217264509383 8.910418140577105 M95.79217264509383 8.910418140577105 C95.62859575844038 9.314456213155086, 95.46501887178692 9.718494285733067, 95.17153304837109 10.443409943732577 M95.79217264509383 8.910418140577105 C95.61771229439319 9.34133857976911, 95.44325194369254 9.772259018961112, 95.17153304837109 10.443409943732577 M95.17153304837109 10.443409943732577 C94.98142678285737 10.838169671694278, 94.79132051734365 11.232929399655978, 94.4539495002064 11.933487535324835 M95.17153304837109 10.443409943732577 C94.95958832338367 10.883517700059599, 94.74764359839624 11.323625456386619, 94.4539495002064 11.933487535324835 M94.4539495002064 11.933487535324835 C94.21624075286022 12.355563486858795, 93.97853200551403 12.777639438392757, 93.64237070532037 13.374527866909402 M94.4539495002064 11.933487535324835 C94.27135499619989 12.257702566886895, 94.08876049219337 12.581917598448955, 93.64237070532037 13.374527866909402 M93.64237070532037 13.374527866909402 C93.40267328503809 13.74276747223267, 93.16297586475581 14.11100707755594, 92.74013161506429 14.760609394661596 M93.64237070532037 13.374527866909402 C93.3457134646825 13.830273052152243, 93.04905622404463 14.286018237395083, 92.74013161506429 14.760609394661596 M92.74013161506429 14.760609394661596 C92.53477664023858 15.035766352704975, 92.32942166541287 15.310923310748354, 91.75093972338968 16.086036412270353 M92.74013161506429 14.760609394661596 C92.46569853140065 15.128324725402615, 92.19126544773702 15.496040056143634, 91.75093972338968 16.086036412270353 M91.75093972338968 16.086036412270353 C91.32727614132868 16.58369576289995, 90.90361255926769 17.081355113529547, 90.67885983196045 17.345362455817092 M91.75093972338968 16.086036412270353 C91.47835712622467 16.406227441289552, 91.20577452905965 16.726418470308747, 90.67885983196045 17.345362455817092 M90.67885983196045 17.345362455817092 C90.3129776214071 17.72316587770157, 89.94709541085375 18.10096929958605, 89.52829734701088 18.533412684464306 M90.67885983196045 17.345362455817092 C90.31988726753623 17.716031100780746, 89.96091470311201 18.086699745744397, 89.52829734701088 18.533412684464306 M89.52829734701088 18.533412684464306 C89.05374437811915 18.964389134828266, 88.57919140922742 19.395365585192224, 88.30398017658653 19.64530514498649 M89.52829734701088 18.533412684464306 C89.25673746938362 18.780036180244746, 88.98517759175637 19.026659676025186, 88.30398017658653 19.64530514498649 M88.30398017658653 19.64530514498649 C88.01708436103704 19.874096923268933, 87.73018854548754 20.10288870155137, 87.01093930255584 20.676470832763208 M88.30398017658653 19.64530514498649 C88.00343729409762 19.884980095989402, 87.70289441160872 20.124655046992316, 87.01093930255584 20.676470832763208 M87.01093930255584 20.676470832763208 C86.65996774140164 20.92129340051037, 86.30899618024745 21.16611596825753, 85.65448810722665 21.622672466799003 M87.01093930255584 20.676470832763208 C86.7390828777918 20.86610610620365, 86.46722645302776 21.055741379644086, 85.65448810722665 21.622672466799003 M85.65448810722665 21.622672466799003 C85.31277652544337 21.829820035796185, 84.97106494366008 22.036967604793368, 84.24020053951841 22.48002190162003 M85.65448810722665 21.622672466799003 C85.25196913144961 21.866681835379115, 84.84945015567256 22.110691203959227, 84.24020053951841 22.48002190162003 M84.24020053951841 22.48002190162003 C83.80905751194393 22.70494894294535, 83.37791448436944 22.92987598427067, 82.77388821041058 23.244996104497716 M84.24020053951841 22.48002190162003 C83.70947570105967 22.756900709898467, 83.17875086260095 23.033779518176907, 82.77388821041058 23.244996104497716 M82.77388821041058 23.244996104497716 C82.25291805926236 23.475614136380578, 81.73194790811415 23.70623216826344, 81.26157651178644 23.914451632345994 M82.77388821041058 23.244996104497716 C82.4631338245176 23.3825578529312, 82.15237943862462 23.520119601364687, 81.26157651178644 23.914451632345994 M81.26157651178644 23.914451632345994 C80.76976074836105 24.09544437958162, 80.27794498493564 24.27643712681725, 79.70947985680553 24.485637548803172 M81.26157651178644 23.914451632345994 C80.66278515454702 24.13481238697673, 80.0639937973076 24.355173141607466, 79.70947985680553 24.485637548803172 M79.70947985680553 24.485637548803172 C79.3011107737166 24.606839349090908, 78.89274169062767 24.728041149378644, 78.12397614354681 24.95620672841954 M79.70947985680553 24.485637548803172 C79.14000313355994 24.654655251018145, 78.57052641031434 24.823672953233118, 78.12397614354681 24.95620672841954 M78.12397614354681 24.95620672841954 C77.56749458505995 25.083220012762627, 77.0110130265731 25.210233297105713, 76.51158054685754 25.324225501499278 M78.12397614354681 24.95620672841954 C77.50222461673705 25.09811745710598, 76.88047308992729 25.240028185792422, 76.51158054685754 25.324225501499278 M76.51158054685754 25.324225501499278 C76.05779730460236 25.397589656965494, 75.60401406234719 25.47095381243171, 74.87891874610233 25.588181599964017 M76.51158054685754 25.324225501499278 C76.12058731282589 25.3874382553797, 75.72959407879424 25.450651009260124, 74.87891874610233 25.588181599964017 M74.87891874610233 25.588181599964017 C74.53321298905419 25.62153141857445, 74.18750723200606 25.65488123718488, 73.23269969882529 25.746990371586765 M74.87891874610233 25.588181599964017 C74.32761160698702 25.64136553663063, 73.7763044678717 25.694549473297243, 73.23269969882529 25.746990371586765 M73.23269969882529 25.746990371586765 C72.65623847016838 25.76547636117608, 72.07977724151145 25.783962350765393, 71.57968807220459 25.799999237060547 M73.23269969882529 25.746990371586765 C72.63203025490981 25.766252671520988, 72.03136081099433 25.785514971455214, 71.57968807220459 25.799999237060547 M71.57968807220459 25.799999237060547 C71.57968807220459 25.799999237060547, 71.57968807220459 25.799999237060547, 71.57968807220459 25.799999237060547 M71.57968807220459 25.799999237060547 C71.57968807220459 25.799999237060547, 71.57968807220459 25.799999237060547, 71.57968807220459 25.799999237060547 M71.57968807220459 25.799999237060547 C15.294775538101796 25.799999237060547, -40.990136996001 25.799999237060547, -71.57968807220459 25.799999237060547 M71.57968807220459 25.799999237060547 C30.34640309045485 25.799999237060547, -10.886881891294891 25.799999237060547, -71.57968807220459 25.799999237060547 M-71.57968807220459 25.799999237060547 C-72.18321307062271 25.780645365051424, -72.78673806904082 25.7612914930423, -73.23269969882527 25.746990371586765 M-71.57968807220459 25.799999237060547 C-72.21273906765128 25.779698523795584, -72.845790063098 25.75939781053062, -73.23269969882527 25.746990371586765 M-73.23269969882527 25.746990371586765 C-73.68504147441651 25.703353504516055, -74.13738325000774 25.65971663744535, -74.87891874610231 25.588181599964017 M-73.23269969882527 25.746990371586765 C-73.84013267452987 25.688392042965578, -74.44756565023448 25.62979371434439, -74.87891874610231 25.588181599964017 M-74.87891874610231 25.588181599964017 C-75.30601851042833 25.51913142227593, -75.73311827475433 25.45008124458784, -76.51158054685753 25.324225501499278 M-74.87891874610231 25.588181599964017 C-75.35231766292766 25.511646134355125, -75.82571657975302 25.435110668746233, -76.51158054685753 25.324225501499278 M-76.51158054685753 25.324225501499278 C-76.98719764713256 25.215669002053136, -77.46281474740759 25.107112502606995, -78.12397614354678 24.956206728419545 M-76.51158054685753 25.324225501499278 C-76.89059097320897 25.237718844958735, -77.26960139956041 25.15121218841819, -78.12397614354678 24.956206728419545 M-78.12397614354678 24.956206728419545 C-78.47609225001632 24.851700516314548, -78.82820835648586 24.747194304209547, -79.7094798568055 24.485637548803183 M-78.12397614354678 24.956206728419545 C-78.50833346299653 24.842131493539604, -78.89269078244627 24.72805625865966, -79.7094798568055 24.485637548803183 M-79.7094798568055 24.485637548803183 C-80.30019383806346 24.26824934320007, -80.89090781932143 24.050861137596957, -81.26157651178644 23.914451632345997 M-79.7094798568055 24.485637548803183 C-80.13063119577879 24.33064996298071, -80.55178253475208 24.17566237715824, -81.26157651178644 23.914451632345997 M-81.26157651178644 23.914451632345997 C-81.6555280498972 23.74006097258153, -82.04947958800797 23.565670312817065, -82.77388821041056 23.244996104497723 M-81.26157651178644 23.914451632345997 C-81.60142368108913 23.76401137170379, -81.94127085039182 23.613571111061585, -82.77388821041056 23.244996104497723 M-82.77388821041056 23.244996104497723 C-83.22947964905802 23.007314342775587, -83.68507108770548 22.76963258105345, -84.2402005395184 22.480021901620038 M-82.77388821041056 23.244996104497723 C-83.11882949871222 23.06504045533619, -83.46377078701386 22.885084806174664, -84.2402005395184 22.480021901620038 M-84.2402005395184 22.480021901620038 C-84.55020466884879 22.292095576633475, -84.86020879817919 22.10416925164691, -85.65448810722663 21.622672466799017 M-84.2402005395184 22.480021901620038 C-84.78683269799481 22.1486502747845, -85.33346485647122 21.817278647948967, -85.65448810722663 21.622672466799017 M-85.65448810722663 21.622672466799017 C-86.00600880436097 21.377466845563816, -86.35752950149532 21.13226122432862, -87.01093930255584 20.67647083276321 M-85.65448810722663 21.622672466799017 C-86.04313922088444 21.351566274346872, -86.43179033454226 21.080460081894728, -87.01093930255584 20.67647083276321 M-87.01093930255584 20.67647083276321 C-87.43601643146287 20.337483134237313, -87.86109356036992 19.998495435711416, -88.3039801765865 19.645305144986512 M-87.01093930255584 20.67647083276321 C-87.43630904926862 20.33724977932412, -87.8616787959814 19.99802872588503, -88.3039801765865 19.645305144986512 M-88.3039801765865 19.645305144986512 C-88.61284570360522 19.36480164548215, -88.92171123062391 19.08429814597779, -89.52829734701086 18.533412684464324 M-88.3039801765865 19.645305144986512 C-88.72860372782871 19.259673270671847, -89.15322727907093 18.874041396357182, -89.52829734701086 18.533412684464324 M-89.52829734701086 18.533412684464324 C-89.87299638803586 18.177482624288437, -90.21769542906084 17.821552564112555, -90.67885983196044 17.3453624558171 M-89.52829734701086 18.533412684464324 C-89.86405286244069 18.18671754874255, -90.19980837787053 17.840022413020776, -90.67885983196044 17.3453624558171 M-90.67885983196044 17.3453624558171 C-90.97278284166619 17.000103763923686, -91.26670585137194 16.65484507203027, -91.75093972338968 16.08603641227036 M-90.67885983196044 17.3453624558171 C-90.98398534483255 16.986944666263998, -91.28911085770464 16.6285268767109, -91.75093972338968 16.08603641227036 M-91.75093972338968 16.08603641227036 C-92.08311269160023 15.640954896448152, -92.41528565981079 15.195873380625944, -92.74013161506427 14.760609394661614 M-91.75093972338968 16.08603641227036 C-92.0809073868363 15.643909803924418, -92.41087505028294 15.201783195578477, -92.74013161506427 14.760609394661614 M-92.74013161506427 14.760609394661614 C-92.92582245585564 14.475338398233568, -93.111513296647 14.190067401805521, -93.64237070532036 13.374527866909418 M-92.74013161506427 14.760609394661614 C-92.93579419935392 14.460019122432143, -93.13145678364359 14.159428850202673, -93.64237070532036 13.374527866909418 M-93.64237070532036 13.374527866909418 C-93.81555279879954 13.067025523348555, -93.98873489227873 12.759523179787692, -94.45394950020639 11.933487535324842 M-93.64237070532036 13.374527866909418 C-93.81853686710521 13.061727007902158, -93.99470302889007 12.748926148894899, -94.45394950020639 11.933487535324842 M-94.45394950020639 11.933487535324842 C-94.64976546458497 11.526871495502279, -94.84558142896356 11.120255455679716, -95.17153304837109 10.443409943732586 M-94.45394950020639 11.933487535324842 C-94.69583913992314 11.43119852284386, -94.93772877963988 10.928909510362882, -95.17153304837109 10.443409943732586 M-95.17153304837109 10.443409943732586 C-95.36907999521047 9.955465165728931, -95.56662694204984 9.467520387725276, -95.79217264509381 8.910418140577127 M-95.17153304837109 10.443409943732586 C-95.33559229662391 10.038180428678304, -95.49965154487676 9.63295091362402, -95.79217264509381 8.910418140577127 M-95.79217264509381 8.910418140577127 C-95.97734016056425 8.352723086417248, -96.16250767603469 7.795028032257369, -96.3133179491449 7.340811518003316 M-95.79217264509381 8.910418140577127 C-95.91179774857413 8.550126388566317, -96.03142285205443 8.189834636555508, -96.3133179491449 7.340811518003316 M-96.3133179491449 7.340811518003316 C-96.42499159181887 6.914951518824604, -96.53666523449283 6.489091519645892, -96.73282746268467 5.741039926302918 M-96.3133179491449 7.340811518003316 C-96.44555479048188 6.836535130175841, -96.57779163181887 6.332258742348367, -96.73282746268467 5.741039926302918 M-96.73282746268467 5.741039926302918 C-96.84159417071338 5.182545868427385, -96.95036087874209 4.624051810551853, -97.04897733113748 4.117677170096139 M-96.73282746268467 5.741039926302918 C-96.82930561224833 5.245645018957659, -96.92578376181199 4.7502501116124005, -97.04897733113748 4.117677170096139 M-97.04897733113748 4.117677170096139 C-97.1066856838368 3.67010258236341, -97.16439403653612 3.2225279946306804, -97.26046842687991 2.477393995158454 M-97.04897733113748 4.117677170096139 C-97.1199026518651 3.567594388321384, -97.19082797259273 3.0175116065466288, -97.26046842687991 2.477393995158454 M-97.26046842687991 2.477393995158454 C-97.29162942146594 1.9920363517788051, -97.32279041605199 1.5066787083991562, -97.36643168763487 0.8269306768952934 M-97.26046842687991 2.477393995158454 C-97.30199700546889 1.8305528623696903, -97.34352558405789 1.1837117295809263, -97.36643168763487 0.8269306768952934 M-97.36643168763487 0.8269306768952934 C-97.36643168763487 0.42483660714003313, -97.36643168763487 0.022742537384772832, -97.36643168763487 -0.8269306768952809 M-97.36643168763487 0.8269306768952934 C-97.36643168763487 0.4015140721794746, -97.36643168763487 -0.023902532536344223, -97.36643168763487 -0.8269306768952809 M-97.36643168763487 -0.8269306768952809 C-97.32805038206007 -1.4247504920551743, -97.28966907648525 -2.0225703072150676, -97.26046842687991 -2.4773939951584185 M-97.36643168763487 -0.8269306768952809 C-97.3332028944301 -1.3444959528587879, -97.29997410122532 -1.8620612288222949, -97.26046842687991 -2.4773939951584185 M-97.26046842687991 -2.4773939951584185 C-97.18511085987353 -3.0618524038251396, -97.10975329286715 -3.646310812491861, -97.04897733113748 -4.117677170096128 M-97.26046842687991 -2.4773939951584185 C-97.20421288195107 -2.91370089271275, -97.1479573370222 -3.3500077902670813, -97.04897733113748 -4.117677170096128 M-97.04897733113748 -4.117677170096128 C-96.94648781315112 -4.643939183788766, -96.84399829516477 -5.170201197481404, -96.73282746268467 -5.741039926302906 M-97.04897733113748 -4.117677170096128 C-96.95801578636308 -4.584745477783339, -96.86705424158869 -5.051813785470549, -96.73282746268467 -5.741039926302906 M-96.73282746268467 -5.741039926302906 C-96.62878671666053 -6.137792382437493, -96.5247459706364 -6.534544838572081, -96.3133179491449 -7.340811518003303 M-96.73282746268467 -5.741039926302906 C-96.58483963090467 -6.305381667212082, -96.43685179912465 -6.869723408121256, -96.3133179491449 -7.340811518003303 M-96.3133179491449 -7.340811518003303 C-96.12621571625736 -7.904333632768124, -95.93911348336984 -8.467855747532946, -95.79217264509383 -8.910418140577093 M-96.3133179491449 -7.340811518003303 C-96.1894579856002 -7.713857993794747, -96.0655980220555 -8.086904469586191, -95.79217264509383 -8.910418140577093 M-95.79217264509383 -8.910418140577093 C-95.56710132126014 -9.46634866190433, -95.34202999742645 -10.022279183231566, -95.17153304837109 -10.443409943732574 M-95.79217264509383 -8.910418140577093 C-95.6016335077389 -9.3810534936674, -95.41109437038396 -9.851688846757707, -95.17153304837109 -10.443409943732574 M-95.17153304837109 -10.443409943732574 C-95.02048200968434 -10.757070657540075, -94.8694309709976 -11.070731371347575, -94.4539495002064 -11.933487535324831 M-95.17153304837109 -10.443409943732574 C-94.99487530691104 -10.810243523744507, -94.818217565451 -11.177077103756442, -94.4539495002064 -11.933487535324831 M-94.4539495002064 -11.933487535324831 C-94.17685759785155 -12.42549226655355, -93.89976569549671 -12.917496997782266, -93.64237070532036 -13.374527866909409 M-94.4539495002064 -11.933487535324831 C-94.27086561437585 -12.258571513870749, -94.0877817285453 -12.583655492416668, -93.64237070532036 -13.374527866909409 M-93.64237070532036 -13.374527866909409 C-93.31932171216538 -13.870817871196396, -92.99627271901039 -14.36710787548338, -92.74013161506429 -14.760609394661605 M-93.64237070532036 -13.374527866909409 C-93.43173869887931 -13.6981151914161, -93.22110669243827 -14.021702515922794, -92.74013161506429 -14.760609394661605 M-92.74013161506429 -14.760609394661605 C-92.42940717131751 -15.176951841703112, -92.11868272757074 -15.593294288744616, -91.75093972338968 -16.086036412270353 M-92.74013161506429 -14.760609394661605 C-92.41538723522103 -15.195737278829945, -92.09064285537777 -15.630865162998285, -91.75093972338968 -16.086036412270353 M-91.75093972338968 -16.086036412270353 C-91.35035824143964 -16.556582214700907, -90.94977675948961 -17.027128017131464, -90.67885983196045 -17.345362455817092 M-91.75093972338968 -16.086036412270353 C-91.3250070777385 -16.58636113410634, -90.89907443208733 -17.086685855942328, -90.67885983196045 -17.345362455817092 M-90.67885983196045 -17.345362455817092 C-90.22084419521669 -17.818301204538148, -89.7628285584729 -18.291239953259204, -89.52829734701089 -18.5334126844643 M-90.67885983196045 -17.345362455817092 C-90.44701129146235 -17.584765109000564, -90.21516275096424 -17.824167762184032, -89.52829734701089 -18.5334126844643 M-89.52829734701089 -18.5334126844643 C-89.08087512543743 -18.93974970795404, -88.63345290386397 -19.346086731443783, -88.30398017658653 -19.645305144986487 M-89.52829734701089 -18.5334126844643 C-89.04776998093254 -18.96981492427926, -88.5672426148542 -19.406217164094222, -88.30398017658653 -19.645305144986487 M-88.30398017658653 -19.645305144986487 C-88.00922689670556 -19.880363041977375, -87.71447361682458 -20.115420938968263, -87.01093930255585 -20.676470832763204 M-88.30398017658653 -19.645305144986487 C-87.83233881491866 -20.021426580012886, -87.36069745325078 -20.397548015039284, -87.01093930255585 -20.676470832763204 M-87.01093930255585 -20.676470832763204 C-86.53059610966193 -21.011537450404322, -86.050252916768 -21.34660406804544, -85.65448810722665 -21.622672466799 M-87.01093930255585 -20.676470832763204 C-86.68854812073445 -20.901356965112484, -86.36615693891305 -21.126243097461764, -85.65448810722665 -21.622672466799 M-85.65448810722665 -21.622672466799 C-85.21278286465939 -21.89043678059141, -84.77107762209211 -22.15820109438382, -84.24020053951841 -22.480021901620027 M-85.65448810722665 -21.622672466799 C-85.24067773958065 -21.873526743485662, -84.82686737193463 -22.124381020172322, -84.24020053951841 -22.480021901620027 M-84.24020053951841 -22.480021901620027 C-83.70424901921784 -22.759627466467506, -83.16829749891725 -23.039233031314986, -82.77388821041058 -23.244996104497716 M-84.24020053951841 -22.480021901620027 C-83.78526384011312 -22.71736208629891, -83.33032714070781 -22.954702270977794, -82.77388821041058 -23.244996104497716 M-82.77388821041058 -23.244996104497716 C-82.37942949863097 -23.419611275000605, -81.98497078685136 -23.594226445503498, -81.26157651178646 -23.91445163234599 M-82.77388821041058 -23.244996104497716 C-82.32251325228992 -23.444806408895328, -81.87113829416926 -23.644616713292944, -81.26157651178646 -23.91445163234599 M-81.26157651178646 -23.91445163234599 C-80.87802975328144 -24.055600384943205, -80.49448299477643 -24.19674913754042, -79.70947985680553 -24.485637548803172 M-81.26157651178646 -23.91445163234599 C-80.68026969689589 -24.128377913767007, -80.09896288200534 -24.342304195188028, -79.70947985680553 -24.485637548803172 M-79.70947985680553 -24.485637548803172 C-79.2673549790545 -24.616857891758837, -78.82523010130346 -24.7480782347145, -78.12397614354681 -24.956206728419538 M-79.70947985680553 -24.485637548803172 C-79.34714233311367 -24.593177423886445, -78.98480480942179 -24.700717298969717, -78.12397614354681 -24.956206728419538 M-78.12397614354681 -24.956206728419538 C-77.79550536869345 -25.031178039307694, -77.46703459384008 -25.106149350195853, -76.51158054685754 -25.324225501499278 M-78.12397614354681 -24.956206728419538 C-77.64500988648348 -25.065527651047322, -77.16604362942013 -25.174848573675103, -76.51158054685754 -25.324225501499278 M-76.51158054685754 -25.324225501499278 C-76.15475035055067 -25.381915040378672, -75.7979201542438 -25.439604579258067, -74.87891874610233 -25.588181599964017 M-76.51158054685754 -25.324225501499278 C-76.04441640556588 -25.399752976951287, -75.57725226427424 -25.4752804524033, -74.87891874610233 -25.588181599964017 M-74.87891874610233 -25.588181599964017 C-74.51578222369905 -25.623212943544697, -74.15264570129577 -25.658244287125378, -73.23269969882529 -25.746990371586765 M-74.87891874610233 -25.588181599964017 C-74.25465464064716 -25.648403607429845, -73.63039053519199 -25.708625614895677, -73.23269969882529 -25.746990371586765 M-73.23269969882529 -25.746990371586765 C-72.60900821517296 -25.766990943525666, -71.98531673152065 -25.78699151546457, -71.5796880722046 -25.799999237060547 M-73.23269969882529 -25.746990371586765 C-72.85565361068114 -25.75908150575786, -72.47860752253699 -25.771172639928952, -71.5796880722046 -25.799999237060547 M-71.5796880722046 -25.799999237060547 C-71.5796880722046 -25.799999237060547, -71.57968807220459 -25.799999237060547, -71.57968807220459 -25.799999237060547 M-71.5796880722046 -25.799999237060547 C-71.5796880722046 -25.799999237060547, -71.5796880722046 -25.799999237060547, -71.57968807220459 -25.799999237060547" stroke="#1F4870" stroke-width="1.3" fill="none" stroke-dasharray="0 0" style="fill:#2E5A88 !important;stroke:#1F4870 !important"></path></g><g class="label" style="color:#ffffff !important" transform="translate(0, -18.299999237060547)"><rect></rect><g><rect class="background" style="stroke: none"></rect><text y="-10.1" style="fill:#404040 !important"><tspan class="text-outer-tspan row" x="0" y="-0.1em" dy="1.1em"><tspan font-style="normal" class="text-inner-tspan" font-weight="normal">Pagesmith</tspan></tspan><tspan class="text-outer-tspan row" x="0" y="1em" dy="1.1em"><tspan font-style="normal" class="text-inner-tspan" font-weight="normal">seven</tspan><tspan font-style="normal" class="text-inner-tspan" font-weight="normal"> locked</tspan><tspan font-style="normal" class="text-inner-tspan" font-weight="normal"> principles</tspan></tspan></text></g></g></g><g class="node default tenet" id="ge90f83a7-08d6-4971-8d10-2208d0a57dce-dark-flowchart-filesystem-2" data-look="classic" transform="translate(132.3828125, 160.5)"><rect class="basic label-container" style="fill:#1F6E68 !important;stroke:#155752 !important" x="-124.3828125" y="-50.900001525878906" width="248.765625" height="101.80000305175781"></rect><g class="label" style="color:#ffffff !important" transform="translate(0, -35.900001525878906)"><rect></rect><g><rect class="background" style="stroke: none"></rect><text y="-10.1" style="fill:#404040 !important"><tspan class="text-outer-tspan row" x="0" y="-0.1em" dy="1.1em"><tspan font-style="normal" class="text-inner-tspan" font-weight="normal">1.</tspan><tspan font-style="normal" class="text-inner-tspan" font-weight="normal"> Filesystem-first</tspan></tspan><tspan class="text-outer-tspan row" x="0" y="1em" dy="1.1em"><tspan font-style="normal" class="text-inner-tspan" font-weight="normal">source</tspan><tspan font-style="normal" class="text-inner-tspan" font-weight="normal"> of</tspan><tspan font-style="normal" class="text-inner-tspan" font-weight="normal"> truth</tspan></tspan><tspan class="text-outer-tspan row" x="0" y="2.1em" dy="1.1em"><tspan font-style="normal" class="text-inner-tspan" font-weight="normal">collections,</tspan><tspan font-style="normal" class="text-inner-tspan" font-weight="normal"> assets,</tspan><tspan font-style="normal" class="text-inner-tspan" font-weight="normal"> nav</tspan><tspan font-style="normal" class="text-inner-tspan" font-weight="normal"> on</tspan></tspan><tspan class="text-outer-tspan row" x="0" y="3.2em" dy="1.1em"><tspan font-style="normal" class="text-inner-tspan" font-weight="normal">disk</tspan></tspan></text></g></g></g><g class="node default tenet" id="ge90f83a7-08d6-4971-8d10-2208d0a57dce-dark-flowchart-boundaries-4" data-look="classic" transform="translate(399.5390625, 160.5)"><rect class="basic label-container" style="fill:#1F6E68 !important;stroke:#155752 !important" x="-92.7734375" y="-42.099998474121094" width="185.546875" height="84.19999694824219"></rect><g class="label" style="color:#ffffff !important" transform="translate(0, -27.099998474121094)"><rect></rect><g><rect class="background" style="stroke: none"></rect><text y="-10.1" style="fill:#404040 !important"><tspan class="text-outer-tspan row" x="0" y="-0.1em" dy="1.1em"><tspan font-style="normal" class="text-inner-tspan" font-weight="normal">2.</tspan><tspan font-style="normal" class="text-inner-tspan" font-weight="normal"> Strict</tspan><tspan font-style="normal" class="text-inner-tspan" font-weight="normal"> package</tspan></tspan><tspan class="text-outer-tspan row" x="0" y="1em" dy="1.1em"><tspan font-style="normal" class="text-inner-tspan" font-weight="normal">boundaries</tspan></tspan><tspan class="text-outer-tspan row" x="0" y="2.1em" dy="1.1em"><tspan font-style="normal" class="text-inner-tspan" font-weight="normal">core</tspan><tspan font-style="normal" class="text-inner-tspan" font-weight="normal"> /</tspan><tspan font-style="normal" class="text-inner-tspan" font-weight="normal"> site</tspan><tspan font-style="normal" class="text-inner-tspan" font-weight="normal"> /</tspan><tspan font-style="normal" class="text-inner-tspan" font-weight="normal"> docs</tspan></tspan></text></g></g></g><g class="node default tenet" id="ge90f83a7-08d6-4971-8d10-2208d0a57dce-dark-flowchart-validation-6" data-look="classic" transform="translate(659.84375, 160.5)"><rect class="basic label-container" style="fill:#1F6E68 !important;stroke:#155752 !important" x="-117.53125" y="-42.099998474121094" width="235.0625" height="84.19999694824219"></rect><g class="label" style="color:#ffffff !important" transform="translate(0, -27.099998474121094)"><rect></rect><g><rect class="background" style="stroke: none"></rect><text y="-10.1" style="fill:#404040 !important"><tspan class="text-outer-tspan row" x="0" y="-0.1em" dy="1.1em"><tspan font-style="normal" class="text-inner-tspan" font-weight="normal">3.</tspan><tspan font-style="normal" class="text-inner-tspan" font-weight="normal"> Validation</tspan><tspan font-style="normal" class="text-inner-tspan" font-weight="normal"> before</tspan></tspan><tspan class="text-outer-tspan row" x="0" y="1em" dy="1.1em"><tspan font-style="normal" class="text-inner-tspan" font-weight="normal">render</tspan><tspan font-style="normal" class="text-inner-tspan" font-weight="normal"> or</tspan><tspan font-style="normal" class="text-inner-tspan" font-weight="normal"> runtime</tspan></tspan><tspan class="text-outer-tspan row" x="0" y="2.1em" dy="1.1em"><tspan font-style="normal" class="text-inner-tspan" font-weight="normal">Zod</tspan><tspan font-style="normal" class="text-inner-tspan" font-weight="normal"> +</tspan><tspan font-style="normal" class="text-inner-tspan" font-weight="normal"> content</tspan><tspan font-style="normal" class="text-inner-tspan" font-weight="normal"> validators</tspan></tspan></text></g></g></g><g class="node default tenet" id="ge90f83a7-08d6-4971-8d10-2208d0a57dce-dark-flowchart-vite-8" data-look="classic" transform="translate(929.84375, 160.5)"><rect class="basic label-container" style="fill:#1F6E68 !important;stroke:#155752 !important" x="-102.46875" y="-42.099998474121094" width="204.9375" height="84.19999694824219"></rect><g class="label" style="color:#ffffff !important" transform="translate(0, -27.099998474121094)"><rect></rect><g><rect class="background" style="stroke: none"></rect><text y="-10.1" style="fill:#404040 !important"><tspan class="text-outer-tspan row" x="0" y="-0.1em" dy="1.1em"><tspan font-style="normal" class="text-inner-tspan" font-weight="normal">4.</tspan><tspan font-style="normal" class="text-inner-tspan" font-weight="normal"> Vite-native</tspan></tspan><tspan class="text-outer-tspan row" x="0" y="1em" dy="1.1em"><tspan font-style="normal" class="text-inner-tspan" font-weight="normal">execution</tspan></tspan><tspan class="text-outer-tspan row" x="0" y="2.1em" dy="1.1em"><tspan font-style="normal" class="text-inner-tspan" font-weight="normal">no</tspan><tspan font-style="normal" class="text-inner-tspan" font-weight="normal"> custom</tspan><tspan font-style="normal" class="text-inner-tspan" font-weight="normal"> toolchain</tspan></tspan></text></g></g></g><g class="node default tenet" id="ge90f83a7-08d6-4971-8d10-2208d0a57dce-dark-flowchart-progressive-10" data-look="classic" transform="translate(1193.6484375, 160.5)"><rect class="basic label-container" style="fill:#1F6E68 !important;stroke:#155752 !important" x="-111.3359375" y="-42.099998474121094" width="222.671875" height="84.19999694824219"></rect><g class="label" style="color:#ffffff !important" transform="translate(0, -27.099998474121094)"><rect></rect><g><rect class="background" style="stroke: none"></rect><text y="-10.1" style="fill:#404040 !important"><tspan class="text-outer-tspan row" x="0" y="-0.1em" dy="1.1em"><tspan font-style="normal" class="text-inner-tspan" font-weight="normal">5.</tspan><tspan font-style="normal" class="text-inner-tspan" font-weight="normal"> Progressive</tspan></tspan><tspan class="text-outer-tspan row" x="0" y="1em" dy="1.1em"><tspan font-style="normal" class="text-inner-tspan" font-weight="normal">enhancement</tspan></tspan><tspan class="text-outer-tspan row" x="0" y="2.1em" dy="1.1em"><tspan font-style="normal" class="text-inner-tspan" font-weight="normal">HTML</tspan><tspan font-style="normal" class="text-inner-tspan" font-weight="normal"> first,</tspan><tspan font-style="normal" class="text-inner-tspan" font-weight="normal"> JS</tspan><tspan font-style="normal" class="text-inner-tspan" font-weight="normal"> optional</tspan></tspan></text></g></g></g><g class="node default tenet" id="ge90f83a7-08d6-4971-8d10-2208d0a57dce-dark-flowchart-config-12" data-look="classic" transform="translate(1465.015625, 160.5)"><rect class="basic label-container" style="fill:#1F6E68 !important;stroke:#155752 !important" x="-110.03125" y="-42.099998474121094" width="220.0625" height="84.19999694824219"></rect><g class="label" style="color:#ffffff !important" transform="translate(0, -27.099998474121094)"><rect></rect><g><rect class="background" style="stroke: none"></rect><text y="-10.1" style="fill:#404040 !important"><tspan class="text-outer-tspan row" x="0" y="-0.1em" dy="1.1em"><tspan font-style="normal" class="text-inner-tspan" font-weight="normal">6.</tspan><tspan font-style="normal" class="text-inner-tspan" font-weight="normal"> Configuration</tspan></tspan><tspan class="text-outer-tspan row" x="0" y="1em" dy="1.1em"><tspan font-style="normal" class="text-inner-tspan" font-weight="normal">before</tspan><tspan font-style="normal" class="text-inner-tspan" font-weight="normal"> customization</tspan></tspan><tspan class="text-outer-tspan row" x="0" y="2.1em" dy="1.1em"><tspan font-style="normal" class="text-inner-tspan" font-weight="normal">JSON5</tspan><tspan font-style="normal" class="text-inner-tspan" font-weight="normal"> over</tspan><tspan font-style="normal" class="text-inner-tspan" font-weight="normal"> TypeScript</tspan></tspan></text></g></g></g><g class="node default tenet" id="ge90f83a7-08d6-4971-8d10-2208d0a57dce-dark-flowchart-parity-14" data-look="classic" transform="translate(1751.328125, 160.5)"><rect class="basic label-container" style="fill:#1F6E68 !important;stroke:#155752 !important" x="-126.28125" y="-42.099998474121094" width="252.5625" height="84.19999694824219"></rect><g class="label" style="color:#ffffff !important" transform="translate(0, -27.099998474121094)"><rect></rect><g><rect class="background" style="stroke: none"></rect><text y="-10.1" style="fill:#404040 !important"><tspan class="text-outer-tspan row" x="0" y="-0.1em" dy="1.1em"><tspan font-style="normal" class="text-inner-tspan" font-weight="normal">7.</tspan><tspan font-style="normal" class="text-inner-tspan" font-weight="normal"> Docs,</tspan><tspan font-style="normal" class="text-inner-tspan" font-weight="normal"> examples,</tspan></tspan><tspan class="text-outer-tspan row" x="0" y="1em" dy="1.1em"><tspan font-style="normal" class="text-inner-tspan" font-weight="normal">AI</tspan><tspan font-style="normal" class="text-inner-tspan" font-weight="normal"> guidance</tspan><tspan font-style="normal" class="text-inner-tspan" font-weight="normal"> move</tspan><tspan font-style="normal" class="text-inner-tspan" font-weight="normal"> together</tspan></tspan><tspan class="text-outer-tspan row" x="0" y="2.1em" dy="1.1em"><tspan font-style="normal" class="text-inner-tspan" font-weight="normal">same</tspan><tspan font-style="normal" class="text-inner-tspan" font-weight="normal"> branch,</tspan><tspan font-style="normal" class="text-inner-tspan" font-weight="normal"> same</tspan><tspan font-style="normal" class="text-inner-tspan" font-weight="normal"> PR</tspan></tspan></text></g></g></g></g></g></g><defs><filter id="ge90f83a7-08d6-4971-8d10-2208d0a57dce-dark-drop-shadow" height="130%" width="130%"><feDropShadow dx="4" dy="4" stdDeviation="0" flood-opacity="0.06" flood-color="#000000"></feDropShadow></filter></defs><defs><filter id="ge90f83a7-08d6-4971-8d10-2208d0a57dce-dark-drop-shadow-small" height="150%" width="150%"><feDropShadow dx="2" dy="2" stdDeviation="0" flood-opacity="0.06" flood-color="#000000"></feDropShadow></filter></defs><linearGradient id="ge90f83a7-08d6-4971-8d10-2208d0a57dce-dark-gradient" gradientUnits="objectBoundingBox" x1="0%" y1="0%" x2="100%" y2="0%"><stop offset="0%" stop-color="#555555" stop-opacity="1"></stop><stop offset="100%" stop-color="#555555" stop-opacity="1"></stop></linearGradient></svg>