<svg id="gd553c164-5b82-4e91-a795-0f04fca8ec49-dark" width="100%" xmlns="http://www.w3.org/2000/svg" xmlns:xlink="http://www.w3.org/1999/xlink" class="flowchart" style="max-width: 513.2953491210938px;" viewBox="0 0 513.2953491210938 923" role="graphics-document document" aria-roledescription="flowchart-v2"><style>#gd553c164-5b82-4e91-a795-0f04fca8ec49-dark{font-family:"trebuchet ms",verdana,arial,sans-serif;font-size:16px;fill:#e5e5e5;}@keyframes edge-animation-frame{from{stroke-dashoffset:0;}}@keyframes dash{to{stroke-dashoffset:0;}}#gd553c164-5b82-4e91-a795-0f04fca8ec49-dark .edge-animation-slow{stroke-dasharray:9,5!important;stroke-dashoffset:900;animation:dash 50s linear infinite;stroke-linecap:round;}#gd553c164-5b82-4e91-a795-0f04fca8ec49-dark .edge-animation-fast{stroke-dasharray:9,5!important;stroke-dashoffset:900;animation:dash 20s linear infinite;stroke-linecap:round;}#gd553c164-5b82-4e91-a795-0f04fca8ec49-dark .error-icon{fill:#252525;}#gd553c164-5b82-4e91-a795-0f04fca8ec49-dark .error-text{fill:#cccccc;stroke:#cccccc;}#gd553c164-5b82-4e91-a795-0f04fca8ec49-dark .edge-thickness-normal{stroke-width:1px;}#gd553c164-5b82-4e91-a795-0f04fca8ec49-dark .edge-thickness-thick{stroke-width:3.5px;}#gd553c164-5b82-4e91-a795-0f04fca8ec49-dark .edge-pattern-solid{stroke-dasharray:0;}#gd553c164-5b82-4e91-a795-0f04fca8ec49-dark .edge-thickness-invisible{stroke-width:0;fill:none;}#gd553c164-5b82-4e91-a795-0f04fca8ec49-dark .edge-pattern-dashed{stroke-dasharray:3;}#gd553c164-5b82-4e91-a795-0f04fca8ec49-dark .edge-pattern-dotted{stroke-dasharray:2;}#gd553c164-5b82-4e91-a795-0f04fca8ec49-dark .marker{fill:#cccccc;stroke:#cccccc;}#gd553c164-5b82-4e91-a795-0f04fca8ec49-dark .marker.cross{stroke:#cccccc;}#gd553c164-5b82-4e91-a795-0f04fca8ec49-dark svg{font-family:"trebuchet ms",verdana,arial,sans-serif;font-size:16px;}#gd553c164-5b82-4e91-a795-0f04fca8ec49-dark p{margin:0;}#gd553c164-5b82-4e91-a795-0f04fca8ec49-dark .label{font-family:"trebuchet ms",verdana,arial,sans-serif;color:#e5e5e5;}#gd553c164-5b82-4e91-a795-0f04fca8ec49-dark .cluster-label text{fill:#e5e5e5;}#gd553c164-5b82-4e91-a795-0f04fca8ec49-dark .cluster-label span{color:#e5e5e5;}#gd553c164-5b82-4e91-a795-0f04fca8ec49-dark .cluster-label span p{background-color:transparent;}#gd553c164-5b82-4e91-a795-0f04fca8ec49-dark .label text,#gd553c164-5b82-4e91-a795-0f04fca8ec49-dark span{fill:#e5e5e5;color:#e5e5e5;}#gd553c164-5b82-4e91-a795-0f04fca8ec49-dark .node rect,#gd553c164-5b82-4e91-a795-0f04fca8ec49-dark .node circle,#gd553c164-5b82-4e91-a795-0f04fca8ec49-dark .node ellipse,#gd553c164-5b82-4e91-a795-0f04fca8ec49-dark .node polygon,#gd553c164-5b82-4e91-a795-0f04fca8ec49-dark .node path{fill:#2d2d2d;stroke:#555555;stroke-width:1px;}#gd553c164-5b82-4e91-a795-0f04fca8ec49-dark .rough-node .label text,#gd553c164-5b82-4e91-a795-0f04fca8ec49-dark .node .label text,#gd553c164-5b82-4e91-a795-0f04fca8ec49-dark .image-shape .label,#gd553c164-5b82-4e91-a795-0f04fca8ec49-dark .icon-shape .label{text-anchor:middle;}#gd553c164-5b82-4e91-a795-0f04fca8ec49-dark .node .katex path{fill:#000;stroke:#000;stroke-width:1px;}#gd553c164-5b82-4e91-a795-0f04fca8ec49-dark .rough-node .label,#gd553c164-5b82-4e91-a795-0f04fca8ec49-dark .node .label,#gd553c164-5b82-4e91-a795-0f04fca8ec49-dark .image-shape .label,#gd553c164-5b82-4e91-a795-0f04fca8ec49-dark .icon-shape .label{text-align:center;}#gd553c164-5b82-4e91-a795-0f04fca8ec49-dark .node.clickable{cursor:pointer;}#gd553c164-5b82-4e91-a795-0f04fca8ec49-dark .root .anchor path{fill:#cccccc!important;stroke-width:0;stroke:#cccccc;}#gd553c164-5b82-4e91-a795-0f04fca8ec49-dark .arrowheadPath{fill:#cccccc;}#gd553c164-5b82-4e91-a795-0f04fca8ec49-dark .edgePath .path{stroke:#cccccc;stroke-width:1px;}#gd553c164-5b82-4e91-a795-0f04fca8ec49-dark .flowchart-link{stroke:#cccccc;fill:none;}#gd553c164-5b82-4e91-a795-0f04fca8ec49-dark .edgeLabel{background-color:#1e1e1e;text-align:center;}#gd553c164-5b82-4e91-a795-0f04fca8ec49-dark .edgeLabel p{background-color:#1e1e1e;}#gd553c164-5b82-4e91-a795-0f04fca8ec49-dark .edgeLabel rect{opacity:0.5;background-color:#1e1e1e;fill:#1e1e1e;}#gd553c164-5b82-4e91-a795-0f04fca8ec49-dark .labelBkg{background-color:rgba(30, 30, 30, 0.5);}#gd553c164-5b82-4e91-a795-0f04fca8ec49-dark .cluster rect{fill:#1e1e1e;stroke:#555555;stroke-width:1px;}#gd553c164-5b82-4e91-a795-0f04fca8ec49-dark .cluster text{fill:#e5e5e5;}#gd553c164-5b82-4e91-a795-0f04fca8ec49-dark .cluster span{color:#e5e5e5;}#gd553c164-5b82-4e91-a795-0f04fca8ec49-dark div.mermaidTooltip{position:absolute;text-align:center;max-width:200px;padding:2px;font-family:"trebuchet ms",verdana,arial,sans-serif;font-size:12px;background:#252525;border:1px solid #555555;border-radius:2px;pointer-events:none;z-index:100;}#gd553c164-5b82-4e91-a795-0f04fca8ec49-dark .flowchartTitleText{text-anchor:middle;font-size:18px;fill:#e5e5e5;}#gd553c164-5b82-4e91-a795-0f04fca8ec49-dark rect.text{fill:none;stroke-width:0;}#gd553c164-5b82-4e91-a795-0f04fca8ec49-dark .icon-shape,#gd553c164-5b82-4e91-a795-0f04fca8ec49-dark .image-shape{background-color:#1e1e1e;text-align:center;}#gd553c164-5b82-4e91-a795-0f04fca8ec49-dark .icon-shape p,#gd553c164-5b82-4e91-a795-0f04fca8ec49-dark .image-shape p{background-color:#1e1e1e;padding:2px;}#gd553c164-5b82-4e91-a795-0f04fca8ec49-dark .icon-shape .label rect,#gd553c164-5b82-4e91-a795-0f04fca8ec49-dark .image-shape .label rect{opacity:0.5;background-color:#1e1e1e;fill:#1e1e1e;}#gd553c164-5b82-4e91-a795-0f04fca8ec49-dark .label-icon{display:inline-block;height:1em;overflow:visible;vertical-align:-0.125em;}#gd553c164-5b82-4e91-a795-0f04fca8ec49-dark .node .label-icon path{fill:currentColor;stroke:revert;stroke-width:revert;}#gd553c164-5b82-4e91-a795-0f04fca8ec49-dark .node .neo-node{stroke:#555555;}#gd553c164-5b82-4e91-a795-0f04fca8ec49-dark [data-look="neo"].node rect,#gd553c164-5b82-4e91-a795-0f04fca8ec49-dark [data-look="neo"].cluster rect,#gd553c164-5b82-4e91-a795-0f04fca8ec49-dark [data-look="neo"].node polygon{stroke:url(#gd553c164-5b82-4e91-a795-0f04fca8ec49-dark-gradient);filter:drop-shadow( 1px 2px 2px rgba(185,185,185,1));}#gd553c164-5b82-4e91-a795-0f04fca8ec49-dark [data-look="neo"].node path{stroke:url(#gd553c164-5b82-4e91-a795-0f04fca8ec49-dark-gradient);stroke-width:1px;}#gd553c164-5b82-4e91-a795-0f04fca8ec49-dark [data-look="neo"].node .outer-path{filter:drop-shadow( 1px 2px 2px rgba(185,185,185,1));}#gd553c164-5b82-4e91-a795-0f04fca8ec49-dark [data-look="neo"].node .neo-line path{stroke:#555555;filter:none;}#gd553c164-5b82-4e91-a795-0f04fca8ec49-dark [data-look="neo"].node circle{stroke:url(#gd553c164-5b82-4e91-a795-0f04fca8ec49-dark-gradient);filter:drop-shadow( 1px 2px 2px rgba(185,185,185,1));}#gd553c164-5b82-4e91-a795-0f04fca8ec49-dark [data-look="neo"].node circle .state-start{fill:#000000;}#gd553c164-5b82-4e91-a795-0f04fca8ec49-dark [data-look="neo"].icon-shape .icon{fill:url(#gd553c164-5b82-4e91-a795-0f04fca8ec49-dark-gradient);filter:drop-shadow( 1px 2px 2px rgba(185,185,185,1));}#gd553c164-5b82-4e91-a795-0f04fca8ec49-dark [data-look="neo"].icon-shape .icon-neo path{stroke:url(#gd553c164-5b82-4e91-a795-0f04fca8ec49-dark-gradient);filter:drop-shadow( 1px 2px 2px rgba(185,185,185,1));}#gd553c164-5b82-4e91-a795-0f04fca8ec49-dark :root{--mermaid-font-family:"trebuchet ms",verdana,arial,sans-serif;}#gd553c164-5b82-4e91-a795-0f04fca8ec49-dark .hub rect{fill:#2E5A88!important;stroke:#1F4870!important;color:#ffffff!important;}#gd553c164-5b82-4e91-a795-0f04fca8ec49-dark .hub polygon{fill:#2E5A88!important;stroke:#1F4870!important;color:#ffffff!important;}#gd553c164-5b82-4e91-a795-0f04fca8ec49-dark .hub ellipse{fill:#2E5A88!important;stroke:#1F4870!important;color:#ffffff!important;}#gd553c164-5b82-4e91-a795-0f04fca8ec49-dark .hub circle{fill:#2E5A88!important;stroke:#1F4870!important;color:#ffffff!important;}#gd553c164-5b82-4e91-a795-0f04fca8ec49-dark .hub path{fill:#2E5A88!important;stroke:#1F4870!important;color:#ffffff!important;}#gd553c164-5b82-4e91-a795-0f04fca8ec49-dark .hub tspan{fill:#ffffff!important;}#gd553c164-5b82-4e91-a795-0f04fca8ec49-dark .tenet rect{fill:#1F6E68!important;stroke:#155752!important;color:#ffffff!important;}#gd553c164-5b82-4e91-a795-0f04fca8ec49-dark .tenet polygon{fill:#1F6E68!important;stroke:#155752!important;color:#ffffff!important;}#gd553c164-5b82-4e91-a795-0f04fca8ec49-dark .tenet ellipse{fill:#1F6E68!important;stroke:#155752!important;color:#ffffff!important;}#gd553c164-5b82-4e91-a795-0f04fca8ec49-dark .tenet circle{fill:#1F6E68!important;stroke:#155752!important;color:#ffffff!important;}#gd553c164-5b82-4e91-a795-0f04fca8ec49-dark .tenet path{fill:#1F6E68!important;stroke:#155752!important;color:#ffffff!important;}#gd553c164-5b82-4e91-a795-0f04fca8ec49-dark .tenet tspan{fill:#ffffff!important;}</style><g><marker id="gd553c164-5b82-4e91-a795-0f04fca8ec49-dark_flowchart-v2-pointEnd" class="marker flowchart-v2" viewBox="0 0 10 10" refX="5" refY="5" markerUnits="userSpaceOnUse" markerWidth="8" markerHeight="8" orient="auto"><path d="M 0 0 L 10 5 L 0 10 z" class="arrowMarkerPath" style="stroke-width: 1; stroke-dasharray: 1, 0;"></path></marker><marker id="gd553c164-5b82-4e91-a795-0f04fca8ec49-dark_flowchart-v2-pointStart" class="marker flowchart-v2" viewBox="0 0 10 10" refX="4.5" refY="5" markerUnits="userSpaceOnUse" markerWidth="8" markerHeight="8" orient="auto"><path d="M 0 5 L 10 10 L 10 0 z" class="arrowMarkerPath" style="stroke-width: 1; stroke-dasharray: 1, 0;"></path></marker><marker id="gd553c164-5b82-4e91-a795-0f04fca8ec49-dark_flowchart-v2-pointEnd-margin" class="marker flowchart-v2" viewBox="0 0 11.5 14" refX="11.5" refY="7" markerUnits="userSpaceOnUse" markerWidth="10.5" markerHeight="14" orient="auto"><path d="M 0 0 L 11.5 7 L 0 14 z" class="arrowMarkerPath" style="stroke-width: 0; stroke-dasharray: 1, 0;"></path></marker><marker id="gd553c164-5b82-4e91-a795-0f04fca8ec49-dark_flowchart-v2-pointStart-margin" class="marker flowchart-v2" viewBox="0 0 11.5 14" refX="1" refY="7" markerUnits="userSpaceOnUse" markerWidth="11.5" markerHeight="14" orient="auto"><polygon points="0,7 11.5,14 11.5,0" class="arrowMarkerPath" style="stroke-width: 0; stroke-dasharray: 1, 0;"></polygon></marker><marker id="gd553c164-5b82-4e91-a795-0f04fca8ec49-dark_flowchart-v2-circleEnd" class="marker flowchart-v2" viewBox="0 0 10 10" refX="11" refY="5" markerUnits="userSpaceOnUse" markerWidth="11" markerHeight="11" orient="auto"><circle cx="5" cy="5" r="5" class="arrowMarkerPath" style="stroke-width: 1; stroke-dasharray: 1, 0;"></circle></marker><marker id="gd553c164-5b82-4e91-a795-0f04fca8ec49-dark_flowchart-v2-circleStart" class="marker flowchart-v2" viewBox="0 0 10 10" refX="-1" refY="5" markerUnits="userSpaceOnUse" markerWidth="11" markerHeight="11" orient="auto"><circle cx="5" cy="5" r="5" class="arrowMarkerPath" style="stroke-width: 1; stroke-dasharray: 1, 0;"></circle></marker><marker id="gd553c164-5b82-4e91-a795-0f04fca8ec49-dark_flowchart-v2-circleEnd-margin" class="marker flowchart-v2" viewBox="0 0 10 10" refY="5" refX="12.25" markerUnits="userSpaceOnUse" markerWidth="14" markerHeight="14" orient="auto"><circle cx="5" cy="5" r="5" class="arrowMarkerPath" style="stroke-width: 0; stroke-dasharray: 1, 0;"></circle></marker><marker id="gd553c164-5b82-4e91-a795-0f04fca8ec49-dark_flowchart-v2-circleStart-margin" class="marker flowchart-v2" viewBox="0 0 10 10" refX="-2" refY="5" markerUnits="userSpaceOnUse" markerWidth="14" markerHeight="14" orient="auto"><circle cx="5" cy="5" r="5" class="arrowMarkerPath" style="stroke-width: 0; stroke-dasharray: 1, 0;"></circle></marker><marker id="gd553c164-5b82-4e91-a795-0f04fca8ec49-dark_flowchart-v2-crossEnd" class="marker cross flowchart-v2" viewBox="0 0 11 11" refX="12" refY="5.2" markerUnits="userSpaceOnUse" markerWidth="11" markerHeight="11" orient="auto"><path d="M 1,1 l 9,9 M 10,1 l -9,9" class="arrowMarkerPath" style="stroke-width: 2; stroke-dasharray: 1, 0;"></path></marker><marker id="gd553c164-5b82-4e91-a795-0f04fca8ec49-dark_flowchart-v2-crossStart" class="marker cross flowchart-v2" viewBox="0 0 11 11" refX="-1" refY="5.2" markerUnits="userSpaceOnUse" markerWidth="11" markerHeight="11" orient="auto"><path d="M 1,1 l 9,9 M 10,1 l -9,9" class="arrowMarkerPath" style="stroke-width: 2; stroke-dasharray: 1, 0;"></path></marker><marker id="gd553c164-5b82-4e91-a795-0f04fca8ec49-dark_flowchart-v2-crossEnd-margin" class="marker cross flowchart-v2" viewBox="0 0 15 15" refX="17.7" refY="7.5" markerUnits="userSpaceOnUse" markerWidth="12" markerHeight="12" orient="auto"><path d="M 1,1 L 14,14 M 1,14 L 14,1" class="arrowMarkerPath" style="stroke-width: 2.5;"></path></marker><marker id="gd553c164-5b82-4e91-a795-0f04fca8ec49-dark_flowchart-v2-crossStart-margin" class="marker cross flowchart-v2" viewBox="0 0 15 15" refX="-3.5" refY="7.5" markerUnits="userSpaceOnUse" markerWidth="12" markerHeight="12" orient="auto"><path d="M 1,1 L 14,14 M 1,14 L 14,1" class="arrowMarkerPath" style="stroke-width: 2.5; stroke-dasharray: 1, 0;"></path></marker><g class="root"><g class="clusters"></g><g class="edgePaths"><path d="M113.54,445L132.572,380.65C151.605,316.3,189.669,187.6,213.184,123.25C236.699,58.9,245.665,58.9,250.148,58.9L254.631,58.9" id="gd553c164-5b82-4e91-a795-0f04fca8ec49-dark-L_hub_filesystem_0" class="edge-thickness-normal edge-pattern-solid edge-thickness-normal edge-pattern-solid flowchart-link" style=";" data-edge="true" data-et="edge" data-id="L_hub_filesystem_0" data-points="W3sieCI6MTEzLjU0MDM2MDAwNzEwMjg5LCJ5Ijo0NDQuOTk5OTk2MTg1MzAyOH0seyJ4IjoyMjcuNzMyODY0Mzc5ODgyOCwieSI6NTguOTAwMDAxNTI1ODc4OTA2fSx7IngiOjI1NC42MzEzMDE4Nzk4ODI4LCJ5Ijo1OC45MDAwMDE1MjU4Nzg5MDZ9XQ==" data-look="classic"></path><path d="M117.629,445L135.98,404.483C154.33,363.967,191.032,282.933,219.134,242.417C247.235,201.9,266.738,201.9,276.489,201.9L286.241,201.9" id="gd553c164-5b82-4e91-a795-0f04fca8ec49-dark-L_hub_boundaries_0" class="edge-thickness-normal edge-pattern-solid edge-thickness-normal edge-pattern-solid flowchart-link" style=";" data-edge="true" data-et="edge" data-id="L_hub_boundaries_0" data-points="W3sieCI6MTE3LjYyODkyODE5OTM4NTgsInkiOjQ0NC45OTk5OTYxODUzMDI4fSx7IngiOjIyNy43MzI4NjQzNzk4ODI4LCJ5IjoyMDEuOTAwMDAxNTI1ODc4OX0seyJ4IjoyODYuMjQwNjc2ODc5ODgyOCwieSI6MjAxLjkwMDAwMTUyNTg3ODl9XQ==" data-look="classic"></path><path d="M129.391,445L145.782,426.85C162.172,408.7,194.952,372.4,216.968,354.25C238.983,336.1,250.233,336.1,255.858,336.1L261.483,336.1" id="gd553c164-5b82-4e91-a795-0f04fca8ec49-dark-L_hub_validation_0" class="edge-thickness-normal edge-pattern-solid edge-thickness-normal edge-pattern-solid flowchart-link" style=";" data-edge="true" data-et="edge" data-id="L_hub_validation_0" data-points="W3sieCI6MTI5LjM5MTQyNDIwODgzMDI0LCJ5Ijo0NDQuOTk5OTk2MTg1MzAyOH0seyJ4IjoyMjcuNzMyODY0Mzc5ODgyOCwieSI6MzM2LjA5OTk5ODQ3NDEyMTF9LHsieCI6MjYxLjQ4Mjg2NDM3OTg4MjgsInkiOjMzNi4wOTk5OTg0NzQxMjExfV0=" data-look="classic"></path><path d="M203.233,470.8L207.316,470.717C211.4,470.633,219.566,470.467,231.785,470.383C244.004,470.3,260.275,470.3,268.41,470.3L276.545,470.3" id="gd553c164-5b82-4e91-a795-0f04fca8ec49-dark-L_hub_vite_0" class="edge-thickness-normal edge-pattern-solid edge-thickness-normal edge-pattern-solid flowchart-link" style=";" data-edge="true" data-et="edge" data-id="L_hub_vite_0" data-points="W3sieCI6MjAzLjIzMjg2MzM3NTI3MjI3LCJ5Ijo0NzAuNzk5OTk1NDIyMzYzM30seyJ4IjoyMjcuNzMyODY0Mzc5ODgyOCwieSI6NDcwLjI5OTk5NTQyMjM2MzN9LHsieCI6Mjc2LjU0NTM2NDM3OTg4MjgsInkiOjQ3MC4yOTk5OTU0MjIzNjMzfV0=" data-look="classic"></path><path d="M129.391,496.6L145.782,514.583C162.172,532.567,194.952,568.533,218,586.517C241.048,604.5,254.363,604.5,261.021,604.5L267.678,604.5" id="gd553c164-5b82-4e91-a795-0f04fca8ec49-dark-L_hub_progressive_0" class="edge-thickness-normal edge-pattern-solid edge-thickness-normal edge-pattern-solid flowchart-link" style=";" data-edge="true" data-et="edge" data-id="L_hub_progressive_0" data-points="W3sieCI6MTI5LjM5MTQyNDIwODgzMDMsInkiOjQ5Ni41OTk5OTQ2NTk0MjM5fSx7IngiOjIyNy43MzI4NjQzNzk4ODI4LCJ5Ijo2MDQuNDk5OTkyMzcwNjA1NX0seyJ4IjoyNjcuNjc4MTc2ODc5ODgyOCwieSI6NjA0LjQ5OTk5MjM3MDYwNTV9XQ==" data-look="classic"></path><path d="M117.629,496.6L135.98,536.95C154.33,577.3,191.032,658,216.257,698.35C241.483,738.7,255.233,738.7,262.108,738.7L268.983,738.7" id="gd553c164-5b82-4e91-a795-0f04fca8ec49-dark-L_hub_config_0" class="edge-thickness-normal edge-pattern-solid edge-thickness-normal edge-pattern-solid flowchart-link" style=";" data-edge="true" data-et="edge" data-id="L_hub_config_0" data-points="W3sieCI6MTE3LjYyODkyODE5OTM4NTgzLCJ5Ijo0OTYuNTk5OTk0NjU5NDIzOX0seyJ4IjoyMjcuNzMyODY0Mzc5ODgyOCwieSI6NzM4LjY5OTk4OTMxODg0Nzd9LHsieCI6MjY4Ljk4Mjg2NDM3OTg4MjgsInkiOjczOC42OTk5ODkzMTg4NDc3fV0=" data-look="classic"></path><path d="M113.708,496.6L132.712,559.317C151.716,622.033,189.725,747.467,212.895,810.183C236.066,872.9,244.4,872.9,248.566,872.9L252.733,872.9" id="gd553c164-5b82-4e91-a795-0f04fca8ec49-dark-L_hub_parity_0" class="edge-thickness-normal edge-pattern-solid edge-thickness-normal edge-pattern-solid flowchart-link" style=";" data-edge="true" data-et="edge" data-id="L_hub_parity_0" data-points="W3sieCI6MTEzLjcwODA5NjE5NjIzNzcsInkiOjQ5Ni41OTk5OTQ2NTk0MjM5fSx7IngiOjIyNy43MzI4NjQzNzk4ODI4LCJ5Ijo4NzIuODk5OTg2MjY3MDg5OH0seyJ4IjoyNTIuNzMyODY0Mzc5ODgyOCwieSI6ODcyLjg5OTk4NjI2NzA4OTh9XQ==" data-look="classic"></path></g><g class="edgeLabels"><g class="edgeLabel"><g class="label" data-id="L_hub_filesystem_0" transform="translate(0, 0)"><text y="-10.1" text-anchor="middle"><tspan class="text-outer-tspan row" x="0" y="-0.1em" dy="1.1em" text-anchor="middle"></tspan></text></g></g><g><rect class="background" style="stroke: none"></rect></g><g class="edgeLabel"><g class="label" data-id="L_hub_boundaries_0" transform="translate(0, 0)"><text y="-10.1" text-anchor="middle"><tspan class="text-outer-tspan row" x="0" y="-0.1em" dy="1.1em" text-anchor="middle"></tspan></text></g></g><g><rect class="background" style="stroke: none"></rect></g><g class="edgeLabel"><g class="label" data-id="L_hub_validation_0" transform="translate(0, 0)"><text y="-10.1" text-anchor="middle"><tspan class="text-outer-tspan row" x="0" y="-0.1em" dy="1.1em" text-anchor="middle"></tspan></text></g></g><g><rect class="background" style="stroke: none"></rect></g><g class="edgeLabel"><g class="label" data-id="L_hub_vite_0" transform="translate(0, 0)"><text y="-10.1" text-anchor="middle"><tspan class="text-outer-tspan row" x="0" y="-0.1em" dy="1.1em" text-anchor="middle"></tspan></text></g></g><g><rect class="background" style="stroke: none"></rect></g><g class="edgeLabel"><g class="label" data-id="L_hub_progressive_0" transform="translate(0, 0)"><text y="-10.1" text-anchor="middle"><tspan class="text-outer-tspan row" x="0" y="-0.1em" dy="1.1em" text-anchor="middle"></tspan></text></g></g><g><rect class="background" style="stroke: none"></rect></g><g class="edgeLabel"><g class="label" data-id="L_hub_config_0" transform="translate(0, 0)"><text y="-10.1" text-anchor="middle"><tspan class="text-outer-tspan row" x="0" y="-0.1em" dy="1.1em" text-anchor="middle"></tspan></text></g></g><g><rect class="background" style="stroke: none"></rect></g><g class="edgeLabel"><g class="label" data-id="L_hub_parity_0" transform="translate(0, 0)"><text y="-10.1" text-anchor="middle"><tspan class="text-outer-tspan row" x="0" y="-0.1em" dy="1.1em" text-anchor="middle"></tspan></text></g></g><g><rect class="background" style="stroke: none"></rect></g></g><g class="nodes"><g class="node default hub" id="gd553c164-5b82-4e91-a795-0f04fca8ec49-dark-flowchart-hub-0" data-look="classic" transform="translate(105.3664321899414, 470.2999954223633)"><g class="basic label-container outer-path"><path d="M-71.57968807220459 -25.799999237060547 C-33.36964373466892 -25.799999237060547, 4.840400602866751 -25.799999237060547, 71.57968807220459 -25.799999237060547 C71.57968807220459 -25.799999237060547, 71.57968807220459 -25.799999237060547, 71.57968807220459 -25.799999237060547 C72.1639457529507 -25.781263230427605, 72.7482034336968 -25.762527223794663, 73.23269969882529 -25.746990371586765 C73.78061792556029 -25.694133359221716, 74.32853615229529 -25.64127634685667, 74.87891874610231 -25.58818159996402 C75.33391424042752 -25.51462145698428, 75.78890973475274 -25.441061314004536, 76.51158054685753 -25.32422550149928 C76.9523125624916 -25.223631294975988, 77.39304457812567 -25.12303708845269, 78.12397614354678 -24.956206728419545 C78.6303574949515 -24.805915401372584, 79.1367388463562 -24.655624074325623, 79.70947985680552 -24.48563754880318 C80.0700582998503 -24.35294134861211, 80.43063674289509 -24.22024514842104, 81.26157651178644 -23.914451632345997 C81.58815212957636 -23.76988629387191, 81.91472774736626 -23.62532095539782, 82.77388821041056 -23.24499610449772 C83.3535109728381 -22.942607280605372, 83.93313373526564 -22.640218456713026, 84.2402005395184 -22.480021901620034 C84.67394744946255 -22.21708197583212, 85.10769435940668 -21.9541420500442, 85.65448810722664 -21.62267246679901 C86.14098312195281 -21.28331460455579, 86.62747813667899 -20.943956742312572, 87.01093930255584 -20.67647083276321 C87.30533691893581 -20.44169656794978, 87.59973453531576 -20.20692230313635, 88.3039801765865 -19.64530514498651 C88.76257026693304 -19.228825758562675, 89.22116035727959 -18.81234637213884, 89.52829734701088 -18.533412684464313 C89.98577461923692 -18.06102984130836, 90.44325189146296 -17.588646998152406, 90.67885983196044 -17.345362455817106 C90.93124736674443 -17.04889369620226, 91.18363490152842 -16.752424936587417, 91.75093972338968 -16.086036412270357 C92.08210773760025 -15.642301443254933, 92.41327575181083 -15.19856647423951, 92.74013161506427 -14.76060939466161 C92.95806370038169 -14.425807188655172, 93.17599578569909 -14.091004982648734, 93.64237070532036 -13.374527866909407 C93.88087185394606 -12.95104492666435, 94.11937300257176 -12.527561986419293, 94.4539495002064 -11.93348753532484 C94.69416832978979 -11.434667995835378, 94.93438715937317 -10.935848456345916, 95.17153304837109 -10.443409943732584 C95.41439541380133 -9.843535205695476, 95.65725777923157 -9.24366046765837, 95.79217264509381 -8.910418140577123 C95.94075481599864 -8.462912315165784, 96.08933698690349 -8.015406489754445, 96.3133179491449 -7.340811518003323 C96.45717588000831 -6.792218879199518, 96.60103381087171 -6.243626240395712, 96.73282746268467 -5.741039926302914 C96.84973108379893 -5.140764539470263, 96.96663470491319 -4.540489152637612, 97.04897733113748 -4.117677170096137 C97.11619497441461 -3.5963504024636883, 97.18341261769174 -3.0750236348312403, 97.26046842687991 -2.4773939951584394 C97.28297597912898 -2.1268207011099935, 97.30548353137804 -1.7762474070615482, 97.36643168763487 -0.8269306768952902 C97.36643168763487 -0.20962817101327258, 97.36643168763487 0.40767433486874505, 97.36643168763487 0.826930676895284 C97.34210042931284 1.205909665099144, 97.31776917099081 1.5848886533030042, 97.26046842687991 2.4773939951584216 C97.18626801364564 3.052877747674528, 97.11206760041136 3.6283615001906346, 97.04897733113748 4.117677170096119 C96.97083102120142 4.518941955389326, 96.89268471126536 4.9202067406825325, 96.73282746268467 5.741039926302909 C96.59986631637972 6.2480784028890195, 96.46690517007477 6.75511687947513, 96.3133179491449 7.340811518003306 C96.19656813907568 7.692443344375722, 96.07981832900646 8.044075170748137, 95.79217264509383 8.910418140577105 C95.58969772106337 9.410535117518679, 95.38722279703292 9.910652094460252, 95.17153304837109 10.443409943732577 C94.99489175944426 10.81020935970725, 94.81825047051744 11.177008775681921, 94.4539495002064 11.933487535324835 C94.1945268269765 12.394118761038754, 93.9351041537466 12.854749986752674, 93.64237070532037 13.374527866909402 C93.4452797329924 13.677312526741625, 93.24818876066442 13.98009718657385, 92.74013161506429 14.760609394661596 C92.4070586621794 15.206896807957126, 92.07398570929449 15.653184221252653, 91.75093972338968 16.086036412270353 C91.50782976403073 16.37160720388195, 91.26471980467177 16.657177995493544, 90.67885983196045 17.345362455817092 C90.23677714325639 17.80184912756778, 89.79469445455233 18.258335799318466, 89.52829734701088 18.533412684464306 C89.19349046570487 18.837475435561775, 88.85868358439888 19.14153818665924, 88.30398017658653 19.64530514498649 C87.85119719574348 20.006387523147673, 87.39841421490044 20.36746990130885, 87.01093930255584 20.676470832763208 C86.48138517432803 21.04586486858619, 85.95183104610022 21.415258904409168, 85.65448810722665 21.622672466799003 C85.1769935968788 21.912132445041085, 84.69949908653095 22.201592423283163, 84.24020053951841 22.48002190162003 C83.73811131426594 22.74196152883075, 83.23602208901345 23.003901156041472, 82.77388821041058 23.244996104497716 C82.37841658996481 23.420059659620243, 81.98294496951905 23.59512321474277, 81.26157651178644 23.914451632345994 C80.77173424002963 24.094718116404824, 80.28189196827283 24.274984600463654, 79.70947985680553 24.485637548803172 C79.31960064421158 24.601351652583308, 78.92972143161764 24.717065756363443, 78.12397614354681 24.95620672841954 C77.6701663370145 25.0597858553748, 77.21635653048219 25.163364982330055, 76.51158054685754 25.324225501499278 C75.91826544651674 25.420148085695054, 75.32495034617595 25.516070669890833, 74.87891874610233 25.588181599964017 C74.41052067747668 25.633367398313236, 73.94212260885104 25.67855319666246, 73.23269969882529 25.746990371586765 C72.84808177075959 25.75932431992645, 72.4634638426939 25.771658268266137, 71.57968807220459 25.799999237060547 C71.57968807220459 25.799999237060547, 71.57968807220459 25.799999237060547, 71.57968807220459 25.799999237060547 C20.886220559499435 25.799999237060547, -29.80724695320572 25.799999237060547, -71.57968807220459 25.799999237060547 C-71.97398421477294 25.787354927219262, -72.3682803573413 25.774710617377977, -73.23269969882527 25.746990371586765 C-73.83600909447128 25.6887898397745, -74.43931849011729 25.630589307962236, -74.87891874610231 25.588181599964017 C-75.33948761100663 25.513720397651177, -75.80005647591095 25.43925919533834, -76.51158054685753 25.324225501499278 C-77.00994007860453 25.210478190477893, -77.50829961035154 25.09673087945651, -78.12397614354678 24.956206728419545 C-78.62466557089998 24.807604734553554, -79.12535499825317 24.659002740687562, -79.7094798568055 24.485637548803183 C-80.26732469229168 24.28034549268314, -80.82516952777786 24.075053436563095, -81.26157651178644 23.914451632345997 C-81.82217688524231 23.666290476636313, -82.38277725869818 23.418129320926624, -82.77388821041056 23.244996104497723 C-83.18642277962536 23.02977708397937, -83.59895734884014 22.814558063461014, -84.2402005395184 22.480021901620038 C-84.5801756763336 22.273926975766994, -84.9201508131488 22.067832049913946, -85.65448810722663 21.622672466799017 C-86.17414067462416 21.26018533117958, -86.69379324202168 20.897698195560146, -87.01093930255584 20.67647083276321 C-87.50360183392539 20.283585574296552, -87.99626436529495 19.890700315829893, -88.3039801765865 19.645305144986512 C-88.63846105584709 19.341538460321154, -88.97294193510768 19.0377717756558, -89.52829734701086 18.533412684464324 C-89.78524524191508 18.268092887161217, -90.0421931368193 18.002773089858113, -90.67885983196044 17.3453624558171 C-91.0118185107777 16.9542502457928, -91.34477718959498 16.563138035768503, -91.75093972338968 16.08603641227036 C-91.999582691471 15.75287748688177, -92.24822565955232 15.419718561493182, -92.74013161506427 14.760609394661614 C-93.04858533506055 14.28674164932602, -93.35703905505683 13.812873903990425, -93.64237070532036 13.374527866909418 C-93.86506879883885 12.979104851240063, -94.08776689235734 12.58368183557071, -94.45394950020639 11.933487535324842 C-94.63182269425326 11.564130042009877, -94.80969588830011 11.194772548694914, -95.17153304837109 10.443409943732586 C-95.41529371875976 9.84131637508063, -95.65905438914841 9.239222806428675, -95.79217264509381 8.910418140577127 C-95.99119556352056 8.31099282027149, -96.19021848194733 7.711567499965856, -96.3133179491449 7.340811518003316 C-96.4791423093495 6.708451363810865, -96.6449666695541 6.076091209618414, -96.73282746268467 5.741039926302918 C-96.82952090994996 5.244539510762978, -96.92621435721524 4.74803909522304, -97.04897733113748 4.117677170096139 C-97.09158557027322 3.78721608130784, -97.13419380940896 3.4567549925195404, -97.26046842687991 2.477393995158454 C-97.29504799298253 1.938789340986839, -97.32962755908514 1.400184686815224, -97.36643168763487 0.8269306768952934 C-97.36643168763487 0.4059758879561503, -97.36643168763487 -0.014978900982992815, -97.36643168763487 -0.8269306768952809 C-97.33539104159695 -1.3104137944944172, -97.30435039555903 -1.7938969120935537, -97.26046842687991 -2.4773939951584185 C-97.20551245756961 -2.9036216408455107, -97.15055648825931 -3.3298492865326033, -97.04897733113748 -4.117677170096128 C-96.94670203708273 -4.642839189176207, -96.84442674302798 -5.168001208256286, -96.73282746268467 -5.741039926302906 C-96.58959981258651 -6.287229031383404, -96.44637216248834 -6.833418136463903, -96.3133179491449 -7.340811518003303 C-96.12213185652435 -7.916633567609289, -95.9309457639038 -8.492455617215276, -95.79217264509383 -8.910418140577093 C-95.64228968402874 -9.280631952197783, -95.49240672296365 -9.650845763818474, -95.17153304837109 -10.443409943732574 C-94.96577975614458 -10.87066105745612, -94.76002646391807 -11.297912171179666, -94.4539495002064 -11.933487535324831 C-94.14915294879697 -12.474684676349902, -93.84435639738751 -13.015881817374973, -93.64237070532036 -13.374527866909409 C-93.34740955304927 -13.827667404957381, -93.05244840077818 -14.280806943005354, -92.74013161506429 -14.760609394661605 C-92.51678214430112 -15.059877337928867, -92.29343267353796 -15.359145281196128, -91.75093972338968 -16.086036412270353 C-91.4020397699335 -16.495874150569744, -91.05313981647731 -16.90571188886914, -90.67885983196045 -17.345362455817092 C-90.38282761508142 -17.651040024441702, -90.0867953982024 -17.956717593066312, -89.52829734701089 -18.5334126844643 C-89.26118844631107 -18.775993920765643, -88.99407954561124 -19.01857515706699, -88.30398017658653 -19.645305144986487 C-87.99188458117027 -19.894193077118373, -87.67978898575399 -20.14308100925026, -87.01093930255585 -20.676470832763204 C-86.54303352757816 -21.0028616460731, -86.07512775260047 -21.329252459382996, -85.65448810722665 -21.622672466799 C-85.25850860139492 -21.86271757026807, -84.86252909556319 -22.102762673737143, -84.24020053951841 -22.480021901620027 C-83.8875830575118 -22.663982216120598, -83.5349655755052 -22.84794253062117, -82.77388821041058 -23.244996104497716 C-82.30316158272127 -23.45337281896649, -81.83243495503196 -23.661749533435263, -81.26157651178646 -23.91445163234599 C-80.79376448823562 -24.08661078141964, -80.32595246468478 -24.25876993049329, -79.70947985680553 -24.485637548803172 C-79.3594798046817 -24.58951572708576, -79.00947975255787 -24.693393905368353, -78.12397614354681 -24.956206728419538 C-77.54015675911337 -25.089459693138945, -76.95633737467995 -25.222712657858352, -76.51158054685754 -25.324225501499278 C-76.06380385916202 -25.396618563805813, -75.6160271714665 -25.46901162611235, -74.87891874610233 -25.588181599964017 C-74.51225202400256 -25.623553497663732, -74.14558530190278 -25.658925395363443, -73.23269969882529 -25.746990371586765 C-72.87792723590367 -25.758367233949954, -72.52315477298207 -25.769744096313143, -71.5796880722046 -25.799999237060547 C-71.5796880722046 -25.799999237060547, -71.57968807220459 -25.799999237060547, -71.57968807220459 -25.799999237060547" stroke="none" stroke-width="0" fill="#2E5A88" style="fill:#2E5A88 !important;stroke:#1F4870 !important"></path><path d="M-71.57968807220459 -25.799999237060547 C-17.827588322775632 -25.799999237060547, 35.924511426653325 -25.799999237060547, 71.57968807220459 -25.799999237060547 M-71.57968807220459 -25.799999237060547 C-27.253605588200422 -25.799999237060547, 17.072476895803746 -25.799999237060547, 71.57968807220459 -25.799999237060547 M71.57968807220459 -25.799999237060547 C71.57968807220459 -25.799999237060547, 71.57968807220459 -25.799999237060547, 71.57968807220459 -25.799999237060547 M71.57968807220459 -25.799999237060547 C71.57968807220459 -25.799999237060547, 71.57968807220459 -25.799999237060547, 71.57968807220459 -25.799999237060547 M71.57968807220459 -25.799999237060547 C71.98977796385438 -25.786848452426888, 72.39986785550418 -25.77369766779323, 73.23269969882529 -25.746990371586765 M71.57968807220459 -25.799999237060547 C72.21431207090895 -25.779648080642776, 72.84893606961332 -25.759296924225005, 73.23269969882529 -25.746990371586765 M73.23269969882529 -25.746990371586765 C73.64158396015284 -25.70754579865177, 74.05046822148039 -25.668101225716768, 74.87891874610231 -25.58818159996402 M73.23269969882529 -25.746990371586765 C73.60762904798837 -25.71082138819152, 73.98255839715144 -25.67465240479627, 74.87891874610231 -25.58818159996402 M74.87891874610231 -25.58818159996402 C75.31257303503315 -25.51807173756892, 75.74622732396398 -25.44796187517382, 76.51158054685753 -25.32422550149928 M74.87891874610231 -25.58818159996402 C75.26379869557171 -25.525957194522395, 75.6486786450411 -25.46373278908077, 76.51158054685753 -25.32422550149928 M76.51158054685753 -25.32422550149928 C76.92546124125045 -25.229759933828035, 77.33934193564335 -25.13529436615679, 78.12397614354678 -24.956206728419545 M76.51158054685753 -25.32422550149928 C76.8638425090739 -25.243824007347524, 77.21610447129028 -25.163422513195766, 78.12397614354678 -24.956206728419545 M78.12397614354678 -24.956206728419545 C78.58882115739675 -24.818243168330145, 79.05366617124673 -24.680279608240742, 79.70947985680552 -24.48563754880318 M78.12397614354678 -24.956206728419545 C78.73915329060986 -24.773625380301965, 79.35433043767294 -24.59104403218438, 79.70947985680552 -24.48563754880318 M79.70947985680552 -24.48563754880318 C80.26032881418062 -24.282920040497196, 80.81117777155573 -24.080202532191212, 81.26157651178644 -23.914451632345997 M79.70947985680552 -24.48563754880318 C80.27275967077237 -24.278345370361855, 80.83603948473923 -24.071053191920527, 81.26157651178644 -23.914451632345997 M81.26157651178644 -23.914451632345997 C81.58223135704745 -23.772507244236976, 81.90288620230847 -23.630562856127952, 82.77388821041056 -23.24499610449772 M81.26157651178644 -23.914451632345997 C81.73869401493893 -23.70324586688826, 82.21581151809141 -23.49204010143052, 82.77388821041056 -23.24499610449772 M82.77388821041056 -23.24499610449772 C83.26043677137271 -22.991164031892993, 83.74698533233486 -22.73733195928827, 84.2402005395184 -22.480021901620034 M82.77388821041056 -23.24499610449772 C83.12722329327829 -23.060661418087548, 83.480558376146 -22.876326731677377, 84.2402005395184 -22.480021901620034 M84.2402005395184 -22.480021901620034 C84.71221772505585 -22.193882309866353, 85.18423491059329 -21.907742718112676, 85.65448810722664 -21.62267246679901 M84.2402005395184 -22.480021901620034 C84.66006951845185 -22.225494859166577, 85.0799384973853 -21.97096781671312, 85.65448810722664 -21.62267246679901 M85.65448810722664 -21.62267246679901 C86.10534733124463 -21.308172589505304, 86.55620655526262 -20.9936727122116, 87.01093930255584 -20.67647083276321 M85.65448810722664 -21.62267246679901 C85.97887464251716 -21.396394462247137, 86.30326117780766 -21.17011645769527, 87.01093930255584 -20.67647083276321 M87.01093930255584 -20.67647083276321 C87.28506768629028 -20.457860741597653, 87.55919607002473 -20.23925065043209, 88.3039801765865 -19.64530514498651 M87.01093930255584 -20.67647083276321 C87.28132836669619 -20.46084274946646, 87.55171743083655 -20.245214666169716, 88.3039801765865 -19.64530514498651 M88.3039801765865 -19.64530514498651 C88.65194666424865 -19.3292911875805, 88.9999131519108 -19.013277230174484, 89.52829734701088 -18.533412684464313 M88.3039801765865 -19.64530514498651 C88.61534150840203 -19.362535021601055, 88.92670284021756 -19.0797648982156, 89.52829734701088 -18.533412684464313 M89.52829734701088 -18.533412684464313 C89.9018700682159 -18.14766817892931, 90.27544278942094 -17.76192367339431, 90.67885983196044 -17.345362455817106 M89.52829734701088 -18.533412684464313 C89.95165989003587 -18.096256100079806, 90.37502243306086 -17.659099515695296, 90.67885983196044 -17.345362455817106 M90.67885983196044 -17.345362455817106 C91.09256275832819 -16.85940345814218, 91.50626568469592 -16.373444460467248, 91.75093972338968 -16.086036412270357 M90.67885983196044 -17.345362455817106 C91.04389396804157 -16.916572588545442, 91.40892810412271 -16.487782721273778, 91.75093972338968 -16.086036412270357 M91.75093972338968 -16.086036412270357 C92.14620815246262 -15.556412727007286, 92.54147658153556 -15.026789041744216, 92.74013161506427 -14.76060939466161 M91.75093972338968 -16.086036412270357 C91.96770985704352 -15.795584181339636, 92.18447999069737 -15.505131950408916, 92.74013161506427 -14.76060939466161 M92.74013161506427 -14.76060939466161 C92.92135693393523 -14.482198639063844, 93.10258225280619 -14.203787883466077, 93.64237070532036 -13.374527866909407 M92.74013161506427 -14.76060939466161 C93.09707023413984 -14.212255824321858, 93.4540088532154 -13.663902253982105, 93.64237070532036 -13.374527866909407 M93.64237070532036 -13.374527866909407 C93.95905156613267 -12.812228931122716, 94.275732426945 -12.249929995336025, 94.4539495002064 -11.93348753532484 M93.64237070532036 -13.374527866909407 C93.9030229321948 -12.911713444193806, 94.16367515906926 -12.448899021478205, 94.4539495002064 -11.93348753532484 M94.4539495002064 -11.93348753532484 C94.64704569930886 -11.53251914629181, 94.8401418984113 -11.131550757258779, 95.17153304837109 -10.443409943732584 M94.4539495002064 -11.93348753532484 C94.73292346033132 -11.354192138038945, 95.01189742045624 -10.774896740753048, 95.17153304837109 -10.443409943732584 M95.17153304837109 -10.443409943732584 C95.30047991114736 -10.12490869965719, 95.42942677392364 -9.806407455581796, 95.79217264509381 -8.910418140577123 M95.17153304837109 -10.443409943732584 C95.35617181052864 -9.987348631455816, 95.54081057268618 -9.531287319179048, 95.79217264509381 -8.910418140577123 M95.79217264509381 -8.910418140577123 C95.94489570347453 -8.450440621849271, 96.09761876185524 -7.990463103121419, 96.3133179491449 -7.340811518003323 M95.79217264509381 -8.910418140577123 C95.95154839553764 -8.430403773317694, 96.11092414598147 -7.950389406058265, 96.3133179491449 -7.340811518003323 M96.3133179491449 -7.340811518003323 C96.46048509423773 -6.779599411120215, 96.60765223933056 -6.2183873042371065, 96.73282746268467 -5.741039926302914 M96.3133179491449 -7.340811518003323 C96.41152267463329 -6.966314337518837, 96.50972740012168 -6.5918171570343524, 96.73282746268467 -5.741039926302914 M96.73282746268467 -5.741039926302914 C96.8346370090308 -5.2182694232708, 96.93644655537692 -4.695498920238686, 97.04897733113748 -4.117677170096137 M96.73282746268467 -5.741039926302914 C96.80839120238082 -5.3530360933652155, 96.88395494207698 -4.965032260427517, 97.04897733113748 -4.117677170096137 M97.04897733113748 -4.117677170096137 C97.12978411586533 -3.4909557048513453, 97.2105909005932 -2.864234239606554, 97.26046842687991 -2.4773939951584394 M97.04897733113748 -4.117677170096137 C97.10017929710803 -3.720564833000373, 97.15138126307858 -3.323452495904609, 97.26046842687991 -2.4773939951584394 M97.26046842687991 -2.4773939951584394 C97.2891858965211 -2.0300962251726107, 97.3179033661623 -1.5827984551867822, 97.36643168763487 -0.8269306768952902 M97.26046842687991 -2.4773939951584394 C97.29677357528232 -1.9119120038026716, 97.33307872368472 -1.346430012446904, 97.36643168763487 -0.8269306768952902 M97.36643168763487 -0.8269306768952902 C97.36643168763487 -0.3815617160463452, 97.36643168763487 0.0638072448025998, 97.36643168763487 0.826930676895284 M97.36643168763487 -0.8269306768952902 C97.36643168763487 -0.2357251876404386, 97.36643168763487 0.355480301614413, 97.36643168763487 0.826930676895284 M97.36643168763487 0.826930676895284 C97.33952765137748 1.2459827581513216, 97.31262361512009 1.665034839407359, 97.26046842687991 2.4773939951584216 M97.36643168763487 0.826930676895284 C97.3315012262292 1.371000808649605, 97.29657076482353 1.915070940403926, 97.26046842687991 2.4773939951584216 M97.26046842687991 2.4773939951584216 C97.2060308537064 2.8996010627775055, 97.15159328053288 3.3218081303965894, 97.04897733113748 4.117677170096119 M97.26046842687991 2.4773939951584216 C97.17834096703308 3.1143583558290957, 97.09621350718626 3.75132271649977, 97.04897733113748 4.117677170096119 M97.04897733113748 4.117677170096119 C96.95930041014725 4.57814920615698, 96.86962348915702 5.0386212422178405, 96.73282746268467 5.741039926302909 M97.04897733113748 4.117677170096119 C96.98129074041063 4.465233507912453, 96.91360414968379 4.812789845728786, 96.73282746268467 5.741039926302909 M96.73282746268467 5.741039926302909 C96.60625728951251 6.223706852468399, 96.47968711634036 6.706373778633888, 96.3133179491449 7.340811518003306 M96.73282746268467 5.741039926302909 C96.60407443161778 6.232031035677615, 96.47532140055088 6.723022145052321, 96.3133179491449 7.340811518003306 M96.3133179491449 7.340811518003306 C96.20039995494533 7.680902525493307, 96.08748196074573 8.020993532983308, 95.79217264509383 8.910418140577105 M96.3133179491449 7.340811518003306 C96.13625722672303 7.874090203142974, 95.95919650430116 8.407368888282642, 95.79217264509383 8.910418140577105 M95.79217264509383 8.910418140577105 C95.56888642543744 9.461939420073762, 95.34560020578105 10.01346069957042, 95.17153304837109 10.443409943732577 M95.79217264509383 8.910418140577105 C95.62296867981807 9.328355206144344, 95.45376471454232 9.746292271711585, 95.17153304837109 10.443409943732577 M95.17153304837109 10.443409943732577 C95.01013089507867 10.778564968497118, 94.84872874178626 11.11371999326166, 94.4539495002064 11.933487535324835 M95.17153304837109 10.443409943732577 C94.91320212873454 10.979839625754071, 94.654871209098 11.516269307775563, 94.4539495002064 11.933487535324835 M94.4539495002064 11.933487535324835 C94.1957492995269 12.391948137236753, 93.93754909884738 12.850408739148671, 93.64237070532037 13.374527866909402 M94.4539495002064 11.933487535324835 C94.14872518971944 12.475444205907351, 93.84350087923248 13.017400876489868, 93.64237070532037 13.374527866909402 M93.64237070532037 13.374527866909402 C93.28345814290203 13.925913944301671, 92.92454558048368 14.47730002169394, 92.74013161506429 14.760609394661596 M93.64237070532037 13.374527866909402 C93.29789981700799 13.903727654742442, 92.95342892869559 14.432927442575481, 92.74013161506429 14.760609394661596 M92.74013161506429 14.760609394661596 C92.44269080696972 15.159152980093243, 92.14524999887516 15.557696565524889, 91.75093972338968 16.086036412270353 M92.74013161506429 14.760609394661596 C92.41545206153182 15.195650417479273, 92.09077250799936 15.630691440296951, 91.75093972338968 16.086036412270353 M91.75093972338968 16.086036412270353 C91.45749547868759 16.430732719547976, 91.16405123398549 16.7754290268256, 90.67885983196045 17.345362455817092 M91.75093972338968 16.086036412270353 C91.53261626745488 16.34249156656794, 91.31429281152008 16.598946720865523, 90.67885983196045 17.345362455817092 M90.67885983196045 17.345362455817092 C90.32377583291319 17.712015837771887, 89.96869183386592 18.07866921972668, 89.52829734701088 18.533412684464306 M90.67885983196045 17.345362455817092 C90.2297756769449 17.80907871636548, 89.78069152192933 18.272794976913865, 89.52829734701088 18.533412684464306 M89.52829734701088 18.533412684464306 C89.09584318622849 18.926156111176784, 88.66338902544611 19.318899537889262, 88.30398017658653 19.64530514498649 M89.52829734701088 18.533412684464306 C89.0466452869181 18.97083634162539, 88.56499322682534 19.408259998786473, 88.30398017658653 19.64530514498649 M88.30398017658653 19.64530514498649 C87.87705092032627 19.985769865789408, 87.450121664066 20.32623458659232, 87.01093930255584 20.676470832763208 M88.30398017658653 19.64530514498649 C88.00844616628548 19.880985653711278, 87.71291215598443 20.116666162436065, 87.01093930255584 20.676470832763208 M87.01093930255584 20.676470832763208 C86.73857419716414 20.86646093978908, 86.46620909177243 21.05645104681495, 85.65448810722665 21.622672466799003 M87.01093930255584 20.676470832763208 C86.69461600987651 20.897124268321665, 86.37829271719718 21.117777703880122, 85.65448810722665 21.622672466799003 M85.65448810722665 21.622672466799003 C85.2919933666988 21.842418908762532, 84.92949862617097 22.06216535072606, 84.24020053951841 22.48002190162003 M85.65448810722665 21.622672466799003 C85.15487203626674 21.92554266508484, 84.65525596530681 22.22841286337068, 84.24020053951841 22.48002190162003 M84.24020053951841 22.48002190162003 C83.81192810717306 22.703451355253016, 83.38365567482771 22.926880808886, 82.77388821041058 23.244996104497716 M84.24020053951841 22.48002190162003 C83.6618897118732 22.781726289976774, 83.08357888422799 23.083430678333517, 82.77388821041058 23.244996104497716 M82.77388821041058 23.244996104497716 C82.23181372359927 23.484956399740753, 81.68973923678797 23.72491669498379, 81.26157651178644 23.914451632345994 M82.77388821041058 23.244996104497716 C82.23876618158535 23.481878752827658, 81.7036441527601 23.7187614011576, 81.26157651178644 23.914451632345994 M81.26157651178644 23.914451632345994 C80.80058264650114 24.084101636151562, 80.33958878121584 24.253751639957134, 79.70947985680553 24.485637548803172 M81.26157651178644 23.914451632345994 C80.9298188823419 24.036541506715494, 80.59806125289737 24.158631381084994, 79.70947985680553 24.485637548803172 M79.70947985680553 24.485637548803172 C79.18868351193615 24.640207170244604, 78.66788716706677 24.79477679168604, 78.12397614354681 24.95620672841954 M79.70947985680553 24.485637548803172 C79.1575477468982 24.649448101872903, 78.60561563699089 24.813258654942633, 78.12397614354681 24.95620672841954 M78.12397614354681 24.95620672841954 C77.71614277529495 25.04929203336158, 77.30830940704311 25.14237733830362, 76.51158054685754 25.324225501499278 M78.12397614354681 24.95620672841954 C77.56085210408892 25.084736115698025, 76.99772806463103 25.21326550297651, 76.51158054685754 25.324225501499278 M76.51158054685754 25.324225501499278 C76.0378146925374 25.400820290716688, 75.56404883821723 25.477415079934097, 74.87891874610233 25.588181599964017 M76.51158054685754 25.324225501499278 C75.89947229743139 25.42318641629613, 75.28736404800522 25.52214733109298, 74.87891874610233 25.588181599964017 M74.87891874610233 25.588181599964017 C74.54399728463822 25.62049107054947, 74.20907582317413 25.652800541134923, 73.23269969882529 25.746990371586765 M74.87891874610233 25.588181599964017 C74.37785638816878 25.636518483018214, 73.87679403023522 25.684855366072416, 73.23269969882529 25.746990371586765 M73.23269969882529 25.746990371586765 C72.79753027180166 25.760945408105506, 72.36236084477802 25.77490044462425, 71.57968807220459 25.799999237060547 M73.23269969882529 25.746990371586765 C72.57993666097215 25.76792321168454, 71.92717362311902 25.788856051782314, 71.57968807220459 25.799999237060547 M71.57968807220459 25.799999237060547 C71.57968807220459 25.799999237060547, 71.57968807220459 25.799999237060547, 71.57968807220459 25.799999237060547 M71.57968807220459 25.799999237060547 C71.57968807220459 25.799999237060547, 71.57968807220459 25.799999237060547, 71.57968807220459 25.799999237060547 M71.57968807220459 25.799999237060547 C27.389807547486335 25.799999237060547, -16.80007297723192 25.799999237060547, -71.57968807220459 25.799999237060547 M71.57968807220459 25.799999237060547 C19.498049334491043 25.799999237060547, -32.583589403222504 25.799999237060547, -71.57968807220459 25.799999237060547 M-71.57968807220459 25.799999237060547 C-72.15457613872633 25.781563695718933, -72.72946420524805 25.76312815437732, -73.23269969882527 25.746990371586765 M-71.57968807220459 25.799999237060547 C-71.92360293622664 25.788970556761033, -72.26751780024871 25.77794187646152, -73.23269969882527 25.746990371586765 M-73.23269969882527 25.746990371586765 C-73.59525206906508 25.71201538046275, -73.95780443930488 25.677040389338735, -74.87891874610231 25.588181599964017 M-73.23269969882527 25.746990371586765 C-73.76599993252087 25.69554353942952, -74.29930016621648 25.644096707272272, -74.87891874610231 25.588181599964017 M-74.87891874610231 25.588181599964017 C-75.43567890839454 25.498168934664154, -75.99243907068677 25.40815626936429, -76.51158054685753 25.324225501499278 M-74.87891874610231 25.588181599964017 C-75.38924294309321 25.505676341417786, -75.89956714008409 25.423171082871555, -76.51158054685753 25.324225501499278 M-76.51158054685753 25.324225501499278 C-76.95694171647227 25.22257472078795, -77.402302886087 25.120923940076622, -78.12397614354678 24.956206728419545 M-76.51158054685753 25.324225501499278 C-77.0943647576979 25.19120880839735, -77.67714896853828 25.058192115295423, -78.12397614354678 24.956206728419545 M-78.12397614354678 24.956206728419545 C-78.68424537561663 24.78992176125443, -79.24451460768647 24.623636794089315, -79.7094798568055 24.485637548803183 M-78.12397614354678 24.956206728419545 C-78.6858406616167 24.789448288743436, -79.24770517968659 24.62268984906733, -79.7094798568055 24.485637548803183 M-79.7094798568055 24.485637548803183 C-80.17563883069927 24.314086737283958, -80.64179780459304 24.142535925764733, -81.26157651178644 23.914451632345997 M-79.7094798568055 24.485637548803183 C-80.3197494855446 24.26105268415659, -80.9300191142837 24.036467819509994, -81.26157651178644 23.914451632345997 M-81.26157651178644 23.914451632345997 C-81.77637408159374 23.68656601911964, -82.29117165140104 23.45868040589328, -82.77388821041056 23.244996104497723 M-81.26157651178644 23.914451632345997 C-81.61502327958304 23.757991232868292, -81.96847004737963 23.601530833390587, -82.77388821041056 23.244996104497723 M-82.77388821041056 23.244996104497723 C-83.21748790829372 23.01357042625125, -83.66108760617688 22.78214474800477, -84.2402005395184 22.480021901620038 M-82.77388821041056 23.244996104497723 C-83.30119383880785 22.969901095918235, -83.82849946720513 22.694806087338748, -84.2402005395184 22.480021901620038 M-84.2402005395184 22.480021901620038 C-84.5942555330552 22.26539168387993, -84.94831052659202 22.05076146613982, -85.65448810722663 21.622672466799017 M-84.2402005395184 22.480021901620038 C-84.66071079070964 22.225106116155374, -85.08122104190087 21.970190330690706, -85.65448810722663 21.622672466799017 M-85.65448810722663 21.622672466799017 C-85.92626720262348 21.433091134977595, -86.19804629802033 21.243509803156176, -87.01093930255584 20.67647083276321 M-85.65448810722663 21.622672466799017 C-85.94610889831762 21.419250426994527, -86.23772968940861 21.215828387190037, -87.01093930255584 20.67647083276321 M-87.01093930255584 20.67647083276321 C-87.28910581563548 20.454640440903987, -87.56727232871513 20.232810049044758, -88.3039801765865 19.645305144986512 M-87.01093930255584 20.67647083276321 C-87.3350367839987 20.41801171590872, -87.65913426544157 20.159552599054226, -88.3039801765865 19.645305144986512 M-88.3039801765865 19.645305144986512 C-88.71651611559558 19.270650920281284, -89.12905205460466 18.895996695576056, -89.52829734701086 18.533412684464324 M-88.3039801765865 19.645305144986512 C-88.72801889936648 19.260204396407545, -89.15205762214644 18.875103647828574, -89.52829734701086 18.533412684464324 M-89.52829734701086 18.533412684464324 C-89.78188209473143 18.27156561274786, -90.035466842452 18.009718541031393, -90.67885983196044 17.3453624558171 M-89.52829734701086 18.533412684464324 C-89.92574893863102 18.123011284733987, -90.32320053025116 17.71260988500365, -90.67885983196044 17.3453624558171 M-90.67885983196044 17.3453624558171 C-91.08784672019455 16.864943184884115, -91.49683360842864 16.384523913951128, -91.75093972338968 16.08603641227036 M-90.67885983196044 17.3453624558171 C-91.0237517637562 16.940232767822938, -91.36864369555195 16.535103079828776, -91.75093972338968 16.08603641227036 M-91.75093972338968 16.08603641227036 C-92.05798400135471 15.674625052106384, -92.36502827931974 15.263213691942406, -92.74013161506427 14.760609394661614 M-91.75093972338968 16.08603641227036 C-92.11087542446262 15.60375536364955, -92.47081112553556 15.121474315028738, -92.74013161506427 14.760609394661614 M-92.74013161506427 14.760609394661614 C-92.93222365153207 14.465504442712849, -93.12431568799987 14.170399490764083, -93.64237070532036 13.374527866909418 M-92.74013161506427 14.760609394661614 C-92.94858338421834 14.440371500103414, -93.1570351533724 14.120133605545213, -93.64237070532036 13.374527866909418 M-93.64237070532036 13.374527866909418 C-93.83989548773003 13.023802614187915, -94.03742027013972 12.673077361466413, -94.45394950020639 11.933487535324842 M-93.64237070532036 13.374527866909418 C-93.86311368513044 12.98257635360606, -94.08385666494054 12.590624840302702, -94.45394950020639 11.933487535324842 M-94.45394950020639 11.933487535324842 C-94.69372086619776 11.435597163558384, -94.93349223218914 10.937706791791928, -95.17153304837109 10.443409943732586 M-94.45394950020639 11.933487535324842 C-94.6911976248155 11.44083672827739, -94.9284457494246 10.948185921229939, -95.17153304837109 10.443409943732586 M-95.17153304837109 10.443409943732586 C-95.39166030591616 9.899691361725234, -95.61178756346125 9.35597277971788, -95.79217264509381 8.910418140577127 M-95.17153304837109 10.443409943732586 C-95.40953642803171 9.855536994488508, -95.64753980769235 9.26766404524443, -95.79217264509381 8.910418140577127 M-95.79217264509381 8.910418140577127 C-95.89820601392873 8.591062527769441, -96.00423938276363 8.271706914961756, -96.3133179491449 7.340811518003316 M-95.79217264509381 8.910418140577127 C-95.99141749341993 8.310324402774334, -96.19066234174605 7.710230664971541, -96.3133179491449 7.340811518003316 M-96.3133179491449 7.340811518003316 C-96.46200275181519 6.773811925020409, -96.61068755448548 6.206812332037502, -96.73282746268467 5.741039926302918 M-96.3133179491449 7.340811518003316 C-96.43289914842008 6.884796578347496, -96.55248034769524 6.428781638691676, -96.73282746268467 5.741039926302918 M-96.73282746268467 5.741039926302918 C-96.80938131115913 5.347952094048213, -96.88593515963358 4.954864261793508, -97.04897733113748 4.117677170096139 M-96.73282746268467 5.741039926302918 C-96.85535328105058 5.111895744834879, -96.97787909941648 4.48275156336684, -97.04897733113748 4.117677170096139 M-97.04897733113748 4.117677170096139 C-97.12100499285053 3.5590448493202964, -97.19303265456358 3.0004125285444534, -97.26046842687991 2.477393995158454 M-97.04897733113748 4.117677170096139 C-97.10908523532225 3.651492134887293, -97.16919313950702 3.1853070996784463, -97.26046842687991 2.477393995158454 M-97.26046842687991 2.477393995158454 C-97.28694933080921 2.0649325414587345, -97.3134302347385 1.6524710877590152, -97.36643168763487 0.8269306768952934 M-97.26046842687991 2.477393995158454 C-97.30279617845932 1.8181050979630953, -97.34512393003872 1.1588162007677365, -97.36643168763487 0.8269306768952934 M-97.36643168763487 0.8269306768952934 C-97.36643168763487 0.17404324396021542, -97.36643168763487 -0.4788441889748626, -97.36643168763487 -0.8269306768952809 M-97.36643168763487 0.8269306768952934 C-97.36643168763487 0.2565729628402078, -97.36643168763487 -0.3137847512148778, -97.36643168763487 -0.8269306768952809 M-97.36643168763487 -0.8269306768952809 C-97.34422069682846 -1.1728847870942283, -97.32200970602204 -1.5188388972931757, -97.26046842687991 -2.4773939951584185 M-97.36643168763487 -0.8269306768952809 C-97.34139115777491 -1.2169571418160494, -97.31635062791496 -1.6069836067368177, -97.26046842687991 -2.4773939951584185 M-97.26046842687991 -2.4773939951584185 C-97.20752148759634 -2.8880400006860087, -97.15457454831278 -3.2986860062135994, -97.04897733113748 -4.117677170096128 M-97.26046842687991 -2.4773939951584185 C-97.19464177604937 -2.987932500057622, -97.12881512521884 -3.4984710049568246, -97.04897733113748 -4.117677170096128 M-97.04897733113748 -4.117677170096128 C-96.95792539617482 -4.585209612296148, -96.86687346121214 -5.052742054496168, -96.73282746268467 -5.741039926302906 M-97.04897733113748 -4.117677170096128 C-96.95885259836857 -4.5804486249954754, -96.86872786559965 -5.043220079894823, -96.73282746268467 -5.741039926302906 M-96.73282746268467 -5.741039926302906 C-96.62701164102725 -6.144561515149814, -96.52119581936985 -6.5480831039967216, -96.3133179491449 -7.340811518003303 M-96.73282746268467 -5.741039926302906 C-96.63629326708622 -6.109166652304827, -96.53975907148777 -6.477293378306748, -96.3133179491449 -7.340811518003303 M-96.3133179491449 -7.340811518003303 C-96.11675749567259 -7.932820286206672, -95.92019704220029 -8.524829054410041, -95.79217264509383 -8.910418140577093 M-96.3133179491449 -7.340811518003303 C-96.15232578629005 -7.825694261904418, -95.99133362343518 -8.310577005805532, -95.79217264509383 -8.910418140577093 M-95.79217264509383 -8.910418140577093 C-95.57267413091013 -9.452583714325904, -95.35317561672643 -9.994749288074713, -95.17153304837109 -10.443409943732574 M-95.79217264509383 -8.910418140577093 C-95.5512861758531 -9.50541237682478, -95.31039970661234 -10.100406613072467, -95.17153304837109 -10.443409943732574 M-95.17153304837109 -10.443409943732574 C-94.97152591883975 -10.858729027671435, -94.77151878930839 -11.274048111610297, -94.4539495002064 -11.933487535324831 M-95.17153304837109 -10.443409943732574 C-94.99298643809324 -10.814165800259977, -94.8144398278154 -11.18492165678738, -94.4539495002064 -11.933487535324831 M-94.4539495002064 -11.933487535324831 C-94.28349288800341 -12.236150510894907, -94.11303627580041 -12.538813486464983, -93.64237070532036 -13.374527866909409 M-94.4539495002064 -11.933487535324831 C-94.28802393715722 -12.228105174303838, -94.12209837410803 -12.522722813282847, -93.64237070532036 -13.374527866909409 M-93.64237070532036 -13.374527866909409 C-93.32864313841918 -13.856497657317115, -93.014915571518 -14.338467447724824, -92.74013161506429 -14.760609394661605 M-93.64237070532036 -13.374527866909409 C-93.35281240948102 -13.81936716660813, -93.06325411364166 -14.26420646630685, -92.74013161506429 -14.760609394661605 M-92.74013161506429 -14.760609394661605 C-92.42699481482525 -15.180184179632553, -92.1138580145862 -15.599758964603502, -91.75093972338968 -16.086036412270353 M-92.74013161506429 -14.760609394661605 C-92.49241302674807 -15.092529735377681, -92.24469443843185 -15.424450076093757, -91.75093972338968 -16.086036412270353 M-91.75093972338968 -16.086036412270353 C-91.47467660409727 -16.410550792008024, -91.19841348480486 -16.7350651717457, -90.67885983196045 -17.345362455817092 M-91.75093972338968 -16.086036412270353 C-91.50931660877171 -16.36986067144533, -91.26769349415373 -16.653684930620308, -90.67885983196045 -17.345362455817092 M-90.67885983196045 -17.345362455817092 C-90.31149217541326 -17.724699722647593, -89.94412451886608 -18.104036989478097, -89.52829734701089 -18.5334126844643 M-90.67885983196045 -17.345362455817092 C-90.39205122338439 -17.641515891596573, -90.1052426148083 -17.937669327376053, -89.52829734701089 -18.5334126844643 M-89.52829734701089 -18.5334126844643 C-89.23013250635977 -18.80419810373427, -88.93196766570864 -19.074983523004242, -88.30398017658653 -19.645305144986487 M-89.52829734701089 -18.5334126844643 C-89.04563178142551 -18.971756780497877, -88.56296621584015 -19.410100876531455, -88.30398017658653 -19.645305144986487 M-88.30398017658653 -19.645305144986487 C-87.99774271457372 -19.8895213716206, -87.69150525256089 -20.13373759825471, -87.01093930255585 -20.676470832763204 M-88.30398017658653 -19.645305144986487 C-88.02237853102395 -19.86987496358815, -87.74077688546136 -20.094444782189807, -87.01093930255585 -20.676470832763204 M-87.01093930255585 -20.676470832763204 C-86.6189308675357 -20.949918947261615, -86.22692243251555 -21.223367061760023, -85.65448810722665 -21.622672466799 M-87.01093930255585 -20.676470832763204 C-86.68536476753513 -20.903577534499192, -86.35979023251441 -21.130684236235176, -85.65448810722665 -21.622672466799 M-85.65448810722665 -21.622672466799 C-85.10612112696603 -21.955095752795067, -84.5577541467054 -22.287519038791135, -84.24020053951841 -22.480021901620027 M-85.65448810722665 -21.622672466799 C-85.3326423978862 -21.81777722717651, -85.01079668854575 -22.01288198755402, -84.24020053951841 -22.480021901620027 M-84.24020053951841 -22.480021901620027 C-83.76004308184726 -22.73051973973154, -83.27988562417609 -22.981017577843055, -82.77388821041058 -23.244996104497716 M-84.24020053951841 -22.480021901620027 C-83.78516200408826 -22.717415214087847, -83.33012346865812 -22.954808526555663, -82.77388821041058 -23.244996104497716 M-82.77388821041058 -23.244996104497716 C-82.42099992231931 -23.401209281576584, -82.06811163422805 -23.557422458655452, -81.26157651178646 -23.91445163234599 M-82.77388821041058 -23.244996104497716 C-82.3216934913143 -23.445169292761886, -81.86949877221805 -23.645342481026056, -81.26157651178646 -23.91445163234599 M-81.26157651178646 -23.91445163234599 C-80.8253633927838 -24.07498209244884, -80.38915027378114 -24.235512552551686, -79.70947985680553 -24.485637548803172 M-81.26157651178646 -23.91445163234599 C-80.90056787035597 -24.04730614951971, -80.53955922892548 -24.18016066669343, -79.70947985680553 -24.485637548803172 M-79.70947985680553 -24.485637548803172 C-79.37831943966059 -24.58392422231529, -79.04715902251564 -24.682210895827406, -78.12397614354681 -24.956206728419538 M-79.70947985680553 -24.485637548803172 C-79.28997673094892 -24.610143874540572, -78.87047360509231 -24.734650200277972, -78.12397614354681 -24.956206728419538 M-78.12397614354681 -24.956206728419538 C-77.76372391197404 -25.038431949410512, -77.40347168040127 -25.12065717040149, -76.51158054685754 -25.324225501499278 M-78.12397614354681 -24.956206728419538 C-77.66165073886177 -25.061729485083685, -77.19932533417672 -25.167252241747832, -76.51158054685754 -25.324225501499278 M-76.51158054685754 -25.324225501499278 C-76.15135378520249 -25.38246417072341, -75.79112702354742 -25.44070283994754, -74.87891874610233 -25.588181599964017 M-76.51158054685754 -25.324225501499278 C-75.93633666343354 -25.41722647148833, -75.36109278000953 -25.51022744147738, -74.87891874610233 -25.588181599964017 M-74.87891874610233 -25.588181599964017 C-74.50265946164399 -25.62447888061772, -74.12640017718564 -25.66077616127142, -73.23269969882529 -25.746990371586765 M-74.87891874610233 -25.588181599964017 C-74.40920010105988 -25.63349479273194, -73.93948145601743 -25.678807985499866, -73.23269969882529 -25.746990371586765 M-73.23269969882529 -25.746990371586765 C-72.62857127070937 -25.766363594411793, -72.02444284259346 -25.78573681723682, -71.5796880722046 -25.799999237060547 M-73.23269969882529 -25.746990371586765 C-72.65541345280906 -25.765502817876992, -72.07812720679283 -25.784015264167223, -71.5796880722046 -25.799999237060547 M-71.5796880722046 -25.799999237060547 C-71.5796880722046 -25.799999237060547, -71.57968807220459 -25.799999237060547, -71.57968807220459 -25.799999237060547 M-71.5796880722046 -25.799999237060547 C-71.5796880722046 -25.799999237060547, -71.5796880722046 -25.799999237060547, -71.57968807220459 -25.799999237060547" stroke="#1F4870" stroke-width="1.3" fill="none" stroke-dasharray="0 0" style="fill:#2E5A88 !important;stroke:#1F4870 !important"></path></g><g class="label" style="color:#ffffff !important" transform="translate(0, -18.299999237060547)"><rect></rect><g><rect class="background" style="stroke: none"></rect><text y="-10.1" style="fill:#404040 !important"><tspan class="text-outer-tspan row" x="0" y="-0.1em" dy="1.1em"><tspan font-style="normal" class="text-inner-tspan" font-weight="normal">Pagesmith</tspan></tspan><tspan class="text-outer-tspan row" x="0" y="1em" dy="1.1em"><tspan font-style="normal" class="text-inner-tspan" font-weight="normal">seven</tspan><tspan font-style="normal" class="text-inner-tspan" font-weight="normal"> locked</tspan><tspan font-style="normal" class="text-inner-tspan" font-weight="normal"> principles</tspan></tspan></text></g></g></g><g class="node default tenet" id="gd553c164-5b82-4e91-a795-0f04fca8ec49-dark-flowchart-filesystem-2" data-look="classic" transform="translate(379.0141143798828, 58.900001525878906)"><rect class="basic label-container" style="fill:#1F6E68 !important;stroke:#155752 !important" x="-124.3828125" y="-50.900001525878906" width="248.765625" height="101.80000305175781"></rect><g class="label" style="color:#ffffff !important" transform="translate(0, -35.900001525878906)"><rect></rect><g><rect class="background" style="stroke: none"></rect><text y="-10.1" style="fill:#404040 !important"><tspan class="text-outer-tspan row" x="0" y="-0.1em" dy="1.1em"><tspan font-style="normal" class="text-inner-tspan" font-weight="normal">1.</tspan><tspan font-style="normal" class="text-inner-tspan" font-weight="normal"> Filesystem-first</tspan></tspan><tspan class="text-outer-tspan row" x="0" y="1em" dy="1.1em"><tspan font-style="normal" class="text-inner-tspan" font-weight="normal">source</tspan><tspan font-style="normal" class="text-inner-tspan" font-weight="normal"> of</tspan><tspan font-style="normal" class="text-inner-tspan" font-weight="normal"> truth</tspan></tspan><tspan class="text-outer-tspan row" x="0" y="2.1em" dy="1.1em"><tspan font-style="normal" class="text-inner-tspan" font-weight="normal">collections,</tspan><tspan font-style="normal" class="text-inner-tspan" font-weight="normal"> assets,</tspan><tspan font-style="normal" class="text-inner-tspan" font-weight="normal"> nav</tspan><tspan font-style="normal" class="text-inner-tspan" font-weight="normal"> on</tspan></tspan><tspan class="text-outer-tspan row" x="0" y="3.2em" dy="1.1em"><tspan font-style="normal" class="text-inner-tspan" font-weight="normal">disk</tspan></tspan></text></g></g></g><g class="node default tenet" id="gd553c164-5b82-4e91-a795-0f04fca8ec49-dark-flowchart-boundaries-4" data-look="classic" transform="translate(379.0141143798828, 201.9000015258789)"><rect class="basic label-container" style="fill:#1F6E68 !important;stroke:#155752 !important" x="-92.7734375" y="-42.099998474121094" width="185.546875" height="84.19999694824219"></rect><g class="label" style="color:#ffffff !important" transform="translate(0, -27.099998474121094)"><rect></rect><g><rect class="background" style="stroke: none"></rect><text y="-10.1" style="fill:#404040 !important"><tspan class="text-outer-tspan row" x="0" y="-0.1em" dy="1.1em"><tspan font-style="normal" class="text-inner-tspan" font-weight="normal">2.</tspan><tspan font-style="normal" class="text-inner-tspan" font-weight="normal"> Strict</tspan><tspan font-style="normal" class="text-inner-tspan" font-weight="normal"> package</tspan></tspan><tspan class="text-outer-tspan row" x="0" y="1em" dy="1.1em"><tspan font-style="normal" class="text-inner-tspan" font-weight="normal">boundaries</tspan></tspan><tspan class="text-outer-tspan row" x="0" y="2.1em" dy="1.1em"><tspan font-style="normal" class="text-inner-tspan" font-weight="normal">core</tspan><tspan font-style="normal" class="text-inner-tspan" font-weight="normal"> /</tspan><tspan font-style="normal" class="text-inner-tspan" font-weight="normal"> site</tspan><tspan font-style="normal" class="text-inner-tspan" font-weight="normal"> /</tspan><tspan font-style="normal" class="text-inner-tspan" font-weight="normal"> docs</tspan></tspan></text></g></g></g><g class="node default tenet" id="gd553c164-5b82-4e91-a795-0f04fca8ec49-dark-flowchart-validation-6" data-look="classic" transform="translate(379.0141143798828, 336.0999984741211)"><rect class="basic label-container" style="fill:#1F6E68 !important;stroke:#155752 !important" x="-117.53125" y="-42.099998474121094" width="235.0625" height="84.19999694824219"></rect><g class="label" style="color:#ffffff !important" transform="translate(0, -27.099998474121094)"><rect></rect><g><rect class="background" style="stroke: none"></rect><text y="-10.1" style="fill:#404040 !important"><tspan class="text-outer-tspan row" x="0" y="-0.1em" dy="1.1em"><tspan font-style="normal" class="text-inner-tspan" font-weight="normal">3.</tspan><tspan font-style="normal" class="text-inner-tspan" font-weight="normal"> Validation</tspan><tspan font-style="normal" class="text-inner-tspan" font-weight="normal"> before</tspan></tspan><tspan class="text-outer-tspan row" x="0" y="1em" dy="1.1em"><tspan font-style="normal" class="text-inner-tspan" font-weight="normal">render</tspan><tspan font-style="normal" class="text-inner-tspan" font-weight="normal"> or</tspan><tspan font-style="normal" class="text-inner-tspan" font-weight="normal"> runtime</tspan></tspan><tspan class="text-outer-tspan row" x="0" y="2.1em" dy="1.1em"><tspan font-style="normal" class="text-inner-tspan" font-weight="normal">Zod</tspan><tspan font-style="normal" class="text-inner-tspan" font-weight="normal"> +</tspan><tspan font-style="normal" class="text-inner-tspan" font-weight="normal"> content</tspan><tspan font-style="normal" class="text-inner-tspan" font-weight="normal"> validators</tspan></tspan></text></g></g></g><g class="node default tenet" id="gd553c164-5b82-4e91-a795-0f04fca8ec49-dark-flowchart-vite-8" data-look="classic" transform="translate(379.0141143798828, 470.2999954223633)"><rect class="basic label-container" style="fill:#1F6E68 !important;stroke:#155752 !important" x="-102.46875" y="-42.099998474121094" width="204.9375" height="84.19999694824219"></rect><g class="label" style="color:#ffffff !important" transform="translate(0, -27.099998474121094)"><rect></rect><g><rect class="background" style="stroke: none"></rect><text y="-10.1" style="fill:#404040 !important"><tspan class="text-outer-tspan row" x="0" y="-0.1em" dy="1.1em"><tspan font-style="normal" class="text-inner-tspan" font-weight="normal">4.</tspan><tspan font-style="normal" class="text-inner-tspan" font-weight="normal"> Vite-native</tspan></tspan><tspan class="text-outer-tspan row" x="0" y="1em" dy="1.1em"><tspan font-style="normal" class="text-inner-tspan" font-weight="normal">execution</tspan></tspan><tspan class="text-outer-tspan row" x="0" y="2.1em" dy="1.1em"><tspan font-style="normal" class="text-inner-tspan" font-weight="normal">no</tspan><tspan font-style="normal" class="text-inner-tspan" font-weight="normal"> custom</tspan><tspan font-style="normal" class="text-inner-tspan" font-weight="normal"> toolchain</tspan></tspan></text></g></g></g><g class="node default tenet" id="gd553c164-5b82-4e91-a795-0f04fca8ec49-dark-flowchart-progressive-10" data-look="classic" transform="translate(379.0141143798828, 604.4999923706055)"><rect class="basic label-container" style="fill:#1F6E68 !important;stroke:#155752 !important" x="-111.3359375" y="-42.099998474121094" width="222.671875" height="84.19999694824219"></rect><g class="label" style="color:#ffffff !important" transform="translate(0, -27.099998474121094)"><rect></rect><g><rect class="background" style="stroke: none"></rect><text y="-10.1" style="fill:#404040 !important"><tspan class="text-outer-tspan row" x="0" y="-0.1em" dy="1.1em"><tspan font-style="normal" class="text-inner-tspan" font-weight="normal">5.</tspan><tspan font-style="normal" class="text-inner-tspan" font-weight="normal"> Progressive</tspan></tspan><tspan class="text-outer-tspan row" x="0" y="1em" dy="1.1em"><tspan font-style="normal" class="text-inner-tspan" font-weight="normal">enhancement</tspan></tspan><tspan class="text-outer-tspan row" x="0" y="2.1em" dy="1.1em"><tspan font-style="normal" class="text-inner-tspan" font-weight="normal">HTML</tspan><tspan font-style="normal" class="text-inner-tspan" font-weight="normal"> first,</tspan><tspan font-style="normal" class="text-inner-tspan" font-weight="normal"> JS</tspan><tspan font-style="normal" class="text-inner-tspan" font-weight="normal"> optional</tspan></tspan></text></g></g></g><g class="node default tenet" id="gd553c164-5b82-4e91-a795-0f04fca8ec49-dark-flowchart-config-12" data-look="classic" transform="translate(379.0141143798828, 738.6999893188477)"><rect class="basic label-container" style="fill:#1F6E68 !important;stroke:#155752 !important" x="-110.03125" y="-42.099998474121094" width="220.0625" height="84.19999694824219"></rect><g class="label" style="color:#ffffff !important" transform="translate(0, -27.099998474121094)"><rect></rect><g><rect class="background" style="stroke: none"></rect><text y="-10.1" style="fill:#404040 !important"><tspan class="text-outer-tspan row" x="0" y="-0.1em" dy="1.1em"><tspan font-style="normal" class="text-inner-tspan" font-weight="normal">6.</tspan><tspan font-style="normal" class="text-inner-tspan" font-weight="normal"> Configuration</tspan></tspan><tspan class="text-outer-tspan row" x="0" y="1em" dy="1.1em"><tspan font-style="normal" class="text-inner-tspan" font-weight="normal">before</tspan><tspan font-style="normal" class="text-inner-tspan" font-weight="normal"> customization</tspan></tspan><tspan class="text-outer-tspan row" x="0" y="2.1em" dy="1.1em"><tspan font-style="normal" class="text-inner-tspan" font-weight="normal">JSON5</tspan><tspan font-style="normal" class="text-inner-tspan" font-weight="normal"> over</tspan><tspan font-style="normal" class="text-inner-tspan" font-weight="normal"> TypeScript</tspan></tspan></text></g></g></g><g class="node default tenet" id="gd553c164-5b82-4e91-a795-0f04fca8ec49-dark-flowchart-parity-14" data-look="classic" transform="translate(379.0141143798828, 872.8999862670898)"><rect class="basic label-container" style="fill:#1F6E68 !important;stroke:#155752 !important" x="-126.28125" y="-42.099998474121094" width="252.5625" height="84.19999694824219"></rect><g class="label" style="color:#ffffff !important" transform="translate(0, -27.099998474121094)"><rect></rect><g><rect class="background" style="stroke: none"></rect><text y="-10.1" style="fill:#404040 !important"><tspan class="text-outer-tspan row" x="0" y="-0.1em" dy="1.1em"><tspan font-style="normal" class="text-inner-tspan" font-weight="normal">7.</tspan><tspan font-style="normal" class="text-inner-tspan" font-weight="normal"> Docs,</tspan><tspan font-style="normal" class="text-inner-tspan" font-weight="normal"> examples,</tspan></tspan><tspan class="text-outer-tspan row" x="0" y="1em" dy="1.1em"><tspan font-style="normal" class="text-inner-tspan" font-weight="normal">AI</tspan><tspan font-style="normal" class="text-inner-tspan" font-weight="normal"> guidance</tspan><tspan font-style="normal" class="text-inner-tspan" font-weight="normal"> move</tspan><tspan font-style="normal" class="text-inner-tspan" font-weight="normal"> together</tspan></tspan><tspan class="text-outer-tspan row" x="0" y="2.1em" dy="1.1em"><tspan font-style="normal" class="text-inner-tspan" font-weight="normal">same</tspan><tspan font-style="normal" class="text-inner-tspan" font-weight="normal"> branch,</tspan><tspan font-style="normal" class="text-inner-tspan" font-weight="normal"> same</tspan><tspan font-style="normal" class="text-inner-tspan" font-weight="normal"> PR</tspan></tspan></text></g></g></g></g></g></g><defs><filter id="gd553c164-5b82-4e91-a795-0f04fca8ec49-dark-drop-shadow" height="130%" width="130%"><feDropShadow dx="4" dy="4" stdDeviation="0" flood-opacity="0.06" flood-color="#000000"></feDropShadow></filter></defs><defs><filter id="gd553c164-5b82-4e91-a795-0f04fca8ec49-dark-drop-shadow-small" height="150%" width="150%"><feDropShadow dx="2" dy="2" stdDeviation="0" flood-opacity="0.06" flood-color="#000000"></feDropShadow></filter></defs><linearGradient id="gd553c164-5b82-4e91-a795-0f04fca8ec49-dark-gradient" gradientUnits="objectBoundingBox" x1="0%" y1="0%" x2="100%" y2="0%"><stop offset="0%" stop-color="#555555" stop-opacity="1"></stop><stop offset="100%" stop-color="#555555" stop-opacity="1"></stop></linearGradient></svg>