<svg id="gf8a3af2c-a55a-44cc-9ac4-7a6c0062446b-light" width="100%" xmlns="http://www.w3.org/2000/svg" xmlns:xlink="http://www.w3.org/1999/xlink" class="flowchart" style="max-width: 513.2953491210938px;" viewBox="0 0 513.2953491210938 923" role="graphics-document document" aria-roledescription="flowchart-v2"><style>#gf8a3af2c-a55a-44cc-9ac4-7a6c0062446b-light{font-family:"trebuchet ms",verdana,arial,sans-serif;font-size:16px;fill:#333;}@keyframes edge-animation-frame{from{stroke-dashoffset:0;}}@keyframes dash{to{stroke-dashoffset:0;}}#gf8a3af2c-a55a-44cc-9ac4-7a6c0062446b-light .edge-animation-slow{stroke-dasharray:9,5!important;stroke-dashoffset:900;animation:dash 50s linear infinite;stroke-linecap:round;}#gf8a3af2c-a55a-44cc-9ac4-7a6c0062446b-light .edge-animation-fast{stroke-dasharray:9,5!important;stroke-dashoffset:900;animation:dash 20s linear infinite;stroke-linecap:round;}#gf8a3af2c-a55a-44cc-9ac4-7a6c0062446b-light .error-icon{fill:#552222;}#gf8a3af2c-a55a-44cc-9ac4-7a6c0062446b-light .error-text{fill:#552222;stroke:#552222;}#gf8a3af2c-a55a-44cc-9ac4-7a6c0062446b-light .edge-thickness-normal{stroke-width:1px;}#gf8a3af2c-a55a-44cc-9ac4-7a6c0062446b-light .edge-thickness-thick{stroke-width:3.5px;}#gf8a3af2c-a55a-44cc-9ac4-7a6c0062446b-light .edge-pattern-solid{stroke-dasharray:0;}#gf8a3af2c-a55a-44cc-9ac4-7a6c0062446b-light .edge-thickness-invisible{stroke-width:0;fill:none;}#gf8a3af2c-a55a-44cc-9ac4-7a6c0062446b-light .edge-pattern-dashed{stroke-dasharray:3;}#gf8a3af2c-a55a-44cc-9ac4-7a6c0062446b-light .edge-pattern-dotted{stroke-dasharray:2;}#gf8a3af2c-a55a-44cc-9ac4-7a6c0062446b-light .marker{fill:#333333;stroke:#333333;}#gf8a3af2c-a55a-44cc-9ac4-7a6c0062446b-light .marker.cross{stroke:#333333;}#gf8a3af2c-a55a-44cc-9ac4-7a6c0062446b-light svg{font-family:"trebuchet ms",verdana,arial,sans-serif;font-size:16px;}#gf8a3af2c-a55a-44cc-9ac4-7a6c0062446b-light p{margin:0;}#gf8a3af2c-a55a-44cc-9ac4-7a6c0062446b-light .label{font-family:"trebuchet ms",verdana,arial,sans-serif;color:#333;}#gf8a3af2c-a55a-44cc-9ac4-7a6c0062446b-light .cluster-label text{fill:#333;}#gf8a3af2c-a55a-44cc-9ac4-7a6c0062446b-light .cluster-label span{color:#333;}#gf8a3af2c-a55a-44cc-9ac4-7a6c0062446b-light .cluster-label span p{background-color:transparent;}#gf8a3af2c-a55a-44cc-9ac4-7a6c0062446b-light .label text,#gf8a3af2c-a55a-44cc-9ac4-7a6c0062446b-light span{fill:#333;color:#333;}#gf8a3af2c-a55a-44cc-9ac4-7a6c0062446b-light .node rect,#gf8a3af2c-a55a-44cc-9ac4-7a6c0062446b-light .node circle,#gf8a3af2c-a55a-44cc-9ac4-7a6c0062446b-light .node ellipse,#gf8a3af2c-a55a-44cc-9ac4-7a6c0062446b-light .node polygon,#gf8a3af2c-a55a-44cc-9ac4-7a6c0062446b-light .node path{fill:#ECECFF;stroke:#9370DB;stroke-width:1px;}#gf8a3af2c-a55a-44cc-9ac4-7a6c0062446b-light .rough-node .label text,#gf8a3af2c-a55a-44cc-9ac4-7a6c0062446b-light .node .label text,#gf8a3af2c-a55a-44cc-9ac4-7a6c0062446b-light .image-shape .label,#gf8a3af2c-a55a-44cc-9ac4-7a6c0062446b-light .icon-shape .label{text-anchor:middle;}#gf8a3af2c-a55a-44cc-9ac4-7a6c0062446b-light .node .katex path{fill:#000;stroke:#000;stroke-width:1px;}#gf8a3af2c-a55a-44cc-9ac4-7a6c0062446b-light .rough-node .label,#gf8a3af2c-a55a-44cc-9ac4-7a6c0062446b-light .node .label,#gf8a3af2c-a55a-44cc-9ac4-7a6c0062446b-light .image-shape .label,#gf8a3af2c-a55a-44cc-9ac4-7a6c0062446b-light .icon-shape .label{text-align:center;}#gf8a3af2c-a55a-44cc-9ac4-7a6c0062446b-light .node.clickable{cursor:pointer;}#gf8a3af2c-a55a-44cc-9ac4-7a6c0062446b-light .root .anchor path{fill:#333333!important;stroke-width:0;stroke:#333333;}#gf8a3af2c-a55a-44cc-9ac4-7a6c0062446b-light .arrowheadPath{fill:#333333;}#gf8a3af2c-a55a-44cc-9ac4-7a6c0062446b-light .edgePath .path{stroke:#333333;stroke-width:1px;}#gf8a3af2c-a55a-44cc-9ac4-7a6c0062446b-light .flowchart-link{stroke:#333333;fill:none;}#gf8a3af2c-a55a-44cc-9ac4-7a6c0062446b-light .edgeLabel{background-color:rgba(232,232,232, 0.8);text-align:center;}#gf8a3af2c-a55a-44cc-9ac4-7a6c0062446b-light .edgeLabel p{background-color:rgba(232,232,232, 0.8);}#gf8a3af2c-a55a-44cc-9ac4-7a6c0062446b-light .edgeLabel rect{opacity:0.5;background-color:rgba(232,232,232, 0.8);fill:rgba(232,232,232, 0.8);}#gf8a3af2c-a55a-44cc-9ac4-7a6c0062446b-light .labelBkg{background-color:rgba(232, 232, 232, 0.5);}#gf8a3af2c-a55a-44cc-9ac4-7a6c0062446b-light .cluster rect{fill:#ffffde;stroke:#aaaa33;stroke-width:1px;}#gf8a3af2c-a55a-44cc-9ac4-7a6c0062446b-light .cluster text{fill:#333;}#gf8a3af2c-a55a-44cc-9ac4-7a6c0062446b-light .cluster span{color:#333;}#gf8a3af2c-a55a-44cc-9ac4-7a6c0062446b-light div.mermaidTooltip{position:absolute;text-align:center;max-width:200px;padding:2px;font-family:"trebuchet ms",verdana,arial,sans-serif;font-size:12px;background:hsl(80, 100%, 96.2745098039%);border:1px solid #aaaa33;border-radius:2px;pointer-events:none;z-index:100;}#gf8a3af2c-a55a-44cc-9ac4-7a6c0062446b-light .flowchartTitleText{text-anchor:middle;font-size:18px;fill:#333;}#gf8a3af2c-a55a-44cc-9ac4-7a6c0062446b-light rect.text{fill:none;stroke-width:0;}#gf8a3af2c-a55a-44cc-9ac4-7a6c0062446b-light .icon-shape,#gf8a3af2c-a55a-44cc-9ac4-7a6c0062446b-light .image-shape{background-color:rgba(232,232,232, 0.8);text-align:center;}#gf8a3af2c-a55a-44cc-9ac4-7a6c0062446b-light .icon-shape p,#gf8a3af2c-a55a-44cc-9ac4-7a6c0062446b-light .image-shape p{background-color:rgba(232,232,232, 0.8);padding:2px;}#gf8a3af2c-a55a-44cc-9ac4-7a6c0062446b-light .icon-shape .label rect,#gf8a3af2c-a55a-44cc-9ac4-7a6c0062446b-light .image-shape .label rect{opacity:0.5;background-color:rgba(232,232,232, 0.8);fill:rgba(232,232,232, 0.8);}#gf8a3af2c-a55a-44cc-9ac4-7a6c0062446b-light .label-icon{display:inline-block;height:1em;overflow:visible;vertical-align:-0.125em;}#gf8a3af2c-a55a-44cc-9ac4-7a6c0062446b-light .node .label-icon path{fill:currentColor;stroke:revert;stroke-width:revert;}#gf8a3af2c-a55a-44cc-9ac4-7a6c0062446b-light .node .neo-node{stroke:#9370DB;}#gf8a3af2c-a55a-44cc-9ac4-7a6c0062446b-light [data-look="neo"].node rect,#gf8a3af2c-a55a-44cc-9ac4-7a6c0062446b-light [data-look="neo"].cluster rect,#gf8a3af2c-a55a-44cc-9ac4-7a6c0062446b-light [data-look="neo"].node polygon{stroke:#9370DB;filter:drop-shadow(1px 2px 2px rgba(185, 185, 185, 1));}#gf8a3af2c-a55a-44cc-9ac4-7a6c0062446b-light [data-look="neo"].node path{stroke:#9370DB;stroke-width:1px;}#gf8a3af2c-a55a-44cc-9ac4-7a6c0062446b-light [data-look="neo"].node .outer-path{filter:drop-shadow(1px 2px 2px rgba(185, 185, 185, 1));}#gf8a3af2c-a55a-44cc-9ac4-7a6c0062446b-light [data-look="neo"].node .neo-line path{stroke:#9370DB;filter:none;}#gf8a3af2c-a55a-44cc-9ac4-7a6c0062446b-light [data-look="neo"].node circle{stroke:#9370DB;filter:drop-shadow(1px 2px 2px rgba(185, 185, 185, 1));}#gf8a3af2c-a55a-44cc-9ac4-7a6c0062446b-light [data-look="neo"].node circle .state-start{fill:#000000;}#gf8a3af2c-a55a-44cc-9ac4-7a6c0062446b-light [data-look="neo"].icon-shape .icon{fill:#9370DB;filter:drop-shadow(1px 2px 2px rgba(185, 185, 185, 1));}#gf8a3af2c-a55a-44cc-9ac4-7a6c0062446b-light [data-look="neo"].icon-shape .icon-neo path{stroke:#9370DB;filter:drop-shadow(1px 2px 2px rgba(185, 185, 185, 1));}#gf8a3af2c-a55a-44cc-9ac4-7a6c0062446b-light :root{--mermaid-font-family:"trebuchet ms",verdana,arial,sans-serif;}#gf8a3af2c-a55a-44cc-9ac4-7a6c0062446b-light .hub rect{fill:#2E5A88!important;stroke:#1F4870!important;color:#ffffff!important;}#gf8a3af2c-a55a-44cc-9ac4-7a6c0062446b-light .hub polygon{fill:#2E5A88!important;stroke:#1F4870!important;color:#ffffff!important;}#gf8a3af2c-a55a-44cc-9ac4-7a6c0062446b-light .hub ellipse{fill:#2E5A88!important;stroke:#1F4870!important;color:#ffffff!important;}#gf8a3af2c-a55a-44cc-9ac4-7a6c0062446b-light .hub circle{fill:#2E5A88!important;stroke:#1F4870!important;color:#ffffff!important;}#gf8a3af2c-a55a-44cc-9ac4-7a6c0062446b-light .hub path{fill:#2E5A88!important;stroke:#1F4870!important;color:#ffffff!important;}#gf8a3af2c-a55a-44cc-9ac4-7a6c0062446b-light .hub tspan{fill:#ffffff!important;}#gf8a3af2c-a55a-44cc-9ac4-7a6c0062446b-light .tenet rect{fill:#1F6E68!important;stroke:#155752!important;color:#ffffff!important;}#gf8a3af2c-a55a-44cc-9ac4-7a6c0062446b-light .tenet polygon{fill:#1F6E68!important;stroke:#155752!important;color:#ffffff!important;}#gf8a3af2c-a55a-44cc-9ac4-7a6c0062446b-light .tenet ellipse{fill:#1F6E68!important;stroke:#155752!important;color:#ffffff!important;}#gf8a3af2c-a55a-44cc-9ac4-7a6c0062446b-light .tenet circle{fill:#1F6E68!important;stroke:#155752!important;color:#ffffff!important;}#gf8a3af2c-a55a-44cc-9ac4-7a6c0062446b-light .tenet path{fill:#1F6E68!important;stroke:#155752!important;color:#ffffff!important;}#gf8a3af2c-a55a-44cc-9ac4-7a6c0062446b-light .tenet tspan{fill:#ffffff!important;}</style><g><marker id="gf8a3af2c-a55a-44cc-9ac4-7a6c0062446b-light_flowchart-v2-pointEnd" class="marker flowchart-v2" viewBox="0 0 10 10" refX="5" refY="5" markerUnits="userSpaceOnUse" markerWidth="8" markerHeight="8" orient="auto"><path d="M 0 0 L 10 5 L 0 10 z" class="arrowMarkerPath" style="stroke-width: 1; stroke-dasharray: 1, 0;"></path></marker><marker id="gf8a3af2c-a55a-44cc-9ac4-7a6c0062446b-light_flowchart-v2-pointStart" class="marker flowchart-v2" viewBox="0 0 10 10" refX="4.5" refY="5" markerUnits="userSpaceOnUse" markerWidth="8" markerHeight="8" orient="auto"><path d="M 0 5 L 10 10 L 10 0 z" class="arrowMarkerPath" style="stroke-width: 1; stroke-dasharray: 1, 0;"></path></marker><marker id="gf8a3af2c-a55a-44cc-9ac4-7a6c0062446b-light_flowchart-v2-pointEnd-margin" class="marker flowchart-v2" viewBox="0 0 11.5 14" refX="11.5" refY="7" markerUnits="userSpaceOnUse" markerWidth="10.5" markerHeight="14" orient="auto"><path d="M 0 0 L 11.5 7 L 0 14 z" class="arrowMarkerPath" style="stroke-width: 0; stroke-dasharray: 1, 0;"></path></marker><marker id="gf8a3af2c-a55a-44cc-9ac4-7a6c0062446b-light_flowchart-v2-pointStart-margin" class="marker flowchart-v2" viewBox="0 0 11.5 14" refX="1" refY="7" markerUnits="userSpaceOnUse" markerWidth="11.5" markerHeight="14" orient="auto"><polygon points="0,7 11.5,14 11.5,0" class="arrowMarkerPath" style="stroke-width: 0; stroke-dasharray: 1, 0;"></polygon></marker><marker id="gf8a3af2c-a55a-44cc-9ac4-7a6c0062446b-light_flowchart-v2-circleEnd" class="marker flowchart-v2" viewBox="0 0 10 10" refX="11" refY="5" markerUnits="userSpaceOnUse" markerWidth="11" markerHeight="11" orient="auto"><circle cx="5" cy="5" r="5" class="arrowMarkerPath" style="stroke-width: 1; stroke-dasharray: 1, 0;"></circle></marker><marker id="gf8a3af2c-a55a-44cc-9ac4-7a6c0062446b-light_flowchart-v2-circleStart" class="marker flowchart-v2" viewBox="0 0 10 10" refX="-1" refY="5" markerUnits="userSpaceOnUse" markerWidth="11" markerHeight="11" orient="auto"><circle cx="5" cy="5" r="5" class="arrowMarkerPath" style="stroke-width: 1; stroke-dasharray: 1, 0;"></circle></marker><marker id="gf8a3af2c-a55a-44cc-9ac4-7a6c0062446b-light_flowchart-v2-circleEnd-margin" class="marker flowchart-v2" viewBox="0 0 10 10" refY="5" refX="12.25" markerUnits="userSpaceOnUse" markerWidth="14" markerHeight="14" orient="auto"><circle cx="5" cy="5" r="5" class="arrowMarkerPath" style="stroke-width: 0; stroke-dasharray: 1, 0;"></circle></marker><marker id="gf8a3af2c-a55a-44cc-9ac4-7a6c0062446b-light_flowchart-v2-circleStart-margin" class="marker flowchart-v2" viewBox="0 0 10 10" refX="-2" refY="5" markerUnits="userSpaceOnUse" markerWidth="14" markerHeight="14" orient="auto"><circle cx="5" cy="5" r="5" class="arrowMarkerPath" style="stroke-width: 0; stroke-dasharray: 1, 0;"></circle></marker><marker id="gf8a3af2c-a55a-44cc-9ac4-7a6c0062446b-light_flowchart-v2-crossEnd" class="marker cross flowchart-v2" viewBox="0 0 11 11" refX="12" refY="5.2" markerUnits="userSpaceOnUse" markerWidth="11" markerHeight="11" orient="auto"><path d="M 1,1 l 9,9 M 10,1 l -9,9" class="arrowMarkerPath" style="stroke-width: 2; stroke-dasharray: 1, 0;"></path></marker><marker id="gf8a3af2c-a55a-44cc-9ac4-7a6c0062446b-light_flowchart-v2-crossStart" class="marker cross flowchart-v2" viewBox="0 0 11 11" refX="-1" refY="5.2" markerUnits="userSpaceOnUse" markerWidth="11" markerHeight="11" orient="auto"><path d="M 1,1 l 9,9 M 10,1 l -9,9" class="arrowMarkerPath" style="stroke-width: 2; stroke-dasharray: 1, 0;"></path></marker><marker id="gf8a3af2c-a55a-44cc-9ac4-7a6c0062446b-light_flowchart-v2-crossEnd-margin" class="marker cross flowchart-v2" viewBox="0 0 15 15" refX="17.7" refY="7.5" markerUnits="userSpaceOnUse" markerWidth="12" markerHeight="12" orient="auto"><path d="M 1,1 L 14,14 M 1,14 L 14,1" class="arrowMarkerPath" style="stroke-width: 2.5;"></path></marker><marker id="gf8a3af2c-a55a-44cc-9ac4-7a6c0062446b-light_flowchart-v2-crossStart-margin" class="marker cross flowchart-v2" viewBox="0 0 15 15" refX="-3.5" refY="7.5" markerUnits="userSpaceOnUse" markerWidth="12" markerHeight="12" orient="auto"><path d="M 1,1 L 14,14 M 1,14 L 14,1" class="arrowMarkerPath" style="stroke-width: 2.5; stroke-dasharray: 1, 0;"></path></marker><g class="root"><g class="clusters"></g><g class="edgePaths"><path d="M113.54,445L132.572,380.65C151.605,316.3,189.669,187.6,213.184,123.25C236.699,58.9,245.665,58.9,250.148,58.9L254.631,58.9" id="gf8a3af2c-a55a-44cc-9ac4-7a6c0062446b-light-L_hub_filesystem_0" class="edge-thickness-normal edge-pattern-solid edge-thickness-normal edge-pattern-solid flowchart-link" style=";" data-edge="true" data-et="edge" data-id="L_hub_filesystem_0" data-points="W3sieCI6MTEzLjU0MDM2MDAwNzEwMjg5LCJ5Ijo0NDQuOTk5OTk2MTg1MzAyOH0seyJ4IjoyMjcuNzMyODY0Mzc5ODgyOCwieSI6NTguOTAwMDAxNTI1ODc4OTA2fSx7IngiOjI1NC42MzEzMDE4Nzk4ODI4LCJ5Ijo1OC45MDAwMDE1MjU4Nzg5MDZ9XQ==" data-look="classic"></path><path d="M117.629,445L135.98,404.483C154.33,363.967,191.032,282.933,219.134,242.417C247.235,201.9,266.738,201.9,276.489,201.9L286.241,201.9" id="gf8a3af2c-a55a-44cc-9ac4-7a6c0062446b-light-L_hub_boundaries_0" class="edge-thickness-normal edge-pattern-solid edge-thickness-normal edge-pattern-solid flowchart-link" style=";" data-edge="true" data-et="edge" data-id="L_hub_boundaries_0" data-points="W3sieCI6MTE3LjYyODkyODE5OTM4NTgsInkiOjQ0NC45OTk5OTYxODUzMDI4fSx7IngiOjIyNy43MzI4NjQzNzk4ODI4LCJ5IjoyMDEuOTAwMDAxNTI1ODc4OX0seyJ4IjoyODYuMjQwNjc2ODc5ODgyOCwieSI6MjAxLjkwMDAwMTUyNTg3ODl9XQ==" data-look="classic"></path><path d="M129.391,445L145.782,426.85C162.172,408.7,194.952,372.4,216.968,354.25C238.983,336.1,250.233,336.1,255.858,336.1L261.483,336.1" id="gf8a3af2c-a55a-44cc-9ac4-7a6c0062446b-light-L_hub_validation_0" class="edge-thickness-normal edge-pattern-solid edge-thickness-normal edge-pattern-solid flowchart-link" style=";" data-edge="true" data-et="edge" data-id="L_hub_validation_0" data-points="W3sieCI6MTI5LjM5MTQyNDIwODgzMDI0LCJ5Ijo0NDQuOTk5OTk2MTg1MzAyOH0seyJ4IjoyMjcuNzMyODY0Mzc5ODgyOCwieSI6MzM2LjA5OTk5ODQ3NDEyMTF9LHsieCI6MjYxLjQ4Mjg2NDM3OTg4MjgsInkiOjMzNi4wOTk5OTg0NzQxMjExfV0=" data-look="classic"></path><path d="M203.233,470.8L207.316,470.717C211.4,470.633,219.566,470.467,231.785,470.383C244.004,470.3,260.275,470.3,268.41,470.3L276.545,470.3" id="gf8a3af2c-a55a-44cc-9ac4-7a6c0062446b-light-L_hub_vite_0" class="edge-thickness-normal edge-pattern-solid edge-thickness-normal edge-pattern-solid flowchart-link" style=";" data-edge="true" data-et="edge" data-id="L_hub_vite_0" data-points="W3sieCI6MjAzLjIzMjg2MzM3NTI3MjI3LCJ5Ijo0NzAuNzk5OTk1NDIyMzYzM30seyJ4IjoyMjcuNzMyODY0Mzc5ODgyOCwieSI6NDcwLjI5OTk5NTQyMjM2MzN9LHsieCI6Mjc2LjU0NTM2NDM3OTg4MjgsInkiOjQ3MC4yOTk5OTU0MjIzNjMzfV0=" data-look="classic"></path><path d="M129.391,496.6L145.782,514.583C162.172,532.567,194.952,568.533,218,586.517C241.048,604.5,254.363,604.5,261.021,604.5L267.678,604.5" id="gf8a3af2c-a55a-44cc-9ac4-7a6c0062446b-light-L_hub_progressive_0" class="edge-thickness-normal edge-pattern-solid edge-thickness-normal edge-pattern-solid flowchart-link" style=";" data-edge="true" data-et="edge" data-id="L_hub_progressive_0" data-points="W3sieCI6MTI5LjM5MTQyNDIwODgzMDMsInkiOjQ5Ni41OTk5OTQ2NTk0MjM5fSx7IngiOjIyNy43MzI4NjQzNzk4ODI4LCJ5Ijo2MDQuNDk5OTkyMzcwNjA1NX0seyJ4IjoyNjcuNjc4MTc2ODc5ODgyOCwieSI6NjA0LjQ5OTk5MjM3MDYwNTV9XQ==" data-look="classic"></path><path d="M117.629,496.6L135.98,536.95C154.33,577.3,191.032,658,216.257,698.35C241.483,738.7,255.233,738.7,262.108,738.7L268.983,738.7" id="gf8a3af2c-a55a-44cc-9ac4-7a6c0062446b-light-L_hub_config_0" class="edge-thickness-normal edge-pattern-solid edge-thickness-normal edge-pattern-solid flowchart-link" style=";" data-edge="true" data-et="edge" data-id="L_hub_config_0" data-points="W3sieCI6MTE3LjYyODkyODE5OTM4NTgzLCJ5Ijo0OTYuNTk5OTk0NjU5NDIzOX0seyJ4IjoyMjcuNzMyODY0Mzc5ODgyOCwieSI6NzM4LjY5OTk4OTMxODg0Nzd9LHsieCI6MjY4Ljk4Mjg2NDM3OTg4MjgsInkiOjczOC42OTk5ODkzMTg4NDc3fV0=" data-look="classic"></path><path d="M113.708,496.6L132.712,559.317C151.716,622.033,189.725,747.467,212.895,810.183C236.066,872.9,244.4,872.9,248.566,872.9L252.733,872.9" id="gf8a3af2c-a55a-44cc-9ac4-7a6c0062446b-light-L_hub_parity_0" class="edge-thickness-normal edge-pattern-solid edge-thickness-normal edge-pattern-solid flowchart-link" style=";" data-edge="true" data-et="edge" data-id="L_hub_parity_0" data-points="W3sieCI6MTEzLjcwODA5NjE5NjIzNzcsInkiOjQ5Ni41OTk5OTQ2NTk0MjM5fSx7IngiOjIyNy43MzI4NjQzNzk4ODI4LCJ5Ijo4NzIuODk5OTg2MjY3MDg5OH0seyJ4IjoyNTIuNzMyODY0Mzc5ODgyOCwieSI6ODcyLjg5OTk4NjI2NzA4OTh9XQ==" data-look="classic"></path></g><g class="edgeLabels"><g class="edgeLabel"><g class="label" data-id="L_hub_filesystem_0" transform="translate(0, 0)"><text y="-10.1" text-anchor="middle"><tspan class="text-outer-tspan row" x="0" y="-0.1em" dy="1.1em" text-anchor="middle"></tspan></text></g></g><g><rect class="background" style="stroke: none"></rect></g><g class="edgeLabel"><g class="label" data-id="L_hub_boundaries_0" transform="translate(0, 0)"><text y="-10.1" text-anchor="middle"><tspan class="text-outer-tspan row" x="0" y="-0.1em" dy="1.1em" text-anchor="middle"></tspan></text></g></g><g><rect class="background" style="stroke: none"></rect></g><g class="edgeLabel"><g class="label" data-id="L_hub_validation_0" transform="translate(0, 0)"><text y="-10.1" text-anchor="middle"><tspan class="text-outer-tspan row" x="0" y="-0.1em" dy="1.1em" text-anchor="middle"></tspan></text></g></g><g><rect class="background" style="stroke: none"></rect></g><g class="edgeLabel"><g class="label" data-id="L_hub_vite_0" transform="translate(0, 0)"><text y="-10.1" text-anchor="middle"><tspan class="text-outer-tspan row" x="0" y="-0.1em" dy="1.1em" text-anchor="middle"></tspan></text></g></g><g><rect class="background" style="stroke: none"></rect></g><g class="edgeLabel"><g class="label" data-id="L_hub_progressive_0" transform="translate(0, 0)"><text y="-10.1" text-anchor="middle"><tspan class="text-outer-tspan row" x="0" y="-0.1em" dy="1.1em" text-anchor="middle"></tspan></text></g></g><g><rect class="background" style="stroke: none"></rect></g><g class="edgeLabel"><g class="label" data-id="L_hub_config_0" transform="translate(0, 0)"><text y="-10.1" text-anchor="middle"><tspan class="text-outer-tspan row" x="0" y="-0.1em" dy="1.1em" text-anchor="middle"></tspan></text></g></g><g><rect class="background" style="stroke: none"></rect></g><g class="edgeLabel"><g class="label" data-id="L_hub_parity_0" transform="translate(0, 0)"><text y="-10.1" text-anchor="middle"><tspan class="text-outer-tspan row" x="0" y="-0.1em" dy="1.1em" text-anchor="middle"></tspan></text></g></g><g><rect class="background" style="stroke: none"></rect></g></g><g class="nodes"><g class="node default hub" id="gf8a3af2c-a55a-44cc-9ac4-7a6c0062446b-light-flowchart-hub-0" data-look="classic" transform="translate(105.3664321899414, 470.2999954223633)"><g class="basic label-container outer-path"><path d="M-71.57968807220459 -25.799999237060547 C-16.564033080962183 -25.799999237060547, 38.451621910280224 -25.799999237060547, 71.57968807220459 -25.799999237060547 C71.57968807220459 -25.799999237060547, 71.57968807220459 -25.799999237060547, 71.57968807220459 -25.799999237060547 C72.23862708375638 -25.77886834550706, 72.89756609530816 -25.757737453953574, 73.23269969882529 -25.746990371586765 C73.64917349694704 -25.706813645164985, 74.0656472950688 -25.6666369187432, 74.87891874610231 -25.58818159996402 C75.28736107635213 -25.52214781152681, 75.69580340660193 -25.456114023089597, 76.51158054685753 -25.32422550149928 C76.91343527724139 -25.23250478163635, 77.31529000762525 -25.140784061773424, 78.12397614354678 -24.956206728419545 C78.44399901915163 -24.86122561877438, 78.76402189475647 -24.76624450912922, 79.70947985680552 -24.48563754880318 C80.31118093244855 -24.26420599090277, 80.9128820080916 -24.04277443300236, 81.26157651178644 -23.914451632345997 C81.56669867977676 -23.77938309970421, 81.87182084776708 -23.64431456706242, 82.77388821041056 -23.24499610449772 C83.28757274209045 -22.977007213350973, 83.80125727377032 -22.709018322204226, 84.2402005395184 -22.480021901620034 C84.80122213746519 -22.13992731201583, 85.36224373541197 -21.799832722411622, 85.65448810722664 -21.62267246679901 C86.01332331236716 -21.37236456141865, 86.37215851750769 -21.122056656038293, 87.01093930255584 -20.67647083276321 C87.36724147464456 -20.392329332121456, 87.72354364673329 -20.1081878314797, 88.3039801765865 -19.64530514498651 C88.61420648570567 -19.36356581918283, 88.92443279482484 -19.081826493379154, 89.52829734701088 -18.533412684464313 C89.91434593880695 -18.134785818256034, 90.30039453060301 -17.73615895204776, 90.67885983196044 -17.345362455817106 C90.93387696994458 -17.045804814654705, 91.18889410792873 -16.7462471734923, 91.75093972338968 -16.086036412270357 C92.07229494315432 -15.655449693848526, 92.39365016291895 -15.224862975426696, 92.74013161506427 -14.76060939466161 C93.06412817347203 -14.262863675689479, 93.38812473187978 -13.765117956717347, 93.64237070532036 -13.374527866909407 C93.83441263022941 -13.03353798287982, 94.02645455513844 -12.69254809885023, 94.4539495002064 -11.93348753532484 C94.69174450449322 -11.439701120925285, 94.92953950878001 -10.945914706525729, 95.17153304837109 -10.443409943732584 C95.33295023829389 -10.044706363834196, 95.49436742821669 -9.646002783935808, 95.79217264509381 -8.910418140577123 C95.93566627624101 -8.478238186167106, 96.0791599073882 -8.046058231757087, 96.3133179491449 -7.340811518003323 C96.40693620331004 -6.983804540463658, 96.50055445747516 -6.626797562923993, 96.73282746268467 -5.741039926302914 C96.8435788683342 -5.17235486561043, 96.95433027398374 -4.603669804917946, 97.04897733113748 -4.117677170096137 C97.10506621372484 -3.6826628727512296, 97.1611550963122 -3.2476485754063225, 97.26046842687991 -2.4773939951584394 C97.29180375250172 -1.9893210051792365, 97.32313907812352 -1.5012480152000336, 97.36643168763487 -0.8269306768952902 C97.36643168763487 -0.18542579598590136, 97.36643168763487 0.4560790849234875, 97.36643168763487 0.826930676895284 C97.33360291325448 1.3382653367795307, 97.3007741388741 1.8495999966637773, 97.26046842687991 2.4773939951584216 C97.1954417727931 2.981727883290444, 97.1304151187063 3.4860617714224666, 97.04897733113748 4.117677170096119 C96.96175342113257 4.5655535131913965, 96.87452951112766 5.013429856286675, 96.73282746268467 5.741039926302909 C96.62598875423116 6.148462225825307, 96.51915004577764 6.555884525347706, 96.3133179491449 7.340811518003306 C96.17511975926509 7.7570424470299955, 96.03692156938527 8.173273376056684, 95.79217264509383 8.910418140577105 C95.59201911437155 9.404801231166397, 95.39186558364928 9.89918432175569, 95.17153304837109 10.443409943732577 C94.89217943198499 11.02349370536817, 94.6128258155989 11.603577467003763, 94.4539495002064 11.933487535324835 C94.26557581429464 12.267964089565298, 94.07720212838286 12.60244064380576, 93.64237070532037 13.374527866909402 C93.36330492362693 13.803247847245453, 93.0842391419335 14.231967827581505, 92.74013161506429 14.760609394661596 C92.44599503869841 15.154725610598504, 92.15185846233254 15.548841826535412, 91.75093972338968 16.086036412270353 C91.43850778192602 16.453036748594666, 91.12607584046235 16.82003708491898, 90.67885983196045 17.345362455817092 C90.31264022619092 17.723514265962933, 89.9464206204214 18.10166607610877, 89.52829734701088 18.533412684464306 C89.07745667191037 18.94285425699999, 88.62661599680987 19.352295829535674, 88.30398017658653 19.64530514498649 C87.97052896358039 19.911223613849447, 87.63707775057425 20.177142082712404, 87.01093930255584 20.676470832763208 C86.50993218071115 21.02595171271332, 86.00892505886644 21.375432592663433, 85.65448810722665 21.622672466799003 C85.13446271637507 21.937914914741643, 84.61443732552348 22.253157362684284, 84.24020053951841 22.48002190162003 C83.65872421896528 22.78337772559924, 83.07724789841215 23.086733549578447, 82.77388821041058 23.244996104497716 C82.35300903917344 23.43130682866737, 81.93212986793631 23.617617552837025, 81.26157651178644 23.914451632345994 C80.72580113486605 24.111621923705993, 80.19002575794565 24.308792215065996, 79.70947985680553 24.485637548803172 C79.1630194191135 24.647824138280797, 78.61655898142146 24.81001072775842, 78.12397614354681 24.95620672841954 C77.53333707519866 25.091016241489886, 76.9426980068505 25.22582575456023, 76.51158054685754 25.324225501499278 C76.06560782277137 25.396326912959402, 75.61963509868518 25.468428324419527, 74.87891874610233 25.588181599964017 C74.35334817263015 25.638882761095786, 73.82777759915795 25.689583922227555, 73.23269969882529 25.746990371586765 C72.7871813411772 25.76127727816766, 72.34166298352912 25.77556418474856, 71.57968807220459 25.799999237060547 C71.57968807220459 25.799999237060547, 71.57968807220459 25.799999237060547, 71.57968807220459 25.799999237060547 C20.165147659892483 25.799999237060547, -31.249392752419624 25.799999237060547, -71.57968807220459 25.799999237060547 C-72.06301731878285 25.784499808866087, -72.54634656536112 25.76900038067163, -73.23269969882527 25.746990371586765 C-73.88870311348659 25.683706511133924, -74.54470652814791 25.62042265068108, -74.87891874610231 25.588181599964017 C-75.42351225662355 25.500135944568694, -75.96810576714479 25.41209028917337, -76.51158054685753 25.324225501499278 C-76.84849576531448 25.24732680146375, -77.18541098377142 25.170428101428218, -78.12397614354678 24.956206728419545 C-78.75088016973314 24.77014490413382, -79.3777841959195 24.584083079848096, -79.7094798568055 24.485637548803183 C-80.21109622889793 24.301038086982256, -80.71271260099036 24.11643862516133, -81.26157651178644 23.914451632345997 C-81.65560797196258 23.740025593453993, -82.04963943213872 23.56559955456199, -82.77388821041056 23.244996104497723 C-83.12863360340562 23.05992566019747, -83.48337899640067 22.87485521589722, -84.2402005395184 22.480021901620038 C-84.52656539914288 22.306425840848966, -84.81293025876735 22.132829780077895, -85.65448810722663 21.622672466799017 C-85.9308671540326 21.42988240800328, -86.20724620083857 21.23709234920754, -87.01093930255584 20.67647083276321 C-87.30189259972153 20.44444332086598, -87.59284589688723 20.212415808968746, -88.3039801765865 19.645305144986512 C-88.57000398761907 19.403709358411064, -88.83602779865166 19.16211357183562, -89.52829734701086 18.533412684464324 C-89.9164553212634 18.132607707686226, -90.30461329551592 17.731802730908132, -90.67885983196044 17.3453624558171 C-91.04110258195097 16.919851509481838, -91.4033453319415 16.494340563146576, -91.75093972338968 16.08603641227036 C-92.0603884369786 15.671403327418966, -92.36983715056752 15.25677024256757, -92.74013161506427 14.760609394661614 C-93.00342770750152 14.35611589177757, -93.26672379993876 13.951622388893524, -93.64237070532036 13.374527866909418 C-93.82283046324741 13.054103293177928, -94.00329022117447 12.733678719446436, -94.45394950020639 11.933487535324842 C-94.69325484318571 11.436564870314216, -94.93256018616503 10.93964220530359, -95.17153304837109 10.443409943732586 C-95.31530424189569 10.088292316099903, -95.45907543542027 9.733174688467221, -95.79217264509381 8.910418140577127 C-95.95052793476867 8.433477238565475, -96.10888322444355 7.956536336553825, -96.3133179491449 7.340811518003316 C-96.42254378593528 6.924286063544502, -96.53176962272565 6.507760609085687, -96.73282746268467 5.741039926302918 C-96.82883949584144 5.248038428193318, -96.9248515289982 4.755036930083719, -97.04897733113748 4.117677170096139 C-97.11428569437871 3.6111584013921703, -97.17959405761994 3.104639632688201, -97.26046842687991 2.477393995158454 C-97.29246454764842 1.9790285873850992, -97.32446066841693 1.4806631796117444, -97.36643168763487 0.8269306768952934 C-97.36643168763487 0.4767481632250672, -97.36643168763487 0.12656564955484095, -97.36643168763487 -0.8269306768952809 C-97.34013383555101 -1.2365409503454894, -97.31383598346716 -1.6461512237956977, -97.26046842687991 -2.4773939951584185 C-97.2161968541576 -2.820755570781756, -97.1719252814353 -3.1641171464050943, -97.04897733113748 -4.117677170096128 C-96.97548283053776 -4.495055897607489, -96.90198832993804 -4.872434625118849, -96.73282746268467 -5.741039926302906 C-96.63831339454585 -6.101463030772484, -96.54379932640703 -6.461886135242061, -96.3133179491449 -7.340811518003303 C-96.19478893343775 -7.697802028279234, -96.0762599177306 -8.054792538555166, -95.79217264509383 -8.910418140577093 C-95.57367767828494 -9.450104932907859, -95.35518271147605 -9.989791725238627, -95.17153304837109 -10.443409943732574 C-95.01104469787579 -10.776667437436648, -94.8505563473805 -11.109924931140725, -94.4539495002064 -11.933487535324831 C-94.24201067857292 -12.30980637426792, -94.03007185693946 -12.686125213211009, -93.64237070532036 -13.374527866909409 C-93.32267822486396 -13.865661366341493, -93.00298574440757 -14.356794865773578, -92.74013161506429 -14.760609394661605 C-92.3547513760837 -15.276983806033556, -91.96937113710312 -15.793358217405506, -91.75093972338968 -16.086036412270353 C-91.42210059127207 -16.472309568332385, -91.09326145915448 -16.858582724394413, -90.67885983196045 -17.345362455817092 C-90.2498666373371 -17.78833315026199, -89.82087344271378 -18.231303844706886, -89.52829734701089 -18.5334126844643 C-89.16238908891896 -18.86572088306141, -88.79648083082702 -19.19802908165852, -88.30398017658653 -19.645305144986487 C-87.9515768587888 -19.926337413084052, -87.59917354099106 -20.207369681181618, -87.01093930255585 -20.676470832763204 C-86.61523566391006 -20.95249656134808, -86.21953202526424 -21.228522289932958, -85.65448810722665 -21.622672466799 C-85.30612004152525 -21.83385523546519, -84.95775197582384 -22.045038004131378, -84.24020053951841 -22.480021901620027 C-83.78425025927125 -22.71789087077488, -83.32829997902408 -22.955759839929737, -82.77388821041058 -23.244996104497716 C-82.29011955326565 -23.459146138528432, -81.80635089612073 -23.673296172559148, -81.26157651178646 -23.91445163234599 C-80.65317229595989 -24.138350007797087, -80.04476808013332 -24.362248383248183, -79.70947985680553 -24.485637548803172 C-79.20879508688053 -24.634238160368923, -78.70811031695553 -24.782838771934678, -78.12397614354681 -24.956206728419538 C-77.51104149322774 -25.096105062582474, -76.89810684290867 -25.236003396745414, -76.51158054685754 -25.324225501499278 C-75.88119500089294 -25.42614134785791, -75.25080945492834 -25.528057194216547, -74.87891874610233 -25.588181599964017 C-74.26387861750688 -25.647513781475645, -73.64883848891144 -25.706845962987273, -73.23269969882529 -25.746990371586765 C-72.6065406610477 -25.76707007318366, -71.98038162327012 -25.78714977478056, -71.5796880722046 -25.799999237060547 C-71.5796880722046 -25.799999237060547, -71.5796880722046 -25.799999237060547, -71.57968807220459 -25.799999237060547" stroke="none" stroke-width="0" fill="#2E5A88" style="fill:#2E5A88 !important;stroke:#1F4870 !important"></path><path d="M-71.57968807220459 -25.799999237060547 C-18.91139563523557 -25.799999237060547, 33.75689680173345 -25.799999237060547, 71.57968807220459 -25.799999237060547 M-71.57968807220459 -25.799999237060547 C-23.666745303791302 -25.799999237060547, 24.246197464621986 -25.799999237060547, 71.57968807220459 -25.799999237060547 M71.57968807220459 -25.799999237060547 C71.57968807220459 -25.799999237060547, 71.57968807220459 -25.799999237060547, 71.57968807220459 -25.799999237060547 M71.57968807220459 -25.799999237060547 C71.57968807220459 -25.799999237060547, 71.57968807220459 -25.799999237060547, 71.57968807220459 -25.799999237060547 M71.57968807220459 -25.799999237060547 C72.04375917683704 -25.785117379994592, 72.50783028146951 -25.770235522928637, 73.23269969882529 -25.746990371586765 M71.57968807220459 -25.799999237060547 C72.1469065252402 -25.781809645295436, 72.71412497827582 -25.763620053530325, 73.23269969882529 -25.746990371586765 M73.23269969882529 -25.746990371586765 C73.6186097647657 -25.70976209165025, 74.0045198307061 -25.67253381171374, 74.87891874610231 -25.58818159996402 M73.23269969882529 -25.746990371586765 C73.83610492468344 -25.688780595149186, 74.43951015054161 -25.630570818711607, 74.87891874610231 -25.58818159996402 M74.87891874610231 -25.58818159996402 C75.24412051418128 -25.529138610283024, 75.60932228226024 -25.470095620602027, 76.51158054685753 -25.32422550149928 M74.87891874610231 -25.58818159996402 C75.42046670496391 -25.500628325742422, 75.96201466382553 -25.41307505152082, 76.51158054685753 -25.32422550149928 M76.51158054685753 -25.32422550149928 C76.90008072215036 -25.23555287168926, 77.28858089744321 -25.14688024187924, 78.12397614354678 -24.956206728419545 M76.51158054685753 -25.32422550149928 C76.85160615595271 -25.246616875097768, 77.19163176504789 -25.169008248696258, 78.12397614354678 -24.956206728419545 M78.12397614354678 -24.956206728419545 C78.60756399850928 -24.81268039147113, 79.09115185347177 -24.66915405452271, 79.70947985680552 -24.48563754880318 M78.12397614354678 -24.956206728419545 C78.45050507751417 -24.859294654803378, 78.77703401148155 -24.76238258118721, 79.70947985680552 -24.48563754880318 M79.70947985680552 -24.48563754880318 C80.26948697053194 -24.279549754302845, 80.82949408425836 -24.073461959802508, 81.26157651178644 -23.914451632345997 M79.70947985680552 -24.48563754880318 C80.22712461049306 -24.29513949439051, 80.74476936418061 -24.104641439977847, 81.26157651178644 -23.914451632345997 M81.26157651178644 -23.914451632345997 C81.71297039341285 -23.714632951073735, 82.16436427503925 -23.514814269801477, 82.77388821041056 -23.24499610449772 M81.26157651178644 -23.914451632345997 C81.82638106507963 -23.664429410934893, 82.39118561837282 -23.41440718952379, 82.77388821041056 -23.24499610449772 M82.77388821041056 -23.24499610449772 C83.30866400817321 -22.96600391334519, 83.84343980593587 -22.68701172219266, 84.2402005395184 -22.480021901620034 M82.77388821041056 -23.24499610449772 C83.13615796683438 -23.056000204616268, 83.49842772325819 -22.86700430473482, 84.2402005395184 -22.480021901620034 M84.2402005395184 -22.480021901620034 C84.6494683503402 -22.23192134957523, 85.05873616116202 -21.98382079753043, 85.65448810722664 -21.62267246679901 M84.2402005395184 -22.480021901620034 C84.56034022122302 -22.285951345221097, 84.88047990292765 -22.09188078882216, 85.65448810722664 -21.62267246679901 M85.65448810722664 -21.62267246679901 C86.08298976020666 -21.323768263217737, 86.51149141318669 -21.024864059636467, 87.01093930255584 -20.67647083276321 M85.65448810722664 -21.62267246679901 C85.995894890641 -21.384521873950604, 86.33730167405537 -21.1463712811022, 87.01093930255584 -20.67647083276321 M87.01093930255584 -20.67647083276321 C87.4612700971651 -20.317344007868062, 87.91160089177436 -19.958217182972913, 88.3039801765865 -19.64530514498651 M87.01093930255584 -20.67647083276321 C87.4291480415207 -20.342960492440668, 87.84735678048555 -20.009450152118124, 88.3039801765865 -19.64530514498651 M88.3039801765865 -19.64530514498651 C88.58142235747394 -19.393339497022392, 88.85886453836137 -19.141373849058276, 89.52829734701088 -18.533412684464313 M88.3039801765865 -19.64530514498651 C88.79195987845918 -19.20213489098115, 89.27993958033186 -18.758964636975787, 89.52829734701088 -18.533412684464313 M89.52829734701088 -18.533412684464313 C89.92898917709711 -18.119665472489228, 90.32968100718332 -17.70591826051414, 90.67885983196044 -17.345362455817106 M89.52829734701088 -18.533412684464313 C89.95532307537115 -18.09247356046801, 90.38234880373143 -17.651534436471714, 90.67885983196044 -17.345362455817106 M90.67885983196044 -17.345362455817106 C91.00005022156971 -16.96807394793115, 91.32124061117898 -16.590785440045188, 91.75093972338968 -16.086036412270357 M90.67885983196044 -17.345362455817106 C90.93246737968228 -17.04746059958476, 91.18607492740412 -16.74955874335241, 91.75093972338968 -16.086036412270357 M91.75093972338968 -16.086036412270357 C92.10488336352945 -15.611784179412012, 92.45882700366923 -15.137531946553668, 92.74013161506427 -14.76060939466161 M91.75093972338968 -16.086036412270357 C91.9835283705118 -15.774388814388363, 92.21611701763393 -15.462741216506368, 92.74013161506427 -14.76060939466161 M92.74013161506427 -14.76060939466161 C93.08854362911956 -14.225354979347047, 93.43695564317483 -13.690100564032484, 93.64237070532036 -13.374527866909407 M92.74013161506427 -14.76060939466161 C92.9911909623623 -14.374914818337555, 93.24225030966034 -13.989220242013497, 93.64237070532036 -13.374527866909407 M93.64237070532036 -13.374527866909407 C93.94245205788877 -12.841703038892256, 94.24253341045717 -12.308878210875104, 94.4539495002064 -11.93348753532484 M93.64237070532036 -13.374527866909407 C93.8254120359637 -13.049519449407594, 94.00845336660701 -12.72451103190578, 94.4539495002064 -11.93348753532484 M94.4539495002064 -11.93348753532484 C94.68705804815313 -11.449432647789543, 94.92016659609988 -10.965377760254245, 95.17153304837109 -10.443409943732584 M94.4539495002064 -11.93348753532484 C94.68360857467937 -11.456595553264723, 94.91326764915235 -10.979703571204608, 95.17153304837109 -10.443409943732584 M95.17153304837109 -10.443409943732584 C95.37433195407445 -9.942492725795171, 95.57713085977781 -9.441575507857758, 95.79217264509381 -8.910418140577123 M95.17153304837109 -10.443409943732584 C95.30623901870011 -10.110683592657137, 95.44094498902912 -9.777957241581692, 95.79217264509381 -8.910418140577123 M95.79217264509381 -8.910418140577123 C95.9232842477748 -8.51553088309897, 96.0543958504558 -8.120643625620815, 96.3133179491449 -7.340811518003323 M95.79217264509381 -8.910418140577123 C95.94048931008963 -8.463711976661129, 96.08880597508545 -8.017005812745133, 96.3133179491449 -7.340811518003323 M96.3133179491449 -7.340811518003323 C96.4504435246765 -6.817892267900968, 96.5875691002081 -6.294973017798613, 96.73282746268467 -5.741039926302914 M96.3133179491449 -7.340811518003323 C96.42462274109222 -6.916358106506202, 96.53592753303955 -6.491904695009081, 96.73282746268467 -5.741039926302914 M96.73282746268467 -5.741039926302914 C96.7982636011143 -5.405039185399536, 96.86369973954392 -5.069038444496157, 97.04897733113748 -4.117677170096137 M96.73282746268467 -5.741039926302914 C96.84632607730428 -5.158248528171924, 96.95982469192388 -4.575457130040935, 97.04897733113748 -4.117677170096137 M97.04897733113748 -4.117677170096137 C97.09544059468533 -3.757317273228133, 97.14190385823319 -3.3969573763601293, 97.26046842687991 -2.4773939951584394 M97.04897733113748 -4.117677170096137 C97.1080250231026 -3.65971493150034, 97.1670727150677 -3.2017526929045435, 97.26046842687991 -2.4773939951584394 M97.26046842687991 -2.4773939951584394 C97.2875637310625 -2.05536276157872, 97.31465903524509 -1.633331527999001, 97.36643168763487 -0.8269306768952902 M97.26046842687991 -2.4773939951584394 C97.28744436668744 -2.0572219580694067, 97.31442030649498 -1.637049920980374, 97.36643168763487 -0.8269306768952902 M97.36643168763487 -0.8269306768952902 C97.36643168763487 -0.3462109846257974, 97.36643168763487 0.13450870764369538, 97.36643168763487 0.826930676895284 M97.36643168763487 -0.8269306768952902 C97.36643168763487 -0.3664867632241632, 97.36643168763487 0.09395715044696384, 97.36643168763487 0.826930676895284 M97.36643168763487 0.826930676895284 C97.33956205147604 1.245446948849122, 97.3126924153172 1.6639632208029598, 97.26046842687991 2.4773939951584216 M97.36643168763487 0.826930676895284 C97.34299444922421 1.191984583339719, 97.31955721081354 1.557038489784154, 97.26046842687991 2.4773939951584216 M97.26046842687991 2.4773939951584216 C97.20571525923015 2.9020487512140627, 97.1509620915804 3.3267035072697038, 97.04897733113748 4.117677170096119 M97.26046842687991 2.4773939951584216 C97.19070883705541 3.018435598248067, 97.12094924723093 3.559477201337712, 97.04897733113748 4.117677170096119 M97.04897733113748 4.117677170096119 C96.92686525819788 4.744696856245179, 96.80475318525829 5.371716542394238, 96.73282746268467 5.741039926302909 M97.04897733113748 4.117677170096119 C96.98354602594583 4.453653093343991, 96.91811472075418 4.789629016591863, 96.73282746268467 5.741039926302909 M96.73282746268467 5.741039926302909 C96.56990156225143 6.362346997186761, 96.4069756618182 6.983654068070614, 96.3133179491449 7.340811518003306 M96.73282746268467 5.741039926302909 C96.60322541131364 6.235268718065015, 96.47362335994261 6.729497509827121, 96.3133179491449 7.340811518003306 M96.3133179491449 7.340811518003306 C96.15877921975101 7.806257548534962, 96.00424049035713 8.27170357906662, 95.79217264509383 8.910418140577105 M96.3133179491449 7.340811518003306 C96.18383621086866 7.730789883577968, 96.05435447259244 8.12076824915263, 95.79217264509383 8.910418140577105 M95.79217264509383 8.910418140577105 C95.6434866063691 9.2776755308762, 95.49480056764436 9.644932921175293, 95.17153304837109 10.443409943732577 M95.79217264509383 8.910418140577105 C95.60259301272272 9.378683497806602, 95.4130133803516 9.846948855036098, 95.17153304837109 10.443409943732577 M95.17153304837109 10.443409943732577 C94.93797299622608 10.928402389396231, 94.70441294408107 11.413394835059886, 94.4539495002064 11.933487535324835 M95.17153304837109 10.443409943732577 C94.8992831963412 11.008742586686287, 94.62703334431131 11.574075229639996, 94.4539495002064 11.933487535324835 M94.4539495002064 11.933487535324835 C94.20599538661824 12.373755172077246, 93.95804127303008 12.814022808829659, 93.64237070532037 13.374527866909402 M94.4539495002064 11.933487535324835 C94.15567272148806 12.463108159738303, 93.8573959427697 12.992728784151772, 93.64237070532037 13.374527866909402 M93.64237070532037 13.374527866909402 C93.3837504819683 13.771837979231965, 93.12513025861624 14.169148091554526, 92.74013161506429 14.760609394661596 M93.64237070532037 13.374527866909402 C93.30807749209112 13.888092012726323, 92.97378427886186 14.401656158543245, 92.74013161506429 14.760609394661596 M92.74013161506429 14.760609394661596 C92.50817002983746 15.071416786730403, 92.27620844461063 15.382224178799211, 91.75093972338968 16.086036412270353 M92.74013161506429 14.760609394661596 C92.44782594583356 15.152272361836488, 92.15552027660283 15.54393532901138, 91.75093972338968 16.086036412270353 M91.75093972338968 16.086036412270353 C91.439458028285 16.451920535150848, 91.12797633318033 16.817804658031342, 90.67885983196045 17.345362455817092 M91.75093972338968 16.086036412270353 C91.40157998130144 16.49641424445968, 91.0522202392132 16.90679207664901, 90.67885983196045 17.345362455817092 M90.67885983196045 17.345362455817092 C90.33919073824404 17.696098682430517, 89.99952164452762 18.046834909043945, 89.52829734701088 18.533412684464306 M90.67885983196045 17.345362455817092 C90.26923117742554 17.768337672762378, 89.85960252289063 18.19131288970766, 89.52829734701088 18.533412684464306 M89.52829734701088 18.533412684464306 C89.1285969265797 18.89641003080629, 88.72889650614854 19.25940737714827, 88.30398017658653 19.64530514498649 M89.52829734701088 18.533412684464306 C89.08850980326 18.932816095558092, 88.64872225950911 19.332219506651878, 88.30398017658653 19.64530514498649 M88.30398017658653 19.64530514498649 C87.81361537103166 20.03635802826099, 87.3232505654768 20.427410911535496, 87.01093930255584 20.676470832763208 M88.30398017658653 19.64530514498649 C87.91755820210633 19.953466386513842, 87.53113622762613 20.261627628041193, 87.01093930255584 20.676470832763208 M87.01093930255584 20.676470832763208 C86.56177208609097 20.989790438833683, 86.11260486962611 21.30311004490416, 85.65448810722665 21.622672466799003 M87.01093930255584 20.676470832763208 C86.64834714114025 20.92939942820504, 86.28575497972464 21.18232802364688, 85.65448810722665 21.622672466799003 M85.65448810722665 21.622672466799003 C85.35654373275938 21.80328809751656, 85.0585993582921 21.98390372823412, 84.24020053951841 22.48002190162003 M85.65448810722665 21.622672466799003 C85.33464536732727 21.816563015330587, 85.01480262742787 22.01045356386217, 84.24020053951841 22.48002190162003 M84.24020053951841 22.48002190162003 C83.70018379271824 22.761748292528452, 83.16016704591804 23.043474683436873, 82.77388821041058 23.244996104497716 M84.24020053951841 22.48002190162003 C83.80913170029088 22.704910238932264, 83.37806286106336 22.929798576244497, 82.77388821041058 23.244996104497716 M82.77388821041058 23.244996104497716 C82.45771321231905 23.384957397154754, 82.14153821422752 23.524918689811788, 81.26157651178644 23.914451632345994 M82.77388821041058 23.244996104497716 C82.30904362375063 23.45076901388734, 81.84419903709069 23.656541923276958, 81.26157651178644 23.914451632345994 M81.26157651178644 23.914451632345994 C80.92469575083449 24.038426866467933, 80.58781498988252 24.162402100589873, 79.70947985680553 24.485637548803172 M81.26157651178644 23.914451632345994 C80.92930376779567 24.036731073630172, 80.59703102380492 24.159010514914346, 79.70947985680553 24.485637548803172 M79.70947985680553 24.485637548803172 C79.11766958718478 24.661283730351116, 78.52585931756403 24.83692991189906, 78.12397614354681 24.95620672841954 M79.70947985680553 24.485637548803172 C79.31821712502204 24.601762273816522, 78.92695439323857 24.71788699882987, 78.12397614354681 24.95620672841954 M78.12397614354681 24.95620672841954 C77.68247403413432 25.05697670382243, 77.24097192472183 25.157746679225315, 76.51158054685754 25.324225501499278 M78.12397614354681 24.95620672841954 C77.68494090101021 25.056413657555815, 77.24590565847362 25.156620586692092, 76.51158054685754 25.324225501499278 M76.51158054685754 25.324225501499278 C75.93997482333984 25.416638282009032, 75.36836909982213 25.509051062518783, 74.87891874610233 25.588181599964017 M76.51158054685754 25.324225501499278 C76.14657944269507 25.383236049394426, 75.7815783385326 25.44224659728958, 74.87891874610233 25.588181599964017 M74.87891874610233 25.588181599964017 C74.54218826690116 25.620665584314903, 74.20545778769998 25.65314956866579, 73.23269969882529 25.746990371586765 M74.87891874610233 25.588181599964017 C74.24163037212242 25.649660042950455, 73.60434199814252 25.71113848593689, 73.23269969882529 25.746990371586765 M73.23269969882529 25.746990371586765 C72.83331009958529 25.7597980186697, 72.43392050034528 25.77260566575263, 71.57968807220459 25.799999237060547 M73.23269969882529 25.746990371586765 C72.80037036106428 25.760854331970755, 72.36804102330328 25.77471829235474, 71.57968807220459 25.799999237060547 M71.57968807220459 25.799999237060547 C71.57968807220459 25.799999237060547, 71.57968807220459 25.799999237060547, 71.57968807220459 25.799999237060547 M71.57968807220459 25.799999237060547 C71.57968807220459 25.799999237060547, 71.57968807220459 25.799999237060547, 71.57968807220459 25.799999237060547 M71.57968807220459 25.799999237060547 C25.488466321634483 25.799999237060547, -20.602755428935623 25.799999237060547, -71.57968807220459 25.799999237060547 M71.57968807220459 25.799999237060547 C28.162017965678096 25.799999237060547, -15.255652140848397 25.799999237060547, -71.57968807220459 25.799999237060547 M-71.57968807220459 25.799999237060547 C-72.18521052567426 25.78058131055573, -72.79073297914395 25.761163384050914, -73.23269969882527 25.746990371586765 M-71.57968807220459 25.799999237060547 C-72.19615137544407 25.780230458798684, -72.81261467868356 25.76046168053682, -73.23269969882527 25.746990371586765 M-73.23269969882527 25.746990371586765 C-73.8671683153062 25.685783947215, -74.50163693178712 25.624577522843236, -74.87891874610231 25.588181599964017 M-73.23269969882527 25.746990371586765 C-73.68857895604616 25.703012247917687, -74.14445821326706 25.65903412424861, -74.87891874610231 25.588181599964017 M-74.87891874610231 25.588181599964017 C-75.4181251820424 25.501006885009584, -75.9573316179825 25.413832170055155, -76.51158054685753 25.324225501499278 M-74.87891874610231 25.588181599964017 C-75.40610368378431 25.502950427619844, -75.93328862146632 25.41771925527567, -76.51158054685753 25.324225501499278 M-76.51158054685753 25.324225501499278 C-76.96452055296668 25.22084490081463, -77.41746055907582 25.117464300129985, -78.12397614354678 24.956206728419545 M-76.51158054685753 25.324225501499278 C-77.09678114260227 25.190657284311314, -77.681981738347 25.05708906712335, -78.12397614354678 24.956206728419545 M-78.12397614354678 24.956206728419545 C-78.73162267538169 24.77586042737268, -79.33926920721659 24.595514126325817, -79.7094798568055 24.485637548803183 M-78.12397614354678 24.956206728419545 C-78.72489389087514 24.777857495294114, -79.32581163820349 24.599508262168683, -79.7094798568055 24.485637548803183 M-79.7094798568055 24.485637548803183 C-80.19234654986303 24.307938142187233, -80.67521324292055 24.130238735571286, -81.26157651178644 23.914451632345997 M-79.7094798568055 24.485637548803183 C-80.32187369702208 24.260270954696878, -80.93426753723865 24.034904360590577, -81.26157651178644 23.914451632345997 M-81.26157651178644 23.914451632345997 C-81.77841070291 23.685664467277157, -82.29524489403354 23.45687730220832, -82.77388821041056 23.244996104497723 M-81.26157651178644 23.914451632345997 C-81.84918765520088 23.65433361002168, -82.4367987986153 23.39421558769736, -82.77388821041056 23.244996104497723 M-82.77388821041056 23.244996104497723 C-83.26068047467238 22.991036892037656, -83.7474727389342 22.737077679577588, -84.2402005395184 22.480021901620038 M-82.77388821041056 23.244996104497723 C-83.11252082182202 23.06833168802891, -83.45115343323347 22.89166727156009, -84.2402005395184 22.480021901620038 M-84.2402005395184 22.480021901620038 C-84.59081534569611 22.2674771456738, -84.94143015187382 22.054932389727565, -85.65448810722663 21.622672466799017 M-84.2402005395184 22.480021901620038 C-84.79558360492615 22.143345423576683, -85.35096667033392 21.806668945533332, -85.65448810722663 21.622672466799017 M-85.65448810722663 21.622672466799017 C-85.94105393174517 21.422776552849488, -86.2276197562637 21.222880638899962, -87.01093930255584 20.67647083276321 M-85.65448810722663 21.622672466799017 C-86.13503312482362 21.287465064981895, -86.6155781424206 20.95225766316477, -87.01093930255584 20.67647083276321 M-87.01093930255584 20.67647083276321 C-87.33185846901955 20.42054633752608, -87.65277763548326 20.164621842288952, -88.3039801765865 19.645305144986512 M-87.01093930255584 20.67647083276321 C-87.48667699891634 20.2970826798275, -87.96241469527682 19.917694526891793, -88.3039801765865 19.645305144986512 M-88.3039801765865 19.645305144986512 C-88.57767604809483 19.396741796078587, -88.85137191960315 19.148178447170658, -89.52829734701086 18.533412684464324 M-88.3039801765865 19.645305144986512 C-88.57768863568164 19.396730364365293, -88.85139709477677 19.148155583744074, -89.52829734701086 18.533412684464324 M-89.52829734701086 18.533412684464324 C-89.77065581695783 18.283157666243646, -90.01301428690479 18.03290264802297, -90.67885983196044 17.3453624558171 M-89.52829734701086 18.533412684464324 C-89.76022691020229 18.293926368697903, -89.99215647339372 18.054440052931483, -90.67885983196044 17.3453624558171 M-90.67885983196044 17.3453624558171 C-90.8996230894039 17.086041371838796, -91.12038634684737 16.826720287860493, -91.75093972338968 16.08603641227036 M-90.67885983196044 17.3453624558171 C-91.08048292208235 16.87359312115868, -91.48210601220426 16.401823786500263, -91.75093972338968 16.08603641227036 M-91.75093972338968 16.08603641227036 C-92.06526547907073 15.664868535323185, -92.37959123475177 15.243700658376008, -92.74013161506427 14.760609394661614 M-91.75093972338968 16.08603641227036 C-92.08606977970372 15.636992667785757, -92.42119983601775 15.187948923301153, -92.74013161506427 14.760609394661614 M-92.74013161506427 14.760609394661614 C-93.07347108352155 14.248510456930788, -93.40681055197882 13.736411519199962, -93.64237070532036 13.374527866909418 M-92.74013161506427 14.760609394661614 C-93.08536424993311 14.230239359560283, -93.43059688480194 13.699869324458952, -93.64237070532036 13.374527866909418 M-93.64237070532036 13.374527866909418 C-93.8653192452451 12.978660158285297, -94.08826778516986 12.582792449661177, -94.45394950020639 11.933487535324842 M-93.64237070532036 13.374527866909418 C-93.81108930730349 13.074950904477323, -93.97980790928662 12.775373942045228, -94.45394950020639 11.933487535324842 M-94.45394950020639 11.933487535324842 C-94.66451905440272 11.496235350569469, -94.87508860859906 11.058983165814094, -95.17153304837109 10.443409943732586 M-94.45394950020639 11.933487535324842 C-94.68842588726507 11.446592300606529, -94.92290227432375 10.959697065888216, -95.17153304837109 10.443409943732586 M-95.17153304837109 10.443409943732586 C-95.32030737780354 10.075934473678446, -95.46908170723599 9.708459003624306, -95.79217264509381 8.910418140577127 M-95.17153304837109 10.443409943732586 C-95.38802767721404 9.908664024851586, -95.60452230605699 9.373918105970585, -95.79217264509381 8.910418140577127 M-95.79217264509381 8.910418140577127 C-95.93520697539752 8.479621527128028, -96.07824130570123 8.04882491367893, -96.3133179491449 7.340811518003316 M-95.79217264509381 8.910418140577127 C-95.99654335458554 8.294886125638595, -96.20091406407727 7.6793541107000625, -96.3133179491449 7.340811518003316 M-96.3133179491449 7.340811518003316 C-96.43370012850585 6.881742094133479, -96.55408230786678 6.422672670263642, -96.73282746268467 5.741039926302918 M-96.3133179491449 7.340811518003316 C-96.4697463983771 6.744282044562218, -96.62617484760929 6.14775257112112, -96.73282746268467 5.741039926302918 M-96.73282746268467 5.741039926302918 C-96.85478140875007 5.114832188232712, -96.97673535481547 4.488624450162507, -97.04897733113748 4.117677170096139 M-96.73282746268467 5.741039926302918 C-96.85204867760706 5.12886418508915, -96.97126989252945 4.516688443875383, -97.04897733113748 4.117677170096139 M-97.04897733113748 4.117677170096139 C-97.11277882298808 3.6228453983325166, -97.17658031483867 3.1280136265688943, -97.26046842687991 2.477393995158454 M-97.04897733113748 4.117677170096139 C-97.11784548655783 3.5835493562114045, -97.18671364197817 3.0494215423266695, -97.26046842687991 2.477393995158454 M-97.26046842687991 2.477393995158454 C-97.2855731140918 2.0863682276943503, -97.31067780130371 1.6953424602302463, -97.36643168763487 0.8269306768952934 M-97.26046842687991 2.477393995158454 C-97.2825006487273 2.134224355796186, -97.30453287057466 1.7910547164339177, -97.36643168763487 0.8269306768952934 M-97.36643168763487 0.8269306768952934 C-97.36643168763487 0.47020394316531655, -97.36643168763487 0.11347720943533968, -97.36643168763487 -0.8269306768952809 M-97.36643168763487 0.8269306768952934 C-97.36643168763487 0.3705580879124442, -97.36643168763487 -0.085814501070405, -97.36643168763487 -0.8269306768952809 M-97.36643168763487 -0.8269306768952809 C-97.32634510120421 -1.4513116178630439, -97.28625851477355 -2.0756925588308066, -97.26046842687991 -2.4773939951584185 M-97.36643168763487 -0.8269306768952809 C-97.33678038939482 -1.288773581081234, -97.30712909115476 -1.7506164852671868, -97.26046842687991 -2.4773939951584185 M-97.26046842687991 -2.4773939951584185 C-97.1945520744974 -2.988628207581195, -97.12863572211486 -3.4998624200039714, -97.04897733113748 -4.117677170096128 M-97.26046842687991 -2.4773939951584185 C-97.20210197922442 -2.9300726374156554, -97.14373553156894 -3.3827512796728922, -97.04897733113748 -4.117677170096128 M-97.04897733113748 -4.117677170096128 C-96.95401495578113 -4.605288897245811, -96.85905258042479 -5.092900624395493, -96.73282746268467 -5.741039926302906 M-97.04897733113748 -4.117677170096128 C-96.94171841552483 -4.6684290325871896, -96.8344594999122 -5.219180895078252, -96.73282746268467 -5.741039926302906 M-96.73282746268467 -5.741039926302906 C-96.62006093229513 -6.171067580001621, -96.5072944019056 -6.601095233700335, -96.3133179491449 -7.340811518003303 M-96.73282746268467 -5.741039926302906 C-96.62151106710591 -6.165537587475699, -96.51019467152717 -6.590035248648492, -96.3133179491449 -7.340811518003303 M-96.3133179491449 -7.340811518003303 C-96.13943199513847 -7.864528306506324, -95.96554604113203 -8.388245095009346, -95.79217264509383 -8.910418140577093 M-96.3133179491449 -7.340811518003303 C-96.14997183918763 -7.832783975526345, -95.98662572923035 -8.324756433049387, -95.79217264509383 -8.910418140577093 M-95.79217264509383 -8.910418140577093 C-95.6051832325382 -9.372285604783851, -95.41819381998258 -9.834153068990608, -95.17153304837109 -10.443409943732574 M-95.79217264509383 -8.910418140577093 C-95.55546404964505 -9.495092947784936, -95.31875545419628 -10.079767754992782, -95.17153304837109 -10.443409943732574 M-95.17153304837109 -10.443409943732574 C-94.98773096245564 -10.825078907870624, -94.8039288765402 -11.206747872008673, -94.4539495002064 -11.933487535324831 M-95.17153304837109 -10.443409943732574 C-94.9678744813085 -10.866311315833295, -94.76421591424592 -11.289212687934015, -94.4539495002064 -11.933487535324831 M-94.4539495002064 -11.933487535324831 C-94.15651529980009 -12.461612076624975, -93.85908109939376 -12.98973661792512, -93.64237070532036 -13.374527866909409 M-94.4539495002064 -11.933487535324831 C-94.25287855036177 -12.290509367415474, -94.05180760051715 -12.647531199506115, -93.64237070532036 -13.374527866909409 M-93.64237070532036 -13.374527866909409 C-93.3834579677908 -13.772287359559657, -93.12454523026123 -14.170046852209905, -92.74013161506429 -14.760609394661605 M-93.64237070532036 -13.374527866909409 C-93.37800538246236 -13.780663994848311, -93.11364005960436 -14.186800122787213, -92.74013161506429 -14.760609394661605 M-92.74013161506429 -14.760609394661605 C-92.38504068429152 -15.236398892447815, -92.02994975351876 -15.712188390234026, -91.75093972338968 -16.086036412270353 M-92.74013161506429 -14.760609394661605 C-92.40031736444416 -15.21592953277747, -92.06050311382404 -15.671249670893335, -91.75093972338968 -16.086036412270353 M-91.75093972338968 -16.086036412270353 C-91.37313748917516 -16.52982441413485, -90.99533525496065 -16.973612415999348, -90.67885983196045 -17.345362455817092 M-91.75093972338968 -16.086036412270353 C-91.38112614952799 -16.520440479116765, -91.01131257566631 -16.954844545963176, -90.67885983196045 -17.345362455817092 M-90.67885983196045 -17.345362455817092 C-90.41758016612579 -17.615155162250893, -90.15630050029112 -17.88494786868469, -89.52829734701089 -18.5334126844643 M-90.67885983196045 -17.345362455817092 C-90.34765258531378 -17.68736113060044, -90.01644533866713 -18.029359805383784, -89.52829734701089 -18.5334126844643 M-89.52829734701089 -18.5334126844643 C-89.14119323799193 -18.884970394061856, -88.75408912897296 -19.23652810365941, -88.30398017658653 -19.645305144986487 M-89.52829734701089 -18.5334126844643 C-89.2589737696908 -18.778005231475035, -88.98965019237072 -19.022597778485775, -88.30398017658653 -19.645305144986487 M-88.30398017658653 -19.645305144986487 C-87.87889625302263 -19.984298262070425, -87.45381232945873 -20.323291379154366, -87.01093930255585 -20.676470832763204 M-88.30398017658653 -19.645305144986487 C-87.7970579895539 -20.04956209937908, -87.29013580252128 -20.453819053771674, -87.01093930255585 -20.676470832763204 M-87.01093930255585 -20.676470832763204 C-86.51274389517182 -21.02399038242271, -86.01454848778778 -21.371509932082215, -85.65448810722665 -21.622672466799 M-87.01093930255585 -20.676470832763204 C-86.69318798624079 -20.898120395791803, -86.37543666992572 -21.119769958820406, -85.65448810722665 -21.622672466799 M-85.65448810722665 -21.622672466799 C-85.34008574571251 -21.81326502598223, -85.02568338419839 -22.00385758516546, -84.24020053951841 -22.480021901620027 M-85.65448810722665 -21.622672466799 C-85.18704767848321 -21.906037601688148, -84.71960724973977 -22.189402736577296, -84.24020053951841 -22.480021901620027 M-84.24020053951841 -22.480021901620027 C-83.77186333455326 -22.724353121466052, -83.3035261295881 -22.968684341312077, -82.77388821041058 -23.244996104497716 M-84.24020053951841 -22.480021901620027 C-83.82390507340642 -22.69720297964068, -83.40760960729443 -22.91438405766133, -82.77388821041058 -23.244996104497716 M-82.77388821041058 -23.244996104497716 C-82.2458336878869 -23.478750177438084, -81.71777916536324 -23.71250425037845, -81.26157651178646 -23.91445163234599 M-82.77388821041058 -23.244996104497716 C-82.39013644762822 -23.41487162628988, -82.00638468484587 -23.584747148082045, -81.26157651178646 -23.91445163234599 M-81.26157651178646 -23.91445163234599 C-80.74652248444646 -24.103996275514348, -80.23146845710646 -24.2935409186827, -79.70947985680553 -24.485637548803172 M-81.26157651178646 -23.91445163234599 C-80.87507590952492 -24.05668742675064, -80.48857530726339 -24.198923221155283, -79.70947985680553 -24.485637548803172 M-79.70947985680553 -24.485637548803172 C-79.36433283610917 -24.58807537283217, -79.01918581541283 -24.690513196861165, -78.12397614354681 -24.956206728419538 M-79.70947985680553 -24.485637548803172 C-79.22655234203687 -24.628967900248256, -78.7436248272682 -24.772298251693343, -78.12397614354681 -24.956206728419538 M-78.12397614354681 -24.956206728419538 C-77.77178127952045 -25.03659290784728, -77.41958641549411 -25.11697908727502, -76.51158054685754 -25.324225501499278 M-78.12397614354681 -24.956206728419538 C-77.56109393974441 -25.084680918287784, -76.99821173594201 -25.21315510815603, -76.51158054685754 -25.324225501499278 M-76.51158054685754 -25.324225501499278 C-76.1364476881132 -25.384874072902296, -75.76131482936886 -25.445522644305314, -74.87891874610233 -25.588181599964017 M-76.51158054685754 -25.324225501499278 C-75.95187374737232 -25.414714556248992, -75.39216694788709 -25.50520361099871, -74.87891874610233 -25.588181599964017 M-74.87891874610233 -25.588181599964017 C-74.4712834257729 -25.627505689063, -74.06364810544346 -25.66682977816198, -73.23269969882529 -25.746990371586765 M-74.87891874610233 -25.588181599964017 C-74.22955302085823 -25.65082513050177, -73.58018729561414 -25.71346866103952, -73.23269969882529 -25.746990371586765 M-73.23269969882529 -25.746990371586765 C-72.64505659407466 -25.765834942178202, -72.05741348932403 -25.784679512769642, -71.5796880722046 -25.799999237060547 M-73.23269969882529 -25.746990371586765 C-72.62621264552722 -25.766439230930597, -72.01972559222916 -25.785888090274433, -71.5796880722046 -25.799999237060547 M-71.5796880722046 -25.799999237060547 C-71.5796880722046 -25.799999237060547, -71.57968807220459 -25.799999237060547, -71.57968807220459 -25.799999237060547 M-71.5796880722046 -25.799999237060547 C-71.5796880722046 -25.799999237060547, -71.5796880722046 -25.799999237060547, -71.57968807220459 -25.799999237060547" stroke="#1F4870" stroke-width="1.3" fill="none" stroke-dasharray="0 0" style="fill:#2E5A88 !important;stroke:#1F4870 !important"></path></g><g class="label" style="color:#ffffff !important" transform="translate(0, -18.299999237060547)"><rect></rect><g><rect class="background" style="stroke: none"></rect><text y="-10.1" style="fill:#ffffff !important"><tspan class="text-outer-tspan row" x="0" y="-0.1em" dy="1.1em"><tspan font-style="normal" class="text-inner-tspan" font-weight="normal">Pagesmith</tspan></tspan><tspan class="text-outer-tspan row" x="0" y="1em" dy="1.1em"><tspan font-style="normal" class="text-inner-tspan" font-weight="normal">seven</tspan><tspan font-style="normal" class="text-inner-tspan" font-weight="normal"> locked</tspan><tspan font-style="normal" class="text-inner-tspan" font-weight="normal"> principles</tspan></tspan></text></g></g></g><g class="node default tenet" id="gf8a3af2c-a55a-44cc-9ac4-7a6c0062446b-light-flowchart-filesystem-2" data-look="classic" transform="translate(379.0141143798828, 58.900001525878906)"><rect class="basic label-container" style="fill:#1F6E68 !important;stroke:#155752 !important" x="-124.3828125" y="-50.900001525878906" width="248.765625" height="101.80000305175781"></rect><g class="label" style="color:#ffffff !important" transform="translate(0, -35.900001525878906)"><rect></rect><g><rect class="background" style="stroke: none"></rect><text y="-10.1" style="fill:#ffffff !important"><tspan class="text-outer-tspan row" x="0" y="-0.1em" dy="1.1em"><tspan font-style="normal" class="text-inner-tspan" font-weight="normal">1.</tspan><tspan font-style="normal" class="text-inner-tspan" font-weight="normal"> Filesystem-first</tspan></tspan><tspan class="text-outer-tspan row" x="0" y="1em" dy="1.1em"><tspan font-style="normal" class="text-inner-tspan" font-weight="normal">source</tspan><tspan font-style="normal" class="text-inner-tspan" font-weight="normal"> of</tspan><tspan font-style="normal" class="text-inner-tspan" font-weight="normal"> truth</tspan></tspan><tspan class="text-outer-tspan row" x="0" y="2.1em" dy="1.1em"><tspan font-style="normal" class="text-inner-tspan" font-weight="normal">collections,</tspan><tspan font-style="normal" class="text-inner-tspan" font-weight="normal"> assets,</tspan><tspan font-style="normal" class="text-inner-tspan" font-weight="normal"> nav</tspan><tspan font-style="normal" class="text-inner-tspan" font-weight="normal"> on</tspan></tspan><tspan class="text-outer-tspan row" x="0" y="3.2em" dy="1.1em"><tspan font-style="normal" class="text-inner-tspan" font-weight="normal">disk</tspan></tspan></text></g></g></g><g class="node default tenet" id="gf8a3af2c-a55a-44cc-9ac4-7a6c0062446b-light-flowchart-boundaries-4" data-look="classic" transform="translate(379.0141143798828, 201.9000015258789)"><rect class="basic label-container" style="fill:#1F6E68 !important;stroke:#155752 !important" x="-92.7734375" y="-42.099998474121094" width="185.546875" height="84.19999694824219"></rect><g class="label" style="color:#ffffff !important" transform="translate(0, -27.099998474121094)"><rect></rect><g><rect class="background" style="stroke: none"></rect><text y="-10.1" style="fill:#ffffff !important"><tspan class="text-outer-tspan row" x="0" y="-0.1em" dy="1.1em"><tspan font-style="normal" class="text-inner-tspan" font-weight="normal">2.</tspan><tspan font-style="normal" class="text-inner-tspan" font-weight="normal"> Strict</tspan><tspan font-style="normal" class="text-inner-tspan" font-weight="normal"> package</tspan></tspan><tspan class="text-outer-tspan row" x="0" y="1em" dy="1.1em"><tspan font-style="normal" class="text-inner-tspan" font-weight="normal">boundaries</tspan></tspan><tspan class="text-outer-tspan row" x="0" y="2.1em" dy="1.1em"><tspan font-style="normal" class="text-inner-tspan" font-weight="normal">core</tspan><tspan font-style="normal" class="text-inner-tspan" font-weight="normal"> /</tspan><tspan font-style="normal" class="text-inner-tspan" font-weight="normal"> site</tspan><tspan font-style="normal" class="text-inner-tspan" font-weight="normal"> /</tspan><tspan font-style="normal" class="text-inner-tspan" font-weight="normal"> docs</tspan></tspan></text></g></g></g><g class="node default tenet" id="gf8a3af2c-a55a-44cc-9ac4-7a6c0062446b-light-flowchart-validation-6" data-look="classic" transform="translate(379.0141143798828, 336.0999984741211)"><rect class="basic label-container" style="fill:#1F6E68 !important;stroke:#155752 !important" x="-117.53125" y="-42.099998474121094" width="235.0625" height="84.19999694824219"></rect><g class="label" style="color:#ffffff !important" transform="translate(0, -27.099998474121094)"><rect></rect><g><rect class="background" style="stroke: none"></rect><text y="-10.1" style="fill:#ffffff !important"><tspan class="text-outer-tspan row" x="0" y="-0.1em" dy="1.1em"><tspan font-style="normal" class="text-inner-tspan" font-weight="normal">3.</tspan><tspan font-style="normal" class="text-inner-tspan" font-weight="normal"> Validation</tspan><tspan font-style="normal" class="text-inner-tspan" font-weight="normal"> before</tspan></tspan><tspan class="text-outer-tspan row" x="0" y="1em" dy="1.1em"><tspan font-style="normal" class="text-inner-tspan" font-weight="normal">render</tspan><tspan font-style="normal" class="text-inner-tspan" font-weight="normal"> or</tspan><tspan font-style="normal" class="text-inner-tspan" font-weight="normal"> runtime</tspan></tspan><tspan class="text-outer-tspan row" x="0" y="2.1em" dy="1.1em"><tspan font-style="normal" class="text-inner-tspan" font-weight="normal">Zod</tspan><tspan font-style="normal" class="text-inner-tspan" font-weight="normal"> +</tspan><tspan font-style="normal" class="text-inner-tspan" font-weight="normal"> content</tspan><tspan font-style="normal" class="text-inner-tspan" font-weight="normal"> validators</tspan></tspan></text></g></g></g><g class="node default tenet" id="gf8a3af2c-a55a-44cc-9ac4-7a6c0062446b-light-flowchart-vite-8" data-look="classic" transform="translate(379.0141143798828, 470.2999954223633)"><rect class="basic label-container" style="fill:#1F6E68 !important;stroke:#155752 !important" x="-102.46875" y="-42.099998474121094" width="204.9375" height="84.19999694824219"></rect><g class="label" style="color:#ffffff !important" transform="translate(0, -27.099998474121094)"><rect></rect><g><rect class="background" style="stroke: none"></rect><text y="-10.1" style="fill:#ffffff !important"><tspan class="text-outer-tspan row" x="0" y="-0.1em" dy="1.1em"><tspan font-style="normal" class="text-inner-tspan" font-weight="normal">4.</tspan><tspan font-style="normal" class="text-inner-tspan" font-weight="normal"> Vite-native</tspan></tspan><tspan class="text-outer-tspan row" x="0" y="1em" dy="1.1em"><tspan font-style="normal" class="text-inner-tspan" font-weight="normal">execution</tspan></tspan><tspan class="text-outer-tspan row" x="0" y="2.1em" dy="1.1em"><tspan font-style="normal" class="text-inner-tspan" font-weight="normal">no</tspan><tspan font-style="normal" class="text-inner-tspan" font-weight="normal"> custom</tspan><tspan font-style="normal" class="text-inner-tspan" font-weight="normal"> toolchain</tspan></tspan></text></g></g></g><g class="node default tenet" id="gf8a3af2c-a55a-44cc-9ac4-7a6c0062446b-light-flowchart-progressive-10" data-look="classic" transform="translate(379.0141143798828, 604.4999923706055)"><rect class="basic label-container" style="fill:#1F6E68 !important;stroke:#155752 !important" x="-111.3359375" y="-42.099998474121094" width="222.671875" height="84.19999694824219"></rect><g class="label" style="color:#ffffff !important" transform="translate(0, -27.099998474121094)"><rect></rect><g><rect class="background" style="stroke: none"></rect><text y="-10.1" style="fill:#ffffff !important"><tspan class="text-outer-tspan row" x="0" y="-0.1em" dy="1.1em"><tspan font-style="normal" class="text-inner-tspan" font-weight="normal">5.</tspan><tspan font-style="normal" class="text-inner-tspan" font-weight="normal"> Progressive</tspan></tspan><tspan class="text-outer-tspan row" x="0" y="1em" dy="1.1em"><tspan font-style="normal" class="text-inner-tspan" font-weight="normal">enhancement</tspan></tspan><tspan class="text-outer-tspan row" x="0" y="2.1em" dy="1.1em"><tspan font-style="normal" class="text-inner-tspan" font-weight="normal">HTML</tspan><tspan font-style="normal" class="text-inner-tspan" font-weight="normal"> first,</tspan><tspan font-style="normal" class="text-inner-tspan" font-weight="normal"> JS</tspan><tspan font-style="normal" class="text-inner-tspan" font-weight="normal"> optional</tspan></tspan></text></g></g></g><g class="node default tenet" id="gf8a3af2c-a55a-44cc-9ac4-7a6c0062446b-light-flowchart-config-12" data-look="classic" transform="translate(379.0141143798828, 738.6999893188477)"><rect class="basic label-container" style="fill:#1F6E68 !important;stroke:#155752 !important" x="-110.03125" y="-42.099998474121094" width="220.0625" height="84.19999694824219"></rect><g class="label" style="color:#ffffff !important" transform="translate(0, -27.099998474121094)"><rect></rect><g><rect class="background" style="stroke: none"></rect><text y="-10.1" style="fill:#ffffff !important"><tspan class="text-outer-tspan row" x="0" y="-0.1em" dy="1.1em"><tspan font-style="normal" class="text-inner-tspan" font-weight="normal">6.</tspan><tspan font-style="normal" class="text-inner-tspan" font-weight="normal"> Configuration</tspan></tspan><tspan class="text-outer-tspan row" x="0" y="1em" dy="1.1em"><tspan font-style="normal" class="text-inner-tspan" font-weight="normal">before</tspan><tspan font-style="normal" class="text-inner-tspan" font-weight="normal"> customization</tspan></tspan><tspan class="text-outer-tspan row" x="0" y="2.1em" dy="1.1em"><tspan font-style="normal" class="text-inner-tspan" font-weight="normal">JSON5</tspan><tspan font-style="normal" class="text-inner-tspan" font-weight="normal"> over</tspan><tspan font-style="normal" class="text-inner-tspan" font-weight="normal"> TypeScript</tspan></tspan></text></g></g></g><g class="node default tenet" id="gf8a3af2c-a55a-44cc-9ac4-7a6c0062446b-light-flowchart-parity-14" data-look="classic" transform="translate(379.0141143798828, 872.8999862670898)"><rect class="basic label-container" style="fill:#1F6E68 !important;stroke:#155752 !important" x="-126.28125" y="-42.099998474121094" width="252.5625" height="84.19999694824219"></rect><g class="label" style="color:#ffffff !important" transform="translate(0, -27.099998474121094)"><rect></rect><g><rect class="background" style="stroke: none"></rect><text y="-10.1" style="fill:#ffffff !important"><tspan class="text-outer-tspan row" x="0" y="-0.1em" dy="1.1em"><tspan font-style="normal" class="text-inner-tspan" font-weight="normal">7.</tspan><tspan font-style="normal" class="text-inner-tspan" font-weight="normal"> Docs,</tspan><tspan font-style="normal" class="text-inner-tspan" font-weight="normal"> examples,</tspan></tspan><tspan class="text-outer-tspan row" x="0" y="1em" dy="1.1em"><tspan font-style="normal" class="text-inner-tspan" font-weight="normal">AI</tspan><tspan font-style="normal" class="text-inner-tspan" font-weight="normal"> guidance</tspan><tspan font-style="normal" class="text-inner-tspan" font-weight="normal"> move</tspan><tspan font-style="normal" class="text-inner-tspan" font-weight="normal"> together</tspan></tspan><tspan class="text-outer-tspan row" x="0" y="2.1em" dy="1.1em"><tspan font-style="normal" class="text-inner-tspan" font-weight="normal">same</tspan><tspan font-style="normal" class="text-inner-tspan" font-weight="normal"> branch,</tspan><tspan font-style="normal" class="text-inner-tspan" font-weight="normal"> same</tspan><tspan font-style="normal" class="text-inner-tspan" font-weight="normal"> PR</tspan></tspan></text></g></g></g></g></g></g><defs><filter id="gf8a3af2c-a55a-44cc-9ac4-7a6c0062446b-light-drop-shadow" height="130%" width="130%"><feDropShadow dx="4" dy="4" stdDeviation="0" flood-opacity="0.06" flood-color="#000000"></feDropShadow></filter></defs><defs><filter id="gf8a3af2c-a55a-44cc-9ac4-7a6c0062446b-light-drop-shadow-small" height="150%" width="150%"><feDropShadow dx="2" dy="2" stdDeviation="0" flood-opacity="0.06" flood-color="#000000"></feDropShadow></filter></defs></svg>