<svg xmlns="http://www.w3.org/2000/svg" id="g1063766c-d12a-4705-8b31-302ff9f43c34-dark" width="100%" aria-roledescription="flowchart-v2" class="flowchart" role="graphics-document document" style="max-width:513.2953491210938px" viewBox="0 0 513.295 923"><style>#g1063766c-d12a-4705-8b31-302ff9f43c34-dark{fill:#e5e5e5}#g1063766c-d12a-4705-8b31-302ff9f43c34-dark .edge-thickness-normal{stroke-width:1px}#g1063766c-d12a-4705-8b31-302ff9f43c34-dark .edge-pattern-solid{stroke-dasharray:0}#g1063766c-d12a-4705-8b31-302ff9f43c34-dark .marker{fill:#ccc;stroke:#ccc}#g1063766c-d12a-4705-8b31-302ff9f43c34-dark .marker.cross{stroke:#ccc}#g1063766c-d12a-4705-8b31-302ff9f43c34-dark,#g1063766c-d12a-4705-8b31-302ff9f43c34-dark svg{font-family:&quot;trebuchet ms&quot;,verdana,arial,sans-serif;font-size:16px}#g1063766c-d12a-4705-8b31-302ff9f43c34-dark .label{font-family:&quot;trebuchet ms&quot;,verdana,arial,sans-serif;color:#e5e5e5}#g1063766c-d12a-4705-8b31-302ff9f43c34-dark .label text,#g1063766c-d12a-4705-8b31-302ff9f43c34-dark span{fill:#e5e5e5;color:#e5e5e5}#g1063766c-d12a-4705-8b31-302ff9f43c34-dark .node circle,#g1063766c-d12a-4705-8b31-302ff9f43c34-dark .node ellipse,#g1063766c-d12a-4705-8b31-302ff9f43c34-dark .node path,#g1063766c-d12a-4705-8b31-302ff9f43c34-dark .node polygon,#g1063766c-d12a-4705-8b31-302ff9f43c34-dark .node rect{fill:#2d2d2d;stroke:#555;stroke-width:1px}#g1063766c-d12a-4705-8b31-302ff9f43c34-dark .icon-shape .label,#g1063766c-d12a-4705-8b31-302ff9f43c34-dark .image-shape .label,#g1063766c-d12a-4705-8b31-302ff9f43c34-dark .node .label text,#g1063766c-d12a-4705-8b31-302ff9f43c34-dark .rough-node .label text{text-anchor:middle}#g1063766c-d12a-4705-8b31-302ff9f43c34-dark .icon-shape .label,#g1063766c-d12a-4705-8b31-302ff9f43c34-dark .image-shape .label,#g1063766c-d12a-4705-8b31-302ff9f43c34-dark .node .label,#g1063766c-d12a-4705-8b31-302ff9f43c34-dark .rough-node .label{text-align:center}#g1063766c-d12a-4705-8b31-302ff9f43c34-dark .flowchart-link{stroke:#ccc;fill:none}#g1063766c-d12a-4705-8b31-302ff9f43c34-dark .edgeLabel{background-color:#1e1e1e;text-align:center}#g1063766c-d12a-4705-8b31-302ff9f43c34-dark .edgeLabel rect{opacity:.5;background-color:#1e1e1e;fill:#1e1e1e}#g1063766c-d12a-4705-8b31-302ff9f43c34-dark [data-look=neo].cluster rect,#g1063766c-d12a-4705-8b31-302ff9f43c34-dark [data-look=neo].node circle,#g1063766c-d12a-4705-8b31-302ff9f43c34-dark [data-look=neo].node polygon,#g1063766c-d12a-4705-8b31-302ff9f43c34-dark [data-look=neo].node rect{stroke:url(#g1063766c-d12a-4705-8b31-302ff9f43c34-dark-gradient);filter:drop-shadow(1px 2px 2px #b9b9b9)}#g1063766c-d12a-4705-8b31-302ff9f43c34-dark [data-look=neo].swimlane.cluster rect{filter:none}#g1063766c-d12a-4705-8b31-302ff9f43c34-dark [data-look=neo].node path{stroke:url(#g1063766c-d12a-4705-8b31-302ff9f43c34-dark-gradient);stroke-width:1px}#g1063766c-d12a-4705-8b31-302ff9f43c34-dark [data-look=neo].node .outer-path{filter:drop-shadow(1px 2px 2px #b9b9b9)}#g1063766c-d12a-4705-8b31-302ff9f43c34-dark [data-look=neo].node .neo-line path{stroke:#555;filter:none}#g1063766c-d12a-4705-8b31-302ff9f43c34-dark [data-look=neo].node circle .state-start{fill:#000}#g1063766c-d12a-4705-8b31-302ff9f43c34-dark [data-look=neo].icon-shape .icon{fill:url(#g1063766c-d12a-4705-8b31-302ff9f43c34-dark-gradient);filter:drop-shadow(1px 2px 2px #b9b9b9)}#g1063766c-d12a-4705-8b31-302ff9f43c34-dark [data-look=neo].icon-shape .icon-neo path{stroke:url(#g1063766c-d12a-4705-8b31-302ff9f43c34-dark-gradient);filter:drop-shadow(1px 2px 2px #b9b9b9)}#g1063766c-d12a-4705-8b31-302ff9f43c34-dark .edgeLabel .background{fill:#1e1e1e}#g1063766c-d12a-4705-8b31-302ff9f43c34-dark :root{--mermaid-font-family:&quot;trebuchet ms&quot;,verdana,arial,sans-serif}#g1063766c-d12a-4705-8b31-302ff9f43c34-dark .hub circle,#g1063766c-d12a-4705-8b31-302ff9f43c34-dark .hub path,#g1063766c-d12a-4705-8b31-302ff9f43c34-dark .hub polygon,#g1063766c-d12a-4705-8b31-302ff9f43c34-dark .hub rect{fill:#2e5a88!important;stroke:#1f4870!important;color:#fff!important}#g1063766c-d12a-4705-8b31-302ff9f43c34-dark .hub tspan,#g1063766c-d12a-4705-8b31-302ff9f43c34-dark .tenet tspan{fill:#fff!important}#g1063766c-d12a-4705-8b31-302ff9f43c34-dark .tenet circle,#g1063766c-d12a-4705-8b31-302ff9f43c34-dark .tenet path,#g1063766c-d12a-4705-8b31-302ff9f43c34-dark .tenet polygon,#g1063766c-d12a-4705-8b31-302ff9f43c34-dark .tenet rect{fill:#1f6e68!important;stroke:#155752!important;color:#fff!important}</style><marker id="g1063766c-d12a-4705-8b31-302ff9f43c34-dark_flowchart-v2-pointEnd" class="marker flowchart-v2" markerHeight="8" markerUnits="userSpaceOnUse" markerWidth="8" orient="auto" refX="5" refY="5" viewBox="0 0 10 10"><path d="m0 0 10 5-10 5z" class="arrowMarkerPath" style="stroke-width:1;stroke-dasharray:1,0"/></marker><marker id="g1063766c-d12a-4705-8b31-302ff9f43c34-dark_flowchart-v2-pointStart" class="marker flowchart-v2" markerHeight="8" markerUnits="userSpaceOnUse" markerWidth="8" orient="auto" refX="4.5" refY="5" viewBox="0 0 10 10"><path d="m0 5 10 5V0z" class="arrowMarkerPath" style="stroke-width:1;stroke-dasharray:1,0"/></marker><marker id="g1063766c-d12a-4705-8b31-302ff9f43c34-dark_flowchart-v2-pointEnd-margin" class="marker flowchart-v2" markerHeight="14" markerUnits="userSpaceOnUse" markerWidth="10.5" orient="auto" refX="11.5" refY="7" viewBox="0 0 11.5 14"><path d="m0 0 11.5 7L0 14z" class="arrowMarkerPath" style="stroke-width:0;stroke-dasharray:1,0"/></marker><marker id="g1063766c-d12a-4705-8b31-302ff9f43c34-dark_flowchart-v2-pointStart-margin" class="marker flowchart-v2" markerHeight="14" markerUnits="userSpaceOnUse" markerWidth="11.5" orient="auto" refX="1" refY="7" viewBox="0 0 11.5 14"><path d="m0 7 11.5 7V0z" class="arrowMarkerPath" style="stroke-width:0;stroke-dasharray:1,0"/></marker><marker id="g1063766c-d12a-4705-8b31-302ff9f43c34-dark_flowchart-v2-circleEnd" class="marker flowchart-v2" markerHeight="11" markerUnits="userSpaceOnUse" markerWidth="11" orient="auto" refX="11" refY="5" viewBox="0 0 10 10"><circle cx="5" cy="5" r="5" class="arrowMarkerPath" style="stroke-width:1;stroke-dasharray:1,0"/></marker><marker id="g1063766c-d12a-4705-8b31-302ff9f43c34-dark_flowchart-v2-circleStart" class="marker flowchart-v2" markerHeight="11" markerUnits="userSpaceOnUse" markerWidth="11" orient="auto" refX="-1" refY="5" viewBox="0 0 10 10"><circle cx="5" cy="5" r="5" class="arrowMarkerPath" style="stroke-width:1;stroke-dasharray:1,0"/></marker><marker id="g1063766c-d12a-4705-8b31-302ff9f43c34-dark_flowchart-v2-circleEnd-margin" class="marker flowchart-v2" markerHeight="14" markerUnits="userSpaceOnUse" markerWidth="14" orient="auto" refX="12.25" refY="5" viewBox="0 0 10 10"><circle cx="5" cy="5" r="5" class="arrowMarkerPath" style="stroke-width:0;stroke-dasharray:1,0"/></marker><marker id="g1063766c-d12a-4705-8b31-302ff9f43c34-dark_flowchart-v2-circleStart-margin" class="marker flowchart-v2" markerHeight="14" markerUnits="userSpaceOnUse" markerWidth="14" orient="auto" refX="-2" refY="5" viewBox="0 0 10 10"><circle cx="5" cy="5" r="5" class="arrowMarkerPath" style="stroke-width:0;stroke-dasharray:1,0"/></marker><marker id="g1063766c-d12a-4705-8b31-302ff9f43c34-dark_flowchart-v2-crossEnd" class="marker cross flowchart-v2" markerHeight="11" markerUnits="userSpaceOnUse" markerWidth="11" orient="auto" refX="12" refY="5.2" viewBox="0 0 11 11"><path d="m1 1 9 9m0-9-9 9" class="arrowMarkerPath" style="stroke-width:2;stroke-dasharray:1,0"/></marker><marker id="g1063766c-d12a-4705-8b31-302ff9f43c34-dark_flowchart-v2-crossStart" class="marker cross flowchart-v2" markerHeight="11" markerUnits="userSpaceOnUse" markerWidth="11" orient="auto" refX="-1" refY="5.2" viewBox="0 0 11 11"><path d="m1 1 9 9m0-9-9 9" class="arrowMarkerPath" style="stroke-width:2;stroke-dasharray:1,0"/></marker><marker id="g1063766c-d12a-4705-8b31-302ff9f43c34-dark_flowchart-v2-crossEnd-margin" class="marker cross flowchart-v2" markerHeight="12" markerUnits="userSpaceOnUse" markerWidth="12" orient="auto" refX="17.7" refY="7.5" viewBox="0 0 15 15"><path d="m1 1 13 13M1 14 14 1" class="arrowMarkerPath" style="stroke-width:2.5"/></marker><marker id="g1063766c-d12a-4705-8b31-302ff9f43c34-dark_flowchart-v2-crossStart-margin" class="marker cross flowchart-v2" markerHeight="12" markerUnits="userSpaceOnUse" markerWidth="12" orient="auto" refX="-3.5" refY="7.5" viewBox="0 0 15 15"><path d="m1 1 13 13M1 14 14 1" class="arrowMarkerPath" style="stroke-width:2.5;stroke-dasharray:1,0"/></marker><g class="root"><g class="edgePaths"><path id="g1063766c-d12a-4705-8b31-302ff9f43c34-dark-L_hub_filesystem_0" d="m113.54 445 19.032-64.35c19.033-64.35 57.097-193.05 80.612-257.4s32.481-64.35 36.964-64.35h4.483" class="edge-thickness-normal edge-pattern-solid edge-thickness-normal edge-pattern-solid flowchart-link" data-edge="true" data-et="edge" data-id="L_hub_filesystem_0" data-look="classic" data-points="W3sieCI6MTEzLjU0MDM2MDAwNzEwMjg5LCJ5Ijo0NDQuOTk5OTk2MTg1MzAyOH0seyJ4IjoyMjcuNzMyODY0Mzc5ODgyOCwieSI6NTguOTAwMDAxNTI1ODc4OTA2fSx7IngiOjI1NC42MzEzMDE4Nzk4ODI4LCJ5Ijo1OC45MDAwMDE1MjU4Nzg5MDZ9XQ=="/><path id="g1063766c-d12a-4705-8b31-302ff9f43c34-dark-L_hub_boundaries_0" d="m117.629 445 18.351-40.517c18.35-40.516 55.052-121.55 83.154-162.066s47.604-40.517 57.355-40.517h9.752" class="edge-thickness-normal edge-pattern-solid edge-thickness-normal edge-pattern-solid flowchart-link" data-edge="true" data-et="edge" data-id="L_hub_boundaries_0" data-look="classic" data-points="W3sieCI6MTE3LjYyODkyODE5OTM4NTgsInkiOjQ0NC45OTk5OTYxODUzMDI4fSx7IngiOjIyNy43MzI4NjQzNzk4ODI4LCJ5IjoyMDEuOTAwMDAxNTI1ODc4OX0seyJ4IjoyODYuMjQwNjc2ODc5ODgyOCwieSI6MjAxLjkwMDAwMTUyNTg3ODl9XQ=="/><path id="g1063766c-d12a-4705-8b31-302ff9f43c34-dark-L_hub_validation_0" d="m129.391 445 16.391-18.15c16.39-18.15 49.17-54.45 71.186-72.6 22.015-18.15 33.265-18.15 38.89-18.15h5.625" class="edge-thickness-normal edge-pattern-solid edge-thickness-normal edge-pattern-solid flowchart-link" data-edge="true" data-et="edge" data-id="L_hub_validation_0" data-look="classic" data-points="W3sieCI6MTI5LjM5MTQyNDIwODgzMDI0LCJ5Ijo0NDQuOTk5OTk2MTg1MzAyOH0seyJ4IjoyMjcuNzMyODY0Mzc5ODgyOCwieSI6MzM2LjA5OTk5ODQ3NDEyMTF9LHsieCI6MjYxLjQ4Mjg2NDM3OTg4MjgsInkiOjMzNi4wOTk5OTg0NzQxMjExfV0="/><path id="g1063766c-d12a-4705-8b31-302ff9f43c34-dark-L_hub_vite_0" d="m203.233 470.8 4.083-.083c4.084-.084 12.25-.25 24.469-.334 12.219-.083 28.49-.083 36.625-.083h8.135" class="edge-thickness-normal edge-pattern-solid edge-thickness-normal edge-pattern-solid flowchart-link" data-edge="true" data-et="edge" data-id="L_hub_vite_0" data-look="classic" data-points="W3sieCI6MjAzLjIzMjg2MzM3NTI3MjI3LCJ5Ijo0NzAuNzk5OTk1NDIyMzYzM30seyJ4IjoyMjcuNzMyODY0Mzc5ODgyOCwieSI6NDcwLjI5OTk5NTQyMjM2MzN9LHsieCI6Mjc2LjU0NTM2NDM3OTg4MjgsInkiOjQ3MC4yOTk5OTU0MjIzNjMzfV0="/><path id="g1063766c-d12a-4705-8b31-302ff9f43c34-dark-L_hub_progressive_0" d="m129.391 496.6 16.391 17.983c16.39 17.984 49.17 53.95 72.218 71.934s36.363 17.983 43.021 17.983h6.657" class="edge-thickness-normal edge-pattern-solid edge-thickness-normal edge-pattern-solid flowchart-link" data-edge="true" data-et="edge" data-id="L_hub_progressive_0" data-look="classic" data-points="W3sieCI6MTI5LjM5MTQyNDIwODgzMDMsInkiOjQ5Ni41OTk5OTQ2NTk0MjM5fSx7IngiOjIyNy43MzI4NjQzNzk4ODI4LCJ5Ijo2MDQuNDk5OTkyMzcwNjA1NX0seyJ4IjoyNjcuNjc4MTc2ODc5ODgyOCwieSI6NjA0LjQ5OTk5MjM3MDYwNTV9XQ=="/><path id="g1063766c-d12a-4705-8b31-302ff9f43c34-dark-L_hub_config_0" d="m117.629 496.6 18.351 40.35c18.35 40.35 55.052 121.05 80.277 161.4s38.976 40.35 45.851 40.35h6.875" class="edge-thickness-normal edge-pattern-solid edge-thickness-normal edge-pattern-solid flowchart-link" data-edge="true" data-et="edge" data-id="L_hub_config_0" data-look="classic" data-points="W3sieCI6MTE3LjYyODkyODE5OTM4NTgzLCJ5Ijo0OTYuNTk5OTk0NjU5NDIzOX0seyJ4IjoyMjcuNzMyODY0Mzc5ODgyOCwieSI6NzM4LjY5OTk4OTMxODg0Nzd9LHsieCI6MjY4Ljk4Mjg2NDM3OTg4MjgsInkiOjczOC42OTk5ODkzMTg4NDc3fV0="/><path id="g1063766c-d12a-4705-8b31-302ff9f43c34-dark-L_hub_parity_0" d="m113.708 496.6 19.004 62.717c19.004 62.716 57.013 188.15 80.183 250.866S244.4 872.9 248.566 872.9h4.167" class="edge-thickness-normal edge-pattern-solid edge-thickness-normal edge-pattern-solid flowchart-link" data-edge="true" data-et="edge" data-id="L_hub_parity_0" data-look="classic" data-points="W3sieCI6MTEzLjcwODA5NjE5NjIzNzcsInkiOjQ5Ni41OTk5OTQ2NTk0MjM5fSx7IngiOjIyNy43MzI4NjQzNzk4ODI4LCJ5Ijo4NzIuODk5OTg2MjY3MDg5OH0seyJ4IjoyNTIuNzMyODY0Mzc5ODgyOCwieSI6ODcyLjg5OTk4NjI2NzA4OTh9XQ=="/></g><g class="edgeLabels"><g class="edgeLabel"><text y="-10.1" class="label" data-id="L_hub_filesystem_0" text-anchor="middle"/></g><rect class="background" style="stroke:none"/><g class="edgeLabel"><text y="-10.1" class="label" data-id="L_hub_boundaries_0" text-anchor="middle"/></g><rect class="background" style="stroke:none"/><g class="edgeLabel"><text y="-10.1" class="label" data-id="L_hub_validation_0" text-anchor="middle"/></g><rect class="background" style="stroke:none"/><g class="edgeLabel"><text y="-10.1" class="label" data-id="L_hub_vite_0" text-anchor="middle"/></g><rect class="background" style="stroke:none"/><g class="edgeLabel"><text y="-10.1" class="label" data-id="L_hub_progressive_0" text-anchor="middle"/></g><rect class="background" style="stroke:none"/><g class="edgeLabel"><text y="-10.1" class="label" data-id="L_hub_config_0" text-anchor="middle"/></g><rect class="background" style="stroke:none"/><g class="edgeLabel"><text y="-10.1" class="label" data-id="L_hub_parity_0" text-anchor="middle"/></g><rect class="background" style="stroke:none"/></g><g class="nodes"><g id="g1063766c-d12a-4705-8b31-302ff9f43c34-dark-flowchart-hub-0" class="node default hub" data-look="classic"><g class="basic label-container outer-path"><path fill="#2e5a88" stroke="none" stroke-width="0" d="M-71.58-25.8H71.58l1.653.053 1.646.159 1.633.264 1.612.368 1.585.47 1.553.572 1.512.669 1.466.765 1.414.857 1.357.947 1.293 1.03 1.224 1.113c.313.323.627.646 1.15 1.188l1.073 1.259.99 1.325.901 1.386.812 1.442.718 1.49.62 1.533.521 1.57c.12.452.238.905.42 1.599l.316 1.623.211 1.64.106 1.651V.827l-.106 1.65-.211 1.64-.316 1.624-.42 1.6-.52 1.57-.621 1.532-.718 1.49-.812 1.442-.902 1.386-.99 1.325-1.071 1.26-1.15 1.187-1.225 1.112-1.293 1.031-1.357.947-1.414.857-1.466.765-1.512.67-1.553.57-1.585.471-1.612.368-1.633.264-1.646.159-1.653.053H-71.58l-1.653-.053-1.646-.159-1.633-.264-1.612-.368-1.585-.47-1.553-.572-1.512-.669-1.466-.765-1.414-.857-1.357-.947-1.293-1.03-1.224-1.113-1.15-1.188-1.073-1.259-.99-1.325c-.312-.482-.626-.963-.901-1.386l-.812-1.442-.718-1.49-.62-1.533-.521-1.57-.42-1.599-.316-1.623-.211-1.64-.106-1.651V-.827l.106-1.65c.06-.475.122-.95.211-1.64l.316-1.624.42-1.6c.184-.556.37-1.113.52-1.57l.621-1.532.718-1.49.812-1.442q.45-.689.902-1.386l.99-1.325 1.071-1.26c.31-.318.618-.637 1.15-1.187l1.225-1.112 1.293-1.031c.3-.21.6-.42 1.357-.947l1.414-.857 1.466-.765 1.512-.67 1.553-.57 1.585-.471 1.612-.368 1.633-.264 1.646-.159 1.653-.053" style="fill:#2e5a88!important;stroke:#1f4870!important" transform="translate(105.366 470.3)"/><path fill="none" stroke="#1f4870" stroke-dasharray="0 0" stroke-width="1.3" d="M-71.58-25.8H71.58m-143.16 0H71.58m0 0 1.653.053M71.58-25.8l1.653.053m0 0 1.646.159m-1.646-.159 1.646.159m0 0 1.633.264m-1.633-.264 1.633.264m0 0 1.612.368m-1.612-.368 1.612.368m0 0 1.585.47m-1.585-.47 1.585.47m0 0 1.553.572m-1.553-.572 1.553.572m0 0 1.512.669m-1.512-.67 1.512.67m0 0 1.466.765m-1.466-.765 1.466.765m0 0 1.414.857m-1.414-.857 1.414.857m0 0 1.357.947m-1.357-.947 1.357.947m0 0c.464.37.927.74 1.293 1.03m-1.293-1.03 1.293 1.03m0 0 1.224 1.113m-1.224-1.112 1.224 1.112m0 0c.343.353.685.706 1.15 1.188m-1.15-1.188c.391.403.783.807 1.15 1.188m0 0 1.073 1.259m-1.072-1.26 1.072 1.26m0 0 .99 1.325m-.99-1.325.99 1.325m0 0 .901 1.386m-.902-1.386.902 1.386m0 0 .812 1.442m-.812-1.442.812 1.442m0 0 .718 1.49m-.718-1.49.718 1.49m0 0 .62 1.533m-.62-1.533.62 1.533m0 0 .521 1.57m-.52-1.57.52 1.57m0 0 .42 1.599m-.42-1.6.42 1.6m0 0 .316 1.623m-.316-1.623.316 1.623m0 0 .211 1.64m-.211-1.64.211 1.64m0 0 .106 1.651m-.106-1.65.106 1.65m0 0V.827m0-1.654V.827m0 0-.106 1.65m.106-1.65-.106 1.65m0 0c-.08.63-.162 1.258-.211 1.64m.211-1.64-.211 1.64m0 0-.316 1.624m.316-1.623-.316 1.623m0 0-.42 1.6m.42-1.6-.42 1.6m0 0-.52 1.57m.52-1.57-.52 1.57m0 0c-.202.495-.402.991-.621 1.532m.62-1.533-.62 1.533m0 0-.718 1.49m.718-1.49-.718 1.49m0 0-.812 1.442m.812-1.442-.812 1.442m0 0-.902 1.386m.902-1.386-.902 1.386m0 0c-.275.369-.55.738-.99 1.325m.99-1.325-.99 1.325m0 0-1.071 1.26m1.072-1.26-1.072 1.26m0 0-1.15 1.187m1.15-1.188-1.15 1.188m0 0-1.225 1.112m1.224-1.112-1.224 1.112m0 0-1.293 1.031m1.293-1.03-1.293 1.03m0 0-1.357.947m1.357-.947-1.357.947m0 0-1.414.857m1.414-.857-1.414.857m0 0-1.466.765m1.466-.765-1.466.765m0 0-1.512.67m1.512-.67-1.512.67m0 0-1.553.57m1.553-.57-1.553.57m0 0-1.585.471m1.585-.47-1.585.47m0 0-1.612.368m1.612-.368-1.612.368m0 0-1.633.264m1.633-.264-1.633.264m0 0-1.646.159m1.646-.159-1.646.159m0 0-1.653.053m1.653-.053-1.653.053m0 0H-71.58m143.16 0H-71.58m0 0-1.653-.053m1.653.053-1.653-.053m0 0-1.646-.159m1.646.159-1.646-.159m0 0-1.633-.264m1.633.264-1.633-.264m0 0-1.612-.368m1.612.368-1.612-.368m0 0-1.585-.47m1.585.47-1.585-.47m0 0-1.553-.572m1.553.572-1.553-.572m0 0-1.512-.669m1.512.67-1.512-.67m0 0-1.466-.765m1.466.765-1.466-.765m0 0-1.414-.857m1.414.857-1.414-.857m0 0-1.357-.947m1.357.947-1.357-.947m0 0-1.293-1.03m1.293 1.03-1.293-1.03m0 0-1.224-1.113m1.224 1.112-1.224-1.112m0 0-1.15-1.188m1.15 1.188-1.15-1.188m0 0-1.073-1.259m1.072 1.26-1.072-1.26m0 0-.99-1.325m.99 1.325-.99-1.325m0 0-.901-1.386m.902 1.386-.902-1.386m0 0-.812-1.442m.812 1.442-.812-1.442m0 0-.718-1.49m.718 1.49-.718-1.49m0 0-.62-1.533m.62 1.533-.62-1.533m0 0-.521-1.57m.52 1.57-.52-1.57m0 0-.42-1.599m.42 1.6-.42-1.6m0 0-.316-1.623m.316 1.623-.316-1.623m0 0-.211-1.64m.211 1.64-.211-1.64m0 0-.106-1.651m.106 1.65-.106-1.65m0 0V-.827m0 1.654V-.827m0 0 .106-1.65m-.106 1.65.106-1.65m0 0 .211-1.64m-.211 1.64.211-1.64m0 0 .316-1.624m-.316 1.623.316-1.623m0 0 .42-1.6m-.42 1.6.42-1.6m0 0 .52-1.57m-.52 1.57.52-1.57m0 0 .621-1.532m-.62 1.533.62-1.533m0 0 .718-1.49m-.718 1.49.718-1.49m0 0 .812-1.442m-.812 1.442.812-1.442m0 0 .902-1.386m-.902 1.386.902-1.386m0 0 .99-1.325m-.99 1.325.99-1.325m0 0c.223-.264.448-.527 1.071-1.26m-1.072 1.26 1.072-1.26m0 0 1.15-1.187m-1.15 1.188 1.15-1.188m0 0 1.225-1.112m-1.224 1.112 1.224-1.112m0 0 1.293-1.031m-1.293 1.03 1.293-1.03m0 0 1.357-.947m-1.357.947 1.357-.947m0 0 1.414-.857m-1.414.857 1.414-.857m0 0 1.466-.765m-1.466.765 1.466-.765m0 0 1.512-.67m-1.512.67 1.512-.67m0 0 1.553-.57m-1.553.57 1.553-.57m0 0 1.585-.471m-1.585.47 1.585-.47m0 0 1.612-.368m-1.612.368 1.612-.368m0 0 1.633-.264m-1.633.264 1.633-.264m0 0 1.646-.159m-1.646.159 1.646-.159m0 0 1.653-.053m-1.653.053 1.653-.053m0 0" style="fill:#2e5a88!important;stroke:#1f4870!important" transform="translate(105.366 470.3)"/></g><g class="label" style="color:#fff!important" transform="translate(105.366 452)"><rect/><rect class="background" style="stroke:none"/><text y="-10.1" style="fill:#fff!important"><tspan x="0" y="-.1em" class="text-outer-tspan row" dy="1.1em"><tspan class="text-inner-tspan" font-style="normal" font-weight="normal">Pagesmith</tspan></tspan><tspan x="0" y="1em" class="text-outer-tspan row" dy="1.1em"><tspan class="text-inner-tspan" font-style="normal" font-weight="normal">seven</tspan><tspan class="text-inner-tspan" font-style="normal" font-weight="normal"> locked</tspan><tspan class="text-inner-tspan" font-style="normal" font-weight="normal"> principles</tspan></tspan></text></g></g><g id="g1063766c-d12a-4705-8b31-302ff9f43c34-dark-flowchart-filesystem-2" class="node default tenet" data-look="classic"><path d="M-124.383-50.9h248.766V50.9h-248.766z" class="basic label-container" style="fill:#1f6e68!important;stroke:#155752!important" transform="translate(379.014 58.9)"/><g class="label" style="color:#fff!important" transform="translate(379.014 23)"><rect/><rect class="background" style="stroke:none"/><text y="-10.1" style="fill:#fff!important"><tspan x="0" y="-.1em" class="text-outer-tspan row" dy="1.1em"><tspan class="text-inner-tspan" font-style="normal" font-weight="normal">1.</tspan><tspan class="text-inner-tspan" font-style="normal" font-weight="normal"> Filesystem-first</tspan></tspan><tspan x="0" y="1em" class="text-outer-tspan row" dy="1.1em"><tspan class="text-inner-tspan" font-style="normal" font-weight="normal">source</tspan><tspan class="text-inner-tspan" font-style="normal" font-weight="normal"> of</tspan><tspan class="text-inner-tspan" font-style="normal" font-weight="normal"> truth</tspan></tspan><tspan x="0" y="2.1em" class="text-outer-tspan row" dy="1.1em"><tspan class="text-inner-tspan" font-style="normal" font-weight="normal">collections,</tspan><tspan class="text-inner-tspan" font-style="normal" font-weight="normal"> assets,</tspan><tspan class="text-inner-tspan" font-style="normal" font-weight="normal"> nav</tspan><tspan class="text-inner-tspan" font-style="normal" font-weight="normal"> on</tspan></tspan><tspan x="0" y="3.2em" class="text-outer-tspan row" dy="1.1em"><tspan class="text-inner-tspan" font-style="normal" font-weight="normal">disk</tspan></tspan></text></g></g><g id="g1063766c-d12a-4705-8b31-302ff9f43c34-dark-flowchart-boundaries-4" class="node default tenet" data-look="classic"><path d="M-92.773-42.1H92.774v84.2H-92.773z" class="basic label-container" style="fill:#1f6e68!important;stroke:#155752!important" transform="translate(379.014 201.9)"/><g class="label" style="color:#fff!important" transform="translate(379.014 174.8)"><rect/><rect class="background" style="stroke:none"/><text y="-10.1" style="fill:#fff!important"><tspan x="0" y="-.1em" class="text-outer-tspan row" dy="1.1em"><tspan class="text-inner-tspan" font-style="normal" font-weight="normal">2.</tspan><tspan class="text-inner-tspan" font-style="normal" font-weight="normal"> Strict</tspan><tspan class="text-inner-tspan" font-style="normal" font-weight="normal"> package</tspan></tspan><tspan x="0" y="1em" class="text-outer-tspan row" dy="1.1em"><tspan class="text-inner-tspan" font-style="normal" font-weight="normal">boundaries</tspan></tspan><tspan x="0" y="2.1em" class="text-outer-tspan row" dy="1.1em"><tspan class="text-inner-tspan" font-style="normal" font-weight="normal">core</tspan><tspan class="text-inner-tspan" font-style="normal" font-weight="normal"> /</tspan><tspan class="text-inner-tspan" font-style="normal" font-weight="normal"> site</tspan><tspan class="text-inner-tspan" font-style="normal" font-weight="normal"> /</tspan><tspan class="text-inner-tspan" font-style="normal" font-weight="normal"> docs</tspan></tspan></text></g></g><g id="g1063766c-d12a-4705-8b31-302ff9f43c34-dark-flowchart-validation-6" class="node default tenet" data-look="classic"><path d="M-117.531-42.1h235.063v84.2h-235.063z" class="basic label-container" style="fill:#1f6e68!important;stroke:#155752!important" transform="translate(379.014 336.1)"/><g class="label" style="color:#fff!important" transform="translate(379.014 309)"><rect/><rect class="background" style="stroke:none"/><text y="-10.1" style="fill:#fff!important"><tspan x="0" y="-.1em" class="text-outer-tspan row" dy="1.1em"><tspan class="text-inner-tspan" font-style="normal" font-weight="normal">3.</tspan><tspan class="text-inner-tspan" font-style="normal" font-weight="normal"> Validation</tspan><tspan class="text-inner-tspan" font-style="normal" font-weight="normal"> before</tspan></tspan><tspan x="0" y="1em" class="text-outer-tspan row" dy="1.1em"><tspan class="text-inner-tspan" font-style="normal" font-weight="normal">render</tspan><tspan class="text-inner-tspan" font-style="normal" font-weight="normal"> or</tspan><tspan class="text-inner-tspan" font-style="normal" font-weight="normal"> runtime</tspan></tspan><tspan x="0" y="2.1em" class="text-outer-tspan row" dy="1.1em"><tspan class="text-inner-tspan" font-style="normal" font-weight="normal">Zod</tspan><tspan class="text-inner-tspan" font-style="normal" font-weight="normal"> +</tspan><tspan class="text-inner-tspan" font-style="normal" font-weight="normal"> content</tspan><tspan class="text-inner-tspan" font-style="normal" font-weight="normal"> validators</tspan></tspan></text></g></g><g id="g1063766c-d12a-4705-8b31-302ff9f43c34-dark-flowchart-vite-8" class="node default tenet" data-look="classic"><path d="M-102.469-42.1h204.938v84.2h-204.938z" class="basic label-container" style="fill:#1f6e68!important;stroke:#155752!important" transform="translate(379.014 470.3)"/><g class="label" style="color:#fff!important" transform="translate(379.014 443.2)"><rect/><rect class="background" style="stroke:none"/><text y="-10.1" style="fill:#fff!important"><tspan x="0" y="-.1em" class="text-outer-tspan row" dy="1.1em"><tspan class="text-inner-tspan" font-style="normal" font-weight="normal">4.</tspan><tspan class="text-inner-tspan" font-style="normal" font-weight="normal"> Vite-native</tspan></tspan><tspan x="0" y="1em" class="text-outer-tspan row" dy="1.1em"><tspan class="text-inner-tspan" font-style="normal" font-weight="normal">execution</tspan></tspan><tspan x="0" y="2.1em" class="text-outer-tspan row" dy="1.1em"><tspan class="text-inner-tspan" font-style="normal" font-weight="normal">no</tspan><tspan class="text-inner-tspan" font-style="normal" font-weight="normal"> custom</tspan><tspan class="text-inner-tspan" font-style="normal" font-weight="normal"> toolchain</tspan></tspan></text></g></g><g id="g1063766c-d12a-4705-8b31-302ff9f43c34-dark-flowchart-progressive-10" class="node default tenet" data-look="classic"><path d="M-111.336-42.1h222.672v84.2h-222.672z" class="basic label-container" style="fill:#1f6e68!important;stroke:#155752!important" transform="translate(379.014 604.5)"/><g class="label" style="color:#fff!important" transform="translate(379.014 577.4)"><rect/><rect class="background" style="stroke:none"/><text y="-10.1" style="fill:#fff!important"><tspan x="0" y="-.1em" class="text-outer-tspan row" dy="1.1em"><tspan class="text-inner-tspan" font-style="normal" font-weight="normal">5.</tspan><tspan class="text-inner-tspan" font-style="normal" font-weight="normal"> Progressive</tspan></tspan><tspan x="0" y="1em" class="text-outer-tspan row" dy="1.1em"><tspan class="text-inner-tspan" font-style="normal" font-weight="normal">enhancement</tspan></tspan><tspan x="0" y="2.1em" class="text-outer-tspan row" dy="1.1em"><tspan class="text-inner-tspan" font-style="normal" font-weight="normal">HTML</tspan><tspan class="text-inner-tspan" font-style="normal" font-weight="normal"> first,</tspan><tspan class="text-inner-tspan" font-style="normal" font-weight="normal"> JS</tspan><tspan class="text-inner-tspan" font-style="normal" font-weight="normal"> optional</tspan></tspan></text></g></g><g id="g1063766c-d12a-4705-8b31-302ff9f43c34-dark-flowchart-config-12" class="node default tenet" data-look="classic"><path d="M-110.031-42.1h220.063v84.2h-220.063z" class="basic label-container" style="fill:#1f6e68!important;stroke:#155752!important" transform="translate(379.014 738.7)"/><g class="label" style="color:#fff!important" transform="translate(379.014 711.6)"><rect/><rect class="background" style="stroke:none"/><text y="-10.1" style="fill:#fff!important"><tspan x="0" y="-.1em" class="text-outer-tspan row" dy="1.1em"><tspan class="text-inner-tspan" font-style="normal" font-weight="normal">6.</tspan><tspan class="text-inner-tspan" font-style="normal" font-weight="normal"> Configuration</tspan></tspan><tspan x="0" y="1em" class="text-outer-tspan row" dy="1.1em"><tspan class="text-inner-tspan" font-style="normal" font-weight="normal">before</tspan><tspan class="text-inner-tspan" font-style="normal" font-weight="normal"> customization</tspan></tspan><tspan x="0" y="2.1em" class="text-outer-tspan row" dy="1.1em"><tspan class="text-inner-tspan" font-style="normal" font-weight="normal">JSON5</tspan><tspan class="text-inner-tspan" font-style="normal" font-weight="normal"> over</tspan><tspan class="text-inner-tspan" font-style="normal" font-weight="normal"> TypeScript</tspan></tspan></text></g></g><g id="g1063766c-d12a-4705-8b31-302ff9f43c34-dark-flowchart-parity-14" class="node default tenet" data-look="classic"><path d="M-126.281-42.1h252.563v84.2h-252.563z" class="basic label-container" style="fill:#1f6e68!important;stroke:#155752!important" transform="translate(379.014 872.9)"/><g class="label" style="color:#fff!important" transform="translate(379.014 845.8)"><rect/><rect class="background" style="stroke:none"/><text y="-10.1" style="fill:#fff!important"><tspan x="0" y="-.1em" class="text-outer-tspan row" dy="1.1em"><tspan class="text-inner-tspan" font-style="normal" font-weight="normal">7.</tspan><tspan class="text-inner-tspan" font-style="normal" font-weight="normal"> Docs,</tspan><tspan class="text-inner-tspan" font-style="normal" font-weight="normal"> examples,</tspan></tspan><tspan x="0" y="1em" class="text-outer-tspan row" dy="1.1em"><tspan class="text-inner-tspan" font-style="normal" font-weight="normal">AI</tspan><tspan class="text-inner-tspan" font-style="normal" font-weight="normal"> guidance</tspan><tspan class="text-inner-tspan" font-style="normal" font-weight="normal"> move</tspan><tspan class="text-inner-tspan" font-style="normal" font-weight="normal"> together</tspan></tspan><tspan x="0" y="2.1em" class="text-outer-tspan row" dy="1.1em"><tspan class="text-inner-tspan" font-style="normal" font-weight="normal">same</tspan><tspan class="text-inner-tspan" font-style="normal" font-weight="normal"> branch,</tspan><tspan class="text-inner-tspan" font-style="normal" font-weight="normal"> same</tspan><tspan class="text-inner-tspan" font-style="normal" font-weight="normal"> PR</tspan></tspan></text></g></g></g></g><defs><filter id="g1063766c-d12a-4705-8b31-302ff9f43c34-dark-drop-shadow" width="130%" height="130%"><feDropShadow dx="4" dy="4" flood-color="#000" flood-opacity=".06" stdDeviation="0"/></filter></defs><defs><filter id="g1063766c-d12a-4705-8b31-302ff9f43c34-dark-drop-shadow-small" width="150%" height="150%"><feDropShadow dx="2" dy="2" flood-color="#000" flood-opacity=".06" stdDeviation="0"/></filter></defs><linearGradient id="g1063766c-d12a-4705-8b31-302ff9f43c34-dark-gradient" x1="0%" x2="100%" y1="0%" y2="0%" gradientUnits="objectBoundingBox"><stop offset="0%" stop-color="#555" stop-opacity="1"/><stop offset="100%" stop-color="#555" stop-opacity="1"/></linearGradient></svg>