<svg id="gd553c164-5b82-4e91-a795-0f04fca8ec49-light" width="100%" xmlns="http://www.w3.org/2000/svg" xmlns:xlink="http://www.w3.org/1999/xlink" class="flowchart" style="max-width: 513.2953491210938px;" viewBox="0 0 513.2953491210938 923" role="graphics-document document" aria-roledescription="flowchart-v2"><style>#gd553c164-5b82-4e91-a795-0f04fca8ec49-light{font-family:"trebuchet ms",verdana,arial,sans-serif;font-size:16px;fill:#333;}@keyframes edge-animation-frame{from{stroke-dashoffset:0;}}@keyframes dash{to{stroke-dashoffset:0;}}#gd553c164-5b82-4e91-a795-0f04fca8ec49-light .edge-animation-slow{stroke-dasharray:9,5!important;stroke-dashoffset:900;animation:dash 50s linear infinite;stroke-linecap:round;}#gd553c164-5b82-4e91-a795-0f04fca8ec49-light .edge-animation-fast{stroke-dasharray:9,5!important;stroke-dashoffset:900;animation:dash 20s linear infinite;stroke-linecap:round;}#gd553c164-5b82-4e91-a795-0f04fca8ec49-light .error-icon{fill:#552222;}#gd553c164-5b82-4e91-a795-0f04fca8ec49-light .error-text{fill:#552222;stroke:#552222;}#gd553c164-5b82-4e91-a795-0f04fca8ec49-light .edge-thickness-normal{stroke-width:1px;}#gd553c164-5b82-4e91-a795-0f04fca8ec49-light .edge-thickness-thick{stroke-width:3.5px;}#gd553c164-5b82-4e91-a795-0f04fca8ec49-light .edge-pattern-solid{stroke-dasharray:0;}#gd553c164-5b82-4e91-a795-0f04fca8ec49-light .edge-thickness-invisible{stroke-width:0;fill:none;}#gd553c164-5b82-4e91-a795-0f04fca8ec49-light .edge-pattern-dashed{stroke-dasharray:3;}#gd553c164-5b82-4e91-a795-0f04fca8ec49-light .edge-pattern-dotted{stroke-dasharray:2;}#gd553c164-5b82-4e91-a795-0f04fca8ec49-light .marker{fill:#333333;stroke:#333333;}#gd553c164-5b82-4e91-a795-0f04fca8ec49-light .marker.cross{stroke:#333333;}#gd553c164-5b82-4e91-a795-0f04fca8ec49-light svg{font-family:"trebuchet ms",verdana,arial,sans-serif;font-size:16px;}#gd553c164-5b82-4e91-a795-0f04fca8ec49-light p{margin:0;}#gd553c164-5b82-4e91-a795-0f04fca8ec49-light .label{font-family:"trebuchet ms",verdana,arial,sans-serif;color:#333;}#gd553c164-5b82-4e91-a795-0f04fca8ec49-light .cluster-label text{fill:#333;}#gd553c164-5b82-4e91-a795-0f04fca8ec49-light .cluster-label span{color:#333;}#gd553c164-5b82-4e91-a795-0f04fca8ec49-light .cluster-label span p{background-color:transparent;}#gd553c164-5b82-4e91-a795-0f04fca8ec49-light .label text,#gd553c164-5b82-4e91-a795-0f04fca8ec49-light span{fill:#333;color:#333;}#gd553c164-5b82-4e91-a795-0f04fca8ec49-light .node rect,#gd553c164-5b82-4e91-a795-0f04fca8ec49-light .node circle,#gd553c164-5b82-4e91-a795-0f04fca8ec49-light .node ellipse,#gd553c164-5b82-4e91-a795-0f04fca8ec49-light .node polygon,#gd553c164-5b82-4e91-a795-0f04fca8ec49-light .node path{fill:#ECECFF;stroke:#9370DB;stroke-width:1px;}#gd553c164-5b82-4e91-a795-0f04fca8ec49-light .rough-node .label text,#gd553c164-5b82-4e91-a795-0f04fca8ec49-light .node .label text,#gd553c164-5b82-4e91-a795-0f04fca8ec49-light .image-shape .label,#gd553c164-5b82-4e91-a795-0f04fca8ec49-light .icon-shape .label{text-anchor:middle;}#gd553c164-5b82-4e91-a795-0f04fca8ec49-light .node .katex path{fill:#000;stroke:#000;stroke-width:1px;}#gd553c164-5b82-4e91-a795-0f04fca8ec49-light .rough-node .label,#gd553c164-5b82-4e91-a795-0f04fca8ec49-light .node .label,#gd553c164-5b82-4e91-a795-0f04fca8ec49-light .image-shape .label,#gd553c164-5b82-4e91-a795-0f04fca8ec49-light .icon-shape .label{text-align:center;}#gd553c164-5b82-4e91-a795-0f04fca8ec49-light .node.clickable{cursor:pointer;}#gd553c164-5b82-4e91-a795-0f04fca8ec49-light .root .anchor path{fill:#333333!important;stroke-width:0;stroke:#333333;}#gd553c164-5b82-4e91-a795-0f04fca8ec49-light .arrowheadPath{fill:#333333;}#gd553c164-5b82-4e91-a795-0f04fca8ec49-light .edgePath .path{stroke:#333333;stroke-width:1px;}#gd553c164-5b82-4e91-a795-0f04fca8ec49-light .flowchart-link{stroke:#333333;fill:none;}#gd553c164-5b82-4e91-a795-0f04fca8ec49-light .edgeLabel{background-color:rgba(232,232,232, 0.8);text-align:center;}#gd553c164-5b82-4e91-a795-0f04fca8ec49-light .edgeLabel p{background-color:rgba(232,232,232, 0.8);}#gd553c164-5b82-4e91-a795-0f04fca8ec49-light .edgeLabel rect{opacity:0.5;background-color:rgba(232,232,232, 0.8);fill:rgba(232,232,232, 0.8);}#gd553c164-5b82-4e91-a795-0f04fca8ec49-light .labelBkg{background-color:rgba(232, 232, 232, 0.5);}#gd553c164-5b82-4e91-a795-0f04fca8ec49-light .cluster rect{fill:#ffffde;stroke:#aaaa33;stroke-width:1px;}#gd553c164-5b82-4e91-a795-0f04fca8ec49-light .cluster text{fill:#333;}#gd553c164-5b82-4e91-a795-0f04fca8ec49-light .cluster span{color:#333;}#gd553c164-5b82-4e91-a795-0f04fca8ec49-light div.mermaidTooltip{position:absolute;text-align:center;max-width:200px;padding:2px;font-family:"trebuchet ms",verdana,arial,sans-serif;font-size:12px;background:hsl(80, 100%, 96.2745098039%);border:1px solid #aaaa33;border-radius:2px;pointer-events:none;z-index:100;}#gd553c164-5b82-4e91-a795-0f04fca8ec49-light .flowchartTitleText{text-anchor:middle;font-size:18px;fill:#333;}#gd553c164-5b82-4e91-a795-0f04fca8ec49-light rect.text{fill:none;stroke-width:0;}#gd553c164-5b82-4e91-a795-0f04fca8ec49-light .icon-shape,#gd553c164-5b82-4e91-a795-0f04fca8ec49-light .image-shape{background-color:rgba(232,232,232, 0.8);text-align:center;}#gd553c164-5b82-4e91-a795-0f04fca8ec49-light .icon-shape p,#gd553c164-5b82-4e91-a795-0f04fca8ec49-light .image-shape p{background-color:rgba(232,232,232, 0.8);padding:2px;}#gd553c164-5b82-4e91-a795-0f04fca8ec49-light .icon-shape .label rect,#gd553c164-5b82-4e91-a795-0f04fca8ec49-light .image-shape .label rect{opacity:0.5;background-color:rgba(232,232,232, 0.8);fill:rgba(232,232,232, 0.8);}#gd553c164-5b82-4e91-a795-0f04fca8ec49-light .label-icon{display:inline-block;height:1em;overflow:visible;vertical-align:-0.125em;}#gd553c164-5b82-4e91-a795-0f04fca8ec49-light .node .label-icon path{fill:currentColor;stroke:revert;stroke-width:revert;}#gd553c164-5b82-4e91-a795-0f04fca8ec49-light .node .neo-node{stroke:#9370DB;}#gd553c164-5b82-4e91-a795-0f04fca8ec49-light [data-look="neo"].node rect,#gd553c164-5b82-4e91-a795-0f04fca8ec49-light [data-look="neo"].cluster rect,#gd553c164-5b82-4e91-a795-0f04fca8ec49-light [data-look="neo"].node polygon{stroke:#9370DB;filter:drop-shadow(1px 2px 2px rgba(185, 185, 185, 1));}#gd553c164-5b82-4e91-a795-0f04fca8ec49-light [data-look="neo"].node path{stroke:#9370DB;stroke-width:1px;}#gd553c164-5b82-4e91-a795-0f04fca8ec49-light [data-look="neo"].node .outer-path{filter:drop-shadow(1px 2px 2px rgba(185, 185, 185, 1));}#gd553c164-5b82-4e91-a795-0f04fca8ec49-light [data-look="neo"].node .neo-line path{stroke:#9370DB;filter:none;}#gd553c164-5b82-4e91-a795-0f04fca8ec49-light [data-look="neo"].node circle{stroke:#9370DB;filter:drop-shadow(1px 2px 2px rgba(185, 185, 185, 1));}#gd553c164-5b82-4e91-a795-0f04fca8ec49-light [data-look="neo"].node circle .state-start{fill:#000000;}#gd553c164-5b82-4e91-a795-0f04fca8ec49-light [data-look="neo"].icon-shape .icon{fill:#9370DB;filter:drop-shadow(1px 2px 2px rgba(185, 185, 185, 1));}#gd553c164-5b82-4e91-a795-0f04fca8ec49-light [data-look="neo"].icon-shape .icon-neo path{stroke:#9370DB;filter:drop-shadow(1px 2px 2px rgba(185, 185, 185, 1));}#gd553c164-5b82-4e91-a795-0f04fca8ec49-light :root{--mermaid-font-family:"trebuchet ms",verdana,arial,sans-serif;}#gd553c164-5b82-4e91-a795-0f04fca8ec49-light .hub rect{fill:#2E5A88!important;stroke:#1F4870!important;color:#ffffff!important;}#gd553c164-5b82-4e91-a795-0f04fca8ec49-light .hub polygon{fill:#2E5A88!important;stroke:#1F4870!important;color:#ffffff!important;}#gd553c164-5b82-4e91-a795-0f04fca8ec49-light .hub ellipse{fill:#2E5A88!important;stroke:#1F4870!important;color:#ffffff!important;}#gd553c164-5b82-4e91-a795-0f04fca8ec49-light .hub circle{fill:#2E5A88!important;stroke:#1F4870!important;color:#ffffff!important;}#gd553c164-5b82-4e91-a795-0f04fca8ec49-light .hub path{fill:#2E5A88!important;stroke:#1F4870!important;color:#ffffff!important;}#gd553c164-5b82-4e91-a795-0f04fca8ec49-light .hub tspan{fill:#ffffff!important;}#gd553c164-5b82-4e91-a795-0f04fca8ec49-light .tenet rect{fill:#1F6E68!important;stroke:#155752!important;color:#ffffff!important;}#gd553c164-5b82-4e91-a795-0f04fca8ec49-light .tenet polygon{fill:#1F6E68!important;stroke:#155752!important;color:#ffffff!important;}#gd553c164-5b82-4e91-a795-0f04fca8ec49-light .tenet ellipse{fill:#1F6E68!important;stroke:#155752!important;color:#ffffff!important;}#gd553c164-5b82-4e91-a795-0f04fca8ec49-light .tenet circle{fill:#1F6E68!important;stroke:#155752!important;color:#ffffff!important;}#gd553c164-5b82-4e91-a795-0f04fca8ec49-light .tenet path{fill:#1F6E68!important;stroke:#155752!important;color:#ffffff!important;}#gd553c164-5b82-4e91-a795-0f04fca8ec49-light .tenet tspan{fill:#ffffff!important;}</style><g><marker id="gd553c164-5b82-4e91-a795-0f04fca8ec49-light_flowchart-v2-pointEnd" class="marker flowchart-v2" viewBox="0 0 10 10" refX="5" refY="5" markerUnits="userSpaceOnUse" markerWidth="8" markerHeight="8" orient="auto"><path d="M 0 0 L 10 5 L 0 10 z" class="arrowMarkerPath" style="stroke-width: 1; stroke-dasharray: 1, 0;"></path></marker><marker id="gd553c164-5b82-4e91-a795-0f04fca8ec49-light_flowchart-v2-pointStart" class="marker flowchart-v2" viewBox="0 0 10 10" refX="4.5" refY="5" markerUnits="userSpaceOnUse" markerWidth="8" markerHeight="8" orient="auto"><path d="M 0 5 L 10 10 L 10 0 z" class="arrowMarkerPath" style="stroke-width: 1; stroke-dasharray: 1, 0;"></path></marker><marker id="gd553c164-5b82-4e91-a795-0f04fca8ec49-light_flowchart-v2-pointEnd-margin" class="marker flowchart-v2" viewBox="0 0 11.5 14" refX="11.5" refY="7" markerUnits="userSpaceOnUse" markerWidth="10.5" markerHeight="14" orient="auto"><path d="M 0 0 L 11.5 7 L 0 14 z" class="arrowMarkerPath" style="stroke-width: 0; stroke-dasharray: 1, 0;"></path></marker><marker id="gd553c164-5b82-4e91-a795-0f04fca8ec49-light_flowchart-v2-pointStart-margin" class="marker flowchart-v2" viewBox="0 0 11.5 14" refX="1" refY="7" markerUnits="userSpaceOnUse" markerWidth="11.5" markerHeight="14" orient="auto"><polygon points="0,7 11.5,14 11.5,0" class="arrowMarkerPath" style="stroke-width: 0; stroke-dasharray: 1, 0;"></polygon></marker><marker id="gd553c164-5b82-4e91-a795-0f04fca8ec49-light_flowchart-v2-circleEnd" class="marker flowchart-v2" viewBox="0 0 10 10" refX="11" refY="5" markerUnits="userSpaceOnUse" markerWidth="11" markerHeight="11" orient="auto"><circle cx="5" cy="5" r="5" class="arrowMarkerPath" style="stroke-width: 1; stroke-dasharray: 1, 0;"></circle></marker><marker id="gd553c164-5b82-4e91-a795-0f04fca8ec49-light_flowchart-v2-circleStart" class="marker flowchart-v2" viewBox="0 0 10 10" refX="-1" refY="5" markerUnits="userSpaceOnUse" markerWidth="11" markerHeight="11" orient="auto"><circle cx="5" cy="5" r="5" class="arrowMarkerPath" style="stroke-width: 1; stroke-dasharray: 1, 0;"></circle></marker><marker id="gd553c164-5b82-4e91-a795-0f04fca8ec49-light_flowchart-v2-circleEnd-margin" class="marker flowchart-v2" viewBox="0 0 10 10" refY="5" refX="12.25" markerUnits="userSpaceOnUse" markerWidth="14" markerHeight="14" orient="auto"><circle cx="5" cy="5" r="5" class="arrowMarkerPath" style="stroke-width: 0; stroke-dasharray: 1, 0;"></circle></marker><marker id="gd553c164-5b82-4e91-a795-0f04fca8ec49-light_flowchart-v2-circleStart-margin" class="marker flowchart-v2" viewBox="0 0 10 10" refX="-2" refY="5" markerUnits="userSpaceOnUse" markerWidth="14" markerHeight="14" orient="auto"><circle cx="5" cy="5" r="5" class="arrowMarkerPath" style="stroke-width: 0; stroke-dasharray: 1, 0;"></circle></marker><marker id="gd553c164-5b82-4e91-a795-0f04fca8ec49-light_flowchart-v2-crossEnd" class="marker cross flowchart-v2" viewBox="0 0 11 11" refX="12" refY="5.2" markerUnits="userSpaceOnUse" markerWidth="11" markerHeight="11" orient="auto"><path d="M 1,1 l 9,9 M 10,1 l -9,9" class="arrowMarkerPath" style="stroke-width: 2; stroke-dasharray: 1, 0;"></path></marker><marker id="gd553c164-5b82-4e91-a795-0f04fca8ec49-light_flowchart-v2-crossStart" class="marker cross flowchart-v2" viewBox="0 0 11 11" refX="-1" refY="5.2" markerUnits="userSpaceOnUse" markerWidth="11" markerHeight="11" orient="auto"><path d="M 1,1 l 9,9 M 10,1 l -9,9" class="arrowMarkerPath" style="stroke-width: 2; stroke-dasharray: 1, 0;"></path></marker><marker id="gd553c164-5b82-4e91-a795-0f04fca8ec49-light_flowchart-v2-crossEnd-margin" class="marker cross flowchart-v2" viewBox="0 0 15 15" refX="17.7" refY="7.5" markerUnits="userSpaceOnUse" markerWidth="12" markerHeight="12" orient="auto"><path d="M 1,1 L 14,14 M 1,14 L 14,1" class="arrowMarkerPath" style="stroke-width: 2.5;"></path></marker><marker id="gd553c164-5b82-4e91-a795-0f04fca8ec49-light_flowchart-v2-crossStart-margin" class="marker cross flowchart-v2" viewBox="0 0 15 15" refX="-3.5" refY="7.5" markerUnits="userSpaceOnUse" markerWidth="12" markerHeight="12" orient="auto"><path d="M 1,1 L 14,14 M 1,14 L 14,1" class="arrowMarkerPath" style="stroke-width: 2.5; stroke-dasharray: 1, 0;"></path></marker><g class="root"><g class="clusters"></g><g class="edgePaths"><path d="M113.54,445L132.572,380.65C151.605,316.3,189.669,187.6,213.184,123.25C236.699,58.9,245.665,58.9,250.148,58.9L254.631,58.9" id="gd553c164-5b82-4e91-a795-0f04fca8ec49-light-L_hub_filesystem_0" class="edge-thickness-normal edge-pattern-solid edge-thickness-normal edge-pattern-solid flowchart-link" style=";" data-edge="true" data-et="edge" data-id="L_hub_filesystem_0" data-points="W3sieCI6MTEzLjU0MDM2MDAwNzEwMjg5LCJ5Ijo0NDQuOTk5OTk2MTg1MzAyOH0seyJ4IjoyMjcuNzMyODY0Mzc5ODgyOCwieSI6NTguOTAwMDAxNTI1ODc4OTA2fSx7IngiOjI1NC42MzEzMDE4Nzk4ODI4LCJ5Ijo1OC45MDAwMDE1MjU4Nzg5MDZ9XQ==" data-look="classic"></path><path d="M117.629,445L135.98,404.483C154.33,363.967,191.032,282.933,219.134,242.417C247.235,201.9,266.738,201.9,276.489,201.9L286.241,201.9" id="gd553c164-5b82-4e91-a795-0f04fca8ec49-light-L_hub_boundaries_0" class="edge-thickness-normal edge-pattern-solid edge-thickness-normal edge-pattern-solid flowchart-link" style=";" data-edge="true" data-et="edge" data-id="L_hub_boundaries_0" data-points="W3sieCI6MTE3LjYyODkyODE5OTM4NTgsInkiOjQ0NC45OTk5OTYxODUzMDI4fSx7IngiOjIyNy43MzI4NjQzNzk4ODI4LCJ5IjoyMDEuOTAwMDAxNTI1ODc4OX0seyJ4IjoyODYuMjQwNjc2ODc5ODgyOCwieSI6MjAxLjkwMDAwMTUyNTg3ODl9XQ==" data-look="classic"></path><path d="M129.391,445L145.782,426.85C162.172,408.7,194.952,372.4,216.968,354.25C238.983,336.1,250.233,336.1,255.858,336.1L261.483,336.1" id="gd553c164-5b82-4e91-a795-0f04fca8ec49-light-L_hub_validation_0" class="edge-thickness-normal edge-pattern-solid edge-thickness-normal edge-pattern-solid flowchart-link" style=";" data-edge="true" data-et="edge" data-id="L_hub_validation_0" data-points="W3sieCI6MTI5LjM5MTQyNDIwODgzMDI0LCJ5Ijo0NDQuOTk5OTk2MTg1MzAyOH0seyJ4IjoyMjcuNzMyODY0Mzc5ODgyOCwieSI6MzM2LjA5OTk5ODQ3NDEyMTF9LHsieCI6MjYxLjQ4Mjg2NDM3OTg4MjgsInkiOjMzNi4wOTk5OTg0NzQxMjExfV0=" data-look="classic"></path><path d="M203.233,470.8L207.316,470.717C211.4,470.633,219.566,470.467,231.785,470.383C244.004,470.3,260.275,470.3,268.41,470.3L276.545,470.3" id="gd553c164-5b82-4e91-a795-0f04fca8ec49-light-L_hub_vite_0" class="edge-thickness-normal edge-pattern-solid edge-thickness-normal edge-pattern-solid flowchart-link" style=";" data-edge="true" data-et="edge" data-id="L_hub_vite_0" data-points="W3sieCI6MjAzLjIzMjg2MzM3NTI3MjI3LCJ5Ijo0NzAuNzk5OTk1NDIyMzYzM30seyJ4IjoyMjcuNzMyODY0Mzc5ODgyOCwieSI6NDcwLjI5OTk5NTQyMjM2MzN9LHsieCI6Mjc2LjU0NTM2NDM3OTg4MjgsInkiOjQ3MC4yOTk5OTU0MjIzNjMzfV0=" data-look="classic"></path><path d="M129.391,496.6L145.782,514.583C162.172,532.567,194.952,568.533,218,586.517C241.048,604.5,254.363,604.5,261.021,604.5L267.678,604.5" id="gd553c164-5b82-4e91-a795-0f04fca8ec49-light-L_hub_progressive_0" class="edge-thickness-normal edge-pattern-solid edge-thickness-normal edge-pattern-solid flowchart-link" style=";" data-edge="true" data-et="edge" data-id="L_hub_progressive_0" data-points="W3sieCI6MTI5LjM5MTQyNDIwODgzMDMsInkiOjQ5Ni41OTk5OTQ2NTk0MjM5fSx7IngiOjIyNy43MzI4NjQzNzk4ODI4LCJ5Ijo2MDQuNDk5OTkyMzcwNjA1NX0seyJ4IjoyNjcuNjc4MTc2ODc5ODgyOCwieSI6NjA0LjQ5OTk5MjM3MDYwNTV9XQ==" data-look="classic"></path><path d="M117.629,496.6L135.98,536.95C154.33,577.3,191.032,658,216.257,698.35C241.483,738.7,255.233,738.7,262.108,738.7L268.983,738.7" id="gd553c164-5b82-4e91-a795-0f04fca8ec49-light-L_hub_config_0" class="edge-thickness-normal edge-pattern-solid edge-thickness-normal edge-pattern-solid flowchart-link" style=";" data-edge="true" data-et="edge" data-id="L_hub_config_0" data-points="W3sieCI6MTE3LjYyODkyODE5OTM4NTgzLCJ5Ijo0OTYuNTk5OTk0NjU5NDIzOX0seyJ4IjoyMjcuNzMyODY0Mzc5ODgyOCwieSI6NzM4LjY5OTk4OTMxODg0Nzd9LHsieCI6MjY4Ljk4Mjg2NDM3OTg4MjgsInkiOjczOC42OTk5ODkzMTg4NDc3fV0=" data-look="classic"></path><path d="M113.708,496.6L132.712,559.317C151.716,622.033,189.725,747.467,212.895,810.183C236.066,872.9,244.4,872.9,248.566,872.9L252.733,872.9" id="gd553c164-5b82-4e91-a795-0f04fca8ec49-light-L_hub_parity_0" class="edge-thickness-normal edge-pattern-solid edge-thickness-normal edge-pattern-solid flowchart-link" style=";" data-edge="true" data-et="edge" data-id="L_hub_parity_0" data-points="W3sieCI6MTEzLjcwODA5NjE5NjIzNzcsInkiOjQ5Ni41OTk5OTQ2NTk0MjM5fSx7IngiOjIyNy43MzI4NjQzNzk4ODI4LCJ5Ijo4NzIuODk5OTg2MjY3MDg5OH0seyJ4IjoyNTIuNzMyODY0Mzc5ODgyOCwieSI6ODcyLjg5OTk4NjI2NzA4OTh9XQ==" data-look="classic"></path></g><g class="edgeLabels"><g class="edgeLabel"><g class="label" data-id="L_hub_filesystem_0" transform="translate(0, 0)"><text y="-10.1" text-anchor="middle"><tspan class="text-outer-tspan row" x="0" y="-0.1em" dy="1.1em" text-anchor="middle"></tspan></text></g></g><g><rect class="background" style="stroke: none"></rect></g><g class="edgeLabel"><g class="label" data-id="L_hub_boundaries_0" transform="translate(0, 0)"><text y="-10.1" text-anchor="middle"><tspan class="text-outer-tspan row" x="0" y="-0.1em" dy="1.1em" text-anchor="middle"></tspan></text></g></g><g><rect class="background" style="stroke: none"></rect></g><g class="edgeLabel"><g class="label" data-id="L_hub_validation_0" transform="translate(0, 0)"><text y="-10.1" text-anchor="middle"><tspan class="text-outer-tspan row" x="0" y="-0.1em" dy="1.1em" text-anchor="middle"></tspan></text></g></g><g><rect class="background" style="stroke: none"></rect></g><g class="edgeLabel"><g class="label" data-id="L_hub_vite_0" transform="translate(0, 0)"><text y="-10.1" text-anchor="middle"><tspan class="text-outer-tspan row" x="0" y="-0.1em" dy="1.1em" text-anchor="middle"></tspan></text></g></g><g><rect class="background" style="stroke: none"></rect></g><g class="edgeLabel"><g class="label" data-id="L_hub_progressive_0" transform="translate(0, 0)"><text y="-10.1" text-anchor="middle"><tspan class="text-outer-tspan row" x="0" y="-0.1em" dy="1.1em" text-anchor="middle"></tspan></text></g></g><g><rect class="background" style="stroke: none"></rect></g><g class="edgeLabel"><g class="label" data-id="L_hub_config_0" transform="translate(0, 0)"><text y="-10.1" text-anchor="middle"><tspan class="text-outer-tspan row" x="0" y="-0.1em" dy="1.1em" text-anchor="middle"></tspan></text></g></g><g><rect class="background" style="stroke: none"></rect></g><g class="edgeLabel"><g class="label" data-id="L_hub_parity_0" transform="translate(0, 0)"><text y="-10.1" text-anchor="middle"><tspan class="text-outer-tspan row" x="0" y="-0.1em" dy="1.1em" text-anchor="middle"></tspan></text></g></g><g><rect class="background" style="stroke: none"></rect></g></g><g class="nodes"><g class="node default hub" id="gd553c164-5b82-4e91-a795-0f04fca8ec49-light-flowchart-hub-0" data-look="classic" transform="translate(105.3664321899414, 470.2999954223633)"><g class="basic label-container outer-path"><path d="M-71.57968807220459 -25.799999237060547 C-15.885959979880155 -25.799999237060547, 39.80776811244428 -25.799999237060547, 71.57968807220459 -25.799999237060547 C71.57968807220459 -25.799999237060547, 71.57968807220459 -25.799999237060547, 71.57968807220459 -25.799999237060547 C71.91483355104688 -25.789251773875176, 72.24997902988918 -25.778504310689804, 73.23269969882529 -25.746990371586765 C73.66247921579897 -25.705530058469808, 74.09225873277263 -25.664069745352847, 74.87891874610231 -25.58818159996402 C75.35315431909895 -25.51151087027372, 75.8273898920956 -25.434840140583418, 76.51158054685753 -25.32422550149928 C76.91982703471862 -25.231045904702288, 77.32807352257973 -25.137866307905295, 78.12397614354678 -24.956206728419545 C78.72617375971402 -24.777477636940905, 79.32837137588123 -24.598748545462268, 79.70947985680552 -24.48563754880318 C80.30603804556613 -24.26609862081583, 80.90259623432674 -24.046559692828477, 81.26157651178644 -23.914451632345997 C81.7973117866551 -23.677297518183927, 82.33304706152376 -23.440143404021857, 82.77388821041056 -23.24499610449772 C83.31423866911746 -22.96309561630132, 83.85458912782435 -22.681195128104918, 84.2402005395184 -22.480021901620034 C84.75204646354088 -22.169737894537075, 85.26389238756337 -21.859453887454116, 85.65448810722664 -21.62267246679901 C85.95150626785133 -21.415485455656174, 86.24852442847602 -21.208298444513336, 87.01093930255584 -20.67647083276321 C87.52625308336113 -20.265521805646614, 88.04156686416641 -19.854572778530013, 88.3039801765865 -19.64530514498651 C88.79270878590431 -19.20145475305448, 89.28143739522213 -18.757604361122453, 89.52829734701088 -18.533412684464313 C89.87712691929957 -18.173217511635727, 90.22595649158828 -17.813022338807137, 90.67885983196044 -17.345362455817106 C91.08244343274 -16.871290193783985, 91.48602703351958 -16.397217931750863, 91.75093972338968 -16.086036412270357 C92.10814659105915 -15.60741175180836, 92.46535345872863 -15.128787091346366, 92.74013161506427 -14.76060939466161 C93.0666235235326 -14.259030147901127, 93.39311543200093 -13.757450901140645, 93.64237070532036 -13.374527866909407 C93.83580387201722 -13.03106769220704, 94.02923703871409 -12.687607517504672, 94.4539495002064 -11.93348753532484 C94.72026055080235 -11.380486940618706, 94.9865716013983 -10.82748634591257, 95.17153304837109 -10.443409943732584 C95.32663719818353 -10.060299694961094, 95.48174134799599 -9.677189446189601, 95.79217264509381 -8.910418140577123 C95.91204712511575 -8.549375306155683, 96.0319216051377 -8.188332471734244, 96.3133179491449 -7.340811518003323 C96.39838401454345 -7.016417742772675, 96.48345007994202 -6.692023967542027, 96.73282746268467 -5.741039926302914 C96.84959363454817 -5.1414703123230385, 96.96635980641166 -4.541900698343164, 97.04897733113748 -4.117677170096137 C97.09202840226598 -3.783781563819054, 97.13507947339448 -3.4498859575419716, 97.26046842687991 -2.4773939951584394 C97.29157980339595 -1.9928091932700513, 97.32269117991198 -1.508224391381663, 97.36643168763487 -0.8269306768952902 C97.36643168763487 -0.34622067068995077, 97.36643168763487 0.13448933551538866, 97.36643168763487 0.826930676895284 C97.33622149272321 1.2974788478748494, 97.30601129781155 1.768027018854415, 97.26046842687991 2.4773939951584216 C97.19343022200935 2.997329073943537, 97.12639201713881 3.517264152728653, 97.04897733113748 4.117677170096119 C96.97020368777308 4.522163179956852, 96.8914300444087 4.926649189817586, 96.73282746268467 5.741039926302909 C96.6122575001464 6.2008254488136405, 96.49168753760813 6.660610971324372, 96.3133179491449 7.340811518003306 C96.18367938603954 7.7312622149766375, 96.05404082293418 8.12171291194997, 95.79217264509383 8.910418140577105 C95.66318589582968 9.229017905048703, 95.53419914656553 9.547617669520303, 95.17153304837109 10.443409943732577 C94.99384014307668 10.812393063595513, 94.81614723778227 11.181376183458447, 94.4539495002064 11.933487535324835 C94.23723935653851 12.318278339688783, 94.02052921287061 12.703069144052732, 93.64237070532037 13.374527866909402 C93.29763956272933 13.904127475202515, 92.95290842013827 14.433727083495627, 92.74013161506429 14.760609394661596 C92.38718998859117 15.233519020491938, 92.03424836211805 15.70642864632228, 91.75093972338968 16.086036412270353 C91.41359419192848 16.48230166902921, 91.07624866046727 16.878566925788064, 90.67885983196045 17.345362455817092 C90.42609713884633 17.60636068866047, 90.1733344457322 17.867358921503843, 89.52829734701088 18.533412684464306 C89.18820356002615 18.84227686341532, 88.84810977304144 19.15114104236634, 88.30398017658653 19.64530514498649 C87.85197804895198 20.005764813493276, 87.39997592131742 20.36622448200006, 87.01093930255584 20.676470832763208 C86.54261241520048 21.00315539583811, 86.0742855278451 21.329839958913013, 85.65448810722665 21.622672466799003 C85.3145226762307 21.82876150892739, 84.97455724523473 22.034850551055776, 84.24020053951841 22.48002190162003 C83.70290879472827 22.760326660725255, 83.16561704993813 23.040631419830483, 82.77388821041058 23.244996104497716 C82.45709408063715 23.38523146838444, 82.14029995086372 23.525466832271164, 81.26157651178644 23.914451632345994 C80.91691508675314 24.041290222773537, 80.57225366171984 24.168128813201083, 79.70947985680553 24.485637548803172 C79.35155341747686 24.5918682372017, 78.99362697814819 24.698098925600235, 78.12397614354681 24.95620672841954 C77.57606256468911 25.081264427323564, 77.02814898583142 25.206322126227583, 76.51158054685754 25.324225501499278 C76.17449649556036 25.378722636787145, 75.83741244426318 25.433219772075017, 74.87891874610233 25.588181599964017 C74.22660569597504 25.651109455388575, 73.57429264584775 25.714037310813133, 73.23269969882529 25.746990371586765 C72.79958099856587 25.760879645289677, 72.36646229830646 25.77476891899259, 71.57968807220459 25.799999237060547 C71.57968807220459 25.799999237060547, 71.57968807220459 25.799999237060547, 71.57968807220459 25.799999237060547 C15.284006903775804 25.799999237060547, -41.01167426465298 25.799999237060547, -71.57968807220459 25.799999237060547 C-72.10246018972927 25.783234952765728, -72.62523230725395 25.76647066847091, -73.23269969882527 25.746990371586765 C-73.77418646990643 25.694753794013685, -74.31567324098758 25.64251721644061, -74.87891874610231 25.588181599964017 C-75.40889299940342 25.50249947270201, -75.93886725270453 25.416817345440005, -76.51158054685753 25.324225501499278 C-76.97570364739191 25.21829243248858, -77.43982674792629 25.11235936347789, -78.12397614354678 24.956206728419545 C-78.52137078325946 24.838262085319855, -78.91876542297213 24.720317442220168, -79.7094798568055 24.485637548803183 C-80.3076078914193 24.265520903030367, -80.90573592603309 24.045404257257548, -81.26157651178644 23.914451632345997 C-81.77461113530451 23.687346423145936, -82.28764575882259 23.460241213945874, -82.77388821041056 23.244996104497723 C-83.07875784723139 23.08594581024662, -83.38362748405221 22.926895515995522, -84.2402005395184 22.480021901620038 C-84.58620226821633 22.270273620351496, -84.93220399691425 22.060525339082957, -85.65448810722663 21.622672466799017 C-86.11809755034274 21.299278588610548, -86.58170699345887 20.975884710422076, -87.01093930255584 20.67647083276321 C-87.4100044212131 20.358227020202847, -87.80906953987036 20.03998320764248, -88.3039801765865 19.645305144986512 C-88.75149003504427 19.238888531997183, -89.19899989350205 18.832471919007858, -89.52829734701086 18.533412684464324 C-89.87155340095198 18.17897262692398, -90.2148094548931 17.824532569383635, -90.67885983196044 17.3453624558171 C-91.06251996739736 16.894693429852737, -91.44618010283429 16.444024403888378, -91.75093972338968 16.08603641227036 C-92.08320800434686 15.64082718605084, -92.41547628530405 15.19561795983132, -92.74013161506427 14.760609394661614 C-93.00578912074394 14.352488126908971, -93.2714466264236 13.94436685915633, -93.64237070532036 13.374527866909418 C-93.88053052997856 12.951650981931454, -94.11869035463675 12.528774096953489, -94.45394950020639 11.933487535324842 C-94.73542895443344 11.348989425926867, -95.01690840866051 10.764491316528893, -95.17153304837109 10.443409943732586 C-95.35979581027061 9.978397282027862, -95.54805857217013 9.513384620323139, -95.79217264509381 8.910418140577127 C-95.93143778050764 8.490973741596719, -96.07070291592146 8.071529342616312, -96.3133179491449 7.340811518003316 C-96.4200723712055 6.933710639027066, -96.5268267932661 6.526609760050817, -96.73282746268467 5.741039926302918 C-96.85727791082475 5.1020131777151185, -96.98172835896484 4.462986429127319, -97.04897733113748 4.117677170096139 C-97.10338755292582 3.6956822344192553, -97.15779777471418 3.273687298742371, -97.26046842687991 2.477393995158454 C-97.28266385292086 2.1316823187450886, -97.30485927896183 1.7859706423317236, -97.36643168763487 0.8269306768952934 C-97.36643168763487 0.446177658085745, -97.36643168763487 0.06542463927619657, -97.36643168763487 -0.8269306768952809 C-97.3352820572394 -1.3121113138339968, -97.3041324268439 -1.7972919507727128, -97.26046842687991 -2.4773939951584185 C-97.1832071329717 -3.076617333742299, -97.10594583906351 -3.6758406723261796, -97.04897733113748 -4.117677170096128 C-96.9597882830648 -4.575644081837336, -96.87059923499213 -5.033610993578544, -96.73282746268467 -5.741039926302906 C-96.59125434755863 -6.280919572454709, -96.4496812324326 -6.820799218606513, -96.3133179491449 -7.340811518003303 C-96.10595099899236 -7.96536773242613, -95.89858404883981 -8.589923946848957, -95.79217264509383 -8.910418140577093 C-95.63113709975971 -9.308179050962822, -95.4701015544256 -9.705939961348552, -95.17153304837109 -10.443409943732574 C-94.91910799308751 -10.967575972059876, -94.66668293780394 -11.491742000387177, -94.4539495002064 -11.933487535324831 C-94.29120481067868 -12.22245721126813, -94.12846012115094 -12.511426887211432, -93.64237070532036 -13.374527866909409 C-93.45202815202468 -13.66694514290379, -93.261685598729 -13.959362418898174, -92.74013161506429 -14.760609394661605 C-92.40641373007223 -15.207760958226206, -92.07269584508016 -15.654912521790807, -91.75093972338968 -16.086036412270353 C-91.39571456574487 -16.503304095324026, -91.04048940810006 -16.920571778377695, -90.67885983196045 -17.345362455817092 C-90.29522776556516 -17.741494061148643, -89.91159569916987 -18.137625666480197, -89.52829734701089 -18.5334126844643 C-89.06136773195286 -18.957465806579382, -88.59443811689484 -19.381518928694465, -88.30398017658653 -19.645305144986487 C-87.91431904890302 -19.956049524996, -87.5246579212195 -20.266793905005517, -87.01093930255585 -20.676470832763204 C-86.64834331630628 -20.929402096243646, -86.2857473300567 -21.18233335972409, -85.65448810722665 -21.622672466799 C-85.3007931557405 -21.837084424932165, -84.94709820425432 -22.051496383065327, -84.24020053951841 -22.480021901620027 C-83.78970132122666 -22.715047055244312, -83.33920210293492 -22.950072208868594, -82.77388821041058 -23.244996104497716 C-82.269638196969 -23.468212627403116, -81.76538818352742 -23.69142915030851, -81.26157651178646 -23.91445163234599 C-80.66269499162468 -24.134845567765613, -80.0638134714629 -24.355239503185235, -79.70947985680553 -24.485637548803172 C-79.3244005425914 -24.59992706793936, -78.93932122837727 -24.714216587075544, -78.12397614354681 -24.956206728419538 C-77.65104420117348 -25.06415035809691, -77.17811225880016 -25.172093987774282, -76.51158054685754 -25.324225501499278 C-76.07601684407331 -25.39464406311847, -75.64045314128907 -25.465062624737662, -74.87891874610233 -25.588181599964017 C-74.2315968333718 -25.65062796636663, -73.58427492064128 -25.713074332769242, -73.23269969882529 -25.746990371586765 C-72.80469695861959 -25.760715586408367, -72.37669421841387 -25.774440801229968, -71.5796880722046 -25.799999237060547 C-71.5796880722046 -25.799999237060547, -71.5796880722046 -25.799999237060547, -71.57968807220459 -25.799999237060547" stroke="none" stroke-width="0" fill="#2E5A88" style="fill:#2E5A88 !important;stroke:#1F4870 !important"></path><path d="M-71.57968807220459 -25.799999237060547 C-26.794789520303055 -25.799999237060547, 17.99010903159848 -25.799999237060547, 71.57968807220459 -25.799999237060547 M-71.57968807220459 -25.799999237060547 C-25.806632111175666 -25.799999237060547, 19.966423849853257 -25.799999237060547, 71.57968807220459 -25.799999237060547 M71.57968807220459 -25.799999237060547 C71.57968807220459 -25.799999237060547, 71.57968807220459 -25.799999237060547, 71.57968807220459 -25.799999237060547 M71.57968807220459 -25.799999237060547 C71.57968807220459 -25.799999237060547, 71.57968807220459 -25.799999237060547, 71.57968807220459 -25.799999237060547 M71.57968807220459 -25.799999237060547 C71.9511803617029 -25.788086202402212, 72.3226726512012 -25.776173167743877, 73.23269969882529 -25.746990371586765 M71.57968807220459 -25.799999237060547 C72.034550297826 -25.78541269082048, 72.4894125234474 -25.770826144580415, 73.23269969882529 -25.746990371586765 M73.23269969882529 -25.746990371586765 C73.67736011530516 -25.704094515991343, 74.12202053178504 -25.66119866039592, 74.87891874610231 -25.58818159996402 M73.23269969882529 -25.746990371586765 C73.81130961002845 -25.691172569333226, 74.38991952123159 -25.635354767079686, 74.87891874610231 -25.58818159996402 M74.87891874610231 -25.58818159996402 C75.50952742574678 -25.486229679082452, 76.14013610539126 -25.38427775820088, 76.51158054685753 -25.32422550149928 M74.87891874610231 -25.58818159996402 C75.31468786828047 -25.51772982773027, 75.75045699045862 -25.447278055496522, 76.51158054685753 -25.32422550149928 M76.51158054685753 -25.32422550149928 C77.14917886938116 -25.178697845101155, 77.78677719190479 -25.03317018870303, 78.12397614354678 -24.956206728419545 M76.51158054685753 -25.32422550149928 C76.9603175060212 -25.221804218852494, 77.40905446518485 -25.11938293620571, 78.12397614354678 -24.956206728419545 M78.12397614354678 -24.956206728419545 C78.61545951243588 -24.810337044382113, 79.10694288132498 -24.664467360344677, 79.70947985680552 -24.48563754880318 M78.12397614354678 -24.956206728419545 C78.73461930636536 -24.774971043026365, 79.34526246918394 -24.593735357633182, 79.70947985680552 -24.48563754880318 M79.70947985680552 -24.48563754880318 C80.29055378832258 -24.27179697061636, 80.87162771983964 -24.05795639242954, 81.26157651178644 -23.914451632345997 M79.70947985680552 -24.48563754880318 C80.16674022720298 -24.317361505628384, 80.62400059760044 -24.149085462453588, 81.26157651178644 -23.914451632345997 M81.26157651178644 -23.914451632345997 C81.629106872526 -23.75175684404739, 81.99663723326553 -23.58906205574878, 82.77388821041056 -23.24499610449772 M81.26157651178644 -23.914451632345997 C81.74599822252424 -23.70001251086186, 82.23041993326204 -23.485573389377723, 82.77388821041056 -23.24499610449772 M82.77388821041056 -23.24499610449772 C83.0792232092632 -23.0857030311727, 83.38455820811585 -22.926409957847675, 84.2402005395184 -22.480021901620034 M82.77388821041056 -23.24499610449772 C83.20789052824325 -23.018577373276152, 83.64189284607596 -22.792158642054588, 84.2402005395184 -22.480021901620034 M84.2402005395184 -22.480021901620034 C84.77055679719155 -22.158516821499248, 85.30091305486471 -21.837011741378458, 85.65448810722664 -21.62267246679901 M84.2402005395184 -22.480021901620034 C84.5777675870534 -22.275386773640147, 84.9153346345884 -22.07075164566026, 85.65448810722664 -21.62267246679901 M85.65448810722664 -21.62267246679901 C86.17658292214595 -21.258481725031572, 86.69867773706525 -20.894290983264135, 87.01093930255584 -20.67647083276321 M85.65448810722664 -21.62267246679901 C85.96915220473635 -21.40317641396548, 86.28381630224605 -21.183680361131948, 87.01093930255584 -20.67647083276321 M87.01093930255584 -20.67647083276321 C87.46378074663039 -20.31534183173068, 87.91662219070493 -19.95421283069815, 88.3039801765865 -19.64530514498651 M87.01093930255584 -20.67647083276321 C87.41114259793409 -20.35731935455601, 87.81134589331235 -20.03816787634881, 88.3039801765865 -19.64530514498651 M88.3039801765865 -19.64530514498651 C88.62442498332226 -19.354285650014084, 88.944869790058 -19.06326615504166, 89.52829734701088 -18.533412684464313 M88.3039801765865 -19.64530514498651 C88.74034222176617 -19.24901268106138, 89.17670426694583 -18.85272021713625, 89.52829734701088 -18.533412684464313 M89.52829734701088 -18.533412684464313 C89.9755199193633 -18.071618660854398, 90.42274249171571 -17.60982463724448, 90.67885983196044 -17.345362455817106 M89.52829734701088 -18.533412684464313 C89.77777258866755 -18.275809015155545, 90.02724783032421 -18.018205345846773, 90.67885983196044 -17.345362455817106 M90.67885983196044 -17.345362455817106 C90.90042174767922 -17.085103222383683, 91.12198366339798 -16.824843988950256, 91.75093972338968 -16.086036412270357 M90.67885983196044 -17.345362455817106 C91.05665144356536 -16.901586931874288, 91.43444305517028 -16.457811407931466, 91.75093972338968 -16.086036412270357 M91.75093972338968 -16.086036412270357 C92.07727550917792 -15.648776189115786, 92.40361129496617 -15.211515965961215, 92.74013161506427 -14.76060939466161 M91.75093972338968 -16.086036412270357 C92.04035403695333 -15.698247598281421, 92.329768350517 -15.310458784292486, 92.74013161506427 -14.76060939466161 M92.74013161506427 -14.76060939466161 C93.07808105062496 -14.241428309510438, 93.41603048618566 -13.722247224359265, 93.64237070532036 -13.374527866909407 M92.74013161506427 -14.76060939466161 C92.99050473592513 -14.375969046422643, 93.240877856786 -13.991328698183677, 93.64237070532036 -13.374527866909407 M93.64237070532036 -13.374527866909407 C93.92068148705866 -12.880358891910452, 94.19899226879697 -12.386189916911498, 94.4539495002064 -11.93348753532484 M93.64237070532036 -13.374527866909407 C93.87689075514368 -12.95811377071796, 94.111410804967 -12.54169967452651, 94.4539495002064 -11.93348753532484 M94.4539495002064 -11.93348753532484 C94.65419384999882 -11.517675858438169, 94.85443819979125 -11.101864181551498, 95.17153304837109 -10.443409943732584 M94.4539495002064 -11.93348753532484 C94.6544929104289 -11.517054853056251, 94.8550363206514 -11.100622170787663, 95.17153304837109 -10.443409943732584 M95.17153304837109 -10.443409943732584 C95.33654886035498 -10.035817697768675, 95.50156467233887 -9.628225451804765, 95.79217264509381 -8.910418140577123 M95.17153304837109 -10.443409943732584 C95.36306180395512 -9.970330214483452, 95.55459055953914 -9.49725048523432, 95.79217264509381 -8.910418140577123 M95.79217264509381 -8.910418140577123 C95.98656658430984 -8.324934568126519, 96.18096052352587 -7.739450995675915, 96.3133179491449 -7.340811518003323 M95.79217264509381 -8.910418140577123 C95.90737232146873 -8.563455069911713, 96.02257199784364 -8.216491999246303, 96.3133179491449 -7.340811518003323 M96.3133179491449 -7.340811518003323 C96.42638741926275 -6.909628623825634, 96.5394568893806 -6.478445729647945, 96.73282746268467 -5.741039926302914 M96.3133179491449 -7.340811518003323 C96.43695830497458 -6.869317255155546, 96.56059866080427 -6.397822992307769, 96.73282746268467 -5.741039926302914 M96.73282746268467 -5.741039926302914 C96.83293575976285 -5.227004978702547, 96.93304405684103 -4.712970031102182, 97.04897733113748 -4.117677170096137 M96.73282746268467 -5.741039926302914 C96.82584041160702 -5.2634380918803965, 96.91885336052935 -4.785836257457879, 97.04897733113748 -4.117677170096137 M97.04897733113748 -4.117677170096137 C97.12792943452416 -3.505340247085292, 97.20688153791083 -2.8930033240744475, 97.26046842687991 -2.4773939951584394 M97.04897733113748 -4.117677170096137 C97.10054119238282 -3.717758044713405, 97.15210505362815 -3.317838919330673, 97.26046842687991 -2.4773939951584394 M97.26046842687991 -2.4773939951584394 C97.28581151267458 -2.0826549773358374, 97.31115459846924 -1.6879159595132354, 97.36643168763487 -0.8269306768952902 M97.26046842687991 -2.4773939951584394 C97.29919471873202 -1.874200740261541, 97.33792101058415 -1.271007485364643, 97.36643168763487 -0.8269306768952902 M97.36643168763487 -0.8269306768952902 C97.36643168763487 -0.45213493285106987, 97.36643168763487 -0.07733918880684953, 97.36643168763487 0.826930676895284 M97.36643168763487 -0.8269306768952902 C97.36643168763487 -0.27688623887310915, 97.36643168763487 0.2731581991490719, 97.36643168763487 0.826930676895284 M97.36643168763487 0.826930676895284 C97.32600304023478 1.4566394935684954, 97.28557439283469 2.086348310241707, 97.26046842687991 2.4773939951584216 M97.36643168763487 0.826930676895284 C97.34298361204587 1.1921533811398775, 97.31953553645688 1.557376085384471, 97.26046842687991 2.4773939951584216 M97.26046842687991 2.4773939951584216 C97.18756000196828 3.0428573413760502, 97.11465157705666 3.608320687593679, 97.04897733113748 4.117677170096119 M97.26046842687991 2.4773939951584216 C97.2052792580217 2.9054302904886278, 97.1500900891635 3.333466585818834, 97.04897733113748 4.117677170096119 M97.04897733113748 4.117677170096119 C96.95942119474013 4.577529002800381, 96.86986505834277 5.037380835504644, 96.73282746268467 5.741039926302909 M97.04897733113748 4.117677170096119 C96.9559818860309 4.595189126124138, 96.8629864409243 5.072701082152158, 96.73282746268467 5.741039926302909 M96.73282746268467 5.741039926302909 C96.61648977491252 6.184685950850934, 96.50015208714038 6.628331975398958, 96.3133179491449 7.340811518003306 M96.73282746268467 5.741039926302909 C96.56537741867992 6.379599517401198, 96.39792737467515 7.018159108499488, 96.3133179491449 7.340811518003306 M96.3133179491449 7.340811518003306 C96.17243638389036 7.765124346120867, 96.03155481863581 8.18943717423843, 95.79217264509383 8.910418140577105 M96.3133179491449 7.340811518003306 C96.13932685559243 7.864844970067293, 95.96533576203996 8.388878422131281, 95.79217264509383 8.910418140577105 M95.79217264509383 8.910418140577105 C95.66742489719655 9.218547489716997, 95.54267714929928 9.52667683885689, 95.17153304837109 10.443409943732577 M95.79217264509383 8.910418140577105 C95.62116334343183 9.332814421922171, 95.45015404176984 9.755210703267236, 95.17153304837109 10.443409943732577 M95.17153304837109 10.443409943732577 C94.90694222901585 10.99283844146032, 94.64235140966062 11.542266939188064, 94.4539495002064 11.933487535324835 M95.17153304837109 10.443409943732577 C94.97927685377826 10.842634045428156, 94.78702065918543 11.241858147123734, 94.4539495002064 11.933487535324835 M94.4539495002064 11.933487535324835 C94.24615828922548 12.30244187156321, 94.03836707824455 12.671396207801582, 93.64237070532037 13.374527866909402 M94.4539495002064 11.933487535324835 C94.14312303647624 12.485391396270195, 93.83229657274606 13.037295257215554, 93.64237070532037 13.374527866909402 M93.64237070532037 13.374527866909402 C93.2976110614177 13.904171260870852, 92.95285141751502 14.433814654832302, 92.74013161506429 14.760609394661596 M93.64237070532037 13.374527866909402 C93.28888405448426 13.917578287050093, 92.93539740364815 14.460628707190782, 92.74013161506429 14.760609394661596 M92.74013161506429 14.760609394661596 C92.5328923192342 15.038291171185682, 92.32565302340409 15.315972947709767, 91.75093972338968 16.086036412270353 M92.74013161506429 14.760609394661596 C92.45782247459364 15.138877924000484, 92.17551333412298 15.517146453339372, 91.75093972338968 16.086036412270353 M91.75093972338968 16.086036412270353 C91.35183657324755 16.55484568203987, 90.95273342310544 17.023654951809384, 90.67885983196045 17.345362455817092 M91.75093972338968 16.086036412270353 C91.34081519989783 16.567792014310363, 90.93069067640599 17.049547616350374, 90.67885983196045 17.345362455817092 M90.67885983196045 17.345362455817092 C90.37903957961484 17.65495148206444, 90.07921932726923 17.964540508311785, 89.52829734701088 18.533412684464306 M90.67885983196045 17.345362455817092 C90.2768833439375 17.760436182584225, 89.87490685591455 18.17550990935136, 89.52829734701088 18.533412684464306 M89.52829734701088 18.533412684464306 C89.26931160821586 18.768616680050794, 89.01032586942084 19.003820675637282, 88.30398017658653 19.64530514498649 M89.52829734701088 18.533412684464306 C89.23130152312952 18.803136433634474, 88.93430569924814 19.072860182804643, 88.30398017658653 19.64530514498649 M88.30398017658653 19.64530514498649 C88.02655860632588 19.86654146477133, 87.74913703606522 20.08777778455617, 87.01093930255584 20.676470832763208 M88.30398017658653 19.64530514498649 C87.90430184252716 19.964037980511687, 87.5046235084678 20.282770816036887, 87.01093930255584 20.676470832763208 M87.01093930255584 20.676470832763208 C86.60385711283584 20.960433746007908, 86.19677492311585 21.244396659252605, 85.65448810722665 21.622672466799003 M87.01093930255584 20.676470832763208 C86.70804193624033 20.887758923289248, 86.40514456992483 21.099047013815287, 85.65448810722665 21.622672466799003 M85.65448810722665 21.622672466799003 C85.2253225089761 21.882835174515485, 84.79615691072556 22.14299788223197, 84.24020053951841 22.48002190162003 M85.65448810722665 21.622672466799003 C85.2940824565987 21.841152490188367, 84.93367680597075 22.059632513577732, 84.24020053951841 22.48002190162003 M84.24020053951841 22.48002190162003 C83.75941904008145 22.730845301921047, 83.27863754064448 22.98166870222206, 82.77388821041058 23.244996104497716 M84.24020053951841 22.48002190162003 C83.72530260915109 22.748643822084798, 83.21040467878376 23.017265742549565, 82.77388821041058 23.244996104497716 M82.77388821041058 23.244996104497716 C82.43104436983148 23.39676290262089, 82.0882005292524 23.548529700744066, 81.26157651178644 23.914451632345994 M82.77388821041058 23.244996104497716 C82.28326728787161 23.462179433153143, 81.79264636533264 23.67936276180857, 81.26157651178644 23.914451632345994 M81.26157651178644 23.914451632345994 C80.88877269181675 24.05164688425557, 80.51596887184708 24.188842136165153, 79.70947985680553 24.485637548803172 M81.26157651178644 23.914451632345994 C80.88349790492573 24.053588054591067, 80.50541929806502 24.192724476836137, 79.70947985680553 24.485637548803172 M79.70947985680553 24.485637548803172 C79.19122147844227 24.639453915107648, 78.67296310007902 24.79327028141212, 78.12397614354681 24.95620672841954 M79.70947985680553 24.485637548803172 C79.24654137683035 24.623035259646137, 78.78360289685519 24.760432970489102, 78.12397614354681 24.95620672841954 M78.12397614354681 24.95620672841954 C77.74429501494522 25.042866468371944, 77.36461388634362 25.129526208324343, 76.51158054685754 25.324225501499278 M78.12397614354681 24.95620672841954 C77.56269319822637 25.084315897975415, 77.00141025290593 25.21242506753129, 76.51158054685754 25.324225501499278 M76.51158054685754 25.324225501499278 C76.10413268887439 25.390098511372663, 75.69668483089124 25.45597152124605, 74.87891874610233 25.588181599964017 M76.51158054685754 25.324225501499278 C76.0766051921614 25.394548943562295, 75.64162983746525 25.464872385625313, 74.87891874610233 25.588181599964017 M74.87891874610233 25.588181599964017 C74.49764752158504 25.624962376447467, 74.11637629706773 25.661743152930914, 73.23269969882529 25.746990371586765 M74.87891874610233 25.588181599964017 C74.29865092310372 25.644159338974532, 73.71838310010511 25.700137077985048, 73.23269969882529 25.746990371586765 M73.23269969882529 25.746990371586765 C72.59672925049732 25.76738470602326, 71.96075880216934 25.787779040459757, 71.57968807220459 25.799999237060547 M73.23269969882529 25.746990371586765 C72.83490417478356 25.75974689978077, 72.43710865074183 25.77250342797477, 71.57968807220459 25.799999237060547 M71.57968807220459 25.799999237060547 C71.57968807220459 25.799999237060547, 71.57968807220459 25.799999237060547, 71.57968807220459 25.799999237060547 M71.57968807220459 25.799999237060547 C71.57968807220459 25.799999237060547, 71.57968807220459 25.799999237060547, 71.57968807220459 25.799999237060547 M71.57968807220459 25.799999237060547 C34.540947146862635 25.799999237060547, -2.49779377847932 25.799999237060547, -71.57968807220459 25.799999237060547 M71.57968807220459 25.799999237060547 C38.69587441427462 25.799999237060547, 5.81206075634465 25.799999237060547, -71.57968807220459 25.799999237060547 M-71.57968807220459 25.799999237060547 C-71.95155840934541 25.788074079150142, -72.32342874648624 25.776148921239734, -73.23269969882527 25.746990371586765 M-71.57968807220459 25.799999237060547 C-72.02161092585415 25.78582763129466, -72.46353377950369 25.77165602552877, -73.23269969882527 25.746990371586765 M-73.23269969882527 25.746990371586765 C-73.79632499257117 25.692618117357686, -74.35995028631709 25.63824586312861, -74.87891874610231 25.588181599964017 M-73.23269969882527 25.746990371586765 C-73.62049910365405 25.709579829399953, -74.00829850848284 25.67216928721314, -74.87891874610231 25.588181599964017 M-74.87891874610231 25.588181599964017 C-75.51864399568453 25.48475578275497, -76.15836924526675 25.38132996554592, -76.51158054685753 25.324225501499278 M-74.87891874610231 25.588181599964017 C-75.53180648760102 25.482627773138564, -76.1846942290997 25.377073946313107, -76.51158054685753 25.324225501499278 M-76.51158054685753 25.324225501499278 C-77.05833728421538 25.1994318441185, -77.60509402157322 25.074638186737722, -78.12397614354678 24.956206728419545 M-76.51158054685753 25.324225501499278 C-77.09174082956524 25.191807702870896, -77.67190111227296 25.05938990424252, -78.12397614354678 24.956206728419545 M-78.12397614354678 24.956206728419545 C-78.57298622590426 24.82294289287787, -79.02199630826172 24.68967905733619, -79.7094798568055 24.485637548803183 M-78.12397614354678 24.956206728419545 C-78.59680623934335 24.815873237922947, -79.0696363351399 24.675539747426345, -79.7094798568055 24.485637548803183 M-79.7094798568055 24.485637548803183 C-80.20086520577561 24.304803198065812, -80.69225055474571 24.12396884732844, -81.26157651178644 23.914451632345997 M-79.7094798568055 24.485637548803183 C-80.2024191234726 24.304231341989063, -80.69535839013969 24.122825135174946, -81.26157651178644 23.914451632345997 M-81.26157651178644 23.914451632345997 C-81.84705991795668 23.655275496182597, -82.43254332412693 23.3960993600192, -82.77388821041056 23.244996104497723 M-81.26157651178644 23.914451632345997 C-81.60805879762391 23.761074202437584, -81.95454108346136 23.60769677252917, -82.77388821041056 23.244996104497723 M-82.77388821041056 23.244996104497723 C-83.1773991555096 23.03448470290065, -83.58091010060865 22.82397330130357, -84.2402005395184 22.480021901620038 M-82.77388821041056 23.244996104497723 C-83.2815279947195 22.980160754182553, -83.78916777902843 22.71532540386738, -84.2402005395184 22.480021901620038 M-84.2402005395184 22.480021901620038 C-84.54350670554938 22.296155921347182, -84.84681287158034 22.112289941074327, -85.65448810722663 21.622672466799017 M-84.2402005395184 22.480021901620038 C-84.58633913970489 22.270190648050786, -84.93247773989137 22.060359394481537, -85.65448810722663 21.622672466799017 M-85.65448810722663 21.622672466799017 C-86.06802138915118 21.334209550895704, -86.48155467107573 21.04574663499239, -87.01093930255584 20.67647083276321 M-85.65448810722663 21.622672466799017 C-86.05733294417249 21.34166534741751, -86.46017778111836 21.060658228036004, -87.01093930255584 20.67647083276321 M-87.01093930255584 20.67647083276321 C-87.39591765144476 20.369460844228417, -87.78089600033367 20.06245085569362, -88.3039801765865 19.645305144986512 M-87.01093930255584 20.67647083276321 C-87.45378890078362 20.323310062899292, -87.8966384990114 19.970149293035377, -88.3039801765865 19.645305144986512 M-88.3039801765865 19.645305144986512 C-88.71307356263314 19.27377735579681, -89.12216694867979 18.902249566607107, -89.52829734701086 18.533412684464324 M-88.3039801765865 19.645305144986512 C-88.56732656907617 19.406140919091126, -88.83067296156582 19.166976693195735, -89.52829734701086 18.533412684464324 M-89.52829734701086 18.533412684464324 C-89.89944736384115 18.150169820103965, -90.27059738067145 17.766926955743603, -90.67885983196044 17.3453624558171 M-89.52829734701086 18.533412684464324 C-89.96944368019732 18.07789287666178, -90.41059001338375 17.62237306885924, -90.67885983196044 17.3453624558171 M-90.67885983196044 17.3453624558171 C-91.05891981989295 16.898922367965625, -91.43897980782546 16.45248228011415, -91.75093972338968 16.08603641227036 M-90.67885983196044 17.3453624558171 C-90.96852993788835 17.00509946669821, -91.25820004381627 16.66483647757932, -91.75093972338968 16.08603641227036 M-91.75093972338968 16.08603641227036 C-92.14066522004484 15.56383975147558, -92.53039071670001 15.041643090680799, -92.74013161506427 14.760609394661614 M-91.75093972338968 16.08603641227036 C-92.05198711522202 15.682660333196623, -92.35303450705436 15.279284254122885, -92.74013161506427 14.760609394661614 M-92.74013161506427 14.760609394661614 C-92.99030006753314 14.376283472033919, -93.240468520002 13.991957549406223, -93.64237070532036 13.374527866909418 M-92.74013161506427 14.760609394661614 C-93.05873549657572 14.27114827553872, -93.37733937808717 13.781687156415822, -93.64237070532036 13.374527866909418 M-93.64237070532036 13.374527866909418 C-93.91988071974465 12.881780735362952, -94.19739073416895 12.389033603816486, -94.45394950020639 11.933487535324842 M-93.64237070532036 13.374527866909418 C-93.93911758113718 12.847623740017074, -94.235864456954 12.320719613124732, -94.45394950020639 11.933487535324842 M-94.45394950020639 11.933487535324842 C-94.63224057103163 11.563262311938463, -94.81053164185685 11.193037088552083, -95.17153304837109 10.443409943732586 M-94.45394950020639 11.933487535324842 C-94.6576403890959 11.510519046258947, -94.86133127798541 11.087550557193053, -95.17153304837109 10.443409943732586 M-95.17153304837109 10.443409943732586 C-95.34275015708594 10.020500374949268, -95.51396726580082 9.59759080616595, -95.79217264509381 8.910418140577127 M-95.17153304837109 10.443409943732586 C-95.31989303293386 10.076957913517367, -95.46825301749664 9.710505883302146, -95.79217264509381 8.910418140577127 M-95.79217264509381 8.910418140577127 C-95.97086375276648 8.372228994828706, -96.14955486043914 7.834039849080284, -96.3133179491449 7.340811518003316 M-95.79217264509381 8.910418140577127 C-95.96651811812184 8.385317353995493, -96.14086359114987 7.8602165674138575, -96.3133179491449 7.340811518003316 M-96.3133179491449 7.340811518003316 C-96.44892622055676 6.8236784061133235, -96.5845344919686 6.30654529422333, -96.73282746268467 5.741039926302918 M-96.3133179491449 7.340811518003316 C-96.41751541288664 6.943461429289616, -96.52171287662838 6.546111340575916, -96.73282746268467 5.741039926302918 M-96.73282746268467 5.741039926302918 C-96.8353230905665 5.214746539588291, -96.93781871844836 4.688453152873665, -97.04897733113748 4.117677170096139 M-96.73282746268467 5.741039926302918 C-96.83551622133594 5.21375485390547, -96.93820497998722 4.686469781508022, -97.04897733113748 4.117677170096139 M-97.04897733113748 4.117677170096139 C-97.09545952819474 3.7571704286680143, -97.14194172525201 3.396663687239889, -97.26046842687991 2.477393995158454 M-97.04897733113748 4.117677170096139 C-97.11260058142365 3.624227804708444, -97.17622383170982 3.130778439320749, -97.26046842687991 2.477393995158454 M-97.26046842687991 2.477393995158454 C-97.28920788647186 2.0297537139397006, -97.31794734606379 1.5821134327209467, -97.36643168763487 0.8269306768952934 M-97.26046842687991 2.477393995158454 C-97.28200359975088 2.141966294814394, -97.30353877262185 1.8065385944703336, -97.36643168763487 0.8269306768952934 M-97.36643168763487 0.8269306768952934 C-97.36643168763487 0.18102411497248228, -97.36643168763487 -0.4648824469503289, -97.36643168763487 -0.8269306768952809 M-97.36643168763487 0.8269306768952934 C-97.36643168763487 0.41899180373879436, -97.36643168763487 0.011052930582295284, -97.36643168763487 -0.8269306768952809 M-97.36643168763487 -0.8269306768952809 C-97.33570436855084 -1.3055334742746398, -97.3049770494668 -1.784136271653999, -97.26046842687991 -2.4773939951584185 M-97.36643168763487 -0.8269306768952809 C-97.33881236170706 -1.2571239721397038, -97.31119303577923 -1.6873172673841266, -97.26046842687991 -2.4773939951584185 M-97.26046842687991 -2.4773939951584185 C-97.19908346459228 -2.953483640829446, -97.13769850230464 -3.4295732865004727, -97.04897733113748 -4.117677170096128 M-97.26046842687991 -2.4773939951584185 C-97.19919068006213 -2.9526520988173894, -97.13791293324434 -3.4279102024763604, -97.04897733113748 -4.117677170096128 M-97.04897733113748 -4.117677170096128 C-96.93169440822399 -4.719900191502366, -96.81441148531049 -5.322123212908604, -96.73282746268467 -5.741039926302906 M-97.04897733113748 -4.117677170096128 C-96.97025425847707 -4.521903510080044, -96.89153118581665 -4.92612985006396, -96.73282746268467 -5.741039926302906 M-96.73282746268467 -5.741039926302906 C-96.60814240132017 -6.216518104133187, -96.48345733995566 -6.691996281963468, -96.3133179491449 -7.340811518003303 M-96.73282746268467 -5.741039926302906 C-96.59247978452653 -6.276246450188345, -96.45213210636841 -6.811452974073784, -96.3133179491449 -7.340811518003303 M-96.3133179491449 -7.340811518003303 C-96.15578639113869 -7.815271471472787, -95.99825483313248 -8.289731424942271, -95.79217264509383 -8.910418140577093 M-96.3133179491449 -7.340811518003303 C-96.20617262000712 -7.663516178076426, -96.09902729086934 -7.98622083814955, -95.79217264509383 -8.910418140577093 M-95.79217264509383 -8.910418140577093 C-95.60306702348979 -9.37751268204755, -95.41396140188574 -9.84460722351801, -95.17153304837109 -10.443409943732574 M-95.79217264509383 -8.910418140577093 C-95.65290268632052 -9.254417631348652, -95.5136327275472 -9.598417122120209, -95.17153304837109 -10.443409943732574 M-95.17153304837109 -10.443409943732574 C-95.01367256364794 -10.771210617933459, -94.8558120789248 -11.099011292134342, -94.4539495002064 -11.933487535324831 M-95.17153304837109 -10.443409943732574 C-95.01008808133867 -10.778653872144314, -94.84864311430624 -11.113897800556053, -94.4539495002064 -11.933487535324831 M-94.4539495002064 -11.933487535324831 C-94.14996944693553 -12.473234901225473, -93.84598939366465 -13.012982267126112, -93.64237070532036 -13.374527866909409 M-94.4539495002064 -11.933487535324831 C-94.17520300298021 -12.42843016729351, -93.89645650575403 -12.92337279926219, -93.64237070532036 -13.374527866909409 M-93.64237070532036 -13.374527866909409 C-93.30292497220184 -13.896007666921577, -92.9634792390833 -14.417487466933743, -92.74013161506429 -14.760609394661605 M-93.64237070532036 -13.374527866909409 C-93.36358223857273 -13.802821817019206, -93.0847937718251 -14.231115767129003, -92.74013161506429 -14.760609394661605 M-92.74013161506429 -14.760609394661605 C-92.47231040545967 -15.119465416517667, -92.20448919585505 -15.47832143837373, -91.75093972338968 -16.086036412270353 M-92.74013161506429 -14.760609394661605 C-92.40344784854778 -15.211734969271594, -92.06676408203128 -15.662860543881582, -91.75093972338968 -16.086036412270353 M-91.75093972338968 -16.086036412270353 C-91.50981320412683 -16.36927734228412, -91.268686684864 -16.652518272297893, -90.67885983196045 -17.345362455817092 M-91.75093972338968 -16.086036412270353 C-91.36754971431547 -16.536388132438443, -90.98415970524125 -16.986739852606533, -90.67885983196045 -17.345362455817092 M-90.67885983196045 -17.345362455817092 C-90.37959095032085 -17.654382146542112, -90.08032206868126 -17.963401837267128, -89.52829734701089 -18.5334126844643 M-90.67885983196045 -17.345362455817092 C-90.44145435870561 -17.590503098304556, -90.20404888545077 -17.835643740792015, -89.52829734701089 -18.5334126844643 M-89.52829734701089 -18.5334126844643 C-89.0394867918202 -18.977337497469914, -88.55067623662951 -19.42126231047553, -88.30398017658653 -19.645305144986487 M-89.52829734701089 -18.5334126844643 C-89.22726905622429 -18.80679861338457, -88.9262407654377 -19.080184542304842, -88.30398017658653 -19.645305144986487 M-88.30398017658653 -19.645305144986487 C-87.95283469423836 -19.925334322785435, -87.60168921189019 -20.205363500584383, -87.01093930255585 -20.676470832763204 M-88.30398017658653 -19.645305144986487 C-87.80934694860761 -20.039761981556687, -87.31471372062867 -20.43421881812689, -87.01093930255585 -20.676470832763204 M-87.01093930255585 -20.676470832763204 C-86.56701596743736 -20.986132534210416, -86.12309263231886 -21.295794235657628, -85.65448810722665 -21.622672466799 M-87.01093930255585 -20.676470832763204 C-86.64919327840411 -20.92880919947847, -86.28744725425236 -21.18114756619373, -85.65448810722665 -21.622672466799 M-85.65448810722665 -21.622672466799 C-85.2368857039946 -21.875825497742397, -84.81928330076254 -22.128978528685796, -84.24020053951841 -22.480021901620027 M-85.65448810722665 -21.622672466799 C-85.19042801609828 -21.90398842116082, -84.72636792496992 -22.185304375522637, -84.24020053951841 -22.480021901620027 M-84.24020053951841 -22.480021901620027 C-83.83390694023201 -22.691985012124274, -83.4276133409456 -22.903948122628524, -82.77388821041058 -23.244996104497716 M-84.24020053951841 -22.480021901620027 C-83.84842645217854 -22.68441019204196, -83.45665236483866 -22.888798482463894, -82.77388821041058 -23.244996104497716 M-82.77388821041058 -23.244996104497716 C-82.29536927294653 -23.456822243353106, -81.8168503354825 -23.6686483822085, -81.26157651178646 -23.91445163234599 M-82.77388821041058 -23.244996104497716 C-82.46374302378167 -23.382288178488245, -82.15359783715279 -23.51958025247878, -81.26157651178646 -23.91445163234599 M-81.26157651178646 -23.91445163234599 C-80.82866169680908 -24.073768286078344, -80.39574688183171 -24.233084939810702, -79.70947985680553 -24.485637548803172 M-81.26157651178646 -23.91445163234599 C-80.73111797961992 -24.10966527568819, -80.2006594474534 -24.304878919030394, -79.70947985680553 -24.485637548803172 M-79.70947985680553 -24.485637548803172 C-79.23051725464754 -24.62779113499766, -78.75155465248955 -24.76994472119215, -78.12397614354681 -24.956206728419538 M-79.70947985680553 -24.485637548803172 C-79.29471562711335 -24.60873739503394, -78.87995139742118 -24.73183724126471, -78.12397614354681 -24.956206728419538 M-78.12397614354681 -24.956206728419538 C-77.71024118052756 -25.05063903385573, -77.29650621750831 -25.145071339291928, -76.51158054685754 -25.324225501499278 M-78.12397614354681 -24.956206728419538 C-77.48052455727708 -25.103070354071594, -76.83707297100736 -25.24993397972365, -76.51158054685754 -25.324225501499278 M-76.51158054685754 -25.324225501499278 C-76.09947289840652 -25.390851870158293, -75.6873652499555 -25.45747823881731, -74.87891874610233 -25.588181599964017 M-76.51158054685754 -25.324225501499278 C-75.9929390738477 -25.40807543273082, -75.47429760083784 -25.491925363962356, -74.87891874610233 -25.588181599964017 M-74.87891874610233 -25.588181599964017 C-74.41610945583543 -25.63282825558646, -73.9533001655685 -25.677474911208904, -73.23269969882529 -25.746990371586765 M-74.87891874610233 -25.588181599964017 C-74.22725363167584 -25.651046949810777, -73.57558851724933 -25.713912299657537, -73.23269969882529 -25.746990371586765 M-73.23269969882529 -25.746990371586765 C-72.57631614241359 -25.768039314667803, -71.9199325860019 -25.789088257748837, -71.5796880722046 -25.799999237060547 M-73.23269969882529 -25.746990371586765 C-72.65168713919037 -25.765622313501915, -72.07067457955544 -25.784254255417068, -71.5796880722046 -25.799999237060547 M-71.5796880722046 -25.799999237060547 C-71.5796880722046 -25.799999237060547, -71.57968807220459 -25.799999237060547, -71.57968807220459 -25.799999237060547 M-71.5796880722046 -25.799999237060547 C-71.5796880722046 -25.799999237060547, -71.5796880722046 -25.799999237060547, -71.57968807220459 -25.799999237060547" stroke="#1F4870" stroke-width="1.3" fill="none" stroke-dasharray="0 0" style="fill:#2E5A88 !important;stroke:#1F4870 !important"></path></g><g class="label" style="color:#ffffff !important" transform="translate(0, -18.299999237060547)"><rect></rect><g><rect class="background" style="stroke: none"></rect><text y="-10.1" style="fill:#ffffff !important"><tspan class="text-outer-tspan row" x="0" y="-0.1em" dy="1.1em"><tspan font-style="normal" class="text-inner-tspan" font-weight="normal">Pagesmith</tspan></tspan><tspan class="text-outer-tspan row" x="0" y="1em" dy="1.1em"><tspan font-style="normal" class="text-inner-tspan" font-weight="normal">seven</tspan><tspan font-style="normal" class="text-inner-tspan" font-weight="normal"> locked</tspan><tspan font-style="normal" class="text-inner-tspan" font-weight="normal"> principles</tspan></tspan></text></g></g></g><g class="node default tenet" id="gd553c164-5b82-4e91-a795-0f04fca8ec49-light-flowchart-filesystem-2" data-look="classic" transform="translate(379.0141143798828, 58.900001525878906)"><rect class="basic label-container" style="fill:#1F6E68 !important;stroke:#155752 !important" x="-124.3828125" y="-50.900001525878906" width="248.765625" height="101.80000305175781"></rect><g class="label" style="color:#ffffff !important" transform="translate(0, -35.900001525878906)"><rect></rect><g><rect class="background" style="stroke: none"></rect><text y="-10.1" style="fill:#ffffff !important"><tspan class="text-outer-tspan row" x="0" y="-0.1em" dy="1.1em"><tspan font-style="normal" class="text-inner-tspan" font-weight="normal">1.</tspan><tspan font-style="normal" class="text-inner-tspan" font-weight="normal"> Filesystem-first</tspan></tspan><tspan class="text-outer-tspan row" x="0" y="1em" dy="1.1em"><tspan font-style="normal" class="text-inner-tspan" font-weight="normal">source</tspan><tspan font-style="normal" class="text-inner-tspan" font-weight="normal"> of</tspan><tspan font-style="normal" class="text-inner-tspan" font-weight="normal"> truth</tspan></tspan><tspan class="text-outer-tspan row" x="0" y="2.1em" dy="1.1em"><tspan font-style="normal" class="text-inner-tspan" font-weight="normal">collections,</tspan><tspan font-style="normal" class="text-inner-tspan" font-weight="normal"> assets,</tspan><tspan font-style="normal" class="text-inner-tspan" font-weight="normal"> nav</tspan><tspan font-style="normal" class="text-inner-tspan" font-weight="normal"> on</tspan></tspan><tspan class="text-outer-tspan row" x="0" y="3.2em" dy="1.1em"><tspan font-style="normal" class="text-inner-tspan" font-weight="normal">disk</tspan></tspan></text></g></g></g><g class="node default tenet" id="gd553c164-5b82-4e91-a795-0f04fca8ec49-light-flowchart-boundaries-4" data-look="classic" transform="translate(379.0141143798828, 201.9000015258789)"><rect class="basic label-container" style="fill:#1F6E68 !important;stroke:#155752 !important" x="-92.7734375" y="-42.099998474121094" width="185.546875" height="84.19999694824219"></rect><g class="label" style="color:#ffffff !important" transform="translate(0, -27.099998474121094)"><rect></rect><g><rect class="background" style="stroke: none"></rect><text y="-10.1" style="fill:#ffffff !important"><tspan class="text-outer-tspan row" x="0" y="-0.1em" dy="1.1em"><tspan font-style="normal" class="text-inner-tspan" font-weight="normal">2.</tspan><tspan font-style="normal" class="text-inner-tspan" font-weight="normal"> Strict</tspan><tspan font-style="normal" class="text-inner-tspan" font-weight="normal"> package</tspan></tspan><tspan class="text-outer-tspan row" x="0" y="1em" dy="1.1em"><tspan font-style="normal" class="text-inner-tspan" font-weight="normal">boundaries</tspan></tspan><tspan class="text-outer-tspan row" x="0" y="2.1em" dy="1.1em"><tspan font-style="normal" class="text-inner-tspan" font-weight="normal">core</tspan><tspan font-style="normal" class="text-inner-tspan" font-weight="normal"> /</tspan><tspan font-style="normal" class="text-inner-tspan" font-weight="normal"> site</tspan><tspan font-style="normal" class="text-inner-tspan" font-weight="normal"> /</tspan><tspan font-style="normal" class="text-inner-tspan" font-weight="normal"> docs</tspan></tspan></text></g></g></g><g class="node default tenet" id="gd553c164-5b82-4e91-a795-0f04fca8ec49-light-flowchart-validation-6" data-look="classic" transform="translate(379.0141143798828, 336.0999984741211)"><rect class="basic label-container" style="fill:#1F6E68 !important;stroke:#155752 !important" x="-117.53125" y="-42.099998474121094" width="235.0625" height="84.19999694824219"></rect><g class="label" style="color:#ffffff !important" transform="translate(0, -27.099998474121094)"><rect></rect><g><rect class="background" style="stroke: none"></rect><text y="-10.1" style="fill:#ffffff !important"><tspan class="text-outer-tspan row" x="0" y="-0.1em" dy="1.1em"><tspan font-style="normal" class="text-inner-tspan" font-weight="normal">3.</tspan><tspan font-style="normal" class="text-inner-tspan" font-weight="normal"> Validation</tspan><tspan font-style="normal" class="text-inner-tspan" font-weight="normal"> before</tspan></tspan><tspan class="text-outer-tspan row" x="0" y="1em" dy="1.1em"><tspan font-style="normal" class="text-inner-tspan" font-weight="normal">render</tspan><tspan font-style="normal" class="text-inner-tspan" font-weight="normal"> or</tspan><tspan font-style="normal" class="text-inner-tspan" font-weight="normal"> runtime</tspan></tspan><tspan class="text-outer-tspan row" x="0" y="2.1em" dy="1.1em"><tspan font-style="normal" class="text-inner-tspan" font-weight="normal">Zod</tspan><tspan font-style="normal" class="text-inner-tspan" font-weight="normal"> +</tspan><tspan font-style="normal" class="text-inner-tspan" font-weight="normal"> content</tspan><tspan font-style="normal" class="text-inner-tspan" font-weight="normal"> validators</tspan></tspan></text></g></g></g><g class="node default tenet" id="gd553c164-5b82-4e91-a795-0f04fca8ec49-light-flowchart-vite-8" data-look="classic" transform="translate(379.0141143798828, 470.2999954223633)"><rect class="basic label-container" style="fill:#1F6E68 !important;stroke:#155752 !important" x="-102.46875" y="-42.099998474121094" width="204.9375" height="84.19999694824219"></rect><g class="label" style="color:#ffffff !important" transform="translate(0, -27.099998474121094)"><rect></rect><g><rect class="background" style="stroke: none"></rect><text y="-10.1" style="fill:#ffffff !important"><tspan class="text-outer-tspan row" x="0" y="-0.1em" dy="1.1em"><tspan font-style="normal" class="text-inner-tspan" font-weight="normal">4.</tspan><tspan font-style="normal" class="text-inner-tspan" font-weight="normal"> Vite-native</tspan></tspan><tspan class="text-outer-tspan row" x="0" y="1em" dy="1.1em"><tspan font-style="normal" class="text-inner-tspan" font-weight="normal">execution</tspan></tspan><tspan class="text-outer-tspan row" x="0" y="2.1em" dy="1.1em"><tspan font-style="normal" class="text-inner-tspan" font-weight="normal">no</tspan><tspan font-style="normal" class="text-inner-tspan" font-weight="normal"> custom</tspan><tspan font-style="normal" class="text-inner-tspan" font-weight="normal"> toolchain</tspan></tspan></text></g></g></g><g class="node default tenet" id="gd553c164-5b82-4e91-a795-0f04fca8ec49-light-flowchart-progressive-10" data-look="classic" transform="translate(379.0141143798828, 604.4999923706055)"><rect class="basic label-container" style="fill:#1F6E68 !important;stroke:#155752 !important" x="-111.3359375" y="-42.099998474121094" width="222.671875" height="84.19999694824219"></rect><g class="label" style="color:#ffffff !important" transform="translate(0, -27.099998474121094)"><rect></rect><g><rect class="background" style="stroke: none"></rect><text y="-10.1" style="fill:#ffffff !important"><tspan class="text-outer-tspan row" x="0" y="-0.1em" dy="1.1em"><tspan font-style="normal" class="text-inner-tspan" font-weight="normal">5.</tspan><tspan font-style="normal" class="text-inner-tspan" font-weight="normal"> Progressive</tspan></tspan><tspan class="text-outer-tspan row" x="0" y="1em" dy="1.1em"><tspan font-style="normal" class="text-inner-tspan" font-weight="normal">enhancement</tspan></tspan><tspan class="text-outer-tspan row" x="0" y="2.1em" dy="1.1em"><tspan font-style="normal" class="text-inner-tspan" font-weight="normal">HTML</tspan><tspan font-style="normal" class="text-inner-tspan" font-weight="normal"> first,</tspan><tspan font-style="normal" class="text-inner-tspan" font-weight="normal"> JS</tspan><tspan font-style="normal" class="text-inner-tspan" font-weight="normal"> optional</tspan></tspan></text></g></g></g><g class="node default tenet" id="gd553c164-5b82-4e91-a795-0f04fca8ec49-light-flowchart-config-12" data-look="classic" transform="translate(379.0141143798828, 738.6999893188477)"><rect class="basic label-container" style="fill:#1F6E68 !important;stroke:#155752 !important" x="-110.03125" y="-42.099998474121094" width="220.0625" height="84.19999694824219"></rect><g class="label" style="color:#ffffff !important" transform="translate(0, -27.099998474121094)"><rect></rect><g><rect class="background" style="stroke: none"></rect><text y="-10.1" style="fill:#ffffff !important"><tspan class="text-outer-tspan row" x="0" y="-0.1em" dy="1.1em"><tspan font-style="normal" class="text-inner-tspan" font-weight="normal">6.</tspan><tspan font-style="normal" class="text-inner-tspan" font-weight="normal"> Configuration</tspan></tspan><tspan class="text-outer-tspan row" x="0" y="1em" dy="1.1em"><tspan font-style="normal" class="text-inner-tspan" font-weight="normal">before</tspan><tspan font-style="normal" class="text-inner-tspan" font-weight="normal"> customization</tspan></tspan><tspan class="text-outer-tspan row" x="0" y="2.1em" dy="1.1em"><tspan font-style="normal" class="text-inner-tspan" font-weight="normal">JSON5</tspan><tspan font-style="normal" class="text-inner-tspan" font-weight="normal"> over</tspan><tspan font-style="normal" class="text-inner-tspan" font-weight="normal"> TypeScript</tspan></tspan></text></g></g></g><g class="node default tenet" id="gd553c164-5b82-4e91-a795-0f04fca8ec49-light-flowchart-parity-14" data-look="classic" transform="translate(379.0141143798828, 872.8999862670898)"><rect class="basic label-container" style="fill:#1F6E68 !important;stroke:#155752 !important" x="-126.28125" y="-42.099998474121094" width="252.5625" height="84.19999694824219"></rect><g class="label" style="color:#ffffff !important" transform="translate(0, -27.099998474121094)"><rect></rect><g><rect class="background" style="stroke: none"></rect><text y="-10.1" style="fill:#ffffff !important"><tspan class="text-outer-tspan row" x="0" y="-0.1em" dy="1.1em"><tspan font-style="normal" class="text-inner-tspan" font-weight="normal">7.</tspan><tspan font-style="normal" class="text-inner-tspan" font-weight="normal"> Docs,</tspan><tspan font-style="normal" class="text-inner-tspan" font-weight="normal"> examples,</tspan></tspan><tspan class="text-outer-tspan row" x="0" y="1em" dy="1.1em"><tspan font-style="normal" class="text-inner-tspan" font-weight="normal">AI</tspan><tspan font-style="normal" class="text-inner-tspan" font-weight="normal"> guidance</tspan><tspan font-style="normal" class="text-inner-tspan" font-weight="normal"> move</tspan><tspan font-style="normal" class="text-inner-tspan" font-weight="normal"> together</tspan></tspan><tspan class="text-outer-tspan row" x="0" y="2.1em" dy="1.1em"><tspan font-style="normal" class="text-inner-tspan" font-weight="normal">same</tspan><tspan font-style="normal" class="text-inner-tspan" font-weight="normal"> branch,</tspan><tspan font-style="normal" class="text-inner-tspan" font-weight="normal"> same</tspan><tspan font-style="normal" class="text-inner-tspan" font-weight="normal"> PR</tspan></tspan></text></g></g></g></g></g></g><defs><filter id="gd553c164-5b82-4e91-a795-0f04fca8ec49-light-drop-shadow" height="130%" width="130%"><feDropShadow dx="4" dy="4" stdDeviation="0" flood-opacity="0.06" flood-color="#000000"></feDropShadow></filter></defs><defs><filter id="gd553c164-5b82-4e91-a795-0f04fca8ec49-light-drop-shadow-small" height="150%" width="150%"><feDropShadow dx="2" dy="2" stdDeviation="0" flood-opacity="0.06" flood-color="#000000"></feDropShadow></filter></defs></svg>