<svg id="gf8a3af2c-a55a-44cc-9ac4-7a6c0062446b-dark" width="100%" xmlns="http://www.w3.org/2000/svg" xmlns:xlink="http://www.w3.org/1999/xlink" class="flowchart" style="max-width: 513.2953491210938px;" viewBox="0 0 513.2953491210938 923" role="graphics-document document" aria-roledescription="flowchart-v2"><style>#gf8a3af2c-a55a-44cc-9ac4-7a6c0062446b-dark{font-family:"trebuchet ms",verdana,arial,sans-serif;font-size:16px;fill:#e5e5e5;}@keyframes edge-animation-frame{from{stroke-dashoffset:0;}}@keyframes dash{to{stroke-dashoffset:0;}}#gf8a3af2c-a55a-44cc-9ac4-7a6c0062446b-dark .edge-animation-slow{stroke-dasharray:9,5!important;stroke-dashoffset:900;animation:dash 50s linear infinite;stroke-linecap:round;}#gf8a3af2c-a55a-44cc-9ac4-7a6c0062446b-dark .edge-animation-fast{stroke-dasharray:9,5!important;stroke-dashoffset:900;animation:dash 20s linear infinite;stroke-linecap:round;}#gf8a3af2c-a55a-44cc-9ac4-7a6c0062446b-dark .error-icon{fill:#252525;}#gf8a3af2c-a55a-44cc-9ac4-7a6c0062446b-dark .error-text{fill:#cccccc;stroke:#cccccc;}#gf8a3af2c-a55a-44cc-9ac4-7a6c0062446b-dark .edge-thickness-normal{stroke-width:1px;}#gf8a3af2c-a55a-44cc-9ac4-7a6c0062446b-dark .edge-thickness-thick{stroke-width:3.5px;}#gf8a3af2c-a55a-44cc-9ac4-7a6c0062446b-dark .edge-pattern-solid{stroke-dasharray:0;}#gf8a3af2c-a55a-44cc-9ac4-7a6c0062446b-dark .edge-thickness-invisible{stroke-width:0;fill:none;}#gf8a3af2c-a55a-44cc-9ac4-7a6c0062446b-dark .edge-pattern-dashed{stroke-dasharray:3;}#gf8a3af2c-a55a-44cc-9ac4-7a6c0062446b-dark .edge-pattern-dotted{stroke-dasharray:2;}#gf8a3af2c-a55a-44cc-9ac4-7a6c0062446b-dark .marker{fill:#cccccc;stroke:#cccccc;}#gf8a3af2c-a55a-44cc-9ac4-7a6c0062446b-dark .marker.cross{stroke:#cccccc;}#gf8a3af2c-a55a-44cc-9ac4-7a6c0062446b-dark svg{font-family:"trebuchet ms",verdana,arial,sans-serif;font-size:16px;}#gf8a3af2c-a55a-44cc-9ac4-7a6c0062446b-dark p{margin:0;}#gf8a3af2c-a55a-44cc-9ac4-7a6c0062446b-dark .label{font-family:"trebuchet ms",verdana,arial,sans-serif;color:#e5e5e5;}#gf8a3af2c-a55a-44cc-9ac4-7a6c0062446b-dark .cluster-label text{fill:#e5e5e5;}#gf8a3af2c-a55a-44cc-9ac4-7a6c0062446b-dark .cluster-label span{color:#e5e5e5;}#gf8a3af2c-a55a-44cc-9ac4-7a6c0062446b-dark .cluster-label span p{background-color:transparent;}#gf8a3af2c-a55a-44cc-9ac4-7a6c0062446b-dark .label text,#gf8a3af2c-a55a-44cc-9ac4-7a6c0062446b-dark span{fill:#e5e5e5;color:#e5e5e5;}#gf8a3af2c-a55a-44cc-9ac4-7a6c0062446b-dark .node rect,#gf8a3af2c-a55a-44cc-9ac4-7a6c0062446b-dark .node circle,#gf8a3af2c-a55a-44cc-9ac4-7a6c0062446b-dark .node ellipse,#gf8a3af2c-a55a-44cc-9ac4-7a6c0062446b-dark .node polygon,#gf8a3af2c-a55a-44cc-9ac4-7a6c0062446b-dark .node path{fill:#2d2d2d;stroke:#555555;stroke-width:1px;}#gf8a3af2c-a55a-44cc-9ac4-7a6c0062446b-dark .rough-node .label text,#gf8a3af2c-a55a-44cc-9ac4-7a6c0062446b-dark .node .label text,#gf8a3af2c-a55a-44cc-9ac4-7a6c0062446b-dark .image-shape .label,#gf8a3af2c-a55a-44cc-9ac4-7a6c0062446b-dark .icon-shape .label{text-anchor:middle;}#gf8a3af2c-a55a-44cc-9ac4-7a6c0062446b-dark .node .katex path{fill:#000;stroke:#000;stroke-width:1px;}#gf8a3af2c-a55a-44cc-9ac4-7a6c0062446b-dark .rough-node .label,#gf8a3af2c-a55a-44cc-9ac4-7a6c0062446b-dark .node .label,#gf8a3af2c-a55a-44cc-9ac4-7a6c0062446b-dark .image-shape .label,#gf8a3af2c-a55a-44cc-9ac4-7a6c0062446b-dark .icon-shape .label{text-align:center;}#gf8a3af2c-a55a-44cc-9ac4-7a6c0062446b-dark .node.clickable{cursor:pointer;}#gf8a3af2c-a55a-44cc-9ac4-7a6c0062446b-dark .root .anchor path{fill:#cccccc!important;stroke-width:0;stroke:#cccccc;}#gf8a3af2c-a55a-44cc-9ac4-7a6c0062446b-dark .arrowheadPath{fill:#cccccc;}#gf8a3af2c-a55a-44cc-9ac4-7a6c0062446b-dark .edgePath .path{stroke:#cccccc;stroke-width:1px;}#gf8a3af2c-a55a-44cc-9ac4-7a6c0062446b-dark .flowchart-link{stroke:#cccccc;fill:none;}#gf8a3af2c-a55a-44cc-9ac4-7a6c0062446b-dark .edgeLabel{background-color:#1e1e1e;text-align:center;}#gf8a3af2c-a55a-44cc-9ac4-7a6c0062446b-dark .edgeLabel p{background-color:#1e1e1e;}#gf8a3af2c-a55a-44cc-9ac4-7a6c0062446b-dark .edgeLabel rect{opacity:0.5;background-color:#1e1e1e;fill:#1e1e1e;}#gf8a3af2c-a55a-44cc-9ac4-7a6c0062446b-dark .labelBkg{background-color:rgba(30, 30, 30, 0.5);}#gf8a3af2c-a55a-44cc-9ac4-7a6c0062446b-dark .cluster rect{fill:#1e1e1e;stroke:#555555;stroke-width:1px;}#gf8a3af2c-a55a-44cc-9ac4-7a6c0062446b-dark .cluster text{fill:#e5e5e5;}#gf8a3af2c-a55a-44cc-9ac4-7a6c0062446b-dark .cluster span{color:#e5e5e5;}#gf8a3af2c-a55a-44cc-9ac4-7a6c0062446b-dark div.mermaidTooltip{position:absolute;text-align:center;max-width:200px;padding:2px;font-family:"trebuchet ms",verdana,arial,sans-serif;font-size:12px;background:#252525;border:1px solid #555555;border-radius:2px;pointer-events:none;z-index:100;}#gf8a3af2c-a55a-44cc-9ac4-7a6c0062446b-dark .flowchartTitleText{text-anchor:middle;font-size:18px;fill:#e5e5e5;}#gf8a3af2c-a55a-44cc-9ac4-7a6c0062446b-dark rect.text{fill:none;stroke-width:0;}#gf8a3af2c-a55a-44cc-9ac4-7a6c0062446b-dark .icon-shape,#gf8a3af2c-a55a-44cc-9ac4-7a6c0062446b-dark .image-shape{background-color:#1e1e1e;text-align:center;}#gf8a3af2c-a55a-44cc-9ac4-7a6c0062446b-dark .icon-shape p,#gf8a3af2c-a55a-44cc-9ac4-7a6c0062446b-dark .image-shape p{background-color:#1e1e1e;padding:2px;}#gf8a3af2c-a55a-44cc-9ac4-7a6c0062446b-dark .icon-shape .label rect,#gf8a3af2c-a55a-44cc-9ac4-7a6c0062446b-dark .image-shape .label rect{opacity:0.5;background-color:#1e1e1e;fill:#1e1e1e;}#gf8a3af2c-a55a-44cc-9ac4-7a6c0062446b-dark .label-icon{display:inline-block;height:1em;overflow:visible;vertical-align:-0.125em;}#gf8a3af2c-a55a-44cc-9ac4-7a6c0062446b-dark .node .label-icon path{fill:currentColor;stroke:revert;stroke-width:revert;}#gf8a3af2c-a55a-44cc-9ac4-7a6c0062446b-dark .node .neo-node{stroke:#555555;}#gf8a3af2c-a55a-44cc-9ac4-7a6c0062446b-dark [data-look="neo"].node rect,#gf8a3af2c-a55a-44cc-9ac4-7a6c0062446b-dark [data-look="neo"].cluster rect,#gf8a3af2c-a55a-44cc-9ac4-7a6c0062446b-dark [data-look="neo"].node polygon{stroke:url(#gf8a3af2c-a55a-44cc-9ac4-7a6c0062446b-dark-gradient);filter:drop-shadow( 1px 2px 2px rgba(185,185,185,1));}#gf8a3af2c-a55a-44cc-9ac4-7a6c0062446b-dark [data-look="neo"].node path{stroke:url(#gf8a3af2c-a55a-44cc-9ac4-7a6c0062446b-dark-gradient);stroke-width:1px;}#gf8a3af2c-a55a-44cc-9ac4-7a6c0062446b-dark [data-look="neo"].node .outer-path{filter:drop-shadow( 1px 2px 2px rgba(185,185,185,1));}#gf8a3af2c-a55a-44cc-9ac4-7a6c0062446b-dark [data-look="neo"].node .neo-line path{stroke:#555555;filter:none;}#gf8a3af2c-a55a-44cc-9ac4-7a6c0062446b-dark [data-look="neo"].node circle{stroke:url(#gf8a3af2c-a55a-44cc-9ac4-7a6c0062446b-dark-gradient);filter:drop-shadow( 1px 2px 2px rgba(185,185,185,1));}#gf8a3af2c-a55a-44cc-9ac4-7a6c0062446b-dark [data-look="neo"].node circle .state-start{fill:#000000;}#gf8a3af2c-a55a-44cc-9ac4-7a6c0062446b-dark [data-look="neo"].icon-shape .icon{fill:url(#gf8a3af2c-a55a-44cc-9ac4-7a6c0062446b-dark-gradient);filter:drop-shadow( 1px 2px 2px rgba(185,185,185,1));}#gf8a3af2c-a55a-44cc-9ac4-7a6c0062446b-dark [data-look="neo"].icon-shape .icon-neo path{stroke:url(#gf8a3af2c-a55a-44cc-9ac4-7a6c0062446b-dark-gradient);filter:drop-shadow( 1px 2px 2px rgba(185,185,185,1));}#gf8a3af2c-a55a-44cc-9ac4-7a6c0062446b-dark :root{--mermaid-font-family:"trebuchet ms",verdana,arial,sans-serif;}#gf8a3af2c-a55a-44cc-9ac4-7a6c0062446b-dark .hub rect{fill:#2E5A88!important;stroke:#1F4870!important;color:#ffffff!important;}#gf8a3af2c-a55a-44cc-9ac4-7a6c0062446b-dark .hub polygon{fill:#2E5A88!important;stroke:#1F4870!important;color:#ffffff!important;}#gf8a3af2c-a55a-44cc-9ac4-7a6c0062446b-dark .hub ellipse{fill:#2E5A88!important;stroke:#1F4870!important;color:#ffffff!important;}#gf8a3af2c-a55a-44cc-9ac4-7a6c0062446b-dark .hub circle{fill:#2E5A88!important;stroke:#1F4870!important;color:#ffffff!important;}#gf8a3af2c-a55a-44cc-9ac4-7a6c0062446b-dark .hub path{fill:#2E5A88!important;stroke:#1F4870!important;color:#ffffff!important;}#gf8a3af2c-a55a-44cc-9ac4-7a6c0062446b-dark .hub tspan{fill:#ffffff!important;}#gf8a3af2c-a55a-44cc-9ac4-7a6c0062446b-dark .tenet rect{fill:#1F6E68!important;stroke:#155752!important;color:#ffffff!important;}#gf8a3af2c-a55a-44cc-9ac4-7a6c0062446b-dark .tenet polygon{fill:#1F6E68!important;stroke:#155752!important;color:#ffffff!important;}#gf8a3af2c-a55a-44cc-9ac4-7a6c0062446b-dark .tenet ellipse{fill:#1F6E68!important;stroke:#155752!important;color:#ffffff!important;}#gf8a3af2c-a55a-44cc-9ac4-7a6c0062446b-dark .tenet circle{fill:#1F6E68!important;stroke:#155752!important;color:#ffffff!important;}#gf8a3af2c-a55a-44cc-9ac4-7a6c0062446b-dark .tenet path{fill:#1F6E68!important;stroke:#155752!important;color:#ffffff!important;}#gf8a3af2c-a55a-44cc-9ac4-7a6c0062446b-dark .tenet tspan{fill:#ffffff!important;}</style><g><marker id="gf8a3af2c-a55a-44cc-9ac4-7a6c0062446b-dark_flowchart-v2-pointEnd" class="marker flowchart-v2" viewBox="0 0 10 10" refX="5" refY="5" markerUnits="userSpaceOnUse" markerWidth="8" markerHeight="8" orient="auto"><path d="M 0 0 L 10 5 L 0 10 z" class="arrowMarkerPath" style="stroke-width: 1; stroke-dasharray: 1, 0;"></path></marker><marker id="gf8a3af2c-a55a-44cc-9ac4-7a6c0062446b-dark_flowchart-v2-pointStart" class="marker flowchart-v2" viewBox="0 0 10 10" refX="4.5" refY="5" markerUnits="userSpaceOnUse" markerWidth="8" markerHeight="8" orient="auto"><path d="M 0 5 L 10 10 L 10 0 z" class="arrowMarkerPath" style="stroke-width: 1; stroke-dasharray: 1, 0;"></path></marker><marker id="gf8a3af2c-a55a-44cc-9ac4-7a6c0062446b-dark_flowchart-v2-pointEnd-margin" class="marker flowchart-v2" viewBox="0 0 11.5 14" refX="11.5" refY="7" markerUnits="userSpaceOnUse" markerWidth="10.5" markerHeight="14" orient="auto"><path d="M 0 0 L 11.5 7 L 0 14 z" class="arrowMarkerPath" style="stroke-width: 0; stroke-dasharray: 1, 0;"></path></marker><marker id="gf8a3af2c-a55a-44cc-9ac4-7a6c0062446b-dark_flowchart-v2-pointStart-margin" class="marker flowchart-v2" viewBox="0 0 11.5 14" refX="1" refY="7" markerUnits="userSpaceOnUse" markerWidth="11.5" markerHeight="14" orient="auto"><polygon points="0,7 11.5,14 11.5,0" class="arrowMarkerPath" style="stroke-width: 0; stroke-dasharray: 1, 0;"></polygon></marker><marker id="gf8a3af2c-a55a-44cc-9ac4-7a6c0062446b-dark_flowchart-v2-circleEnd" class="marker flowchart-v2" viewBox="0 0 10 10" refX="11" refY="5" markerUnits="userSpaceOnUse" markerWidth="11" markerHeight="11" orient="auto"><circle cx="5" cy="5" r="5" class="arrowMarkerPath" style="stroke-width: 1; stroke-dasharray: 1, 0;"></circle></marker><marker id="gf8a3af2c-a55a-44cc-9ac4-7a6c0062446b-dark_flowchart-v2-circleStart" class="marker flowchart-v2" viewBox="0 0 10 10" refX="-1" refY="5" markerUnits="userSpaceOnUse" markerWidth="11" markerHeight="11" orient="auto"><circle cx="5" cy="5" r="5" class="arrowMarkerPath" style="stroke-width: 1; stroke-dasharray: 1, 0;"></circle></marker><marker id="gf8a3af2c-a55a-44cc-9ac4-7a6c0062446b-dark_flowchart-v2-circleEnd-margin" class="marker flowchart-v2" viewBox="0 0 10 10" refY="5" refX="12.25" markerUnits="userSpaceOnUse" markerWidth="14" markerHeight="14" orient="auto"><circle cx="5" cy="5" r="5" class="arrowMarkerPath" style="stroke-width: 0; stroke-dasharray: 1, 0;"></circle></marker><marker id="gf8a3af2c-a55a-44cc-9ac4-7a6c0062446b-dark_flowchart-v2-circleStart-margin" class="marker flowchart-v2" viewBox="0 0 10 10" refX="-2" refY="5" markerUnits="userSpaceOnUse" markerWidth="14" markerHeight="14" orient="auto"><circle cx="5" cy="5" r="5" class="arrowMarkerPath" style="stroke-width: 0; stroke-dasharray: 1, 0;"></circle></marker><marker id="gf8a3af2c-a55a-44cc-9ac4-7a6c0062446b-dark_flowchart-v2-crossEnd" class="marker cross flowchart-v2" viewBox="0 0 11 11" refX="12" refY="5.2" markerUnits="userSpaceOnUse" markerWidth="11" markerHeight="11" orient="auto"><path d="M 1,1 l 9,9 M 10,1 l -9,9" class="arrowMarkerPath" style="stroke-width: 2; stroke-dasharray: 1, 0;"></path></marker><marker id="gf8a3af2c-a55a-44cc-9ac4-7a6c0062446b-dark_flowchart-v2-crossStart" class="marker cross flowchart-v2" viewBox="0 0 11 11" refX="-1" refY="5.2" markerUnits="userSpaceOnUse" markerWidth="11" markerHeight="11" orient="auto"><path d="M 1,1 l 9,9 M 10,1 l -9,9" class="arrowMarkerPath" style="stroke-width: 2; stroke-dasharray: 1, 0;"></path></marker><marker id="gf8a3af2c-a55a-44cc-9ac4-7a6c0062446b-dark_flowchart-v2-crossEnd-margin" class="marker cross flowchart-v2" viewBox="0 0 15 15" refX="17.7" refY="7.5" markerUnits="userSpaceOnUse" markerWidth="12" markerHeight="12" orient="auto"><path d="M 1,1 L 14,14 M 1,14 L 14,1" class="arrowMarkerPath" style="stroke-width: 2.5;"></path></marker><marker id="gf8a3af2c-a55a-44cc-9ac4-7a6c0062446b-dark_flowchart-v2-crossStart-margin" class="marker cross flowchart-v2" viewBox="0 0 15 15" refX="-3.5" refY="7.5" markerUnits="userSpaceOnUse" markerWidth="12" markerHeight="12" orient="auto"><path d="M 1,1 L 14,14 M 1,14 L 14,1" class="arrowMarkerPath" style="stroke-width: 2.5; stroke-dasharray: 1, 0;"></path></marker><g class="root"><g class="clusters"></g><g class="edgePaths"><path d="M113.54,445L132.572,380.65C151.605,316.3,189.669,187.6,213.184,123.25C236.699,58.9,245.665,58.9,250.148,58.9L254.631,58.9" id="gf8a3af2c-a55a-44cc-9ac4-7a6c0062446b-dark-L_hub_filesystem_0" class="edge-thickness-normal edge-pattern-solid edge-thickness-normal edge-pattern-solid flowchart-link" style=";" data-edge="true" data-et="edge" data-id="L_hub_filesystem_0" data-points="W3sieCI6MTEzLjU0MDM2MDAwNzEwMjg5LCJ5Ijo0NDQuOTk5OTk2MTg1MzAyOH0seyJ4IjoyMjcuNzMyODY0Mzc5ODgyOCwieSI6NTguOTAwMDAxNTI1ODc4OTA2fSx7IngiOjI1NC42MzEzMDE4Nzk4ODI4LCJ5Ijo1OC45MDAwMDE1MjU4Nzg5MDZ9XQ==" data-look="classic"></path><path d="M117.629,445L135.98,404.483C154.33,363.967,191.032,282.933,219.134,242.417C247.235,201.9,266.738,201.9,276.489,201.9L286.241,201.9" id="gf8a3af2c-a55a-44cc-9ac4-7a6c0062446b-dark-L_hub_boundaries_0" class="edge-thickness-normal edge-pattern-solid edge-thickness-normal edge-pattern-solid flowchart-link" style=";" data-edge="true" data-et="edge" data-id="L_hub_boundaries_0" data-points="W3sieCI6MTE3LjYyODkyODE5OTM4NTgsInkiOjQ0NC45OTk5OTYxODUzMDI4fSx7IngiOjIyNy43MzI4NjQzNzk4ODI4LCJ5IjoyMDEuOTAwMDAxNTI1ODc4OX0seyJ4IjoyODYuMjQwNjc2ODc5ODgyOCwieSI6MjAxLjkwMDAwMTUyNTg3ODl9XQ==" data-look="classic"></path><path d="M129.391,445L145.782,426.85C162.172,408.7,194.952,372.4,216.968,354.25C238.983,336.1,250.233,336.1,255.858,336.1L261.483,336.1" id="gf8a3af2c-a55a-44cc-9ac4-7a6c0062446b-dark-L_hub_validation_0" class="edge-thickness-normal edge-pattern-solid edge-thickness-normal edge-pattern-solid flowchart-link" style=";" data-edge="true" data-et="edge" data-id="L_hub_validation_0" data-points="W3sieCI6MTI5LjM5MTQyNDIwODgzMDI0LCJ5Ijo0NDQuOTk5OTk2MTg1MzAyOH0seyJ4IjoyMjcuNzMyODY0Mzc5ODgyOCwieSI6MzM2LjA5OTk5ODQ3NDEyMTF9LHsieCI6MjYxLjQ4Mjg2NDM3OTg4MjgsInkiOjMzNi4wOTk5OTg0NzQxMjExfV0=" data-look="classic"></path><path d="M203.233,470.8L207.316,470.717C211.4,470.633,219.566,470.467,231.785,470.383C244.004,470.3,260.275,470.3,268.41,470.3L276.545,470.3" id="gf8a3af2c-a55a-44cc-9ac4-7a6c0062446b-dark-L_hub_vite_0" class="edge-thickness-normal edge-pattern-solid edge-thickness-normal edge-pattern-solid flowchart-link" style=";" data-edge="true" data-et="edge" data-id="L_hub_vite_0" data-points="W3sieCI6MjAzLjIzMjg2MzM3NTI3MjI3LCJ5Ijo0NzAuNzk5OTk1NDIyMzYzM30seyJ4IjoyMjcuNzMyODY0Mzc5ODgyOCwieSI6NDcwLjI5OTk5NTQyMjM2MzN9LHsieCI6Mjc2LjU0NTM2NDM3OTg4MjgsInkiOjQ3MC4yOTk5OTU0MjIzNjMzfV0=" data-look="classic"></path><path d="M129.391,496.6L145.782,514.583C162.172,532.567,194.952,568.533,218,586.517C241.048,604.5,254.363,604.5,261.021,604.5L267.678,604.5" id="gf8a3af2c-a55a-44cc-9ac4-7a6c0062446b-dark-L_hub_progressive_0" class="edge-thickness-normal edge-pattern-solid edge-thickness-normal edge-pattern-solid flowchart-link" style=";" data-edge="true" data-et="edge" data-id="L_hub_progressive_0" data-points="W3sieCI6MTI5LjM5MTQyNDIwODgzMDMsInkiOjQ5Ni41OTk5OTQ2NTk0MjM5fSx7IngiOjIyNy43MzI4NjQzNzk4ODI4LCJ5Ijo2MDQuNDk5OTkyMzcwNjA1NX0seyJ4IjoyNjcuNjc4MTc2ODc5ODgyOCwieSI6NjA0LjQ5OTk5MjM3MDYwNTV9XQ==" data-look="classic"></path><path d="M117.629,496.6L135.98,536.95C154.33,577.3,191.032,658,216.257,698.35C241.483,738.7,255.233,738.7,262.108,738.7L268.983,738.7" id="gf8a3af2c-a55a-44cc-9ac4-7a6c0062446b-dark-L_hub_config_0" class="edge-thickness-normal edge-pattern-solid edge-thickness-normal edge-pattern-solid flowchart-link" style=";" data-edge="true" data-et="edge" data-id="L_hub_config_0" data-points="W3sieCI6MTE3LjYyODkyODE5OTM4NTgzLCJ5Ijo0OTYuNTk5OTk0NjU5NDIzOX0seyJ4IjoyMjcuNzMyODY0Mzc5ODgyOCwieSI6NzM4LjY5OTk4OTMxODg0Nzd9LHsieCI6MjY4Ljk4Mjg2NDM3OTg4MjgsInkiOjczOC42OTk5ODkzMTg4NDc3fV0=" data-look="classic"></path><path d="M113.708,496.6L132.712,559.317C151.716,622.033,189.725,747.467,212.895,810.183C236.066,872.9,244.4,872.9,248.566,872.9L252.733,872.9" id="gf8a3af2c-a55a-44cc-9ac4-7a6c0062446b-dark-L_hub_parity_0" class="edge-thickness-normal edge-pattern-solid edge-thickness-normal edge-pattern-solid flowchart-link" style=";" data-edge="true" data-et="edge" data-id="L_hub_parity_0" data-points="W3sieCI6MTEzLjcwODA5NjE5NjIzNzcsInkiOjQ5Ni41OTk5OTQ2NTk0MjM5fSx7IngiOjIyNy43MzI4NjQzNzk4ODI4LCJ5Ijo4NzIuODk5OTg2MjY3MDg5OH0seyJ4IjoyNTIuNzMyODY0Mzc5ODgyOCwieSI6ODcyLjg5OTk4NjI2NzA4OTh9XQ==" data-look="classic"></path></g><g class="edgeLabels"><g class="edgeLabel"><g class="label" data-id="L_hub_filesystem_0" transform="translate(0, 0)"><text y="-10.1" text-anchor="middle"><tspan class="text-outer-tspan row" x="0" y="-0.1em" dy="1.1em" text-anchor="middle"></tspan></text></g></g><g><rect class="background" style="stroke: none"></rect></g><g class="edgeLabel"><g class="label" data-id="L_hub_boundaries_0" transform="translate(0, 0)"><text y="-10.1" text-anchor="middle"><tspan class="text-outer-tspan row" x="0" y="-0.1em" dy="1.1em" text-anchor="middle"></tspan></text></g></g><g><rect class="background" style="stroke: none"></rect></g><g class="edgeLabel"><g class="label" data-id="L_hub_validation_0" transform="translate(0, 0)"><text y="-10.1" text-anchor="middle"><tspan class="text-outer-tspan row" x="0" y="-0.1em" dy="1.1em" text-anchor="middle"></tspan></text></g></g><g><rect class="background" style="stroke: none"></rect></g><g class="edgeLabel"><g class="label" data-id="L_hub_vite_0" transform="translate(0, 0)"><text y="-10.1" text-anchor="middle"><tspan class="text-outer-tspan row" x="0" y="-0.1em" dy="1.1em" text-anchor="middle"></tspan></text></g></g><g><rect class="background" style="stroke: none"></rect></g><g class="edgeLabel"><g class="label" data-id="L_hub_progressive_0" transform="translate(0, 0)"><text y="-10.1" text-anchor="middle"><tspan class="text-outer-tspan row" x="0" y="-0.1em" dy="1.1em" text-anchor="middle"></tspan></text></g></g><g><rect class="background" style="stroke: none"></rect></g><g class="edgeLabel"><g class="label" data-id="L_hub_config_0" transform="translate(0, 0)"><text y="-10.1" text-anchor="middle"><tspan class="text-outer-tspan row" x="0" y="-0.1em" dy="1.1em" text-anchor="middle"></tspan></text></g></g><g><rect class="background" style="stroke: none"></rect></g><g class="edgeLabel"><g class="label" data-id="L_hub_parity_0" transform="translate(0, 0)"><text y="-10.1" text-anchor="middle"><tspan class="text-outer-tspan row" x="0" y="-0.1em" dy="1.1em" text-anchor="middle"></tspan></text></g></g><g><rect class="background" style="stroke: none"></rect></g></g><g class="nodes"><g class="node default hub" id="gf8a3af2c-a55a-44cc-9ac4-7a6c0062446b-dark-flowchart-hub-0" data-look="classic" transform="translate(105.3664321899414, 470.2999954223633)"><g class="basic label-container outer-path"><path d="M-71.57968807220459 -25.799999237060547 C-33.59095602526211 -25.799999237060547, 4.397776021680372 -25.799999237060547, 71.57968807220459 -25.799999237060547 C71.57968807220459 -25.799999237060547, 71.57968807220459 -25.799999237060547, 71.57968807220459 -25.799999237060547 C72.12055255587714 -25.78265476579802, 72.66141703954968 -25.765310294535496, 73.23269969882529 -25.746990371586765 C73.74458649180897 -25.69760926830157, 74.25647328479265 -25.648228165016373, 74.87891874610231 -25.58818159996402 C75.4892290059191 -25.489511370183596, 76.0995392657359 -25.390841140403168, 76.51158054685753 -25.32422550149928 C77.05710099545836 -25.199714018959757, 77.60262144405917 -25.075202536420232, 78.12397614354678 -24.956206728419545 C78.72999124843379 -24.77634462632728, 79.33600635332081 -24.596482524235014, 79.70947985680552 -24.48563754880318 C80.30945970157933 -24.264839419773526, 80.90943954635316 -24.044041290743873, 81.26157651178644 -23.914451632345997 C81.79519502917528 -23.67823454392887, 82.32881354656409 -23.44201745551174, 82.77388821041056 -23.24499610449772 C83.29250403000252 -22.974434563605886, 83.81111984959446 -22.70387302271405, 84.2402005395184 -22.480021901620034 C84.53926615720945 -22.298726566671068, 84.83833177490051 -22.117431231722097, 85.65448810722664 -21.62267246679901 C86.14149213347629 -21.282959540151765, 86.62849615972596 -20.94324661350452, 87.01093930255584 -20.67647083276321 C87.29490010892843 -20.45001964619548, 87.57886091530102 -20.22356845962775, 88.3039801765865 -19.64530514498651 C88.60404838677475 -19.372791135863324, 88.904116596963 -19.100277126740142, 89.52829734701088 -18.533412684464313 C89.92764703473289 -18.121051344672217, 90.3269967224549 -17.70869000488012, 90.67885983196044 -17.345362455817106 C90.99603999677969 -16.972784586157758, 91.31322016159893 -16.600206716498406, 91.75093972338968 -16.086036412270357 C92.11570066306784 -15.597289983506839, 92.48046160274599 -15.10854355474332, 92.74013161506427 -14.76060939466161 C92.93147789307196 -14.466650127971768, 93.12282417107964 -14.172690861281923, 93.64237070532036 -13.374527866909407 C93.88095986098101 -12.950888661262129, 94.11954901664166 -12.52724945561485, 94.4539495002064 -11.93348753532484 C94.72757341990446 -11.365301611457832, 95.00119733960253 -10.797115687590825, 95.17153304837109 -10.443409943732584 C95.32270944689276 -10.070001316587229, 95.47388584541443 -9.696592689441875, 95.79217264509381 -8.910418140577123 C95.97382944040139 -8.363296816190477, 96.15548623570898 -7.816175491803829, 96.3133179491449 -7.340811518003323 C96.4070247232379 -6.983466975613952, 96.50073149733089 -6.626122433224581, 96.73282746268467 -5.741039926302914 C96.83396935391121 -5.2216976912008555, 96.93511124513778 -4.702355456098797, 97.04897733113748 -4.117677170096137 C97.12081174125709 -3.5605436705172377, 97.19264615137668 -3.0034101709383387, 97.26046842687991 -2.4773939951584394 C97.30248483440015 -1.822954532996936, 97.3445012419204 -1.1685150708354326, 97.36643168763487 -0.8269306768952902 C97.36643168763487 -0.16851710850150292, 97.36643168763487 0.48989645989228436, 97.36643168763487 0.826930676895284 C97.32679436676642 1.444313944090856, 97.28715704589798 2.061697211286428, 97.26046842687991 2.4773939951584216 C97.21068104482502 2.8635350987455404, 97.16089366277014 3.249676202332659, 97.04897733113748 4.117677170096119 C96.98217660831473 4.460684763453169, 96.91537588549198 4.8036923568102186, 96.73282746268467 5.741039926302909 C96.64647793020717 6.070328117763705, 96.56012839772967 6.399616309224502, 96.3133179491449 7.340811518003306 C96.13974665015309 7.863580615735756, 95.96617535116128 8.386349713468206, 95.79217264509383 8.910418140577105 C95.65579068871531 9.247284209597797, 95.51940873233679 9.584150278618488, 95.17153304837109 10.443409943732577 C95.00363891393135 10.792045706255692, 94.8357447794916 11.140681468778808, 94.4539495002064 11.933487535324835 C94.23116359945209 12.329066461632857, 94.00837769869776 12.72464538794088, 93.64237070532037 13.374527866909402 C93.4366669559701 13.690544065102353, 93.2309632066198 14.006560263295304, 92.74013161506429 14.760609394661596 C92.48356722610892 15.104382302365119, 92.22700283715355 15.448155210068641, 91.75093972338968 16.086036412270353 C91.36116634612412 16.543886399939932, 90.97139296885858 17.001736387609512, 90.67885983196045 17.345362455817092 C90.35675829080145 17.677958742092102, 90.03465674964245 18.010555028367108, 89.52829734701088 18.533412684464306 C89.22638673925402 18.80759991031213, 88.92447613149717 19.08178713615996, 88.30398017658653 19.64530514498649 C88.03103327857065 19.86297303273216, 87.75808638055476 20.080640920477833, 87.01093930255584 20.676470832763208 C86.6503811550025 20.927980588185775, 86.28982300744916 21.17949034360834, 85.65448810722665 21.622672466799003 C85.28743348827521 21.845183133859738, 84.92037886932378 22.06769380092047, 84.24020053951841 22.48002190162003 C83.90330958213023 22.655777698300486, 83.56641862474206 22.831533494980945, 82.77388821041058 23.244996104497716 C82.21268587424706 23.49342373124149, 81.65148353808354 23.741851357985258, 81.26157651178644 23.914451632345994 C80.82952180620543 24.07345175786972, 80.39746710062444 24.23245188339345, 79.70947985680553 24.485637548803172 C79.15042669806695 24.651561591786873, 78.59137353932836 24.817485634770573, 78.12397614354681 24.95620672841954 C77.72673523475633 25.046874373611782, 77.32949432596584 25.137542018804023, 76.51158054685754 25.324225501499278 C76.06638657218511 25.39620101079348, 75.62119259751269 25.46817652008768, 74.87891874610233 25.588181599964017 C74.29898231196329 25.644127370289805, 73.71904587782424 25.700073140615594, 73.23269969882529 25.746990371586765 C72.7910277100923 25.761153932603058, 72.3493557213593 25.77531749361935, 71.57968807220459 25.799999237060547 C71.57968807220459 25.799999237060547, 71.57968807220459 25.799999237060547, 71.57968807220459 25.799999237060547 C40.58927679625917 25.799999237060547, 9.598865520313758 25.799999237060547, -71.57968807220459 25.799999237060547 C-72.15615530898239 25.781513054802492, -72.73262254576018 25.763026872544433, -73.23269969882527 25.746990371586765 C-73.70629167501107 25.701303523221803, -74.17988365119686 25.655616674856844, -74.87891874610231 25.588181599964017 C-75.48646870616912 25.489957634040724, -76.09401866623593 25.391733668117432, -76.51158054685753 25.324225501499278 C-76.87802279029805 25.240587450693095, -77.24446503373856 25.15694939988691, -78.12397614354678 24.956206728419545 C-78.47039209235464 24.853392293187795, -78.8168080411625 24.750577857956046, -79.7094798568055 24.485637548803183 C-80.31433540825455 24.263045114646506, -80.9191909597036 24.04045268048983, -81.26157651178644 23.914451632345997 C-81.74618613973385 23.699929325487535, -82.23079576768124 23.485407018629076, -82.77388821041056 23.244996104497723 C-83.13133217333122 23.058517817995803, -83.48877613625187 22.872039531493883, -84.2402005395184 22.480021901620038 C-84.62907269986634 22.244285312750637, -85.01794486021429 22.008548723881237, -85.65448810722663 21.622672466799017 C-86.10170433411808 21.310713786597976, -86.54892056100954 20.998755106396935, -87.01093930255584 20.67647083276321 C-87.43619124384193 20.337343726016975, -87.86144318512801 19.99821661927074, -88.3039801765865 19.645305144986512 C-88.60003635246855 19.376434759267607, -88.8960925283506 19.107564373548705, -89.52829734701086 18.533412684464324 C-89.8908132207346 18.159085281737813, -90.25332909445834 17.784757879011302, -90.67885983196044 17.3453624558171 C-91.05033064472647 16.909011701854077, -91.4218014574925 16.472660947891054, -91.75093972338968 16.08603641227036 C-91.94881882855901 15.820896438500784, -92.14669793372835 15.555756464731207, -92.74013161506427 14.760609394661614 C-92.96100060339501 14.421295316957817, -93.18186959172576 14.08198123925402, -93.64237070532036 13.374527866909418 C-93.8064943469322 13.083109721906741, -93.97061798854403 12.791691576904064, -94.45394950020639 11.933487535324842 C-94.60589877250567 11.617961620201813, -94.75784804480493 11.302435705078784, -95.17153304837109 10.443409943732586 C-95.33186729434907 10.0473812563152, -95.49220154032706 9.651352568897812, -95.79217264509381 8.910418140577127 C-95.99601506544836 8.29647724834833, -96.19985748580291 7.682536356119531, -96.3133179491449 7.340811518003316 C-96.43458003424934 6.878386632179983, -96.55584211935377 6.41596174635665, -96.73282746268467 5.741039926302918 C-96.81985601415833 5.294166707976518, -96.906884565632 4.847293489650119, -97.04897733113748 4.117677170096139 C-97.10170751702947 3.7087122610708554, -97.15443770292146 3.2997473520455713, -97.26046842687991 2.477393995158454 C-97.28727670962587 2.0598333521337215, -97.31408499237183 1.642272709108989, -97.36643168763487 0.8269306768952934 C-97.36643168763487 0.1769871193736089, -97.36643168763487 -0.47295643814807564, -97.36643168763487 -0.8269306768952809 C-97.33645754893405 -1.293802081849883, -97.30648341023323 -1.760673486804485, -97.26046842687991 -2.4773939951584185 C-97.18098621996073 -3.09384229648654, -97.10150401304155 -3.7102905978146623, -97.04897733113748 -4.117677170096128 C-96.93336526971319 -4.711320670891958, -96.81775320828892 -5.3049641716877876, -96.73282746268467 -5.741039926302906 C-96.57687444031278 -6.3357563910743435, -96.4209214179409 -6.93047285584578, -96.3133179491449 -7.340811518003303 C-96.19313613117762 -7.702780005348474, -96.07295431321033 -8.064748492693646, -95.79217264509383 -8.910418140577093 C-95.61087915341857 -9.358216570086203, -95.4295856617433 -9.806014999595313, -95.17153304837109 -10.443409943732574 C-94.90244190067338 -11.002183469555083, -94.63335075297566 -11.560956995377593, -94.4539495002064 -11.933487535324831 C-94.22679872610588 -12.336816736250391, -93.99964795200535 -12.740145937175953, -93.64237070532036 -13.374527866909409 C-93.28475352935388 -13.923923882851652, -92.92713635338741 -14.473319898793894, -92.74013161506429 -14.760609394661605 C-92.42001086981976 -15.189542029689417, -92.09989012457524 -15.618474664717228, -91.75093972338968 -16.086036412270353 C-91.3816437238787 -16.51983250683361, -91.01234772436773 -16.953628601396865, -90.67885983196045 -17.345362455817092 C-90.23410555467738 -17.804607762117108, -89.78935127739433 -18.26385306841712, -89.52829734701089 -18.5334126844643 C-89.23301371857448 -18.801581463033568, -88.93773009013806 -19.06975024160284, -88.30398017658653 -19.645305144986487 C-87.97061159407035 -19.91115771823259, -87.63724301155418 -20.177010291478695, -87.01093930255585 -20.676470832763204 C-86.4776922636063 -21.048440883242144, -85.94444522465675 -21.42041093372108, -85.65448810722665 -21.622672466799 C-85.13658977373908 -21.9366254800676, -84.6186914402515 -22.250578493336207, -84.24020053951841 -22.480021901620027 C-83.91336140501417 -22.650533668740437, -83.58652227050992 -22.821045435860842, -82.77388821041058 -23.244996104497716 C-82.22648809104118 -23.487313899294946, -81.67908797167178 -23.72963169409218, -81.26157651178646 -23.91445163234599 C-80.73096995839148 -24.109719748868553, -80.20036340499651 -24.304987865391116, -79.70947985680553 -24.485637548803172 C-79.3213332830439 -24.600837414472686, -78.93318670928225 -24.716037280142196, -78.12397614354681 -24.956206728419538 C-77.64792099580737 -25.064863209340906, -77.17186584806791 -25.173519690262275, -76.51158054685754 -25.324225501499278 C-76.15964710857543 -25.381123370516153, -75.80771367029331 -25.438021239533033, -74.87891874610233 -25.588181599964017 C-74.3652983214271 -25.6377299446135, -73.85167789675188 -25.687278289262984, -73.23269969882529 -25.746990371586765 C-72.73638899529308 -25.762906089838864, -72.24007829176088 -25.77882180809096, -71.5796880722046 -25.799999237060547 C-71.5796880722046 -25.799999237060547, -71.57968807220459 -25.799999237060547, -71.57968807220459 -25.799999237060547" stroke="none" stroke-width="0" fill="#2E5A88" style="fill:#2E5A88 !important;stroke:#1F4870 !important"></path><path d="M-71.57968807220459 -25.799999237060547 C-25.624134788796916 -25.799999237060547, 20.33141849461076 -25.799999237060547, 71.57968807220459 -25.799999237060547 M-71.57968807220459 -25.799999237060547 C-32.98271741050173 -25.799999237060547, 5.614253251201134 -25.799999237060547, 71.57968807220459 -25.799999237060547 M71.57968807220459 -25.799999237060547 C71.57968807220459 -25.799999237060547, 71.57968807220459 -25.799999237060547, 71.57968807220459 -25.799999237060547 M71.57968807220459 -25.799999237060547 C71.57968807220459 -25.799999237060547, 71.57968807220459 -25.799999237060547, 71.57968807220459 -25.799999237060547 M71.57968807220459 -25.799999237060547 C71.95231209753238 -25.78804990983695, 72.32493612286018 -25.776100582613353, 73.23269969882529 -25.746990371586765 M71.57968807220459 -25.799999237060547 C72.05890438201067 -25.784631702743027, 72.53812069181674 -25.769264168425508, 73.23269969882529 -25.746990371586765 M73.23269969882529 -25.746990371586765 C73.59800514482588 -25.711749794555164, 73.96331059082648 -25.676509217523567, 74.87891874610231 -25.58818159996402 M73.23269969882529 -25.746990371586765 C73.81568703491217 -25.690750284419316, 74.39867437099906 -25.634510197251867, 74.87891874610231 -25.58818159996402 M74.87891874610231 -25.58818159996402 C75.3186891704659 -25.51708292822349, 75.75845959482949 -25.445984256482966, 76.51158054685753 -25.32422550149928 M74.87891874610231 -25.58818159996402 C75.22574301035212 -25.532109742582453, 75.57256727460191 -25.476037885200885, 76.51158054685753 -25.32422550149928 M76.51158054685753 -25.32422550149928 C77.03528575596123 -25.204693205017236, 77.55899096506491 -25.085160908535187, 78.12397614354678 -24.956206728419545 M76.51158054685753 -25.32422550149928 C76.96270950261905 -25.221258261238273, 77.41383845838057 -25.11829102097726, 78.12397614354678 -24.956206728419545 M78.12397614354678 -24.956206728419545 C78.6580292067062 -24.797702582575564, 79.19208226986562 -24.639198436731583, 79.70947985680552 -24.48563754880318 M78.12397614354678 -24.956206728419545 C78.50576840823439 -24.842892788328758, 78.88756067292199 -24.72957884823797, 79.70947985680552 -24.48563754880318 M79.70947985680552 -24.48563754880318 C80.32009512858374 -24.260925484323096, 80.93071040036197 -24.03621341984301, 81.26157651178644 -23.914451632345997 M79.70947985680552 -24.48563754880318 C80.14536200380299 -24.32522888945771, 80.58124415080047 -24.16482023011224, 81.26157651178644 -23.914451632345997 M81.26157651178644 -23.914451632345997 C81.64812612088372 -23.74333758698538, 82.03467572998099 -23.57222354162476, 82.77388821041056 -23.24499610449772 M81.26157651178644 -23.914451632345997 C81.77022172826435 -23.689289483435484, 82.27886694474223 -23.464127334524974, 82.77388821041056 -23.24499610449772 M82.77388821041056 -23.24499610449772 C83.09185461160095 -23.079113236663897, 83.40982101279133 -22.913230368830074, 84.2402005395184 -22.480021901620034 M82.77388821041056 -23.24499610449772 C83.1725166960655 -23.03703187886527, 83.57114518172044 -22.82906765323282, 84.2402005395184 -22.480021901620034 M84.2402005395184 -22.480021901620034 C84.80354046327018 -22.138521929288842, 85.36688038702198 -21.79702195695765, 85.65448810722664 -21.62267246679901 M84.2402005395184 -22.480021901620034 C84.71459393999629 -22.192441834405273, 85.18898734047417 -21.904861767190507, 85.65448810722664 -21.62267246679901 M85.65448810722664 -21.62267246679901 C86.04047391015425 -21.353425479732824, 86.42645971308184 -21.084178492666634, 87.01093930255584 -20.67647083276321 M85.65448810722664 -21.62267246679901 C86.1933844474861 -21.246761708280594, 86.73228078774555 -20.87085094976218, 87.01093930255584 -20.67647083276321 M87.01093930255584 -20.67647083276321 C87.46843343622653 -20.311631435591025, 87.92592756989723 -19.946792038418838, 88.3039801765865 -19.64530514498651 M87.01093930255584 -20.67647083276321 C87.49576668485253 -20.28983389718009, 87.98059406714921 -19.90319696159697, 88.3039801765865 -19.64530514498651 M88.3039801765865 -19.64530514498651 C88.79254315668892 -19.201605173125596, 89.28110613679132 -18.75790520126468, 89.52829734701088 -18.533412684464313 M88.3039801765865 -19.64530514498651 C88.55404158445114 -19.418205990626145, 88.80410299231576 -19.191106836265785, 89.52829734701088 -18.533412684464313 M89.52829734701088 -18.533412684464313 C89.86339079509179 -18.187401187637033, 90.1984842431727 -17.841389690809752, 90.67885983196044 -17.345362455817106 M89.52829734701088 -18.533412684464313 C89.82577469786938 -18.226242896358197, 90.12325204872786 -17.919073108252086, 90.67885983196044 -17.345362455817106 M90.67885983196044 -17.345362455817106 C91.06471934141811 -16.89210991998005, 91.45057885087579 -16.43885738414299, 91.75093972338968 -16.086036412270357 M90.67885983196044 -17.345362455817106 C91.02129925774996 -16.943113620929417, 91.36373868353947 -16.540864786041727, 91.75093972338968 -16.086036412270357 M91.75093972338968 -16.086036412270357 C91.95273502554802 -15.815649091308389, 92.15453032770637 -15.545261770346421, 92.74013161506427 -14.76060939466161 M91.75093972338968 -16.086036412270357 C92.1030805206224 -15.614199824665105, 92.4552213178551 -15.142363237059856, 92.74013161506427 -14.76060939466161 M92.74013161506427 -14.76060939466161 C92.96908970050991 -14.408868291562623, 93.19804778595554 -14.057127188463635, 93.64237070532036 -13.374527866909407 M92.74013161506427 -14.76060939466161 C92.96032715846819 -14.422329909210692, 93.1805227018721 -14.084050423759775, 93.64237070532036 -13.374527866909407 M93.64237070532036 -13.374527866909407 C93.93725660284268 -12.850928095423455, 94.232142500365 -12.327328323937502, 94.4539495002064 -11.93348753532484 M93.64237070532036 -13.374527866909407 C93.9461348873471 -12.835163802262059, 94.24989906937385 -12.29579973761471, 94.4539495002064 -11.93348753532484 M94.4539495002064 -11.93348753532484 C94.70944905523372 -11.402937242495925, 94.96494861026102 -10.87238694966701, 95.17153304837109 -10.443409943732584 M94.4539495002064 -11.93348753532484 C94.65846508812925 -11.508806541070486, 94.86298067605209 -11.084125546816132, 95.17153304837109 -10.443409943732584 M95.17153304837109 -10.443409943732584 C95.3898263007542 -9.904221389933385, 95.6081195531373 -9.365032836134183, 95.79217264509381 -8.910418140577123 M95.17153304837109 -10.443409943732584 C95.31372085695615 -10.092203307513211, 95.45590866554122 -9.740996671293837, 95.79217264509381 -8.910418140577123 M95.79217264509381 -8.910418140577123 C95.94606150371347 -8.446929417274633, 96.09995036233312 -7.983440693972143, 96.3133179491449 -7.340811518003323 M95.79217264509381 -8.910418140577123 C95.89788953107922 -8.59201572368747, 96.0036064170646 -8.273613306797818, 96.3133179491449 -7.340811518003323 M96.3133179491449 -7.340811518003323 C96.39911820531951 -7.013617955143317, 96.4849184614941 -6.686424392283311, 96.73282746268467 -5.741039926302914 M96.3133179491449 -7.340811518003323 C96.43032356018725 -6.894618412546278, 96.54732917122958 -6.448425307089234, 96.73282746268467 -5.741039926302914 M96.73282746268467 -5.741039926302914 C96.85546343775644 -5.111330113431887, 96.97809941282821 -4.48162030056086, 97.04897733113748 -4.117677170096137 M96.73282746268467 -5.741039926302914 C96.85517522510844 -5.1128100244656265, 96.97752298753221 -4.48458012262834, 97.04897733113748 -4.117677170096137 M97.04897733113748 -4.117677170096137 C97.10907120690959 -3.6516009364856603, 97.1691650826817 -3.185524702875184, 97.26046842687991 -2.4773939951584394 M97.04897733113748 -4.117677170096137 C97.10582077611794 -3.6768106358355, 97.16266422109841 -3.2359441015748636, 97.26046842687991 -2.4773939951584394 M97.26046842687991 -2.4773939951584394 C97.283195042865 -2.1234086065962647, 97.30592165885011 -1.7694232180340896, 97.36643168763487 -0.8269306768952902 M97.26046842687991 -2.4773939951584394 C97.29629415399886 -1.9193793772744512, 97.33211988111779 -1.361364759390463, 97.36643168763487 -0.8269306768952902 M97.36643168763487 -0.8269306768952902 C97.36643168763487 -0.3312932694513059, 97.36643168763487 0.16434413799267844, 97.36643168763487 0.826930676895284 M97.36643168763487 -0.8269306768952902 C97.36643168763487 -0.29859547963357047, 97.36643168763487 0.22973971762814926, 97.36643168763487 0.826930676895284 M97.36643168763487 0.826930676895284 C97.3449643971592 1.1613010541387452, 97.32349710668355 1.4956714313822064, 97.26046842687991 2.4773939951584216 M97.36643168763487 0.826930676895284 C97.34156102899402 1.2143112604608515, 97.31669037035317 1.6016918440264192, 97.26046842687991 2.4773939951584216 M97.26046842687991 2.4773939951584216 C97.17648549213168 3.1287490527594244, 97.09250255738345 3.780104110360427, 97.04897733113748 4.117677170096119 M97.26046842687991 2.4773939951584216 C97.20480632400695 2.909098273315589, 97.14914422113401 3.340802551472757, 97.04897733113748 4.117677170096119 M97.04897733113748 4.117677170096119 C96.9779022192946 4.482632847679072, 96.90682710745173 4.847588525262026, 96.73282746268467 5.741039926302909 M97.04897733113748 4.117677170096119 C96.9703538936835 4.521391904352946, 96.89173045622951 4.925106638609772, 96.73282746268467 5.741039926302909 M96.73282746268467 5.741039926302909 C96.60551716619548 6.226529263447674, 96.47820686970631 6.7120186005924385, 96.3133179491449 7.340811518003306 M96.73282746268467 5.741039926302909 C96.58870616270144 6.290636905705473, 96.44458486271822 6.840233885108038, 96.3133179491449 7.340811518003306 M96.3133179491449 7.340811518003306 C96.19015379621652 7.711762323080778, 96.06698964328812 8.08271312815825, 95.79217264509383 8.910418140577105 M96.3133179491449 7.340811518003306 C96.16006178292668 7.802394672598567, 96.00680561670845 8.263977827193827, 95.79217264509383 8.910418140577105 M95.79217264509383 8.910418140577105 C95.62581689160685 9.321320067959661, 95.45946113811985 9.732221995342215, 95.17153304837109 10.443409943732577 M95.79217264509383 8.910418140577105 C95.55008431051081 9.508381007456697, 95.3079959759278 10.10634387433629, 95.17153304837109 10.443409943732577 M95.17153304837109 10.443409943732577 C94.97490885561977 10.851704287064432, 94.77828466286847 11.259998630396288, 94.4539495002064 11.933487535324835 M95.17153304837109 10.443409943732577 C94.89794509563812 11.011521181427005, 94.62435714290515 11.579632419121433, 94.4539495002064 11.933487535324835 M94.4539495002064 11.933487535324835 C94.2148301477091 12.35806815914388, 93.97571079521177 12.782648782962925, 93.64237070532037 13.374527866909402 M94.4539495002064 11.933487535324835 C94.20635356387257 12.373119192092814, 93.95875762753873 12.812750848860794, 93.64237070532037 13.374527866909402 M93.64237070532037 13.374527866909402 C93.33021304051998 13.854085866112555, 93.0180553757196 14.33364386531571, 92.74013161506429 14.760609394661596 M93.64237070532037 13.374527866909402 C93.42133477759985 13.714098408345407, 93.20029884987932 14.053668949781413, 92.74013161506429 14.760609394661596 M92.74013161506429 14.760609394661596 C92.37177009800938 15.254180269090602, 92.00340858095448 15.747751143519608, 91.75093972338968 16.086036412270353 M92.74013161506429 14.760609394661596 C92.42649379219482 15.18085550431321, 92.11285596932537 15.601101613964822, 91.75093972338968 16.086036412270353 M91.75093972338968 16.086036412270353 C91.4773573667612 16.407401815643265, 91.20377501013272 16.728767219016177, 90.67885983196045 17.345362455817092 M91.75093972338968 16.086036412270353 C91.37151884687376 16.531725763485433, 90.99209797035785 16.977415114700513, 90.67885983196045 17.345362455817092 M90.67885983196045 17.345362455817092 C90.37365146651193 17.660515151215513, 90.06844310106341 17.97566784661393, 89.52829734701088 18.533412684464306 M90.67885983196045 17.345362455817092 C90.41711880827373 17.61563155211133, 90.15537778458699 17.885900648405574, 89.52829734701088 18.533412684464306 M89.52829734701088 18.533412684464306 C89.26326134386026 18.774111370057327, 88.99822534070964 19.014810055650347, 88.30398017658653 19.64530514498649 M89.52829734701088 18.533412684464306 C89.17378772559826 18.855368942820665, 88.81927810418564 19.177325201177023, 88.30398017658653 19.64530514498649 M88.30398017658653 19.64530514498649 C88.00139172132114 19.886611385843672, 87.69880326605575 20.127917626700853, 87.01093930255584 20.676470832763208 M88.30398017658653 19.64530514498649 C87.81641548012 20.03412501577707, 87.32885078365348 20.422944886567652, 87.01093930255584 20.676470832763208 M87.01093930255584 20.676470832763208 C86.7023733784999 20.891713063781065, 86.39380745444397 21.106955294798922, 85.65448810722665 21.622672466799003 M87.01093930255584 20.676470832763208 C86.49791287208629 21.03433586210253, 85.98488644161675 21.39220089144185, 85.65448810722665 21.622672466799003 M85.65448810722665 21.622672466799003 C85.24793659396062 21.869126383302763, 84.84138508069456 22.115580299806524, 84.24020053951841 22.48002190162003 M85.65448810722665 21.622672466799003 C85.3609103867464 21.80064100620832, 85.06733266626614 21.97860954561764, 84.24020053951841 22.48002190162003 M84.24020053951841 22.48002190162003 C83.86858853442918 22.67389164664623, 83.49697652933996 22.86776139167243, 82.77388821041058 23.244996104497716 M84.24020053951841 22.48002190162003 C83.79021260920065 22.714780316635782, 83.34022467888289 22.949538731651533, 82.77388821041058 23.244996104497716 M82.77388821041058 23.244996104497716 C82.39932166359735 23.4108056036501, 82.0247551167841 23.576615102802485, 81.26157651178644 23.914451632345994 M82.77388821041058 23.244996104497716 C82.22014317300108 23.49012260629599, 81.66639813559158 23.73524910809427, 81.26157651178644 23.914451632345994 M81.26157651178644 23.914451632345994 C80.72726104874799 24.11108466190214, 80.19294558570954 24.307717691458286, 79.70947985680553 24.485637548803172 M81.26157651178644 23.914451632345994 C80.90356717480395 24.046202377757584, 80.54555783782146 24.177953123169175, 79.70947985680553 24.485637548803172 M79.70947985680553 24.485637548803172 C79.08633443143945 24.67058384009474, 78.46318900607339 24.855530131386303, 78.12397614354681 24.95620672841954 M79.70947985680553 24.485637548803172 C79.3625363812755 24.58860855119702, 79.01559290574548 24.691579553590863, 78.12397614354681 24.95620672841954 M78.12397614354681 24.95620672841954 C77.57037618587403 25.082562306181018, 77.01677622820122 25.208917883942497, 76.51158054685754 25.324225501499278 M78.12397614354681 24.95620672841954 C77.6187565057362 25.07151981388357, 77.11353686792557 25.1868328993476, 76.51158054685754 25.324225501499278 M76.51158054685754 25.324225501499278 C76.18404659421495 25.377178650898795, 75.85651264157235 25.430131800298312, 74.87891874610233 25.588181599964017 M76.51158054685754 25.324225501499278 C76.09306532700266 25.39188779661141, 75.6745501071478 25.459550091723543, 74.87891874610233 25.588181599964017 M74.87891874610233 25.588181599964017 C74.23145194461641 25.65064194361061, 73.58398514313049 25.7131022872572, 73.23269969882529 25.746990371586765 M74.87891874610233 25.588181599964017 C74.42321290989172 25.6321429939168, 73.9675070736811 25.676104387869586, 73.23269969882529 25.746990371586765 M73.23269969882529 25.746990371586765 C72.61467921431458 25.766809085621126, 71.99665872980385 25.786627799655488, 71.57968807220459 25.799999237060547 M73.23269969882529 25.746990371586765 C72.84801831719473 25.75932635475877, 72.46333693556416 25.771662337930778, 71.57968807220459 25.799999237060547 M71.57968807220459 25.799999237060547 C71.57968807220459 25.799999237060547, 71.57968807220459 25.799999237060547, 71.57968807220459 25.799999237060547 M71.57968807220459 25.799999237060547 C71.57968807220459 25.799999237060547, 71.57968807220459 25.799999237060547, 71.57968807220459 25.799999237060547 M71.57968807220459 25.799999237060547 C33.104872410804646 25.799999237060547, -5.369943250595298 25.799999237060547, -71.57968807220459 25.799999237060547 M71.57968807220459 25.799999237060547 C24.678967412397327 25.799999237060547, -22.221753247409936 25.799999237060547, -71.57968807220459 25.799999237060547 M-71.57968807220459 25.799999237060547 C-72.02001500067414 25.7858788095089, -72.46034192914368 25.771758381957255, -73.23269969882527 25.746990371586765 M-71.57968807220459 25.799999237060547 C-72.04082686706248 25.785211413461667, -72.50196566192037 25.770423589862787, -73.23269969882527 25.746990371586765 M-73.23269969882527 25.746990371586765 C-73.82214253758949 25.690127529839913, -74.41158537635368 25.63326468809306, -74.87891874610231 25.588181599964017 M-73.23269969882527 25.746990371586765 C-73.78443830599149 25.6937648117162, -74.33617691315769 25.64053925184563, -74.87891874610231 25.588181599964017 M-74.87891874610231 25.588181599964017 C-75.24518724384302 25.528966149703923, -75.61145574158373 25.469750699443825, -76.51158054685753 25.324225501499278 M-74.87891874610231 25.588181599964017 C-75.26877720806581 25.525152307231288, -75.6586356700293 25.462123014498555, -76.51158054685753 25.324225501499278 M-76.51158054685753 25.324225501499278 C-76.83792606273414 25.249739267103955, -77.16427157861077 25.17525303270863, -78.12397614354678 24.956206728419545 M-76.51158054685753 25.324225501499278 C-76.83728825891788 25.249884841662958, -77.16299597097823 25.175544181826638, -78.12397614354678 24.956206728419545 M-78.12397614354678 24.956206728419545 C-78.5576686329476 24.827489074063717, -78.99136112234841 24.69877141970789, -79.7094798568055 24.485637548803183 M-78.12397614354678 24.956206728419545 C-78.69363002552669 24.787136446422153, -79.2632839075066 24.618066164424764, -79.7094798568055 24.485637548803183 M-79.7094798568055 24.485637548803183 C-80.19729921402117 24.30611551599511, -80.68511857123684 24.126593483187037, -81.26157651178644 23.914451632345997 M-79.7094798568055 24.485637548803183 C-80.23214095200099 24.293293434345042, -80.75480204719648 24.1009493198869, -81.26157651178644 23.914451632345997 M-81.26157651178644 23.914451632345997 C-81.76003212961959 23.693800116491815, -82.25848774745273 23.473148600637632, -82.77388821041056 23.244996104497723 M-81.26157651178644 23.914451632345997 C-81.69022723972641 23.724700670559034, -82.11887796766638 23.534949708772075, -82.77388821041056 23.244996104497723 M-82.77388821041056 23.244996104497723 C-83.17892101405221 23.03369075027377, -83.58395381769385 22.822385396049818, -84.2402005395184 22.480021901620038 M-82.77388821041056 23.244996104497723 C-83.11219241964844 23.06850301523251, -83.45049662888631 22.892009925967297, -84.2402005395184 22.480021901620038 M-84.2402005395184 22.480021901620038 C-84.67067069903659 22.21906836119665, -85.1011408585548 21.958114820773265, -85.65448810722663 21.622672466799017 M-84.2402005395184 22.480021901620038 C-84.58175386815013 22.272970266613328, -84.92330719678186 22.065918631606618, -85.65448810722663 21.622672466799017 M-85.65448810722663 21.622672466799017 C-86.01146385038753 21.373661641600833, -86.36843959354843 21.124650816402646, -87.01093930255584 20.67647083276321 M-85.65448810722663 21.622672466799017 C-86.0003031536582 21.381446860500443, -86.34611820008976 21.140221254201865, -87.01093930255584 20.67647083276321 M-87.01093930255584 20.67647083276321 C-87.41251522785016 20.356224718725155, -87.8140911531445 20.035978604687102, -88.3039801765865 19.645305144986512 M-87.01093930255584 20.67647083276321 C-87.35908564978722 20.398833385409578, -87.70723199701858 20.121195938055948, -88.3039801765865 19.645305144986512 M-88.3039801765865 19.645305144986512 C-88.66156099139604 19.3205597100464, -89.01914180620558 18.995814275106287, -89.52829734701086 18.533412684464324 M-88.3039801765865 19.645305144986512 C-88.67584175172263 19.307590301366005, -89.04770332685875 18.969875457745502, -89.52829734701086 18.533412684464324 M-89.52829734701086 18.533412684464324 C-89.90958490241285 18.1397019792213, -90.29087245781481 17.74599127397828, -90.67885983196044 17.3453624558171 M-89.52829734701086 18.533412684464324 C-89.80297296610597 18.249787556460902, -90.07764858520108 17.96616242845748, -90.67885983196044 17.3453624558171 M-90.67885983196044 17.3453624558171 C-91.06385488723666 16.89312535705041, -91.4488499425129 16.440888258283717, -91.75093972338968 16.08603641227036 M-90.67885983196044 17.3453624558171 C-90.97615572082377 16.99614178814293, -91.2734516096871 16.64692112046876, -91.75093972338968 16.08603641227036 M-91.75093972338968 16.08603641227036 C-92.09308165190109 15.627597397835979, -92.4352235804125 15.169158383401598, -92.74013161506427 14.760609394661614 M-91.75093972338968 16.08603641227036 C-92.04772789757092 15.688367296826382, -92.34451607175217 15.290698181382403, -92.74013161506427 14.760609394661614 M-92.74013161506427 14.760609394661614 C-92.94192943503224 14.450593752888798, -93.1437272550002 14.140578111115982, -93.64237070532036 13.374527866909418 M-92.74013161506427 14.760609394661614 C-92.99249459823972 14.372912083554612, -93.24485758141515 13.985214772447609, -93.64237070532036 13.374527866909418 M-93.64237070532036 13.374527866909418 C-93.83153728301525 13.038643453019018, -94.02070386071016 12.702759039128619, -94.45394950020639 11.933487535324842 M-93.64237070532036 13.374527866909418 C-93.85643182530606 12.994440672335934, -94.07049294529176 12.61435347776245, -94.45394950020639 11.933487535324842 M-94.45394950020639 11.933487535324842 C-94.70812837299319 11.405679667426437, -94.96230724577998 10.877871799528032, -95.17153304837109 10.443409943732586 M-94.45394950020639 11.933487535324842 C-94.61448358703804 11.600135069139748, -94.77501767386967 11.266782602954656, -95.17153304837109 10.443409943732586 M-95.17153304837109 10.443409943732586 C-95.34961289349278 10.00354928334242, -95.52769273861446 9.563688622952252, -95.79217264509381 8.910418140577127 M-95.17153304837109 10.443409943732586 C-95.2957816096987 10.136513595070879, -95.4200301710263 9.829617246409171, -95.79217264509381 8.910418140577127 M-95.79217264509381 8.910418140577127 C-95.97733484038406 8.352739109952353, -96.16249703567429 7.795060079327578, -96.3133179491449 7.340811518003316 M-95.79217264509381 8.910418140577127 C-95.94441040379277 8.45190226716873, -96.09664816249172 7.993386393760335, -96.3133179491449 7.340811518003316 M-96.3133179491449 7.340811518003316 C-96.46930581425559 6.7459621827678715, -96.62529367936628 6.151112847532426, -96.73282746268467 5.741039926302918 M-96.3133179491449 7.340811518003316 C-96.41907845616683 6.937500867834993, -96.52483896318877 6.534190217666671, -96.73282746268467 5.741039926302918 M-96.73282746268467 5.741039926302918 C-96.79933868560205 5.399518853774113, -96.86584990851944 5.057997781245309, -97.04897733113748 4.117677170096139 M-96.73282746268467 5.741039926302918 C-96.82878492277398 5.248318649360731, -96.92474238286327 4.755597372418544, -97.04897733113748 4.117677170096139 M-97.04897733113748 4.117677170096139 C-97.09678291886853 3.7469064719352034, -97.14458850659958 3.3761357737742674, -97.26046842687991 2.477393995158454 M-97.04897733113748 4.117677170096139 C-97.09828566051416 3.735251504481493, -97.14759398989086 3.3528258388668464, -97.26046842687991 2.477393995158454 M-97.26046842687991 2.477393995158454 C-97.28191668569615 2.1433200513726707, -97.30336494451238 1.8092461075868873, -97.36643168763487 0.8269306768952934 M-97.26046842687991 2.477393995158454 C-97.30081639506338 1.8489418224071226, -97.34116436324686 1.220489649655791, -97.36643168763487 0.8269306768952934 M-97.36643168763487 0.8269306768952934 C-97.36643168763487 0.29671066256638745, -97.36643168763487 -0.23350935176251852, -97.36643168763487 -0.8269306768952809 M-97.36643168763487 0.8269306768952934 C-97.36643168763487 0.45441182751560333, -97.36643168763487 0.08189297813591323, -97.36643168763487 -0.8269306768952809 M-97.36643168763487 -0.8269306768952809 C-97.33374351126938 -1.3360754092089966, -97.30105533490388 -1.8452201415227125, -97.26046842687991 -2.4773939951584185 M-97.36643168763487 -0.8269306768952809 C-97.34027287597935 -1.2343752834427075, -97.31411406432383 -1.6418198899901342, -97.26046842687991 -2.4773939951584185 M-97.26046842687991 -2.4773939951584185 C-97.19775399770883 -2.963794723444567, -97.13503956853774 -3.450195451730716, -97.04897733113748 -4.117677170096128 M-97.26046842687991 -2.4773939951584185 C-97.2126416788895 -2.8483288081124267, -97.16481493089908 -3.2192636210664354, -97.04897733113748 -4.117677170096128 M-97.04897733113748 -4.117677170096128 C-96.96055737202342 -4.571694972581885, -96.87213741290934 -5.0257127750676425, -96.73282746268467 -5.741039926302906 M-97.04897733113748 -4.117677170096128 C-96.92914773630315 -4.732976813576556, -96.80931814146882 -5.348276457056985, -96.73282746268467 -5.741039926302906 M-96.73282746268467 -5.741039926302906 C-96.64188355846508 -6.087848448429626, -96.55093965424548 -6.434656970556346, -96.3133179491449 -7.340811518003303 M-96.73282746268467 -5.741039926302906 C-96.64614069885253 -6.071614127075931, -96.5594539350204 -6.402188327848956, -96.3133179491449 -7.340811518003303 M-96.3133179491449 -7.340811518003303 C-96.19075343439583 -7.70995630842404, -96.06818891964676 -8.079101098844777, -95.79217264509383 -8.910418140577093 M-96.3133179491449 -7.340811518003303 C-96.10610493720598 -7.964904095053394, -95.89889192526707 -8.588996672103486, -95.79217264509383 -8.910418140577093 M-95.79217264509383 -8.910418140577093 C-95.5626476353614 -9.477349352180358, -95.33312262562899 -10.044280563783623, -95.17153304837109 -10.443409943732574 M-95.79217264509383 -8.910418140577093 C-95.57842785004773 -9.438371916815425, -95.36468305500165 -9.966325693053758, -95.17153304837109 -10.443409943732574 M-95.17153304837109 -10.443409943732574 C-94.96587017493353 -10.870473300906228, -94.76020730149595 -11.297536658079883, -94.4539495002064 -11.933487535324831 M-95.17153304837109 -10.443409943732574 C-94.93685472854364 -10.930724496165933, -94.70217640871617 -11.41803904859929, -94.4539495002064 -11.933487535324831 M-94.4539495002064 -11.933487535324831 C-94.2587444060115 -12.280093946727103, -94.06353931181658 -12.626700358129376, -93.64237070532036 -13.374527866909409 M-94.4539495002064 -11.933487535324831 C-94.17799634026642 -12.423470314085797, -93.90204318032642 -12.913453092846765, -93.64237070532036 -13.374527866909409 M-93.64237070532036 -13.374527866909409 C-93.34372713537914 -13.833324587366311, -93.0450835654379 -14.292121307823212, -92.74013161506429 -14.760609394661605 M-93.64237070532036 -13.374527866909409 C-93.39236170924973 -13.758608821689391, -93.1423527131791 -14.142689776469373, -92.74013161506429 -14.760609394661605 M-92.74013161506429 -14.760609394661605 C-92.53790209212433 -15.031578531912597, -92.33567256918437 -15.302547669163589, -91.75093972338968 -16.086036412270353 M-92.74013161506429 -14.760609394661605 C-92.4980045914847 -15.085037548032616, -92.25587756790512 -15.40946570140363, -91.75093972338968 -16.086036412270353 M-91.75093972338968 -16.086036412270353 C-91.5132210009704 -16.365274350202526, -91.27550227855114 -16.644512288134695, -90.67885983196045 -17.345362455817092 M-91.75093972338968 -16.086036412270353 C-91.4212576387306 -16.473299748352957, -91.09157555407153 -16.860563084435558, -90.67885983196045 -17.345362455817092 M-90.67885983196045 -17.345362455817092 C-90.29036466632652 -17.746515610380406, -89.9018695006926 -18.14766876494372, -89.52829734701089 -18.5334126844643 M-90.67885983196045 -17.345362455817092 C-90.29650358521523 -17.740176672613202, -89.91414733847002 -18.134990889409313, -89.52829734701089 -18.5334126844643 M-89.52829734701089 -18.5334126844643 C-89.05567621410798 -18.962634692496795, -88.58305508120506 -19.39185670052929, -88.30398017658653 -19.645305144986487 M-89.52829734701089 -18.5334126844643 C-89.15710401590002 -18.870520646541838, -88.78591068478914 -19.207628608619377, -88.30398017658653 -19.645305144986487 M-88.30398017658653 -19.645305144986487 C-87.89221598299 -19.973676131874356, -87.48045178939344 -20.302047118762225, -87.01093930255585 -20.676470832763204 M-88.30398017658653 -19.645305144986487 C-87.79193593869641 -20.05364679863444, -87.27989170080627 -20.46198845228239, -87.01093930255585 -20.676470832763204 M-87.01093930255585 -20.676470832763204 C-86.67489797469783 -20.910878716082337, -86.3388566468398 -21.14528659940147, -85.65448810722665 -21.622672466799 M-87.01093930255585 -20.676470832763204 C-86.71886716368688 -20.880207713239088, -86.4267950248179 -21.083944593714968, -85.65448810722665 -21.622672466799 M-85.65448810722665 -21.622672466799 C-85.10560494003089 -21.955408668348603, -84.55672177283512 -22.28814486989821, -84.24020053951841 -22.480021901620027 M-85.65448810722665 -21.622672466799 C-85.26531608135426 -21.85859083591153, -84.87614405548184 -22.094509205024064, -84.24020053951841 -22.480021901620027 M-84.24020053951841 -22.480021901620027 C-83.72610768081526 -22.748223816713267, -83.21201482211211 -23.01642573180651, -82.77388821041058 -23.244996104497716 M-84.24020053951841 -22.480021901620027 C-83.72687436755386 -22.747823836732824, -83.21354819558933 -23.015625771845624, -82.77388821041058 -23.244996104497716 M-82.77388821041058 -23.244996104497716 C-82.37755906159457 -23.420439261992076, -81.98122991277856 -23.59588241948644, -81.26157651178646 -23.91445163234599 M-82.77388821041058 -23.244996104497716 C-82.29902781711459 -23.455202714376767, -81.8241674238186 -23.66540932425582, -81.26157651178646 -23.91445163234599 M-81.26157651178646 -23.91445163234599 C-80.94644696150989 -24.030422219873397, -80.63131741123331 -24.146392807400805, -79.70947985680553 -24.485637548803172 M-81.26157651178646 -23.91445163234599 C-80.82543458085803 -24.074955894579464, -80.3892926499296 -24.23546015681294, -79.70947985680553 -24.485637548803172 M-79.70947985680553 -24.485637548803172 C-79.10433540649538 -24.665241245187186, -78.49919095618522 -24.844844941571203, -78.12397614354681 -24.956206728419538 M-79.70947985680553 -24.485637548803172 C-79.13912614228953 -24.65491553742378, -78.56877242777352 -24.82419352604439, -78.12397614354681 -24.956206728419538 M-78.12397614354681 -24.956206728419538 C-77.51033852080428 -25.096265511450806, -76.89670089806175 -25.236324294482074, -76.51158054685754 -25.324225501499278 M-78.12397614354681 -24.956206728419538 C-77.77072306226977 -25.036834439029235, -77.41746998099273 -25.117462149638936, -76.51158054685754 -25.324225501499278 M-76.51158054685754 -25.324225501499278 C-75.89024683662643 -25.424677917254556, -75.26891312639532 -25.525130333009837, -74.87891874610233 -25.588181599964017 M-76.51158054685754 -25.324225501499278 C-75.97674191308585 -25.410694064071937, -75.44190327931413 -25.49716262664459, -74.87891874610233 -25.588181599964017 M-74.87891874610233 -25.588181599964017 C-74.4572134874014 -25.62886299909612, -74.03550822870046 -25.669544398228222, -73.23269969882529 -25.746990371586765 M-74.87891874610233 -25.588181599964017 C-74.53845789169502 -25.621025449124605, -74.19799703728772 -25.653869298285194, -73.23269969882529 -25.746990371586765 M-73.23269969882529 -25.746990371586765 C-72.69161776505173 -25.76434181605079, -72.15053583127818 -25.781693260514814, -71.5796880722046 -25.799999237060547 M-73.23269969882529 -25.746990371586765 C-72.73082454970724 -25.763084530778265, -72.22894940058919 -25.779178689969765, -71.5796880722046 -25.799999237060547 M-71.5796880722046 -25.799999237060547 C-71.5796880722046 -25.799999237060547, -71.57968807220459 -25.799999237060547, -71.57968807220459 -25.799999237060547 M-71.5796880722046 -25.799999237060547 C-71.5796880722046 -25.799999237060547, -71.57968807220459 -25.799999237060547, -71.57968807220459 -25.799999237060547" stroke="#1F4870" stroke-width="1.3" fill="none" stroke-dasharray="0 0" style="fill:#2E5A88 !important;stroke:#1F4870 !important"></path></g><g class="label" style="color:#ffffff !important" transform="translate(0, -18.299999237060547)"><rect></rect><g><rect class="background" style="stroke: none"></rect><text y="-10.1" style="fill:#404040 !important"><tspan class="text-outer-tspan row" x="0" y="-0.1em" dy="1.1em"><tspan font-style="normal" class="text-inner-tspan" font-weight="normal">Pagesmith</tspan></tspan><tspan class="text-outer-tspan row" x="0" y="1em" dy="1.1em"><tspan font-style="normal" class="text-inner-tspan" font-weight="normal">seven</tspan><tspan font-style="normal" class="text-inner-tspan" font-weight="normal"> locked</tspan><tspan font-style="normal" class="text-inner-tspan" font-weight="normal"> principles</tspan></tspan></text></g></g></g><g class="node default tenet" id="gf8a3af2c-a55a-44cc-9ac4-7a6c0062446b-dark-flowchart-filesystem-2" data-look="classic" transform="translate(379.0141143798828, 58.900001525878906)"><rect class="basic label-container" style="fill:#1F6E68 !important;stroke:#155752 !important" x="-124.3828125" y="-50.900001525878906" width="248.765625" height="101.80000305175781"></rect><g class="label" style="color:#ffffff !important" transform="translate(0, -35.900001525878906)"><rect></rect><g><rect class="background" style="stroke: none"></rect><text y="-10.1" style="fill:#404040 !important"><tspan class="text-outer-tspan row" x="0" y="-0.1em" dy="1.1em"><tspan font-style="normal" class="text-inner-tspan" font-weight="normal">1.</tspan><tspan font-style="normal" class="text-inner-tspan" font-weight="normal"> Filesystem-first</tspan></tspan><tspan class="text-outer-tspan row" x="0" y="1em" dy="1.1em"><tspan font-style="normal" class="text-inner-tspan" font-weight="normal">source</tspan><tspan font-style="normal" class="text-inner-tspan" font-weight="normal"> of</tspan><tspan font-style="normal" class="text-inner-tspan" font-weight="normal"> truth</tspan></tspan><tspan class="text-outer-tspan row" x="0" y="2.1em" dy="1.1em"><tspan font-style="normal" class="text-inner-tspan" font-weight="normal">collections,</tspan><tspan font-style="normal" class="text-inner-tspan" font-weight="normal"> assets,</tspan><tspan font-style="normal" class="text-inner-tspan" font-weight="normal"> nav</tspan><tspan font-style="normal" class="text-inner-tspan" font-weight="normal"> on</tspan></tspan><tspan class="text-outer-tspan row" x="0" y="3.2em" dy="1.1em"><tspan font-style="normal" class="text-inner-tspan" font-weight="normal">disk</tspan></tspan></text></g></g></g><g class="node default tenet" id="gf8a3af2c-a55a-44cc-9ac4-7a6c0062446b-dark-flowchart-boundaries-4" data-look="classic" transform="translate(379.0141143798828, 201.9000015258789)"><rect class="basic label-container" style="fill:#1F6E68 !important;stroke:#155752 !important" x="-92.7734375" y="-42.099998474121094" width="185.546875" height="84.19999694824219"></rect><g class="label" style="color:#ffffff !important" transform="translate(0, -27.099998474121094)"><rect></rect><g><rect class="background" style="stroke: none"></rect><text y="-10.1" style="fill:#404040 !important"><tspan class="text-outer-tspan row" x="0" y="-0.1em" dy="1.1em"><tspan font-style="normal" class="text-inner-tspan" font-weight="normal">2.</tspan><tspan font-style="normal" class="text-inner-tspan" font-weight="normal"> Strict</tspan><tspan font-style="normal" class="text-inner-tspan" font-weight="normal"> package</tspan></tspan><tspan class="text-outer-tspan row" x="0" y="1em" dy="1.1em"><tspan font-style="normal" class="text-inner-tspan" font-weight="normal">boundaries</tspan></tspan><tspan class="text-outer-tspan row" x="0" y="2.1em" dy="1.1em"><tspan font-style="normal" class="text-inner-tspan" font-weight="normal">core</tspan><tspan font-style="normal" class="text-inner-tspan" font-weight="normal"> /</tspan><tspan font-style="normal" class="text-inner-tspan" font-weight="normal"> site</tspan><tspan font-style="normal" class="text-inner-tspan" font-weight="normal"> /</tspan><tspan font-style="normal" class="text-inner-tspan" font-weight="normal"> docs</tspan></tspan></text></g></g></g><g class="node default tenet" id="gf8a3af2c-a55a-44cc-9ac4-7a6c0062446b-dark-flowchart-validation-6" data-look="classic" transform="translate(379.0141143798828, 336.0999984741211)"><rect class="basic label-container" style="fill:#1F6E68 !important;stroke:#155752 !important" x="-117.53125" y="-42.099998474121094" width="235.0625" height="84.19999694824219"></rect><g class="label" style="color:#ffffff !important" transform="translate(0, -27.099998474121094)"><rect></rect><g><rect class="background" style="stroke: none"></rect><text y="-10.1" style="fill:#404040 !important"><tspan class="text-outer-tspan row" x="0" y="-0.1em" dy="1.1em"><tspan font-style="normal" class="text-inner-tspan" font-weight="normal">3.</tspan><tspan font-style="normal" class="text-inner-tspan" font-weight="normal"> Validation</tspan><tspan font-style="normal" class="text-inner-tspan" font-weight="normal"> before</tspan></tspan><tspan class="text-outer-tspan row" x="0" y="1em" dy="1.1em"><tspan font-style="normal" class="text-inner-tspan" font-weight="normal">render</tspan><tspan font-style="normal" class="text-inner-tspan" font-weight="normal"> or</tspan><tspan font-style="normal" class="text-inner-tspan" font-weight="normal"> runtime</tspan></tspan><tspan class="text-outer-tspan row" x="0" y="2.1em" dy="1.1em"><tspan font-style="normal" class="text-inner-tspan" font-weight="normal">Zod</tspan><tspan font-style="normal" class="text-inner-tspan" font-weight="normal"> +</tspan><tspan font-style="normal" class="text-inner-tspan" font-weight="normal"> content</tspan><tspan font-style="normal" class="text-inner-tspan" font-weight="normal"> validators</tspan></tspan></text></g></g></g><g class="node default tenet" id="gf8a3af2c-a55a-44cc-9ac4-7a6c0062446b-dark-flowchart-vite-8" data-look="classic" transform="translate(379.0141143798828, 470.2999954223633)"><rect class="basic label-container" style="fill:#1F6E68 !important;stroke:#155752 !important" x="-102.46875" y="-42.099998474121094" width="204.9375" height="84.19999694824219"></rect><g class="label" style="color:#ffffff !important" transform="translate(0, -27.099998474121094)"><rect></rect><g><rect class="background" style="stroke: none"></rect><text y="-10.1" style="fill:#404040 !important"><tspan class="text-outer-tspan row" x="0" y="-0.1em" dy="1.1em"><tspan font-style="normal" class="text-inner-tspan" font-weight="normal">4.</tspan><tspan font-style="normal" class="text-inner-tspan" font-weight="normal"> Vite-native</tspan></tspan><tspan class="text-outer-tspan row" x="0" y="1em" dy="1.1em"><tspan font-style="normal" class="text-inner-tspan" font-weight="normal">execution</tspan></tspan><tspan class="text-outer-tspan row" x="0" y="2.1em" dy="1.1em"><tspan font-style="normal" class="text-inner-tspan" font-weight="normal">no</tspan><tspan font-style="normal" class="text-inner-tspan" font-weight="normal"> custom</tspan><tspan font-style="normal" class="text-inner-tspan" font-weight="normal"> toolchain</tspan></tspan></text></g></g></g><g class="node default tenet" id="gf8a3af2c-a55a-44cc-9ac4-7a6c0062446b-dark-flowchart-progressive-10" data-look="classic" transform="translate(379.0141143798828, 604.4999923706055)"><rect class="basic label-container" style="fill:#1F6E68 !important;stroke:#155752 !important" x="-111.3359375" y="-42.099998474121094" width="222.671875" height="84.19999694824219"></rect><g class="label" style="color:#ffffff !important" transform="translate(0, -27.099998474121094)"><rect></rect><g><rect class="background" style="stroke: none"></rect><text y="-10.1" style="fill:#404040 !important"><tspan class="text-outer-tspan row" x="0" y="-0.1em" dy="1.1em"><tspan font-style="normal" class="text-inner-tspan" font-weight="normal">5.</tspan><tspan font-style="normal" class="text-inner-tspan" font-weight="normal"> Progressive</tspan></tspan><tspan class="text-outer-tspan row" x="0" y="1em" dy="1.1em"><tspan font-style="normal" class="text-inner-tspan" font-weight="normal">enhancement</tspan></tspan><tspan class="text-outer-tspan row" x="0" y="2.1em" dy="1.1em"><tspan font-style="normal" class="text-inner-tspan" font-weight="normal">HTML</tspan><tspan font-style="normal" class="text-inner-tspan" font-weight="normal"> first,</tspan><tspan font-style="normal" class="text-inner-tspan" font-weight="normal"> JS</tspan><tspan font-style="normal" class="text-inner-tspan" font-weight="normal"> optional</tspan></tspan></text></g></g></g><g class="node default tenet" id="gf8a3af2c-a55a-44cc-9ac4-7a6c0062446b-dark-flowchart-config-12" data-look="classic" transform="translate(379.0141143798828, 738.6999893188477)"><rect class="basic label-container" style="fill:#1F6E68 !important;stroke:#155752 !important" x="-110.03125" y="-42.099998474121094" width="220.0625" height="84.19999694824219"></rect><g class="label" style="color:#ffffff !important" transform="translate(0, -27.099998474121094)"><rect></rect><g><rect class="background" style="stroke: none"></rect><text y="-10.1" style="fill:#404040 !important"><tspan class="text-outer-tspan row" x="0" y="-0.1em" dy="1.1em"><tspan font-style="normal" class="text-inner-tspan" font-weight="normal">6.</tspan><tspan font-style="normal" class="text-inner-tspan" font-weight="normal"> Configuration</tspan></tspan><tspan class="text-outer-tspan row" x="0" y="1em" dy="1.1em"><tspan font-style="normal" class="text-inner-tspan" font-weight="normal">before</tspan><tspan font-style="normal" class="text-inner-tspan" font-weight="normal"> customization</tspan></tspan><tspan class="text-outer-tspan row" x="0" y="2.1em" dy="1.1em"><tspan font-style="normal" class="text-inner-tspan" font-weight="normal">JSON5</tspan><tspan font-style="normal" class="text-inner-tspan" font-weight="normal"> over</tspan><tspan font-style="normal" class="text-inner-tspan" font-weight="normal"> TypeScript</tspan></tspan></text></g></g></g><g class="node default tenet" id="gf8a3af2c-a55a-44cc-9ac4-7a6c0062446b-dark-flowchart-parity-14" data-look="classic" transform="translate(379.0141143798828, 872.8999862670898)"><rect class="basic label-container" style="fill:#1F6E68 !important;stroke:#155752 !important" x="-126.28125" y="-42.099998474121094" width="252.5625" height="84.19999694824219"></rect><g class="label" style="color:#ffffff !important" transform="translate(0, -27.099998474121094)"><rect></rect><g><rect class="background" style="stroke: none"></rect><text y="-10.1" style="fill:#404040 !important"><tspan class="text-outer-tspan row" x="0" y="-0.1em" dy="1.1em"><tspan font-style="normal" class="text-inner-tspan" font-weight="normal">7.</tspan><tspan font-style="normal" class="text-inner-tspan" font-weight="normal"> Docs,</tspan><tspan font-style="normal" class="text-inner-tspan" font-weight="normal"> examples,</tspan></tspan><tspan class="text-outer-tspan row" x="0" y="1em" dy="1.1em"><tspan font-style="normal" class="text-inner-tspan" font-weight="normal">AI</tspan><tspan font-style="normal" class="text-inner-tspan" font-weight="normal"> guidance</tspan><tspan font-style="normal" class="text-inner-tspan" font-weight="normal"> move</tspan><tspan font-style="normal" class="text-inner-tspan" font-weight="normal"> together</tspan></tspan><tspan class="text-outer-tspan row" x="0" y="2.1em" dy="1.1em"><tspan font-style="normal" class="text-inner-tspan" font-weight="normal">same</tspan><tspan font-style="normal" class="text-inner-tspan" font-weight="normal"> branch,</tspan><tspan font-style="normal" class="text-inner-tspan" font-weight="normal"> same</tspan><tspan font-style="normal" class="text-inner-tspan" font-weight="normal"> PR</tspan></tspan></text></g></g></g></g></g></g><defs><filter id="gf8a3af2c-a55a-44cc-9ac4-7a6c0062446b-dark-drop-shadow" height="130%" width="130%"><feDropShadow dx="4" dy="4" stdDeviation="0" flood-opacity="0.06" flood-color="#000000"></feDropShadow></filter></defs><defs><filter id="gf8a3af2c-a55a-44cc-9ac4-7a6c0062446b-dark-drop-shadow-small" height="150%" width="150%"><feDropShadow dx="2" dy="2" stdDeviation="0" flood-opacity="0.06" flood-color="#000000"></feDropShadow></filter></defs><linearGradient id="gf8a3af2c-a55a-44cc-9ac4-7a6c0062446b-dark-gradient" gradientUnits="objectBoundingBox" x1="0%" y1="0%" x2="100%" y2="0%"><stop offset="0%" stop-color="#555555" stop-opacity="1"></stop><stop offset="100%" stop-color="#555555" stop-opacity="1"></stop></linearGradient></svg>