<svg id="g79bc4871-3fb9-4c11-8b86-b9f3590e6b63-light" width="100%" xmlns="http://www.w3.org/2000/svg" xmlns:xlink="http://www.w3.org/1999/xlink" class="flowchart" style="max-width: 715.0015869140625px;" viewBox="0 0 715.0015869140625 1468.5843505859375" role="graphics-document document" aria-roledescription="flowchart-v2"><style>#g79bc4871-3fb9-4c11-8b86-b9f3590e6b63-light{font-family:"trebuchet ms",verdana,arial,sans-serif;font-size:16px;fill:#333;}@keyframes edge-animation-frame{from{stroke-dashoffset:0;}}@keyframes dash{to{stroke-dashoffset:0;}}#g79bc4871-3fb9-4c11-8b86-b9f3590e6b63-light .edge-animation-slow{stroke-dasharray:9,5!important;stroke-dashoffset:900;animation:dash 50s linear infinite;stroke-linecap:round;}#g79bc4871-3fb9-4c11-8b86-b9f3590e6b63-light .edge-animation-fast{stroke-dasharray:9,5!important;stroke-dashoffset:900;animation:dash 20s linear infinite;stroke-linecap:round;}#g79bc4871-3fb9-4c11-8b86-b9f3590e6b63-light .error-icon{fill:#552222;}#g79bc4871-3fb9-4c11-8b86-b9f3590e6b63-light .error-text{fill:#552222;stroke:#552222;}#g79bc4871-3fb9-4c11-8b86-b9f3590e6b63-light .edge-thickness-normal{stroke-width:1px;}#g79bc4871-3fb9-4c11-8b86-b9f3590e6b63-light .edge-thickness-thick{stroke-width:3.5px;}#g79bc4871-3fb9-4c11-8b86-b9f3590e6b63-light .edge-pattern-solid{stroke-dasharray:0;}#g79bc4871-3fb9-4c11-8b86-b9f3590e6b63-light .edge-thickness-invisible{stroke-width:0;fill:none;}#g79bc4871-3fb9-4c11-8b86-b9f3590e6b63-light .edge-pattern-dashed{stroke-dasharray:3;}#g79bc4871-3fb9-4c11-8b86-b9f3590e6b63-light .edge-pattern-dotted{stroke-dasharray:2;}#g79bc4871-3fb9-4c11-8b86-b9f3590e6b63-light .marker{fill:#333333;stroke:#333333;}#g79bc4871-3fb9-4c11-8b86-b9f3590e6b63-light .marker.cross{stroke:#333333;}#g79bc4871-3fb9-4c11-8b86-b9f3590e6b63-light svg{font-family:"trebuchet ms",verdana,arial,sans-serif;font-size:16px;}#g79bc4871-3fb9-4c11-8b86-b9f3590e6b63-light p{margin:0;}#g79bc4871-3fb9-4c11-8b86-b9f3590e6b63-light .label{font-family:"trebuchet ms",verdana,arial,sans-serif;color:#333;}#g79bc4871-3fb9-4c11-8b86-b9f3590e6b63-light .cluster-label text{fill:#333;}#g79bc4871-3fb9-4c11-8b86-b9f3590e6b63-light .cluster-label span{color:#333;}#g79bc4871-3fb9-4c11-8b86-b9f3590e6b63-light .cluster-label span p{background-color:transparent;}#g79bc4871-3fb9-4c11-8b86-b9f3590e6b63-light .label text,#g79bc4871-3fb9-4c11-8b86-b9f3590e6b63-light span{fill:#333;color:#333;}#g79bc4871-3fb9-4c11-8b86-b9f3590e6b63-light .node rect,#g79bc4871-3fb9-4c11-8b86-b9f3590e6b63-light .node circle,#g79bc4871-3fb9-4c11-8b86-b9f3590e6b63-light .node ellipse,#g79bc4871-3fb9-4c11-8b86-b9f3590e6b63-light .node polygon,#g79bc4871-3fb9-4c11-8b86-b9f3590e6b63-light .node path{fill:#ECECFF;stroke:#9370DB;stroke-width:1px;}#g79bc4871-3fb9-4c11-8b86-b9f3590e6b63-light .rough-node .label text,#g79bc4871-3fb9-4c11-8b86-b9f3590e6b63-light .node .label text,#g79bc4871-3fb9-4c11-8b86-b9f3590e6b63-light .image-shape .label,#g79bc4871-3fb9-4c11-8b86-b9f3590e6b63-light .icon-shape .label{text-anchor:middle;}#g79bc4871-3fb9-4c11-8b86-b9f3590e6b63-light .node .katex path{fill:#000;stroke:#000;stroke-width:1px;}#g79bc4871-3fb9-4c11-8b86-b9f3590e6b63-light .rough-node .label,#g79bc4871-3fb9-4c11-8b86-b9f3590e6b63-light .node .label,#g79bc4871-3fb9-4c11-8b86-b9f3590e6b63-light .image-shape .label,#g79bc4871-3fb9-4c11-8b86-b9f3590e6b63-light .icon-shape .label{text-align:center;}#g79bc4871-3fb9-4c11-8b86-b9f3590e6b63-light .node.clickable{cursor:pointer;}#g79bc4871-3fb9-4c11-8b86-b9f3590e6b63-light .root .anchor path{fill:#333333!important;stroke-width:0;stroke:#333333;}#g79bc4871-3fb9-4c11-8b86-b9f3590e6b63-light .arrowheadPath{fill:#333333;}#g79bc4871-3fb9-4c11-8b86-b9f3590e6b63-light .edgePath .path{stroke:#333333;stroke-width:1px;}#g79bc4871-3fb9-4c11-8b86-b9f3590e6b63-light .flowchart-link{stroke:#333333;fill:none;}#g79bc4871-3fb9-4c11-8b86-b9f3590e6b63-light .edgeLabel{background-color:rgba(232,232,232, 0.8);text-align:center;}#g79bc4871-3fb9-4c11-8b86-b9f3590e6b63-light .edgeLabel p{background-color:rgba(232,232,232, 0.8);}#g79bc4871-3fb9-4c11-8b86-b9f3590e6b63-light .edgeLabel rect{opacity:0.5;background-color:rgba(232,232,232, 0.8);fill:rgba(232,232,232, 0.8);}#g79bc4871-3fb9-4c11-8b86-b9f3590e6b63-light .labelBkg{background-color:rgba(232, 232, 232, 0.5);}#g79bc4871-3fb9-4c11-8b86-b9f3590e6b63-light .cluster rect{fill:#ffffde;stroke:#aaaa33;stroke-width:1px;}#g79bc4871-3fb9-4c11-8b86-b9f3590e6b63-light .cluster text{fill:#333;}#g79bc4871-3fb9-4c11-8b86-b9f3590e6b63-light .cluster span{color:#333;}#g79bc4871-3fb9-4c11-8b86-b9f3590e6b63-light div.mermaidTooltip{position:absolute;text-align:center;max-width:200px;padding:2px;font-family:"trebuchet ms",verdana,arial,sans-serif;font-size:12px;background:hsl(80, 100%, 96.2745098039%);border:1px solid #aaaa33;border-radius:2px;pointer-events:none;z-index:100;}#g79bc4871-3fb9-4c11-8b86-b9f3590e6b63-light .flowchartTitleText{text-anchor:middle;font-size:18px;fill:#333;}#g79bc4871-3fb9-4c11-8b86-b9f3590e6b63-light rect.text{fill:none;stroke-width:0;}#g79bc4871-3fb9-4c11-8b86-b9f3590e6b63-light .icon-shape,#g79bc4871-3fb9-4c11-8b86-b9f3590e6b63-light .image-shape{background-color:rgba(232,232,232, 0.8);text-align:center;}#g79bc4871-3fb9-4c11-8b86-b9f3590e6b63-light .icon-shape p,#g79bc4871-3fb9-4c11-8b86-b9f3590e6b63-light .image-shape p{background-color:rgba(232,232,232, 0.8);padding:2px;}#g79bc4871-3fb9-4c11-8b86-b9f3590e6b63-light .icon-shape .label rect,#g79bc4871-3fb9-4c11-8b86-b9f3590e6b63-light .image-shape .label rect{opacity:0.5;background-color:rgba(232,232,232, 0.8);fill:rgba(232,232,232, 0.8);}#g79bc4871-3fb9-4c11-8b86-b9f3590e6b63-light .label-icon{display:inline-block;height:1em;overflow:visible;vertical-align:-0.125em;}#g79bc4871-3fb9-4c11-8b86-b9f3590e6b63-light .node .label-icon path{fill:currentColor;stroke:revert;stroke-width:revert;}#g79bc4871-3fb9-4c11-8b86-b9f3590e6b63-light .node .neo-node{stroke:#9370DB;}#g79bc4871-3fb9-4c11-8b86-b9f3590e6b63-light [data-look="neo"].node rect,#g79bc4871-3fb9-4c11-8b86-b9f3590e6b63-light [data-look="neo"].cluster rect,#g79bc4871-3fb9-4c11-8b86-b9f3590e6b63-light [data-look="neo"].node polygon{stroke:#9370DB;filter:drop-shadow(1px 2px 2px rgba(185, 185, 185, 1));}#g79bc4871-3fb9-4c11-8b86-b9f3590e6b63-light [data-look="neo"].node path{stroke:#9370DB;stroke-width:1px;}#g79bc4871-3fb9-4c11-8b86-b9f3590e6b63-light [data-look="neo"].node .outer-path{filter:drop-shadow(1px 2px 2px rgba(185, 185, 185, 1));}#g79bc4871-3fb9-4c11-8b86-b9f3590e6b63-light [data-look="neo"].node .neo-line path{stroke:#9370DB;filter:none;}#g79bc4871-3fb9-4c11-8b86-b9f3590e6b63-light [data-look="neo"].node circle{stroke:#9370DB;filter:drop-shadow(1px 2px 2px rgba(185, 185, 185, 1));}#g79bc4871-3fb9-4c11-8b86-b9f3590e6b63-light [data-look="neo"].node circle .state-start{fill:#000000;}#g79bc4871-3fb9-4c11-8b86-b9f3590e6b63-light [data-look="neo"].icon-shape .icon{fill:#9370DB;filter:drop-shadow(1px 2px 2px rgba(185, 185, 185, 1));}#g79bc4871-3fb9-4c11-8b86-b9f3590e6b63-light [data-look="neo"].icon-shape .icon-neo path{stroke:#9370DB;filter:drop-shadow(1px 2px 2px rgba(185, 185, 185, 1));}#g79bc4871-3fb9-4c11-8b86-b9f3590e6b63-light :root{--mermaid-font-family:"trebuchet ms",verdana,arial,sans-serif;}</style><g><marker id="g79bc4871-3fb9-4c11-8b86-b9f3590e6b63-light_flowchart-v2-pointEnd" class="marker flowchart-v2" viewBox="0 0 10 10" refX="5" refY="5" markerUnits="userSpaceOnUse" markerWidth="8" markerHeight="8" orient="auto"><path d="M 0 0 L 10 5 L 0 10 z" class="arrowMarkerPath" style="stroke-width: 1; stroke-dasharray: 1, 0;"></path></marker><marker id="g79bc4871-3fb9-4c11-8b86-b9f3590e6b63-light_flowchart-v2-pointStart" class="marker flowchart-v2" viewBox="0 0 10 10" refX="4.5" refY="5" markerUnits="userSpaceOnUse" markerWidth="8" markerHeight="8" orient="auto"><path d="M 0 5 L 10 10 L 10 0 z" class="arrowMarkerPath" style="stroke-width: 1; stroke-dasharray: 1, 0;"></path></marker><marker id="g79bc4871-3fb9-4c11-8b86-b9f3590e6b63-light_flowchart-v2-pointEnd-margin" class="marker flowchart-v2" viewBox="0 0 11.5 14" refX="11.5" refY="7" markerUnits="userSpaceOnUse" markerWidth="10.5" markerHeight="14" orient="auto"><path d="M 0 0 L 11.5 7 L 0 14 z" class="arrowMarkerPath" style="stroke-width: 0; stroke-dasharray: 1, 0;"></path></marker><marker id="g79bc4871-3fb9-4c11-8b86-b9f3590e6b63-light_flowchart-v2-pointStart-margin" class="marker flowchart-v2" viewBox="0 0 11.5 14" refX="1" refY="7" markerUnits="userSpaceOnUse" markerWidth="11.5" markerHeight="14" orient="auto"><polygon points="0,7 11.5,14 11.5,0" class="arrowMarkerPath" style="stroke-width: 0; stroke-dasharray: 1, 0;"></polygon></marker><marker id="g79bc4871-3fb9-4c11-8b86-b9f3590e6b63-light_flowchart-v2-circleEnd" class="marker flowchart-v2" viewBox="0 0 10 10" refX="11" refY="5" markerUnits="userSpaceOnUse" markerWidth="11" markerHeight="11" orient="auto"><circle cx="5" cy="5" r="5" class="arrowMarkerPath" style="stroke-width: 1; stroke-dasharray: 1, 0;"></circle></marker><marker id="g79bc4871-3fb9-4c11-8b86-b9f3590e6b63-light_flowchart-v2-circleStart" class="marker flowchart-v2" viewBox="0 0 10 10" refX="-1" refY="5" markerUnits="userSpaceOnUse" markerWidth="11" markerHeight="11" orient="auto"><circle cx="5" cy="5" r="5" class="arrowMarkerPath" style="stroke-width: 1; stroke-dasharray: 1, 0;"></circle></marker><marker id="g79bc4871-3fb9-4c11-8b86-b9f3590e6b63-light_flowchart-v2-circleEnd-margin" class="marker flowchart-v2" viewBox="0 0 10 10" refY="5" refX="12.25" markerUnits="userSpaceOnUse" markerWidth="14" markerHeight="14" orient="auto"><circle cx="5" cy="5" r="5" class="arrowMarkerPath" style="stroke-width: 0; stroke-dasharray: 1, 0;"></circle></marker><marker id="g79bc4871-3fb9-4c11-8b86-b9f3590e6b63-light_flowchart-v2-circleStart-margin" class="marker flowchart-v2" viewBox="0 0 10 10" refX="-2" refY="5" markerUnits="userSpaceOnUse" markerWidth="14" markerHeight="14" orient="auto"><circle cx="5" cy="5" r="5" class="arrowMarkerPath" style="stroke-width: 0; stroke-dasharray: 1, 0;"></circle></marker><marker id="g79bc4871-3fb9-4c11-8b86-b9f3590e6b63-light_flowchart-v2-crossEnd" class="marker cross flowchart-v2" viewBox="0 0 11 11" refX="12" refY="5.2" markerUnits="userSpaceOnUse" markerWidth="11" markerHeight="11" orient="auto"><path d="M 1,1 l 9,9 M 10,1 l -9,9" class="arrowMarkerPath" style="stroke-width: 2; stroke-dasharray: 1, 0;"></path></marker><marker id="g79bc4871-3fb9-4c11-8b86-b9f3590e6b63-light_flowchart-v2-crossStart" class="marker cross flowchart-v2" viewBox="0 0 11 11" refX="-1" refY="5.2" markerUnits="userSpaceOnUse" markerWidth="11" markerHeight="11" orient="auto"><path d="M 1,1 l 9,9 M 10,1 l -9,9" class="arrowMarkerPath" style="stroke-width: 2; stroke-dasharray: 1, 0;"></path></marker><marker id="g79bc4871-3fb9-4c11-8b86-b9f3590e6b63-light_flowchart-v2-crossEnd-margin" class="marker cross flowchart-v2" viewBox="0 0 15 15" refX="17.7" refY="7.5" markerUnits="userSpaceOnUse" markerWidth="12" markerHeight="12" orient="auto"><path d="M 1,1 L 14,14 M 1,14 L 14,1" class="arrowMarkerPath" style="stroke-width: 2.5;"></path></marker><marker id="g79bc4871-3fb9-4c11-8b86-b9f3590e6b63-light_flowchart-v2-crossStart-margin" class="marker cross flowchart-v2" viewBox="0 0 15 15" refX="-3.5" refY="7.5" markerUnits="userSpaceOnUse" markerWidth="12" markerHeight="12" orient="auto"><path d="M 1,1 L 14,14 M 1,14 L 14,1" class="arrowMarkerPath" style="stroke-width: 2.5; stroke-dasharray: 1, 0;"></path></marker><g class="root"><g class="clusters"></g><g class="edgePaths"><path d="M280.942,42.5L280.859,46.583C280.776,50.667,280.609,58.833,280.526,66.417C280.442,74,280.442,81,280.442,84.5L280.442,88" id="g79bc4871-3fb9-4c11-8b86-b9f3590e6b63-light-L_start_docsQ_0" class="edge-thickness-normal edge-pattern-solid edge-thickness-normal edge-pattern-solid flowchart-link" style=";" data-edge="true" data-et="edge" data-id="L_start_docsQ_0" data-points="W3sieCI6MjgwLjk0MjE4NDQ0ODI0MjIsInkiOjQyLjV9LHsieCI6MjgwLjQ0MjE4NDQ0ODI0MjIsInkiOjY3fSx7IngiOjI4MC40NDIxODQ0NDgyNDIyLCJ5Ijo5MS45OTk5OTk5OTk5OTk5N31d" data-look="classic" marker-end="url(#g79bc4871-3fb9-4c11-8b86-b9f3590e6b63-light_flowchart-v2-pointEnd)"></path><path d="M216.2,298.058L200.989,314.849C185.777,331.639,155.353,365.219,140.141,402.959C124.93,440.698,124.93,482.597,124.93,503.546L124.93,524.495" id="g79bc4871-3fb9-4c11-8b86-b9f3590e6b63-light-L_docsQ_docs_0" class="edge-thickness-normal edge-pattern-solid edge-thickness-normal edge-pattern-solid flowchart-link" style=";" data-edge="true" data-et="edge" data-id="L_docsQ_docs_0" data-points="W3sieCI6MjE2LjIwMDM2Mjc0MTI1MTMsInkiOjI5OC4wNTgxOTY2MDM1NTZ9LHsieCI6MTI0LjkyOTY4NzUsInkiOjM5OC44MDAwMTgzMTA1NDY5fSx7IngiOjEyNC45Mjk2ODc1LCJ5Ijo1MjguNDk1MzIzMTgxMTUyM31d" data-look="classic" marker-end="url(#g79bc4871-3fb9-4c11-8b86-b9f3590e6b63-light_flowchart-v2-pointEnd)"></path><path d="M344.684,298.058L359.896,314.849C375.108,331.639,405.531,365.219,420.743,387.426C435.955,409.633,435.955,420.467,435.955,425.883L435.955,431.3" id="g79bc4871-3fb9-4c11-8b86-b9f3590e6b63-light-L_docsQ_hostQ_0" class="edge-thickness-normal edge-pattern-solid edge-thickness-normal edge-pattern-solid flowchart-link" style=";" data-edge="true" data-et="edge" data-id="L_docsQ_hostQ_0" data-points="W3sieCI6MzQ0LjY4NDAwNjE1NTIzMzEsInkiOjI5OC4wNTgxOTY2MDM1NTZ9LHsieCI6NDM1Ljk1NDY4MTM5NjQ4NDQsInkiOjM5OC44MDAwMTgzMTA1NDY5fSx7IngiOjQzNS45NTQ2ODEzOTY0ODQzLCJ5Ijo0MzUuMzAwMDE4MzEwNTQ2OH1d" data-look="classic" marker-end="url(#g79bc4871-3fb9-4c11-8b86-b9f3590e6b63-light_flowchart-v2-pointEnd)"></path><path d="M495.501,663.944L506.776,679.952C518.05,695.959,540.598,727.975,551.872,749.4C563.146,770.824,563.146,781.657,563.146,787.074L563.146,792.491" id="g79bc4871-3fb9-4c11-8b86-b9f3590e6b63-light-L_hostQ_core_0" class="edge-thickness-normal edge-pattern-solid edge-thickness-normal edge-pattern-solid flowchart-link" style=";" data-edge="true" data-et="edge" data-id="L_hostQ_core_0" data-points="W3sieCI6NDk1LjUwMTM4NjYzNTk3OTc3LCJ5Ijo2NjMuOTQzOTI1ODY0MDIwMn0seyJ4Ijo1NjMuMTQ2MDg3NjQ2NDg0NCwieSI6NzU5Ljk5MDYzMTEwMzUxNTZ9LHsieCI6NTYzLjE0NjA4NzY0NjQ4NDQsInkiOjc5Ni40OTA2MzExMDM1MTU2fV0=" data-look="classic" marker-end="url(#g79bc4871-3fb9-4c11-8b86-b9f3590e6b63-light_flowchart-v2-pointEnd)"></path><path d="M366.894,654.43L350.701,672.023C334.508,689.617,302.122,724.804,285.929,758.43C269.736,792.057,269.736,824.124,269.736,856.191C269.736,888.257,269.736,920.324,269.736,964.248C269.736,1008.173,269.736,1063.955,269.736,1119.738C269.736,1175.52,269.736,1231.302,270.597,1264.618C271.458,1297.934,273.18,1308.784,274.041,1314.209L274.902,1319.634" id="g79bc4871-3fb9-4c11-8b86-b9f3590e6b63-light-L_hostQ_site_0" class="edge-thickness-normal edge-pattern-solid edge-thickness-normal edge-pattern-solid flowchart-link" style=";" data-edge="true" data-et="edge" data-id="L_hostQ_site_0" data-points="W3sieCI6MzY2Ljg5MzYzNDc5NzE4MjIsInkiOjY1NC40Mjk1ODQ1MDQyMTM0fSx7IngiOjI2OS43MzU5MzEzOTY0ODQ0LCJ5Ijo3NTkuOTkwNjMxMTAzNTE1Nn0seyJ4IjoyNjkuNzM1OTMxMzk2NDg0NCwieSI6ODU2LjE5MDYzMTg2NjQ1NTF9LHsieCI6MjY5LjczNTkzMTM5NjQ4NDQsInkiOjk1Mi4zOTA2MzI2MjkzOTQ1fSx7IngiOjI2OS43MzU5MzEzOTY0ODQ0LCJ5IjoxMTE5LjczNzUxMDY4MTE1MjN9LHsieCI6MjY5LjczNTkzMTM5NjQ4NDQsInkiOjEyODcuMDg0Mzg4NzMyOTEwMn0seyJ4IjoyNzUuNTI4Njc2OTMyMTk4NjYsInkiOjEzMjMuNTg0Mzg4NzMyOTEwMn1d" data-look="classic" marker-end="url(#g79bc4871-3fb9-4c11-8b86-b9f3590e6b63-light_flowchart-v2-pointEnd)"></path><path d="M563.146,915.891L563.146,921.974C563.146,928.057,563.146,940.224,563.146,951.724C563.146,963.224,563.146,974.057,563.146,979.474L563.146,984.891" id="g79bc4871-3fb9-4c11-8b86-b9f3590e6b63-light-L_core_siteQ_0" class="edge-thickness-normal edge-pattern-solid edge-thickness-normal edge-pattern-solid flowchart-link" style=";" data-edge="true" data-et="edge" data-id="L_core_siteQ_0" data-points="W3sieCI6NTYzLjE0NjA4NzY0NjQ4NDQsInkiOjkxNS44OTA2MzI2MjkzOTQ1fSx7IngiOjU2My4xNDYwODc2NDY0ODQ0LCJ5Ijo5NTIuMzkwNjMyNjI5Mzk0NX0seyJ4Ijo1NjMuMTQ2MDg3NjQ2NDg0NCwieSI6OTg4Ljg5MDYzMjYyOTM5NDR9XQ==" data-look="classic" marker-end="url(#g79bc4871-3fb9-4c11-8b86-b9f3590e6b63-light_flowchart-v2-pointEnd)"></path><path d="M501.396,1188.834L486.762,1205.209C472.128,1221.584,442.86,1254.334,421.371,1276.368C399.882,1298.402,386.172,1309.72,379.317,1315.379L372.462,1321.038" id="g79bc4871-3fb9-4c11-8b86-b9f3590e6b63-light-L_siteQ_site_0" class="edge-thickness-normal edge-pattern-solid edge-thickness-normal edge-pattern-solid flowchart-link" style=";" data-edge="true" data-et="edge" data-id="L_siteQ_site_0" data-points="W3sieCI6NTAxLjM5NTc5NjQzNzU3MiwieSI6MTE4OC44MzQwOTc1MjM5OTh9LHsieCI6NDEzLjU5MTQwMDE0NjQ4NDQsInkiOjEyODcuMDg0Mzg4NzMyOTEwMn0seyJ4IjozNjkuMzc3MjQ0NjQwNTMyLCJ5IjoxMzIzLjU4NDM4ODczMjkxMDJ9XQ==" data-look="classic" marker-end="url(#g79bc4871-3fb9-4c11-8b86-b9f3590e6b63-light_flowchart-v2-pointEnd)"></path><path d="M578.57,1235.16L579.727,1243.814C580.883,1252.468,583.196,1269.776,584.353,1291.18C585.509,1312.584,585.509,1338.084,585.509,1350.834L585.509,1363.584" id="g79bc4871-3fb9-4c11-8b86-b9f3590e6b63-light-L_siteQ_coreOnly_0" class="edge-thickness-normal edge-pattern-solid edge-thickness-normal edge-pattern-solid flowchart-link" style=";" data-edge="true" data-et="edge" data-id="L_siteQ_coreOnly_0" data-points="W3sieCI6NTc4LjU3MDQ4ODQ1NTIwMTcsInkiOjEyMzUuMTU5OTg3OTI0MTkzfSx7IngiOjU4NS41MDkzNjg4OTY0ODQ0LCJ5IjoxMjg3LjA4NDM4ODczMjkxMDJ9LHsieCI6NTg1LjUwOTM2ODg5NjQ4NDQsInkiOjEzNjcuNTg0Mzg4NzMyOTEwMn1d" data-look="classic" marker-end="url(#g79bc4871-3fb9-4c11-8b86-b9f3590e6b63-light_flowchart-v2-pointEnd)"></path></g><g class="edgeLabels"><g class="edgeLabel"><g class="label" data-id="L_start_docsQ_0" transform="translate(0, 0)"><text y="-10.1" text-anchor="middle"><tspan class="text-outer-tspan row" x="0" y="-0.1em" dy="1.1em" text-anchor="middle"></tspan></text></g></g><g><rect class="background" style="stroke: none"></rect></g><g class="edgeLabel" transform="translate(124.9296875, 398.8000183105469)"><g class="label" data-id="L_docsQ_docs_0" transform="translate(0, -10.5)"><g><rect class="background" style="" x="-13.328125" y="-1" width="26.65625" height="23"></rect><text y="-10.1" text-anchor="middle" style=""><tspan class="text-outer-tspan row" x="0" y="-0.1em" dy="1.1em" text-anchor="middle"><tspan font-style="normal" class="text-inner-tspan" font-weight="normal">Yes</tspan></tspan></text></g></g></g><g class="edgeLabel" transform="translate(435.9546813964844, 398.8000183105469)"><g class="label" data-id="L_docsQ_hostQ_0" transform="translate(0, -10.5)"><g><rect class="background" style="" x="-11.3984375" y="-1" width="22.796875" height="23"></rect><text y="-10.1" text-anchor="middle" style=""><tspan class="text-outer-tspan row" x="0" y="-0.1em" dy="1.1em" text-anchor="middle"><tspan font-style="normal" class="text-inner-tspan" font-weight="normal">No</tspan></tspan></text></g></g></g><g class="edgeLabel" transform="translate(563.1460876464844, 759.9906311035156)"><g class="label" data-id="L_hostQ_core_0" transform="translate(0, -10.5)"><g><rect class="background" style="" x="-13.328125" y="-1" width="26.65625" height="23"></rect><text y="-10.1" text-anchor="middle" style=""><tspan class="text-outer-tspan row" x="0" y="-0.1em" dy="1.1em" text-anchor="middle"><tspan font-style="normal" class="text-inner-tspan" font-weight="normal">Yes</tspan></tspan></text></g></g></g><g class="edgeLabel" transform="translate(269.7359313964844, 952.3906326293945)"><g class="label" data-id="L_hostQ_site_0" transform="translate(0, -10.5)"><g><rect class="background" style="" x="-11.3984375" y="-1" width="22.796875" height="23"></rect><text y="-10.1" text-anchor="middle" style=""><tspan class="text-outer-tspan row" x="0" y="-0.1em" dy="1.1em" text-anchor="middle"><tspan font-style="normal" class="text-inner-tspan" font-weight="normal">No</tspan></tspan></text></g></g></g><g class="edgeLabel"><g class="label" data-id="L_core_siteQ_0" transform="translate(0, 0)"><text y="-10.1" text-anchor="middle"><tspan class="text-outer-tspan row" x="0" y="-0.1em" dy="1.1em" text-anchor="middle"></tspan></text></g></g><g><rect class="background" style="stroke: none"></rect></g><g class="edgeLabel" transform="translate(438.39126, 1259.33414)"><g class="label" data-id="L_siteQ_site_0" transform="translate(0, -10.5)"><g><rect class="background" style="" x="-13.328125" y="-1" width="26.65625" height="23"></rect><text y="-10.1" text-anchor="middle" style=""><tspan class="text-outer-tspan row" x="0" y="-0.1em" dy="1.1em" text-anchor="middle"><tspan font-style="normal" class="text-inner-tspan" font-weight="normal">Yes</tspan></tspan></text></g></g></g><g class="edgeLabel" transform="translate(585.5093688964844, 1287.0843887329102)"><g class="label" data-id="L_siteQ_coreOnly_0" transform="translate(0, -10.5)"><g><rect class="background" style="" x="-11.3984375" y="-1" width="22.796875" height="23"></rect><text y="-10.1" text-anchor="middle" style=""><tspan class="text-outer-tspan row" x="0" y="-0.1em" dy="1.1em" text-anchor="middle"><tspan font-style="normal" class="text-inner-tspan" font-weight="normal">No</tspan></tspan></text></g></g></g></g><g class="nodes"><g class="node default" id="g79bc4871-3fb9-4c11-8b86-b9f3590e6b63-light-flowchart-start-0" data-look="classic" transform="translate(280.4421844482422, 25)"><g class="basic label-container outer-path"><path d="M-30.875 -17 C-17.42262944859879 -17, -3.970258897197578 -17, 30.875 -17 C30.875 -17, 30.875 -17, 30.875 -17 C31.293916839850656 -16.98656615231815, 31.71283367970131 -16.973132304636305, 31.96419373967212 -16.965071676755716 C32.36208500307633 -16.92668758510937, 32.759976266480535 -16.888303493463024, 33.0489117486366 -16.860430234995185 C33.31081104222709 -16.81808838826683, 33.572710335817575 -16.775746541538478, 34.124696687923326 -16.686505668848113 C34.34687989170361 -16.635793802466168, 34.56906309548389 -16.58508193608422, 35.18712792646162 -16.4440126716635 C35.4153127158765 -16.376288623931565, 35.64349750529139 -16.30856457619963, 36.23183970640155 -16.133947699181366 C36.44673811462697 -16.054863098455304, 36.661636522852376 -15.975778497729243, 37.25453908294936 -15.757584874882369 C37.6290735019867 -15.591789597743333, 38.003607921024056 -15.425994320604296, 38.25102356499849 -15.316470754341125 C38.63121300510715 -15.118126166959398, 39.01140244521581 -14.919781579577668, 39.21719838406694 -14.812417970097622 C39.577532453460876 -14.593981339672979, 39.93786652285482 -14.375544709248334, 40.149093320579325 -14.247497783161291 C40.493429299267774 -14.007303910492505, 40.83776527795622 -13.76711003782372, 41.042879018350675 -13.624031571755262 C41.37501872949131 -13.359158990729519, 41.70715844063194 -13.094286409703777, 41.8948827202324 -12.944581292275288 C42.142655340876985 -12.719560753910176, 42.39042796152157 -12.494540215545067, 42.70160336025927 -12.21193895166137 C42.95484575314314 -11.950445389421645, 43.20808814602701 -11.68895182718192, 43.45972595028036 -11.42911513444239 C43.642310200964204 -11.214641284250963, 43.824894451648056 -11.000167434059536, 44.16613520195651 -10.59932663159847 C44.36326967587925 -10.335184395862022, 44.560404149802004 -10.071042160125575, 44.81792832814825 -9.725983222076888 C44.97411255644778 -9.486042306071171, 45.1302967847473 -9.246101390065457, 45.41242697109088 -8.812673661278927 C45.59911833135946 -8.481184246571901, 45.78580969162804 -8.149694831864876, 45.947188208341004 -7.863150934094199 C46.04315335634412 -7.6638772509404935, 46.13911850434724 -7.464603567786789, 46.42001459126881 -6.881316833080699 C46.58267552255554 -6.479541187967318, 46.74533645384226 -6.077765542853938, 46.828963174845924 -5.871205925162238 C46.93473021511818 -5.552652451551567, 47.04049725539044 -5.234098977940896, 47.172353501623235 -4.836968972727556 C47.263523755698145 -4.489297280501849, 47.354694009773056 -4.141625588276142, 47.448774507091 -3.7828558772573464 C47.51371783219495 -3.449385628625209, 47.57866115729889 -3.1159153799930723, 47.65709031804565 -2.713198215567453 C47.708347817382446 -2.315655172649345, 47.759605316719245 -1.9181121297312373, 47.796444920136366 -1.632391440430593 C47.81585557054153 -1.330054892375213, 47.83526622094669 -1.0277183443198328, 47.8662656754117 -0.5448768187181379 C47.8662656754117 -0.1756374883876854, 47.8662656754117 0.19360184194276708, 47.8662656754117 0.5448768187181336 C47.8471406363226 0.8427647399845071, 47.8280155972335 1.1406526612508805, 47.796444920136366 1.6323914404305815 C47.748625654874886 2.003268218816666, 47.7008063896134 2.3741449972027504, 47.657090318045654 2.7131982155674415 C47.59574227196902 3.02820746625681, 47.53439422589239 3.343216716946179, 47.448774507091 3.782855877257343 C47.37105176082759 4.079246394011058, 47.29332901456417 4.375636910764772, 47.172353501623235 4.836968972727545 C47.06631678053564 5.156334681986211, 46.960280059448046 5.475700391244877, 46.828963174845924 5.871205925162227 C46.70388057958095 6.180162353774181, 46.578797984315976 6.489118782386134, 46.42001459126881 6.881316833080694 C46.29730458353809 7.136126789707089, 46.174594575807376 7.390936746333483, 45.947188208341004 7.863150934094196 C45.78679024884455 8.14795375323478, 45.6263922893481 8.432756572375364, 45.41242697109089 8.812673661278923 C45.25816587749444 9.049660125946735, 45.10390478389799 9.286646590614545, 44.817928328148255 9.725983222076879 C44.68414897882729 9.90523536261753, 44.55036962950632 10.084487503158181, 44.16613520195651 10.599326631598467 C43.914426340332156 10.894998183102398, 43.66271747870781 11.19066973460633, 43.45972595028037 11.42911513444238 C43.258569500887425 11.636825683692237, 43.05741305149447 11.844536232942092, 42.70160336025927 12.211938951661365 C42.48252899387045 12.41089649482559, 42.26345462748163 12.609854037989814, 41.89488272023242 12.944581292275275 C41.65678184478133 13.134460404317123, 41.41868096933024 13.32433951635897, 41.042879018350675 13.62403157175526 C40.80697128820636 13.788590592022887, 40.57106355806205 13.953149612290515, 40.14909332057934 14.247497783161286 C39.81654531788725 14.449090336662216, 39.48399731519516 14.650682890163145, 39.21719838406695 14.81241797009762 C38.981458276284506 14.935403433328972, 38.74571816850207 15.058388896560322, 38.25102356499849 15.316470754341124 C38.03097288268391 15.41388066383022, 37.81092220036934 15.511290573319318, 37.254539082949364 15.757584874882367 C36.97390522343927 15.860860729333043, 36.69327136392917 15.964136583783718, 36.23183970640156 16.133947699181363 C35.98045023423091 16.208558774951346, 35.729060762060264 16.28316985072133, 35.18712792646164 16.444012671663497 C34.87533627829207 16.51517708072755, 34.563544630122486 16.586341489791607, 34.12469668792333 16.68650566884811 C33.795452773151844 16.739735271663672, 33.466208858380355 16.79296487447923, 33.04891174863661 16.86043023499518 C32.81866078846689 16.882642268205462, 32.588409828297166 16.90485430141574, 31.96419373967212 16.965071676755716 C31.727619268744558 16.97265815957409, 31.491044797816997 16.980244642392464, 30.875000000000004 17 C30.875000000000004 17, 30.875000000000004 17, 30.875 17 C13.386381001838167 17, -4.102237996323666 17, -30.874999999999996 17 C-31.1708553160239 16.99051249586255, -31.466710632047803 16.981024991725103, -31.964193739672112 16.965071676755716 C-32.36738693596263 16.926176114020333, -32.77058013225314 16.887280551284952, -33.048911748636606 16.86043023499518 C-33.396467161467434 16.804240171181174, -33.744022574298256 16.748050107367167, -34.124696687923326 16.68650566884811 C-34.38560639854132 16.62695472999453, -34.64651610915931 16.56740379114095, -35.18712792646162 16.4440126716635 C-35.543682769009926 16.338189065989724, -35.90023761155823 16.232365460315947, -36.231839706401544 16.13394769918137 C-36.61825213405518 15.991744353847507, -37.00466456170882 15.849541008513642, -37.254539082949364 15.757584874882369 C-37.633218659909325 15.589954659292733, -38.01189823686928 15.422324443703095, -38.25102356499848 15.316470754341127 C-38.60705916437613 15.130727210197495, -38.96309476375377 14.944983666053862, -39.21719838406693 14.812417970097624 C-39.503231385861 14.639023083493564, -39.78926438765507 14.465628196889503, -40.14909332057932 14.247497783161299 C-40.50162652604696 14.001585879943569, -40.85415973151461 13.75567397672584, -41.04287901835067 13.624031571755264 C-41.298142481289055 13.420465752907933, -41.55340594422744 13.216899934060603, -41.8948827202324 12.94458129227529 C-42.20345682193855 12.664342457529097, -42.51203092364471 12.384103622782902, -42.70160336025926 12.211938951661377 C-42.973054420300166 11.93164344562264, -43.244505480341076 11.651347939583903, -43.459725950280365 11.429115134442386 C-43.63648458590378 11.221484383187828, -43.813243221527195 11.013853631933273, -44.16613520195651 10.599326631598473 C-44.403409536347276 10.281400639651396, -44.64068387073804 9.96347464770432, -44.81792832814825 9.72598322207689 C-45.022859198767684 9.411154373161514, -45.227790069387126 9.096325524246138, -45.41242697109088 8.812673661278936 C-45.531779187493036 8.600751715334466, -45.65113140389519 8.388829769389996, -45.947188208341004 7.863150934094201 C-46.07775277172585 7.592030824591446, -46.20831733511069 7.320910715088691, -46.42001459126881 6.881316833080701 C-46.523840575037276 6.624864645833759, -46.627666558805736 6.368412458586816, -46.828963174845924 5.87120592516224 C-46.90977786186886 5.627804963920939, -46.99059254889179 5.384404002679638, -47.172353501623235 4.8369689727275516 C-47.25156830441511 4.5348885977694415, -47.330783107206976 4.232808222811332, -47.448774507091 3.782855877257349 C-47.500179892119895 3.518900089665938, -47.551585277148796 3.254944302074527, -47.65709031804565 2.713198215567455 C-47.68733836050094 2.478600371435795, -47.717586402956236 2.244002527304135, -47.796444920136366 1.6323914404306026 C-47.810736995371045 1.4097808322950542, -47.825029070605716 1.1871702241595061, -47.8662656754117 0.54487681871814 C-47.8662656754117 0.31797074995232166, -47.8662656754117 0.09106468118650335, -47.8662656754117 -0.5448768187181317 C-47.84291589458238 -0.9085685027385437, -47.81956611375306 -1.272260186758956, -47.796444920136366 -1.6323914404305793 C-47.76080238978153 -1.9088278674490031, -47.72515985942669 -2.185264294467427, -47.657090318045654 -2.713198215567447 C-47.589075026315165 -3.062442363566501, -47.52105973458468 -3.411686511565555, -47.448774507091 -3.782855877257341 C-47.375577382189036 -4.06198823834316, -47.30238025728706 -4.3411205994289785, -47.172353501623235 -4.836968972727544 C-47.05034275416677 -5.204445904293788, -46.9283320067103 -5.571922835860033, -46.82896317484593 -5.871205925162218 C-46.66619294090855 -6.273251549935936, -46.503422706971165 -6.675297174709655, -46.42001459126881 -6.881316833080692 C-46.3160337052676 -7.097235367696751, -46.2120528192664 -7.313153902312809, -45.947188208341004 -7.863150934094194 C-45.81897350840249 -8.090809116981237, -45.690758808463976 -8.318467299868281, -45.41242697109088 -8.812673661278929 C-45.27818768975476 -9.018901245705486, -45.14394840841864 -9.225128830132043, -44.81792832814825 -9.725983222076884 C-44.66937618792006 -9.925029556604276, -44.52082404769187 -10.12407589113167, -44.16613520195651 -10.599326631598467 C-43.947726369899875 -10.8558820735468, -43.72931753784324 -11.112437515495133, -43.45972595028037 -11.42911513444238 C-43.30150804559995 -11.592488110956467, -43.14329014091953 -11.755861087470555, -42.70160336025928 -12.21193895166136 C-42.5273715433294 -12.370171677875815, -42.35313972639952 -12.528404404090272, -41.89488272023242 -12.944581292275274 C-41.58107097639514 -13.194837807104284, -41.26725923255786 -13.445094321933293, -41.042879018350675 -13.624031571755259 C-40.76399446563301 -13.81856936301339, -40.485109912915355 -14.013107154271522, -40.14909332057934 -14.247497783161284 C-39.88596258328411 -14.407009182437506, -39.622831845988884 -14.566520581713725, -39.21719838406695 -14.812417970097618 C-39.00644902958377 -14.922365773340088, -38.795699675100586 -15.03231357658256, -38.25102356499849 -15.316470754341124 C-37.972229958567816 -15.439884413789486, -37.69343635213715 -15.563298073237846, -37.25453908294937 -15.757584874882365 C-36.905852287282876 -15.885904838913042, -36.55716549161638 -16.01422480294372, -36.231839706401566 -16.133947699181363 C-35.993790155671775 -16.204599556290372, -35.75574060494199 -16.275251413399385, -35.18712792646164 -16.444012671663494 C-34.80600243097966 -16.531002078930968, -34.42487693549768 -16.617991486198445, -34.12469668792333 -16.68650566884811 C-33.82222267921014 -16.735407320855888, -33.519748670496945 -16.784308972863666, -33.04891174863661 -16.86043023499518 C-32.65235569741427 -16.898685520328172, -32.25579964619194 -16.936940805661163, -31.96419373967212 -16.965071676755716 C-31.64093661268403 -16.975437903636397, -31.31767948569594 -16.985804130517078, -30.875000000000004 -17 C-30.875000000000004 -17, -30.875 -17, -30.875 -17" stroke="none" stroke-width="0" fill="#ECECFF" style=""></path><path d="M-30.875 -17 C-14.216218137913408 -17, 2.4425637241731835 -17, 30.875 -17 M-30.875 -17 C-11.648589762064134 -17, 7.577820475871732 -17, 30.875 -17 M30.875 -17 C30.875 -17, 30.875 -17, 30.875 -17 M30.875 -17 C30.875 -17, 30.875 -17, 30.875 -17 M30.875 -17 C31.28050053678994 -16.98699638704406, 31.68600107357988 -16.97399277408812, 31.96419373967212 -16.965071676755716 M30.875 -17 C31.271534667255057 -16.987283905029038, 31.66806933451012 -16.974567810058073, 31.96419373967212 -16.965071676755716 M31.96419373967212 -16.965071676755716 C32.380774947716674 -16.92488458862786, 32.797356155761236 -16.884697500500007, 33.0489117486366 -16.860430234995185 M31.96419373967212 -16.965071676755716 C32.33144473711173 -16.92964341471666, 32.698695734551336 -16.89421515267761, 33.0489117486366 -16.860430234995185 M33.0489117486366 -16.860430234995185 C33.29368422720893 -16.820857318898533, 33.53845670578126 -16.78128440280188, 34.124696687923326 -16.686505668848113 M33.0489117486366 -16.860430234995185 C33.39473891096502 -16.804519581319624, 33.74056607329343 -16.748608927644067, 34.124696687923326 -16.686505668848113 M34.124696687923326 -16.686505668848113 C34.440706918791726 -16.614378395811876, 34.75671714966012 -16.54225112277564, 35.18712792646162 -16.4440126716635 M34.124696687923326 -16.686505668848113 C34.38120347525019 -16.627959668503973, 34.63771026257706 -16.569413668159836, 35.18712792646162 -16.4440126716635 M35.18712792646162 -16.4440126716635 C35.45653558361286 -16.364053893170663, 35.7259432407641 -16.28409511467782, 36.23183970640155 -16.133947699181366 M35.18712792646162 -16.4440126716635 C35.48346679893074 -16.35606084982915, 35.77980567139987 -16.268109027994797, 36.23183970640155 -16.133947699181366 M36.23183970640155 -16.133947699181366 C36.6226931104263 -15.990110033491, 37.01354651445104 -15.846272367800632, 37.25453908294936 -15.757584874882369 M36.23183970640155 -16.133947699181366 C36.464988293072075 -16.048146864084703, 36.69813687974259 -15.962346028988042, 37.25453908294936 -15.757584874882369 M37.25453908294936 -15.757584874882369 C37.557416830644215 -15.62350988052702, 37.860294578339065 -15.489434886171674, 38.25102356499849 -15.316470754341125 M37.25453908294936 -15.757584874882369 C37.46183833866602 -15.665819643690538, 37.66913759438268 -15.574054412498707, 38.25102356499849 -15.316470754341125 M38.25102356499849 -15.316470754341125 C38.46981283745342 -15.202328531042607, 38.688602109908345 -15.088186307744088, 39.21719838406694 -14.812417970097622 M38.25102356499849 -15.316470754341125 C38.47077876965009 -15.201824604834314, 38.69053397430169 -15.087178455327502, 39.21719838406694 -14.812417970097622 M39.21719838406694 -14.812417970097622 C39.559723249643014 -14.60477738368587, 39.90224811521908 -14.397136797274115, 40.149093320579325 -14.247497783161291 M39.21719838406694 -14.812417970097622 C39.566854392359055 -14.600454443064157, 39.91651040065117 -14.388490916030692, 40.149093320579325 -14.247497783161291 M40.149093320579325 -14.247497783161291 C40.33695294219277 -14.116455043435709, 40.5248125638062 -13.985412303710124, 41.042879018350675 -13.624031571755262 M40.149093320579325 -14.247497783161291 C40.41878748437874 -14.059370809367007, 40.688481648178154 -13.871243835572722, 41.042879018350675 -13.624031571755262 M41.042879018350675 -13.624031571755262 C41.2243620243908 -13.479303703903879, 41.405845030430925 -13.334575836052494, 41.8948827202324 -12.944581292275288 M41.042879018350675 -13.624031571755262 C41.2897712377219 -13.427141596884596, 41.53666345709312 -13.230251622013927, 41.8948827202324 -12.944581292275288 M41.8948827202324 -12.944581292275288 C42.18784337758284 -12.67852217458386, 42.480804034933264 -12.412463056892431, 42.70160336025927 -12.21193895166137 M41.8948827202324 -12.944581292275288 C42.061025025827625 -12.793695246218228, 42.22716733142284 -12.642809200161167, 42.70160336025927 -12.21193895166137 M42.70160336025927 -12.21193895166137 C42.87909126349594 -12.028668119541654, 43.0565791667326 -11.845397287421939, 43.45972595028036 -11.42911513444239 M42.70160336025927 -12.21193895166137 C42.99226239048707 -11.911809639400982, 43.28292142071487 -11.611680327140594, 43.45972595028036 -11.42911513444239 M43.45972595028036 -11.42911513444239 C43.626998249691255 -11.232627573490879, 43.79427054910215 -11.03614001253937, 44.16613520195651 -10.59932663159847 M43.45972595028036 -11.42911513444239 C43.72366795677649 -11.119073834886406, 43.98760996327262 -10.809032535330422, 44.16613520195651 -10.59932663159847 M44.16613520195651 -10.59932663159847 C44.383071606825666 -10.30865161238685, 44.600008011694825 -10.017976593175229, 44.81792832814825 -9.725983222076888 M44.16613520195651 -10.59932663159847 C44.400706730966945 -10.285022152630399, 44.63527825997738 -9.970717673662326, 44.81792832814825 -9.725983222076888 M44.81792832814825 -9.725983222076888 C44.959540296520174 -9.508429210519658, 45.1011522648921 -9.29087519896243, 45.41242697109088 -8.812673661278927 M44.81792832814825 -9.725983222076888 C44.96641019195803 -9.497875206301885, 45.11489205576782 -9.269767190526881, 45.41242697109088 -8.812673661278927 M45.41242697109088 -8.812673661278927 C45.55318455754115 -8.562744313285274, 45.69394214399143 -8.312814965291619, 45.947188208341004 -7.863150934094199 M45.41242697109088 -8.812673661278927 C45.5233090095176 -8.615791374028376, 45.63419104794431 -8.418909086777825, 45.947188208341004 -7.863150934094199 M45.947188208341004 -7.863150934094199 C46.089827598625675 -7.566957188174045, 46.232466988910346 -7.270763442253891, 46.42001459126881 -6.881316833080699 M45.947188208341004 -7.863150934094199 C46.04879973655455 -7.6521524216203565, 46.150411264768096 -7.441153909146513, 46.42001459126881 -6.881316833080699 M46.42001459126881 -6.881316833080699 C46.53674744132008 -6.59298443657794, 46.65348029137135 -6.304652040075182, 46.828963174845924 -5.871205925162238 M46.42001459126881 -6.881316833080699 C46.56742675904204 -6.5172059286604345, 46.714838926815275 -6.153095024240169, 46.828963174845924 -5.871205925162238 M46.828963174845924 -5.871205925162238 C46.90063058963195 -5.655355090478587, 46.97229800441798 -5.439504255794937, 47.172353501623235 -4.836968972727556 M46.828963174845924 -5.871205925162238 C46.92510387697651 -5.581645448285594, 47.02124457910709 -5.2920849714089515, 47.172353501623235 -4.836968972727556 M47.172353501623235 -4.836968972727556 C47.2324953433783 -4.607622064476393, 47.292637185133366 -4.3782751562252304, 47.448774507091 -3.7828558772573464 M47.172353501623235 -4.836968972727556 C47.24067066200669 -4.576446031340807, 47.30898782239016 -4.315923089954059, 47.448774507091 -3.7828558772573464 M47.448774507091 -3.7828558772573464 C47.50080237888909 -3.51570375166875, 47.55283025068718 -3.2485516260801544, 47.65709031804565 -2.713198215567453 M47.448774507091 -3.7828558772573464 C47.50979419914849 -3.4695326550586385, 47.57081389120597 -3.1562094328599306, 47.65709031804565 -2.713198215567453 M47.65709031804565 -2.713198215567453 C47.693881545714746 -2.427852719015606, 47.73067277338384 -2.142507222463759, 47.796444920136366 -1.632391440430593 M47.65709031804565 -2.713198215567453 C47.68801083810755 -2.4733847679146113, 47.71893135816946 -2.2335713202617695, 47.796444920136366 -1.632391440430593 M47.796444920136366 -1.632391440430593 C47.82024548145714 -1.2616784863922141, 47.84404604277792 -0.8909655323538354, 47.8662656754117 -0.5448768187181379 M47.796444920136366 -1.632391440430593 C47.82321097819106 -1.2154884810555784, 47.849977036245754 -0.7985855216805638, 47.8662656754117 -0.5448768187181379 M47.8662656754117 -0.5448768187181379 C47.8662656754117 -0.1661110368544531, 47.8662656754117 0.21265474500923165, 47.8662656754117 0.5448768187181336 M47.8662656754117 -0.5448768187181379 C47.8662656754117 -0.2313683252777628, 47.8662656754117 0.08214016816261227, 47.8662656754117 0.5448768187181336 M47.8662656754117 0.5448768187181336 C47.84077883173485 0.9418549815949204, 47.815291988058 1.3388331444717072, 47.796444920136366 1.6323914404305815 M47.8662656754117 0.5448768187181336 C47.839250572937885 0.9656588459458952, 47.81223547046408 1.3864408731736568, 47.796444920136366 1.6323914404305815 M47.796444920136366 1.6323914404305815 C47.75857085353659 1.9261352218980914, 47.720696786936806 2.2198790033656013, 47.657090318045654 2.7131982155674415 M47.796444920136366 1.6323914404305815 C47.76034053779473 1.9124099002555741, 47.724236155453106 2.1924283600805667, 47.657090318045654 2.7131982155674415 M47.657090318045654 2.7131982155674415 C47.599479198946355 3.0090191360280167, 47.541868079847056 3.3048400564885925, 47.448774507091 3.782855877257343 M47.657090318045654 2.7131982155674415 C47.583278160992144 3.09220804183229, 47.509466003938634 3.4712178680971384, 47.448774507091 3.782855877257343 M47.448774507091 3.782855877257343 C47.389651074418275 4.0083191502962565, 47.330527641745554 4.233782423335169, 47.172353501623235 4.836968972727545 M47.448774507091 3.782855877257343 C47.35669815438797 4.133982916257698, 47.26462180168494 4.485109955258052, 47.172353501623235 4.836968972727545 M47.172353501623235 4.836968972727545 C47.04064345330715 5.233658653109238, 46.90893340499106 5.630348333490931, 46.828963174845924 5.871205925162227 M47.172353501623235 4.836968972727545 C47.03691067979019 5.244901172205612, 46.90146785795715 5.65283337168368, 46.828963174845924 5.871205925162227 M46.828963174845924 5.871205925162227 C46.67909897668192 6.24137339205448, 46.52923477851792 6.611540858946733, 46.42001459126881 6.881316833080694 M46.828963174845924 5.871205925162227 C46.687343529542986 6.2210091870900595, 46.54572388424005 6.570812449017893, 46.42001459126881 6.881316833080694 M46.42001459126881 6.881316833080694 C46.29614980488403 7.138524712290553, 46.17228501849925 7.395732591500411, 45.947188208341004 7.863150934094196 M46.42001459126881 6.881316833080694 C46.26363266702429 7.206047244811599, 46.10725074277977 7.530777656542504, 45.947188208341004 7.863150934094196 M45.947188208341004 7.863150934094196 C45.77943126957579 8.161020366103921, 45.61167433081057 8.458889798113647, 45.41242697109089 8.812673661278923 M45.947188208341004 7.863150934094196 C45.81776234379761 8.092959662380919, 45.68833647925422 8.32276839066764, 45.41242697109089 8.812673661278923 M45.41242697109089 8.812673661278923 C45.2886309425351 9.002857605028865, 45.16483491397931 9.193041548778808, 44.817928328148255 9.725983222076879 M45.41242697109089 8.812673661278923 C45.28357046610334 9.010631855756234, 45.154713961115796 9.208590050233544, 44.817928328148255 9.725983222076879 M44.817928328148255 9.725983222076879 C44.60415051635014 10.012426014327048, 44.39037270455202 10.298868806577218, 44.16613520195651 10.599326631598467 M44.817928328148255 9.725983222076879 C44.640525471591495 9.963686888130223, 44.46312261503474 10.201390554183565, 44.16613520195651 10.599326631598467 M44.16613520195651 10.599326631598467 C43.99142512653022 10.804551027479103, 43.81671505110393 11.009775423359741, 43.45972595028037 11.42911513444238 M44.16613520195651 10.599326631598467 C43.90093793733108 10.910842428779343, 43.635740672705644 11.222358225960217, 43.45972595028037 11.42911513444238 M43.45972595028037 11.42911513444238 C43.19944329305394 11.697878347632251, 42.939160635827506 11.96664156082212, 42.70160336025927 12.211938951661365 M43.45972595028037 11.42911513444238 C43.246912132566734 11.648862873571082, 43.034098314853104 11.868610612699783, 42.70160336025927 12.211938951661365 M42.70160336025927 12.211938951661365 C42.42952913845285 12.459029561216523, 42.15745491664643 12.706120170771683, 41.89488272023242 12.944581292275275 M42.70160336025927 12.211938951661365 C42.44274522412164 12.447027061890598, 42.183887087984004 12.68211517211983, 41.89488272023242 12.944581292275275 M41.89488272023242 12.944581292275275 C41.58949610581094 13.188118990597298, 41.28410949138946 13.431656688919318, 41.042879018350675 13.62403157175526 M41.89488272023242 12.944581292275275 C41.598105823475095 13.181252969874343, 41.301328926717765 13.41792464747341, 41.042879018350675 13.62403157175526 M41.042879018350675 13.62403157175526 C40.79686946746934 13.79563718486826, 40.55085991658802 13.96724279798126, 40.14909332057934 14.247497783161286 M41.042879018350675 13.62403157175526 C40.85018720185213 13.758445041450353, 40.65749538535358 13.892858511145445, 40.14909332057934 14.247497783161286 M40.14909332057934 14.247497783161286 C39.78010535239415 14.471180457889137, 39.41111738420897 14.69486313261699, 39.21719838406695 14.81241797009762 M40.14909332057934 14.247497783161286 C39.88709297068551 14.406323934951883, 39.62509262079168 14.565150086742483, 39.21719838406695 14.81241797009762 M39.21719838406695 14.81241797009762 C39.00531595913386 14.922956895468038, 38.79343353420078 15.033495820838457, 38.25102356499849 15.316470754341124 M39.21719838406695 14.81241797009762 C38.9225505702075 14.966135545857162, 38.62790275634805 15.119853121616705, 38.25102356499849 15.316470754341124 M38.25102356499849 15.316470754341124 C37.9469326481036 15.451082782713943, 37.642841731208705 15.585694811086762, 37.254539082949364 15.757584874882367 M38.25102356499849 15.316470754341124 C37.91578629289649 15.464870350240329, 37.580549020794486 15.613269946139535, 37.254539082949364 15.757584874882367 M37.254539082949364 15.757584874882367 C37.01491157460062 15.845770013047112, 36.77528406625187 15.933955151211855, 36.23183970640156 16.133947699181363 M37.254539082949364 15.757584874882367 C37.02088803074128 15.843570621941591, 36.787236978533194 15.929556369000817, 36.23183970640156 16.133947699181363 M36.23183970640156 16.133947699181363 C35.9532870231616 16.216620673414113, 35.674734339921635 16.299293647646863, 35.18712792646164 16.444012671663497 M36.23183970640156 16.133947699181363 C35.867165150855186 16.242181193051724, 35.502490595308814 16.350414686922083, 35.18712792646164 16.444012671663497 M35.18712792646164 16.444012671663497 C34.78950623682867 16.53476722759821, 34.3918845471957 16.625521783532918, 34.12469668792333 16.68650566884811 M35.18712792646164 16.444012671663497 C34.87492871075344 16.515270105358617, 34.56272949504524 16.586527539053737, 34.12469668792333 16.68650566884811 M34.12469668792333 16.68650566884811 C33.88237726559425 16.72568199383509, 33.64005784326516 16.76485831882207, 33.04891174863661 16.86043023499518 M34.12469668792333 16.68650566884811 C33.705555813578755 16.754269114926114, 33.28641493923418 16.822032561004118, 33.04891174863661 16.86043023499518 M33.04891174863661 16.86043023499518 C32.61751391508489 16.902046665166115, 32.186116081533164 16.943663095337048, 31.96419373967212 16.965071676755716 M33.04891174863661 16.86043023499518 C32.822654243047296 16.88225702444492, 32.59639673745798 16.90408381389466, 31.96419373967212 16.965071676755716 M31.96419373967212 16.965071676755716 C31.746275426970744 16.972059892891785, 31.528357114269372 16.979048109027854, 30.875000000000004 17 M31.96419373967212 16.965071676755716 C31.57892933571286 16.977426356319018, 31.1936649317536 16.989781035882324, 30.875000000000004 17 M30.875000000000004 17 C30.875000000000004 17, 30.875 17, 30.875 17 M30.875000000000004 17 C30.875000000000004 17, 30.875 17, 30.875 17 M30.875 17 C14.38211808683629 17, -2.110763826327421 17, -30.874999999999996 17 M30.875 17 C6.303767108544427 17, -18.267465782911145 17, -30.874999999999996 17 M-30.874999999999996 17 C-31.155294093799327 16.991011513971213, -31.435588187598654 16.98202302794242, -31.964193739672112 16.965071676755716 M-30.874999999999996 17 C-31.212303253323004 16.989183341186884, -31.549606506646008 16.978366682373768, -31.964193739672112 16.965071676755716 M-31.964193739672112 16.965071676755716 C-32.324424314882435 16.930320666405827, -32.684654890092766 16.89556965605594, -33.048911748636606 16.86043023499518 M-31.964193739672112 16.965071676755716 C-32.3074777760396 16.9319554786268, -32.65076181240708 16.89883928049789, -33.048911748636606 16.86043023499518 M-33.048911748636606 16.86043023499518 C-33.38980092166127 16.805317917135575, -33.730690094685926 16.750205599275965, -34.124696687923326 16.68650566884811 M-33.048911748636606 16.86043023499518 C-33.34619250268583 16.812368188127184, -33.64347325673505 16.764306141259183, -34.124696687923326 16.68650566884811 M-34.124696687923326 16.68650566884811 C-34.42195470648086 16.618658465902207, -34.71921272503839 16.550811262956305, -35.18712792646162 16.4440126716635 M-34.124696687923326 16.68650566884811 C-34.35429595500641 16.634101134411637, -34.58389522208949 16.58169659997516, -35.18712792646162 16.4440126716635 M-35.18712792646162 16.4440126716635 C-35.46924783486289 16.36028096372762, -35.751367743264154 16.276549255791746, -36.231839706401544 16.13394769918137 M-35.18712792646162 16.4440126716635 C-35.48160629492503 16.35661303765206, -35.77608466338844 16.26921340364062, -36.231839706401544 16.13394769918137 M-36.231839706401544 16.13394769918137 C-36.53321882847658 16.023037396339692, -36.83459795055161 15.912127093498015, -37.254539082949364 15.757584874882369 M-36.231839706401544 16.13394769918137 C-36.48623798632517 16.040326780537555, -36.7406362662488 15.946705861893738, -37.254539082949364 15.757584874882369 M-37.254539082949364 15.757584874882369 C-37.5544866472799 15.624806985781602, -37.85443421161044 15.492029096680836, -38.25102356499848 15.316470754341127 M-37.254539082949364 15.757584874882369 C-37.6469528303142 15.583874949464182, -38.03936657767904 15.410165024045995, -38.25102356499848 15.316470754341127 M-38.25102356499848 15.316470754341127 C-38.56692845060476 15.151663377867067, -38.88283333621105 14.986856001393004, -39.21719838406693 14.812417970097624 M-38.25102356499848 15.316470754341127 C-38.60564552689351 15.1314647039667, -38.96026748878854 14.94645865359227, -39.21719838406693 14.812417970097624 M-39.21719838406693 14.812417970097624 C-39.478084711935146 14.654267145005676, -39.73897103980336 14.496116319913728, -40.14909332057932 14.247497783161299 M-39.21719838406693 14.812417970097624 C-39.500132224728205 14.640901813184957, -39.78306606538948 14.469385656272289, -40.14909332057932 14.247497783161299 M-40.14909332057932 14.247497783161299 C-40.45540470417938 14.033828221967978, -40.76171608777944 13.820158660774657, -41.04287901835067 13.624031571755264 M-40.14909332057932 14.247497783161299 C-40.34716346479834 14.109332624872456, -40.545233609017366 13.971167466583616, -41.04287901835067 13.624031571755264 M-41.04287901835067 13.624031571755264 C-41.331387450178475 13.393953774904396, -41.61989588200628 13.16387597805353, -41.8948827202324 12.94458129227529 M-41.04287901835067 13.624031571755264 C-41.25285673614836 13.456579929553348, -41.46283445394605 13.289128287351433, -41.8948827202324 12.94458129227529 M-41.8948827202324 12.94458129227529 C-42.096295356962834 12.761663664683052, -42.29770799369327 12.578746037090815, -42.70160336025926 12.211938951661377 M-41.8948827202324 12.94458129227529 C-42.16666142643915 12.697759062168844, -42.43844013264589 12.450936832062398, -42.70160336025926 12.211938951661377 M-42.70160336025926 12.211938951661377 C-42.91997216634082 11.986455230969767, -43.13834097242238 11.760971510278159, -43.459725950280365 11.429115134442386 M-42.70160336025926 12.211938951661377 C-42.85417426058233 12.054396970773936, -43.006745160905396 11.896854989886494, -43.459725950280365 11.429115134442386 M-43.459725950280365 11.429115134442386 C-43.715492981207476 11.12867662635906, -43.971260012134586 10.828238118275731, -44.16613520195651 10.599326631598473 M-43.459725950280365 11.429115134442386 C-43.73739954638683 11.102943928380519, -44.01507314249329 10.776772722318652, -44.16613520195651 10.599326631598473 M-44.16613520195651 10.599326631598473 C-44.38092942424072 10.311521941893833, -44.59572364652493 10.023717252189194, -44.81792832814825 9.72598322207689 M-44.16613520195651 10.599326631598473 C-44.365157831259545 10.332654439666925, -44.56418046056259 10.065982247735377, -44.81792832814825 9.72598322207689 M-44.81792832814825 9.72598322207689 C-44.998601507936755 9.448420700379872, -45.17927468772526 9.170858178682856, -45.41242697109088 8.812673661278936 M-44.81792832814825 9.72598322207689 C-44.9815807499721 9.474569155327059, -45.14523317179595 9.223155088577226, -45.41242697109088 8.812673661278936 M-45.41242697109088 8.812673661278936 C-45.58327075373898 8.509323225378312, -45.754114536387085 8.205972789477688, -45.947188208341004 7.863150934094201 M-45.41242697109088 8.812673661278936 C-45.562648237918744 8.545940590473311, -45.712869504746614 8.279207519667688, -45.947188208341004 7.863150934094201 M-45.947188208341004 7.863150934094201 C-46.13581508538636 7.471463187940887, -46.32444196243173 7.079775441787573, -46.42001459126881 6.881316833080701 M-45.947188208341004 7.863150934094201 C-46.094051816005965 7.5581855104001034, -46.24091542367093 7.253220086706005, -46.42001459126881 6.881316833080701 M-46.42001459126881 6.881316833080701 C-46.50791499624533 6.664201133349979, -46.59581540122185 6.447085433619257, -46.828963174845924 5.87120592516224 M-46.42001459126881 6.881316833080701 C-46.54803933229096 6.565093247565997, -46.67606407331312 6.248869662051293, -46.828963174845924 5.87120592516224 M-46.828963174845924 5.87120592516224 C-46.95908301092581 5.479305710670074, -47.089202847005694 5.087405496177908, -47.172353501623235 4.8369689727275516 M-46.828963174845924 5.87120592516224 C-46.93559810396364 5.550038508628352, -47.04223303308136 5.228871092094463, -47.172353501623235 4.8369689727275516 M-47.172353501623235 4.8369689727275516 C-47.23934002048899 4.581520344151497, -47.30632653935475 4.326071715575442, -47.448774507091 3.782855877257349 M-47.172353501623235 4.8369689727275516 C-47.24841106524903 4.546928519065789, -47.32446862887483 4.256888065404026, -47.448774507091 3.782855877257349 M-47.448774507091 3.782855877257349 C-47.51783037101128 3.4282686109887144, -47.58688623493156 3.0736813447200797, -47.65709031804565 2.713198215567455 M-47.448774507091 3.782855877257349 C-47.50516657520248 3.493294525972705, -47.561558643313965 3.203733174688061, -47.65709031804565 2.713198215567455 M-47.65709031804565 2.713198215567455 C-47.68850308197757 2.4695670216632992, -47.7199158459095 2.2259358277591437, -47.796444920136366 1.6323914404306026 M-47.65709031804565 2.713198215567455 C-47.697498484665 2.3998004547627985, -47.737906651284355 2.0864026939581413, -47.796444920136366 1.6323914404306026 M-47.796444920136366 1.6323914404306026 C-47.82213187479341 1.2322963875104826, -47.84781882945047 0.8322013345903626, -47.8662656754117 0.54487681871814 M-47.796444920136366 1.6323914404306026 C-47.81843638664115 1.2898565984262627, -47.84042785314595 0.947321756421923, -47.8662656754117 0.54487681871814 M-47.8662656754117 0.54487681871814 C-47.8662656754117 0.13588635944139055, -47.8662656754117 -0.2731040998353589, -47.8662656754117 -0.5448768187181317 M-47.8662656754117 0.54487681871814 C-47.8662656754117 0.3267623761721099, -47.8662656754117 0.10864793362607977, -47.8662656754117 -0.5448768187181317 M-47.8662656754117 -0.5448768187181317 C-47.83902574930545 -0.969160655495481, -47.8117858231992 -1.3934444922728306, -47.796444920136366 -1.6323914404305793 M-47.8662656754117 -0.5448768187181317 C-47.84646128470984 -0.8533461897160066, -47.82665689400798 -1.1618155607138818, -47.796444920136366 -1.6323914404305793 M-47.796444920136366 -1.6323914404305793 C-47.74195953792206 -2.0549693055290765, -47.687474155707754 -2.4775471706275742, -47.657090318045654 -2.713198215567447 M-47.796444920136366 -1.6323914404305793 C-47.74454425002516 -2.0349227888665737, -47.692643579913955 -2.4374541373025687, -47.657090318045654 -2.713198215567447 M-47.657090318045654 -2.713198215567447 C-47.61003657461349 -2.954809243279419, -47.56298283118132 -3.196420270991391, -47.448774507091 -3.782855877257341 M-47.657090318045654 -2.713198215567447 C-47.603392202438634 -2.9889266901087423, -47.549694086831614 -3.264655164650038, -47.448774507091 -3.782855877257341 M-47.448774507091 -3.782855877257341 C-47.382239598553056 -4.036582319924294, -47.31570469001512 -4.2903087625912475, -47.172353501623235 -4.836968972727544 M-47.448774507091 -3.782855877257341 C-47.39268577088453 -3.996746537424644, -47.33659703467807 -4.2106371975919465, -47.172353501623235 -4.836968972727544 M-47.172353501623235 -4.836968972727544 C-47.08666404807546 -5.095051954053089, -47.00097459452769 -5.353134935378634, -46.82896317484593 -5.871205925162218 M-47.172353501623235 -4.836968972727544 C-47.080485964495985 -5.11365935745053, -46.98861842736874 -5.390349742173517, -46.82896317484593 -5.871205925162218 M-46.82896317484593 -5.871205925162218 C-46.68324547661926 -6.2311314570421255, -46.537527778392594 -6.591056988922032, -46.42001459126881 -6.881316833080692 M-46.82896317484593 -5.871205925162218 C-46.70047089629636 -6.188584337408857, -46.571978617746794 -6.505962749655496, -46.42001459126881 -6.881316833080692 M-46.42001459126881 -6.881316833080692 C-46.238047123201675 -7.259176174002194, -46.05607965513454 -7.637035514923696, -45.947188208341004 -7.863150934094194 M-46.42001459126881 -6.881316833080692 C-46.275534069037846 -7.181333728881239, -46.13105354680688 -7.481350624681786, -45.947188208341004 -7.863150934094194 M-45.947188208341004 -7.863150934094194 C-45.823525977214764 -8.08272574761759, -45.699863746088525 -8.302300561140989, -45.41242697109088 -8.812673661278929 M-45.947188208341004 -7.863150934094194 C-45.75996377814395 -8.19558686843841, -45.5727393479469 -8.528022802782626, -45.41242697109088 -8.812673661278929 M-45.41242697109088 -8.812673661278929 C-45.26560172081089 -9.038236673809145, -45.118776470530904 -9.263799686339361, -44.81792832814825 -9.725983222076884 M-45.41242697109088 -8.812673661278929 C-45.23755182821142 -9.081328841292732, -45.06267668533197 -9.349984021306536, -44.81792832814825 -9.725983222076884 M-44.81792832814825 -9.725983222076884 C-44.60898372009198 -10.005949961626904, -44.40003911203571 -10.285916701176921, -44.16613520195651 -10.599326631598467 M-44.81792832814825 -9.725983222076884 C-44.57808551904159 -10.04735073615039, -44.33824270993494 -10.368718250223898, -44.16613520195651 -10.599326631598467 M-44.16613520195651 -10.599326631598467 C-44.00924990265725 -10.783613031181796, -43.852364603358 -10.967899430765124, -43.45972595028037 -11.42911513444238 M-44.16613520195651 -10.599326631598467 C-43.99795336253428 -10.79688259000158, -43.82977152311205 -10.994438548404693, -43.45972595028037 -11.42911513444238 M-43.45972595028037 -11.42911513444238 C-43.27380878917202 -11.621089867369548, -43.08789162806368 -11.813064600296714, -42.70160336025928 -12.21193895166136 M-43.45972595028037 -11.42911513444238 C-43.197606280645836 -11.699775213765136, -42.93548661101131 -11.970435293087894, -42.70160336025928 -12.21193895166136 M-42.70160336025928 -12.21193895166136 C-42.53006166010712 -12.367728584994875, -42.35851995995497 -12.523518218328391, -41.89488272023242 -12.944581292275274 M-42.70160336025928 -12.21193895166136 C-42.383474065138095 -12.500855560250518, -42.06534477001692 -12.789772168839676, -41.89488272023242 -12.944581292275274 M-41.89488272023242 -12.944581292275274 C-41.7155786087474 -13.08757154970178, -41.53627449726238 -13.230561807128286, -41.042879018350675 -13.624031571755259 M-41.89488272023242 -12.944581292275274 C-41.64029533021555 -13.14760796095875, -41.385707940198685 -13.350634629642226, -41.042879018350675 -13.624031571755259 M-41.042879018350675 -13.624031571755259 C-40.85991447351661 -13.75165971782401, -40.67694992868255 -13.879287863892761, -40.14909332057934 -14.247497783161284 M-41.042879018350675 -13.624031571755259 C-40.78311361226369 -13.805232673978347, -40.52334820617671 -13.986433776201435, -40.14909332057934 -14.247497783161284 M-40.14909332057934 -14.247497783161284 C-39.900536826240774 -14.398174190709417, -39.65198033190221 -14.54885059825755, -39.21719838406695 -14.812417970097618 M-40.14909332057934 -14.247497783161284 C-39.826395386140675 -14.443119167401562, -39.50369745170201 -14.638740551641838, -39.21719838406695 -14.812417970097618 M-39.21719838406695 -14.812417970097618 C-39.00867634463946 -14.921203784502195, -38.80015430521198 -15.029989598906772, -38.25102356499849 -15.316470754341124 M-39.21719838406695 -14.812417970097618 C-38.93329900912453 -14.960528092158846, -38.649399634182124 -15.108638214220074, -38.25102356499849 -15.316470754341124 M-38.25102356499849 -15.316470754341124 C-37.97732839868434 -15.43762748558975, -37.7036332323702 -15.55878421683838, -37.25453908294937 -15.757584874882365 M-38.25102356499849 -15.316470754341124 C-37.97299658931581 -15.43954504909864, -37.694969613633134 -15.56261934385616, -37.25453908294937 -15.757584874882365 M-37.25453908294937 -15.757584874882365 C-36.85871108002181 -15.903253238953656, -36.46288307709425 -16.048921603024947, -36.231839706401566 -16.133947699181363 M-37.25453908294937 -15.757584874882365 C-36.99230027978742 -15.854091178554885, -36.73006147662548 -15.950597482227405, -36.231839706401566 -16.133947699181363 M-36.231839706401566 -16.133947699181363 C-35.89338988299505 -16.234397830209037, -35.554940059588546 -16.334847961236715, -35.18712792646164 -16.444012671663494 M-36.231839706401566 -16.133947699181363 C-35.87603168304776 -16.239549652838345, -35.52022365969396 -16.345151606495325, -35.18712792646164 -16.444012671663494 M-35.18712792646164 -16.444012671663494 C-34.86741569129416 -16.51698490302316, -34.54770345612668 -16.589957134382825, -34.12469668792333 -16.68650566884811 M-35.18712792646164 -16.444012671663494 C-34.90962926226518 -16.50734993091832, -34.632130598068706 -16.57068719017315, -34.12469668792333 -16.68650566884811 M-34.12469668792333 -16.68650566884811 C-33.872250921417525 -16.72731914263061, -33.619805154911724 -16.76813261641311, -33.04891174863661 -16.86043023499518 M-34.12469668792333 -16.68650566884811 C-33.88956014289445 -16.72452072193724, -33.65442359786557 -16.762535775026368, -33.04891174863661 -16.86043023499518 M-33.04891174863661 -16.86043023499518 C-32.74986485763394 -16.889278928913704, -32.45081796663126 -16.918127622832227, -31.96419373967212 -16.965071676755716 M-33.04891174863661 -16.86043023499518 C-32.81968223947337 -16.88254373005534, -32.59045273031014 -16.904657225115496, -31.96419373967212 -16.965071676755716 M-31.96419373967212 -16.965071676755716 C-31.5360045475175 -16.978802870728412, -31.107815355362884 -16.99253406470111, -30.875000000000004 -17 M-31.96419373967212 -16.965071676755716 C-31.680604708613394 -16.97416582500921, -31.39701567755467 -16.983259973262697, -30.875000000000004 -17 M-30.875000000000004 -17 C-30.875000000000004 -17, -30.875 -17, -30.875 -17 M-30.875000000000004 -17 C-30.875000000000004 -17, -30.875 -17, -30.875 -17" stroke="#9370DB" stroke-width="1.3" fill="none" stroke-dasharray="0 0" style=""></path></g><g class="label" style="" transform="translate(0, -9.5)"><rect></rect><g><rect class="background" style="stroke: none"></rect><text y="-10.1" style=""><tspan class="text-outer-tspan row" x="0" y="-0.1em" dy="1.1em"><tspan font-style="normal" class="text-inner-tspan" font-weight="normal">Start</tspan><tspan font-style="normal" class="text-inner-tspan" font-weight="normal"> here</tspan></tspan></text></g></g></g><g class="node default" id="g79bc4871-3fb9-4c11-8b86-b9f3590e6b63-light-flowchart-docsQ-1" data-look="classic" transform="translate(280.4421844482422, 227.15000915527344)"><polygon points="135.1500015258789,0 270.3000030517578,-135.1500015258789 135.1500015258789,-270.3000030517578 0,-135.1500015258789" class="label-container" transform="translate(-134.6500015258789, 135.1500015258789)"></polygon><g class="label" style="" transform="translate(0, -35.900001525878906)"><rect></rect><g><rect class="background" style="stroke: none"></rect><text y="-10.1" style=""><tspan class="text-outer-tspan row" x="0" y="-0.1em" dy="1.1em"><tspan font-style="normal" class="text-inner-tspan" font-weight="normal">Need</tspan><tspan font-style="normal" class="text-inner-tspan" font-weight="normal"> built-in</tspan><tspan font-style="normal" class="text-inner-tspan" font-weight="normal"> docs</tspan></tspan><tspan class="text-outer-tspan row" x="0" y="1em" dy="1.1em"><tspan font-style="normal" class="text-inner-tspan" font-weight="normal">navigation,</tspan></tspan><tspan class="text-outer-tspan row" x="0" y="2.1em" dy="1.1em"><tspan font-style="normal" class="text-inner-tspan" font-weight="normal">search,</tspan><tspan font-style="normal" class="text-inner-tspan" font-weight="normal"> and</tspan><tspan font-style="normal" class="text-inner-tspan" font-weight="normal"> the</tspan><tspan font-style="normal" class="text-inner-tspan" font-weight="normal"> default</tspan></tspan><tspan class="text-outer-tspan row" x="0" y="3.2em" dy="1.1em"><tspan font-style="normal" class="text-inner-tspan" font-weight="normal">theme?</tspan></tspan></text></g></g></g><g class="node default" id="g79bc4871-3fb9-4c11-8b86-b9f3590e6b63-light-flowchart-docs-3" data-look="classic" transform="translate(124.9296875, 579.3953247070312)"><rect class="basic label-container" style="" x="-116.9296875" y="-50.900001525878906" width="233.859375" height="101.80000305175781"></rect><g class="label" style="" transform="translate(0, -35.900001525878906)"><rect></rect><g><rect class="background" style="stroke: none"></rect><text y="-10.1" style=""><tspan class="text-outer-tspan row" x="0" y="-0.1em" dy="1.1em"><tspan font-style="normal" class="text-inner-tspan" font-weight="normal">@pagesmith/docs</tspan></tspan><tspan class="text-outer-tspan row" x="0" y="1em" dy="1.1em"><tspan font-style="normal" class="text-inner-tspan" font-weight="normal">Docs</tspan><tspan font-style="normal" class="text-inner-tspan" font-weight="normal"> preset</tspan><tspan font-style="normal" class="text-inner-tspan" font-weight="normal"> with</tspan><tspan font-style="normal" class="text-inner-tspan" font-weight="normal"> config,</tspan></tspan><tspan class="text-outer-tspan row" x="0" y="2.1em" dy="1.1em"><tspan font-style="normal" class="text-inner-tspan" font-weight="normal">navigation,</tspan><tspan font-style="normal" class="text-inner-tspan" font-weight="normal"> search,</tspan><tspan font-style="normal" class="text-inner-tspan" font-weight="normal"> and</tspan></tspan><tspan class="text-outer-tspan row" x="0" y="3.2em" dy="1.1em"><tspan font-style="normal" class="text-inner-tspan" font-weight="normal">theme</tspan></tspan></text></g></g></g><g class="node default" id="g79bc4871-3fb9-4c11-8b86-b9f3590e6b63-light-flowchart-hostQ-5" data-look="classic" transform="translate(435.9546813964844, 579.3953247070312)"><polygon points="144.0953140258789,0 288.1906280517578,-144.0953140258789 144.0953140258789,-288.1906280517578 0,-144.0953140258789" class="label-container" transform="translate(-143.5953140258789, 144.0953140258789)"></polygon><g class="label" style="" transform="translate(0, -35.900001525878906)"><rect></rect><g><rect class="background" style="stroke: none"></rect><text y="-10.1" style=""><tspan class="text-outer-tspan row" x="0" y="-0.1em" dy="1.1em"><tspan font-style="normal" class="text-inner-tspan" font-weight="normal">Does</tspan><tspan font-style="normal" class="text-inner-tspan" font-weight="normal"> the</tspan><tspan font-style="normal" class="text-inner-tspan" font-weight="normal"> host</tspan><tspan font-style="normal" class="text-inner-tspan" font-weight="normal"> app</tspan><tspan font-style="normal" class="text-inner-tspan" font-weight="normal"> already</tspan></tspan><tspan class="text-outer-tspan row" x="0" y="1em" dy="1.1em"><tspan font-style="normal" class="text-inner-tspan" font-weight="normal">own</tspan></tspan><tspan class="text-outer-tspan row" x="0" y="2.1em" dy="1.1em"><tspan font-style="normal" class="text-inner-tspan" font-weight="normal">routing,</tspan><tspan font-style="normal" class="text-inner-tspan" font-weight="normal"> layout,</tspan><tspan font-style="normal" class="text-inner-tspan" font-weight="normal"> and</tspan><tspan font-style="normal" class="text-inner-tspan" font-weight="normal"> build</tspan></tspan><tspan class="text-outer-tspan row" x="0" y="3.2em" dy="1.1em"><tspan font-style="normal" class="text-inner-tspan" font-weight="normal">tooling?</tspan></tspan></text></g></g></g><g class="node default" id="g79bc4871-3fb9-4c11-8b86-b9f3590e6b63-light-flowchart-core-7" data-look="classic" transform="translate(563.1460876464844, 856.1906318664551)"><rect class="basic label-container" style="" x="-111.96875" y="-59.70000076293945" width="223.9375" height="119.4000015258789"></rect><g class="label" style="" transform="translate(0, -44.70000076293945)"><rect></rect><g><rect class="background" style="stroke: none"></rect><text y="-10.1" style=""><tspan class="text-outer-tspan row" x="0" y="-0.1em" dy="1.1em"><tspan font-style="normal" class="text-inner-tspan" font-weight="normal">@pagesmith/core</tspan></tspan><tspan class="text-outer-tspan row" x="0" y="1em" dy="1.1em"><tspan font-style="normal" class="text-inner-tspan" font-weight="normal">Headless</tspan><tspan font-style="normal" class="text-inner-tspan" font-weight="normal"> content</tspan><tspan font-style="normal" class="text-inner-tspan" font-weight="normal"> layer</tspan></tspan><tspan class="text-outer-tspan row" x="0" y="2.1em" dy="1.1em"><tspan font-style="normal" class="text-inner-tspan" font-weight="normal">with</tspan></tspan><tspan class="text-outer-tspan row" x="0" y="3.2em" dy="1.1em"><tspan font-style="normal" class="text-inner-tspan" font-weight="normal">schemas,</tspan><tspan font-style="normal" class="text-inner-tspan" font-weight="normal"> loaders,</tspan><tspan font-style="normal" class="text-inner-tspan" font-weight="normal"> and</tspan></tspan><tspan class="text-outer-tspan row" x="0" y="4.300000000000001em" dy="1.1em"><tspan font-style="normal" class="text-inner-tspan" font-weight="normal">markdown</tspan></tspan></text></g></g></g><g class="node default" id="g79bc4871-3fb9-4c11-8b86-b9f3590e6b63-light-flowchart-site-9" data-look="classic" transform="translate(286.3999938964844, 1392.0843887329102)"><rect class="basic label-container" style="" x="-127.6171875" y="-68.5" width="255.234375" height="137"></rect><g class="label" style="" transform="translate(0, -53.5)"><rect></rect><g><rect class="background" style="stroke: none"></rect><text y="-10.1" style=""><tspan class="text-outer-tspan row" x="0" y="-0.1em" dy="1.1em"><tspan font-style="normal" class="text-inner-tspan" font-weight="normal">@pagesmith/site</tspan><tspan font-style="normal" class="text-inner-tspan" font-weight="normal"> +</tspan></tspan><tspan class="text-outer-tspan row" x="0" y="1em" dy="1.1em"><tspan font-style="normal" class="text-inner-tspan" font-weight="normal">@pagesmith/core</tspan></tspan><tspan class="text-outer-tspan row" x="0" y="2.1em" dy="1.1em"><tspan font-style="normal" class="text-inner-tspan" font-weight="normal">Custom</tspan><tspan font-style="normal" class="text-inner-tspan" font-weight="normal"> site</tspan><tspan font-style="normal" class="text-inner-tspan" font-weight="normal"> shell</tspan><tspan font-style="normal" class="text-inner-tspan" font-weight="normal"> with</tspan></tspan><tspan class="text-outer-tspan row" x="0" y="3.2em" dy="1.1em"><tspan font-style="normal" class="text-inner-tspan" font-weight="normal">shared</tspan></tspan><tspan class="text-outer-tspan row" x="0" y="4.300000000000001em" dy="1.1em"><tspan font-style="normal" class="text-inner-tspan" font-weight="normal">JSX,</tspan><tspan font-style="normal" class="text-inner-tspan" font-weight="normal"> CSS/runtime,</tspan><tspan font-style="normal" class="text-inner-tspan" font-weight="normal"> and</tspan><tspan font-style="normal" class="text-inner-tspan" font-weight="normal"> Vite</tspan></tspan><tspan class="text-outer-tspan row" x="0" y="5.4em" dy="1.1em"><tspan font-style="normal" class="text-inner-tspan" font-weight="normal">SSG</tspan></tspan></text></g></g></g><g class="node default" id="g79bc4871-3fb9-4c11-8b86-b9f3590e6b63-light-flowchart-siteQ-11" data-look="classic" transform="translate(563.1460876464844, 1119.7375106811523)"><polygon points="130.84687423706055,0 261.6937484741211,-130.84687423706055 130.84687423706055,-261.6937484741211 0,-130.84687423706055" class="label-container" transform="translate(-130.34687423706055, 130.84687423706055)"></polygon><g class="label" style="" transform="translate(0, -18.299999237060547)"><rect></rect><g><rect class="background" style="stroke: none"></rect><text y="-10.1" style=""><tspan class="text-outer-tspan row" x="0" y="-0.1em" dy="1.1em"><tspan font-style="normal" class="text-inner-tspan" font-weight="normal">Need</tspan><tspan font-style="normal" class="text-inner-tspan" font-weight="normal"> the</tspan><tspan font-style="normal" class="text-inner-tspan" font-weight="normal"> shared</tspan><tspan font-style="normal" class="text-inner-tspan" font-weight="normal"> Pagesmith</tspan></tspan><tspan class="text-outer-tspan row" x="0" y="1em" dy="1.1em"><tspan font-style="normal" class="text-inner-tspan" font-weight="normal">site</tspan><tspan font-style="normal" class="text-inner-tspan" font-weight="normal"> layer</tspan><tspan font-style="normal" class="text-inner-tspan" font-weight="normal"> too?</tspan></tspan></text></g></g></g><g class="node default" id="g79bc4871-3fb9-4c11-8b86-b9f3590e6b63-light-flowchart-coreOnly-15" data-look="classic" transform="translate(585.5093688964844, 1392.0843887329102)"><rect class="basic label-container" style="" x="-121.4921875" y="-24.5" width="242.984375" height="49"></rect><g class="label" style="" transform="translate(0, -9.5)"><rect></rect><g><rect class="background" style="stroke: none"></rect><text y="-10.1" style=""><tspan class="text-outer-tspan row" x="0" y="-0.1em" dy="1.1em"><tspan font-style="normal" class="text-inner-tspan" font-weight="normal">Stay</tspan><tspan font-style="normal" class="text-inner-tspan" font-weight="normal"> on</tspan><tspan font-style="normal" class="text-inner-tspan" font-weight="normal"> @pagesmith/core</tspan></tspan></text></g></g></g></g></g></g><defs><filter id="g79bc4871-3fb9-4c11-8b86-b9f3590e6b63-light-drop-shadow" height="130%" width="130%"><feDropShadow dx="4" dy="4" stdDeviation="0" flood-opacity="0.06" flood-color="#000000"></feDropShadow></filter></defs><defs><filter id="g79bc4871-3fb9-4c11-8b86-b9f3590e6b63-light-drop-shadow-small" height="150%" width="150%"><feDropShadow dx="2" dy="2" stdDeviation="0" flood-opacity="0.06" flood-color="#000000"></feDropShadow></filter></defs></svg>