<svg id="gbf31182b-841c-4adc-bacc-af1518176eed-dark" width="100%" xmlns="http://www.w3.org/2000/svg" xmlns:xlink="http://www.w3.org/1999/xlink" class="flowchart" style="max-width: 715.0015869140625px;" viewBox="0 0 715.0015869140625 1468.5843505859375" role="graphics-document document" aria-roledescription="flowchart-v2"><style>#gbf31182b-841c-4adc-bacc-af1518176eed-dark{font-family:"trebuchet ms",verdana,arial,sans-serif;font-size:16px;fill:#e5e5e5;}@keyframes edge-animation-frame{from{stroke-dashoffset:0;}}@keyframes dash{to{stroke-dashoffset:0;}}#gbf31182b-841c-4adc-bacc-af1518176eed-dark .edge-animation-slow{stroke-dasharray:9,5!important;stroke-dashoffset:900;animation:dash 50s linear infinite;stroke-linecap:round;}#gbf31182b-841c-4adc-bacc-af1518176eed-dark .edge-animation-fast{stroke-dasharray:9,5!important;stroke-dashoffset:900;animation:dash 20s linear infinite;stroke-linecap:round;}#gbf31182b-841c-4adc-bacc-af1518176eed-dark .error-icon{fill:#252525;}#gbf31182b-841c-4adc-bacc-af1518176eed-dark .error-text{fill:#cccccc;stroke:#cccccc;}#gbf31182b-841c-4adc-bacc-af1518176eed-dark .edge-thickness-normal{stroke-width:1px;}#gbf31182b-841c-4adc-bacc-af1518176eed-dark .edge-thickness-thick{stroke-width:3.5px;}#gbf31182b-841c-4adc-bacc-af1518176eed-dark .edge-pattern-solid{stroke-dasharray:0;}#gbf31182b-841c-4adc-bacc-af1518176eed-dark .edge-thickness-invisible{stroke-width:0;fill:none;}#gbf31182b-841c-4adc-bacc-af1518176eed-dark .edge-pattern-dashed{stroke-dasharray:3;}#gbf31182b-841c-4adc-bacc-af1518176eed-dark .edge-pattern-dotted{stroke-dasharray:2;}#gbf31182b-841c-4adc-bacc-af1518176eed-dark .marker{fill:#cccccc;stroke:#cccccc;}#gbf31182b-841c-4adc-bacc-af1518176eed-dark .marker.cross{stroke:#cccccc;}#gbf31182b-841c-4adc-bacc-af1518176eed-dark svg{font-family:"trebuchet ms",verdana,arial,sans-serif;font-size:16px;}#gbf31182b-841c-4adc-bacc-af1518176eed-dark p{margin:0;}#gbf31182b-841c-4adc-bacc-af1518176eed-dark .label{font-family:"trebuchet ms",verdana,arial,sans-serif;color:#e5e5e5;}#gbf31182b-841c-4adc-bacc-af1518176eed-dark .cluster-label text{fill:#e5e5e5;}#gbf31182b-841c-4adc-bacc-af1518176eed-dark .cluster-label span{color:#e5e5e5;}#gbf31182b-841c-4adc-bacc-af1518176eed-dark .cluster-label span p{background-color:transparent;}#gbf31182b-841c-4adc-bacc-af1518176eed-dark .label text,#gbf31182b-841c-4adc-bacc-af1518176eed-dark span{fill:#e5e5e5;color:#e5e5e5;}#gbf31182b-841c-4adc-bacc-af1518176eed-dark .node rect,#gbf31182b-841c-4adc-bacc-af1518176eed-dark .node circle,#gbf31182b-841c-4adc-bacc-af1518176eed-dark .node ellipse,#gbf31182b-841c-4adc-bacc-af1518176eed-dark .node polygon,#gbf31182b-841c-4adc-bacc-af1518176eed-dark .node path{fill:#2d2d2d;stroke:#555555;stroke-width:1px;}#gbf31182b-841c-4adc-bacc-af1518176eed-dark .rough-node .label text,#gbf31182b-841c-4adc-bacc-af1518176eed-dark .node .label text,#gbf31182b-841c-4adc-bacc-af1518176eed-dark .image-shape .label,#gbf31182b-841c-4adc-bacc-af1518176eed-dark .icon-shape .label{text-anchor:middle;}#gbf31182b-841c-4adc-bacc-af1518176eed-dark .node .katex path{fill:#000;stroke:#000;stroke-width:1px;}#gbf31182b-841c-4adc-bacc-af1518176eed-dark .rough-node .label,#gbf31182b-841c-4adc-bacc-af1518176eed-dark .node .label,#gbf31182b-841c-4adc-bacc-af1518176eed-dark .image-shape .label,#gbf31182b-841c-4adc-bacc-af1518176eed-dark .icon-shape .label{text-align:center;}#gbf31182b-841c-4adc-bacc-af1518176eed-dark .node.clickable{cursor:pointer;}#gbf31182b-841c-4adc-bacc-af1518176eed-dark .root .anchor path{fill:#cccccc!important;stroke-width:0;stroke:#cccccc;}#gbf31182b-841c-4adc-bacc-af1518176eed-dark .arrowheadPath{fill:#cccccc;}#gbf31182b-841c-4adc-bacc-af1518176eed-dark .edgePath .path{stroke:#cccccc;stroke-width:1px;}#gbf31182b-841c-4adc-bacc-af1518176eed-dark .flowchart-link{stroke:#cccccc;fill:none;}#gbf31182b-841c-4adc-bacc-af1518176eed-dark .edgeLabel{background-color:#1e1e1e;text-align:center;}#gbf31182b-841c-4adc-bacc-af1518176eed-dark .edgeLabel p{background-color:#1e1e1e;}#gbf31182b-841c-4adc-bacc-af1518176eed-dark .edgeLabel rect{opacity:0.5;background-color:#1e1e1e;fill:#1e1e1e;}#gbf31182b-841c-4adc-bacc-af1518176eed-dark .labelBkg{background-color:rgba(30, 30, 30, 0.5);}#gbf31182b-841c-4adc-bacc-af1518176eed-dark .cluster rect{fill:#1e1e1e;stroke:#555555;stroke-width:1px;}#gbf31182b-841c-4adc-bacc-af1518176eed-dark .cluster text{fill:#e5e5e5;}#gbf31182b-841c-4adc-bacc-af1518176eed-dark .cluster span{color:#e5e5e5;}#gbf31182b-841c-4adc-bacc-af1518176eed-dark div.mermaidTooltip{position:absolute;text-align:center;max-width:200px;padding:2px;font-family:"trebuchet ms",verdana,arial,sans-serif;font-size:12px;background:#252525;border:1px solid #555555;border-radius:2px;pointer-events:none;z-index:100;}#gbf31182b-841c-4adc-bacc-af1518176eed-dark .flowchartTitleText{text-anchor:middle;font-size:18px;fill:#e5e5e5;}#gbf31182b-841c-4adc-bacc-af1518176eed-dark rect.text{fill:none;stroke-width:0;}#gbf31182b-841c-4adc-bacc-af1518176eed-dark .icon-shape,#gbf31182b-841c-4adc-bacc-af1518176eed-dark .image-shape{background-color:#1e1e1e;text-align:center;}#gbf31182b-841c-4adc-bacc-af1518176eed-dark .icon-shape p,#gbf31182b-841c-4adc-bacc-af1518176eed-dark .image-shape p{background-color:#1e1e1e;padding:2px;}#gbf31182b-841c-4adc-bacc-af1518176eed-dark .icon-shape .label rect,#gbf31182b-841c-4adc-bacc-af1518176eed-dark .image-shape .label rect{opacity:0.5;background-color:#1e1e1e;fill:#1e1e1e;}#gbf31182b-841c-4adc-bacc-af1518176eed-dark .label-icon{display:inline-block;height:1em;overflow:visible;vertical-align:-0.125em;}#gbf31182b-841c-4adc-bacc-af1518176eed-dark .node .label-icon path{fill:currentColor;stroke:revert;stroke-width:revert;}#gbf31182b-841c-4adc-bacc-af1518176eed-dark .node .neo-node{stroke:#555555;}#gbf31182b-841c-4adc-bacc-af1518176eed-dark [data-look="neo"].node rect,#gbf31182b-841c-4adc-bacc-af1518176eed-dark [data-look="neo"].cluster rect,#gbf31182b-841c-4adc-bacc-af1518176eed-dark [data-look="neo"].node polygon{stroke:url(#gbf31182b-841c-4adc-bacc-af1518176eed-dark-gradient);filter:drop-shadow( 1px 2px 2px rgba(185,185,185,1));}#gbf31182b-841c-4adc-bacc-af1518176eed-dark [data-look="neo"].node path{stroke:url(#gbf31182b-841c-4adc-bacc-af1518176eed-dark-gradient);stroke-width:1px;}#gbf31182b-841c-4adc-bacc-af1518176eed-dark [data-look="neo"].node .outer-path{filter:drop-shadow( 1px 2px 2px rgba(185,185,185,1));}#gbf31182b-841c-4adc-bacc-af1518176eed-dark [data-look="neo"].node .neo-line path{stroke:#555555;filter:none;}#gbf31182b-841c-4adc-bacc-af1518176eed-dark [data-look="neo"].node circle{stroke:url(#gbf31182b-841c-4adc-bacc-af1518176eed-dark-gradient);filter:drop-shadow( 1px 2px 2px rgba(185,185,185,1));}#gbf31182b-841c-4adc-bacc-af1518176eed-dark [data-look="neo"].node circle .state-start{fill:#000000;}#gbf31182b-841c-4adc-bacc-af1518176eed-dark [data-look="neo"].icon-shape .icon{fill:url(#gbf31182b-841c-4adc-bacc-af1518176eed-dark-gradient);filter:drop-shadow( 1px 2px 2px rgba(185,185,185,1));}#gbf31182b-841c-4adc-bacc-af1518176eed-dark [data-look="neo"].icon-shape .icon-neo path{stroke:url(#gbf31182b-841c-4adc-bacc-af1518176eed-dark-gradient);filter:drop-shadow( 1px 2px 2px rgba(185,185,185,1));}#gbf31182b-841c-4adc-bacc-af1518176eed-dark :root{--mermaid-font-family:"trebuchet ms",verdana,arial,sans-serif;}</style><g><marker id="gbf31182b-841c-4adc-bacc-af1518176eed-dark_flowchart-v2-pointEnd" class="marker flowchart-v2" viewBox="0 0 10 10" refX="5" refY="5" markerUnits="userSpaceOnUse" markerWidth="8" markerHeight="8" orient="auto"><path d="M 0 0 L 10 5 L 0 10 z" class="arrowMarkerPath" style="stroke-width: 1; stroke-dasharray: 1, 0;"></path></marker><marker id="gbf31182b-841c-4adc-bacc-af1518176eed-dark_flowchart-v2-pointStart" class="marker flowchart-v2" viewBox="0 0 10 10" refX="4.5" refY="5" markerUnits="userSpaceOnUse" markerWidth="8" markerHeight="8" orient="auto"><path d="M 0 5 L 10 10 L 10 0 z" class="arrowMarkerPath" style="stroke-width: 1; stroke-dasharray: 1, 0;"></path></marker><marker id="gbf31182b-841c-4adc-bacc-af1518176eed-dark_flowchart-v2-pointEnd-margin" class="marker flowchart-v2" viewBox="0 0 11.5 14" refX="11.5" refY="7" markerUnits="userSpaceOnUse" markerWidth="10.5" markerHeight="14" orient="auto"><path d="M 0 0 L 11.5 7 L 0 14 z" class="arrowMarkerPath" style="stroke-width: 0; stroke-dasharray: 1, 0;"></path></marker><marker id="gbf31182b-841c-4adc-bacc-af1518176eed-dark_flowchart-v2-pointStart-margin" class="marker flowchart-v2" viewBox="0 0 11.5 14" refX="1" refY="7" markerUnits="userSpaceOnUse" markerWidth="11.5" markerHeight="14" orient="auto"><polygon points="0,7 11.5,14 11.5,0" class="arrowMarkerPath" style="stroke-width: 0; stroke-dasharray: 1, 0;"></polygon></marker><marker id="gbf31182b-841c-4adc-bacc-af1518176eed-dark_flowchart-v2-circleEnd" class="marker flowchart-v2" viewBox="0 0 10 10" refX="11" refY="5" markerUnits="userSpaceOnUse" markerWidth="11" markerHeight="11" orient="auto"><circle cx="5" cy="5" r="5" class="arrowMarkerPath" style="stroke-width: 1; stroke-dasharray: 1, 0;"></circle></marker><marker id="gbf31182b-841c-4adc-bacc-af1518176eed-dark_flowchart-v2-circleStart" class="marker flowchart-v2" viewBox="0 0 10 10" refX="-1" refY="5" markerUnits="userSpaceOnUse" markerWidth="11" markerHeight="11" orient="auto"><circle cx="5" cy="5" r="5" class="arrowMarkerPath" style="stroke-width: 1; stroke-dasharray: 1, 0;"></circle></marker><marker id="gbf31182b-841c-4adc-bacc-af1518176eed-dark_flowchart-v2-circleEnd-margin" class="marker flowchart-v2" viewBox="0 0 10 10" refY="5" refX="12.25" markerUnits="userSpaceOnUse" markerWidth="14" markerHeight="14" orient="auto"><circle cx="5" cy="5" r="5" class="arrowMarkerPath" style="stroke-width: 0; stroke-dasharray: 1, 0;"></circle></marker><marker id="gbf31182b-841c-4adc-bacc-af1518176eed-dark_flowchart-v2-circleStart-margin" class="marker flowchart-v2" viewBox="0 0 10 10" refX="-2" refY="5" markerUnits="userSpaceOnUse" markerWidth="14" markerHeight="14" orient="auto"><circle cx="5" cy="5" r="5" class="arrowMarkerPath" style="stroke-width: 0; stroke-dasharray: 1, 0;"></circle></marker><marker id="gbf31182b-841c-4adc-bacc-af1518176eed-dark_flowchart-v2-crossEnd" class="marker cross flowchart-v2" viewBox="0 0 11 11" refX="12" refY="5.2" markerUnits="userSpaceOnUse" markerWidth="11" markerHeight="11" orient="auto"><path d="M 1,1 l 9,9 M 10,1 l -9,9" class="arrowMarkerPath" style="stroke-width: 2; stroke-dasharray: 1, 0;"></path></marker><marker id="gbf31182b-841c-4adc-bacc-af1518176eed-dark_flowchart-v2-crossStart" class="marker cross flowchart-v2" viewBox="0 0 11 11" refX="-1" refY="5.2" markerUnits="userSpaceOnUse" markerWidth="11" markerHeight="11" orient="auto"><path d="M 1,1 l 9,9 M 10,1 l -9,9" class="arrowMarkerPath" style="stroke-width: 2; stroke-dasharray: 1, 0;"></path></marker><marker id="gbf31182b-841c-4adc-bacc-af1518176eed-dark_flowchart-v2-crossEnd-margin" class="marker cross flowchart-v2" viewBox="0 0 15 15" refX="17.7" refY="7.5" markerUnits="userSpaceOnUse" markerWidth="12" markerHeight="12" orient="auto"><path d="M 1,1 L 14,14 M 1,14 L 14,1" class="arrowMarkerPath" style="stroke-width: 2.5;"></path></marker><marker id="gbf31182b-841c-4adc-bacc-af1518176eed-dark_flowchart-v2-crossStart-margin" class="marker cross flowchart-v2" viewBox="0 0 15 15" refX="-3.5" refY="7.5" markerUnits="userSpaceOnUse" markerWidth="12" markerHeight="12" orient="auto"><path d="M 1,1 L 14,14 M 1,14 L 14,1" class="arrowMarkerPath" style="stroke-width: 2.5; stroke-dasharray: 1, 0;"></path></marker><g class="root"><g class="clusters"></g><g class="edgePaths"><path d="M280.942,42.5L280.859,46.583C280.776,50.667,280.609,58.833,280.526,66.417C280.442,74,280.442,81,280.442,84.5L280.442,88" id="gbf31182b-841c-4adc-bacc-af1518176eed-dark-L_start_docsQ_0" class="edge-thickness-normal edge-pattern-solid edge-thickness-normal edge-pattern-solid flowchart-link" style=";" data-edge="true" data-et="edge" data-id="L_start_docsQ_0" data-points="W3sieCI6MjgwLjk0MjE4NDQ0ODI0MjIsInkiOjQyLjV9LHsieCI6MjgwLjQ0MjE4NDQ0ODI0MjIsInkiOjY3fSx7IngiOjI4MC40NDIxODQ0NDgyNDIyLCJ5Ijo5MS45OTk5OTk5OTk5OTk5N31d" data-look="classic" marker-end="url(#gbf31182b-841c-4adc-bacc-af1518176eed-dark_flowchart-v2-pointEnd)"></path><path d="M216.2,298.058L200.989,314.849C185.777,331.639,155.353,365.219,140.141,402.959C124.93,440.698,124.93,482.597,124.93,503.546L124.93,524.495" id="gbf31182b-841c-4adc-bacc-af1518176eed-dark-L_docsQ_docs_0" class="edge-thickness-normal edge-pattern-solid edge-thickness-normal edge-pattern-solid flowchart-link" style=";" data-edge="true" data-et="edge" data-id="L_docsQ_docs_0" data-points="W3sieCI6MjE2LjIwMDM2Mjc0MTI1MTMsInkiOjI5OC4wNTgxOTY2MDM1NTZ9LHsieCI6MTI0LjkyOTY4NzUsInkiOjM5OC44MDAwMTgzMTA1NDY5fSx7IngiOjEyNC45Mjk2ODc1LCJ5Ijo1MjguNDk1MzIzMTgxMTUyM31d" data-look="classic" marker-end="url(#gbf31182b-841c-4adc-bacc-af1518176eed-dark_flowchart-v2-pointEnd)"></path><path d="M344.684,298.058L359.896,314.849C375.108,331.639,405.531,365.219,420.743,387.426C435.955,409.633,435.955,420.467,435.955,425.883L435.955,431.3" id="gbf31182b-841c-4adc-bacc-af1518176eed-dark-L_docsQ_hostQ_0" class="edge-thickness-normal edge-pattern-solid edge-thickness-normal edge-pattern-solid flowchart-link" style=";" data-edge="true" data-et="edge" data-id="L_docsQ_hostQ_0" data-points="W3sieCI6MzQ0LjY4NDAwNjE1NTIzMzEsInkiOjI5OC4wNTgxOTY2MDM1NTZ9LHsieCI6NDM1Ljk1NDY4MTM5NjQ4NDQsInkiOjM5OC44MDAwMTgzMTA1NDY5fSx7IngiOjQzNS45NTQ2ODEzOTY0ODQzLCJ5Ijo0MzUuMzAwMDE4MzEwNTQ2OH1d" data-look="classic" marker-end="url(#gbf31182b-841c-4adc-bacc-af1518176eed-dark_flowchart-v2-pointEnd)"></path><path d="M495.501,663.944L506.776,679.952C518.05,695.959,540.598,727.975,551.872,749.4C563.146,770.824,563.146,781.657,563.146,787.074L563.146,792.491" id="gbf31182b-841c-4adc-bacc-af1518176eed-dark-L_hostQ_core_0" class="edge-thickness-normal edge-pattern-solid edge-thickness-normal edge-pattern-solid flowchart-link" style=";" data-edge="true" data-et="edge" data-id="L_hostQ_core_0" data-points="W3sieCI6NDk1LjUwMTM4NjYzNTk3OTc3LCJ5Ijo2NjMuOTQzOTI1ODY0MDIwMn0seyJ4Ijo1NjMuMTQ2MDg3NjQ2NDg0NCwieSI6NzU5Ljk5MDYzMTEwMzUxNTZ9LHsieCI6NTYzLjE0NjA4NzY0NjQ4NDQsInkiOjc5Ni40OTA2MzExMDM1MTU2fV0=" data-look="classic" marker-end="url(#gbf31182b-841c-4adc-bacc-af1518176eed-dark_flowchart-v2-pointEnd)"></path><path d="M366.894,654.43L350.701,672.023C334.508,689.617,302.122,724.804,285.929,758.43C269.736,792.057,269.736,824.124,269.736,856.191C269.736,888.257,269.736,920.324,269.736,964.248C269.736,1008.173,269.736,1063.955,269.736,1119.738C269.736,1175.52,269.736,1231.302,270.597,1264.618C271.458,1297.934,273.18,1308.784,274.041,1314.209L274.902,1319.634" id="gbf31182b-841c-4adc-bacc-af1518176eed-dark-L_hostQ_site_0" class="edge-thickness-normal edge-pattern-solid edge-thickness-normal edge-pattern-solid flowchart-link" style=";" data-edge="true" data-et="edge" data-id="L_hostQ_site_0" data-points="W3sieCI6MzY2Ljg5MzYzNDc5NzE4MjIsInkiOjY1NC40Mjk1ODQ1MDQyMTM0fSx7IngiOjI2OS43MzU5MzEzOTY0ODQ0LCJ5Ijo3NTkuOTkwNjMxMTAzNTE1Nn0seyJ4IjoyNjkuNzM1OTMxMzk2NDg0NCwieSI6ODU2LjE5MDYzMTg2NjQ1NTF9LHsieCI6MjY5LjczNTkzMTM5NjQ4NDQsInkiOjk1Mi4zOTA2MzI2MjkzOTQ1fSx7IngiOjI2OS43MzU5MzEzOTY0ODQ0LCJ5IjoxMTE5LjczNzUxMDY4MTE1MjN9LHsieCI6MjY5LjczNTkzMTM5NjQ4NDQsInkiOjEyODcuMDg0Mzg4NzMyOTEwMn0seyJ4IjoyNzUuNTI4Njc2OTMyMTk4NjYsInkiOjEzMjMuNTg0Mzg4NzMyOTEwMn1d" data-look="classic" marker-end="url(#gbf31182b-841c-4adc-bacc-af1518176eed-dark_flowchart-v2-pointEnd)"></path><path d="M563.146,915.891L563.146,921.974C563.146,928.057,563.146,940.224,563.146,951.724C563.146,963.224,563.146,974.057,563.146,979.474L563.146,984.891" id="gbf31182b-841c-4adc-bacc-af1518176eed-dark-L_core_siteQ_0" class="edge-thickness-normal edge-pattern-solid edge-thickness-normal edge-pattern-solid flowchart-link" style=";" data-edge="true" data-et="edge" data-id="L_core_siteQ_0" data-points="W3sieCI6NTYzLjE0NjA4NzY0NjQ4NDQsInkiOjkxNS44OTA2MzI2MjkzOTQ1fSx7IngiOjU2My4xNDYwODc2NDY0ODQ0LCJ5Ijo5NTIuMzkwNjMyNjI5Mzk0NX0seyJ4Ijo1NjMuMTQ2MDg3NjQ2NDg0NCwieSI6OTg4Ljg5MDYzMjYyOTM5NDR9XQ==" data-look="classic" marker-end="url(#gbf31182b-841c-4adc-bacc-af1518176eed-dark_flowchart-v2-pointEnd)"></path><path d="M501.396,1188.834L486.762,1205.209C472.128,1221.584,442.86,1254.334,421.371,1276.368C399.882,1298.402,386.172,1309.72,379.317,1315.379L372.462,1321.038" id="gbf31182b-841c-4adc-bacc-af1518176eed-dark-L_siteQ_site_0" class="edge-thickness-normal edge-pattern-solid edge-thickness-normal edge-pattern-solid flowchart-link" style=";" data-edge="true" data-et="edge" data-id="L_siteQ_site_0" data-points="W3sieCI6NTAxLjM5NTc5NjQzNzU3MiwieSI6MTE4OC44MzQwOTc1MjM5OTh9LHsieCI6NDEzLjU5MTQwMDE0NjQ4NDQsInkiOjEyODcuMDg0Mzg4NzMyOTEwMn0seyJ4IjozNjkuMzc3MjQ0NjQwNTMyLCJ5IjoxMzIzLjU4NDM4ODczMjkxMDJ9XQ==" data-look="classic" marker-end="url(#gbf31182b-841c-4adc-bacc-af1518176eed-dark_flowchart-v2-pointEnd)"></path><path d="M578.57,1235.16L579.727,1243.814C580.883,1252.468,583.196,1269.776,584.353,1291.18C585.509,1312.584,585.509,1338.084,585.509,1350.834L585.509,1363.584" id="gbf31182b-841c-4adc-bacc-af1518176eed-dark-L_siteQ_coreOnly_0" class="edge-thickness-normal edge-pattern-solid edge-thickness-normal edge-pattern-solid flowchart-link" style=";" data-edge="true" data-et="edge" data-id="L_siteQ_coreOnly_0" data-points="W3sieCI6NTc4LjU3MDQ4ODQ1NTIwMTcsInkiOjEyMzUuMTU5OTg3OTI0MTkzfSx7IngiOjU4NS41MDkzNjg4OTY0ODQ0LCJ5IjoxMjg3LjA4NDM4ODczMjkxMDJ9LHsieCI6NTg1LjUwOTM2ODg5NjQ4NDQsInkiOjEzNjcuNTg0Mzg4NzMyOTEwMn1d" data-look="classic" marker-end="url(#gbf31182b-841c-4adc-bacc-af1518176eed-dark_flowchart-v2-pointEnd)"></path></g><g class="edgeLabels"><g class="edgeLabel"><g class="label" data-id="L_start_docsQ_0" transform="translate(0, 0)"><text y="-10.1" text-anchor="middle"><tspan class="text-outer-tspan row" x="0" y="-0.1em" dy="1.1em" text-anchor="middle"></tspan></text></g></g><g><rect class="background" style="stroke: none"></rect></g><g class="edgeLabel" transform="translate(124.9296875, 398.8000183105469)"><g class="label" data-id="L_docsQ_docs_0" transform="translate(0, -10.5)"><g><rect class="background" style="" x="-13.328125" y="-1" width="26.65625" height="23"></rect><text y="-10.1" text-anchor="middle" style=""><tspan class="text-outer-tspan row" x="0" y="-0.1em" dy="1.1em" text-anchor="middle"><tspan font-style="normal" class="text-inner-tspan" font-weight="normal">Yes</tspan></tspan></text></g></g></g><g class="edgeLabel" transform="translate(435.9546813964844, 398.8000183105469)"><g class="label" data-id="L_docsQ_hostQ_0" transform="translate(0, -10.5)"><g><rect class="background" style="" x="-11.3984375" y="-1" width="22.796875" height="23"></rect><text y="-10.1" text-anchor="middle" style=""><tspan class="text-outer-tspan row" x="0" y="-0.1em" dy="1.1em" text-anchor="middle"><tspan font-style="normal" class="text-inner-tspan" font-weight="normal">No</tspan></tspan></text></g></g></g><g class="edgeLabel" transform="translate(563.1460876464844, 759.9906311035156)"><g class="label" data-id="L_hostQ_core_0" transform="translate(0, -10.5)"><g><rect class="background" style="" x="-13.328125" y="-1" width="26.65625" height="23"></rect><text y="-10.1" text-anchor="middle" style=""><tspan class="text-outer-tspan row" x="0" y="-0.1em" dy="1.1em" text-anchor="middle"><tspan font-style="normal" class="text-inner-tspan" font-weight="normal">Yes</tspan></tspan></text></g></g></g><g class="edgeLabel" transform="translate(269.7359313964844, 952.3906326293945)"><g class="label" data-id="L_hostQ_site_0" transform="translate(0, -10.5)"><g><rect class="background" style="" x="-11.3984375" y="-1" width="22.796875" height="23"></rect><text y="-10.1" text-anchor="middle" style=""><tspan class="text-outer-tspan row" x="0" y="-0.1em" dy="1.1em" text-anchor="middle"><tspan font-style="normal" class="text-inner-tspan" font-weight="normal">No</tspan></tspan></text></g></g></g><g class="edgeLabel"><g class="label" data-id="L_core_siteQ_0" transform="translate(0, 0)"><text y="-10.1" text-anchor="middle"><tspan class="text-outer-tspan row" x="0" y="-0.1em" dy="1.1em" text-anchor="middle"></tspan></text></g></g><g><rect class="background" style="stroke: none"></rect></g><g class="edgeLabel" transform="translate(438.39126, 1259.33414)"><g class="label" data-id="L_siteQ_site_0" transform="translate(0, -10.5)"><g><rect class="background" style="" x="-13.328125" y="-1" width="26.65625" height="23"></rect><text y="-10.1" text-anchor="middle" style=""><tspan class="text-outer-tspan row" x="0" y="-0.1em" dy="1.1em" text-anchor="middle"><tspan font-style="normal" class="text-inner-tspan" font-weight="normal">Yes</tspan></tspan></text></g></g></g><g class="edgeLabel" transform="translate(585.5093688964844, 1287.0843887329102)"><g class="label" data-id="L_siteQ_coreOnly_0" transform="translate(0, -10.5)"><g><rect class="background" style="" x="-11.3984375" y="-1" width="22.796875" height="23"></rect><text y="-10.1" text-anchor="middle" style=""><tspan class="text-outer-tspan row" x="0" y="-0.1em" dy="1.1em" text-anchor="middle"><tspan font-style="normal" class="text-inner-tspan" font-weight="normal">No</tspan></tspan></text></g></g></g></g><g class="nodes"><g class="node default" id="gbf31182b-841c-4adc-bacc-af1518176eed-dark-flowchart-start-0" data-look="classic" transform="translate(280.4421844482422, 25)"><g class="basic label-container outer-path"><path d="M-30.875 -17 C-6.376726171136983 -17, 18.121547657726033 -17, 30.875 -17 C30.875 -17, 30.875 -17, 30.875 -17 C31.14665524588884 -16.991288545009205, 31.418310491777678 -16.982577090018406, 31.96419373967212 -16.965071676755716 C32.24913823531634 -16.937583423956813, 32.53408273096056 -16.91009517115791, 33.0489117486366 -16.860430234995185 C33.37177933546609 -16.808231507432126, 33.694646922295576 -16.756032779869066, 34.124696687923326 -16.686505668848113 C34.442563801458824 -16.613954574460404, 34.760430914994316 -16.54140348007269, 35.18712792646162 -16.4440126716635 C35.48116487197557 -16.356744049666382, 35.775201817489524 -16.269475427669263, 36.23183970640155 -16.133947699181366 C36.44961681618299 -16.053803709672263, 36.66739392596442 -15.97365972016316, 37.25453908294936 -15.757584874882369 C37.52794042137204 -15.6365582125252, 37.80134175979472 -15.515531550168031, 38.25102356499849 -15.316470754341125 C38.448002571661604 -15.213706932736052, 38.644981578324725 -15.11094311113098, 39.21719838406694 -14.812417970097622 C39.56121952723788 -14.603870331414756, 39.905240670408816 -14.39532269273189, 40.149093320579325 -14.247497783161291 C40.4127515523125 -14.063581214285126, 40.67640978404568 -13.879664645408958, 41.042879018350675 -13.624031571755262 C41.327514422154294 -13.39704241168808, 41.61214982595791 -13.1700532516209, 41.8948827202324 -12.944581292275288 C42.08616297624853 -12.770865624759683, 42.27744323226465 -12.597149957244078, 42.70160336025927 -12.21193895166137 C42.88259261808653 -12.02505268346031, 43.06358187591378 -11.838166415259249, 43.45972595028036 -11.42911513444239 C43.65164189540665 -11.203679744970412, 43.84355784053294 -10.978244355498436, 44.16613520195651 -10.59932663159847 C44.41037217114304 -10.272071343334144, 44.654609140329576 -9.944816055069818, 44.81792832814825 -9.725983222076888 C45.01784957332459 -9.418850503114891, 45.21777081850094 -9.111717784152894, 45.41242697109088 -8.812673661278927 C45.54451033516098 -8.578146273481536, 45.67659369923108 -8.343618885684144, 45.947188208341004 -7.863150934094199 C46.0871347920955 -7.572548858550793, 46.227081375849984 -7.281946783007387, 46.42001459126881 -6.881316833080699 C46.540522718731495 -6.583659428381714, 46.66103084619419 -6.28600202368273, 46.828963174845924 -5.871205925162238 C46.89952620281803 -5.658681327601973, 46.97008923079014 -5.446156730041707, 47.172353501623235 -4.836968972727556 C47.24429532652686 -4.562623614585887, 47.316237151430485 -4.28827825644422, 47.448774507091 -3.7828558772573464 C47.52506684050115 -3.391110869586613, 47.60135917391129 -2.999365861915879, 47.65709031804565 -2.713198215567453 C47.70041503602502 -2.3771802583527024, 47.74373975400439 -2.0411623011379514, 47.796444920136366 -1.632391440430593 C47.82334413686172 -1.2134144272763023, 47.850243353587075 -0.7944374141220117, 47.8662656754117 -0.5448768187181379 C47.8662656754117 -0.21961508633046378, 47.8662656754117 0.1056466460572103, 47.8662656754117 0.5448768187181336 C47.849100934588094 0.8122315121751211, 47.83193619376449 1.0795862056321086, 47.796444920136366 1.6323914404305815 C47.76809357918399 1.8522788422517062, 47.739742238231614 2.072166244072831, 47.657090318045654 2.7131982155674415 C47.59758823286511 3.018728847199395, 47.53808614768456 3.3242594788313484, 47.448774507091 3.782855877257343 C47.37956159889695 4.046794693265436, 47.310348690702895 4.310733509273529, 47.172353501623235 4.836968972727545 C47.04703115162877 5.21441992350601, 46.92170880163432 5.591870874284474, 46.828963174845924 5.871205925162227 C46.696445403734536 6.198527381864158, 46.563927632623155 6.52584883856609, 46.42001459126881 6.881316833080694 C46.23670687636241 7.2619592252406155, 46.053399161456014 7.642601617400537, 45.947188208341004 7.863150934094196 C45.790716631058636 8.140982064024351, 45.634245053776276 8.418813193954506, 45.41242697109089 8.812673661278923 C45.25602536713001 9.052948524674013, 45.09962376316913 9.293223388069102, 44.817928328148255 9.725983222076879 C44.657821645990744 9.940511590149137, 44.49771496383323 10.155039958221396, 44.16613520195651 10.599326631598467 C43.961089781741656 10.840184649597765, 43.756044361526804 11.081042667597064, 43.45972595028037 11.42911513444238 C43.200424833039065 11.696864827011678, 42.94112371579775 11.964614519580975, 42.70160336025927 12.211938951661365 C42.393567503141156 12.491688966913875, 42.08553164602304 12.771438982166384, 41.89488272023242 12.944581292275275 C41.570653218016396 13.20314569218314, 41.246423715800375 13.461710092091007, 41.042879018350675 13.62403157175526 C40.773112520912335 13.812209002364792, 40.50334602347399 14.000386432974322, 40.14909332057934 14.247497783161286 C39.87152567167644 14.415760923094787, 39.593958022773535 14.584024063028288, 39.21719838406695 14.81241797009762 C38.912617097814866 14.971317832041704, 38.608035811562786 15.130217693985788, 38.25102356499849 15.316470754341124 C37.89052593276636 15.47605236234798, 37.53002830053422 15.635633970354835, 37.254539082949364 15.757584874882367 C36.98221234241453 15.85780363275998, 36.70988560187969 15.958022390637595, 36.23183970640156 16.133947699181363 C35.88293475543924 16.23750085718752, 35.534029804476916 16.341054015193677, 35.18712792646164 16.444012671663497 C34.94267909154428 16.49980652305566, 34.698230256626914 16.555600374447824, 34.12469668792333 16.68650566884811 C33.8929239439825 16.72397688866399, 33.66115120004167 16.76144810847987, 33.04891174863661 16.86043023499518 C32.654079374689225 16.898519239254483, 32.259247000741844 16.936608243513785, 31.96419373967212 16.965071676755716 C31.74449425917322 16.972117011476218, 31.52479477867432 16.979162346196723, 30.875000000000004 17 C30.875000000000004 17, 30.875 17, 30.875 17 C6.312584569906782 17, -18.249830860186435 17, -30.874999999999996 17 C-31.17501207363931 16.990379196736463, -31.47502414727862 16.980758393472925, -31.964193739672112 16.965071676755716 C-32.1985241035084 16.942466108379925, -32.43285446734468 16.919860540004134, -33.048911748636606 16.86043023499518 C-33.393075664918584 16.804788482041744, -33.737239581200555 16.74914672908831, -34.124696687923326 16.68650566884811 C-34.35273182142562 16.634458137694523, -34.58076695492792 16.58241060654094, -35.18712792646162 16.4440126716635 C-35.56217517089417 16.33270061817908, -35.937222415326715 16.22138856469466, -36.231839706401544 16.13394769918137 C-36.568213092929135 16.01015918353772, -36.90458647945672 15.886370667894067, -37.254539082949364 15.757584874882369 C-37.61192964735403 15.59937867363484, -37.9693202117587 15.441172472387311, -38.25102356499848 15.316470754341127 C-38.61294079895489 15.127658765205123, -38.97485803291129 14.938846776069118, -39.21719838406693 14.812417970097624 C-39.53148334593264 14.621896579271187, -39.84576830779836 14.431375188444749, -40.14909332057932 14.247497783161299 C-40.40189051788753 14.071157401733384, -40.65468771519574 13.89481702030547, -41.04287901835067 13.624031571755264 C-41.313820623455385 13.407962851743171, -41.584762228560095 13.191894131731079, -41.8948827202324 12.94458129227529 C-42.156390318649834 12.707087010504479, -42.41789791706726 12.46959272873367, -42.70160336025926 12.211938951661377 C-42.92705247502105 11.979144230953272, -43.152501589782844 11.74634951024517, -43.459725950280365 11.429115134442386 C-43.72973715578906 11.111944608379039, -43.99974836129775 10.794774082315692, -44.16613520195651 10.599326631598473 C-44.381204391014144 10.311153511467431, -44.59627358007178 10.02298039133639, -44.81792832814825 9.72598322207689 C-44.971593443484174 9.489912340059815, -45.1252585588201 9.25384145804274, -45.41242697109088 8.812673661278936 C-45.59777226125874 8.483574330340115, -45.7831175514266 8.154474999401293, -45.947188208341004 7.863150934094201 C-46.05883021784525 7.6313239126023085, -46.170472227349485 7.399496891110416, -46.42001459126881 6.881316833080701 C-46.56545266927151 6.522081968560094, -46.7108907472742 6.162847104039487, -46.828963174845924 5.87120592516224 C-46.94461813647535 5.522871607850108, -47.060273098104766 5.174537290537976, -47.172353501623235 4.8369689727275516 C-47.2767100549755 4.439012206379028, -47.38106660832777 4.0410554400305045, -47.448774507091 3.782855877257349 C-47.52767887669743 3.3776986157727613, -47.606583246303856 2.9725413542881736, -47.65709031804565 2.713198215567455 C-47.706753795799955 2.328018089267991, -47.75641727355426 1.9428379629685268, -47.796444920136366 1.6323914404306026 C-47.82367339497362 1.208285966411095, -47.850901869810876 0.7841804923915873, -47.8662656754117 0.54487681871814 C-47.8662656754117 0.13646731053292532, -47.8662656754117 -0.27194219765228933, -47.8662656754117 -0.5448768187181317 C-47.84496133989357 -0.8767090409630384, -47.82365700437544 -1.208541263207945, -47.796444920136366 -1.6323914404305793 C-47.753394364025425 -1.9662830523331678, -47.71034380791449 -2.3001746642357563, -47.657090318045654 -2.713198215567447 C-47.605182680442994 -2.979732963974021, -47.55327504284033 -3.246267712380595, -47.448774507091 -3.782855877257341 C-47.38207921765347 -4.037193921803936, -47.315383928215944 -4.29153196635053, -47.172353501623235 -4.836968972727544 C-47.09093924688577 -5.082175736396889, -47.00952499214829 -5.327382500066234, -46.82896317484593 -5.871205925162218 C-46.68769368377936 -6.220144299356455, -46.546424192712784 -6.569082673550692, -46.42001459126881 -6.881316833080692 C-46.31323194477258 -7.103053283312731, -46.206449298276354 -7.324789733544769, -45.947188208341004 -7.863150934094194 C-45.81653164966595 -8.095144884432985, -45.68587509099088 -8.327138834771775, -45.41242697109088 -8.812673661278929 C-45.287236593214004 -9.004999700021278, -45.16204621533713 -9.19732573876363, -44.81792832814825 -9.725983222076884 C-44.571431907482804 -10.056265969482688, -44.32493548681736 -10.38654871688849, -44.16613520195651 -10.599326631598467 C-43.97884169032523 -10.819332247663283, -43.79154817869396 -11.039337863728097, -43.45972595028037 -11.42911513444238 C-43.21195903604238 -11.684954815435075, -42.96419212180439 -11.940794496427772, -42.70160336025928 -12.21193895166136 C-42.40507043272231 -12.481242310619107, -42.108537505185346 -12.750545669576855, -41.89488272023242 -12.944581292275274 C-41.600388301807996 -13.179432754143148, -41.305893883383575 -13.414284216011023, -41.042879018350675 -13.624031571755259 C-40.84376634576107 -13.762923952705092, -40.64465367317147 -13.901816333654926, -40.14909332057934 -14.247497783161284 C-39.860184248308585 -14.422636160589981, -39.57127517603782 -14.59777453801868, -39.21719838406695 -14.812417970097618 C-38.963500596334015 -14.9447719434567, -38.709802808601076 -15.077125916815785, -38.25102356499849 -15.316470754341124 C-38.00126123717724 -15.427033127931377, -37.75149890935599 -15.53759550152163, -37.25453908294937 -15.757584874882365 C-36.95332554448801 -15.868434241423573, -36.65211200602665 -15.979283607964781, -36.231839706401566 -16.133947699181363 C-35.87508999444054 -16.23982914107394, -35.51834028247953 -16.34571058296652, -35.18712792646164 -16.444012671663494 C-34.805292325821235 -16.53116415579951, -34.423456725180834 -16.618315639935528, -34.12469668792333 -16.68650566884811 C-33.869692523434 -16.727732764575915, -33.61468835894466 -16.76895986030372, -33.04891174863661 -16.86043023499518 C-32.621453988985586 -16.901666570975546, -32.19399622933455 -16.94290290695591, -31.96419373967212 -16.965071676755716 C-31.55902890481497 -16.978064524404076, -31.153864069957823 -16.991057372052435, -30.875000000000004 -17 C-30.875000000000004 -17, -30.875 -17, -30.875 -17" stroke="none" stroke-width="0" fill="#2d2d2d" style=""></path><path d="M-30.875 -17 C-12.149467659618743 -17, 6.576064680762514 -17, 30.875 -17 M-30.875 -17 C-15.289290842176522 -17, 0.29641831564695664 -17, 30.875 -17 M30.875 -17 C30.875 -17, 30.875 -17, 30.875 -17 M30.875 -17 C30.875 -17, 30.875 -17, 30.875 -17 M30.875 -17 C31.1506545133878 -16.991160296284615, 31.426309026775602 -16.982320592569227, 31.96419373967212 -16.965071676755716 M30.875 -17 C31.208458412403257 -16.989306637751653, 31.541916824806517 -16.978613275503303, 31.96419373967212 -16.965071676755716 M31.96419373967212 -16.965071676755716 C32.266453162431745 -16.935913073762237, 32.56871258519138 -16.906754470768757, 33.0489117486366 -16.860430234995185 M31.96419373967212 -16.965071676755716 C32.285847253208715 -16.93404214914979, 32.60750076674531 -16.903012621543862, 33.0489117486366 -16.860430234995185 M33.0489117486366 -16.860430234995185 C33.316208100421896 -16.817215833752705, 33.583504452207194 -16.774001432510225, 34.124696687923326 -16.686505668848113 M33.0489117486366 -16.860430234995185 C33.29431149986632 -16.820755906319857, 33.539711251096044 -16.78108157764453, 34.124696687923326 -16.686505668848113 M34.124696687923326 -16.686505668848113 C34.36650651942855 -16.631314152763665, 34.60831635093376 -16.576122636679216, 35.18712792646162 -16.4440126716635 M34.124696687923326 -16.686505668848113 C34.338605104742314 -16.63768246859205, 34.5525135215613 -16.588859268335987, 35.18712792646162 -16.4440126716635 M35.18712792646162 -16.4440126716635 C35.553451357562395 -16.33528980018372, 35.91977478866317 -16.22656692870394, 36.23183970640155 -16.133947699181366 M35.18712792646162 -16.4440126716635 C35.475727849935375 -16.358357729268402, 35.764327773409136 -16.272702786873303, 36.23183970640155 -16.133947699181366 M36.23183970640155 -16.133947699181366 C36.51447772604093 -16.02993429527686, 36.797115745680316 -15.925920891372355, 37.25453908294936 -15.757584874882369 M36.23183970640155 -16.133947699181366 C36.54774283869696 -16.01769242632011, 36.86364597099238 -15.901437153458854, 37.25453908294936 -15.757584874882369 M37.25453908294936 -15.757584874882369 C37.55365007723755 -15.625177310523382, 37.85276107152574 -15.492769746164395, 38.25102356499849 -15.316470754341125 M37.25453908294936 -15.757584874882369 C37.53664644865876 -15.632704312500492, 37.818753814368165 -15.507823750118613, 38.25102356499849 -15.316470754341125 M38.25102356499849 -15.316470754341125 C38.5879397655119 -15.140701788338408, 38.9248559660253 -14.96493282233569, 39.21719838406694 -14.812417970097622 M38.25102356499849 -15.316470754341125 C38.54600140370189 -15.162581004831885, 38.84097924240528 -15.008691255322647, 39.21719838406694 -14.812417970097622 M39.21719838406694 -14.812417970097622 C39.57038287536547 -14.598315455930003, 39.92356736666399 -14.384212941762383, 40.149093320579325 -14.247497783161291 M39.21719838406694 -14.812417970097622 C39.5301776734799 -14.622688085585027, 39.84315696289285 -14.432958201072433, 40.149093320579325 -14.247497783161291 M40.149093320579325 -14.247497783161291 C40.504626830831846 -13.999492997206739, 40.86016034108437 -13.751488211252186, 41.042879018350675 -13.624031571755262 M40.149093320579325 -14.247497783161291 C40.387223797377374 -14.081388271049173, 40.625354274175415 -13.915278758937053, 41.042879018350675 -13.624031571755262 M41.042879018350675 -13.624031571755262 C41.31730816980428 -13.405181626337436, 41.59173732125788 -13.186331680919608, 41.8948827202324 -12.944581292275288 M41.042879018350675 -13.624031571755262 C41.23501096069454 -13.470811460581743, 41.4271429030384 -13.317591349408222, 41.8948827202324 -12.944581292275288 M41.8948827202324 -12.944581292275288 C42.071767170390196 -12.78393951474807, 42.24865162054799 -12.62329773722085, 42.70160336025927 -12.21193895166137 M41.8948827202324 -12.944581292275288 C42.20186672559894 -12.665786540953087, 42.50885073096548 -12.386991789630887, 42.70160336025927 -12.21193895166137 M42.70160336025927 -12.21193895166137 C42.96553243236005 -11.939410515737503, 43.229461504460836 -11.666882079813636, 43.45972595028036 -11.42911513444239 M42.70160336025927 -12.21193895166137 C42.9395051334242 -11.966285838769755, 43.17740690658913 -11.720632725878142, 43.45972595028036 -11.42911513444239 M43.45972595028036 -11.42911513444239 C43.715114011674025 -11.129121785537025, 43.97050207306769 -10.829128436631661, 44.16613520195651 -10.59932663159847 M43.45972595028036 -11.42911513444239 C43.678433918350386 -11.172208310311408, 43.89714188642041 -10.915301486180427, 44.16613520195651 -10.59932663159847 M44.16613520195651 -10.59932663159847 C44.3073974817013 -10.410048045998881, 44.44865976144609 -10.220769460399293, 44.81792832814825 -9.725983222076888 M44.16613520195651 -10.59932663159847 C44.39796481150426 -10.288696074916391, 44.62979442105202 -9.97806551823431, 44.81792832814825 -9.725983222076888 M44.81792832814825 -9.725983222076888 C45.05419452609608 -9.363014895671533, 45.29046072404392 -9.000046569266178, 45.41242697109088 -8.812673661278927 M44.81792832814825 -9.725983222076888 C44.97857422634533 -9.479187982982403, 45.13922012454242 -9.232392743887917, 45.41242697109088 -8.812673661278927 M45.41242697109088 -8.812673661278927 C45.57057563967449 -8.531864685919516, 45.72872430825809 -8.251055710560106, 45.947188208341004 -7.863150934094199 M45.41242697109088 -8.812673661278927 C45.52712675274068 -8.60901258434738, 45.641826534390475 -8.405351507415832, 45.947188208341004 -7.863150934094199 M45.947188208341004 -7.863150934094199 C46.09652712219562 -7.553045484134214, 46.24586603605024 -7.242940034174227, 46.42001459126881 -6.881316833080699 M45.947188208341004 -7.863150934094199 C46.09408257219703 -7.558121644511276, 46.24097693605306 -7.253092354928353, 46.42001459126881 -6.881316833080699 M46.42001459126881 -6.881316833080699 C46.55530796166448 -6.54713959248401, 46.69060133206016 -6.212962351887321, 46.828963174845924 -5.871205925162238 M46.42001459126881 -6.881316833080699 C46.53046585517681 -6.608500075798036, 46.6409171190848 -6.335683318515374, 46.828963174845924 -5.871205925162238 M46.828963174845924 -5.871205925162238 C46.90898516327223 -5.630192445794627, 46.98900715169852 -5.389178966427017, 47.172353501623235 -4.836968972727556 M46.828963174845924 -5.871205925162238 C46.958993851421 -5.47957424489292, 47.08902452799608 -5.087942564623601, 47.172353501623235 -4.836968972727556 M47.172353501623235 -4.836968972727556 C47.28231781648932 -4.4176273813076445, 47.392282131355394 -3.9982857898877326, 47.448774507091 -3.7828558772573464 M47.172353501623235 -4.836968972727556 C47.23694427682352 -4.590656353069797, 47.301535052023816 -4.344343733412038, 47.448774507091 -3.7828558772573464 M47.448774507091 -3.7828558772573464 C47.53193298883476 -3.355854649054492, 47.61509147057851 -2.9288534208516372, 47.65709031804565 -2.713198215567453 M47.448774507091 -3.7828558772573464 C47.5309441702523 -3.3609320234885542, 47.613113833413585 -2.939008169719762, 47.65709031804565 -2.713198215567453 M47.65709031804565 -2.713198215567453 C47.69086196893534 -2.451271960233817, 47.72463361982502 -2.189345704900181, 47.796444920136366 -1.632391440430593 M47.65709031804565 -2.713198215567453 C47.69194772794142 -2.4428510277899878, 47.72680513783719 -2.1725038400125225, 47.796444920136366 -1.632391440430593 M47.796444920136366 -1.632391440430593 C47.81147968835025 -1.3982127896528633, 47.82651445656414 -1.1640341388751339, 47.8662656754117 -0.5448768187181379 M47.796444920136366 -1.632391440430593 C47.823189711140365 -1.2158197325365707, 47.84993450214437 -0.7992480246425483, 47.8662656754117 -0.5448768187181379 M47.8662656754117 -0.5448768187181379 C47.8662656754117 -0.2119472334362434, 47.8662656754117 0.12098235184565109, 47.8662656754117 0.5448768187181336 M47.8662656754117 -0.5448768187181379 C47.8662656754117 -0.296680679620746, 47.8662656754117 -0.04848454052335416, 47.8662656754117 0.5448768187181336 M47.8662656754117 0.5448768187181336 C47.843171447864535 0.9045880540901086, 47.82007722031737 1.2642992894620835, 47.796444920136366 1.6323914404305815 M47.8662656754117 0.5448768187181336 C47.839420530764706 0.9630116156057327, 47.812575386117715 1.3811464124933317, 47.796444920136366 1.6323914404305815 M47.796444920136366 1.6323914404305815 C47.75559666263011 1.949202459248279, 47.71474840512386 2.2660134780659766, 47.657090318045654 2.7131982155674415 M47.796444920136366 1.6323914404305815 C47.74874444458696 2.0023469092674695, 47.701043969037556 2.372302378104357, 47.657090318045654 2.7131982155674415 M47.657090318045654 2.7131982155674415 C47.58123237903147 3.102712699824174, 47.50537444001729 3.492227184080907, 47.448774507091 3.782855877257343 M47.657090318045654 2.7131982155674415 C47.605551676672185 2.9778382463244903, 47.554013035298716 3.242478277081539, 47.448774507091 3.782855877257343 M47.448774507091 3.782855877257343 C47.393215812768254 3.994725258000419, 47.337657118445506 4.206594638743495, 47.172353501623235 4.836968972727545 M47.448774507091 3.782855877257343 C47.34102101875099 4.193766628955049, 47.23326753041099 4.604677380652754, 47.172353501623235 4.836968972727545 M47.172353501623235 4.836968972727545 C47.10004584354974 5.054748118184113, 47.02773818547626 5.272527263640681, 46.828963174845924 5.871205925162227 M47.172353501623235 4.836968972727545 C47.071464921591954 5.140829301369469, 46.97057634156068 5.444689630011394, 46.828963174845924 5.871205925162227 M46.828963174845924 5.871205925162227 C46.67091812898576 6.261580244029925, 46.5128730831256 6.651954562897623, 46.42001459126881 6.881316833080694 M46.828963174845924 5.871205925162227 C46.690071982936054 6.214269854458129, 46.551180791026184 6.557333783754031, 46.42001459126881 6.881316833080694 M46.42001459126881 6.881316833080694 C46.321119820152276 7.086673941313299, 46.22222504903574 7.292031049545904, 45.947188208341004 7.863150934094196 M46.42001459126881 6.881316833080694 C46.28259735092332 7.16666667291604, 46.14518011057782 7.452016512751387, 45.947188208341004 7.863150934094196 M45.947188208341004 7.863150934094196 C45.79381633965882 8.135478217525195, 45.64044447097664 8.407805500956194, 45.41242697109089 8.812673661278923 M45.947188208341004 7.863150934094196 C45.787717839335926 8.146306722388612, 45.628247470330855 8.429462510683027, 45.41242697109089 8.812673661278923 M45.41242697109089 8.812673661278923 C45.20671913270309 9.128696141331556, 45.0010112943153 9.444718621384188, 44.817928328148255 9.725983222076879 M45.41242697109089 8.812673661278923 C45.18505252467589 9.161981869560236, 44.957678078260884 9.511290077841547, 44.817928328148255 9.725983222076879 M44.817928328148255 9.725983222076879 C44.60212545903611 10.015139406641334, 44.38632258992396 10.30429559120579, 44.16613520195651 10.599326631598467 M44.817928328148255 9.725983222076879 C44.67978694454893 9.911080091161033, 44.541645560949604 10.096176960245185, 44.16613520195651 10.599326631598467 M44.16613520195651 10.599326631598467 C43.917823418553446 10.891007781724447, 43.669511635150386 11.182688931850427, 43.45972595028037 11.42911513444238 M44.16613520195651 10.599326631598467 C43.88399949574324 10.930739286093043, 43.60186378952998 11.26215194058762, 43.45972595028037 11.42911513444238 M43.45972595028037 11.42911513444238 C43.24211886251469 11.653812318434614, 43.024511774749 11.878509502426846, 42.70160336025927 12.211938951661365 M43.45972595028037 11.42911513444238 C43.242850030125915 11.653057327846042, 43.02597410997146 11.876999521249704, 42.70160336025927 12.211938951661365 M42.70160336025927 12.211938951661365 C42.38768607371754 12.49703032550231, 42.0737687871758 12.782121699343257, 41.89488272023242 12.944581292275275 M42.70160336025927 12.211938951661365 C42.52184634553664 12.375189516322475, 42.34208933081401 12.538440080983586, 41.89488272023242 12.944581292275275 M41.89488272023242 12.944581292275275 C41.674144639076026 13.120614037910462, 41.453406557919635 13.296646783545649, 41.042879018350675 13.62403157175526 M41.89488272023242 12.944581292275275 C41.5582103652503 13.213068536145888, 41.22153801026817 13.481555780016501, 41.042879018350675 13.62403157175526 M41.042879018350675 13.62403157175526 C40.78305017697024 13.805276923692988, 40.52322133558982 13.986522275630715, 40.14909332057934 14.247497783161286 M41.042879018350675 13.62403157175526 C40.83415375957481 13.769629276706482, 40.62542850079894 13.915226981657703, 40.14909332057934 14.247497783161286 M40.14909332057934 14.247497783161286 C39.91221374747295 14.39109557243727, 39.675334174366554 14.53469336171325, 39.21719838406695 14.81241797009762 M40.14909332057934 14.247497783161286 C39.952779297137276 14.36650449784112, 39.75646527369522 14.485511212520956, 39.21719838406695 14.81241797009762 M39.21719838406695 14.81241797009762 C39.00611616660216 14.922539427744383, 38.795033949137384 15.032660885391147, 38.25102356499849 15.316470754341124 M39.21719838406695 14.81241797009762 C38.92872636995494 14.962913635084712, 38.64025435584293 15.113409300071803, 38.25102356499849 15.316470754341124 M38.25102356499849 15.316470754341124 C37.95548912712584 15.44729508326973, 37.65995468925318 15.578119412198335, 37.254539082949364 15.757584874882367 M38.25102356499849 15.316470754341124 C37.9935515799538 15.430445964485335, 37.73607959490912 15.544421174629546, 37.254539082949364 15.757584874882367 M37.254539082949364 15.757584874882367 C36.968780978029116 15.862746499011983, 36.68302287310887 15.9679081231416, 36.23183970640156 16.133947699181363 M37.254539082949364 15.757584874882367 C36.87805928901409 15.896132919191613, 36.50157949507882 16.034680963500858, 36.23183970640156 16.133947699181363 M36.23183970640156 16.133947699181363 C35.912548123753695 16.22871176491553, 35.59325654110583 16.323475830649702, 35.18712792646164 16.444012671663497 M36.23183970640156 16.133947699181363 C35.819203466446105 16.25641596922832, 35.40656722649065 16.378884239275276, 35.18712792646164 16.444012671663497 M35.18712792646164 16.444012671663497 C34.95164868625731 16.497759271594486, 34.716169446052966 16.551505871525478, 34.12469668792333 16.68650566884811 M35.18712792646164 16.444012671663497 C34.94650620517965 16.498933009342636, 34.70588448389767 16.553853347021775, 34.12469668792333 16.68650566884811 M34.12469668792333 16.68650566884811 C33.87523533364903 16.726836646005484, 33.62577397937473 16.767167623162855, 33.04891174863661 16.86043023499518 M34.12469668792333 16.68650566884811 C33.751155791998464 16.74689686404833, 33.377614896073595 16.80728805924855, 33.04891174863661 16.86043023499518 M33.04891174863661 16.86043023499518 C32.77197995008133 16.887145512542595, 32.49504815152604 16.913860790090006, 31.96419373967212 16.965071676755716 M33.04891174863661 16.86043023499518 C32.70516455574793 16.893591113276667, 32.36141736285925 16.926751991558156, 31.96419373967212 16.965071676755716 M31.96419373967212 16.965071676755716 C31.5768522718937 16.97749296371294, 31.189510804115283 16.989914250670164, 30.875000000000004 17 M31.96419373967212 16.965071676755716 C31.5603519022056 16.97802209845282, 31.156510064739077 16.990972520149917, 30.875000000000004 17 M30.875000000000004 17 C30.875000000000004 17, 30.875 17, 30.875 17 M30.875000000000004 17 C30.875000000000004 17, 30.875 17, 30.875 17 M30.875 17 C8.986242845825757 17, -12.902514308348486 17, -30.874999999999996 17 M30.875 17 C12.364372880450048 17, -6.146254239099903 17, -30.874999999999996 17 M-30.874999999999996 17 C-31.231243410286638 16.98857596721784, -31.587486820573282 16.97715193443568, -31.964193739672112 16.965071676755716 M-30.874999999999996 17 C-31.217231619367837 16.98902529808031, -31.559463238735674 16.978050596160617, -31.964193739672112 16.965071676755716 M-31.964193739672112 16.965071676755716 C-32.19665642274829 16.942646281296636, -32.42911910582447 16.92022088583756, -33.048911748636606 16.86043023499518 M-31.964193739672112 16.965071676755716 C-32.18575418981984 16.94369800659539, -32.407314639967574 16.922324336435068, -33.048911748636606 16.86043023499518 M-33.048911748636606 16.86043023499518 C-33.45565681084866 16.794670847691805, -33.86240187306072 16.728911460388428, -34.124696687923326 16.68650566884811 M-33.048911748636606 16.86043023499518 C-33.341781244305224 16.81308136617234, -33.634650739973836 16.765732497349497, -34.124696687923326 16.68650566884811 M-34.124696687923326 16.68650566884811 C-34.52871490179254 16.594291147997698, -34.93273311566175 16.502076627147286, -35.18712792646162 16.4440126716635 M-34.124696687923326 16.68650566884811 C-34.35396884980973 16.634175794038214, -34.583241011696146 16.58184591922832, -35.18712792646162 16.4440126716635 M-35.18712792646162 16.4440126716635 C-35.40472340113772 16.37943147696159, -35.62231887581383 16.314850282259673, -36.231839706401544 16.13394769918137 M-35.18712792646162 16.4440126716635 C-35.41070963103692 16.377654795349866, -35.63429133561223 16.311296919036234, -36.231839706401544 16.13394769918137 M-36.231839706401544 16.13394769918137 C-36.560214476776935 16.013102748220124, -36.88858924715232 15.89225779725888, -37.254539082949364 15.757584874882369 M-36.231839706401544 16.13394769918137 C-36.61897370895395 15.991478807614595, -37.00610771150636 15.84900991604782, -37.254539082949364 15.757584874882369 M-37.254539082949364 15.757584874882369 C-37.52732939234649 15.636828696949282, -37.800119701743604 15.516072519016195, -38.25102356499848 15.316470754341127 M-37.254539082949364 15.757584874882369 C-37.48860883516599 15.653969139008566, -37.72267858738262 15.550353403134764, -38.25102356499848 15.316470754341127 M-38.25102356499848 15.316470754341127 C-38.51860036453399 15.176876109414573, -38.7861771640695 15.03728146448802, -39.21719838406693 14.812417970097624 M-38.25102356499848 15.316470754341127 C-38.46638136041198 15.204118730417157, -38.681739155825476 15.091766706493189, -39.21719838406693 14.812417970097624 M-39.21719838406693 14.812417970097624 C-39.501167124455584 14.640274450888475, -39.78513586484423 14.468130931679328, -40.14909332057932 14.247497783161299 M-39.21719838406693 14.812417970097624 C-39.554088842549206 14.608192994377585, -39.89097930103147 14.403968018657547, -40.14909332057932 14.247497783161299 M-40.14909332057932 14.247497783161299 C-40.35389108956926 14.10463972506645, -40.558688858559194 13.9617816669716, -41.04287901835067 13.624031571755264 M-40.14909332057932 14.247497783161299 C-40.366967450680605 14.09551822162172, -40.5848415807819 13.943538660082142, -41.04287901835067 13.624031571755264 M-41.04287901835067 13.624031571755264 C-41.2335973887214 13.471938746613587, -41.42431575909214 13.31984592147191, -41.8948827202324 12.94458129227529 M-41.04287901835067 13.624031571755264 C-41.27720870185951 13.43715988493173, -41.51153838536835 13.250288198108198, -41.8948827202324 12.94458129227529 M-41.8948827202324 12.94458129227529 C-42.20853744106645 12.659728373662958, -42.5221921619005 12.374875455050624, -42.70160336025926 12.211938951661377 M-41.8948827202324 12.94458129227529 C-42.11499532000154 12.744680853025208, -42.335107919770685 12.544780413775127, -42.70160336025926 12.211938951661377 M-42.70160336025926 12.211938951661377 C-42.86304000895649 12.04524235768614, -43.024476657653715 11.878545763710903, -43.459725950280365 11.429115134442386 M-42.70160336025926 12.211938951661377 C-42.969341368434556 11.935477476521111, -43.23707937660985 11.659016001380845, -43.459725950280365 11.429115134442386 M-43.459725950280365 11.429115134442386 C-43.68503952591558 11.16444898779562, -43.91035310155079 10.899782841148852, -44.16613520195651 10.599326631598473 M-43.459725950280365 11.429115134442386 C-43.717062088048145 11.126833464179299, -43.974398225815925 10.824551793916214, -44.16613520195651 10.599326631598473 M-44.16613520195651 10.599326631598473 C-44.32731172561238 10.383364773382976, -44.48848824926825 10.167402915167479, -44.81792832814825 9.72598322207689 M-44.16613520195651 10.599326631598473 C-44.36098623446757 10.338243999327894, -44.55583726697863 10.077161367057313, -44.81792832814825 9.72598322207689 M-44.81792832814825 9.72598322207689 C-45.01541322654021 9.422593386026419, -45.212898124932174 9.119203549975948, -45.41242697109088 8.812673661278936 M-44.81792832814825 9.72598322207689 C-45.02498055459317 9.407895400949771, -45.23203278103809 9.089807579822653, -45.41242697109088 8.812673661278936 M-45.41242697109088 8.812673661278936 C-45.520726429873235 8.6203770057015, -45.62902588865558 8.428080350124064, -45.947188208341004 7.863150934094201 M-45.41242697109088 8.812673661278936 C-45.54278632981691 8.581207419544407, -45.67314568854294 8.349741177809879, -45.947188208341004 7.863150934094201 M-45.947188208341004 7.863150934094201 C-46.071487643182486 7.605040498064017, -46.19578707802396 7.346930062033833, -46.42001459126881 6.881316833080701 M-45.947188208341004 7.863150934094201 C-46.11357247755812 7.517650439011799, -46.27995674677524 7.172149943929397, -46.42001459126881 6.881316833080701 M-46.42001459126881 6.881316833080701 C-46.51449127437819 6.647957599218128, -46.60896795748757 6.414598365355555, -46.828963174845924 5.87120592516224 M-46.42001459126881 6.881316833080701 C-46.51554563200192 6.6453533155029, -46.611076672735024 6.409389797925099, -46.828963174845924 5.87120592516224 M-46.828963174845924 5.87120592516224 C-46.93588445477646 5.549176065603931, -47.04280573470701 5.227146206045623, -47.172353501623235 4.8369689727275516 M-46.828963174845924 5.87120592516224 C-46.955569658435515 5.489887368594137, -47.08217614202511 5.108568812026035, -47.172353501623235 4.8369689727275516 M-47.172353501623235 4.8369689727275516 C-47.258351959036325 4.509019582644223, -47.344350416449416 4.181070192560894, -47.448774507091 3.782855877257349 M-47.172353501623235 4.8369689727275516 C-47.280234827436516 4.425570721339143, -47.3881161532498 4.014172469950733, -47.448774507091 3.782855877257349 M-47.448774507091 3.782855877257349 C-47.50970303603093 3.4700007583999675, -47.57063156497085 3.157145639542586, -47.65709031804565 2.713198215567455 M-47.448774507091 3.782855877257349 C-47.52121876478911 3.410869925076824, -47.59366302248723 3.038883972896299, -47.65709031804565 2.713198215567455 M-47.65709031804565 2.713198215567455 C-47.70421895844797 2.347677787209744, -47.751347598850295 1.982157358852033, -47.796444920136366 1.6323914404306026 M-47.65709031804565 2.713198215567455 C-47.6855532407285 2.492445407879058, -47.71401616341136 2.2716926001906605, -47.796444920136366 1.6323914404306026 M-47.796444920136366 1.6323914404306026 C-47.82418380127553 1.2003359762662698, -47.851922682414695 0.768280512101937, -47.8662656754117 0.54487681871814 M-47.796444920136366 1.6323914404306026 C-47.8138894355058 1.3606790325923621, -47.831333950875226 1.0889666247541214, -47.8662656754117 0.54487681871814 M-47.8662656754117 0.54487681871814 C-47.8662656754117 0.2856392792673477, -47.8662656754117 0.02640173981655547, -47.8662656754117 -0.5448768187181317 M-47.8662656754117 0.54487681871814 C-47.8662656754117 0.13825154388378896, -47.8662656754117 -0.26837373095056205, -47.8662656754117 -0.5448768187181317 M-47.8662656754117 -0.5448768187181317 C-47.841002804881036 -0.9383664190552037, -47.815739934350376 -1.331856019392276, -47.796444920136366 -1.6323914404305793 M-47.8662656754117 -0.5448768187181317 C-47.8510950890287 -0.7811709471102014, -47.8359245026457 -1.0174650755022712, -47.796444920136366 -1.6323914404305793 M-47.796444920136366 -1.6323914404305793 C-47.76484314287262 -1.877488584411411, -47.73324136560888 -2.122585728392243, -47.657090318045654 -2.713198215567447 M-47.796444920136366 -1.6323914404305793 C-47.7464303502121 -2.020294568269242, -47.69641578028784 -2.408197696107905, -47.657090318045654 -2.713198215567447 M-47.657090318045654 -2.713198215567447 C-47.611020973259855 -2.9497545642830616, -47.564951628474056 -3.186310912998677, -47.448774507091 -3.782855877257341 M-47.657090318045654 -2.713198215567447 C-47.60659025432425 -2.972505369584593, -47.55609019060285 -3.23181252360174, -47.448774507091 -3.782855877257341 M-47.448774507091 -3.782855877257341 C-47.37769072287009 -4.053929154398631, -47.30660693864918 -4.325002431539922, -47.172353501623235 -4.836968972727544 M-47.448774507091 -3.782855877257341 C-47.34628408022645 -4.173696294523873, -47.2437936533619 -4.5645367117904065, -47.172353501623235 -4.836968972727544 M-47.172353501623235 -4.836968972727544 C-47.07759055717264 -5.122379862987945, -46.98282761272204 -5.407790753248346, -46.82896317484593 -5.871205925162218 M-47.172353501623235 -4.836968972727544 C-47.059024652525295 -5.178297409710546, -46.94569580342736 -5.519625846693549, -46.82896317484593 -5.871205925162218 M-46.82896317484593 -5.871205925162218 C-46.678961624391015 -6.241712654868547, -46.5289600739361 -6.612219384574875, -46.42001459126881 -6.881316833080692 M-46.82896317484593 -5.871205925162218 C-46.70720276780408 -6.171956484632921, -46.58544236076222 -6.472707044103624, -46.42001459126881 -6.881316833080692 M-46.42001459126881 -6.881316833080692 C-46.232274970289836 -7.271162173027918, -46.04453534931086 -7.661007512975143, -45.947188208341004 -7.863150934094194 M-46.42001459126881 -6.881316833080692 C-46.279653846161075 -7.172778923535747, -46.13929310105333 -7.464241013990802, -45.947188208341004 -7.863150934094194 M-45.947188208341004 -7.863150934094194 C-45.824916226999306 -8.080257218347082, -45.7026442456576 -8.29736350259997, -45.41242697109088 -8.812673661278929 M-45.947188208341004 -7.863150934094194 C-45.82624612063347 -8.077895857533285, -45.70530403292594 -8.292640780972375, -45.41242697109088 -8.812673661278929 M-45.41242697109088 -8.812673661278929 C-45.19505886876406 -9.146609437961185, -44.977690766437235 -9.480545214643442, -44.81792832814825 -9.725983222076884 M-45.41242697109088 -8.812673661278929 C-45.22723770967153 -9.097174097098641, -45.042048448252174 -9.381674532918353, -44.81792832814825 -9.725983222076884 M-44.81792832814825 -9.725983222076884 C-44.63258840027595 -9.974321840610983, -44.44724847240365 -10.22266045914508, -44.16613520195651 -10.599326631598467 M-44.81792832814825 -9.725983222076884 C-44.58886000361594 -10.032913908396507, -44.35979167908363 -10.33984459471613, -44.16613520195651 -10.599326631598467 M-44.16613520195651 -10.599326631598467 C-43.90082872287896 -10.910970718289274, -43.63552224380142 -11.222614804980081, -43.45972595028037 -11.42911513444238 M-44.16613520195651 -10.599326631598467 C-43.88841679981531 -10.92555046937827, -43.61069839767411 -11.251774307158072, -43.45972595028037 -11.42911513444238 M-43.45972595028037 -11.42911513444238 C-43.19547264818155 -11.701978364458997, -42.931219346082734 -11.974841594475611, -42.70160336025928 -12.21193895166136 M-43.45972595028037 -11.42911513444238 C-43.22360552231759 -11.672928862161612, -42.98748509435482 -11.916742589880842, -42.70160336025928 -12.21193895166136 M-42.70160336025928 -12.21193895166136 C-42.51416999869954 -12.38216097141492, -42.32673663713981 -12.552382991168482, -41.89488272023242 -12.944581292275274 M-42.70160336025928 -12.21193895166136 C-42.38555533486224 -12.498965406154433, -42.0695073094652 -12.785991860647506, -41.89488272023242 -12.944581292275274 M-41.89488272023242 -12.944581292275274 C-41.55929982577889 -13.212199720366089, -41.22371693132538 -13.479818148456902, -41.042879018350675 -13.624031571755259 M-41.89488272023242 -12.944581292275274 C-41.687963294239864 -13.109594028147157, -41.481043868247305 -13.274606764019042, -41.042879018350675 -13.624031571755259 M-41.042879018350675 -13.624031571755259 C-40.86374111797418 -13.748990416303183, -40.684603217597676 -13.873949260851106, -40.14909332057934 -14.247497783161284 M-41.042879018350675 -13.624031571755259 C-40.692030905251464 -13.868768027483242, -40.34118279215225 -14.113504483211225, -40.14909332057934 -14.247497783161284 M-40.14909332057934 -14.247497783161284 C-39.786998079302215 -14.467002046331308, -39.4249028380251 -14.68650630950133, -39.21719838406695 -14.812417970097618 M-40.14909332057934 -14.247497783161284 C-39.787445374875745 -14.466730893126035, -39.42579742917215 -14.685964003090788, -39.21719838406695 -14.812417970097618 M-39.21719838406695 -14.812417970097618 C-38.97104197442692 -14.940837611336114, -38.72488556478689 -15.069257252574612, -38.25102356499849 -15.316470754341124 M-39.21719838406695 -14.812417970097618 C-38.89002153021905 -14.983105925183288, -38.56284467637116 -15.153793880268958, -38.25102356499849 -15.316470754341124 M-38.25102356499849 -15.316470754341124 C-37.97046044935501 -15.440667723027369, -37.68989733371153 -15.564864691713614, -37.25453908294937 -15.757584874882365 M-38.25102356499849 -15.316470754341124 C-37.85264971499436 -15.492819040397565, -37.454275864990215 -15.669167326454007, -37.25453908294937 -15.757584874882365 M-37.25453908294937 -15.757584874882365 C-36.85803773756186 -15.903501035203229, -36.461536392174345 -16.049417195524093, -36.231839706401566 -16.133947699181363 M-37.25453908294937 -15.757584874882365 C-36.9651991883758 -15.864064630714108, -36.67585929380222 -15.970544386545848, -36.231839706401566 -16.133947699181363 M-36.231839706401566 -16.133947699181363 C-36.020841500525314 -16.19657085913325, -35.80984329464906 -16.259194019085136, -35.18712792646164 -16.444012671663494 M-36.231839706401566 -16.133947699181363 C-35.85867047392152 -16.244702368576167, -35.48550124144147 -16.35545703797097, -35.18712792646164 -16.444012671663494 M-35.18712792646164 -16.444012671663494 C-34.82610193714472 -16.52641449781033, -34.46507594782779 -16.608816323957168, -34.12469668792333 -16.68650566884811 M-35.18712792646164 -16.444012671663494 C-34.81044110537061 -16.529988980466293, -34.43375428427958 -16.61596528926909, -34.12469668792333 -16.68650566884811 M-34.12469668792333 -16.68650566884811 C-33.81573891700314 -16.736455565247187, -33.50678114608294 -16.786405461646268, -33.04891174863661 -16.86043023499518 M-34.12469668792333 -16.68650566884811 C-33.81869587101693 -16.73597750785376, -33.51269505411052 -16.78544934685941, -33.04891174863661 -16.86043023499518 M-33.04891174863661 -16.86043023499518 C-32.66183641713189 -16.89777092669925, -32.274761085627155 -16.935111618403315, -31.96419373967212 -16.965071676755716 M-33.04891174863661 -16.86043023499518 C-32.71992893867124 -16.892166811012824, -32.390946128705856 -16.92390338703047, -31.96419373967212 -16.965071676755716 M-31.96419373967212 -16.965071676755716 C-31.729502422157548 -16.97259777050947, -31.494811104642977 -16.980123864263227, -30.875000000000004 -17 M-31.96419373967212 -16.965071676755716 C-31.674715830771927 -16.97435466985958, -31.38523792187173 -16.98363766296344, -30.875000000000004 -17 M-30.875000000000004 -17 C-30.875000000000004 -17, -30.875 -17, -30.875 -17 M-30.875000000000004 -17 C-30.875000000000004 -17, -30.875 -17, -30.875 -17" stroke="#555555" stroke-width="1.3" fill="none" stroke-dasharray="0 0" style=""></path></g><g class="label" style="" transform="translate(0, -9.5)"><rect></rect><g><rect class="background" style="stroke: none"></rect><text y="-10.1" style=""><tspan class="text-outer-tspan row" x="0" y="-0.1em" dy="1.1em"><tspan font-style="normal" class="text-inner-tspan" font-weight="normal">Start</tspan><tspan font-style="normal" class="text-inner-tspan" font-weight="normal"> here</tspan></tspan></text></g></g></g><g class="node default" id="gbf31182b-841c-4adc-bacc-af1518176eed-dark-flowchart-docsQ-1" data-look="classic" transform="translate(280.4421844482422, 227.15000915527344)"><polygon points="135.1500015258789,0 270.3000030517578,-135.1500015258789 135.1500015258789,-270.3000030517578 0,-135.1500015258789" class="label-container" transform="translate(-134.6500015258789, 135.1500015258789)"></polygon><g class="label" style="" transform="translate(0, -35.900001525878906)"><rect></rect><g><rect class="background" style="stroke: none"></rect><text y="-10.1" style=""><tspan class="text-outer-tspan row" x="0" y="-0.1em" dy="1.1em"><tspan font-style="normal" class="text-inner-tspan" font-weight="normal">Need</tspan><tspan font-style="normal" class="text-inner-tspan" font-weight="normal"> built-in</tspan><tspan font-style="normal" class="text-inner-tspan" font-weight="normal"> docs</tspan></tspan><tspan class="text-outer-tspan row" x="0" y="1em" dy="1.1em"><tspan font-style="normal" class="text-inner-tspan" font-weight="normal">navigation,</tspan></tspan><tspan class="text-outer-tspan row" x="0" y="2.1em" dy="1.1em"><tspan font-style="normal" class="text-inner-tspan" font-weight="normal">search,</tspan><tspan font-style="normal" class="text-inner-tspan" font-weight="normal"> and</tspan><tspan font-style="normal" class="text-inner-tspan" font-weight="normal"> the</tspan><tspan font-style="normal" class="text-inner-tspan" font-weight="normal"> default</tspan></tspan><tspan class="text-outer-tspan row" x="0" y="3.2em" dy="1.1em"><tspan font-style="normal" class="text-inner-tspan" font-weight="normal">theme?</tspan></tspan></text></g></g></g><g class="node default" id="gbf31182b-841c-4adc-bacc-af1518176eed-dark-flowchart-docs-3" data-look="classic" transform="translate(124.9296875, 579.3953247070312)"><rect class="basic label-container" style="" x="-116.9296875" y="-50.900001525878906" width="233.859375" height="101.80000305175781"></rect><g class="label" style="" transform="translate(0, -35.900001525878906)"><rect></rect><g><rect class="background" style="stroke: none"></rect><text y="-10.1" style=""><tspan class="text-outer-tspan row" x="0" y="-0.1em" dy="1.1em"><tspan font-style="normal" class="text-inner-tspan" font-weight="normal">@pagesmith/docs</tspan></tspan><tspan class="text-outer-tspan row" x="0" y="1em" dy="1.1em"><tspan font-style="normal" class="text-inner-tspan" font-weight="normal">Docs</tspan><tspan font-style="normal" class="text-inner-tspan" font-weight="normal"> preset</tspan><tspan font-style="normal" class="text-inner-tspan" font-weight="normal"> with</tspan><tspan font-style="normal" class="text-inner-tspan" font-weight="normal"> config,</tspan></tspan><tspan class="text-outer-tspan row" x="0" y="2.1em" dy="1.1em"><tspan font-style="normal" class="text-inner-tspan" font-weight="normal">navigation,</tspan><tspan font-style="normal" class="text-inner-tspan" font-weight="normal"> search,</tspan><tspan font-style="normal" class="text-inner-tspan" font-weight="normal"> and</tspan></tspan><tspan class="text-outer-tspan row" x="0" y="3.2em" dy="1.1em"><tspan font-style="normal" class="text-inner-tspan" font-weight="normal">theme</tspan></tspan></text></g></g></g><g class="node default" id="gbf31182b-841c-4adc-bacc-af1518176eed-dark-flowchart-hostQ-5" data-look="classic" transform="translate(435.9546813964844, 579.3953247070312)"><polygon points="144.0953140258789,0 288.1906280517578,-144.0953140258789 144.0953140258789,-288.1906280517578 0,-144.0953140258789" class="label-container" transform="translate(-143.5953140258789, 144.0953140258789)"></polygon><g class="label" style="" transform="translate(0, -35.900001525878906)"><rect></rect><g><rect class="background" style="stroke: none"></rect><text y="-10.1" style=""><tspan class="text-outer-tspan row" x="0" y="-0.1em" dy="1.1em"><tspan font-style="normal" class="text-inner-tspan" font-weight="normal">Does</tspan><tspan font-style="normal" class="text-inner-tspan" font-weight="normal"> the</tspan><tspan font-style="normal" class="text-inner-tspan" font-weight="normal"> host</tspan><tspan font-style="normal" class="text-inner-tspan" font-weight="normal"> app</tspan><tspan font-style="normal" class="text-inner-tspan" font-weight="normal"> already</tspan></tspan><tspan class="text-outer-tspan row" x="0" y="1em" dy="1.1em"><tspan font-style="normal" class="text-inner-tspan" font-weight="normal">own</tspan></tspan><tspan class="text-outer-tspan row" x="0" y="2.1em" dy="1.1em"><tspan font-style="normal" class="text-inner-tspan" font-weight="normal">routing,</tspan><tspan font-style="normal" class="text-inner-tspan" font-weight="normal"> layout,</tspan><tspan font-style="normal" class="text-inner-tspan" font-weight="normal"> and</tspan><tspan font-style="normal" class="text-inner-tspan" font-weight="normal"> build</tspan></tspan><tspan class="text-outer-tspan row" x="0" y="3.2em" dy="1.1em"><tspan font-style="normal" class="text-inner-tspan" font-weight="normal">tooling?</tspan></tspan></text></g></g></g><g class="node default" id="gbf31182b-841c-4adc-bacc-af1518176eed-dark-flowchart-core-7" data-look="classic" transform="translate(563.1460876464844, 856.1906318664551)"><rect class="basic label-container" style="" x="-111.96875" y="-59.70000076293945" width="223.9375" height="119.4000015258789"></rect><g class="label" style="" transform="translate(0, -44.70000076293945)"><rect></rect><g><rect class="background" style="stroke: none"></rect><text y="-10.1" style=""><tspan class="text-outer-tspan row" x="0" y="-0.1em" dy="1.1em"><tspan font-style="normal" class="text-inner-tspan" font-weight="normal">@pagesmith/core</tspan></tspan><tspan class="text-outer-tspan row" x="0" y="1em" dy="1.1em"><tspan font-style="normal" class="text-inner-tspan" font-weight="normal">Headless</tspan><tspan font-style="normal" class="text-inner-tspan" font-weight="normal"> content</tspan><tspan font-style="normal" class="text-inner-tspan" font-weight="normal"> layer</tspan></tspan><tspan class="text-outer-tspan row" x="0" y="2.1em" dy="1.1em"><tspan font-style="normal" class="text-inner-tspan" font-weight="normal">with</tspan></tspan><tspan class="text-outer-tspan row" x="0" y="3.2em" dy="1.1em"><tspan font-style="normal" class="text-inner-tspan" font-weight="normal">schemas,</tspan><tspan font-style="normal" class="text-inner-tspan" font-weight="normal"> loaders,</tspan><tspan font-style="normal" class="text-inner-tspan" font-weight="normal"> and</tspan></tspan><tspan class="text-outer-tspan row" x="0" y="4.300000000000001em" dy="1.1em"><tspan font-style="normal" class="text-inner-tspan" font-weight="normal">markdown</tspan></tspan></text></g></g></g><g class="node default" id="gbf31182b-841c-4adc-bacc-af1518176eed-dark-flowchart-site-9" data-look="classic" transform="translate(286.3999938964844, 1392.0843887329102)"><rect class="basic label-container" style="" x="-127.6171875" y="-68.5" width="255.234375" height="137"></rect><g class="label" style="" transform="translate(0, -53.5)"><rect></rect><g><rect class="background" style="stroke: none"></rect><text y="-10.1" style=""><tspan class="text-outer-tspan row" x="0" y="-0.1em" dy="1.1em"><tspan font-style="normal" class="text-inner-tspan" font-weight="normal">@pagesmith/site</tspan><tspan font-style="normal" class="text-inner-tspan" font-weight="normal"> +</tspan></tspan><tspan class="text-outer-tspan row" x="0" y="1em" dy="1.1em"><tspan font-style="normal" class="text-inner-tspan" font-weight="normal">@pagesmith/core</tspan></tspan><tspan class="text-outer-tspan row" x="0" y="2.1em" dy="1.1em"><tspan font-style="normal" class="text-inner-tspan" font-weight="normal">Custom</tspan><tspan font-style="normal" class="text-inner-tspan" font-weight="normal"> site</tspan><tspan font-style="normal" class="text-inner-tspan" font-weight="normal"> shell</tspan><tspan font-style="normal" class="text-inner-tspan" font-weight="normal"> with</tspan></tspan><tspan class="text-outer-tspan row" x="0" y="3.2em" dy="1.1em"><tspan font-style="normal" class="text-inner-tspan" font-weight="normal">shared</tspan></tspan><tspan class="text-outer-tspan row" x="0" y="4.300000000000001em" dy="1.1em"><tspan font-style="normal" class="text-inner-tspan" font-weight="normal">JSX,</tspan><tspan font-style="normal" class="text-inner-tspan" font-weight="normal"> CSS/runtime,</tspan><tspan font-style="normal" class="text-inner-tspan" font-weight="normal"> and</tspan><tspan font-style="normal" class="text-inner-tspan" font-weight="normal"> Vite</tspan></tspan><tspan class="text-outer-tspan row" x="0" y="5.4em" dy="1.1em"><tspan font-style="normal" class="text-inner-tspan" font-weight="normal">SSG</tspan></tspan></text></g></g></g><g class="node default" id="gbf31182b-841c-4adc-bacc-af1518176eed-dark-flowchart-siteQ-11" data-look="classic" transform="translate(563.1460876464844, 1119.7375106811523)"><polygon points="130.84687423706055,0 261.6937484741211,-130.84687423706055 130.84687423706055,-261.6937484741211 0,-130.84687423706055" class="label-container" transform="translate(-130.34687423706055, 130.84687423706055)"></polygon><g class="label" style="" transform="translate(0, -18.299999237060547)"><rect></rect><g><rect class="background" style="stroke: none"></rect><text y="-10.1" style=""><tspan class="text-outer-tspan row" x="0" y="-0.1em" dy="1.1em"><tspan font-style="normal" class="text-inner-tspan" font-weight="normal">Need</tspan><tspan font-style="normal" class="text-inner-tspan" font-weight="normal"> the</tspan><tspan font-style="normal" class="text-inner-tspan" font-weight="normal"> shared</tspan><tspan font-style="normal" class="text-inner-tspan" font-weight="normal"> Pagesmith</tspan></tspan><tspan class="text-outer-tspan row" x="0" y="1em" dy="1.1em"><tspan font-style="normal" class="text-inner-tspan" font-weight="normal">site</tspan><tspan font-style="normal" class="text-inner-tspan" font-weight="normal"> layer</tspan><tspan font-style="normal" class="text-inner-tspan" font-weight="normal"> too?</tspan></tspan></text></g></g></g><g class="node default" id="gbf31182b-841c-4adc-bacc-af1518176eed-dark-flowchart-coreOnly-15" data-look="classic" transform="translate(585.5093688964844, 1392.0843887329102)"><rect class="basic label-container" style="" x="-121.4921875" y="-24.5" width="242.984375" height="49"></rect><g class="label" style="" transform="translate(0, -9.5)"><rect></rect><g><rect class="background" style="stroke: none"></rect><text y="-10.1" style=""><tspan class="text-outer-tspan row" x="0" y="-0.1em" dy="1.1em"><tspan font-style="normal" class="text-inner-tspan" font-weight="normal">Stay</tspan><tspan font-style="normal" class="text-inner-tspan" font-weight="normal"> on</tspan><tspan font-style="normal" class="text-inner-tspan" font-weight="normal"> @pagesmith/core</tspan></tspan></text></g></g></g></g></g></g><defs><filter id="gbf31182b-841c-4adc-bacc-af1518176eed-dark-drop-shadow" height="130%" width="130%"><feDropShadow dx="4" dy="4" stdDeviation="0" flood-opacity="0.06" flood-color="#000000"></feDropShadow></filter></defs><defs><filter id="gbf31182b-841c-4adc-bacc-af1518176eed-dark-drop-shadow-small" height="150%" width="150%"><feDropShadow dx="2" dy="2" stdDeviation="0" flood-opacity="0.06" flood-color="#000000"></feDropShadow></filter></defs><linearGradient id="gbf31182b-841c-4adc-bacc-af1518176eed-dark-gradient" gradientUnits="objectBoundingBox" x1="0%" y1="0%" x2="100%" y2="0%"><stop offset="0%" stop-color="#555555" stop-opacity="1"></stop><stop offset="100%" stop-color="#555555" stop-opacity="1"></stop></linearGradient></svg>