<svg id="g79bc4871-3fb9-4c11-8b86-b9f3590e6b63-dark" width="100%" xmlns="http://www.w3.org/2000/svg" xmlns:xlink="http://www.w3.org/1999/xlink" class="flowchart" style="max-width: 715.0015869140625px;" viewBox="0 0 715.0015869140625 1468.5843505859375" role="graphics-document document" aria-roledescription="flowchart-v2"><style>#g79bc4871-3fb9-4c11-8b86-b9f3590e6b63-dark{font-family:"trebuchet ms",verdana,arial,sans-serif;font-size:16px;fill:#e5e5e5;}@keyframes edge-animation-frame{from{stroke-dashoffset:0;}}@keyframes dash{to{stroke-dashoffset:0;}}#g79bc4871-3fb9-4c11-8b86-b9f3590e6b63-dark .edge-animation-slow{stroke-dasharray:9,5!important;stroke-dashoffset:900;animation:dash 50s linear infinite;stroke-linecap:round;}#g79bc4871-3fb9-4c11-8b86-b9f3590e6b63-dark .edge-animation-fast{stroke-dasharray:9,5!important;stroke-dashoffset:900;animation:dash 20s linear infinite;stroke-linecap:round;}#g79bc4871-3fb9-4c11-8b86-b9f3590e6b63-dark .error-icon{fill:#252525;}#g79bc4871-3fb9-4c11-8b86-b9f3590e6b63-dark .error-text{fill:#cccccc;stroke:#cccccc;}#g79bc4871-3fb9-4c11-8b86-b9f3590e6b63-dark .edge-thickness-normal{stroke-width:1px;}#g79bc4871-3fb9-4c11-8b86-b9f3590e6b63-dark .edge-thickness-thick{stroke-width:3.5px;}#g79bc4871-3fb9-4c11-8b86-b9f3590e6b63-dark .edge-pattern-solid{stroke-dasharray:0;}#g79bc4871-3fb9-4c11-8b86-b9f3590e6b63-dark .edge-thickness-invisible{stroke-width:0;fill:none;}#g79bc4871-3fb9-4c11-8b86-b9f3590e6b63-dark .edge-pattern-dashed{stroke-dasharray:3;}#g79bc4871-3fb9-4c11-8b86-b9f3590e6b63-dark .edge-pattern-dotted{stroke-dasharray:2;}#g79bc4871-3fb9-4c11-8b86-b9f3590e6b63-dark .marker{fill:#cccccc;stroke:#cccccc;}#g79bc4871-3fb9-4c11-8b86-b9f3590e6b63-dark .marker.cross{stroke:#cccccc;}#g79bc4871-3fb9-4c11-8b86-b9f3590e6b63-dark svg{font-family:"trebuchet ms",verdana,arial,sans-serif;font-size:16px;}#g79bc4871-3fb9-4c11-8b86-b9f3590e6b63-dark p{margin:0;}#g79bc4871-3fb9-4c11-8b86-b9f3590e6b63-dark .label{font-family:"trebuchet ms",verdana,arial,sans-serif;color:#e5e5e5;}#g79bc4871-3fb9-4c11-8b86-b9f3590e6b63-dark .cluster-label text{fill:#e5e5e5;}#g79bc4871-3fb9-4c11-8b86-b9f3590e6b63-dark .cluster-label span{color:#e5e5e5;}#g79bc4871-3fb9-4c11-8b86-b9f3590e6b63-dark .cluster-label span p{background-color:transparent;}#g79bc4871-3fb9-4c11-8b86-b9f3590e6b63-dark .label text,#g79bc4871-3fb9-4c11-8b86-b9f3590e6b63-dark span{fill:#e5e5e5;color:#e5e5e5;}#g79bc4871-3fb9-4c11-8b86-b9f3590e6b63-dark .node rect,#g79bc4871-3fb9-4c11-8b86-b9f3590e6b63-dark .node circle,#g79bc4871-3fb9-4c11-8b86-b9f3590e6b63-dark .node ellipse,#g79bc4871-3fb9-4c11-8b86-b9f3590e6b63-dark .node polygon,#g79bc4871-3fb9-4c11-8b86-b9f3590e6b63-dark .node path{fill:#2d2d2d;stroke:#555555;stroke-width:1px;}#g79bc4871-3fb9-4c11-8b86-b9f3590e6b63-dark .rough-node .label text,#g79bc4871-3fb9-4c11-8b86-b9f3590e6b63-dark .node .label text,#g79bc4871-3fb9-4c11-8b86-b9f3590e6b63-dark .image-shape .label,#g79bc4871-3fb9-4c11-8b86-b9f3590e6b63-dark .icon-shape .label{text-anchor:middle;}#g79bc4871-3fb9-4c11-8b86-b9f3590e6b63-dark .node .katex path{fill:#000;stroke:#000;stroke-width:1px;}#g79bc4871-3fb9-4c11-8b86-b9f3590e6b63-dark .rough-node .label,#g79bc4871-3fb9-4c11-8b86-b9f3590e6b63-dark .node .label,#g79bc4871-3fb9-4c11-8b86-b9f3590e6b63-dark .image-shape .label,#g79bc4871-3fb9-4c11-8b86-b9f3590e6b63-dark .icon-shape .label{text-align:center;}#g79bc4871-3fb9-4c11-8b86-b9f3590e6b63-dark .node.clickable{cursor:pointer;}#g79bc4871-3fb9-4c11-8b86-b9f3590e6b63-dark .root .anchor path{fill:#cccccc!important;stroke-width:0;stroke:#cccccc;}#g79bc4871-3fb9-4c11-8b86-b9f3590e6b63-dark .arrowheadPath{fill:#cccccc;}#g79bc4871-3fb9-4c11-8b86-b9f3590e6b63-dark .edgePath .path{stroke:#cccccc;stroke-width:1px;}#g79bc4871-3fb9-4c11-8b86-b9f3590e6b63-dark .flowchart-link{stroke:#cccccc;fill:none;}#g79bc4871-3fb9-4c11-8b86-b9f3590e6b63-dark .edgeLabel{background-color:#1e1e1e;text-align:center;}#g79bc4871-3fb9-4c11-8b86-b9f3590e6b63-dark .edgeLabel p{background-color:#1e1e1e;}#g79bc4871-3fb9-4c11-8b86-b9f3590e6b63-dark .edgeLabel rect{opacity:0.5;background-color:#1e1e1e;fill:#1e1e1e;}#g79bc4871-3fb9-4c11-8b86-b9f3590e6b63-dark .labelBkg{background-color:rgba(30, 30, 30, 0.5);}#g79bc4871-3fb9-4c11-8b86-b9f3590e6b63-dark .cluster rect{fill:#1e1e1e;stroke:#555555;stroke-width:1px;}#g79bc4871-3fb9-4c11-8b86-b9f3590e6b63-dark .cluster text{fill:#e5e5e5;}#g79bc4871-3fb9-4c11-8b86-b9f3590e6b63-dark .cluster span{color:#e5e5e5;}#g79bc4871-3fb9-4c11-8b86-b9f3590e6b63-dark div.mermaidTooltip{position:absolute;text-align:center;max-width:200px;padding:2px;font-family:"trebuchet ms",verdana,arial,sans-serif;font-size:12px;background:#252525;border:1px solid #555555;border-radius:2px;pointer-events:none;z-index:100;}#g79bc4871-3fb9-4c11-8b86-b9f3590e6b63-dark .flowchartTitleText{text-anchor:middle;font-size:18px;fill:#e5e5e5;}#g79bc4871-3fb9-4c11-8b86-b9f3590e6b63-dark rect.text{fill:none;stroke-width:0;}#g79bc4871-3fb9-4c11-8b86-b9f3590e6b63-dark .icon-shape,#g79bc4871-3fb9-4c11-8b86-b9f3590e6b63-dark .image-shape{background-color:#1e1e1e;text-align:center;}#g79bc4871-3fb9-4c11-8b86-b9f3590e6b63-dark .icon-shape p,#g79bc4871-3fb9-4c11-8b86-b9f3590e6b63-dark .image-shape p{background-color:#1e1e1e;padding:2px;}#g79bc4871-3fb9-4c11-8b86-b9f3590e6b63-dark .icon-shape .label rect,#g79bc4871-3fb9-4c11-8b86-b9f3590e6b63-dark .image-shape .label rect{opacity:0.5;background-color:#1e1e1e;fill:#1e1e1e;}#g79bc4871-3fb9-4c11-8b86-b9f3590e6b63-dark .label-icon{display:inline-block;height:1em;overflow:visible;vertical-align:-0.125em;}#g79bc4871-3fb9-4c11-8b86-b9f3590e6b63-dark .node .label-icon path{fill:currentColor;stroke:revert;stroke-width:revert;}#g79bc4871-3fb9-4c11-8b86-b9f3590e6b63-dark .node .neo-node{stroke:#555555;}#g79bc4871-3fb9-4c11-8b86-b9f3590e6b63-dark [data-look="neo"].node rect,#g79bc4871-3fb9-4c11-8b86-b9f3590e6b63-dark [data-look="neo"].cluster rect,#g79bc4871-3fb9-4c11-8b86-b9f3590e6b63-dark [data-look="neo"].node polygon{stroke:url(#g79bc4871-3fb9-4c11-8b86-b9f3590e6b63-dark-gradient);filter:drop-shadow( 1px 2px 2px rgba(185,185,185,1));}#g79bc4871-3fb9-4c11-8b86-b9f3590e6b63-dark [data-look="neo"].node path{stroke:url(#g79bc4871-3fb9-4c11-8b86-b9f3590e6b63-dark-gradient);stroke-width:1px;}#g79bc4871-3fb9-4c11-8b86-b9f3590e6b63-dark [data-look="neo"].node .outer-path{filter:drop-shadow( 1px 2px 2px rgba(185,185,185,1));}#g79bc4871-3fb9-4c11-8b86-b9f3590e6b63-dark [data-look="neo"].node .neo-line path{stroke:#555555;filter:none;}#g79bc4871-3fb9-4c11-8b86-b9f3590e6b63-dark [data-look="neo"].node circle{stroke:url(#g79bc4871-3fb9-4c11-8b86-b9f3590e6b63-dark-gradient);filter:drop-shadow( 1px 2px 2px rgba(185,185,185,1));}#g79bc4871-3fb9-4c11-8b86-b9f3590e6b63-dark [data-look="neo"].node circle .state-start{fill:#000000;}#g79bc4871-3fb9-4c11-8b86-b9f3590e6b63-dark [data-look="neo"].icon-shape .icon{fill:url(#g79bc4871-3fb9-4c11-8b86-b9f3590e6b63-dark-gradient);filter:drop-shadow( 1px 2px 2px rgba(185,185,185,1));}#g79bc4871-3fb9-4c11-8b86-b9f3590e6b63-dark [data-look="neo"].icon-shape .icon-neo path{stroke:url(#g79bc4871-3fb9-4c11-8b86-b9f3590e6b63-dark-gradient);filter:drop-shadow( 1px 2px 2px rgba(185,185,185,1));}#g79bc4871-3fb9-4c11-8b86-b9f3590e6b63-dark :root{--mermaid-font-family:"trebuchet ms",verdana,arial,sans-serif;}</style><g><marker id="g79bc4871-3fb9-4c11-8b86-b9f3590e6b63-dark_flowchart-v2-pointEnd" class="marker flowchart-v2" viewBox="0 0 10 10" refX="5" refY="5" markerUnits="userSpaceOnUse" markerWidth="8" markerHeight="8" orient="auto"><path d="M 0 0 L 10 5 L 0 10 z" class="arrowMarkerPath" style="stroke-width: 1; stroke-dasharray: 1, 0;"></path></marker><marker id="g79bc4871-3fb9-4c11-8b86-b9f3590e6b63-dark_flowchart-v2-pointStart" class="marker flowchart-v2" viewBox="0 0 10 10" refX="4.5" refY="5" markerUnits="userSpaceOnUse" markerWidth="8" markerHeight="8" orient="auto"><path d="M 0 5 L 10 10 L 10 0 z" class="arrowMarkerPath" style="stroke-width: 1; stroke-dasharray: 1, 0;"></path></marker><marker id="g79bc4871-3fb9-4c11-8b86-b9f3590e6b63-dark_flowchart-v2-pointEnd-margin" class="marker flowchart-v2" viewBox="0 0 11.5 14" refX="11.5" refY="7" markerUnits="userSpaceOnUse" markerWidth="10.5" markerHeight="14" orient="auto"><path d="M 0 0 L 11.5 7 L 0 14 z" class="arrowMarkerPath" style="stroke-width: 0; stroke-dasharray: 1, 0;"></path></marker><marker id="g79bc4871-3fb9-4c11-8b86-b9f3590e6b63-dark_flowchart-v2-pointStart-margin" class="marker flowchart-v2" viewBox="0 0 11.5 14" refX="1" refY="7" markerUnits="userSpaceOnUse" markerWidth="11.5" markerHeight="14" orient="auto"><polygon points="0,7 11.5,14 11.5,0" class="arrowMarkerPath" style="stroke-width: 0; stroke-dasharray: 1, 0;"></polygon></marker><marker id="g79bc4871-3fb9-4c11-8b86-b9f3590e6b63-dark_flowchart-v2-circleEnd" class="marker flowchart-v2" viewBox="0 0 10 10" refX="11" refY="5" markerUnits="userSpaceOnUse" markerWidth="11" markerHeight="11" orient="auto"><circle cx="5" cy="5" r="5" class="arrowMarkerPath" style="stroke-width: 1; stroke-dasharray: 1, 0;"></circle></marker><marker id="g79bc4871-3fb9-4c11-8b86-b9f3590e6b63-dark_flowchart-v2-circleStart" class="marker flowchart-v2" viewBox="0 0 10 10" refX="-1" refY="5" markerUnits="userSpaceOnUse" markerWidth="11" markerHeight="11" orient="auto"><circle cx="5" cy="5" r="5" class="arrowMarkerPath" style="stroke-width: 1; stroke-dasharray: 1, 0;"></circle></marker><marker id="g79bc4871-3fb9-4c11-8b86-b9f3590e6b63-dark_flowchart-v2-circleEnd-margin" class="marker flowchart-v2" viewBox="0 0 10 10" refY="5" refX="12.25" markerUnits="userSpaceOnUse" markerWidth="14" markerHeight="14" orient="auto"><circle cx="5" cy="5" r="5" class="arrowMarkerPath" style="stroke-width: 0; stroke-dasharray: 1, 0;"></circle></marker><marker id="g79bc4871-3fb9-4c11-8b86-b9f3590e6b63-dark_flowchart-v2-circleStart-margin" class="marker flowchart-v2" viewBox="0 0 10 10" refX="-2" refY="5" markerUnits="userSpaceOnUse" markerWidth="14" markerHeight="14" orient="auto"><circle cx="5" cy="5" r="5" class="arrowMarkerPath" style="stroke-width: 0; stroke-dasharray: 1, 0;"></circle></marker><marker id="g79bc4871-3fb9-4c11-8b86-b9f3590e6b63-dark_flowchart-v2-crossEnd" class="marker cross flowchart-v2" viewBox="0 0 11 11" refX="12" refY="5.2" markerUnits="userSpaceOnUse" markerWidth="11" markerHeight="11" orient="auto"><path d="M 1,1 l 9,9 M 10,1 l -9,9" class="arrowMarkerPath" style="stroke-width: 2; stroke-dasharray: 1, 0;"></path></marker><marker id="g79bc4871-3fb9-4c11-8b86-b9f3590e6b63-dark_flowchart-v2-crossStart" class="marker cross flowchart-v2" viewBox="0 0 11 11" refX="-1" refY="5.2" markerUnits="userSpaceOnUse" markerWidth="11" markerHeight="11" orient="auto"><path d="M 1,1 l 9,9 M 10,1 l -9,9" class="arrowMarkerPath" style="stroke-width: 2; stroke-dasharray: 1, 0;"></path></marker><marker id="g79bc4871-3fb9-4c11-8b86-b9f3590e6b63-dark_flowchart-v2-crossEnd-margin" class="marker cross flowchart-v2" viewBox="0 0 15 15" refX="17.7" refY="7.5" markerUnits="userSpaceOnUse" markerWidth="12" markerHeight="12" orient="auto"><path d="M 1,1 L 14,14 M 1,14 L 14,1" class="arrowMarkerPath" style="stroke-width: 2.5;"></path></marker><marker id="g79bc4871-3fb9-4c11-8b86-b9f3590e6b63-dark_flowchart-v2-crossStart-margin" class="marker cross flowchart-v2" viewBox="0 0 15 15" refX="-3.5" refY="7.5" markerUnits="userSpaceOnUse" markerWidth="12" markerHeight="12" orient="auto"><path d="M 1,1 L 14,14 M 1,14 L 14,1" class="arrowMarkerPath" style="stroke-width: 2.5; stroke-dasharray: 1, 0;"></path></marker><g class="root"><g class="clusters"></g><g class="edgePaths"><path d="M280.942,42.5L280.859,46.583C280.776,50.667,280.609,58.833,280.526,66.417C280.442,74,280.442,81,280.442,84.5L280.442,88" id="g79bc4871-3fb9-4c11-8b86-b9f3590e6b63-dark-L_start_docsQ_0" class="edge-thickness-normal edge-pattern-solid edge-thickness-normal edge-pattern-solid flowchart-link" style=";" data-edge="true" data-et="edge" data-id="L_start_docsQ_0" data-points="W3sieCI6MjgwLjk0MjE4NDQ0ODI0MjIsInkiOjQyLjV9LHsieCI6MjgwLjQ0MjE4NDQ0ODI0MjIsInkiOjY3fSx7IngiOjI4MC40NDIxODQ0NDgyNDIyLCJ5Ijo5MS45OTk5OTk5OTk5OTk5N31d" data-look="classic" marker-end="url(#g79bc4871-3fb9-4c11-8b86-b9f3590e6b63-dark_flowchart-v2-pointEnd)"></path><path d="M216.2,298.058L200.989,314.849C185.777,331.639,155.353,365.219,140.141,402.959C124.93,440.698,124.93,482.597,124.93,503.546L124.93,524.495" id="g79bc4871-3fb9-4c11-8b86-b9f3590e6b63-dark-L_docsQ_docs_0" class="edge-thickness-normal edge-pattern-solid edge-thickness-normal edge-pattern-solid flowchart-link" style=";" data-edge="true" data-et="edge" data-id="L_docsQ_docs_0" data-points="W3sieCI6MjE2LjIwMDM2Mjc0MTI1MTMsInkiOjI5OC4wNTgxOTY2MDM1NTZ9LHsieCI6MTI0LjkyOTY4NzUsInkiOjM5OC44MDAwMTgzMTA1NDY5fSx7IngiOjEyNC45Mjk2ODc1LCJ5Ijo1MjguNDk1MzIzMTgxMTUyM31d" data-look="classic" marker-end="url(#g79bc4871-3fb9-4c11-8b86-b9f3590e6b63-dark_flowchart-v2-pointEnd)"></path><path d="M344.684,298.058L359.896,314.849C375.108,331.639,405.531,365.219,420.743,387.426C435.955,409.633,435.955,420.467,435.955,425.883L435.955,431.3" id="g79bc4871-3fb9-4c11-8b86-b9f3590e6b63-dark-L_docsQ_hostQ_0" class="edge-thickness-normal edge-pattern-solid edge-thickness-normal edge-pattern-solid flowchart-link" style=";" data-edge="true" data-et="edge" data-id="L_docsQ_hostQ_0" data-points="W3sieCI6MzQ0LjY4NDAwNjE1NTIzMzEsInkiOjI5OC4wNTgxOTY2MDM1NTZ9LHsieCI6NDM1Ljk1NDY4MTM5NjQ4NDQsInkiOjM5OC44MDAwMTgzMTA1NDY5fSx7IngiOjQzNS45NTQ2ODEzOTY0ODQzLCJ5Ijo0MzUuMzAwMDE4MzEwNTQ2OH1d" data-look="classic" marker-end="url(#g79bc4871-3fb9-4c11-8b86-b9f3590e6b63-dark_flowchart-v2-pointEnd)"></path><path d="M495.501,663.944L506.776,679.952C518.05,695.959,540.598,727.975,551.872,749.4C563.146,770.824,563.146,781.657,563.146,787.074L563.146,792.491" id="g79bc4871-3fb9-4c11-8b86-b9f3590e6b63-dark-L_hostQ_core_0" class="edge-thickness-normal edge-pattern-solid edge-thickness-normal edge-pattern-solid flowchart-link" style=";" data-edge="true" data-et="edge" data-id="L_hostQ_core_0" data-points="W3sieCI6NDk1LjUwMTM4NjYzNTk3OTc3LCJ5Ijo2NjMuOTQzOTI1ODY0MDIwMn0seyJ4Ijo1NjMuMTQ2MDg3NjQ2NDg0NCwieSI6NzU5Ljk5MDYzMTEwMzUxNTZ9LHsieCI6NTYzLjE0NjA4NzY0NjQ4NDQsInkiOjc5Ni40OTA2MzExMDM1MTU2fV0=" data-look="classic" marker-end="url(#g79bc4871-3fb9-4c11-8b86-b9f3590e6b63-dark_flowchart-v2-pointEnd)"></path><path d="M366.894,654.43L350.701,672.023C334.508,689.617,302.122,724.804,285.929,758.43C269.736,792.057,269.736,824.124,269.736,856.191C269.736,888.257,269.736,920.324,269.736,964.248C269.736,1008.173,269.736,1063.955,269.736,1119.738C269.736,1175.52,269.736,1231.302,270.597,1264.618C271.458,1297.934,273.18,1308.784,274.041,1314.209L274.902,1319.634" id="g79bc4871-3fb9-4c11-8b86-b9f3590e6b63-dark-L_hostQ_site_0" class="edge-thickness-normal edge-pattern-solid edge-thickness-normal edge-pattern-solid flowchart-link" style=";" data-edge="true" data-et="edge" data-id="L_hostQ_site_0" data-points="W3sieCI6MzY2Ljg5MzYzNDc5NzE4MjIsInkiOjY1NC40Mjk1ODQ1MDQyMTM0fSx7IngiOjI2OS43MzU5MzEzOTY0ODQ0LCJ5Ijo3NTkuOTkwNjMxMTAzNTE1Nn0seyJ4IjoyNjkuNzM1OTMxMzk2NDg0NCwieSI6ODU2LjE5MDYzMTg2NjQ1NTF9LHsieCI6MjY5LjczNTkzMTM5NjQ4NDQsInkiOjk1Mi4zOTA2MzI2MjkzOTQ1fSx7IngiOjI2OS43MzU5MzEzOTY0ODQ0LCJ5IjoxMTE5LjczNzUxMDY4MTE1MjN9LHsieCI6MjY5LjczNTkzMTM5NjQ4NDQsInkiOjEyODcuMDg0Mzg4NzMyOTEwMn0seyJ4IjoyNzUuNTI4Njc2OTMyMTk4NjYsInkiOjEzMjMuNTg0Mzg4NzMyOTEwMn1d" data-look="classic" marker-end="url(#g79bc4871-3fb9-4c11-8b86-b9f3590e6b63-dark_flowchart-v2-pointEnd)"></path><path d="M563.146,915.891L563.146,921.974C563.146,928.057,563.146,940.224,563.146,951.724C563.146,963.224,563.146,974.057,563.146,979.474L563.146,984.891" id="g79bc4871-3fb9-4c11-8b86-b9f3590e6b63-dark-L_core_siteQ_0" class="edge-thickness-normal edge-pattern-solid edge-thickness-normal edge-pattern-solid flowchart-link" style=";" data-edge="true" data-et="edge" data-id="L_core_siteQ_0" data-points="W3sieCI6NTYzLjE0NjA4NzY0NjQ4NDQsInkiOjkxNS44OTA2MzI2MjkzOTQ1fSx7IngiOjU2My4xNDYwODc2NDY0ODQ0LCJ5Ijo5NTIuMzkwNjMyNjI5Mzk0NX0seyJ4Ijo1NjMuMTQ2MDg3NjQ2NDg0NCwieSI6OTg4Ljg5MDYzMjYyOTM5NDR9XQ==" data-look="classic" marker-end="url(#g79bc4871-3fb9-4c11-8b86-b9f3590e6b63-dark_flowchart-v2-pointEnd)"></path><path d="M501.396,1188.834L486.762,1205.209C472.128,1221.584,442.86,1254.334,421.371,1276.368C399.882,1298.402,386.172,1309.72,379.317,1315.379L372.462,1321.038" id="g79bc4871-3fb9-4c11-8b86-b9f3590e6b63-dark-L_siteQ_site_0" class="edge-thickness-normal edge-pattern-solid edge-thickness-normal edge-pattern-solid flowchart-link" style=";" data-edge="true" data-et="edge" data-id="L_siteQ_site_0" data-points="W3sieCI6NTAxLjM5NTc5NjQzNzU3MiwieSI6MTE4OC44MzQwOTc1MjM5OTh9LHsieCI6NDEzLjU5MTQwMDE0NjQ4NDQsInkiOjEyODcuMDg0Mzg4NzMyOTEwMn0seyJ4IjozNjkuMzc3MjQ0NjQwNTMyLCJ5IjoxMzIzLjU4NDM4ODczMjkxMDJ9XQ==" data-look="classic" marker-end="url(#g79bc4871-3fb9-4c11-8b86-b9f3590e6b63-dark_flowchart-v2-pointEnd)"></path><path d="M578.57,1235.16L579.727,1243.814C580.883,1252.468,583.196,1269.776,584.353,1291.18C585.509,1312.584,585.509,1338.084,585.509,1350.834L585.509,1363.584" id="g79bc4871-3fb9-4c11-8b86-b9f3590e6b63-dark-L_siteQ_coreOnly_0" class="edge-thickness-normal edge-pattern-solid edge-thickness-normal edge-pattern-solid flowchart-link" style=";" data-edge="true" data-et="edge" data-id="L_siteQ_coreOnly_0" data-points="W3sieCI6NTc4LjU3MDQ4ODQ1NTIwMTcsInkiOjEyMzUuMTU5OTg3OTI0MTkzfSx7IngiOjU4NS41MDkzNjg4OTY0ODQ0LCJ5IjoxMjg3LjA4NDM4ODczMjkxMDJ9LHsieCI6NTg1LjUwOTM2ODg5NjQ4NDQsInkiOjEzNjcuNTg0Mzg4NzMyOTEwMn1d" data-look="classic" marker-end="url(#g79bc4871-3fb9-4c11-8b86-b9f3590e6b63-dark_flowchart-v2-pointEnd)"></path></g><g class="edgeLabels"><g class="edgeLabel"><g class="label" data-id="L_start_docsQ_0" transform="translate(0, 0)"><text y="-10.1" text-anchor="middle"><tspan class="text-outer-tspan row" x="0" y="-0.1em" dy="1.1em" text-anchor="middle"></tspan></text></g></g><g><rect class="background" style="stroke: none"></rect></g><g class="edgeLabel" transform="translate(124.9296875, 398.8000183105469)"><g class="label" data-id="L_docsQ_docs_0" transform="translate(0, -10.5)"><g><rect class="background" style="" x="-13.328125" y="-1" width="26.65625" height="23"></rect><text y="-10.1" text-anchor="middle" style=""><tspan class="text-outer-tspan row" x="0" y="-0.1em" dy="1.1em" text-anchor="middle"><tspan font-style="normal" class="text-inner-tspan" font-weight="normal">Yes</tspan></tspan></text></g></g></g><g class="edgeLabel" transform="translate(435.9546813964844, 398.8000183105469)"><g class="label" data-id="L_docsQ_hostQ_0" transform="translate(0, -10.5)"><g><rect class="background" style="" x="-11.3984375" y="-1" width="22.796875" height="23"></rect><text y="-10.1" text-anchor="middle" style=""><tspan class="text-outer-tspan row" x="0" y="-0.1em" dy="1.1em" text-anchor="middle"><tspan font-style="normal" class="text-inner-tspan" font-weight="normal">No</tspan></tspan></text></g></g></g><g class="edgeLabel" transform="translate(563.1460876464844, 759.9906311035156)"><g class="label" data-id="L_hostQ_core_0" transform="translate(0, -10.5)"><g><rect class="background" style="" x="-13.328125" y="-1" width="26.65625" height="23"></rect><text y="-10.1" text-anchor="middle" style=""><tspan class="text-outer-tspan row" x="0" y="-0.1em" dy="1.1em" text-anchor="middle"><tspan font-style="normal" class="text-inner-tspan" font-weight="normal">Yes</tspan></tspan></text></g></g></g><g class="edgeLabel" transform="translate(269.7359313964844, 952.3906326293945)"><g class="label" data-id="L_hostQ_site_0" transform="translate(0, -10.5)"><g><rect class="background" style="" x="-11.3984375" y="-1" width="22.796875" height="23"></rect><text y="-10.1" text-anchor="middle" style=""><tspan class="text-outer-tspan row" x="0" y="-0.1em" dy="1.1em" text-anchor="middle"><tspan font-style="normal" class="text-inner-tspan" font-weight="normal">No</tspan></tspan></text></g></g></g><g class="edgeLabel"><g class="label" data-id="L_core_siteQ_0" transform="translate(0, 0)"><text y="-10.1" text-anchor="middle"><tspan class="text-outer-tspan row" x="0" y="-0.1em" dy="1.1em" text-anchor="middle"></tspan></text></g></g><g><rect class="background" style="stroke: none"></rect></g><g class="edgeLabel" transform="translate(438.39126, 1259.33414)"><g class="label" data-id="L_siteQ_site_0" transform="translate(0, -10.5)"><g><rect class="background" style="" x="-13.328125" y="-1" width="26.65625" height="23"></rect><text y="-10.1" text-anchor="middle" style=""><tspan class="text-outer-tspan row" x="0" y="-0.1em" dy="1.1em" text-anchor="middle"><tspan font-style="normal" class="text-inner-tspan" font-weight="normal">Yes</tspan></tspan></text></g></g></g><g class="edgeLabel" transform="translate(585.5093688964844, 1287.0843887329102)"><g class="label" data-id="L_siteQ_coreOnly_0" transform="translate(0, -10.5)"><g><rect class="background" style="" x="-11.3984375" y="-1" width="22.796875" height="23"></rect><text y="-10.1" text-anchor="middle" style=""><tspan class="text-outer-tspan row" x="0" y="-0.1em" dy="1.1em" text-anchor="middle"><tspan font-style="normal" class="text-inner-tspan" font-weight="normal">No</tspan></tspan></text></g></g></g></g><g class="nodes"><g class="node default" id="g79bc4871-3fb9-4c11-8b86-b9f3590e6b63-dark-flowchart-start-0" data-look="classic" transform="translate(280.4421844482422, 25)"><g class="basic label-container outer-path"><path d="M-30.875 -17 C-15.711746732612397 -17, -0.5484934652247944 -17, 30.875 -17 C30.875 -17, 30.875 -17, 30.875 -17 C31.094762659699253 -16.992952639245512, 31.314525319398506 -16.985905278491025, 31.96419373967212 -16.965071676755716 C32.209278226027976 -16.94142867111419, 32.45436271238383 -16.917785665472657, 33.0489117486366 -16.860430234995185 C33.319401857309536 -16.816699491907066, 33.58989196598248 -16.772968748818947, 34.124696687923326 -16.686505668848113 C34.37868589168136 -16.628534290524794, 34.63267509543939 -16.57056291220147, 35.18712792646162 -16.4440126716635 C35.50319338191857 -16.350206103545307, 35.81925883737552 -16.256399535427118, 36.23183970640155 -16.133947699181366 C36.53830348190028 -16.021166196877747, 36.84476725739901 -15.90838469457413, 37.25453908294936 -15.757584874882369 C37.472430561680056 -15.661130780769357, 37.690322040410756 -15.564676686656343, 38.25102356499849 -15.316470754341125 C38.52533528889843 -15.17336250368757, 38.799647012798374 -15.030254253034016, 39.21719838406694 -14.812417970097622 C39.42318623385594 -14.687546925036562, 39.629174083644926 -14.562675879975503, 40.149093320579325 -14.247497783161291 C40.474750913125185 -14.020333144091271, 40.800408505671044 -13.79316850502125, 41.042879018350675 -13.624031571755262 C41.37096750826976 -13.362389731846179, 41.69905599818885 -13.100747891937097, 41.8948827202324 -12.944581292275288 C42.172639886960575 -12.692329582504675, 42.450397053688754 -12.440077872734062, 42.70160336025927 -12.21193895166137 C42.90249406588857 -12.004502804665448, 43.10338477151787 -11.797066657669527, 43.45972595028036 -11.42911513444239 C43.658305926906706 -11.195851794376312, 43.856885903533055 -10.962588454310236, 44.16613520195651 -10.59932663159847 C44.33436729471827 -10.373910953556646, 44.50259938748004 -10.148495275514822, 44.81792832814825 -9.725983222076888 C44.9697261392731 -9.492781020769412, 45.12152395039795 -9.259578819461934, 45.41242697109088 -8.812673661278927 C45.544686742105014 -8.577833045089257, 45.67694651311915 -8.342992428899587, 45.947188208341004 -7.863150934094199 C46.059623313989874 -7.629677031488444, 46.172058419638745 -7.396203128882689, 46.42001459126881 -6.881316833080699 C46.52064753216172 -6.632751523469664, 46.621280473054625 -6.384186213858628, 46.828963174845924 -5.871205925162238 C46.94355921992709 -5.52606089577801, 47.05815526500826 -5.180915866393782, 47.172353501623235 -4.836968972727556 C47.252068751186854 -4.532980177333757, 47.331784000750474 -4.2289913819399585, 47.448774507091 -3.7828558772573464 C47.5256427463717 -3.3881537146590563, 47.60251098565241 -2.9934515520607667, 47.65709031804565 -2.713198215567453 C47.69424312273116 -2.4250483990777143, 47.73139592741668 -2.136898582587976, 47.796444920136366 -1.632391440430593 C47.82259746492715 -1.2250444453599876, 47.84875000971793 -0.817697450289382, 47.8662656754117 -0.5448768187181379 C47.8662656754117 -0.12407770167870186, 47.8662656754117 0.29672141536073415, 47.8662656754117 0.5448768187181336 C47.83857467585359 0.9761864886080924, 47.81088367629549 1.4074961584980512, 47.796444920136366 1.6323914404305815 C47.74573131560114 2.025716142671881, 47.695017711065915 2.4190408449131806, 47.657090318045654 2.7131982155674415 C47.58874380409415 3.064143119667583, 47.52039729014265 3.4150880237677246, 47.448774507091 3.782855877257343 C47.37603724127184 4.060234596356235, 47.303299975452674 4.337613315455127, 47.172353501623235 4.836968972727545 C47.07623568035336 5.126460536097296, 46.98011785908349 5.415952099467048, 46.828963174845924 5.871205925162227 C46.68759496334188 6.220388140745657, 46.54622675183783 6.569570356329088, 46.42001459126881 6.881316833080694 C46.27603172268784 7.180300340428946, 46.13204885410687 7.4792838477771975, 45.947188208341004 7.863150934094196 C45.83494514487794 8.062449859115512, 45.72270208141487 8.26174878413683, 45.41242697109089 8.812673661278923 C45.27043430956995 9.030812519743462, 45.128441648049005 9.248951378208002, 44.817928328148255 9.725983222076879 C44.67253396867411 9.920798418073598, 44.52713960919996 10.115613614070318, 44.16613520195651 10.599326631598467 C43.968155684307895 10.831884638382217, 43.77017616665928 11.064442645165965, 43.45972595028037 11.42911513444238 C43.209525727186836 11.687467406606796, 42.9593255040933 11.945819678771214, 42.70160336025927 12.211938951661365 C42.46140947912618 12.430076679324596, 42.221215597993094 12.648214406987826, 41.89488272023242 12.944581292275275 C41.702570936011625 13.097944822559851, 41.510259151790834 13.251308352844426, 41.042879018350675 13.62403157175526 C40.731953288659774 13.840919901029727, 40.42102755896888 14.057808230304193, 40.14909332057934 14.247497783161286 C39.93117067707326 14.379603770310274, 39.71324803356718 14.511709757459263, 39.21719838406695 14.81241797009762 C38.898381610543254 14.978744476633041, 38.57956483701956 15.145070983168463, 38.25102356499849 15.316470754341124 C38.035020902554436 15.412088725513785, 37.81901824011038 15.507706696686444, 37.254539082949364 15.757584874882367 C36.86262099945061 15.901814352460956, 36.47070291595186 16.046043830039547, 36.23183970640156 16.133947699181363 C35.9447665979401 16.219149490895227, 35.65769348947865 16.30435128260909, 35.18712792646164 16.444012671663497 C34.83013557993048 16.525493845166462, 34.473143233399306 16.606975018669427, 34.12469668792333 16.68650566884811 C33.6976833330594 16.755541876524486, 33.270669978195464 16.824578084200862, 33.04891174863661 16.86043023499518 C32.62584225375195 16.901243240351196, 32.20277275886729 16.94205624570721, 31.96419373967212 16.965071676755716 C31.70905046012104 16.973253625124652, 31.45390718056996 16.98143557349359, 30.875000000000004 17 C30.875000000000004 17, 30.875000000000004 17, 30.875 17 C7.190457282081081 17, -16.49408543583784 17, -30.874999999999996 17 C-31.210356958292408 16.989245755080283, -31.545713916584816 16.978491510160566, -31.964193739672112 16.965071676755716 C-32.267613491175155 16.935801138243857, -32.57103324267819 16.906530599732, -33.048911748636606 16.86043023499518 C-33.270052098539985 16.82467797819183, -33.49119244844336 16.78892572138848, -34.124696687923326 16.68650566884811 C-34.51772569881495 16.596799361866083, -34.91075470970657 16.507093054884052, -35.18712792646162 16.4440126716635 C-35.48758704905511 16.35483798121987, -35.7880461716486 16.265663290776242, -36.231839706401544 16.13394769918137 C-36.52358752076396 16.026581806608768, -36.81533533512638 15.919215914036165, -37.254539082949364 15.757584874882369 C-37.56338156008466 15.62086947174115, -37.87222403721996 15.48415406859993, -38.25102356499848 15.316470754341127 C-38.575590368746745 15.147144460720618, -38.90015717249501 14.977818167100109, -39.21719838406693 14.812417970097624 C-39.57358526834247 14.59637414648799, -39.92997215261801 14.38033032287836, -40.14909332057932 14.247497783161299 C-40.36732323235494 14.095270043727242, -40.58555314413057 13.943042304293186, -41.04287901835067 13.624031571755264 C-41.37861589032591 13.356290350688392, -41.714352762301154 13.08854912962152, -41.8948827202324 12.94458129227529 C-42.05763148735249 12.796777168073238, -42.22038025447257 12.648973043871187, -42.70160336025926 12.211938951661377 C-42.93752764939537 11.96832775338398, -43.17345193853148 11.72471655510658, -43.459725950280365 11.429115134442386 C-43.61813412613015 11.243039877408677, -43.77654230197993 11.05696462037497, -44.16613520195651 10.599326631598473 C-44.30793335555737 10.409330023850861, -44.44973150915823 10.219333416103252, -44.81792832814825 9.72598322207689 C-44.978627281178916 9.479106476510804, -45.139326234209584 9.232229730944717, -45.41242697109088 8.812673661278936 C-45.532616825765295 8.599264403761994, -45.65280668043972 8.385855146245053, -45.947188208341004 7.863150934094201 C-46.121132956878554 7.501950941934579, -46.295077705416105 7.140750949774957, -46.42001459126881 6.881316833080701 C-46.51806397184051 6.639132967412791, -46.616113352412206 6.396949101744881, -46.828963174845924 5.87120592516224 C-46.91026173714201 5.62634760869327, -46.99156029943809 5.381489292224299, -47.172353501623235 4.8369689727275516 C-47.26221432424564 4.4942907101414376, -47.352075146868046 4.1516124475553235, -47.448774507091 3.782855877257349 C-47.50679320114555 3.4849421455425746, -47.564811895200094 3.1870284138278, -47.65709031804565 2.713198215567455 C-47.69202933832761 2.4422180737505315, -47.72696835860956 2.171237931933608, -47.796444920136366 1.6323914404306026 C-47.82058815413459 1.256341082840552, -47.844731388132814 0.8802907252505013, -47.8662656754117 0.54487681871814 C-47.8662656754117 0.2124985394131909, -47.8662656754117 -0.11987973989175815, -47.8662656754117 -0.5448768187181317 C-47.84640553577253 -0.8542145244142676, -47.82654539613337 -1.1635522301104035, -47.796444920136366 -1.6323914404305793 C-47.762383274166325 -1.8965668403414577, -47.728321628196284 -2.160742240252336, -47.657090318045654 -2.713198215567447 C-47.57827672689151 -3.1178893488855928, -47.499463135737365 -3.5225804822037388, -47.448774507091 -3.782855877257341 C-47.36987875370975 -4.083719578535877, -47.290983000328495 -4.3845832798144135, -47.172353501623235 -4.836968972727544 C-47.07172602180446 -5.140042909130076, -46.97109854198569 -5.443116845532609, -46.82896317484593 -5.871205925162218 C-46.72019509207639 -6.139865192490806, -46.61142700930685 -6.408524459819395, -46.42001459126881 -6.881316833080692 C-46.253280872395536 -7.227542967851132, -46.086547153522254 -7.573769102621573, -45.947188208341004 -7.863150934094194 C-45.76599285694164 -8.184881628522692, -45.58479750554227 -8.50661232295119, -45.41242697109088 -8.812673661278929 C-45.29115953955135 -8.998973000988528, -45.16989210801182 -9.185272340698127, -44.81792832814825 -9.725983222076884 C-44.65470384293572 -9.944689162205165, -44.491479357723186 -10.163395102333446, -44.16613520195651 -10.599326631598467 C-43.97939063248506 -10.818687428966658, -43.79264606301361 -11.03804822633485, -43.45972595028037 -11.42911513444238 C-43.27763134957729 -11.617142759913063, -43.09553674887421 -11.805170385383747, -42.70160336025928 -12.21193895166136 C-42.46950365101744 -12.422725766573006, -42.23740394177561 -12.63351258148465, -41.89488272023242 -12.944581292275274 C-41.59893272402309 -13.180593538692056, -41.30298272781377 -13.416605785108839, -41.042879018350675 -13.624031571755259 C-40.81633970967747 -13.782055586757071, -40.58980040100427 -13.940079601758883, -40.14909332057934 -14.247497783161284 C-39.925028589958906 -14.383327139613906, -39.70096385933847 -14.519156496066527, -39.21719838406695 -14.812417970097618 C-38.92437894327437 -14.965181684799301, -38.63155950248179 -15.117945399500986, -38.25102356499849 -15.316470754341124 C-38.02811409767019 -15.415146163152952, -37.80520463034188 -15.513821571964781, -37.25453908294937 -15.757584874882365 C-37.017464250171045 -15.84483060484052, -36.78038941739271 -15.932076334798678, -36.231839706401566 -16.133947699181363 C-35.96154970970926 -16.214168351418493, -35.69125971301696 -16.294389003655624, -35.18712792646164 -16.444012671663494 C-34.97462999214196 -16.492513938493346, -34.76213205782229 -16.541015205323202, -34.12469668792333 -16.68650566884811 C-33.778211097170384 -16.74252277212516, -33.431725506417436 -16.79853987540221, -33.04891174863661 -16.86043023499518 C-32.717309303623644 -16.892419524055295, -32.385706858610675 -16.92440881311541, -31.96419373967212 -16.965071676755716 C-31.724708545223173 -16.97275150081204, -31.485223350774223 -16.980431324868366, -30.875000000000004 -17 C-30.875000000000004 -17, -30.875000000000004 -17, -30.875 -17" stroke="none" stroke-width="0" fill="#2d2d2d" style=""></path><path d="M-30.875 -17 C-9.465732519663966 -17, 11.943534960672068 -17, 30.875 -17 M-30.875 -17 C-7.35880550703083 -17, 16.15738898593834 -17, 30.875 -17 M30.875 -17 C30.875 -17, 30.875 -17, 30.875 -17 M30.875 -17 C30.875 -17, 30.875 -17, 30.875 -17 M30.875 -17 C31.0957813897589 -16.992919970555338, 31.3165627795178 -16.985839941110676, 31.96419373967212 -16.965071676755716 M30.875 -17 C31.300781810287624 -16.986346006078094, 31.726563620575245 -16.972692012156188, 31.96419373967212 -16.965071676755716 M31.96419373967212 -16.965071676755716 C32.363015738676765 -16.926597798165368, 32.76183773768141 -16.88812391957502, 33.0489117486366 -16.860430234995185 M31.96419373967212 -16.965071676755716 C32.186040411168406 -16.943670395166126, 32.40788708266469 -16.92226911357654, 33.0489117486366 -16.860430234995185 M33.0489117486366 -16.860430234995185 C33.355164357891056 -16.81091768815538, 33.66141696714551 -16.761405141315574, 34.124696687923326 -16.686505668848113 M33.0489117486366 -16.860430234995185 C33.409880322541056 -16.80207163531941, 33.770848896445514 -16.743713035643637, 34.124696687923326 -16.686505668848113 M34.124696687923326 -16.686505668848113 C34.41118373722399 -16.621116869347947, 34.697670786524654 -16.55572806984778, 35.18712792646162 -16.4440126716635 M34.124696687923326 -16.686505668848113 C34.48897276871263 -16.603362030531535, 34.853248849501924 -16.520218392214957, 35.18712792646162 -16.4440126716635 M35.18712792646162 -16.4440126716635 C35.52158753900336 -16.344746814275442, 35.856047151545106 -16.245480956887388, 36.23183970640155 -16.133947699181366 M35.18712792646162 -16.4440126716635 C35.44951884706624 -16.3661364237461, 35.711909767670846 -16.2882601758287, 36.23183970640155 -16.133947699181366 M36.23183970640155 -16.133947699181366 C36.6301269932281 -15.987374295901875, 37.02841428005466 -15.840800892622381, 37.25453908294936 -15.757584874882369 M36.23183970640155 -16.133947699181366 C36.48267278883092 -16.041638806171765, 36.733505871260284 -15.94932991316216, 37.25453908294936 -15.757584874882369 M37.25453908294936 -15.757584874882369 C37.47723300369742 -15.65900488214765, 37.69992692444548 -15.560424889412934, 38.25102356499849 -15.316470754341125 M37.25453908294936 -15.757584874882369 C37.46511524724637 -15.664369053468056, 37.67569141154339 -15.57115323205374, 38.25102356499849 -15.316470754341125 M38.25102356499849 -15.316470754341125 C38.52738621863858 -15.172292534955815, 38.80374887227868 -15.028114315570505, 39.21719838406694 -14.812417970097622 M38.25102356499849 -15.316470754341125 C38.56764685035821 -15.151288589175852, 38.884270135717934 -14.986106424010579, 39.21719838406694 -14.812417970097622 M39.21719838406694 -14.812417970097622 C39.54731838798576 -14.612297283721551, 39.87743839190458 -14.412176597345482, 40.149093320579325 -14.247497783161291 M39.21719838406694 -14.812417970097622 C39.48218302529781 -14.651782723360869, 39.747167666528675 -14.491147476624118, 40.149093320579325 -14.247497783161291 M40.149093320579325 -14.247497783161291 C40.49302619086297 -14.007585101465414, 40.836959061146615 -13.76767241976954, 41.042879018350675 -13.624031571755262 M40.149093320579325 -14.247497783161291 C40.337553735531735 -14.116035956010366, 40.526014150484144 -13.98457412885944, 41.042879018350675 -13.624031571755262 M41.042879018350675 -13.624031571755262 C41.35799604248481 -13.372734130624478, 41.67311306661894 -13.121436689493695, 41.8948827202324 -12.944581292275288 M41.042879018350675 -13.624031571755262 C41.3151235120452 -13.406923832764118, 41.58736800573972 -13.189816093772972, 41.8948827202324 -12.944581292275288 M41.8948827202324 -12.944581292275288 C42.09138632887157 -12.766121914109771, 42.28788993751074 -12.587662535944256, 42.70160336025927 -12.21193895166137 M41.8948827202324 -12.944581292275288 C42.21274720322183 -12.65590517905764, 42.530611686211266 -12.367229065839993, 42.70160336025927 -12.21193895166137 M42.70160336025927 -12.21193895166137 C42.92299444624618 -11.983334478833688, 43.14438553223309 -11.754730006006007, 43.45972595028036 -11.42911513444239 M42.70160336025927 -12.21193895166137 C42.97409298677757 -11.930571040466829, 43.24658261329587 -11.649203129272287, 43.45972595028036 -11.42911513444239 M43.45972595028036 -11.42911513444239 C43.73238295311446 -11.108836704290482, 44.00503995594856 -10.788558274138577, 44.16613520195651 -10.59932663159847 M43.45972595028036 -11.42911513444239 C43.65801176020731 -11.196197339319983, 43.85629757013426 -10.963279544197578, 44.16613520195651 -10.59932663159847 M44.16613520195651 -10.59932663159847 C44.31840911060431 -10.395293466448885, 44.4706830192521 -10.191260301299298, 44.81792832814825 -9.725983222076888 M44.16613520195651 -10.59932663159847 C44.396814186148326 -10.290237808069216, 44.62749317034015 -9.981148984539962, 44.81792832814825 -9.725983222076888 M44.81792832814825 -9.725983222076888 C44.95797627154076 -9.510831972887555, 45.09802421493327 -9.295680723698222, 45.41242697109088 -8.812673661278927 M44.81792832814825 -9.725983222076888 C44.943626313533414 -9.532877361890101, 45.06932429891858 -9.339771501703312, 45.41242697109088 -8.812673661278927 M45.41242697109088 -8.812673661278927 C45.61339928609177 -8.45582696534121, 45.81437160109266 -8.098980269403494, 45.947188208341004 -7.863150934094199 M45.41242697109088 -8.812673661278927 C45.60925056665515 -8.46319343680433, 45.80607416221941 -8.113713212329735, 45.947188208341004 -7.863150934094199 M45.947188208341004 -7.863150934094199 C46.11073455323217 -7.5235434495964855, 46.274280898123344 -7.183935965098772, 46.42001459126881 -6.881316833080699 M45.947188208341004 -7.863150934094199 C46.07026960248407 -7.607569785636172, 46.19335099662713 -7.3519886371781435, 46.42001459126881 -6.881316833080699 M46.42001459126881 -6.881316833080699 C46.52532141793697 -6.6212069352413465, 46.630628244605134 -6.361097037401995, 46.828963174845924 -5.871205925162238 M46.42001459126881 -6.881316833080699 C46.567490743851906 -6.517047884943018, 46.714966896434994 -6.152778936805339, 46.828963174845924 -5.871205925162238 M46.828963174845924 -5.871205925162238 C46.94474850436394 -5.522478960540958, 47.06053383388196 -5.173751995919679, 47.172353501623235 -4.836968972727556 M46.828963174845924 -5.871205925162238 C46.9380768253651 -5.5425729946977675, 47.047190475884285 -5.213940064233298, 47.172353501623235 -4.836968972727556 M47.172353501623235 -4.836968972727556 C47.280497815611426 -4.424567833448402, 47.38864212959962 -4.01216669416925, 47.448774507091 -3.7828558772573464 M47.172353501623235 -4.836968972727556 C47.24038642339321 -4.5775299563638185, 47.30841934516319 -4.318090940000081, 47.448774507091 -3.7828558772573464 M47.448774507091 -3.7828558772573464 C47.51039591094443 -3.466442992158286, 47.57201731479786 -3.150030107059225, 47.65709031804565 -2.713198215567453 M47.448774507091 -3.7828558772573464 C47.510608888578666 -3.4653493970193403, 47.57244327006633 -3.147842916781334, 47.65709031804565 -2.713198215567453 M47.65709031804565 -2.713198215567453 C47.696770349385595 -2.4054477282032636, 47.73645038072555 -2.097697240839074, 47.796444920136366 -1.632391440430593 M47.65709031804565 -2.713198215567453 C47.70416737695902 -2.3480778430521005, 47.751244435872394 -1.9829574705367483, 47.796444920136366 -1.632391440430593 M47.796444920136366 -1.632391440430593 C47.813281070930536 -1.370154801915109, 47.830117221724706 -1.1079181633996251, 47.8662656754117 -0.5448768187181379 M47.796444920136366 -1.632391440430593 C47.820061589469255 -1.2645427525384598, 47.84367825880215 -0.8966940646463266, 47.8662656754117 -0.5448768187181379 M47.8662656754117 -0.5448768187181379 C47.8662656754117 -0.30125656320242816, 47.8662656754117 -0.05763630768671846, 47.8662656754117 0.5448768187181336 M47.8662656754117 -0.5448768187181379 C47.8662656754117 -0.2235886946906699, 47.8662656754117 0.0976994293367981, 47.8662656754117 0.5448768187181336 M47.8662656754117 0.5448768187181336 C47.85202505292543 0.766686008765388, 47.83778443043915 0.9884951988126423, 47.796444920136366 1.6323914404305815 M47.8662656754117 0.5448768187181336 C47.846044668285565 0.8598353268107822, 47.82582366115943 1.1747938349034308, 47.796444920136366 1.6323914404305815 M47.796444920136366 1.6323914404305815 C47.760087389795075 1.9143732661512216, 47.72372985945378 2.1963550918718617, 47.657090318045654 2.7131982155674415 M47.796444920136366 1.6323914404305815 C47.74403522358545 2.038870697414321, 47.69162552703453 2.4453499543980604, 47.657090318045654 2.7131982155674415 M47.657090318045654 2.7131982155674415 C47.609343997770885 2.9583654789900025, 47.561597677496124 3.203532742412564, 47.448774507091 3.782855877257343 M47.657090318045654 2.7131982155674415 C47.59057095521414 3.0547610848349347, 47.524051592382634 3.396323954102428, 47.448774507091 3.782855877257343 M47.448774507091 3.782855877257343 C47.3409888753112 4.193889205822064, 47.23320324353139 4.604922534386786, 47.172353501623235 4.836968972727545 M47.448774507091 3.782855877257343 C47.34257003958313 4.187859541172248, 47.23636557207526 4.592863205087152, 47.172353501623235 4.836968972727545 M47.172353501623235 4.836968972727545 C47.038760229740625 5.239330622440673, 46.905166957858015 5.641692272153802, 46.828963174845924 5.871205925162227 M47.172353501623235 4.836968972727545 C47.09782457433076 5.06143822716051, 47.02329564703829 5.2859074815934735, 46.828963174845924 5.871205925162227 M46.828963174845924 5.871205925162227 C46.745597301778524 6.077121243408214, 46.662231428711124 6.2830365616542, 46.42001459126881 6.881316833080694 M46.828963174845924 5.871205925162227 C46.71525368997009 6.152070551228865, 46.601544205094264 6.432935177295504, 46.42001459126881 6.881316833080694 M46.42001459126881 6.881316833080694 C46.266183920260936 7.200749512877624, 46.11235324925306 7.520182192674554, 45.947188208341004 7.863150934094196 M46.42001459126881 6.881316833080694 C46.25003546030799 7.234282135491607, 46.08005632934717 7.587247437902518, 45.947188208341004 7.863150934094196 M45.947188208341004 7.863150934094196 C45.82524190675221 8.079678940967145, 45.703295605163426 8.296206947840094, 45.41242697109089 8.812673661278923 M45.947188208341004 7.863150934094196 C45.79982731089424 8.124805129419867, 45.65246641344748 8.38645932474554, 45.41242697109089 8.812673661278923 M45.41242697109089 8.812673661278923 C45.1792281250863 9.17092971140013, 44.946029279081706 9.529185761521335, 44.817928328148255 9.725983222076879 M45.41242697109089 8.812673661278923 C45.21986762064747 9.108496532985612, 45.02730827020405 9.404319404692298, 44.817928328148255 9.725983222076879 M44.817928328148255 9.725983222076879 C44.67321923631814 9.919880221859758, 44.52851014448803 10.11377722164264, 44.16613520195651 10.599326631598467 M44.817928328148255 9.725983222076879 C44.68328471726488 9.906393394375304, 44.54864110638151 10.08680356667373, 44.16613520195651 10.599326631598467 M44.16613520195651 10.599326631598467 C43.939542815893944 10.86549494173958, 43.71295042983138 11.131663251880694, 43.45972595028037 11.42911513444238 M44.16613520195651 10.599326631598467 C44.01922621559877 10.771894286332405, 43.87231722924103 10.94446194106634, 43.45972595028037 11.42911513444238 M43.45972595028037 11.42911513444238 C43.167869611851074 11.730480765721644, 42.876013273421776 12.031846397000908, 42.70160336025927 12.211938951661365 M43.45972595028037 11.42911513444238 C43.19267854387764 11.704863506553016, 42.9256311374749 11.980611878663652, 42.70160336025927 12.211938951661365 M42.70160336025927 12.211938951661365 C42.43608481485681 12.453075869360141, 42.17056626945435 12.694212787058918, 41.89488272023242 12.944581292275275 M42.70160336025927 12.211938951661365 C42.38037114601134 12.503673549302693, 42.05913893176342 12.795408146944023, 41.89488272023242 12.944581292275275 M41.89488272023242 12.944581292275275 C41.6916835831944 13.106627196706965, 41.48848444615638 13.268673101138655, 41.042879018350675 13.62403157175526 M41.89488272023242 12.944581292275275 C41.625345476644505 13.159530071349348, 41.3558082330566 13.37447885042342, 41.042879018350675 13.62403157175526 M41.042879018350675 13.62403157175526 C40.78914679037022 13.80102419010331, 40.535414562389754 13.978016808451361, 40.14909332057934 14.247497783161286 M41.042879018350675 13.62403157175526 C40.73906359882339 13.835960056459953, 40.43524817929612 14.047888541164646, 40.14909332057934 14.247497783161286 M40.14909332057934 14.247497783161286 C39.81744116573307 14.448547268433492, 39.485789010886805 14.6495967537057, 39.21719838406695 14.81241797009762 M40.14909332057934 14.247497783161286 C39.882930074024664 14.408847507371584, 39.616766827469995 14.570197231581881, 39.21719838406695 14.81241797009762 M39.21719838406695 14.81241797009762 C38.94028787235044 14.956882006690472, 38.66337736063393 15.101346043283327, 38.25102356499849 15.316470754341124 M39.21719838406695 14.81241797009762 C38.91004603568327 14.972659153508912, 38.602893687299606 15.132900336920205, 38.25102356499849 15.316470754341124 M38.25102356499849 15.316470754341124 C37.91783502207255 15.463963438607479, 37.58464647914661 15.611456122873834, 37.254539082949364 15.757584874882367 M38.25102356499849 15.316470754341124 C37.96080024977674 15.44494400682103, 37.67057693455499 15.573417259300937, 37.254539082949364 15.757584874882367 M37.254539082949364 15.757584874882367 C36.855594791870566 15.904400061799965, 36.45665050079177 16.051215248717565, 36.23183970640156 16.133947699181363 M37.254539082949364 15.757584874882367 C36.91670636170148 15.881910439193032, 36.57887364045359 16.006236003503695, 36.23183970640156 16.133947699181363 M36.23183970640156 16.133947699181363 C35.991250443808866 16.205353329440065, 35.75066118121618 16.276758959698764, 35.18712792646164 16.444012671663497 M36.23183970640156 16.133947699181363 C35.910314001919126 16.229374840548886, 35.5887882974367 16.32480198191641, 35.18712792646164 16.444012671663497 M35.18712792646164 16.444012671663497 C34.847450674024046 16.521541787931152, 34.50777342158645 16.59907090419881, 34.12469668792333 16.68650566884811 M35.18712792646164 16.444012671663497 C34.953640200898015 16.49730472137359, 34.720152475334395 16.550596771083686, 34.12469668792333 16.68650566884811 M34.12469668792333 16.68650566884811 C33.891458548319385 16.72421380247049, 33.65822040871543 16.761921936092868, 33.04891174863661 16.86043023499518 M34.12469668792333 16.68650566884811 C33.731856930587746 16.75001695429631, 33.33901717325216 16.813528239744507, 33.04891174863661 16.86043023499518 M33.04891174863661 16.86043023499518 C32.77107402927319 16.887232905633425, 32.49323630990977 16.91403557627167, 31.96419373967212 16.965071676755716 M33.04891174863661 16.86043023499518 C32.748665423848564 16.889394636848447, 32.448419099060516 16.918359038701716, 31.96419373967212 16.965071676755716 M31.96419373967212 16.965071676755716 C31.603322503750114 16.976644114898487, 31.24245126782811 16.988216553041255, 30.875000000000004 17 M31.96419373967212 16.965071676755716 C31.561232143020607 16.977993870843164, 31.158270546369096 16.990916064930612, 30.875000000000004 17 M30.875000000000004 17 C30.875000000000004 17, 30.875 17, 30.875 17 M30.875000000000004 17 C30.875000000000004 17, 30.875000000000004 17, 30.875 17 M30.875 17 C9.6461910325569 17, -11.582617934886201 17, -30.874999999999996 17 M30.875 17 C6.8073738630769896 17, -17.26025227384602 17, -30.874999999999996 17 M-30.874999999999996 17 C-31.16003690352031 16.99085942129478, -31.445073807040625 16.981718842589558, -31.964193739672112 16.965071676755716 M-30.874999999999996 17 C-31.142826668608517 16.99141132003071, -31.410653337217042 16.98282264006142, -31.964193739672112 16.965071676755716 M-31.964193739672112 16.965071676755716 C-32.208538156010746 16.941500064778683, -32.452882572349374 16.91792845280165, -33.048911748636606 16.86043023499518 M-31.964193739672112 16.965071676755716 C-32.33044771097087 16.92973959662937, -32.696701682269634 16.894407516503023, -33.048911748636606 16.86043023499518 M-33.048911748636606 16.86043023499518 C-33.30271167972565 16.819397830384567, -33.55651161081468 16.778365425773952, -34.124696687923326 16.68650566884811 M-33.048911748636606 16.86043023499518 C-33.28593432592918 16.822110262836055, -33.52295690322176 16.783790290676933, -34.124696687923326 16.68650566884811 M-34.124696687923326 16.68650566884811 C-34.49255660315051 16.60254404370779, -34.8604165183777 16.518582418567473, -35.18712792646162 16.4440126716635 M-34.124696687923326 16.68650566884811 C-34.39016339968247 16.625914624221274, -34.655630111441624 16.565323579594438, -35.18712792646162 16.4440126716635 M-35.18712792646162 16.4440126716635 C-35.46882757906861 16.360405693441397, -35.7505272316756 16.276798715219293, -36.231839706401544 16.13394769918137 M-35.18712792646162 16.4440126716635 C-35.397586008491395 16.38154981763408, -35.60804409052116 16.31908696360466, -36.231839706401544 16.13394769918137 M-36.231839706401544 16.13394769918137 C-36.564159987379576 16.01165076384645, -36.896480268357614 15.889353828511533, -37.254539082949364 15.757584874882369 M-36.231839706401544 16.13394769918137 C-36.61926195673612 15.991372729766223, -37.00668420707069 15.848797760351077, -37.254539082949364 15.757584874882369 M-37.254539082949364 15.757584874882369 C-37.587942944707976 15.609996875355995, -37.92134680646659 15.46240887582962, -38.25102356499848 15.316470754341127 M-37.254539082949364 15.757584874882369 C-37.56447310486257 15.620386277247494, -37.87440712677578 15.48318767961262, -38.25102356499848 15.316470754341127 M-38.25102356499848 15.316470754341127 C-38.53333363199129 15.169189773219209, -38.81564369898409 15.02190879209729, -39.21719838406693 14.812417970097624 M-38.25102356499848 15.316470754341127 C-38.599020039248515 15.134921216627266, -38.947016513498546 14.953371678913404, -39.21719838406693 14.812417970097624 M-39.21719838406693 14.812417970097624 C-39.471325548584154 14.6583645895503, -39.72545271310137 14.50431120900298, -40.14909332057932 14.247497783161299 M-39.21719838406693 14.812417970097624 C-39.5782551348801 14.593543245949697, -39.93931188569327 14.37466852180177, -40.14909332057932 14.247497783161299 M-40.14909332057932 14.247497783161299 C-40.434127208091724 14.048670482150767, -40.71916109560413 13.849843181140233, -41.04287901835067 13.624031571755264 M-40.14909332057932 14.247497783161299 C-40.38248090475603 14.084696707625309, -40.61586848893274 13.92189563208932, -41.04287901835067 13.624031571755264 M-41.04287901835067 13.624031571755264 C-41.22250810993326 13.480782151349029, -41.40213720151585 13.337532730942794, -41.8948827202324 12.94458129227529 M-41.04287901835067 13.624031571755264 C-41.270902435671545 13.442188964399842, -41.498925852992414 13.260346357044419, -41.8948827202324 12.94458129227529 M-41.8948827202324 12.94458129227529 C-42.17630471990025 12.689001278195029, -42.45772671956811 12.433421264114767, -42.70160336025926 12.211938951661377 M-41.8948827202324 12.94458129227529 C-42.20472935239135 12.66318677904118, -42.5145759845503 12.381792265807068, -42.70160336025926 12.211938951661377 M-42.70160336025926 12.211938951661377 C-42.977720142819884 11.926825704058095, -43.2538369253805 11.641712456454812, -43.459725950280365 11.429115134442386 M-42.70160336025926 12.211938951661377 C-42.998034531116275 11.905849430299773, -43.29446570197328 11.59975990893817, -43.459725950280365 11.429115134442386 M-43.459725950280365 11.429115134442386 C-43.72002566906372 11.123352273285862, -43.98032538784709 10.817589412129337, -44.16613520195651 10.599326631598473 M-43.459725950280365 11.429115134442386 C-43.626374686652746 11.233360046117662, -43.79302342302512 11.037604957792936, -44.16613520195651 10.599326631598473 M-44.16613520195651 10.599326631598473 C-44.31548738494108 10.399208312662926, -44.464839567925644 10.199089993727382, -44.81792832814825 9.72598322207689 M-44.16613520195651 10.599326631598473 C-44.415226922602514 10.265566418655409, -44.66431864324852 9.931806205712345, -44.81792832814825 9.72598322207689 M-44.81792832814825 9.72598322207689 C-45.017489453784805 9.419403743433648, -45.217050579421354 9.112824264790406, -45.41242697109088 8.812673661278936 M-44.81792832814825 9.72598322207689 C-45.008137552356644 9.433770775364454, -45.19834677656504 9.141558328652017, -45.41242697109088 8.812673661278936 M-45.41242697109088 8.812673661278936 C-45.535921073233595 8.593397377790689, -45.65941517537632 8.374121094302444, -45.947188208341004 7.863150934094201 M-45.41242697109088 8.812673661278936 C-45.54112490105805 8.584157454543677, -45.66982283102521 8.355641247808418, -45.947188208341004 7.863150934094201 M-45.947188208341004 7.863150934094201 C-46.10702968086141 7.531236696345953, -46.26687115338181 7.199322458597706, -46.42001459126881 6.881316833080701 M-45.947188208341004 7.863150934094201 C-46.09648878172326 7.553125098945422, -46.24578935510552 7.243099263796643, -46.42001459126881 6.881316833080701 M-46.42001459126881 6.881316833080701 C-46.53349613374677 6.6010152291437665, -46.646977676224736 6.320713625206832, -46.828963174845924 5.87120592516224 M-46.42001459126881 6.881316833080701 C-46.518624651451496 6.637748077933651, -46.61723471163418 6.3941793227866, -46.828963174845924 5.87120592516224 M-46.828963174845924 5.87120592516224 C-46.92136680763963 5.5929009057071255, -47.01377044043334 5.314595886252011, -47.172353501623235 4.8369689727275516 M-46.828963174845924 5.87120592516224 C-46.94201108804988 5.530723622330845, -47.055059001253845 5.19024131949945, -47.172353501623235 4.8369689727275516 M-47.172353501623235 4.8369689727275516 C-47.25750294739508 4.512257231996244, -47.34265239316694 4.187545491264936, -47.448774507091 3.782855877257349 M-47.172353501623235 4.8369689727275516 C-47.2637824120882 4.488310911584203, -47.35521132255315 4.1396528504408545, -47.448774507091 3.782855877257349 M-47.448774507091 3.782855877257349 C-47.51143313666905 3.461117057280125, -47.57409176624709 3.139378237302901, -47.65709031804565 2.713198215567455 M-47.448774507091 3.782855877257349 C-47.50114321097075 3.513953650964291, -47.55351191485051 3.245051424671233, -47.65709031804565 2.713198215567455 M-47.65709031804565 2.713198215567455 C-47.70750425379672 2.3221976852397765, -47.757918189547794 1.9311971549120983, -47.796444920136366 1.6323914404306026 M-47.65709031804565 2.713198215567455 C-47.70774754456965 2.3203107700481453, -47.75840477109365 1.927423324528836, -47.796444920136366 1.6323914404306026 M-47.796444920136366 1.6323914404306026 C-47.82094576989201 1.2507709287565, -47.84544661964765 0.8691504170823975, -47.8662656754117 0.54487681871814 M-47.796444920136366 1.6323914404306026 C-47.81509876219943 1.3418427931880987, -47.83375260426249 1.051294145945595, -47.8662656754117 0.54487681871814 M-47.8662656754117 0.54487681871814 C-47.8662656754117 0.3255121232670798, -47.8662656754117 0.10614742781601966, -47.8662656754117 -0.5448768187181317 M-47.8662656754117 0.54487681871814 C-47.8662656754117 0.17125251057174623, -47.8662656754117 -0.20237179757464752, -47.8662656754117 -0.5448768187181317 M-47.8662656754117 -0.5448768187181317 C-47.844341568900795 -0.88636247444565, -47.82241746238989 -1.2278481301731683, -47.796444920136366 -1.6323914404305793 M-47.8662656754117 -0.5448768187181317 C-47.840095073838825 -0.9525050627449724, -47.81392447226595 -1.360133306771813, -47.796444920136366 -1.6323914404305793 M-47.796444920136366 -1.6323914404305793 C-47.74889443153099 -2.001183640147816, -47.701343942925625 -2.369975839865052, -47.657090318045654 -2.713198215567447 M-47.796444920136366 -1.6323914404305793 C-47.74591043018236 -2.0243269653500664, -47.69537594022837 -2.416262490269554, -47.657090318045654 -2.713198215567447 M-47.657090318045654 -2.713198215567447 C-47.57700722647247 -3.124407965228361, -47.49692413489928 -3.5356177148892756, -47.448774507091 -3.782855877257341 M-47.657090318045654 -2.713198215567447 C-47.59117104312706 -3.0516797602307317, -47.52525176820847 -3.390161304894017, -47.448774507091 -3.782855877257341 M-47.448774507091 -3.782855877257341 C-47.38032559234173 -4.043881255143633, -47.31187667759246 -4.304906633029924, -47.172353501623235 -4.836968972727544 M-47.448774507091 -3.782855877257341 C-47.33898619906958 -4.2015262782967016, -47.229197891048166 -4.620196679336063, -47.172353501623235 -4.836968972727544 M-47.172353501623235 -4.836968972727544 C-47.102428124180015 -5.047573068490612, -47.032502746736796 -5.258177164253681, -46.82896317484593 -5.871205925162218 M-47.172353501623235 -4.836968972727544 C-47.050262021121725 -5.2046890593624004, -46.92817054062021 -5.572409145997257, -46.82896317484593 -5.871205925162218 M-46.82896317484593 -5.871205925162218 C-46.721724237783945 -6.1360881730291155, -46.61448530072197 -6.400970420896013, -46.42001459126881 -6.881316833080692 M-46.82896317484593 -5.871205925162218 C-46.69317145411576 -6.206614100720049, -46.557379733385595 -6.542022276277882, -46.42001459126881 -6.881316833080692 M-46.42001459126881 -6.881316833080692 C-46.24188427119989 -7.251208254082082, -46.06375395113098 -7.62109967508347, -45.947188208341004 -7.863150934094194 M-46.42001459126881 -6.881316833080692 C-46.26835156345521 -7.19624835540457, -46.11668853564162 -7.511179877728449, -45.947188208341004 -7.863150934094194 M-45.947188208341004 -7.863150934094194 C-45.80907073551369 -8.10839249300978, -45.67095326268639 -8.353634051925368, -45.41242697109088 -8.812673661278929 M-45.947188208341004 -7.863150934094194 C-45.82034570683025 -8.088372639722593, -45.693503205319494 -8.31359434535099, -45.41242697109088 -8.812673661278929 M-45.41242697109088 -8.812673661278929 C-45.277227581321284 -9.020376230084516, -45.14202819155169 -9.228078798890103, -44.81792832814825 -9.725983222076884 M-45.41242697109088 -8.812673661278929 C-45.20611231993103 -9.12962836870148, -44.99979766877118 -9.446583076124032, -44.81792832814825 -9.725983222076884 M-44.81792832814825 -9.725983222076884 C-44.67180072965893 -9.921780891554478, -44.52567313116962 -10.117578561032072, -44.16613520195651 -10.599326631598467 M-44.81792832814825 -9.725983222076884 C-44.58451357560647 -10.03873772596146, -44.35109882306469 -10.351492229846034, -44.16613520195651 -10.599326631598467 M-44.16613520195651 -10.599326631598467 C-44.02009884442822 -10.770869246855343, -43.87406248689993 -10.942411862112218, -43.45972595028037 -11.42911513444238 M-44.16613520195651 -10.599326631598467 C-43.98274306465655 -10.814749471379224, -43.799350927356606 -11.030172311159982, -43.45972595028037 -11.42911513444238 M-43.45972595028037 -11.42911513444238 C-43.28948493613008 -11.604902958599757, -43.11924392197979 -11.780690782757132, -42.70160336025928 -12.21193895166136 M-43.45972595028037 -11.42911513444238 C-43.191112214058464 -11.706480870689386, -42.922498477836555 -11.98384660693639, -42.70160336025928 -12.21193895166136 M-42.70160336025928 -12.21193895166136 C-42.433706662808 -12.455235644128416, -42.16580996535672 -12.698532336595473, -41.89488272023242 -12.944581292275274 M-42.70160336025928 -12.21193895166136 C-42.41542629923104 -12.471837386657096, -42.129249238202796 -12.731735821652835, -41.89488272023242 -12.944581292275274 M-41.89488272023242 -12.944581292275274 C-41.6185130145414 -13.16497877805712, -41.34214330885038 -13.38537626383897, -41.042879018350675 -13.624031571755259 M-41.89488272023242 -12.944581292275274 C-41.56733658076991 -13.205790622127786, -41.239790441307406 -13.4669999519803, -41.042879018350675 -13.624031571755259 M-41.042879018350675 -13.624031571755259 C-40.77419557053782 -13.811453513830513, -40.505512122724966 -13.998875455905766, -40.14909332057934 -14.247497783161284 M-41.042879018350675 -13.624031571755259 C-40.79889133825932 -13.794226815330552, -40.55490365816795 -13.964422058905845, -40.14909332057934 -14.247497783161284 M-40.14909332057934 -14.247497783161284 C-39.855308614243185 -14.42559179861283, -39.56152390790703 -14.603685814064377, -39.21719838406695 -14.812417970097618 M-40.14909332057934 -14.247497783161284 C-39.9185760439473 -14.38723871092551, -39.68805876731526 -14.526979638689737, -39.21719838406695 -14.812417970097618 M-39.21719838406695 -14.812417970097618 C-38.90838649103948 -14.973524936886589, -38.59957459801202 -15.134631903675558, -38.25102356499849 -15.316470754341124 M-39.21719838406695 -14.812417970097618 C-38.95310489136561 -14.95019537607995, -38.68901139866428 -15.08797278206228, -38.25102356499849 -15.316470754341124 M-38.25102356499849 -15.316470754341124 C-37.99434770779583 -15.430093542305963, -37.73767185059317 -15.543716330270803, -37.25453908294937 -15.757584874882365 M-38.25102356499849 -15.316470754341124 C-38.01123984965898 -15.422615892190734, -37.771456134319465 -15.528761030040345, -37.25453908294937 -15.757584874882365 M-37.25453908294937 -15.757584874882365 C-36.97600614070577 -15.860087572358303, -36.69747319846217 -15.962590269834243, -36.231839706401566 -16.133947699181363 M-37.25453908294937 -15.757584874882365 C-36.864187187728064 -15.90123798069717, -36.47383529250676 -16.044891086511974, -36.231839706401566 -16.133947699181363 M-36.231839706401566 -16.133947699181363 C-35.90726051955181 -16.23028109808745, -35.58268133270206 -16.326614496993535, -35.18712792646164 -16.444012671663494 M-36.231839706401566 -16.133947699181363 C-35.97391731400713 -16.210497711381766, -35.7159949216127 -16.287047723582166, -35.18712792646164 -16.444012671663494 M-35.18712792646164 -16.444012671663494 C-34.93958578180644 -16.500512550817586, -34.692043637151244 -16.557012429971678, -34.12469668792333 -16.68650566884811 M-35.18712792646164 -16.444012671663494 C-34.89327263937565 -16.511083223355914, -34.59941735228967 -16.578153775048335, -34.12469668792333 -16.68650566884811 M-34.12469668792333 -16.68650566884811 C-33.82002664767207 -16.735762358204482, -33.51535660742082 -16.785019047560855, -33.04891174863661 -16.86043023499518 M-34.12469668792333 -16.68650566884811 C-33.90084097346484 -16.722696924734766, -33.676985259006344 -16.758888180621422, -33.04891174863661 -16.86043023499518 M-33.04891174863661 -16.86043023499518 C-32.65955243717963 -16.897991259498355, -32.27019312572264 -16.935552284001528, -31.96419373967212 -16.965071676755716 M-33.04891174863661 -16.86043023499518 C-32.61954207113524 -16.90185101139115, -32.19017239363387 -16.94327178778712, -31.96419373967212 -16.965071676755716 M-31.96419373967212 -16.965071676755716 C-31.59523982824299 -16.976903310570027, -31.226285916813858 -16.988734944384337, -30.875000000000004 -17 M-31.96419373967212 -16.965071676755716 C-31.67909130226578 -16.97421435700511, -31.39398886485944 -16.9833570372545, -30.875000000000004 -17 M-30.875000000000004 -17 C-30.875000000000004 -17, -30.875000000000004 -17, -30.875 -17 M-30.875000000000004 -17 C-30.875000000000004 -17, -30.875 -17, -30.875 -17" stroke="#555555" stroke-width="1.3" fill="none" stroke-dasharray="0 0" style=""></path></g><g class="label" style="" transform="translate(0, -9.5)"><rect></rect><g><rect class="background" style="stroke: none"></rect><text y="-10.1" style=""><tspan class="text-outer-tspan row" x="0" y="-0.1em" dy="1.1em"><tspan font-style="normal" class="text-inner-tspan" font-weight="normal">Start</tspan><tspan font-style="normal" class="text-inner-tspan" font-weight="normal"> here</tspan></tspan></text></g></g></g><g class="node default" id="g79bc4871-3fb9-4c11-8b86-b9f3590e6b63-dark-flowchart-docsQ-1" data-look="classic" transform="translate(280.4421844482422, 227.15000915527344)"><polygon points="135.1500015258789,0 270.3000030517578,-135.1500015258789 135.1500015258789,-270.3000030517578 0,-135.1500015258789" class="label-container" transform="translate(-134.6500015258789, 135.1500015258789)"></polygon><g class="label" style="" transform="translate(0, -35.900001525878906)"><rect></rect><g><rect class="background" style="stroke: none"></rect><text y="-10.1" style=""><tspan class="text-outer-tspan row" x="0" y="-0.1em" dy="1.1em"><tspan font-style="normal" class="text-inner-tspan" font-weight="normal">Need</tspan><tspan font-style="normal" class="text-inner-tspan" font-weight="normal"> built-in</tspan><tspan font-style="normal" class="text-inner-tspan" font-weight="normal"> docs</tspan></tspan><tspan class="text-outer-tspan row" x="0" y="1em" dy="1.1em"><tspan font-style="normal" class="text-inner-tspan" font-weight="normal">navigation,</tspan></tspan><tspan class="text-outer-tspan row" x="0" y="2.1em" dy="1.1em"><tspan font-style="normal" class="text-inner-tspan" font-weight="normal">search,</tspan><tspan font-style="normal" class="text-inner-tspan" font-weight="normal"> and</tspan><tspan font-style="normal" class="text-inner-tspan" font-weight="normal"> the</tspan><tspan font-style="normal" class="text-inner-tspan" font-weight="normal"> default</tspan></tspan><tspan class="text-outer-tspan row" x="0" y="3.2em" dy="1.1em"><tspan font-style="normal" class="text-inner-tspan" font-weight="normal">theme?</tspan></tspan></text></g></g></g><g class="node default" id="g79bc4871-3fb9-4c11-8b86-b9f3590e6b63-dark-flowchart-docs-3" data-look="classic" transform="translate(124.9296875, 579.3953247070312)"><rect class="basic label-container" style="" x="-116.9296875" y="-50.900001525878906" width="233.859375" height="101.80000305175781"></rect><g class="label" style="" transform="translate(0, -35.900001525878906)"><rect></rect><g><rect class="background" style="stroke: none"></rect><text y="-10.1" style=""><tspan class="text-outer-tspan row" x="0" y="-0.1em" dy="1.1em"><tspan font-style="normal" class="text-inner-tspan" font-weight="normal">@pagesmith/docs</tspan></tspan><tspan class="text-outer-tspan row" x="0" y="1em" dy="1.1em"><tspan font-style="normal" class="text-inner-tspan" font-weight="normal">Docs</tspan><tspan font-style="normal" class="text-inner-tspan" font-weight="normal"> preset</tspan><tspan font-style="normal" class="text-inner-tspan" font-weight="normal"> with</tspan><tspan font-style="normal" class="text-inner-tspan" font-weight="normal"> config,</tspan></tspan><tspan class="text-outer-tspan row" x="0" y="2.1em" dy="1.1em"><tspan font-style="normal" class="text-inner-tspan" font-weight="normal">navigation,</tspan><tspan font-style="normal" class="text-inner-tspan" font-weight="normal"> search,</tspan><tspan font-style="normal" class="text-inner-tspan" font-weight="normal"> and</tspan></tspan><tspan class="text-outer-tspan row" x="0" y="3.2em" dy="1.1em"><tspan font-style="normal" class="text-inner-tspan" font-weight="normal">theme</tspan></tspan></text></g></g></g><g class="node default" id="g79bc4871-3fb9-4c11-8b86-b9f3590e6b63-dark-flowchart-hostQ-5" data-look="classic" transform="translate(435.9546813964844, 579.3953247070312)"><polygon points="144.0953140258789,0 288.1906280517578,-144.0953140258789 144.0953140258789,-288.1906280517578 0,-144.0953140258789" class="label-container" transform="translate(-143.5953140258789, 144.0953140258789)"></polygon><g class="label" style="" transform="translate(0, -35.900001525878906)"><rect></rect><g><rect class="background" style="stroke: none"></rect><text y="-10.1" style=""><tspan class="text-outer-tspan row" x="0" y="-0.1em" dy="1.1em"><tspan font-style="normal" class="text-inner-tspan" font-weight="normal">Does</tspan><tspan font-style="normal" class="text-inner-tspan" font-weight="normal"> the</tspan><tspan font-style="normal" class="text-inner-tspan" font-weight="normal"> host</tspan><tspan font-style="normal" class="text-inner-tspan" font-weight="normal"> app</tspan><tspan font-style="normal" class="text-inner-tspan" font-weight="normal"> already</tspan></tspan><tspan class="text-outer-tspan row" x="0" y="1em" dy="1.1em"><tspan font-style="normal" class="text-inner-tspan" font-weight="normal">own</tspan></tspan><tspan class="text-outer-tspan row" x="0" y="2.1em" dy="1.1em"><tspan font-style="normal" class="text-inner-tspan" font-weight="normal">routing,</tspan><tspan font-style="normal" class="text-inner-tspan" font-weight="normal"> layout,</tspan><tspan font-style="normal" class="text-inner-tspan" font-weight="normal"> and</tspan><tspan font-style="normal" class="text-inner-tspan" font-weight="normal"> build</tspan></tspan><tspan class="text-outer-tspan row" x="0" y="3.2em" dy="1.1em"><tspan font-style="normal" class="text-inner-tspan" font-weight="normal">tooling?</tspan></tspan></text></g></g></g><g class="node default" id="g79bc4871-3fb9-4c11-8b86-b9f3590e6b63-dark-flowchart-core-7" data-look="classic" transform="translate(563.1460876464844, 856.1906318664551)"><rect class="basic label-container" style="" x="-111.96875" y="-59.70000076293945" width="223.9375" height="119.4000015258789"></rect><g class="label" style="" transform="translate(0, -44.70000076293945)"><rect></rect><g><rect class="background" style="stroke: none"></rect><text y="-10.1" style=""><tspan class="text-outer-tspan row" x="0" y="-0.1em" dy="1.1em"><tspan font-style="normal" class="text-inner-tspan" font-weight="normal">@pagesmith/core</tspan></tspan><tspan class="text-outer-tspan row" x="0" y="1em" dy="1.1em"><tspan font-style="normal" class="text-inner-tspan" font-weight="normal">Headless</tspan><tspan font-style="normal" class="text-inner-tspan" font-weight="normal"> content</tspan><tspan font-style="normal" class="text-inner-tspan" font-weight="normal"> layer</tspan></tspan><tspan class="text-outer-tspan row" x="0" y="2.1em" dy="1.1em"><tspan font-style="normal" class="text-inner-tspan" font-weight="normal">with</tspan></tspan><tspan class="text-outer-tspan row" x="0" y="3.2em" dy="1.1em"><tspan font-style="normal" class="text-inner-tspan" font-weight="normal">schemas,</tspan><tspan font-style="normal" class="text-inner-tspan" font-weight="normal"> loaders,</tspan><tspan font-style="normal" class="text-inner-tspan" font-weight="normal"> and</tspan></tspan><tspan class="text-outer-tspan row" x="0" y="4.300000000000001em" dy="1.1em"><tspan font-style="normal" class="text-inner-tspan" font-weight="normal">markdown</tspan></tspan></text></g></g></g><g class="node default" id="g79bc4871-3fb9-4c11-8b86-b9f3590e6b63-dark-flowchart-site-9" data-look="classic" transform="translate(286.3999938964844, 1392.0843887329102)"><rect class="basic label-container" style="" x="-127.6171875" y="-68.5" width="255.234375" height="137"></rect><g class="label" style="" transform="translate(0, -53.5)"><rect></rect><g><rect class="background" style="stroke: none"></rect><text y="-10.1" style=""><tspan class="text-outer-tspan row" x="0" y="-0.1em" dy="1.1em"><tspan font-style="normal" class="text-inner-tspan" font-weight="normal">@pagesmith/site</tspan><tspan font-style="normal" class="text-inner-tspan" font-weight="normal"> +</tspan></tspan><tspan class="text-outer-tspan row" x="0" y="1em" dy="1.1em"><tspan font-style="normal" class="text-inner-tspan" font-weight="normal">@pagesmith/core</tspan></tspan><tspan class="text-outer-tspan row" x="0" y="2.1em" dy="1.1em"><tspan font-style="normal" class="text-inner-tspan" font-weight="normal">Custom</tspan><tspan font-style="normal" class="text-inner-tspan" font-weight="normal"> site</tspan><tspan font-style="normal" class="text-inner-tspan" font-weight="normal"> shell</tspan><tspan font-style="normal" class="text-inner-tspan" font-weight="normal"> with</tspan></tspan><tspan class="text-outer-tspan row" x="0" y="3.2em" dy="1.1em"><tspan font-style="normal" class="text-inner-tspan" font-weight="normal">shared</tspan></tspan><tspan class="text-outer-tspan row" x="0" y="4.300000000000001em" dy="1.1em"><tspan font-style="normal" class="text-inner-tspan" font-weight="normal">JSX,</tspan><tspan font-style="normal" class="text-inner-tspan" font-weight="normal"> CSS/runtime,</tspan><tspan font-style="normal" class="text-inner-tspan" font-weight="normal"> and</tspan><tspan font-style="normal" class="text-inner-tspan" font-weight="normal"> Vite</tspan></tspan><tspan class="text-outer-tspan row" x="0" y="5.4em" dy="1.1em"><tspan font-style="normal" class="text-inner-tspan" font-weight="normal">SSG</tspan></tspan></text></g></g></g><g class="node default" id="g79bc4871-3fb9-4c11-8b86-b9f3590e6b63-dark-flowchart-siteQ-11" data-look="classic" transform="translate(563.1460876464844, 1119.7375106811523)"><polygon points="130.84687423706055,0 261.6937484741211,-130.84687423706055 130.84687423706055,-261.6937484741211 0,-130.84687423706055" class="label-container" transform="translate(-130.34687423706055, 130.84687423706055)"></polygon><g class="label" style="" transform="translate(0, -18.299999237060547)"><rect></rect><g><rect class="background" style="stroke: none"></rect><text y="-10.1" style=""><tspan class="text-outer-tspan row" x="0" y="-0.1em" dy="1.1em"><tspan font-style="normal" class="text-inner-tspan" font-weight="normal">Need</tspan><tspan font-style="normal" class="text-inner-tspan" font-weight="normal"> the</tspan><tspan font-style="normal" class="text-inner-tspan" font-weight="normal"> shared</tspan><tspan font-style="normal" class="text-inner-tspan" font-weight="normal"> Pagesmith</tspan></tspan><tspan class="text-outer-tspan row" x="0" y="1em" dy="1.1em"><tspan font-style="normal" class="text-inner-tspan" font-weight="normal">site</tspan><tspan font-style="normal" class="text-inner-tspan" font-weight="normal"> layer</tspan><tspan font-style="normal" class="text-inner-tspan" font-weight="normal"> too?</tspan></tspan></text></g></g></g><g class="node default" id="g79bc4871-3fb9-4c11-8b86-b9f3590e6b63-dark-flowchart-coreOnly-15" data-look="classic" transform="translate(585.5093688964844, 1392.0843887329102)"><rect class="basic label-container" style="" x="-121.4921875" y="-24.5" width="242.984375" height="49"></rect><g class="label" style="" transform="translate(0, -9.5)"><rect></rect><g><rect class="background" style="stroke: none"></rect><text y="-10.1" style=""><tspan class="text-outer-tspan row" x="0" y="-0.1em" dy="1.1em"><tspan font-style="normal" class="text-inner-tspan" font-weight="normal">Stay</tspan><tspan font-style="normal" class="text-inner-tspan" font-weight="normal"> on</tspan><tspan font-style="normal" class="text-inner-tspan" font-weight="normal"> @pagesmith/core</tspan></tspan></text></g></g></g></g></g></g><defs><filter id="g79bc4871-3fb9-4c11-8b86-b9f3590e6b63-dark-drop-shadow" height="130%" width="130%"><feDropShadow dx="4" dy="4" stdDeviation="0" flood-opacity="0.06" flood-color="#000000"></feDropShadow></filter></defs><defs><filter id="g79bc4871-3fb9-4c11-8b86-b9f3590e6b63-dark-drop-shadow-small" height="150%" width="150%"><feDropShadow dx="2" dy="2" stdDeviation="0" flood-opacity="0.06" flood-color="#000000"></feDropShadow></filter></defs><linearGradient id="g79bc4871-3fb9-4c11-8b86-b9f3590e6b63-dark-gradient" gradientUnits="objectBoundingBox" x1="0%" y1="0%" x2="100%" y2="0%"><stop offset="0%" stop-color="#555555" stop-opacity="1"></stop><stop offset="100%" stop-color="#555555" stop-opacity="1"></stop></linearGradient></svg>