<svg id="gefcc066a-6de6-4a64-9479-ad379e1bdbc6-light" width="100%" xmlns="http://www.w3.org/2000/svg" xmlns:xlink="http://www.w3.org/1999/xlink" class="flowchart" style="max-width: 653.48828125px;" viewBox="0 0 653.48828125 609.800048828125" role="graphics-document document" aria-roledescription="flowchart-v2"><style>#gefcc066a-6de6-4a64-9479-ad379e1bdbc6-light{font-family:"trebuchet ms",verdana,arial,sans-serif;font-size:16px;fill:#333;}@keyframes edge-animation-frame{from{stroke-dashoffset:0;}}@keyframes dash{to{stroke-dashoffset:0;}}#gefcc066a-6de6-4a64-9479-ad379e1bdbc6-light .edge-animation-slow{stroke-dasharray:9,5!important;stroke-dashoffset:900;animation:dash 50s linear infinite;stroke-linecap:round;}#gefcc066a-6de6-4a64-9479-ad379e1bdbc6-light .edge-animation-fast{stroke-dasharray:9,5!important;stroke-dashoffset:900;animation:dash 20s linear infinite;stroke-linecap:round;}#gefcc066a-6de6-4a64-9479-ad379e1bdbc6-light .error-icon{fill:#552222;}#gefcc066a-6de6-4a64-9479-ad379e1bdbc6-light .error-text{fill:#552222;stroke:#552222;}#gefcc066a-6de6-4a64-9479-ad379e1bdbc6-light .edge-thickness-normal{stroke-width:1px;}#gefcc066a-6de6-4a64-9479-ad379e1bdbc6-light .edge-thickness-thick{stroke-width:3.5px;}#gefcc066a-6de6-4a64-9479-ad379e1bdbc6-light .edge-pattern-solid{stroke-dasharray:0;}#gefcc066a-6de6-4a64-9479-ad379e1bdbc6-light .edge-thickness-invisible{stroke-width:0;fill:none;}#gefcc066a-6de6-4a64-9479-ad379e1bdbc6-light .edge-pattern-dashed{stroke-dasharray:3;}#gefcc066a-6de6-4a64-9479-ad379e1bdbc6-light .edge-pattern-dotted{stroke-dasharray:2;}#gefcc066a-6de6-4a64-9479-ad379e1bdbc6-light .marker{fill:#333333;stroke:#333333;}#gefcc066a-6de6-4a64-9479-ad379e1bdbc6-light .marker.cross{stroke:#333333;}#gefcc066a-6de6-4a64-9479-ad379e1bdbc6-light svg{font-family:"trebuchet ms",verdana,arial,sans-serif;font-size:16px;}#gefcc066a-6de6-4a64-9479-ad379e1bdbc6-light p{margin:0;}#gefcc066a-6de6-4a64-9479-ad379e1bdbc6-light .label{font-family:"trebuchet ms",verdana,arial,sans-serif;color:#333;}#gefcc066a-6de6-4a64-9479-ad379e1bdbc6-light .cluster-label text{fill:#333;}#gefcc066a-6de6-4a64-9479-ad379e1bdbc6-light .cluster-label span{color:#333;}#gefcc066a-6de6-4a64-9479-ad379e1bdbc6-light .cluster-label span p{background-color:transparent;}#gefcc066a-6de6-4a64-9479-ad379e1bdbc6-light .label text,#gefcc066a-6de6-4a64-9479-ad379e1bdbc6-light span{fill:#333;color:#333;}#gefcc066a-6de6-4a64-9479-ad379e1bdbc6-light .node rect,#gefcc066a-6de6-4a64-9479-ad379e1bdbc6-light .node circle,#gefcc066a-6de6-4a64-9479-ad379e1bdbc6-light .node ellipse,#gefcc066a-6de6-4a64-9479-ad379e1bdbc6-light .node polygon,#gefcc066a-6de6-4a64-9479-ad379e1bdbc6-light .node path{fill:#ECECFF;stroke:#9370DB;stroke-width:1px;}#gefcc066a-6de6-4a64-9479-ad379e1bdbc6-light .rough-node .label text,#gefcc066a-6de6-4a64-9479-ad379e1bdbc6-light .node .label text,#gefcc066a-6de6-4a64-9479-ad379e1bdbc6-light .image-shape .label,#gefcc066a-6de6-4a64-9479-ad379e1bdbc6-light .icon-shape .label{text-anchor:middle;}#gefcc066a-6de6-4a64-9479-ad379e1bdbc6-light .node .katex path{fill:#000;stroke:#000;stroke-width:1px;}#gefcc066a-6de6-4a64-9479-ad379e1bdbc6-light .rough-node .label,#gefcc066a-6de6-4a64-9479-ad379e1bdbc6-light .node .label,#gefcc066a-6de6-4a64-9479-ad379e1bdbc6-light .image-shape .label,#gefcc066a-6de6-4a64-9479-ad379e1bdbc6-light .icon-shape .label{text-align:center;}#gefcc066a-6de6-4a64-9479-ad379e1bdbc6-light .node.clickable{cursor:pointer;}#gefcc066a-6de6-4a64-9479-ad379e1bdbc6-light .root .anchor path{fill:#333333!important;stroke-width:0;stroke:#333333;}#gefcc066a-6de6-4a64-9479-ad379e1bdbc6-light .arrowheadPath{fill:#333333;}#gefcc066a-6de6-4a64-9479-ad379e1bdbc6-light .edgePath .path{stroke:#333333;stroke-width:1px;}#gefcc066a-6de6-4a64-9479-ad379e1bdbc6-light .flowchart-link{stroke:#333333;fill:none;}#gefcc066a-6de6-4a64-9479-ad379e1bdbc6-light .edgeLabel{background-color:rgba(232,232,232, 0.8);text-align:center;}#gefcc066a-6de6-4a64-9479-ad379e1bdbc6-light .edgeLabel p{background-color:rgba(232,232,232, 0.8);}#gefcc066a-6de6-4a64-9479-ad379e1bdbc6-light .edgeLabel rect{opacity:0.5;background-color:rgba(232,232,232, 0.8);fill:rgba(232,232,232, 0.8);}#gefcc066a-6de6-4a64-9479-ad379e1bdbc6-light .labelBkg{background-color:rgba(232, 232, 232, 0.5);}#gefcc066a-6de6-4a64-9479-ad379e1bdbc6-light .cluster rect{fill:#ffffde;stroke:#aaaa33;stroke-width:1px;}#gefcc066a-6de6-4a64-9479-ad379e1bdbc6-light .cluster text{fill:#333;}#gefcc066a-6de6-4a64-9479-ad379e1bdbc6-light .cluster span{color:#333;}#gefcc066a-6de6-4a64-9479-ad379e1bdbc6-light div.mermaidTooltip{position:absolute;text-align:center;max-width:200px;padding:2px;font-family:"trebuchet ms",verdana,arial,sans-serif;font-size:12px;background:hsl(80, 100%, 96.2745098039%);border:1px solid #aaaa33;border-radius:2px;pointer-events:none;z-index:100;}#gefcc066a-6de6-4a64-9479-ad379e1bdbc6-light .flowchartTitleText{text-anchor:middle;font-size:18px;fill:#333;}#gefcc066a-6de6-4a64-9479-ad379e1bdbc6-light rect.text{fill:none;stroke-width:0;}#gefcc066a-6de6-4a64-9479-ad379e1bdbc6-light .icon-shape,#gefcc066a-6de6-4a64-9479-ad379e1bdbc6-light .image-shape{background-color:rgba(232,232,232, 0.8);text-align:center;}#gefcc066a-6de6-4a64-9479-ad379e1bdbc6-light .icon-shape p,#gefcc066a-6de6-4a64-9479-ad379e1bdbc6-light .image-shape p{background-color:rgba(232,232,232, 0.8);padding:2px;}#gefcc066a-6de6-4a64-9479-ad379e1bdbc6-light .icon-shape .label rect,#gefcc066a-6de6-4a64-9479-ad379e1bdbc6-light .image-shape .label rect{opacity:0.5;background-color:rgba(232,232,232, 0.8);fill:rgba(232,232,232, 0.8);}#gefcc066a-6de6-4a64-9479-ad379e1bdbc6-light .label-icon{display:inline-block;height:1em;overflow:visible;vertical-align:-0.125em;}#gefcc066a-6de6-4a64-9479-ad379e1bdbc6-light .node .label-icon path{fill:currentColor;stroke:revert;stroke-width:revert;}#gefcc066a-6de6-4a64-9479-ad379e1bdbc6-light .node .neo-node{stroke:#9370DB;}#gefcc066a-6de6-4a64-9479-ad379e1bdbc6-light [data-look="neo"].node rect,#gefcc066a-6de6-4a64-9479-ad379e1bdbc6-light [data-look="neo"].cluster rect,#gefcc066a-6de6-4a64-9479-ad379e1bdbc6-light [data-look="neo"].node polygon{stroke:#9370DB;filter:drop-shadow(1px 2px 2px rgba(185, 185, 185, 1));}#gefcc066a-6de6-4a64-9479-ad379e1bdbc6-light [data-look="neo"].node path{stroke:#9370DB;stroke-width:1px;}#gefcc066a-6de6-4a64-9479-ad379e1bdbc6-light [data-look="neo"].node .outer-path{filter:drop-shadow(1px 2px 2px rgba(185, 185, 185, 1));}#gefcc066a-6de6-4a64-9479-ad379e1bdbc6-light [data-look="neo"].node .neo-line path{stroke:#9370DB;filter:none;}#gefcc066a-6de6-4a64-9479-ad379e1bdbc6-light [data-look="neo"].node circle{stroke:#9370DB;filter:drop-shadow(1px 2px 2px rgba(185, 185, 185, 1));}#gefcc066a-6de6-4a64-9479-ad379e1bdbc6-light [data-look="neo"].node circle .state-start{fill:#000000;}#gefcc066a-6de6-4a64-9479-ad379e1bdbc6-light [data-look="neo"].icon-shape .icon{fill:#9370DB;filter:drop-shadow(1px 2px 2px rgba(185, 185, 185, 1));}#gefcc066a-6de6-4a64-9479-ad379e1bdbc6-light [data-look="neo"].icon-shape .icon-neo path{stroke:#9370DB;filter:drop-shadow(1px 2px 2px rgba(185, 185, 185, 1));}#gefcc066a-6de6-4a64-9479-ad379e1bdbc6-light :root{--mermaid-font-family:"trebuchet ms",verdana,arial,sans-serif;}</style><g><marker id="gefcc066a-6de6-4a64-9479-ad379e1bdbc6-light_flowchart-v2-pointEnd" class="marker flowchart-v2" viewBox="0 0 10 10" refX="5" refY="5" markerUnits="userSpaceOnUse" markerWidth="8" markerHeight="8" orient="auto"><path d="M 0 0 L 10 5 L 0 10 z" class="arrowMarkerPath" style="stroke-width: 1; stroke-dasharray: 1, 0;"></path></marker><marker id="gefcc066a-6de6-4a64-9479-ad379e1bdbc6-light_flowchart-v2-pointStart" class="marker flowchart-v2" viewBox="0 0 10 10" refX="4.5" refY="5" markerUnits="userSpaceOnUse" markerWidth="8" markerHeight="8" orient="auto"><path d="M 0 5 L 10 10 L 10 0 z" class="arrowMarkerPath" style="stroke-width: 1; stroke-dasharray: 1, 0;"></path></marker><marker id="gefcc066a-6de6-4a64-9479-ad379e1bdbc6-light_flowchart-v2-pointEnd-margin" class="marker flowchart-v2" viewBox="0 0 11.5 14" refX="11.5" refY="7" markerUnits="userSpaceOnUse" markerWidth="10.5" markerHeight="14" orient="auto"><path d="M 0 0 L 11.5 7 L 0 14 z" class="arrowMarkerPath" style="stroke-width: 0; stroke-dasharray: 1, 0;"></path></marker><marker id="gefcc066a-6de6-4a64-9479-ad379e1bdbc6-light_flowchart-v2-pointStart-margin" class="marker flowchart-v2" viewBox="0 0 11.5 14" refX="1" refY="7" markerUnits="userSpaceOnUse" markerWidth="11.5" markerHeight="14" orient="auto"><polygon points="0,7 11.5,14 11.5,0" class="arrowMarkerPath" style="stroke-width: 0; stroke-dasharray: 1, 0;"></polygon></marker><marker id="gefcc066a-6de6-4a64-9479-ad379e1bdbc6-light_flowchart-v2-circleEnd" class="marker flowchart-v2" viewBox="0 0 10 10" refX="11" refY="5" markerUnits="userSpaceOnUse" markerWidth="11" markerHeight="11" orient="auto"><circle cx="5" cy="5" r="5" class="arrowMarkerPath" style="stroke-width: 1; stroke-dasharray: 1, 0;"></circle></marker><marker id="gefcc066a-6de6-4a64-9479-ad379e1bdbc6-light_flowchart-v2-circleStart" class="marker flowchart-v2" viewBox="0 0 10 10" refX="-1" refY="5" markerUnits="userSpaceOnUse" markerWidth="11" markerHeight="11" orient="auto"><circle cx="5" cy="5" r="5" class="arrowMarkerPath" style="stroke-width: 1; stroke-dasharray: 1, 0;"></circle></marker><marker id="gefcc066a-6de6-4a64-9479-ad379e1bdbc6-light_flowchart-v2-circleEnd-margin" class="marker flowchart-v2" viewBox="0 0 10 10" refY="5" refX="12.25" markerUnits="userSpaceOnUse" markerWidth="14" markerHeight="14" orient="auto"><circle cx="5" cy="5" r="5" class="arrowMarkerPath" style="stroke-width: 0; stroke-dasharray: 1, 0;"></circle></marker><marker id="gefcc066a-6de6-4a64-9479-ad379e1bdbc6-light_flowchart-v2-circleStart-margin" class="marker flowchart-v2" viewBox="0 0 10 10" refX="-2" refY="5" markerUnits="userSpaceOnUse" markerWidth="14" markerHeight="14" orient="auto"><circle cx="5" cy="5" r="5" class="arrowMarkerPath" style="stroke-width: 0; stroke-dasharray: 1, 0;"></circle></marker><marker id="gefcc066a-6de6-4a64-9479-ad379e1bdbc6-light_flowchart-v2-crossEnd" class="marker cross flowchart-v2" viewBox="0 0 11 11" refX="12" refY="5.2" markerUnits="userSpaceOnUse" markerWidth="11" markerHeight="11" orient="auto"><path d="M 1,1 l 9,9 M 10,1 l -9,9" class="arrowMarkerPath" style="stroke-width: 2; stroke-dasharray: 1, 0;"></path></marker><marker id="gefcc066a-6de6-4a64-9479-ad379e1bdbc6-light_flowchart-v2-crossStart" class="marker cross flowchart-v2" viewBox="0 0 11 11" refX="-1" refY="5.2" markerUnits="userSpaceOnUse" markerWidth="11" markerHeight="11" orient="auto"><path d="M 1,1 l 9,9 M 10,1 l -9,9" class="arrowMarkerPath" style="stroke-width: 2; stroke-dasharray: 1, 0;"></path></marker><marker id="gefcc066a-6de6-4a64-9479-ad379e1bdbc6-light_flowchart-v2-crossEnd-margin" class="marker cross flowchart-v2" viewBox="0 0 15 15" refX="17.7" refY="7.5" markerUnits="userSpaceOnUse" markerWidth="12" markerHeight="12" orient="auto"><path d="M 1,1 L 14,14 M 1,14 L 14,1" class="arrowMarkerPath" style="stroke-width: 2.5;"></path></marker><marker id="gefcc066a-6de6-4a64-9479-ad379e1bdbc6-light_flowchart-v2-crossStart-margin" class="marker cross flowchart-v2" viewBox="0 0 15 15" refX="-3.5" refY="7.5" markerUnits="userSpaceOnUse" markerWidth="12" markerHeight="12" orient="auto"><path d="M 1,1 L 14,14 M 1,14 L 14,1" class="arrowMarkerPath" style="stroke-width: 2.5; stroke-dasharray: 1, 0;"></path></marker><g class="root"><g class="clusters"></g><g class="edgePaths"><path d="M203.574,42.5L203.491,46.583C203.408,50.667,203.241,58.833,203.158,66.417C203.074,74,203.074,81,203.074,84.5L203.074,88" id="gefcc066a-6de6-4a64-9479-ad379e1bdbc6-light-L_start_init_0" class="edge-thickness-normal edge-pattern-solid edge-thickness-normal edge-pattern-solid flowchart-link" style=";" data-edge="true" data-et="edge" data-id="L_start_init_0" data-points="W3sieCI6MjAzLjU3NDIxODc1LCJ5Ijo0Mi41fSx7IngiOjIwMy4wNzQyMTg3NSwieSI6Njd9LHsieCI6MjAzLjA3NDIxODc1LCJ5Ijo5Mn1d" data-look="classic" marker-end="url(#gefcc066a-6de6-4a64-9479-ad379e1bdbc6-light_flowchart-v2-pointEnd)"></path><path d="M139.96,42.5L124.285,46.583C108.61,50.667,77.26,58.833,61.585,74.1C45.91,89.367,45.91,111.733,45.91,136.017C45.91,160.3,45.91,186.5,52.987,206.679C60.064,226.857,74.218,241.014,81.295,248.093L88.372,255.171" id="gefcc066a-6de6-4a64-9479-ad379e1bdbc6-light-L_start_dev_0" class="edge-thickness-normal edge-pattern-solid edge-thickness-normal edge-pattern-solid flowchart-link" style=";" data-edge="true" data-et="edge" data-id="L_start_dev_0" data-points="W3sieCI6MTM5Ljk2MDE5MzQ1MjM4MDk2LCJ5Ijo0Mi41fSx7IngiOjQ1LjkxMDE1NjI1LCJ5Ijo2N30seyJ4Ijo0NS45MTAxNTYyNSwieSI6MTM0LjA5OTk5ODQ3NDEyMTF9LHsieCI6NDUuOTEwMTU2MjUsInkiOjIxMi42OTk5OTY5NDgyNDIyfSx7IngiOjkxLjE5OTgwMDMzMTE0NzM0LCJ5IjoyNTcuOTk5OTk2MTg1MzAyNzN9XQ==" data-look="classic" marker-end="url(#gefcc066a-6de6-4a64-9479-ad379e1bdbc6-light_flowchart-v2-pointEnd)"></path><path d="M203.074,176.2L203.074,182.283C203.074,188.367,203.074,200.533,195.997,213.695C188.92,226.857,174.767,241.014,167.69,248.093L160.613,255.171" id="gefcc066a-6de6-4a64-9479-ad379e1bdbc6-light-L_init_dev_0" class="edge-thickness-normal edge-pattern-solid edge-thickness-normal edge-pattern-solid flowchart-link" style=";" data-edge="true" data-et="edge" data-id="L_init_dev_0" data-points="W3sieCI6MjAzLjA3NDIxODc1LCJ5IjoxNzYuMTk5OTk2OTQ4MjQyMn0seyJ4IjoyMDMuMDc0MjE4NzUsInkiOjIxMi42OTk5OTY5NDgyNDIyfSx7IngiOjE1Ny43ODQ1NzQ2Njg4NTI2NiwieSI6MjU3Ljk5OTk5NjE4NTMwMjczfV0=" data-look="classic" marker-end="url(#gefcc066a-6de6-4a64-9479-ad379e1bdbc6-light_flowchart-v2-pointEnd)"></path><path d="M124.492,324.6L124.492,330.233C124.492,335.867,124.492,347.133,124.492,356.267C124.492,365.4,124.492,372.4,124.492,375.9L124.492,379.4" id="gefcc066a-6de6-4a64-9479-ad379e1bdbc6-light-L_dev_build_0" class="edge-thickness-normal edge-pattern-solid edge-thickness-normal edge-pattern-solid flowchart-link" style=";" data-edge="true" data-et="edge" data-id="L_dev_build_0" data-points="W3sieCI6MTI0LjQ5MjE4NzUsInkiOjMyNC41OTk5OTQ2NTk0MjM4fSx7IngiOjEyNC40OTIxODc1LCJ5IjozNTguMzk5OTkzODk2NDg0NH0seyJ4IjoxMjQuNDkyMTg3NSwieSI6MzgzLjM5OTk5Mzg5NjQ4NDR9XQ==" data-look="classic" marker-end="url(#gefcc066a-6de6-4a64-9479-ad379e1bdbc6-light_flowchart-v2-pointEnd)"></path><path d="M124.492,467.6L124.492,471.767C124.492,475.933,124.492,484.267,124.492,491.933C124.492,499.6,124.492,506.6,124.492,510.1L124.492,513.6" id="gefcc066a-6de6-4a64-9479-ad379e1bdbc6-light-L_build_preview_0" class="edge-thickness-normal edge-pattern-solid edge-thickness-normal edge-pattern-solid flowchart-link" style=";" data-edge="true" data-et="edge" data-id="L_build_preview_0" data-points="W3sieCI6MTI0LjQ5MjE4NzUsInkiOjQ2Ny41OTk5OTA4NDQ3MjY1Nn0seyJ4IjoxMjQuNDkyMTg3NSwieSI6NDkyLjU5OTk5MDg0NDcyNjU2fSx7IngiOjEyNC40OTIxODc1LCJ5Ijo1MTcuNTk5OTkwODQ0NzI2Nn1d" data-look="classic" marker-end="url(#gefcc066a-6de6-4a64-9479-ad379e1bdbc6-light_flowchart-v2-pointEnd)"></path><path d="M291.499,40.116L318.872,44.596C346.245,49.077,400.992,58.039,428.365,73.703C455.738,89.367,455.738,111.733,455.738,136.017C455.738,160.3,455.738,186.5,460.045,205.156C464.352,223.813,472.965,234.926,477.272,240.482L481.579,246.038" id="gefcc066a-6de6-4a64-9479-ad379e1bdbc6-light-L_start_mcp_0" class="edge-thickness-normal edge-pattern-dotted edge-thickness-normal edge-pattern-solid flowchart-link" style=";" data-edge="true" data-et="edge" data-id="L_start_mcp_0" data-points="W3sieCI6MjkxLjQ5ODkwMzUyMTg2ODQ0LCJ5Ijo0MC4xMTU1OTk1NTg4NzQ2NH0seyJ4Ijo0NTUuNzM4MjgxMjUsInkiOjY3fSx7IngiOjQ1NS43MzgyODEyNSwieSI6MTM0LjA5OTk5ODQ3NDEyMTF9LHsieCI6NDU1LjczODI4MTI1LCJ5IjoyMTIuNjk5OTk2OTQ4MjQyMn0seyJ4Ijo0ODQuMDI4OTc0Mzg4MjcxOSwieSI6MjQ5LjE5OTk5Njk0ODI0MjJ9XQ==" data-look="classic" marker-end="url(#gefcc066a-6de6-4a64-9479-ad379e1bdbc6-light_flowchart-v2-pointEnd)"></path><path d="M325.238,159.739L367.296,168.566C409.353,177.393,493.467,195.046,531.218,209.43C568.969,223.813,560.355,234.926,556.049,240.482L551.742,246.038" id="gefcc066a-6de6-4a64-9479-ad379e1bdbc6-light-L_init_mcp_0" class="edge-thickness-normal edge-pattern-dotted edge-thickness-normal edge-pattern-solid flowchart-link" style=";" data-edge="true" data-et="edge" data-id="L_init_mcp_0" data-points="W3sieCI6MzI1LjIzODI4MTI1LCJ5IjoxNTkuNzM5MjM2OTc3NTcwMDJ9LHsieCI6NTc3LjU4MjAzMTI1LCJ5IjoyMTIuNjk5OTk2OTQ4MjQyMn0seyJ4Ijo1NDkuMjkxMzM4MTExNzI4MSwieSI6MjQ5LjE5OTk5Njk0ODI0MjJ9XQ==" data-look="classic" marker-end="url(#gefcc066a-6de6-4a64-9479-ad379e1bdbc6-light_flowchart-v2-pointEnd)"></path></g><g class="edgeLabels"><g class="edgeLabel"><g class="label" data-id="L_start_init_0" transform="translate(0, 0)"><text y="-10.1" text-anchor="middle"><tspan class="text-outer-tspan row" x="0" y="-0.1em" dy="1.1em" text-anchor="middle"></tspan></text></g></g><g><rect class="background" style="stroke: none"></rect></g><g class="edgeLabel"><g class="label" data-id="L_start_dev_0" transform="translate(0, 0)"><text y="-10.1" text-anchor="middle"><tspan class="text-outer-tspan row" x="0" y="-0.1em" dy="1.1em" text-anchor="middle"></tspan></text></g></g><g><rect class="background" style="stroke: none"></rect></g><g class="edgeLabel"><g class="label" data-id="L_init_dev_0" transform="translate(0, 0)"><text y="-10.1" text-anchor="middle"><tspan class="text-outer-tspan row" x="0" y="-0.1em" dy="1.1em" text-anchor="middle"></tspan></text></g></g><g><rect class="background" style="stroke: none"></rect></g><g class="edgeLabel"><g class="label" data-id="L_dev_build_0" transform="translate(0, 0)"><text y="-10.1" text-anchor="middle"><tspan class="text-outer-tspan row" x="0" y="-0.1em" dy="1.1em" text-anchor="middle"></tspan></text></g></g><g><rect class="background" style="stroke: none"></rect></g><g class="edgeLabel"><g class="label" data-id="L_build_preview_0" transform="translate(0, 0)"><text y="-10.1" text-anchor="middle"><tspan class="text-outer-tspan row" x="0" y="-0.1em" dy="1.1em" text-anchor="middle"></tspan></text></g></g><g><rect class="background" style="stroke: none"></rect></g><g class="edgeLabel" transform="translate(455.73828125, 134.0999984741211)"><g class="label" data-id="L_start_mcp_0" transform="translate(0, -10.5)"><g><rect class="background" style="" x="-95.5" y="-1" width="191" height="23"></rect><text y="-10.1" text-anchor="middle" style=""><tspan class="text-outer-tspan row" x="0" y="-0.1em" dy="1.1em" text-anchor="middle"><tspan font-style="normal" class="text-inner-tspan" font-weight="normal">assistant</tspan><tspan font-style="normal" class="text-inner-tspan" font-weight="normal"> or</tspan><tspan font-style="normal" class="text-inner-tspan" font-weight="normal"> tooling</tspan><tspan font-style="normal" class="text-inner-tspan" font-weight="normal"> access</tspan></tspan></text></g></g></g><g class="edgeLabel" transform="translate(474.00794, 190.96234)"><g class="label" data-id="L_init_mcp_0" transform="translate(0, -10.5)"><g><rect class="background" style="" x="-101.84375" y="-1" width="203.6875" height="23"></rect><text y="-10.1" text-anchor="middle" style=""><tspan class="text-outer-tspan row" x="0" y="-0.1em" dy="1.1em" text-anchor="middle"><tspan font-style="normal" class="text-inner-tspan" font-weight="normal">project</tspan><tspan font-style="normal" class="text-inner-tspan" font-weight="normal"> metadata</tspan><tspan font-style="normal" class="text-inner-tspan" font-weight="normal"> +</tspan><tspan font-style="normal" class="text-inner-tspan" font-weight="normal"> content</tspan></tspan></text></g></g></g></g><g class="nodes"><g class="node default" id="gefcc066a-6de6-4a64-9479-ad379e1bdbc6-light-flowchart-start-0" data-look="classic" transform="translate(203.07421875, 25)"><g class="basic label-container outer-path"><path d="M-79.2578125 -17 C-46.683592981375575 -17, -14.109373462751151 -17, 79.2578125 -17 C79.2578125 -17, 79.2578125 -17, 79.2578125 -17 C79.64068311601432 -16.987722084556864, 80.02355373202863 -16.97544416911373, 80.34700623967211 -16.965071676755716 C80.75519170386241 -16.925694515940123, 81.1633771680527 -16.886317355124532, 81.4317242486366 -16.860430234995185 C81.75171263991875 -16.808696993439725, 82.0717010312009 -16.756963751884264, 82.50750918792333 -16.686505668848113 C82.73956873120842 -16.633539592423332, 82.97162827449351 -16.58057351599855, 83.56994042646163 -16.4440126716635 C83.87686110973644 -16.35292022392708, 84.18378179301125 -16.261827776190657, 84.61465220640156 -16.133947699181366 C85.01273067666398 -15.987451142327753, 85.4108091469264 -15.84095458547414, 85.63735158294936 -15.757584874882369 C85.91758160716317 -15.633535355891231, 86.19781163137698 -15.509485836900096, 86.63383606499849 -15.316470754341125 C86.83659177746598 -15.210693229018064, 87.03934748993349 -15.104915703695001, 87.60001088406693 -14.812417970097622 C87.7975550336391 -14.692665545728694, 87.99509918321127 -14.572913121359768, 88.53190582057933 -14.247497783161291 C88.76210263754203 -14.086922448707707, 88.99229945450473 -13.926347114254122, 89.42569151835067 -13.624031571755262 C89.6417061968435 -13.451765614049242, 89.85772087533634 -13.279499656343221, 90.2776952202324 -12.944581292275288 C90.54552593200023 -12.701344526260051, 90.81335664376807 -12.458107760244815, 91.08441586025927 -12.21193895166137 C91.2933958563652 -11.996149948105238, 91.50237585247112 -11.780360944549104, 91.84253845028036 -11.42911513444239 C92.0697392772267 -11.16223211501793, 92.29694010417303 -10.895349095593472, 92.54894770195651 -10.59932663159847 C92.76927728171668 -10.304105067157474, 92.98960686147686 -10.008883502716479, 93.20074082814824 -9.725983222076888 C93.37927273534257 -9.451710270096726, 93.55780464253691 -9.177437318116565, 93.79523947109088 -8.812673661278927 C93.91620479969043 -8.597887471282647, 94.03717012829 -8.383101281286368, 94.330000708341 -7.863150934094199 C94.48070736873431 -7.550205329181528, 94.63141402912763 -7.237259724268858, 94.80282709126881 -6.881316833080699 C94.9449898252526 -6.530172131611241, 95.0871525592364 -6.179027430141784, 95.21177567484592 -5.871205925162238 C95.3099651412941 -5.575474896587258, 95.40815460774229 -5.279743868012276, 95.55516600162323 -4.836968972727556 C95.6270272868321 -4.5629307473481004, 95.69888857204099 -4.288892521968645, 95.831587007091 -3.7828558772573464 C95.91046153392746 -3.377851852089271, 95.98933606076392 -2.9728478269211953, 96.03990281804565 -2.713198215567453 C96.08208685807763 -2.386027131260278, 96.12427089810961 -2.058856046953103, 96.17925742013637 -1.632391440430593 C96.20027011495148 -1.3051017575433186, 96.22128280976659 -0.977812074656044, 96.2490781754117 -0.5448768187181379 C96.2490781754117 -0.11956499900686884, 96.2490781754117 0.3057468207044002, 96.2490781754117 0.5448768187181336 C96.22866438968822 0.8628380090724252, 96.20825060396476 1.1807991994267169, 96.17925742013637 1.6323914404305815 C96.14004453429186 1.9365188395803736, 96.10083164844737 2.2406462387301658, 96.03990281804565 2.7131982155674415 C95.9958065392195 2.939623287587883, 95.95171026039336 3.166048359608325, 95.831587007091 3.782855877257343 C95.76630908579408 4.0317888827925765, 95.70103116449715 4.280721888327809, 95.55516600162323 4.836968972727545 C95.42524582326064 5.228267849986366, 95.29532564489804 5.619566727245188, 95.21177567484592 5.871205925162227 C95.10937976062351 6.124125812981913, 95.0069838464011 6.377045700801599, 94.80282709126881 6.881316833080694 C94.64784654143561 7.203137260861869, 94.49286599160243 7.5249576886430445, 94.330000708341 7.863150934094196 C94.14476120085476 8.192062437170152, 93.95952169336852 8.52097394024611, 93.79523947109088 8.812673661278923 C93.5925081339835 9.124123436062334, 93.38977679687612 9.435573210845744, 93.20074082814826 9.725983222076879 C92.97173328469036 10.032832467294057, 92.74272574123246 10.339681712511236, 92.54894770195651 10.599326631598467 C92.27100443338274 10.925814610285224, 91.99306116480898 11.252302588971979, 91.84253845028037 11.42911513444238 C91.59348640518698 11.686281818554482, 91.34443436009359 11.943448502666582, 91.08441586025927 12.211938951661365 C90.88967844583279 12.388794318973863, 90.6949410314063 12.565649686286362, 90.27769522023242 12.944581292275275 C90.05750626919772 13.120176121251385, 89.837317318163 13.295770950227494, 89.42569151835067 13.62403157175526 C89.175370522869 13.798644661982031, 88.92504952738733 13.973257752208802, 88.53190582057934 14.247497783161286 C88.18587733530539 14.457262284423445, 87.83984885003144 14.667026785685604, 87.60001088406695 14.81241797009762 C87.3999788294289 14.916774564875643, 87.19994677479085 15.021131159653667, 86.63383606499849 15.316470754341124 C86.39485729429497 15.422259567078218, 86.15587852359143 15.528048379815312, 85.63735158294936 15.757584874882367 C85.35947866980244 15.859844675549486, 85.08160575665552 15.962104476216606, 84.61465220640156 16.133947699181363 C84.39609014915742 16.198815770515775, 84.17752809191326 16.26368384185019, 83.56994042646164 16.444012671663497 C83.33720879304235 16.49713214827561, 83.10447715962304 16.550251624887725, 82.50750918792333 16.68650566884811 C82.0885450398207 16.75424054319785, 81.66958089171807 16.821975417547588, 81.43172424863661 16.86043023499518 C81.17257962752733 16.88542960492659, 80.91343500641806 16.910428974857997, 80.34700623967211 16.965071676755716 C79.92383744764408 16.97864187626797, 79.50066865561604 16.992212075780223, 79.2578125 17 C79.2578125 17, 79.2578125 17, 79.2578125 17 C29.467167827724573 17, -20.323476844550854 17, -79.2578125 17 C-79.49582174192203 16.992367506868444, -79.73383098384406 16.98473501373689, -80.34700623967211 16.965071676755716 C-80.67072212304073 16.933843194812454, -80.99443800640937 16.902614712869195, -81.4317242486366 16.86043023499518 C-81.80489702297653 16.800098554837987, -82.17806979731647 16.739766874680797, -82.50750918792333 16.68650566884811 C-82.83815800392688 16.61103723428047, -83.16880681993042 16.535568799712834, -83.56994042646161 16.4440126716635 C-83.9085150819213 16.3435254911377, -84.24708973738097 16.243038310611905, -84.61465220640154 16.13394769918137 C-84.83439850991675 16.053079028175212, -85.05414481343195 15.972210357169057, -85.63735158294936 15.757584874882369 C-85.95425135409519 15.617302746693822, -86.27115112524102 15.477020618505277, -86.63383606499849 15.316470754341127 C-86.87673113981498 15.189752549391082, -87.11962621463148 15.063034344441038, -87.60001088406693 14.812417970097624 C-87.80022656475232 14.6910460478682, -88.00044224543771 14.569674125638777, -88.53190582057931 14.247497783161299 C-88.84264358773294 14.030740568416071, -89.15338135488656 13.813983353670844, -89.42569151835067 13.624031571755264 C-89.59910399891344 13.485739733206373, -89.77251647947621 13.34744789465748, -90.2776952202324 12.94458129227529 C-90.59031220095021 12.660670821779425, -90.90292918166801 12.37676035128356, -91.08441586025926 12.211938951661377 C-91.29818933752262 11.991200285258062, -91.51196281478599 11.770461618854748, -91.84253845028036 11.429115134442386 C-92.09304426763205 11.13485674719628, -92.34355008498375 10.840598359950175, -92.54894770195651 10.599326631598473 C-92.69047023654304 10.409699328220656, -92.83199277112956 10.220072024842839, -93.20074082814824 9.72598322207689 C-93.41240053881083 9.400817067908694, -93.62406024947342 9.075650913740496, -93.79523947109088 8.812673661278936 C-93.92586197339304 8.580740181478808, -94.0564844756952 8.34880670167868, -94.330000708341 7.863150934094201 C-94.43015768052173 7.655172838345031, -94.53031465270244 7.447194742595861, -94.80282709126881 6.881316833080701 C-94.89718972723215 6.648239297873822, -94.99155236319547 6.415161762666942, -95.21177567484592 5.87120592516224 C-95.33292070148424 5.506336406766369, -95.45406572812257 5.141466888370498, -95.55516600162323 4.8369689727275516 C-95.63135565806888 4.5464247918942995, -95.70754531451453 4.255880611061047, -95.831587007091 3.782855877257349 C-95.90825546549209 3.3891795472521533, -95.98492392389319 2.995503217246957, -96.03990281804565 2.713198215567455 C-96.09469798232016 2.2882177419833947, -96.14949314659468 1.8632372683993337, -96.17925742013637 1.6323914404306026 C-96.20093308053194 1.294775533491415, -96.22260874092751 0.9571596265522275, -96.2490781754117 0.54487681871814 C-96.2490781754117 0.15306949409262322, -96.2490781754117 -0.23873783053289355, -96.2490781754117 -0.5448768187181317 C-96.22628863378526 -0.8998423249366988, -96.20349909215884 -1.254807831155266, -96.17925742013637 -1.6323914404305793 C-96.13386647078212 -1.9844346801652935, -96.08847552142788 -2.3364779199000076, -96.03990281804565 -2.713198215567447 C-95.96759712023258 -3.084472692022919, -95.8952914224195 -3.4557471684783905, -95.831587007091 -3.782855877257341 C-95.75655430282787 -4.06898809799241, -95.68152159856473 -4.355120318727478, -95.55516600162323 -4.836968972727544 C-95.4770328450581 -5.07229359147381, -95.39889968849297 -5.307618210220076, -95.21177567484594 -5.871205925162218 C-95.08049203603102 -6.195479051231551, -94.9492083972161 -6.5197521773008855, -94.80282709126881 -6.881316833080692 C-94.63787843338469 -7.223836250512965, -94.47292977550056 -7.566355667945238, -94.330000708341 -7.863150934094194 C-94.13268777914456 -8.21350001998313, -93.93537484994812 -8.563849105872066, -93.79523947109088 -8.812673661278929 C-93.66158560014044 -9.018001898148388, -93.52793172919 -9.223330135017845, -93.20074082814826 -9.725983222076884 C-92.99931429573324 -9.995876425178393, -92.79788776331823 -10.265769628279902, -92.54894770195651 -10.599326631598467 C-92.32055785017934 -10.867606347246655, -92.09216799840216 -11.13588606289484, -91.84253845028037 -11.42911513444238 C-91.62378369476718 -11.654997379609178, -91.40502893925401 -11.880879624775975, -91.08441586025927 -12.21193895166136 C-90.80996126594057 -12.461191352550971, -90.53550667162186 -12.710443753440583, -90.27769522023242 -12.944581292275274 C-89.95035382422182 -13.205627344673339, -89.62301242821123 -13.466673397071402, -89.42569151835067 -13.624031571755259 C-89.14024111931087 -13.823149413176816, -88.85479072027105 -14.022267254598372, -88.53190582057934 -14.247497783161284 C-88.19843063673831 -14.44965239932342, -87.86495545289729 -14.651807015485556, -87.60001088406695 -14.812417970097618 C-87.26461424681474 -14.987394180920296, -86.92921760956253 -15.162370391742973, -86.63383606499849 -15.316470754341124 C-86.36368294497129 -15.436059526769592, -86.09352982494408 -15.55564829919806, -85.63735158294936 -15.757584874882365 C-85.42575176566825 -15.835455563649086, -85.21415194838713 -15.913326252415805, -84.61465220640156 -16.133947699181363 C-84.34977040795941 -16.21256322656606, -84.08488860951725 -16.29117875395076, -83.56994042646164 -16.444012671663494 C-83.19454023112097 -16.52969531653479, -82.8191400357803 -16.615377961406086, -82.50750918792333 -16.68650566884811 C-82.10265252753224 -16.751959753989848, -81.69779586714117 -16.817413839131586, -81.43172424863661 -16.86043023499518 C-81.0477642716919 -16.897470392191604, -80.6638042947472 -16.93451054938803, -80.34700623967213 -16.965071676755716 C-80.08424759279333 -16.97349783513244, -79.82148894591454 -16.981923993509163, -79.2578125 -17 C-79.2578125 -17, -79.2578125 -17, -79.2578125 -17" stroke="none" stroke-width="0" fill="#ECECFF" style=""></path><path d="M-79.2578125 -17 C-20.92853726581211 -17, 37.40073796837578 -17, 79.2578125 -17 M-79.2578125 -17 C-23.783995168182805 -17, 31.68982216363439 -17, 79.2578125 -17 M79.2578125 -17 C79.2578125 -17, 79.2578125 -17, 79.2578125 -17 M79.2578125 -17 C79.2578125 -17, 79.2578125 -17, 79.2578125 -17 M79.2578125 -17 C79.58989995798756 -16.98935060159136, 79.9219874159751 -16.978701203182727, 80.34700623967211 -16.965071676755716 M79.2578125 -17 C79.5565766201994 -16.99041921617429, 79.85534074039879 -16.980838432348573, 80.34700623967211 -16.965071676755716 M80.34700623967211 -16.965071676755716 C80.68990512182467 -16.931992633990703, 81.03280400397723 -16.898913591225686, 81.4317242486366 -16.860430234995185 M80.34700623967211 -16.965071676755716 C80.66844865870662 -16.934062513182525, 80.98989107774115 -16.903053349609337, 81.4317242486366 -16.860430234995185 M81.4317242486366 -16.860430234995185 C81.66410778525189 -16.822860266956468, 81.89649132186717 -16.78529029891775, 82.50750918792333 -16.686505668848113 M81.4317242486366 -16.860430234995185 C81.82120049452476 -16.797462735993385, 82.21067674041294 -16.734495236991584, 82.50750918792333 -16.686505668848113 M82.50750918792333 -16.686505668848113 C82.92279177004778 -16.591720129450316, 83.33807435217223 -16.49693459005252, 83.56994042646163 -16.4440126716635 M82.50750918792333 -16.686505668848113 C82.77714451199962 -16.624963165662624, 83.04677983607593 -16.563420662477135, 83.56994042646163 -16.4440126716635 M83.56994042646163 -16.4440126716635 C83.97584622257394 -16.32354196202037, 84.38175201868623 -16.203071252377242, 84.61465220640156 -16.133947699181366 M83.56994042646163 -16.4440126716635 C83.79826371562197 -16.376247517934114, 84.02658700478231 -16.308482364204725, 84.61465220640156 -16.133947699181366 M84.61465220640156 -16.133947699181366 C85.00506754253242 -15.990271246525406, 85.39548287866327 -15.846594793869444, 85.63735158294936 -15.757584874882369 M84.61465220640156 -16.133947699181366 C84.8399754838651 -16.051026650209238, 85.06529876132863 -15.968105601237111, 85.63735158294936 -15.757584874882369 M85.63735158294936 -15.757584874882369 C85.99471374363625 -15.599391247118133, 86.35207590432314 -15.441197619353897, 86.63383606499849 -15.316470754341125 M85.63735158294936 -15.757584874882369 C85.95194348348208 -15.618324372553694, 86.26653538401482 -15.479063870225017, 86.63383606499849 -15.316470754341125 M86.63383606499849 -15.316470754341125 C86.9546706466454 -15.149091558600292, 87.2755052282923 -14.981712362859458, 87.60001088406693 -14.812417970097622 M86.63383606499849 -15.316470754341125 C86.98155795832179 -15.13506446532086, 87.3292798516451 -14.953658176300594, 87.60001088406693 -14.812417970097622 M87.60001088406693 -14.812417970097622 C87.92267943911959 -14.616814395813797, 88.24534799417225 -14.421210821529971, 88.53190582057933 -14.247497783161291 M87.60001088406693 -14.812417970097622 C87.85022396927941 -14.660737327426519, 88.10043705449188 -14.509056684755414, 88.53190582057933 -14.247497783161291 M88.53190582057933 -14.247497783161291 C88.81638945400584 -14.049054315580955, 89.10087308743238 -13.850610848000619, 89.42569151835067 -13.624031571755262 M88.53190582057933 -14.247497783161291 C88.83300966104375 -14.037460778628482, 89.13411350150818 -13.827423774095672, 89.42569151835067 -13.624031571755262 M89.42569151835067 -13.624031571755262 C89.74748742250294 -13.367407901542482, 90.0692833266552 -13.110784231329701, 90.2776952202324 -12.944581292275288 M89.42569151835067 -13.624031571755262 C89.64181863952676 -13.451675944001568, 89.85794576070286 -13.279320316247873, 90.2776952202324 -12.944581292275288 M90.2776952202324 -12.944581292275288 C90.47725578398352 -12.76334566835969, 90.67681634773466 -12.582110044444095, 91.08441586025927 -12.21193895166137 M90.2776952202324 -12.944581292275288 C90.55982741045379 -12.688356301924921, 90.84195960067517 -12.432131311574555, 91.08441586025927 -12.21193895166137 M91.08441586025927 -12.21193895166137 C91.28298225290163 -12.00690284865411, 91.481548645544 -11.80186674564685, 91.84253845028036 -11.42911513444239 M91.08441586025927 -12.21193895166137 C91.2679257724238 -12.022449900907516, 91.4514356845883 -11.832960850153661, 91.84253845028036 -11.42911513444239 M91.84253845028036 -11.42911513444239 C92.09440832499995 -11.133254447794881, 92.34627819971955 -10.837393761147375, 92.54894770195651 -10.59932663159847 M91.84253845028036 -11.42911513444239 C92.0253042895714 -11.214427979940266, 92.20807012886245 -10.999740825438142, 92.54894770195651 -10.59932663159847 M92.54894770195651 -10.59932663159847 C92.77098103428477 -10.30182219393129, 92.99301436661304 -10.004317756264108, 93.20074082814824 -9.725983222076888 M92.54894770195651 -10.59932663159847 C92.80356227732922 -10.258166296464024, 93.05817685270195 -9.917005961329577, 93.20074082814824 -9.725983222076888 M93.20074082814824 -9.725983222076888 C93.36538440410138 -9.473046476422326, 93.53002798005451 -9.220109730767764, 93.79523947109088 -8.812673661278927 M93.20074082814824 -9.725983222076888 C93.4377127571707 -9.361930703225593, 93.67468468619316 -8.997878184374295, 93.79523947109088 -8.812673661278927 M93.79523947109088 -8.812673661278927 C93.92399339235841 -8.584058036320135, 94.05274731362594 -8.355442411361343, 94.330000708341 -7.863150934094199 M93.79523947109088 -8.812673661278927 C93.9348713454137 -8.564743129158273, 94.07450321973653 -8.31681259703762, 94.330000708341 -7.863150934094199 M94.330000708341 -7.863150934094199 C94.50703305524834 -7.495539477855703, 94.68406540215567 -7.127928021617207, 94.80282709126881 -6.881316833080699 M94.330000708341 -7.863150934094199 C94.51713407457576 -7.474564495095116, 94.70426744081051 -7.085978056096033, 94.80282709126881 -6.881316833080699 M94.80282709126881 -6.881316833080699 C94.9400546182379 -6.542362188353309, 95.07728214520698 -6.203407543625918, 95.21177567484592 -5.871205925162238 M94.80282709126881 -6.881316833080699 C94.91453170193259 -6.605404285079423, 95.02623631259638 -6.329491737078149, 95.21177567484592 -5.871205925162238 M95.21177567484592 -5.871205925162238 C95.33626079752574 -5.496276569661409, 95.46074592020557 -5.12134721416058, 95.55516600162323 -4.836968972727556 M95.21177567484592 -5.871205925162238 C95.32471751624549 -5.531043093705442, 95.43765935764505 -5.190880262248647, 95.55516600162323 -4.836968972727556 M95.55516600162323 -4.836968972727556 C95.62856855357361 -4.557053229273485, 95.701971105524 -4.2771374858194156, 95.831587007091 -3.7828558772573464 M95.55516600162323 -4.836968972727556 C95.65192911713864 -4.467969275867771, 95.74869223265404 -4.098969579007987, 95.831587007091 -3.7828558772573464 M95.831587007091 -3.7828558772573464 C95.87726963783989 -3.5482852233892466, 95.92295226858877 -3.313714569521147, 96.03990281804565 -2.713198215567453 M95.831587007091 -3.7828558772573464 C95.914518310923 -3.3570211596172763, 95.99744961475501 -2.9311864419772067, 96.03990281804565 -2.713198215567453 M96.03990281804565 -2.713198215567453 C96.06798826984763 -2.495372997490986, 96.09607372164963 -2.277547779414519, 96.17925742013637 -1.632391440430593 M96.03990281804565 -2.713198215567453 C96.07530184854957 -2.438650325308294, 96.11070087905348 -2.164102435049135, 96.17925742013637 -1.632391440430593 M96.17925742013637 -1.632391440430593 C96.19532422636235 -1.3821379645685101, 96.21139103258831 -1.1318844887064272, 96.2490781754117 -0.5448768187181379 M96.17925742013637 -1.632391440430593 C96.20408292912576 -1.2457140991305156, 96.22890843811517 -0.8590367578304381, 96.2490781754117 -0.5448768187181379 M96.2490781754117 -0.5448768187181379 C96.2490781754117 -0.32014314395323606, 96.2490781754117 -0.0954094691883342, 96.2490781754117 0.5448768187181336 M96.2490781754117 -0.5448768187181379 C96.2490781754117 -0.16590236311904377, 96.2490781754117 0.21307209248005032, 96.2490781754117 0.5448768187181336 M96.2490781754117 0.5448768187181336 C96.22519271440292 0.9169121539269447, 96.20130725339413 1.2889474891357557, 96.17925742013637 1.6323914404305815 M96.2490781754117 0.5448768187181336 C96.23255503922752 0.8022380020220754, 96.21603190304334 1.0595991853260172, 96.17925742013637 1.6323914404305815 M96.17925742013637 1.6323914404305815 C96.13354121429923 1.9869573052174463, 96.0878250084621 2.341523170004311, 96.03990281804565 2.7131982155674415 M96.17925742013637 1.6323914404305815 C96.15131867762855 1.849078810192396, 96.12337993512075 2.0657661799542106, 96.03990281804565 2.7131982155674415 M96.03990281804565 2.7131982155674415 C95.9956299849649 2.940529856370489, 95.95135715188415 3.1678614971735364, 95.831587007091 3.782855877257343 M96.03990281804565 2.7131982155674415 C95.97622271806961 3.0401820701504847, 95.91254261809358 3.367165924733528, 95.831587007091 3.782855877257343 M95.831587007091 3.782855877257343 C95.73433303924593 4.153727406786897, 95.63707907140086 4.52459893631645, 95.55516600162323 4.836968972727545 M95.831587007091 3.782855877257343 C95.74519704030396 4.112298262264792, 95.65880707351691 4.441740647272242, 95.55516600162323 4.836968972727545 M95.55516600162323 4.836968972727545 C95.47050898551049 5.09194241699536, 95.38585196939773 5.3469158612631755, 95.21177567484592 5.871205925162227 M95.55516600162323 4.836968972727545 C95.4449645064088 5.168878318089638, 95.33476301119434 5.50078766345173, 95.21177567484592 5.871205925162227 M95.21177567484592 5.871205925162227 C95.0483707242339 6.274819312393704, 94.8849657736219 6.678432699625181, 94.80282709126881 6.881316833080694 M95.21177567484592 5.871205925162227 C95.05815629991622 6.250648751267147, 94.90453692498653 6.630091577372069, 94.80282709126881 6.881316833080694 M94.80282709126881 6.881316833080694 C94.61841944059594 7.264243265394555, 94.43401178992306 7.647169697708415, 94.330000708341 7.863150934094196 M94.80282709126881 6.881316833080694 C94.6982840850821 7.098402622289398, 94.59374107889539 7.3154884114981025, 94.330000708341 7.863150934094196 M94.330000708341 7.863150934094196 C94.13427017053075 8.210690323842439, 93.9385396327205 8.55822971359068, 93.79523947109088 8.812673661278923 M94.330000708341 7.863150934094196 C94.14662457120077 8.18875383443409, 93.96324843406055 8.514356734773985, 93.79523947109088 8.812673661278923 M93.79523947109088 8.812673661278923 C93.65749137193366 9.024291732128203, 93.51974327277644 9.235909802977483, 93.20074082814826 9.725983222076879 M93.79523947109088 8.812673661278923 C93.6159826432098 9.088060286102385, 93.43672581532873 9.363446910925845, 93.20074082814826 9.725983222076879 M93.20074082814826 9.725983222076879 C92.95250019442877 10.058603056074025, 92.70425956070927 10.391222890071171, 92.54894770195651 10.599326631598467 M93.20074082814826 9.725983222076879 C93.00025919128824 9.994610351216446, 92.79977755442823 10.263237480356015, 92.54894770195651 10.599326631598467 M92.54894770195651 10.599326631598467 C92.31225380048473 10.877360756531749, 92.07555989901296 11.155394881465032, 91.84253845028037 11.42911513444238 M92.54894770195651 10.599326631598467 C92.35920618730752 10.822207811303205, 92.16946467265853 11.045088991007942, 91.84253845028037 11.42911513444238 M91.84253845028037 11.42911513444238 C91.60113266989453 11.67838642247393, 91.35972688950868 11.92765771050548, 91.08441586025927 12.211938951661365 M91.84253845028037 11.42911513444238 C91.65664002502484 11.621070521063274, 91.47074159976931 11.813025907684167, 91.08441586025927 12.211938951661365 M91.08441586025927 12.211938951661365 C90.79625961703016 12.473634827565643, 90.50810337380105 12.735330703469923, 90.27769522023242 12.944581292275275 M91.08441586025927 12.211938951661365 C90.84968300402235 12.425117121004698, 90.61495014778542 12.638295290348033, 90.27769522023242 12.944581292275275 M90.27769522023242 12.944581292275275 C90.07374591787101 13.107225433589628, 89.8697966155096 13.269869574903982, 89.42569151835067 13.62403157175526 M90.27769522023242 12.944581292275275 C89.93923197014524 13.214496727334451, 89.60076872005806 13.484412162393625, 89.42569151835067 13.62403157175526 M89.42569151835067 13.62403157175526 C89.16370344705659 13.806783109009192, 88.90171537576252 13.989534646263126, 88.53190582057934 14.247497783161286 M89.42569151835067 13.62403157175526 C89.13195656193608 13.82892836176876, 88.83822160552148 14.03382515178226, 88.53190582057934 14.247497783161286 M88.53190582057934 14.247497783161286 C88.17754480182448 14.462313515186977, 87.82318378306962 14.67712924721267, 87.60001088406695 14.81241797009762 M88.53190582057934 14.247497783161286 C88.29510339167764 14.391048807167031, 88.05830096277595 14.534599831172779, 87.60001088406695 14.81241797009762 M87.60001088406695 14.81241797009762 C87.24460309219994 14.997833987465079, 86.88919530033294 15.183250004832537, 86.63383606499849 15.316470754341124 M87.60001088406695 14.81241797009762 C87.24082973475535 14.999802545626975, 86.88164858544374 15.18718712115633, 86.63383606499849 15.316470754341124 M86.63383606499849 15.316470754341124 C86.32219987008853 15.454422853468497, 86.01056367517856 15.59237495259587, 85.63735158294936 15.757584874882367 M86.63383606499849 15.316470754341124 C86.38668310095022 15.4258780399931, 86.13953013690197 15.535285325645077, 85.63735158294936 15.757584874882367 M85.63735158294936 15.757584874882367 C85.31691428931391 15.875508761030083, 84.99647699567848 15.993432647177798, 84.61465220640156 16.133947699181363 M85.63735158294936 15.757584874882367 C85.24782698481158 15.900933527722986, 84.8583023866738 16.044282180563602, 84.61465220640156 16.133947699181363 M84.61465220640156 16.133947699181363 C84.32194501462624 16.220821657248877, 84.02923782285092 16.307695615316387, 83.56994042646164 16.444012671663497 M84.61465220640156 16.133947699181363 C84.19993100786047 16.257034773992363, 83.78520980931938 16.380121848803366, 83.56994042646164 16.444012671663497 M83.56994042646164 16.444012671663497 C83.338374677472 16.496866042762647, 83.10680892848238 16.549719413861798, 82.50750918792333 16.68650566884811 M83.56994042646164 16.444012671663497 C83.2012430392476 16.5281654443198, 82.83254565203355 16.612318216976107, 82.50750918792333 16.68650566884811 M82.50750918792333 16.68650566884811 C82.16583190024885 16.74174540297238, 81.82415461257435 16.79698513709665, 81.43172424863661 16.86043023499518 M82.50750918792333 16.68650566884811 C82.27530434516653 16.724046747049577, 82.04309950240975 16.76158782525105, 81.43172424863661 16.86043023499518 M81.43172424863661 16.86043023499518 C81.05291598340038 16.89697341275893, 80.67410771816415 16.933516590522675, 80.34700623967211 16.965071676755716 M81.43172424863661 16.86043023499518 C81.03895876462803 16.898319848867885, 80.64619328061946 16.93620946274059, 80.34700623967211 16.965071676755716 M80.34700623967211 16.965071676755716 C80.0792655987749 16.97365759798375, 79.81152495787767 16.982243519211778, 79.2578125 17 M80.34700623967211 16.965071676755716 C79.92256134771294 16.978682798308984, 79.49811645575377 16.992293919862252, 79.2578125 17 M79.2578125 17 C79.2578125 17, 79.2578125 17, 79.2578125 17 M79.2578125 17 C79.2578125 17, 79.2578125 17, 79.2578125 17 M79.2578125 17 C43.527605604493566 17, 7.7973987089871315 17, -79.2578125 17 M79.2578125 17 C38.16872605988774 17, -2.9203603802245226 17, -79.2578125 17 M-79.2578125 17 C-79.51012898575496 16.991908701406086, -79.76244547150993 16.983817402812168, -80.34700623967211 16.965071676755716 M-79.2578125 17 C-79.64016219220167 16.98773878956962, -80.02251188440333 16.97547757913924, -80.34700623967211 16.965071676755716 M-80.34700623967211 16.965071676755716 C-80.59616421573254 16.941035706461474, -80.84532219179299 16.91699973616723, -81.4317242486366 16.86043023499518 M-80.34700623967211 16.965071676755716 C-80.70376648299415 16.930655445149405, -81.06052672631618 16.896239213543097, -81.4317242486366 16.86043023499518 M-81.4317242486366 16.86043023499518 C-81.80063599771523 16.80078744435749, -82.16954774679388 16.7411446537198, -82.50750918792333 16.68650566884811 M-81.4317242486366 16.86043023499518 C-81.74800750801474 16.809296010432234, -82.06429076739288 16.758161785869287, -82.50750918792333 16.68650566884811 M-82.50750918792333 16.68650566884811 C-82.82906219617779 16.613113293043508, -83.15061520443226 16.539720917238903, -83.56994042646161 16.4440126716635 M-82.50750918792333 16.68650566884811 C-82.9156818950802 16.593342912015395, -83.32385460223706 16.500180155182676, -83.56994042646161 16.4440126716635 M-83.56994042646161 16.4440126716635 C-83.85860593485656 16.358338264008058, -84.1472714432515 16.27266385635261, -84.61465220640154 16.13394769918137 M-83.56994042646161 16.4440126716635 C-83.92641002706523 16.338214365351465, -84.28287962766885 16.23241605903943, -84.61465220640154 16.13394769918137 M-84.61465220640154 16.13394769918137 C-84.83068763226017 16.05444466545581, -85.04672305811879 15.974941631730257, -85.63735158294936 15.757584874882369 M-84.61465220640154 16.13394769918137 C-84.93062874760264 16.017665411164238, -85.24660528880374 15.901383123147108, -85.63735158294936 15.757584874882369 M-85.63735158294936 15.757584874882369 C-85.85515027314169 15.661171855502818, -86.07294896333403 15.564758836123268, -86.63383606499849 15.316470754341127 M-85.63735158294936 15.757584874882369 C-85.87223594907653 15.653608533595037, -86.10712031520369 15.549632192307705, -86.63383606499849 15.316470754341127 M-86.63383606499849 15.316470754341127 C-86.98827473453527 15.13156032747259, -87.34271340407206 14.946649900604053, -87.60001088406693 14.812417970097624 M-86.63383606499849 15.316470754341127 C-86.89964656114493 15.177797588761276, -87.16545705729138 15.039124423181425, -87.60001088406693 14.812417970097624 M-87.60001088406693 14.812417970097624 C-87.78950908780949 14.69754304537383, -87.97900729155205 14.582668120650037, -88.53190582057931 14.247497783161299 M-87.60001088406693 14.812417970097624 C-87.8165425061279 14.681155228323211, -88.03307412818886 14.5498924865488, -88.53190582057931 14.247497783161299 M-88.53190582057931 14.247497783161299 C-88.8175891545764 14.04821745639714, -89.10327248857348 13.848937129632981, -89.42569151835067 13.624031571755264 M-88.53190582057931 14.247497783161299 C-88.74493775310759 14.098895929033297, -88.95796968563587 13.950294074905296, -89.42569151835067 13.624031571755264 M-89.42569151835067 13.624031571755264 C-89.64688282682395 13.447637389395746, -89.86807413529723 13.271243207036228, -90.2776952202324 12.94458129227529 M-89.42569151835067 13.624031571755264 C-89.66168024480699 13.435836842330108, -89.89766897126329 13.247642112904954, -90.2776952202324 12.94458129227529 M-90.2776952202324 12.94458129227529 C-90.55577385931747 12.692037629815841, -90.83385249840254 12.439493967356391, -91.08441586025926 12.211938951661377 M-90.2776952202324 12.94458129227529 C-90.5950257656717 12.656390087013449, -90.91235631111101 12.368198881751608, -91.08441586025926 12.211938951661377 M-91.08441586025926 12.211938951661377 C-91.32162211718905 11.967004016385479, -91.55882837411886 11.72206908110958, -91.84253845028036 11.429115134442386 M-91.08441586025926 12.211938951661377 C-91.30901063420559 11.980026407987921, -91.53360540815191 11.748113864314464, -91.84253845028036 11.429115134442386 M-91.84253845028036 11.429115134442386 C-92.07913234627641 11.15119848163137, -92.31572624227246 10.873281828820355, -92.54894770195651 10.599326631598473 M-91.84253845028036 11.429115134442386 C-92.00162191713952 11.242246642163925, -92.16070538399867 11.055378149885463, -92.54894770195651 10.599326631598473 M-92.54894770195651 10.599326631598473 C-92.79521698537907 10.269348227405503, -93.04148626880162 9.939369823212536, -93.20074082814824 9.72598322207689 M-92.54894770195651 10.599326631598473 C-92.68761833897504 10.413520611148558, -92.82628897599358 10.22771459069864, -93.20074082814824 9.72598322207689 M-93.20074082814824 9.72598322207689 C-93.32760687176882 9.531082910772962, -93.45447291538939 9.336182599469035, -93.79523947109088 8.812673661278936 M-93.20074082814824 9.72598322207689 C-93.33910797337838 9.513414130222472, -93.47747511860851 9.300845038368054, -93.79523947109088 8.812673661278936 M-93.79523947109088 8.812673661278936 C-93.969105911718 8.503956190059263, -94.14297235234511 8.195238718839589, -94.330000708341 7.863150934094201 M-93.79523947109088 8.812673661278936 C-93.9778104510276 8.48850039908489, -94.1603814309643 8.164327136890842, -94.330000708341 7.863150934094201 M-94.330000708341 7.863150934094201 C-94.46001027697626 7.593183283063954, -94.59001984561151 7.3232156320337065, -94.80282709126881 6.881316833080701 M-94.330000708341 7.863150934094201 C-94.44515906455479 7.624022143422174, -94.56031742076857 7.384893352750147, -94.80282709126881 6.881316833080701 M-94.80282709126881 6.881316833080701 C-94.8847230076742 6.679032336209575, -94.96661892407958 6.476747839338448, -95.21177567484592 5.87120592516224 M-94.80282709126881 6.881316833080701 C-94.90848390268253 6.6203424661533194, -95.01414071409626 6.359368099225938, -95.21177567484592 5.87120592516224 M-95.21177567484592 5.87120592516224 C-95.30667999330814 5.5853692389037555, -95.40158431177034 5.299532552645272, -95.55516600162323 4.8369689727275516 M-95.21177567484592 5.87120592516224 C-95.34899400787435 5.45792616885298, -95.48621234090277 5.04464641254372, -95.55516600162323 4.8369689727275516 M-95.55516600162323 4.8369689727275516 C-95.63794212239812 4.521307748815247, -95.720718243173 4.205646524902944, -95.831587007091 3.782855877257349 M-95.55516600162323 4.8369689727275516 C-95.6113966332449 4.622537203844282, -95.66762726486654 4.408105434961014, -95.831587007091 3.782855877257349 M-95.831587007091 3.782855877257349 C-95.8748880866062 3.5605139856331895, -95.91818916612141 3.3381720940090296, -96.03990281804565 2.713198215567455 M-95.831587007091 3.782855877257349 C-95.90901238435382 3.385292928872095, -95.98643776161661 2.9877299804868414, -96.03990281804565 2.713198215567455 M-96.03990281804565 2.713198215567455 C-96.06787240772366 2.4962716012450676, -96.09584199740165 2.2793449869226796, -96.17925742013637 1.6323914404306026 M-96.03990281804565 2.713198215567455 C-96.07136146033484 2.469211198184016, -96.10282010262404 2.225224180800576, -96.17925742013637 1.6323914404306026 M-96.17925742013637 1.6323914404306026 C-96.19781928771026 1.3432753700975009, -96.21638115528414 1.0541592997643994, -96.2490781754117 0.54487681871814 M-96.17925742013637 1.6323914404306026 C-96.19989485126236 1.3109467924088352, -96.22053228238833 0.9895021443870679, -96.2490781754117 0.54487681871814 M-96.2490781754117 0.54487681871814 C-96.2490781754117 0.16992214566360508, -96.2490781754117 -0.2050325273909298, -96.2490781754117 -0.5448768187181317 M-96.2490781754117 0.54487681871814 C-96.2490781754117 0.26248100788670536, -96.2490781754117 -0.01991480294472925, -96.2490781754117 -0.5448768187181317 M-96.2490781754117 -0.5448768187181317 C-96.23040570195809 -0.8357156649072677, -96.21173322850449 -1.1265545110964035, -96.17925742013637 -1.6323914404305793 M-96.2490781754117 -0.5448768187181317 C-96.23053363115912 -0.8337230643386984, -96.21198908690654 -1.1225693099592653, -96.17925742013637 -1.6323914404305793 M-96.17925742013637 -1.6323914404305793 C-96.14609172659495 -1.8896180102308668, -96.11292603305353 -2.1468445800311544, -96.03990281804565 -2.713198215567447 M-96.17925742013637 -1.6323914404305793 C-96.12924666961382 -2.0202649457437625, -96.07923591909126 -2.408138451056946, -96.03990281804565 -2.713198215567447 M-96.03990281804565 -2.713198215567447 C-95.98175589394158 -3.011770381485091, -95.9236089698375 -3.310342547402735, -95.831587007091 -3.782855877257341 M-96.03990281804565 -2.713198215567447 C-95.99634331233685 -2.9368670710773626, -95.95278380662805 -3.1605359265872783, -95.831587007091 -3.782855877257341 M-95.831587007091 -3.782855877257341 C-95.7759991517691 -3.9948364615286285, -95.72041129644721 -4.206817045799916, -95.55516600162323 -4.836968972727544 M-95.831587007091 -3.782855877257341 C-95.76799891781535 -4.025344820917637, -95.7044108285397 -4.267833764577933, -95.55516600162323 -4.836968972727544 M-95.55516600162323 -4.836968972727544 C-95.47024188667551 -5.092746876129921, -95.38531777172777 -5.3485247795322985, -95.21177567484594 -5.871205925162218 M-95.55516600162323 -4.836968972727544 C-95.44758763008659 -5.160977887510135, -95.34000925854993 -5.484986802292727, -95.21177567484594 -5.871205925162218 M-95.21177567484594 -5.871205925162218 C-95.09405149628648 -6.161986922246207, -94.97632731772704 -6.452767919330196, -94.80282709126881 -6.881316833080692 M-95.21177567484594 -5.871205925162218 C-95.0560828890645 -6.255770116157589, -94.90039010328307 -6.640334307152961, -94.80282709126881 -6.881316833080692 M-94.80282709126881 -6.881316833080692 C-94.6367850690243 -7.22610664500156, -94.47074304677979 -7.570896456922429, -94.330000708341 -7.863150934094194 M-94.80282709126881 -6.881316833080692 C-94.63471941042347 -7.2303960292842016, -94.46661172957812 -7.579475225487711, -94.330000708341 -7.863150934094194 M-94.330000708341 -7.863150934094194 C-94.16798287626285 -8.15083000103346, -94.0059650441847 -8.438509067972728, -93.79523947109088 -8.812673661278929 M-94.330000708341 -7.863150934094194 C-94.2011112600919 -8.092007200932361, -94.0722218118428 -8.320863467770527, -93.79523947109088 -8.812673661278929 M-93.79523947109088 -8.812673661278929 C-93.63609040136042 -9.057169369893964, -93.47694133162994 -9.301665078508998, -93.20074082814826 -9.725983222076884 M-93.79523947109088 -8.812673661278929 C-93.62218970859894 -9.07852456683424, -93.44913994610701 -9.344375472389551, -93.20074082814826 -9.725983222076884 M-93.20074082814826 -9.725983222076884 C-92.9975974629845 -9.998176824655035, -92.79445409782073 -10.270370427233184, -92.54894770195651 -10.599326631598467 M-93.20074082814826 -9.725983222076884 C-93.03167186435117 -9.95252023106552, -92.86260290055408 -10.179057240054155, -92.54894770195651 -10.599326631598467 M-92.54894770195651 -10.599326631598467 C-92.35997150057061 -10.821308830796827, -92.17099529918471 -11.043291029995189, -91.84253845028037 -11.42911513444238 M-92.54894770195651 -10.599326631598467 C-92.39063563458119 -10.785288994149353, -92.23232356720585 -10.971251356700238, -91.84253845028037 -11.42911513444238 M-91.84253845028037 -11.42911513444238 C-91.63244371418911 -11.646055198555228, -91.42234897809784 -11.862995262668075, -91.08441586025927 -12.21193895166136 M-91.84253845028037 -11.42911513444238 C-91.59559187625166 -11.684107746817803, -91.34864530222295 -11.939100359193228, -91.08441586025927 -12.21193895166136 M-91.08441586025927 -12.21193895166136 C-90.8581645381372 -12.417414416130676, -90.63191321601515 -12.62288988059999, -90.27769522023242 -12.944581292275274 M-91.08441586025927 -12.21193895166136 C-90.91421934017653 -12.366506928047352, -90.74402282009379 -12.521074904433343, -90.27769522023242 -12.944581292275274 M-90.27769522023242 -12.944581292275274 C-90.03524810234734 -13.137926416999857, -89.79280098446226 -13.331271541724442, -89.42569151835067 -13.624031571755259 M-90.27769522023242 -12.944581292275274 C-90.0329687980359 -13.139744101533404, -89.78824237583936 -13.334906910791535, -89.42569151835067 -13.624031571755259 M-89.42569151835067 -13.624031571755259 C-89.22544755893512 -13.763713089422257, -89.02520359951957 -13.903394607089258, -88.53190582057934 -14.247497783161284 M-89.42569151835067 -13.624031571755259 C-89.18162666464481 -13.794280648303234, -88.93756181093896 -13.964529724851209, -88.53190582057934 -14.247497783161284 M-88.53190582057934 -14.247497783161284 C-88.16660845642384 -14.468943192037942, -87.80131109226835 -14.690388600914599, -87.60001088406695 -14.812417970097618 M-88.53190582057934 -14.247497783161284 C-88.21071354229235 -14.442206429794199, -87.88952126400535 -14.636915076427114, -87.60001088406695 -14.812417970097618 M-87.60001088406695 -14.812417970097618 C-87.39816679738219 -14.917719900833747, -87.19632271069743 -15.023021831569876, -86.63383606499849 -15.316470754341124 M-87.60001088406695 -14.812417970097618 C-87.2287262463087 -15.006116927796937, -86.85744160855045 -15.199815885496255, -86.63383606499849 -15.316470754341124 M-86.63383606499849 -15.316470754341124 C-86.39489529572433 -15.422242744972708, -86.15595452645016 -15.528014735604293, -85.63735158294936 -15.757584874882365 M-86.63383606499849 -15.316470754341124 C-86.25808952511193 -15.482802601423819, -85.88234298522538 -15.649134448506512, -85.63735158294936 -15.757584874882365 M-85.63735158294936 -15.757584874882365 C-85.36962473676753 -15.856110829117117, -85.10189789058569 -15.954636783351871, -84.61465220640156 -16.133947699181363 M-85.63735158294936 -15.757584874882365 C-85.34460935989364 -15.865316719046318, -85.05186713683791 -15.97304856321027, -84.61465220640156 -16.133947699181363 M-84.61465220640156 -16.133947699181363 C-84.1980983210373 -16.25757870582151, -83.78154443567306 -16.381209712461658, -83.56994042646164 -16.444012671663494 M-84.61465220640156 -16.133947699181363 C-84.375503596338 -16.204925751331555, -84.13635498627445 -16.275903803481746, -83.56994042646164 -16.444012671663494 M-83.56994042646164 -16.444012671663494 C-83.16111194297876 -16.537325105163283, -82.75228345949587 -16.630637538663073, -82.50750918792333 -16.68650566884811 M-83.56994042646164 -16.444012671663494 C-83.29774850388914 -16.506138701772375, -83.02555658131665 -16.568264731881257, -82.50750918792333 -16.68650566884811 M-82.50750918792333 -16.68650566884811 C-82.20534151469758 -16.735357794909945, -81.90317384147183 -16.784209920971783, -81.43172424863661 -16.86043023499518 M-82.50750918792333 -16.68650566884811 C-82.1320573341446 -16.747205812894443, -81.75660548036589 -16.807905956940772, -81.43172424863661 -16.86043023499518 M-81.43172424863661 -16.86043023499518 C-81.13716036585166 -16.888846458502545, -80.84259648306671 -16.917262682009913, -80.34700623967213 -16.965071676755716 M-81.43172424863661 -16.86043023499518 C-81.01435408156411 -16.9006934330516, -80.5969839144916 -16.94095663110802, -80.34700623967213 -16.965071676755716 M-80.34700623967213 -16.965071676755716 C-80.0917249770265 -16.97325804997393, -79.83644371438089 -16.981444423192137, -79.2578125 -17 M-80.34700623967213 -16.965071676755716 C-79.98681337446246 -16.97662236087011, -79.62662050925279 -16.988173044984503, -79.2578125 -17 M-79.2578125 -17 C-79.2578125 -17, -79.2578125 -17, -79.2578125 -17 M-79.2578125 -17 C-79.2578125 -17, -79.2578125 -17, -79.2578125 -17" stroke="#9370DB" stroke-width="1.3" fill="none" stroke-dasharray="0 0" style=""></path></g><g class="label" style="" transform="translate(0, -9.5)"><rect></rect><g><rect class="background" style="stroke: none"></rect><text y="-10.1" style=""><tspan class="text-outer-tspan row" x="0" y="-0.1em" dy="1.1em"><tspan font-style="normal" class="text-inner-tspan" font-weight="normal">Project</tspan><tspan font-style="normal" class="text-inner-tspan" font-weight="normal"> or</tspan><tspan font-style="normal" class="text-inner-tspan" font-weight="normal"> existing</tspan><tspan font-style="normal" class="text-inner-tspan" font-weight="normal"> repo</tspan></tspan></text></g></g></g><g class="node default" id="gefcc066a-6de6-4a64-9479-ad379e1bdbc6-light-flowchart-init-1" data-look="classic" transform="translate(203.07421875, 134.0999984741211)"><rect class="basic label-container" style="" x="-122.1640625" y="-42.099998474121094" width="244.328125" height="84.19999694824219"></rect><g class="label" style="" transform="translate(0, -27.099998474121094)"><rect></rect><g><rect class="background" style="stroke: none"></rect><text y="-10.1" style=""><tspan class="text-outer-tspan row" x="0" y="-0.1em" dy="1.1em"><tspan font-style="normal" class="text-inner-tspan" font-weight="normal">pagesmith-docs</tspan><tspan font-style="normal" class="text-inner-tspan" font-weight="normal"> init</tspan></tspan><tspan class="text-outer-tspan row" x="0" y="1em" dy="1.1em"><tspan font-style="normal" class="text-inner-tspan" font-weight="normal">Scaffold</tspan><tspan font-style="normal" class="text-inner-tspan" font-weight="normal"> or</tspan><tspan font-style="normal" class="text-inner-tspan" font-weight="normal"> backfill</tspan><tspan font-style="normal" class="text-inner-tspan" font-weight="normal"> config</tspan></tspan><tspan class="text-outer-tspan row" x="0" y="2.1em" dy="1.1em"><tspan font-style="normal" class="text-inner-tspan" font-weight="normal">and</tspan><tspan font-style="normal" class="text-inner-tspan" font-weight="normal"> starter</tspan><tspan font-style="normal" class="text-inner-tspan" font-weight="normal"> docs</tspan></tspan></text></g></g></g><g class="node default" id="gefcc066a-6de6-4a64-9479-ad379e1bdbc6-light-flowchart-dev-2" data-look="classic" transform="translate(124.4921875, 291.2999954223633)"><rect class="basic label-container" style="" x="-115.5" y="-33.29999923706055" width="231" height="66.5999984741211"></rect><g class="label" style="" transform="translate(0, -18.299999237060547)"><rect></rect><g><rect class="background" style="stroke: none"></rect><text y="-10.1" style=""><tspan class="text-outer-tspan row" x="0" y="-0.1em" dy="1.1em"><tspan font-style="normal" class="text-inner-tspan" font-weight="normal">pagesmith-docs</tspan><tspan font-style="normal" class="text-inner-tspan" font-weight="normal"> dev</tspan></tspan><tspan class="text-outer-tspan row" x="0" y="1em" dy="1.1em"><tspan font-style="normal" class="text-inner-tspan" font-weight="normal">Live-reload</tspan><tspan font-style="normal" class="text-inner-tspan" font-weight="normal"> editing</tspan><tspan font-style="normal" class="text-inner-tspan" font-weight="normal"> loop</tspan></tspan></text></g></g></g><g class="node default" id="gefcc066a-6de6-4a64-9479-ad379e1bdbc6-light-flowchart-build-3" data-look="classic" transform="translate(124.4921875, 425.49999237060547)"><rect class="basic label-container" style="" x="-113.9765625" y="-42.099998474121094" width="227.953125" height="84.19999694824219"></rect><g class="label" style="" transform="translate(0, -27.099998474121094)"><rect></rect><g><rect class="background" style="stroke: none"></rect><text y="-10.1" style=""><tspan class="text-outer-tspan row" x="0" y="-0.1em" dy="1.1em"><tspan font-style="normal" class="text-inner-tspan" font-weight="normal">pagesmith-docs</tspan><tspan font-style="normal" class="text-inner-tspan" font-weight="normal"> build</tspan></tspan><tspan class="text-outer-tspan row" x="0" y="1em" dy="1.1em"><tspan font-style="normal" class="text-inner-tspan" font-weight="normal">Static</tspan><tspan font-style="normal" class="text-inner-tspan" font-weight="normal"> output</tspan><tspan font-style="normal" class="text-inner-tspan" font-weight="normal"> +</tspan><tspan font-style="normal" class="text-inner-tspan" font-weight="normal"> assets</tspan><tspan font-style="normal" class="text-inner-tspan" font-weight="normal"> +</tspan></tspan><tspan class="text-outer-tspan row" x="0" y="2.1em" dy="1.1em"><tspan font-style="normal" class="text-inner-tspan" font-weight="normal">Pagefind</tspan></tspan></text></g></g></g><g class="node default" id="gefcc066a-6de6-4a64-9479-ad379e1bdbc6-light-flowchart-preview-4" data-look="classic" transform="translate(124.4921875, 559.6999893188477)"><rect class="basic label-container" style="" x="-116.4921875" y="-42.099998474121094" width="232.984375" height="84.19999694824219"></rect><g class="label" style="" transform="translate(0, -27.099998474121094)"><rect></rect><g><rect class="background" style="stroke: none"></rect><text y="-10.1" style=""><tspan class="text-outer-tspan row" x="0" y="-0.1em" dy="1.1em"><tspan font-style="normal" class="text-inner-tspan" font-weight="normal">pagesmith-docs</tspan><tspan font-style="normal" class="text-inner-tspan" font-weight="normal"> preview</tspan></tspan><tspan class="text-outer-tspan row" x="0" y="1em" dy="1.1em"><tspan font-style="normal" class="text-inner-tspan" font-weight="normal">Serve</tspan><tspan font-style="normal" class="text-inner-tspan" font-weight="normal"> built</tspan><tspan font-style="normal" class="text-inner-tspan" font-weight="normal"> output</tspan><tspan font-style="normal" class="text-inner-tspan" font-weight="normal"> from</tspan></tspan><tspan class="text-outer-tspan row" x="0" y="2.1em" dy="1.1em"><tspan font-style="normal" class="text-inner-tspan" font-weight="normal">disk</tspan></tspan></text></g></g></g><g class="node default" id="gefcc066a-6de6-4a64-9479-ad379e1bdbc6-light-flowchart-mcp-5" data-look="classic" transform="translate(516.66015625, 291.2999954223633)"><rect class="basic label-container" style="" x="-128.828125" y="-42.099998474121094" width="257.65625" height="84.19999694824219"></rect><g class="label" style="" transform="translate(0, -27.099998474121094)"><rect></rect><g><rect class="background" style="stroke: none"></rect><text y="-10.1" style=""><tspan class="text-outer-tspan row" x="0" y="-0.1em" dy="1.1em"><tspan font-style="normal" class="text-inner-tspan" font-weight="normal">pagesmith-docs</tspan><tspan font-style="normal" class="text-inner-tspan" font-weight="normal"> mcp</tspan><tspan font-style="normal" class="text-inner-tspan" font-weight="normal"> --stdio</tspan></tspan><tspan class="text-outer-tspan row" x="0" y="1em" dy="1.1em"><tspan font-style="normal" class="text-inner-tspan" font-weight="normal">Expose</tspan><tspan font-style="normal" class="text-inner-tspan" font-weight="normal"> docs-aware</tspan><tspan font-style="normal" class="text-inner-tspan" font-weight="normal"> MCP</tspan></tspan><tspan class="text-outer-tspan row" x="0" y="2.1em" dy="1.1em"><tspan font-style="normal" class="text-inner-tspan" font-weight="normal">tools</tspan></tspan></text></g></g></g></g></g></g><defs><filter id="gefcc066a-6de6-4a64-9479-ad379e1bdbc6-light-drop-shadow" height="130%" width="130%"><feDropShadow dx="4" dy="4" stdDeviation="0" flood-opacity="0.06" flood-color="#000000"></feDropShadow></filter></defs><defs><filter id="gefcc066a-6de6-4a64-9479-ad379e1bdbc6-light-drop-shadow-small" height="150%" width="150%"><feDropShadow dx="2" dy="2" stdDeviation="0" flood-opacity="0.06" flood-color="#000000"></feDropShadow></filter></defs></svg>