<svg id="ge08b2f41-4482-47ca-a53b-6f7d4ec7e7ef-dark" width="100%" xmlns="http://www.w3.org/2000/svg" xmlns:xlink="http://www.w3.org/1999/xlink" class="flowchart" style="max-width: 653.48828125px;" viewBox="0 0 653.48828125 609.800048828125" role="graphics-document document" aria-roledescription="flowchart-v2"><style>#ge08b2f41-4482-47ca-a53b-6f7d4ec7e7ef-dark{font-family:"trebuchet ms",verdana,arial,sans-serif;font-size:16px;fill:#e5e5e5;}@keyframes edge-animation-frame{from{stroke-dashoffset:0;}}@keyframes dash{to{stroke-dashoffset:0;}}#ge08b2f41-4482-47ca-a53b-6f7d4ec7e7ef-dark .edge-animation-slow{stroke-dasharray:9,5!important;stroke-dashoffset:900;animation:dash 50s linear infinite;stroke-linecap:round;}#ge08b2f41-4482-47ca-a53b-6f7d4ec7e7ef-dark .edge-animation-fast{stroke-dasharray:9,5!important;stroke-dashoffset:900;animation:dash 20s linear infinite;stroke-linecap:round;}#ge08b2f41-4482-47ca-a53b-6f7d4ec7e7ef-dark .error-icon{fill:#252525;}#ge08b2f41-4482-47ca-a53b-6f7d4ec7e7ef-dark .error-text{fill:#cccccc;stroke:#cccccc;}#ge08b2f41-4482-47ca-a53b-6f7d4ec7e7ef-dark .edge-thickness-normal{stroke-width:1px;}#ge08b2f41-4482-47ca-a53b-6f7d4ec7e7ef-dark .edge-thickness-thick{stroke-width:3.5px;}#ge08b2f41-4482-47ca-a53b-6f7d4ec7e7ef-dark .edge-pattern-solid{stroke-dasharray:0;}#ge08b2f41-4482-47ca-a53b-6f7d4ec7e7ef-dark .edge-thickness-invisible{stroke-width:0;fill:none;}#ge08b2f41-4482-47ca-a53b-6f7d4ec7e7ef-dark .edge-pattern-dashed{stroke-dasharray:3;}#ge08b2f41-4482-47ca-a53b-6f7d4ec7e7ef-dark .edge-pattern-dotted{stroke-dasharray:2;}#ge08b2f41-4482-47ca-a53b-6f7d4ec7e7ef-dark .marker{fill:#cccccc;stroke:#cccccc;}#ge08b2f41-4482-47ca-a53b-6f7d4ec7e7ef-dark .marker.cross{stroke:#cccccc;}#ge08b2f41-4482-47ca-a53b-6f7d4ec7e7ef-dark svg{font-family:"trebuchet ms",verdana,arial,sans-serif;font-size:16px;}#ge08b2f41-4482-47ca-a53b-6f7d4ec7e7ef-dark p{margin:0;}#ge08b2f41-4482-47ca-a53b-6f7d4ec7e7ef-dark .label{font-family:"trebuchet ms",verdana,arial,sans-serif;color:#e5e5e5;}#ge08b2f41-4482-47ca-a53b-6f7d4ec7e7ef-dark .cluster-label text{fill:#e5e5e5;}#ge08b2f41-4482-47ca-a53b-6f7d4ec7e7ef-dark .cluster-label span{color:#e5e5e5;}#ge08b2f41-4482-47ca-a53b-6f7d4ec7e7ef-dark .cluster-label span p{background-color:transparent;}#ge08b2f41-4482-47ca-a53b-6f7d4ec7e7ef-dark .label text,#ge08b2f41-4482-47ca-a53b-6f7d4ec7e7ef-dark span{fill:#e5e5e5;color:#e5e5e5;}#ge08b2f41-4482-47ca-a53b-6f7d4ec7e7ef-dark .node rect,#ge08b2f41-4482-47ca-a53b-6f7d4ec7e7ef-dark .node circle,#ge08b2f41-4482-47ca-a53b-6f7d4ec7e7ef-dark .node ellipse,#ge08b2f41-4482-47ca-a53b-6f7d4ec7e7ef-dark .node polygon,#ge08b2f41-4482-47ca-a53b-6f7d4ec7e7ef-dark .node path{fill:#2d2d2d;stroke:#555555;stroke-width:1px;}#ge08b2f41-4482-47ca-a53b-6f7d4ec7e7ef-dark .rough-node .label text,#ge08b2f41-4482-47ca-a53b-6f7d4ec7e7ef-dark .node .label text,#ge08b2f41-4482-47ca-a53b-6f7d4ec7e7ef-dark .image-shape .label,#ge08b2f41-4482-47ca-a53b-6f7d4ec7e7ef-dark .icon-shape .label{text-anchor:middle;}#ge08b2f41-4482-47ca-a53b-6f7d4ec7e7ef-dark .node .katex path{fill:#000;stroke:#000;stroke-width:1px;}#ge08b2f41-4482-47ca-a53b-6f7d4ec7e7ef-dark .rough-node .label,#ge08b2f41-4482-47ca-a53b-6f7d4ec7e7ef-dark .node .label,#ge08b2f41-4482-47ca-a53b-6f7d4ec7e7ef-dark .image-shape .label,#ge08b2f41-4482-47ca-a53b-6f7d4ec7e7ef-dark .icon-shape .label{text-align:center;}#ge08b2f41-4482-47ca-a53b-6f7d4ec7e7ef-dark .node.clickable{cursor:pointer;}#ge08b2f41-4482-47ca-a53b-6f7d4ec7e7ef-dark .root .anchor path{fill:#cccccc!important;stroke-width:0;stroke:#cccccc;}#ge08b2f41-4482-47ca-a53b-6f7d4ec7e7ef-dark .arrowheadPath{fill:#cccccc;}#ge08b2f41-4482-47ca-a53b-6f7d4ec7e7ef-dark .edgePath .path{stroke:#cccccc;stroke-width:1px;}#ge08b2f41-4482-47ca-a53b-6f7d4ec7e7ef-dark .flowchart-link{stroke:#cccccc;fill:none;}#ge08b2f41-4482-47ca-a53b-6f7d4ec7e7ef-dark .edgeLabel{background-color:#1e1e1e;text-align:center;}#ge08b2f41-4482-47ca-a53b-6f7d4ec7e7ef-dark .edgeLabel p{background-color:#1e1e1e;}#ge08b2f41-4482-47ca-a53b-6f7d4ec7e7ef-dark .edgeLabel rect{opacity:0.5;background-color:#1e1e1e;fill:#1e1e1e;}#ge08b2f41-4482-47ca-a53b-6f7d4ec7e7ef-dark .labelBkg{background-color:rgba(30, 30, 30, 0.5);}#ge08b2f41-4482-47ca-a53b-6f7d4ec7e7ef-dark .cluster rect{fill:#1e1e1e;stroke:#555555;stroke-width:1px;}#ge08b2f41-4482-47ca-a53b-6f7d4ec7e7ef-dark .cluster text{fill:#e5e5e5;}#ge08b2f41-4482-47ca-a53b-6f7d4ec7e7ef-dark .cluster span{color:#e5e5e5;}#ge08b2f41-4482-47ca-a53b-6f7d4ec7e7ef-dark div.mermaidTooltip{position:absolute;text-align:center;max-width:200px;padding:2px;font-family:"trebuchet ms",verdana,arial,sans-serif;font-size:12px;background:#252525;border:1px solid #555555;border-radius:2px;pointer-events:none;z-index:100;}#ge08b2f41-4482-47ca-a53b-6f7d4ec7e7ef-dark .flowchartTitleText{text-anchor:middle;font-size:18px;fill:#e5e5e5;}#ge08b2f41-4482-47ca-a53b-6f7d4ec7e7ef-dark rect.text{fill:none;stroke-width:0;}#ge08b2f41-4482-47ca-a53b-6f7d4ec7e7ef-dark .icon-shape,#ge08b2f41-4482-47ca-a53b-6f7d4ec7e7ef-dark .image-shape{background-color:#1e1e1e;text-align:center;}#ge08b2f41-4482-47ca-a53b-6f7d4ec7e7ef-dark .icon-shape p,#ge08b2f41-4482-47ca-a53b-6f7d4ec7e7ef-dark .image-shape p{background-color:#1e1e1e;padding:2px;}#ge08b2f41-4482-47ca-a53b-6f7d4ec7e7ef-dark .icon-shape .label rect,#ge08b2f41-4482-47ca-a53b-6f7d4ec7e7ef-dark .image-shape .label rect{opacity:0.5;background-color:#1e1e1e;fill:#1e1e1e;}#ge08b2f41-4482-47ca-a53b-6f7d4ec7e7ef-dark .label-icon{display:inline-block;height:1em;overflow:visible;vertical-align:-0.125em;}#ge08b2f41-4482-47ca-a53b-6f7d4ec7e7ef-dark .node .label-icon path{fill:currentColor;stroke:revert;stroke-width:revert;}#ge08b2f41-4482-47ca-a53b-6f7d4ec7e7ef-dark .node .neo-node{stroke:#555555;}#ge08b2f41-4482-47ca-a53b-6f7d4ec7e7ef-dark [data-look="neo"].node rect,#ge08b2f41-4482-47ca-a53b-6f7d4ec7e7ef-dark [data-look="neo"].cluster rect,#ge08b2f41-4482-47ca-a53b-6f7d4ec7e7ef-dark [data-look="neo"].node polygon{stroke:url(#ge08b2f41-4482-47ca-a53b-6f7d4ec7e7ef-dark-gradient);filter:drop-shadow( 1px 2px 2px rgba(185,185,185,1));}#ge08b2f41-4482-47ca-a53b-6f7d4ec7e7ef-dark [data-look="neo"].node path{stroke:url(#ge08b2f41-4482-47ca-a53b-6f7d4ec7e7ef-dark-gradient);stroke-width:1px;}#ge08b2f41-4482-47ca-a53b-6f7d4ec7e7ef-dark [data-look="neo"].node .outer-path{filter:drop-shadow( 1px 2px 2px rgba(185,185,185,1));}#ge08b2f41-4482-47ca-a53b-6f7d4ec7e7ef-dark [data-look="neo"].node .neo-line path{stroke:#555555;filter:none;}#ge08b2f41-4482-47ca-a53b-6f7d4ec7e7ef-dark [data-look="neo"].node circle{stroke:url(#ge08b2f41-4482-47ca-a53b-6f7d4ec7e7ef-dark-gradient);filter:drop-shadow( 1px 2px 2px rgba(185,185,185,1));}#ge08b2f41-4482-47ca-a53b-6f7d4ec7e7ef-dark [data-look="neo"].node circle .state-start{fill:#000000;}#ge08b2f41-4482-47ca-a53b-6f7d4ec7e7ef-dark [data-look="neo"].icon-shape .icon{fill:url(#ge08b2f41-4482-47ca-a53b-6f7d4ec7e7ef-dark-gradient);filter:drop-shadow( 1px 2px 2px rgba(185,185,185,1));}#ge08b2f41-4482-47ca-a53b-6f7d4ec7e7ef-dark [data-look="neo"].icon-shape .icon-neo path{stroke:url(#ge08b2f41-4482-47ca-a53b-6f7d4ec7e7ef-dark-gradient);filter:drop-shadow( 1px 2px 2px rgba(185,185,185,1));}#ge08b2f41-4482-47ca-a53b-6f7d4ec7e7ef-dark :root{--mermaid-font-family:"trebuchet ms",verdana,arial,sans-serif;}</style><g><marker id="ge08b2f41-4482-47ca-a53b-6f7d4ec7e7ef-dark_flowchart-v2-pointEnd" class="marker flowchart-v2" viewBox="0 0 10 10" refX="5" refY="5" markerUnits="userSpaceOnUse" markerWidth="8" markerHeight="8" orient="auto"><path d="M 0 0 L 10 5 L 0 10 z" class="arrowMarkerPath" style="stroke-width: 1; stroke-dasharray: 1, 0;"></path></marker><marker id="ge08b2f41-4482-47ca-a53b-6f7d4ec7e7ef-dark_flowchart-v2-pointStart" class="marker flowchart-v2" viewBox="0 0 10 10" refX="4.5" refY="5" markerUnits="userSpaceOnUse" markerWidth="8" markerHeight="8" orient="auto"><path d="M 0 5 L 10 10 L 10 0 z" class="arrowMarkerPath" style="stroke-width: 1; stroke-dasharray: 1, 0;"></path></marker><marker id="ge08b2f41-4482-47ca-a53b-6f7d4ec7e7ef-dark_flowchart-v2-pointEnd-margin" class="marker flowchart-v2" viewBox="0 0 11.5 14" refX="11.5" refY="7" markerUnits="userSpaceOnUse" markerWidth="10.5" markerHeight="14" orient="auto"><path d="M 0 0 L 11.5 7 L 0 14 z" class="arrowMarkerPath" style="stroke-width: 0; stroke-dasharray: 1, 0;"></path></marker><marker id="ge08b2f41-4482-47ca-a53b-6f7d4ec7e7ef-dark_flowchart-v2-pointStart-margin" class="marker flowchart-v2" viewBox="0 0 11.5 14" refX="1" refY="7" markerUnits="userSpaceOnUse" markerWidth="11.5" markerHeight="14" orient="auto"><polygon points="0,7 11.5,14 11.5,0" class="arrowMarkerPath" style="stroke-width: 0; stroke-dasharray: 1, 0;"></polygon></marker><marker id="ge08b2f41-4482-47ca-a53b-6f7d4ec7e7ef-dark_flowchart-v2-circleEnd" class="marker flowchart-v2" viewBox="0 0 10 10" refX="11" refY="5" markerUnits="userSpaceOnUse" markerWidth="11" markerHeight="11" orient="auto"><circle cx="5" cy="5" r="5" class="arrowMarkerPath" style="stroke-width: 1; stroke-dasharray: 1, 0;"></circle></marker><marker id="ge08b2f41-4482-47ca-a53b-6f7d4ec7e7ef-dark_flowchart-v2-circleStart" class="marker flowchart-v2" viewBox="0 0 10 10" refX="-1" refY="5" markerUnits="userSpaceOnUse" markerWidth="11" markerHeight="11" orient="auto"><circle cx="5" cy="5" r="5" class="arrowMarkerPath" style="stroke-width: 1; stroke-dasharray: 1, 0;"></circle></marker><marker id="ge08b2f41-4482-47ca-a53b-6f7d4ec7e7ef-dark_flowchart-v2-circleEnd-margin" class="marker flowchart-v2" viewBox="0 0 10 10" refY="5" refX="12.25" markerUnits="userSpaceOnUse" markerWidth="14" markerHeight="14" orient="auto"><circle cx="5" cy="5" r="5" class="arrowMarkerPath" style="stroke-width: 0; stroke-dasharray: 1, 0;"></circle></marker><marker id="ge08b2f41-4482-47ca-a53b-6f7d4ec7e7ef-dark_flowchart-v2-circleStart-margin" class="marker flowchart-v2" viewBox="0 0 10 10" refX="-2" refY="5" markerUnits="userSpaceOnUse" markerWidth="14" markerHeight="14" orient="auto"><circle cx="5" cy="5" r="5" class="arrowMarkerPath" style="stroke-width: 0; stroke-dasharray: 1, 0;"></circle></marker><marker id="ge08b2f41-4482-47ca-a53b-6f7d4ec7e7ef-dark_flowchart-v2-crossEnd" class="marker cross flowchart-v2" viewBox="0 0 11 11" refX="12" refY="5.2" markerUnits="userSpaceOnUse" markerWidth="11" markerHeight="11" orient="auto"><path d="M 1,1 l 9,9 M 10,1 l -9,9" class="arrowMarkerPath" style="stroke-width: 2; stroke-dasharray: 1, 0;"></path></marker><marker id="ge08b2f41-4482-47ca-a53b-6f7d4ec7e7ef-dark_flowchart-v2-crossStart" class="marker cross flowchart-v2" viewBox="0 0 11 11" refX="-1" refY="5.2" markerUnits="userSpaceOnUse" markerWidth="11" markerHeight="11" orient="auto"><path d="M 1,1 l 9,9 M 10,1 l -9,9" class="arrowMarkerPath" style="stroke-width: 2; stroke-dasharray: 1, 0;"></path></marker><marker id="ge08b2f41-4482-47ca-a53b-6f7d4ec7e7ef-dark_flowchart-v2-crossEnd-margin" class="marker cross flowchart-v2" viewBox="0 0 15 15" refX="17.7" refY="7.5" markerUnits="userSpaceOnUse" markerWidth="12" markerHeight="12" orient="auto"><path d="M 1,1 L 14,14 M 1,14 L 14,1" class="arrowMarkerPath" style="stroke-width: 2.5;"></path></marker><marker id="ge08b2f41-4482-47ca-a53b-6f7d4ec7e7ef-dark_flowchart-v2-crossStart-margin" class="marker cross flowchart-v2" viewBox="0 0 15 15" refX="-3.5" refY="7.5" markerUnits="userSpaceOnUse" markerWidth="12" markerHeight="12" orient="auto"><path d="M 1,1 L 14,14 M 1,14 L 14,1" class="arrowMarkerPath" style="stroke-width: 2.5; stroke-dasharray: 1, 0;"></path></marker><g class="root"><g class="clusters"></g><g class="edgePaths"><path d="M203.574,42.5L203.491,46.583C203.408,50.667,203.241,58.833,203.158,66.417C203.074,74,203.074,81,203.074,84.5L203.074,88" id="ge08b2f41-4482-47ca-a53b-6f7d4ec7e7ef-dark-L_start_init_0" class="edge-thickness-normal edge-pattern-solid edge-thickness-normal edge-pattern-solid flowchart-link" style=";" data-edge="true" data-et="edge" data-id="L_start_init_0" data-points="W3sieCI6MjAzLjU3NDIxODc1LCJ5Ijo0Mi41fSx7IngiOjIwMy4wNzQyMTg3NSwieSI6Njd9LHsieCI6MjAzLjA3NDIxODc1LCJ5Ijo5Mn1d" data-look="classic" marker-end="url(#ge08b2f41-4482-47ca-a53b-6f7d4ec7e7ef-dark_flowchart-v2-pointEnd)"></path><path d="M139.96,42.5L124.285,46.583C108.61,50.667,77.26,58.833,61.585,74.1C45.91,89.367,45.91,111.733,45.91,136.017C45.91,160.3,45.91,186.5,52.987,206.679C60.064,226.857,74.218,241.014,81.295,248.093L88.372,255.171" id="ge08b2f41-4482-47ca-a53b-6f7d4ec7e7ef-dark-L_start_dev_0" class="edge-thickness-normal edge-pattern-solid edge-thickness-normal edge-pattern-solid flowchart-link" style=";" data-edge="true" data-et="edge" data-id="L_start_dev_0" data-points="W3sieCI6MTM5Ljk2MDE5MzQ1MjM4MDk2LCJ5Ijo0Mi41fSx7IngiOjQ1LjkxMDE1NjI1LCJ5Ijo2N30seyJ4Ijo0NS45MTAxNTYyNSwieSI6MTM0LjA5OTk5ODQ3NDEyMTF9LHsieCI6NDUuOTEwMTU2MjUsInkiOjIxMi42OTk5OTY5NDgyNDIyfSx7IngiOjkxLjE5OTgwMDMzMTE0NzM0LCJ5IjoyNTcuOTk5OTk2MTg1MzAyNzN9XQ==" data-look="classic" marker-end="url(#ge08b2f41-4482-47ca-a53b-6f7d4ec7e7ef-dark_flowchart-v2-pointEnd)"></path><path d="M203.074,176.2L203.074,182.283C203.074,188.367,203.074,200.533,195.997,213.695C188.92,226.857,174.767,241.014,167.69,248.093L160.613,255.171" id="ge08b2f41-4482-47ca-a53b-6f7d4ec7e7ef-dark-L_init_dev_0" class="edge-thickness-normal edge-pattern-solid edge-thickness-normal edge-pattern-solid flowchart-link" style=";" data-edge="true" data-et="edge" data-id="L_init_dev_0" data-points="W3sieCI6MjAzLjA3NDIxODc1LCJ5IjoxNzYuMTk5OTk2OTQ4MjQyMn0seyJ4IjoyMDMuMDc0MjE4NzUsInkiOjIxMi42OTk5OTY5NDgyNDIyfSx7IngiOjE1Ny43ODQ1NzQ2Njg4NTI2NiwieSI6MjU3Ljk5OTk5NjE4NTMwMjczfV0=" data-look="classic" marker-end="url(#ge08b2f41-4482-47ca-a53b-6f7d4ec7e7ef-dark_flowchart-v2-pointEnd)"></path><path d="M124.492,324.6L124.492,330.233C124.492,335.867,124.492,347.133,124.492,356.267C124.492,365.4,124.492,372.4,124.492,375.9L124.492,379.4" id="ge08b2f41-4482-47ca-a53b-6f7d4ec7e7ef-dark-L_dev_build_0" class="edge-thickness-normal edge-pattern-solid edge-thickness-normal edge-pattern-solid flowchart-link" style=";" data-edge="true" data-et="edge" data-id="L_dev_build_0" data-points="W3sieCI6MTI0LjQ5MjE4NzUsInkiOjMyNC41OTk5OTQ2NTk0MjM4fSx7IngiOjEyNC40OTIxODc1LCJ5IjozNTguMzk5OTkzODk2NDg0NH0seyJ4IjoxMjQuNDkyMTg3NSwieSI6MzgzLjM5OTk5Mzg5NjQ4NDR9XQ==" data-look="classic" marker-end="url(#ge08b2f41-4482-47ca-a53b-6f7d4ec7e7ef-dark_flowchart-v2-pointEnd)"></path><path d="M124.492,467.6L124.492,471.767C124.492,475.933,124.492,484.267,124.492,491.933C124.492,499.6,124.492,506.6,124.492,510.1L124.492,513.6" id="ge08b2f41-4482-47ca-a53b-6f7d4ec7e7ef-dark-L_build_preview_0" class="edge-thickness-normal edge-pattern-solid edge-thickness-normal edge-pattern-solid flowchart-link" style=";" data-edge="true" data-et="edge" data-id="L_build_preview_0" data-points="W3sieCI6MTI0LjQ5MjE4NzUsInkiOjQ2Ny41OTk5OTA4NDQ3MjY1Nn0seyJ4IjoxMjQuNDkyMTg3NSwieSI6NDkyLjU5OTk5MDg0NDcyNjU2fSx7IngiOjEyNC40OTIxODc1LCJ5Ijo1MTcuNTk5OTkwODQ0NzI2Nn1d" data-look="classic" marker-end="url(#ge08b2f41-4482-47ca-a53b-6f7d4ec7e7ef-dark_flowchart-v2-pointEnd)"></path><path d="M291.499,40.116L318.872,44.596C346.245,49.077,400.992,58.039,428.365,73.703C455.738,89.367,455.738,111.733,455.738,136.017C455.738,160.3,455.738,186.5,460.045,205.156C464.352,223.813,472.965,234.926,477.272,240.482L481.579,246.038" id="ge08b2f41-4482-47ca-a53b-6f7d4ec7e7ef-dark-L_start_mcp_0" class="edge-thickness-normal edge-pattern-dotted edge-thickness-normal edge-pattern-solid flowchart-link" style=";" data-edge="true" data-et="edge" data-id="L_start_mcp_0" data-points="W3sieCI6MjkxLjQ5ODkwMzUyMTg2ODQ0LCJ5Ijo0MC4xMTU1OTk1NTg4NzQ2NH0seyJ4Ijo0NTUuNzM4MjgxMjUsInkiOjY3fSx7IngiOjQ1NS43MzgyODEyNSwieSI6MTM0LjA5OTk5ODQ3NDEyMTF9LHsieCI6NDU1LjczODI4MTI1LCJ5IjoyMTIuNjk5OTk2OTQ4MjQyMn0seyJ4Ijo0ODQuMDI4OTc0Mzg4MjcxOSwieSI6MjQ5LjE5OTk5Njk0ODI0MjJ9XQ==" data-look="classic" marker-end="url(#ge08b2f41-4482-47ca-a53b-6f7d4ec7e7ef-dark_flowchart-v2-pointEnd)"></path><path d="M325.238,159.739L367.296,168.566C409.353,177.393,493.467,195.046,531.218,209.43C568.969,223.813,560.355,234.926,556.049,240.482L551.742,246.038" id="ge08b2f41-4482-47ca-a53b-6f7d4ec7e7ef-dark-L_init_mcp_0" class="edge-thickness-normal edge-pattern-dotted edge-thickness-normal edge-pattern-solid flowchart-link" style=";" data-edge="true" data-et="edge" data-id="L_init_mcp_0" data-points="W3sieCI6MzI1LjIzODI4MTI1LCJ5IjoxNTkuNzM5MjM2OTc3NTcwMDJ9LHsieCI6NTc3LjU4MjAzMTI1LCJ5IjoyMTIuNjk5OTk2OTQ4MjQyMn0seyJ4Ijo1NDkuMjkxMzM4MTExNzI4MSwieSI6MjQ5LjE5OTk5Njk0ODI0MjJ9XQ==" data-look="classic" marker-end="url(#ge08b2f41-4482-47ca-a53b-6f7d4ec7e7ef-dark_flowchart-v2-pointEnd)"></path></g><g class="edgeLabels"><g class="edgeLabel"><g class="label" data-id="L_start_init_0" transform="translate(0, 0)"><text y="-10.1" text-anchor="middle"><tspan class="text-outer-tspan row" x="0" y="-0.1em" dy="1.1em" text-anchor="middle"></tspan></text></g></g><g><rect class="background" style="stroke: none"></rect></g><g class="edgeLabel"><g class="label" data-id="L_start_dev_0" transform="translate(0, 0)"><text y="-10.1" text-anchor="middle"><tspan class="text-outer-tspan row" x="0" y="-0.1em" dy="1.1em" text-anchor="middle"></tspan></text></g></g><g><rect class="background" style="stroke: none"></rect></g><g class="edgeLabel"><g class="label" data-id="L_init_dev_0" transform="translate(0, 0)"><text y="-10.1" text-anchor="middle"><tspan class="text-outer-tspan row" x="0" y="-0.1em" dy="1.1em" text-anchor="middle"></tspan></text></g></g><g><rect class="background" style="stroke: none"></rect></g><g class="edgeLabel"><g class="label" data-id="L_dev_build_0" transform="translate(0, 0)"><text y="-10.1" text-anchor="middle"><tspan class="text-outer-tspan row" x="0" y="-0.1em" dy="1.1em" text-anchor="middle"></tspan></text></g></g><g><rect class="background" style="stroke: none"></rect></g><g class="edgeLabel"><g class="label" data-id="L_build_preview_0" transform="translate(0, 0)"><text y="-10.1" text-anchor="middle"><tspan class="text-outer-tspan row" x="0" y="-0.1em" dy="1.1em" text-anchor="middle"></tspan></text></g></g><g><rect class="background" style="stroke: none"></rect></g><g class="edgeLabel" transform="translate(455.73828125, 134.0999984741211)"><g class="label" data-id="L_start_mcp_0" transform="translate(0, -10.5)"><g><rect class="background" style="" x="-95.5" y="-1" width="191" height="23"></rect><text y="-10.1" text-anchor="middle" style=""><tspan class="text-outer-tspan row" x="0" y="-0.1em" dy="1.1em" text-anchor="middle"><tspan font-style="normal" class="text-inner-tspan" font-weight="normal">assistant</tspan><tspan font-style="normal" class="text-inner-tspan" font-weight="normal"> or</tspan><tspan font-style="normal" class="text-inner-tspan" font-weight="normal"> tooling</tspan><tspan font-style="normal" class="text-inner-tspan" font-weight="normal"> access</tspan></tspan></text></g></g></g><g class="edgeLabel" transform="translate(474.00794, 190.96234)"><g class="label" data-id="L_init_mcp_0" transform="translate(0, -10.5)"><g><rect class="background" style="" x="-101.84375" y="-1" width="203.6875" height="23"></rect><text y="-10.1" text-anchor="middle" style=""><tspan class="text-outer-tspan row" x="0" y="-0.1em" dy="1.1em" text-anchor="middle"><tspan font-style="normal" class="text-inner-tspan" font-weight="normal">project</tspan><tspan font-style="normal" class="text-inner-tspan" font-weight="normal"> metadata</tspan><tspan font-style="normal" class="text-inner-tspan" font-weight="normal"> +</tspan><tspan font-style="normal" class="text-inner-tspan" font-weight="normal"> content</tspan></tspan></text></g></g></g></g><g class="nodes"><g class="node default" id="ge08b2f41-4482-47ca-a53b-6f7d4ec7e7ef-dark-flowchart-start-0" data-look="classic" transform="translate(203.07421875, 25)"><g class="basic label-container outer-path"><path d="M-79.2578125 -17 C-22.717561105080698 -17, 33.822690289838604 -17, 79.2578125 -17 C79.2578125 -17, 79.2578125 -17, 79.2578125 -17 C79.56686260336053 -16.990089364714763, 79.87591270672107 -16.98017872942952, 80.34700623967211 -16.965071676755716 C80.72891852354603 -16.928229058047123, 81.11083080741993 -16.89138643933853, 81.4317242486366 -16.860430234995185 C81.75487346519074 -16.808185975722314, 82.07802268174488 -16.755941716449446, 82.50750918792333 -16.686505668848113 C82.77941477856021 -16.624444992135047, 83.0513203691971 -16.562384315421976, 83.56994042646163 -16.4440126716635 C83.92567396433576 -16.3384328249059, 84.2814075022099 -16.2328529781483, 84.61465220640156 -16.133947699181366 C84.83571080009601 -16.05259609325857, 85.05676939379046 -15.971244487335772, 85.63735158294936 -15.757584874882369 C85.89878449171401 -15.641856281303957, 86.16021740047866 -15.526127687725547, 86.63383606499849 -15.316470754341125 C86.92866061155058 -15.162660977249029, 87.22348515810269 -15.008851200156931, 87.60001088406693 -14.812417970097622 C87.89167146942994 -14.635611609262721, 88.18333205479294 -14.45880524842782, 88.53190582057933 -14.247497783161291 C88.79154333721463 -14.066385891083442, 89.05118085384996 -13.885273999005594, 89.42569151835067 -13.624031571755262 C89.74790943575947 -13.367071357200647, 90.07012735316825 -13.110111142646032, 90.2776952202324 -12.944581292275288 C90.49841118201789 -12.74413289560604, 90.71912714380339 -12.543684498936791, 91.08441586025927 -12.21193895166137 C91.37590899179989 -11.910948361314498, 91.66740212334052 -11.609957770967625, 91.84253845028036 -11.42911513444239 C92.03523350206133 -11.202764561961404, 92.22792855384229 -10.976413989480418, 92.54894770195651 -10.59932663159847 C92.74189364894639 -10.340796640369403, 92.93483959593627 -10.082266649140337, 93.20074082814824 -9.725983222076888 C93.35394923078077 -9.490613973416757, 93.50715763341331 -9.255244724756627, 93.79523947109088 -8.812673661278927 C93.96602593270254 -8.509425004682907, 94.13681239431419 -8.206176348086885, 94.330000708341 -7.863150934094199 C94.4991694098292 -7.511868505823608, 94.66833811131738 -7.160586077553017, 94.80282709126881 -6.881316833080699 C94.91804513714975 -6.596726032165396, 95.0332631830307 -6.3121352312500925, 95.21177567484592 -5.871205925162238 C95.31373206880036 -5.564129511116807, 95.4156884627548 -5.257053097071375, 95.55516600162323 -4.836968972727556 C95.6283341414648 -4.557947144239229, 95.70150228130638 -4.278925315750902, 95.831587007091 -3.7828558772573464 C95.89712870859991 -3.4463130922526246, 95.96267041010881 -3.109770307247903, 96.03990281804565 -2.713198215567453 C96.08419618823403 -2.3696675831016396, 96.1284895584224 -2.0261369506358258, 96.17925742013637 -1.632391440430593 C96.1981934622138 -1.3374473001766982, 96.21712950429121 -1.0425031599228036, 96.2490781754117 -0.5448768187181379 C96.2490781754117 -0.244769182849009, 96.2490781754117 0.05533845302011986, 96.2490781754117 0.5448768187181336 C96.2258257201978 0.9070525777184086, 96.20257326498393 1.2692283367186836, 96.17925742013637 1.6323914404305815 C96.14345875591128 1.910038810914545, 96.10766009168618 2.187686181398509, 96.03990281804565 2.7131982155674415 C95.96563706753872 3.0945371483485595, 95.89137131703181 3.4758760811296776, 95.831587007091 3.782855877257343 C95.74800054467474 4.101607285052512, 95.66441408225849 4.420358692847681, 95.55516600162323 4.836968972727545 C95.47071098257533 5.091334034019917, 95.38625596352742 5.34569909531229, 95.21177567484592 5.871205925162227 C95.12742284388605 6.079559048484162, 95.04307001292618 6.287912171806097, 94.80282709126881 6.881316833080694 C94.70133365064541 7.092070134146921, 94.59984021002202 7.302823435213148, 94.330000708341 7.863150934094196 C94.11822677112575 8.239177004056364, 93.9064528339105 8.615203074018533, 93.79523947109088 8.812673661278923 C93.6007055536172 9.111529998189575, 93.40617163614354 9.410386335100227, 93.20074082814826 9.725983222076879 C93.02106053520308 9.966738445411979, 92.8413802422579 10.20749366874708, 92.54894770195651 10.599326631598467 C92.38439002931483 10.792625437480215, 92.21983235667315 10.98592424336196, 91.84253845028037 11.42911513444238 C91.54952940368197 11.731671031545348, 91.25652035708356 12.034226928648314, 91.08441586025927 12.211938951661365 C90.80545759153081 12.465281470489224, 90.52649932280235 12.718623989317082, 90.27769522023242 12.944581292275275 C89.95813760617513 13.19941998570072, 89.63857999211783 13.454258679126166, 89.42569151835067 13.62403157175526 C89.20147938487993 13.780432250077627, 88.97726725140919 13.936832928399994, 88.53190582057934 14.247497783161286 C88.19766919573851 14.450113989332227, 87.86343257089769 14.652730195503167, 87.60001088406695 14.81241797009762 C87.24246904250997 14.998947319821415, 86.88492720095299 15.185476669545208, 86.63383606499849 15.316470754341124 C86.2927618903677 15.467454173844265, 85.9516877157369 15.618437593347407, 85.63735158294936 15.757584874882367 C85.24778452825242 15.900949152129217, 84.8582174735555 16.044313429376068, 84.61465220640156 16.133947699181363 C84.31678917668653 16.22235188288584, 84.0189261469715 16.31075606659031, 83.56994042646164 16.444012671663497 C83.26649398202738 16.513272342432508, 82.96304753759313 16.582532013201522, 82.50750918792333 16.68650566884811 C82.1323812821969 16.7471534394856, 81.75725337647046 16.807801210123095, 81.43172424863661 16.86043023499518 C81.0712508393714 16.895204671254294, 80.7107774301062 16.929979107513404, 80.34700623967211 16.965071676755716 C79.98593394873053 16.976650562341636, 79.62486165778897 16.98822944792755, 79.2578125 17 C79.2578125 17, 79.2578125 17, 79.2578125 17 C24.56816017832385 17, -30.1214921433523 17, -79.2578125 17 C-79.53492104678213 16.99111366826376, -79.81202959356428 16.982227336527522, -80.34700623967211 16.965071676755716 C-80.58192236226569 16.942409600937086, -80.81683848485926 16.919747525118456, -81.4317242486366 16.86043023499518 C-81.71708239606644 16.814295742704207, -82.00244054349629 16.768161250413236, -82.50750918792333 16.68650566884811 C-82.80905661069032 16.617679437382375, -83.11060403345732 16.548853205916643, -83.56994042646161 16.4440126716635 C-83.84961581463008 16.361006484501168, -84.12929120279857 16.278000297338835, -84.61465220640154 16.13394769918137 C-84.94822728043603 16.0111889884025, -85.28180235447051 15.888430277623627, -85.63735158294936 15.757584874882369 C-85.88306289901878 15.648815764025661, -86.1287742150882 15.540046653168952, -86.63383606499849 15.316470754341127 C-87.01594146741378 15.117126610651255, -87.39804686982909 14.917782466961384, -87.60001088406693 14.812417970097624 C-87.95687034841617 14.596087665670126, -88.3137298127654 14.379757361242628, -88.53190582057931 14.247497783161299 C-88.74730909215951 14.097241785564291, -88.96271236373971 13.946985787967284, -89.42569151835067 13.624031571755264 C-89.69790682459097 13.406947108982157, -89.97012213083126 13.189862646209049, -90.2776952202324 12.94458129227529 C-90.51010869215418 12.733509526399427, -90.74252216407595 12.522437760523562, -91.08441586025926 12.211938951661377 C-91.26490293489402 12.025571228836565, -91.44539000952881 11.839203506011753, -91.84253845028036 11.429115134442386 C-92.01193697482765 11.23012998846003, -92.18133549937494 11.031144842477675, -92.54894770195651 10.599326631598473 C-92.80389371556504 10.257722199422686, -93.05883972917357 9.916117767246899, -93.20074082814824 9.72598322207689 C-93.36032985025686 9.480811628465254, -93.5199188723655 9.235640034853619, -93.79523947109088 8.812673661278936 C-93.99867106955114 8.451460258529668, -94.20210266801138 8.090246855780398, -94.330000708341 7.863150934094201 C-94.46129942535083 7.590506338880785, -94.59259814236067 7.317861743667369, -94.80282709126881 6.881316833080701 C-94.91383339967868 6.607129105147354, -95.02483970808855 6.332941377214008, -95.21177567484592 5.87120592516224 C-95.34709336628232 5.463650598502062, -95.4824110577187 5.056095271841883, -95.55516600162323 4.8369689727275516 C-95.63664376942639 4.5262589314062165, -95.71812153722952 4.215548890084881, -95.831587007091 3.782855877257349 C-95.87470525204958 3.56145280243935, -95.91782349700816 3.3400497276213508, -96.03990281804565 2.713198215567455 C-96.0895779515622 2.327927689477706, -96.13925308507875 1.942657163387957, -96.17925742013637 1.6323914404306026 C-96.20626848870077 1.2116722445979535, -96.23327955726518 0.7909530487653044, -96.2490781754117 0.54487681871814 C-96.2490781754117 0.1383370225913671, -96.2490781754117 -0.2682027735354058, -96.2490781754117 -0.5448768187181317 C-96.23383418396143 -0.7823142902843585, -96.21859019251117 -1.0197517618505851, -96.17925742013637 -1.6323914404305793 C-96.13859776351808 -1.947739708004651, -96.09793810689979 -2.2630879755787228, -96.03990281804565 -2.713198215567447 C-95.97087563216657 -3.0676382261555992, -95.9018484462875 -3.4220782367437517, -95.831587007091 -3.782855877257341 C-95.7464852044083 -4.107385934241061, -95.66138340172562 -4.431915991224781, -95.55516600162323 -4.836968972727544 C-95.46883119777544 -5.096995646334145, -95.38249639392765 -5.357022319940747, -95.21177567484594 -5.871205925162218 C-95.10968640100434 -6.123368405312812, -95.00759712716273 -6.375530885463406, -94.80282709126881 -6.881316833080692 C-94.64402296062883 -7.211077008218668, -94.48521882998887 -7.5408371833566425, -94.330000708341 -7.863150934094194 C-94.18979956589608 -8.11209225941028, -94.04959842345116 -8.361033584726368, -93.79523947109088 -8.812673661278929 C-93.66787614268556 -9.008337935551904, -93.54051281428022 -9.204002209824878, -93.20074082814826 -9.725983222076884 C-93.0193292978981 -9.969058145681702, -92.83791776764794 -10.212133069286521, -92.54894770195651 -10.599326631598467 C-92.31955960397609 -10.868778944038814, -92.09017150599566 -11.138231256479163, -91.84253845028037 -11.42911513444238 C-91.63327587829912 -11.645195920789707, -91.42401330631785 -11.861276707137032, -91.08441586025927 -12.21193895166136 C-90.81566903210886 -12.456007710336149, -90.54692220395845 -12.700076469010938, -90.27769522023242 -12.944581292275274 C-89.95479643408943 -13.202084481526734, -89.63189764794645 -13.459587670778197, -89.42569151835067 -13.624031571755259 C-89.14619664707554 -13.818995094818819, -88.86670177580041 -14.013958617882377, -88.53190582057934 -14.247497783161284 C-88.34421421128806 -14.361277539711981, -88.1565226019968 -14.47505729626268, -87.60001088406695 -14.812417970097618 C-87.25783468170285 -14.990931075696652, -86.91565847933875 -15.169444181295686, -86.63383606499849 -15.316470754341124 C-86.38689670939567 -15.425783481870774, -86.13995735379284 -15.535096209400425, -85.63735158294936 -15.757584874882365 C-85.38435385831968 -15.85069037623142, -85.13135613368999 -15.943795877580474, -84.61465220640156 -16.133947699181363 C-84.2492898891519 -16.242385317115126, -83.88392757190223 -16.350822935048885, -83.56994042646164 -16.444012671663494 C-83.27804330203399 -16.510636285507353, -82.98614617760636 -16.577259899351215, -82.50750918792333 -16.68650566884811 C-82.08039689679488 -16.75555787177247, -81.65328460566643 -16.82461007469683, -81.43172424863661 -16.86043023499518 C-81.18574299622185 -16.884159750579897, -80.93976174380708 -16.90788926616461, -80.34700623967213 -16.965071676755716 C-80.08605942090225 -16.973439733331496, -79.82511260213235 -16.981807789907275, -79.2578125 -17 C-79.2578125 -17, -79.2578125 -17, -79.2578125 -17" stroke="none" stroke-width="0" fill="#2d2d2d" style=""></path><path d="M-79.2578125 -17 C-17.41423300298583 -17, 44.42934649402834 -17, 79.2578125 -17 M-79.2578125 -17 C-21.63718647857786 -17, 35.98343954284428 -17, 79.2578125 -17 M79.2578125 -17 C79.2578125 -17, 79.2578125 -17, 79.2578125 -17 M79.2578125 -17 C79.2578125 -17, 79.2578125 -17, 79.2578125 -17 M79.2578125 -17 C79.63496576112429 -16.987905429000033, 80.01211902224858 -16.975810858000063, 80.34700623967211 -16.965071676755716 M79.2578125 -17 C79.67470981305459 -16.98663091461173, 80.09160712610918 -16.973261829223464, 80.34700623967211 -16.965071676755716 M80.34700623967211 -16.965071676755716 C80.63577367131842 -16.937214629918447, 80.92454110296471 -16.909357583081174, 81.4317242486366 -16.860430234995185 M80.34700623967211 -16.965071676755716 C80.76343436420592 -16.924899356410034, 81.17986248873972 -16.884727036064355, 81.4317242486366 -16.860430234995185 M81.4317242486366 -16.860430234995185 C81.854660189999 -16.792053231912927, 82.27759613136138 -16.723676228830666, 82.50750918792333 -16.686505668848113 M81.4317242486366 -16.860430234995185 C81.76634559485109 -16.806331250766522, 82.10096694106558 -16.752232266537863, 82.50750918792333 -16.686505668848113 M82.50750918792333 -16.686505668848113 C82.72052482440742 -16.637886239877556, 82.9335404608915 -16.589266810907, 83.56994042646163 -16.4440126716635 M82.50750918792333 -16.686505668848113 C82.87977026363686 -16.60153950754704, 83.25203133935038 -16.51657334624597, 83.56994042646163 -16.4440126716635 M83.56994042646163 -16.4440126716635 C83.96207870221936 -16.32762808979442, 84.35421697797709 -16.21124350792534, 84.61465220640156 -16.133947699181366 M83.56994042646163 -16.4440126716635 C83.9840201788259 -16.321115974710757, 84.39809993119017 -16.198219277758014, 84.61465220640156 -16.133947699181366 M84.61465220640156 -16.133947699181366 C84.90077729989102 -16.028651019865876, 85.18690239338048 -15.923354340550384, 85.63735158294936 -15.757584874882369 M84.61465220640156 -16.133947699181366 C84.84139377318283 -16.05050470662979, 85.0681353399641 -15.967061714078216, 85.63735158294936 -15.757584874882369 M85.63735158294936 -15.757584874882369 C86.03361809201354 -15.582169446148, 86.42988460107772 -15.406754017413633, 86.63383606499849 -15.316470754341125 M85.63735158294936 -15.757584874882369 C85.90202217481723 -15.640423055036615, 86.16669276668512 -15.523261235190862, 86.63383606499849 -15.316470754341125 M86.63383606499849 -15.316470754341125 C86.85448670250763 -15.201357458086088, 87.07513734001675 -15.086244161831052, 87.60001088406693 -14.812417970097622 M86.63383606499849 -15.316470754341125 C86.95345642179899 -15.149725018924912, 87.27307677859949 -14.9829792835087, 87.60001088406693 -14.812417970097622 M87.60001088406693 -14.812417970097622 C87.84770254070447 -14.662265832246204, 88.095394197342 -14.512113694394788, 88.53190582057933 -14.247497783161291 M87.60001088406693 -14.812417970097622 C87.87011554866106 -14.648678935109462, 88.14022021325519 -14.4849399001213, 88.53190582057933 -14.247497783161291 M88.53190582057933 -14.247497783161291 C88.81868502693895 -14.047453023276574, 89.10546423329858 -13.84740826339186, 89.42569151835067 -13.624031571755262 M88.53190582057933 -14.247497783161291 C88.88031133169709 -14.00446518083704, 89.22871684281483 -13.761432578512789, 89.42569151835067 -13.624031571755262 M89.42569151835067 -13.624031571755262 C89.7163086095932 -13.392272175134945, 90.00692570083571 -13.160512778514626, 90.2776952202324 -12.944581292275288 M89.42569151835067 -13.624031571755262 C89.61706183469045 -13.471418837052282, 89.80843215103023 -13.318806102349301, 90.2776952202324 -12.944581292275288 M90.2776952202324 -12.944581292275288 C90.57957660172586 -12.670420608946594, 90.8814579832193 -12.396259925617903, 91.08441586025927 -12.21193895166137 M90.2776952202324 -12.944581292275288 C90.49044060280997 -12.75137156475271, 90.70318598538753 -12.558161837230132, 91.08441586025927 -12.21193895166137 M91.08441586025927 -12.21193895166137 C91.2437989062666 -12.047362871067364, 91.40318195227393 -11.882786790473357, 91.84253845028036 -11.42911513444239 M91.08441586025927 -12.21193895166137 C91.29434767264829 -11.99516711964737, 91.5042794850373 -11.778395287633368, 91.84253845028036 -11.42911513444239 M91.84253845028036 -11.42911513444239 C92.00505026493718 -11.238219509762262, 92.16756207959402 -11.047323885082134, 92.54894770195651 -10.59932663159847 M91.84253845028036 -11.42911513444239 C92.03576727804928 -11.202137558313238, 92.2289961058182 -10.975159982184087, 92.54894770195651 -10.59932663159847 M92.54894770195651 -10.59932663159847 C92.78942425786971 -10.277109954539696, 93.02990081378293 -9.954893277480924, 93.20074082814824 -9.725983222076888 M92.54894770195651 -10.59932663159847 C92.74344005973303 -10.338724590796227, 92.93793241750956 -10.078122549993983, 93.20074082814824 -9.725983222076888 M93.20074082814824 -9.725983222076888 C93.37373539317853 -9.460217114645255, 93.54672995820883 -9.194451007213624, 93.79523947109088 -8.812673661278927 M93.20074082814824 -9.725983222076888 C93.39000860060658 -9.435217098067742, 93.5792763730649 -9.144450974058598, 93.79523947109088 -8.812673661278927 M93.79523947109088 -8.812673661278927 C93.97456325094986 -8.494266131637564, 94.15388703080883 -8.175858601996202, 94.330000708341 -7.863150934094199 M93.79523947109088 -8.812673661278927 C93.97773212420816 -8.488639476284243, 94.16022477732544 -8.16460529128956, 94.330000708341 -7.863150934094199 M94.330000708341 -7.863150934094199 C94.42642865188554 -7.662916246096487, 94.52285659543008 -7.462681558098776, 94.80282709126881 -6.881316833080699 M94.330000708341 -7.863150934094199 C94.43994448050651 -7.634850338772632, 94.54988825267203 -7.406549743451065, 94.80282709126881 -6.881316833080699 M94.80282709126881 -6.881316833080699 C94.89292285563486 -6.658778553213424, 94.98301862000093 -6.43624027334615, 95.21177567484592 -5.871205925162238 M94.80282709126881 -6.881316833080699 C94.91902447136216 -6.594307057726612, 95.0352218514555 -6.307297282372524, 95.21177567484592 -5.871205925162238 M95.21177567484592 -5.871205925162238 C95.31737103342604 -5.5531695294545225, 95.42296639200616 -5.235133133746807, 95.55516600162323 -4.836968972727556 M95.21177567484592 -5.871205925162238 C95.32996008673317 -5.515253306686723, 95.44814449862041 -5.159300688211206, 95.55516600162323 -4.836968972727556 M95.55516600162323 -4.836968972727556 C95.61531944883811 -4.607577807828293, 95.67547289605298 -4.37818664292903, 95.831587007091 -3.7828558772573464 M95.55516600162323 -4.836968972727556 C95.61705177202286 -4.600971708731232, 95.67893754242249 -4.364974444734909, 95.831587007091 -3.7828558772573464 M95.831587007091 -3.7828558772573464 C95.87345975814719 -3.567848150392879, 95.91533250920338 -3.3528404235284115, 96.03990281804565 -2.713198215567453 M95.831587007091 -3.7828558772573464 C95.88472555210078 -3.5100006794676317, 95.93786409711055 -3.2371454816779175, 96.03990281804565 -2.713198215567453 M96.03990281804565 -2.713198215567453 C96.08601152902133 -2.355588158434854, 96.13212023999702 -1.9979781013022553, 96.17925742013637 -1.632391440430593 M96.03990281804565 -2.713198215567453 C96.0927281748138 -2.303495180020196, 96.14555353158197 -1.8937921444729389, 96.17925742013637 -1.632391440430593 M96.17925742013637 -1.632391440430593 C96.19864725996001 -1.3303790339802346, 96.21803709978367 -1.0283666275298762, 96.2490781754117 -0.5448768187181379 M96.17925742013637 -1.632391440430593 C96.20516134411405 -1.228916915207186, 96.23106526809173 -0.8254423899837788, 96.2490781754117 -0.5448768187181379 M96.2490781754117 -0.5448768187181379 C96.2490781754117 -0.15288184016833128, 96.2490781754117 0.2391131383814753, 96.2490781754117 0.5448768187181336 M96.2490781754117 -0.5448768187181379 C96.2490781754117 -0.27453619050857153, 96.2490781754117 -0.0041955622990051955, 96.2490781754117 0.5448768187181336 M96.2490781754117 0.5448768187181336 C96.22228306301993 0.9622323228452507, 96.19548795062816 1.3795878269723678, 96.17925742013637 1.6323914404305815 M96.2490781754117 0.5448768187181336 C96.22366659098256 0.940682758063559, 96.19825500655344 1.3364886974089845, 96.17925742013637 1.6323914404305815 M96.17925742013637 1.6323914404305815 C96.13494613775609 1.9760609963195734, 96.09063485537581 2.319730552208565, 96.03990281804565 2.7131982155674415 M96.17925742013637 1.6323914404305815 C96.13751969195113 1.9561010181886709, 96.09578196376587 2.2798105959467603, 96.03990281804565 2.7131982155674415 M96.03990281804565 2.7131982155674415 C95.99247256234605 2.9567425541967984, 95.94504230664644 3.2002868928261554, 95.831587007091 3.782855877257343 M96.03990281804565 2.7131982155674415 C95.97751303257685 3.033556577863855, 95.91512324710807 3.353914940160269, 95.831587007091 3.782855877257343 M95.831587007091 3.782855877257343 C95.76665308372262 4.030477069601433, 95.70171916035422 4.278098261945523, 95.55516600162323 4.836968972727545 M95.831587007091 3.782855877257343 C95.77120743801642 4.013109342809504, 95.71082786894183 4.243362808361666, 95.55516600162323 4.836968972727545 M95.55516600162323 4.836968972727545 C95.46559922028844 5.106729847579301, 95.37603243895366 5.376490722431056, 95.21177567484592 5.871205925162227 M95.55516600162323 4.836968972727545 C95.46492489130866 5.10876081902671, 95.37468378099406 5.380552665325874, 95.21177567484592 5.871205925162227 M95.21177567484592 5.871205925162227 C95.09496511750054 6.159730260183816, 94.97815456015516 6.448254595205406, 94.80282709126881 6.881316833080694 M95.21177567484592 5.871205925162227 C95.12887007399206 6.075984362142014, 95.0459644731382 6.280762799121802, 94.80282709126881 6.881316833080694 M94.80282709126881 6.881316833080694 C94.63137535538296 7.237340031127126, 94.45992361949712 7.593363229173558, 94.330000708341 7.863150934094196 M94.80282709126881 6.881316833080694 C94.65558630537716 7.1870654754328465, 94.5083455194855 7.492814117784998, 94.330000708341 7.863150934094196 M94.330000708341 7.863150934094196 C94.18419562578019 8.122042622546514, 94.03839054321938 8.380934310998832, 93.79523947109088 8.812673661278923 M94.330000708341 7.863150934094196 C94.12388335301796 8.229133170115725, 93.91776599769491 8.595115406137255, 93.79523947109088 8.812673661278923 M93.79523947109088 8.812673661278923 C93.58144736783777 9.141115743093756, 93.36765526458466 9.46955782490859, 93.20074082814826 9.725983222076879 M93.79523947109088 8.812673661278923 C93.63045221087154 9.065831144551003, 93.46566495065221 9.318988627823083, 93.20074082814826 9.725983222076879 M93.20074082814826 9.725983222076879 C93.01677856080047 9.972475901015585, 92.83281629345268 10.218968579954291, 92.54894770195651 10.599326631598467 M93.20074082814826 9.725983222076879 C93.06468027631244 9.908291966165587, 92.92861972447665 10.090600710254295, 92.54894770195651 10.599326631598467 M92.54894770195651 10.599326631598467 C92.34003035631211 10.8447328335261, 92.13111301066773 11.090139035453733, 91.84253845028037 11.42911513444238 M92.54894770195651 10.599326631598467 C92.31567622344579 10.873340583780312, 92.08240474493506 11.147354535962156, 91.84253845028037 11.42911513444238 M91.84253845028037 11.42911513444238 C91.65967434349334 11.617937338122372, 91.4768102367063 11.806759541802364, 91.08441586025927 12.211938951661365 M91.84253845028037 11.42911513444238 C91.54341515466993 11.737984495639454, 91.24429185905949 12.046853856836528, 91.08441586025927 12.211938951661365 M91.08441586025927 12.211938951661365 C90.77030329894455 12.497207668884448, 90.45619073762984 12.782476386107533, 90.27769522023242 12.944581292275275 M91.08441586025927 12.211938951661365 C90.92230378430033 12.359164849796796, 90.76019170834138 12.506390747932226, 90.27769522023242 12.944581292275275 M90.27769522023242 12.944581292275275 C89.96236675438537 13.196047352545405, 89.64703828853833 13.447513412815535, 89.42569151835067 13.62403157175526 M90.27769522023242 12.944581292275275 C89.96697541409777 13.192372069066355, 89.65625560796312 13.440162845857436, 89.42569151835067 13.62403157175526 M89.42569151835067 13.62403157175526 C89.07440901805775 13.86907103718526, 88.72312651776483 14.114110502615256, 88.53190582057934 14.247497783161286 M89.42569151835067 13.62403157175526 C89.15428043121452 13.813356196944849, 88.88286934407836 14.002680822134437, 88.53190582057934 14.247497783161286 M88.53190582057934 14.247497783161286 C88.29818969165743 14.389177873982176, 88.06447356273551 14.530857964803067, 87.60001088406695 14.81241797009762 M88.53190582057934 14.247497783161286 C88.30090267795941 14.387533245742635, 88.06989953533949 14.527568708323983, 87.60001088406695 14.81241797009762 M87.60001088406695 14.81241797009762 C87.24971245877278 14.995168434196739, 86.8994140334786 15.177918898295857, 86.63383606499849 15.316470754341124 M87.60001088406695 14.81241797009762 C87.38497117315008 14.924604049543444, 87.1699314622332 15.036790128989269, 86.63383606499849 15.316470754341124 M86.63383606499849 15.316470754341124 C86.29718605782604 15.46549572614872, 85.96053605065359 15.61452069795632, 85.63735158294936 15.757584874882367 M86.63383606499849 15.316470754341124 C86.35968790380664 15.437828012984491, 86.08553974261481 15.55918527162786, 85.63735158294936 15.757584874882367 M85.63735158294936 15.757584874882367 C85.40755674542392 15.842151499291923, 85.17776190789847 15.92671812370148, 84.61465220640156 16.133947699181363 M85.63735158294936 15.757584874882367 C85.36765126002005 15.856837086802805, 85.09795093709076 15.956089298723246, 84.61465220640156 16.133947699181363 M84.61465220640156 16.133947699181363 C84.25533577284726 16.240590930569834, 83.89601933929296 16.3472341619583, 83.56994042646164 16.444012671663497 M84.61465220640156 16.133947699181363 C84.28144424190629 16.23284207399926, 83.94823627741103 16.33173644881716, 83.56994042646164 16.444012671663497 M83.56994042646164 16.444012671663497 C83.23294290662491 16.520930156451893, 82.89594538678818 16.597847641240293, 82.50750918792333 16.68650566884811 M83.56994042646164 16.444012671663497 C83.28053194896255 16.510068268085853, 82.99112347146345 16.576123864508208, 82.50750918792333 16.68650566884811 M82.50750918792333 16.68650566884811 C82.10497565166447 16.751584169296247, 81.70244211540562 16.81666266974438, 81.43172424863661 16.86043023499518 M82.50750918792333 16.68650566884811 C82.10829444971306 16.751047611765415, 81.7090797115028 16.815589554682717, 81.43172424863661 16.86043023499518 M81.43172424863661 16.86043023499518 C81.10008358676997 16.892423210789207, 80.76844292490333 16.92441618658323, 80.34700623967211 16.965071676755716 M81.43172424863661 16.86043023499518 C81.20112329454965 16.882676031697727, 80.97052234046268 16.904921828400273, 80.34700623967211 16.965071676755716 M80.34700623967211 16.965071676755716 C79.9845412607808 16.97669522313348, 79.62207628188948 16.988318769511242, 79.2578125 17 M80.34700623967211 16.965071676755716 C79.91825662586268 16.97882084236009, 79.48950701205327 16.99257000796446, 79.2578125 17 M79.2578125 17 C79.2578125 17, 79.2578125 17, 79.2578125 17 M79.2578125 17 C79.2578125 17, 79.2578125 17, 79.2578125 17 M79.2578125 17 C45.989549354632494 17, 12.721286209264989 17, -79.2578125 17 M79.2578125 17 C42.97868156124868 17, 6.699550622497355 17, -79.2578125 17 M-79.2578125 17 C-79.5526021275792 16.990546670416737, -79.84739175515841 16.98109334083347, -80.34700623967211 16.965071676755716 M-79.2578125 17 C-79.59731749929583 16.989112735478976, -79.93682249859164 16.97822547095795, -80.34700623967211 16.965071676755716 M-80.34700623967211 16.965071676755716 C-80.72126373462548 16.928967506328053, -81.09552122957886 16.892863335900394, -81.4317242486366 16.86043023499518 M-80.34700623967211 16.965071676755716 C-80.63281789055952 16.93749977053341, -80.91862954144693 16.9099278643111, -81.4317242486366 16.86043023499518 M-81.4317242486366 16.86043023499518 C-81.83592187421483 16.795082697491093, -82.24011949979308 16.72973515998701, -82.50750918792333 16.68650566884811 M-81.4317242486366 16.86043023499518 C-81.65493507258164 16.82434324000554, -81.87814589652668 16.788256245015898, -82.50750918792333 16.68650566884811 M-82.50750918792333 16.68650566884811 C-82.88439669544275 16.600483554677634, -83.26128420296216 16.51446144050716, -83.56994042646161 16.4440126716635 M-82.50750918792333 16.68650566884811 C-82.77793555184381 16.624782615980205, -83.04836191576429 16.5630595631123, -83.56994042646161 16.4440126716635 M-83.56994042646161 16.4440126716635 C-83.81788573594427 16.370423805300536, -84.06583104542693 16.29683493893757, -84.61465220640154 16.13394769918137 M-83.56994042646161 16.4440126716635 C-83.91000309288387 16.34308385729474, -84.25006575930611 16.24215504292598, -84.61465220640154 16.13394769918137 M-84.61465220640154 16.13394769918137 C-85.01074068784676 15.988183476607746, -85.40682916929197 15.842419254034121, -85.63735158294936 15.757584874882369 M-84.61465220640154 16.13394769918137 C-84.9663542638226 16.004518090952246, -85.31805632124365 15.87508848272312, -85.63735158294936 15.757584874882369 M-85.63735158294936 15.757584874882369 C-85.97528634023577 15.607991182310082, -86.31322109752217 15.458397489737795, -86.63383606499849 15.316470754341127 M-85.63735158294936 15.757584874882369 C-85.92281708537628 15.631217764991236, -86.20828258780318 15.504850655100103, -86.63383606499849 15.316470754341127 M-86.63383606499849 15.316470754341127 C-86.9177834449499 15.168335588097452, -87.2017308249013 15.020200421853778, -87.60001088406693 14.812417970097624 M-86.63383606499849 15.316470754341127 C-86.99134436299444 15.12995890427163, -87.3488526609904 14.943447054202133, -87.60001088406693 14.812417970097624 M-87.60001088406693 14.812417970097624 C-87.92416067556293 14.615916461577134, -88.24831046705893 14.419414953056645, -88.53190582057931 14.247497783161299 M-87.60001088406693 14.812417970097624 C-87.92352366127733 14.616302623380578, -88.24703643848771 14.420187276663533, -88.53190582057931 14.247497783161299 M-88.53190582057931 14.247497783161299 C-88.86838602438755 14.012783758977934, -89.20486622819578 13.778069734794569, -89.42569151835067 13.624031571755264 M-88.53190582057931 14.247497783161299 C-88.87790171366821 14.006146026063298, -89.2238976067571 13.764794268965296, -89.42569151835067 13.624031571755264 M-89.42569151835067 13.624031571755264 C-89.69618088179158 13.408323502435403, -89.96667024523248 13.192615433115542, -90.2776952202324 12.94458129227529 M-89.42569151835067 13.624031571755264 C-89.68773580589735 13.41505822572814, -89.94978009344403 13.206084879701017, -90.2776952202324 12.94458129227529 M-90.2776952202324 12.94458129227529 C-90.55223246707371 12.695253828551518, -90.82676971391501 12.445926364827747, -91.08441586025926 12.211938951661377 M-90.2776952202324 12.94458129227529 C-90.56100466905764 12.687287146809458, -90.84431411788287 12.429993001343629, -91.08441586025926 12.211938951661377 M-91.08441586025926 12.211938951661377 C-91.33761260331728 11.950492526614758, -91.59080934637531 11.68904610156814, -91.84253845028036 11.429115134442386 M-91.08441586025926 12.211938951661377 C-91.33168843641263 11.95660971532695, -91.57896101256603 11.701280478992524, -91.84253845028036 11.429115134442386 M-91.84253845028036 11.429115134442386 C-92.01617194129346 11.225155355872863, -92.18980543230657 11.02119557730334, -92.54894770195651 10.599326631598473 M-91.84253845028036 11.429115134442386 C-92.03673920686605 11.200995875420752, -92.23093996345173 10.972876616399116, -92.54894770195651 10.599326631598473 M-92.54894770195651 10.599326631598473 C-92.70751258028343 10.38686414019797, -92.86607745861038 10.174401648797467, -93.20074082814824 9.72598322207689 M-92.54894770195651 10.599326631598473 C-92.76746306679061 10.30653594988003, -92.98597843162472 10.01374526816159, -93.20074082814824 9.72598322207689 M-93.20074082814824 9.72598322207689 C-93.40086358623938 9.418540925163976, -93.60098634433052 9.11109862825106, -93.79523947109088 8.812673661278936 M-93.20074082814824 9.72598322207689 C-93.32312525926403 9.537967871061767, -93.44550969037984 9.349952520046644, -93.79523947109088 8.812673661278936 M-93.79523947109088 8.812673661278936 C-93.9613640896233 8.517702579132878, -94.12748870815574 8.222731496986821, -94.330000708341 7.863150934094201 M-93.79523947109088 8.812673661278936 C-93.99365213217604 8.460371890061655, -94.19206479326121 8.108070118844376, -94.330000708341 7.863150934094201 M-94.330000708341 7.863150934094201 C-94.46224032131667 7.588552548275771, -94.59447993429235 7.3139541624573425, -94.80282709126881 6.881316833080701 M-94.330000708341 7.863150934094201 C-94.51169000004393 7.485869232344997, -94.69337929174687 7.108587530595792, -94.80282709126881 6.881316833080701 M-94.80282709126881 6.881316833080701 C-94.91571591975378 6.6024792441658064, -95.02860474823875 6.323641655250912, -95.21177567484592 5.87120592516224 M-94.80282709126881 6.881316833080701 C-94.96583636293012 6.478680780507407, -95.12884563459143 6.076044727934112, -95.21177567484592 5.87120592516224 M-95.21177567484592 5.87120592516224 C-95.34149574358136 5.480509746217298, -95.47121581231679 5.089813567272357, -95.55516600162323 4.8369689727275516 M-95.21177567484592 5.87120592516224 C-95.3033331277702 5.595449464653409, -95.39489058069447 5.319693004144579, -95.55516600162323 4.8369689727275516 M-95.55516600162323 4.8369689727275516 C-95.62281074443919 4.579010250953304, -95.69045548725515 4.321051529179057, -95.831587007091 3.782855877257349 M-95.55516600162323 4.8369689727275516 C-95.66211086115986 4.4291418731190815, -95.76905572069649 4.021314773510611, -95.831587007091 3.782855877257349 M-95.831587007091 3.782855877257349 C-95.90153101245927 3.423708192362071, -95.97147501782753 3.0645605074667936, -96.03990281804565 2.713198215567455 M-95.831587007091 3.782855877257349 C-95.88594677321332 3.5037299671599076, -95.94030653933562 3.2246040570624666, -96.03990281804565 2.713198215567455 M-96.03990281804565 2.713198215567455 C-96.09063556760883 2.3197250282699335, -96.14136831717202 1.926251840972412, -96.17925742013637 1.6323914404306026 M-96.03990281804565 2.713198215567455 C-96.08589547054909 2.356488285027249, -96.13188812305253 1.9997783544870424, -96.17925742013637 1.6323914404306026 M-96.17925742013637 1.6323914404306026 C-96.20294727154892 1.2634028825761483, -96.22663712296148 0.8944143247216941, -96.2490781754117 0.54487681871814 M-96.17925742013637 1.6323914404306026 C-96.19418426386511 1.3998938006239832, -96.20911110759386 1.1673961608173635, -96.2490781754117 0.54487681871814 M-96.2490781754117 0.54487681871814 C-96.2490781754117 0.13332812681310996, -96.2490781754117 -0.27822056509192006, -96.2490781754117 -0.5448768187181317 M-96.2490781754117 0.54487681871814 C-96.2490781754117 0.21217595639550857, -96.2490781754117 -0.12052490592712284, -96.2490781754117 -0.5448768187181317 M-96.2490781754117 -0.5448768187181317 C-96.22932279026917 -0.8525828885727946, -96.20956740512665 -1.1602889584274576, -96.17925742013637 -1.6323914404305793 M-96.2490781754117 -0.5448768187181317 C-96.2297199809917 -0.8463963224627495, -96.21036178657171 -1.1479158262073674, -96.17925742013637 -1.6323914404305793 M-96.17925742013637 -1.6323914404305793 C-96.13161630184979 -2.0018865460583712, -96.08397518356321 -2.371381651686163, -96.03990281804565 -2.713198215567447 M-96.17925742013637 -1.6323914404305793 C-96.14603220201239 -1.8900796711387384, -96.1128069838884 -2.1477679018468976, -96.03990281804565 -2.713198215567447 M-96.03990281804565 -2.713198215567447 C-95.96872376067006 -3.078687631492028, -95.89754470329446 -3.444177047416609, -95.831587007091 -3.782855877257341 M-96.03990281804565 -2.713198215567447 C-95.98218456929128 -3.0095692241649408, -95.92446632053691 -3.305940232762435, -95.831587007091 -3.782855877257341 M-95.831587007091 -3.782855877257341 C-95.75710698430588 -4.066880483983108, -95.68262696152074 -4.350905090708874, -95.55516600162323 -4.836968972727544 M-95.831587007091 -3.782855877257341 C-95.75752702296977 -4.065278694511764, -95.68346703884853 -4.347701511766187, -95.55516600162323 -4.836968972727544 M-95.55516600162323 -4.836968972727544 C-95.43082645018023 -5.211459890856719, -95.30648689873722 -5.585950808985895, -95.21177567484594 -5.871205925162218 M-95.55516600162323 -4.836968972727544 C-95.42411742374694 -5.231666409535621, -95.29306884587062 -5.626363846343699, -95.21177567484594 -5.871205925162218 M-95.21177567484594 -5.871205925162218 C-95.05605062088442 -6.255849819186273, -94.90032556692289 -6.640493713210328, -94.80282709126881 -6.881316833080692 M-95.21177567484594 -5.871205925162218 C-95.08262794614618 -6.190203311952083, -94.95348021744643 -6.509200698741948, -94.80282709126881 -6.881316833080692 M-94.80282709126881 -6.881316833080692 C-94.62649097092773 -7.2474825599574935, -94.45015485058666 -7.613648286834295, -94.330000708341 -7.863150934094194 M-94.80282709126881 -6.881316833080692 C-94.69827141293752 -7.09842893626875, -94.59371573460623 -7.315541039456806, -94.330000708341 -7.863150934094194 M-94.330000708341 -7.863150934094194 C-94.1648272732191 -8.156433093777089, -93.99965383809722 -8.449715253459985, -93.79523947109088 -8.812673661278929 M-94.330000708341 -7.863150934094194 C-94.12434262453988 -8.22831768702228, -93.91868454073875 -8.593484439950366, -93.79523947109088 -8.812673661278929 M-93.79523947109088 -8.812673661278929 C-93.63351122873947 -9.061131671644572, -93.47178298638804 -9.309589682010216, -93.20074082814826 -9.725983222076884 M-93.79523947109088 -8.812673661278929 C-93.66976883138803 -9.005430257446816, -93.54429819168519 -9.198186853614702, -93.20074082814826 -9.725983222076884 M-93.20074082814826 -9.725983222076884 C-92.9845059920218 -10.01571820308752, -92.76827115589532 -10.305453184098157, -92.54894770195651 -10.599326631598467 M-93.20074082814826 -9.725983222076884 C-93.03715977683109 -9.945166928301536, -92.87357872551392 -10.164350634526187, -92.54894770195651 -10.599326631598467 M-92.54894770195651 -10.599326631598467 C-92.35935537107014 -10.822032571566835, -92.16976304018378 -11.044738511535202, -91.84253845028037 -11.42911513444238 M-92.54894770195651 -10.599326631598467 C-92.32948128315944 -10.857124375110507, -92.11001486436237 -11.114922118622546, -91.84253845028037 -11.42911513444238 M-91.84253845028037 -11.42911513444238 C-91.57941070942698 -11.700816130062792, -91.31628296857359 -11.972517125683204, -91.08441586025927 -12.21193895166136 M-91.84253845028037 -11.42911513444238 C-91.55959900685701 -11.721273339537321, -91.27665956343364 -12.01343154463226, -91.08441586025927 -12.21193895166136 M-91.08441586025927 -12.21193895166136 C-90.88385636738552 -12.394081776575902, -90.68329687451178 -12.576224601490447, -90.27769522023242 -12.944581292275274 M-91.08441586025927 -12.21193895166136 C-90.85547336221781 -12.419858470896065, -90.62653086417633 -12.627777990130772, -90.27769522023242 -12.944581292275274 M-90.27769522023242 -12.944581292275274 C-90.09397085100693 -13.09109658762181, -89.91024648178143 -13.237611882968345, -89.42569151835067 -13.624031571755259 M-90.27769522023242 -12.944581292275274 C-90.0734899685725 -13.10742954634409, -89.86928471691259 -13.270277800412906, -89.42569151835067 -13.624031571755259 M-89.42569151835067 -13.624031571755259 C-89.07415626328803 -13.869247347971031, -88.7226210082254 -14.114463124186805, -88.53190582057934 -14.247497783161284 M-89.42569151835067 -13.624031571755259 C-89.08738413562737 -13.860020156852476, -88.74907675290407 -14.096008741949694, -88.53190582057934 -14.247497783161284 M-88.53190582057934 -14.247497783161284 C-88.3434967758337 -14.361712453300541, -88.15508773108805 -14.4759271234398, -87.60001088406695 -14.812417970097618 M-88.53190582057934 -14.247497783161284 C-88.22996771711477 -14.430534435866758, -87.9280296136502 -14.61357108857223, -87.60001088406695 -14.812417970097618 M-87.60001088406695 -14.812417970097618 C-87.33028558139678 -14.953133487733346, -87.0605602787266 -15.093849005369075, -86.63383606499849 -15.316470754341124 M-87.60001088406695 -14.812417970097618 C-87.22117288701794 -15.010057510500767, -86.84233488996892 -15.207697050903917, -86.63383606499849 -15.316470754341124 M-86.63383606499849 -15.316470754341124 C-86.35144057830634 -15.441478859335263, -86.06904509161417 -15.566486964329401, -85.63735158294936 -15.757584874882365 M-86.63383606499849 -15.316470754341124 C-86.25889845968494 -15.48244451008454, -85.8839608543714 -15.648418265827955, -85.63735158294936 -15.757584874882365 M-85.63735158294936 -15.757584874882365 C-85.29420036676304 -15.883867694494004, -84.95104915057671 -16.010150514105643, -84.61465220640156 -16.133947699181363 M-85.63735158294936 -15.757584874882365 C-85.33408273234339 -15.869190615291888, -85.03081388173742 -15.980796355701411, -84.61465220640156 -16.133947699181363 M-84.61465220640156 -16.133947699181363 C-84.26771093208757 -16.236918048265846, -83.92076965777356 -16.33988839735033, -83.56994042646164 -16.444012671663494 M-84.61465220640156 -16.133947699181363 C-84.20944538146053 -16.254210957849832, -83.8042385565195 -16.374474216518305, -83.56994042646164 -16.444012671663494 M-83.56994042646164 -16.444012671663494 C-83.15942521797399 -16.537710089138713, -82.74891000948634 -16.631407506613932, -82.50750918792333 -16.68650566884811 M-83.56994042646164 -16.444012671663494 C-83.31472989873286 -16.502262809213256, -83.05951937100407 -16.560512946763016, -82.50750918792333 -16.68650566884811 M-82.50750918792333 -16.68650566884811 C-82.18241744129524 -16.739063981318793, -81.85732569466715 -16.791622293789473, -81.43172424863661 -16.86043023499518 M-82.50750918792333 -16.68650566884811 C-82.0884232426101 -16.754260234426305, -81.66933729729689 -16.822014800004503, -81.43172424863661 -16.86043023499518 M-81.43172424863661 -16.86043023499518 C-81.15116366629732 -16.887495576949988, -80.87060308395802 -16.91456091890479, -80.34700623967213 -16.965071676755716 M-81.43172424863661 -16.86043023499518 C-81.14794368439281 -16.88780620473172, -80.86416312014902 -16.915182174468256, -80.34700623967213 -16.965071676755716 M-80.34700623967213 -16.965071676755716 C-80.03979684347054 -16.97492328414509, -79.73258744726897 -16.984774891534457, -79.2578125 -17 M-80.34700623967213 -16.965071676755716 C-79.97783216017902 -16.976910370931307, -79.60865808068593 -16.988749065106898, -79.2578125 -17 M-79.2578125 -17 C-79.2578125 -17, -79.2578125 -17, -79.2578125 -17 M-79.2578125 -17 C-79.2578125 -17, -79.2578125 -17, -79.2578125 -17" stroke="#555555" stroke-width="1.3" fill="none" stroke-dasharray="0 0" style=""></path></g><g class="label" style="" transform="translate(0, -9.5)"><rect></rect><g><rect class="background" style="stroke: none"></rect><text y="-10.1" style=""><tspan class="text-outer-tspan row" x="0" y="-0.1em" dy="1.1em"><tspan font-style="normal" class="text-inner-tspan" font-weight="normal">Project</tspan><tspan font-style="normal" class="text-inner-tspan" font-weight="normal"> or</tspan><tspan font-style="normal" class="text-inner-tspan" font-weight="normal"> existing</tspan><tspan font-style="normal" class="text-inner-tspan" font-weight="normal"> repo</tspan></tspan></text></g></g></g><g class="node default" id="ge08b2f41-4482-47ca-a53b-6f7d4ec7e7ef-dark-flowchart-init-1" data-look="classic" transform="translate(203.07421875, 134.0999984741211)"><rect class="basic label-container" style="" x="-122.1640625" y="-42.099998474121094" width="244.328125" height="84.19999694824219"></rect><g class="label" style="" transform="translate(0, -27.099998474121094)"><rect></rect><g><rect class="background" style="stroke: none"></rect><text y="-10.1" style=""><tspan class="text-outer-tspan row" x="0" y="-0.1em" dy="1.1em"><tspan font-style="normal" class="text-inner-tspan" font-weight="normal">pagesmith-docs</tspan><tspan font-style="normal" class="text-inner-tspan" font-weight="normal"> init</tspan></tspan><tspan class="text-outer-tspan row" x="0" y="1em" dy="1.1em"><tspan font-style="normal" class="text-inner-tspan" font-weight="normal">Scaffold</tspan><tspan font-style="normal" class="text-inner-tspan" font-weight="normal"> or</tspan><tspan font-style="normal" class="text-inner-tspan" font-weight="normal"> backfill</tspan><tspan font-style="normal" class="text-inner-tspan" font-weight="normal"> config</tspan></tspan><tspan class="text-outer-tspan row" x="0" y="2.1em" dy="1.1em"><tspan font-style="normal" class="text-inner-tspan" font-weight="normal">and</tspan><tspan font-style="normal" class="text-inner-tspan" font-weight="normal"> starter</tspan><tspan font-style="normal" class="text-inner-tspan" font-weight="normal"> docs</tspan></tspan></text></g></g></g><g class="node default" id="ge08b2f41-4482-47ca-a53b-6f7d4ec7e7ef-dark-flowchart-dev-2" data-look="classic" transform="translate(124.4921875, 291.2999954223633)"><rect class="basic label-container" style="" x="-115.5" y="-33.29999923706055" width="231" height="66.5999984741211"></rect><g class="label" style="" transform="translate(0, -18.299999237060547)"><rect></rect><g><rect class="background" style="stroke: none"></rect><text y="-10.1" style=""><tspan class="text-outer-tspan row" x="0" y="-0.1em" dy="1.1em"><tspan font-style="normal" class="text-inner-tspan" font-weight="normal">pagesmith-docs</tspan><tspan font-style="normal" class="text-inner-tspan" font-weight="normal"> dev</tspan></tspan><tspan class="text-outer-tspan row" x="0" y="1em" dy="1.1em"><tspan font-style="normal" class="text-inner-tspan" font-weight="normal">Live-reload</tspan><tspan font-style="normal" class="text-inner-tspan" font-weight="normal"> editing</tspan><tspan font-style="normal" class="text-inner-tspan" font-weight="normal"> loop</tspan></tspan></text></g></g></g><g class="node default" id="ge08b2f41-4482-47ca-a53b-6f7d4ec7e7ef-dark-flowchart-build-3" data-look="classic" transform="translate(124.4921875, 425.49999237060547)"><rect class="basic label-container" style="" x="-113.9765625" y="-42.099998474121094" width="227.953125" height="84.19999694824219"></rect><g class="label" style="" transform="translate(0, -27.099998474121094)"><rect></rect><g><rect class="background" style="stroke: none"></rect><text y="-10.1" style=""><tspan class="text-outer-tspan row" x="0" y="-0.1em" dy="1.1em"><tspan font-style="normal" class="text-inner-tspan" font-weight="normal">pagesmith-docs</tspan><tspan font-style="normal" class="text-inner-tspan" font-weight="normal"> build</tspan></tspan><tspan class="text-outer-tspan row" x="0" y="1em" dy="1.1em"><tspan font-style="normal" class="text-inner-tspan" font-weight="normal">Static</tspan><tspan font-style="normal" class="text-inner-tspan" font-weight="normal"> output</tspan><tspan font-style="normal" class="text-inner-tspan" font-weight="normal"> +</tspan><tspan font-style="normal" class="text-inner-tspan" font-weight="normal"> assets</tspan><tspan font-style="normal" class="text-inner-tspan" font-weight="normal"> +</tspan></tspan><tspan class="text-outer-tspan row" x="0" y="2.1em" dy="1.1em"><tspan font-style="normal" class="text-inner-tspan" font-weight="normal">Pagefind</tspan></tspan></text></g></g></g><g class="node default" id="ge08b2f41-4482-47ca-a53b-6f7d4ec7e7ef-dark-flowchart-preview-4" data-look="classic" transform="translate(124.4921875, 559.6999893188477)"><rect class="basic label-container" style="" x="-116.4921875" y="-42.099998474121094" width="232.984375" height="84.19999694824219"></rect><g class="label" style="" transform="translate(0, -27.099998474121094)"><rect></rect><g><rect class="background" style="stroke: none"></rect><text y="-10.1" style=""><tspan class="text-outer-tspan row" x="0" y="-0.1em" dy="1.1em"><tspan font-style="normal" class="text-inner-tspan" font-weight="normal">pagesmith-docs</tspan><tspan font-style="normal" class="text-inner-tspan" font-weight="normal"> preview</tspan></tspan><tspan class="text-outer-tspan row" x="0" y="1em" dy="1.1em"><tspan font-style="normal" class="text-inner-tspan" font-weight="normal">Serve</tspan><tspan font-style="normal" class="text-inner-tspan" font-weight="normal"> built</tspan><tspan font-style="normal" class="text-inner-tspan" font-weight="normal"> output</tspan><tspan font-style="normal" class="text-inner-tspan" font-weight="normal"> from</tspan></tspan><tspan class="text-outer-tspan row" x="0" y="2.1em" dy="1.1em"><tspan font-style="normal" class="text-inner-tspan" font-weight="normal">disk</tspan></tspan></text></g></g></g><g class="node default" id="ge08b2f41-4482-47ca-a53b-6f7d4ec7e7ef-dark-flowchart-mcp-5" data-look="classic" transform="translate(516.66015625, 291.2999954223633)"><rect class="basic label-container" style="" x="-128.828125" y="-42.099998474121094" width="257.65625" height="84.19999694824219"></rect><g class="label" style="" transform="translate(0, -27.099998474121094)"><rect></rect><g><rect class="background" style="stroke: none"></rect><text y="-10.1" style=""><tspan class="text-outer-tspan row" x="0" y="-0.1em" dy="1.1em"><tspan font-style="normal" class="text-inner-tspan" font-weight="normal">pagesmith-docs</tspan><tspan font-style="normal" class="text-inner-tspan" font-weight="normal"> mcp</tspan><tspan font-style="normal" class="text-inner-tspan" font-weight="normal"> --stdio</tspan></tspan><tspan class="text-outer-tspan row" x="0" y="1em" dy="1.1em"><tspan font-style="normal" class="text-inner-tspan" font-weight="normal">Expose</tspan><tspan font-style="normal" class="text-inner-tspan" font-weight="normal"> docs-aware</tspan><tspan font-style="normal" class="text-inner-tspan" font-weight="normal"> MCP</tspan></tspan><tspan class="text-outer-tspan row" x="0" y="2.1em" dy="1.1em"><tspan font-style="normal" class="text-inner-tspan" font-weight="normal">tools</tspan></tspan></text></g></g></g></g></g></g><defs><filter id="ge08b2f41-4482-47ca-a53b-6f7d4ec7e7ef-dark-drop-shadow" height="130%" width="130%"><feDropShadow dx="4" dy="4" stdDeviation="0" flood-opacity="0.06" flood-color="#000000"></feDropShadow></filter></defs><defs><filter id="ge08b2f41-4482-47ca-a53b-6f7d4ec7e7ef-dark-drop-shadow-small" height="150%" width="150%"><feDropShadow dx="2" dy="2" stdDeviation="0" flood-opacity="0.06" flood-color="#000000"></feDropShadow></filter></defs><linearGradient id="ge08b2f41-4482-47ca-a53b-6f7d4ec7e7ef-dark-gradient" gradientUnits="objectBoundingBox" x1="0%" y1="0%" x2="100%" y2="0%"><stop offset="0%" stop-color="#555555" stop-opacity="1"></stop><stop offset="100%" stop-color="#555555" stop-opacity="1"></stop></linearGradient></svg>