<svg id="g6f6791a5-995b-4943-adfc-6f8ee9c1cb60-light" width="100%" xmlns="http://www.w3.org/2000/svg" xmlns:xlink="http://www.w3.org/1999/xlink" class="flowchart" style="max-width: 653.48828125px;" viewBox="0 0 653.48828125 609.800048828125" role="graphics-document document" aria-roledescription="flowchart-v2"><style>#g6f6791a5-995b-4943-adfc-6f8ee9c1cb60-light{font-family:"trebuchet ms",verdana,arial,sans-serif;font-size:16px;fill:#333;}@keyframes edge-animation-frame{from{stroke-dashoffset:0;}}@keyframes dash{to{stroke-dashoffset:0;}}#g6f6791a5-995b-4943-adfc-6f8ee9c1cb60-light .edge-animation-slow{stroke-dasharray:9,5!important;stroke-dashoffset:900;animation:dash 50s linear infinite;stroke-linecap:round;}#g6f6791a5-995b-4943-adfc-6f8ee9c1cb60-light .edge-animation-fast{stroke-dasharray:9,5!important;stroke-dashoffset:900;animation:dash 20s linear infinite;stroke-linecap:round;}#g6f6791a5-995b-4943-adfc-6f8ee9c1cb60-light .error-icon{fill:#552222;}#g6f6791a5-995b-4943-adfc-6f8ee9c1cb60-light .error-text{fill:#552222;stroke:#552222;}#g6f6791a5-995b-4943-adfc-6f8ee9c1cb60-light .edge-thickness-normal{stroke-width:1px;}#g6f6791a5-995b-4943-adfc-6f8ee9c1cb60-light .edge-thickness-thick{stroke-width:3.5px;}#g6f6791a5-995b-4943-adfc-6f8ee9c1cb60-light .edge-pattern-solid{stroke-dasharray:0;}#g6f6791a5-995b-4943-adfc-6f8ee9c1cb60-light .edge-thickness-invisible{stroke-width:0;fill:none;}#g6f6791a5-995b-4943-adfc-6f8ee9c1cb60-light .edge-pattern-dashed{stroke-dasharray:3;}#g6f6791a5-995b-4943-adfc-6f8ee9c1cb60-light .edge-pattern-dotted{stroke-dasharray:2;}#g6f6791a5-995b-4943-adfc-6f8ee9c1cb60-light .marker{fill:#333333;stroke:#333333;}#g6f6791a5-995b-4943-adfc-6f8ee9c1cb60-light .marker.cross{stroke:#333333;}#g6f6791a5-995b-4943-adfc-6f8ee9c1cb60-light svg{font-family:"trebuchet ms",verdana,arial,sans-serif;font-size:16px;}#g6f6791a5-995b-4943-adfc-6f8ee9c1cb60-light p{margin:0;}#g6f6791a5-995b-4943-adfc-6f8ee9c1cb60-light .label{font-family:"trebuchet ms",verdana,arial,sans-serif;color:#333;}#g6f6791a5-995b-4943-adfc-6f8ee9c1cb60-light .cluster-label text{fill:#333;}#g6f6791a5-995b-4943-adfc-6f8ee9c1cb60-light .cluster-label span{color:#333;}#g6f6791a5-995b-4943-adfc-6f8ee9c1cb60-light .cluster-label span p{background-color:transparent;}#g6f6791a5-995b-4943-adfc-6f8ee9c1cb60-light .label text,#g6f6791a5-995b-4943-adfc-6f8ee9c1cb60-light span{fill:#333;color:#333;}#g6f6791a5-995b-4943-adfc-6f8ee9c1cb60-light .node rect,#g6f6791a5-995b-4943-adfc-6f8ee9c1cb60-light .node circle,#g6f6791a5-995b-4943-adfc-6f8ee9c1cb60-light .node ellipse,#g6f6791a5-995b-4943-adfc-6f8ee9c1cb60-light .node polygon,#g6f6791a5-995b-4943-adfc-6f8ee9c1cb60-light .node path{fill:#ECECFF;stroke:#9370DB;stroke-width:1px;}#g6f6791a5-995b-4943-adfc-6f8ee9c1cb60-light .rough-node .label text,#g6f6791a5-995b-4943-adfc-6f8ee9c1cb60-light .node .label text,#g6f6791a5-995b-4943-adfc-6f8ee9c1cb60-light .image-shape .label,#g6f6791a5-995b-4943-adfc-6f8ee9c1cb60-light .icon-shape .label{text-anchor:middle;}#g6f6791a5-995b-4943-adfc-6f8ee9c1cb60-light .node .katex path{fill:#000;stroke:#000;stroke-width:1px;}#g6f6791a5-995b-4943-adfc-6f8ee9c1cb60-light .rough-node .label,#g6f6791a5-995b-4943-adfc-6f8ee9c1cb60-light .node .label,#g6f6791a5-995b-4943-adfc-6f8ee9c1cb60-light .image-shape .label,#g6f6791a5-995b-4943-adfc-6f8ee9c1cb60-light .icon-shape .label{text-align:center;}#g6f6791a5-995b-4943-adfc-6f8ee9c1cb60-light .node.clickable{cursor:pointer;}#g6f6791a5-995b-4943-adfc-6f8ee9c1cb60-light .root .anchor path{fill:#333333!important;stroke-width:0;stroke:#333333;}#g6f6791a5-995b-4943-adfc-6f8ee9c1cb60-light .arrowheadPath{fill:#333333;}#g6f6791a5-995b-4943-adfc-6f8ee9c1cb60-light .edgePath .path{stroke:#333333;stroke-width:1px;}#g6f6791a5-995b-4943-adfc-6f8ee9c1cb60-light .flowchart-link{stroke:#333333;fill:none;}#g6f6791a5-995b-4943-adfc-6f8ee9c1cb60-light .edgeLabel{background-color:rgba(232,232,232, 0.8);text-align:center;}#g6f6791a5-995b-4943-adfc-6f8ee9c1cb60-light .edgeLabel p{background-color:rgba(232,232,232, 0.8);}#g6f6791a5-995b-4943-adfc-6f8ee9c1cb60-light .edgeLabel rect{opacity:0.5;background-color:rgba(232,232,232, 0.8);fill:rgba(232,232,232, 0.8);}#g6f6791a5-995b-4943-adfc-6f8ee9c1cb60-light .labelBkg{background-color:rgba(232, 232, 232, 0.5);}#g6f6791a5-995b-4943-adfc-6f8ee9c1cb60-light .cluster rect{fill:#ffffde;stroke:#aaaa33;stroke-width:1px;}#g6f6791a5-995b-4943-adfc-6f8ee9c1cb60-light .cluster text{fill:#333;}#g6f6791a5-995b-4943-adfc-6f8ee9c1cb60-light .cluster span{color:#333;}#g6f6791a5-995b-4943-adfc-6f8ee9c1cb60-light div.mermaidTooltip{position:absolute;text-align:center;max-width:200px;padding:2px;font-family:"trebuchet ms",verdana,arial,sans-serif;font-size:12px;background:hsl(80, 100%, 96.2745098039%);border:1px solid #aaaa33;border-radius:2px;pointer-events:none;z-index:100;}#g6f6791a5-995b-4943-adfc-6f8ee9c1cb60-light .flowchartTitleText{text-anchor:middle;font-size:18px;fill:#333;}#g6f6791a5-995b-4943-adfc-6f8ee9c1cb60-light rect.text{fill:none;stroke-width:0;}#g6f6791a5-995b-4943-adfc-6f8ee9c1cb60-light .icon-shape,#g6f6791a5-995b-4943-adfc-6f8ee9c1cb60-light .image-shape{background-color:rgba(232,232,232, 0.8);text-align:center;}#g6f6791a5-995b-4943-adfc-6f8ee9c1cb60-light .icon-shape p,#g6f6791a5-995b-4943-adfc-6f8ee9c1cb60-light .image-shape p{background-color:rgba(232,232,232, 0.8);padding:2px;}#g6f6791a5-995b-4943-adfc-6f8ee9c1cb60-light .icon-shape .label rect,#g6f6791a5-995b-4943-adfc-6f8ee9c1cb60-light .image-shape .label rect{opacity:0.5;background-color:rgba(232,232,232, 0.8);fill:rgba(232,232,232, 0.8);}#g6f6791a5-995b-4943-adfc-6f8ee9c1cb60-light .label-icon{display:inline-block;height:1em;overflow:visible;vertical-align:-0.125em;}#g6f6791a5-995b-4943-adfc-6f8ee9c1cb60-light .node .label-icon path{fill:currentColor;stroke:revert;stroke-width:revert;}#g6f6791a5-995b-4943-adfc-6f8ee9c1cb60-light .node .neo-node{stroke:#9370DB;}#g6f6791a5-995b-4943-adfc-6f8ee9c1cb60-light [data-look="neo"].node rect,#g6f6791a5-995b-4943-adfc-6f8ee9c1cb60-light [data-look="neo"].cluster rect,#g6f6791a5-995b-4943-adfc-6f8ee9c1cb60-light [data-look="neo"].node polygon{stroke:#9370DB;filter:drop-shadow(1px 2px 2px rgba(185, 185, 185, 1));}#g6f6791a5-995b-4943-adfc-6f8ee9c1cb60-light [data-look="neo"].node path{stroke:#9370DB;stroke-width:1px;}#g6f6791a5-995b-4943-adfc-6f8ee9c1cb60-light [data-look="neo"].node .outer-path{filter:drop-shadow(1px 2px 2px rgba(185, 185, 185, 1));}#g6f6791a5-995b-4943-adfc-6f8ee9c1cb60-light [data-look="neo"].node .neo-line path{stroke:#9370DB;filter:none;}#g6f6791a5-995b-4943-adfc-6f8ee9c1cb60-light [data-look="neo"].node circle{stroke:#9370DB;filter:drop-shadow(1px 2px 2px rgba(185, 185, 185, 1));}#g6f6791a5-995b-4943-adfc-6f8ee9c1cb60-light [data-look="neo"].node circle .state-start{fill:#000000;}#g6f6791a5-995b-4943-adfc-6f8ee9c1cb60-light [data-look="neo"].icon-shape .icon{fill:#9370DB;filter:drop-shadow(1px 2px 2px rgba(185, 185, 185, 1));}#g6f6791a5-995b-4943-adfc-6f8ee9c1cb60-light [data-look="neo"].icon-shape .icon-neo path{stroke:#9370DB;filter:drop-shadow(1px 2px 2px rgba(185, 185, 185, 1));}#g6f6791a5-995b-4943-adfc-6f8ee9c1cb60-light :root{--mermaid-font-family:"trebuchet ms",verdana,arial,sans-serif;}</style><g><marker id="g6f6791a5-995b-4943-adfc-6f8ee9c1cb60-light_flowchart-v2-pointEnd" class="marker flowchart-v2" viewBox="0 0 10 10" refX="5" refY="5" markerUnits="userSpaceOnUse" markerWidth="8" markerHeight="8" orient="auto"><path d="M 0 0 L 10 5 L 0 10 z" class="arrowMarkerPath" style="stroke-width: 1; stroke-dasharray: 1, 0;"></path></marker><marker id="g6f6791a5-995b-4943-adfc-6f8ee9c1cb60-light_flowchart-v2-pointStart" class="marker flowchart-v2" viewBox="0 0 10 10" refX="4.5" refY="5" markerUnits="userSpaceOnUse" markerWidth="8" markerHeight="8" orient="auto"><path d="M 0 5 L 10 10 L 10 0 z" class="arrowMarkerPath" style="stroke-width: 1; stroke-dasharray: 1, 0;"></path></marker><marker id="g6f6791a5-995b-4943-adfc-6f8ee9c1cb60-light_flowchart-v2-pointEnd-margin" class="marker flowchart-v2" viewBox="0 0 11.5 14" refX="11.5" refY="7" markerUnits="userSpaceOnUse" markerWidth="10.5" markerHeight="14" orient="auto"><path d="M 0 0 L 11.5 7 L 0 14 z" class="arrowMarkerPath" style="stroke-width: 0; stroke-dasharray: 1, 0;"></path></marker><marker id="g6f6791a5-995b-4943-adfc-6f8ee9c1cb60-light_flowchart-v2-pointStart-margin" class="marker flowchart-v2" viewBox="0 0 11.5 14" refX="1" refY="7" markerUnits="userSpaceOnUse" markerWidth="11.5" markerHeight="14" orient="auto"><polygon points="0,7 11.5,14 11.5,0" class="arrowMarkerPath" style="stroke-width: 0; stroke-dasharray: 1, 0;"></polygon></marker><marker id="g6f6791a5-995b-4943-adfc-6f8ee9c1cb60-light_flowchart-v2-circleEnd" class="marker flowchart-v2" viewBox="0 0 10 10" refX="11" refY="5" markerUnits="userSpaceOnUse" markerWidth="11" markerHeight="11" orient="auto"><circle cx="5" cy="5" r="5" class="arrowMarkerPath" style="stroke-width: 1; stroke-dasharray: 1, 0;"></circle></marker><marker id="g6f6791a5-995b-4943-adfc-6f8ee9c1cb60-light_flowchart-v2-circleStart" class="marker flowchart-v2" viewBox="0 0 10 10" refX="-1" refY="5" markerUnits="userSpaceOnUse" markerWidth="11" markerHeight="11" orient="auto"><circle cx="5" cy="5" r="5" class="arrowMarkerPath" style="stroke-width: 1; stroke-dasharray: 1, 0;"></circle></marker><marker id="g6f6791a5-995b-4943-adfc-6f8ee9c1cb60-light_flowchart-v2-circleEnd-margin" class="marker flowchart-v2" viewBox="0 0 10 10" refY="5" refX="12.25" markerUnits="userSpaceOnUse" markerWidth="14" markerHeight="14" orient="auto"><circle cx="5" cy="5" r="5" class="arrowMarkerPath" style="stroke-width: 0; stroke-dasharray: 1, 0;"></circle></marker><marker id="g6f6791a5-995b-4943-adfc-6f8ee9c1cb60-light_flowchart-v2-circleStart-margin" class="marker flowchart-v2" viewBox="0 0 10 10" refX="-2" refY="5" markerUnits="userSpaceOnUse" markerWidth="14" markerHeight="14" orient="auto"><circle cx="5" cy="5" r="5" class="arrowMarkerPath" style="stroke-width: 0; stroke-dasharray: 1, 0;"></circle></marker><marker id="g6f6791a5-995b-4943-adfc-6f8ee9c1cb60-light_flowchart-v2-crossEnd" class="marker cross flowchart-v2" viewBox="0 0 11 11" refX="12" refY="5.2" markerUnits="userSpaceOnUse" markerWidth="11" markerHeight="11" orient="auto"><path d="M 1,1 l 9,9 M 10,1 l -9,9" class="arrowMarkerPath" style="stroke-width: 2; stroke-dasharray: 1, 0;"></path></marker><marker id="g6f6791a5-995b-4943-adfc-6f8ee9c1cb60-light_flowchart-v2-crossStart" class="marker cross flowchart-v2" viewBox="0 0 11 11" refX="-1" refY="5.2" markerUnits="userSpaceOnUse" markerWidth="11" markerHeight="11" orient="auto"><path d="M 1,1 l 9,9 M 10,1 l -9,9" class="arrowMarkerPath" style="stroke-width: 2; stroke-dasharray: 1, 0;"></path></marker><marker id="g6f6791a5-995b-4943-adfc-6f8ee9c1cb60-light_flowchart-v2-crossEnd-margin" class="marker cross flowchart-v2" viewBox="0 0 15 15" refX="17.7" refY="7.5" markerUnits="userSpaceOnUse" markerWidth="12" markerHeight="12" orient="auto"><path d="M 1,1 L 14,14 M 1,14 L 14,1" class="arrowMarkerPath" style="stroke-width: 2.5;"></path></marker><marker id="g6f6791a5-995b-4943-adfc-6f8ee9c1cb60-light_flowchart-v2-crossStart-margin" class="marker cross flowchart-v2" viewBox="0 0 15 15" refX="-3.5" refY="7.5" markerUnits="userSpaceOnUse" markerWidth="12" markerHeight="12" orient="auto"><path d="M 1,1 L 14,14 M 1,14 L 14,1" class="arrowMarkerPath" style="stroke-width: 2.5; stroke-dasharray: 1, 0;"></path></marker><g class="root"><g class="clusters"></g><g class="edgePaths"><path d="M203.574,42.5L203.491,46.583C203.408,50.667,203.241,58.833,203.158,66.417C203.074,74,203.074,81,203.074,84.5L203.074,88" id="g6f6791a5-995b-4943-adfc-6f8ee9c1cb60-light-L_start_init_0" class="edge-thickness-normal edge-pattern-solid edge-thickness-normal edge-pattern-solid flowchart-link" style=";" data-edge="true" data-et="edge" data-id="L_start_init_0" data-points="W3sieCI6MjAzLjU3NDIxODc1LCJ5Ijo0Mi41fSx7IngiOjIwMy4wNzQyMTg3NSwieSI6Njd9LHsieCI6MjAzLjA3NDIxODc1LCJ5Ijo5Mn1d" data-look="classic" marker-end="url(#g6f6791a5-995b-4943-adfc-6f8ee9c1cb60-light_flowchart-v2-pointEnd)"></path><path d="M139.96,42.5L124.285,46.583C108.61,50.667,77.26,58.833,61.585,74.1C45.91,89.367,45.91,111.733,45.91,136.017C45.91,160.3,45.91,186.5,52.987,206.679C60.064,226.857,74.218,241.014,81.295,248.093L88.372,255.171" id="g6f6791a5-995b-4943-adfc-6f8ee9c1cb60-light-L_start_dev_0" class="edge-thickness-normal edge-pattern-solid edge-thickness-normal edge-pattern-solid flowchart-link" style=";" data-edge="true" data-et="edge" data-id="L_start_dev_0" data-points="W3sieCI6MTM5Ljk2MDE5MzQ1MjM4MDk2LCJ5Ijo0Mi41fSx7IngiOjQ1LjkxMDE1NjI1LCJ5Ijo2N30seyJ4Ijo0NS45MTAxNTYyNSwieSI6MTM0LjA5OTk5ODQ3NDEyMTF9LHsieCI6NDUuOTEwMTU2MjUsInkiOjIxMi42OTk5OTY5NDgyNDIyfSx7IngiOjkxLjE5OTgwMDMzMTE0NzM0LCJ5IjoyNTcuOTk5OTk2MTg1MzAyNzN9XQ==" data-look="classic" marker-end="url(#g6f6791a5-995b-4943-adfc-6f8ee9c1cb60-light_flowchart-v2-pointEnd)"></path><path d="M203.074,176.2L203.074,182.283C203.074,188.367,203.074,200.533,195.997,213.695C188.92,226.857,174.767,241.014,167.69,248.093L160.613,255.171" id="g6f6791a5-995b-4943-adfc-6f8ee9c1cb60-light-L_init_dev_0" class="edge-thickness-normal edge-pattern-solid edge-thickness-normal edge-pattern-solid flowchart-link" style=";" data-edge="true" data-et="edge" data-id="L_init_dev_0" data-points="W3sieCI6MjAzLjA3NDIxODc1LCJ5IjoxNzYuMTk5OTk2OTQ4MjQyMn0seyJ4IjoyMDMuMDc0MjE4NzUsInkiOjIxMi42OTk5OTY5NDgyNDIyfSx7IngiOjE1Ny43ODQ1NzQ2Njg4NTI2NiwieSI6MjU3Ljk5OTk5NjE4NTMwMjczfV0=" data-look="classic" marker-end="url(#g6f6791a5-995b-4943-adfc-6f8ee9c1cb60-light_flowchart-v2-pointEnd)"></path><path d="M124.492,324.6L124.492,330.233C124.492,335.867,124.492,347.133,124.492,356.267C124.492,365.4,124.492,372.4,124.492,375.9L124.492,379.4" id="g6f6791a5-995b-4943-adfc-6f8ee9c1cb60-light-L_dev_build_0" class="edge-thickness-normal edge-pattern-solid edge-thickness-normal edge-pattern-solid flowchart-link" style=";" data-edge="true" data-et="edge" data-id="L_dev_build_0" data-points="W3sieCI6MTI0LjQ5MjE4NzUsInkiOjMyNC41OTk5OTQ2NTk0MjM4fSx7IngiOjEyNC40OTIxODc1LCJ5IjozNTguMzk5OTkzODk2NDg0NH0seyJ4IjoxMjQuNDkyMTg3NSwieSI6MzgzLjM5OTk5Mzg5NjQ4NDR9XQ==" data-look="classic" marker-end="url(#g6f6791a5-995b-4943-adfc-6f8ee9c1cb60-light_flowchart-v2-pointEnd)"></path><path d="M124.492,467.6L124.492,471.767C124.492,475.933,124.492,484.267,124.492,491.933C124.492,499.6,124.492,506.6,124.492,510.1L124.492,513.6" id="g6f6791a5-995b-4943-adfc-6f8ee9c1cb60-light-L_build_preview_0" class="edge-thickness-normal edge-pattern-solid edge-thickness-normal edge-pattern-solid flowchart-link" style=";" data-edge="true" data-et="edge" data-id="L_build_preview_0" data-points="W3sieCI6MTI0LjQ5MjE4NzUsInkiOjQ2Ny41OTk5OTA4NDQ3MjY1Nn0seyJ4IjoxMjQuNDkyMTg3NSwieSI6NDkyLjU5OTk5MDg0NDcyNjU2fSx7IngiOjEyNC40OTIxODc1LCJ5Ijo1MTcuNTk5OTkwODQ0NzI2Nn1d" data-look="classic" marker-end="url(#g6f6791a5-995b-4943-adfc-6f8ee9c1cb60-light_flowchart-v2-pointEnd)"></path><path d="M291.499,40.116L318.872,44.596C346.245,49.077,400.992,58.039,428.365,73.703C455.738,89.367,455.738,111.733,455.738,136.017C455.738,160.3,455.738,186.5,460.045,205.156C464.352,223.813,472.965,234.926,477.272,240.482L481.579,246.038" id="g6f6791a5-995b-4943-adfc-6f8ee9c1cb60-light-L_start_mcp_0" class="edge-thickness-normal edge-pattern-dotted edge-thickness-normal edge-pattern-solid flowchart-link" style=";" data-edge="true" data-et="edge" data-id="L_start_mcp_0" data-points="W3sieCI6MjkxLjQ5ODkwMzUyMTg2ODQ0LCJ5Ijo0MC4xMTU1OTk1NTg4NzQ2NH0seyJ4Ijo0NTUuNzM4MjgxMjUsInkiOjY3fSx7IngiOjQ1NS43MzgyODEyNSwieSI6MTM0LjA5OTk5ODQ3NDEyMTF9LHsieCI6NDU1LjczODI4MTI1LCJ5IjoyMTIuNjk5OTk2OTQ4MjQyMn0seyJ4Ijo0ODQuMDI4OTc0Mzg4MjcxOSwieSI6MjQ5LjE5OTk5Njk0ODI0MjJ9XQ==" data-look="classic" marker-end="url(#g6f6791a5-995b-4943-adfc-6f8ee9c1cb60-light_flowchart-v2-pointEnd)"></path><path d="M325.238,159.739L367.296,168.566C409.353,177.393,493.467,195.046,531.218,209.43C568.969,223.813,560.355,234.926,556.049,240.482L551.742,246.038" id="g6f6791a5-995b-4943-adfc-6f8ee9c1cb60-light-L_init_mcp_0" class="edge-thickness-normal edge-pattern-dotted edge-thickness-normal edge-pattern-solid flowchart-link" style=";" data-edge="true" data-et="edge" data-id="L_init_mcp_0" data-points="W3sieCI6MzI1LjIzODI4MTI1LCJ5IjoxNTkuNzM5MjM2OTc3NTcwMDJ9LHsieCI6NTc3LjU4MjAzMTI1LCJ5IjoyMTIuNjk5OTk2OTQ4MjQyMn0seyJ4Ijo1NDkuMjkxMzM4MTExNzI4MSwieSI6MjQ5LjE5OTk5Njk0ODI0MjJ9XQ==" data-look="classic" marker-end="url(#g6f6791a5-995b-4943-adfc-6f8ee9c1cb60-light_flowchart-v2-pointEnd)"></path></g><g class="edgeLabels"><g class="edgeLabel"><g class="label" data-id="L_start_init_0" transform="translate(0, 0)"><text y="-10.1" text-anchor="middle"><tspan class="text-outer-tspan row" x="0" y="-0.1em" dy="1.1em" text-anchor="middle"></tspan></text></g></g><g><rect class="background" style="stroke: none"></rect></g><g class="edgeLabel"><g class="label" data-id="L_start_dev_0" transform="translate(0, 0)"><text y="-10.1" text-anchor="middle"><tspan class="text-outer-tspan row" x="0" y="-0.1em" dy="1.1em" text-anchor="middle"></tspan></text></g></g><g><rect class="background" style="stroke: none"></rect></g><g class="edgeLabel"><g class="label" data-id="L_init_dev_0" transform="translate(0, 0)"><text y="-10.1" text-anchor="middle"><tspan class="text-outer-tspan row" x="0" y="-0.1em" dy="1.1em" text-anchor="middle"></tspan></text></g></g><g><rect class="background" style="stroke: none"></rect></g><g class="edgeLabel"><g class="label" data-id="L_dev_build_0" transform="translate(0, 0)"><text y="-10.1" text-anchor="middle"><tspan class="text-outer-tspan row" x="0" y="-0.1em" dy="1.1em" text-anchor="middle"></tspan></text></g></g><g><rect class="background" style="stroke: none"></rect></g><g class="edgeLabel"><g class="label" data-id="L_build_preview_0" transform="translate(0, 0)"><text y="-10.1" text-anchor="middle"><tspan class="text-outer-tspan row" x="0" y="-0.1em" dy="1.1em" text-anchor="middle"></tspan></text></g></g><g><rect class="background" style="stroke: none"></rect></g><g class="edgeLabel" transform="translate(455.73828125, 134.0999984741211)"><g class="label" data-id="L_start_mcp_0" transform="translate(0, -10.5)"><g><rect class="background" style="" x="-95.5" y="-1" width="191" height="23"></rect><text y="-10.1" text-anchor="middle" style=""><tspan class="text-outer-tspan row" x="0" y="-0.1em" dy="1.1em" text-anchor="middle"><tspan font-style="normal" class="text-inner-tspan" font-weight="normal">assistant</tspan><tspan font-style="normal" class="text-inner-tspan" font-weight="normal"> or</tspan><tspan font-style="normal" class="text-inner-tspan" font-weight="normal"> tooling</tspan><tspan font-style="normal" class="text-inner-tspan" font-weight="normal"> access</tspan></tspan></text></g></g></g><g class="edgeLabel" transform="translate(474.00794, 190.96234)"><g class="label" data-id="L_init_mcp_0" transform="translate(0, -10.5)"><g><rect class="background" style="" x="-101.84375" y="-1" width="203.6875" height="23"></rect><text y="-10.1" text-anchor="middle" style=""><tspan class="text-outer-tspan row" x="0" y="-0.1em" dy="1.1em" text-anchor="middle"><tspan font-style="normal" class="text-inner-tspan" font-weight="normal">project</tspan><tspan font-style="normal" class="text-inner-tspan" font-weight="normal"> metadata</tspan><tspan font-style="normal" class="text-inner-tspan" font-weight="normal"> +</tspan><tspan font-style="normal" class="text-inner-tspan" font-weight="normal"> content</tspan></tspan></text></g></g></g></g><g class="nodes"><g class="node default" id="g6f6791a5-995b-4943-adfc-6f8ee9c1cb60-light-flowchart-start-0" data-look="classic" transform="translate(203.07421875, 25)"><g class="basic label-container outer-path"><path d="M-79.2578125 -17 C-20.16606685726397 -17, 38.92567878547206 -17, 79.2578125 -17 C79.2578125 -17, 79.2578125 -17, 79.2578125 -17 C79.68267014274437 -16.986375642332423, 80.10752778548874 -16.972751284664845, 80.34700623967211 -16.965071676755716 C80.57291821011427 -16.94327822066606, 80.79883018055642 -16.921484764576398, 81.4317242486366 -16.860430234995185 C81.68595679441701 -16.81932788859625, 81.94018934019742 -16.77822554219731, 82.50750918792333 -16.686505668848113 C82.84348510680165 -16.609821357811903, 83.17946102567997 -16.53313704677569, 83.56994042646163 -16.4440126716635 C83.89450433336731 -16.347683807764607, 84.21906824027299 -16.251354943865714, 84.61465220640156 -16.133947699181366 C84.89064996602569 -16.032377972344364, 85.16664772564982 -15.930808245507357, 85.63735158294936 -15.757584874882369 C85.85214950396079 -15.66250020700455, 86.06694742497221 -15.567415539126731, 86.63383606499849 -15.316470754341125 C87.01675081468656 -15.11670437469746, 87.39966556437463 -14.916937995053793, 87.60001088406693 -14.812417970097622 C87.90297234005881 -14.62876095507621, 88.20593379605069 -14.4451039400548, 88.53190582057933 -14.247497783161291 C88.85610821001838 -14.021348230783856, 89.18031059945741 -13.79519867840642, 89.42569151835067 -13.624031571755262 C89.72856534611942 -13.382497753920731, 90.03143917388817 -13.140963936086198, 90.2776952202324 -12.944581292275288 C90.58501797781668 -12.66547889515183, 90.89234073540096 -12.38637649802837, 91.08441586025927 -12.21193895166137 C91.29767156075533 -11.99173493228056, 91.5109272612514 -11.771530912899747, 91.84253845028036 -11.42911513444239 C92.00980829030203 -11.232630462429404, 92.17707813032371 -11.036145790416416, 92.54894770195651 -10.59932663159847 C92.705710360444 -10.389278950597204, 92.86247301893151 -10.179231269595936, 93.20074082814824 -9.725983222076888 C93.33344520151287 -9.52211366847503, 93.46614957487752 -9.318244114873169, 93.79523947109088 -8.812673661278927 C93.92839652239147 -8.576239833081173, 94.06155357369207 -8.339806004883418, 94.330000708341 -7.863150934094199 C94.50223307651567 -7.505506736397178, 94.67446544469034 -7.147862538700158, 94.80282709126881 -6.881316833080699 C94.91165614031424 -6.612506977871986, 95.02048518935965 -6.343697122663272, 95.21177567484592 -5.871205925162238 C95.28429028018338 -5.652803487519169, 95.35680488552083 -5.434401049876099, 95.55516600162323 -4.836968972727556 C95.63578922880016 -4.529517665174229, 95.71641245597709 -4.222066357620901, 95.831587007091 -3.7828558772573464 C95.88770455559306 -3.4947041261473277, 95.94382210409512 -3.206552375037309, 96.03990281804565 -2.713198215567453 C96.09267703505525 -2.3038918098888748, 96.14545125206484 -1.894585404210296, 96.17925742013637 -1.632391440430593 C96.19987288975337 -1.3112888606382942, 96.22048835937036 -0.9901862808459951, 96.2490781754117 -0.5448768187181379 C96.2490781754117 -0.2649936803359054, 96.2490781754117 0.01488945804632702, 96.2490781754117 0.5448768187181336 C96.22322814461586 0.9475119141324994, 96.19737811382004 1.350147009546865, 96.17925742013637 1.6323914404305815 C96.1426919012614 1.9159863841464397, 96.10612638238642 2.1995813278622975, 96.03990281804565 2.7131982155674415 C95.97231921789049 3.060225718565239, 95.90473561773533 3.4072532215630367, 95.831587007091 3.782855877257343 C95.76332657026276 4.0431625071438955, 95.69506613343452 4.303469137030448, 95.55516600162323 4.836968972727545 C95.48600752459429 5.045263286631837, 95.41684904756532 5.253557600536129, 95.21177567484592 5.871205925162227 C95.05214607212233 6.265494130117931, 94.89251646939873 6.659782335073635, 94.80282709126881 6.881316833080694 C94.62285031620833 7.255042457379863, 94.44287354114786 7.628768081679033, 94.330000708341 7.863150934094196 C94.21880483758862 8.060590462417943, 94.10760896683622 8.25802999074169, 93.79523947109088 8.812673661278923 C93.62026438045291 9.081482387889533, 93.44528928981495 9.350291114500141, 93.20074082814826 9.725983222076879 C92.95503972086495 10.055200322005168, 92.70933861358162 10.384417421933456, 92.54894770195651 10.599326631598467 C92.36024233488816 10.820990693396523, 92.1715369678198 11.042654755194576, 91.84253845028037 11.42911513444238 C91.62293942059593 11.655869162007214, 91.40334039091147 11.882623189572046, 91.08441586025927 12.211938951661365 C90.79812468832753 12.471941019160447, 90.51183351639581 12.731943086659527, 90.27769522023242 12.944581292275275 C90.03644767105128 13.136969792880338, 89.79520012187012 13.3293582934854, 89.42569151835067 13.62403157175526 C89.11080231733177 13.843684647052237, 88.79591311631286 14.063337722349212, 88.53190582057934 14.247497783161286 C88.21668726861644 14.438585121791023, 87.90146871665354 14.62967246042076, 87.60001088406695 14.81241797009762 C87.3422829312763 14.946874477985869, 87.08455497848566 15.081330985874116, 86.63383606499849 15.316470754341124 C86.34562903726955 15.44405145615901, 86.0574220095406 15.571632157976895, 85.63735158294936 15.757584874882367 C85.35624190418899 15.861035835215567, 85.07513222542863 15.964486795548767, 84.61465220640156 16.133947699181363 C84.22309894634743 16.250158651460424, 83.83154568629332 16.366369603739482, 83.56994042646164 16.444012671663497 C83.28460317832125 16.509139036551986, 82.99926593018085 16.57426540144047, 82.50750918792333 16.68650566884811 C82.26822861401374 16.725190696389248, 82.02894804010414 16.763875723930386, 81.43172424863661 16.86043023499518 C81.0951281499032 16.892901255823958, 80.7585320511698 16.925372276652734, 80.34700623967211 16.965071676755716 C79.9369189705106 16.97822237729128, 79.52683170134908 16.991373077826843, 79.2578125 17 C79.2578125 17, 79.2578125 17, 79.2578125 17 C23.44663623067546 17, -32.36454003864908 17, -79.2578125 17 C-79.52291895351017 16.991498552034336, -79.78802540702036 16.982997104068673, -80.34700623967211 16.965071676755716 C-80.65766849502187 16.93510246260815, -80.96833075037162 16.905133248460587, -81.4317242486366 16.86043023499518 C-81.84984603405562 16.79283154731151, -82.26796781947463 16.725232859627837, -82.50750918792333 16.68650566884811 C-82.7202079142236 16.637958572558976, -82.93290664052387 16.589411476269845, -83.56994042646161 16.4440126716635 C-83.83480524175663 16.365402184787726, -84.09967005705165 16.28679169791195, -84.61465220640154 16.13394769918137 C-85.00108673420725 15.991736220787253, -85.38752126201297 15.849524742393136, -85.63735158294936 15.757584874882369 C-85.95017998635089 15.619105020421392, -86.26300838975241 15.480625165960415, -86.63383606499849 15.316470754341127 C-86.88963653702564 15.183019811932587, -87.14543700905278 15.049568869524046, -87.60001088406693 14.812417970097624 C-87.80685806772047 14.68702599179787, -88.013705251374 14.561634013498116, -88.53190582057931 14.247497783161299 C-88.87652983568964 14.007102988753513, -89.22115385079995 13.766708194345725, -89.42569151835067 13.624031571755264 C-89.62571723178574 13.46451638819858, -89.82574294522081 13.305001204641899, -90.2776952202324 12.94458129227529 C-90.58600523500274 12.664582294296835, -90.89431524977309 12.384583296318382, -91.08441586025926 12.211938951661377 C-91.35500264113502 11.932535884819297, -91.62558942201076 11.653132817977218, -91.84253845028036 11.429115134442386 C-92.03388111600272 11.204353151578786, -92.22522378172509 10.979591168715185, -92.54894770195651 10.599326631598473 C-92.74169684437743 10.34106034056254, -92.93444598679837 10.082794049526608, -93.20074082814824 9.72598322207689 C-93.32491440205744 9.535219267278979, -93.44908797596665 9.344455312481069, -93.79523947109088 8.812673661278936 C-93.93847683654857 8.558341214552755, -94.08171420200627 8.304008767826573, -94.330000708341 7.863150934094201 C-94.49271307790588 7.525275217205753, -94.65542544747075 7.187399500317305, -94.80282709126881 6.881316833080701 C-94.91694526176292 6.599442745635504, -95.03106343225704 6.317568658190306, -95.21177567484592 5.87120592516224 C-95.28959923506092 5.63681376129511, -95.36742279527591 5.4024215974279794, -95.55516600162323 4.8369689727275516 C-95.63555171659193 4.530423402162664, -95.71593743156062 4.223877831597777, -95.831587007091 3.782855877257349 C-95.89312135508042 3.4668900056207286, -95.95465570306985 3.150924133984108, -96.03990281804565 2.713198215567455 C-96.08013175778048 2.4011905030867906, -96.12036069751531 2.0891827906061264, -96.17925742013637 1.6323914404306026 C-96.2026166678309 1.268552302343029, -96.22597591552542 0.9047131642554552, -96.2490781754117 0.54487681871814 C-96.2490781754117 0.21844442206963433, -96.2490781754117 -0.10798797457887133, -96.2490781754117 -0.5448768187181317 C-96.23389301185873 -0.7813979982990662, -96.21870784830575 -1.017919177880001, -96.17925742013637 -1.6323914404305793 C-96.13170763969508 -2.001178147766955, -96.0841578592538 -2.3699648551033308, -96.03990281804565 -2.713198215567447 C-95.98882082394128 -2.975493459110125, -95.9377388298369 -3.2377887026528036, -95.831587007091 -3.782855877257341 C-95.74425842719104 -4.115877600861825, -95.65692984729108 -4.44889932446631, -95.55516600162323 -4.836968972727544 C-95.47380145472253 -5.08202602431243, -95.39243690782182 -5.327083075897318, -95.21177567484594 -5.871205925162218 C-95.11345466232235 -6.114060727002913, -95.01513364979878 -6.356915528843609, -94.80282709126881 -6.881316833080692 C-94.64932452333575 -7.200068199822507, -94.49582195540268 -7.518819566564321, -94.330000708341 -7.863150934094194 C-94.16078601976595 -8.163608748504448, -93.99157133119091 -8.4640665629147, -93.79523947109088 -8.812673661278929 C-93.67451145596719 -8.998144312520203, -93.5537834408435 -9.18361496376148, -93.20074082814826 -9.725983222076884 C-93.04359137938259 -9.936549166813577, -92.88644193061691 -10.14711511155027, -92.54894770195651 -10.599326631598467 C-92.37500913376248 -10.80364477118409, -92.20107056556844 -11.007962910769711, -91.84253845028037 -11.42911513444238 C-91.58578553181917 -11.694233602560201, -91.32903261335797 -11.959352070678023, -91.08441586025927 -12.21193895166136 C-90.8814961536245 -12.396225260265833, -90.67857644698972 -12.580511568870307, -90.27769522023242 -12.944581292275274 C-90.07292291599035 -13.107881755688453, -89.86815061174828 -13.271182219101634, -89.42569151835067 -13.624031571755259 C-89.10573801241311 -13.847217286933265, -88.78578450647555 -14.070403002111272, -88.53190582057934 -14.247497783161284 C-88.22496321127792 -14.433568196714791, -87.91802060197652 -14.619638610268298, -87.60001088406695 -14.812417970097618 C-87.31231799192805 -14.962507167650383, -87.02462509978918 -15.11259636520315, -86.63383606499849 -15.316470754341124 C-86.26825315176305 -15.478303465398644, -85.90267023852759 -15.640136176456165, -85.63735158294936 -15.757584874882365 C-85.24817632866505 -15.900804965955608, -84.85900107438074 -16.04402505702885, -84.61465220640156 -16.133947699181363 C-84.40271399101675 -16.196849849021177, -84.19077577563196 -16.25975199886099, -83.56994042646164 -16.444012671663494 C-83.18958581360602 -16.530826130001984, -82.80923120075038 -16.617639588340474, -82.50750918792333 -16.68650566884811 C-82.19052396493746 -16.737753381443348, -81.87353874195158 -16.789001094038586, -81.43172424863661 -16.86043023499518 C-81.16055748791054 -16.88658936627668, -80.88939072718448 -16.912748497558184, -80.34700623967213 -16.965071676755716 C-80.08612431046238 -16.973437652449604, -79.82524238125264 -16.98180362814349, -79.2578125 -17 C-79.2578125 -17, -79.2578125 -17, -79.2578125 -17" stroke="none" stroke-width="0" fill="#ECECFF" style=""></path><path d="M-79.2578125 -17 C-24.497452373711354 -17, 30.26290775257729 -17, 79.2578125 -17 M-79.2578125 -17 C-32.2363256176025 -17, 14.785161264794993 -17, 79.2578125 -17 M79.2578125 -17 C79.2578125 -17, 79.2578125 -17, 79.2578125 -17 M79.2578125 -17 C79.2578125 -17, 79.2578125 -17, 79.2578125 -17 M79.2578125 -17 C79.5554330789295 -16.990455887317044, 79.85305365785901 -16.980911774634087, 80.34700623967211 -16.965071676755716 M79.2578125 -17 C79.62049944861977 -16.988369335485082, 79.98318639723954 -16.976738670970168, 80.34700623967211 -16.965071676755716 M80.34700623967211 -16.965071676755716 C80.7294515042708 -16.928177642037607, 81.11189676886949 -16.891283607319497, 81.4317242486366 -16.860430234995185 M80.34700623967211 -16.965071676755716 C80.74503299799984 -16.926674514077053, 81.14305975632756 -16.888277351398393, 81.4317242486366 -16.860430234995185 M81.4317242486366 -16.860430234995185 C81.78274553898595 -16.803679834982265, 82.13376682933529 -16.74692943496935, 82.50750918792333 -16.686505668848113 M81.4317242486366 -16.860430234995185 C81.75225229213093 -16.808609746655122, 82.07278033562527 -16.756789258315063, 82.50750918792333 -16.686505668848113 M82.50750918792333 -16.686505668848113 C82.90773243221905 -16.59515732503836, 83.30795567651478 -16.503808981228605, 83.56994042646163 -16.4440126716635 M82.50750918792333 -16.686505668848113 C82.73012114041852 -16.635695943369836, 82.9527330929137 -16.58488621789156, 83.56994042646163 -16.4440126716635 M83.56994042646163 -16.4440126716635 C83.8220272309834 -16.36919463131208, 84.07411403550515 -16.29437659096066, 84.61465220640156 -16.133947699181366 M83.56994042646163 -16.4440126716635 C83.7807447258041 -16.381447062153004, 83.99154902514657 -16.318881452642504, 84.61465220640156 -16.133947699181366 M84.61465220640156 -16.133947699181366 C84.96635582474002 -16.0045175165202, 85.3180594430785 -15.875087333859035, 85.63735158294936 -15.757584874882369 M84.61465220640156 -16.133947699181366 C84.89390036479733 -16.031181795550044, 85.1731485231931 -15.928415891918718, 85.63735158294936 -15.757584874882369 M85.63735158294936 -15.757584874882369 C85.94544303737942 -15.621201927214464, 86.25353449180946 -15.484818979546562, 86.63383606499849 -15.316470754341125 M85.63735158294936 -15.757584874882369 C85.91069828135801 -15.636582400038572, 86.18404497976667 -15.515579925194775, 86.63383606499849 -15.316470754341125 M86.63383606499849 -15.316470754341125 C86.83113453760885 -15.213540267556002, 87.02843301021922 -15.110609780770877, 87.60001088406693 -14.812417970097622 M86.63383606499849 -15.316470754341125 C86.94487310018796 -15.154202932311508, 87.25591013537742 -14.99193511028189, 87.60001088406693 -14.812417970097622 M87.60001088406693 -14.812417970097622 C87.89575029046517 -14.63313900398135, 88.1914896968634 -14.45386003786508, 88.53190582057933 -14.247497783161291 M87.60001088406693 -14.812417970097622 C87.85505414319478 -14.657809247613772, 88.11009740232261 -14.503200525129921, 88.53190582057933 -14.247497783161291 M88.53190582057933 -14.247497783161291 C88.82765185084617 -14.041198155086452, 89.12339788111301 -13.834898527011612, 89.42569151835067 -13.624031571755262 M88.53190582057933 -14.247497783161291 C88.83540884827981 -14.03578720947175, 89.1389118759803 -13.824076635782209, 89.42569151835067 -13.624031571755262 M89.42569151835067 -13.624031571755262 C89.65216024519187 -13.443428788685337, 89.87862897203306 -13.26282600561541, 90.2776952202324 -12.944581292275288 M89.42569151835067 -13.624031571755262 C89.60818588912832 -13.478497167439246, 89.79068025990598 -13.33296276312323, 90.2776952202324 -12.944581292275288 M90.2776952202324 -12.944581292275288 C90.48013810880327 -12.760728017220535, 90.68258099737415 -12.576874742165781, 91.08441586025927 -12.21193895166137 M90.2776952202324 -12.944581292275288 C90.49447005573107 -12.747712122223243, 90.71124489122975 -12.550842952171196, 91.08441586025927 -12.21193895166137 M91.08441586025927 -12.21193895166137 C91.33653759916095 -11.951602556665659, 91.58865933806263 -11.691266161669947, 91.84253845028036 -11.42911513444239 M91.08441586025927 -12.21193895166137 C91.34618702657357 -11.941638730629396, 91.60795819288789 -11.671338509597424, 91.84253845028036 -11.42911513444239 M91.84253845028036 -11.42911513444239 C92.01214129218798 -11.229889985662604, 92.1817441340956 -11.030664836882817, 92.54894770195651 -10.59932663159847 M91.84253845028036 -11.42911513444239 C92.03949366701703 -11.197760329794189, 92.2364488837537 -10.966405525145987, 92.54894770195651 -10.59932663159847 M92.54894770195651 -10.59932663159847 C92.75852231276899 -10.318515745749567, 92.96809692358146 -10.03770485990066, 93.20074082814824 -9.725983222076888 M92.54894770195651 -10.59932663159847 C92.68952883372913 -10.410960722227722, 92.83010996550176 -10.222594812856974, 93.20074082814824 -9.725983222076888 M93.20074082814824 -9.725983222076888 C93.43404727963811 -9.367561861034194, 93.66735373112796 -9.009140499991501, 93.79523947109088 -8.812673661278927 M93.20074082814824 -9.725983222076888 C93.43449622622828 -9.366872158512649, 93.66825162430831 -9.007761094948409, 93.79523947109088 -8.812673661278927 M93.79523947109088 -8.812673661278927 C93.98799799411817 -8.470411384726956, 94.18075651714547 -8.128149108174986, 94.330000708341 -7.863150934094199 M93.79523947109088 -8.812673661278927 C93.93319222354324 -8.567724580068791, 94.07114497599562 -8.322775498858658, 94.330000708341 -7.863150934094199 M94.330000708341 -7.863150934094199 C94.4511741370576 -7.611531716668137, 94.57234756577421 -7.359912499242074, 94.80282709126881 -6.881316833080699 M94.330000708341 -7.863150934094199 C94.44649980357184 -7.6212380701660525, 94.56299889880268 -7.379325206237906, 94.80282709126881 -6.881316833080699 M94.80282709126881 -6.881316833080699 C94.93108342946093 -6.564521198078578, 95.05933976765303 -6.247725563076456, 95.21177567484592 -5.871205925162238 M94.80282709126881 -6.881316833080699 C94.90017888245083 -6.640856026692263, 94.99753067363285 -6.400395220303827, 95.21177567484592 -5.871205925162238 M95.21177567484592 -5.871205925162238 C95.29077860493622 -5.633261687137769, 95.36978153502652 -5.3953174491133, 95.55516600162323 -4.836968972727556 M95.21177567484592 -5.871205925162238 C95.34900797589299 -5.457884099406314, 95.48624027694007 -5.04456227365039, 95.55516600162323 -4.836968972727556 M95.55516600162323 -4.836968972727556 C95.65222742749087 -4.4668316892061615, 95.74928885335852 -4.096694405684767, 95.831587007091 -3.7828558772573464 M95.55516600162323 -4.836968972727556 C95.65389335488348 -4.460478786040694, 95.75262070814371 -4.083988599353832, 95.831587007091 -3.7828558772573464 M95.831587007091 -3.7828558772573464 C95.9120107160654 -3.369897129230743, 95.99243442503979 -2.9569383812041394, 96.03990281804565 -2.713198215567453 M95.831587007091 -3.7828558772573464 C95.89712840729653 -3.446314639381783, 95.96266980750207 -3.10977340150622, 96.03990281804565 -2.713198215567453 M96.03990281804565 -2.713198215567453 C96.07900836621982 -2.409903306192503, 96.11811391439399 -2.106608396817553, 96.17925742013637 -1.632391440430593 M96.03990281804565 -2.713198215567453 C96.07230418442124 -2.4618996163318867, 96.10470555079682 -2.2106010170963204, 96.17925742013637 -1.632391440430593 M96.17925742013637 -1.632391440430593 C96.20285467842211 -1.2648450952659493, 96.22645193670787 -0.8972987501013057, 96.2490781754117 -0.5448768187181379 M96.17925742013637 -1.632391440430593 C96.20574043457893 -1.2198971137832602, 96.23222344902149 -0.8074027871359271, 96.2490781754117 -0.5448768187181379 M96.2490781754117 -0.5448768187181379 C96.2490781754117 -0.20631998602062518, 96.2490781754117 0.1322368466768875, 96.2490781754117 0.5448768187181336 M96.2490781754117 -0.5448768187181379 C96.2490781754117 -0.18438807730638884, 96.2490781754117 0.17610066410536018, 96.2490781754117 0.5448768187181336 M96.2490781754117 0.5448768187181336 C96.22782253977041 0.8759505010714539, 96.20656690412912 1.2070241834247741, 96.17925742013637 1.6323914404305815 M96.2490781754117 0.5448768187181336 C96.22607960193008 0.9030981648085701, 96.20308102844848 1.2613195108990065, 96.17925742013637 1.6323914404305815 M96.17925742013637 1.6323914404305815 C96.1395722483486 1.9401817960928924, 96.09988707656085 2.247972151755203, 96.03990281804565 2.7131982155674415 M96.17925742013637 1.6323914404305815 C96.12826928690394 2.0278453330355077, 96.07728115367152 2.423299225640434, 96.03990281804565 2.7131982155674415 M96.03990281804565 2.7131982155674415 C95.96543623358258 3.095568388267095, 95.89096964911951 3.4779385609667486, 95.831587007091 3.782855877257343 M96.03990281804565 2.7131982155674415 C95.97579336036002 3.042386731244464, 95.9116839026744 3.371575246921487, 95.831587007091 3.782855877257343 M95.831587007091 3.782855877257343 C95.77534729512074 3.9973222734452873, 95.71910758315049 4.211788669633232, 95.55516600162323 4.836968972727545 M95.831587007091 3.782855877257343 C95.73068489390265 4.167639366097001, 95.62978278071431 4.55242285493666, 95.55516600162323 4.836968972727545 M95.55516600162323 4.836968972727545 C95.44030733364845 5.182904980424075, 95.32544866567366 5.528840988120604, 95.21177567484592 5.871205925162227 M95.55516600162323 4.836968972727545 C95.47016611722549 5.092975081641153, 95.38516623282773 5.348981190554761, 95.21177567484592 5.871205925162227 M95.21177567484592 5.871205925162227 C95.05583888271597 6.256372816555997, 94.89990209058601 6.641539707949767, 94.80282709126881 6.881316833080694 M95.21177567484592 5.871205925162227 C95.12547271616928 6.084375901647722, 95.03916975749264 6.297545878133218, 94.80282709126881 6.881316833080694 M94.80282709126881 6.881316833080694 C94.68327596581926 7.1295673030609965, 94.5637248403697 7.3778177730413, 94.330000708341 7.863150934094196 M94.80282709126881 6.881316833080694 C94.66990629571966 7.157329709087928, 94.5369855001705 7.433342585095161, 94.330000708341 7.863150934094196 M94.330000708341 7.863150934094196 C94.12267300933478 8.231282257885802, 93.91534531032856 8.599413581677407, 93.79523947109088 8.812673661278923 M94.330000708341 7.863150934094196 C94.2125467463941 8.071702337034262, 94.09509278444719 8.280253739974329, 93.79523947109088 8.812673661278923 M93.79523947109088 8.812673661278923 C93.58169846724007 9.140729986982196, 93.36815746338925 9.468786312685467, 93.20074082814826 9.725983222076879 M93.79523947109088 8.812673661278923 C93.6294589935756 9.067356993033757, 93.46367851606033 9.322040324788592, 93.20074082814826 9.725983222076879 M93.20074082814826 9.725983222076879 C92.97162927374484 10.032971832485464, 92.74251771934142 10.339960442894048, 92.54894770195651 10.599326631598467 M93.20074082814826 9.725983222076879 C92.95619971826115 10.053646031172187, 92.71165860837404 10.381308840267494, 92.54894770195651 10.599326631598467 M92.54894770195651 10.599326631598467 C92.30514685691176 10.88570897684911, 92.06134601186702 11.172091322099751, 91.84253845028037 11.42911513444238 M92.54894770195651 10.599326631598467 C92.38874201266187 10.787513350205924, 92.22853632336722 10.975700068813378, 91.84253845028037 11.42911513444238 M91.84253845028037 11.42911513444238 C91.64459399796495 11.633509032999827, 91.44664954564952 11.837902931557272, 91.08441586025927 12.211938951661365 M91.84253845028037 11.42911513444238 C91.62840582404309 11.650224651647946, 91.4142731978058 11.871334168853512, 91.08441586025927 12.211938951661365 M91.08441586025927 12.211938951661365 C90.8887159098585 12.389668468678398, 90.69301595945774 12.567397985695429, 90.27769522023242 12.944581292275275 M91.08441586025927 12.211938951661365 C90.7819119264511 12.486665020530447, 90.47940799264295 12.761391089399527, 90.27769522023242 12.944581292275275 M90.27769522023242 12.944581292275275 C89.9880574750017 13.17555968651268, 89.69841972977096 13.406538080750083, 89.42569151835067 13.62403157175526 M90.27769522023242 12.944581292275275 C89.96957088818074 13.190302247553655, 89.66144655612906 13.436023202832033, 89.42569151835067 13.62403157175526 M89.42569151835067 13.62403157175526 C89.1516251431653 13.815208410942411, 88.87755876797993 14.006385250129561, 88.53190582057934 14.247497783161286 M89.42569151835067 13.62403157175526 C89.10073536068207 13.850706920219542, 88.77577920301346 14.077382268683824, 88.53190582057934 14.247497783161286 M88.53190582057934 14.247497783161286 C88.31594834130735 14.378412476202985, 88.09999086203536 14.509327169244683, 87.60001088406695 14.81241797009762 M88.53190582057934 14.247497783161286 C88.27544716194254 14.402964529145278, 88.01898850330575 14.55843127512927, 87.60001088406695 14.81241797009762 M87.60001088406695 14.81241797009762 C87.28426967907332 14.9771399545009, 86.96852847407969 15.141861938904183, 86.63383606499849 15.316470754341124 M87.60001088406695 14.81241797009762 C87.26291310997051 14.9882816629223, 86.92581533587408 15.164145355746982, 86.63383606499849 15.316470754341124 M86.63383606499849 15.316470754341124 C86.36619609485115 15.434947029867718, 86.09855612470382 15.553423305394313, 85.63735158294936 15.757584874882367 M86.63383606499849 15.316470754341124 C86.30684576863187 15.461219658720122, 85.97985547226524 15.605968563099118, 85.63735158294936 15.757584874882367 M85.63735158294936 15.757584874882367 C85.35061034808139 15.8631082999207, 85.06386911321341 15.968631724959035, 84.61465220640156 16.133947699181363 M85.63735158294936 15.757584874882367 C85.29660999586147 15.882980928711413, 84.95586840877358 16.00837698254046, 84.61465220640156 16.133947699181363 M84.61465220640156 16.133947699181363 C84.40560096821987 16.195993009341347, 84.1965497300382 16.258038319501328, 83.56994042646164 16.444012671663497 M84.61465220640156 16.133947699181363 C84.38432993060148 16.20230614165253, 84.15400765480139 16.2706645841237, 83.56994042646164 16.444012671663497 M83.56994042646164 16.444012671663497 C83.23029183848031 16.521535245456064, 82.89064325049897 16.59905781924863, 82.50750918792333 16.68650566884811 M83.56994042646164 16.444012671663497 C83.20956110347856 16.526266900439524, 82.8491817804955 16.60852112921555, 82.50750918792333 16.68650566884811 M82.50750918792333 16.68650566884811 C82.18366414168173 16.73886242446861, 81.85981909544013 16.791219180089108, 81.43172424863661 16.86043023499518 M82.50750918792333 16.68650566884811 C82.16959167560171 16.741137551650823, 81.8316741632801 16.795769434453536, 81.43172424863661 16.86043023499518 M81.43172424863661 16.86043023499518 C81.05092733389463 16.897165255385048, 80.67013041915266 16.93390027577491, 80.34700623967211 16.965071676755716 M81.43172424863661 16.86043023499518 C81.04453545494948 16.897781872259525, 80.65734666126237 16.93513350952387, 80.34700623967211 16.965071676755716 M80.34700623967211 16.965071676755716 C80.11617378684595 16.97247402422974, 79.88534133401978 16.97987637170376, 79.2578125 17 M80.34700623967211 16.965071676755716 C79.94559386871437 16.97794419019055, 79.54418149775663 16.990816703625384, 79.2578125 17 M79.2578125 17 C79.2578125 17, 79.2578125 17, 79.2578125 17 M79.2578125 17 C79.2578125 17, 79.2578125 17, 79.2578125 17 M79.2578125 17 C39.751323116762215 17, 0.24483373352443039 17, -79.2578125 17 M79.2578125 17 C37.839548680848395 17, -3.5787151383032096 17, -79.2578125 17 M-79.2578125 17 C-79.64058231428187 16.987725317072226, -80.02335212856374 16.97545063414445, -80.34700623967211 16.965071676755716 M-79.2578125 17 C-79.67744353548065 16.986543249454396, -80.0970745709613 16.973086498908792, -80.34700623967211 16.965071676755716 M-80.34700623967211 16.965071676755716 C-80.76316851886574 16.924925002190275, -81.17933079805938 16.884778327624833, -81.4317242486366 16.86043023499518 M-80.34700623967211 16.965071676755716 C-80.61888069154928 16.938844275359994, -80.89075514342645 16.912616873964268, -81.4317242486366 16.86043023499518 M-81.4317242486366 16.86043023499518 C-81.71904893318838 16.81397780823306, -82.00637361774015 16.767525381470936, -82.50750918792333 16.68650566884811 M-81.4317242486366 16.86043023499518 C-81.65570809517835 16.824218263706985, -81.87969194172011 16.788006292418785, -82.50750918792333 16.68650566884811 M-82.50750918792333 16.68650566884811 C-82.80987087928966 16.617493585888177, -83.11223257065599 16.548481502928244, -83.56994042646161 16.4440126716635 M-82.50750918792333 16.68650566884811 C-82.74111366131339 16.63318697220848, -82.97471813470344 16.579868275568852, -83.56994042646161 16.4440126716635 M-83.56994042646161 16.4440126716635 C-83.83538052231192 16.365231444538626, -84.10082061816223 16.286450217413748, -84.61465220640154 16.13394769918137 M-83.56994042646161 16.4440126716635 C-83.94446157787031 16.332856759827038, -84.31898272927903 16.221700847990576, -84.61465220640154 16.13394769918137 M-84.61465220640154 16.13394769918137 C-84.96294721237902 16.005771917377917, -85.3112422183565 15.877596135574466, -85.63735158294936 15.757584874882369 M-84.61465220640154 16.13394769918137 C-84.9474213988672 16.011485560269314, -85.28019059133285 15.889023421357257, -85.63735158294936 15.757584874882369 M-85.63735158294936 15.757584874882369 C-85.89678984140416 15.642739253826932, -86.15622809985895 15.527893632771493, -86.63383606499849 15.316470754341127 M-85.63735158294936 15.757584874882369 C-85.93706349664959 15.624911301325316, -86.23677541034981 15.492237727768265, -86.63383606499849 15.316470754341127 M-86.63383606499849 15.316470754341127 C-86.95686096152087 15.147948872732718, -87.27988585804326 14.97942699112431, -87.60001088406693 14.812417970097624 M-86.63383606499849 15.316470754341127 C-86.8276034461894 15.215382435687761, -87.0213708273803 15.114294117034397, -87.60001088406693 14.812417970097624 M-87.60001088406693 14.812417970097624 C-87.83750200600505 14.668449456325984, -88.07499312794319 14.524480942554344, -88.53190582057931 14.247497783161299 M-87.60001088406693 14.812417970097624 C-87.8086508842869 14.685939175859538, -88.01729088450688 14.559460381621452, -88.53190582057931 14.247497783161299 M-88.53190582057931 14.247497783161299 C-88.88003413830995 14.004658538944387, -89.22816245604061 13.761819294727475, -89.42569151835067 13.624031571755264 M-88.53190582057931 14.247497783161299 C-88.80248683587571 14.0587521801539, -89.07306785117211 13.870006577146501, -89.42569151835067 13.624031571755264 M-89.42569151835067 13.624031571755264 C-89.64533142990192 13.448874587156663, -89.86497134145316 13.273717602558062, -90.2776952202324 12.94458129227529 M-89.42569151835067 13.624031571755264 C-89.7412919225616 13.372348647876525, -90.05689232677251 13.120665723997783, -90.2776952202324 12.94458129227529 M-90.2776952202324 12.94458129227529 C-90.58213613897607 12.66809610493759, -90.88657705771975 12.391610917599888, -91.08441586025926 12.211938951661377 M-90.2776952202324 12.94458129227529 C-90.44113111582674 12.796153136173345, -90.60456701142108 12.647724980071402, -91.08441586025926 12.211938951661377 M-91.08441586025926 12.211938951661377 C-91.32241527577307 11.966185015027957, -91.56041469128688 11.720431078394537, -91.84253845028036 11.429115134442386 M-91.08441586025926 12.211938951661377 C-91.26809111050349 12.022279175765709, -91.45176636074773 11.832619399870042, -91.84253845028036 11.429115134442386 M-91.84253845028036 11.429115134442386 C-91.98730714092582 11.259061592838362, -92.1320758315713 11.08900805123434, -92.54894770195651 10.599326631598473 M-91.84253845028036 11.429115134442386 C-92.10890509625423 11.116225715389954, -92.3752717422281 10.803336296337523, -92.54894770195651 10.599326631598473 M-92.54894770195651 10.599326631598473 C-92.7078163688162 10.38645709123978, -92.86668503567589 10.173587550881088, -93.20074082814824 9.72598322207689 M-92.54894770195651 10.599326631598473 C-92.69752184328436 10.400250817601863, -92.84609598461223 10.201175003605252, -93.20074082814824 9.72598322207689 M-93.20074082814824 9.72598322207689 C-93.35075581929313 9.495519911012835, -93.50077081043801 9.265056599948782, -93.79523947109088 8.812673661278936 M-93.20074082814824 9.72598322207689 C-93.3564228026425 9.486813902790113, -93.51210477713674 9.247644583503337, -93.79523947109088 8.812673661278936 M-93.79523947109088 8.812673661278936 C-93.99061130692337 8.465771183214716, -94.18598314275586 8.118868705150495, -94.330000708341 7.863150934094201 M-93.79523947109088 8.812673661278936 C-93.98405864453376 8.477406098816482, -94.17287781797666 8.142138536354029, -94.330000708341 7.863150934094201 M-94.330000708341 7.863150934094201 C-94.46378158833426 7.58535207433593, -94.59756246832751 7.307553214577658, -94.80282709126881 6.881316833080701 M-94.330000708341 7.863150934094201 C-94.43564566991367 7.643776910948505, -94.54129063148633 7.42440288780281, -94.80282709126881 6.881316833080701 M-94.80282709126881 6.881316833080701 C-94.89350589013326 6.65733844673022, -94.9841846889977 6.433360060379739, -95.21177567484592 5.87120592516224 M-94.80282709126881 6.881316833080701 C-94.9603133184823 6.492322807074306, -95.1177995456958 6.10332878106791, -95.21177567484592 5.87120592516224 M-95.21177567484592 5.87120592516224 C-95.28293963088865 5.656871427998169, -95.35410358693137 5.442536930834099, -95.55516600162323 4.8369689727275516 M-95.21177567484592 5.87120592516224 C-95.28722269926106 5.643971508474705, -95.3626697236762 5.41673709178717, -95.55516600162323 4.8369689727275516 M-95.55516600162323 4.8369689727275516 C-95.65627163603749 4.451409369246857, -95.75737727045174 4.0658497657661625, -95.831587007091 3.782855877257349 M-95.55516600162323 4.8369689727275516 C-95.61697191410046 4.601276241599993, -95.67877782657767 4.365583510472435, -95.831587007091 3.782855877257349 M-95.831587007091 3.782855877257349 C-95.87383841283389 3.565903838605356, -95.9160898185768 3.3489517999533627, -96.03990281804565 2.713198215567455 M-95.831587007091 3.782855877257349 C-95.87772033114136 3.545971008540228, -95.92385365519172 3.3090861398231066, -96.03990281804565 2.713198215567455 M-96.03990281804565 2.713198215567455 C-96.07479211878287 2.4426036887212472, -96.1096814195201 2.172009161875039, -96.17925742013637 1.6323914404306026 M-96.03990281804565 2.713198215567455 C-96.09178836441308 2.3107841639017246, -96.1436739107805 1.908370112235994, -96.17925742013637 1.6323914404306026 M-96.17925742013637 1.6323914404306026 C-96.2022999695898 1.2734851330821255, -96.22534251904325 0.9145788257336485, -96.2490781754117 0.54487681871814 M-96.17925742013637 1.6323914404306026 C-96.20717406417732 1.1975671755832438, -96.23509070821828 0.7627429107358848, -96.2490781754117 0.54487681871814 M-96.2490781754117 0.54487681871814 C-96.2490781754117 0.23714526209245945, -96.2490781754117 -0.07058629453322107, -96.2490781754117 -0.5448768187181317 M-96.2490781754117 0.54487681871814 C-96.2490781754117 0.22747619726229057, -96.2490781754117 -0.08992442419355884, -96.2490781754117 -0.5448768187181317 M-96.2490781754117 -0.5448768187181317 C-96.23024161655864 -0.8382714274509855, -96.2114050577056 -1.131666036183839, -96.17925742013637 -1.6323914404305793 M-96.2490781754117 -0.5448768187181317 C-96.22690739997287 -0.8902045421056313, -96.20473662453405 -1.2355322654931309, -96.17925742013637 -1.6323914404305793 M-96.17925742013637 -1.6323914404305793 C-96.15053297668935 -1.8551725515227417, -96.12180853324233 -2.077953662614904, -96.03990281804565 -2.713198215567447 M-96.17925742013637 -1.6323914404305793 C-96.14510439231933 -1.8972755799014227, -96.11095136450227 -2.162159719372266, -96.03990281804565 -2.713198215567447 M-96.03990281804565 -2.713198215567447 C-95.98976615425431 -2.9706393877483444, -95.93962949046296 -3.2280805599292415, -95.831587007091 -3.782855877257341 M-96.03990281804565 -2.713198215567447 C-95.97806514152398 -3.030721615108639, -95.91622746500232 -3.348245014649831, -95.831587007091 -3.782855877257341 M-95.831587007091 -3.782855877257341 C-95.73517887723497 -4.150501859946182, -95.63877074737894 -4.518147842635024, -95.55516600162323 -4.836968972727544 M-95.831587007091 -3.782855877257341 C-95.75742863371046 -4.065653895399687, -95.68327026032992 -4.348451913542032, -95.55516600162323 -4.836968972727544 M-95.55516600162323 -4.836968972727544 C-95.48312057156181 -5.0539583291921435, -95.41107514150039 -5.270947685656743, -95.21177567484594 -5.871205925162218 M-95.55516600162323 -4.836968972727544 C-95.45630556564275 -5.134720854629351, -95.35744512966227 -5.4324727365311585, -95.21177567484594 -5.871205925162218 M-95.21177567484594 -5.871205925162218 C-95.04897786424587 -6.273319664825924, -94.8861800536458 -6.675433404489629, -94.80282709126881 -6.881316833080692 M-95.21177567484594 -5.871205925162218 C-95.06617009726739 -6.230854516873568, -94.92056451968884 -6.590503108584919, -94.80282709126881 -6.881316833080692 M-94.80282709126881 -6.881316833080692 C-94.64521272482013 -7.208606437418582, -94.48759835837144 -7.535896041756471, -94.330000708341 -7.863150934094194 M-94.80282709126881 -6.881316833080692 C-94.64556972657635 -7.207865115633162, -94.4883123618839 -7.534413398185632, -94.330000708341 -7.863150934094194 M-94.330000708341 -7.863150934094194 C-94.20580355210654 -8.083675561314266, -94.0816063958721 -8.304200188534335, -93.79523947109088 -8.812673661278929 M-94.330000708341 -7.863150934094194 C-94.1694912707143 -8.148151693943413, -94.0089818330876 -8.433152453792633, -93.79523947109088 -8.812673661278929 M-93.79523947109088 -8.812673661278929 C-93.56790879902977 -9.16191462039762, -93.34057812696865 -9.511155579516311, -93.20074082814826 -9.725983222076884 M-93.79523947109088 -8.812673661278929 C-93.56763439279577 -9.162336182061425, -93.34002931450065 -9.51199870284392, -93.20074082814826 -9.725983222076884 M-93.20074082814826 -9.725983222076884 C-93.00229597126366 -9.99188125160386, -92.80385111437907 -10.257779281130835, -92.54894770195651 -10.599326631598467 M-93.20074082814826 -9.725983222076884 C-93.02545925154375 -9.960844566246784, -92.85017767493925 -10.195705910416686, -92.54894770195651 -10.599326631598467 M-92.54894770195651 -10.599326631598467 C-92.37282461153157 -10.806210835299355, -92.19670152110662 -11.013095039000245, -91.84253845028037 -11.42911513444238 M-92.54894770195651 -10.599326631598467 C-92.28340110352 -10.91125277615149, -92.01785450508349 -11.223178920704514, -91.84253845028037 -11.42911513444238 M-91.84253845028037 -11.42911513444238 C-91.68089955707345 -11.59602056247846, -91.51926066386653 -11.762925990514537, -91.08441586025927 -12.21193895166136 M-91.84253845028037 -11.42911513444238 C-91.64223492864082 -11.635944965760189, -91.44193140700125 -11.842774797077997, -91.08441586025927 -12.21193895166136 M-91.08441586025927 -12.21193895166136 C-90.90902504995236 -12.371224244995556, -90.73363423964544 -12.530509538329753, -90.27769522023242 -12.944581292275274 M-91.08441586025927 -12.21193895166136 C-90.89183314038023 -12.386837482395967, -90.69925042050117 -12.561736013130576, -90.27769522023242 -12.944581292275274 M-90.27769522023242 -12.944581292275274 C-89.95895787287292 -13.198765844837443, -89.64022052551341 -13.45295039739961, -89.42569151835067 -13.624031571755259 M-90.27769522023242 -12.944581292275274 C-90.02285306038122 -13.147811133121913, -89.76801090053004 -13.35104097396855, -89.42569151835067 -13.624031571755259 M-89.42569151835067 -13.624031571755259 C-89.21558883399412 -13.770590109163773, -89.00548614963758 -13.917148646572286, -88.53190582057934 -14.247497783161284 M-89.42569151835067 -13.624031571755259 C-89.22190829703192 -13.76618192531375, -89.01812507571317 -13.908332278872244, -88.53190582057934 -14.247497783161284 M-88.53190582057934 -14.247497783161284 C-88.22052582646272 -14.436258165466741, -87.90914583234608 -14.625018547772198, -87.60001088406695 -14.812417970097618 M-88.53190582057934 -14.247497783161284 C-88.2520852726502 -14.417126643723993, -87.97226472472107 -14.586755504286701, -87.60001088406695 -14.812417970097618 M-87.60001088406695 -14.812417970097618 C-87.28442442415897 -14.977059224088835, -86.968837964251 -15.141700478080052, -86.63383606499849 -15.316470754341124 M-87.60001088406695 -14.812417970097618 C-87.36381852209878 -14.93563937404798, -87.12762616013062 -15.05886077799834, -86.63383606499849 -15.316470754341124 M-86.63383606499849 -15.316470754341124 C-86.40995312267147 -15.415577091657779, -86.18607018034443 -15.514683428974434, -85.63735158294936 -15.757584874882365 M-86.63383606499849 -15.316470754341124 C-86.23983951491962 -15.490881339568636, -85.84584296484076 -15.665291924796149, -85.63735158294936 -15.757584874882365 M-85.63735158294936 -15.757584874882365 C-85.29617515161164 -15.883140955415007, -84.95499872027392 -16.008697035947648, -84.61465220640156 -16.133947699181363 M-85.63735158294936 -15.757584874882365 C-85.34081412510848 -15.866713400530022, -85.0442766672676 -15.975841926177681, -84.61465220640156 -16.133947699181363 M-84.61465220640156 -16.133947699181363 C-84.30118048361831 -16.22698446105678, -83.98770876083508 -16.320021222932194, -83.56994042646164 -16.444012671663494 M-84.61465220640156 -16.133947699181363 C-84.33064502721744 -16.218239539179102, -84.04663784803334 -16.30253137917684, -83.56994042646164 -16.444012671663494 M-83.56994042646164 -16.444012671663494 C-83.16879646414223 -16.535571163353907, -82.76765250182281 -16.627129655044325, -82.50750918792333 -16.68650566884811 M-83.56994042646164 -16.444012671663494 C-83.25800853140947 -16.515209091163303, -82.9460766363573 -16.586405510663116, -82.50750918792333 -16.68650566884811 M-82.50750918792333 -16.68650566884811 C-82.08219397572667 -16.755267333987334, -81.65687876353002 -16.824028999126558, -81.43172424863661 -16.86043023499518 M-82.50750918792333 -16.68650566884811 C-82.19644004946923 -16.73679691477617, -81.88537091101514 -16.78708816070423, -81.43172424863661 -16.86043023499518 M-81.43172424863661 -16.86043023499518 C-81.20511564458177 -16.882290894491632, -80.9785070405269 -16.904151553988086, -80.34700623967213 -16.965071676755716 M-81.43172424863661 -16.86043023499518 C-81.09140934510356 -16.893260004450465, -80.7510944415705 -16.926089773905744, -80.34700623967213 -16.965071676755716 M-80.34700623967213 -16.965071676755716 C-79.99608790301482 -16.976324944791212, -79.64516956635751 -16.987578212826705, -79.2578125 -17 M-80.34700623967213 -16.965071676755716 C-79.98662459138234 -16.976628414776044, -79.62624294309256 -16.988185152796376, -79.2578125 -17 M-79.2578125 -17 C-79.2578125 -17, -79.2578125 -17, -79.2578125 -17 M-79.2578125 -17 C-79.2578125 -17, -79.2578125 -17, -79.2578125 -17" stroke="#9370DB" stroke-width="1.3" fill="none" stroke-dasharray="0 0" style=""></path></g><g class="label" style="" transform="translate(0, -9.5)"><rect></rect><g><rect class="background" style="stroke: none"></rect><text y="-10.1" style=""><tspan class="text-outer-tspan row" x="0" y="-0.1em" dy="1.1em"><tspan font-style="normal" class="text-inner-tspan" font-weight="normal">Project</tspan><tspan font-style="normal" class="text-inner-tspan" font-weight="normal"> or</tspan><tspan font-style="normal" class="text-inner-tspan" font-weight="normal"> existing</tspan><tspan font-style="normal" class="text-inner-tspan" font-weight="normal"> repo</tspan></tspan></text></g></g></g><g class="node default" id="g6f6791a5-995b-4943-adfc-6f8ee9c1cb60-light-flowchart-init-1" data-look="classic" transform="translate(203.07421875, 134.0999984741211)"><rect class="basic label-container" style="" x="-122.1640625" y="-42.099998474121094" width="244.328125" height="84.19999694824219"></rect><g class="label" style="" transform="translate(0, -27.099998474121094)"><rect></rect><g><rect class="background" style="stroke: none"></rect><text y="-10.1" style=""><tspan class="text-outer-tspan row" x="0" y="-0.1em" dy="1.1em"><tspan font-style="normal" class="text-inner-tspan" font-weight="normal">pagesmith-docs</tspan><tspan font-style="normal" class="text-inner-tspan" font-weight="normal"> init</tspan></tspan><tspan class="text-outer-tspan row" x="0" y="1em" dy="1.1em"><tspan font-style="normal" class="text-inner-tspan" font-weight="normal">Scaffold</tspan><tspan font-style="normal" class="text-inner-tspan" font-weight="normal"> or</tspan><tspan font-style="normal" class="text-inner-tspan" font-weight="normal"> backfill</tspan><tspan font-style="normal" class="text-inner-tspan" font-weight="normal"> config</tspan></tspan><tspan class="text-outer-tspan row" x="0" y="2.1em" dy="1.1em"><tspan font-style="normal" class="text-inner-tspan" font-weight="normal">and</tspan><tspan font-style="normal" class="text-inner-tspan" font-weight="normal"> starter</tspan><tspan font-style="normal" class="text-inner-tspan" font-weight="normal"> docs</tspan></tspan></text></g></g></g><g class="node default" id="g6f6791a5-995b-4943-adfc-6f8ee9c1cb60-light-flowchart-dev-2" data-look="classic" transform="translate(124.4921875, 291.2999954223633)"><rect class="basic label-container" style="" x="-115.5" y="-33.29999923706055" width="231" height="66.5999984741211"></rect><g class="label" style="" transform="translate(0, -18.299999237060547)"><rect></rect><g><rect class="background" style="stroke: none"></rect><text y="-10.1" style=""><tspan class="text-outer-tspan row" x="0" y="-0.1em" dy="1.1em"><tspan font-style="normal" class="text-inner-tspan" font-weight="normal">pagesmith-docs</tspan><tspan font-style="normal" class="text-inner-tspan" font-weight="normal"> dev</tspan></tspan><tspan class="text-outer-tspan row" x="0" y="1em" dy="1.1em"><tspan font-style="normal" class="text-inner-tspan" font-weight="normal">Live-reload</tspan><tspan font-style="normal" class="text-inner-tspan" font-weight="normal"> editing</tspan><tspan font-style="normal" class="text-inner-tspan" font-weight="normal"> loop</tspan></tspan></text></g></g></g><g class="node default" id="g6f6791a5-995b-4943-adfc-6f8ee9c1cb60-light-flowchart-build-3" data-look="classic" transform="translate(124.4921875, 425.49999237060547)"><rect class="basic label-container" style="" x="-113.9765625" y="-42.099998474121094" width="227.953125" height="84.19999694824219"></rect><g class="label" style="" transform="translate(0, -27.099998474121094)"><rect></rect><g><rect class="background" style="stroke: none"></rect><text y="-10.1" style=""><tspan class="text-outer-tspan row" x="0" y="-0.1em" dy="1.1em"><tspan font-style="normal" class="text-inner-tspan" font-weight="normal">pagesmith-docs</tspan><tspan font-style="normal" class="text-inner-tspan" font-weight="normal"> build</tspan></tspan><tspan class="text-outer-tspan row" x="0" y="1em" dy="1.1em"><tspan font-style="normal" class="text-inner-tspan" font-weight="normal">Static</tspan><tspan font-style="normal" class="text-inner-tspan" font-weight="normal"> output</tspan><tspan font-style="normal" class="text-inner-tspan" font-weight="normal"> +</tspan><tspan font-style="normal" class="text-inner-tspan" font-weight="normal"> assets</tspan><tspan font-style="normal" class="text-inner-tspan" font-weight="normal"> +</tspan></tspan><tspan class="text-outer-tspan row" x="0" y="2.1em" dy="1.1em"><tspan font-style="normal" class="text-inner-tspan" font-weight="normal">Pagefind</tspan></tspan></text></g></g></g><g class="node default" id="g6f6791a5-995b-4943-adfc-6f8ee9c1cb60-light-flowchart-preview-4" data-look="classic" transform="translate(124.4921875, 559.6999893188477)"><rect class="basic label-container" style="" x="-116.4921875" y="-42.099998474121094" width="232.984375" height="84.19999694824219"></rect><g class="label" style="" transform="translate(0, -27.099998474121094)"><rect></rect><g><rect class="background" style="stroke: none"></rect><text y="-10.1" style=""><tspan class="text-outer-tspan row" x="0" y="-0.1em" dy="1.1em"><tspan font-style="normal" class="text-inner-tspan" font-weight="normal">pagesmith-docs</tspan><tspan font-style="normal" class="text-inner-tspan" font-weight="normal"> preview</tspan></tspan><tspan class="text-outer-tspan row" x="0" y="1em" dy="1.1em"><tspan font-style="normal" class="text-inner-tspan" font-weight="normal">Serve</tspan><tspan font-style="normal" class="text-inner-tspan" font-weight="normal"> built</tspan><tspan font-style="normal" class="text-inner-tspan" font-weight="normal"> output</tspan><tspan font-style="normal" class="text-inner-tspan" font-weight="normal"> from</tspan></tspan><tspan class="text-outer-tspan row" x="0" y="2.1em" dy="1.1em"><tspan font-style="normal" class="text-inner-tspan" font-weight="normal">disk</tspan></tspan></text></g></g></g><g class="node default" id="g6f6791a5-995b-4943-adfc-6f8ee9c1cb60-light-flowchart-mcp-5" data-look="classic" transform="translate(516.66015625, 291.2999954223633)"><rect class="basic label-container" style="" x="-128.828125" y="-42.099998474121094" width="257.65625" height="84.19999694824219"></rect><g class="label" style="" transform="translate(0, -27.099998474121094)"><rect></rect><g><rect class="background" style="stroke: none"></rect><text y="-10.1" style=""><tspan class="text-outer-tspan row" x="0" y="-0.1em" dy="1.1em"><tspan font-style="normal" class="text-inner-tspan" font-weight="normal">pagesmith-docs</tspan><tspan font-style="normal" class="text-inner-tspan" font-weight="normal"> mcp</tspan><tspan font-style="normal" class="text-inner-tspan" font-weight="normal"> --stdio</tspan></tspan><tspan class="text-outer-tspan row" x="0" y="1em" dy="1.1em"><tspan font-style="normal" class="text-inner-tspan" font-weight="normal">Expose</tspan><tspan font-style="normal" class="text-inner-tspan" font-weight="normal"> docs-aware</tspan><tspan font-style="normal" class="text-inner-tspan" font-weight="normal"> MCP</tspan></tspan><tspan class="text-outer-tspan row" x="0" y="2.1em" dy="1.1em"><tspan font-style="normal" class="text-inner-tspan" font-weight="normal">tools</tspan></tspan></text></g></g></g></g></g></g><defs><filter id="g6f6791a5-995b-4943-adfc-6f8ee9c1cb60-light-drop-shadow" height="130%" width="130%"><feDropShadow dx="4" dy="4" stdDeviation="0" flood-opacity="0.06" flood-color="#000000"></feDropShadow></filter></defs><defs><filter id="g6f6791a5-995b-4943-adfc-6f8ee9c1cb60-light-drop-shadow-small" height="150%" width="150%"><feDropShadow dx="2" dy="2" stdDeviation="0" flood-opacity="0.06" flood-color="#000000"></feDropShadow></filter></defs></svg>