<svg id="ge08b2f41-4482-47ca-a53b-6f7d4ec7e7ef-light" width="100%" xmlns="http://www.w3.org/2000/svg" xmlns:xlink="http://www.w3.org/1999/xlink" class="flowchart" style="max-width: 653.48828125px;" viewBox="0 0 653.48828125 609.800048828125" role="graphics-document document" aria-roledescription="flowchart-v2"><style>#ge08b2f41-4482-47ca-a53b-6f7d4ec7e7ef-light{font-family:"trebuchet ms",verdana,arial,sans-serif;font-size:16px;fill:#333;}@keyframes edge-animation-frame{from{stroke-dashoffset:0;}}@keyframes dash{to{stroke-dashoffset:0;}}#ge08b2f41-4482-47ca-a53b-6f7d4ec7e7ef-light .edge-animation-slow{stroke-dasharray:9,5!important;stroke-dashoffset:900;animation:dash 50s linear infinite;stroke-linecap:round;}#ge08b2f41-4482-47ca-a53b-6f7d4ec7e7ef-light .edge-animation-fast{stroke-dasharray:9,5!important;stroke-dashoffset:900;animation:dash 20s linear infinite;stroke-linecap:round;}#ge08b2f41-4482-47ca-a53b-6f7d4ec7e7ef-light .error-icon{fill:#552222;}#ge08b2f41-4482-47ca-a53b-6f7d4ec7e7ef-light .error-text{fill:#552222;stroke:#552222;}#ge08b2f41-4482-47ca-a53b-6f7d4ec7e7ef-light .edge-thickness-normal{stroke-width:1px;}#ge08b2f41-4482-47ca-a53b-6f7d4ec7e7ef-light .edge-thickness-thick{stroke-width:3.5px;}#ge08b2f41-4482-47ca-a53b-6f7d4ec7e7ef-light .edge-pattern-solid{stroke-dasharray:0;}#ge08b2f41-4482-47ca-a53b-6f7d4ec7e7ef-light .edge-thickness-invisible{stroke-width:0;fill:none;}#ge08b2f41-4482-47ca-a53b-6f7d4ec7e7ef-light .edge-pattern-dashed{stroke-dasharray:3;}#ge08b2f41-4482-47ca-a53b-6f7d4ec7e7ef-light .edge-pattern-dotted{stroke-dasharray:2;}#ge08b2f41-4482-47ca-a53b-6f7d4ec7e7ef-light .marker{fill:#333333;stroke:#333333;}#ge08b2f41-4482-47ca-a53b-6f7d4ec7e7ef-light .marker.cross{stroke:#333333;}#ge08b2f41-4482-47ca-a53b-6f7d4ec7e7ef-light svg{font-family:"trebuchet ms",verdana,arial,sans-serif;font-size:16px;}#ge08b2f41-4482-47ca-a53b-6f7d4ec7e7ef-light p{margin:0;}#ge08b2f41-4482-47ca-a53b-6f7d4ec7e7ef-light .label{font-family:"trebuchet ms",verdana,arial,sans-serif;color:#333;}#ge08b2f41-4482-47ca-a53b-6f7d4ec7e7ef-light .cluster-label text{fill:#333;}#ge08b2f41-4482-47ca-a53b-6f7d4ec7e7ef-light .cluster-label span{color:#333;}#ge08b2f41-4482-47ca-a53b-6f7d4ec7e7ef-light .cluster-label span p{background-color:transparent;}#ge08b2f41-4482-47ca-a53b-6f7d4ec7e7ef-light .label text,#ge08b2f41-4482-47ca-a53b-6f7d4ec7e7ef-light span{fill:#333;color:#333;}#ge08b2f41-4482-47ca-a53b-6f7d4ec7e7ef-light .node rect,#ge08b2f41-4482-47ca-a53b-6f7d4ec7e7ef-light .node circle,#ge08b2f41-4482-47ca-a53b-6f7d4ec7e7ef-light .node ellipse,#ge08b2f41-4482-47ca-a53b-6f7d4ec7e7ef-light .node polygon,#ge08b2f41-4482-47ca-a53b-6f7d4ec7e7ef-light .node path{fill:#ECECFF;stroke:#9370DB;stroke-width:1px;}#ge08b2f41-4482-47ca-a53b-6f7d4ec7e7ef-light .rough-node .label text,#ge08b2f41-4482-47ca-a53b-6f7d4ec7e7ef-light .node .label text,#ge08b2f41-4482-47ca-a53b-6f7d4ec7e7ef-light .image-shape .label,#ge08b2f41-4482-47ca-a53b-6f7d4ec7e7ef-light .icon-shape .label{text-anchor:middle;}#ge08b2f41-4482-47ca-a53b-6f7d4ec7e7ef-light .node .katex path{fill:#000;stroke:#000;stroke-width:1px;}#ge08b2f41-4482-47ca-a53b-6f7d4ec7e7ef-light .rough-node .label,#ge08b2f41-4482-47ca-a53b-6f7d4ec7e7ef-light .node .label,#ge08b2f41-4482-47ca-a53b-6f7d4ec7e7ef-light .image-shape .label,#ge08b2f41-4482-47ca-a53b-6f7d4ec7e7ef-light .icon-shape .label{text-align:center;}#ge08b2f41-4482-47ca-a53b-6f7d4ec7e7ef-light .node.clickable{cursor:pointer;}#ge08b2f41-4482-47ca-a53b-6f7d4ec7e7ef-light .root .anchor path{fill:#333333!important;stroke-width:0;stroke:#333333;}#ge08b2f41-4482-47ca-a53b-6f7d4ec7e7ef-light .arrowheadPath{fill:#333333;}#ge08b2f41-4482-47ca-a53b-6f7d4ec7e7ef-light .edgePath .path{stroke:#333333;stroke-width:1px;}#ge08b2f41-4482-47ca-a53b-6f7d4ec7e7ef-light .flowchart-link{stroke:#333333;fill:none;}#ge08b2f41-4482-47ca-a53b-6f7d4ec7e7ef-light .edgeLabel{background-color:rgba(232,232,232, 0.8);text-align:center;}#ge08b2f41-4482-47ca-a53b-6f7d4ec7e7ef-light .edgeLabel p{background-color:rgba(232,232,232, 0.8);}#ge08b2f41-4482-47ca-a53b-6f7d4ec7e7ef-light .edgeLabel rect{opacity:0.5;background-color:rgba(232,232,232, 0.8);fill:rgba(232,232,232, 0.8);}#ge08b2f41-4482-47ca-a53b-6f7d4ec7e7ef-light .labelBkg{background-color:rgba(232, 232, 232, 0.5);}#ge08b2f41-4482-47ca-a53b-6f7d4ec7e7ef-light .cluster rect{fill:#ffffde;stroke:#aaaa33;stroke-width:1px;}#ge08b2f41-4482-47ca-a53b-6f7d4ec7e7ef-light .cluster text{fill:#333;}#ge08b2f41-4482-47ca-a53b-6f7d4ec7e7ef-light .cluster span{color:#333;}#ge08b2f41-4482-47ca-a53b-6f7d4ec7e7ef-light div.mermaidTooltip{position:absolute;text-align:center;max-width:200px;padding:2px;font-family:"trebuchet ms",verdana,arial,sans-serif;font-size:12px;background:hsl(80, 100%, 96.2745098039%);border:1px solid #aaaa33;border-radius:2px;pointer-events:none;z-index:100;}#ge08b2f41-4482-47ca-a53b-6f7d4ec7e7ef-light .flowchartTitleText{text-anchor:middle;font-size:18px;fill:#333;}#ge08b2f41-4482-47ca-a53b-6f7d4ec7e7ef-light rect.text{fill:none;stroke-width:0;}#ge08b2f41-4482-47ca-a53b-6f7d4ec7e7ef-light .icon-shape,#ge08b2f41-4482-47ca-a53b-6f7d4ec7e7ef-light .image-shape{background-color:rgba(232,232,232, 0.8);text-align:center;}#ge08b2f41-4482-47ca-a53b-6f7d4ec7e7ef-light .icon-shape p,#ge08b2f41-4482-47ca-a53b-6f7d4ec7e7ef-light .image-shape p{background-color:rgba(232,232,232, 0.8);padding:2px;}#ge08b2f41-4482-47ca-a53b-6f7d4ec7e7ef-light .icon-shape .label rect,#ge08b2f41-4482-47ca-a53b-6f7d4ec7e7ef-light .image-shape .label rect{opacity:0.5;background-color:rgba(232,232,232, 0.8);fill:rgba(232,232,232, 0.8);}#ge08b2f41-4482-47ca-a53b-6f7d4ec7e7ef-light .label-icon{display:inline-block;height:1em;overflow:visible;vertical-align:-0.125em;}#ge08b2f41-4482-47ca-a53b-6f7d4ec7e7ef-light .node .label-icon path{fill:currentColor;stroke:revert;stroke-width:revert;}#ge08b2f41-4482-47ca-a53b-6f7d4ec7e7ef-light .node .neo-node{stroke:#9370DB;}#ge08b2f41-4482-47ca-a53b-6f7d4ec7e7ef-light [data-look="neo"].node rect,#ge08b2f41-4482-47ca-a53b-6f7d4ec7e7ef-light [data-look="neo"].cluster rect,#ge08b2f41-4482-47ca-a53b-6f7d4ec7e7ef-light [data-look="neo"].node polygon{stroke:#9370DB;filter:drop-shadow(1px 2px 2px rgba(185, 185, 185, 1));}#ge08b2f41-4482-47ca-a53b-6f7d4ec7e7ef-light [data-look="neo"].node path{stroke:#9370DB;stroke-width:1px;}#ge08b2f41-4482-47ca-a53b-6f7d4ec7e7ef-light [data-look="neo"].node .outer-path{filter:drop-shadow(1px 2px 2px rgba(185, 185, 185, 1));}#ge08b2f41-4482-47ca-a53b-6f7d4ec7e7ef-light [data-look="neo"].node .neo-line path{stroke:#9370DB;filter:none;}#ge08b2f41-4482-47ca-a53b-6f7d4ec7e7ef-light [data-look="neo"].node circle{stroke:#9370DB;filter:drop-shadow(1px 2px 2px rgba(185, 185, 185, 1));}#ge08b2f41-4482-47ca-a53b-6f7d4ec7e7ef-light [data-look="neo"].node circle .state-start{fill:#000000;}#ge08b2f41-4482-47ca-a53b-6f7d4ec7e7ef-light [data-look="neo"].icon-shape .icon{fill:#9370DB;filter:drop-shadow(1px 2px 2px rgba(185, 185, 185, 1));}#ge08b2f41-4482-47ca-a53b-6f7d4ec7e7ef-light [data-look="neo"].icon-shape .icon-neo path{stroke:#9370DB;filter:drop-shadow(1px 2px 2px rgba(185, 185, 185, 1));}#ge08b2f41-4482-47ca-a53b-6f7d4ec7e7ef-light :root{--mermaid-font-family:"trebuchet ms",verdana,arial,sans-serif;}</style><g><marker id="ge08b2f41-4482-47ca-a53b-6f7d4ec7e7ef-light_flowchart-v2-pointEnd" class="marker flowchart-v2" viewBox="0 0 10 10" refX="5" refY="5" markerUnits="userSpaceOnUse" markerWidth="8" markerHeight="8" orient="auto"><path d="M 0 0 L 10 5 L 0 10 z" class="arrowMarkerPath" style="stroke-width: 1; stroke-dasharray: 1, 0;"></path></marker><marker id="ge08b2f41-4482-47ca-a53b-6f7d4ec7e7ef-light_flowchart-v2-pointStart" class="marker flowchart-v2" viewBox="0 0 10 10" refX="4.5" refY="5" markerUnits="userSpaceOnUse" markerWidth="8" markerHeight="8" orient="auto"><path d="M 0 5 L 10 10 L 10 0 z" class="arrowMarkerPath" style="stroke-width: 1; stroke-dasharray: 1, 0;"></path></marker><marker id="ge08b2f41-4482-47ca-a53b-6f7d4ec7e7ef-light_flowchart-v2-pointEnd-margin" class="marker flowchart-v2" viewBox="0 0 11.5 14" refX="11.5" refY="7" markerUnits="userSpaceOnUse" markerWidth="10.5" markerHeight="14" orient="auto"><path d="M 0 0 L 11.5 7 L 0 14 z" class="arrowMarkerPath" style="stroke-width: 0; stroke-dasharray: 1, 0;"></path></marker><marker id="ge08b2f41-4482-47ca-a53b-6f7d4ec7e7ef-light_flowchart-v2-pointStart-margin" class="marker flowchart-v2" viewBox="0 0 11.5 14" refX="1" refY="7" markerUnits="userSpaceOnUse" markerWidth="11.5" markerHeight="14" orient="auto"><polygon points="0,7 11.5,14 11.5,0" class="arrowMarkerPath" style="stroke-width: 0; stroke-dasharray: 1, 0;"></polygon></marker><marker id="ge08b2f41-4482-47ca-a53b-6f7d4ec7e7ef-light_flowchart-v2-circleEnd" class="marker flowchart-v2" viewBox="0 0 10 10" refX="11" refY="5" markerUnits="userSpaceOnUse" markerWidth="11" markerHeight="11" orient="auto"><circle cx="5" cy="5" r="5" class="arrowMarkerPath" style="stroke-width: 1; stroke-dasharray: 1, 0;"></circle></marker><marker id="ge08b2f41-4482-47ca-a53b-6f7d4ec7e7ef-light_flowchart-v2-circleStart" class="marker flowchart-v2" viewBox="0 0 10 10" refX="-1" refY="5" markerUnits="userSpaceOnUse" markerWidth="11" markerHeight="11" orient="auto"><circle cx="5" cy="5" r="5" class="arrowMarkerPath" style="stroke-width: 1; stroke-dasharray: 1, 0;"></circle></marker><marker id="ge08b2f41-4482-47ca-a53b-6f7d4ec7e7ef-light_flowchart-v2-circleEnd-margin" class="marker flowchart-v2" viewBox="0 0 10 10" refY="5" refX="12.25" markerUnits="userSpaceOnUse" markerWidth="14" markerHeight="14" orient="auto"><circle cx="5" cy="5" r="5" class="arrowMarkerPath" style="stroke-width: 0; stroke-dasharray: 1, 0;"></circle></marker><marker id="ge08b2f41-4482-47ca-a53b-6f7d4ec7e7ef-light_flowchart-v2-circleStart-margin" class="marker flowchart-v2" viewBox="0 0 10 10" refX="-2" refY="5" markerUnits="userSpaceOnUse" markerWidth="14" markerHeight="14" orient="auto"><circle cx="5" cy="5" r="5" class="arrowMarkerPath" style="stroke-width: 0; stroke-dasharray: 1, 0;"></circle></marker><marker id="ge08b2f41-4482-47ca-a53b-6f7d4ec7e7ef-light_flowchart-v2-crossEnd" class="marker cross flowchart-v2" viewBox="0 0 11 11" refX="12" refY="5.2" markerUnits="userSpaceOnUse" markerWidth="11" markerHeight="11" orient="auto"><path d="M 1,1 l 9,9 M 10,1 l -9,9" class="arrowMarkerPath" style="stroke-width: 2; stroke-dasharray: 1, 0;"></path></marker><marker id="ge08b2f41-4482-47ca-a53b-6f7d4ec7e7ef-light_flowchart-v2-crossStart" class="marker cross flowchart-v2" viewBox="0 0 11 11" refX="-1" refY="5.2" markerUnits="userSpaceOnUse" markerWidth="11" markerHeight="11" orient="auto"><path d="M 1,1 l 9,9 M 10,1 l -9,9" class="arrowMarkerPath" style="stroke-width: 2; stroke-dasharray: 1, 0;"></path></marker><marker id="ge08b2f41-4482-47ca-a53b-6f7d4ec7e7ef-light_flowchart-v2-crossEnd-margin" class="marker cross flowchart-v2" viewBox="0 0 15 15" refX="17.7" refY="7.5" markerUnits="userSpaceOnUse" markerWidth="12" markerHeight="12" orient="auto"><path d="M 1,1 L 14,14 M 1,14 L 14,1" class="arrowMarkerPath" style="stroke-width: 2.5;"></path></marker><marker id="ge08b2f41-4482-47ca-a53b-6f7d4ec7e7ef-light_flowchart-v2-crossStart-margin" class="marker cross flowchart-v2" viewBox="0 0 15 15" refX="-3.5" refY="7.5" markerUnits="userSpaceOnUse" markerWidth="12" markerHeight="12" orient="auto"><path d="M 1,1 L 14,14 M 1,14 L 14,1" class="arrowMarkerPath" style="stroke-width: 2.5; stroke-dasharray: 1, 0;"></path></marker><g class="root"><g class="clusters"></g><g class="edgePaths"><path d="M203.574,42.5L203.491,46.583C203.408,50.667,203.241,58.833,203.158,66.417C203.074,74,203.074,81,203.074,84.5L203.074,88" id="ge08b2f41-4482-47ca-a53b-6f7d4ec7e7ef-light-L_start_init_0" class="edge-thickness-normal edge-pattern-solid edge-thickness-normal edge-pattern-solid flowchart-link" style=";" data-edge="true" data-et="edge" data-id="L_start_init_0" data-points="W3sieCI6MjAzLjU3NDIxODc1LCJ5Ijo0Mi41fSx7IngiOjIwMy4wNzQyMTg3NSwieSI6Njd9LHsieCI6MjAzLjA3NDIxODc1LCJ5Ijo5Mn1d" data-look="classic" marker-end="url(#ge08b2f41-4482-47ca-a53b-6f7d4ec7e7ef-light_flowchart-v2-pointEnd)"></path><path d="M139.96,42.5L124.285,46.583C108.61,50.667,77.26,58.833,61.585,74.1C45.91,89.367,45.91,111.733,45.91,136.017C45.91,160.3,45.91,186.5,52.987,206.679C60.064,226.857,74.218,241.014,81.295,248.093L88.372,255.171" id="ge08b2f41-4482-47ca-a53b-6f7d4ec7e7ef-light-L_start_dev_0" class="edge-thickness-normal edge-pattern-solid edge-thickness-normal edge-pattern-solid flowchart-link" style=";" data-edge="true" data-et="edge" data-id="L_start_dev_0" data-points="W3sieCI6MTM5Ljk2MDE5MzQ1MjM4MDk2LCJ5Ijo0Mi41fSx7IngiOjQ1LjkxMDE1NjI1LCJ5Ijo2N30seyJ4Ijo0NS45MTAxNTYyNSwieSI6MTM0LjA5OTk5ODQ3NDEyMTF9LHsieCI6NDUuOTEwMTU2MjUsInkiOjIxMi42OTk5OTY5NDgyNDIyfSx7IngiOjkxLjE5OTgwMDMzMTE0NzM0LCJ5IjoyNTcuOTk5OTk2MTg1MzAyNzN9XQ==" data-look="classic" marker-end="url(#ge08b2f41-4482-47ca-a53b-6f7d4ec7e7ef-light_flowchart-v2-pointEnd)"></path><path d="M203.074,176.2L203.074,182.283C203.074,188.367,203.074,200.533,195.997,213.695C188.92,226.857,174.767,241.014,167.69,248.093L160.613,255.171" id="ge08b2f41-4482-47ca-a53b-6f7d4ec7e7ef-light-L_init_dev_0" class="edge-thickness-normal edge-pattern-solid edge-thickness-normal edge-pattern-solid flowchart-link" style=";" data-edge="true" data-et="edge" data-id="L_init_dev_0" data-points="W3sieCI6MjAzLjA3NDIxODc1LCJ5IjoxNzYuMTk5OTk2OTQ4MjQyMn0seyJ4IjoyMDMuMDc0MjE4NzUsInkiOjIxMi42OTk5OTY5NDgyNDIyfSx7IngiOjE1Ny43ODQ1NzQ2Njg4NTI2NiwieSI6MjU3Ljk5OTk5NjE4NTMwMjczfV0=" data-look="classic" marker-end="url(#ge08b2f41-4482-47ca-a53b-6f7d4ec7e7ef-light_flowchart-v2-pointEnd)"></path><path d="M124.492,324.6L124.492,330.233C124.492,335.867,124.492,347.133,124.492,356.267C124.492,365.4,124.492,372.4,124.492,375.9L124.492,379.4" id="ge08b2f41-4482-47ca-a53b-6f7d4ec7e7ef-light-L_dev_build_0" class="edge-thickness-normal edge-pattern-solid edge-thickness-normal edge-pattern-solid flowchart-link" style=";" data-edge="true" data-et="edge" data-id="L_dev_build_0" data-points="W3sieCI6MTI0LjQ5MjE4NzUsInkiOjMyNC41OTk5OTQ2NTk0MjM4fSx7IngiOjEyNC40OTIxODc1LCJ5IjozNTguMzk5OTkzODk2NDg0NH0seyJ4IjoxMjQuNDkyMTg3NSwieSI6MzgzLjM5OTk5Mzg5NjQ4NDR9XQ==" data-look="classic" marker-end="url(#ge08b2f41-4482-47ca-a53b-6f7d4ec7e7ef-light_flowchart-v2-pointEnd)"></path><path d="M124.492,467.6L124.492,471.767C124.492,475.933,124.492,484.267,124.492,491.933C124.492,499.6,124.492,506.6,124.492,510.1L124.492,513.6" id="ge08b2f41-4482-47ca-a53b-6f7d4ec7e7ef-light-L_build_preview_0" class="edge-thickness-normal edge-pattern-solid edge-thickness-normal edge-pattern-solid flowchart-link" style=";" data-edge="true" data-et="edge" data-id="L_build_preview_0" data-points="W3sieCI6MTI0LjQ5MjE4NzUsInkiOjQ2Ny41OTk5OTA4NDQ3MjY1Nn0seyJ4IjoxMjQuNDkyMTg3NSwieSI6NDkyLjU5OTk5MDg0NDcyNjU2fSx7IngiOjEyNC40OTIxODc1LCJ5Ijo1MTcuNTk5OTkwODQ0NzI2Nn1d" data-look="classic" marker-end="url(#ge08b2f41-4482-47ca-a53b-6f7d4ec7e7ef-light_flowchart-v2-pointEnd)"></path><path d="M291.499,40.116L318.872,44.596C346.245,49.077,400.992,58.039,428.365,73.703C455.738,89.367,455.738,111.733,455.738,136.017C455.738,160.3,455.738,186.5,460.045,205.156C464.352,223.813,472.965,234.926,477.272,240.482L481.579,246.038" id="ge08b2f41-4482-47ca-a53b-6f7d4ec7e7ef-light-L_start_mcp_0" class="edge-thickness-normal edge-pattern-dotted edge-thickness-normal edge-pattern-solid flowchart-link" style=";" data-edge="true" data-et="edge" data-id="L_start_mcp_0" data-points="W3sieCI6MjkxLjQ5ODkwMzUyMTg2ODQ0LCJ5Ijo0MC4xMTU1OTk1NTg4NzQ2NH0seyJ4Ijo0NTUuNzM4MjgxMjUsInkiOjY3fSx7IngiOjQ1NS43MzgyODEyNSwieSI6MTM0LjA5OTk5ODQ3NDEyMTF9LHsieCI6NDU1LjczODI4MTI1LCJ5IjoyMTIuNjk5OTk2OTQ4MjQyMn0seyJ4Ijo0ODQuMDI4OTc0Mzg4MjcxOSwieSI6MjQ5LjE5OTk5Njk0ODI0MjJ9XQ==" data-look="classic" marker-end="url(#ge08b2f41-4482-47ca-a53b-6f7d4ec7e7ef-light_flowchart-v2-pointEnd)"></path><path d="M325.238,159.739L367.296,168.566C409.353,177.393,493.467,195.046,531.218,209.43C568.969,223.813,560.355,234.926,556.049,240.482L551.742,246.038" id="ge08b2f41-4482-47ca-a53b-6f7d4ec7e7ef-light-L_init_mcp_0" class="edge-thickness-normal edge-pattern-dotted edge-thickness-normal edge-pattern-solid flowchart-link" style=";" data-edge="true" data-et="edge" data-id="L_init_mcp_0" data-points="W3sieCI6MzI1LjIzODI4MTI1LCJ5IjoxNTkuNzM5MjM2OTc3NTcwMDJ9LHsieCI6NTc3LjU4MjAzMTI1LCJ5IjoyMTIuNjk5OTk2OTQ4MjQyMn0seyJ4Ijo1NDkuMjkxMzM4MTExNzI4MSwieSI6MjQ5LjE5OTk5Njk0ODI0MjJ9XQ==" data-look="classic" marker-end="url(#ge08b2f41-4482-47ca-a53b-6f7d4ec7e7ef-light_flowchart-v2-pointEnd)"></path></g><g class="edgeLabels"><g class="edgeLabel"><g class="label" data-id="L_start_init_0" transform="translate(0, 0)"><text y="-10.1" text-anchor="middle"><tspan class="text-outer-tspan row" x="0" y="-0.1em" dy="1.1em" text-anchor="middle"></tspan></text></g></g><g><rect class="background" style="stroke: none"></rect></g><g class="edgeLabel"><g class="label" data-id="L_start_dev_0" transform="translate(0, 0)"><text y="-10.1" text-anchor="middle"><tspan class="text-outer-tspan row" x="0" y="-0.1em" dy="1.1em" text-anchor="middle"></tspan></text></g></g><g><rect class="background" style="stroke: none"></rect></g><g class="edgeLabel"><g class="label" data-id="L_init_dev_0" transform="translate(0, 0)"><text y="-10.1" text-anchor="middle"><tspan class="text-outer-tspan row" x="0" y="-0.1em" dy="1.1em" text-anchor="middle"></tspan></text></g></g><g><rect class="background" style="stroke: none"></rect></g><g class="edgeLabel"><g class="label" data-id="L_dev_build_0" transform="translate(0, 0)"><text y="-10.1" text-anchor="middle"><tspan class="text-outer-tspan row" x="0" y="-0.1em" dy="1.1em" text-anchor="middle"></tspan></text></g></g><g><rect class="background" style="stroke: none"></rect></g><g class="edgeLabel"><g class="label" data-id="L_build_preview_0" transform="translate(0, 0)"><text y="-10.1" text-anchor="middle"><tspan class="text-outer-tspan row" x="0" y="-0.1em" dy="1.1em" text-anchor="middle"></tspan></text></g></g><g><rect class="background" style="stroke: none"></rect></g><g class="edgeLabel" transform="translate(455.73828125, 134.0999984741211)"><g class="label" data-id="L_start_mcp_0" transform="translate(0, -10.5)"><g><rect class="background" style="" x="-95.5" y="-1" width="191" height="23"></rect><text y="-10.1" text-anchor="middle" style=""><tspan class="text-outer-tspan row" x="0" y="-0.1em" dy="1.1em" text-anchor="middle"><tspan font-style="normal" class="text-inner-tspan" font-weight="normal">assistant</tspan><tspan font-style="normal" class="text-inner-tspan" font-weight="normal"> or</tspan><tspan font-style="normal" class="text-inner-tspan" font-weight="normal"> tooling</tspan><tspan font-style="normal" class="text-inner-tspan" font-weight="normal"> access</tspan></tspan></text></g></g></g><g class="edgeLabel" transform="translate(474.00794, 190.96234)"><g class="label" data-id="L_init_mcp_0" transform="translate(0, -10.5)"><g><rect class="background" style="" x="-101.84375" y="-1" width="203.6875" height="23"></rect><text y="-10.1" text-anchor="middle" style=""><tspan class="text-outer-tspan row" x="0" y="-0.1em" dy="1.1em" text-anchor="middle"><tspan font-style="normal" class="text-inner-tspan" font-weight="normal">project</tspan><tspan font-style="normal" class="text-inner-tspan" font-weight="normal"> metadata</tspan><tspan font-style="normal" class="text-inner-tspan" font-weight="normal"> +</tspan><tspan font-style="normal" class="text-inner-tspan" font-weight="normal"> content</tspan></tspan></text></g></g></g></g><g class="nodes"><g class="node default" id="ge08b2f41-4482-47ca-a53b-6f7d4ec7e7ef-light-flowchart-start-0" data-look="classic" transform="translate(203.07421875, 25)"><g class="basic label-container outer-path"><path d="M-79.2578125 -17 C-46.96559748504493 -17, -14.673382470089862 -17, 79.2578125 -17 C79.2578125 -17, 79.2578125 -17, 79.2578125 -17 C79.50683135166666 -16.99201445011284, 79.75585020333331 -16.98402890022568, 80.34700623967211 -16.965071676755716 C80.67706026418126 -16.93323176195936, 81.00711428869043 -16.901391847163, 81.4317242486366 -16.860430234995185 C81.82878382064187 -16.796236722636344, 82.22584339264714 -16.732043210277503, 82.50750918792333 -16.686505668848113 C82.92430664648788 -16.591374368788358, 83.34110410505241 -16.4962430687286, 83.56994042646163 -16.4440126716635 C83.97089814768505 -16.32501052467442, 84.37185586890845 -16.206008377685336, 84.61465220640156 -16.133947699181366 C85.01952296992053 -15.984951515622074, 85.4243937334395 -15.835955332062781, 85.63735158294936 -15.757584874882369 C85.87413079665923 -15.652769740778828, 86.11091001036911 -15.547954606675287, 86.63383606499849 -15.316470754341125 C86.92452473002261 -15.16481866399302, 87.21521339504672 -15.013166573644915, 87.60001088406693 -14.812417970097622 C87.94279069126046 -14.604622836579166, 88.28557049845399 -14.396827703060708, 88.53190582057933 -14.247497783161291 C88.85203256450086 -14.02419122466502, 89.1721593084224 -13.800884666168752, 89.42569151835067 -13.624031571755262 C89.60080760425106 -13.484381153284456, 89.77592369015146 -13.344730734813648, 90.2776952202324 -12.944581292275288 C90.53766791451311 -12.708480969830106, 90.79764060879383 -12.472380647384925, 91.08441586025927 -12.21193895166137 C91.3265047056527 -11.96196234292881, 91.56859355104612 -11.71198573419625, 91.84253845028036 -11.42911513444239 C92.06672981762021 -11.165767197514803, 92.29092118496008 -10.90241926058722, 92.54894770195651 -10.59932663159847 C92.7373182103749 -10.346927311224183, 92.92568871879328 -10.094527990849894, 93.20074082814824 -9.725983222076888 C93.39056139935975 -9.434367850735612, 93.58038197057127 -9.142752479394334, 93.79523947109088 -8.812673661278927 C94.00581943716762 -8.438767607975889, 94.21639940324434 -8.06486155467285, 94.330000708341 -7.863150934094199 C94.47505177102408 -7.561949298837216, 94.62010283370718 -7.260747663580232, 94.80282709126881 -6.881316833080699 C94.96609434271431 -6.478043565452746, 95.1293615941598 -6.074770297824795, 95.21177567484592 -5.871205925162238 C95.32556550612473 -5.528489083297992, 95.43935533740354 -5.185772241433746, 95.55516600162323 -4.836968972727556 C95.66203126565944 -4.429445405259096, 95.76889652969564 -4.021921837790636, 95.831587007091 -3.7828558772573464 C95.90321067714781 -3.4150834691836462, 95.97483434720462 -3.047311061109946, 96.03990281804565 -2.713198215567453 C96.08964927400088 -2.327374526727549, 96.1393957299561 -1.9415508378876454, 96.17925742013637 -1.632391440430593 C96.20358017915602 -1.2535448357218126, 96.22790293817567 -0.8746982310130322, 96.2490781754117 -0.5448768187181379 C96.2490781754117 -0.321374753264456, 96.2490781754117 -0.09787268781077418, 96.2490781754117 0.5448768187181336 C96.23211838388154 0.8090392614974913, 96.2151585923514 1.073201704276849, 96.17925742013637 1.6323914404305815 C96.12592531575307 2.0460247104122855, 96.07259321136975 2.4596579803939895, 96.03990281804565 2.7131982155674415 C95.9738015178573 3.0526144215198556, 95.90770021766896 3.39203062747227, 95.831587007091 3.782855877257343 C95.76061338719977 4.053509050064045, 95.68963976730855 4.324162222870748, 95.55516600162323 4.836968972727545 C95.48350771712913 5.052792308426631, 95.41184943263502 5.268615644125717, 95.21177567484592 5.871205925162227 C95.11033245442587 6.121772640870986, 95.00888923400584 6.3723393565797455, 94.80282709126881 6.881316833080694 C94.6448394777051 7.209381493039124, 94.48685186414141 7.537446152997553, 94.330000708341 7.863150934094196 C94.1390035223538 8.202285778376776, 93.94800633636659 8.541420622659356, 93.79523947109088 8.812673661278923 C93.58674829028023 9.132972102725153, 93.37825710946959 9.453270544171383, 93.20074082814826 9.725983222076879 C92.98204104757025 10.019021004091519, 92.76334126699224 10.312058786106157, 92.54894770195651 10.599326631598467 C92.31891987628939 10.869530404581141, 92.08889205062228 11.139734177563815, 91.84253845028037 11.42911513444238 C91.6417879553902 11.636406502338632, 91.44103746050003 11.843697870234884, 91.08441586025927 12.211938951661365 C90.77610565320924 12.491938124263136, 90.46779544615922 12.771937296864905, 90.27769522023242 12.944581292275275 C90.05799622631653 13.11978539348743, 89.83829723240065 13.294989494699585, 89.42569151835067 13.62403157175526 C89.22763995010109 13.762183772251957, 89.02958838185153 13.900335972748653, 88.53190582057934 14.247497783161286 C88.33357721078444 14.367725751927233, 88.13524860098954 14.487953720693179, 87.60001088406695 14.81241797009762 C87.25105647309535 14.994467262785534, 86.90210206212375 15.176516555473448, 86.63383606499849 15.316470754341124 C86.36892503015844 15.433739011158176, 86.10401399531837 15.551007267975228, 85.63735158294936 15.757584874882367 C85.42902817813662 15.834249813573903, 85.22070477332386 15.91091475226544, 84.61465220640156 16.133947699181363 C84.39491329857078 16.199165053592473, 84.17517439074 16.264382408003588, 83.56994042646164 16.444012671663497 C83.30688106122633 16.504054255155673, 83.04382169599101 16.564095838647848, 82.50750918792333 16.68650566884811 C82.18567588283413 16.738537181760375, 81.86384257774495 16.790568694672636, 81.43172424863661 16.86043023499518 C81.18363941144783 16.884362680873114, 80.93555457425906 16.908295126751046, 80.34700623967211 16.965071676755716 C80.0249282285558 16.9754000916854, 79.70285021743948 16.985728506615082, 79.2578125 17 C79.2578125 17, 79.2578125 17, 79.2578125 17 C18.185823805048493 17, -42.886164889903014 17, -79.2578125 17 C-79.54904719800314 16.99066067008899, -79.84028189600627 16.98132134017798, -80.34700623967211 16.965071676755716 C-80.58931187148261 16.941696743870118, -80.83161750329309 16.918321810984516, -81.4317242486366 16.86043023499518 C-81.80819154034054 16.799565922819937, -82.1846588320445 16.738701610644696, -82.50750918792333 16.68650566884811 C-82.8206051215272 16.615043565144934, -83.13370105513107 16.54358146144176, -83.56994042646161 16.4440126716635 C-83.78992877319435 16.378721285095622, -84.00991711992708 16.313429898527744, -84.61465220640154 16.13394769918137 C-84.97720293129831 16.0005256810372, -85.33975365619507 15.867103662893028, -85.63735158294936 15.757584874882369 C-85.88203449984626 15.649271005832958, -86.12671741674315 15.540957136783549, -86.63383606499849 15.316470754341127 C-86.9203275204628 15.167008345531926, -87.20681897592713 15.017545936722723, -87.60001088406693 14.812417970097624 C-87.94006590982734 14.60627461509652, -88.28012093558773 14.400131260095415, -88.53190582057931 14.247497783161299 C-88.81817712389122 14.047807314455907, -89.10444842720311 13.848116845750516, -89.42569151835067 13.624031571755264 C-89.67875396316715 13.422221006288602, -89.93181640798363 13.22041044082194, -90.2776952202324 12.94458129227529 C-90.59282343447398 12.658390185936735, -90.90795164871555 12.372199079598179, -91.08441586025926 12.211938951661377 C-91.31148070036765 11.977475861879386, -91.53854554047605 11.743012772097396, -91.84253845028036 11.429115134442386 C-92.09215548055982 11.135900767064737, -92.34177251083929 10.84268639968709, -92.54894770195651 10.599326631598473 C-92.67933185784098 10.424623740954242, -92.80971601372545 10.249920850310012, -93.20074082814824 9.72598322207689 C-93.39322055457524 9.430282674241475, -93.58570028100223 9.13458212640606, -93.79523947109088 8.812673661278936 C-93.97528044343464 8.492992683757235, -94.15532141577839 8.173311706235534, -94.330000708341 7.863150934094201 C-94.51228647413787 7.484630641126433, -94.69457223993474 7.106110348158664, -94.80282709126881 6.881316833080701 C-94.90433255073984 6.630596385712696, -95.00583801021088 6.379875938344691, -95.21177567484592 5.87120592516224 C-95.2806874054043 5.6636547723136585, -95.34959913596265 5.456103619465076, -95.55516600162323 4.8369689727275516 C-95.62259614131344 4.579828625681422, -95.69002628100363 4.322688278635294, -95.831587007091 3.782855877257349 C-95.88907576954614 3.487663232304438, -95.94656453200129 3.192470587351527, -96.03990281804565 2.713198215567455 C-96.07584808463605 2.434413826088061, -96.11179335122645 2.155629436608667, -96.17925742013637 1.6323914404306026 C-96.19505001081832 1.38640909300935, -96.21084260150029 1.1404267455880974, -96.2490781754117 0.54487681871814 C-96.2490781754117 0.1498564754941596, -96.2490781754117 -0.2451638677298208, -96.2490781754117 -0.5448768187181317 C-96.22163444395642 -0.9723350883153388, -96.19419071250114 -1.3997933579125459, -96.17925742013637 -1.6323914404305793 C-96.13057719691093 -2.009945638769676, -96.0818969736855 -2.387499837108772, -96.03990281804565 -2.713198215567447 C-95.99447904415666 -2.9464396941693662, -95.94905527026768 -3.179681172771286, -95.831587007091 -3.782855877257341 C-95.75094032576865 -4.090396625632231, -95.67029364444632 -4.397937374007119, -95.55516600162323 -4.836968972727544 C-95.4207245734735 -5.2418851339818975, -95.28628314532378 -5.646801295236252, -95.21177567484594 -5.871205925162218 C-95.09279620782071 -6.165087509026026, -94.97381674079548 -6.458969092889836, -94.80282709126881 -6.881316833080692 C-94.6801364555343 -7.136086563342463, -94.5574458197998 -7.390856293604234, -94.330000708341 -7.863150934094194 C-94.16843251028155 -8.150031630302879, -94.0068643122221 -8.436912326511562, -93.79523947109088 -8.812673661278929 C-93.6001506400892 -9.112382494383759, -93.4050618090875 -9.41209132748859, -93.20074082814826 -9.725983222076884 C-93.00618008849102 -9.986676888369553, -92.8116193488338 -10.247370554662222, -92.54894770195651 -10.599326631598467 C-92.38624579386904 -10.790445550838847, -92.22354388578157 -10.981564470079226, -91.84253845028037 -11.42911513444238 C-91.55922634671086 -11.721658141734181, -91.27591424314136 -12.014201149025983, -91.08441586025927 -12.21193895166136 C-90.86180889000163 -12.414104712191678, -90.63920191974398 -12.616270472721995, -90.27769522023242 -12.944581292275274 C-90.09964343634266 -13.086572851770391, -89.92159165245292 -13.228564411265511, -89.42569151835067 -13.624031571755259 C-89.24298176027926 -13.751481989607921, -89.06027200220787 -13.878932407460583, -88.53190582057934 -14.247497783161284 C-88.16027461539576 -14.472782803690947, -87.78864341021217 -14.698067824220608, -87.60001088406695 -14.812417970097618 C-87.23897835052348 -15.00076841159487, -86.87794581698002 -15.18911885309212, -86.63383606499849 -15.316470754341124 C-86.32553255006962 -15.4529475749013, -86.01722903514077 -15.589424395461474, -85.63735158294936 -15.757584874882365 C-85.30704014572217 -15.879142537147429, -84.97672870849496 -16.000700199412492, -84.61465220640156 -16.133947699181363 C-84.37859936518394 -16.2040069433881, -84.14254652396635 -16.27406618759484, -83.56994042646164 -16.444012671663494 C-83.26281771122285 -16.51411142725373, -82.95569499598406 -16.58421018284397, -82.50750918792333 -16.68650566884811 C-82.08965452877344 -16.754061169628187, -81.67179986962354 -16.82161667040826, -81.43172424863661 -16.86043023499518 C-81.09226750907284 -16.89317721840444, -80.75281076950907 -16.925924201813697, -80.34700623967213 -16.965071676755716 C-80.0880415828748 -16.97337616925508, -79.82907692607748 -16.981680661754446, -79.2578125 -17 C-79.2578125 -17, -79.2578125 -17, -79.2578125 -17" stroke="none" stroke-width="0" fill="#ECECFF" style=""></path><path d="M-79.2578125 -17 C-22.3802347452999 -17, 34.4973430094002 -17, 79.2578125 -17 M-79.2578125 -17 C-28.59329514260456 -17, 22.07122221479088 -17, 79.2578125 -17 M79.2578125 -17 C79.2578125 -17, 79.2578125 -17, 79.2578125 -17 M79.2578125 -17 C79.2578125 -17, 79.2578125 -17, 79.2578125 -17 M79.2578125 -17 C79.58333434868607 -16.989561147902478, 79.90885619737213 -16.979122295804956, 80.34700623967211 -16.965071676755716 M79.2578125 -17 C79.53967313629956 -16.99096127800232, 79.8215337725991 -16.98192255600464, 80.34700623967211 -16.965071676755716 M80.34700623967211 -16.965071676755716 C80.5846567928172 -16.942145813710418, 80.82230734596229 -16.919219950665116, 81.4317242486366 -16.860430234995185 M80.34700623967211 -16.965071676755716 C80.74677169306985 -16.926506784254737, 81.14653714646758 -16.88794189175376, 81.4317242486366 -16.860430234995185 M81.4317242486366 -16.860430234995185 C81.70459523550353 -16.816314569984648, 81.97746622237047 -16.77219890497411, 82.50750918792333 -16.686505668848113 M81.4317242486366 -16.860430234995185 C81.79387583811481 -16.80188037453587, 82.15602742759303 -16.743330514076554, 82.50750918792333 -16.686505668848113 M82.50750918792333 -16.686505668848113 C82.83531117706272 -16.611687003934936, 83.16311316620211 -16.536868339021762, 83.56994042646163 -16.4440126716635 M82.50750918792333 -16.686505668848113 C82.78914047591914 -16.622225165178975, 83.07077176391496 -16.557944661509836, 83.56994042646163 -16.4440126716635 M83.56994042646163 -16.4440126716635 C83.9159560028009 -16.341317064878826, 84.26197157914018 -16.238621458094155, 84.61465220640156 -16.133947699181366 M83.56994042646163 -16.4440126716635 C83.96723098614198 -16.326098918971073, 84.36452154582236 -16.208185166278643, 84.61465220640156 -16.133947699181366 M84.61465220640156 -16.133947699181366 C84.8601381001904 -16.04360662102035, 85.10562399397924 -15.953265542859329, 85.63735158294936 -15.757584874882369 M84.61465220640156 -16.133947699181366 C84.86261832658396 -16.042693874780554, 85.11058444676635 -15.951440050379745, 85.63735158294936 -15.757584874882369 M85.63735158294936 -15.757584874882369 C86.00070118805986 -15.596740783083028, 86.36405079317036 -15.43589669128369, 86.63383606499849 -15.316470754341125 M85.63735158294936 -15.757584874882369 C85.93040671451969 -15.627858061307798, 86.22346184609 -15.498131247733227, 86.63383606499849 -15.316470754341125 M86.63383606499849 -15.316470754341125 C86.87391053665674 -15.191224056252054, 87.11398500831498 -15.065977358162984, 87.60001088406693 -14.812417970097622 M86.63383606499849 -15.316470754341125 C86.8882792344705 -15.183727915806204, 87.14272240394251 -15.05098507727128, 87.60001088406693 -14.812417970097622 M87.60001088406693 -14.812417970097622 C87.8068856474053 -14.687009272830853, 88.01376041074366 -14.561600575564086, 88.53190582057933 -14.247497783161291 M87.60001088406693 -14.812417970097622 C87.85611538773341 -14.657165914937883, 88.11221989139989 -14.501913859778146, 88.53190582057933 -14.247497783161291 M88.53190582057933 -14.247497783161291 C88.87401108573589 -14.008859959686315, 89.21611635089245 -13.770222136211341, 89.42569151835067 -13.624031571755262 M88.53190582057933 -14.247497783161291 C88.82593502677508 -14.042395737238323, 89.11996423297084 -13.837293691315354, 89.42569151835067 -13.624031571755262 M89.42569151835067 -13.624031571755262 C89.62683102414054 -13.463628168434889, 89.8279705299304 -13.303224765114516, 90.2776952202324 -12.944581292275288 M89.42569151835067 -13.624031571755262 C89.7545884183061 -13.361745046354894, 90.08348531826152 -13.099458520954526, 90.2776952202324 -12.944581292275288 M90.2776952202324 -12.944581292275288 C90.59174760295791 -12.659367227654695, 90.9057999856834 -12.374153163034102, 91.08441586025927 -12.21193895166137 M90.2776952202324 -12.944581292275288 C90.57434610097373 -12.675170811338216, 90.87099698171504 -12.405760330401145, 91.08441586025927 -12.21193895166137 M91.08441586025927 -12.21193895166137 C91.34866248045442 -11.93908262125888, 91.61290910064957 -11.66622629085639, 91.84253845028036 -11.42911513444239 M91.08441586025927 -12.21193895166137 C91.34159912388263 -11.94637611683161, 91.598782387506 -11.68081328200185, 91.84253845028036 -11.42911513444239 M91.84253845028036 -11.42911513444239 C92.04805694267804 -11.187701418938559, 92.25357543507575 -10.946287703434727, 92.54894770195651 -10.59932663159847 M91.84253845028036 -11.42911513444239 C92.0029391658474 -11.240699326878078, 92.16333988141443 -11.052283519313765, 92.54894770195651 -10.59932663159847 M92.54894770195651 -10.59932663159847 C92.7999375966985 -10.263023038294, 93.05092749144049 -9.926719444989528, 93.20074082814824 -9.725983222076888 M92.54894770195651 -10.59932663159847 C92.7412810908901 -10.341617412359655, 92.93361447982367 -10.083908193120841, 93.20074082814824 -9.725983222076888 M93.20074082814824 -9.725983222076888 C93.331030815349 -9.525822813976214, 93.46132080254975 -9.32566240587554, 93.79523947109088 -8.812673661278927 M93.20074082814824 -9.725983222076888 C93.32537592290862 -9.534510247315865, 93.45001101766901 -9.343037272554842, 93.79523947109088 -8.812673661278927 M93.79523947109088 -8.812673661278927 C93.91223032976467 -8.604944545094575, 94.02922118843846 -8.397215428910222, 94.330000708341 -7.863150934094199 M93.79523947109088 -8.812673661278927 C93.95396384947622 -8.53084245486958, 94.11268822786158 -8.249011248460231, 94.330000708341 -7.863150934094199 M94.330000708341 -7.863150934094199 C94.49031408621727 -7.530256774777359, 94.65062746409352 -7.19736261546052, 94.80282709126881 -6.881316833080699 M94.330000708341 -7.863150934094199 C94.48746994504783 -7.536162694770541, 94.64493918175468 -7.209174455446882, 94.80282709126881 -6.881316833080699 M94.80282709126881 -6.881316833080699 C94.90967225278254 -6.617407218431113, 95.01651741429627 -6.353497603781528, 95.21177567484592 -5.871205925162238 M94.80282709126881 -6.881316833080699 C94.92787394488788 -6.572448687025162, 95.05292079850695 -6.263580540969624, 95.21177567484592 -5.871205925162238 M95.21177567484592 -5.871205925162238 C95.28948424020567 -5.637160107477186, 95.36719280556541 -5.403114289792134, 95.55516600162323 -4.836968972727556 M95.21177567484592 -5.871205925162238 C95.34574863562877 -5.4677007129768285, 95.47972159641161 -5.064195500791418, 95.55516600162323 -4.836968972727556 M95.55516600162323 -4.836968972727556 C95.65899282172758 -4.441032308841181, 95.76281964183194 -4.045095644954807, 95.831587007091 -3.7828558772573464 M95.55516600162323 -4.836968972727556 C95.62142746350852 -4.5842853006597055, 95.68768892539381 -4.331601628591855, 95.831587007091 -3.7828558772573464 M95.831587007091 -3.7828558772573464 C95.88762957567086 -3.495089132200825, 95.94367214425073 -3.207322387144304, 96.03990281804565 -2.713198215567453 M95.831587007091 -3.7828558772573464 C95.8997178535755 -3.433018380018951, 95.96784870005999 -3.083180882780556, 96.03990281804565 -2.713198215567453 M96.03990281804565 -2.713198215567453 C96.09248344561266 -2.305393251377017, 96.14506407317968 -1.8975882871865808, 96.17925742013637 -1.632391440430593 M96.03990281804565 -2.713198215567453 C96.08769964915136 -2.342495432063386, 96.13549648025707 -1.971792648559319, 96.17925742013637 -1.632391440430593 M96.17925742013637 -1.632391440430593 C96.19845051412314 -1.3334435092000692, 96.21764360810991 -1.0344955779695453, 96.2490781754117 -0.5448768187181379 M96.17925742013637 -1.632391440430593 C96.19394227861895 -1.4036629161600078, 96.20862713710153 -1.1749343918894226, 96.2490781754117 -0.5448768187181379 M96.2490781754117 -0.5448768187181379 C96.2490781754117 -0.14585487976186778, 96.2490781754117 0.2531670591944023, 96.2490781754117 0.5448768187181336 M96.2490781754117 -0.5448768187181379 C96.2490781754117 -0.32023359525508666, 96.2490781754117 -0.0955903717920355, 96.2490781754117 0.5448768187181336 M96.2490781754117 0.5448768187181336 C96.23403408951341 0.7792005999513842, 96.21899000361513 1.0135243811846348, 96.17925742013637 1.6323914404305815 M96.2490781754117 0.5448768187181336 C96.22503724038482 0.9193337872551597, 96.20099630535795 1.2937907557921857, 96.17925742013637 1.6323914404305815 M96.17925742013637 1.6323914404305815 C96.14288976985605 1.9144517543998478, 96.10652211957574 2.196512068369114, 96.03990281804565 2.7131982155674415 M96.17925742013637 1.6323914404305815 C96.14446311607693 1.9022491918029925, 96.10966881201752 2.172106943175403, 96.03990281804565 2.7131982155674415 M96.03990281804565 2.7131982155674415 C95.99639723481154 2.9365901905663145, 95.95289165157743 3.159982165565188, 95.831587007091 3.782855877257343 M96.03990281804565 2.7131982155674415 C95.98402634575497 3.000112091283492, 95.92814987346429 3.2870259669995425, 95.831587007091 3.782855877257343 M95.831587007091 3.782855877257343 C95.77600872343675 3.9947999606115427, 95.72043043978249 4.206744043965743, 95.55516600162323 4.836968972727545 M95.831587007091 3.782855877257343 C95.75405752753298 4.078509384301055, 95.67652804797497 4.374162891344768, 95.55516600162323 4.836968972727545 M95.55516600162323 4.836968972727545 C95.44238173913631 5.176657201606267, 95.32959747664938 5.516345430484989, 95.21177567484592 5.871205925162227 M95.55516600162323 4.836968972727545 C95.42128646475497 5.240192806967333, 95.2874069278867 5.643416641207122, 95.21177567484592 5.871205925162227 M95.21177567484592 5.871205925162227 C95.10414658880684 6.137051848545582, 94.99651750276776 6.402897771928937, 94.80282709126881 6.881316833080694 M95.21177567484592 5.871205925162227 C95.09910871846553 6.149495485689204, 94.98644176208515 6.427785046216183, 94.80282709126881 6.881316833080694 M94.80282709126881 6.881316833080694 C94.66046919548162 7.176926049653803, 94.51811129969444 7.472535266226911, 94.330000708341 7.863150934094196 M94.80282709126881 6.881316833080694 C94.6222461299633 7.256297063045193, 94.44166516865779 7.631277293009692, 94.330000708341 7.863150934094196 M94.330000708341 7.863150934094196 C94.20827452301266 8.07928810225752, 94.08654833768433 8.295425270420843, 93.79523947109088 8.812673661278923 M94.330000708341 7.863150934094196 C94.18261866114884 8.12484268293446, 94.03523661395668 8.386534431774725, 93.79523947109088 8.812673661278923 M93.79523947109088 8.812673661278923 C93.56133952754325 9.172006785497276, 93.32743958399564 9.531339909715626, 93.20074082814826 9.725983222076879 M93.79523947109088 8.812673661278923 C93.57389865576536 9.152712591949983, 93.35255784043986 9.492751522621043, 93.20074082814826 9.725983222076879 M93.20074082814826 9.725983222076879 C93.00329340041782 9.990544787404952, 92.80584597268738 10.255106352733026, 92.54894770195651 10.599326631598467 M93.20074082814826 9.725983222076879 C93.0335996888802 9.949937121825045, 92.86645854961213 10.17389102157321, 92.54894770195651 10.599326631598467 M92.54894770195651 10.599326631598467 C92.32092357371437 10.867176747572143, 92.09289944547224 11.135026863545818, 91.84253845028037 11.42911513444238 M92.54894770195651 10.599326631598467 C92.29550682850241 10.89703270275188, 92.04206595504833 11.194738773905293, 91.84253845028037 11.42911513444238 M91.84253845028037 11.42911513444238 C91.65025618604703 11.627662358930788, 91.45797392181369 11.826209583419196, 91.08441586025927 12.211938951661365 M91.84253845028037 11.42911513444238 C91.55134004207702 11.729801398746286, 91.26014163387366 12.03048766305019, 91.08441586025927 12.211938951661365 M91.08441586025927 12.211938951661365 C90.89731145165085 12.381862225048154, 90.71020704304244 12.551785498434944, 90.27769522023242 12.944581292275275 M91.08441586025927 12.211938951661365 C90.8020030916965 12.468418755837675, 90.51959032313376 12.724898560013987, 90.27769522023242 12.944581292275275 M90.27769522023242 12.944581292275275 C90.04851841790199 13.127343693482949, 89.81934161557157 13.310106094690624, 89.42569151835067 13.62403157175526 M90.27769522023242 12.944581292275275 C89.97420662924212 13.186605367419451, 89.67071803825182 13.428629442563627, 89.42569151835067 13.62403157175526 M89.42569151835067 13.62403157175526 C89.23368779025863 13.75796506076484, 89.0416840621666 13.891898549774421, 88.53190582057934 14.247497783161286 M89.42569151835067 13.62403157175526 C89.1918557563338 13.787145276751245, 88.95801999431693 13.950258981747227, 88.53190582057934 14.247497783161286 M88.53190582057934 14.247497783161286 C88.15986683642204 14.473030001701197, 87.78782785226473 14.698562220241106, 87.60001088406695 14.81241797009762 M88.53190582057934 14.247497783161286 C88.33755554134288 14.36531406456344, 88.14320526210643 14.483130345965593, 87.60001088406695 14.81241797009762 M87.60001088406695 14.81241797009762 C87.3208292109559 14.95806687013525, 87.04164753784488 15.10371577017288, 86.63383606499849 15.316470754341124 M87.60001088406695 14.81241797009762 C87.29700258887331 14.970497203614059, 86.99399429367969 15.128576437130498, 86.63383606499849 15.316470754341124 M86.63383606499849 15.316470754341124 C86.28104972333395 15.472638802761013, 85.92826338166941 15.628806851180904, 85.63735158294936 15.757584874882367 M86.63383606499849 15.316470754341124 C86.29820468849753 15.465044808567056, 85.96257331199658 15.613618862792988, 85.63735158294936 15.757584874882367 M85.63735158294936 15.757584874882367 C85.28749060654006 15.886336948280402, 84.93762963013077 16.015089021678435, 84.61465220640156 16.133947699181363 M85.63735158294936 15.757584874882367 C85.31631237884261 15.875730269647521, 84.99527317473587 15.993875664412673, 84.61465220640156 16.133947699181363 M84.61465220640156 16.133947699181363 C84.23939938506261 16.245320766812508, 83.86414656372368 16.356693834443654, 83.56994042646164 16.444012671663497 M84.61465220640156 16.133947699181363 C84.34071132719043 16.215251914186208, 84.06677044797931 16.296556129191053, 83.56994042646164 16.444012671663497 M83.56994042646164 16.444012671663497 C83.26038732301066 16.5146661475034, 82.95083421955968 16.58531962334331, 82.50750918792333 16.68650566884811 M83.56994042646164 16.444012671663497 C83.31934307228417 16.501209882453942, 83.06874571810671 16.558407093244384, 82.50750918792333 16.68650566884811 M82.50750918792333 16.68650566884811 C82.2832790972627 16.722757450975795, 82.05904900660208 16.75900923310348, 81.43172424863661 16.86043023499518 M82.50750918792333 16.68650566884811 C82.26129808042681 16.726311171312492, 82.01508697293029 16.76611667377687, 81.43172424863661 16.86043023499518 M81.43172424863661 16.86043023499518 C81.04426587165963 16.897807878635277, 80.65680749468265 16.935185522275372, 80.34700623967211 16.965071676755716 M81.43172424863661 16.86043023499518 C81.06008167960056 16.896282146664507, 80.6884391105645 16.932134058333833, 80.34700623967211 16.965071676755716 M80.34700623967211 16.965071676755716 C79.97065709374306 16.977140461346487, 79.59430794781402 16.98920924593726, 79.2578125 17 M80.34700623967211 16.965071676755716 C80.10604063510984 16.972798974682934, 79.86507503054757 16.98052627261015, 79.2578125 17 M79.2578125 17 C79.2578125 17, 79.2578125 17, 79.2578125 17 M79.2578125 17 C79.2578125 17, 79.2578125 17, 79.2578125 17 M79.2578125 17 C18.13326405530134 17, -42.99128438939732 17, -79.2578125 17 M79.2578125 17 C40.603904389687024 17, 1.949996279374048 17, -79.2578125 17 M-79.2578125 17 C-79.59469959037229 16.989196686722703, -79.93158668074456 16.978393373445403, -80.34700623967211 16.965071676755716 M-79.2578125 17 C-79.49303076297294 16.992457008131034, -79.72824902594589 16.984914016262064, -80.34700623967211 16.965071676755716 M-80.34700623967211 16.965071676755716 C-80.6802318109499 16.932925806656932, -81.01345738222768 16.900779936558145, -81.4317242486366 16.86043023499518 M-80.34700623967211 16.965071676755716 C-80.70618621228996 16.93042201677439, -81.06536618490782 16.895772356793064, -81.4317242486366 16.86043023499518 M-81.4317242486366 16.86043023499518 C-81.85728951058852 16.791628143750692, -82.28285477254043 16.722826052506203, -82.50750918792333 16.68650566884811 M-81.4317242486366 16.86043023499518 C-81.81569632543113 16.798352607366972, -82.19966840222567 16.73627497973876, -82.50750918792333 16.68650566884811 M-82.50750918792333 16.68650566884811 C-82.7430980559956 16.63273404707165, -82.97868692406787 16.57896242529519, -83.56994042646161 16.4440126716635 M-82.50750918792333 16.68650566884811 C-82.90383067621438 16.596047875385086, -83.30015216450542 16.505590081922062, -83.56994042646161 16.4440126716635 M-83.56994042646161 16.4440126716635 C-83.94890245276952 16.331538731467585, -84.32786447907742 16.21906479127167, -84.61465220640154 16.13394769918137 M-83.56994042646161 16.4440126716635 C-83.98174376852774 16.32179160133813, -84.39354711059386 16.199570531012757, -84.61465220640154 16.13394769918137 M-84.61465220640154 16.13394769918137 C-84.96473140143759 16.0051153193115, -85.31481059647363 15.87628293944163, -85.63735158294936 15.757584874882369 M-84.61465220640154 16.13394769918137 C-84.85248716416932 16.04642223620058, -85.09032212193709 15.95889677321979, -85.63735158294936 15.757584874882369 M-85.63735158294936 15.757584874882369 C-85.96542901551831 15.612354727555351, -86.29350644808727 15.467124580228333, -86.63383606499849 15.316470754341127 M-85.63735158294936 15.757584874882369 C-85.94472858348648 15.621518194759345, -86.2521055840236 15.48545151463632, -86.63383606499849 15.316470754341127 M-86.63383606499849 15.316470754341127 C-86.86221655429706 15.197324799358743, -87.09059704359565 15.078178844376358, -87.60001088406693 14.812417970097624 M-86.63383606499849 15.316470754341127 C-87.01368259684531 15.118305061979953, -87.39352912869214 14.920139369618777, -87.60001088406693 14.812417970097624 M-87.60001088406693 14.812417970097624 C-87.94662661912076 14.602297474567838, -88.29324235417458 14.392176979038052, -88.53190582057931 14.247497783161299 M-87.60001088406693 14.812417970097624 C-87.82668192559656 14.675008652655468, -88.05335296712619 14.537599335213313, -88.53190582057931 14.247497783161299 M-88.53190582057931 14.247497783161299 C-88.84296142733965 14.03051885726549, -89.15401703409997 13.813539931369679, -89.42569151835067 13.624031571755264 M-88.53190582057931 14.247497783161299 C-88.81144428866953 14.052503848846808, -89.09098275675977 13.857509914532315, -89.42569151835067 13.624031571755264 M-89.42569151835067 13.624031571755264 C-89.70466168253594 13.401560289525364, -89.9836318467212 13.179089007295463, -90.2776952202324 12.94458129227529 M-89.42569151835067 13.624031571755264 C-89.7163079306377 13.39227271658389, -90.0069243429247 13.160513861412516, -90.2776952202324 12.94458129227529 M-90.2776952202324 12.94458129227529 C-90.49587452162253 12.746436623460752, -90.71405382301266 12.548291954646215, -91.08441586025926 12.211938951661377 M-90.2776952202324 12.94458129227529 C-90.55219055832175 12.695291888971196, -90.8266858964111 12.446002485667101, -91.08441586025926 12.211938951661377 M-91.08441586025926 12.211938951661377 C-91.31878152247887 11.969937163640902, -91.5531471846985 11.727935375620426, -91.84253845028036 11.429115134442386 M-91.08441586025926 12.211938951661377 C-91.28339161841815 12.006480145148764, -91.48236737657705 11.80102133863615, -91.84253845028036 11.429115134442386 M-91.84253845028036 11.429115134442386 C-91.98496265291206 11.261815561864472, -92.12738685554378 11.09451598928656, -92.54894770195651 10.599326631598473 M-91.84253845028036 11.429115134442386 C-91.99623927034834 11.248569405366116, -92.14994009041632 11.068023676289847, -92.54894770195651 10.599326631598473 M-92.54894770195651 10.599326631598473 C-92.77791702588928 10.292528597063079, -93.00688634982207 9.985730562527685, -93.20074082814824 9.72598322207689 M-92.54894770195651 10.599326631598473 C-92.70539918371242 10.389695899068759, -92.86185066546831 10.180065166539046, -93.20074082814824 9.72598322207689 M-93.20074082814824 9.72598322207689 C-93.35000492872607 9.496673480566201, -93.49926902930389 9.267363739055513, -93.79523947109088 8.812673661278936 M-93.20074082814824 9.72598322207689 C-93.34834243278263 9.499227520777993, -93.495944037417 9.272471819479096, -93.79523947109088 8.812673661278936 M-93.79523947109088 8.812673661278936 C-93.97077858235573 8.500986193965682, -94.1463176936206 8.189298726652428, -94.330000708341 7.863150934094201 M-93.79523947109088 8.812673661278936 C-93.96124825993026 8.517908246481907, -94.12725704876965 8.223142831684878, -94.330000708341 7.863150934094201 M-94.330000708341 7.863150934094201 C-94.44348309873146 7.627502322314234, -94.55696548912192 7.391853710534266, -94.80282709126881 6.881316833080701 M-94.330000708341 7.863150934094201 C-94.46083297802208 7.591474926739314, -94.59166524770316 7.319798919384426, -94.80282709126881 6.881316833080701 M-94.80282709126881 6.881316833080701 C-94.93823627636849 6.546853527926023, -95.07364546146815 6.2123902227713454, -95.21177567484592 5.87120592516224 M-94.80282709126881 6.881316833080701 C-94.95613030326511 6.502654935533847, -95.10943351526143 6.123993037986994, -95.21177567484592 5.87120592516224 M-95.21177567484592 5.87120592516224 C-95.33029975205018 5.514230288870205, -95.44882382925444 5.157254652578169, -95.55516600162323 4.8369689727275516 M-95.21177567484592 5.87120592516224 C-95.31787218337436 5.551660145657607, -95.42396869190279 5.232114366152974, -95.55516600162323 4.8369689727275516 M-95.55516600162323 4.8369689727275516 C-95.62407822624539 4.574176793496219, -95.69299045086753 4.311384614264887, -95.831587007091 3.782855877257349 M-95.55516600162323 4.8369689727275516 C-95.63336786091982 4.538751390329456, -95.7115697202164 4.240533807931361, -95.831587007091 3.782855877257349 M-95.831587007091 3.782855877257349 C-95.90104522321008 3.426202617485037, -95.97050343932916 3.0695493577127246, -96.03990281804565 2.713198215567455 M-95.831587007091 3.782855877257349 C-95.87379311918582 3.566136411915391, -95.91599923128064 3.349416946573433, -96.03990281804565 2.713198215567455 M-96.03990281804565 2.713198215567455 C-96.07983351814882 2.403503590775841, -96.119764218252 2.093808965984226, -96.17925742013637 1.6323914404306026 M-96.03990281804565 2.713198215567455 C-96.0728411293251 2.4577351776892744, -96.10577944060455 2.202272139811093, -96.17925742013637 1.6323914404306026 M-96.17925742013637 1.6323914404306026 C-96.19932343752707 1.3198470225728063, -96.21938945491776 1.0073026047150102, -96.2490781754117 0.54487681871814 M-96.17925742013637 1.6323914404306026 C-96.20121453541766 1.2903916464599394, -96.22317165069896 0.9483918524892763, -96.2490781754117 0.54487681871814 M-96.2490781754117 0.54487681871814 C-96.2490781754117 0.10943487612051545, -96.2490781754117 -0.3260070664771091, -96.2490781754117 -0.5448768187181317 M-96.2490781754117 0.54487681871814 C-96.2490781754117 0.1976909420861973, -96.2490781754117 -0.14949493454574536, -96.2490781754117 -0.5448768187181317 M-96.2490781754117 -0.5448768187181317 C-96.22433874255005 -0.9302134548491812, -96.19959930968838 -1.3155500909802307, -96.17925742013637 -1.6323914404305793 M-96.2490781754117 -0.5448768187181317 C-96.22573658681563 -0.9084409020929813, -96.20239499821957 -1.2720049854678308, -96.17925742013637 -1.6323914404305793 M-96.17925742013637 -1.6323914404305793 C-96.12990585030556 -2.0151524704685873, -96.08055428047474 -2.397913500506595, -96.03990281804565 -2.713198215567447 M-96.17925742013637 -1.6323914404305793 C-96.15038595476685 -1.8563128245208818, -96.12151448939733 -2.0802342086111842, -96.03990281804565 -2.713198215567447 M-96.03990281804565 -2.713198215567447 C-95.97713245752317 -3.035510750329968, -95.9143620970007 -3.357823285092489, -95.831587007091 -3.782855877257341 M-96.03990281804565 -2.713198215567447 C-95.97455163949746 -3.048762705435932, -95.90920046094926 -3.3843271953044165, -95.831587007091 -3.782855877257341 M-95.831587007091 -3.782855877257341 C-95.76907544485857 -4.021239556732052, -95.70656388262614 -4.259623236206764, -95.55516600162323 -4.836968972727544 M-95.831587007091 -3.782855877257341 C-95.74956375125821 -4.095646100851755, -95.6675404954254 -4.408436324446169, -95.55516600162323 -4.836968972727544 M-95.55516600162323 -4.836968972727544 C-95.48058754798258 -5.061587392630282, -95.40600909434193 -5.286205812533021, -95.21177567484594 -5.871205925162218 M-95.55516600162323 -4.836968972727544 C-95.4440606401521 -5.171600619243252, -95.33295527868097 -5.5062322657589595, -95.21177567484594 -5.871205925162218 M-95.21177567484594 -5.871205925162218 C-95.08941693907208 -6.17343436816885, -94.96705820329824 -6.475662811175483, -94.80282709126881 -6.881316833080692 M-95.21177567484594 -5.871205925162218 C-95.10510940713569 -6.134673668658514, -94.99844313942545 -6.39814141215481, -94.80282709126881 -6.881316833080692 M-94.80282709126881 -6.881316833080692 C-94.63507135821351 -7.229665202167698, -94.46731562515821 -7.578013571254704, -94.330000708341 -7.863150934094194 M-94.80282709126881 -6.881316833080692 C-94.67155716552664 -7.153901642610766, -94.54028723978448 -7.42648645214084, -94.330000708341 -7.863150934094194 M-94.330000708341 -7.863150934094194 C-94.13887868788088 -8.20250743462431, -93.94775666742075 -8.541863935154428, -93.79523947109088 -8.812673661278929 M-94.330000708341 -7.863150934094194 C-94.13112299018483 -8.216278461233173, -93.93224527202868 -8.569405988372154, -93.79523947109088 -8.812673661278929 M-93.79523947109088 -8.812673661278929 C-93.57368254440475 -9.153044597033924, -93.35212561771861 -9.49341553278892, -93.20074082814826 -9.725983222076884 M-93.79523947109088 -8.812673661278929 C-93.63229141862902 -9.063005627539075, -93.46934336616718 -9.313337593799222, -93.20074082814826 -9.725983222076884 M-93.20074082814826 -9.725983222076884 C-92.98266978964405 -10.018178546992214, -92.76459875113984 -10.310373871907544, -92.54894770195651 -10.599326631598467 M-93.20074082814826 -9.725983222076884 C-93.05479761355978 -9.921533833925064, -92.90885439897131 -10.117084445773244, -92.54894770195651 -10.599326631598467 M-92.54894770195651 -10.599326631598467 C-92.29099347652506 -10.90233434280148, -92.03303925109363 -11.20534205400449, -91.84253845028037 -11.42911513444238 M-92.54894770195651 -10.599326631598467 C-92.36899858146846 -10.810705107918753, -92.18904946098041 -11.02208358423904, -91.84253845028037 -11.42911513444238 M-91.84253845028037 -11.42911513444238 C-91.63582971809898 -11.642558871522205, -91.42912098591758 -11.85600260860203, -91.08441586025927 -12.21193895166136 M-91.84253845028037 -11.42911513444238 C-91.60926551232035 -11.669988594950485, -91.37599257436032 -11.91086205545859, -91.08441586025927 -12.21193895166136 M-91.08441586025927 -12.21193895166136 C-90.87722660977597 -12.400102747023121, -90.67003735929268 -12.588266542384883, -90.27769522023242 -12.944581292275274 M-91.08441586025927 -12.21193895166136 C-90.78612955426004 -12.48283468254669, -90.4878432482608 -12.75373041343202, -90.27769522023242 -12.944581292275274 M-90.27769522023242 -12.944581292275274 C-90.00178464537264 -13.164612633437194, -89.72587407051286 -13.384643974599115, -89.42569151835067 -13.624031571755259 M-90.27769522023242 -12.944581292275274 C-90.0496126493447 -13.12647107302611, -89.82153007845699 -13.308360853776946, -89.42569151835067 -13.624031571755259 M-89.42569151835067 -13.624031571755259 C-89.22275102937583 -13.76559407171194, -89.01981054040097 -13.90715657166862, -88.53190582057934 -14.247497783161284 M-89.42569151835067 -13.624031571755259 C-89.21284011825495 -13.772507494273432, -88.99998871815923 -13.920983416791605, -88.53190582057934 -14.247497783161284 M-88.53190582057934 -14.247497783161284 C-88.28480576140835 -14.39729129115187, -88.03770570223736 -14.547084799142457, -87.60001088406695 -14.812417970097618 M-88.53190582057934 -14.247497783161284 C-88.24745682324799 -14.419932436951406, -87.96300782591663 -14.592367090741527, -87.60001088406695 -14.812417970097618 M-87.60001088406695 -14.812417970097618 C-87.27977231837866 -14.979486224694602, -86.95953375269039 -15.146554479291586, -86.63383606499849 -15.316470754341124 M-87.60001088406695 -14.812417970097618 C-87.25932435172568 -14.990153915799915, -86.91863781938443 -15.167889861502212, -86.63383606499849 -15.316470754341124 M-86.63383606499849 -15.316470754341124 C-86.29612621041032 -15.465964889160398, -85.95841635582217 -15.615459023979675, -85.63735158294936 -15.757584874882365 M-86.63383606499849 -15.316470754341124 C-86.40300038538487 -15.418654862208928, -86.17216470577125 -15.520838970076733, -85.63735158294936 -15.757584874882365 M-85.63735158294936 -15.757584874882365 C-85.24292075058746 -15.902739067270193, -84.84848991822554 -16.04789325965802, -84.61465220640156 -16.133947699181363 M-85.63735158294936 -15.757584874882365 C-85.24990606656857 -15.900168406417592, -84.86246055018776 -16.04275193795282, -84.61465220640156 -16.133947699181363 M-84.61465220640156 -16.133947699181363 C-84.20408846899126 -16.2558008613517, -83.79352473158097 -16.377654023522044, -83.56994042646164 -16.444012671663494 M-84.61465220640156 -16.133947699181363 C-84.30825690846588 -16.224884215306933, -84.00186161053021 -16.315820731432503, -83.56994042646164 -16.444012671663494 M-83.56994042646164 -16.444012671663494 C-83.19255523054932 -16.530148379961933, -82.81517003463698 -16.61628408826037, -82.50750918792333 -16.68650566884811 M-83.56994042646164 -16.444012671663494 C-83.18076918830184 -16.532838467193805, -82.79159795014202 -16.621664262724117, -82.50750918792333 -16.68650566884811 M-82.50750918792333 -16.68650566884811 C-82.12790151509502 -16.74787769348952, -81.74829384226669 -16.809249718130935, -81.43172424863661 -16.86043023499518 M-82.50750918792333 -16.68650566884811 C-82.16505695727916 -16.741870689741948, -81.82260472663499 -16.797235710635785, -81.43172424863661 -16.86043023499518 M-81.43172424863661 -16.86043023499518 C-81.18907536239853 -16.883838281222587, -80.94642647616044 -16.907246327449997, -80.34700623967213 -16.965071676755716 M-81.43172424863661 -16.86043023499518 C-81.04993103210768 -16.897261367420207, -80.66813781557873 -16.93409249984523, -80.34700623967213 -16.965071676755716 M-80.34700623967213 -16.965071676755716 C-80.00686380873798 -16.975979382468697, -79.66672137780382 -16.98688708818168, -79.2578125 -17 M-80.34700623967213 -16.965071676755716 C-79.98623428293567 -16.97664093120824, -79.6254623261992 -16.988210185660765, -79.2578125 -17 M-79.2578125 -17 C-79.2578125 -17, -79.2578125 -17, -79.2578125 -17 M-79.2578125 -17 C-79.2578125 -17, -79.2578125 -17, -79.2578125 -17" stroke="#9370DB" stroke-width="1.3" fill="none" stroke-dasharray="0 0" style=""></path></g><g class="label" style="" transform="translate(0, -9.5)"><rect></rect><g><rect class="background" style="stroke: none"></rect><text y="-10.1" style=""><tspan class="text-outer-tspan row" x="0" y="-0.1em" dy="1.1em"><tspan font-style="normal" class="text-inner-tspan" font-weight="normal">Project</tspan><tspan font-style="normal" class="text-inner-tspan" font-weight="normal"> or</tspan><tspan font-style="normal" class="text-inner-tspan" font-weight="normal"> existing</tspan><tspan font-style="normal" class="text-inner-tspan" font-weight="normal"> repo</tspan></tspan></text></g></g></g><g class="node default" id="ge08b2f41-4482-47ca-a53b-6f7d4ec7e7ef-light-flowchart-init-1" data-look="classic" transform="translate(203.07421875, 134.0999984741211)"><rect class="basic label-container" style="" x="-122.1640625" y="-42.099998474121094" width="244.328125" height="84.19999694824219"></rect><g class="label" style="" transform="translate(0, -27.099998474121094)"><rect></rect><g><rect class="background" style="stroke: none"></rect><text y="-10.1" style=""><tspan class="text-outer-tspan row" x="0" y="-0.1em" dy="1.1em"><tspan font-style="normal" class="text-inner-tspan" font-weight="normal">pagesmith-docs</tspan><tspan font-style="normal" class="text-inner-tspan" font-weight="normal"> init</tspan></tspan><tspan class="text-outer-tspan row" x="0" y="1em" dy="1.1em"><tspan font-style="normal" class="text-inner-tspan" font-weight="normal">Scaffold</tspan><tspan font-style="normal" class="text-inner-tspan" font-weight="normal"> or</tspan><tspan font-style="normal" class="text-inner-tspan" font-weight="normal"> backfill</tspan><tspan font-style="normal" class="text-inner-tspan" font-weight="normal"> config</tspan></tspan><tspan class="text-outer-tspan row" x="0" y="2.1em" dy="1.1em"><tspan font-style="normal" class="text-inner-tspan" font-weight="normal">and</tspan><tspan font-style="normal" class="text-inner-tspan" font-weight="normal"> starter</tspan><tspan font-style="normal" class="text-inner-tspan" font-weight="normal"> docs</tspan></tspan></text></g></g></g><g class="node default" id="ge08b2f41-4482-47ca-a53b-6f7d4ec7e7ef-light-flowchart-dev-2" data-look="classic" transform="translate(124.4921875, 291.2999954223633)"><rect class="basic label-container" style="" x="-115.5" y="-33.29999923706055" width="231" height="66.5999984741211"></rect><g class="label" style="" transform="translate(0, -18.299999237060547)"><rect></rect><g><rect class="background" style="stroke: none"></rect><text y="-10.1" style=""><tspan class="text-outer-tspan row" x="0" y="-0.1em" dy="1.1em"><tspan font-style="normal" class="text-inner-tspan" font-weight="normal">pagesmith-docs</tspan><tspan font-style="normal" class="text-inner-tspan" font-weight="normal"> dev</tspan></tspan><tspan class="text-outer-tspan row" x="0" y="1em" dy="1.1em"><tspan font-style="normal" class="text-inner-tspan" font-weight="normal">Live-reload</tspan><tspan font-style="normal" class="text-inner-tspan" font-weight="normal"> editing</tspan><tspan font-style="normal" class="text-inner-tspan" font-weight="normal"> loop</tspan></tspan></text></g></g></g><g class="node default" id="ge08b2f41-4482-47ca-a53b-6f7d4ec7e7ef-light-flowchart-build-3" data-look="classic" transform="translate(124.4921875, 425.49999237060547)"><rect class="basic label-container" style="" x="-113.9765625" y="-42.099998474121094" width="227.953125" height="84.19999694824219"></rect><g class="label" style="" transform="translate(0, -27.099998474121094)"><rect></rect><g><rect class="background" style="stroke: none"></rect><text y="-10.1" style=""><tspan class="text-outer-tspan row" x="0" y="-0.1em" dy="1.1em"><tspan font-style="normal" class="text-inner-tspan" font-weight="normal">pagesmith-docs</tspan><tspan font-style="normal" class="text-inner-tspan" font-weight="normal"> build</tspan></tspan><tspan class="text-outer-tspan row" x="0" y="1em" dy="1.1em"><tspan font-style="normal" class="text-inner-tspan" font-weight="normal">Static</tspan><tspan font-style="normal" class="text-inner-tspan" font-weight="normal"> output</tspan><tspan font-style="normal" class="text-inner-tspan" font-weight="normal"> +</tspan><tspan font-style="normal" class="text-inner-tspan" font-weight="normal"> assets</tspan><tspan font-style="normal" class="text-inner-tspan" font-weight="normal"> +</tspan></tspan><tspan class="text-outer-tspan row" x="0" y="2.1em" dy="1.1em"><tspan font-style="normal" class="text-inner-tspan" font-weight="normal">Pagefind</tspan></tspan></text></g></g></g><g class="node default" id="ge08b2f41-4482-47ca-a53b-6f7d4ec7e7ef-light-flowchart-preview-4" data-look="classic" transform="translate(124.4921875, 559.6999893188477)"><rect class="basic label-container" style="" x="-116.4921875" y="-42.099998474121094" width="232.984375" height="84.19999694824219"></rect><g class="label" style="" transform="translate(0, -27.099998474121094)"><rect></rect><g><rect class="background" style="stroke: none"></rect><text y="-10.1" style=""><tspan class="text-outer-tspan row" x="0" y="-0.1em" dy="1.1em"><tspan font-style="normal" class="text-inner-tspan" font-weight="normal">pagesmith-docs</tspan><tspan font-style="normal" class="text-inner-tspan" font-weight="normal"> preview</tspan></tspan><tspan class="text-outer-tspan row" x="0" y="1em" dy="1.1em"><tspan font-style="normal" class="text-inner-tspan" font-weight="normal">Serve</tspan><tspan font-style="normal" class="text-inner-tspan" font-weight="normal"> built</tspan><tspan font-style="normal" class="text-inner-tspan" font-weight="normal"> output</tspan><tspan font-style="normal" class="text-inner-tspan" font-weight="normal"> from</tspan></tspan><tspan class="text-outer-tspan row" x="0" y="2.1em" dy="1.1em"><tspan font-style="normal" class="text-inner-tspan" font-weight="normal">disk</tspan></tspan></text></g></g></g><g class="node default" id="ge08b2f41-4482-47ca-a53b-6f7d4ec7e7ef-light-flowchart-mcp-5" data-look="classic" transform="translate(516.66015625, 291.2999954223633)"><rect class="basic label-container" style="" x="-128.828125" y="-42.099998474121094" width="257.65625" height="84.19999694824219"></rect><g class="label" style="" transform="translate(0, -27.099998474121094)"><rect></rect><g><rect class="background" style="stroke: none"></rect><text y="-10.1" style=""><tspan class="text-outer-tspan row" x="0" y="-0.1em" dy="1.1em"><tspan font-style="normal" class="text-inner-tspan" font-weight="normal">pagesmith-docs</tspan><tspan font-style="normal" class="text-inner-tspan" font-weight="normal"> mcp</tspan><tspan font-style="normal" class="text-inner-tspan" font-weight="normal"> --stdio</tspan></tspan><tspan class="text-outer-tspan row" x="0" y="1em" dy="1.1em"><tspan font-style="normal" class="text-inner-tspan" font-weight="normal">Expose</tspan><tspan font-style="normal" class="text-inner-tspan" font-weight="normal"> docs-aware</tspan><tspan font-style="normal" class="text-inner-tspan" font-weight="normal"> MCP</tspan></tspan><tspan class="text-outer-tspan row" x="0" y="2.1em" dy="1.1em"><tspan font-style="normal" class="text-inner-tspan" font-weight="normal">tools</tspan></tspan></text></g></g></g></g></g></g><defs><filter id="ge08b2f41-4482-47ca-a53b-6f7d4ec7e7ef-light-drop-shadow" height="130%" width="130%"><feDropShadow dx="4" dy="4" stdDeviation="0" flood-opacity="0.06" flood-color="#000000"></feDropShadow></filter></defs><defs><filter id="ge08b2f41-4482-47ca-a53b-6f7d4ec7e7ef-light-drop-shadow-small" height="150%" width="150%"><feDropShadow dx="2" dy="2" stdDeviation="0" flood-opacity="0.06" flood-color="#000000"></feDropShadow></filter></defs></svg>