<svg id="g6f6791a5-995b-4943-adfc-6f8ee9c1cb60-dark" width="100%" xmlns="http://www.w3.org/2000/svg" xmlns:xlink="http://www.w3.org/1999/xlink" class="flowchart" style="max-width: 653.48828125px;" viewBox="0 0 653.48828125 609.800048828125" role="graphics-document document" aria-roledescription="flowchart-v2"><style>#g6f6791a5-995b-4943-adfc-6f8ee9c1cb60-dark{font-family:"trebuchet ms",verdana,arial,sans-serif;font-size:16px;fill:#e5e5e5;}@keyframes edge-animation-frame{from{stroke-dashoffset:0;}}@keyframes dash{to{stroke-dashoffset:0;}}#g6f6791a5-995b-4943-adfc-6f8ee9c1cb60-dark .edge-animation-slow{stroke-dasharray:9,5!important;stroke-dashoffset:900;animation:dash 50s linear infinite;stroke-linecap:round;}#g6f6791a5-995b-4943-adfc-6f8ee9c1cb60-dark .edge-animation-fast{stroke-dasharray:9,5!important;stroke-dashoffset:900;animation:dash 20s linear infinite;stroke-linecap:round;}#g6f6791a5-995b-4943-adfc-6f8ee9c1cb60-dark .error-icon{fill:#252525;}#g6f6791a5-995b-4943-adfc-6f8ee9c1cb60-dark .error-text{fill:#cccccc;stroke:#cccccc;}#g6f6791a5-995b-4943-adfc-6f8ee9c1cb60-dark .edge-thickness-normal{stroke-width:1px;}#g6f6791a5-995b-4943-adfc-6f8ee9c1cb60-dark .edge-thickness-thick{stroke-width:3.5px;}#g6f6791a5-995b-4943-adfc-6f8ee9c1cb60-dark .edge-pattern-solid{stroke-dasharray:0;}#g6f6791a5-995b-4943-adfc-6f8ee9c1cb60-dark .edge-thickness-invisible{stroke-width:0;fill:none;}#g6f6791a5-995b-4943-adfc-6f8ee9c1cb60-dark .edge-pattern-dashed{stroke-dasharray:3;}#g6f6791a5-995b-4943-adfc-6f8ee9c1cb60-dark .edge-pattern-dotted{stroke-dasharray:2;}#g6f6791a5-995b-4943-adfc-6f8ee9c1cb60-dark .marker{fill:#cccccc;stroke:#cccccc;}#g6f6791a5-995b-4943-adfc-6f8ee9c1cb60-dark .marker.cross{stroke:#cccccc;}#g6f6791a5-995b-4943-adfc-6f8ee9c1cb60-dark svg{font-family:"trebuchet ms",verdana,arial,sans-serif;font-size:16px;}#g6f6791a5-995b-4943-adfc-6f8ee9c1cb60-dark p{margin:0;}#g6f6791a5-995b-4943-adfc-6f8ee9c1cb60-dark .label{font-family:"trebuchet ms",verdana,arial,sans-serif;color:#e5e5e5;}#g6f6791a5-995b-4943-adfc-6f8ee9c1cb60-dark .cluster-label text{fill:#e5e5e5;}#g6f6791a5-995b-4943-adfc-6f8ee9c1cb60-dark .cluster-label span{color:#e5e5e5;}#g6f6791a5-995b-4943-adfc-6f8ee9c1cb60-dark .cluster-label span p{background-color:transparent;}#g6f6791a5-995b-4943-adfc-6f8ee9c1cb60-dark .label text,#g6f6791a5-995b-4943-adfc-6f8ee9c1cb60-dark span{fill:#e5e5e5;color:#e5e5e5;}#g6f6791a5-995b-4943-adfc-6f8ee9c1cb60-dark .node rect,#g6f6791a5-995b-4943-adfc-6f8ee9c1cb60-dark .node circle,#g6f6791a5-995b-4943-adfc-6f8ee9c1cb60-dark .node ellipse,#g6f6791a5-995b-4943-adfc-6f8ee9c1cb60-dark .node polygon,#g6f6791a5-995b-4943-adfc-6f8ee9c1cb60-dark .node path{fill:#2d2d2d;stroke:#555555;stroke-width:1px;}#g6f6791a5-995b-4943-adfc-6f8ee9c1cb60-dark .rough-node .label text,#g6f6791a5-995b-4943-adfc-6f8ee9c1cb60-dark .node .label text,#g6f6791a5-995b-4943-adfc-6f8ee9c1cb60-dark .image-shape .label,#g6f6791a5-995b-4943-adfc-6f8ee9c1cb60-dark .icon-shape .label{text-anchor:middle;}#g6f6791a5-995b-4943-adfc-6f8ee9c1cb60-dark .node .katex path{fill:#000;stroke:#000;stroke-width:1px;}#g6f6791a5-995b-4943-adfc-6f8ee9c1cb60-dark .rough-node .label,#g6f6791a5-995b-4943-adfc-6f8ee9c1cb60-dark .node .label,#g6f6791a5-995b-4943-adfc-6f8ee9c1cb60-dark .image-shape .label,#g6f6791a5-995b-4943-adfc-6f8ee9c1cb60-dark .icon-shape .label{text-align:center;}#g6f6791a5-995b-4943-adfc-6f8ee9c1cb60-dark .node.clickable{cursor:pointer;}#g6f6791a5-995b-4943-adfc-6f8ee9c1cb60-dark .root .anchor path{fill:#cccccc!important;stroke-width:0;stroke:#cccccc;}#g6f6791a5-995b-4943-adfc-6f8ee9c1cb60-dark .arrowheadPath{fill:#cccccc;}#g6f6791a5-995b-4943-adfc-6f8ee9c1cb60-dark .edgePath .path{stroke:#cccccc;stroke-width:1px;}#g6f6791a5-995b-4943-adfc-6f8ee9c1cb60-dark .flowchart-link{stroke:#cccccc;fill:none;}#g6f6791a5-995b-4943-adfc-6f8ee9c1cb60-dark .edgeLabel{background-color:#1e1e1e;text-align:center;}#g6f6791a5-995b-4943-adfc-6f8ee9c1cb60-dark .edgeLabel p{background-color:#1e1e1e;}#g6f6791a5-995b-4943-adfc-6f8ee9c1cb60-dark .edgeLabel rect{opacity:0.5;background-color:#1e1e1e;fill:#1e1e1e;}#g6f6791a5-995b-4943-adfc-6f8ee9c1cb60-dark .labelBkg{background-color:rgba(30, 30, 30, 0.5);}#g6f6791a5-995b-4943-adfc-6f8ee9c1cb60-dark .cluster rect{fill:#1e1e1e;stroke:#555555;stroke-width:1px;}#g6f6791a5-995b-4943-adfc-6f8ee9c1cb60-dark .cluster text{fill:#e5e5e5;}#g6f6791a5-995b-4943-adfc-6f8ee9c1cb60-dark .cluster span{color:#e5e5e5;}#g6f6791a5-995b-4943-adfc-6f8ee9c1cb60-dark div.mermaidTooltip{position:absolute;text-align:center;max-width:200px;padding:2px;font-family:"trebuchet ms",verdana,arial,sans-serif;font-size:12px;background:#252525;border:1px solid #555555;border-radius:2px;pointer-events:none;z-index:100;}#g6f6791a5-995b-4943-adfc-6f8ee9c1cb60-dark .flowchartTitleText{text-anchor:middle;font-size:18px;fill:#e5e5e5;}#g6f6791a5-995b-4943-adfc-6f8ee9c1cb60-dark rect.text{fill:none;stroke-width:0;}#g6f6791a5-995b-4943-adfc-6f8ee9c1cb60-dark .icon-shape,#g6f6791a5-995b-4943-adfc-6f8ee9c1cb60-dark .image-shape{background-color:#1e1e1e;text-align:center;}#g6f6791a5-995b-4943-adfc-6f8ee9c1cb60-dark .icon-shape p,#g6f6791a5-995b-4943-adfc-6f8ee9c1cb60-dark .image-shape p{background-color:#1e1e1e;padding:2px;}#g6f6791a5-995b-4943-adfc-6f8ee9c1cb60-dark .icon-shape .label rect,#g6f6791a5-995b-4943-adfc-6f8ee9c1cb60-dark .image-shape .label rect{opacity:0.5;background-color:#1e1e1e;fill:#1e1e1e;}#g6f6791a5-995b-4943-adfc-6f8ee9c1cb60-dark .label-icon{display:inline-block;height:1em;overflow:visible;vertical-align:-0.125em;}#g6f6791a5-995b-4943-adfc-6f8ee9c1cb60-dark .node .label-icon path{fill:currentColor;stroke:revert;stroke-width:revert;}#g6f6791a5-995b-4943-adfc-6f8ee9c1cb60-dark .node .neo-node{stroke:#555555;}#g6f6791a5-995b-4943-adfc-6f8ee9c1cb60-dark [data-look="neo"].node rect,#g6f6791a5-995b-4943-adfc-6f8ee9c1cb60-dark [data-look="neo"].cluster rect,#g6f6791a5-995b-4943-adfc-6f8ee9c1cb60-dark [data-look="neo"].node polygon{stroke:url(#g6f6791a5-995b-4943-adfc-6f8ee9c1cb60-dark-gradient);filter:drop-shadow( 1px 2px 2px rgba(185,185,185,1));}#g6f6791a5-995b-4943-adfc-6f8ee9c1cb60-dark [data-look="neo"].node path{stroke:url(#g6f6791a5-995b-4943-adfc-6f8ee9c1cb60-dark-gradient);stroke-width:1px;}#g6f6791a5-995b-4943-adfc-6f8ee9c1cb60-dark [data-look="neo"].node .outer-path{filter:drop-shadow( 1px 2px 2px rgba(185,185,185,1));}#g6f6791a5-995b-4943-adfc-6f8ee9c1cb60-dark [data-look="neo"].node .neo-line path{stroke:#555555;filter:none;}#g6f6791a5-995b-4943-adfc-6f8ee9c1cb60-dark [data-look="neo"].node circle{stroke:url(#g6f6791a5-995b-4943-adfc-6f8ee9c1cb60-dark-gradient);filter:drop-shadow( 1px 2px 2px rgba(185,185,185,1));}#g6f6791a5-995b-4943-adfc-6f8ee9c1cb60-dark [data-look="neo"].node circle .state-start{fill:#000000;}#g6f6791a5-995b-4943-adfc-6f8ee9c1cb60-dark [data-look="neo"].icon-shape .icon{fill:url(#g6f6791a5-995b-4943-adfc-6f8ee9c1cb60-dark-gradient);filter:drop-shadow( 1px 2px 2px rgba(185,185,185,1));}#g6f6791a5-995b-4943-adfc-6f8ee9c1cb60-dark [data-look="neo"].icon-shape .icon-neo path{stroke:url(#g6f6791a5-995b-4943-adfc-6f8ee9c1cb60-dark-gradient);filter:drop-shadow( 1px 2px 2px rgba(185,185,185,1));}#g6f6791a5-995b-4943-adfc-6f8ee9c1cb60-dark :root{--mermaid-font-family:"trebuchet ms",verdana,arial,sans-serif;}</style><g><marker id="g6f6791a5-995b-4943-adfc-6f8ee9c1cb60-dark_flowchart-v2-pointEnd" class="marker flowchart-v2" viewBox="0 0 10 10" refX="5" refY="5" markerUnits="userSpaceOnUse" markerWidth="8" markerHeight="8" orient="auto"><path d="M 0 0 L 10 5 L 0 10 z" class="arrowMarkerPath" style="stroke-width: 1; stroke-dasharray: 1, 0;"></path></marker><marker id="g6f6791a5-995b-4943-adfc-6f8ee9c1cb60-dark_flowchart-v2-pointStart" class="marker flowchart-v2" viewBox="0 0 10 10" refX="4.5" refY="5" markerUnits="userSpaceOnUse" markerWidth="8" markerHeight="8" orient="auto"><path d="M 0 5 L 10 10 L 10 0 z" class="arrowMarkerPath" style="stroke-width: 1; stroke-dasharray: 1, 0;"></path></marker><marker id="g6f6791a5-995b-4943-adfc-6f8ee9c1cb60-dark_flowchart-v2-pointEnd-margin" class="marker flowchart-v2" viewBox="0 0 11.5 14" refX="11.5" refY="7" markerUnits="userSpaceOnUse" markerWidth="10.5" markerHeight="14" orient="auto"><path d="M 0 0 L 11.5 7 L 0 14 z" class="arrowMarkerPath" style="stroke-width: 0; stroke-dasharray: 1, 0;"></path></marker><marker id="g6f6791a5-995b-4943-adfc-6f8ee9c1cb60-dark_flowchart-v2-pointStart-margin" class="marker flowchart-v2" viewBox="0 0 11.5 14" refX="1" refY="7" markerUnits="userSpaceOnUse" markerWidth="11.5" markerHeight="14" orient="auto"><polygon points="0,7 11.5,14 11.5,0" class="arrowMarkerPath" style="stroke-width: 0; stroke-dasharray: 1, 0;"></polygon></marker><marker id="g6f6791a5-995b-4943-adfc-6f8ee9c1cb60-dark_flowchart-v2-circleEnd" class="marker flowchart-v2" viewBox="0 0 10 10" refX="11" refY="5" markerUnits="userSpaceOnUse" markerWidth="11" markerHeight="11" orient="auto"><circle cx="5" cy="5" r="5" class="arrowMarkerPath" style="stroke-width: 1; stroke-dasharray: 1, 0;"></circle></marker><marker id="g6f6791a5-995b-4943-adfc-6f8ee9c1cb60-dark_flowchart-v2-circleStart" class="marker flowchart-v2" viewBox="0 0 10 10" refX="-1" refY="5" markerUnits="userSpaceOnUse" markerWidth="11" markerHeight="11" orient="auto"><circle cx="5" cy="5" r="5" class="arrowMarkerPath" style="stroke-width: 1; stroke-dasharray: 1, 0;"></circle></marker><marker id="g6f6791a5-995b-4943-adfc-6f8ee9c1cb60-dark_flowchart-v2-circleEnd-margin" class="marker flowchart-v2" viewBox="0 0 10 10" refY="5" refX="12.25" markerUnits="userSpaceOnUse" markerWidth="14" markerHeight="14" orient="auto"><circle cx="5" cy="5" r="5" class="arrowMarkerPath" style="stroke-width: 0; stroke-dasharray: 1, 0;"></circle></marker><marker id="g6f6791a5-995b-4943-adfc-6f8ee9c1cb60-dark_flowchart-v2-circleStart-margin" class="marker flowchart-v2" viewBox="0 0 10 10" refX="-2" refY="5" markerUnits="userSpaceOnUse" markerWidth="14" markerHeight="14" orient="auto"><circle cx="5" cy="5" r="5" class="arrowMarkerPath" style="stroke-width: 0; stroke-dasharray: 1, 0;"></circle></marker><marker id="g6f6791a5-995b-4943-adfc-6f8ee9c1cb60-dark_flowchart-v2-crossEnd" class="marker cross flowchart-v2" viewBox="0 0 11 11" refX="12" refY="5.2" markerUnits="userSpaceOnUse" markerWidth="11" markerHeight="11" orient="auto"><path d="M 1,1 l 9,9 M 10,1 l -9,9" class="arrowMarkerPath" style="stroke-width: 2; stroke-dasharray: 1, 0;"></path></marker><marker id="g6f6791a5-995b-4943-adfc-6f8ee9c1cb60-dark_flowchart-v2-crossStart" class="marker cross flowchart-v2" viewBox="0 0 11 11" refX="-1" refY="5.2" markerUnits="userSpaceOnUse" markerWidth="11" markerHeight="11" orient="auto"><path d="M 1,1 l 9,9 M 10,1 l -9,9" class="arrowMarkerPath" style="stroke-width: 2; stroke-dasharray: 1, 0;"></path></marker><marker id="g6f6791a5-995b-4943-adfc-6f8ee9c1cb60-dark_flowchart-v2-crossEnd-margin" class="marker cross flowchart-v2" viewBox="0 0 15 15" refX="17.7" refY="7.5" markerUnits="userSpaceOnUse" markerWidth="12" markerHeight="12" orient="auto"><path d="M 1,1 L 14,14 M 1,14 L 14,1" class="arrowMarkerPath" style="stroke-width: 2.5;"></path></marker><marker id="g6f6791a5-995b-4943-adfc-6f8ee9c1cb60-dark_flowchart-v2-crossStart-margin" class="marker cross flowchart-v2" viewBox="0 0 15 15" refX="-3.5" refY="7.5" markerUnits="userSpaceOnUse" markerWidth="12" markerHeight="12" orient="auto"><path d="M 1,1 L 14,14 M 1,14 L 14,1" class="arrowMarkerPath" style="stroke-width: 2.5; stroke-dasharray: 1, 0;"></path></marker><g class="root"><g class="clusters"></g><g class="edgePaths"><path d="M203.574,42.5L203.491,46.583C203.408,50.667,203.241,58.833,203.158,66.417C203.074,74,203.074,81,203.074,84.5L203.074,88" id="g6f6791a5-995b-4943-adfc-6f8ee9c1cb60-dark-L_start_init_0" class="edge-thickness-normal edge-pattern-solid edge-thickness-normal edge-pattern-solid flowchart-link" style=";" data-edge="true" data-et="edge" data-id="L_start_init_0" data-points="W3sieCI6MjAzLjU3NDIxODc1LCJ5Ijo0Mi41fSx7IngiOjIwMy4wNzQyMTg3NSwieSI6Njd9LHsieCI6MjAzLjA3NDIxODc1LCJ5Ijo5Mn1d" data-look="classic" marker-end="url(#g6f6791a5-995b-4943-adfc-6f8ee9c1cb60-dark_flowchart-v2-pointEnd)"></path><path d="M139.96,42.5L124.285,46.583C108.61,50.667,77.26,58.833,61.585,74.1C45.91,89.367,45.91,111.733,45.91,136.017C45.91,160.3,45.91,186.5,52.987,206.679C60.064,226.857,74.218,241.014,81.295,248.093L88.372,255.171" id="g6f6791a5-995b-4943-adfc-6f8ee9c1cb60-dark-L_start_dev_0" class="edge-thickness-normal edge-pattern-solid edge-thickness-normal edge-pattern-solid flowchart-link" style=";" data-edge="true" data-et="edge" data-id="L_start_dev_0" data-points="W3sieCI6MTM5Ljk2MDE5MzQ1MjM4MDk2LCJ5Ijo0Mi41fSx7IngiOjQ1LjkxMDE1NjI1LCJ5Ijo2N30seyJ4Ijo0NS45MTAxNTYyNSwieSI6MTM0LjA5OTk5ODQ3NDEyMTF9LHsieCI6NDUuOTEwMTU2MjUsInkiOjIxMi42OTk5OTY5NDgyNDIyfSx7IngiOjkxLjE5OTgwMDMzMTE0NzM0LCJ5IjoyNTcuOTk5OTk2MTg1MzAyNzN9XQ==" data-look="classic" marker-end="url(#g6f6791a5-995b-4943-adfc-6f8ee9c1cb60-dark_flowchart-v2-pointEnd)"></path><path d="M203.074,176.2L203.074,182.283C203.074,188.367,203.074,200.533,195.997,213.695C188.92,226.857,174.767,241.014,167.69,248.093L160.613,255.171" id="g6f6791a5-995b-4943-adfc-6f8ee9c1cb60-dark-L_init_dev_0" class="edge-thickness-normal edge-pattern-solid edge-thickness-normal edge-pattern-solid flowchart-link" style=";" data-edge="true" data-et="edge" data-id="L_init_dev_0" data-points="W3sieCI6MjAzLjA3NDIxODc1LCJ5IjoxNzYuMTk5OTk2OTQ4MjQyMn0seyJ4IjoyMDMuMDc0MjE4NzUsInkiOjIxMi42OTk5OTY5NDgyNDIyfSx7IngiOjE1Ny43ODQ1NzQ2Njg4NTI2NiwieSI6MjU3Ljk5OTk5NjE4NTMwMjczfV0=" data-look="classic" marker-end="url(#g6f6791a5-995b-4943-adfc-6f8ee9c1cb60-dark_flowchart-v2-pointEnd)"></path><path d="M124.492,324.6L124.492,330.233C124.492,335.867,124.492,347.133,124.492,356.267C124.492,365.4,124.492,372.4,124.492,375.9L124.492,379.4" id="g6f6791a5-995b-4943-adfc-6f8ee9c1cb60-dark-L_dev_build_0" class="edge-thickness-normal edge-pattern-solid edge-thickness-normal edge-pattern-solid flowchart-link" style=";" data-edge="true" data-et="edge" data-id="L_dev_build_0" data-points="W3sieCI6MTI0LjQ5MjE4NzUsInkiOjMyNC41OTk5OTQ2NTk0MjM4fSx7IngiOjEyNC40OTIxODc1LCJ5IjozNTguMzk5OTkzODk2NDg0NH0seyJ4IjoxMjQuNDkyMTg3NSwieSI6MzgzLjM5OTk5Mzg5NjQ4NDR9XQ==" data-look="classic" marker-end="url(#g6f6791a5-995b-4943-adfc-6f8ee9c1cb60-dark_flowchart-v2-pointEnd)"></path><path d="M124.492,467.6L124.492,471.767C124.492,475.933,124.492,484.267,124.492,491.933C124.492,499.6,124.492,506.6,124.492,510.1L124.492,513.6" id="g6f6791a5-995b-4943-adfc-6f8ee9c1cb60-dark-L_build_preview_0" class="edge-thickness-normal edge-pattern-solid edge-thickness-normal edge-pattern-solid flowchart-link" style=";" data-edge="true" data-et="edge" data-id="L_build_preview_0" data-points="W3sieCI6MTI0LjQ5MjE4NzUsInkiOjQ2Ny41OTk5OTA4NDQ3MjY1Nn0seyJ4IjoxMjQuNDkyMTg3NSwieSI6NDkyLjU5OTk5MDg0NDcyNjU2fSx7IngiOjEyNC40OTIxODc1LCJ5Ijo1MTcuNTk5OTkwODQ0NzI2Nn1d" data-look="classic" marker-end="url(#g6f6791a5-995b-4943-adfc-6f8ee9c1cb60-dark_flowchart-v2-pointEnd)"></path><path d="M291.499,40.116L318.872,44.596C346.245,49.077,400.992,58.039,428.365,73.703C455.738,89.367,455.738,111.733,455.738,136.017C455.738,160.3,455.738,186.5,460.045,205.156C464.352,223.813,472.965,234.926,477.272,240.482L481.579,246.038" id="g6f6791a5-995b-4943-adfc-6f8ee9c1cb60-dark-L_start_mcp_0" class="edge-thickness-normal edge-pattern-dotted edge-thickness-normal edge-pattern-solid flowchart-link" style=";" data-edge="true" data-et="edge" data-id="L_start_mcp_0" data-points="W3sieCI6MjkxLjQ5ODkwMzUyMTg2ODQ0LCJ5Ijo0MC4xMTU1OTk1NTg4NzQ2NH0seyJ4Ijo0NTUuNzM4MjgxMjUsInkiOjY3fSx7IngiOjQ1NS43MzgyODEyNSwieSI6MTM0LjA5OTk5ODQ3NDEyMTF9LHsieCI6NDU1LjczODI4MTI1LCJ5IjoyMTIuNjk5OTk2OTQ4MjQyMn0seyJ4Ijo0ODQuMDI4OTc0Mzg4MjcxOSwieSI6MjQ5LjE5OTk5Njk0ODI0MjJ9XQ==" data-look="classic" marker-end="url(#g6f6791a5-995b-4943-adfc-6f8ee9c1cb60-dark_flowchart-v2-pointEnd)"></path><path d="M325.238,159.739L367.296,168.566C409.353,177.393,493.467,195.046,531.218,209.43C568.969,223.813,560.355,234.926,556.049,240.482L551.742,246.038" id="g6f6791a5-995b-4943-adfc-6f8ee9c1cb60-dark-L_init_mcp_0" class="edge-thickness-normal edge-pattern-dotted edge-thickness-normal edge-pattern-solid flowchart-link" style=";" data-edge="true" data-et="edge" data-id="L_init_mcp_0" data-points="W3sieCI6MzI1LjIzODI4MTI1LCJ5IjoxNTkuNzM5MjM2OTc3NTcwMDJ9LHsieCI6NTc3LjU4MjAzMTI1LCJ5IjoyMTIuNjk5OTk2OTQ4MjQyMn0seyJ4Ijo1NDkuMjkxMzM4MTExNzI4MSwieSI6MjQ5LjE5OTk5Njk0ODI0MjJ9XQ==" data-look="classic" marker-end="url(#g6f6791a5-995b-4943-adfc-6f8ee9c1cb60-dark_flowchart-v2-pointEnd)"></path></g><g class="edgeLabels"><g class="edgeLabel"><g class="label" data-id="L_start_init_0" transform="translate(0, 0)"><text y="-10.1" text-anchor="middle"><tspan class="text-outer-tspan row" x="0" y="-0.1em" dy="1.1em" text-anchor="middle"></tspan></text></g></g><g><rect class="background" style="stroke: none"></rect></g><g class="edgeLabel"><g class="label" data-id="L_start_dev_0" transform="translate(0, 0)"><text y="-10.1" text-anchor="middle"><tspan class="text-outer-tspan row" x="0" y="-0.1em" dy="1.1em" text-anchor="middle"></tspan></text></g></g><g><rect class="background" style="stroke: none"></rect></g><g class="edgeLabel"><g class="label" data-id="L_init_dev_0" transform="translate(0, 0)"><text y="-10.1" text-anchor="middle"><tspan class="text-outer-tspan row" x="0" y="-0.1em" dy="1.1em" text-anchor="middle"></tspan></text></g></g><g><rect class="background" style="stroke: none"></rect></g><g class="edgeLabel"><g class="label" data-id="L_dev_build_0" transform="translate(0, 0)"><text y="-10.1" text-anchor="middle"><tspan class="text-outer-tspan row" x="0" y="-0.1em" dy="1.1em" text-anchor="middle"></tspan></text></g></g><g><rect class="background" style="stroke: none"></rect></g><g class="edgeLabel"><g class="label" data-id="L_build_preview_0" transform="translate(0, 0)"><text y="-10.1" text-anchor="middle"><tspan class="text-outer-tspan row" x="0" y="-0.1em" dy="1.1em" text-anchor="middle"></tspan></text></g></g><g><rect class="background" style="stroke: none"></rect></g><g class="edgeLabel" transform="translate(455.73828125, 134.0999984741211)"><g class="label" data-id="L_start_mcp_0" transform="translate(0, -10.5)"><g><rect class="background" style="" x="-95.5" y="-1" width="191" height="23"></rect><text y="-10.1" text-anchor="middle" style=""><tspan class="text-outer-tspan row" x="0" y="-0.1em" dy="1.1em" text-anchor="middle"><tspan font-style="normal" class="text-inner-tspan" font-weight="normal">assistant</tspan><tspan font-style="normal" class="text-inner-tspan" font-weight="normal"> or</tspan><tspan font-style="normal" class="text-inner-tspan" font-weight="normal"> tooling</tspan><tspan font-style="normal" class="text-inner-tspan" font-weight="normal"> access</tspan></tspan></text></g></g></g><g class="edgeLabel" transform="translate(474.00794, 190.96234)"><g class="label" data-id="L_init_mcp_0" transform="translate(0, -10.5)"><g><rect class="background" style="" x="-101.84375" y="-1" width="203.6875" height="23"></rect><text y="-10.1" text-anchor="middle" style=""><tspan class="text-outer-tspan row" x="0" y="-0.1em" dy="1.1em" text-anchor="middle"><tspan font-style="normal" class="text-inner-tspan" font-weight="normal">project</tspan><tspan font-style="normal" class="text-inner-tspan" font-weight="normal"> metadata</tspan><tspan font-style="normal" class="text-inner-tspan" font-weight="normal"> +</tspan><tspan font-style="normal" class="text-inner-tspan" font-weight="normal"> content</tspan></tspan></text></g></g></g></g><g class="nodes"><g class="node default" id="g6f6791a5-995b-4943-adfc-6f8ee9c1cb60-dark-flowchart-start-0" data-look="classic" transform="translate(203.07421875, 25)"><g class="basic label-container outer-path"><path d="M-79.2578125 -17 C-32.27446775893624 -17, 14.70887698212752 -17, 79.2578125 -17 C79.2578125 -17, 79.2578125 -17, 79.2578125 -17 C79.56502856375613 -16.99014817879513, 79.87224462751226 -16.980296357590266, 80.34700623967211 -16.965071676755716 C80.70289312072732 -16.930739697356916, 81.05878000178254 -16.896407717958116, 81.4317242486366 -16.860430234995185 C81.73499857400458 -16.81139919399721, 82.03827289937257 -16.762368152999233, 82.50750918792333 -16.686505668848113 C82.76496649137533 -16.62774271940111, 83.02242379482735 -16.568979769954105, 83.56994042646163 -16.4440126716635 C83.88064888648401 -16.351796031670847, 84.1913573465064 -16.25957939167819, 84.61465220640156 -16.133947699181366 C84.95214237716017 -16.009748196617256, 85.28963254791879 -15.885548694053147, 85.63735158294936 -15.757584874882369 C85.9098502497752 -15.636957798464321, 86.18234891660103 -15.516330722046273, 86.63383606499849 -15.316470754341125 C86.91185553734293 -15.171428173698999, 87.18987500968738 -15.026385593056872, 87.60001088406693 -14.812417970097622 C87.84130413612986 -14.666144582700529, 88.0825973881928 -14.519871195303434, 88.53190582057933 -14.247497783161291 C88.72809499364745 -14.110644708921392, 88.92428416671557 -13.973791634681493, 89.42569151835067 -13.624031571755262 C89.59801273241004 -13.486609989203012, 89.77033394646939 -13.349188406650764, 90.2776952202324 -12.944581292275288 C90.47527615756115 -12.765143512698444, 90.67285709488992 -12.585705733121598, 91.08441586025927 -12.21193895166137 C91.37998373560161 -11.906740853796533, 91.67555161094397 -11.601542755931696, 91.84253845028036 -11.42911513444239 C92.05666623535144 -11.177588453881764, 92.27079402042253 -10.926061773321138, 92.54894770195651 -10.59932663159847 C92.70323186461236 -10.392599909215996, 92.8575160272682 -10.18587318683352, 93.20074082814824 -9.725983222076888 C93.36935180642355 -9.466951481058773, 93.53796278469886 -9.207919740040658, 93.79523947109088 -8.812673661278927 C93.98361985204407 -8.478185219314495, 94.17200023299725 -8.143696777350062, 94.330000708341 -7.863150934094199 C94.51585404469577 -7.477222504529165, 94.70170738105054 -7.091294074964131, 94.80282709126881 -6.881316833080699 C94.92528258361051 -6.578849399480813, 95.04773807595221 -6.276381965880927, 95.21177567484592 -5.871205925162238 C95.32398604356992 -5.5332461728599105, 95.43619641229391 -5.195286420557583, 95.55516600162323 -4.836968972727556 C95.66047663974233 -4.435373867660175, 95.76578727786142 -4.033778762592795, 95.831587007091 -3.7828558772573464 C95.87473987667309 -3.561275012315553, 95.91789274625518 -3.3396941473737596, 96.03990281804565 -2.713198215567453 C96.08901702280409 -2.3322781421576995, 96.13813122756254 -1.951358068747946, 96.17925742013637 -1.632391440430593 C96.20446036692898 -1.2398352006832027, 96.22966331372159 -0.8472789609358123, 96.2490781754117 -0.5448768187181379 C96.2490781754117 -0.23864333534617982, 96.2490781754117 0.06759014802577823, 96.2490781754117 0.5448768187181336 C96.22322244285134 0.9476007237174514, 96.19736671029096 1.3503246287167692, 96.17925742013637 1.6323914404305815 C96.12692985621526 2.0382336929564455, 96.07460229229414 2.44407594548231, 96.03990281804565 2.7131982155674415 C95.97448180328085 3.049121299648291, 95.90906078851606 3.3850443837291406, 95.831587007091 3.782855877257343 C95.72233795135084 4.1994698756348585, 95.61308889561067 4.616083874012375, 95.55516600162323 4.836968972727545 C95.42413571100035 5.23161133124199, 95.29310542037746 5.626253689756434, 95.21177567484592 5.871205925162227 C95.08867593160072 6.175264670949503, 94.96557618835553 6.47932341673678, 94.80282709126881 6.881316833080694 C94.67465956995244 7.147459433439775, 94.54649204863607 7.413602033798855, 94.330000708341 7.863150934094196 C94.17667108042501 8.135403214767473, 94.02334145250903 8.407655495440752, 93.79523947109088 8.812673661278923 C93.58839458996496 9.13044294431604, 93.38154970883905 9.44821222735316, 93.20074082814826 9.725983222076879 C93.05536327300152 9.920775901805778, 92.90998571785478 10.115568581534678, 92.54894770195651 10.599326631598467 C92.36591101451063 10.814331939754956, 92.18287432706475 11.029337247911444, 91.84253845028037 11.42911513444238 C91.54412418228844 11.73725236641109, 91.24570991429651 12.0453895983798, 91.08441586025927 12.211938951661365 C90.82166191344945 12.45056513406558, 90.55890796663962 12.689191316469792, 90.27769522023242 12.944581292275275 C90.00309327979839 13.163569032306878, 89.72849133936437 13.382556772338482, 89.42569151835067 13.62403157175526 C89.1488704780908 13.817129946050857, 88.87204943783092 14.010228320346453, 88.53190582057934 14.247497783161286 C88.19428472295145 14.452165676625109, 87.85666362532358 14.65683357008893, 87.60001088406695 14.81241797009762 C87.2664197886456 14.98645223090364, 86.93282869322427 15.160486491709658, 86.63383606499849 15.316470754341124 C86.35160453836151 15.441406279082537, 86.06937301172454 15.566341803823951, 85.63735158294936 15.757584874882367 C85.37755722033187 15.853191601838367, 85.11776285771438 15.948798328794366, 84.61465220640156 16.133947699181363 C84.26219190961618 16.23855606516541, 83.9097316128308 16.343164431149464, 83.56994042646164 16.444012671663497 C83.23954760726632 16.519422676630192, 82.909154788071 16.59483268159689, 82.50750918792333 16.68650566884811 C82.2535072300281 16.727570735586006, 81.99950527213288 16.768635802323907, 81.43172424863661 16.86043023499518 C81.12891860510841 16.88964153124928, 80.82611296158021 16.91885282750338, 80.34700623967211 16.965071676755716 C79.94033702501196 16.97811276693626, 79.53366781035182 16.991153857116807, 79.2578125 17 C79.2578125 17, 79.2578125 17, 79.2578125 17 C31.99274936657791 17, -15.272313766844178 17, -79.2578125 17 C-79.68628356590649 16.986259766884714, -80.11475463181299 16.97251953376943, -80.34700623967211 16.965071676755716 C-80.5938342330857 16.9412604770852, -80.84066222649928 16.917449277414686, -81.4317242486366 16.86043023499518 C-81.79998843621395 16.800892137079106, -82.16825262379129 16.741354039163028, -82.50750918792333 16.68650566884811 C-82.91721293208627 16.592993462809705, -83.32691667624923 16.4994812567713, -83.56994042646161 16.4440126716635 C-83.83083488665065 16.366580565342364, -84.09172934683968 16.289148459021227, -84.61465220640154 16.13394769918137 C-84.89447375543533 16.030970782494897, -85.1742953044691 15.927993865808421, -85.63735158294936 15.757584874882369 C-85.99426619734336 15.59958936258601, -86.35118081173736 15.44159385028965, -86.63383606499849 15.316470754341127 C-86.97327015480185 15.139388207108622, -87.31270424460521 14.962305659876117, -87.60001088406693 14.812417970097624 C-87.92676649208654 14.614336800287038, -88.25352210010617 14.416255630476453, -88.53190582057931 14.247497783161299 C-88.81337430583349 14.05115755242233, -89.09484279108767 13.85481732168336, -89.42569151835067 13.624031571755264 C-89.66813812685409 13.430686853249002, -89.9105847353575 13.23734213474274, -90.2776952202324 12.94458129227529 C-90.49885967558491 12.743725585614966, -90.72002413093742 12.542869878954642, -91.08441586025926 12.211938951661377 C-91.3372845415378 11.950831277336457, -91.59015322281633 11.689723603011535, -91.84253845028036 11.429115134442386 C-92.04863323200736 11.187024476700552, -92.25472801373436 10.944933818958718, -92.54894770195651 10.599326631598473 C-92.70769515242621 10.38661951015933, -92.8664426028959 10.173912388720186, -93.20074082814824 9.72598322207689 C-93.35818142797967 9.48411218201519, -93.51562202781109 9.24224114195349, -93.79523947109088 8.812673661278936 C-93.98262982857695 8.47994310623113, -94.170020186063 8.14721255118332, -94.330000708341 7.863150934094201 C-94.46502823975193 7.582763375993067, -94.60005577116286 7.3023758178919325, -94.80282709126881 6.881316833080701 C-94.88709363562673 6.673176839333831, -94.97136017998466 6.46503684558696, -95.21177567484592 5.87120592516224 C-95.30048286190268 5.604034011318156, -95.38919004895945 5.3368620974740715, -95.55516600162323 4.8369689727275516 C-95.63670072682604 4.526041728155818, -95.71823545202885 4.215114483584085, -95.831587007091 3.782855877257349 C-95.87527740275237 3.558514929504575, -95.91896779841375 3.3341739817518, -96.03990281804565 2.713198215567455 C-96.07264012722649 2.4592941102737593, -96.10537743640732 2.205390004980063, -96.17925742013637 1.6323914404306026 C-96.19727525579272 1.351749106347686, -96.21529309144908 1.0711067722647698, -96.2490781754117 0.54487681871814 C-96.2490781754117 0.13540706654160478, -96.2490781754117 -0.2740626856349304, -96.2490781754117 -0.5448768187181317 C-96.22617349392684 -0.9016357211708798, -96.20326881244198 -1.2583946236236279, -96.17925742013637 -1.6323914404305793 C-96.13949152708282 -1.9408078542900424, -96.09972563402928 -2.2492242681495056, -96.03990281804565 -2.713198215567447 C-95.97558146048402 -3.0434747923226366, -95.91126010292241 -3.3737513690778265, -95.831587007091 -3.782855877257341 C-95.75588018235914 -4.071558811505372, -95.68017335762725 -4.3602617457534025, -95.55516600162323 -4.836968972727544 C-95.41965268941485 -5.245113477985031, -95.28413937720647 -5.653257983242518, -95.21177567484594 -5.871205925162218 C-95.0740747381059 -6.211329901176589, -94.93637380136587 -6.55145387719096, -94.80282709126881 -6.881316833080692 C-94.66120081999856 -7.175406815690122, -94.51957454872831 -7.469496798299551, -94.330000708341 -7.863150934094194 C-94.19646630117745 -8.100254795838069, -94.06293189401389 -8.337358657581944, -93.79523947109088 -8.812673661278929 C-93.63202961231164 -9.063407832347425, -93.4688197535324 -9.31414200341592, -93.20074082814826 -9.725983222076884 C-93.06095665102771 -9.913281284817897, -92.92117247390718 -10.100579347558908, -92.54894770195651 -10.599326631598467 C-92.40588558196177 -10.767375538209524, -92.26282346196703 -10.935424444820582, -91.84253845028037 -11.42911513444238 C-91.60995500849323 -11.669276633543292, -91.3773715667061 -11.909438132644206, -91.08441586025927 -12.21193895166136 C-90.89420378039665 -12.384684529856742, -90.70399170053403 -12.557430108052122, -90.27769522023242 -12.944581292275274 C-90.0438484501157 -13.131067868519459, -89.81000167999898 -13.317554444763644, -89.42569151835067 -13.624031571755259 C-89.17774724019257 -13.796986766863546, -88.92980296203446 -13.969941961971832, -88.53190582057934 -14.247497783161284 C-88.32445990923381 -14.373252713706439, -88.11701399788826 -14.499007644251593, -87.60001088406695 -14.812417970097618 C-87.34768570120976 -14.944055856372223, -87.09536051835256 -15.075693742646827, -86.63383606499849 -15.316470754341124 C-86.42431226702928 -15.409220724399459, -86.21478846906005 -15.501970694457794, -85.63735158294936 -15.757584874882365 C-85.30509879728058 -15.879856971319564, -84.97284601161178 -16.002129067756762, -84.61465220640156 -16.133947699181363 C-84.19786693602158 -16.25764737967961, -83.78108166564161 -16.38134706017786, -83.56994042646164 -16.444012671663494 C-83.35677424714787 -16.492666461052544, -83.1436080678341 -16.541320250441593, -82.50750918792333 -16.68650566884811 C-82.19081815307561 -16.737705819386633, -81.8741271182279 -16.788905969925157, -81.43172424863661 -16.86043023499518 C-81.00102278733237 -16.90197948697291, -80.57032132602814 -16.943528738950636, -80.34700623967213 -16.965071676755716 C-80.12549183156774 -16.972175212671985, -79.90397742346337 -16.979278748588253, -79.2578125 -17 C-79.2578125 -17, -79.2578125 -17, -79.2578125 -17" stroke="none" stroke-width="0" fill="#2d2d2d" style=""></path><path d="M-79.2578125 -17 C-20.10587700793306 -17, 39.04605848413388 -17, 79.2578125 -17 M-79.2578125 -17 C-41.2137961739577 -17, -3.169779847915393 -17, 79.2578125 -17 M79.2578125 -17 C79.2578125 -17, 79.2578125 -17, 79.2578125 -17 M79.2578125 -17 C79.2578125 -17, 79.2578125 -17, 79.2578125 -17 M79.2578125 -17 C79.67855935667848 -16.986507467240397, 80.09930621335695 -16.97301493448079, 80.34700623967211 -16.965071676755716 M79.2578125 -17 C79.49711870504073 -16.992325915785614, 79.73642491008147 -16.984651831571227, 80.34700623967211 -16.965071676755716 M80.34700623967211 -16.965071676755716 C80.71466382889292 -16.92960419129653, 81.08232141811374 -16.89413670583734, 81.4317242486366 -16.860430234995185 M80.34700623967211 -16.965071676755716 C80.67510808184966 -16.933420086641046, 81.0032099240272 -16.901768496526376, 81.4317242486366 -16.860430234995185 M81.4317242486366 -16.860430234995185 C81.72997559040128 -16.81221127103237, 82.02822693216598 -16.763992307069557, 82.50750918792333 -16.686505668848113 M81.4317242486366 -16.860430234995185 C81.73512456926566 -16.811378824060505, 82.03852488989475 -16.762327413125824, 82.50750918792333 -16.686505668848113 M82.50750918792333 -16.686505668848113 C82.75541406349785 -16.629922998728727, 83.00331893907236 -16.573340328609344, 83.56994042646163 -16.4440126716635 M82.50750918792333 -16.686505668848113 C82.75155955445281 -16.630802765265233, 82.9956099209823 -16.575099861682354, 83.56994042646163 -16.4440126716635 M83.56994042646163 -16.4440126716635 C83.89100141711346 -16.34872345492157, 84.21206240776529 -16.253434238179636, 84.61465220640156 -16.133947699181366 M83.56994042646163 -16.4440126716635 C83.96421736067143 -16.326993347191895, 84.35849429488121 -16.20997402272029, 84.61465220640156 -16.133947699181366 M84.61465220640156 -16.133947699181366 C84.9188733489285 -16.021991506542037, 85.22309449145546 -15.910035313902705, 85.63735158294936 -15.757584874882369 M84.61465220640156 -16.133947699181366 C84.89177662751506 -16.031963350501535, 85.16890104862854 -15.9299790018217, 85.63735158294936 -15.757584874882369 M85.63735158294936 -15.757584874882369 C85.83977559095058 -15.667977771235083, 86.04219959895178 -15.578370667587796, 86.63383606499849 -15.316470754341125 M85.63735158294936 -15.757584874882369 C85.84319790267305 -15.666462815354814, 86.04904422239674 -15.575340755827257, 86.63383606499849 -15.316470754341125 M86.63383606499849 -15.316470754341125 C86.87388197709139 -15.191238955759003, 87.1139278891843 -15.066007157176879, 87.60001088406693 -14.812417970097622 M86.63383606499849 -15.316470754341125 C86.89899648388004 -15.178136733653973, 87.16415690276159 -15.03980271296682, 87.60001088406693 -14.812417970097622 M87.60001088406693 -14.812417970097622 C87.88585408825992 -14.639138139914715, 88.17169729245289 -14.465858309731809, 88.53190582057933 -14.247497783161291 M87.60001088406693 -14.812417970097622 C87.8397883049862 -14.667063488447829, 88.07956572590548 -14.521709006798035, 88.53190582057933 -14.247497783161291 M88.53190582057933 -14.247497783161291 C88.75434151778326 -14.092336269877965, 88.9767772149872 -13.93717475659464, 89.42569151835067 -13.624031571755262 M88.53190582057933 -14.247497783161291 C88.81671665150509 -14.048826076769636, 89.10152748243085 -13.85015437037798, 89.42569151835067 -13.624031571755262 M89.42569151835067 -13.624031571755262 C89.61355399464799 -13.474216246138608, 89.80141647094528 -13.324400920521954, 90.2776952202324 -12.944581292275288 M89.42569151835067 -13.624031571755262 C89.63244426817413 -13.459151755692794, 89.83919701799759 -13.294271939630327, 90.2776952202324 -12.944581292275288 M90.2776952202324 -12.944581292275288 C90.57423390029895 -12.67527270902238, 90.8707725803655 -12.405964125769472, 91.08441586025927 -12.21193895166137 M90.2776952202324 -12.944581292275288 C90.58611094166719 -12.664486294301033, 90.89452666310198 -12.384391296326779, 91.08441586025927 -12.21193895166137 M91.08441586025927 -12.21193895166137 C91.3291873247005 -11.95919231851484, 91.57395878914171 -11.70644568536831, 91.84253845028036 -11.42911513444239 M91.08441586025927 -12.21193895166137 C91.30075885662146 -11.988547045827072, 91.51710185298366 -11.765155139992777, 91.84253845028036 -11.42911513444239 M91.84253845028036 -11.42911513444239 C92.12509223432082 -11.09721138194269, 92.40764601836128 -10.765307629442992, 92.54894770195651 -10.59932663159847 M91.84253845028036 -11.42911513444239 C92.04484527835058 -11.191474022606478, 92.24715210642081 -10.953832910770565, 92.54894770195651 -10.59932663159847 M92.54894770195651 -10.59932663159847 C92.72456773646726 -10.364011784668337, 92.90018777097802 -10.128696937738205, 93.20074082814824 -9.725983222076888 M92.54894770195651 -10.59932663159847 C92.7659043883022 -10.30862443705597, 92.9828610746479 -10.01792224251347, 93.20074082814824 -9.725983222076888 M93.20074082814824 -9.725983222076888 C93.41103887699214 -9.4029089461196, 93.62133692583602 -9.079834670162313, 93.79523947109088 -8.812673661278927 M93.20074082814824 -9.725983222076888 C93.36056291797455 -9.480453573863443, 93.52038500780085 -9.234923925649998, 93.79523947109088 -8.812673661278927 M93.79523947109088 -8.812673661278927 C93.91756848948462 -8.595466101964515, 94.03989750787836 -8.378258542650102, 94.330000708341 -7.863150934094199 M93.79523947109088 -8.812673661278927 C93.90973240685656 -8.609379860160043, 94.02422534262224 -8.406086059041161, 94.330000708341 -7.863150934094199 M94.330000708341 -7.863150934094199 C94.49626164146375 -7.51790654905074, 94.66252257458649 -7.17266216400728, 94.80282709126881 -6.881316833080699 M94.330000708341 -7.863150934094199 C94.47440975224083 -7.56328246457765, 94.61881879614066 -7.263413995061102, 94.80282709126881 -6.881316833080699 M94.80282709126881 -6.881316833080699 C94.91751795279481 -6.598028187714506, 95.03220881432082 -6.314739542348315, 95.21177567484592 -5.871205925162238 M94.80282709126881 -6.881316833080699 C94.89816051986149 -6.645841421310318, 94.99349394845417 -6.410366009539938, 95.21177567484592 -5.871205925162238 M95.21177567484592 -5.871205925162238 C95.30962494753945 -5.576499505973782, 95.40747422023296 -5.281793086785326, 95.55516600162323 -4.836968972727556 M95.21177567484592 -5.871205925162238 C95.3444748282913 -5.471537217723627, 95.47717398173668 -5.071868510285017, 95.55516600162323 -4.836968972727556 M95.55516600162323 -4.836968972727556 C95.64549884970812 -4.492490672475895, 95.73583169779299 -4.148012372224232, 95.831587007091 -3.7828558772573464 M95.55516600162323 -4.836968972727556 C95.6565183180067 -4.450468663985583, 95.75787063439019 -4.063968355243609, 95.831587007091 -3.7828558772573464 M95.831587007091 -3.7828558772573464 C95.8865057676157 -3.5008596490471215, 95.94142452814042 -3.218863420836897, 96.03990281804565 -2.713198215567453 M95.831587007091 -3.7828558772573464 C95.89431606163458 -3.4607554399663853, 95.95704511617818 -3.1386550026754243, 96.03990281804565 -2.713198215567453 M96.03990281804565 -2.713198215567453 C96.07017241891589 -2.478433168626613, 96.10044201978614 -2.243668121685773, 96.17925742013637 -1.632391440430593 M96.03990281804565 -2.713198215567453 C96.0805051924243 -2.398294217732361, 96.12110756680295 -2.083390219897269, 96.17925742013637 -1.632391440430593 M96.17925742013637 -1.632391440430593 C96.20201044722424 -1.2779946776239988, 96.22476347431213 -0.9235979148174046, 96.2490781754117 -0.5448768187181379 M96.17925742013637 -1.632391440430593 C96.19770191639344 -1.3451035230973591, 96.2161464126505 -1.0578156057641253, 96.2490781754117 -0.5448768187181379 M96.2490781754117 -0.5448768187181379 C96.2490781754117 -0.29147767414981834, 96.2490781754117 -0.03807852958149882, 96.2490781754117 0.5448768187181336 M96.2490781754117 -0.5448768187181379 C96.2490781754117 -0.3260252074001342, 96.2490781754117 -0.10717359608213056, 96.2490781754117 0.5448768187181336 M96.2490781754117 0.5448768187181336 C96.22320409719522 0.9478864721196205, 96.19733001897876 1.3508961255211074, 96.17925742013637 1.6323914404305815 M96.2490781754117 0.5448768187181336 C96.22330587482502 0.9463012033822529, 96.19753357423834 1.347725588046372, 96.17925742013637 1.6323914404305815 M96.17925742013637 1.6323914404305815 C96.13601166334477 1.9677969902656, 96.09276590655317 2.3032025401006186, 96.03990281804565 2.7131982155674415 M96.17925742013637 1.6323914404305815 C96.1462373161838 1.888488846129626, 96.11321721223123 2.144586251828671, 96.03990281804565 2.7131982155674415 M96.03990281804565 2.7131982155674415 C95.98263194158682 3.0072720619795055, 95.92536106512799 3.3013459083915695, 95.831587007091 3.782855877257343 M96.03990281804565 2.7131982155674415 C95.98150181373538 3.0130750296440882, 95.9231008094251 3.312951843720735, 95.831587007091 3.782855877257343 M95.831587007091 3.782855877257343 C95.75764505034448 4.064828604978632, 95.68370309359794 4.346801332699922, 95.55516600162323 4.836968972727545 M95.831587007091 3.782855877257343 C95.72688709595688 4.1821220156402745, 95.62218718482276 4.581388154023205, 95.55516600162323 4.836968972727545 M95.55516600162323 4.836968972727545 C95.43978362718775 5.1844823008424115, 95.32440125275227 5.531995628957277, 95.21177567484592 5.871205925162227 M95.55516600162323 4.836968972727545 C95.44055635689534 5.1821549620808804, 95.32594671216746 5.527340951434215, 95.21177567484592 5.871205925162227 M95.21177567484592 5.871205925162227 C95.05768850439543 6.251804215247729, 94.90360133394493 6.632402505333231, 94.80282709126881 6.881316833080694 M95.21177567484592 5.871205925162227 C95.09921392754075 6.149235617239361, 94.98665218023557 6.427265309316495, 94.80282709126881 6.881316833080694 M94.80282709126881 6.881316833080694 C94.67967786005045 7.13703884667706, 94.55652862883208 7.392760860273424, 94.330000708341 7.863150934094196 M94.80282709126881 6.881316833080694 C94.64981392669475 7.199051943275975, 94.49680076212069 7.516787053471256, 94.330000708341 7.863150934094196 M94.330000708341 7.863150934094196 C94.12745655216962 8.222788593196302, 93.92491239599823 8.582426252298408, 93.79523947109088 8.812673661278923 M94.330000708341 7.863150934094196 C94.1436129727384 8.194101232461456, 93.95722523713579 8.525051530828717, 93.79523947109088 8.812673661278923 M93.79523947109088 8.812673661278923 C93.62397755857356 9.075777949168288, 93.45271564605623 9.33888223705765, 93.20074082814826 9.725983222076879 M93.79523947109088 8.812673661278923 C93.64598396414151 9.041970200668604, 93.49672845719213 9.271266740058286, 93.20074082814826 9.725983222076879 M93.20074082814826 9.725983222076879 C92.98508032290823 10.014948652022305, 92.76941981766821 10.303914081967733, 92.54894770195651 10.599326631598467 M93.20074082814826 9.725983222076879 C93.0025224067856 9.99157784863316, 92.80430398542295 10.25717247518944, 92.54894770195651 10.599326631598467 M92.54894770195651 10.599326631598467 C92.37749847514092 10.800720649153426, 92.20604924832534 11.002114666708385, 91.84253845028037 11.42911513444238 M92.54894770195651 10.599326631598467 C92.29378074113963 10.89906026318536, 92.03861378032275 11.198793894772253, 91.84253845028037 11.42911513444238 M91.84253845028037 11.42911513444238 C91.65188286427403 11.62598268010865, 91.46122727826769 11.822850225774921, 91.08441586025927 12.211938951661365 M91.84253845028037 11.42911513444238 C91.58532096135288 11.694713309708591, 91.3281034724254 11.960311484974804, 91.08441586025927 12.211938951661365 M91.08441586025927 12.211938951661365 C90.88650765464652 12.391673947634693, 90.68859944903376 12.571408943608022, 90.27769522023242 12.944581292275275 M91.08441586025927 12.211938951661365 C90.86071471796285 12.415098410287095, 90.63701357566642 12.618257868912826, 90.27769522023242 12.944581292275275 M90.27769522023242 12.944581292275275 C90.0259285400253 13.145358519947715, 89.7741618598182 13.346135747620155, 89.42569151835067 13.62403157175526 M90.27769522023242 12.944581292275275 C89.95249990031492 13.203915906098576, 89.62730458039744 13.463250519921877, 89.42569151835067 13.62403157175526 M89.42569151835067 13.62403157175526 C89.12272007166068 13.835371337543656, 88.8197486249707 14.046711103332049, 88.53190582057934 14.247497783161286 M89.42569151835067 13.62403157175526 C89.18292340448414 13.79337609872628, 88.94015529061762 13.962720625697301, 88.53190582057934 14.247497783161286 M88.53190582057934 14.247497783161286 C88.21788225686035 14.437860712895032, 87.90385869314137 14.628223642628779, 87.60001088406695 14.81241797009762 M88.53190582057934 14.247497783161286 C88.27235416537313 14.40483952184212, 88.01280251016692 14.562181260522955, 87.60001088406695 14.81241797009762 M87.60001088406695 14.81241797009762 C87.22504242470146 15.008038775169837, 86.85007396533595 15.203659580242055, 86.63383606499849 15.316470754341124 M87.60001088406695 14.81241797009762 C87.38756570728769 14.923250482745727, 87.17512053050844 15.034082995393835, 86.63383606499849 15.316470754341124 M86.63383606499849 15.316470754341124 C86.30627377144084 15.461472864908892, 85.97871147788321 15.60647497547666, 85.63735158294936 15.757584874882367 M86.63383606499849 15.316470754341124 C86.2455649971709 15.488346838416396, 85.8572939293433 15.660222922491666, 85.63735158294936 15.757584874882367 M85.63735158294936 15.757584874882367 C85.37120465603596 15.855529404221723, 85.10505772912255 15.953473933561078, 84.61465220640156 16.133947699181363 M85.63735158294936 15.757584874882367 C85.37796310217968 15.853042233566441, 85.11857462141 15.948499592250515, 84.61465220640156 16.133947699181363 M84.61465220640156 16.133947699181363 C84.37679551213772 16.204542317503606, 84.13893881787388 16.27513693582585, 83.56994042646164 16.444012671663497 M84.61465220640156 16.133947699181363 C84.30234350476955 16.226639282483916, 83.99003480313753 16.31933086578647, 83.56994042646164 16.444012671663497 M83.56994042646164 16.444012671663497 C83.32473740720476 16.49997866070964, 83.07953438794789 16.555944649755784, 82.50750918792333 16.68650566884811 M83.56994042646164 16.444012671663497 C83.33496159937081 16.49764505556683, 83.09998277227999 16.551277439470162, 82.50750918792333 16.68650566884811 M82.50750918792333 16.68650566884811 C82.23987988434098 16.729773899155056, 81.97225058075864 16.773042129462006, 81.43172424863661 16.86043023499518 M82.50750918792333 16.68650566884811 C82.22123503181948 16.732788254317743, 81.93496087571563 16.779070839787376, 81.43172424863661 16.86043023499518 M81.43172424863661 16.86043023499518 C81.03245670275797 16.898947094956615, 80.63318915687933 16.93746395491805, 80.34700623967211 16.965071676755716 M81.43172424863661 16.86043023499518 C81.09321777959603 16.893085546949933, 80.75471131055544 16.92574085890469, 80.34700623967211 16.965071676755716 M80.34700623967211 16.965071676755716 C79.97949822968684 16.976856943324997, 79.61199021970158 16.98864220989428, 79.2578125 17 M80.34700623967211 16.965071676755716 C80.09882371956243 16.973030407117665, 79.85064119945275 16.98098913747961, 79.2578125 17 M79.2578125 17 C79.2578125 17, 79.2578125 17, 79.2578125 17 M79.2578125 17 C79.2578125 17, 79.2578125 17, 79.2578125 17 M79.2578125 17 C37.987687318728796 17, -3.282437862542409 17, -79.2578125 17 M79.2578125 17 C21.414218814593816 17, -36.42937487081237 17, -79.2578125 17 M-79.2578125 17 C-79.66140349793648 16.9870576222384, -80.06499449587297 16.974115244476796, -80.34700623967211 16.965071676755716 M-79.2578125 17 C-79.54234740086662 16.990875519542794, -79.82688230173324 16.981751039085587, -80.34700623967211 16.965071676755716 M-80.34700623967211 16.965071676755716 C-80.75770880322747 16.92545169439163, -81.16841136678285 16.885831712027542, -81.4317242486366 16.86043023499518 M-80.34700623967211 16.965071676755716 C-80.6323829138422 16.937541732214193, -80.9177595880123 16.910011787672666, -81.4317242486366 16.86043023499518 M-81.4317242486366 16.86043023499518 C-81.83526534790603 16.795188839573264, -82.23880644717545 16.72994744415135, -82.50750918792333 16.68650566884811 M-81.4317242486366 16.86043023499518 C-81.6787911475379 16.820486374813235, -81.9258580464392 16.780542514631293, -82.50750918792333 16.68650566884811 M-82.50750918792333 16.68650566884811 C-82.76812860858684 16.627020986782323, -83.02874802925035 16.567536304716533, -83.56994042646161 16.4440126716635 M-82.50750918792333 16.68650566884811 C-82.89595685886026 16.597845022814703, -83.2844045297972 16.509184376781295, -83.56994042646161 16.4440126716635 M-83.56994042646161 16.4440126716635 C-83.91296347438251 16.342205231605302, -84.2559865223034 16.240397791547103, -84.61465220640154 16.13394769918137 M-83.56994042646161 16.4440126716635 C-83.81736557255319 16.370578187064616, -84.06479071864477 16.297143702465732, -84.61465220640154 16.13394769918137 M-84.61465220640154 16.13394769918137 C-84.82494595129542 16.05655765712636, -85.03523969618928 15.979167615071345, -85.63735158294936 15.757584874882369 M-84.61465220640154 16.13394769918137 C-84.94427564783331 16.01264322572879, -85.27389908926506 15.891338752276216, -85.63735158294936 15.757584874882369 M-85.63735158294936 15.757584874882369 C-85.87348122091414 15.653057288692201, -86.10961085887892 15.548529702502034, -86.63383606499849 15.316470754341127 M-85.63735158294936 15.757584874882369 C-85.95023987277632 15.61907851047732, -86.26312816260328 15.480572146072273, -86.63383606499849 15.316470754341127 M-86.63383606499849 15.316470754341127 C-86.86946834792414 15.193541543268491, -87.1051006308498 15.070612332195857, -87.60001088406693 14.812417970097624 M-86.63383606499849 15.316470754341127 C-86.86685459114928 15.19490513850375, -87.09987311730006 15.07333952266637, -87.60001088406693 14.812417970097624 M-87.60001088406693 14.812417970097624 C-87.8131344200704 14.683221230119408, -88.02625795607386 14.554024490141192, -88.53190582057931 14.247497783161299 M-87.60001088406693 14.812417970097624 C-87.95246901982013 14.598755776930126, -88.30492715557331 14.385093583762629, -88.53190582057931 14.247497783161299 M-88.53190582057931 14.247497783161299 C-88.81111058626547 14.052736625198136, -89.09031535195165 13.857975467234974, -89.42569151835067 13.624031571755264 M-88.53190582057931 14.247497783161299 C-88.85506604579979 14.022075199428178, -89.17822627102026 13.796652615695056, -89.42569151835067 13.624031571755264 M-89.42569151835067 13.624031571755264 C-89.63022233927363 13.460923684862937, -89.83475316019658 13.29781579797061, -90.2776952202324 12.94458129227529 M-89.42569151835067 13.624031571755264 C-89.74519221325778 13.369238269837407, -90.0646929081649 13.114444967919548, -90.2776952202324 12.94458129227529 M-90.2776952202324 12.94458129227529 C-90.44080973907145 12.796445002039325, -90.60392425791052 12.648308711803363, -91.08441586025926 12.211938951661377 M-90.2776952202324 12.94458129227529 C-90.51271605329592 12.73114158999749, -90.74773688635943 12.51770188771969, -91.08441586025926 12.211938951661377 M-91.08441586025926 12.211938951661377 C-91.31252802209416 11.976394416210063, -91.54064018392904 11.740849880758747, -91.84253845028036 11.429115134442386 M-91.08441586025926 12.211938951661377 C-91.30516319947625 11.98399920022622, -91.52591053869325 11.756059448791063, -91.84253845028036 11.429115134442386 M-91.84253845028036 11.429115134442386 C-92.02976050817709 11.209193451999997, -92.21698256607382 10.989271769557611, -92.54894770195651 10.599326631598473 M-91.84253845028036 11.429115134442386 C-92.11907923178975 11.104274596865213, -92.39562001329915 10.779434059288043, -92.54894770195651 10.599326631598473 M-92.54894770195651 10.599326631598473 C-92.76764882030587 10.306287057092089, -92.98634993865522 10.013247482585705, -93.20074082814824 9.72598322207689 M-92.54894770195651 10.599326631598473 C-92.73034351345501 10.356272769688871, -92.9117393249535 10.113218907779272, -93.20074082814824 9.72598322207689 M-93.20074082814824 9.72598322207689 C-93.43187926682454 9.370892510908782, -93.66301770550085 9.015801799740675, -93.79523947109088 8.812673661278936 M-93.20074082814824 9.72598322207689 C-93.3557807101265 9.487800329320658, -93.51082059210476 9.249617436564426, -93.79523947109088 8.812673661278936 M-93.79523947109088 8.812673661278936 C-94.00125173742454 8.446878021399463, -94.20726400375821 8.081082381519991, -94.330000708341 7.863150934094201 M-93.79523947109088 8.812673661278936 C-93.99415839216074 8.459472974194448, -94.19307731323059 8.106272287109961, -94.330000708341 7.863150934094201 M-94.330000708341 7.863150934094201 C-94.50105678352423 7.507949333962532, -94.67211285870746 7.152747733830863, -94.80282709126881 6.881316833080701 M-94.330000708341 7.863150934094201 C-94.50827265994143 7.492965412187217, -94.68654461154185 7.122779890280231, -94.80282709126881 6.881316833080701 M-94.80282709126881 6.881316833080701 C-94.92401596749397 6.581977965777011, -95.04520484371915 6.282639098473321, -95.21177567484592 5.87120592516224 M-94.80282709126881 6.881316833080701 C-94.8926505515249 6.659451149629704, -94.98247401178098 6.437585466178707, -95.21177567484592 5.87120592516224 M-95.21177567484592 5.87120592516224 C-95.33744019860359 5.492724401526971, -95.46310472236127 5.1142428778917015, -95.55516600162323 4.8369689727275516 M-95.21177567484592 5.87120592516224 C-95.2935656975123 5.624867408361481, -95.3753557201787 5.3785288915607214, -95.55516600162323 4.8369689727275516 M-95.55516600162323 4.8369689727275516 C-95.62118098517477 4.585225229370662, -95.68719596872631 4.333481486013773, -95.831587007091 3.782855877257349 M-95.55516600162323 4.8369689727275516 C-95.61251903255008 4.61825700884265, -95.66987206347693 4.3995450449577485, -95.831587007091 3.782855877257349 M-95.831587007091 3.782855877257349 C-95.89324327223468 3.466263986800817, -95.95489953737835 3.1496720963442852, -96.03990281804565 2.713198215567455 M-95.831587007091 3.782855877257349 C-95.9099068503676 3.3807000349367473, -95.9882266936442 2.9785441926161456, -96.03990281804565 2.713198215567455 M-96.03990281804565 2.713198215567455 C-96.08528937444841 2.3611890466969103, -96.13067593085118 2.009179877826365, -96.17925742013637 1.6323914404306026 M-96.03990281804565 2.713198215567455 C-96.08061308946722 2.3974573895741136, -96.1213233608888 2.081716563580772, -96.17925742013637 1.6323914404306026 M-96.17925742013637 1.6323914404306026 C-96.20554981066043 1.2228662351826234, -96.2318422011845 0.8133410299346443, -96.2490781754117 0.54487681871814 M-96.17925742013637 1.6323914404306026 C-96.19946516513201 1.3176395007253205, -96.21967291012766 1.0028875610200383, -96.2490781754117 0.54487681871814 M-96.2490781754117 0.54487681871814 C-96.2490781754117 0.24384856634923613, -96.2490781754117 -0.05717968601966772, -96.2490781754117 -0.5448768187181317 M-96.2490781754117 0.54487681871814 C-96.2490781754117 0.14806914463873866, -96.2490781754117 -0.24873852944066266, -96.2490781754117 -0.5448768187181317 M-96.2490781754117 -0.5448768187181317 C-96.2324522469207 -0.803839075173368, -96.21582631842969 -1.0628013316286042, -96.17925742013637 -1.6323914404305793 M-96.2490781754117 -0.5448768187181317 C-96.23369988279876 -0.7844061392989226, -96.21832159018582 -1.0239354598797135, -96.17925742013637 -1.6323914404305793 M-96.17925742013637 -1.6323914404305793 C-96.1385955415299 -1.9477569413062765, -96.09793366292341 -2.263122442181974, -96.03990281804565 -2.713198215567447 M-96.17925742013637 -1.6323914404305793 C-96.13332897881904 -1.9886033616912524, -96.0874005375017 -2.3448152829519255, -96.03990281804565 -2.713198215567447 M-96.03990281804565 -2.713198215567447 C-95.96783545609107 -3.08324888776186, -95.8957680941365 -3.4532995599562724, -95.831587007091 -3.782855877257341 M-96.03990281804565 -2.713198215567447 C-95.98712063330828 -2.984223578675105, -95.93433844857093 -3.255248941782763, -95.831587007091 -3.782855877257341 M-95.831587007091 -3.782855877257341 C-95.73559226761135 -4.148925423276531, -95.63959752813169 -4.514994969295722, -95.55516600162323 -4.836968972727544 M-95.831587007091 -3.782855877257341 C-95.77532727936587 -3.9973986021934897, -95.71906755164075 -4.211941327129638, -95.55516600162323 -4.836968972727544 M-95.55516600162323 -4.836968972727544 C-95.4850554430827 -5.048130804451116, -95.41494488454218 -5.2592926361746875, -95.21177567484594 -5.871205925162218 M-95.55516600162323 -4.836968972727544 C-95.43381174449767 -5.202468660014617, -95.31245748737213 -5.567968347301691, -95.21177567484594 -5.871205925162218 M-95.21177567484594 -5.871205925162218 C-95.09943909232523 -6.1486794558684235, -94.98710250980453 -6.426152986574629, -94.80282709126881 -6.881316833080692 M-95.21177567484594 -5.871205925162218 C-95.08776868037481 -6.177505599018027, -94.96376168590369 -6.483805272873838, -94.80282709126881 -6.881316833080692 M-94.80282709126881 -6.881316833080692 C-94.65911130386999 -7.1797457406395875, -94.51539551647117 -7.478174648198482, -94.330000708341 -7.863150934094194 M-94.80282709126881 -6.881316833080692 C-94.69944709449521 -7.095987608358645, -94.59606709772162 -7.310658383636597, -94.330000708341 -7.863150934094194 M-94.330000708341 -7.863150934094194 C-94.18201850860467 -8.125908314548678, -94.03403630886834 -8.388665695003162, -93.79523947109088 -8.812673661278929 M-94.330000708341 -7.863150934094194 C-94.20619333398861 -8.082983464112976, -94.08238595963621 -8.302815994131757, -93.79523947109088 -8.812673661278929 M-93.79523947109088 -8.812673661278929 C-93.57963306458663 -9.143903000096158, -93.36402665808237 -9.475132338913387, -93.20074082814826 -9.725983222076884 M-93.79523947109088 -8.812673661278929 C-93.63536003769792 -9.05829140460965, -93.47548060430498 -9.303909147940372, -93.20074082814826 -9.725983222076884 M-93.20074082814826 -9.725983222076884 C-93.05274810572953 -9.924279987703597, -92.90475538331081 -10.12257675333031, -92.54894770195651 -10.599326631598467 M-93.20074082814826 -9.725983222076884 C-92.9662920828917 -10.040123182000583, -92.73184333763514 -10.35426314192428, -92.54894770195651 -10.599326631598467 M-92.54894770195651 -10.599326631598467 C-92.28921711153218 -10.904420962200149, -92.02948652110786 -11.20951529280183, -91.84253845028037 -11.42911513444238 M-92.54894770195651 -10.599326631598467 C-92.30271390693393 -10.888566858331842, -92.05648011191136 -11.177807085065215, -91.84253845028037 -11.42911513444238 M-91.84253845028037 -11.42911513444238 C-91.67185433017866 -11.60536050187427, -91.50117021007695 -11.781605869306158, -91.08441586025927 -12.21193895166136 M-91.84253845028037 -11.42911513444238 C-91.6409960430787 -11.63722421681746, -91.43945363587704 -11.845333299192541, -91.08441586025927 -12.21193895166136 M-91.08441586025927 -12.21193895166136 C-90.76967917366872 -12.49777448294651, -90.45494248707816 -12.78361001423166, -90.27769522023242 -12.944581292275274 M-91.08441586025927 -12.21193895166136 C-90.85267064334545 -12.422403826020053, -90.62092542643164 -12.632868700378747, -90.27769522023242 -12.944581292275274 M-90.27769522023242 -12.944581292275274 C-90.00196368569104 -13.164469853547729, -89.72623215114967 -13.384358414820184, -89.42569151835067 -13.624031571755259 M-90.27769522023242 -12.944581292275274 C-90.01562416625353 -13.153575983819795, -89.75355311227466 -13.362570675364317, -89.42569151835067 -13.624031571755259 M-89.42569151835067 -13.624031571755259 C-89.2353157989437 -13.7568294323815, -89.04494007953672 -13.88962729300774, -88.53190582057934 -14.247497783161284 M-89.42569151835067 -13.624031571755259 C-89.07223909882367 -13.870584678908664, -88.71878667929666 -14.117137786062068, -88.53190582057934 -14.247497783161284 M-88.53190582057934 -14.247497783161284 C-88.2485937389786 -14.419243231954246, -87.96528165737787 -14.590988680747207, -87.60001088406695 -14.812417970097618 M-88.53190582057934 -14.247497783161284 C-88.23316463017348 -14.428596448383422, -87.93442343976761 -14.609695113605559, -87.60001088406695 -14.812417970097618 M-87.60001088406695 -14.812417970097618 C-87.39813117569557 -14.917738484644843, -87.19625146732419 -15.02305899919207, -86.63383606499849 -15.316470754341124 M-87.60001088406695 -14.812417970097618 C-87.33493223882346 -14.950709329530172, -87.06985359357996 -15.089000688962727, -86.63383606499849 -15.316470754341124 M-86.63383606499849 -15.316470754341124 C-86.41153159861258 -15.414878347182468, -86.18922713222669 -15.513285940023811, -85.63735158294936 -15.757584874882365 M-86.63383606499849 -15.316470754341124 C-86.29722617611041 -15.465477966974293, -85.96061628722235 -15.61448517960746, -85.63735158294936 -15.757584874882365 M-85.63735158294936 -15.757584874882365 C-85.3235182956372 -15.87307842565635, -85.00968500832502 -15.988571976430336, -84.61465220640156 -16.133947699181363 M-85.63735158294936 -15.757584874882365 C-85.31407606315155 -15.87655325449411, -84.99080054335373 -15.995521634105854, -84.61465220640156 -16.133947699181363 M-84.61465220640156 -16.133947699181363 C-84.30876283891963 -16.224734057803943, -84.0028734714377 -16.315520416426526, -83.56994042646164 -16.444012671663494 M-84.61465220640156 -16.133947699181363 C-84.3858819751948 -16.20184550296408, -84.15711174398805 -16.269743306746797, -83.56994042646164 -16.444012671663494 M-83.56994042646164 -16.444012671663494 C-83.30415593280529 -16.504676247934647, -83.03837143914893 -16.5653398242058, -82.50750918792333 -16.68650566884811 M-83.56994042646164 -16.444012671663494 C-83.24301551984516 -16.518631148214318, -82.91609061322868 -16.59324962476514, -82.50750918792333 -16.68650566884811 M-82.50750918792333 -16.68650566884811 C-82.1073563745964 -16.751199272475393, -81.70720356126947 -16.815892876102676, -81.43172424863661 -16.86043023499518 M-82.50750918792333 -16.68650566884811 C-82.13201566887712 -16.74721254901177, -81.75652214983091 -16.80791942917543, -81.43172424863661 -16.86043023499518 M-81.43172424863661 -16.86043023499518 C-81.0549265143931 -16.896779459252077, -80.6781287801496 -16.933128683508972, -80.34700623967213 -16.965071676755716 M-81.43172424863661 -16.86043023499518 C-81.09946573234313 -16.892482814462685, -80.76720721604967 -16.924535393930185, -80.34700623967213 -16.965071676755716 M-80.34700623967213 -16.965071676755716 C-80.03898242397301 -16.9749494009932, -79.73095860827388 -16.984827125230687, -79.2578125 -17 M-80.34700623967213 -16.965071676755716 C-80.12224431987613 -16.972279354051036, -79.89748240008015 -16.97948703134636, -79.2578125 -17 M-79.2578125 -17 C-79.2578125 -17, -79.2578125 -17, -79.2578125 -17 M-79.2578125 -17 C-79.2578125 -17, -79.2578125 -17, -79.2578125 -17" stroke="#555555" stroke-width="1.3" fill="none" stroke-dasharray="0 0" style=""></path></g><g class="label" style="" transform="translate(0, -9.5)"><rect></rect><g><rect class="background" style="stroke: none"></rect><text y="-10.1" style=""><tspan class="text-outer-tspan row" x="0" y="-0.1em" dy="1.1em"><tspan font-style="normal" class="text-inner-tspan" font-weight="normal">Project</tspan><tspan font-style="normal" class="text-inner-tspan" font-weight="normal"> or</tspan><tspan font-style="normal" class="text-inner-tspan" font-weight="normal"> existing</tspan><tspan font-style="normal" class="text-inner-tspan" font-weight="normal"> repo</tspan></tspan></text></g></g></g><g class="node default" id="g6f6791a5-995b-4943-adfc-6f8ee9c1cb60-dark-flowchart-init-1" data-look="classic" transform="translate(203.07421875, 134.0999984741211)"><rect class="basic label-container" style="" x="-122.1640625" y="-42.099998474121094" width="244.328125" height="84.19999694824219"></rect><g class="label" style="" transform="translate(0, -27.099998474121094)"><rect></rect><g><rect class="background" style="stroke: none"></rect><text y="-10.1" style=""><tspan class="text-outer-tspan row" x="0" y="-0.1em" dy="1.1em"><tspan font-style="normal" class="text-inner-tspan" font-weight="normal">pagesmith-docs</tspan><tspan font-style="normal" class="text-inner-tspan" font-weight="normal"> init</tspan></tspan><tspan class="text-outer-tspan row" x="0" y="1em" dy="1.1em"><tspan font-style="normal" class="text-inner-tspan" font-weight="normal">Scaffold</tspan><tspan font-style="normal" class="text-inner-tspan" font-weight="normal"> or</tspan><tspan font-style="normal" class="text-inner-tspan" font-weight="normal"> backfill</tspan><tspan font-style="normal" class="text-inner-tspan" font-weight="normal"> config</tspan></tspan><tspan class="text-outer-tspan row" x="0" y="2.1em" dy="1.1em"><tspan font-style="normal" class="text-inner-tspan" font-weight="normal">and</tspan><tspan font-style="normal" class="text-inner-tspan" font-weight="normal"> starter</tspan><tspan font-style="normal" class="text-inner-tspan" font-weight="normal"> docs</tspan></tspan></text></g></g></g><g class="node default" id="g6f6791a5-995b-4943-adfc-6f8ee9c1cb60-dark-flowchart-dev-2" data-look="classic" transform="translate(124.4921875, 291.2999954223633)"><rect class="basic label-container" style="" x="-115.5" y="-33.29999923706055" width="231" height="66.5999984741211"></rect><g class="label" style="" transform="translate(0, -18.299999237060547)"><rect></rect><g><rect class="background" style="stroke: none"></rect><text y="-10.1" style=""><tspan class="text-outer-tspan row" x="0" y="-0.1em" dy="1.1em"><tspan font-style="normal" class="text-inner-tspan" font-weight="normal">pagesmith-docs</tspan><tspan font-style="normal" class="text-inner-tspan" font-weight="normal"> dev</tspan></tspan><tspan class="text-outer-tspan row" x="0" y="1em" dy="1.1em"><tspan font-style="normal" class="text-inner-tspan" font-weight="normal">Live-reload</tspan><tspan font-style="normal" class="text-inner-tspan" font-weight="normal"> editing</tspan><tspan font-style="normal" class="text-inner-tspan" font-weight="normal"> loop</tspan></tspan></text></g></g></g><g class="node default" id="g6f6791a5-995b-4943-adfc-6f8ee9c1cb60-dark-flowchart-build-3" data-look="classic" transform="translate(124.4921875, 425.49999237060547)"><rect class="basic label-container" style="" x="-113.9765625" y="-42.099998474121094" width="227.953125" height="84.19999694824219"></rect><g class="label" style="" transform="translate(0, -27.099998474121094)"><rect></rect><g><rect class="background" style="stroke: none"></rect><text y="-10.1" style=""><tspan class="text-outer-tspan row" x="0" y="-0.1em" dy="1.1em"><tspan font-style="normal" class="text-inner-tspan" font-weight="normal">pagesmith-docs</tspan><tspan font-style="normal" class="text-inner-tspan" font-weight="normal"> build</tspan></tspan><tspan class="text-outer-tspan row" x="0" y="1em" dy="1.1em"><tspan font-style="normal" class="text-inner-tspan" font-weight="normal">Static</tspan><tspan font-style="normal" class="text-inner-tspan" font-weight="normal"> output</tspan><tspan font-style="normal" class="text-inner-tspan" font-weight="normal"> +</tspan><tspan font-style="normal" class="text-inner-tspan" font-weight="normal"> assets</tspan><tspan font-style="normal" class="text-inner-tspan" font-weight="normal"> +</tspan></tspan><tspan class="text-outer-tspan row" x="0" y="2.1em" dy="1.1em"><tspan font-style="normal" class="text-inner-tspan" font-weight="normal">Pagefind</tspan></tspan></text></g></g></g><g class="node default" id="g6f6791a5-995b-4943-adfc-6f8ee9c1cb60-dark-flowchart-preview-4" data-look="classic" transform="translate(124.4921875, 559.6999893188477)"><rect class="basic label-container" style="" x="-116.4921875" y="-42.099998474121094" width="232.984375" height="84.19999694824219"></rect><g class="label" style="" transform="translate(0, -27.099998474121094)"><rect></rect><g><rect class="background" style="stroke: none"></rect><text y="-10.1" style=""><tspan class="text-outer-tspan row" x="0" y="-0.1em" dy="1.1em"><tspan font-style="normal" class="text-inner-tspan" font-weight="normal">pagesmith-docs</tspan><tspan font-style="normal" class="text-inner-tspan" font-weight="normal"> preview</tspan></tspan><tspan class="text-outer-tspan row" x="0" y="1em" dy="1.1em"><tspan font-style="normal" class="text-inner-tspan" font-weight="normal">Serve</tspan><tspan font-style="normal" class="text-inner-tspan" font-weight="normal"> built</tspan><tspan font-style="normal" class="text-inner-tspan" font-weight="normal"> output</tspan><tspan font-style="normal" class="text-inner-tspan" font-weight="normal"> from</tspan></tspan><tspan class="text-outer-tspan row" x="0" y="2.1em" dy="1.1em"><tspan font-style="normal" class="text-inner-tspan" font-weight="normal">disk</tspan></tspan></text></g></g></g><g class="node default" id="g6f6791a5-995b-4943-adfc-6f8ee9c1cb60-dark-flowchart-mcp-5" data-look="classic" transform="translate(516.66015625, 291.2999954223633)"><rect class="basic label-container" style="" x="-128.828125" y="-42.099998474121094" width="257.65625" height="84.19999694824219"></rect><g class="label" style="" transform="translate(0, -27.099998474121094)"><rect></rect><g><rect class="background" style="stroke: none"></rect><text y="-10.1" style=""><tspan class="text-outer-tspan row" x="0" y="-0.1em" dy="1.1em"><tspan font-style="normal" class="text-inner-tspan" font-weight="normal">pagesmith-docs</tspan><tspan font-style="normal" class="text-inner-tspan" font-weight="normal"> mcp</tspan><tspan font-style="normal" class="text-inner-tspan" font-weight="normal"> --stdio</tspan></tspan><tspan class="text-outer-tspan row" x="0" y="1em" dy="1.1em"><tspan font-style="normal" class="text-inner-tspan" font-weight="normal">Expose</tspan><tspan font-style="normal" class="text-inner-tspan" font-weight="normal"> docs-aware</tspan><tspan font-style="normal" class="text-inner-tspan" font-weight="normal"> MCP</tspan></tspan><tspan class="text-outer-tspan row" x="0" y="2.1em" dy="1.1em"><tspan font-style="normal" class="text-inner-tspan" font-weight="normal">tools</tspan></tspan></text></g></g></g></g></g></g><defs><filter id="g6f6791a5-995b-4943-adfc-6f8ee9c1cb60-dark-drop-shadow" height="130%" width="130%"><feDropShadow dx="4" dy="4" stdDeviation="0" flood-opacity="0.06" flood-color="#000000"></feDropShadow></filter></defs><defs><filter id="g6f6791a5-995b-4943-adfc-6f8ee9c1cb60-dark-drop-shadow-small" height="150%" width="150%"><feDropShadow dx="2" dy="2" stdDeviation="0" flood-opacity="0.06" flood-color="#000000"></feDropShadow></filter></defs><linearGradient id="g6f6791a5-995b-4943-adfc-6f8ee9c1cb60-dark-gradient" gradientUnits="objectBoundingBox" x1="0%" y1="0%" x2="100%" y2="0%"><stop offset="0%" stop-color="#555555" stop-opacity="1"></stop><stop offset="100%" stop-color="#555555" stop-opacity="1"></stop></linearGradient></svg>