<svg id="g878879ad-90ec-42ad-b54e-4007473491bd-dark" width="100%" xmlns="http://www.w3.org/2000/svg" xmlns:xlink="http://www.w3.org/1999/xlink" class="flowchart" style="max-width: 653.48828125px;" viewBox="0 0 653.48828125 609.800048828125" role="graphics-document document" aria-roledescription="flowchart-v2"><style>#g878879ad-90ec-42ad-b54e-4007473491bd-dark{font-family:"trebuchet ms",verdana,arial,sans-serif;font-size:16px;fill:#e5e5e5;}@keyframes edge-animation-frame{from{stroke-dashoffset:0;}}@keyframes dash{to{stroke-dashoffset:0;}}#g878879ad-90ec-42ad-b54e-4007473491bd-dark .edge-animation-slow{stroke-dasharray:9,5!important;stroke-dashoffset:900;animation:dash 50s linear infinite;stroke-linecap:round;}#g878879ad-90ec-42ad-b54e-4007473491bd-dark .edge-animation-fast{stroke-dasharray:9,5!important;stroke-dashoffset:900;animation:dash 20s linear infinite;stroke-linecap:round;}#g878879ad-90ec-42ad-b54e-4007473491bd-dark .error-icon{fill:#252525;}#g878879ad-90ec-42ad-b54e-4007473491bd-dark .error-text{fill:#cccccc;stroke:#cccccc;}#g878879ad-90ec-42ad-b54e-4007473491bd-dark .edge-thickness-normal{stroke-width:1px;}#g878879ad-90ec-42ad-b54e-4007473491bd-dark .edge-thickness-thick{stroke-width:3.5px;}#g878879ad-90ec-42ad-b54e-4007473491bd-dark .edge-pattern-solid{stroke-dasharray:0;}#g878879ad-90ec-42ad-b54e-4007473491bd-dark .edge-thickness-invisible{stroke-width:0;fill:none;}#g878879ad-90ec-42ad-b54e-4007473491bd-dark .edge-pattern-dashed{stroke-dasharray:3;}#g878879ad-90ec-42ad-b54e-4007473491bd-dark .edge-pattern-dotted{stroke-dasharray:2;}#g878879ad-90ec-42ad-b54e-4007473491bd-dark .marker{fill:#cccccc;stroke:#cccccc;}#g878879ad-90ec-42ad-b54e-4007473491bd-dark .marker.cross{stroke:#cccccc;}#g878879ad-90ec-42ad-b54e-4007473491bd-dark svg{font-family:"trebuchet ms",verdana,arial,sans-serif;font-size:16px;}#g878879ad-90ec-42ad-b54e-4007473491bd-dark p{margin:0;}#g878879ad-90ec-42ad-b54e-4007473491bd-dark .label{font-family:"trebuchet ms",verdana,arial,sans-serif;color:#e5e5e5;}#g878879ad-90ec-42ad-b54e-4007473491bd-dark .cluster-label text{fill:#e5e5e5;}#g878879ad-90ec-42ad-b54e-4007473491bd-dark .cluster-label span{color:#e5e5e5;}#g878879ad-90ec-42ad-b54e-4007473491bd-dark .cluster-label span p{background-color:transparent;}#g878879ad-90ec-42ad-b54e-4007473491bd-dark .label text,#g878879ad-90ec-42ad-b54e-4007473491bd-dark span{fill:#e5e5e5;color:#e5e5e5;}#g878879ad-90ec-42ad-b54e-4007473491bd-dark .node rect,#g878879ad-90ec-42ad-b54e-4007473491bd-dark .node circle,#g878879ad-90ec-42ad-b54e-4007473491bd-dark .node ellipse,#g878879ad-90ec-42ad-b54e-4007473491bd-dark .node polygon,#g878879ad-90ec-42ad-b54e-4007473491bd-dark .node path{fill:#2d2d2d;stroke:#555555;stroke-width:1px;}#g878879ad-90ec-42ad-b54e-4007473491bd-dark .rough-node .label text,#g878879ad-90ec-42ad-b54e-4007473491bd-dark .node .label text,#g878879ad-90ec-42ad-b54e-4007473491bd-dark .image-shape .label,#g878879ad-90ec-42ad-b54e-4007473491bd-dark .icon-shape .label{text-anchor:middle;}#g878879ad-90ec-42ad-b54e-4007473491bd-dark .node .katex path{fill:#000;stroke:#000;stroke-width:1px;}#g878879ad-90ec-42ad-b54e-4007473491bd-dark .rough-node .label,#g878879ad-90ec-42ad-b54e-4007473491bd-dark .node .label,#g878879ad-90ec-42ad-b54e-4007473491bd-dark .image-shape .label,#g878879ad-90ec-42ad-b54e-4007473491bd-dark .icon-shape .label{text-align:center;}#g878879ad-90ec-42ad-b54e-4007473491bd-dark .node.clickable{cursor:pointer;}#g878879ad-90ec-42ad-b54e-4007473491bd-dark .root .anchor path{fill:#cccccc!important;stroke-width:0;stroke:#cccccc;}#g878879ad-90ec-42ad-b54e-4007473491bd-dark .arrowheadPath{fill:#cccccc;}#g878879ad-90ec-42ad-b54e-4007473491bd-dark .edgePath .path{stroke:#cccccc;stroke-width:1px;}#g878879ad-90ec-42ad-b54e-4007473491bd-dark .flowchart-link{stroke:#cccccc;fill:none;}#g878879ad-90ec-42ad-b54e-4007473491bd-dark .edgeLabel{background-color:#1e1e1e;text-align:center;}#g878879ad-90ec-42ad-b54e-4007473491bd-dark .edgeLabel p{background-color:#1e1e1e;}#g878879ad-90ec-42ad-b54e-4007473491bd-dark .edgeLabel rect{opacity:0.5;background-color:#1e1e1e;fill:#1e1e1e;}#g878879ad-90ec-42ad-b54e-4007473491bd-dark .labelBkg{background-color:rgba(30, 30, 30, 0.5);}#g878879ad-90ec-42ad-b54e-4007473491bd-dark .cluster rect{fill:#1e1e1e;stroke:#555555;stroke-width:1px;}#g878879ad-90ec-42ad-b54e-4007473491bd-dark .cluster text{fill:#e5e5e5;}#g878879ad-90ec-42ad-b54e-4007473491bd-dark .cluster span{color:#e5e5e5;}#g878879ad-90ec-42ad-b54e-4007473491bd-dark div.mermaidTooltip{position:absolute;text-align:center;max-width:200px;padding:2px;font-family:"trebuchet ms",verdana,arial,sans-serif;font-size:12px;background:#252525;border:1px solid #555555;border-radius:2px;pointer-events:none;z-index:100;}#g878879ad-90ec-42ad-b54e-4007473491bd-dark .flowchartTitleText{text-anchor:middle;font-size:18px;fill:#e5e5e5;}#g878879ad-90ec-42ad-b54e-4007473491bd-dark rect.text{fill:none;stroke-width:0;}#g878879ad-90ec-42ad-b54e-4007473491bd-dark .icon-shape,#g878879ad-90ec-42ad-b54e-4007473491bd-dark .image-shape{background-color:#1e1e1e;text-align:center;}#g878879ad-90ec-42ad-b54e-4007473491bd-dark .icon-shape p,#g878879ad-90ec-42ad-b54e-4007473491bd-dark .image-shape p{background-color:#1e1e1e;padding:2px;}#g878879ad-90ec-42ad-b54e-4007473491bd-dark .icon-shape .label rect,#g878879ad-90ec-42ad-b54e-4007473491bd-dark .image-shape .label rect{opacity:0.5;background-color:#1e1e1e;fill:#1e1e1e;}#g878879ad-90ec-42ad-b54e-4007473491bd-dark .label-icon{display:inline-block;height:1em;overflow:visible;vertical-align:-0.125em;}#g878879ad-90ec-42ad-b54e-4007473491bd-dark .node .label-icon path{fill:currentColor;stroke:revert;stroke-width:revert;}#g878879ad-90ec-42ad-b54e-4007473491bd-dark .node .neo-node{stroke:#555555;}#g878879ad-90ec-42ad-b54e-4007473491bd-dark [data-look="neo"].node rect,#g878879ad-90ec-42ad-b54e-4007473491bd-dark [data-look="neo"].cluster rect,#g878879ad-90ec-42ad-b54e-4007473491bd-dark [data-look="neo"].node polygon{stroke:url(#g878879ad-90ec-42ad-b54e-4007473491bd-dark-gradient);filter:drop-shadow( 1px 2px 2px rgba(185,185,185,1));}#g878879ad-90ec-42ad-b54e-4007473491bd-dark [data-look="neo"].node path{stroke:url(#g878879ad-90ec-42ad-b54e-4007473491bd-dark-gradient);stroke-width:1px;}#g878879ad-90ec-42ad-b54e-4007473491bd-dark [data-look="neo"].node .outer-path{filter:drop-shadow( 1px 2px 2px rgba(185,185,185,1));}#g878879ad-90ec-42ad-b54e-4007473491bd-dark [data-look="neo"].node .neo-line path{stroke:#555555;filter:none;}#g878879ad-90ec-42ad-b54e-4007473491bd-dark [data-look="neo"].node circle{stroke:url(#g878879ad-90ec-42ad-b54e-4007473491bd-dark-gradient);filter:drop-shadow( 1px 2px 2px rgba(185,185,185,1));}#g878879ad-90ec-42ad-b54e-4007473491bd-dark [data-look="neo"].node circle .state-start{fill:#000000;}#g878879ad-90ec-42ad-b54e-4007473491bd-dark [data-look="neo"].icon-shape .icon{fill:url(#g878879ad-90ec-42ad-b54e-4007473491bd-dark-gradient);filter:drop-shadow( 1px 2px 2px rgba(185,185,185,1));}#g878879ad-90ec-42ad-b54e-4007473491bd-dark [data-look="neo"].icon-shape .icon-neo path{stroke:url(#g878879ad-90ec-42ad-b54e-4007473491bd-dark-gradient);filter:drop-shadow( 1px 2px 2px rgba(185,185,185,1));}#g878879ad-90ec-42ad-b54e-4007473491bd-dark :root{--mermaid-font-family:"trebuchet ms",verdana,arial,sans-serif;}</style><g><marker id="g878879ad-90ec-42ad-b54e-4007473491bd-dark_flowchart-v2-pointEnd" class="marker flowchart-v2" viewBox="0 0 10 10" refX="5" refY="5" markerUnits="userSpaceOnUse" markerWidth="8" markerHeight="8" orient="auto"><path d="M 0 0 L 10 5 L 0 10 z" class="arrowMarkerPath" style="stroke-width: 1; stroke-dasharray: 1, 0;"></path></marker><marker id="g878879ad-90ec-42ad-b54e-4007473491bd-dark_flowchart-v2-pointStart" class="marker flowchart-v2" viewBox="0 0 10 10" refX="4.5" refY="5" markerUnits="userSpaceOnUse" markerWidth="8" markerHeight="8" orient="auto"><path d="M 0 5 L 10 10 L 10 0 z" class="arrowMarkerPath" style="stroke-width: 1; stroke-dasharray: 1, 0;"></path></marker><marker id="g878879ad-90ec-42ad-b54e-4007473491bd-dark_flowchart-v2-pointEnd-margin" class="marker flowchart-v2" viewBox="0 0 11.5 14" refX="11.5" refY="7" markerUnits="userSpaceOnUse" markerWidth="10.5" markerHeight="14" orient="auto"><path d="M 0 0 L 11.5 7 L 0 14 z" class="arrowMarkerPath" style="stroke-width: 0; stroke-dasharray: 1, 0;"></path></marker><marker id="g878879ad-90ec-42ad-b54e-4007473491bd-dark_flowchart-v2-pointStart-margin" class="marker flowchart-v2" viewBox="0 0 11.5 14" refX="1" refY="7" markerUnits="userSpaceOnUse" markerWidth="11.5" markerHeight="14" orient="auto"><polygon points="0,7 11.5,14 11.5,0" class="arrowMarkerPath" style="stroke-width: 0; stroke-dasharray: 1, 0;"></polygon></marker><marker id="g878879ad-90ec-42ad-b54e-4007473491bd-dark_flowchart-v2-circleEnd" class="marker flowchart-v2" viewBox="0 0 10 10" refX="11" refY="5" markerUnits="userSpaceOnUse" markerWidth="11" markerHeight="11" orient="auto"><circle cx="5" cy="5" r="5" class="arrowMarkerPath" style="stroke-width: 1; stroke-dasharray: 1, 0;"></circle></marker><marker id="g878879ad-90ec-42ad-b54e-4007473491bd-dark_flowchart-v2-circleStart" class="marker flowchart-v2" viewBox="0 0 10 10" refX="-1" refY="5" markerUnits="userSpaceOnUse" markerWidth="11" markerHeight="11" orient="auto"><circle cx="5" cy="5" r="5" class="arrowMarkerPath" style="stroke-width: 1; stroke-dasharray: 1, 0;"></circle></marker><marker id="g878879ad-90ec-42ad-b54e-4007473491bd-dark_flowchart-v2-circleEnd-margin" class="marker flowchart-v2" viewBox="0 0 10 10" refY="5" refX="12.25" markerUnits="userSpaceOnUse" markerWidth="14" markerHeight="14" orient="auto"><circle cx="5" cy="5" r="5" class="arrowMarkerPath" style="stroke-width: 0; stroke-dasharray: 1, 0;"></circle></marker><marker id="g878879ad-90ec-42ad-b54e-4007473491bd-dark_flowchart-v2-circleStart-margin" class="marker flowchart-v2" viewBox="0 0 10 10" refX="-2" refY="5" markerUnits="userSpaceOnUse" markerWidth="14" markerHeight="14" orient="auto"><circle cx="5" cy="5" r="5" class="arrowMarkerPath" style="stroke-width: 0; stroke-dasharray: 1, 0;"></circle></marker><marker id="g878879ad-90ec-42ad-b54e-4007473491bd-dark_flowchart-v2-crossEnd" class="marker cross flowchart-v2" viewBox="0 0 11 11" refX="12" refY="5.2" markerUnits="userSpaceOnUse" markerWidth="11" markerHeight="11" orient="auto"><path d="M 1,1 l 9,9 M 10,1 l -9,9" class="arrowMarkerPath" style="stroke-width: 2; stroke-dasharray: 1, 0;"></path></marker><marker id="g878879ad-90ec-42ad-b54e-4007473491bd-dark_flowchart-v2-crossStart" class="marker cross flowchart-v2" viewBox="0 0 11 11" refX="-1" refY="5.2" markerUnits="userSpaceOnUse" markerWidth="11" markerHeight="11" orient="auto"><path d="M 1,1 l 9,9 M 10,1 l -9,9" class="arrowMarkerPath" style="stroke-width: 2; stroke-dasharray: 1, 0;"></path></marker><marker id="g878879ad-90ec-42ad-b54e-4007473491bd-dark_flowchart-v2-crossEnd-margin" class="marker cross flowchart-v2" viewBox="0 0 15 15" refX="17.7" refY="7.5" markerUnits="userSpaceOnUse" markerWidth="12" markerHeight="12" orient="auto"><path d="M 1,1 L 14,14 M 1,14 L 14,1" class="arrowMarkerPath" style="stroke-width: 2.5;"></path></marker><marker id="g878879ad-90ec-42ad-b54e-4007473491bd-dark_flowchart-v2-crossStart-margin" class="marker cross flowchart-v2" viewBox="0 0 15 15" refX="-3.5" refY="7.5" markerUnits="userSpaceOnUse" markerWidth="12" markerHeight="12" orient="auto"><path d="M 1,1 L 14,14 M 1,14 L 14,1" class="arrowMarkerPath" style="stroke-width: 2.5; stroke-dasharray: 1, 0;"></path></marker><g class="root"><g class="clusters"></g><g class="edgePaths"><path d="M203.574,42.5L203.491,46.583C203.408,50.667,203.241,58.833,203.158,66.417C203.074,74,203.074,81,203.074,84.5L203.074,88" id="g878879ad-90ec-42ad-b54e-4007473491bd-dark-L_start_init_0" class="edge-thickness-normal edge-pattern-solid edge-thickness-normal edge-pattern-solid flowchart-link" style=";" data-edge="true" data-et="edge" data-id="L_start_init_0" data-points="W3sieCI6MjAzLjU3NDIxODc1LCJ5Ijo0Mi41fSx7IngiOjIwMy4wNzQyMTg3NSwieSI6Njd9LHsieCI6MjAzLjA3NDIxODc1LCJ5Ijo5Mn1d" data-look="classic" marker-end="url(#g878879ad-90ec-42ad-b54e-4007473491bd-dark_flowchart-v2-pointEnd)"></path><path d="M139.96,42.5L124.285,46.583C108.61,50.667,77.26,58.833,61.585,74.1C45.91,89.367,45.91,111.733,45.91,136.017C45.91,160.3,45.91,186.5,52.987,206.679C60.064,226.857,74.218,241.014,81.295,248.093L88.372,255.171" id="g878879ad-90ec-42ad-b54e-4007473491bd-dark-L_start_dev_0" class="edge-thickness-normal edge-pattern-solid edge-thickness-normal edge-pattern-solid flowchart-link" style=";" data-edge="true" data-et="edge" data-id="L_start_dev_0" data-points="W3sieCI6MTM5Ljk2MDE5MzQ1MjM4MDk2LCJ5Ijo0Mi41fSx7IngiOjQ1LjkxMDE1NjI1LCJ5Ijo2N30seyJ4Ijo0NS45MTAxNTYyNSwieSI6MTM0LjA5OTk5ODQ3NDEyMTF9LHsieCI6NDUuOTEwMTU2MjUsInkiOjIxMi42OTk5OTY5NDgyNDIyfSx7IngiOjkxLjE5OTgwMDMzMTE0NzM0LCJ5IjoyNTcuOTk5OTk2MTg1MzAyNzN9XQ==" data-look="classic" marker-end="url(#g878879ad-90ec-42ad-b54e-4007473491bd-dark_flowchart-v2-pointEnd)"></path><path d="M203.074,176.2L203.074,182.283C203.074,188.367,203.074,200.533,195.997,213.695C188.92,226.857,174.767,241.014,167.69,248.093L160.613,255.171" id="g878879ad-90ec-42ad-b54e-4007473491bd-dark-L_init_dev_0" class="edge-thickness-normal edge-pattern-solid edge-thickness-normal edge-pattern-solid flowchart-link" style=";" data-edge="true" data-et="edge" data-id="L_init_dev_0" data-points="W3sieCI6MjAzLjA3NDIxODc1LCJ5IjoxNzYuMTk5OTk2OTQ4MjQyMn0seyJ4IjoyMDMuMDc0MjE4NzUsInkiOjIxMi42OTk5OTY5NDgyNDIyfSx7IngiOjE1Ny43ODQ1NzQ2Njg4NTI2NiwieSI6MjU3Ljk5OTk5NjE4NTMwMjczfV0=" data-look="classic" marker-end="url(#g878879ad-90ec-42ad-b54e-4007473491bd-dark_flowchart-v2-pointEnd)"></path><path d="M124.492,324.6L124.492,330.233C124.492,335.867,124.492,347.133,124.492,356.267C124.492,365.4,124.492,372.4,124.492,375.9L124.492,379.4" id="g878879ad-90ec-42ad-b54e-4007473491bd-dark-L_dev_build_0" class="edge-thickness-normal edge-pattern-solid edge-thickness-normal edge-pattern-solid flowchart-link" style=";" data-edge="true" data-et="edge" data-id="L_dev_build_0" data-points="W3sieCI6MTI0LjQ5MjE4NzUsInkiOjMyNC41OTk5OTQ2NTk0MjM4fSx7IngiOjEyNC40OTIxODc1LCJ5IjozNTguMzk5OTkzODk2NDg0NH0seyJ4IjoxMjQuNDkyMTg3NSwieSI6MzgzLjM5OTk5Mzg5NjQ4NDR9XQ==" data-look="classic" marker-end="url(#g878879ad-90ec-42ad-b54e-4007473491bd-dark_flowchart-v2-pointEnd)"></path><path d="M124.492,467.6L124.492,471.767C124.492,475.933,124.492,484.267,124.492,491.933C124.492,499.6,124.492,506.6,124.492,510.1L124.492,513.6" id="g878879ad-90ec-42ad-b54e-4007473491bd-dark-L_build_preview_0" class="edge-thickness-normal edge-pattern-solid edge-thickness-normal edge-pattern-solid flowchart-link" style=";" data-edge="true" data-et="edge" data-id="L_build_preview_0" data-points="W3sieCI6MTI0LjQ5MjE4NzUsInkiOjQ2Ny41OTk5OTA4NDQ3MjY1Nn0seyJ4IjoxMjQuNDkyMTg3NSwieSI6NDkyLjU5OTk5MDg0NDcyNjU2fSx7IngiOjEyNC40OTIxODc1LCJ5Ijo1MTcuNTk5OTkwODQ0NzI2Nn1d" data-look="classic" marker-end="url(#g878879ad-90ec-42ad-b54e-4007473491bd-dark_flowchart-v2-pointEnd)"></path><path d="M291.499,40.116L318.872,44.596C346.245,49.077,400.992,58.039,428.365,73.703C455.738,89.367,455.738,111.733,455.738,136.017C455.738,160.3,455.738,186.5,460.045,205.156C464.352,223.813,472.965,234.926,477.272,240.482L481.579,246.038" id="g878879ad-90ec-42ad-b54e-4007473491bd-dark-L_start_mcp_0" class="edge-thickness-normal edge-pattern-dotted edge-thickness-normal edge-pattern-solid flowchart-link" style=";" data-edge="true" data-et="edge" data-id="L_start_mcp_0" data-points="W3sieCI6MjkxLjQ5ODkwMzUyMTg2ODQ0LCJ5Ijo0MC4xMTU1OTk1NTg4NzQ2NH0seyJ4Ijo0NTUuNzM4MjgxMjUsInkiOjY3fSx7IngiOjQ1NS43MzgyODEyNSwieSI6MTM0LjA5OTk5ODQ3NDEyMTF9LHsieCI6NDU1LjczODI4MTI1LCJ5IjoyMTIuNjk5OTk2OTQ4MjQyMn0seyJ4Ijo0ODQuMDI4OTc0Mzg4MjcxOSwieSI6MjQ5LjE5OTk5Njk0ODI0MjJ9XQ==" data-look="classic" marker-end="url(#g878879ad-90ec-42ad-b54e-4007473491bd-dark_flowchart-v2-pointEnd)"></path><path d="M325.238,159.739L367.296,168.566C409.353,177.393,493.467,195.046,531.218,209.43C568.969,223.813,560.355,234.926,556.049,240.482L551.742,246.038" id="g878879ad-90ec-42ad-b54e-4007473491bd-dark-L_init_mcp_0" class="edge-thickness-normal edge-pattern-dotted edge-thickness-normal edge-pattern-solid flowchart-link" style=";" data-edge="true" data-et="edge" data-id="L_init_mcp_0" data-points="W3sieCI6MzI1LjIzODI4MTI1LCJ5IjoxNTkuNzM5MjM2OTc3NTcwMDJ9LHsieCI6NTc3LjU4MjAzMTI1LCJ5IjoyMTIuNjk5OTk2OTQ4MjQyMn0seyJ4Ijo1NDkuMjkxMzM4MTExNzI4MSwieSI6MjQ5LjE5OTk5Njk0ODI0MjJ9XQ==" data-look="classic" marker-end="url(#g878879ad-90ec-42ad-b54e-4007473491bd-dark_flowchart-v2-pointEnd)"></path></g><g class="edgeLabels"><g class="edgeLabel"><g class="label" data-id="L_start_init_0" transform="translate(0, 0)"><text y="-10.1" text-anchor="middle"><tspan class="text-outer-tspan row" x="0" y="-0.1em" dy="1.1em" text-anchor="middle"></tspan></text></g></g><g><rect class="background" style="stroke: none"></rect></g><g class="edgeLabel"><g class="label" data-id="L_start_dev_0" transform="translate(0, 0)"><text y="-10.1" text-anchor="middle"><tspan class="text-outer-tspan row" x="0" y="-0.1em" dy="1.1em" text-anchor="middle"></tspan></text></g></g><g><rect class="background" style="stroke: none"></rect></g><g class="edgeLabel"><g class="label" data-id="L_init_dev_0" transform="translate(0, 0)"><text y="-10.1" text-anchor="middle"><tspan class="text-outer-tspan row" x="0" y="-0.1em" dy="1.1em" text-anchor="middle"></tspan></text></g></g><g><rect class="background" style="stroke: none"></rect></g><g class="edgeLabel"><g class="label" data-id="L_dev_build_0" transform="translate(0, 0)"><text y="-10.1" text-anchor="middle"><tspan class="text-outer-tspan row" x="0" y="-0.1em" dy="1.1em" text-anchor="middle"></tspan></text></g></g><g><rect class="background" style="stroke: none"></rect></g><g class="edgeLabel"><g class="label" data-id="L_build_preview_0" transform="translate(0, 0)"><text y="-10.1" text-anchor="middle"><tspan class="text-outer-tspan row" x="0" y="-0.1em" dy="1.1em" text-anchor="middle"></tspan></text></g></g><g><rect class="background" style="stroke: none"></rect></g><g class="edgeLabel" transform="translate(455.73828125, 134.0999984741211)"><g class="label" data-id="L_start_mcp_0" transform="translate(0, -10.5)"><g><rect class="background" style="" x="-95.5" y="-1" width="191" height="23"></rect><text y="-10.1" text-anchor="middle" style=""><tspan class="text-outer-tspan row" x="0" y="-0.1em" dy="1.1em" text-anchor="middle"><tspan font-style="normal" class="text-inner-tspan" font-weight="normal">assistant</tspan><tspan font-style="normal" class="text-inner-tspan" font-weight="normal"> or</tspan><tspan font-style="normal" class="text-inner-tspan" font-weight="normal"> tooling</tspan><tspan font-style="normal" class="text-inner-tspan" font-weight="normal"> access</tspan></tspan></text></g></g></g><g class="edgeLabel" transform="translate(474.00794, 190.96234)"><g class="label" data-id="L_init_mcp_0" transform="translate(0, -10.5)"><g><rect class="background" style="" x="-101.84375" y="-1" width="203.6875" height="23"></rect><text y="-10.1" text-anchor="middle" style=""><tspan class="text-outer-tspan row" x="0" y="-0.1em" dy="1.1em" text-anchor="middle"><tspan font-style="normal" class="text-inner-tspan" font-weight="normal">project</tspan><tspan font-style="normal" class="text-inner-tspan" font-weight="normal"> metadata</tspan><tspan font-style="normal" class="text-inner-tspan" font-weight="normal"> +</tspan><tspan font-style="normal" class="text-inner-tspan" font-weight="normal"> content</tspan></tspan></text></g></g></g></g><g class="nodes"><g class="node default" id="g878879ad-90ec-42ad-b54e-4007473491bd-dark-flowchart-start-0" data-look="classic" transform="translate(203.07421875, 25)"><g class="basic label-container outer-path"><path d="M-79.2578125 -17 C-20.120246677158505 -17, 39.01731914568299 -17, 79.2578125 -17 C79.2578125 -17, 79.2578125 -17, 79.2578125 -17 C79.65487462380985 -16.987266990523956, 80.05193674761969 -16.974533981047912, 80.34700623967211 -16.965071676755716 C80.74610889536301 -16.926570723552384, 81.1452115510539 -16.888069770349052, 81.4317242486366 -16.860430234995185 C81.65609678719008 -16.82415542299688, 81.88046932574358 -16.787880610998577, 82.50750918792333 -16.686505668848113 C82.92848319957793 -16.59042109780011, 83.34945721123252 -16.494336526752104, 83.56994042646163 -16.4440126716635 C83.89473126142511 -16.347616456708224, 84.21952209638857 -16.251220241752947, 84.61465220640156 -16.133947699181366 C84.99374071713609 -15.994439622975278, 85.37282922787062 -15.85493154676919, 85.63735158294936 -15.757584874882369 C85.92602601176553 -15.629797268468131, 86.2147004405817 -15.502009662053895, 86.63383606499849 -15.316470754341125 C86.84073746142644 -15.208530428351331, 87.0476388578544 -15.100590102361537, 87.60001088406693 -14.812417970097622 C87.83341978060571 -14.67092412535289, 88.06682867714449 -14.529430280608157, 88.53190582057933 -14.247497783161291 C88.72433921362048 -14.113264578483106, 88.91677260666164 -13.979031373804922, 89.42569151835067 -13.624031571755262 C89.73371569172845 -13.378390490353983, 90.04173986510624 -13.132749408952703, 90.2776952202324 -12.944581292275288 C90.44821755545289 -12.789717419201796, 90.61873989067337 -12.634853546128303, 91.08441586025927 -12.21193895166137 C91.26626022342174 -12.024169716996257, 91.4481045865842 -11.836400482331143, 91.84253845028036 -11.42911513444239 C92.11565380767594 -11.108298294941457, 92.38876916507152 -10.787481455440526, 92.54894770195651 -10.59932663159847 C92.70023134192893 -10.396620336258554, 92.85151498190135 -10.193914040918637, 93.20074082814824 -9.725983222076888 C93.37197427688021 -9.462922662205436, 93.54320772561216 -9.199862102333984, 93.79523947109088 -8.812673661278927 C93.91552378179223 -8.599096687521445, 94.0358080924936 -8.385519713763966, 94.330000708341 -7.863150934094199 C94.43375029943364 -7.647712688304711, 94.53749989052628 -7.432274442515223, 94.80282709126881 -6.881316833080699 C94.91712535856878 -6.598997903043113, 95.03142362586874 -6.316678973005527, 95.21177567484592 -5.871205925162238 C95.3249852755442 -5.530236645359368, 95.43819487624248 -5.189267365556497, 95.55516600162323 -4.836968972727556 C95.62272063436446 -4.579353879722224, 95.69027526710569 -4.321738786716892, 95.831587007091 -3.7828558772573464 C95.88790485304804 -3.4936756410488887, 95.94422269900508 -3.204495404840431, 96.03990281804565 -2.713198215567453 C96.07601125769261 -2.433148288083487, 96.11211969733958 -2.153098360599521, 96.17925742013637 -1.632391440430593 C96.20595184026017 -1.2166042996542714, 96.23264626038397 -0.8008171588779499, 96.2490781754117 -0.5448768187181379 C96.2490781754117 -0.3014598553992278, 96.2490781754117 -0.05804289208031771, 96.2490781754117 0.5448768187181336 C96.22927018261909 0.8534022951870364, 96.20946218982647 1.161927771655939, 96.17925742013637 1.6323914404305815 C96.13133111514756 2.004098397804408, 96.08340481015874 2.375805355178235, 96.03990281804565 2.7131982155674415 C95.96192440445725 3.1136008886003186, 95.88394599086885 3.5140035616331957, 95.831587007091 3.782855877257343 C95.74444966165005 4.11514834098807, 95.65731231620912 4.4474408047187985, 95.55516600162323 4.836968972727545 C95.43583611192385 5.196371587866152, 95.31650622222445 5.555774203004759, 95.21177567484592 5.871205925162227 C95.08089594309142 6.194481392983323, 94.95001621133692 6.517756860804419, 94.80282709126881 6.881316833080694 C94.65770843113107 7.1826588358986365, 94.51258977099332 7.484000838716579, 94.330000708341 7.863150934094196 C94.2005459643295 8.093010940800891, 94.07109122031802 8.322870947507585, 93.79523947109088 8.812673661278923 C93.66341528330679 9.015191013466142, 93.5315910955227 9.21770836565336, 93.20074082814826 9.725983222076879 C92.98367527382993 10.016831289784623, 92.7666097195116 10.307679357492367, 92.54894770195651 10.599326631598467 C92.35369596198302 10.828680435510071, 92.15844422200952 11.058034239421676, 91.84253845028037 11.42911513444238 C91.55848999705479 11.722418483209509, 91.27444154382921 12.015721831976638, 91.08441586025927 12.211938951661365 C90.8872470214874 12.391002474232375, 90.69007818271554 12.570065996803386, 90.27769522023242 12.944581292275275 C90.03267060167924 13.139981905192489, 89.78764598312608 13.335382518109702, 89.42569151835067 13.62403157175526 C89.18078457215098 13.79486805557334, 88.93587762595128 13.96570453939142, 88.53190582057934 14.247497783161286 C88.23443529198441 14.427826165726401, 87.93696476338947 14.608154548291516, 87.60001088406695 14.81241797009762 C87.2331637922987 15.003801862896337, 86.86631670053046 15.195185755695052, 86.63383606499849 15.316470754341124 C86.32234515248062 15.45435854126316, 86.01085423996277 15.592246328185198, 85.63735158294936 15.757584874882367 C85.42797464111442 15.834637524936861, 85.21859769927947 15.911690174991355, 84.61465220640156 16.133947699181363 C84.39064545491253 16.200431727187873, 84.1666387034235 16.266915755194386, 83.56994042646164 16.444012671663497 C83.25192104606464 16.51659851996871, 82.93390166566763 16.589184368273926, 82.50750918792333 16.68650566884811 C82.22872772143845 16.731576894366825, 81.94994625495357 16.776648119885536, 81.43172424863661 16.86043023499518 C81.17781464554582 16.884924589034373, 80.92390504245505 16.909418943073568, 80.34700623967211 16.965071676755716 C80.05037220917315 16.974584152750705, 79.75373817867418 16.984096628745693, 79.2578125 17 C79.2578125 17, 79.2578125 17, 79.2578125 17 C19.680510266817947 17, -39.896791966364106 17, -79.2578125 17 C-79.63869858615105 16.987785724566926, -80.01958467230212 16.975571449133852, -80.34700623967211 16.965071676755716 C-80.66629286523467 16.934270479986044, -80.98557949079722 16.903469283216374, -81.4317242486366 16.86043023499518 C-81.85727175980539 16.79163101355965, -82.28281927097419 16.72283179212412, -82.50750918792333 16.68650566884811 C-82.83637652048787 16.611443846250157, -83.16524385305242 16.536382023652205, -83.56994042646161 16.4440126716635 C-83.9185284143987 16.340553586619468, -84.26711640233576 16.23709450157543, -84.61465220640154 16.13394769918137 C-84.89309751850632 16.03147725040656, -85.17154283061112 15.92900680163175, -85.63735158294936 15.757584874882369 C-85.84315233572542 15.666482986490836, -86.04895308850146 15.575381098099305, -86.63383606499849 15.316470754341127 C-86.93846847447197 15.157544221445182, -87.24310088394544 14.998617688549237, -87.60001088406693 14.812417970097624 C-87.8275087468012 14.67450742878227, -88.05500660953547 14.536596887466917, -88.53190582057931 14.247497783161299 C-88.84401913575515 14.029781045662293, -89.15613245093098 13.812064308163286, -89.42569151835067 13.624031571755264 C-89.61504602286915 13.47302639333677, -89.80440052738761 13.322021214918276, -90.2776952202324 12.94458129227529 C-90.48506918790665 12.756249741648062, -90.69244315558088 12.567918191020834, -91.08441586025926 12.211938951661377 C-91.27878152186976 12.011240448330936, -91.47314718348028 11.810541945000493, -91.84253845028036 11.429115134442386 C-92.02089654037003 11.21960557296023, -92.1992546304597 11.010096011478076, -92.54894770195651 10.599326631598473 C-92.7427544239422 10.339643280293233, -92.9365611459279 10.079959928987993, -93.20074082814824 9.72598322207689 C-93.39980387278777 9.420168929598548, -93.59886691742732 9.114354637120204, -93.79523947109088 8.812673661278936 C-93.98580487961966 8.474305481595989, -94.17637028814845 8.13593730191304, -94.330000708341 7.863150934094201 C-94.5151936319447 7.478593865737353, -94.70038655554838 7.094036797380504, -94.80282709126881 6.881316833080701 C-94.88813316675895 6.670609177339277, -94.9734392422491 6.459901521597852, -95.21177567484592 5.87120592516224 C-95.29345783928545 5.625192260155905, -95.37514000372498 5.37917859514957, -95.55516600162323 4.8369689727275516 C-95.62148440802949 4.58406814652133, -95.68780281443576 4.33116732031511, -95.831587007091 3.782855877257349 C-95.88074923395902 3.5304182327303844, -95.92991146082704 3.2779805882034196, -96.03990281804565 2.713198215567455 C-96.06855599156542 2.4909698599572634, -96.09720916508518 2.268741504347071, -96.17925742013637 1.6323914404306026 C-96.20057425957043 1.3003644596020212, -96.2218910990045 0.9683374787734398, -96.2490781754117 0.54487681871814 C-96.2490781754117 0.22894659016008628, -96.2490781754117 -0.08698363839796741, -96.2490781754117 -0.5448768187181317 C-96.2255092229576 -0.9119822777067221, -96.2019402705035 -1.2790877366953126, -96.17925742013637 -1.6323914404305793 C-96.12559992798641 -2.0485483536752693, -96.07194243583648 -2.46470526691996, -96.03990281804565 -2.713198215567447 C-95.97413647670218 -3.050894478644961, -95.90837013535872 -3.3885907417224748, -95.831587007091 -3.782855877257341 C-95.74400628821545 -4.1168391160535025, -95.65642556933989 -4.450822354849663, -95.55516600162323 -4.836968972727544 C-95.47289164262432 -5.084766233393369, -95.3906172836254 -5.332563494059195, -95.21177567484594 -5.871205925162218 C-95.05944265511869 -6.247471429047086, -94.90710963539145 -6.623736932931954, -94.80282709126881 -6.881316833080692 C-94.64246034698483 -7.2143218088850025, -94.48209360270087 -7.547326784689313, -94.330000708341 -7.863150934094194 C-94.16993194142246 -8.147369238478326, -94.00986317450392 -8.43158754286246, -93.79523947109088 -8.812673661278929 C-93.57156366046631 -9.156299771763374, -93.34788784984174 -9.499925882247819, -93.20074082814826 -9.725983222076884 C-92.94861605224244 -10.063807452751075, -92.69649127633662 -10.401631683425267, -92.54894770195651 -10.599326631598467 C-92.40429900604026 -10.769239220565652, -92.25965031012403 -10.939151809532834, -91.84253845028037 -11.42911513444238 C-91.68206032623925 -11.594821973013852, -91.52158220219812 -11.760528811585324, -91.08441586025927 -12.21193895166136 C-90.84412601644067 -12.43016383009654, -90.60383617262207 -12.64838870853172, -90.27769522023242 -12.944581292275274 C-89.93874276758041 -13.214886853361675, -89.5997903149284 -13.485192414448075, -89.42569151835067 -13.624031571755259 C-89.08429590641559 -13.862174371863325, -88.7429002944805 -14.100317171971394, -88.53190582057934 -14.247497783161284 C-88.34142033421948 -14.362971204409602, -88.15093484785963 -14.478444625657918, -87.60001088406695 -14.812417970097618 C-87.2546773385755 -14.992578259583812, -86.90934379308406 -15.172738549070006, -86.63383606499849 -15.316470754341124 C-86.35784807950695 -15.438642448625519, -86.08186009401541 -15.560814142909916, -85.63735158294936 -15.757584874882365 C-85.39487540199437 -15.846818350899047, -85.15239922103939 -15.936051826915731, -84.61465220640156 -16.133947699181363 C-84.22135376313588 -16.25067661267696, -83.82805531987022 -16.367405526172554, -83.56994042646164 -16.444012671663494 C-83.31236202798964 -16.502803260258595, -83.05478362951762 -16.5615938488537, -82.50750918792333 -16.68650566884811 C-82.26572876086563 -16.725594853259583, -82.02394833380791 -16.76468403767106, -81.43172424863661 -16.86043023499518 C-81.06365586882227 -16.895937348928882, -80.6955874890079 -16.93144446286258, -80.34700623967213 -16.965071676755716 C-79.97012947502846 -16.97715738105172, -79.59325271038477 -16.98924308534772, -79.2578125 -17 C-79.2578125 -17, -79.2578125 -17, -79.2578125 -17" stroke="none" stroke-width="0" fill="#2d2d2d" style=""></path><path d="M-79.2578125 -17 C-35.16425162535128 -17, 8.929309249297447 -17, 79.2578125 -17 M-79.2578125 -17 C-17.980778386636914 -17, 43.29625572672617 -17, 79.2578125 -17 M79.2578125 -17 C79.2578125 -17, 79.2578125 -17, 79.2578125 -17 M79.2578125 -17 C79.2578125 -17, 79.2578125 -17, 79.2578125 -17 M79.2578125 -17 C79.55867762670603 -16.99035184098498, 79.85954275341204 -16.98070368196996, 80.34700623967211 -16.965071676755716 M79.2578125 -17 C79.54241929673775 -16.990873213982145, 79.82702609347551 -16.981746427964286, 80.34700623967211 -16.965071676755716 M80.34700623967211 -16.965071676755716 C80.6067244182566 -16.94001697642448, 80.86644259684111 -16.91496227609324, 81.4317242486366 -16.860430234995185 M80.34700623967211 -16.965071676755716 C80.64719949649201 -16.936112394305514, 80.94739275331192 -16.907153111855312, 81.4317242486366 -16.860430234995185 M81.4317242486366 -16.860430234995185 C81.71487063275067 -16.814653323444624, 81.99801701686475 -16.768876411894066, 82.50750918792333 -16.686505668848113 M81.4317242486366 -16.860430234995185 C81.67627625179142 -16.820892963654224, 81.92082825494626 -16.78135569231326, 82.50750918792333 -16.686505668848113 M82.50750918792333 -16.686505668848113 C82.78928185361029 -16.622192896643547, 83.07105451929723 -16.557880124438984, 83.56994042646163 -16.4440126716635 M82.50750918792333 -16.686505668848113 C82.81272762131462 -16.616841553162967, 83.11794605470591 -16.54717743747782, 83.56994042646163 -16.4440126716635 M83.56994042646163 -16.4440126716635 C83.89918650260648 -16.34629416451163, 84.22843257875134 -16.24857565735976, 84.61465220640156 -16.133947699181366 M83.56994042646163 -16.4440126716635 C83.80880566552571 -16.373118722538507, 84.0476709045898 -16.302224773413514, 84.61465220640156 -16.133947699181366 M84.61465220640156 -16.133947699181366 C84.98476520930234 -15.997742692826785, 85.35487821220312 -15.861537686472202, 85.63735158294936 -15.757584874882369 M84.61465220640156 -16.133947699181366 C84.90746638079989 -16.026189376258223, 85.20028055519823 -15.918431053335079, 85.63735158294936 -15.757584874882369 M85.63735158294936 -15.757584874882369 C85.88155958115331 -15.649481238250365, 86.12576757935724 -15.541377601618361, 86.63383606499849 -15.316470754341125 M85.63735158294936 -15.757584874882369 C85.99168995576022 -15.600729788313371, 86.34602832857108 -15.443874701744374, 86.63383606499849 -15.316470754341125 M86.63383606499849 -15.316470754341125 C86.87010195270513 -15.193210992060097, 87.10636784041176 -15.069951229779067, 87.60001088406693 -14.812417970097622 M86.63383606499849 -15.316470754341125 C86.94447917336504 -15.154408443682705, 87.25512228173157 -14.992346133024286, 87.60001088406693 -14.812417970097622 M87.60001088406693 -14.812417970097622 C87.78837268420841 -14.69823193991505, 87.97673448434989 -14.58404590973248, 88.53190582057933 -14.247497783161291 M87.60001088406693 -14.812417970097622 C87.9343885608593 -14.609716257404747, 88.26876623765166 -14.407014544711872, 88.53190582057933 -14.247497783161291 M88.53190582057933 -14.247497783161291 C88.83277718067284 -14.03762294687132, 89.13364854076634 -13.82774811058135, 89.42569151835067 -13.624031571755262 M88.53190582057933 -14.247497783161291 C88.83571120388285 -14.035576299291835, 89.13951658718636 -13.82365481542238, 89.42569151835067 -13.624031571755262 M89.42569151835067 -13.624031571755262 C89.75300577525107 -13.363007162075375, 90.08032003215148 -13.10198275239549, 90.2776952202324 -12.944581292275288 M89.42569151835067 -13.624031571755262 C89.62970808035004 -13.461333792669492, 89.8337246423494 -13.298636013583723, 90.2776952202324 -12.944581292275288 M90.2776952202324 -12.944581292275288 C90.4429629852738 -12.79448948081014, 90.60823075031519 -12.644397669344992, 91.08441586025927 -12.21193895166137 M90.2776952202324 -12.944581292275288 C90.56933694558192 -12.679719993730062, 90.86097867093143 -12.414858695184837, 91.08441586025927 -12.21193895166137 M91.08441586025927 -12.21193895166137 C91.29470884339023 -11.994794181203645, 91.5050018265212 -11.77764941074592, 91.84253845028036 -11.42911513444239 M91.08441586025927 -12.21193895166137 C91.2503307694226 -12.040618186082845, 91.41624567858595 -11.86929742050432, 91.84253845028036 -11.42911513444239 M91.84253845028036 -11.42911513444239 C92.0851236013392 -11.144160812522532, 92.32770875239807 -10.859206490602674, 92.54894770195651 -10.59932663159847 M91.84253845028036 -11.42911513444239 C92.1193508059735 -11.103955590375977, 92.39616316166665 -10.778796046309564, 92.54894770195651 -10.59932663159847 M92.54894770195651 -10.59932663159847 C92.78409743816017 -10.284247407667234, 93.01924717436383 -9.969168183735997, 93.20074082814824 -9.725983222076888 M92.54894770195651 -10.59932663159847 C92.77573947773443 -10.295446313211858, 93.00253125351236 -9.991565994825244, 93.20074082814824 -9.725983222076888 M93.20074082814824 -9.725983222076888 C93.40890517111406 -9.406186891328575, 93.61706951407987 -9.086390560580265, 93.79523947109088 -8.812673661278927 M93.20074082814824 -9.725983222076888 C93.43080315378917 -9.37254570950791, 93.66086547943011 -9.019108196938932, 93.79523947109088 -8.812673661278927 M93.79523947109088 -8.812673661278927 C93.93282173171954 -8.568382425818141, 94.07040399234822 -8.324091190357358, 94.330000708341 -7.863150934094199 M93.79523947109088 -8.812673661278927 C93.97605271746825 -8.491621433009321, 94.15686596384562 -8.170569204739717, 94.330000708341 -7.863150934094199 M94.330000708341 -7.863150934094199 C94.44030420356853 -7.634103366137517, 94.55060769879606 -7.405055798180836, 94.80282709126881 -6.881316833080699 M94.330000708341 -7.863150934094199 C94.4826409168403 -7.546190275168168, 94.63528112533957 -7.2292296162421374, 94.80282709126881 -6.881316833080699 M94.80282709126881 -6.881316833080699 C94.88657874997243 -6.674448616854612, 94.97033040867603 -6.467580400628524, 95.21177567484592 -5.871205925162238 M94.80282709126881 -6.881316833080699 C94.9187283584619 -6.595038462315182, 95.03462962565501 -6.308760091549665, 95.21177567484592 -5.871205925162238 M95.21177567484592 -5.871205925162238 C95.28047027892536 -5.664308722673784, 95.34916488300479 -5.457411520185331, 95.55516600162323 -4.836968972727556 M95.21177567484592 -5.871205925162238 C95.32266814105984 -5.5372154852410125, 95.43356060727376 -5.203225045319787, 95.55516600162323 -4.836968972727556 M95.55516600162323 -4.836968972727556 C95.61284962986807 -4.616996297987408, 95.67053325811288 -4.39702362324726, 95.831587007091 -3.7828558772573464 M95.55516600162323 -4.836968972727556 C95.65023752075685 -4.474420066014044, 95.74530903989046 -4.111871159300532, 95.831587007091 -3.7828558772573464 M95.831587007091 -3.7828558772573464 C95.873600980938 -3.567123001209585, 95.91561495478497 -3.351390125161823, 96.03990281804565 -2.713198215567453 M95.831587007091 -3.7828558772573464 C95.90450288295493 -3.408448265471918, 95.97741875881884 -3.0340406536864895, 96.03990281804565 -2.713198215567453 M96.03990281804565 -2.713198215567453 C96.08524950537932 -2.361498263323701, 96.130596192713 -2.0097983110799493, 96.17925742013637 -1.632391440430593 M96.03990281804565 -2.713198215567453 C96.0877863948576 -2.341822649495729, 96.13566997166954 -1.9704470834240042, 96.17925742013637 -1.632391440430593 M96.17925742013637 -1.632391440430593 C96.20283215931096 -1.2651958485994772, 96.22640689848554 -0.8980002567683613, 96.2490781754117 -0.5448768187181379 M96.17925742013637 -1.632391440430593 C96.19837569366048 -1.3346088982999633, 96.21749396718458 -1.0368263561693336, 96.2490781754117 -0.5448768187181379 M96.2490781754117 -0.5448768187181379 C96.2490781754117 -0.19189883211243397, 96.2490781754117 0.16107915449326993, 96.2490781754117 0.5448768187181336 M96.2490781754117 -0.5448768187181379 C96.2490781754117 -0.14377596361034534, 96.2490781754117 0.2573248914974472, 96.2490781754117 0.5448768187181336 M96.2490781754117 0.5448768187181336 C96.22459743926113 0.9261840447577384, 96.20011670311057 1.3074912707973432, 96.17925742013637 1.6323914404305815 M96.2490781754117 0.5448768187181336 C96.2320677410052 0.8098280651749364, 96.2150573065987 1.0747793116317392, 96.17925742013637 1.6323914404305815 M96.17925742013637 1.6323914404305815 C96.15043426476507 1.8559381417146028, 96.12161110939375 2.0794848429986246, 96.03990281804565 2.7131982155674415 M96.17925742013637 1.6323914404305815 C96.12495936932714 2.053516400144, 96.07066131851792 2.4746413598574177, 96.03990281804565 2.7131982155674415 M96.03990281804565 2.7131982155674415 C95.98245191267263 3.008196472404759, 95.92500100729961 3.3031947292420774, 95.831587007091 3.782855877257343 M96.03990281804565 2.7131982155674415 C95.9942314255642 2.9477111633075106, 95.94856003308273 3.18222411104758, 95.831587007091 3.782855877257343 M95.831587007091 3.782855877257343 C95.76066393803028 4.053316277838462, 95.68974086896955 4.323776678419581, 95.55516600162323 4.836968972727545 M95.831587007091 3.782855877257343 C95.74700652302698 4.105397920407103, 95.66242603896298 4.427939963556863, 95.55516600162323 4.836968972727545 M95.55516600162323 4.836968972727545 C95.48434589295627 5.050267856380486, 95.41352578428929 5.263566740033427, 95.21177567484592 5.871205925162227 M95.55516600162323 4.836968972727545 C95.44315957751243 5.174314476349097, 95.33115315340163 5.511659979970649, 95.21177567484592 5.871205925162227 M95.21177567484592 5.871205925162227 C95.09545873589036 6.1585110132174865, 94.97914179693481 6.445816101272746, 94.80282709126881 6.881316833080694 M95.21177567484592 5.871205925162227 C95.12507399677908 6.085360746250243, 95.03837231871223 6.299515567338259, 94.80282709126881 6.881316833080694 M94.80282709126881 6.881316833080694 C94.62365841158915 7.253364430031126, 94.44448973190948 7.625412026981557, 94.330000708341 7.863150934094196 M94.80282709126881 6.881316833080694 C94.65728542793659 7.183537211082787, 94.51174376460436 7.48575758908488, 94.330000708341 7.863150934094196 M94.330000708341 7.863150934094196 C94.13633313511863 8.207027321318831, 93.94266556189628 8.550903708543467, 93.79523947109088 8.812673661278923 M94.330000708341 7.863150934094196 C94.2021773823217 8.090114192956792, 94.07435405630237 8.317077451819388, 93.79523947109088 8.812673661278923 M93.79523947109088 8.812673661278923 C93.64080806562086 9.049921770719676, 93.48637666015085 9.287169880160429, 93.20074082814826 9.725983222076879 M93.79523947109088 8.812673661278923 C93.64520425442845 9.043168044169246, 93.495169037766 9.273662427059568, 93.20074082814826 9.725983222076879 M93.20074082814826 9.725983222076879 C93.06344609447251 9.909945657394832, 92.92615136079677 10.093908092712786, 92.54894770195651 10.599326631598467 M93.20074082814826 9.725983222076879 C92.96460644261325 10.042381786408724, 92.72847205707822 10.35878035074057, 92.54894770195651 10.599326631598467 M92.54894770195651 10.599326631598467 C92.37466271798907 10.804051690863151, 92.20037773402163 11.008776750127835, 91.84253845028037 11.42911513444238 M92.54894770195651 10.599326631598467 C92.4017978870325 10.77217717726987, 92.25464807210851 10.94502772294127, 91.84253845028037 11.42911513444238 M91.84253845028037 11.42911513444238 C91.54115046381207 11.740322974884773, 91.23976247734376 12.051530815327165, 91.08441586025927 12.211938951661365 M91.84253845028037 11.42911513444238 C91.67887111021265 11.598115100400818, 91.51520377014494 11.767115066359255, 91.08441586025927 12.211938951661365 M91.08441586025927 12.211938951661365 C90.79414486498034 12.475555389424011, 90.50387386970142 12.73917182718666, 90.27769522023242 12.944581292275275 M91.08441586025927 12.211938951661365 C90.82341756697204 12.448970695988404, 90.56241927368481 12.686002440315443, 90.27769522023242 12.944581292275275 M90.27769522023242 12.944581292275275 C90.0290580099736 13.142862850942645, 89.78042079971478 13.341144409610015, 89.42569151835067 13.62403157175526 M90.27769522023242 12.944581292275275 C89.99321309948287 13.17144821318587, 89.70873097873333 13.398315134096464, 89.42569151835067 13.62403157175526 M89.42569151835067 13.62403157175526 C89.21256282216234 13.772700924023681, 88.99943412597402 13.921370276292102, 88.53190582057934 14.247497783161286 M89.42569151835067 13.62403157175526 C89.14458159743002 13.820121683537167, 88.86347167650936 14.016211795319073, 88.53190582057934 14.247497783161286 M88.53190582057934 14.247497783161286 C88.33173797711021 14.368840706189093, 88.13157013364106 14.4901836292169, 87.60001088406695 14.81241797009762 M88.53190582057934 14.247497783161286 C88.23045756947153 14.430237484489405, 87.9290093183637 14.612977185817524, 87.60001088406695 14.81241797009762 M87.60001088406695 14.81241797009762 C87.21857131645196 15.011414748198655, 86.83713174883697 15.210411526299692, 86.63383606499849 15.316470754341124 M87.60001088406695 14.81241797009762 C87.28575849278151 14.976363241342968, 86.97150610149608 15.140308512588316, 86.63383606499849 15.316470754341124 M86.63383606499849 15.316470754341124 C86.26325370491834 15.480516572213475, 85.89267134483819 15.644562390085825, 85.63735158294936 15.757584874882367 M86.63383606499849 15.316470754341124 C86.389126025705 15.42479662967095, 86.14441598641152 15.533122505000778, 85.63735158294936 15.757584874882367 M85.63735158294936 15.757584874882367 C85.37394611586346 15.854520521663428, 85.11054064877754 15.951456168444487, 84.61465220640156 16.133947699181363 M85.63735158294936 15.757584874882367 C85.27403845951933 15.891287462734317, 84.9107253360893 16.024990050586265, 84.61465220640156 16.133947699181363 M84.61465220640156 16.133947699181363 C84.28780006310244 16.230955699630634, 83.9609479198033 16.327963700079906, 83.56994042646164 16.444012671663497 M84.61465220640156 16.133947699181363 C84.28727485318508 16.231111579177224, 83.95989749996859 16.32827545917308, 83.56994042646164 16.444012671663497 M83.56994042646164 16.444012671663497 C83.26666196152193 16.513234002209046, 82.96338349658224 16.582455332754595, 82.50750918792333 16.68650566884811 M83.56994042646164 16.444012671663497 C83.28419402032588 16.509232424194423, 82.99844761419013 16.574452176725345, 82.50750918792333 16.68650566884811 M82.50750918792333 16.68650566884811 C82.1591320309987 16.74282858587448, 81.81075487407409 16.799151502900852, 81.43172424863661 16.86043023499518 M82.50750918792333 16.68650566884811 C82.19025659273397 16.737796608107704, 81.87300399754463 16.7890875473673, 81.43172424863661 16.86043023499518 M81.43172424863661 16.86043023499518 C81.1146862940453 16.89101450518068, 80.79764833945397 16.921598775366178, 80.34700623967211 16.965071676755716 M81.43172424863661 16.86043023499518 C81.07377708712019 16.894960967172224, 80.71582992560379 16.929491699349267, 80.34700623967211 16.965071676755716 M80.34700623967211 16.965071676755716 C80.01913223928602 16.975585957780073, 79.69125823889993 16.98610023880443, 79.2578125 17 M80.34700623967211 16.965071676755716 C79.93062924174401 16.97842407665061, 79.51425224381593 16.991776476545503, 79.2578125 17 M79.2578125 17 C79.2578125 17, 79.2578125 17, 79.2578125 17 M79.2578125 17 C79.2578125 17, 79.2578125 17, 79.2578125 17 M79.2578125 17 C27.46289077834571 17, -24.33203094330858 17, -79.2578125 17 M79.2578125 17 C35.70329411314498 17, -7.851224273710045 17, -79.2578125 17 M-79.2578125 17 C-79.50451214951839 16.99208882241168, -79.75121179903678 16.984177644823365, -80.34700623967211 16.965071676755716 M-79.2578125 17 C-79.6559475326582 16.98723258442548, -80.0540825653164 16.974465168850962, -80.34700623967211 16.965071676755716 M-80.34700623967211 16.965071676755716 C-80.64764010791284 16.93606988905166, -80.94827397615354 16.9070681013476, -81.4317242486366 16.86043023499518 M-80.34700623967211 16.965071676755716 C-80.70669080925866 16.930373338911686, -81.06637537884521 16.895675001067655, -81.4317242486366 16.86043023499518 M-81.4317242486366 16.86043023499518 C-81.75459492145737 16.808231008512983, -82.07746559427815 16.756031782030785, -82.50750918792333 16.68650566884811 M-81.4317242486366 16.86043023499518 C-81.81328293259463 16.798742786004635, -82.19484161655265 16.73705533701409, -82.50750918792333 16.68650566884811 M-82.50750918792333 16.68650566884811 C-82.87950974822468 16.60159896848985, -83.25151030852602 16.516692268131585, -83.56994042646161 16.4440126716635 M-82.50750918792333 16.68650566884811 C-82.80747376904422 16.61804071065909, -83.10743835016511 16.549575752470073, -83.56994042646161 16.4440126716635 M-83.56994042646161 16.4440126716635 C-83.8804023672567 16.3518691972835, -84.1908643080518 16.2597257229035, -84.61465220640154 16.13394769918137 M-83.56994042646161 16.4440126716635 C-83.85806534888603 16.358498707086515, -84.14619027131045 16.27298474250953, -84.61465220640154 16.13394769918137 M-84.61465220640154 16.13394769918137 C-84.90936270548465 16.025491511244795, -85.20407320456776 15.917035323308221, -85.63735158294936 15.757584874882369 M-84.61465220640154 16.13394769918137 C-84.85170267328483 16.046710936097824, -85.08875314016812 15.959474173014277, -85.63735158294936 15.757584874882369 M-85.63735158294936 15.757584874882369 C-86.01146821617439 15.591974539129271, -86.38558484939941 15.426364203376174, -86.63383606499849 15.316470754341127 M-85.63735158294936 15.757584874882369 C-85.93448935670001 15.626050796721845, -86.23162713045066 15.49451671856132, -86.63383606499849 15.316470754341127 M-86.63383606499849 15.316470754341127 C-87.00957542122143 15.12044777287216, -87.38531477744438 14.924424791403194, -87.60001088406693 14.812417970097624 M-86.63383606499849 15.316470754341127 C-87.01397468791825 15.118152678254294, -87.39411331083801 14.91983460216746, -87.60001088406693 14.812417970097624 M-87.60001088406693 14.812417970097624 C-87.8151175106984 14.68201906892678, -88.03022413732985 14.551620167755935, -88.53190582057931 14.247497783161299 M-87.60001088406693 14.812417970097624 C-87.91133766334411 14.62368984694056, -88.22266444262131 14.434961723783495, -88.53190582057931 14.247497783161299 M-88.53190582057931 14.247497783161299 C-88.78216501431463 14.072927803157436, -89.03242420804995 13.898357823153573, -89.42569151835067 13.624031571755264 M-88.53190582057931 14.247497783161299 C-88.7861657177826 14.07013708560584, -89.04042561498589 13.89277638805038, -89.42569151835067 13.624031571755264 M-89.42569151835067 13.624031571755264 C-89.67667948918648 13.42387534408411, -89.9276674600223 13.223719116412957, -90.2776952202324 12.94458129227529 M-89.42569151835067 13.624031571755264 C-89.60238912081923 13.483119935907274, -89.77908672328778 13.342208300059285, -90.2776952202324 12.94458129227529 M-90.2776952202324 12.94458129227529 C-90.50732455709924 12.736038004192142, -90.73695389396607 12.527494716108993, -91.08441586025926 12.211938951661377 M-90.2776952202324 12.94458129227529 C-90.53995843667307 12.706400778208321, -90.80222165311375 12.468220264141353, -91.08441586025926 12.211938951661377 M-91.08441586025926 12.211938951661377 C-91.32621692600613 11.962259499041028, -91.56801799175301 11.71258004642068, -91.84253845028036 11.429115134442386 M-91.08441586025926 12.211938951661377 C-91.26222792200977 12.028333399262197, -91.4400399837603 11.844727846863014, -91.84253845028036 11.429115134442386 M-91.84253845028036 11.429115134442386 C-92.09643339049278 11.130875690637515, -92.3503283307052 10.832636246832646, -92.54894770195651 10.599326631598473 M-91.84253845028036 11.429115134442386 C-92.07579953982308 11.1551133857335, -92.30906062936582 10.881111637024615, -92.54894770195651 10.599326631598473 M-92.54894770195651 10.599326631598473 C-92.80368676494192 10.257999494404071, -93.05842582792734 9.91667235720967, -93.20074082814824 9.72598322207689 M-92.54894770195651 10.599326631598473 C-92.78493902195862 10.28311976204718, -93.02093034196072 9.966912892495888, -93.20074082814824 9.72598322207689 M-93.20074082814824 9.72598322207689 C-93.41690631479298 9.393894986029839, -93.63307180143772 9.061806749982788, -93.79523947109088 8.812673661278936 M-93.20074082814824 9.72598322207689 C-93.39466017744266 9.428071026924242, -93.58857952673708 9.130158831771594, -93.79523947109088 8.812673661278936 M-93.79523947109088 8.812673661278936 C-93.92724900980956 8.578277357868613, -94.05925854852823 8.34388105445829, -94.330000708341 7.863150934094201 M-93.79523947109088 8.812673661278936 C-93.98163660703052 8.481706671661376, -94.16803374297017 8.150739682043817, -94.330000708341 7.863150934094201 M-94.330000708341 7.863150934094201 C-94.42726080837807 7.661188255334485, -94.52452090841511 7.459225576574769, -94.80282709126881 6.881316833080701 M-94.330000708341 7.863150934094201 C-94.48628847584732 7.538616040844808, -94.64257624335364 7.214081147595413, -94.80282709126881 6.881316833080701 M-94.80282709126881 6.881316833080701 C-94.90806207595418 6.621384386327844, -95.01329706063953 6.3614519395749864, -95.21177567484592 5.87120592516224 M-94.80282709126881 6.881316833080701 C-94.94046289589458 6.541353734647772, -95.07809870052037 6.201390636214842, -95.21177567484592 5.87120592516224 M-95.21177567484592 5.87120592516224 C-95.28891573512261 5.638872354208346, -95.36605579539932 5.406538783254452, -95.55516600162323 4.8369689727275516 M-95.21177567484592 5.87120592516224 C-95.30958483587428 5.576620315918323, -95.40739399690264 5.2820347066744056, -95.55516600162323 4.8369689727275516 M-95.55516600162323 4.8369689727275516 C-95.66300015994082 4.425750591442721, -95.77083431825842 4.014532210157891, -95.831587007091 3.782855877257349 M-95.55516600162323 4.8369689727275516 C-95.62276403807233 4.579188362572799, -95.69036207452145 4.321407752418047, -95.831587007091 3.782855877257349 M-95.831587007091 3.782855877257349 C-95.91142636063637 3.3728976708552234, -95.99126571418174 2.9629394644530977, -96.03990281804565 2.713198215567455 M-95.831587007091 3.782855877257349 C-95.88914558519596 3.487304743698129, -95.94670416330094 3.1917536101389086, -96.03990281804565 2.713198215567455 M-96.03990281804565 2.713198215567455 C-96.090892550267 2.3177319215201573, -96.14188228248835 1.9222656274728593, -96.17925742013637 1.6323914404306026 M-96.03990281804565 2.713198215567455 C-96.06785879023742 2.496377215779139, -96.0958147624292 2.279556215990823, -96.17925742013637 1.6323914404306026 M-96.17925742013637 1.6323914404306026 C-96.19811975296278 1.3385953812582292, -96.2169820857892 1.0447993220858556, -96.2490781754117 0.54487681871814 M-96.17925742013637 1.6323914404306026 C-96.19412535942928 1.4008112847589922, -96.20899329872218 1.1692311290873816, -96.2490781754117 0.54487681871814 M-96.2490781754117 0.54487681871814 C-96.2490781754117 0.1198344722789787, -96.2490781754117 -0.3052078741601826, -96.2490781754117 -0.5448768187181317 M-96.2490781754117 0.54487681871814 C-96.2490781754117 0.19986157847053093, -96.2490781754117 -0.1451536617770781, -96.2490781754117 -0.5448768187181317 M-96.2490781754117 -0.5448768187181317 C-96.22698994865378 -0.8889187797683644, -96.20490172189587 -1.2329607408185974, -96.17925742013637 -1.6323914404305793 M-96.2490781754117 -0.5448768187181317 C-96.22583035376091 -0.9069804062329836, -96.20258253211013 -1.2690839937478353, -96.17925742013637 -1.6323914404305793 M-96.17925742013637 -1.6323914404305793 C-96.14101576212263 -1.9289861883155714, -96.1027741041089 -2.2255809362005636, -96.03990281804565 -2.713198215567447 M-96.17925742013637 -1.6323914404305793 C-96.13852184429722 -1.9483285224897644, -96.09778626845805 -2.2642656045489495, -96.03990281804565 -2.713198215567447 M-96.03990281804565 -2.713198215567447 C-95.98496859939799 -2.9952738179719973, -95.93003438075031 -3.277349420376548, -95.831587007091 -3.782855877257341 M-96.03990281804565 -2.713198215567447 C-95.97892541955832 -3.0263042692221656, -95.91794802107098 -3.339410322876884, -95.831587007091 -3.782855877257341 M-95.831587007091 -3.782855877257341 C-95.7517642298791 -4.0872547221768345, -95.67194145266718 -4.391653567096328, -95.55516600162323 -4.836968972727544 M-95.831587007091 -3.782855877257341 C-95.7667921863376 -4.02994661104305, -95.70199736558418 -4.2770373448287575, -95.55516600162323 -4.836968972727544 M-95.55516600162323 -4.836968972727544 C-95.46103311230289 -5.120482237321307, -95.36690022298254 -5.4039955019150705, -95.21177567484594 -5.871205925162218 M-95.55516600162323 -4.836968972727544 C-95.46752497173556 -5.100929791047438, -95.37988394184788 -5.364890609367333, -95.21177567484594 -5.871205925162218 M-95.21177567484594 -5.871205925162218 C-95.05036870724126 -6.269884255737177, -94.8889617396366 -6.668562586312136, -94.80282709126881 -6.881316833080692 M-95.21177567484594 -5.871205925162218 C-95.07119107057127 -6.2184526157390545, -94.93060646629661 -6.565699306315892, -94.80282709126881 -6.881316833080692 M-94.80282709126881 -6.881316833080692 C-94.6301719551578 -7.23983891744329, -94.45751681904682 -7.598361001805888, -94.330000708341 -7.863150934094194 M-94.80282709126881 -6.881316833080692 C-94.68087831745343 -7.134546071194077, -94.55892954363806 -7.387775309307462, -94.330000708341 -7.863150934094194 M-94.330000708341 -7.863150934094194 C-94.16801292161362 -8.150776652470748, -94.00602513488624 -8.438402370847301, -93.79523947109088 -8.812673661278929 M-94.330000708341 -7.863150934094194 C-94.21358786252011 -8.069853729928088, -94.09717501669921 -8.27655652576198, -93.79523947109088 -8.812673661278929 M-93.79523947109088 -8.812673661278929 C-93.62038782998448 -9.081292736258213, -93.44553618887808 -9.349911811237497, -93.20074082814826 -9.725983222076884 M-93.79523947109088 -8.812673661278929 C-93.63545213084609 -9.058149924803606, -93.47566479060129 -9.303626188328286, -93.20074082814826 -9.725983222076884 M-93.20074082814826 -9.725983222076884 C-93.01158473330192 -9.979435156696233, -92.82242863845558 -10.23288709131558, -92.54894770195651 -10.599326631598467 M-93.20074082814826 -9.725983222076884 C-92.99038889805283 -10.007835644949699, -92.78003696795739 -10.289688067822512, -92.54894770195651 -10.599326631598467 M-92.54894770195651 -10.599326631598467 C-92.3277472280145 -10.859161294954276, -92.1065467540725 -11.118995958310087, -91.84253845028037 -11.42911513444238 M-92.54894770195651 -10.599326631598467 C-92.33927159824141 -10.845624113930516, -92.1295954945263 -11.091921596262566, -91.84253845028037 -11.42911513444238 M-91.84253845028037 -11.42911513444238 C-91.61472231456986 -11.664353998616075, -91.38690617885933 -11.899592862789769, -91.08441586025927 -12.21193895166136 M-91.84253845028037 -11.42911513444238 C-91.60498256913482 -11.674411085425719, -91.36742668798927 -11.919707036409058, -91.08441586025927 -12.21193895166136 M-91.08441586025927 -12.21193895166136 C-90.77853524276897 -12.48973163530841, -90.47265462527866 -12.76752431895546, -90.27769522023242 -12.944581292275274 M-91.08441586025927 -12.21193895166136 C-90.889136998562 -12.389286047059283, -90.6938581368647 -12.566633142457208, -90.27769522023242 -12.944581292275274 M-90.27769522023242 -12.944581292275274 C-90.09256543485705 -13.092217369601643, -89.90743564948167 -13.239853446928013, -89.42569151835067 -13.624031571755259 M-90.27769522023242 -12.944581292275274 C-89.94726144371934 -13.208093435832367, -89.61682766720627 -13.47160557938946, -89.42569151835067 -13.624031571755259 M-89.42569151835067 -13.624031571755259 C-89.23362804054344 -13.758006739579638, -89.0415645627362 -13.891981907404018, -88.53190582057934 -14.247497783161284 M-89.42569151835067 -13.624031571755259 C-89.07117295612758 -13.871328373900882, -88.71665439390448 -14.118625176046503, -88.53190582057934 -14.247497783161284 M-88.53190582057934 -14.247497783161284 C-88.18834899609796 -14.455763949125902, -87.84479217161656 -14.664030115090522, -87.60001088406695 -14.812417970097618 M-88.53190582057934 -14.247497783161284 C-88.17824356011862 -14.461889923802714, -87.82458129965788 -14.676282064444143, -87.60001088406695 -14.812417970097618 M-87.60001088406695 -14.812417970097618 C-87.35867400117434 -14.938323267319042, -87.11733711828172 -15.064228564540466, -86.63383606499849 -15.316470754341124 M-87.60001088406695 -14.812417970097618 C-87.3504156669238 -14.942631635007837, -87.10082044978063 -15.072845299918056, -86.63383606499849 -15.316470754341124 M-86.63383606499849 -15.316470754341124 C-86.33081421139825 -15.450609540106035, -86.027792357798 -15.584748325870946, -85.63735158294936 -15.757584874882365 M-86.63383606499849 -15.316470754341124 C-86.3888420273194 -15.42492234733174, -86.14384798964032 -15.53337394032236, -85.63735158294936 -15.757584874882365 M-85.63735158294936 -15.757584874882365 C-85.42381195029174 -15.8361694336391, -85.21027231763411 -15.914753992395834, -84.61465220640156 -16.133947699181363 M-85.63735158294936 -15.757584874882365 C-85.4044267348793 -15.843303372105845, -85.17150188680921 -15.929021869329326, -84.61465220640156 -16.133947699181363 M-84.61465220640156 -16.133947699181363 C-84.30796356563921 -16.2249712779181, -84.00127492487687 -16.31599485665484, -83.56994042646164 -16.444012671663494 M-84.61465220640156 -16.133947699181363 C-84.34463632010815 -16.214086996890934, -84.07462043381476 -16.29422629460051, -83.56994042646164 -16.444012671663494 M-83.56994042646164 -16.444012671663494 C-83.15483566307208 -16.53875762509543, -82.73973089968251 -16.633502578527363, -82.50750918792333 -16.68650566884811 M-83.56994042646164 -16.444012671663494 C-83.22572668036443 -16.522577213005572, -82.8815129342672 -16.60114175434765, -82.50750918792333 -16.68650566884811 M-82.50750918792333 -16.68650566884811 C-82.26872695724357 -16.72511012812056, -82.02994472656381 -16.763714587393004, -81.43172424863661 -16.86043023499518 M-82.50750918792333 -16.68650566884811 C-82.18184575103207 -16.739156407767016, -81.85618231414082 -16.791807146685922, -81.43172424863661 -16.86043023499518 M-81.43172424863661 -16.86043023499518 C-81.124776404344 -16.890041124375298, -80.81782856005141 -16.91965201375541, -80.34700623967213 -16.965071676755716 M-81.43172424863661 -16.86043023499518 C-81.14256888964482 -16.888324704716922, -80.85341353065304 -16.916219174438663, -80.34700623967213 -16.965071676755716 M-80.34700623967213 -16.965071676755716 C-80.10389210974832 -16.972867873709426, -79.86077797982452 -16.980664070663135, -79.2578125 -17 M-80.34700623967213 -16.965071676755716 C-79.94727700050112 -16.97789021543017, -79.54754776133011 -16.990708754104617, -79.2578125 -17 M-79.2578125 -17 C-79.2578125 -17, -79.2578125 -17, -79.2578125 -17 M-79.2578125 -17 C-79.2578125 -17, -79.2578125 -17, -79.2578125 -17" stroke="#555555" stroke-width="1.3" fill="none" stroke-dasharray="0 0" style=""></path></g><g class="label" style="" transform="translate(0, -9.5)"><rect></rect><g><rect class="background" style="stroke: none"></rect><text y="-10.1" style=""><tspan class="text-outer-tspan row" x="0" y="-0.1em" dy="1.1em"><tspan font-style="normal" class="text-inner-tspan" font-weight="normal">Project</tspan><tspan font-style="normal" class="text-inner-tspan" font-weight="normal"> or</tspan><tspan font-style="normal" class="text-inner-tspan" font-weight="normal"> existing</tspan><tspan font-style="normal" class="text-inner-tspan" font-weight="normal"> repo</tspan></tspan></text></g></g></g><g class="node default" id="g878879ad-90ec-42ad-b54e-4007473491bd-dark-flowchart-init-1" data-look="classic" transform="translate(203.07421875, 134.0999984741211)"><rect class="basic label-container" style="" x="-122.1640625" y="-42.099998474121094" width="244.328125" height="84.19999694824219"></rect><g class="label" style="" transform="translate(0, -27.099998474121094)"><rect></rect><g><rect class="background" style="stroke: none"></rect><text y="-10.1" style=""><tspan class="text-outer-tspan row" x="0" y="-0.1em" dy="1.1em"><tspan font-style="normal" class="text-inner-tspan" font-weight="normal">pagesmith-docs</tspan><tspan font-style="normal" class="text-inner-tspan" font-weight="normal"> init</tspan></tspan><tspan class="text-outer-tspan row" x="0" y="1em" dy="1.1em"><tspan font-style="normal" class="text-inner-tspan" font-weight="normal">Scaffold</tspan><tspan font-style="normal" class="text-inner-tspan" font-weight="normal"> or</tspan><tspan font-style="normal" class="text-inner-tspan" font-weight="normal"> backfill</tspan><tspan font-style="normal" class="text-inner-tspan" font-weight="normal"> config</tspan></tspan><tspan class="text-outer-tspan row" x="0" y="2.1em" dy="1.1em"><tspan font-style="normal" class="text-inner-tspan" font-weight="normal">and</tspan><tspan font-style="normal" class="text-inner-tspan" font-weight="normal"> starter</tspan><tspan font-style="normal" class="text-inner-tspan" font-weight="normal"> docs</tspan></tspan></text></g></g></g><g class="node default" id="g878879ad-90ec-42ad-b54e-4007473491bd-dark-flowchart-dev-2" data-look="classic" transform="translate(124.4921875, 291.2999954223633)"><rect class="basic label-container" style="" x="-115.5" y="-33.29999923706055" width="231" height="66.5999984741211"></rect><g class="label" style="" transform="translate(0, -18.299999237060547)"><rect></rect><g><rect class="background" style="stroke: none"></rect><text y="-10.1" style=""><tspan class="text-outer-tspan row" x="0" y="-0.1em" dy="1.1em"><tspan font-style="normal" class="text-inner-tspan" font-weight="normal">pagesmith-docs</tspan><tspan font-style="normal" class="text-inner-tspan" font-weight="normal"> dev</tspan></tspan><tspan class="text-outer-tspan row" x="0" y="1em" dy="1.1em"><tspan font-style="normal" class="text-inner-tspan" font-weight="normal">Live-reload</tspan><tspan font-style="normal" class="text-inner-tspan" font-weight="normal"> editing</tspan><tspan font-style="normal" class="text-inner-tspan" font-weight="normal"> loop</tspan></tspan></text></g></g></g><g class="node default" id="g878879ad-90ec-42ad-b54e-4007473491bd-dark-flowchart-build-3" data-look="classic" transform="translate(124.4921875, 425.49999237060547)"><rect class="basic label-container" style="" x="-113.9765625" y="-42.099998474121094" width="227.953125" height="84.19999694824219"></rect><g class="label" style="" transform="translate(0, -27.099998474121094)"><rect></rect><g><rect class="background" style="stroke: none"></rect><text y="-10.1" style=""><tspan class="text-outer-tspan row" x="0" y="-0.1em" dy="1.1em"><tspan font-style="normal" class="text-inner-tspan" font-weight="normal">pagesmith-docs</tspan><tspan font-style="normal" class="text-inner-tspan" font-weight="normal"> build</tspan></tspan><tspan class="text-outer-tspan row" x="0" y="1em" dy="1.1em"><tspan font-style="normal" class="text-inner-tspan" font-weight="normal">Static</tspan><tspan font-style="normal" class="text-inner-tspan" font-weight="normal"> output</tspan><tspan font-style="normal" class="text-inner-tspan" font-weight="normal"> +</tspan><tspan font-style="normal" class="text-inner-tspan" font-weight="normal"> assets</tspan><tspan font-style="normal" class="text-inner-tspan" font-weight="normal"> +</tspan></tspan><tspan class="text-outer-tspan row" x="0" y="2.1em" dy="1.1em"><tspan font-style="normal" class="text-inner-tspan" font-weight="normal">Pagefind</tspan></tspan></text></g></g></g><g class="node default" id="g878879ad-90ec-42ad-b54e-4007473491bd-dark-flowchart-preview-4" data-look="classic" transform="translate(124.4921875, 559.6999893188477)"><rect class="basic label-container" style="" x="-116.4921875" y="-42.099998474121094" width="232.984375" height="84.19999694824219"></rect><g class="label" style="" transform="translate(0, -27.099998474121094)"><rect></rect><g><rect class="background" style="stroke: none"></rect><text y="-10.1" style=""><tspan class="text-outer-tspan row" x="0" y="-0.1em" dy="1.1em"><tspan font-style="normal" class="text-inner-tspan" font-weight="normal">pagesmith-docs</tspan><tspan font-style="normal" class="text-inner-tspan" font-weight="normal"> preview</tspan></tspan><tspan class="text-outer-tspan row" x="0" y="1em" dy="1.1em"><tspan font-style="normal" class="text-inner-tspan" font-weight="normal">Serve</tspan><tspan font-style="normal" class="text-inner-tspan" font-weight="normal"> built</tspan><tspan font-style="normal" class="text-inner-tspan" font-weight="normal"> output</tspan><tspan font-style="normal" class="text-inner-tspan" font-weight="normal"> from</tspan></tspan><tspan class="text-outer-tspan row" x="0" y="2.1em" dy="1.1em"><tspan font-style="normal" class="text-inner-tspan" font-weight="normal">disk</tspan></tspan></text></g></g></g><g class="node default" id="g878879ad-90ec-42ad-b54e-4007473491bd-dark-flowchart-mcp-5" data-look="classic" transform="translate(516.66015625, 291.2999954223633)"><rect class="basic label-container" style="" x="-128.828125" y="-42.099998474121094" width="257.65625" height="84.19999694824219"></rect><g class="label" style="" transform="translate(0, -27.099998474121094)"><rect></rect><g><rect class="background" style="stroke: none"></rect><text y="-10.1" style=""><tspan class="text-outer-tspan row" x="0" y="-0.1em" dy="1.1em"><tspan font-style="normal" class="text-inner-tspan" font-weight="normal">pagesmith-docs</tspan><tspan font-style="normal" class="text-inner-tspan" font-weight="normal"> mcp</tspan><tspan font-style="normal" class="text-inner-tspan" font-weight="normal"> --stdio</tspan></tspan><tspan class="text-outer-tspan row" x="0" y="1em" dy="1.1em"><tspan font-style="normal" class="text-inner-tspan" font-weight="normal">Expose</tspan><tspan font-style="normal" class="text-inner-tspan" font-weight="normal"> docs-aware</tspan><tspan font-style="normal" class="text-inner-tspan" font-weight="normal"> MCP</tspan></tspan><tspan class="text-outer-tspan row" x="0" y="2.1em" dy="1.1em"><tspan font-style="normal" class="text-inner-tspan" font-weight="normal">tools</tspan></tspan></text></g></g></g></g></g></g><defs><filter id="g878879ad-90ec-42ad-b54e-4007473491bd-dark-drop-shadow" height="130%" width="130%"><feDropShadow dx="4" dy="4" stdDeviation="0" flood-opacity="0.06" flood-color="#000000"></feDropShadow></filter></defs><defs><filter id="g878879ad-90ec-42ad-b54e-4007473491bd-dark-drop-shadow-small" height="150%" width="150%"><feDropShadow dx="2" dy="2" stdDeviation="0" flood-opacity="0.06" flood-color="#000000"></feDropShadow></filter></defs><linearGradient id="g878879ad-90ec-42ad-b54e-4007473491bd-dark-gradient" gradientUnits="objectBoundingBox" x1="0%" y1="0%" x2="100%" y2="0%"><stop offset="0%" stop-color="#555555" stop-opacity="1"></stop><stop offset="100%" stop-color="#555555" stop-opacity="1"></stop></linearGradient></svg>