<svg id="g4be4ac7c-aa7d-44b5-ab9a-3aee1f453d0d-light" width="100%" xmlns="http://www.w3.org/2000/svg" xmlns:xlink="http://www.w3.org/1999/xlink" class="flowchart" style="max-width: 653.48828125px;" viewBox="0 0 653.48828125 609.800048828125" role="graphics-document document" aria-roledescription="flowchart-v2"><style>#g4be4ac7c-aa7d-44b5-ab9a-3aee1f453d0d-light{font-family:"trebuchet ms",verdana,arial,sans-serif;font-size:16px;fill:#333;}@keyframes edge-animation-frame{from{stroke-dashoffset:0;}}@keyframes dash{to{stroke-dashoffset:0;}}#g4be4ac7c-aa7d-44b5-ab9a-3aee1f453d0d-light .edge-animation-slow{stroke-dasharray:9,5!important;stroke-dashoffset:900;animation:dash 50s linear infinite;stroke-linecap:round;}#g4be4ac7c-aa7d-44b5-ab9a-3aee1f453d0d-light .edge-animation-fast{stroke-dasharray:9,5!important;stroke-dashoffset:900;animation:dash 20s linear infinite;stroke-linecap:round;}#g4be4ac7c-aa7d-44b5-ab9a-3aee1f453d0d-light .error-icon{fill:#552222;}#g4be4ac7c-aa7d-44b5-ab9a-3aee1f453d0d-light .error-text{fill:#552222;stroke:#552222;}#g4be4ac7c-aa7d-44b5-ab9a-3aee1f453d0d-light .edge-thickness-normal{stroke-width:1px;}#g4be4ac7c-aa7d-44b5-ab9a-3aee1f453d0d-light .edge-thickness-thick{stroke-width:3.5px;}#g4be4ac7c-aa7d-44b5-ab9a-3aee1f453d0d-light .edge-pattern-solid{stroke-dasharray:0;}#g4be4ac7c-aa7d-44b5-ab9a-3aee1f453d0d-light .edge-thickness-invisible{stroke-width:0;fill:none;}#g4be4ac7c-aa7d-44b5-ab9a-3aee1f453d0d-light .edge-pattern-dashed{stroke-dasharray:3;}#g4be4ac7c-aa7d-44b5-ab9a-3aee1f453d0d-light .edge-pattern-dotted{stroke-dasharray:2;}#g4be4ac7c-aa7d-44b5-ab9a-3aee1f453d0d-light .marker{fill:#333333;stroke:#333333;}#g4be4ac7c-aa7d-44b5-ab9a-3aee1f453d0d-light .marker.cross{stroke:#333333;}#g4be4ac7c-aa7d-44b5-ab9a-3aee1f453d0d-light svg{font-family:"trebuchet ms",verdana,arial,sans-serif;font-size:16px;}#g4be4ac7c-aa7d-44b5-ab9a-3aee1f453d0d-light p{margin:0;}#g4be4ac7c-aa7d-44b5-ab9a-3aee1f453d0d-light .label{font-family:"trebuchet ms",verdana,arial,sans-serif;color:#333;}#g4be4ac7c-aa7d-44b5-ab9a-3aee1f453d0d-light .cluster-label text{fill:#333;}#g4be4ac7c-aa7d-44b5-ab9a-3aee1f453d0d-light .cluster-label span{color:#333;}#g4be4ac7c-aa7d-44b5-ab9a-3aee1f453d0d-light .cluster-label span p{background-color:transparent;}#g4be4ac7c-aa7d-44b5-ab9a-3aee1f453d0d-light .label text,#g4be4ac7c-aa7d-44b5-ab9a-3aee1f453d0d-light span{fill:#333;color:#333;}#g4be4ac7c-aa7d-44b5-ab9a-3aee1f453d0d-light .node rect,#g4be4ac7c-aa7d-44b5-ab9a-3aee1f453d0d-light .node circle,#g4be4ac7c-aa7d-44b5-ab9a-3aee1f453d0d-light .node ellipse,#g4be4ac7c-aa7d-44b5-ab9a-3aee1f453d0d-light .node polygon,#g4be4ac7c-aa7d-44b5-ab9a-3aee1f453d0d-light .node path{fill:#ECECFF;stroke:#9370DB;stroke-width:1px;}#g4be4ac7c-aa7d-44b5-ab9a-3aee1f453d0d-light .rough-node .label text,#g4be4ac7c-aa7d-44b5-ab9a-3aee1f453d0d-light .node .label text,#g4be4ac7c-aa7d-44b5-ab9a-3aee1f453d0d-light .image-shape .label,#g4be4ac7c-aa7d-44b5-ab9a-3aee1f453d0d-light .icon-shape .label{text-anchor:middle;}#g4be4ac7c-aa7d-44b5-ab9a-3aee1f453d0d-light .node .katex path{fill:#000;stroke:#000;stroke-width:1px;}#g4be4ac7c-aa7d-44b5-ab9a-3aee1f453d0d-light .rough-node .label,#g4be4ac7c-aa7d-44b5-ab9a-3aee1f453d0d-light .node .label,#g4be4ac7c-aa7d-44b5-ab9a-3aee1f453d0d-light .image-shape .label,#g4be4ac7c-aa7d-44b5-ab9a-3aee1f453d0d-light .icon-shape .label{text-align:center;}#g4be4ac7c-aa7d-44b5-ab9a-3aee1f453d0d-light .node.clickable{cursor:pointer;}#g4be4ac7c-aa7d-44b5-ab9a-3aee1f453d0d-light .root .anchor path{fill:#333333!important;stroke-width:0;stroke:#333333;}#g4be4ac7c-aa7d-44b5-ab9a-3aee1f453d0d-light .arrowheadPath{fill:#333333;}#g4be4ac7c-aa7d-44b5-ab9a-3aee1f453d0d-light .edgePath .path{stroke:#333333;stroke-width:1px;}#g4be4ac7c-aa7d-44b5-ab9a-3aee1f453d0d-light .flowchart-link{stroke:#333333;fill:none;}#g4be4ac7c-aa7d-44b5-ab9a-3aee1f453d0d-light .edgeLabel{background-color:rgba(232,232,232, 0.8);text-align:center;}#g4be4ac7c-aa7d-44b5-ab9a-3aee1f453d0d-light .edgeLabel p{background-color:rgba(232,232,232, 0.8);}#g4be4ac7c-aa7d-44b5-ab9a-3aee1f453d0d-light .edgeLabel rect{opacity:0.5;background-color:rgba(232,232,232, 0.8);fill:rgba(232,232,232, 0.8);}#g4be4ac7c-aa7d-44b5-ab9a-3aee1f453d0d-light .labelBkg{background-color:rgba(232, 232, 232, 0.5);}#g4be4ac7c-aa7d-44b5-ab9a-3aee1f453d0d-light .cluster rect{fill:#ffffde;stroke:#aaaa33;stroke-width:1px;}#g4be4ac7c-aa7d-44b5-ab9a-3aee1f453d0d-light .cluster text{fill:#333;}#g4be4ac7c-aa7d-44b5-ab9a-3aee1f453d0d-light .cluster span{color:#333;}#g4be4ac7c-aa7d-44b5-ab9a-3aee1f453d0d-light div.mermaidTooltip{position:absolute;text-align:center;max-width:200px;padding:2px;font-family:"trebuchet ms",verdana,arial,sans-serif;font-size:12px;background:hsl(80, 100%, 96.2745098039%);border:1px solid #aaaa33;border-radius:2px;pointer-events:none;z-index:100;}#g4be4ac7c-aa7d-44b5-ab9a-3aee1f453d0d-light .flowchartTitleText{text-anchor:middle;font-size:18px;fill:#333;}#g4be4ac7c-aa7d-44b5-ab9a-3aee1f453d0d-light rect.text{fill:none;stroke-width:0;}#g4be4ac7c-aa7d-44b5-ab9a-3aee1f453d0d-light .icon-shape,#g4be4ac7c-aa7d-44b5-ab9a-3aee1f453d0d-light .image-shape{background-color:rgba(232,232,232, 0.8);text-align:center;}#g4be4ac7c-aa7d-44b5-ab9a-3aee1f453d0d-light .icon-shape p,#g4be4ac7c-aa7d-44b5-ab9a-3aee1f453d0d-light .image-shape p{background-color:rgba(232,232,232, 0.8);padding:2px;}#g4be4ac7c-aa7d-44b5-ab9a-3aee1f453d0d-light .icon-shape .label rect,#g4be4ac7c-aa7d-44b5-ab9a-3aee1f453d0d-light .image-shape .label rect{opacity:0.5;background-color:rgba(232,232,232, 0.8);fill:rgba(232,232,232, 0.8);}#g4be4ac7c-aa7d-44b5-ab9a-3aee1f453d0d-light .label-icon{display:inline-block;height:1em;overflow:visible;vertical-align:-0.125em;}#g4be4ac7c-aa7d-44b5-ab9a-3aee1f453d0d-light .node .label-icon path{fill:currentColor;stroke:revert;stroke-width:revert;}#g4be4ac7c-aa7d-44b5-ab9a-3aee1f453d0d-light .node .neo-node{stroke:#9370DB;}#g4be4ac7c-aa7d-44b5-ab9a-3aee1f453d0d-light [data-look="neo"].node rect,#g4be4ac7c-aa7d-44b5-ab9a-3aee1f453d0d-light [data-look="neo"].cluster rect,#g4be4ac7c-aa7d-44b5-ab9a-3aee1f453d0d-light [data-look="neo"].node polygon{stroke:#9370DB;filter:drop-shadow(1px 2px 2px rgba(185, 185, 185, 1));}#g4be4ac7c-aa7d-44b5-ab9a-3aee1f453d0d-light [data-look="neo"].node path{stroke:#9370DB;stroke-width:1px;}#g4be4ac7c-aa7d-44b5-ab9a-3aee1f453d0d-light [data-look="neo"].node .outer-path{filter:drop-shadow(1px 2px 2px rgba(185, 185, 185, 1));}#g4be4ac7c-aa7d-44b5-ab9a-3aee1f453d0d-light [data-look="neo"].node .neo-line path{stroke:#9370DB;filter:none;}#g4be4ac7c-aa7d-44b5-ab9a-3aee1f453d0d-light [data-look="neo"].node circle{stroke:#9370DB;filter:drop-shadow(1px 2px 2px rgba(185, 185, 185, 1));}#g4be4ac7c-aa7d-44b5-ab9a-3aee1f453d0d-light [data-look="neo"].node circle .state-start{fill:#000000;}#g4be4ac7c-aa7d-44b5-ab9a-3aee1f453d0d-light [data-look="neo"].icon-shape .icon{fill:#9370DB;filter:drop-shadow(1px 2px 2px rgba(185, 185, 185, 1));}#g4be4ac7c-aa7d-44b5-ab9a-3aee1f453d0d-light [data-look="neo"].icon-shape .icon-neo path{stroke:#9370DB;filter:drop-shadow(1px 2px 2px rgba(185, 185, 185, 1));}#g4be4ac7c-aa7d-44b5-ab9a-3aee1f453d0d-light :root{--mermaid-font-family:"trebuchet ms",verdana,arial,sans-serif;}</style><g><marker id="g4be4ac7c-aa7d-44b5-ab9a-3aee1f453d0d-light_flowchart-v2-pointEnd" class="marker flowchart-v2" viewBox="0 0 10 10" refX="5" refY="5" markerUnits="userSpaceOnUse" markerWidth="8" markerHeight="8" orient="auto"><path d="M 0 0 L 10 5 L 0 10 z" class="arrowMarkerPath" style="stroke-width: 1; stroke-dasharray: 1, 0;"></path></marker><marker id="g4be4ac7c-aa7d-44b5-ab9a-3aee1f453d0d-light_flowchart-v2-pointStart" class="marker flowchart-v2" viewBox="0 0 10 10" refX="4.5" refY="5" markerUnits="userSpaceOnUse" markerWidth="8" markerHeight="8" orient="auto"><path d="M 0 5 L 10 10 L 10 0 z" class="arrowMarkerPath" style="stroke-width: 1; stroke-dasharray: 1, 0;"></path></marker><marker id="g4be4ac7c-aa7d-44b5-ab9a-3aee1f453d0d-light_flowchart-v2-pointEnd-margin" class="marker flowchart-v2" viewBox="0 0 11.5 14" refX="11.5" refY="7" markerUnits="userSpaceOnUse" markerWidth="10.5" markerHeight="14" orient="auto"><path d="M 0 0 L 11.5 7 L 0 14 z" class="arrowMarkerPath" style="stroke-width: 0; stroke-dasharray: 1, 0;"></path></marker><marker id="g4be4ac7c-aa7d-44b5-ab9a-3aee1f453d0d-light_flowchart-v2-pointStart-margin" class="marker flowchart-v2" viewBox="0 0 11.5 14" refX="1" refY="7" markerUnits="userSpaceOnUse" markerWidth="11.5" markerHeight="14" orient="auto"><polygon points="0,7 11.5,14 11.5,0" class="arrowMarkerPath" style="stroke-width: 0; stroke-dasharray: 1, 0;"></polygon></marker><marker id="g4be4ac7c-aa7d-44b5-ab9a-3aee1f453d0d-light_flowchart-v2-circleEnd" class="marker flowchart-v2" viewBox="0 0 10 10" refX="11" refY="5" markerUnits="userSpaceOnUse" markerWidth="11" markerHeight="11" orient="auto"><circle cx="5" cy="5" r="5" class="arrowMarkerPath" style="stroke-width: 1; stroke-dasharray: 1, 0;"></circle></marker><marker id="g4be4ac7c-aa7d-44b5-ab9a-3aee1f453d0d-light_flowchart-v2-circleStart" class="marker flowchart-v2" viewBox="0 0 10 10" refX="-1" refY="5" markerUnits="userSpaceOnUse" markerWidth="11" markerHeight="11" orient="auto"><circle cx="5" cy="5" r="5" class="arrowMarkerPath" style="stroke-width: 1; stroke-dasharray: 1, 0;"></circle></marker><marker id="g4be4ac7c-aa7d-44b5-ab9a-3aee1f453d0d-light_flowchart-v2-circleEnd-margin" class="marker flowchart-v2" viewBox="0 0 10 10" refY="5" refX="12.25" markerUnits="userSpaceOnUse" markerWidth="14" markerHeight="14" orient="auto"><circle cx="5" cy="5" r="5" class="arrowMarkerPath" style="stroke-width: 0; stroke-dasharray: 1, 0;"></circle></marker><marker id="g4be4ac7c-aa7d-44b5-ab9a-3aee1f453d0d-light_flowchart-v2-circleStart-margin" class="marker flowchart-v2" viewBox="0 0 10 10" refX="-2" refY="5" markerUnits="userSpaceOnUse" markerWidth="14" markerHeight="14" orient="auto"><circle cx="5" cy="5" r="5" class="arrowMarkerPath" style="stroke-width: 0; stroke-dasharray: 1, 0;"></circle></marker><marker id="g4be4ac7c-aa7d-44b5-ab9a-3aee1f453d0d-light_flowchart-v2-crossEnd" class="marker cross flowchart-v2" viewBox="0 0 11 11" refX="12" refY="5.2" markerUnits="userSpaceOnUse" markerWidth="11" markerHeight="11" orient="auto"><path d="M 1,1 l 9,9 M 10,1 l -9,9" class="arrowMarkerPath" style="stroke-width: 2; stroke-dasharray: 1, 0;"></path></marker><marker id="g4be4ac7c-aa7d-44b5-ab9a-3aee1f453d0d-light_flowchart-v2-crossStart" class="marker cross flowchart-v2" viewBox="0 0 11 11" refX="-1" refY="5.2" markerUnits="userSpaceOnUse" markerWidth="11" markerHeight="11" orient="auto"><path d="M 1,1 l 9,9 M 10,1 l -9,9" class="arrowMarkerPath" style="stroke-width: 2; stroke-dasharray: 1, 0;"></path></marker><marker id="g4be4ac7c-aa7d-44b5-ab9a-3aee1f453d0d-light_flowchart-v2-crossEnd-margin" class="marker cross flowchart-v2" viewBox="0 0 15 15" refX="17.7" refY="7.5" markerUnits="userSpaceOnUse" markerWidth="12" markerHeight="12" orient="auto"><path d="M 1,1 L 14,14 M 1,14 L 14,1" class="arrowMarkerPath" style="stroke-width: 2.5;"></path></marker><marker id="g4be4ac7c-aa7d-44b5-ab9a-3aee1f453d0d-light_flowchart-v2-crossStart-margin" class="marker cross flowchart-v2" viewBox="0 0 15 15" refX="-3.5" refY="7.5" markerUnits="userSpaceOnUse" markerWidth="12" markerHeight="12" orient="auto"><path d="M 1,1 L 14,14 M 1,14 L 14,1" class="arrowMarkerPath" style="stroke-width: 2.5; stroke-dasharray: 1, 0;"></path></marker><g class="root"><g class="clusters"></g><g class="edgePaths"><path d="M203.574,42.5L203.491,46.583C203.408,50.667,203.241,58.833,203.158,66.417C203.074,74,203.074,81,203.074,84.5L203.074,88" id="g4be4ac7c-aa7d-44b5-ab9a-3aee1f453d0d-light-L_start_init_0" class="edge-thickness-normal edge-pattern-solid edge-thickness-normal edge-pattern-solid flowchart-link" style=";" data-edge="true" data-et="edge" data-id="L_start_init_0" data-points="W3sieCI6MjAzLjU3NDIxODc1LCJ5Ijo0Mi41fSx7IngiOjIwMy4wNzQyMTg3NSwieSI6Njd9LHsieCI6MjAzLjA3NDIxODc1LCJ5Ijo5Mn1d" data-look="classic" marker-end="url(#g4be4ac7c-aa7d-44b5-ab9a-3aee1f453d0d-light_flowchart-v2-pointEnd)"></path><path d="M139.96,42.5L124.285,46.583C108.61,50.667,77.26,58.833,61.585,74.1C45.91,89.367,45.91,111.733,45.91,136.017C45.91,160.3,45.91,186.5,52.987,206.679C60.064,226.857,74.218,241.014,81.295,248.093L88.372,255.171" id="g4be4ac7c-aa7d-44b5-ab9a-3aee1f453d0d-light-L_start_dev_0" class="edge-thickness-normal edge-pattern-solid edge-thickness-normal edge-pattern-solid flowchart-link" style=";" data-edge="true" data-et="edge" data-id="L_start_dev_0" data-points="W3sieCI6MTM5Ljk2MDE5MzQ1MjM4MDk2LCJ5Ijo0Mi41fSx7IngiOjQ1LjkxMDE1NjI1LCJ5Ijo2N30seyJ4Ijo0NS45MTAxNTYyNSwieSI6MTM0LjA5OTk5ODQ3NDEyMTF9LHsieCI6NDUuOTEwMTU2MjUsInkiOjIxMi42OTk5OTY5NDgyNDIyfSx7IngiOjkxLjE5OTgwMDMzMTE0NzM0LCJ5IjoyNTcuOTk5OTk2MTg1MzAyNzN9XQ==" data-look="classic" marker-end="url(#g4be4ac7c-aa7d-44b5-ab9a-3aee1f453d0d-light_flowchart-v2-pointEnd)"></path><path d="M203.074,176.2L203.074,182.283C203.074,188.367,203.074,200.533,195.997,213.695C188.92,226.857,174.767,241.014,167.69,248.093L160.613,255.171" id="g4be4ac7c-aa7d-44b5-ab9a-3aee1f453d0d-light-L_init_dev_0" class="edge-thickness-normal edge-pattern-solid edge-thickness-normal edge-pattern-solid flowchart-link" style=";" data-edge="true" data-et="edge" data-id="L_init_dev_0" data-points="W3sieCI6MjAzLjA3NDIxODc1LCJ5IjoxNzYuMTk5OTk2OTQ4MjQyMn0seyJ4IjoyMDMuMDc0MjE4NzUsInkiOjIxMi42OTk5OTY5NDgyNDIyfSx7IngiOjE1Ny43ODQ1NzQ2Njg4NTI2NiwieSI6MjU3Ljk5OTk5NjE4NTMwMjczfV0=" data-look="classic" marker-end="url(#g4be4ac7c-aa7d-44b5-ab9a-3aee1f453d0d-light_flowchart-v2-pointEnd)"></path><path d="M124.492,324.6L124.492,330.233C124.492,335.867,124.492,347.133,124.492,356.267C124.492,365.4,124.492,372.4,124.492,375.9L124.492,379.4" id="g4be4ac7c-aa7d-44b5-ab9a-3aee1f453d0d-light-L_dev_build_0" class="edge-thickness-normal edge-pattern-solid edge-thickness-normal edge-pattern-solid flowchart-link" style=";" data-edge="true" data-et="edge" data-id="L_dev_build_0" data-points="W3sieCI6MTI0LjQ5MjE4NzUsInkiOjMyNC41OTk5OTQ2NTk0MjM4fSx7IngiOjEyNC40OTIxODc1LCJ5IjozNTguMzk5OTkzODk2NDg0NH0seyJ4IjoxMjQuNDkyMTg3NSwieSI6MzgzLjM5OTk5Mzg5NjQ4NDR9XQ==" data-look="classic" marker-end="url(#g4be4ac7c-aa7d-44b5-ab9a-3aee1f453d0d-light_flowchart-v2-pointEnd)"></path><path d="M124.492,467.6L124.492,471.767C124.492,475.933,124.492,484.267,124.492,491.933C124.492,499.6,124.492,506.6,124.492,510.1L124.492,513.6" id="g4be4ac7c-aa7d-44b5-ab9a-3aee1f453d0d-light-L_build_preview_0" class="edge-thickness-normal edge-pattern-solid edge-thickness-normal edge-pattern-solid flowchart-link" style=";" data-edge="true" data-et="edge" data-id="L_build_preview_0" data-points="W3sieCI6MTI0LjQ5MjE4NzUsInkiOjQ2Ny41OTk5OTA4NDQ3MjY1Nn0seyJ4IjoxMjQuNDkyMTg3NSwieSI6NDkyLjU5OTk5MDg0NDcyNjU2fSx7IngiOjEyNC40OTIxODc1LCJ5Ijo1MTcuNTk5OTkwODQ0NzI2Nn1d" data-look="classic" marker-end="url(#g4be4ac7c-aa7d-44b5-ab9a-3aee1f453d0d-light_flowchart-v2-pointEnd)"></path><path d="M291.499,40.116L318.872,44.596C346.245,49.077,400.992,58.039,428.365,73.703C455.738,89.367,455.738,111.733,455.738,136.017C455.738,160.3,455.738,186.5,460.045,205.156C464.352,223.813,472.965,234.926,477.272,240.482L481.579,246.038" id="g4be4ac7c-aa7d-44b5-ab9a-3aee1f453d0d-light-L_start_mcp_0" class="edge-thickness-normal edge-pattern-dotted edge-thickness-normal edge-pattern-solid flowchart-link" style=";" data-edge="true" data-et="edge" data-id="L_start_mcp_0" data-points="W3sieCI6MjkxLjQ5ODkwMzUyMTg2ODQ0LCJ5Ijo0MC4xMTU1OTk1NTg4NzQ2NH0seyJ4Ijo0NTUuNzM4MjgxMjUsInkiOjY3fSx7IngiOjQ1NS43MzgyODEyNSwieSI6MTM0LjA5OTk5ODQ3NDEyMTF9LHsieCI6NDU1LjczODI4MTI1LCJ5IjoyMTIuNjk5OTk2OTQ4MjQyMn0seyJ4Ijo0ODQuMDI4OTc0Mzg4MjcxOSwieSI6MjQ5LjE5OTk5Njk0ODI0MjJ9XQ==" data-look="classic" marker-end="url(#g4be4ac7c-aa7d-44b5-ab9a-3aee1f453d0d-light_flowchart-v2-pointEnd)"></path><path d="M325.238,159.739L367.296,168.566C409.353,177.393,493.467,195.046,531.218,209.43C568.969,223.813,560.355,234.926,556.049,240.482L551.742,246.038" id="g4be4ac7c-aa7d-44b5-ab9a-3aee1f453d0d-light-L_init_mcp_0" class="edge-thickness-normal edge-pattern-dotted edge-thickness-normal edge-pattern-solid flowchart-link" style=";" data-edge="true" data-et="edge" data-id="L_init_mcp_0" data-points="W3sieCI6MzI1LjIzODI4MTI1LCJ5IjoxNTkuNzM5MjM2OTc3NTcwMDJ9LHsieCI6NTc3LjU4MjAzMTI1LCJ5IjoyMTIuNjk5OTk2OTQ4MjQyMn0seyJ4Ijo1NDkuMjkxMzM4MTExNzI4MSwieSI6MjQ5LjE5OTk5Njk0ODI0MjJ9XQ==" data-look="classic" marker-end="url(#g4be4ac7c-aa7d-44b5-ab9a-3aee1f453d0d-light_flowchart-v2-pointEnd)"></path></g><g class="edgeLabels"><g class="edgeLabel"><g class="label" data-id="L_start_init_0" transform="translate(0, 0)"><text y="-10.1" text-anchor="middle"><tspan class="text-outer-tspan row" x="0" y="-0.1em" dy="1.1em" text-anchor="middle"></tspan></text></g></g><g><rect class="background" style="stroke: none"></rect></g><g class="edgeLabel"><g class="label" data-id="L_start_dev_0" transform="translate(0, 0)"><text y="-10.1" text-anchor="middle"><tspan class="text-outer-tspan row" x="0" y="-0.1em" dy="1.1em" text-anchor="middle"></tspan></text></g></g><g><rect class="background" style="stroke: none"></rect></g><g class="edgeLabel"><g class="label" data-id="L_init_dev_0" transform="translate(0, 0)"><text y="-10.1" text-anchor="middle"><tspan class="text-outer-tspan row" x="0" y="-0.1em" dy="1.1em" text-anchor="middle"></tspan></text></g></g><g><rect class="background" style="stroke: none"></rect></g><g class="edgeLabel"><g class="label" data-id="L_dev_build_0" transform="translate(0, 0)"><text y="-10.1" text-anchor="middle"><tspan class="text-outer-tspan row" x="0" y="-0.1em" dy="1.1em" text-anchor="middle"></tspan></text></g></g><g><rect class="background" style="stroke: none"></rect></g><g class="edgeLabel"><g class="label" data-id="L_build_preview_0" transform="translate(0, 0)"><text y="-10.1" text-anchor="middle"><tspan class="text-outer-tspan row" x="0" y="-0.1em" dy="1.1em" text-anchor="middle"></tspan></text></g></g><g><rect class="background" style="stroke: none"></rect></g><g class="edgeLabel" transform="translate(455.73828125, 134.0999984741211)"><g class="label" data-id="L_start_mcp_0" transform="translate(0, -10.5)"><g><rect class="background" style="" x="-95.5" y="-1" width="191" height="23"></rect><text y="-10.1" text-anchor="middle" style=""><tspan class="text-outer-tspan row" x="0" y="-0.1em" dy="1.1em" text-anchor="middle"><tspan font-style="normal" class="text-inner-tspan" font-weight="normal">assistant</tspan><tspan font-style="normal" class="text-inner-tspan" font-weight="normal"> or</tspan><tspan font-style="normal" class="text-inner-tspan" font-weight="normal"> tooling</tspan><tspan font-style="normal" class="text-inner-tspan" font-weight="normal"> access</tspan></tspan></text></g></g></g><g class="edgeLabel" transform="translate(474.00794, 190.96234)"><g class="label" data-id="L_init_mcp_0" transform="translate(0, -10.5)"><g><rect class="background" style="" x="-101.84375" y="-1" width="203.6875" height="23"></rect><text y="-10.1" text-anchor="middle" style=""><tspan class="text-outer-tspan row" x="0" y="-0.1em" dy="1.1em" text-anchor="middle"><tspan font-style="normal" class="text-inner-tspan" font-weight="normal">project</tspan><tspan font-style="normal" class="text-inner-tspan" font-weight="normal"> metadata</tspan><tspan font-style="normal" class="text-inner-tspan" font-weight="normal"> +</tspan><tspan font-style="normal" class="text-inner-tspan" font-weight="normal"> content</tspan></tspan></text></g></g></g></g><g class="nodes"><g class="node default" id="g4be4ac7c-aa7d-44b5-ab9a-3aee1f453d0d-light-flowchart-start-0" data-look="classic" transform="translate(203.07421875, 25)"><g class="basic label-container outer-path"><path d="M-79.2578125 -17 C-44.33444144901394 -17, -9.411070398027874 -17, 79.2578125 -17 C79.2578125 -17, 79.2578125 -17, 79.2578125 -17 C79.52573306198425 -16.991408309052904, 79.79365362396851 -16.982816618105804, 80.34700623967211 -16.965071676755716 C80.64351612288186 -16.93646772492778, 80.94002600609161 -16.907863773099844, 81.4317242486366 -16.860430234995185 C81.82318950878872 -16.797141167592226, 82.21465476894082 -16.733852100189267, 82.50750918792333 -16.686505668848113 C82.87393495741428 -16.602871378113413, 83.24036072690522 -16.519237087378716, 83.56994042646163 -16.4440126716635 C83.84231861572886 -16.36317225483128, 84.11469680499609 -16.282331837999056, 84.61465220640156 -16.133947699181366 C84.87343784177712 -16.03871219317497, 85.13222347715268 -15.943476687168575, 85.63735158294936 -15.757584874882369 C86.01531313767538 -15.590272506436325, 86.3932746924014 -15.42296013799028, 86.63383606499849 -15.316470754341125 C86.90971309514934 -15.172545884419094, 87.1855901253002 -15.028621014497062, 87.60001088406693 -14.812417970097622 C87.89137372682934 -14.63579210257693, 88.18273656959175 -14.45916623505624, 88.53190582057933 -14.247497783161291 C88.7826517567777 -14.072588272685943, 89.03339769297607 -13.897678762210594, 89.42569151835067 -13.624031571755262 C89.63770029633021 -13.45496021310711, 89.84970907430973 -13.285888854458959, 90.2776952202324 -12.944581292275288 C90.51783692390137 -12.726490950804433, 90.75797862757034 -12.50840060933358, 91.08441586025927 -12.21193895166137 C91.28485842223031 -12.004965549785872, 91.48530098420137 -11.797992147910373, 91.84253845028036 -11.42911513444239 C92.1219928129067 -11.100852138697787, 92.40144717553305 -10.772589142953185, 92.54894770195651 -10.59932663159847 C92.77956711896395 -10.290317622669585, 93.01018653597141 -9.9813086137407, 93.20074082814824 -9.725983222076888 C93.32242120536024 -9.539049486922938, 93.44410158257224 -9.352115751768988, 93.79523947109088 -8.812673661278927 C93.92237634467536 -8.586929268225225, 94.04951321825985 -8.361184875171523, 94.330000708341 -7.863150934094199 C94.45229891216206 -7.609196097097407, 94.57459711598312 -7.355241260100616, 94.80282709126881 -6.881316833080699 C94.93879709335624 -6.545468299123572, 95.07476709544369 -6.209619765166444, 95.21177567484592 -5.871205925162238 C95.29342374599769 -5.625294943706648, 95.37507181714945 -5.379383962251058, 95.55516600162323 -4.836968972727556 C95.62148150374352 -4.584079221822457, 95.68779700586381 -4.3311894709173595, 95.831587007091 -3.7828558772573464 C95.87561178553527 -3.556797944586221, 95.91963656397955 -3.330740011915095, 96.03990281804565 -2.713198215567453 C96.08724285819284 -2.346038212534116, 96.13458289834003 -1.9788782095007798, 96.17925742013637 -1.632391440430593 C96.20169109489164 -1.28296884798089, 96.22412476964692 -0.933546255531187, 96.2490781754117 -0.5448768187181379 C96.2490781754117 -0.18448723239489173, 96.2490781754117 0.1759023539283544, 96.2490781754117 0.5448768187181336 C96.2349550441462 0.7648559881644654, 96.22083191288073 0.9848351576107972, 96.17925742013637 1.6323914404305815 C96.12598739038188 2.0455432718492235, 96.07271736062738 2.458695103267866, 96.03990281804565 2.7131982155674415 C95.98577634157249 2.991126232622271, 95.93164986509933 3.269054249677101, 95.831587007091 3.782855877257343 C95.72234859739932 4.199429277638008, 95.61311018770762 4.616002678018672, 95.55516600162323 4.836968972727545 C95.47233929783906 5.086429807882396, 95.38951259405486 5.3358906430372475, 95.21177567484592 5.871205925162227 C95.1063133462523 6.131699915763873, 95.00085101765869 6.392193906365519, 94.80282709126881 6.881316833080694 C94.61785594865843 7.26541336845959, 94.43288480604805 7.649509903838486, 94.330000708341 7.863150934094196 C94.20900067488259 8.077998746081622, 94.08800064142417 8.292846558069048, 93.79523947109088 8.812673661278923 C93.61420345516315 9.09079359672093, 93.43316743923543 9.368913532162937, 93.20074082814826 9.725983222076879 C93.05421143364563 9.922319261607937, 92.90768203914301 10.118655301138993, 92.54894770195651 10.599326631598467 C92.29533663696776 10.89723261941266, 92.04172557197901 11.195138607226854, 91.84253845028037 11.42911513444238 C91.62430092931767 11.654463292470062, 91.40606340835497 11.879811450497744, 91.08441586025927 12.211938951661365 C90.81418198620466 12.457358206081263, 90.54394811215005 12.702777460501162, 90.27769522023242 12.944581292275275 C89.9956924502797 13.169470996903685, 89.71368968032701 13.394360701532094, 89.42569151835067 13.62403157175526 C89.09013161500486 13.858103634175206, 88.75457171165904 14.092175696595152, 88.53190582057934 14.247497783161286 C88.20306274460557 14.446844388313004, 87.87421966863181 14.64619099346472, 87.60001088406695 14.81241797009762 C87.23020396871202 15.00534600096565, 86.86039705335709 15.19827403183368, 86.63383606499849 15.316470754341124 C86.32326377928004 15.453951892429156, 86.01269149356159 15.59143303051719, 85.63735158294936 15.757584874882367 C85.29123473452533 15.884959074571485, 84.9451178861013 16.012333274260605, 84.61465220640156 16.133947699181363 C84.39772100591418 16.19833174079091, 84.18078980542681 16.262715782400452, 83.56994042646164 16.444012671663497 C83.19858041869453 16.528773170085817, 82.82722041092741 16.613533668508136, 82.50750918792333 16.68650566884811 C82.25887520158797 16.726702883573452, 82.01024121525259 16.76690009829879, 81.43172424863661 16.86043023499518 C81.03626008378649 16.89858018736303, 80.64079591893638 16.936730139730876, 80.34700623967211 16.965071676755716 C79.94037579635892 16.97811152361463, 79.53374535304575 16.99115137047354, 79.2578125 17 C79.2578125 17, 79.2578125 17, 79.2578125 17 C46.12603899850221 17, 12.99426549700442 17, -79.2578125 17 C-79.60057548176314 16.989008258322528, -79.94333846352629 16.978016516645052, -80.34700623967211 16.965071676755716 C-80.67517417258223 16.93341371094756, -81.00334210549235 16.901755745139404, -81.4317242486366 16.86043023499518 C-81.77408025277362 16.805080771256776, -82.11643625691063 16.749731307518367, -82.50750918792333 16.68650566884811 C-82.80743225803641 16.618050185275738, -83.1073553281495 16.549594701703366, -83.56994042646161 16.4440126716635 C-83.79242619322709 16.37798006393913, -84.01491195999256 16.31194745621476, -84.61465220640154 16.13394769918137 C-84.87982531118206 16.036361545388832, -85.14499841596256 15.938775391596295, -85.63735158294936 15.757584874882369 C-85.97438794498423 15.608388875237994, -86.31142430701908 15.459192875593617, -86.63383606499849 15.316470754341127 C-87.0133774617787 15.118464250748756, -87.39291885855891 14.920457747156386, -87.60001088406693 14.812417970097624 C-87.94514864045702 14.603193433919362, -88.29028639684711 14.3939688977411, -88.53190582057931 14.247497783161299 C-88.7171493255503 14.118279933155627, -88.90239283052128 13.989062083149955, -89.42569151835067 13.624031571755264 C-89.69212634796901 13.411556885263227, -89.95856117758734 13.199082198771192, -90.2776952202324 12.94458129227529 C-90.47686251311109 12.763702826560671, -90.67602980598976 12.58282436084605, -91.08441586025926 12.211938951661377 C-91.37623201999024 11.91061480818686, -91.66804817972121 11.609290664712342, -91.84253845028036 11.429115134442386 C-92.04240791050152 11.194337093572138, -92.24227737072269 10.959559052701891, -92.54894770195651 10.599326631598473 C-92.80534273891637 10.255780640140648, -93.06173777587622 9.912234648682825, -93.20074082814824 9.72598322207689 C-93.34872830005564 9.498634725026768, -93.49671577196304 9.271286227976645, -93.79523947109088 8.812673661278936 C-93.9368875239725 8.561163199966911, -94.07853557685414 8.309652738654885, -94.330000708341 7.863150934094201 C-94.50811817701579 7.493286199287711, -94.68623564569057 7.12342146448122, -94.80282709126881 6.881316833080701 C-94.89515654501969 6.653261297247492, -94.98748599877055 6.425205761414283, -95.21177567484592 5.87120592516224 C-95.30336613342217 5.595350056888392, -95.39495659199842 5.319494188614542, -95.55516600162323 4.8369689727275516 C-95.64180622247085 4.506572260526349, -95.72844644331846 4.176175548325147, -95.831587007091 3.782855877257349 C-95.87869447122064 3.540969005117702, -95.92580193535028 3.2990821329780546, -96.03990281804565 2.713198215567455 C-96.08876383798085 2.334241793649734, -96.13762485791605 1.9552853717320127, -96.17925742013637 1.6323914404306026 C-96.20078652479991 1.297058257315436, -96.22231562946345 0.9617250742002693, -96.2490781754117 0.54487681871814 C-96.2490781754117 0.3032619701397521, -96.2490781754117 0.06164712156136426, -96.2490781754117 -0.5448768187181317 C-96.22502062306452 -0.9195926154320742, -96.20096307071735 -1.2943084121460164, -96.17925742013637 -1.6323914404305793 C-96.14111960395729 -1.9281808115518768, -96.1029817877782 -2.2239701826731744, -96.03990281804565 -2.713198215567447 C-95.96674049988883 -3.088871256441324, -95.893578181732 -3.4645442973152005, -95.831587007091 -3.782855877257341 C-95.7454077381385 -4.11149478010466, -95.659228469186 -4.44013368295198, -95.55516600162323 -4.836968972727544 C-95.43849731645192 -5.188356463832983, -95.32182863128058 -5.539743954938422, -95.21177567484594 -5.871205925162218 C-95.09144336215488 -6.168429063976144, -94.9711110494638 -6.4656522027900705, -94.80282709126881 -6.881316833080692 C-94.63705058393089 -7.225555297616918, -94.47127407659296 -7.569793762153143, -94.330000708341 -7.863150934094194 C-94.15696990989161 -8.170384638009358, -93.98393911144224 -8.477618341924522, -93.79523947109088 -8.812673661278929 C-93.64307736034351 -9.046435524634738, -93.49091524959614 -9.280197387990546, -93.20074082814826 -9.725983222076884 C-93.02663102884765 -9.959274491410682, -92.85252122954702 -10.192565760744477, -92.54894770195651 -10.599326631598467 C-92.3337747137171 -10.852081067274353, -92.1186017254777 -11.10483550295024, -91.84253845028037 -11.42911513444238 C-91.5467698505003 -11.734520496768948, -91.25100125072022 -12.039925859095515, -91.08441586025927 -12.21193895166136 C-90.80275223589818 -12.467738402894986, -90.52108861153708 -12.723537854128613, -90.27769522023242 -12.944581292275274 C-90.05226125571109 -13.124358879931297, -89.82682729118974 -13.30413646758732, -89.42569151835067 -13.624031571755259 C-89.07949639884825 -13.865522300574968, -88.73330127934582 -14.107013029394677, -88.53190582057934 -14.247497783161284 C-88.21052013415792 -14.44232367494188, -87.88913444773651 -14.637149566722476, -87.60001088406695 -14.812417970097618 C-87.33843763165532 -14.948880568335095, -87.07686437924372 -15.08534316657257, -86.63383606499849 -15.316470754341124 C-86.28773662720387 -15.469678708777753, -85.94163718940926 -15.622886663214382, -85.63735158294936 -15.757584874882365 C-85.3590416639623 -15.860005497738294, -85.08073174497524 -15.962426120594223, -84.61465220640156 -16.133947699181363 C-84.40428300945806 -16.196384172583745, -84.19391381251455 -16.25882064598613, -83.56994042646164 -16.444012671663494 C-83.15319231800746 -16.5391327078826, -82.73644420955328 -16.634252744101705, -82.50750918792333 -16.68650566884811 C-82.19723994271111 -16.73666759424009, -81.88697069749888 -16.786829519632068, -81.43172424863661 -16.86043023499518 C-81.0030641067588 -16.901782563342888, -80.57440396488097 -16.943134891690594, -80.34700623967213 -16.965071676755716 C-79.96096111356125 -16.977451392558837, -79.57491598745037 -16.98983110836196, -79.2578125 -17 C-79.2578125 -17, -79.2578125 -17, -79.2578125 -17" stroke="none" stroke-width="0" fill="#ECECFF" style=""></path><path d="M-79.2578125 -17 C-43.49571901861824 -17, -7.7336255372364775 -17, 79.2578125 -17 M-79.2578125 -17 C-45.11472280837191 -17, -10.971633116743817 -17, 79.2578125 -17 M79.2578125 -17 C79.2578125 -17, 79.2578125 -17, 79.2578125 -17 M79.2578125 -17 C79.2578125 -17, 79.2578125 -17, 79.2578125 -17 M79.2578125 -17 C79.63610510258655 -16.98786889253693, 80.01439770517312 -16.97573778507386, 80.34700623967211 -16.965071676755716 M79.2578125 -17 C79.58729245059276 -16.98943421927831, 79.91677240118553 -16.978868438556617, 80.34700623967211 -16.965071676755716 M80.34700623967211 -16.965071676755716 C80.7166798873022 -16.92940970456645, 81.0863535349323 -16.893747732377186, 81.4317242486366 -16.860430234995185 M80.34700623967211 -16.965071676755716 C80.5652209483748 -16.94402076624875, 80.7834356570775 -16.922969855741787, 81.4317242486366 -16.860430234995185 M81.4317242486366 -16.860430234995185 C81.73228696123854 -16.81183758652035, 82.0328496738405 -16.763244938045517, 82.50750918792333 -16.686505668848113 M81.4317242486366 -16.860430234995185 C81.68927372342772 -16.818791633236966, 81.94682319821882 -16.777153031478747, 82.50750918792333 -16.686505668848113 M82.50750918792333 -16.686505668848113 C82.89404951969955 -16.59828036053159, 83.28058985147575 -16.510055052215062, 83.56994042646163 -16.4440126716635 M82.50750918792333 -16.686505668848113 C82.86838983142268 -16.60413701693567, 83.22927047492202 -16.521768365023227, 83.56994042646163 -16.4440126716635 M83.56994042646163 -16.4440126716635 C83.91092117681514 -16.342811374803063, 84.25190192716863 -16.241610077942624, 84.61465220640156 -16.133947699181366 M83.56994042646163 -16.4440126716635 C83.93325150240236 -16.336183851383044, 84.29656257834309 -16.22835503110259, 84.61465220640156 -16.133947699181366 M84.61465220640156 -16.133947699181366 C84.95068745115262 -16.01028362283723, 85.28672269590366 -15.886619546493089, 85.63735158294936 -15.757584874882369 M84.61465220640156 -16.133947699181366 C84.82978224126006 -16.05477785771319, 85.04491227611858 -15.975608016245017, 85.63735158294936 -15.757584874882369 M85.63735158294936 -15.757584874882369 C85.91091062662325 -15.636488401088652, 86.18446967029712 -15.515391927294937, 86.63383606499849 -15.316470754341125 M85.63735158294936 -15.757584874882369 C85.90008577616535 -15.64128024127858, 86.16281996938135 -15.524975607674792, 86.63383606499849 -15.316470754341125 M86.63383606499849 -15.316470754341125 C86.97677367074711 -15.137560425084091, 87.31971127649572 -14.958650095827057, 87.60001088406693 -14.812417970097622 M86.63383606499849 -15.316470754341125 C86.95417339827684 -15.149350972755663, 87.2745107315552 -14.9822311911702, 87.60001088406693 -14.812417970097622 M87.60001088406693 -14.812417970097622 C87.79240133108065 -14.695789750506144, 87.98479177809438 -14.579161530914664, 88.53190582057933 -14.247497783161291 M87.60001088406693 -14.812417970097622 C87.88258071735648 -14.641122476592843, 88.16515055064602 -14.469826983088062, 88.53190582057933 -14.247497783161291 M88.53190582057933 -14.247497783161291 C88.74370020291661 -14.099759190473845, 88.95549458525389 -13.952020597786397, 89.42569151835067 -13.624031571755262 M88.53190582057933 -14.247497783161291 C88.8010881292889 -14.059727857319826, 89.07027043799847 -13.871957931478363, 89.42569151835067 -13.624031571755262 M89.42569151835067 -13.624031571755262 C89.75754927810638 -13.359383839455953, 90.0894070378621 -13.094736107156642, 90.2776952202324 -12.944581292275288 M89.42569151835067 -13.624031571755262 C89.7557028407974 -13.360856324074115, 90.0857141632441 -13.097681076392968, 90.2776952202324 -12.944581292275288 M90.2776952202324 -12.944581292275288 C90.59219051170686 -12.658964989647613, 90.90668580318133 -12.373348687019936, 91.08441586025927 -12.21193895166137 M90.2776952202324 -12.944581292275288 C90.594764749396 -12.656627135088936, 90.9118342785596 -12.368672977902584, 91.08441586025927 -12.21193895166137 M91.08441586025927 -12.21193895166137 C91.364638778477 -11.922585781872106, 91.64486169669473 -11.633232612082844, 91.84253845028036 -11.42911513444239 M91.08441586025927 -12.21193895166137 C91.28966018935853 -12.000007330993576, 91.4949045184578 -11.78807571032578, 91.84253845028036 -11.42911513444239 M91.84253845028036 -11.42911513444239 C92.03611377993602 -11.201730537480568, 92.22968910959166 -10.974345940518749, 92.54894770195651 -10.59932663159847 M91.84253845028036 -11.42911513444239 C92.03426802073645 -11.20389867126305, 92.22599759119254 -10.978682208083711, 92.54894770195651 -10.59932663159847 M92.54894770195651 -10.59932663159847 C92.76874713105757 -10.304815420742983, 92.98854656015861 -10.010304209887494, 93.20074082814824 -9.725983222076888 M92.54894770195651 -10.59932663159847 C92.6828561912454 -10.419901455265686, 92.8167646805343 -10.240476278932901, 93.20074082814824 -9.725983222076888 M93.20074082814824 -9.725983222076888 C93.34616515082058 -9.502572410553745, 93.49158947349294 -9.2791615990306, 93.79523947109088 -8.812673661278927 M93.20074082814824 -9.725983222076888 C93.3608407850932 -9.480026695351413, 93.52094074203818 -9.234070168625937, 93.79523947109088 -8.812673661278927 M93.79523947109088 -8.812673661278927 C93.91031363287922 -8.608347834501302, 94.02538779466755 -8.404022007723677, 94.330000708341 -7.863150934094199 M93.79523947109088 -8.812673661278927 C93.98246265623007 -8.480239937661029, 94.16968584136926 -8.147806214043133, 94.330000708341 -7.863150934094199 M94.330000708341 -7.863150934094199 C94.50642971228962 -7.496792332418944, 94.68285871623824 -7.130433730743688, 94.80282709126881 -6.881316833080699 M94.330000708341 -7.863150934094199 C94.51774696568349 -7.473291813596147, 94.70549322302598 -7.083432693098095, 94.80282709126881 -6.881316833080699 M94.80282709126881 -6.881316833080699 C94.95414522114221 -6.507558126756381, 95.10546335101562 -6.133799420432063, 95.21177567484592 -5.871205925162238 M94.80282709126881 -6.881316833080699 C94.8866052314195 -6.6743832071683675, 94.97038337157018 -6.4674495812560355, 95.21177567484592 -5.871205925162238 M95.21177567484592 -5.871205925162238 C95.32564298654631 -5.528255724613011, 95.4395102982467 -5.185305524063784, 95.55516600162323 -4.836968972727556 M95.21177567484592 -5.871205925162238 C95.28277719057354 -5.6573606723459, 95.35377870630117 -5.44351541952956, 95.55516600162323 -4.836968972727556 M95.55516600162323 -4.836968972727556 C95.64725614090132 -4.485789359541399, 95.73934628017939 -4.134609746355243, 95.831587007091 -3.7828558772573464 M95.55516600162323 -4.836968972727556 C95.64021284290907 -4.5126485073705105, 95.7252596841949 -4.188328042013466, 95.831587007091 -3.7828558772573464 M95.831587007091 -3.7828558772573464 C95.87445702633507 -3.562727389020817, 95.91732704557914 -3.342598900784288, 96.03990281804565 -2.713198215567453 M95.831587007091 -3.7828558772573464 C95.91209496229112 -3.369464542667079, 95.99260291749124 -2.9560732080768113, 96.03990281804565 -2.713198215567453 M96.03990281804565 -2.713198215567453 C96.06935210517796 -2.484795359988824, 96.09880139231025 -2.256392504410196, 96.17925742013637 -1.632391440430593 M96.03990281804565 -2.713198215567453 C96.08006746061757 -2.401689179185354, 96.12023210318951 -2.0901801428032547, 96.17925742013637 -1.632391440430593 M96.17925742013637 -1.632391440430593 C96.20691655846124 -1.2015780349660272, 96.23457569678612 -0.7707646295014614, 96.2490781754117 -0.5448768187181379 M96.17925742013637 -1.632391440430593 C96.2008272473214 -1.2964239711725356, 96.22239707450645 -0.960456501914478, 96.2490781754117 -0.5448768187181379 M96.2490781754117 -0.5448768187181379 C96.2490781754117 -0.25207834444152344, 96.2490781754117 0.04072012983509099, 96.2490781754117 0.5448768187181336 M96.2490781754117 -0.5448768187181379 C96.2490781754117 -0.1831320702375987, 96.2490781754117 0.17861267824294047, 96.2490781754117 0.5448768187181336 M96.2490781754117 0.5448768187181336 C96.225217193084 0.9165308787101755, 96.20135621075632 1.2881849387022173, 96.17925742013637 1.6323914404305815 M96.2490781754117 0.5448768187181336 C96.22900951497218 0.8574624041947082, 96.20894085453267 1.1700479896712828, 96.17925742013637 1.6323914404305815 M96.17925742013637 1.6323914404305815 C96.14843908156129 1.8714123886495606, 96.11762074298622 2.1104333368685397, 96.03990281804565 2.7131982155674415 M96.17925742013637 1.6323914404305815 C96.14171381757049 1.923572208108631, 96.10417021500461 2.2147529757866806, 96.03990281804565 2.7131982155674415 M96.03990281804565 2.7131982155674415 C95.96861141563198 3.079264499518354, 95.89732001321833 3.4453307834692666, 95.831587007091 3.782855877257343 M96.03990281804565 2.7131982155674415 C95.96834978829911 3.080607900577769, 95.89679675855255 3.4480175855880963, 95.831587007091 3.782855877257343 M95.831587007091 3.782855877257343 C95.77358338220128 4.00404883789191, 95.71557975731156 4.2252417985264765, 95.55516600162323 4.836968972727545 M95.831587007091 3.782855877257343 C95.73116745024373 4.165799169627254, 95.63074789339645 4.548742461997167, 95.55516600162323 4.836968972727545 M95.55516600162323 4.836968972727545 C95.43594675561441 5.196038346698824, 95.3167275096056 5.555107720670104, 95.21177567484592 5.871205925162227 M95.55516600162323 4.836968972727545 C95.46424188689777 5.110817919490293, 95.37331777217231 5.384666866253041, 95.21177567484592 5.871205925162227 M95.21177567484592 5.871205925162227 C95.09497525889743 6.15970521073742, 94.97817484294895 6.448204496312614, 94.80282709126881 6.881316833080694 M95.21177567484592 5.871205925162227 C95.11632488218633 6.106971228446949, 95.02087408952674 6.3427365317316715, 94.80282709126881 6.881316833080694 M94.80282709126881 6.881316833080694 C94.65427097445627 7.1897967882336395, 94.50571485764372 7.498276743386586, 94.330000708341 7.863150934094196 M94.80282709126881 6.881316833080694 C94.67026219715282 7.156590672146881, 94.53769730303685 7.4318645112130675, 94.330000708341 7.863150934094196 M94.330000708341 7.863150934094196 C94.12126700320154 8.233778764148923, 93.91253329806209 8.604406594203653, 93.79523947109088 8.812673661278923 M94.330000708341 7.863150934094196 C94.13591337187314 8.207772653466849, 93.94182603540528 8.552394372839503, 93.79523947109088 8.812673661278923 M93.79523947109088 8.812673661278923 C93.6151568100642 9.089328987581284, 93.43507414903752 9.365984313883645, 93.20074082814826 9.725983222076879 M93.79523947109088 8.812673661278923 C93.66480512163315 9.013055848573003, 93.53437077217542 9.213438035867082, 93.20074082814826 9.725983222076879 M93.20074082814826 9.725983222076879 C92.99244720892379 10.005077695898569, 92.78415358969934 10.284172169720259, 92.54894770195651 10.599326631598467 M93.20074082814826 9.725983222076879 C93.0397564737876 9.941687590943765, 92.87877211942694 10.157391959810653, 92.54894770195651 10.599326631598467 M92.54894770195651 10.599326631598467 C92.36164252195582 10.819345953993954, 92.17433734195512 11.039365276389443, 91.84253845028037 11.42911513444238 M92.54894770195651 10.599326631598467 C92.31483777272928 10.874325475701118, 92.08072784350205 11.14932431980377, 91.84253845028037 11.42911513444238 M91.84253845028037 11.42911513444238 C91.66542500770076 11.6119993051899, 91.48831156512114 11.79488347593742, 91.08441586025927 12.211938951661365 M91.84253845028037 11.42911513444238 C91.56273777007522 11.718032308817273, 91.28293708987005 12.006949483192166, 91.08441586025927 12.211938951661365 M91.08441586025927 12.211938951661365 C90.78576398214555 12.483166685468557, 90.48711210403185 12.754394419275748, 90.27769522023242 12.944581292275275 M91.08441586025927 12.211938951661365 C90.81360304450358 12.457883985616226, 90.54279022874789 12.703829019571087, 90.27769522023242 12.944581292275275 M90.27769522023242 12.944581292275275 C89.99890170280725 13.166911703414769, 89.72010818538207 13.389242114554264, 89.42569151835067 13.62403157175526 M90.27769522023242 12.944581292275275 C89.97049834439186 13.18956262590593, 89.66330146855131 13.434543959536587, 89.42569151835067 13.62403157175526 M89.42569151835067 13.62403157175526 C89.1322335643342 13.828735136887069, 88.83877561031773 14.033438702018879, 88.53190582057934 14.247497783161286 M89.42569151835067 13.62403157175526 C89.22178313376867 13.766269233787964, 89.01787474918667 13.908506895820668, 88.53190582057934 14.247497783161286 M88.53190582057934 14.247497783161286 C88.17266892169805 14.465269302373473, 87.81343202281676 14.683040821585658, 87.60001088406695 14.81241797009762 M88.53190582057934 14.247497783161286 C88.25781872341238 14.413650992178466, 87.98373162624543 14.579804201195646, 87.60001088406695 14.81241797009762 M87.60001088406695 14.81241797009762 C87.32522532321404 14.955773421186027, 87.05043976236114 15.099128872274433, 86.63383606499849 15.316470754341124 M87.60001088406695 14.81241797009762 C87.33251709612216 14.951969307930469, 87.06502330817736 15.091520645763318, 86.63383606499849 15.316470754341124 M86.63383606499849 15.316470754341124 C86.42482036109465 15.408995806228793, 86.2158046571908 15.501520858116464, 85.63735158294936 15.757584874882367 M86.63383606499849 15.316470754341124 C86.33082272915776 15.450605769546568, 86.02780939331704 15.584740784752013, 85.63735158294936 15.757584874882367 M85.63735158294936 15.757584874882367 C85.30082259273263 15.88143065412201, 84.9642936025159 16.00527643336165, 84.61465220640156 16.133947699181363 M85.63735158294936 15.757584874882367 C85.43017759715454 15.833826816750191, 85.22300361135973 15.910068758618017, 84.61465220640156 16.133947699181363 M84.61465220640156 16.133947699181363 C84.2547928458719 16.240752068446234, 83.89493348534226 16.347556437711106, 83.56994042646164 16.444012671663497 M84.61465220640156 16.133947699181363 C84.29343419310509 16.229283519419997, 83.97221617980861 16.324619339658632, 83.56994042646164 16.444012671663497 M83.56994042646164 16.444012671663497 C83.34505612099515 16.495341046878984, 83.12017181552865 16.546669422094475, 82.50750918792333 16.68650566884811 M83.56994042646164 16.444012671663497 C83.21405058972954 16.525242204499374, 82.85816075299743 16.606471737335255, 82.50750918792333 16.68650566884811 M82.50750918792333 16.68650566884811 C82.2891035195389 16.72181580355125, 82.07069785115445 16.757125938254394, 81.43172424863661 16.86043023499518 M82.50750918792333 16.68650566884811 C82.21396410748112 16.733963760977907, 81.92041902703892 16.781421853107705, 81.43172424863661 16.86043023499518 M81.43172424863661 16.86043023499518 C81.16036527809392 16.886607908526525, 80.88900630755123 16.912785582057868, 80.34700623967211 16.965071676755716 M81.43172424863661 16.86043023499518 C81.01902490668813 16.900242844169377, 80.60632556473965 16.940055453343568, 80.34700623967211 16.965071676755716 M80.34700623967211 16.965071676755716 C80.08854193136162 16.973360124052977, 79.83007762305114 16.981648571350238, 79.2578125 17 M80.34700623967211 16.965071676755716 C80.02047689536947 16.97554283727669, 79.69394755106683 16.986013997797663, 79.2578125 17 M79.2578125 17 C79.2578125 17, 79.2578125 17, 79.2578125 17 M79.2578125 17 C79.2578125 17, 79.2578125 17, 79.2578125 17 M79.2578125 17 C21.395226085046247 17, -36.46736032990751 17, -79.2578125 17 M79.2578125 17 C29.71387503608105 17, -19.830062427837902 17, -79.2578125 17 M-79.2578125 17 C-79.63796771629129 16.987809162140778, -80.01812293258256 16.975618324281555, -80.34700623967211 16.965071676755716 M-79.2578125 17 C-79.47788576797495 16.992942678642674, -79.69795903594989 16.985885357285348, -80.34700623967211 16.965071676755716 M-80.34700623967211 16.965071676755716 C-80.70654506473511 16.93038739871059, -81.06608388979811 16.895703120665463, -81.4317242486366 16.86043023499518 M-80.34700623967211 16.965071676755716 C-80.68970646636427 16.932011798044048, -81.03240669305642 16.89895191933238, -81.4317242486366 16.86043023499518 M-81.4317242486366 16.86043023499518 C-81.74153430654738 16.81034254744505, -82.05134436445815 16.760254859894918, -82.50750918792333 16.68650566884811 M-81.4317242486366 16.86043023499518 C-81.70238079108526 16.816672584184918, -81.97303733353394 16.77291493337465, -82.50750918792333 16.68650566884811 M-82.50750918792333 16.68650566884811 C-82.87147321264264 16.60343325529315, -83.23543723736195 16.520360841738196, -83.56994042646161 16.4440126716635 M-82.50750918792333 16.68650566884811 C-82.76608301169502 16.627487880924114, -83.0246568354667 16.56847009300012, -83.56994042646161 16.4440126716635 M-83.56994042646161 16.4440126716635 C-83.88474354560854 16.350580758335987, -84.19954666475546 16.257148845008473, -84.61465220640154 16.13394769918137 M-83.56994042646161 16.4440126716635 C-83.81474081050574 16.371357202662644, -84.05954119454987 16.298701733661783, -84.61465220640154 16.13394769918137 M-84.61465220640154 16.13394769918137 C-84.87628509964887 16.037664375958403, -85.13791799289619 15.941381052735434, -85.63735158294936 15.757584874882369 M-84.61465220640154 16.13394769918137 C-84.96134357966001 16.006362069042332, -85.30803495291848 15.87877643890329, -85.63735158294936 15.757584874882369 M-85.63735158294936 15.757584874882369 C-85.8955476265268 15.643289145504138, -86.15374367010426 15.528993416125907, -86.63383606499849 15.316470754341127 M-85.63735158294936 15.757584874882369 C-85.88600796492662 15.647512070710537, -86.13466434690388 15.537439266538705, -86.63383606499849 15.316470754341127 M-86.63383606499849 15.316470754341127 C-86.94229362181716 15.155548644525325, -87.25075117863581 14.994626534709523, -87.60001088406693 14.812417970097624 M-86.63383606499849 15.316470754341127 C-86.92849199345952 15.162748945199139, -87.22314792192054 15.00902713605715, -87.60001088406693 14.812417970097624 M-87.60001088406693 14.812417970097624 C-87.91468447226531 14.621660991704502, -88.22935806046368 14.43090401331138, -88.53190582057931 14.247497783161299 M-87.60001088406693 14.812417970097624 C-87.84987953986314 14.660946122562757, -88.09974819565933 14.509474275027891, -88.53190582057931 14.247497783161299 M-88.53190582057931 14.247497783161299 C-88.76443147568081 14.085297952035868, -88.99695713078232 13.923098120910435, -89.42569151835067 13.624031571755264 M-88.53190582057931 14.247497783161299 C-88.87105262150641 14.010923656262948, -89.2101994224335 13.774349529364597, -89.42569151835067 13.624031571755264 M-89.42569151835067 13.624031571755264 C-89.64260141714433 13.451051699682145, -89.859511315938 13.278071827609027, -90.2776952202324 12.94458129227529 M-89.42569151835067 13.624031571755264 C-89.76450063325342 13.353840318709521, -90.10330974815618 13.083649065663778, -90.2776952202324 12.94458129227529 M-90.2776952202324 12.94458129227529 C-90.54862798058468 12.698527327811359, -90.81956074093698 12.45247336334743, -91.08441586025926 12.211938951661377 M-90.2776952202324 12.94458129227529 C-90.47347834320891 12.766776240125596, -90.66926146618542 12.588971187975902, -91.08441586025926 12.211938951661377 M-91.08441586025926 12.211938951661377 C-91.33003905970125 11.958312832197814, -91.57566225914323 11.704686712734249, -91.84253845028036 11.429115134442386 M-91.08441586025926 12.211938951661377 C-91.33162925752295 11.95667082238923, -91.57884265478665 11.70140269311708, -91.84253845028036 11.429115134442386 M-91.84253845028036 11.429115134442386 C-92.11735779553374 11.106296693844033, -92.39217714078711 10.783478253245681, -92.54894770195651 10.599326631598473 M-91.84253845028036 11.429115134442386 C-92.1233648148888 11.099240507100479, -92.40419117949726 10.769365879758574, -92.54894770195651 10.599326631598473 M-92.54894770195651 10.599326631598473 C-92.80411232203777 10.257429286664681, -93.05927694211903 9.915531941730888, -93.20074082814824 9.72598322207689 M-92.54894770195651 10.599326631598473 C-92.79273853375346 10.272669126792229, -93.03652936555041 9.946011621985983, -93.20074082814824 9.72598322207689 M-93.20074082814824 9.72598322207689 C-93.36609905917231 9.471948574321614, -93.53145729019639 9.217913926566338, -93.79523947109088 8.812673661278936 M-93.20074082814824 9.72598322207689 C-93.4272305913157 9.37803412483451, -93.65372035448317 9.03008502759213, -93.79523947109088 8.812673661278936 M-93.79523947109088 8.812673661278936 C-93.93002037532374 8.573356517767019, -94.06480127955658 8.3340393742551, -94.330000708341 7.863150934094201 M-93.79523947109088 8.812673661278936 C-94.00521147457422 8.439847107123335, -94.21518347805757 8.067020552967731, -94.330000708341 7.863150934094201 M-94.330000708341 7.863150934094201 C-94.44771565664357 7.6187133252475325, -94.56543060494612 7.374275716400865, -94.80282709126881 6.881316833080701 M-94.330000708341 7.863150934094201 C-94.51190762396241 7.485417331621847, -94.69381453958384 7.107683729149493, -94.80282709126881 6.881316833080701 M-94.80282709126881 6.881316833080701 C-94.9204347260324 6.590823701425691, -95.038042360796 6.300330569770682, -95.21177567484592 5.87120592516224 M-94.80282709126881 6.881316833080701 C-94.89861653371865 6.6447150582667245, -94.99440597616848 6.408113283452748, -95.21177567484592 5.87120592516224 M-95.21177567484592 5.87120592516224 C-95.30722980640839 5.583713289446621, -95.40268393797083 5.296220653731003, -95.55516600162323 4.8369689727275516 M-95.21177567484592 5.87120592516224 C-95.32104485636017 5.5421045601211025, -95.43031403787444 5.213003195079965, -95.55516600162323 4.8369689727275516 M-95.55516600162323 4.8369689727275516 C-95.63480932761067 4.533254453101647, -95.7144526535981 4.229539933475743, -95.831587007091 3.782855877257349 M-95.55516600162323 4.8369689727275516 C-95.65974650993365 4.438158169060917, -95.76432701824406 4.039347365394282, -95.831587007091 3.782855877257349 M-95.831587007091 3.782855877257349 C-95.88332915179195 3.5171708999240936, -95.93507129649291 3.2514859225908377, -96.03990281804565 2.713198215567455 M-95.831587007091 3.782855877257349 C-95.88671658270935 3.499777158097059, -95.94184615832769 3.2166984389367688, -96.03990281804565 2.713198215567455 M-96.03990281804565 2.713198215567455 C-96.08568330555094 2.358133794856183, -96.13146379305624 2.0030693741449115, -96.17925742013637 1.6323914404306026 M-96.03990281804565 2.713198215567455 C-96.0899714457702 2.324875826104666, -96.14004007349476 1.9365534366418768, -96.17925742013637 1.6323914404306026 M-96.17925742013637 1.6323914404306026 C-96.20465454826106 1.2368106696956778, -96.23005167638576 0.841229898960753, -96.2490781754117 0.54487681871814 M-96.17925742013637 1.6323914404306026 C-96.20258112471828 1.2691059150118225, -96.22590482930019 0.9058203895930423, -96.2490781754117 0.54487681871814 M-96.2490781754117 0.54487681871814 C-96.2490781754117 0.1555846902209973, -96.2490781754117 -0.23370743827614537, -96.2490781754117 -0.5448768187181317 M-96.2490781754117 0.54487681871814 C-96.2490781754117 0.2418376104874453, -96.2490781754117 -0.0612015977432494, -96.2490781754117 -0.5448768187181317 M-96.2490781754117 -0.5448768187181317 C-96.23164139307003 -0.8164687784068582, -96.21420461072837 -1.0880607380955847, -96.17925742013637 -1.6323914404305793 M-96.2490781754117 -0.5448768187181317 C-96.22872041431928 -0.8619653802213305, -96.20836265322689 -1.1790539417245294, -96.17925742013637 -1.6323914404305793 M-96.17925742013637 -1.6323914404305793 C-96.14315735937706 -1.9123763829164495, -96.10705729861775 -2.1923613254023198, -96.03990281804565 -2.713198215567447 M-96.17925742013637 -1.6323914404305793 C-96.13169956631987 -2.001240763270853, -96.08414171250337 -2.3700900861111265, -96.03990281804565 -2.713198215567447 M-96.03990281804565 -2.713198215567447 C-95.97890966371796 -3.0263851721324113, -95.91791650939027 -3.339572128697376, -95.831587007091 -3.782855877257341 M-96.03990281804565 -2.713198215567447 C-95.97151776091656 -3.064341030738374, -95.90313270378748 -3.415483845909301, -95.831587007091 -3.782855877257341 M-95.831587007091 -3.782855877257341 C-95.76400883153022 -4.040560749237167, -95.69643065596944 -4.298265621216992, -95.55516600162323 -4.836968972727544 M-95.831587007091 -3.782855877257341 C-95.76868796798098 -4.022717173999855, -95.70578892887096 -4.262578470742369, -95.55516600162323 -4.836968972727544 M-95.55516600162323 -4.836968972727544 C-95.46286484730607 -5.114965343339045, -95.37056369298891 -5.392961713950546, -95.21177567484594 -5.871205925162218 M-95.55516600162323 -4.836968972727544 C-95.47849716084905 -5.067883305618526, -95.40182832007486 -5.298797638509508, -95.21177567484594 -5.871205925162218 M-95.21177567484594 -5.871205925162218 C-95.07437065156287 -6.210598989216792, -94.93696562827981 -6.5499920532713665, -94.80282709126881 -6.881316833080692 M-95.21177567484594 -5.871205925162218 C-95.10715664067627 -6.129616962232728, -95.00253760650659 -6.388027999303237, -94.80282709126881 -6.881316833080692 M-94.80282709126881 -6.881316833080692 C-94.64198080662368 -7.215317584705468, -94.48113452197855 -7.549318336330243, -94.330000708341 -7.863150934094194 M-94.80282709126881 -6.881316833080692 C-94.70714292571297 -7.0800070501705585, -94.61145876015713 -7.278697267260425, -94.330000708341 -7.863150934094194 M-94.330000708341 -7.863150934094194 C-94.12014611602392 -8.235769012834933, -93.91029152370683 -8.60838709157567, -93.79523947109088 -8.812673661278929 M-94.330000708341 -7.863150934094194 C-94.15919100373665 -8.16644086097737, -93.98838129913229 -8.469730787860549, -93.79523947109088 -8.812673661278929 M-93.79523947109088 -8.812673661278929 C-93.66230624866873 -9.016894788487704, -93.52937302624659 -9.221115915696478, -93.20074082814826 -9.725983222076884 M-93.79523947109088 -8.812673661278929 C-93.631617444622 -9.06404103260123, -93.46799541815312 -9.315408403923533, -93.20074082814826 -9.725983222076884 M-93.20074082814826 -9.725983222076884 C-93.04092618437302 -9.94012028532213, -92.88111154059779 -10.154257348567379, -92.54894770195651 -10.599326631598467 M-93.20074082814826 -9.725983222076884 C-93.06740541433241 -9.904640529484027, -92.93407000051657 -10.083297836891171, -92.54894770195651 -10.599326631598467 M-92.54894770195651 -10.599326631598467 C-92.39903109924155 -10.775427203643803, -92.2491144965266 -10.951527775689138, -91.84253845028037 -11.42911513444238 M-92.54894770195651 -10.599326631598467 C-92.30281882777572 -10.888443612340907, -92.05668995359494 -11.177560593083346, -91.84253845028037 -11.42911513444238 M-91.84253845028037 -11.42911513444238 C-91.61986440872975 -11.6590443642222, -91.39719036717914 -11.88897359400202, -91.08441586025927 -12.21193895166136 M-91.84253845028037 -11.42911513444238 C-91.54414133347937 -11.737234656398316, -91.24574421667837 -12.04535417835425, -91.08441586025927 -12.21193895166136 M-91.08441586025927 -12.21193895166136 C-90.8581539721708 -12.417424011861812, -90.63189208408231 -12.622909072062264, -90.27769522023242 -12.944581292275274 M-91.08441586025927 -12.21193895166136 C-90.89735255278853 -12.381824898082392, -90.7102892453178 -12.551710844503425, -90.27769522023242 -12.944581292275274 M-90.27769522023242 -12.944581292275274 C-89.97391143545414 -13.186840776609932, -89.67012765067585 -13.429100260944592, -89.42569151835067 -13.624031571755259 M-90.27769522023242 -12.944581292275274 C-90.09901949003803 -13.087070432344424, -89.92034375984366 -13.229559572413574, -89.42569151835067 -13.624031571755259 M-89.42569151835067 -13.624031571755259 C-89.096427983907 -13.853711559794489, -88.76716444946332 -14.08339154783372, -88.53190582057934 -14.247497783161284 M-89.42569151835067 -13.624031571755259 C-89.19216123007749 -13.786932191491385, -88.95863094180432 -13.949832811227513, -88.53190582057934 -14.247497783161284 M-88.53190582057934 -14.247497783161284 C-88.22320596817222 -14.434633447812176, -87.9145061157651 -14.62176911246307, -87.60001088406695 -14.812417970097618 M-88.53190582057934 -14.247497783161284 C-88.19452647877904 -14.45201912282171, -87.85714713697874 -14.656540462482138, -87.60001088406695 -14.812417970097618 M-87.60001088406695 -14.812417970097618 C-87.32879709472881 -14.953910030274598, -87.05758330539068 -15.095402090451577, -86.63383606499849 -15.316470754341124 M-87.60001088406695 -14.812417970097618 C-87.32028987131318 -14.958348243281403, -87.0405688585594 -15.104278516465186, -86.63383606499849 -15.316470754341124 M-86.63383606499849 -15.316470754341124 C-86.41119558697329 -15.41502708956775, -86.1885551089481 -15.51358342479438, -85.63735158294936 -15.757584874882365 M-86.63383606499849 -15.316470754341124 C-86.25816920248641 -15.482767330613678, -85.88250233997435 -15.649063906886232, -85.63735158294936 -15.757584874882365 M-85.63735158294936 -15.757584874882365 C-85.42897222572745 -15.834270404577694, -85.22059286850553 -15.910955934273021, -84.61465220640156 -16.133947699181363 M-85.63735158294936 -15.757584874882365 C-85.27768668109343 -15.889944883471255, -84.9180217792375 -16.022304892060145, -84.61465220640156 -16.133947699181363 M-84.61465220640156 -16.133947699181363 C-84.36941878596565 -16.20673169111025, -84.12418536552974 -16.279515683039133, -83.56994042646164 -16.444012671663494 M-84.61465220640156 -16.133947699181363 C-84.25638514404035 -16.240279482707987, -83.89811808167913 -16.346611266234607, -83.56994042646164 -16.444012671663494 M-83.56994042646164 -16.444012671663494 C-83.21384313280461 -16.525289555188703, -82.8577458391476 -16.606566438713912, -82.50750918792333 -16.68650566884811 M-83.56994042646164 -16.444012671663494 C-83.1743483558795 -16.534303980294357, -82.77875628529735 -16.62459528892522, -82.50750918792333 -16.68650566884811 M-82.50750918792333 -16.68650566884811 C-82.18400600366557 -16.73880715487424, -81.86050281940781 -16.791108640900372, -81.43172424863661 -16.86043023499518 M-82.50750918792333 -16.68650566884811 C-82.23674391304205 -16.73028089867485, -81.96597863816076 -16.774056128501588, -81.43172424863661 -16.86043023499518 M-81.43172424863661 -16.86043023499518 C-81.2139686689197 -16.881436853881073, -80.9962130892028 -16.90244347276696, -80.34700623967213 -16.965071676755716 M-81.43172424863661 -16.86043023499518 C-81.09293600009283 -16.893112729879718, -80.75414775154906 -16.925795224764258, -80.34700623967213 -16.965071676755716 M-80.34700623967213 -16.965071676755716 C-79.98758840271158 -16.97659750722266, -79.62817056575105 -16.988123337689608, -79.2578125 -17 M-80.34700623967213 -16.965071676755716 C-79.96164543723009 -16.977429447630733, -79.57628463478805 -16.98978721850575, -79.2578125 -17 M-79.2578125 -17 C-79.2578125 -17, -79.2578125 -17, -79.2578125 -17 M-79.2578125 -17 C-79.2578125 -17, -79.2578125 -17, -79.2578125 -17" stroke="#9370DB" stroke-width="1.3" fill="none" stroke-dasharray="0 0" style=""></path></g><g class="label" style="" transform="translate(0, -9.5)"><rect></rect><g><rect class="background" style="stroke: none"></rect><text y="-10.1" style=""><tspan class="text-outer-tspan row" x="0" y="-0.1em" dy="1.1em"><tspan font-style="normal" class="text-inner-tspan" font-weight="normal">Project</tspan><tspan font-style="normal" class="text-inner-tspan" font-weight="normal"> or</tspan><tspan font-style="normal" class="text-inner-tspan" font-weight="normal"> existing</tspan><tspan font-style="normal" class="text-inner-tspan" font-weight="normal"> repo</tspan></tspan></text></g></g></g><g class="node default" id="g4be4ac7c-aa7d-44b5-ab9a-3aee1f453d0d-light-flowchart-init-1" data-look="classic" transform="translate(203.07421875, 134.0999984741211)"><rect class="basic label-container" style="" x="-122.1640625" y="-42.099998474121094" width="244.328125" height="84.19999694824219"></rect><g class="label" style="" transform="translate(0, -27.099998474121094)"><rect></rect><g><rect class="background" style="stroke: none"></rect><text y="-10.1" style=""><tspan class="text-outer-tspan row" x="0" y="-0.1em" dy="1.1em"><tspan font-style="normal" class="text-inner-tspan" font-weight="normal">pagesmith-docs</tspan><tspan font-style="normal" class="text-inner-tspan" font-weight="normal"> init</tspan></tspan><tspan class="text-outer-tspan row" x="0" y="1em" dy="1.1em"><tspan font-style="normal" class="text-inner-tspan" font-weight="normal">Scaffold</tspan><tspan font-style="normal" class="text-inner-tspan" font-weight="normal"> or</tspan><tspan font-style="normal" class="text-inner-tspan" font-weight="normal"> backfill</tspan><tspan font-style="normal" class="text-inner-tspan" font-weight="normal"> config</tspan></tspan><tspan class="text-outer-tspan row" x="0" y="2.1em" dy="1.1em"><tspan font-style="normal" class="text-inner-tspan" font-weight="normal">and</tspan><tspan font-style="normal" class="text-inner-tspan" font-weight="normal"> starter</tspan><tspan font-style="normal" class="text-inner-tspan" font-weight="normal"> docs</tspan></tspan></text></g></g></g><g class="node default" id="g4be4ac7c-aa7d-44b5-ab9a-3aee1f453d0d-light-flowchart-dev-2" data-look="classic" transform="translate(124.4921875, 291.2999954223633)"><rect class="basic label-container" style="" x="-115.5" y="-33.29999923706055" width="231" height="66.5999984741211"></rect><g class="label" style="" transform="translate(0, -18.299999237060547)"><rect></rect><g><rect class="background" style="stroke: none"></rect><text y="-10.1" style=""><tspan class="text-outer-tspan row" x="0" y="-0.1em" dy="1.1em"><tspan font-style="normal" class="text-inner-tspan" font-weight="normal">pagesmith-docs</tspan><tspan font-style="normal" class="text-inner-tspan" font-weight="normal"> dev</tspan></tspan><tspan class="text-outer-tspan row" x="0" y="1em" dy="1.1em"><tspan font-style="normal" class="text-inner-tspan" font-weight="normal">Live-reload</tspan><tspan font-style="normal" class="text-inner-tspan" font-weight="normal"> editing</tspan><tspan font-style="normal" class="text-inner-tspan" font-weight="normal"> loop</tspan></tspan></text></g></g></g><g class="node default" id="g4be4ac7c-aa7d-44b5-ab9a-3aee1f453d0d-light-flowchart-build-3" data-look="classic" transform="translate(124.4921875, 425.49999237060547)"><rect class="basic label-container" style="" x="-113.9765625" y="-42.099998474121094" width="227.953125" height="84.19999694824219"></rect><g class="label" style="" transform="translate(0, -27.099998474121094)"><rect></rect><g><rect class="background" style="stroke: none"></rect><text y="-10.1" style=""><tspan class="text-outer-tspan row" x="0" y="-0.1em" dy="1.1em"><tspan font-style="normal" class="text-inner-tspan" font-weight="normal">pagesmith-docs</tspan><tspan font-style="normal" class="text-inner-tspan" font-weight="normal"> build</tspan></tspan><tspan class="text-outer-tspan row" x="0" y="1em" dy="1.1em"><tspan font-style="normal" class="text-inner-tspan" font-weight="normal">Static</tspan><tspan font-style="normal" class="text-inner-tspan" font-weight="normal"> output</tspan><tspan font-style="normal" class="text-inner-tspan" font-weight="normal"> +</tspan><tspan font-style="normal" class="text-inner-tspan" font-weight="normal"> assets</tspan><tspan font-style="normal" class="text-inner-tspan" font-weight="normal"> +</tspan></tspan><tspan class="text-outer-tspan row" x="0" y="2.1em" dy="1.1em"><tspan font-style="normal" class="text-inner-tspan" font-weight="normal">Pagefind</tspan></tspan></text></g></g></g><g class="node default" id="g4be4ac7c-aa7d-44b5-ab9a-3aee1f453d0d-light-flowchart-preview-4" data-look="classic" transform="translate(124.4921875, 559.6999893188477)"><rect class="basic label-container" style="" x="-116.4921875" y="-42.099998474121094" width="232.984375" height="84.19999694824219"></rect><g class="label" style="" transform="translate(0, -27.099998474121094)"><rect></rect><g><rect class="background" style="stroke: none"></rect><text y="-10.1" style=""><tspan class="text-outer-tspan row" x="0" y="-0.1em" dy="1.1em"><tspan font-style="normal" class="text-inner-tspan" font-weight="normal">pagesmith-docs</tspan><tspan font-style="normal" class="text-inner-tspan" font-weight="normal"> preview</tspan></tspan><tspan class="text-outer-tspan row" x="0" y="1em" dy="1.1em"><tspan font-style="normal" class="text-inner-tspan" font-weight="normal">Serve</tspan><tspan font-style="normal" class="text-inner-tspan" font-weight="normal"> built</tspan><tspan font-style="normal" class="text-inner-tspan" font-weight="normal"> output</tspan><tspan font-style="normal" class="text-inner-tspan" font-weight="normal"> from</tspan></tspan><tspan class="text-outer-tspan row" x="0" y="2.1em" dy="1.1em"><tspan font-style="normal" class="text-inner-tspan" font-weight="normal">disk</tspan></tspan></text></g></g></g><g class="node default" id="g4be4ac7c-aa7d-44b5-ab9a-3aee1f453d0d-light-flowchart-mcp-5" data-look="classic" transform="translate(516.66015625, 291.2999954223633)"><rect class="basic label-container" style="" x="-128.828125" y="-42.099998474121094" width="257.65625" height="84.19999694824219"></rect><g class="label" style="" transform="translate(0, -27.099998474121094)"><rect></rect><g><rect class="background" style="stroke: none"></rect><text y="-10.1" style=""><tspan class="text-outer-tspan row" x="0" y="-0.1em" dy="1.1em"><tspan font-style="normal" class="text-inner-tspan" font-weight="normal">pagesmith-docs</tspan><tspan font-style="normal" class="text-inner-tspan" font-weight="normal"> mcp</tspan><tspan font-style="normal" class="text-inner-tspan" font-weight="normal"> --stdio</tspan></tspan><tspan class="text-outer-tspan row" x="0" y="1em" dy="1.1em"><tspan font-style="normal" class="text-inner-tspan" font-weight="normal">Expose</tspan><tspan font-style="normal" class="text-inner-tspan" font-weight="normal"> docs-aware</tspan><tspan font-style="normal" class="text-inner-tspan" font-weight="normal"> MCP</tspan></tspan><tspan class="text-outer-tspan row" x="0" y="2.1em" dy="1.1em"><tspan font-style="normal" class="text-inner-tspan" font-weight="normal">tools</tspan></tspan></text></g></g></g></g></g></g><defs><filter id="g4be4ac7c-aa7d-44b5-ab9a-3aee1f453d0d-light-drop-shadow" height="130%" width="130%"><feDropShadow dx="4" dy="4" stdDeviation="0" flood-opacity="0.06" flood-color="#000000"></feDropShadow></filter></defs><defs><filter id="g4be4ac7c-aa7d-44b5-ab9a-3aee1f453d0d-light-drop-shadow-small" height="150%" width="150%"><feDropShadow dx="2" dy="2" stdDeviation="0" flood-opacity="0.06" flood-color="#000000"></feDropShadow></filter></defs></svg>