<svg id="g6eb94159-bb74-4ed7-a93c-a058b27fd9e0-light" width="100%" xmlns="http://www.w3.org/2000/svg" xmlns:xlink="http://www.w3.org/1999/xlink" class="flowchart" style="max-width: 653.48828125px;" viewBox="0 0 653.48828125 609.800048828125" role="graphics-document document" aria-roledescription="flowchart-v2"><rect x="0" y="0" width="653.48828125" height="609.800048828125" fill="#ffffff"/><style>#g6eb94159-bb74-4ed7-a93c-a058b27fd9e0-light{font-family:"trebuchet ms",verdana,arial,sans-serif;font-size:16px;fill:#333;}@keyframes edge-animation-frame{from{stroke-dashoffset:0;}}@keyframes dash{to{stroke-dashoffset:0;}}#g6eb94159-bb74-4ed7-a93c-a058b27fd9e0-light .edge-animation-slow{stroke-dasharray:9,5!important;stroke-dashoffset:900;animation:dash 50s linear infinite;stroke-linecap:round;}#g6eb94159-bb74-4ed7-a93c-a058b27fd9e0-light .edge-animation-fast{stroke-dasharray:9,5!important;stroke-dashoffset:900;animation:dash 20s linear infinite;stroke-linecap:round;}#g6eb94159-bb74-4ed7-a93c-a058b27fd9e0-light .error-icon{fill:#552222;}#g6eb94159-bb74-4ed7-a93c-a058b27fd9e0-light .error-text{fill:#552222;stroke:#552222;}#g6eb94159-bb74-4ed7-a93c-a058b27fd9e0-light .edge-thickness-normal{stroke-width:1px;}#g6eb94159-bb74-4ed7-a93c-a058b27fd9e0-light .edge-thickness-thick{stroke-width:3.5px;}#g6eb94159-bb74-4ed7-a93c-a058b27fd9e0-light .edge-pattern-solid{stroke-dasharray:0;}#g6eb94159-bb74-4ed7-a93c-a058b27fd9e0-light .edge-thickness-invisible{stroke-width:0;fill:none;}#g6eb94159-bb74-4ed7-a93c-a058b27fd9e0-light .edge-pattern-dashed{stroke-dasharray:3;}#g6eb94159-bb74-4ed7-a93c-a058b27fd9e0-light .edge-pattern-dotted{stroke-dasharray:2;}#g6eb94159-bb74-4ed7-a93c-a058b27fd9e0-light .marker{fill:#333333;stroke:#333333;}#g6eb94159-bb74-4ed7-a93c-a058b27fd9e0-light .marker.cross{stroke:#333333;}#g6eb94159-bb74-4ed7-a93c-a058b27fd9e0-light svg{font-family:"trebuchet ms",verdana,arial,sans-serif;font-size:16px;}#g6eb94159-bb74-4ed7-a93c-a058b27fd9e0-light p{margin:0;}#g6eb94159-bb74-4ed7-a93c-a058b27fd9e0-light .label{font-family:"trebuchet ms",verdana,arial,sans-serif;color:#333;}#g6eb94159-bb74-4ed7-a93c-a058b27fd9e0-light .cluster-label text{fill:#333;}#g6eb94159-bb74-4ed7-a93c-a058b27fd9e0-light .cluster-label span{color:#333;}#g6eb94159-bb74-4ed7-a93c-a058b27fd9e0-light .cluster-label span p{background-color:transparent;}#g6eb94159-bb74-4ed7-a93c-a058b27fd9e0-light .label text,#g6eb94159-bb74-4ed7-a93c-a058b27fd9e0-light span{fill:#333;color:#333;}#g6eb94159-bb74-4ed7-a93c-a058b27fd9e0-light .node rect,#g6eb94159-bb74-4ed7-a93c-a058b27fd9e0-light .node circle,#g6eb94159-bb74-4ed7-a93c-a058b27fd9e0-light .node ellipse,#g6eb94159-bb74-4ed7-a93c-a058b27fd9e0-light .node polygon,#g6eb94159-bb74-4ed7-a93c-a058b27fd9e0-light .node path{fill:#ECECFF;stroke:#9370DB;stroke-width:1px;}#g6eb94159-bb74-4ed7-a93c-a058b27fd9e0-light .rough-node .label text,#g6eb94159-bb74-4ed7-a93c-a058b27fd9e0-light .node .label text,#g6eb94159-bb74-4ed7-a93c-a058b27fd9e0-light .image-shape .label,#g6eb94159-bb74-4ed7-a93c-a058b27fd9e0-light .icon-shape .label{text-anchor:middle;}#g6eb94159-bb74-4ed7-a93c-a058b27fd9e0-light .node .katex path{fill:#000;stroke:#000;stroke-width:1px;}#g6eb94159-bb74-4ed7-a93c-a058b27fd9e0-light .rough-node .label,#g6eb94159-bb74-4ed7-a93c-a058b27fd9e0-light .node .label,#g6eb94159-bb74-4ed7-a93c-a058b27fd9e0-light .image-shape .label,#g6eb94159-bb74-4ed7-a93c-a058b27fd9e0-light .icon-shape .label{text-align:center;}#g6eb94159-bb74-4ed7-a93c-a058b27fd9e0-light .node.clickable{cursor:pointer;}#g6eb94159-bb74-4ed7-a93c-a058b27fd9e0-light .root .anchor path{fill:#333333!important;stroke-width:0;stroke:#333333;}#g6eb94159-bb74-4ed7-a93c-a058b27fd9e0-light .arrowheadPath{fill:#333333;}#g6eb94159-bb74-4ed7-a93c-a058b27fd9e0-light .edgePath .path{stroke:#333333;stroke-width:1px;}#g6eb94159-bb74-4ed7-a93c-a058b27fd9e0-light .flowchart-link{stroke:#333333;fill:none;}#g6eb94159-bb74-4ed7-a93c-a058b27fd9e0-light .edgeLabel{background-color:rgba(232,232,232, 0.8);text-align:center;}#g6eb94159-bb74-4ed7-a93c-a058b27fd9e0-light .edgeLabel p{background-color:rgba(232,232,232, 0.8);}#g6eb94159-bb74-4ed7-a93c-a058b27fd9e0-light .edgeLabel rect{opacity:0.5;background-color:rgba(232,232,232, 0.8);fill:rgba(232,232,232, 0.8);}#g6eb94159-bb74-4ed7-a93c-a058b27fd9e0-light .labelBkg{background-color:rgba(232, 232, 232, 0.5);}#g6eb94159-bb74-4ed7-a93c-a058b27fd9e0-light .cluster rect{fill:#ffffde;stroke:#aaaa33;stroke-width:1px;}#g6eb94159-bb74-4ed7-a93c-a058b27fd9e0-light .cluster text{fill:#333;}#g6eb94159-bb74-4ed7-a93c-a058b27fd9e0-light .cluster span{color:#333;}#g6eb94159-bb74-4ed7-a93c-a058b27fd9e0-light div.mermaidTooltip{position:absolute;text-align:center;max-width:200px;padding:2px;font-family:"trebuchet ms",verdana,arial,sans-serif;font-size:12px;background:hsl(80, 100%, 96.2745098039%);border:1px solid #aaaa33;border-radius:2px;pointer-events:none;z-index:100;}#g6eb94159-bb74-4ed7-a93c-a058b27fd9e0-light .flowchartTitleText{text-anchor:middle;font-size:18px;fill:#333;}#g6eb94159-bb74-4ed7-a93c-a058b27fd9e0-light rect.text{fill:none;stroke-width:0;}#g6eb94159-bb74-4ed7-a93c-a058b27fd9e0-light .icon-shape,#g6eb94159-bb74-4ed7-a93c-a058b27fd9e0-light .image-shape{background-color:rgba(232,232,232, 0.8);text-align:center;}#g6eb94159-bb74-4ed7-a93c-a058b27fd9e0-light .icon-shape p,#g6eb94159-bb74-4ed7-a93c-a058b27fd9e0-light .image-shape p{background-color:rgba(232,232,232, 0.8);padding:2px;}#g6eb94159-bb74-4ed7-a93c-a058b27fd9e0-light .icon-shape .label rect,#g6eb94159-bb74-4ed7-a93c-a058b27fd9e0-light .image-shape .label rect{opacity:0.5;background-color:rgba(232,232,232, 0.8);fill:rgba(232,232,232, 0.8);}#g6eb94159-bb74-4ed7-a93c-a058b27fd9e0-light .label-icon{display:inline-block;height:1em;overflow:visible;vertical-align:-0.125em;}#g6eb94159-bb74-4ed7-a93c-a058b27fd9e0-light .node .label-icon path{fill:currentColor;stroke:revert;stroke-width:revert;}#g6eb94159-bb74-4ed7-a93c-a058b27fd9e0-light .node .neo-node{stroke:#9370DB;}#g6eb94159-bb74-4ed7-a93c-a058b27fd9e0-light [data-look="neo"].node rect,#g6eb94159-bb74-4ed7-a93c-a058b27fd9e0-light [data-look="neo"].cluster rect,#g6eb94159-bb74-4ed7-a93c-a058b27fd9e0-light [data-look="neo"].node polygon{stroke:#9370DB;filter:drop-shadow(1px 2px 2px rgba(185, 185, 185, 1));}#g6eb94159-bb74-4ed7-a93c-a058b27fd9e0-light [data-look="neo"].node path{stroke:#9370DB;stroke-width:1px;}#g6eb94159-bb74-4ed7-a93c-a058b27fd9e0-light [data-look="neo"].node .outer-path{filter:drop-shadow(1px 2px 2px rgba(185, 185, 185, 1));}#g6eb94159-bb74-4ed7-a93c-a058b27fd9e0-light [data-look="neo"].node .neo-line path{stroke:#9370DB;filter:none;}#g6eb94159-bb74-4ed7-a93c-a058b27fd9e0-light [data-look="neo"].node circle{stroke:#9370DB;filter:drop-shadow(1px 2px 2px rgba(185, 185, 185, 1));}#g6eb94159-bb74-4ed7-a93c-a058b27fd9e0-light [data-look="neo"].node circle .state-start{fill:#000000;}#g6eb94159-bb74-4ed7-a93c-a058b27fd9e0-light [data-look="neo"].icon-shape .icon{fill:#9370DB;filter:drop-shadow(1px 2px 2px rgba(185, 185, 185, 1));}#g6eb94159-bb74-4ed7-a93c-a058b27fd9e0-light [data-look="neo"].icon-shape .icon-neo path{stroke:#9370DB;filter:drop-shadow(1px 2px 2px rgba(185, 185, 185, 1));}#g6eb94159-bb74-4ed7-a93c-a058b27fd9e0-light :root{--mermaid-font-family:"trebuchet ms",verdana,arial,sans-serif;}</style><g><marker id="g6eb94159-bb74-4ed7-a93c-a058b27fd9e0-light_flowchart-v2-pointEnd" class="marker flowchart-v2" viewBox="0 0 10 10" refX="5" refY="5" markerUnits="userSpaceOnUse" markerWidth="8" markerHeight="8" orient="auto"><path d="M 0 0 L 10 5 L 0 10 z" class="arrowMarkerPath" style="stroke-width: 1; stroke-dasharray: 1, 0;"></path></marker><marker id="g6eb94159-bb74-4ed7-a93c-a058b27fd9e0-light_flowchart-v2-pointStart" class="marker flowchart-v2" viewBox="0 0 10 10" refX="4.5" refY="5" markerUnits="userSpaceOnUse" markerWidth="8" markerHeight="8" orient="auto"><path d="M 0 5 L 10 10 L 10 0 z" class="arrowMarkerPath" style="stroke-width: 1; stroke-dasharray: 1, 0;"></path></marker><marker id="g6eb94159-bb74-4ed7-a93c-a058b27fd9e0-light_flowchart-v2-pointEnd-margin" class="marker flowchart-v2" viewBox="0 0 11.5 14" refX="11.5" refY="7" markerUnits="userSpaceOnUse" markerWidth="10.5" markerHeight="14" orient="auto"><path d="M 0 0 L 11.5 7 L 0 14 z" class="arrowMarkerPath" style="stroke-width: 0; stroke-dasharray: 1, 0;"></path></marker><marker id="g6eb94159-bb74-4ed7-a93c-a058b27fd9e0-light_flowchart-v2-pointStart-margin" class="marker flowchart-v2" viewBox="0 0 11.5 14" refX="1" refY="7" markerUnits="userSpaceOnUse" markerWidth="11.5" markerHeight="14" orient="auto"><polygon points="0,7 11.5,14 11.5,0" class="arrowMarkerPath" style="stroke-width: 0; stroke-dasharray: 1, 0;"></polygon></marker><marker id="g6eb94159-bb74-4ed7-a93c-a058b27fd9e0-light_flowchart-v2-circleEnd" class="marker flowchart-v2" viewBox="0 0 10 10" refX="11" refY="5" markerUnits="userSpaceOnUse" markerWidth="11" markerHeight="11" orient="auto"><circle cx="5" cy="5" r="5" class="arrowMarkerPath" style="stroke-width: 1; stroke-dasharray: 1, 0;"></circle></marker><marker id="g6eb94159-bb74-4ed7-a93c-a058b27fd9e0-light_flowchart-v2-circleStart" class="marker flowchart-v2" viewBox="0 0 10 10" refX="-1" refY="5" markerUnits="userSpaceOnUse" markerWidth="11" markerHeight="11" orient="auto"><circle cx="5" cy="5" r="5" class="arrowMarkerPath" style="stroke-width: 1; stroke-dasharray: 1, 0;"></circle></marker><marker id="g6eb94159-bb74-4ed7-a93c-a058b27fd9e0-light_flowchart-v2-circleEnd-margin" class="marker flowchart-v2" viewBox="0 0 10 10" refY="5" refX="12.25" markerUnits="userSpaceOnUse" markerWidth="14" markerHeight="14" orient="auto"><circle cx="5" cy="5" r="5" class="arrowMarkerPath" style="stroke-width: 0; stroke-dasharray: 1, 0;"></circle></marker><marker id="g6eb94159-bb74-4ed7-a93c-a058b27fd9e0-light_flowchart-v2-circleStart-margin" class="marker flowchart-v2" viewBox="0 0 10 10" refX="-2" refY="5" markerUnits="userSpaceOnUse" markerWidth="14" markerHeight="14" orient="auto"><circle cx="5" cy="5" r="5" class="arrowMarkerPath" style="stroke-width: 0; stroke-dasharray: 1, 0;"></circle></marker><marker id="g6eb94159-bb74-4ed7-a93c-a058b27fd9e0-light_flowchart-v2-crossEnd" class="marker cross flowchart-v2" viewBox="0 0 11 11" refX="12" refY="5.2" markerUnits="userSpaceOnUse" markerWidth="11" markerHeight="11" orient="auto"><path d="M 1,1 l 9,9 M 10,1 l -9,9" class="arrowMarkerPath" style="stroke-width: 2; stroke-dasharray: 1, 0;"></path></marker><marker id="g6eb94159-bb74-4ed7-a93c-a058b27fd9e0-light_flowchart-v2-crossStart" class="marker cross flowchart-v2" viewBox="0 0 11 11" refX="-1" refY="5.2" markerUnits="userSpaceOnUse" markerWidth="11" markerHeight="11" orient="auto"><path d="M 1,1 l 9,9 M 10,1 l -9,9" class="arrowMarkerPath" style="stroke-width: 2; stroke-dasharray: 1, 0;"></path></marker><marker id="g6eb94159-bb74-4ed7-a93c-a058b27fd9e0-light_flowchart-v2-crossEnd-margin" class="marker cross flowchart-v2" viewBox="0 0 15 15" refX="17.7" refY="7.5" markerUnits="userSpaceOnUse" markerWidth="12" markerHeight="12" orient="auto"><path d="M 1,1 L 14,14 M 1,14 L 14,1" class="arrowMarkerPath" style="stroke-width: 2.5;"></path></marker><marker id="g6eb94159-bb74-4ed7-a93c-a058b27fd9e0-light_flowchart-v2-crossStart-margin" class="marker cross flowchart-v2" viewBox="0 0 15 15" refX="-3.5" refY="7.5" markerUnits="userSpaceOnUse" markerWidth="12" markerHeight="12" orient="auto"><path d="M 1,1 L 14,14 M 1,14 L 14,1" class="arrowMarkerPath" style="stroke-width: 2.5; stroke-dasharray: 1, 0;"></path></marker><g class="root"><g class="clusters"></g><g class="edgePaths"><path d="M203.574,42.5L203.491,46.583C203.408,50.667,203.241,58.833,203.158,66.417C203.074,74,203.074,81,203.074,84.5L203.074,88" id="g6eb94159-bb74-4ed7-a93c-a058b27fd9e0-light-L_start_init_0" class="edge-thickness-normal edge-pattern-solid edge-thickness-normal edge-pattern-solid flowchart-link" style=";" data-edge="true" data-et="edge" data-id="L_start_init_0" data-points="W3sieCI6MjAzLjU3NDIxODc1LCJ5Ijo0Mi41fSx7IngiOjIwMy4wNzQyMTg3NSwieSI6Njd9LHsieCI6MjAzLjA3NDIxODc1LCJ5Ijo5Mn1d" data-look="classic" marker-end="url(#g6eb94159-bb74-4ed7-a93c-a058b27fd9e0-light_flowchart-v2-pointEnd)"></path><path d="M139.96,42.5L124.285,46.583C108.61,50.667,77.26,58.833,61.585,74.1C45.91,89.367,45.91,111.733,45.91,136.017C45.91,160.3,45.91,186.5,52.987,206.679C60.064,226.857,74.218,241.014,81.295,248.093L88.372,255.171" id="g6eb94159-bb74-4ed7-a93c-a058b27fd9e0-light-L_start_dev_0" class="edge-thickness-normal edge-pattern-solid edge-thickness-normal edge-pattern-solid flowchart-link" style=";" data-edge="true" data-et="edge" data-id="L_start_dev_0" data-points="W3sieCI6MTM5Ljk2MDE5MzQ1MjM4MDk2LCJ5Ijo0Mi41fSx7IngiOjQ1LjkxMDE1NjI1LCJ5Ijo2N30seyJ4Ijo0NS45MTAxNTYyNSwieSI6MTM0LjA5OTk5ODQ3NDEyMTF9LHsieCI6NDUuOTEwMTU2MjUsInkiOjIxMi42OTk5OTY5NDgyNDIyfSx7IngiOjkxLjE5OTgwMDMzMTE0NzM0LCJ5IjoyNTcuOTk5OTk2MTg1MzAyNzN9XQ==" data-look="classic" marker-end="url(#g6eb94159-bb74-4ed7-a93c-a058b27fd9e0-light_flowchart-v2-pointEnd)"></path><path d="M203.074,176.2L203.074,182.283C203.074,188.367,203.074,200.533,195.997,213.695C188.92,226.857,174.767,241.014,167.69,248.093L160.613,255.171" id="g6eb94159-bb74-4ed7-a93c-a058b27fd9e0-light-L_init_dev_0" class="edge-thickness-normal edge-pattern-solid edge-thickness-normal edge-pattern-solid flowchart-link" style=";" data-edge="true" data-et="edge" data-id="L_init_dev_0" data-points="W3sieCI6MjAzLjA3NDIxODc1LCJ5IjoxNzYuMTk5OTk2OTQ4MjQyMn0seyJ4IjoyMDMuMDc0MjE4NzUsInkiOjIxMi42OTk5OTY5NDgyNDIyfSx7IngiOjE1Ny43ODQ1NzQ2Njg4NTI2NiwieSI6MjU3Ljk5OTk5NjE4NTMwMjczfV0=" data-look="classic" marker-end="url(#g6eb94159-bb74-4ed7-a93c-a058b27fd9e0-light_flowchart-v2-pointEnd)"></path><path d="M124.492,324.6L124.492,330.233C124.492,335.867,124.492,347.133,124.492,356.267C124.492,365.4,124.492,372.4,124.492,375.9L124.492,379.4" id="g6eb94159-bb74-4ed7-a93c-a058b27fd9e0-light-L_dev_build_0" class="edge-thickness-normal edge-pattern-solid edge-thickness-normal edge-pattern-solid flowchart-link" style=";" data-edge="true" data-et="edge" data-id="L_dev_build_0" data-points="W3sieCI6MTI0LjQ5MjE4NzUsInkiOjMyNC41OTk5OTQ2NTk0MjM4fSx7IngiOjEyNC40OTIxODc1LCJ5IjozNTguMzk5OTkzODk2NDg0NH0seyJ4IjoxMjQuNDkyMTg3NSwieSI6MzgzLjM5OTk5Mzg5NjQ4NDR9XQ==" data-look="classic" marker-end="url(#g6eb94159-bb74-4ed7-a93c-a058b27fd9e0-light_flowchart-v2-pointEnd)"></path><path d="M124.492,467.6L124.492,471.767C124.492,475.933,124.492,484.267,124.492,491.933C124.492,499.6,124.492,506.6,124.492,510.1L124.492,513.6" id="g6eb94159-bb74-4ed7-a93c-a058b27fd9e0-light-L_build_preview_0" class="edge-thickness-normal edge-pattern-solid edge-thickness-normal edge-pattern-solid flowchart-link" style=";" data-edge="true" data-et="edge" data-id="L_build_preview_0" data-points="W3sieCI6MTI0LjQ5MjE4NzUsInkiOjQ2Ny41OTk5OTA4NDQ3MjY1Nn0seyJ4IjoxMjQuNDkyMTg3NSwieSI6NDkyLjU5OTk5MDg0NDcyNjU2fSx7IngiOjEyNC40OTIxODc1LCJ5Ijo1MTcuNTk5OTkwODQ0NzI2Nn1d" data-look="classic" marker-end="url(#g6eb94159-bb74-4ed7-a93c-a058b27fd9e0-light_flowchart-v2-pointEnd)"></path><path d="M291.499,40.116L318.872,44.596C346.245,49.077,400.992,58.039,428.365,73.703C455.738,89.367,455.738,111.733,455.738,136.017C455.738,160.3,455.738,186.5,460.045,205.156C464.352,223.813,472.965,234.926,477.272,240.482L481.579,246.038" id="g6eb94159-bb74-4ed7-a93c-a058b27fd9e0-light-L_start_mcp_0" class="edge-thickness-normal edge-pattern-dotted edge-thickness-normal edge-pattern-solid flowchart-link" style=";" data-edge="true" data-et="edge" data-id="L_start_mcp_0" data-points="W3sieCI6MjkxLjQ5ODkwMzUyMTg2ODQ0LCJ5Ijo0MC4xMTU1OTk1NTg4NzQ2NH0seyJ4Ijo0NTUuNzM4MjgxMjUsInkiOjY3fSx7IngiOjQ1NS43MzgyODEyNSwieSI6MTM0LjA5OTk5ODQ3NDEyMTF9LHsieCI6NDU1LjczODI4MTI1LCJ5IjoyMTIuNjk5OTk2OTQ4MjQyMn0seyJ4Ijo0ODQuMDI4OTc0Mzg4MjcxOSwieSI6MjQ5LjE5OTk5Njk0ODI0MjJ9XQ==" data-look="classic" marker-end="url(#g6eb94159-bb74-4ed7-a93c-a058b27fd9e0-light_flowchart-v2-pointEnd)"></path><path d="M325.238,159.739L367.296,168.566C409.353,177.393,493.467,195.046,531.218,209.43C568.969,223.813,560.355,234.926,556.049,240.482L551.742,246.038" id="g6eb94159-bb74-4ed7-a93c-a058b27fd9e0-light-L_init_mcp_0" class="edge-thickness-normal edge-pattern-dotted edge-thickness-normal edge-pattern-solid flowchart-link" style=";" data-edge="true" data-et="edge" data-id="L_init_mcp_0" data-points="W3sieCI6MzI1LjIzODI4MTI1LCJ5IjoxNTkuNzM5MjM2OTc3NTcwMDJ9LHsieCI6NTc3LjU4MjAzMTI1LCJ5IjoyMTIuNjk5OTk2OTQ4MjQyMn0seyJ4Ijo1NDkuMjkxMzM4MTExNzI4MSwieSI6MjQ5LjE5OTk5Njk0ODI0MjJ9XQ==" data-look="classic" marker-end="url(#g6eb94159-bb74-4ed7-a93c-a058b27fd9e0-light_flowchart-v2-pointEnd)"></path></g><g class="edgeLabels"><g class="edgeLabel"><g class="label" data-id="L_start_init_0" transform="translate(0, 0)"><text y="-10.1" text-anchor="middle"><tspan class="text-outer-tspan row" x="0" y="-0.1em" dy="1.1em" text-anchor="middle"></tspan></text></g></g><g><rect class="background" style="stroke: none"></rect></g><g class="edgeLabel"><g class="label" data-id="L_start_dev_0" transform="translate(0, 0)"><text y="-10.1" text-anchor="middle"><tspan class="text-outer-tspan row" x="0" y="-0.1em" dy="1.1em" text-anchor="middle"></tspan></text></g></g><g><rect class="background" style="stroke: none"></rect></g><g class="edgeLabel"><g class="label" data-id="L_init_dev_0" transform="translate(0, 0)"><text y="-10.1" text-anchor="middle"><tspan class="text-outer-tspan row" x="0" y="-0.1em" dy="1.1em" text-anchor="middle"></tspan></text></g></g><g><rect class="background" style="stroke: none"></rect></g><g class="edgeLabel"><g class="label" data-id="L_dev_build_0" transform="translate(0, 0)"><text y="-10.1" text-anchor="middle"><tspan class="text-outer-tspan row" x="0" y="-0.1em" dy="1.1em" text-anchor="middle"></tspan></text></g></g><g><rect class="background" style="stroke: none"></rect></g><g class="edgeLabel"><g class="label" data-id="L_build_preview_0" transform="translate(0, 0)"><text y="-10.1" text-anchor="middle"><tspan class="text-outer-tspan row" x="0" y="-0.1em" dy="1.1em" text-anchor="middle"></tspan></text></g></g><g><rect class="background" style="stroke: none"></rect></g><g class="edgeLabel" transform="translate(455.73828125, 134.0999984741211)"><g class="label" data-id="L_start_mcp_0" transform="translate(0, -10.5)"><g><rect class="background" style="" x="-95.5" y="-1" width="191" height="23"></rect><text y="-10.1" text-anchor="middle" style=""><tspan class="text-outer-tspan row" x="0" y="-0.1em" dy="1.1em" text-anchor="middle"><tspan font-style="normal" class="text-inner-tspan" font-weight="normal">assistant</tspan><tspan font-style="normal" class="text-inner-tspan" font-weight="normal"> or</tspan><tspan font-style="normal" class="text-inner-tspan" font-weight="normal"> tooling</tspan><tspan font-style="normal" class="text-inner-tspan" font-weight="normal"> access</tspan></tspan></text></g></g></g><g class="edgeLabel" transform="translate(474.00794, 190.96234)"><g class="label" data-id="L_init_mcp_0" transform="translate(0, -10.5)"><g><rect class="background" style="" x="-101.84375" y="-1" width="203.6875" height="23"></rect><text y="-10.1" text-anchor="middle" style=""><tspan class="text-outer-tspan row" x="0" y="-0.1em" dy="1.1em" text-anchor="middle"><tspan font-style="normal" class="text-inner-tspan" font-weight="normal">project</tspan><tspan font-style="normal" class="text-inner-tspan" font-weight="normal"> metadata</tspan><tspan font-style="normal" class="text-inner-tspan" font-weight="normal"> +</tspan><tspan font-style="normal" class="text-inner-tspan" font-weight="normal"> content</tspan></tspan></text></g></g></g></g><g class="nodes"><g class="node default" id="g6eb94159-bb74-4ed7-a93c-a058b27fd9e0-light-flowchart-start-0" data-look="classic" transform="translate(203.07421875, 25)"><g class="basic label-container outer-path"><path d="M-79.2578125 -17 C-31.15783968067599 -17, 16.942133138648018 -17, 79.2578125 -17 C79.2578125 -17, 79.2578125 -17, 79.2578125 -17 C79.50167316614642 -16.992179863082676, 79.74553383229282 -16.98435972616535, 80.34700623967211 -16.965071676755716 C80.62769166187104 -16.937994291649794, 80.90837708406998 -16.910916906543875, 81.4317242486366 -16.860430234995185 C81.76118167299275 -16.80716611360577, 82.09063909734888 -16.753901992216353, 82.50750918792333 -16.686505668848113 C82.77212861896479 -16.626108010516067, 83.03674805000625 -16.56571035218402, 83.56994042646163 -16.4440126716635 C83.97677202407138 -16.32326718899556, 84.38360362168113 -16.202521706327616, 84.61465220640156 -16.133947699181366 C84.86991886695844 -16.040007208437288, 85.12518552751533 -15.946066717693212, 85.63735158294936 -15.757584874882369 C85.89932140348932 -15.64161860638795, 86.16129122402927 -15.525652337893533, 86.63383606499849 -15.316470754341125 C86.84667077274038 -15.205435023639318, 87.05950548048227 -15.09439929293751, 87.60001088406693 -14.812417970097622 C87.81238123852411 -14.68367781319895, 88.02475159298129 -14.554937656300277, 88.53190582057933 -14.247497783161291 C88.86307111470005 -14.016491209897204, 89.19423640882077 -13.785484636633115, 89.42569151835067 -13.624031571755262 C89.64928328116889 -13.44572309093443, 89.87287504398711 -13.2674146101136, 90.2776952202324 -12.944581292275288 C90.5307715600617 -12.714744056475343, 90.78384789989099 -12.4849068206754, 91.08441586025927 -12.21193895166137 C91.36686734593152 -11.92028460300652, 91.64931883160378 -11.628630254351672, 91.84253845028036 -11.42911513444239 C92.08224823462722 -11.147538381875437, 92.32195801897409 -10.865961629308483, 92.54894770195651 -10.59932663159847 C92.74790949012446 -10.332735961245204, 92.9468712782924 -10.066145290891937, 93.20074082814824 -9.725983222076888 C93.43285266862391 -9.369397104349964, 93.66496450909958 -9.012810986623041, 93.79523947109088 -8.812673661278927 C94.0059014594951 -8.438621969027752, 94.21656344789933 -8.064570276776575, 94.330000708341 -7.863150934094199 C94.50970699070483 -7.489986993667232, 94.68941327306867 -7.116823053240264, 94.80282709126881 -6.881316833080699 C94.94563372319273 -6.528581691250219, 95.08844035511665 -6.175846549419738, 95.21177567484592 -5.871205925162238 C95.30152321429638 -5.600900635665987, 95.39127075374684 -5.330595346169736, 95.55516600162323 -4.836968972727556 C95.65324859158883 -4.462937547925348, 95.75133118155442 -4.08890612312314, 95.831587007091 -3.7828558772573464 C95.88525548911618 -3.5072795648957724, 95.93892397114135 -3.2317032525341984, 96.03990281804565 -2.713198215567453 C96.08951326688886 -2.328429371030731, 96.13912371573207 -1.9436605264940088, 96.17925742013637 -1.632391440430593 C96.19422493656838 -1.3992602904403741, 96.20919245300037 -1.166129140450155, 96.2490781754117 -0.5448768187181379 C96.2490781754117 -0.19688797332171454, 96.2490781754117 0.1511008720747088, 96.2490781754117 0.5448768187181336 C96.22307619478156 0.9498786554535337, 96.19707421415141 1.3548804921889337, 96.17925742013637 1.6323914404305815 C96.1507407381008 1.8535611950426443, 96.12222405606524 2.074730949654707, 96.03990281804565 2.7131982155674415 C95.95811817654464 3.1331450644850043, 95.87633353504364 3.553091913402567, 95.831587007091 3.782855877257343 C95.73446406321655 4.153227755600794, 95.63734111934208 4.523599633944244, 95.55516600162323 4.836968972727545 C95.46566407891892 5.10653450371811, 95.37616215621462 5.376100034708674, 95.21177567484592 5.871205925162227 C95.11022290745532 6.1220432240062, 95.00867014006472 6.372880522850172, 94.80282709126881 6.881316833080694 C94.61797825435964 7.265159398054084, 94.43312941745049 7.649001963027473, 94.330000708341 7.863150934094196 C94.15863513447523 8.167427863138876, 93.98726956060946 8.471704792183555, 93.79523947109088 8.812673661278923 C93.6087501745736 9.09917130011736, 93.42226087805632 9.385668938955797, 93.20074082814826 9.725983222076879 C93.04003176587571 9.94131872462532, 92.87932270360317 10.15665422717376, 92.54894770195651 10.599326631598467 C92.27806362804112 10.917522478559933, 92.00717955412574 11.235718325521399, 91.84253845028037 11.42911513444238 C91.68414609874088 11.59266824166081, 91.52575374720139 11.75622134887924, 91.08441586025927 12.211938951661365 C90.91554196104217 12.365305758771814, 90.74666806182506 12.518672565882264, 90.27769522023242 12.944581292275275 C89.971603700638 13.1886811337144, 89.66551218104358 13.432780975153523, 89.42569151835067 13.62403157175526 C89.10740280618681 13.846055998864491, 88.78911409402295 14.068080425973724, 88.53190582057934 14.247497783161286 C88.17941768165416 14.461178164427963, 87.82692954272898 14.67485854569464, 87.60001088406695 14.81241797009762 C87.39758864391783 14.918021523125782, 87.19516640376871 15.023625076153946, 86.63383606499849 15.316470754341124 C86.3698579204535 15.433326048297754, 86.10587977590852 15.550181342254385, 85.63735158294936 15.757584874882367 C85.26759253169904 15.893659623757687, 84.89783348044871 16.02973437263301, 84.61465220640156 16.133947699181363 C84.2476597900559 16.24286912197025, 83.88066737371024 16.35179054475914, 83.56994042646164 16.444012671663497 C83.3077182937538 16.50386316229473, 83.04549616104593 16.563713652925966, 82.50750918792333 16.68650566884811 C82.14814350796462 16.744605125061366, 81.7887778280059 16.802704581274618, 81.43172424863661 16.86043023499518 C81.19422788019506 16.883341224027564, 80.9567315117535 16.90625221305995, 80.34700623967211 16.965071676755716 C79.96272589563911 16.977394799432542, 79.57844555160611 16.989717922109367, 79.2578125 17 C79.2578125 17, 79.2578125 17, 79.2578125 17 C23.74525312401004 17, -31.767306251979917 17, -79.2578125 17 C-79.68812981439288 16.986200561289262, -80.11844712878575 16.97240112257852, -80.34700623967211 16.965071676755716 C-80.7746258396022 16.92381972823827, -81.20224543953229 16.882567779720826, -81.4317242486366 16.86043023499518 C-81.84392287881772 16.79378915711562, -82.25612150899883 16.727148079236056, -82.50750918792333 16.68650566884811 C-82.77290565939761 16.625930656107933, -83.0383021308719 16.565355643367756, -83.56994042646161 16.4440126716635 C-83.89401428015186 16.347829252986603, -84.21808813384213 16.25164583430971, -84.61465220640154 16.13394769918137 C-84.82724273234243 16.055712420469845, -85.03983325828331 15.977477141758321, -85.63735158294936 15.757584874882369 C-85.85342023024039 15.661937694175327, -86.06948887753141 15.566290513468283, -86.63383606499849 15.316470754341127 C-86.88858189009117 15.183570020562758, -87.14332771518387 15.05066928678439, -87.60001088406693 14.812417970097624 C-87.94795485425081 14.60149229062643, -88.29589882443467 14.390566611155235, -88.53190582057931 14.247497783161299 C-88.73643002118119 14.104830554531377, -88.94095422178307 13.962163325901455, -89.42569151835067 13.624031571755264 C-89.73937123072633 13.373880348503393, -90.05305094310198 13.123729125251522, -90.2776952202324 12.94458129227529 C-90.48956992425535 12.752162291979126, -90.70144462827828 12.559743291682963, -91.08441586025926 12.211938951661377 C-91.35681298644434 11.9306665546553, -91.62921011262942 11.649394157649224, -91.84253845028036 11.429115134442386 C-91.99921999097954 11.245068081304897, -92.15590153167872 11.061021028167408, -92.54894770195651 10.599326631598473 C-92.73016897067643 10.356506641110991, -92.91139023939635 10.11368665062351, -93.20074082814824 9.72598322207689 C-93.39296782475941 9.43067093510605, -93.58519482137056 9.135358648135213, -93.79523947109088 8.812673661278936 C-93.94760183331252 8.542138858792242, -94.09996419553417 8.27160405630555, -94.330000708341 7.863150934094201 C-94.4984840731206 7.513291622162871, -94.6669674379002 7.163432310231542, -94.80282709126881 6.881316833080701 C-94.89158769891343 6.66207641612889, -94.98034830655804 6.442835999177079, -95.21177567484592 5.87120592516224 C-95.31495837716987 5.560436065693526, -95.41814107949384 5.249666206224813, -95.55516600162323 4.8369689727275516 C-95.64453946315892 4.496149229188724, -95.73391292469461 4.155329485649896, -95.831587007091 3.782855877257349 C-95.90766416051714 3.392215773326194, -95.98374131394327 3.001575669395039, -96.03990281804565 2.713198215567455 C-96.0844688975929 2.3675525031668254, -96.12903497714014 2.021906790766195, -96.17925742013637 1.6323914404306026 C-96.19579745485508 1.3747670488109702, -96.21233748957378 1.117142657191338, -96.2490781754117 0.54487681871814 C-96.2490781754117 0.31967191395086475, -96.2490781754117 0.09446700918358952, -96.2490781754117 -0.5448768187181317 C-96.22464510123922 -0.9254416709768785, -96.20021202706675 -1.3060065232356255, -96.17925742013637 -1.6323914404305793 C-96.13826255880338 -1.9503394895781985, -96.0972676974704 -2.2682875387258177, -96.03990281804565 -2.713198215567447 C-95.97527357996663 -3.0450556937089353, -95.9106443418876 -3.3769131718504233, -95.831587007091 -3.782855877257341 C-95.72469934821885 -4.1904648459412455, -95.61781168934671 -4.598073814625149, -95.55516600162323 -4.836968972727544 C-95.43769294262117 -5.190779109651624, -95.32021988361909 -5.544589246575704, -95.21177567484594 -5.871205925162218 C-95.05053226705617 -6.269480259832161, -94.88928885926639 -6.667754594502104, -94.80282709126881 -6.881316833080692 C-94.6778634367582 -7.1408065354658525, -94.5528997822476 -7.400296237851012, -94.330000708341 -7.863150934094194 C-94.17054699617847 -8.14627714647799, -94.01109328401593 -8.429403358861785, -93.79523947109088 -8.812673661278929 C-93.58200003669108 -9.140266695322705, -93.36876060229129 -9.46785972936648, -93.20074082814826 -9.725983222076884 C-92.99432201875798 -10.00256562151946, -92.7879032093677 -10.279148020962035, -92.54894770195651 -10.599326631598467 C-92.37801355695117 -10.800115604750124, -92.20707941194584 -11.000904577901782, -91.84253845028037 -11.42911513444238 C-91.57471710899051 -11.705662657865211, -91.30689576770064 -11.982210181288043, -91.08441586025927 -12.21193895166136 C-90.7997819246027 -12.470435961023409, -90.51514798894613 -12.728932970385458, -90.27769522023242 -12.944581292275274 C-90.02376807141552 -13.147081436171527, -89.76984092259863 -13.349581580067781, -89.42569151835067 -13.624031571755259 C-89.08727918689792 -13.86009336454299, -88.74886685544514 -14.096155157330724, -88.53190582057934 -14.247497783161284 C-88.28328269841587 -14.398214580888423, -88.0346595762524 -14.54893137861556, -87.60001088406695 -14.812417970097618 C-87.22353503720619 -15.008825178260585, -86.84705919034543 -15.205232386423551, -86.63383606499849 -15.316470754341124 C-86.42320966646064 -15.409708812963713, -86.21258326792277 -15.502946871586301, -85.63735158294936 -15.757584874882365 C-85.41704977250575 -15.838657977573227, -85.19674796206213 -15.91973108026409, -84.61465220640156 -16.133947699181363 C-84.27083186175575 -16.23599177272242, -83.92701151710993 -16.338035846263484, -83.56994042646164 -16.444012671663494 C-83.31976675860786 -16.50111317881537, -83.06959309075405 -16.558213685967246, -82.50750918792333 -16.68650566884811 C-82.12754265962869 -16.747935710458353, -81.74757613133404 -16.809365752068594, -81.43172424863661 -16.86043023499518 C-81.11926253252201 -16.890573040958564, -80.80680081640742 -16.920715846921944, -80.34700623967213 -16.965071676755716 C-79.97274826444769 -16.97707340157221, -79.59849028922324 -16.9890751263887, -79.2578125 -17 C-79.2578125 -17, -79.2578125 -17, -79.2578125 -17" stroke="none" stroke-width="0" fill="#ECECFF" style=""></path><path d="M-79.2578125 -17 C-43.51286033242954 -17, -7.7679081648590795 -17, 79.2578125 -17 M-79.2578125 -17 C-34.22820606538931 -17, 10.801400369221383 -17, 79.2578125 -17 M79.2578125 -17 C79.2578125 -17, 79.2578125 -17, 79.2578125 -17 M79.2578125 -17 C79.2578125 -17, 79.2578125 -17, 79.2578125 -17 M79.2578125 -17 C79.59871587146621 -16.989067892405238, 79.93961924293244 -16.978135784810473, 80.34700623967211 -16.965071676755716 M79.2578125 -17 C79.5019115747545 -16.99217221778265, 79.746010649509 -16.984344435565298, 80.34700623967211 -16.965071676755716 M80.34700623967211 -16.965071676755716 C80.60363897605663 -16.940314625322724, 80.86027171244115 -16.915557573889732, 81.4317242486366 -16.860430234995185 M80.34700623967211 -16.965071676755716 C80.72158707508191 -16.928936314063098, 81.0961679104917 -16.892800951370482, 81.4317242486366 -16.860430234995185 M81.4317242486366 -16.860430234995185 C81.82694677893929 -16.796533721292345, 82.22216930924199 -16.732637207589505, 82.50750918792333 -16.686505668848113 M81.4317242486366 -16.860430234995185 C81.71344016651425 -16.8148845901323, 81.99515608439188 -16.769338945269418, 82.50750918792333 -16.686505668848113 M82.50750918792333 -16.686505668848113 C82.76216941791202 -16.628381133166503, 83.01682964790069 -16.57025659748489, 83.56994042646163 -16.4440126716635 M82.50750918792333 -16.686505668848113 C82.77364980314371 -16.62576081015388, 83.03979041836409 -16.56501595145965, 83.56994042646163 -16.4440126716635 M83.56994042646163 -16.4440126716635 C83.80467573415379 -16.374344464491237, 84.03941104184597 -16.304676257318977, 84.61465220640156 -16.133947699181366 M83.56994042646163 -16.4440126716635 C83.88932669410269 -16.34922050392036, 84.20871296174377 -16.254428336177224, 84.61465220640156 -16.133947699181366 M84.61465220640156 -16.133947699181366 C84.98708399623806 -15.99688935779981, 85.35951578607454 -15.859831016418255, 85.63735158294936 -15.757584874882369 M84.61465220640156 -16.133947699181366 C84.90112478576891 -16.028523141850684, 85.18759736513627 -15.923098584520002, 85.63735158294936 -15.757584874882369 M85.63735158294936 -15.757584874882369 C85.8965481551603 -15.64284624115772, 86.15574472737123 -15.528107607433071, 86.63383606499849 -15.316470754341125 M85.63735158294936 -15.757584874882369 C85.93650387216684 -15.62515903048316, 86.23565616138431 -15.492733186083948, 86.63383606499849 -15.316470754341125 M86.63383606499849 -15.316470754341125 C86.97368069979773 -15.13917402604724, 87.31352533459696 -14.961877297753354, 87.60001088406693 -14.812417970097622 M86.63383606499849 -15.316470754341125 C86.89201055909506 -15.181781286139602, 87.15018505319162 -15.047091817938076, 87.60001088406693 -14.812417970097622 M87.60001088406693 -14.812417970097622 C87.91308786821126 -14.622628862464751, 88.2261648523556 -14.43283975483188, 88.53190582057933 -14.247497783161291 M87.60001088406693 -14.812417970097622 C87.96787017427262 -14.589419506593789, 88.33572946447832 -14.366421043089957, 88.53190582057933 -14.247497783161291 M88.53190582057933 -14.247497783161291 C88.79721891950861 -14.062426850567165, 89.0625320184379 -13.877355917973038, 89.42569151835067 -13.624031571755262 M88.53190582057933 -14.247497783161291 C88.71967925182578 -14.116515166104595, 88.90745268307224 -13.985532549047898, 89.42569151835067 -13.624031571755262 M89.42569151835067 -13.624031571755262 C89.75010458594659 -13.365320783341808, 90.07451765354251 -13.106609994928355, 90.2776952202324 -12.944581292275288 M89.42569151835067 -13.624031571755262 C89.64719931175055 -13.447385001088803, 89.86870710515042 -13.270738430422341, 90.2776952202324 -12.944581292275288 M90.2776952202324 -12.944581292275288 C90.5963026500472 -12.655230454408134, 90.91491007986201 -12.365879616540978, 91.08441586025927 -12.21193895166137 M90.2776952202324 -12.944581292275288 C90.48515110850367 -12.756175343529334, 90.69260699677496 -12.56776939478338, 91.08441586025927 -12.21193895166137 M91.08441586025927 -12.21193895166137 C91.36262028237846 -11.924670044815466, 91.64082470449765 -11.637401137969563, 91.84253845028036 -11.42911513444239 M91.08441586025927 -12.21193895166137 C91.37417569077358 -11.912738136930832, 91.66393552128788 -11.613537322200294, 91.84253845028036 -11.42911513444239 M91.84253845028036 -11.42911513444239 C92.03841524662707 -11.199027103748096, 92.23429204297376 -10.968939073053802, 92.54894770195651 -10.59932663159847 M91.84253845028036 -11.42911513444239 C92.08623629653506 -11.142853777431336, 92.32993414278977 -10.856592420420284, 92.54894770195651 -10.59932663159847 M92.54894770195651 -10.59932663159847 C92.80844823566045 -10.251619557420145, 93.06794876936439 -9.90391248324182, 93.20074082814824 -9.725983222076888 M92.54894770195651 -10.59932663159847 C92.71959468769784 -10.37067521696531, 92.89024167343916 -10.142023802332147, 93.20074082814824 -9.725983222076888 M93.20074082814824 -9.725983222076888 C93.40607218206704 -9.410539123268872, 93.61140353598584 -9.095095024460857, 93.79523947109088 -8.812673661278927 M93.20074082814824 -9.725983222076888 C93.33912767385941 -9.513383864993273, 93.47751451957059 -9.300784507909656, 93.79523947109088 -8.812673661278927 M93.79523947109088 -8.812673661278927 C93.9528795339372 -8.532767766907957, 94.11051959678355 -8.252861872536988, 94.330000708341 -7.863150934094199 M93.79523947109088 -8.812673661278927 C93.92660273610845 -8.579424882267235, 94.05796600112602 -8.346176103255544, 94.330000708341 -7.863150934094199 M94.330000708341 -7.863150934094199 C94.46817992665896 -7.576218830695321, 94.60635914497692 -7.289286727296443, 94.80282709126881 -6.881316833080699 M94.330000708341 -7.863150934094199 C94.43196148868664 -7.651427192095261, 94.53392226903229 -7.439703450096322, 94.80282709126881 -6.881316833080699 M94.80282709126881 -6.881316833080699 C94.93643947284346 -6.551291667371652, 95.07005185441811 -6.221266501662606, 95.21177567484592 -5.871205925162238 M94.80282709126881 -6.881316833080699 C94.90998522626619 -6.616634167875573, 95.01714336126356 -6.351951502670448, 95.21177567484592 -5.871205925162238 M95.21177567484592 -5.871205925162238 C95.2863218889048 -5.646684605743169, 95.36086810296366 -5.4221632863241, 95.55516600162323 -4.836968972727556 M95.21177567484592 -5.871205925162238 C95.31612966317786 -5.556908338856564, 95.4204836515098 -5.242610752550891, 95.55516600162323 -4.836968972727556 M95.55516600162323 -4.836968972727556 C95.61681683758071 -4.601867615580361, 95.6784676735382 -4.366766258433166, 95.831587007091 -3.7828558772573464 M95.55516600162323 -4.836968972727556 C95.64290193356632 -4.502393839235135, 95.73063786550941 -4.1678187057427145, 95.831587007091 -3.7828558772573464 M95.831587007091 -3.7828558772573464 C95.89603097343354 -3.451949730325488, 95.96047493977609 -3.1210435833936296, 96.03990281804565 -2.713198215567453 M95.831587007091 -3.7828558772573464 C95.8917722740729 -3.4738172514659356, 95.95195754105481 -3.1647786256745247, 96.03990281804565 -2.713198215567453 M96.03990281804565 -2.713198215567453 C96.08783429304083 -2.341451160645193, 96.135765768036 -1.9697041057229328, 96.17925742013637 -1.632391440430593 M96.03990281804565 -2.713198215567453 C96.07118880868559 -2.4705502502816943, 96.10247479932553 -2.227902284995936, 96.17925742013637 -1.632391440430593 M96.17925742013637 -1.632391440430593 C96.19400274758976 -1.4027210631299314, 96.20874807504315 -1.17305068582927, 96.2490781754117 -0.5448768187181379 M96.17925742013637 -1.632391440430593 C96.19748844224702 -1.3484285552410569, 96.21571946435766 -1.0644656700515207, 96.2490781754117 -0.5448768187181379 M96.2490781754117 -0.5448768187181379 C96.2490781754117 -0.22016478011466473, 96.2490781754117 0.10454725848880841, 96.2490781754117 0.5448768187181336 M96.2490781754117 -0.5448768187181379 C96.2490781754117 -0.18140390407992052, 96.2490781754117 0.18206901055829683, 96.2490781754117 0.5448768187181336 M96.2490781754117 0.5448768187181336 C96.22424411473806 0.9316873594029511, 96.19941005406443 1.3184979000877686, 96.17925742013637 1.6323914404305815 M96.2490781754117 0.5448768187181336 C96.22961720174563 0.8479971921824174, 96.21015622807955 1.1511175656467012, 96.17925742013637 1.6323914404305815 M96.17925742013637 1.6323914404305815 C96.13161974826356 2.0018598163537593, 96.08398207639075 2.3713281922769376, 96.03990281804565 2.7131982155674415 M96.17925742013637 1.6323914404305815 C96.1241746694715 2.0596023772678174, 96.06909191880665 2.4868133141050537, 96.03990281804565 2.7131982155674415 M96.03990281804565 2.7131982155674415 C95.97327976997799 3.0552934866086625, 95.90665672191034 3.3973887576498836, 95.831587007091 3.782855877257343 M96.03990281804565 2.7131982155674415 C95.99482131560951 2.9446822025981025, 95.94973981317337 3.1761661896287636, 95.831587007091 3.782855877257343 M95.831587007091 3.782855877257343 C95.75542887256306 4.073279851356708, 95.6792707380351 4.3637038254560725, 95.55516600162323 4.836968972727545 M95.831587007091 3.782855877257343 C95.77269753091976 4.007426972758701, 95.71380805474853 4.231998068260059, 95.55516600162323 4.836968972727545 M95.55516600162323 4.836968972727545 C95.47971929845498 5.064202421870622, 95.40427259528673 5.291435871013699, 95.21177567484592 5.871205925162227 M95.55516600162323 4.836968972727545 C95.43945303413685 5.185477994438893, 95.32374006665044 5.53398701615024, 95.21177567484592 5.871205925162227 M95.21177567484592 5.871205925162227 C95.11209181984773 6.117426974263967, 95.01240796484956 6.363648023365708, 94.80282709126881 6.881316833080694 M95.21177567484592 5.871205925162227 C95.07061824398242 6.219867508488361, 94.92946081311891 6.5685290918144945, 94.80282709126881 6.881316833080694 M94.80282709126881 6.881316833080694 C94.63625882770855 7.227199396353494, 94.46969056414828 7.573081959626293, 94.330000708341 7.863150934094196 M94.80282709126881 6.881316833080694 C94.70482902895884 7.084811906289983, 94.60683096664887 7.288306979499271, 94.330000708341 7.863150934094196 M94.330000708341 7.863150934094196 C94.18072840276172 8.128199028110233, 94.03145609718241 8.393247122126269, 93.79523947109088 8.812673661278923 M94.330000708341 7.863150934094196 C94.19344717601422 8.105615558284958, 94.05689364368743 8.348080182475721, 93.79523947109088 8.812673661278923 M93.79523947109088 8.812673661278923 C93.64050877285072 9.050381564785981, 93.48577807461056 9.28808946829304, 93.20074082814826 9.725983222076879 M93.79523947109088 8.812673661278923 C93.57494903179104 9.151098932309093, 93.3546585924912 9.489524203339263, 93.20074082814826 9.725983222076879 M93.20074082814826 9.725983222076879 C93.0638133167663 9.909453612975785, 92.92688580538434 10.092924003874693, 92.54894770195651 10.599326631598467 M93.20074082814826 9.725983222076879 C93.06460089129847 9.908398334852206, 92.92846095444867 10.090813447627534, 92.54894770195651 10.599326631598467 M92.54894770195651 10.599326631598467 C92.35027663438693 10.83269697226968, 92.15160556681737 11.066067312940895, 91.84253845028037 11.42911513444238 M92.54894770195651 10.599326631598467 C92.28530301004054 10.909018688530924, 92.02165831812457 11.218710745463381, 91.84253845028037 11.42911513444238 M91.84253845028037 11.42911513444238 C91.55985935566713 11.72100450801584, 91.27718026105389 12.012893881589298, 91.08441586025927 12.211938951661365 M91.84253845028037 11.42911513444238 C91.54652990999705 11.734768255038043, 91.25052136971371 12.040421375633706, 91.08441586025927 12.211938951661365 M91.08441586025927 12.211938951661365 C90.8628006840449 12.413203991083016, 90.64118550783051 12.614469030504665, 90.27769522023242 12.944581292275275 M91.08441586025927 12.211938951661365 C90.89590682636904 12.383137868564745, 90.70739779247883 12.554336785468124, 90.27769522023242 12.944581292275275 M90.27769522023242 12.944581292275275 C90.04725148022783 13.12835404256347, 89.81680774022324 13.312126792851666, 89.42569151835067 13.62403157175526 M90.27769522023242 12.944581292275275 C90.07950174310285 13.102635316136178, 89.88130826597329 13.260689339997079, 89.42569151835067 13.62403157175526 M89.42569151835067 13.62403157175526 C89.21322441624338 13.772239424632696, 89.0007573141361 13.920447277510132, 88.53190582057934 14.247497783161286 M89.42569151835067 13.62403157175526 C89.17692283856438 13.797561833751601, 88.92815415877807 13.971092095747942, 88.53190582057934 14.247497783161286 M88.53190582057934 14.247497783161286 C88.21306604350379 14.440780329734995, 87.89422626642823 14.634062876308704, 87.60001088406695 14.81241797009762 M88.53190582057934 14.247497783161286 C88.21411675895482 14.44014337985389, 87.8963276973303 14.632788976546491, 87.60001088406695 14.81241797009762 M87.60001088406695 14.81241797009762 C87.33721910401117 14.949516273426553, 87.07442732395538 15.086614576755485, 86.63383606499849 15.316470754341124 M87.60001088406695 14.81241797009762 C87.32224349803592 14.957329037471506, 87.04447611200489 15.102240104845393, 86.63383606499849 15.316470754341124 M86.63383606499849 15.316470754341124 C86.29704417811784 15.465558532086824, 85.96025229123721 15.614646309832526, 85.63735158294936 15.757584874882367 M86.63383606499849 15.316470754341124 C86.35776271154165 15.438680238491408, 86.0816893580848 15.56088972264169, 85.63735158294936 15.757584874882367 M85.63735158294936 15.757584874882367 C85.33352245446311 15.869396802730984, 85.02969332597685 15.981208730579601, 84.61465220640156 16.133947699181363 M85.63735158294936 15.757584874882367 C85.42534858630273 15.835603937382547, 85.21334558965609 15.913622999882728, 84.61465220640156 16.133947699181363 M84.61465220640156 16.133947699181363 C84.21870088541685 16.25146397285873, 83.82274956443213 16.3689802465361, 83.56994042646164 16.444012671663497 M84.61465220640156 16.133947699181363 C84.27845654512063 16.233728806722503, 83.94226088383971 16.333509914263647, 83.56994042646164 16.444012671663497 M83.56994042646164 16.444012671663497 C83.30266427860064 16.505016708272905, 83.03538813073965 16.566020744882312, 82.50750918792333 16.68650566884811 M83.56994042646164 16.444012671663497 C83.2593591281438 16.514900826272164, 82.94877782982597 16.585788980880828, 82.50750918792333 16.68650566884811 M82.50750918792333 16.68650566884811 C82.24880803143321 16.728330465572, 81.99010687494311 16.770155262295887, 81.43172424863661 16.86043023499518 M82.50750918792333 16.68650566884811 C82.20332540371638 16.73568374409821, 81.89914161950942 16.784861819348315, 81.43172424863661 16.86043023499518 M81.43172424863661 16.86043023499518 C81.12378365611289 16.8901368936032, 80.81584306358916 16.919843552211216, 80.34700623967211 16.965071676755716 M81.43172424863661 16.86043023499518 C81.0256942952891 16.899599456272153, 80.6196643419416 16.938768677549124, 80.34700623967211 16.965071676755716 M80.34700623967211 16.965071676755716 C79.96949383207043 16.97717776488418, 79.59198142446874 16.98928385301264, 79.2578125 17 M80.34700623967211 16.965071676755716 C79.9998551180198 16.97620413753844, 79.65270399636749 16.987336598321164, 79.2578125 17 M79.2578125 17 C79.2578125 17, 79.2578125 17, 79.2578125 17 M79.2578125 17 C79.2578125 17, 79.2578125 17, 79.2578125 17 M79.2578125 17 C16.08345052707581 17, -47.09091144584838 17, -79.2578125 17 M79.2578125 17 C47.524370484670825 17, 15.790928469341651 17, -79.2578125 17 M-79.2578125 17 C-79.65009724869228 16.98742019164538, -80.04238199738455 16.97484038329076, -80.34700623967211 16.965071676755716 M-79.2578125 17 C-79.59484033315607 16.989192173375567, -79.93186816631213 16.97838434675113, -80.34700623967211 16.965071676755716 M-80.34700623967211 16.965071676755716 C-80.71712113678217 16.929367137759797, -81.08723603389221 16.89366259876388, -81.4317242486366 16.86043023499518 M-80.34700623967211 16.965071676755716 C-80.57174471629395 16.94339142620357, -80.79648319291579 16.921711175651424, -81.4317242486366 16.86043023499518 M-81.4317242486366 16.86043023499518 C-81.78439378289234 16.8034133596898, -82.13706331714808 16.74639648438442, -82.50750918792333 16.68650566884811 M-81.4317242486366 16.86043023499518 C-81.7679216127999 16.80607645240676, -82.10411897696318 16.75172266981834, -82.50750918792333 16.68650566884811 M-82.50750918792333 16.68650566884811 C-82.74397064195637 16.632534885020263, -82.9804320959894 16.578564101192416, -83.56994042646161 16.4440126716635 M-82.50750918792333 16.68650566884811 C-82.75003875085974 16.63114987876118, -82.99256831379616 16.575794088674247, -83.56994042646161 16.4440126716635 M-83.56994042646161 16.4440126716635 C-83.79030845961702 16.378608596158386, -84.01067649277245 16.31320452065327, -84.61465220640154 16.13394769918137 M-83.56994042646161 16.4440126716635 C-83.8426319470666 16.363079259734945, -84.11532346767157 16.282145847806387, -84.61465220640154 16.13394769918137 M-84.61465220640154 16.13394769918137 C-84.94237361677683 16.013343190739754, -85.27009502715214 15.892738682298136, -85.63735158294936 15.757584874882369 M-84.61465220640154 16.13394769918137 C-84.85332901007686 16.046112429124666, -85.09200581375218 15.95827715906796, -85.63735158294936 15.757584874882369 M-85.63735158294936 15.757584874882369 C-85.95895025495022 15.61522268267324, -86.28054892695108 15.472860490464111, -86.63383606499849 15.316470754341127 M-85.63735158294936 15.757584874882369 C-85.8855640347736 15.647708585420563, -86.13377648659781 15.537832295958756, -86.63383606499849 15.316470754341127 M-86.63383606499849 15.316470754341127 C-86.8631540755826 15.196835695104593, -87.09247208616671 15.077200635868058, -87.60001088406693 14.812417970097624 M-86.63383606499849 15.316470754341127 C-86.92631562298925 15.163884356279443, -87.21879518098002 15.011297958217757, -87.60001088406693 14.812417970097624 M-87.60001088406693 14.812417970097624 C-87.82639013007606 14.675185540814775, -88.05276937608518 14.537953111531925, -88.53190582057931 14.247497783161299 M-87.60001088406693 14.812417970097624 C-87.91858750599492 14.619294949720842, -88.2371641279229 14.426171929344061, -88.53190582057931 14.247497783161299 M-88.53190582057931 14.247497783161299 C-88.71634143810965 14.118843480461338, -88.90077705563999 13.990189177761378, -89.42569151835067 13.624031571755264 M-88.53190582057931 14.247497783161299 C-88.7559381752155 14.091222510771418, -88.9799705298517 13.934947238381536, -89.42569151835067 13.624031571755264 M-89.42569151835067 13.624031571755264 C-89.62860471484983 13.462213697294128, -89.83151791134897 13.300395822832991, -90.2776952202324 12.94458129227529 M-89.42569151835067 13.624031571755264 C-89.68053039477029 13.420804349357933, -89.9353692711899 13.217577126960604, -90.2776952202324 12.94458129227529 M-90.2776952202324 12.94458129227529 C-90.45433101206648 12.784165339658538, -90.63096680390053 12.623749387041787, -91.08441586025926 12.211938951661377 M-90.2776952202324 12.94458129227529 C-90.49764603548344 12.744827781443957, -90.7175968507345 12.545074270612625, -91.08441586025926 12.211938951661377 M-91.08441586025926 12.211938951661377 C-91.2557136529948 12.035059916851598, -91.42701144573033 11.858180882041818, -91.84253845028036 11.429115134442386 M-91.08441586025926 12.211938951661377 C-91.27299962144885 12.01721073521838, -91.46158338263845 11.822482518775386, -91.84253845028036 11.429115134442386 M-91.84253845028036 11.429115134442386 C-92.07642836889424 11.15437472732514, -92.31031828750811 10.879634320207892, -92.54894770195651 10.599326631598473 M-91.84253845028036 11.429115134442386 C-92.08658882448536 11.142439678041509, -92.33063919869035 10.855764221640632, -92.54894770195651 10.599326631598473 M-92.54894770195651 10.599326631598473 C-92.80520222912872 10.255968910455376, -93.06145675630094 9.91261118931228, -93.20074082814824 9.72598322207689 M-92.54894770195651 10.599326631598473 C-92.73383034261245 10.351600736274564, -92.91871298326839 10.103874840950656, -93.20074082814824 9.72598322207689 M-93.20074082814824 9.72598322207689 C-93.36063051509012 9.480349726541554, -93.520520202032 9.234716231006217, -93.79523947109088 8.812673661278936 M-93.20074082814824 9.72598322207689 C-93.41355823507799 9.399038535557361, -93.62637564200773 9.072093849037833, -93.79523947109088 8.812673661278936 M-93.79523947109088 8.812673661278936 C-93.96512715037002 8.511020883725864, -94.13501482964917 8.209368106172795, -94.330000708341 7.863150934094201 M-93.79523947109088 8.812673661278936 C-93.91901077720009 8.592905174078235, -94.0427820833093 8.373136686877533, -94.330000708341 7.863150934094201 M-94.330000708341 7.863150934094201 C-94.45263844349384 7.608491053022158, -94.57527617864667 7.353831171950115, -94.80282709126881 6.881316833080701 M-94.330000708341 7.863150934094201 C-94.4531893192807 7.607347147663889, -94.5763779302204 7.351543361233577, -94.80282709126881 6.881316833080701 M-94.80282709126881 6.881316833080701 C-94.9413953028972 6.539050671324433, -95.07996351452562 6.196784509568164, -95.21177567484592 5.87120592516224 M-94.80282709126881 6.881316833080701 C-94.94655972920955 6.526294438485567, -95.09029236715028 6.171272043890432, -95.21177567484592 5.87120592516224 M-95.21177567484592 5.87120592516224 C-95.34864363659437 5.458981431324185, -95.48551159834281 5.046756937486131, -95.55516600162323 4.8369689727275516 M-95.21177567484592 5.87120592516224 C-95.30207648578399 5.59923427009718, -95.39237729672203 5.327262615032121, -95.55516600162323 4.8369689727275516 M-95.55516600162323 4.8369689727275516 C-95.66060576768906 4.434881446834846, -95.7660455337549 4.032793920942141, -95.831587007091 3.782855877257349 M-95.55516600162323 4.8369689727275516 C-95.65492776040357 4.456534149478367, -95.75468951918391 4.076099326229183, -95.831587007091 3.782855877257349 M-95.831587007091 3.782855877257349 C-95.90913895372344 3.3846430219095067, -95.98669090035587 2.986430166561664, -96.03990281804565 2.713198215567455 M-95.831587007091 3.782855877257349 C-95.89800698418829 3.441803332729905, -95.96442696128557 3.100750788202461, -96.03990281804565 2.713198215567455 M-96.03990281804565 2.713198215567455 C-96.08439129562153 2.36815436873249, -96.12887977319741 2.023110521897525, -96.17925742013637 1.6323914404306026 M-96.03990281804565 2.713198215567455 C-96.06947949949928 2.4838073147894537, -96.09905618095291 2.2544164140114518, -96.17925742013637 1.6323914404306026 M-96.17925742013637 1.6323914404306026 C-96.19534028952428 1.381887767855285, -96.2114231589122 1.1313840952799672, -96.2490781754117 0.54487681871814 M-96.17925742013637 1.6323914404306026 C-96.20168874433445 1.2830054598066225, -96.22412006853251 0.9336194791826424, -96.2490781754117 0.54487681871814 M-96.2490781754117 0.54487681871814 C-96.2490781754117 0.153397999617436, -96.2490781754117 -0.23808081948326798, -96.2490781754117 -0.5448768187181317 M-96.2490781754117 0.54487681871814 C-96.2490781754117 0.132394451564254, -96.2490781754117 -0.280087915589632, -96.2490781754117 -0.5448768187181317 M-96.2490781754117 -0.5448768187181317 C-96.22195648697684 -0.9673190083239314, -96.19483479854198 -1.3897611979297309, -96.17925742013637 -1.6323914404305793 M-96.2490781754117 -0.5448768187181317 C-96.23252222685285 -0.8027490812433618, -96.21596627829399 -1.0606213437685919, -96.17925742013637 -1.6323914404305793 M-96.17925742013637 -1.6323914404305793 C-96.13908289274478 -1.9439771415219949, -96.09890836535318 -2.2555628426134104, -96.03990281804565 -2.713198215567447 M-96.17925742013637 -1.6323914404305793 C-96.13276310126345 -1.992992196267158, -96.08626878239053 -2.3535929521037366, -96.03990281804565 -2.713198215567447 M-96.03990281804565 -2.713198215567447 C-95.9772889555471 -3.0347071660529856, -95.91467509304854 -3.3562161165385245, -95.831587007091 -3.782855877257341 M-96.03990281804565 -2.713198215567447 C-95.9618582921983 -3.113940361077189, -95.88381376635095 -3.514682506586931, -95.831587007091 -3.782855877257341 M-95.831587007091 -3.782855877257341 C-95.72635274718621 -4.184159719091068, -95.62111848728142 -4.585463560924795, -95.55516600162323 -4.836968972727544 M-95.831587007091 -3.782855877257341 C-95.75369353043642 -4.079897462987596, -95.67580005378184 -4.37693904871785, -95.55516600162323 -4.836968972727544 M-95.55516600162323 -4.836968972727544 C-95.42676499119331 -5.223692358219712, -95.29836398076338 -5.610415743711881, -95.21177567484594 -5.871205925162218 M-95.55516600162323 -4.836968972727544 C-95.4541140019117 -5.141321495408986, -95.35306200220019 -5.44567401809043, -95.21177567484594 -5.871205925162218 M-95.21177567484594 -5.871205925162218 C-95.12343824341517 -6.0894010886842596, -95.0351008119844 -6.3075962522063005, -94.80282709126881 -6.881316833080692 M-95.21177567484594 -5.871205925162218 C-95.10095579586387 -6.144933168804533, -94.9901359168818 -6.418660412446848, -94.80282709126881 -6.881316833080692 M-94.80282709126881 -6.881316833080692 C-94.6453308170206 -7.20836121643755, -94.48783454277238 -7.535405599794406, -94.330000708341 -7.863150934094194 M-94.80282709126881 -6.881316833080692 C-94.67340846593179 -7.15005737770801, -94.54398984059476 -7.418797922335328, -94.330000708341 -7.863150934094194 M-94.330000708341 -7.863150934094194 C-94.15308550429461 -8.177281793485568, -93.97617030024821 -8.49141265287694, -93.79523947109088 -8.812673661278929 M-94.330000708341 -7.863150934094194 C-94.14613368347685 -8.189625455295696, -93.96226665861269 -8.516099976497198, -93.79523947109088 -8.812673661278929 M-93.79523947109088 -8.812673661278929 C-93.66394288137322 -9.014380481156193, -93.53264629165555 -9.21608730103346, -93.20074082814826 -9.725983222076884 M-93.79523947109088 -8.812673661278929 C-93.5836632223688 -9.137711595493851, -93.37208697364672 -9.462749529708775, -93.20074082814826 -9.725983222076884 M-93.20074082814826 -9.725983222076884 C-93.03789330188884 -9.944184071549659, -92.87504577562942 -10.162384921022433, -92.54894770195651 -10.599326631598467 M-93.20074082814826 -9.725983222076884 C-93.02400147889304 -9.962797848792917, -92.84726212963783 -10.19961247550895, -92.54894770195651 -10.599326631598467 M-92.54894770195651 -10.599326631598467 C-92.38654400327599 -10.790095257100843, -92.22414030459548 -10.980863882603217, -91.84253845028037 -11.42911513444238 M-92.54894770195651 -10.599326631598467 C-92.28493268374052 -10.909453694875081, -92.02091766552454 -11.219580758151697, -91.84253845028037 -11.42911513444238 M-91.84253845028037 -11.42911513444238 C-91.66343513603952 -11.614054011051627, -91.48433182179866 -11.798992887660873, -91.08441586025927 -12.21193895166136 M-91.84253845028037 -11.42911513444238 C-91.6310336603385 -11.647511194923554, -91.41952887039663 -11.86590725540473, -91.08441586025927 -12.21193895166136 M-91.08441586025927 -12.21193895166136 C-90.81309587586257 -12.45834458275704, -90.54177589146587 -12.704750213852718, -90.27769522023242 -12.944581292275274 M-91.08441586025927 -12.21193895166136 C-90.80962419765787 -12.461497469046979, -90.53483253505647 -12.711055986432596, -90.27769522023242 -12.944581292275274 M-90.27769522023242 -12.944581292275274 C-89.99532215568173 -13.169766296991613, -89.71294909113107 -13.394951301707952, -89.42569151835067 -13.624031571755259 M-90.27769522023242 -12.944581292275274 C-90.08623498257933 -13.097265736832707, -89.89477474492625 -13.24995018139014, -89.42569151835067 -13.624031571755259 M-89.42569151835067 -13.624031571755259 C-89.17143444151736 -13.80139030194272, -88.91717736468405 -13.97874903213018, -88.53190582057934 -14.247497783161284 M-89.42569151835067 -13.624031571755259 C-89.21658407399342 -13.769895872823511, -89.00747662963616 -13.915760173891766, -88.53190582057934 -14.247497783161284 M-88.53190582057934 -14.247497783161284 C-88.16926780984483 -14.467331076366044, -87.80662979911033 -14.687164369570802, -87.60001088406695 -14.812417970097618 M-88.53190582057934 -14.247497783161284 C-88.16397128391701 -14.470541861509329, -87.79603674725469 -14.693585939857371, -87.60001088406695 -14.812417970097618 M-87.60001088406695 -14.812417970097618 C-87.26637010737318 -14.986478149591639, -86.93272933067942 -15.160538329085659, -86.63383606499849 -15.316470754341124 M-87.60001088406695 -14.812417970097618 C-87.30533050841768 -14.966152533322047, -87.01065013276843 -15.119887096546476, -86.63383606499849 -15.316470754341124 M-86.63383606499849 -15.316470754341124 C-86.32413096747169 -15.453568013940934, -86.0144258699449 -15.590665273540743, -85.63735158294936 -15.757584874882365 M-86.63383606499849 -15.316470754341124 C-86.43025159340849 -15.40659156079524, -86.22666712181847 -15.496712367249359, -85.63735158294936 -15.757584874882365 M-85.63735158294936 -15.757584874882365 C-85.29577694293302 -15.883287499889741, -84.95420230291667 -16.008990124897117, -84.61465220640156 -16.133947699181363 M-85.63735158294936 -15.757584874882365 C-85.39779374895632 -15.845744372240148, -85.15823591496327 -15.93390386959793, -84.61465220640156 -16.133947699181363 M-84.61465220640156 -16.133947699181363 C-84.20775085333146 -16.25471388490378, -83.80084950026136 -16.375480070626196, -83.56994042646164 -16.444012671663494 M-84.61465220640156 -16.133947699181363 C-84.31074296762428 -16.224146365998312, -84.006833728847 -16.31434503281526, -83.56994042646164 -16.444012671663494 M-83.56994042646164 -16.444012671663494 C-83.25719797266184 -16.51539409590806, -82.94445551886204 -16.586775520152628, -82.50750918792333 -16.68650566884811 M-83.56994042646164 -16.444012671663494 C-83.31471235344621 -16.50226681381044, -83.05948428043077 -16.560520955957386, -82.50750918792333 -16.68650566884811 M-82.50750918792333 -16.68650566884811 C-82.2322045088547 -16.731014794340254, -81.95689982978605 -16.7755239198324, -81.43172424863661 -16.86043023499518 M-82.50750918792333 -16.68650566884811 C-82.15721172913274 -16.74313904538801, -81.80691427034213 -16.799772421927905, -81.43172424863661 -16.86043023499518 M-81.43172424863661 -16.86043023499518 C-81.19884483916772 -16.88289583154818, -80.96596542969883 -16.905361428101177, -80.34700623967213 -16.965071676755716 M-81.43172424863661 -16.86043023499518 C-81.0145029724997 -16.900679069722113, -80.5972816963628 -16.94092790444904, -80.34700623967213 -16.965071676755716 M-80.34700623967213 -16.965071676755716 C-79.97250973074061 -16.977081050883918, -79.59801322180908 -16.989090425012115, -79.2578125 -17 M-80.34700623967213 -16.965071676755716 C-80.0959411194116 -16.97312284649386, -79.84487599915109 -16.981174016232004, -79.2578125 -17 M-79.2578125 -17 C-79.2578125 -17, -79.2578125 -17, -79.2578125 -17 M-79.2578125 -17 C-79.2578125 -17, -79.2578125 -17, -79.2578125 -17" stroke="#9370DB" stroke-width="1.3" fill="none" stroke-dasharray="0 0" style=""></path></g><g class="label" style="" transform="translate(0, -9.5)"><rect></rect><g><rect class="background" style="stroke: none"></rect><text y="-10.1" style=""><tspan class="text-outer-tspan row" x="0" y="-0.1em" dy="1.1em"><tspan font-style="normal" class="text-inner-tspan" font-weight="normal">Project</tspan><tspan font-style="normal" class="text-inner-tspan" font-weight="normal"> or</tspan><tspan font-style="normal" class="text-inner-tspan" font-weight="normal"> existing</tspan><tspan font-style="normal" class="text-inner-tspan" font-weight="normal"> repo</tspan></tspan></text></g></g></g><g class="node default" id="g6eb94159-bb74-4ed7-a93c-a058b27fd9e0-light-flowchart-init-1" data-look="classic" transform="translate(203.07421875, 134.0999984741211)"><rect class="basic label-container" style="" x="-122.1640625" y="-42.099998474121094" width="244.328125" height="84.19999694824219"></rect><g class="label" style="" transform="translate(0, -27.099998474121094)"><rect></rect><g><rect class="background" style="stroke: none"></rect><text y="-10.1" style=""><tspan class="text-outer-tspan row" x="0" y="-0.1em" dy="1.1em"><tspan font-style="normal" class="text-inner-tspan" font-weight="normal">pagesmith-docs</tspan><tspan font-style="normal" class="text-inner-tspan" font-weight="normal"> init</tspan></tspan><tspan class="text-outer-tspan row" x="0" y="1em" dy="1.1em"><tspan font-style="normal" class="text-inner-tspan" font-weight="normal">Scaffold</tspan><tspan font-style="normal" class="text-inner-tspan" font-weight="normal"> or</tspan><tspan font-style="normal" class="text-inner-tspan" font-weight="normal"> backfill</tspan><tspan font-style="normal" class="text-inner-tspan" font-weight="normal"> config</tspan></tspan><tspan class="text-outer-tspan row" x="0" y="2.1em" dy="1.1em"><tspan font-style="normal" class="text-inner-tspan" font-weight="normal">and</tspan><tspan font-style="normal" class="text-inner-tspan" font-weight="normal"> starter</tspan><tspan font-style="normal" class="text-inner-tspan" font-weight="normal"> docs</tspan></tspan></text></g></g></g><g class="node default" id="g6eb94159-bb74-4ed7-a93c-a058b27fd9e0-light-flowchart-dev-2" data-look="classic" transform="translate(124.4921875, 291.2999954223633)"><rect class="basic label-container" style="" x="-115.5" y="-33.29999923706055" width="231" height="66.5999984741211"></rect><g class="label" style="" transform="translate(0, -18.299999237060547)"><rect></rect><g><rect class="background" style="stroke: none"></rect><text y="-10.1" style=""><tspan class="text-outer-tspan row" x="0" y="-0.1em" dy="1.1em"><tspan font-style="normal" class="text-inner-tspan" font-weight="normal">pagesmith-docs</tspan><tspan font-style="normal" class="text-inner-tspan" font-weight="normal"> dev</tspan></tspan><tspan class="text-outer-tspan row" x="0" y="1em" dy="1.1em"><tspan font-style="normal" class="text-inner-tspan" font-weight="normal">Live-reload</tspan><tspan font-style="normal" class="text-inner-tspan" font-weight="normal"> editing</tspan><tspan font-style="normal" class="text-inner-tspan" font-weight="normal"> loop</tspan></tspan></text></g></g></g><g class="node default" id="g6eb94159-bb74-4ed7-a93c-a058b27fd9e0-light-flowchart-build-3" data-look="classic" transform="translate(124.4921875, 425.49999237060547)"><rect class="basic label-container" style="" x="-113.9765625" y="-42.099998474121094" width="227.953125" height="84.19999694824219"></rect><g class="label" style="" transform="translate(0, -27.099998474121094)"><rect></rect><g><rect class="background" style="stroke: none"></rect><text y="-10.1" style=""><tspan class="text-outer-tspan row" x="0" y="-0.1em" dy="1.1em"><tspan font-style="normal" class="text-inner-tspan" font-weight="normal">pagesmith-docs</tspan><tspan font-style="normal" class="text-inner-tspan" font-weight="normal"> build</tspan></tspan><tspan class="text-outer-tspan row" x="0" y="1em" dy="1.1em"><tspan font-style="normal" class="text-inner-tspan" font-weight="normal">Static</tspan><tspan font-style="normal" class="text-inner-tspan" font-weight="normal"> output</tspan><tspan font-style="normal" class="text-inner-tspan" font-weight="normal"> +</tspan><tspan font-style="normal" class="text-inner-tspan" font-weight="normal"> assets</tspan><tspan font-style="normal" class="text-inner-tspan" font-weight="normal"> +</tspan></tspan><tspan class="text-outer-tspan row" x="0" y="2.1em" dy="1.1em"><tspan font-style="normal" class="text-inner-tspan" font-weight="normal">Pagefind</tspan></tspan></text></g></g></g><g class="node default" id="g6eb94159-bb74-4ed7-a93c-a058b27fd9e0-light-flowchart-preview-4" data-look="classic" transform="translate(124.4921875, 559.6999893188477)"><rect class="basic label-container" style="" x="-116.4921875" y="-42.099998474121094" width="232.984375" height="84.19999694824219"></rect><g class="label" style="" transform="translate(0, -27.099998474121094)"><rect></rect><g><rect class="background" style="stroke: none"></rect><text y="-10.1" style=""><tspan class="text-outer-tspan row" x="0" y="-0.1em" dy="1.1em"><tspan font-style="normal" class="text-inner-tspan" font-weight="normal">pagesmith-docs</tspan><tspan font-style="normal" class="text-inner-tspan" font-weight="normal"> preview</tspan></tspan><tspan class="text-outer-tspan row" x="0" y="1em" dy="1.1em"><tspan font-style="normal" class="text-inner-tspan" font-weight="normal">Serve</tspan><tspan font-style="normal" class="text-inner-tspan" font-weight="normal"> built</tspan><tspan font-style="normal" class="text-inner-tspan" font-weight="normal"> output</tspan><tspan font-style="normal" class="text-inner-tspan" font-weight="normal"> from</tspan></tspan><tspan class="text-outer-tspan row" x="0" y="2.1em" dy="1.1em"><tspan font-style="normal" class="text-inner-tspan" font-weight="normal">disk</tspan></tspan></text></g></g></g><g class="node default" id="g6eb94159-bb74-4ed7-a93c-a058b27fd9e0-light-flowchart-mcp-5" data-look="classic" transform="translate(516.66015625, 291.2999954223633)"><rect class="basic label-container" style="" x="-128.828125" y="-42.099998474121094" width="257.65625" height="84.19999694824219"></rect><g class="label" style="" transform="translate(0, -27.099998474121094)"><rect></rect><g><rect class="background" style="stroke: none"></rect><text y="-10.1" style=""><tspan class="text-outer-tspan row" x="0" y="-0.1em" dy="1.1em"><tspan font-style="normal" class="text-inner-tspan" font-weight="normal">pagesmith-docs</tspan><tspan font-style="normal" class="text-inner-tspan" font-weight="normal"> mcp</tspan><tspan font-style="normal" class="text-inner-tspan" font-weight="normal"> --stdio</tspan></tspan><tspan class="text-outer-tspan row" x="0" y="1em" dy="1.1em"><tspan font-style="normal" class="text-inner-tspan" font-weight="normal">Expose</tspan><tspan font-style="normal" class="text-inner-tspan" font-weight="normal"> docs-aware</tspan><tspan font-style="normal" class="text-inner-tspan" font-weight="normal"> MCP</tspan></tspan><tspan class="text-outer-tspan row" x="0" y="2.1em" dy="1.1em"><tspan font-style="normal" class="text-inner-tspan" font-weight="normal">tools</tspan></tspan></text></g></g></g></g></g></g><defs><filter id="g6eb94159-bb74-4ed7-a93c-a058b27fd9e0-light-drop-shadow" height="130%" width="130%"><feDropShadow dx="4" dy="4" stdDeviation="0" flood-opacity="0.06" flood-color="#000000"></feDropShadow></filter></defs><defs><filter id="g6eb94159-bb74-4ed7-a93c-a058b27fd9e0-light-drop-shadow-small" height="150%" width="150%"><feDropShadow dx="2" dy="2" stdDeviation="0" flood-opacity="0.06" flood-color="#000000"></feDropShadow></filter></defs></svg>