<svg id="c3639692-ecc5-4646-97b6-0855b36249fc-dark" width="100%" xmlns="http://www.w3.org/2000/svg" xmlns:xlink="http://www.w3.org/1999/xlink" class="flowchart" style="max-width: 653.48828125px;" viewBox="0 0 653.48828125 609.800048828125" role="graphics-document document" aria-roledescription="flowchart-v2"><style>#c3639692-ecc5-4646-97b6-0855b36249fc-dark{font-family:"trebuchet ms",verdana,arial,sans-serif;font-size:16px;fill:#e5e5e5;}@keyframes edge-animation-frame{from{stroke-dashoffset:0;}}@keyframes dash{to{stroke-dashoffset:0;}}#c3639692-ecc5-4646-97b6-0855b36249fc-dark .edge-animation-slow{stroke-dasharray:9,5!important;stroke-dashoffset:900;animation:dash 50s linear infinite;stroke-linecap:round;}#c3639692-ecc5-4646-97b6-0855b36249fc-dark .edge-animation-fast{stroke-dasharray:9,5!important;stroke-dashoffset:900;animation:dash 20s linear infinite;stroke-linecap:round;}#c3639692-ecc5-4646-97b6-0855b36249fc-dark .error-icon{fill:#252525;}#c3639692-ecc5-4646-97b6-0855b36249fc-dark .error-text{fill:#cccccc;stroke:#cccccc;}#c3639692-ecc5-4646-97b6-0855b36249fc-dark .edge-thickness-normal{stroke-width:1px;}#c3639692-ecc5-4646-97b6-0855b36249fc-dark .edge-thickness-thick{stroke-width:3.5px;}#c3639692-ecc5-4646-97b6-0855b36249fc-dark .edge-pattern-solid{stroke-dasharray:0;}#c3639692-ecc5-4646-97b6-0855b36249fc-dark .edge-thickness-invisible{stroke-width:0;fill:none;}#c3639692-ecc5-4646-97b6-0855b36249fc-dark .edge-pattern-dashed{stroke-dasharray:3;}#c3639692-ecc5-4646-97b6-0855b36249fc-dark .edge-pattern-dotted{stroke-dasharray:2;}#c3639692-ecc5-4646-97b6-0855b36249fc-dark .marker{fill:#cccccc;stroke:#cccccc;}#c3639692-ecc5-4646-97b6-0855b36249fc-dark .marker.cross{stroke:#cccccc;}#c3639692-ecc5-4646-97b6-0855b36249fc-dark svg{font-family:"trebuchet ms",verdana,arial,sans-serif;font-size:16px;}#c3639692-ecc5-4646-97b6-0855b36249fc-dark p{margin:0;}#c3639692-ecc5-4646-97b6-0855b36249fc-dark .label{font-family:"trebuchet ms",verdana,arial,sans-serif;color:#e5e5e5;}#c3639692-ecc5-4646-97b6-0855b36249fc-dark .cluster-label text{fill:#e5e5e5;}#c3639692-ecc5-4646-97b6-0855b36249fc-dark .cluster-label span{color:#e5e5e5;}#c3639692-ecc5-4646-97b6-0855b36249fc-dark .cluster-label span p{background-color:transparent;}#c3639692-ecc5-4646-97b6-0855b36249fc-dark .label text,#c3639692-ecc5-4646-97b6-0855b36249fc-dark span{fill:#e5e5e5;color:#e5e5e5;}#c3639692-ecc5-4646-97b6-0855b36249fc-dark .node rect,#c3639692-ecc5-4646-97b6-0855b36249fc-dark .node circle,#c3639692-ecc5-4646-97b6-0855b36249fc-dark .node ellipse,#c3639692-ecc5-4646-97b6-0855b36249fc-dark .node polygon,#c3639692-ecc5-4646-97b6-0855b36249fc-dark .node path{fill:#2d2d2d;stroke:#555555;stroke-width:1px;}#c3639692-ecc5-4646-97b6-0855b36249fc-dark .rough-node .label text,#c3639692-ecc5-4646-97b6-0855b36249fc-dark .node .label text,#c3639692-ecc5-4646-97b6-0855b36249fc-dark .image-shape .label,#c3639692-ecc5-4646-97b6-0855b36249fc-dark .icon-shape .label{text-anchor:middle;}#c3639692-ecc5-4646-97b6-0855b36249fc-dark .node .katex path{fill:#000;stroke:#000;stroke-width:1px;}#c3639692-ecc5-4646-97b6-0855b36249fc-dark .rough-node .label,#c3639692-ecc5-4646-97b6-0855b36249fc-dark .node .label,#c3639692-ecc5-4646-97b6-0855b36249fc-dark .image-shape .label,#c3639692-ecc5-4646-97b6-0855b36249fc-dark .icon-shape .label{text-align:center;}#c3639692-ecc5-4646-97b6-0855b36249fc-dark .node.clickable{cursor:pointer;}#c3639692-ecc5-4646-97b6-0855b36249fc-dark .root .anchor path{fill:#cccccc!important;stroke-width:0;stroke:#cccccc;}#c3639692-ecc5-4646-97b6-0855b36249fc-dark .arrowheadPath{fill:#cccccc;}#c3639692-ecc5-4646-97b6-0855b36249fc-dark .edgePath .path{stroke:#cccccc;stroke-width:1px;}#c3639692-ecc5-4646-97b6-0855b36249fc-dark .flowchart-link{stroke:#cccccc;fill:none;}#c3639692-ecc5-4646-97b6-0855b36249fc-dark .edgeLabel{background-color:#1e1e1e;text-align:center;}#c3639692-ecc5-4646-97b6-0855b36249fc-dark .edgeLabel p{background-color:#1e1e1e;}#c3639692-ecc5-4646-97b6-0855b36249fc-dark .edgeLabel rect{opacity:0.5;background-color:#1e1e1e;fill:#1e1e1e;}#c3639692-ecc5-4646-97b6-0855b36249fc-dark .labelBkg{background-color:rgba(30, 30, 30, 0.5);}#c3639692-ecc5-4646-97b6-0855b36249fc-dark .cluster rect{fill:#1e1e1e;stroke:#555555;stroke-width:1px;}#c3639692-ecc5-4646-97b6-0855b36249fc-dark .cluster text{fill:#e5e5e5;}#c3639692-ecc5-4646-97b6-0855b36249fc-dark .cluster span{color:#e5e5e5;}#c3639692-ecc5-4646-97b6-0855b36249fc-dark div.mermaidTooltip{position:absolute;text-align:center;max-width:200px;padding:2px;font-family:"trebuchet ms",verdana,arial,sans-serif;font-size:12px;background:#252525;border:1px solid #555555;border-radius:2px;pointer-events:none;z-index:100;}#c3639692-ecc5-4646-97b6-0855b36249fc-dark .flowchartTitleText{text-anchor:middle;font-size:18px;fill:#e5e5e5;}#c3639692-ecc5-4646-97b6-0855b36249fc-dark rect.text{fill:none;stroke-width:0;}#c3639692-ecc5-4646-97b6-0855b36249fc-dark .icon-shape,#c3639692-ecc5-4646-97b6-0855b36249fc-dark .image-shape{background-color:#1e1e1e;text-align:center;}#c3639692-ecc5-4646-97b6-0855b36249fc-dark .icon-shape p,#c3639692-ecc5-4646-97b6-0855b36249fc-dark .image-shape p{background-color:#1e1e1e;padding:2px;}#c3639692-ecc5-4646-97b6-0855b36249fc-dark .icon-shape .label rect,#c3639692-ecc5-4646-97b6-0855b36249fc-dark .image-shape .label rect{opacity:0.5;background-color:#1e1e1e;fill:#1e1e1e;}#c3639692-ecc5-4646-97b6-0855b36249fc-dark .label-icon{display:inline-block;height:1em;overflow:visible;vertical-align:-0.125em;}#c3639692-ecc5-4646-97b6-0855b36249fc-dark .node .label-icon path{fill:currentColor;stroke:revert;stroke-width:revert;}#c3639692-ecc5-4646-97b6-0855b36249fc-dark .node .neo-node{stroke:#555555;}#c3639692-ecc5-4646-97b6-0855b36249fc-dark [data-look="neo"].node rect,#c3639692-ecc5-4646-97b6-0855b36249fc-dark [data-look="neo"].cluster rect,#c3639692-ecc5-4646-97b6-0855b36249fc-dark [data-look="neo"].node polygon{stroke:url(#c3639692-ecc5-4646-97b6-0855b36249fc-dark-gradient);filter:drop-shadow( 1px 2px 2px rgba(185,185,185,1));}#c3639692-ecc5-4646-97b6-0855b36249fc-dark [data-look="neo"].node path{stroke:url(#c3639692-ecc5-4646-97b6-0855b36249fc-dark-gradient);stroke-width:1px;}#c3639692-ecc5-4646-97b6-0855b36249fc-dark [data-look="neo"].node .outer-path{filter:drop-shadow( 1px 2px 2px rgba(185,185,185,1));}#c3639692-ecc5-4646-97b6-0855b36249fc-dark [data-look="neo"].node .neo-line path{stroke:#555555;filter:none;}#c3639692-ecc5-4646-97b6-0855b36249fc-dark [data-look="neo"].node circle{stroke:url(#c3639692-ecc5-4646-97b6-0855b36249fc-dark-gradient);filter:drop-shadow( 1px 2px 2px rgba(185,185,185,1));}#c3639692-ecc5-4646-97b6-0855b36249fc-dark [data-look="neo"].node circle .state-start{fill:#000000;}#c3639692-ecc5-4646-97b6-0855b36249fc-dark [data-look="neo"].icon-shape .icon{fill:url(#c3639692-ecc5-4646-97b6-0855b36249fc-dark-gradient);filter:drop-shadow( 1px 2px 2px rgba(185,185,185,1));}#c3639692-ecc5-4646-97b6-0855b36249fc-dark [data-look="neo"].icon-shape .icon-neo path{stroke:url(#c3639692-ecc5-4646-97b6-0855b36249fc-dark-gradient);filter:drop-shadow( 1px 2px 2px rgba(185,185,185,1));}#c3639692-ecc5-4646-97b6-0855b36249fc-dark :root{--mermaid-font-family:"trebuchet ms",verdana,arial,sans-serif;}</style><g><marker id="c3639692-ecc5-4646-97b6-0855b36249fc-dark_flowchart-v2-pointEnd" class="marker flowchart-v2" viewBox="0 0 10 10" refX="5" refY="5" markerUnits="userSpaceOnUse" markerWidth="8" markerHeight="8" orient="auto"><path d="M 0 0 L 10 5 L 0 10 z" class="arrowMarkerPath" style="stroke-width: 1; stroke-dasharray: 1, 0;"></path></marker><marker id="c3639692-ecc5-4646-97b6-0855b36249fc-dark_flowchart-v2-pointStart" class="marker flowchart-v2" viewBox="0 0 10 10" refX="4.5" refY="5" markerUnits="userSpaceOnUse" markerWidth="8" markerHeight="8" orient="auto"><path d="M 0 5 L 10 10 L 10 0 z" class="arrowMarkerPath" style="stroke-width: 1; stroke-dasharray: 1, 0;"></path></marker><marker id="c3639692-ecc5-4646-97b6-0855b36249fc-dark_flowchart-v2-pointEnd-margin" class="marker flowchart-v2" viewBox="0 0 11.5 14" refX="11.5" refY="7" markerUnits="userSpaceOnUse" markerWidth="10.5" markerHeight="14" orient="auto"><path d="M 0 0 L 11.5 7 L 0 14 z" class="arrowMarkerPath" style="stroke-width: 0; stroke-dasharray: 1, 0;"></path></marker><marker id="c3639692-ecc5-4646-97b6-0855b36249fc-dark_flowchart-v2-pointStart-margin" class="marker flowchart-v2" viewBox="0 0 11.5 14" refX="1" refY="7" markerUnits="userSpaceOnUse" markerWidth="11.5" markerHeight="14" orient="auto"><polygon points="0,7 11.5,14 11.5,0" class="arrowMarkerPath" style="stroke-width: 0; stroke-dasharray: 1, 0;"></polygon></marker><marker id="c3639692-ecc5-4646-97b6-0855b36249fc-dark_flowchart-v2-circleEnd" class="marker flowchart-v2" viewBox="0 0 10 10" refX="11" refY="5" markerUnits="userSpaceOnUse" markerWidth="11" markerHeight="11" orient="auto"><circle cx="5" cy="5" r="5" class="arrowMarkerPath" style="stroke-width: 1; stroke-dasharray: 1, 0;"></circle></marker><marker id="c3639692-ecc5-4646-97b6-0855b36249fc-dark_flowchart-v2-circleStart" class="marker flowchart-v2" viewBox="0 0 10 10" refX="-1" refY="5" markerUnits="userSpaceOnUse" markerWidth="11" markerHeight="11" orient="auto"><circle cx="5" cy="5" r="5" class="arrowMarkerPath" style="stroke-width: 1; stroke-dasharray: 1, 0;"></circle></marker><marker id="c3639692-ecc5-4646-97b6-0855b36249fc-dark_flowchart-v2-circleEnd-margin" class="marker flowchart-v2" viewBox="0 0 10 10" refY="5" refX="12.25" markerUnits="userSpaceOnUse" markerWidth="14" markerHeight="14" orient="auto"><circle cx="5" cy="5" r="5" class="arrowMarkerPath" style="stroke-width: 0; stroke-dasharray: 1, 0;"></circle></marker><marker id="c3639692-ecc5-4646-97b6-0855b36249fc-dark_flowchart-v2-circleStart-margin" class="marker flowchart-v2" viewBox="0 0 10 10" refX="-2" refY="5" markerUnits="userSpaceOnUse" markerWidth="14" markerHeight="14" orient="auto"><circle cx="5" cy="5" r="5" class="arrowMarkerPath" style="stroke-width: 0; stroke-dasharray: 1, 0;"></circle></marker><marker id="c3639692-ecc5-4646-97b6-0855b36249fc-dark_flowchart-v2-crossEnd" class="marker cross flowchart-v2" viewBox="0 0 11 11" refX="12" refY="5.2" markerUnits="userSpaceOnUse" markerWidth="11" markerHeight="11" orient="auto"><path d="M 1,1 l 9,9 M 10,1 l -9,9" class="arrowMarkerPath" style="stroke-width: 2; stroke-dasharray: 1, 0;"></path></marker><marker id="c3639692-ecc5-4646-97b6-0855b36249fc-dark_flowchart-v2-crossStart" class="marker cross flowchart-v2" viewBox="0 0 11 11" refX="-1" refY="5.2" markerUnits="userSpaceOnUse" markerWidth="11" markerHeight="11" orient="auto"><path d="M 1,1 l 9,9 M 10,1 l -9,9" class="arrowMarkerPath" style="stroke-width: 2; stroke-dasharray: 1, 0;"></path></marker><marker id="c3639692-ecc5-4646-97b6-0855b36249fc-dark_flowchart-v2-crossEnd-margin" class="marker cross flowchart-v2" viewBox="0 0 15 15" refX="17.7" refY="7.5" markerUnits="userSpaceOnUse" markerWidth="12" markerHeight="12" orient="auto"><path d="M 1,1 L 14,14 M 1,14 L 14,1" class="arrowMarkerPath" style="stroke-width: 2.5;"></path></marker><marker id="c3639692-ecc5-4646-97b6-0855b36249fc-dark_flowchart-v2-crossStart-margin" class="marker cross flowchart-v2" viewBox="0 0 15 15" refX="-3.5" refY="7.5" markerUnits="userSpaceOnUse" markerWidth="12" markerHeight="12" orient="auto"><path d="M 1,1 L 14,14 M 1,14 L 14,1" class="arrowMarkerPath" style="stroke-width: 2.5; stroke-dasharray: 1, 0;"></path></marker><g class="root"><g class="clusters"></g><g class="edgePaths"><path d="M203.574,42.5L203.491,46.583C203.408,50.667,203.241,58.833,203.158,66.417C203.074,74,203.074,81,203.074,84.5L203.074,88" id="c3639692-ecc5-4646-97b6-0855b36249fc-dark-L_start_init_0" class="edge-thickness-normal edge-pattern-solid edge-thickness-normal edge-pattern-solid flowchart-link" style=";" data-edge="true" data-et="edge" data-id="L_start_init_0" data-points="W3sieCI6MjAzLjU3NDIxODc1LCJ5Ijo0Mi41fSx7IngiOjIwMy4wNzQyMTg3NSwieSI6Njd9LHsieCI6MjAzLjA3NDIxODc1LCJ5Ijo5Mn1d" data-look="classic" marker-end="url(#c3639692-ecc5-4646-97b6-0855b36249fc-dark_flowchart-v2-pointEnd)"></path><path d="M139.96,42.5L124.285,46.583C108.61,50.667,77.26,58.833,61.585,74.1C45.91,89.367,45.91,111.733,45.91,136.017C45.91,160.3,45.91,186.5,52.987,206.679C60.064,226.857,74.218,241.014,81.295,248.093L88.372,255.171" id="c3639692-ecc5-4646-97b6-0855b36249fc-dark-L_start_dev_0" class="edge-thickness-normal edge-pattern-solid edge-thickness-normal edge-pattern-solid flowchart-link" style=";" data-edge="true" data-et="edge" data-id="L_start_dev_0" data-points="W3sieCI6MTM5Ljk2MDE5MzQ1MjM4MDk2LCJ5Ijo0Mi41fSx7IngiOjQ1LjkxMDE1NjI1LCJ5Ijo2N30seyJ4Ijo0NS45MTAxNTYyNSwieSI6MTM0LjA5OTk5ODQ3NDEyMTF9LHsieCI6NDUuOTEwMTU2MjUsInkiOjIxMi42OTk5OTY5NDgyNDIyfSx7IngiOjkxLjE5OTgwMDMzMTE0NzM0LCJ5IjoyNTcuOTk5OTk2MTg1MzAyNzN9XQ==" data-look="classic" marker-end="url(#c3639692-ecc5-4646-97b6-0855b36249fc-dark_flowchart-v2-pointEnd)"></path><path d="M203.074,176.2L203.074,182.283C203.074,188.367,203.074,200.533,195.997,213.695C188.92,226.857,174.767,241.014,167.69,248.093L160.613,255.171" id="c3639692-ecc5-4646-97b6-0855b36249fc-dark-L_init_dev_0" class="edge-thickness-normal edge-pattern-solid edge-thickness-normal edge-pattern-solid flowchart-link" style=";" data-edge="true" data-et="edge" data-id="L_init_dev_0" data-points="W3sieCI6MjAzLjA3NDIxODc1LCJ5IjoxNzYuMTk5OTk2OTQ4MjQyMn0seyJ4IjoyMDMuMDc0MjE4NzUsInkiOjIxMi42OTk5OTY5NDgyNDIyfSx7IngiOjE1Ny43ODQ1NzQ2Njg4NTI2NiwieSI6MjU3Ljk5OTk5NjE4NTMwMjczfV0=" data-look="classic" marker-end="url(#c3639692-ecc5-4646-97b6-0855b36249fc-dark_flowchart-v2-pointEnd)"></path><path d="M124.492,324.6L124.492,330.233C124.492,335.867,124.492,347.133,124.492,356.267C124.492,365.4,124.492,372.4,124.492,375.9L124.492,379.4" id="c3639692-ecc5-4646-97b6-0855b36249fc-dark-L_dev_build_0" class="edge-thickness-normal edge-pattern-solid edge-thickness-normal edge-pattern-solid flowchart-link" style=";" data-edge="true" data-et="edge" data-id="L_dev_build_0" data-points="W3sieCI6MTI0LjQ5MjE4NzUsInkiOjMyNC41OTk5OTQ2NTk0MjM4fSx7IngiOjEyNC40OTIxODc1LCJ5IjozNTguMzk5OTkzODk2NDg0NH0seyJ4IjoxMjQuNDkyMTg3NSwieSI6MzgzLjM5OTk5Mzg5NjQ4NDR9XQ==" data-look="classic" marker-end="url(#c3639692-ecc5-4646-97b6-0855b36249fc-dark_flowchart-v2-pointEnd)"></path><path d="M124.492,467.6L124.492,471.767C124.492,475.933,124.492,484.267,124.492,491.933C124.492,499.6,124.492,506.6,124.492,510.1L124.492,513.6" id="c3639692-ecc5-4646-97b6-0855b36249fc-dark-L_build_preview_0" class="edge-thickness-normal edge-pattern-solid edge-thickness-normal edge-pattern-solid flowchart-link" style=";" data-edge="true" data-et="edge" data-id="L_build_preview_0" data-points="W3sieCI6MTI0LjQ5MjE4NzUsInkiOjQ2Ny41OTk5OTA4NDQ3MjY1Nn0seyJ4IjoxMjQuNDkyMTg3NSwieSI6NDkyLjU5OTk5MDg0NDcyNjU2fSx7IngiOjEyNC40OTIxODc1LCJ5Ijo1MTcuNTk5OTkwODQ0NzI2Nn1d" data-look="classic" marker-end="url(#c3639692-ecc5-4646-97b6-0855b36249fc-dark_flowchart-v2-pointEnd)"></path><path d="M291.499,40.116L318.872,44.596C346.245,49.077,400.992,58.039,428.365,73.703C455.738,89.367,455.738,111.733,455.738,136.017C455.738,160.3,455.738,186.5,460.045,205.156C464.352,223.813,472.965,234.926,477.272,240.482L481.579,246.038" id="c3639692-ecc5-4646-97b6-0855b36249fc-dark-L_start_mcp_0" class="edge-thickness-normal edge-pattern-dotted edge-thickness-normal edge-pattern-solid flowchart-link" style=";" data-edge="true" data-et="edge" data-id="L_start_mcp_0" data-points="W3sieCI6MjkxLjQ5ODkwMzUyMTg2ODQ0LCJ5Ijo0MC4xMTU1OTk1NTg4NzQ2NH0seyJ4Ijo0NTUuNzM4MjgxMjUsInkiOjY3fSx7IngiOjQ1NS43MzgyODEyNSwieSI6MTM0LjA5OTk5ODQ3NDEyMTF9LHsieCI6NDU1LjczODI4MTI1LCJ5IjoyMTIuNjk5OTk2OTQ4MjQyMn0seyJ4Ijo0ODQuMDI4OTc0Mzg4MjcxOSwieSI6MjQ5LjE5OTk5Njk0ODI0MjJ9XQ==" data-look="classic" marker-end="url(#c3639692-ecc5-4646-97b6-0855b36249fc-dark_flowchart-v2-pointEnd)"></path><path d="M325.238,159.739L367.296,168.566C409.353,177.393,493.467,195.046,531.218,209.43C568.969,223.813,560.355,234.926,556.049,240.482L551.742,246.038" id="c3639692-ecc5-4646-97b6-0855b36249fc-dark-L_init_mcp_0" class="edge-thickness-normal edge-pattern-dotted edge-thickness-normal edge-pattern-solid flowchart-link" style=";" data-edge="true" data-et="edge" data-id="L_init_mcp_0" data-points="W3sieCI6MzI1LjIzODI4MTI1LCJ5IjoxNTkuNzM5MjM2OTc3NTcwMDJ9LHsieCI6NTc3LjU4MjAzMTI1LCJ5IjoyMTIuNjk5OTk2OTQ4MjQyMn0seyJ4Ijo1NDkuMjkxMzM4MTExNzI4MSwieSI6MjQ5LjE5OTk5Njk0ODI0MjJ9XQ==" data-look="classic" marker-end="url(#c3639692-ecc5-4646-97b6-0855b36249fc-dark_flowchart-v2-pointEnd)"></path></g><g class="edgeLabels"><g class="edgeLabel"><g class="label" data-id="L_start_init_0" transform="translate(0, 0)"><text y="-10.1" text-anchor="middle"><tspan class="text-outer-tspan row" x="0" y="-0.1em" dy="1.1em" text-anchor="middle"></tspan></text></g></g><g><rect class="background" style="stroke: none"></rect></g><g class="edgeLabel"><g class="label" data-id="L_start_dev_0" transform="translate(0, 0)"><text y="-10.1" text-anchor="middle"><tspan class="text-outer-tspan row" x="0" y="-0.1em" dy="1.1em" text-anchor="middle"></tspan></text></g></g><g><rect class="background" style="stroke: none"></rect></g><g class="edgeLabel"><g class="label" data-id="L_init_dev_0" transform="translate(0, 0)"><text y="-10.1" text-anchor="middle"><tspan class="text-outer-tspan row" x="0" y="-0.1em" dy="1.1em" text-anchor="middle"></tspan></text></g></g><g><rect class="background" style="stroke: none"></rect></g><g class="edgeLabel"><g class="label" data-id="L_dev_build_0" transform="translate(0, 0)"><text y="-10.1" text-anchor="middle"><tspan class="text-outer-tspan row" x="0" y="-0.1em" dy="1.1em" text-anchor="middle"></tspan></text></g></g><g><rect class="background" style="stroke: none"></rect></g><g class="edgeLabel"><g class="label" data-id="L_build_preview_0" transform="translate(0, 0)"><text y="-10.1" text-anchor="middle"><tspan class="text-outer-tspan row" x="0" y="-0.1em" dy="1.1em" text-anchor="middle"></tspan></text></g></g><g><rect class="background" style="stroke: none"></rect></g><g class="edgeLabel" transform="translate(455.73828125, 134.0999984741211)"><g class="label" data-id="L_start_mcp_0" transform="translate(0, -10.5)"><g><rect class="background" style="" x="-95.5" y="-1" width="191" height="23"></rect><text y="-10.1" text-anchor="middle" style=""><tspan class="text-outer-tspan row" x="0" y="-0.1em" dy="1.1em" text-anchor="middle"><tspan font-style="normal" class="text-inner-tspan" font-weight="normal">assistant</tspan><tspan font-style="normal" class="text-inner-tspan" font-weight="normal"> or</tspan><tspan font-style="normal" class="text-inner-tspan" font-weight="normal"> tooling</tspan><tspan font-style="normal" class="text-inner-tspan" font-weight="normal"> access</tspan></tspan></text></g></g></g><g class="edgeLabel" transform="translate(474.00794, 190.96234)"><g class="label" data-id="L_init_mcp_0" transform="translate(0, -10.5)"><g><rect class="background" style="" x="-101.84375" y="-1" width="203.6875" height="23"></rect><text y="-10.1" text-anchor="middle" style=""><tspan class="text-outer-tspan row" x="0" y="-0.1em" dy="1.1em" text-anchor="middle"><tspan font-style="normal" class="text-inner-tspan" font-weight="normal">project</tspan><tspan font-style="normal" class="text-inner-tspan" font-weight="normal"> metadata</tspan><tspan font-style="normal" class="text-inner-tspan" font-weight="normal"> +</tspan><tspan font-style="normal" class="text-inner-tspan" font-weight="normal"> content</tspan></tspan></text></g></g></g></g><g class="nodes"><g class="node default" id="c3639692-ecc5-4646-97b6-0855b36249fc-dark-flowchart-start-0" data-look="classic" transform="translate(203.07421875, 25)"><g class="basic label-container outer-path"><path d="M-79.2578125 -17 C-24.13327342799129 -17, 30.991265644017417 -17, 79.2578125 -17 C79.2578125 -17, 79.2578125 -17, 79.2578125 -17 C79.51627110833834 -16.99171173548975, 79.77472971667669 -16.983423470979503, 80.34700623967211 -16.965071676755716 C80.63605625487305 -16.937187369422787, 80.92510627007401 -16.909303062089855, 81.4317242486366 -16.860430234995185 C81.75616404335909 -16.80797732505264, 82.08060383808157 -16.755524415110095, 82.50750918792333 -16.686505668848113 C82.91862809751915 -16.59267046053447, 83.32974700711497 -16.498835252220832, 83.56994042646163 -16.4440126716635 C83.80798946426427 -16.373360966788574, 84.04603850206692 -16.302709261913645, 84.61465220640156 -16.133947699181366 C84.84264191417316 -16.050045379207663, 85.07063162194476 -15.966143059233959, 85.63735158294936 -15.757584874882369 C85.99693238095772 -15.598409122189462, 86.35651317896607 -15.439233369496554, 86.63383606499849 -15.316470754341125 C86.94987152084771 -15.15159525945496, 87.26590697669691 -14.986719764568793, 87.60001088406693 -14.812417970097622 C87.86868388769345 -14.649546816401402, 88.13735689131997 -14.486675662705183, 88.53190582057933 -14.247497783161291 C88.7784403705203 -14.07552595343113, 89.02497492046128 -13.903554123700967, 89.42569151835067 -13.624031571755262 C89.68328047769772 -13.418611231406079, 89.94086943704478 -13.213190891056895, 90.2776952202324 -12.944581292275288 C90.588046731946 -12.662728260788034, 90.89839824365959 -12.380875229300779, 91.08441586025927 -12.21193895166137 C91.29481068544034 -11.99468902092552, 91.50520551062141 -11.77743909018967, 91.84253845028036 -11.42911513444239 C92.06498902769552 -11.167812028414108, 92.28743960511068 -10.906508922385825, 92.54894770195651 -10.59932663159847 C92.78187036624537 -10.287231481142634, 93.01479303053424 -9.975136330686794, 93.20074082814824 -9.725983222076888 C93.36782314259158 -9.469299919208408, 93.53490545703491 -9.212616616339929, 93.79523947109088 -8.812673661278927 C93.94275098912206 -8.550752023853645, 94.09026250715323 -8.288830386428364, 94.330000708341 -7.863150934094199 C94.4506181917959 -7.612686148899414, 94.57123567525078 -7.362221363704629, 94.80282709126881 -6.881316833080699 C94.93920387518489 -6.544463540142237, 95.07558065910096 -6.2076102472037755, 95.21177567484592 -5.871205925162238 C95.3163240057121 -5.55632301010768, 95.4208723365783 -5.241440095053122, 95.55516600162323 -4.836968972727556 C95.64980263010841 -4.476078492539339, 95.74443925859359 -4.115188012351122, 95.831587007091 -3.7828558772573464 C95.89538118231921 -3.4552862703641747, 95.95917535754742 -3.127716663471003, 96.03990281804565 -2.713198215567453 C96.06929182316084 -2.4852628954095084, 96.09868082827603 -2.2573275752515642, 96.17925742013637 -1.632391440430593 C96.20338352431023 -1.2566078936820073, 96.22750962848409 -0.8808243469334215, 96.2490781754117 -0.5448768187181379 C96.2490781754117 -0.2650961300593401, 96.2490781754117 0.01468455859945772, 96.2490781754117 0.5448768187181336 C96.23022418953782 0.8385428673672488, 96.21137020366393 1.132208916016364, 96.17925742013637 1.6323914404305815 C96.15127782706628 1.8493956390865747, 96.1232982339962 2.066399837742568, 96.03990281804565 2.7131982155674415 C95.99090743681757 2.964779142996164, 95.94191205558948 3.2163600704248863, 95.831587007091 3.782855877257343 C95.75061392703583 4.091641325462583, 95.66964084698067 4.400426773667824, 95.55516600162323 4.836968972727545 C95.45029218590824 5.152832196287741, 95.34541837019324 5.468695419847935, 95.21177567484592 5.871205925162227 C95.10062863122681 6.145741271783322, 94.98948158760771 6.420276618404418, 94.80282709126881 6.881316833080694 C94.6777897739968 7.140959497766028, 94.55275245672479 7.400602162451361, 94.330000708341 7.863150934094196 C94.18648966486778 8.117969323849868, 94.04297862139454 8.37278771360554, 93.79523947109088 8.812673661278923 C93.61226159453392 9.093776816110024, 93.42928371797696 9.374879970941125, 93.20074082814826 9.725983222076879 C93.05992918779903 9.914657991940514, 92.91911754744979 10.10333276180415, 92.54894770195651 10.599326631598467 C92.29883047397678 10.893128559656901, 92.04871324599706 11.186930487715333, 91.84253845028037 11.42911513444238 C91.6194005447842 11.659523341829928, 91.39626263928801 11.889931549217474, 91.08441586025927 12.211938951661365 C90.78575633762678 12.483173628018253, 90.48709681499427 12.75440830437514, 90.27769522023242 12.944581292275275 C90.08963484069623 13.094554440458506, 89.90157446116005 13.244527588641736, 89.42569151835067 13.62403157175526 C89.10437837621208 13.848165710289399, 88.7830652340735 14.072299848823535, 88.53190582057934 14.247497783161286 C88.24622680906877 14.420678078775216, 87.96054779755819 14.593858374389145, 87.60001088406695 14.81241797009762 C87.40000277950199 14.91676207013785, 87.19999467493705 15.02110617017808, 86.63383606499849 15.316470754341124 C86.27760799064389 15.474162355727533, 85.92137991628928 15.631853957113941, 85.63735158294936 15.757584874882367 C85.37327459008388 15.854767649357829, 85.10919759721838 15.95195042383329, 84.61465220640156 16.133947699181363 C84.33864752123928 16.21586444095937, 84.06264283607702 16.297781182737378, 83.56994042646164 16.444012671663497 C83.19617971217538 16.529321115682738, 82.8224189978891 16.61462955970198, 82.50750918792333 16.68650566884811 C82.11491427131924 16.74997737034561, 81.72231935471513 16.813449071843113, 81.43172424863661 16.86043023499518 C81.0717961355344 16.89515206718926, 80.7118680224322 16.929873899383345, 80.34700623967211 16.965071676755716 C79.93830380684331 16.97817796828551, 79.5296013740145 16.991284259815306, 79.2578125 17 C79.2578125 17, 79.2578125 17, 79.2578125 17 C31.34409023875628 17, -16.56963202248744 17, -79.2578125 17 C-79.5389650785793 16.990983984035257, -79.8201176571586 16.981967968070514, -80.34700623967211 16.965071676755716 C-80.76855600111519 16.924405278257066, -81.19010576255825 16.883738879758415, -81.4317242486366 16.86043023499518 C-81.69188625872313 16.818369258790913, -81.95204826880965 16.776308282586644, -82.50750918792333 16.68650566884811 C-82.79077000676759 16.621853235396497, -83.07403082561186 16.557200801944884, -83.56994042646161 16.4440126716635 C-83.8319269115526 16.36625645808362, -84.09391339664359 16.28850024450374, -84.61465220640154 16.13394769918137 C-84.85367555635426 16.04598489689114, -85.09269890630699 15.958022094600913, -85.63735158294936 15.757584874882369 C-85.86847855826512 15.655271819048204, -86.09960553358088 15.552958763214042, -86.63383606499849 15.316470754341127 C-86.9217996064961 15.16624035919128, -87.2097631479937 15.01600996404143, -87.60001088406693 14.812417970097624 C-87.81458405057435 14.682342455588936, -88.02915721708176 14.55226694108025, -88.53190582057931 14.247497783161299 C-88.86616123845323 14.014335673336285, -89.20041665632715 13.78117356351127, -89.42569151835067 13.624031571755264 C-89.76456341788177 13.35379024963918, -90.10343531741287 13.083548927523095, -90.2776952202324 12.94458129227529 C-90.4788507028674 12.761897205228593, -90.68000618550242 12.579213118181896, -91.08441586025926 12.211938951661377 C-91.35832289858736 11.929107446401542, -91.63222993691546 11.646275941141708, -91.84253845028036 11.429115134442386 C-92.1132874128255 11.111077996984468, -92.38403637537063 10.79304085952655, -92.54894770195651 10.599326631598473 C-92.76596727051363 10.308540180621346, -92.98298683907075 10.01775372964422, -93.20074082814824 9.72598322207689 C-93.40032496899384 9.419368385892113, -93.59990910983943 9.112753549707335, -93.79523947109088 8.812673661278936 C-93.98231059747653 8.480509933375568, -94.16938172386217 8.1483462054722, -94.330000708341 7.863150934094201 C-94.44332799616014 7.627824396122271, -94.55665528397925 7.392497858150341, -94.80282709126881 6.881316833080701 C-94.90353541207354 6.632565333630114, -95.00424373287825 6.383813834179526, -95.21177567484592 5.87120592516224 C-95.30196284232349 5.5995765460935445, -95.39215000980106 5.32794716702485, -95.55516600162323 4.8369689727275516 C-95.64393092677591 4.4984698421584906, -95.73269585192858 4.159970711589429, -95.831587007091 3.782855877257349 C-95.91405071744205 3.3594221533160233, -95.99651442779312 2.9359884293746976, -96.03990281804565 2.713198215567455 C-96.0859932453777 2.3557299627644346, -96.13208367270974 1.998261709961414, -96.17925742013637 1.6323914404306026 C-96.19637630121998 1.365751049441068, -96.21349518230362 1.0991106584515338, -96.2490781754117 0.54487681871814 C-96.2490781754117 0.12101232445311993, -96.2490781754117 -0.3028521698119001, -96.2490781754117 -0.5448768187181317 C-96.23260797401242 -0.8014135000190721, -96.21613777261315 -1.0579501813200123, -96.17925742013637 -1.6323914404305793 C-96.13822457459615 -1.9506340875886328, -96.09719172905594 -2.2688767347466863, -96.03990281804565 -2.713198215567447 C-95.9830314558796 -3.005220640523499, -95.92616009371353 -3.2972430654795515, -95.831587007091 -3.782855877257341 C-95.73943459253655 -4.134272973062556, -95.6472821779821 -4.48569006886777, -95.55516600162323 -4.836968972727544 C-95.42600840878411 -5.225971063891175, -95.29685081594499 -5.614973155054807, -95.21177567484594 -5.871205925162218 C-95.056922886588 -6.253695306034301, -94.90207009833007 -6.636184686906383, -94.80282709126881 -6.881316833080692 C-94.62213149058306 -7.256535114171136, -94.44143588989732 -7.63175339526158, -94.330000708341 -7.863150934094194 C-94.11806782407467 -8.239459230640707, -93.90613493980833 -8.61576752718722, -93.79523947109088 -8.812673661278929 C-93.6489097184908 -9.03747545631305, -93.50257996589072 -9.262277251347172, -93.20074082814826 -9.725983222076884 C-93.01777356937261 -9.971142680176065, -92.83480631059696 -10.216302138275248, -92.54894770195651 -10.599326631598467 C-92.27030622544979 -10.92663476505243, -91.99166474894307 -11.253942898506395, -91.84253845028037 -11.42911513444238 C-91.6403903488854 -11.637849645800456, -91.43824224749045 -11.846584157158533, -91.08441586025927 -12.21193895166136 C-90.9156749052948 -12.365185022319082, -90.74693395033032 -12.518431092976806, -90.27769522023242 -12.944581292275274 C-90.07808057239623 -13.103768661955765, -89.87846592456005 -13.262956031636257, -89.42569151835067 -13.624031571755259 C-89.1050421315118 -13.847702703325826, -88.78439274467291 -14.071373834896393, -88.53190582057934 -14.247497783161284 C-88.23967092352132 -14.42465229512074, -87.94743602646328 -14.601806807080198, -87.60001088406695 -14.812417970097618 C-87.40440260876053 -14.914466682031891, -87.20879433345412 -15.016515393966165, -86.63383606499849 -15.316470754341124 C-86.40894589218797 -15.416022962714386, -86.18405571937745 -15.51557517108765, -85.63735158294936 -15.757584874882365 C-85.40490770758814 -15.843126369702926, -85.17246383222691 -15.928667864523486, -84.61465220640156 -16.133947699181363 C-84.2047088783533 -16.255616727109647, -83.79476555030503 -16.37728575503793, -83.56994042646164 -16.444012671663494 C-83.34835689089813 -16.49458766768816, -83.12677335533462 -16.545162663712834, -82.50750918792333 -16.68650566884811 C-82.09865351191512 -16.752606283821997, -81.68979783590689 -16.818706898795885, -81.43172424863661 -16.86043023499518 C-81.15269521109579 -16.88734783066523, -80.87366617355497 -16.914265426335277, -80.34700623967213 -16.965071676755716 C-79.97216469082893 -16.977092115642304, -79.59732314198574 -16.98911255452889, -79.2578125 -17 C-79.2578125 -17, -79.2578125 -17, -79.2578125 -17" stroke="none" stroke-width="0" fill="#2d2d2d" style=""></path><path d="M-79.2578125 -17 C-44.2869759015531 -17, -9.316139303106198 -17, 79.2578125 -17 M-79.2578125 -17 C-27.595351064736136 -17, 24.06711037052773 -17, 79.2578125 -17 M79.2578125 -17 C79.2578125 -17, 79.2578125 -17, 79.2578125 -17 M79.2578125 -17 C79.2578125 -17, 79.2578125 -17, 79.2578125 -17 M79.2578125 -17 C79.57257088764699 -16.989906311148196, 79.88732927529398 -16.97981262229639, 80.34700623967211 -16.965071676755716 M79.2578125 -17 C79.64628286643446 -16.987542511460145, 80.03475323286892 -16.97508502292029, 80.34700623967211 -16.965071676755716 M80.34700623967211 -16.965071676755716 C80.66001120128531 -16.934876464552435, 80.97301616289852 -16.90468125234915, 81.4317242486366 -16.860430234995185 M80.34700623967211 -16.965071676755716 C80.62093020300617 -16.938646561454647, 80.89485416634022 -16.912221446153577, 81.4317242486366 -16.860430234995185 M81.4317242486366 -16.860430234995185 C81.73908114883328 -16.810739154959744, 82.04643804902997 -16.761048074924307, 82.50750918792333 -16.686505668848113 M81.4317242486366 -16.860430234995185 C81.65006026470813 -16.825131361137835, 81.86839628077966 -16.78983248728048, 82.50750918792333 -16.686505668848113 M82.50750918792333 -16.686505668848113 C82.7762198688235 -16.625174209433716, 83.04493054972367 -16.56384275001932, 83.56994042646163 -16.4440126716635 M82.50750918792333 -16.686505668848113 C82.76099182907807 -16.628649910133365, 83.01447447023281 -16.570794151418614, 83.56994042646163 -16.4440126716635 M83.56994042646163 -16.4440126716635 C83.87444880679163 -16.35363618277866, 84.17895718712164 -16.263259693893822, 84.61465220640156 -16.133947699181366 M83.56994042646163 -16.4440126716635 C83.85334711248936 -16.359899054882522, 84.13675379851708 -16.275785438101547, 84.61465220640156 -16.133947699181366 M84.61465220640156 -16.133947699181366 C84.8672018318135 -16.041007102486628, 85.11975145722543 -15.948066505791886, 85.63735158294936 -15.757584874882369 M84.61465220640156 -16.133947699181366 C84.83130325325563 -16.054218111238747, 85.0479543001097 -15.974488523296127, 85.63735158294936 -15.757584874882369 M85.63735158294936 -15.757584874882369 C85.97066319329349 -15.610037712320649, 86.30397480363762 -15.462490549758929, 86.63383606499849 -15.316470754341125 M85.63735158294936 -15.757584874882369 C85.93889544871662 -15.624100350488169, 86.24043931448387 -15.490615826093968, 86.63383606499849 -15.316470754341125 M86.63383606499849 -15.316470754341125 C86.92878662708829 -15.162595235023733, 87.22373718917807 -15.008719715706341, 87.60001088406693 -14.812417970097622 M86.63383606499849 -15.316470754341125 C86.9158877311875 -15.169324580753031, 87.19793939737652 -15.022178407164938, 87.60001088406693 -14.812417970097622 M87.60001088406693 -14.812417970097622 C87.91285950686627 -14.622767296454091, 88.22570812966559 -14.43311662281056, 88.53190582057933 -14.247497783161291 M87.60001088406693 -14.812417970097622 C87.82516173604539 -14.67593020049501, 88.05031258802384 -14.539442430892398, 88.53190582057933 -14.247497783161291 M88.53190582057933 -14.247497783161291 C88.78349423966905 -14.072000593091428, 89.03508265875878 -13.896503403021564, 89.42569151835067 -13.624031571755262 M88.53190582057933 -14.247497783161291 C88.74032909884535 -14.102110726741213, 88.94875237711138 -13.956723670321134, 89.42569151835067 -13.624031571755262 M89.42569151835067 -13.624031571755262 C89.6031319118797 -13.482527579803039, 89.78057230540874 -13.341023587850815, 90.2776952202324 -12.944581292275288 M89.42569151835067 -13.624031571755262 C89.63014351160041 -13.460986547834636, 89.83459550485014 -13.297941523914012, 90.2776952202324 -12.944581292275288 M90.2776952202324 -12.944581292275288 C90.45050329683471 -12.787641569356223, 90.62331137343703 -12.630701846437157, 91.08441586025927 -12.21193895166137 M90.2776952202324 -12.944581292275288 C90.47111069415809 -12.768926476348987, 90.66452616808378 -12.593271660422685, 91.08441586025927 -12.21193895166137 M91.08441586025927 -12.21193895166137 C91.30954980617774 -11.979469668659839, 91.5346837520962 -11.747000385658307, 91.84253845028036 -11.42911513444239 M91.08441586025927 -12.21193895166137 C91.25352858648303 -12.0373161774223, 91.42264131270679 -11.86269340318323, 91.84253845028036 -11.42911513444239 M91.84253845028036 -11.42911513444239 C92.02408886218025 -11.215855690113694, 92.20563927408013 -11.002596245785, 92.54894770195651 -10.59932663159847 M91.84253845028036 -11.42911513444239 C92.08110596036731 -11.148880162218381, 92.31967347045425 -10.868645189994375, 92.54894770195651 -10.59932663159847 M92.54894770195651 -10.59932663159847 C92.6849624751156 -10.41707922676603, 92.82097724827469 -10.23483182193359, 93.20074082814824 -9.725983222076888 M92.54894770195651 -10.59932663159847 C92.80913724325397 -10.250696350014705, 93.06932678455144 -9.90206606843094, 93.20074082814824 -9.725983222076888 M93.20074082814824 -9.725983222076888 C93.37112505035476 -9.464227302197756, 93.5415092725613 -9.202471382318624, 93.79523947109088 -8.812673661278927 M93.20074082814824 -9.725983222076888 C93.42792960597583 -9.37696025060484, 93.65511838380341 -9.027937279132793, 93.79523947109088 -8.812673661278927 M93.79523947109088 -8.812673661278927 C93.92028603367794 -8.5906408270681, 94.04533259626498 -8.368607992857271, 94.330000708341 -7.863150934094199 M93.79523947109088 -8.812673661278927 C93.92533282051015 -8.581679746004927, 94.0554261699294 -8.350685830730926, 94.330000708341 -7.863150934094199 M94.330000708341 -7.863150934094199 C94.49272365263744 -7.525253258549402, 94.65544659693387 -7.187355583004603, 94.80282709126881 -6.881316833080699 M94.330000708341 -7.863150934094199 C94.51871196172999 -7.471287978657981, 94.70742321511898 -7.079425023221763, 94.80282709126881 -6.881316833080699 M94.80282709126881 -6.881316833080699 C94.9434664350298 -6.533934934914298, 95.08410577879081 -6.186553036747897, 95.21177567484592 -5.871205925162238 M94.80282709126881 -6.881316833080699 C94.95107761761173 -6.515135166784739, 95.09932814395465 -6.148953500488778, 95.21177567484592 -5.871205925162238 M95.21177567484592 -5.871205925162238 C95.32701523173893 -5.524122740730464, 95.44225478863191 -5.1770395562986895, 95.55516600162323 -4.836968972727556 M95.21177567484592 -5.871205925162238 C95.30287048828791 -5.5968428610624645, 95.39396530172989 -5.322479796962691, 95.55516600162323 -4.836968972727556 M95.55516600162323 -4.836968972727556 C95.66481735580808 -4.4188208360232295, 95.77446870999292 -4.000672699318902, 95.831587007091 -3.7828558772573464 M95.55516600162323 -4.836968972727556 C95.66390208779161 -4.422311149649686, 95.77263817395999 -4.007653326571817, 95.831587007091 -3.7828558772573464 M95.831587007091 -3.7828558772573464 C95.89441088918805 -3.4602685205211987, 95.95723477128509 -3.137681163785051, 96.03990281804565 -2.713198215567453 M95.831587007091 -3.7828558772573464 C95.90334264278088 -3.414405853548792, 95.97509827847075 -3.045955829840237, 96.03990281804565 -2.713198215567453 M96.03990281804565 -2.713198215567453 C96.07953505037699 -2.4058184478750455, 96.11916728270833 -2.098438680182638, 96.17925742013637 -1.632391440430593 M96.03990281804565 -2.713198215567453 C96.09007356982039 -2.324083772138093, 96.14024432159513 -1.9349693287087328, 96.17925742013637 -1.632391440430593 M96.17925742013637 -1.632391440430593 C96.19957775036076 -1.3158858949102779, 96.21989808058517 -0.9993803493899628, 96.2490781754117 -0.5448768187181379 M96.17925742013637 -1.632391440430593 C96.1932365059871 -1.414655894590485, 96.20721559183782 -1.196920348750377, 96.2490781754117 -0.5448768187181379 M96.2490781754117 -0.5448768187181379 C96.2490781754117 -0.19507944102955604, 96.2490781754117 0.15471793665902578, 96.2490781754117 0.5448768187181336 M96.2490781754117 -0.5448768187181379 C96.2490781754117 -0.25991684602992604, 96.2490781754117 0.025043126658285786, 96.2490781754117 0.5448768187181336 M96.2490781754117 0.5448768187181336 C96.22483771688417 0.9224415268302294, 96.20059725835665 1.3000062349423251, 96.17925742013637 1.6323914404305815 M96.2490781754117 0.5448768187181336 C96.22519557744967 0.9168675596627133, 96.20131297948765 1.288858300607293, 96.17925742013637 1.6323914404305815 M96.17925742013637 1.6323914404305815 C96.1482317265727 1.8730205929941548, 96.11720603300904 2.113649745557728, 96.03990281804565 2.7131982155674415 M96.17925742013637 1.6323914404305815 C96.14366231688564 1.9084600321950835, 96.1080672136349 2.1845286239595856, 96.03990281804565 2.7131982155674415 M96.03990281804565 2.7131982155674415 C95.99183396190988 2.960021632468278, 95.9437651057741 3.2068450493691145, 95.831587007091 3.782855877257343 M96.03990281804565 2.7131982155674415 C95.95785765965154 3.1344827636708663, 95.87581250125741 3.5557673117742916, 95.831587007091 3.782855877257343 M95.831587007091 3.782855877257343 C95.74280090527127 4.121435763635929, 95.65401480345153 4.460015650014515, 95.55516600162323 4.836968972727545 M95.831587007091 3.782855877257343 C95.76364735569308 4.041939213268797, 95.69570770429516 4.30102254928025, 95.55516600162323 4.836968972727545 M95.55516600162323 4.836968972727545 C95.43821229819179 5.189214893420991, 95.32125859476032 5.541460814114437, 95.21177567484592 5.871205925162227 M95.55516600162323 4.836968972727545 C95.45709936306515 5.132330063267497, 95.35903272450709 5.427691153807448, 95.21177567484592 5.871205925162227 M95.21177567484592 5.871205925162227 C95.05234065284361 6.265013511974379, 94.89290563084131 6.658821098786532, 94.80282709126881 6.881316833080694 M95.21177567484592 5.871205925162227 C95.0922165335727 6.16651931562584, 94.97265739229947 6.461832706089453, 94.80282709126881 6.881316833080694 M94.80282709126881 6.881316833080694 C94.6630108182972 7.1716483154952435, 94.5231945453256 7.461979797909793, 94.330000708341 7.863150934094196 M94.80282709126881 6.881316833080694 C94.70343133900947 7.087714239375633, 94.60403558675011 7.294111645670572, 94.330000708341 7.863150934094196 M94.330000708341 7.863150934094196 C94.15270022052134 8.17796590383921, 93.97539973270169 8.492780873584225, 93.79523947109088 8.812673661278923 M94.330000708341 7.863150934094196 C94.13597355327539 8.207665795293137, 93.94194639820977 8.552180656492077, 93.79523947109088 8.812673661278923 M93.79523947109088 8.812673661278923 C93.58689699898379 9.132743646222611, 93.3785545268767 9.452813631166299, 93.20074082814826 9.725983222076879 M93.79523947109088 8.812673661278923 C93.5741385893304 9.152343989562903, 93.35303770756992 9.492014317846882, 93.20074082814826 9.725983222076879 M93.20074082814826 9.725983222076879 C93.03094380410832 9.953495765463272, 92.8611467800684 10.181008308849664, 92.54894770195651 10.599326631598467 M93.20074082814826 9.725983222076879 C92.96798053383219 10.037860811561373, 92.73522023951611 10.349738401045867, 92.54894770195651 10.599326631598467 M92.54894770195651 10.599326631598467 C92.27303103161374 10.923434052686396, 91.99711436127096 11.247541473774325, 91.84253845028037 11.42911513444238 M92.54894770195651 10.599326631598467 C92.33095666964229 10.855391302195871, 92.11296563732809 11.111455972793273, 91.84253845028037 11.42911513444238 M91.84253845028037 11.42911513444238 C91.53958805129254 11.741936294087642, 91.23663765230471 12.054757453732902, 91.08441586025927 12.211938951661365 M91.84253845028037 11.42911513444238 C91.56308670274237 11.71767200719053, 91.28363495520436 12.006228879938678, 91.08441586025927 12.211938951661365 M91.08441586025927 12.211938951661365 C90.86679430108804 12.409577093749759, 90.64917274191679 12.60721523583815, 90.27769522023242 12.944581292275275 M91.08441586025927 12.211938951661365 C90.83314361404013 12.44013775737827, 90.581871367821 12.668336563095174, 90.27769522023242 12.944581292275275 M90.27769522023242 12.944581292275275 C90.09374896002659 13.091273539773862, 89.90980269982076 13.237965787272449, 89.42569151835067 13.62403157175526 M90.27769522023242 12.944581292275275 C90.0149618724691 13.1541041454885, 89.7522285247058 13.363626998701726, 89.42569151835067 13.62403157175526 M89.42569151835067 13.62403157175526 C89.22087385546452 13.766903506970921, 89.01605619257836 13.909775442186582, 88.53190582057934 14.247497783161286 M89.42569151835067 13.62403157175526 C89.08323024100922 13.862917733918904, 88.74076896366775 14.101803896082547, 88.53190582057934 14.247497783161286 M88.53190582057934 14.247497783161286 C88.34435423758626 14.361192654947134, 88.15680265459318 14.474887526732982, 87.60001088406695 14.81241797009762 M88.53190582057934 14.247497783161286 C88.29837786891191 14.389063799824653, 88.06484991724449 14.530629816488018, 87.60001088406695 14.81241797009762 M87.60001088406695 14.81241797009762 C87.38934951767524 14.922319870009124, 87.17868815128355 15.032221769920627, 86.63383606499849 15.316470754341124 M87.60001088406695 14.81241797009762 C87.34003716889573 14.948046090781325, 87.08006345372453 15.083674211465032, 86.63383606499849 15.316470754341124 M86.63383606499849 15.316470754341124 C86.3819864979013 15.427957086843085, 86.1301369308041 15.539443419345046, 85.63735158294936 15.757584874882367 M86.63383606499849 15.316470754341124 C86.24775083149288 15.487379234402527, 85.86166559798725 15.65828771446393, 85.63735158294936 15.757584874882367 M85.63735158294936 15.757584874882367 C85.40464591481414 15.843222711863744, 85.17194024667891 15.928860548845122, 84.61465220640156 16.133947699181363 M85.63735158294936 15.757584874882367 C85.29277398932446 15.88439261457669, 84.94819639569955 16.011200354271015, 84.61465220640156 16.133947699181363 M84.61465220640156 16.133947699181363 C84.33550720355413 16.21679647076446, 84.0563622007067 16.29964524234756, 83.56994042646164 16.444012671663497 M84.61465220640156 16.133947699181363 C84.3783321407108 16.20408625420904, 84.14201207502005 16.27422480923672, 83.56994042646164 16.444012671663497 M83.56994042646164 16.444012671663497 C83.1876953235342 16.531257622024278, 82.80545022060676 16.618502572385058, 82.50750918792333 16.68650566884811 M83.56994042646164 16.444012671663497 C83.33015024687656 16.498743215376635, 83.09036006729146 16.553473759089776, 82.50750918792333 16.68650566884811 M82.50750918792333 16.68650566884811 C82.1581645163941 16.742985006132567, 81.80881984486486 16.799464343417025, 81.43172424863661 16.86043023499518 M82.50750918792333 16.68650566884811 C82.13479988522951 16.746762418503835, 81.76209058253569 16.807019168159563, 81.43172424863661 16.86043023499518 M81.43172424863661 16.86043023499518 C81.17416008561274 16.885277140035868, 80.91659592258885 16.910124045076554, 80.34700623967211 16.965071676755716 M81.43172424863661 16.86043023499518 C81.07542632934472 16.89480186675833, 80.71912841005283 16.929173498521475, 80.34700623967211 16.965071676755716 M80.34700623967211 16.965071676755716 C79.93449088536423 16.978300241255944, 79.52197553105634 16.99152880575617, 79.2578125 17 M80.34700623967211 16.965071676755716 C80.12914089076673 16.972058194445935, 79.91127554186137 16.979044712136155, 79.2578125 17 M79.2578125 17 C79.2578125 17, 79.2578125 17, 79.2578125 17 M79.2578125 17 C79.2578125 17, 79.2578125 17, 79.2578125 17 M79.2578125 17 C46.863446814170594 17, 14.469081128341188 17, -79.2578125 17 M79.2578125 17 C34.87120587819969 17, -9.515400743600622 17, -79.2578125 17 M-79.2578125 17 C-79.52052969316146 16.991575170963305, -79.78324688632294 16.983150341926613, -80.34700623967211 16.965071676755716 M-79.2578125 17 C-79.4963033723239 16.992352061918893, -79.73479424464779 16.984704123837787, -80.34700623967211 16.965071676755716 M-80.34700623967211 16.965071676755716 C-80.69548918010108 16.931453946604588, -81.04397212053003 16.89783621645346, -81.4317242486366 16.86043023499518 M-80.34700623967211 16.965071676755716 C-80.60680541658382 16.94000916261327, -80.86660459349554 16.914946648470817, -81.4317242486366 16.86043023499518 M-81.4317242486366 16.86043023499518 C-81.8415518179765 16.794172491844577, -82.25137938731638 16.727914748693973, -82.50750918792333 16.68650566884811 M-81.4317242486366 16.86043023499518 C-81.71899016326128 16.813987309699105, -82.00625607788596 16.767544384403024, -82.50750918792333 16.68650566884811 M-82.50750918792333 16.68650566884811 C-82.72955384238077 16.635825425444985, -82.95159849683819 16.58514518204186, -83.56994042646161 16.4440126716635 M-82.50750918792333 16.68650566884811 C-82.91245854196353 16.594078621329928, -83.31740789600373 16.501651573811746, -83.56994042646161 16.4440126716635 M-83.56994042646161 16.4440126716635 C-83.86634012751236 16.35604279622542, -84.1627398285631 16.26807292078734, -84.61465220640154 16.13394769918137 M-83.56994042646161 16.4440126716635 C-83.84495254605368 16.362390518136653, -84.11996466564572 16.280768364609806, -84.61465220640154 16.13394769918137 M-84.61465220640154 16.13394769918137 C-84.95398516779545 16.0090700326289, -85.29331812918936 15.884192366076437, -85.63735158294936 15.757584874882369 M-84.61465220640154 16.13394769918137 C-84.96724899848893 16.0041888203242, -85.3198457905763 15.874429941467028, -85.63735158294936 15.757584874882369 M-85.63735158294936 15.757584874882369 C-85.96213587249238 15.613812504285317, -86.28692016203539 15.470040133688265, -86.63383606499849 15.316470754341127 M-85.63735158294936 15.757584874882369 C-86.0073777528435 15.593785265906577, -86.37740392273761 15.429985656930786, -86.63383606499849 15.316470754341127 M-86.63383606499849 15.316470754341127 C-86.898584305178 15.178351767018816, -87.16333254535752 15.040232779696503, -87.60001088406693 14.812417970097624 M-86.63383606499849 15.316470754341127 C-86.89149537666292 15.182050056484456, -87.14915468832736 15.047629358627788, -87.60001088406693 14.812417970097624 M-87.60001088406693 14.812417970097624 C-87.91963933402135 14.618657325389984, -88.23926778397579 14.424896680682345, -88.53190582057931 14.247497783161299 M-87.60001088406693 14.812417970097624 C-87.83054401449773 14.672667431667417, -88.06107714492855 14.532916893237212, -88.53190582057931 14.247497783161299 M-88.53190582057931 14.247497783161299 C-88.78208560255734 14.072983197361637, -89.03226538453538 13.898468611561976, -89.42569151835067 13.624031571755264 M-88.53190582057931 14.247497783161299 C-88.72629692826226 14.111898961497104, -88.9206880359452 13.976300139832908, -89.42569151835067 13.624031571755264 M-89.42569151835067 13.624031571755264 C-89.61716075252924 13.471339952708158, -89.80862998670783 13.31864833366105, -90.2776952202324 12.94458129227529 M-89.42569151835067 13.624031571755264 C-89.7315516813742 13.380116231024765, -90.03741184439774 13.136200890294266, -90.2776952202324 12.94458129227529 M-90.2776952202324 12.94458129227529 C-90.45784028752225 12.780978308539947, -90.63798535481209 12.617375324804602, -91.08441586025926 12.211938951661377 M-90.2776952202324 12.94458129227529 C-90.49103403090817 12.750832629055168, -90.70437284158393 12.557083965835048, -91.08441586025926 12.211938951661377 M-91.08441586025926 12.211938951661377 C-91.28216000239576 12.00775188980944, -91.47990414453226 11.803564827957501, -91.84253845028036 11.429115134442386 M-91.08441586025926 12.211938951661377 C-91.30642471995175 11.98269657676251, -91.52843357964426 11.753454201863642, -91.84253845028036 11.429115134442386 M-91.84253845028036 11.429115134442386 C-92.08506311009648 11.144231868978293, -92.3275877699126 10.859348603514201, -92.54894770195651 10.599326631598473 M-91.84253845028036 11.429115134442386 C-92.07259677828775 11.158875531675196, -92.30265510629515 10.888635928908009, -92.54894770195651 10.599326631598473 M-92.54894770195651 10.599326631598473 C-92.80510870332321 10.25609422651439, -93.06126970468992 9.912861821430308, -93.20074082814824 9.72598322207689 M-92.54894770195651 10.599326631598473 C-92.80057269101106 10.262172069773463, -93.0521976800656 9.925017507948452, -93.20074082814824 9.72598322207689 M-93.20074082814824 9.72598322207689 C-93.38687048226171 9.440038090548217, -93.57300013637519 9.154092959019543, -93.79523947109088 8.812673661278936 M-93.20074082814824 9.72598322207689 C-93.39915919856489 9.42115932232417, -93.59757756898154 9.116335422571451, -93.79523947109088 8.812673661278936 M-93.79523947109088 8.812673661278936 C-94.0070060445911 8.436660666338465, -94.21877261809131 8.060647671397993, -94.330000708341 7.863150934094201 M-93.79523947109088 8.812673661278936 C-93.93559195323712 8.563463616998341, -94.07594443538336 8.314253572717746, -94.330000708341 7.863150934094201 M-94.330000708341 7.863150934094201 C-94.455455286266 7.602641818734983, -94.580909864191 7.342132703375765, -94.80282709126881 6.881316833080701 M-94.330000708341 7.863150934094201 C-94.46689805146845 7.578880671956169, -94.60379539459588 7.294610409818137, -94.80282709126881 6.881316833080701 M-94.80282709126881 6.881316833080701 C-94.90187450798295 6.636667798845252, -95.00092192469708 6.392018764609803, -95.21177567484592 5.87120592516224 M-94.80282709126881 6.881316833080701 C-94.89981624549563 6.6417517469827425, -94.99680539972243 6.402186660884784, -95.21177567484592 5.87120592516224 M-95.21177567484592 5.87120592516224 C-95.3182774217496 5.550439632237328, -95.42477916865329 5.229673339312416, -95.55516600162323 4.8369689727275516 M-95.21177567484592 5.87120592516224 C-95.32359951606922 5.5344103321072184, -95.43542335729252 5.197614739052198, -95.55516600162323 4.8369689727275516 M-95.55516600162323 4.8369689727275516 C-95.66426657489355 4.420921202360266, -95.77336714816387 4.004873431992982, -95.831587007091 3.782855877257349 M-95.55516600162323 4.8369689727275516 C-95.63216487656791 4.543338891039985, -95.70916375151259 4.249708809352419, -95.831587007091 3.782855877257349 M-95.831587007091 3.782855877257349 C-95.89342606669292 3.465325375891335, -95.95526512629485 3.147794874525321, -96.03990281804565 2.713198215567455 M-95.831587007091 3.782855877257349 C-95.89941480951585 3.4345744472168946, -95.96724261194069 3.0862930171764402, -96.03990281804565 2.713198215567455 M-96.03990281804565 2.713198215567455 C-96.08044971161992 2.3987245158951405, -96.12099660519421 2.0842508162228257, -96.17925742013637 1.6323914404306026 M-96.03990281804565 2.713198215567455 C-96.09299980518365 2.301388468511166, -96.14609679232166 1.889578721454877, -96.17925742013637 1.6323914404306026 M-96.17925742013637 1.6323914404306026 C-96.2019370700583 1.2791375862124235, -96.22461671998026 0.9258837319942441, -96.2490781754117 0.54487681871814 M-96.17925742013637 1.6323914404306026 C-96.20482945876485 1.2340862974139437, -96.23040149739333 0.835781154397285, -96.2490781754117 0.54487681871814 M-96.2490781754117 0.54487681871814 C-96.2490781754117 0.11474745374240886, -96.2490781754117 -0.31538191123332227, -96.2490781754117 -0.5448768187181317 M-96.2490781754117 0.54487681871814 C-96.2490781754117 0.24048097546143654, -96.2490781754117 -0.0639148677952669, -96.2490781754117 -0.5448768187181317 M-96.2490781754117 -0.5448768187181317 C-96.22449997947079 -0.9277020596604436, -96.19992178352987 -1.3105273006027556, -96.17925742013637 -1.6323914404305793 M-96.2490781754117 -0.5448768187181317 C-96.23171712994483 -0.8152891154482096, -96.21435608447797 -1.0857014121782873, -96.17925742013637 -1.6323914404305793 M-96.17925742013637 -1.6323914404305793 C-96.13563353911525 -1.9707296471206917, -96.09200965809413 -2.309067853810804, -96.03990281804565 -2.713198215567447 M-96.17925742013637 -1.6323914404305793 C-96.12909334954608 -2.0214540659126286, -96.0789292789558 -2.4105166913946774, -96.03990281804565 -2.713198215567447 M-96.03990281804565 -2.713198215567447 C-95.96626446561795 -3.091315591812343, -95.89262611319027 -3.4694329680572396, -95.831587007091 -3.782855877257341 M-96.03990281804565 -2.713198215567447 C-95.98337826740787 -3.0034398366244512, -95.92685371677008 -3.2936814576814557, -95.831587007091 -3.782855877257341 M-95.831587007091 -3.782855877257341 C-95.74874411906723 -4.098771713626767, -95.66590123104346 -4.414687549996192, -95.55516600162323 -4.836968972727544 M-95.831587007091 -3.782855877257341 C-95.73356295240995 -4.1566640816501925, -95.63553889772892 -4.530472286043043, -95.55516600162323 -4.836968972727544 M-95.55516600162323 -4.836968972727544 C-95.446129701565 -5.165368935927803, -95.33709340150675 -5.493768899128062, -95.21177567484594 -5.871205925162218 M-95.55516600162323 -4.836968972727544 C-95.42977795066868 -5.214617804329806, -95.30438989971412 -5.592266635932068, -95.21177567484594 -5.871205925162218 M-95.21177567484594 -5.871205925162218 C-95.09653545630417 -6.155851492978437, -94.9812952377624 -6.440497060794655, -94.80282709126881 -6.881316833080692 M-95.21177567484594 -5.871205925162218 C-95.11990474952351 -6.098128886912106, -95.02803382420109 -6.325051848661995, -94.80282709126881 -6.881316833080692 M-94.80282709126881 -6.881316833080692 C-94.6389899012884 -7.221528263629318, -94.47515271130797 -7.561739694177943, -94.330000708341 -7.863150934094194 M-94.80282709126881 -6.881316833080692 C-94.63242238880285 -7.235165843827799, -94.46201768633689 -7.589014854574905, -94.330000708341 -7.863150934094194 M-94.330000708341 -7.863150934094194 C-94.18361942975692 -8.123065716932015, -94.03723815117283 -8.382980499769833, -93.79523947109088 -8.812673661278929 M-94.330000708341 -7.863150934094194 C-94.21057106542044 -8.075210358662385, -94.09114142249987 -8.287269783230576, -93.79523947109088 -8.812673661278929 M-93.79523947109088 -8.812673661278929 C-93.56087610113575 -9.17271873290664, -93.3265127311806 -9.532763804534353, -93.20074082814826 -9.725983222076884 M-93.79523947109088 -8.812673661278929 C-93.58395332317167 -9.137265922757654, -93.37266717525247 -9.461858184236378, -93.20074082814826 -9.725983222076884 M-93.20074082814826 -9.725983222076884 C-92.94348444790704 -10.07068333506174, -92.68622806766581 -10.415383448046597, -92.54894770195651 -10.599326631598467 M-93.20074082814826 -9.725983222076884 C-92.94911842186251 -10.063134323226988, -92.69749601557677 -10.400285424377092, -92.54894770195651 -10.599326631598467 M-92.54894770195651 -10.599326631598467 C-92.2923941338892 -10.900689050961908, -92.03584056582189 -11.202051470325348, -91.84253845028037 -11.42911513444238 M-92.54894770195651 -10.599326631598467 C-92.38650325433372 -10.790143123127125, -92.22405880671091 -10.98095961465578, -91.84253845028037 -11.42911513444238 M-91.84253845028037 -11.42911513444238 C-91.58845462442979 -11.691477545303169, -91.33437079857919 -11.953839956163959, -91.08441586025927 -12.21193895166136 M-91.84253845028037 -11.42911513444238 C-91.56377554399283 -11.716960722044503, -91.2850126377053 -12.004806309646625, -91.08441586025927 -12.21193895166136 M-91.08441586025927 -12.21193895166136 C-90.78785399467756 -12.481268591385692, -90.49129212909584 -12.750598231110025, -90.27769522023242 -12.944581292275274 M-91.08441586025927 -12.21193895166136 C-90.82012896415085 -12.451957318058941, -90.55584206804244 -12.691975684456525, -90.27769522023242 -12.944581292275274 M-90.27769522023242 -12.944581292275274 C-90.03712286757334 -13.136431341621712, -89.79655051491429 -13.328281390968153, -89.42569151835067 -13.624031571755259 M-90.27769522023242 -12.944581292275274 C-89.97908831945433 -13.182712349382447, -89.68048141867624 -13.420843406489618, -89.42569151835067 -13.624031571755259 M-89.42569151835067 -13.624031571755259 C-89.17624313915472 -13.798035962636058, -88.92679475995878 -13.972040353516856, -88.53190582057934 -14.247497783161284 M-89.42569151835067 -13.624031571755259 C-89.18035926721615 -13.795164729884721, -88.93502701608162 -13.966297888014184, -88.53190582057934 -14.247497783161284 M-88.53190582057934 -14.247497783161284 C-88.28765314611532 -14.395565189809414, -88.0434004716513 -14.543632596457542, -87.60001088406695 -14.812417970097618 M-88.53190582057934 -14.247497783161284 C-88.29390084942646 -14.39177779534662, -88.05589587827359 -14.536057807531956, -87.60001088406695 -14.812417970097618 M-87.60001088406695 -14.812417970097618 C-87.29302347956458 -14.972573102391683, -86.98603607506223 -15.132728234685747, -86.63383606499849 -15.316470754341124 M-87.60001088406695 -14.812417970097618 C-87.38013551855715 -14.927126807447184, -87.16026015304736 -15.041835644796752, -86.63383606499849 -15.316470754341124 M-86.63383606499849 -15.316470754341124 C-86.39136882488192 -15.423803809005603, -86.14890158476534 -15.531136863670083, -85.63735158294936 -15.757584874882365 M-86.63383606499849 -15.316470754341124 C-86.34877840818795 -15.4426573230762, -86.06372075137742 -15.568843891811273, -85.63735158294936 -15.757584874882365 M-85.63735158294936 -15.757584874882365 C-85.32461245931415 -15.872675763308893, -85.01187333567893 -15.98776665173542, -84.61465220640156 -16.133947699181363 M-85.63735158294936 -15.757584874882365 C-85.26051852414211 -15.896262923930045, -84.88368546533486 -16.034940972977726, -84.61465220640156 -16.133947699181363 M-84.61465220640156 -16.133947699181363 C-84.36449013531903 -16.20819448875115, -84.1143280642365 -16.28244127832094, -83.56994042646164 -16.444012671663494 M-84.61465220640156 -16.133947699181363 C-84.3200917997381 -16.221371681699953, -84.02553139307463 -16.308795664218543, -83.56994042646164 -16.444012671663494 M-83.56994042646164 -16.444012671663494 C-83.30744929242337 -16.503924560092997, -83.0449581583851 -16.563836448522505, -82.50750918792333 -16.68650566884811 M-83.56994042646164 -16.444012671663494 C-83.34937605464133 -16.494355050214445, -83.128811682821 -16.544697428765396, -82.50750918792333 -16.68650566884811 M-82.50750918792333 -16.68650566884811 C-82.08679245836748 -16.754523886975733, -81.66607572881162 -16.82254210510336, -81.43172424863661 -16.86043023499518 M-82.50750918792333 -16.68650566884811 C-82.24411345047537 -16.729089449014243, -81.98071771302742 -16.77167322918038, -81.43172424863661 -16.86043023499518 M-81.43172424863661 -16.86043023499518 C-81.1090019254951 -16.891562869378266, -80.78627960235357 -16.92269550376135, -80.34700623967213 -16.965071676755716 M-81.43172424863661 -16.86043023499518 C-81.15256492151934 -16.887360399543972, -80.87340559440207 -16.914290564092767, -80.34700623967213 -16.965071676755716 M-80.34700623967213 -16.965071676755716 C-80.12509030903517 -16.972188088718088, -79.90317437839822 -16.97930450068046, -79.2578125 -17 M-80.34700623967213 -16.965071676755716 C-79.9965858217021 -16.97630897750805, -79.64616540373207 -16.987546278260382, -79.2578125 -17 M-79.2578125 -17 C-79.2578125 -17, -79.2578125 -17, -79.2578125 -17 M-79.2578125 -17 C-79.2578125 -17, -79.2578125 -17, -79.2578125 -17" stroke="#555555" stroke-width="1.3" fill="none" stroke-dasharray="0 0" style=""></path></g><g class="label" style="" transform="translate(0, -9.5)"><rect></rect><g><rect class="background" style="stroke: none"></rect><text y="-10.1" style=""><tspan class="text-outer-tspan row" x="0" y="-0.1em" dy="1.1em"><tspan font-style="normal" class="text-inner-tspan" font-weight="normal">Project</tspan><tspan font-style="normal" class="text-inner-tspan" font-weight="normal"> or</tspan><tspan font-style="normal" class="text-inner-tspan" font-weight="normal"> existing</tspan><tspan font-style="normal" class="text-inner-tspan" font-weight="normal"> repo</tspan></tspan></text></g></g></g><g class="node default" id="c3639692-ecc5-4646-97b6-0855b36249fc-dark-flowchart-init-1" data-look="classic" transform="translate(203.07421875, 134.0999984741211)"><rect class="basic label-container" style="" x="-122.1640625" y="-42.099998474121094" width="244.328125" height="84.19999694824219"></rect><g class="label" style="" transform="translate(0, -27.099998474121094)"><rect></rect><g><rect class="background" style="stroke: none"></rect><text y="-10.1" style=""><tspan class="text-outer-tspan row" x="0" y="-0.1em" dy="1.1em"><tspan font-style="normal" class="text-inner-tspan" font-weight="normal">pagesmith-docs</tspan><tspan font-style="normal" class="text-inner-tspan" font-weight="normal"> init</tspan></tspan><tspan class="text-outer-tspan row" x="0" y="1em" dy="1.1em"><tspan font-style="normal" class="text-inner-tspan" font-weight="normal">Scaffold</tspan><tspan font-style="normal" class="text-inner-tspan" font-weight="normal"> or</tspan><tspan font-style="normal" class="text-inner-tspan" font-weight="normal"> backfill</tspan><tspan font-style="normal" class="text-inner-tspan" font-weight="normal"> config</tspan></tspan><tspan class="text-outer-tspan row" x="0" y="2.1em" dy="1.1em"><tspan font-style="normal" class="text-inner-tspan" font-weight="normal">and</tspan><tspan font-style="normal" class="text-inner-tspan" font-weight="normal"> starter</tspan><tspan font-style="normal" class="text-inner-tspan" font-weight="normal"> docs</tspan></tspan></text></g></g></g><g class="node default" id="c3639692-ecc5-4646-97b6-0855b36249fc-dark-flowchart-dev-2" data-look="classic" transform="translate(124.4921875, 291.2999954223633)"><rect class="basic label-container" style="" x="-115.5" y="-33.29999923706055" width="231" height="66.5999984741211"></rect><g class="label" style="" transform="translate(0, -18.299999237060547)"><rect></rect><g><rect class="background" style="stroke: none"></rect><text y="-10.1" style=""><tspan class="text-outer-tspan row" x="0" y="-0.1em" dy="1.1em"><tspan font-style="normal" class="text-inner-tspan" font-weight="normal">pagesmith-docs</tspan><tspan font-style="normal" class="text-inner-tspan" font-weight="normal"> dev</tspan></tspan><tspan class="text-outer-tspan row" x="0" y="1em" dy="1.1em"><tspan font-style="normal" class="text-inner-tspan" font-weight="normal">Live-reload</tspan><tspan font-style="normal" class="text-inner-tspan" font-weight="normal"> editing</tspan><tspan font-style="normal" class="text-inner-tspan" font-weight="normal"> loop</tspan></tspan></text></g></g></g><g class="node default" id="c3639692-ecc5-4646-97b6-0855b36249fc-dark-flowchart-build-3" data-look="classic" transform="translate(124.4921875, 425.49999237060547)"><rect class="basic label-container" style="" x="-113.9765625" y="-42.099998474121094" width="227.953125" height="84.19999694824219"></rect><g class="label" style="" transform="translate(0, -27.099998474121094)"><rect></rect><g><rect class="background" style="stroke: none"></rect><text y="-10.1" style=""><tspan class="text-outer-tspan row" x="0" y="-0.1em" dy="1.1em"><tspan font-style="normal" class="text-inner-tspan" font-weight="normal">pagesmith-docs</tspan><tspan font-style="normal" class="text-inner-tspan" font-weight="normal"> build</tspan></tspan><tspan class="text-outer-tspan row" x="0" y="1em" dy="1.1em"><tspan font-style="normal" class="text-inner-tspan" font-weight="normal">Static</tspan><tspan font-style="normal" class="text-inner-tspan" font-weight="normal"> output</tspan><tspan font-style="normal" class="text-inner-tspan" font-weight="normal"> +</tspan><tspan font-style="normal" class="text-inner-tspan" font-weight="normal"> assets</tspan><tspan font-style="normal" class="text-inner-tspan" font-weight="normal"> +</tspan></tspan><tspan class="text-outer-tspan row" x="0" y="2.1em" dy="1.1em"><tspan font-style="normal" class="text-inner-tspan" font-weight="normal">Pagefind</tspan></tspan></text></g></g></g><g class="node default" id="c3639692-ecc5-4646-97b6-0855b36249fc-dark-flowchart-preview-4" data-look="classic" transform="translate(124.4921875, 559.6999893188477)"><rect class="basic label-container" style="" x="-116.4921875" y="-42.099998474121094" width="232.984375" height="84.19999694824219"></rect><g class="label" style="" transform="translate(0, -27.099998474121094)"><rect></rect><g><rect class="background" style="stroke: none"></rect><text y="-10.1" style=""><tspan class="text-outer-tspan row" x="0" y="-0.1em" dy="1.1em"><tspan font-style="normal" class="text-inner-tspan" font-weight="normal">pagesmith-docs</tspan><tspan font-style="normal" class="text-inner-tspan" font-weight="normal"> preview</tspan></tspan><tspan class="text-outer-tspan row" x="0" y="1em" dy="1.1em"><tspan font-style="normal" class="text-inner-tspan" font-weight="normal">Serve</tspan><tspan font-style="normal" class="text-inner-tspan" font-weight="normal"> built</tspan><tspan font-style="normal" class="text-inner-tspan" font-weight="normal"> output</tspan><tspan font-style="normal" class="text-inner-tspan" font-weight="normal"> from</tspan></tspan><tspan class="text-outer-tspan row" x="0" y="2.1em" dy="1.1em"><tspan font-style="normal" class="text-inner-tspan" font-weight="normal">disk</tspan></tspan></text></g></g></g><g class="node default" id="c3639692-ecc5-4646-97b6-0855b36249fc-dark-flowchart-mcp-5" data-look="classic" transform="translate(516.66015625, 291.2999954223633)"><rect class="basic label-container" style="" x="-128.828125" y="-42.099998474121094" width="257.65625" height="84.19999694824219"></rect><g class="label" style="" transform="translate(0, -27.099998474121094)"><rect></rect><g><rect class="background" style="stroke: none"></rect><text y="-10.1" style=""><tspan class="text-outer-tspan row" x="0" y="-0.1em" dy="1.1em"><tspan font-style="normal" class="text-inner-tspan" font-weight="normal">pagesmith-docs</tspan><tspan font-style="normal" class="text-inner-tspan" font-weight="normal"> mcp</tspan><tspan font-style="normal" class="text-inner-tspan" font-weight="normal"> --stdio</tspan></tspan><tspan class="text-outer-tspan row" x="0" y="1em" dy="1.1em"><tspan font-style="normal" class="text-inner-tspan" font-weight="normal">Expose</tspan><tspan font-style="normal" class="text-inner-tspan" font-weight="normal"> docs-aware</tspan><tspan font-style="normal" class="text-inner-tspan" font-weight="normal"> MCP</tspan></tspan><tspan class="text-outer-tspan row" x="0" y="2.1em" dy="1.1em"><tspan font-style="normal" class="text-inner-tspan" font-weight="normal">tools</tspan></tspan></text></g></g></g></g></g></g><defs><filter id="c3639692-ecc5-4646-97b6-0855b36249fc-dark-drop-shadow" height="130%" width="130%"><feDropShadow dx="4" dy="4" stdDeviation="0" flood-opacity="0.06" flood-color="#000000"></feDropShadow></filter></defs><defs><filter id="c3639692-ecc5-4646-97b6-0855b36249fc-dark-drop-shadow-small" height="150%" width="150%"><feDropShadow dx="2" dy="2" stdDeviation="0" flood-opacity="0.06" flood-color="#000000"></feDropShadow></filter></defs><linearGradient id="c3639692-ecc5-4646-97b6-0855b36249fc-dark-gradient" gradientUnits="objectBoundingBox" x1="0%" y1="0%" x2="100%" y2="0%"><stop offset="0%" stop-color="#555555" stop-opacity="1"></stop><stop offset="100%" stop-color="#555555" stop-opacity="1"></stop></linearGradient></svg>