<svg id="g6eb94159-bb74-4ed7-a93c-a058b27fd9e0-dark" width="100%" xmlns="http://www.w3.org/2000/svg" xmlns:xlink="http://www.w3.org/1999/xlink" class="flowchart" style="max-width: 653.48828125px;" viewBox="0 0 653.48828125 609.800048828125" role="graphics-document document" aria-roledescription="flowchart-v2"><rect x="0" y="0" width="653.48828125" height="609.800048828125" fill="#111111"/><style>#g6eb94159-bb74-4ed7-a93c-a058b27fd9e0-dark{font-family:"trebuchet ms",verdana,arial,sans-serif;font-size:16px;fill:#e5e5e5;}@keyframes edge-animation-frame{from{stroke-dashoffset:0;}}@keyframes dash{to{stroke-dashoffset:0;}}#g6eb94159-bb74-4ed7-a93c-a058b27fd9e0-dark .edge-animation-slow{stroke-dasharray:9,5!important;stroke-dashoffset:900;animation:dash 50s linear infinite;stroke-linecap:round;}#g6eb94159-bb74-4ed7-a93c-a058b27fd9e0-dark .edge-animation-fast{stroke-dasharray:9,5!important;stroke-dashoffset:900;animation:dash 20s linear infinite;stroke-linecap:round;}#g6eb94159-bb74-4ed7-a93c-a058b27fd9e0-dark .error-icon{fill:#252525;}#g6eb94159-bb74-4ed7-a93c-a058b27fd9e0-dark .error-text{fill:#cccccc;stroke:#cccccc;}#g6eb94159-bb74-4ed7-a93c-a058b27fd9e0-dark .edge-thickness-normal{stroke-width:1px;}#g6eb94159-bb74-4ed7-a93c-a058b27fd9e0-dark .edge-thickness-thick{stroke-width:3.5px;}#g6eb94159-bb74-4ed7-a93c-a058b27fd9e0-dark .edge-pattern-solid{stroke-dasharray:0;}#g6eb94159-bb74-4ed7-a93c-a058b27fd9e0-dark .edge-thickness-invisible{stroke-width:0;fill:none;}#g6eb94159-bb74-4ed7-a93c-a058b27fd9e0-dark .edge-pattern-dashed{stroke-dasharray:3;}#g6eb94159-bb74-4ed7-a93c-a058b27fd9e0-dark .edge-pattern-dotted{stroke-dasharray:2;}#g6eb94159-bb74-4ed7-a93c-a058b27fd9e0-dark .marker{fill:#cccccc;stroke:#cccccc;}#g6eb94159-bb74-4ed7-a93c-a058b27fd9e0-dark .marker.cross{stroke:#cccccc;}#g6eb94159-bb74-4ed7-a93c-a058b27fd9e0-dark svg{font-family:"trebuchet ms",verdana,arial,sans-serif;font-size:16px;}#g6eb94159-bb74-4ed7-a93c-a058b27fd9e0-dark p{margin:0;}#g6eb94159-bb74-4ed7-a93c-a058b27fd9e0-dark .label{font-family:"trebuchet ms",verdana,arial,sans-serif;color:#e5e5e5;}#g6eb94159-bb74-4ed7-a93c-a058b27fd9e0-dark .cluster-label text{fill:#e5e5e5;}#g6eb94159-bb74-4ed7-a93c-a058b27fd9e0-dark .cluster-label span{color:#e5e5e5;}#g6eb94159-bb74-4ed7-a93c-a058b27fd9e0-dark .cluster-label span p{background-color:transparent;}#g6eb94159-bb74-4ed7-a93c-a058b27fd9e0-dark .label text,#g6eb94159-bb74-4ed7-a93c-a058b27fd9e0-dark span{fill:#e5e5e5;color:#e5e5e5;}#g6eb94159-bb74-4ed7-a93c-a058b27fd9e0-dark .node rect,#g6eb94159-bb74-4ed7-a93c-a058b27fd9e0-dark .node circle,#g6eb94159-bb74-4ed7-a93c-a058b27fd9e0-dark .node ellipse,#g6eb94159-bb74-4ed7-a93c-a058b27fd9e0-dark .node polygon,#g6eb94159-bb74-4ed7-a93c-a058b27fd9e0-dark .node path{fill:#2d2d2d;stroke:#555555;stroke-width:1px;}#g6eb94159-bb74-4ed7-a93c-a058b27fd9e0-dark .rough-node .label text,#g6eb94159-bb74-4ed7-a93c-a058b27fd9e0-dark .node .label text,#g6eb94159-bb74-4ed7-a93c-a058b27fd9e0-dark .image-shape .label,#g6eb94159-bb74-4ed7-a93c-a058b27fd9e0-dark .icon-shape .label{text-anchor:middle;}#g6eb94159-bb74-4ed7-a93c-a058b27fd9e0-dark .node .katex path{fill:#000;stroke:#000;stroke-width:1px;}#g6eb94159-bb74-4ed7-a93c-a058b27fd9e0-dark .rough-node .label,#g6eb94159-bb74-4ed7-a93c-a058b27fd9e0-dark .node .label,#g6eb94159-bb74-4ed7-a93c-a058b27fd9e0-dark .image-shape .label,#g6eb94159-bb74-4ed7-a93c-a058b27fd9e0-dark .icon-shape .label{text-align:center;}#g6eb94159-bb74-4ed7-a93c-a058b27fd9e0-dark .node.clickable{cursor:pointer;}#g6eb94159-bb74-4ed7-a93c-a058b27fd9e0-dark .root .anchor path{fill:#cccccc!important;stroke-width:0;stroke:#cccccc;}#g6eb94159-bb74-4ed7-a93c-a058b27fd9e0-dark .arrowheadPath{fill:#cccccc;}#g6eb94159-bb74-4ed7-a93c-a058b27fd9e0-dark .edgePath .path{stroke:#cccccc;stroke-width:1px;}#g6eb94159-bb74-4ed7-a93c-a058b27fd9e0-dark .flowchart-link{stroke:#cccccc;fill:none;}#g6eb94159-bb74-4ed7-a93c-a058b27fd9e0-dark .edgeLabel{background-color:#1e1e1e;text-align:center;}#g6eb94159-bb74-4ed7-a93c-a058b27fd9e0-dark .edgeLabel p{background-color:#1e1e1e;}#g6eb94159-bb74-4ed7-a93c-a058b27fd9e0-dark .edgeLabel rect{opacity:0.5;background-color:#1e1e1e;fill:#1e1e1e;}#g6eb94159-bb74-4ed7-a93c-a058b27fd9e0-dark .labelBkg{background-color:rgba(30, 30, 30, 0.5);}#g6eb94159-bb74-4ed7-a93c-a058b27fd9e0-dark .cluster rect{fill:#1e1e1e;stroke:#555555;stroke-width:1px;}#g6eb94159-bb74-4ed7-a93c-a058b27fd9e0-dark .cluster text{fill:#e5e5e5;}#g6eb94159-bb74-4ed7-a93c-a058b27fd9e0-dark .cluster span{color:#e5e5e5;}#g6eb94159-bb74-4ed7-a93c-a058b27fd9e0-dark div.mermaidTooltip{position:absolute;text-align:center;max-width:200px;padding:2px;font-family:"trebuchet ms",verdana,arial,sans-serif;font-size:12px;background:#252525;border:1px solid #555555;border-radius:2px;pointer-events:none;z-index:100;}#g6eb94159-bb74-4ed7-a93c-a058b27fd9e0-dark .flowchartTitleText{text-anchor:middle;font-size:18px;fill:#e5e5e5;}#g6eb94159-bb74-4ed7-a93c-a058b27fd9e0-dark rect.text{fill:none;stroke-width:0;}#g6eb94159-bb74-4ed7-a93c-a058b27fd9e0-dark .icon-shape,#g6eb94159-bb74-4ed7-a93c-a058b27fd9e0-dark .image-shape{background-color:#1e1e1e;text-align:center;}#g6eb94159-bb74-4ed7-a93c-a058b27fd9e0-dark .icon-shape p,#g6eb94159-bb74-4ed7-a93c-a058b27fd9e0-dark .image-shape p{background-color:#1e1e1e;padding:2px;}#g6eb94159-bb74-4ed7-a93c-a058b27fd9e0-dark .icon-shape .label rect,#g6eb94159-bb74-4ed7-a93c-a058b27fd9e0-dark .image-shape .label rect{opacity:0.5;background-color:#1e1e1e;fill:#1e1e1e;}#g6eb94159-bb74-4ed7-a93c-a058b27fd9e0-dark .label-icon{display:inline-block;height:1em;overflow:visible;vertical-align:-0.125em;}#g6eb94159-bb74-4ed7-a93c-a058b27fd9e0-dark .node .label-icon path{fill:currentColor;stroke:revert;stroke-width:revert;}#g6eb94159-bb74-4ed7-a93c-a058b27fd9e0-dark .node .neo-node{stroke:#555555;}#g6eb94159-bb74-4ed7-a93c-a058b27fd9e0-dark [data-look="neo"].node rect,#g6eb94159-bb74-4ed7-a93c-a058b27fd9e0-dark [data-look="neo"].cluster rect,#g6eb94159-bb74-4ed7-a93c-a058b27fd9e0-dark [data-look="neo"].node polygon{stroke:url(#g6eb94159-bb74-4ed7-a93c-a058b27fd9e0-dark-gradient);filter:drop-shadow( 1px 2px 2px rgba(185,185,185,1));}#g6eb94159-bb74-4ed7-a93c-a058b27fd9e0-dark [data-look="neo"].node path{stroke:url(#g6eb94159-bb74-4ed7-a93c-a058b27fd9e0-dark-gradient);stroke-width:1px;}#g6eb94159-bb74-4ed7-a93c-a058b27fd9e0-dark [data-look="neo"].node .outer-path{filter:drop-shadow( 1px 2px 2px rgba(185,185,185,1));}#g6eb94159-bb74-4ed7-a93c-a058b27fd9e0-dark [data-look="neo"].node .neo-line path{stroke:#555555;filter:none;}#g6eb94159-bb74-4ed7-a93c-a058b27fd9e0-dark [data-look="neo"].node circle{stroke:url(#g6eb94159-bb74-4ed7-a93c-a058b27fd9e0-dark-gradient);filter:drop-shadow( 1px 2px 2px rgba(185,185,185,1));}#g6eb94159-bb74-4ed7-a93c-a058b27fd9e0-dark [data-look="neo"].node circle .state-start{fill:#000000;}#g6eb94159-bb74-4ed7-a93c-a058b27fd9e0-dark [data-look="neo"].icon-shape .icon{fill:url(#g6eb94159-bb74-4ed7-a93c-a058b27fd9e0-dark-gradient);filter:drop-shadow( 1px 2px 2px rgba(185,185,185,1));}#g6eb94159-bb74-4ed7-a93c-a058b27fd9e0-dark [data-look="neo"].icon-shape .icon-neo path{stroke:url(#g6eb94159-bb74-4ed7-a93c-a058b27fd9e0-dark-gradient);filter:drop-shadow( 1px 2px 2px rgba(185,185,185,1));}#g6eb94159-bb74-4ed7-a93c-a058b27fd9e0-dark :root{--mermaid-font-family:"trebuchet ms",verdana,arial,sans-serif;}</style><g><marker id="g6eb94159-bb74-4ed7-a93c-a058b27fd9e0-dark_flowchart-v2-pointEnd" class="marker flowchart-v2" viewBox="0 0 10 10" refX="5" refY="5" markerUnits="userSpaceOnUse" markerWidth="8" markerHeight="8" orient="auto"><path d="M 0 0 L 10 5 L 0 10 z" class="arrowMarkerPath" style="stroke-width: 1; stroke-dasharray: 1, 0;"></path></marker><marker id="g6eb94159-bb74-4ed7-a93c-a058b27fd9e0-dark_flowchart-v2-pointStart" class="marker flowchart-v2" viewBox="0 0 10 10" refX="4.5" refY="5" markerUnits="userSpaceOnUse" markerWidth="8" markerHeight="8" orient="auto"><path d="M 0 5 L 10 10 L 10 0 z" class="arrowMarkerPath" style="stroke-width: 1; stroke-dasharray: 1, 0;"></path></marker><marker id="g6eb94159-bb74-4ed7-a93c-a058b27fd9e0-dark_flowchart-v2-pointEnd-margin" class="marker flowchart-v2" viewBox="0 0 11.5 14" refX="11.5" refY="7" markerUnits="userSpaceOnUse" markerWidth="10.5" markerHeight="14" orient="auto"><path d="M 0 0 L 11.5 7 L 0 14 z" class="arrowMarkerPath" style="stroke-width: 0; stroke-dasharray: 1, 0;"></path></marker><marker id="g6eb94159-bb74-4ed7-a93c-a058b27fd9e0-dark_flowchart-v2-pointStart-margin" class="marker flowchart-v2" viewBox="0 0 11.5 14" refX="1" refY="7" markerUnits="userSpaceOnUse" markerWidth="11.5" markerHeight="14" orient="auto"><polygon points="0,7 11.5,14 11.5,0" class="arrowMarkerPath" style="stroke-width: 0; stroke-dasharray: 1, 0;"></polygon></marker><marker id="g6eb94159-bb74-4ed7-a93c-a058b27fd9e0-dark_flowchart-v2-circleEnd" class="marker flowchart-v2" viewBox="0 0 10 10" refX="11" refY="5" markerUnits="userSpaceOnUse" markerWidth="11" markerHeight="11" orient="auto"><circle cx="5" cy="5" r="5" class="arrowMarkerPath" style="stroke-width: 1; stroke-dasharray: 1, 0;"></circle></marker><marker id="g6eb94159-bb74-4ed7-a93c-a058b27fd9e0-dark_flowchart-v2-circleStart" class="marker flowchart-v2" viewBox="0 0 10 10" refX="-1" refY="5" markerUnits="userSpaceOnUse" markerWidth="11" markerHeight="11" orient="auto"><circle cx="5" cy="5" r="5" class="arrowMarkerPath" style="stroke-width: 1; stroke-dasharray: 1, 0;"></circle></marker><marker id="g6eb94159-bb74-4ed7-a93c-a058b27fd9e0-dark_flowchart-v2-circleEnd-margin" class="marker flowchart-v2" viewBox="0 0 10 10" refY="5" refX="12.25" markerUnits="userSpaceOnUse" markerWidth="14" markerHeight="14" orient="auto"><circle cx="5" cy="5" r="5" class="arrowMarkerPath" style="stroke-width: 0; stroke-dasharray: 1, 0;"></circle></marker><marker id="g6eb94159-bb74-4ed7-a93c-a058b27fd9e0-dark_flowchart-v2-circleStart-margin" class="marker flowchart-v2" viewBox="0 0 10 10" refX="-2" refY="5" markerUnits="userSpaceOnUse" markerWidth="14" markerHeight="14" orient="auto"><circle cx="5" cy="5" r="5" class="arrowMarkerPath" style="stroke-width: 0; stroke-dasharray: 1, 0;"></circle></marker><marker id="g6eb94159-bb74-4ed7-a93c-a058b27fd9e0-dark_flowchart-v2-crossEnd" class="marker cross flowchart-v2" viewBox="0 0 11 11" refX="12" refY="5.2" markerUnits="userSpaceOnUse" markerWidth="11" markerHeight="11" orient="auto"><path d="M 1,1 l 9,9 M 10,1 l -9,9" class="arrowMarkerPath" style="stroke-width: 2; stroke-dasharray: 1, 0;"></path></marker><marker id="g6eb94159-bb74-4ed7-a93c-a058b27fd9e0-dark_flowchart-v2-crossStart" class="marker cross flowchart-v2" viewBox="0 0 11 11" refX="-1" refY="5.2" markerUnits="userSpaceOnUse" markerWidth="11" markerHeight="11" orient="auto"><path d="M 1,1 l 9,9 M 10,1 l -9,9" class="arrowMarkerPath" style="stroke-width: 2; stroke-dasharray: 1, 0;"></path></marker><marker id="g6eb94159-bb74-4ed7-a93c-a058b27fd9e0-dark_flowchart-v2-crossEnd-margin" class="marker cross flowchart-v2" viewBox="0 0 15 15" refX="17.7" refY="7.5" markerUnits="userSpaceOnUse" markerWidth="12" markerHeight="12" orient="auto"><path d="M 1,1 L 14,14 M 1,14 L 14,1" class="arrowMarkerPath" style="stroke-width: 2.5;"></path></marker><marker id="g6eb94159-bb74-4ed7-a93c-a058b27fd9e0-dark_flowchart-v2-crossStart-margin" class="marker cross flowchart-v2" viewBox="0 0 15 15" refX="-3.5" refY="7.5" markerUnits="userSpaceOnUse" markerWidth="12" markerHeight="12" orient="auto"><path d="M 1,1 L 14,14 M 1,14 L 14,1" class="arrowMarkerPath" style="stroke-width: 2.5; stroke-dasharray: 1, 0;"></path></marker><g class="root"><g class="clusters"></g><g class="edgePaths"><path d="M203.574,42.5L203.491,46.583C203.408,50.667,203.241,58.833,203.158,66.417C203.074,74,203.074,81,203.074,84.5L203.074,88" id="g6eb94159-bb74-4ed7-a93c-a058b27fd9e0-dark-L_start_init_0" class="edge-thickness-normal edge-pattern-solid edge-thickness-normal edge-pattern-solid flowchart-link" style=";" data-edge="true" data-et="edge" data-id="L_start_init_0" data-points="W3sieCI6MjAzLjU3NDIxODc1LCJ5Ijo0Mi41fSx7IngiOjIwMy4wNzQyMTg3NSwieSI6Njd9LHsieCI6MjAzLjA3NDIxODc1LCJ5Ijo5Mn1d" data-look="classic" marker-end="url(#g6eb94159-bb74-4ed7-a93c-a058b27fd9e0-dark_flowchart-v2-pointEnd)"></path><path d="M139.96,42.5L124.285,46.583C108.61,50.667,77.26,58.833,61.585,74.1C45.91,89.367,45.91,111.733,45.91,136.017C45.91,160.3,45.91,186.5,52.987,206.679C60.064,226.857,74.218,241.014,81.295,248.093L88.372,255.171" id="g6eb94159-bb74-4ed7-a93c-a058b27fd9e0-dark-L_start_dev_0" class="edge-thickness-normal edge-pattern-solid edge-thickness-normal edge-pattern-solid flowchart-link" style=";" data-edge="true" data-et="edge" data-id="L_start_dev_0" data-points="W3sieCI6MTM5Ljk2MDE5MzQ1MjM4MDk2LCJ5Ijo0Mi41fSx7IngiOjQ1LjkxMDE1NjI1LCJ5Ijo2N30seyJ4Ijo0NS45MTAxNTYyNSwieSI6MTM0LjA5OTk5ODQ3NDEyMTF9LHsieCI6NDUuOTEwMTU2MjUsInkiOjIxMi42OTk5OTY5NDgyNDIyfSx7IngiOjkxLjE5OTgwMDMzMTE0NzM0LCJ5IjoyNTcuOTk5OTk2MTg1MzAyNzN9XQ==" data-look="classic" marker-end="url(#g6eb94159-bb74-4ed7-a93c-a058b27fd9e0-dark_flowchart-v2-pointEnd)"></path><path d="M203.074,176.2L203.074,182.283C203.074,188.367,203.074,200.533,195.997,213.695C188.92,226.857,174.767,241.014,167.69,248.093L160.613,255.171" id="g6eb94159-bb74-4ed7-a93c-a058b27fd9e0-dark-L_init_dev_0" class="edge-thickness-normal edge-pattern-solid edge-thickness-normal edge-pattern-solid flowchart-link" style=";" data-edge="true" data-et="edge" data-id="L_init_dev_0" data-points="W3sieCI6MjAzLjA3NDIxODc1LCJ5IjoxNzYuMTk5OTk2OTQ4MjQyMn0seyJ4IjoyMDMuMDc0MjE4NzUsInkiOjIxMi42OTk5OTY5NDgyNDIyfSx7IngiOjE1Ny43ODQ1NzQ2Njg4NTI2NiwieSI6MjU3Ljk5OTk5NjE4NTMwMjczfV0=" data-look="classic" marker-end="url(#g6eb94159-bb74-4ed7-a93c-a058b27fd9e0-dark_flowchart-v2-pointEnd)"></path><path d="M124.492,324.6L124.492,330.233C124.492,335.867,124.492,347.133,124.492,356.267C124.492,365.4,124.492,372.4,124.492,375.9L124.492,379.4" id="g6eb94159-bb74-4ed7-a93c-a058b27fd9e0-dark-L_dev_build_0" class="edge-thickness-normal edge-pattern-solid edge-thickness-normal edge-pattern-solid flowchart-link" style=";" data-edge="true" data-et="edge" data-id="L_dev_build_0" data-points="W3sieCI6MTI0LjQ5MjE4NzUsInkiOjMyNC41OTk5OTQ2NTk0MjM4fSx7IngiOjEyNC40OTIxODc1LCJ5IjozNTguMzk5OTkzODk2NDg0NH0seyJ4IjoxMjQuNDkyMTg3NSwieSI6MzgzLjM5OTk5Mzg5NjQ4NDR9XQ==" data-look="classic" marker-end="url(#g6eb94159-bb74-4ed7-a93c-a058b27fd9e0-dark_flowchart-v2-pointEnd)"></path><path d="M124.492,467.6L124.492,471.767C124.492,475.933,124.492,484.267,124.492,491.933C124.492,499.6,124.492,506.6,124.492,510.1L124.492,513.6" id="g6eb94159-bb74-4ed7-a93c-a058b27fd9e0-dark-L_build_preview_0" class="edge-thickness-normal edge-pattern-solid edge-thickness-normal edge-pattern-solid flowchart-link" style=";" data-edge="true" data-et="edge" data-id="L_build_preview_0" data-points="W3sieCI6MTI0LjQ5MjE4NzUsInkiOjQ2Ny41OTk5OTA4NDQ3MjY1Nn0seyJ4IjoxMjQuNDkyMTg3NSwieSI6NDkyLjU5OTk5MDg0NDcyNjU2fSx7IngiOjEyNC40OTIxODc1LCJ5Ijo1MTcuNTk5OTkwODQ0NzI2Nn1d" data-look="classic" marker-end="url(#g6eb94159-bb74-4ed7-a93c-a058b27fd9e0-dark_flowchart-v2-pointEnd)"></path><path d="M291.499,40.116L318.872,44.596C346.245,49.077,400.992,58.039,428.365,73.703C455.738,89.367,455.738,111.733,455.738,136.017C455.738,160.3,455.738,186.5,460.045,205.156C464.352,223.813,472.965,234.926,477.272,240.482L481.579,246.038" id="g6eb94159-bb74-4ed7-a93c-a058b27fd9e0-dark-L_start_mcp_0" class="edge-thickness-normal edge-pattern-dotted edge-thickness-normal edge-pattern-solid flowchart-link" style=";" data-edge="true" data-et="edge" data-id="L_start_mcp_0" data-points="W3sieCI6MjkxLjQ5ODkwMzUyMTg2ODQ0LCJ5Ijo0MC4xMTU1OTk1NTg4NzQ2NH0seyJ4Ijo0NTUuNzM4MjgxMjUsInkiOjY3fSx7IngiOjQ1NS43MzgyODEyNSwieSI6MTM0LjA5OTk5ODQ3NDEyMTF9LHsieCI6NDU1LjczODI4MTI1LCJ5IjoyMTIuNjk5OTk2OTQ4MjQyMn0seyJ4Ijo0ODQuMDI4OTc0Mzg4MjcxOSwieSI6MjQ5LjE5OTk5Njk0ODI0MjJ9XQ==" data-look="classic" marker-end="url(#g6eb94159-bb74-4ed7-a93c-a058b27fd9e0-dark_flowchart-v2-pointEnd)"></path><path d="M325.238,159.739L367.296,168.566C409.353,177.393,493.467,195.046,531.218,209.43C568.969,223.813,560.355,234.926,556.049,240.482L551.742,246.038" id="g6eb94159-bb74-4ed7-a93c-a058b27fd9e0-dark-L_init_mcp_0" class="edge-thickness-normal edge-pattern-dotted edge-thickness-normal edge-pattern-solid flowchart-link" style=";" data-edge="true" data-et="edge" data-id="L_init_mcp_0" data-points="W3sieCI6MzI1LjIzODI4MTI1LCJ5IjoxNTkuNzM5MjM2OTc3NTcwMDJ9LHsieCI6NTc3LjU4MjAzMTI1LCJ5IjoyMTIuNjk5OTk2OTQ4MjQyMn0seyJ4Ijo1NDkuMjkxMzM4MTExNzI4MSwieSI6MjQ5LjE5OTk5Njk0ODI0MjJ9XQ==" data-look="classic" marker-end="url(#g6eb94159-bb74-4ed7-a93c-a058b27fd9e0-dark_flowchart-v2-pointEnd)"></path></g><g class="edgeLabels"><g class="edgeLabel"><g class="label" data-id="L_start_init_0" transform="translate(0, 0)"><text y="-10.1" text-anchor="middle"><tspan class="text-outer-tspan row" x="0" y="-0.1em" dy="1.1em" text-anchor="middle"></tspan></text></g></g><g><rect class="background" style="stroke: none"></rect></g><g class="edgeLabel"><g class="label" data-id="L_start_dev_0" transform="translate(0, 0)"><text y="-10.1" text-anchor="middle"><tspan class="text-outer-tspan row" x="0" y="-0.1em" dy="1.1em" text-anchor="middle"></tspan></text></g></g><g><rect class="background" style="stroke: none"></rect></g><g class="edgeLabel"><g class="label" data-id="L_init_dev_0" transform="translate(0, 0)"><text y="-10.1" text-anchor="middle"><tspan class="text-outer-tspan row" x="0" y="-0.1em" dy="1.1em" text-anchor="middle"></tspan></text></g></g><g><rect class="background" style="stroke: none"></rect></g><g class="edgeLabel"><g class="label" data-id="L_dev_build_0" transform="translate(0, 0)"><text y="-10.1" text-anchor="middle"><tspan class="text-outer-tspan row" x="0" y="-0.1em" dy="1.1em" text-anchor="middle"></tspan></text></g></g><g><rect class="background" style="stroke: none"></rect></g><g class="edgeLabel"><g class="label" data-id="L_build_preview_0" transform="translate(0, 0)"><text y="-10.1" text-anchor="middle"><tspan class="text-outer-tspan row" x="0" y="-0.1em" dy="1.1em" text-anchor="middle"></tspan></text></g></g><g><rect class="background" style="stroke: none"></rect></g><g class="edgeLabel" transform="translate(455.73828125, 134.0999984741211)"><g class="label" data-id="L_start_mcp_0" transform="translate(0, -10.5)"><g><rect class="background" style="" x="-95.5" y="-1" width="191" height="23"></rect><text y="-10.1" text-anchor="middle" style=""><tspan class="text-outer-tspan row" x="0" y="-0.1em" dy="1.1em" text-anchor="middle"><tspan font-style="normal" class="text-inner-tspan" font-weight="normal">assistant</tspan><tspan font-style="normal" class="text-inner-tspan" font-weight="normal"> or</tspan><tspan font-style="normal" class="text-inner-tspan" font-weight="normal"> tooling</tspan><tspan font-style="normal" class="text-inner-tspan" font-weight="normal"> access</tspan></tspan></text></g></g></g><g class="edgeLabel" transform="translate(474.00794, 190.96234)"><g class="label" data-id="L_init_mcp_0" transform="translate(0, -10.5)"><g><rect class="background" style="" x="-101.84375" y="-1" width="203.6875" height="23"></rect><text y="-10.1" text-anchor="middle" style=""><tspan class="text-outer-tspan row" x="0" y="-0.1em" dy="1.1em" text-anchor="middle"><tspan font-style="normal" class="text-inner-tspan" font-weight="normal">project</tspan><tspan font-style="normal" class="text-inner-tspan" font-weight="normal"> metadata</tspan><tspan font-style="normal" class="text-inner-tspan" font-weight="normal"> +</tspan><tspan font-style="normal" class="text-inner-tspan" font-weight="normal"> content</tspan></tspan></text></g></g></g></g><g class="nodes"><g class="node default" id="g6eb94159-bb74-4ed7-a93c-a058b27fd9e0-dark-flowchart-start-0" data-look="classic" transform="translate(203.07421875, 25)"><g class="basic label-container outer-path"><path d="M-79.2578125 -17 C-37.746625587014734 -17, 3.764561325970533 -17, 79.2578125 -17 C79.2578125 -17, 79.2578125 -17, 79.2578125 -17 C79.49916643918164 -16.992260248937388, 79.74052037836326 -16.984520497874776, 80.34700623967211 -16.965071676755716 C80.57434387619232 -16.943140688374122, 80.80168151271252 -16.921209699992527, 81.4317242486366 -16.860430234995185 C81.69869478634648 -16.817268508845693, 81.96566532405635 -16.774106782696204, 82.50750918792333 -16.686505668848113 C82.81341644131895 -16.616684334491946, 83.11932369471458 -16.546863000135783, 83.56994042646163 -16.4440126716635 C83.83563979726773 -16.365154493092703, 84.10133916807385 -16.28629631452191, 84.61465220640156 -16.133947699181366 C84.82498285210428 -16.05654407728759, 85.035313497807 -15.979140455393813, 85.63735158294936 -15.757584874882369 C86.00851537363424 -15.593281674928834, 86.37967916431911 -15.4289784749753, 86.63383606499849 -15.316470754341125 C86.90584723923335 -15.17456269897427, 87.17785841346821 -15.032654643607415, 87.60001088406693 -14.812417970097622 C87.80218433601027 -14.68985923542649, 88.00435778795361 -14.567300500755355, 88.53190582057933 -14.247497783161291 C88.74466283350529 -14.09908770104679, 88.95741984643125 -13.950677618932287, 89.42569151835067 -13.624031571755262 C89.62964932490651 -13.461380648572163, 89.83360713146233 -13.298729725389062, 90.2776952202324 -12.944581292275288 C90.49883956867599 -12.743743846177646, 90.71998391711958 -12.542906400080003, 91.08441586025927 -12.21193895166137 C91.26434703901788 -12.026145236968592, 91.4442782177765 -11.840351522275812, 91.84253845028036 -11.42911513444239 C92.02361635514016 -11.216410723769384, 92.20469425999997 -11.003706313096378, 92.54894770195651 -10.59932663159847 C92.71191914511806 -10.380959744765896, 92.87489058827961 -10.162592857933323, 93.20074082814824 -9.725983222076888 C93.40998072931255 -9.404534545107872, 93.61922063047686 -9.083085868138857, 93.79523947109088 -8.812673661278927 C93.93984285747129 -8.555915706079833, 94.08444624385172 -8.299157750880738, 94.330000708341 -7.863150934094199 C94.44010871388711 -7.634509304643782, 94.55021671943324 -7.405867675193363, 94.80282709126881 -6.881316833080699 C94.9191990391906 -6.593875871815321, 95.0355709871124 -6.306434910549943, 95.21177567484592 -5.871205925162238 C95.29594215620979 -5.617709893401958, 95.38010863757366 -5.364213861641678, 95.55516600162323 -4.836968972727556 C95.64407360536856 -4.497925746847436, 95.73298120911387 -4.158882520967316, 95.831587007091 -3.7828558772573464 C95.90447078143477 -3.4086130999932682, 95.97735455577853 -3.03437032272919, 96.03990281804565 -2.713198215567453 C96.0812834331947 -2.392258335998148, 96.12266404834375 -2.071318456428843, 96.17925742013637 -1.632391440430593 C96.20520854328153 -1.228181750075086, 96.2311596664267 -0.823972059719579, 96.2490781754117 -0.5448768187181379 C96.2490781754117 -0.11270238849872538, 96.2490781754117 0.3194720417206871, 96.2490781754117 0.5448768187181336 C96.22624023924249 0.900596109003849, 96.20340230307328 1.2563153992895644, 96.17925742013637 1.6323914404305815 C96.13262910513426 1.9940314437846298, 96.08600079013216 2.355671447138678, 96.03990281804565 2.7131982155674415 C95.97856232896913 3.028168662658388, 95.91722183989262 3.343139109749335, 95.831587007091 3.782855877257343 C95.76338615518542 4.042935284009532, 95.69518530327983 4.303014690761721, 95.55516600162323 4.836968972727545 C95.45313014004269 5.1442847306013615, 95.35109427846216 5.451600488475178, 95.21177567484592 5.871205925162227 C95.0969318161596 6.1548724764724305, 94.98208795747325 6.438539027782635, 94.80282709126881 6.881316833080694 C94.6304084088589 7.239347916273698, 94.45798972644897 7.597378999466703, 94.330000708341 7.863150934094196 C94.1834130942975 8.12343208643392, 94.03682548025402 8.383713238773646, 93.79523947109088 8.812673661278923 C93.6748753664011 8.9975852483701, 93.5545112617113 9.18249683546128, 93.20074082814826 9.725983222076879 C93.05770528190247 9.917637823239893, 92.91466973565669 10.109292424402907, 92.54894770195651 10.599326631598467 C92.27047380058461 10.926437921763767, 91.99199989921273 11.253549211929068, 91.84253845028037 11.42911513444238 C91.6426881411149 11.635476986671257, 91.44283783194943 11.841838838900134, 91.08441586025927 12.211938951661365 C90.87539747665484 12.401763917327537, 90.6663790930504 12.59158888299371, 90.27769522023242 12.944581292275275 C90.03985766687191 13.134250411957177, 89.8020201135114 13.323919531639081, 89.42569151835067 13.62403157175526 C89.22093235637594 13.766862699267573, 89.0161731944012 13.909693826779886, 88.53190582057934 14.247497783161286 C88.26654105396203 14.408363464141162, 88.00117628734472 14.56922914512104, 87.60001088406695 14.81241797009762 C87.39955927789727 14.91699344464096, 87.19910767172759 15.021568919184302, 86.63383606499849 15.316470754341124 C86.28740320167705 15.46982630636776, 85.94097033835561 15.6231818583944, 85.63735158294936 15.757584874882367 C85.41219428694477 15.840444841143288, 85.18703699094017 15.92330480740421, 84.61465220640156 16.133947699181363 C84.27891579678682 16.233592503238643, 83.94317938717208 16.33323730729592, 83.56994042646164 16.444012671663497 C83.24787169110755 16.517522758813154, 82.92580295575347 16.591032845962815, 82.50750918792333 16.68650566884811 C82.2810687231015 16.72311480712847, 82.05462825827965 16.759723945408837, 81.43172424863661 16.86043023499518 C81.16456099043221 16.886203153203333, 80.8973977322278 16.911976071411484, 80.34700623967211 16.965071676755716 C80.08659106877145 16.97342268441912, 79.8261758978708 16.981773692082523, 79.2578125 17 C79.2578125 17, 79.2578125 17, 79.2578125 17 C43.01614431187789 17, 6.774476123755775 17, -79.2578125 17 C-79.63379630940692 16.987942931040408, -80.00978011881385 16.975885862080816, -80.34700623967211 16.965071676755716 C-80.56480454338414 16.9440609363374, -80.78260284709617 16.923050195919085, -81.4317242486366 16.86043023499518 C-81.7782638820026 16.804404394527563, -82.1248035153686 16.74837855405994, -82.50750918792333 16.68650566884811 C-82.83437948219677 16.61189965720821, -83.1612497764702 16.53729364556831, -83.56994042646161 16.4440126716635 C-83.7959845442616 16.376923964030254, -84.02202866206159 16.309835256397005, -84.61465220640154 16.13394769918137 C-84.98899398319239 15.99618646494489, -85.36333575998322 15.85842523070841, -85.63735158294936 15.757584874882369 C-85.95709282131492 15.616044913444782, -86.27683405968047 15.474504952007193, -86.63383606499849 15.316470754341127 C-86.87015665382847 15.193182454519084, -87.10647724265846 15.069894154697042, -87.60001088406693 14.812417970097624 C-87.92990728649424 14.612432832259735, -88.25980368892155 14.412447694421846, -88.53190582057931 14.247497783161299 C-88.8773366035447 14.006540222422233, -89.22276738651009 13.765582661683167, -89.42569151835067 13.624031571755264 C-89.6426953636628 13.450976779833697, -89.8596992089749 13.277921987912132, -90.2776952202324 12.94458129227529 C-90.55352231732552 12.694082420680388, -90.82934941441864 12.443583549085487, -91.08441586025926 12.211938951661377 C-91.33571884274318 11.952447989888151, -91.58702182522711 11.692957028114925, -91.84253845028036 11.429115134442386 C-92.11028873416025 11.114600415574312, -92.37803901804014 10.800085696706237, -92.54894770195651 10.599326631598473 C-92.74611828538475 10.335136012414289, -92.94328886881301 10.070945393230105, -93.20074082814824 9.72598322207689 C-93.34312955080367 9.50723590735248, -93.48551827345909 9.28848859262807, -93.79523947109088 8.812673661278936 C-93.9212672255878 8.588898621475694, -94.0472949800847 8.365123581672453, -94.330000708341 7.863150934094201 C-94.50153028345655 7.506966101221815, -94.67305985857209 7.15078126834943, -94.80282709126881 6.881316833080701 C-94.92422700513693 6.581456698718796, -95.04562691900504 6.2815965643568905, -95.21177567484592 5.87120592516224 C-95.29895121727876 5.608647080891016, -95.38612675971157 5.346088236619791, -95.55516600162323 4.8369689727275516 C-95.6510848715729 4.471188750108245, -95.74700374152258 4.105408527488938, -95.831587007091 3.782855877257349 C-95.88178578896347 3.5250957418585016, -95.93198457083595 3.267335606459654, -96.03990281804565 2.713198215567455 C-96.08609065732604 2.354974454929267, -96.13227849660642 1.9967506942910784, -96.17925742013637 1.6323914404306026 C-96.20013861756192 1.3071499355285265, -96.22101981498746 0.9819084306264507, -96.2490781754117 0.54487681871814 C-96.2490781754117 0.16813992291141483, -96.2490781754117 -0.20859697289531032, -96.2490781754117 -0.5448768187181317 C-96.22902442904473 -0.8572301054762712, -96.20897068267777 -1.1695833922344105, -96.17925742013637 -1.6323914404305793 C-96.13685921007368 -1.9612235852031576, -96.09446100001101 -2.290055729975736, -96.03990281804565 -2.713198215567447 C-95.97736024314376 -3.0343411193107377, -95.91481766824188 -3.3554840230540286, -95.831587007091 -3.782855877257341 C-95.77406105423339 -4.0022272674091095, -95.71653510137577 -4.221598657560878, -95.55516600162323 -4.836968972727544 C-95.44441622140481 -5.170529665164312, -95.33366644118637 -5.504090357601081, -95.21177567484594 -5.871205925162218 C-95.0736011570649 -6.212499655503928, -94.93542663928388 -6.553793385845638, -94.80282709126881 -6.881316833080692 C-94.62374439009339 -7.253185893827408, -94.44466168891799 -7.625054954574123, -94.330000708341 -7.863150934094194 C-94.13449061000108 -8.210298911240967, -93.93898051166114 -8.55744688838774, -93.79523947109088 -8.812673661278929 C-93.65136593427995 -9.03370204927463, -93.50749239746902 -9.254730437270332, -93.20074082814826 -9.725983222076884 C-93.0393986062161 -9.94216710088717, -92.87805638428395 -10.158350979697456, -92.54894770195651 -10.599326631598467 C-92.34063898531028 -10.844017903272889, -92.13233026866405 -11.088709174947311, -91.84253845028037 -11.42911513444238 C-91.54712388110183 -11.734154931106419, -91.25170931192328 -12.039194727770457, -91.08441586025927 -12.21193895166136 C-90.8934414517454 -12.3853768565677, -90.70246704323154 -12.558814761474041, -90.27769522023242 -12.944581292275274 C-89.98580921772533 -13.177352611861933, -89.69392321521826 -13.41012393144859, -89.42569151835067 -13.624031571755259 C-89.13337020673916 -13.827942264349826, -88.84104889512764 -14.031852956944393, -88.53190582057934 -14.247497783161284 C-88.26311339037174 -14.410441333952786, -87.99432096016413 -14.573384884744288, -87.60001088406695 -14.812417970097618 C-87.34137053508111 -14.94735047449648, -87.08273018609528 -15.082282978895341, -86.63383606499849 -15.316470754341124 C-86.39904452272317 -15.420406005262766, -86.16425298044786 -15.52434125618441, -85.63735158294936 -15.757584874882365 C-85.38386347561072 -15.85087084160136, -85.1303753682721 -15.944156808320356, -84.61465220640156 -16.133947699181363 C-84.24209762568766 -16.24451994315835, -83.86954304497377 -16.35509218713533, -83.56994042646164 -16.444012671663494 C-83.18217931350846 -16.53251661531732, -82.79441820055527 -16.62102055897115, -82.50750918792333 -16.68650566884811 C-82.17519403108813 -16.740231806262695, -81.84287887425292 -16.79395794367728, -81.43172424863661 -16.86043023499518 C-81.12126776853775 -16.890379598251773, -80.81081128843888 -16.920328961508368, -80.34700623967213 -16.965071676755716 C-79.9224442934577 -16.978686552011116, -79.49788234724329 -16.99230142726652, -79.2578125 -17 C-79.2578125 -17, -79.2578125 -17, -79.2578125 -17" stroke="none" stroke-width="0" fill="#2d2d2d" style=""></path><path d="M-79.2578125 -17 C-28.459235458628797 -17, 22.339341582742406 -17, 79.2578125 -17 M-79.2578125 -17 C-18.27972489565829 -17, 42.69836270868342 -17, 79.2578125 -17 M79.2578125 -17 C79.2578125 -17, 79.2578125 -17, 79.2578125 -17 M79.2578125 -17 C79.2578125 -17, 79.2578125 -17, 79.2578125 -17 M79.2578125 -17 C79.58325306423956 -16.989563754536466, 79.90869362847911 -16.979127509072935, 80.34700623967211 -16.965071676755716 M79.2578125 -17 C79.58981709408695 -16.989353258875372, 79.92182168817389 -16.97870651775074, 80.34700623967211 -16.965071676755716 M80.34700623967211 -16.965071676755716 C80.75895018219683 -16.925331940055433, 81.17089412472153 -16.885592203355152, 81.4317242486366 -16.860430234995185 M80.34700623967211 -16.965071676755716 C80.68317475800342 -16.93264190409409, 81.01934327633471 -16.90021213143247, 81.4317242486366 -16.860430234995185 M81.4317242486366 -16.860430234995185 C81.75439384363979 -16.808263517215153, 82.07706343864298 -16.756096799435117, 82.50750918792333 -16.686505668848113 M81.4317242486366 -16.860430234995185 C81.8060617457393 -16.799910251494268, 82.180399242842 -16.73939026799335, 82.50750918792333 -16.686505668848113 M82.50750918792333 -16.686505668848113 C82.91171820796498 -16.59424759773397, 83.31592722800663 -16.501989526619827, 83.56994042646163 -16.4440126716635 M82.50750918792333 -16.686505668848113 C82.92892862450392 -16.590319432467417, 83.35034806108453 -16.49413319608672, 83.56994042646163 -16.4440126716635 M83.56994042646163 -16.4440126716635 C83.9611791704362 -16.327895066105924, 84.35241791441075 -16.211777460548348, 84.61465220640156 -16.133947699181366 M83.56994042646163 -16.4440126716635 C83.93434413765995 -16.335859562973955, 84.29874784885826 -16.22770645428441, 84.61465220640156 -16.133947699181366 M84.61465220640156 -16.133947699181366 C84.9773545335216 -16.000469890017634, 85.34005686064164 -15.8669920808539, 85.63735158294936 -15.757584874882369 M84.61465220640156 -16.133947699181366 C84.85153638593084 -16.046772131381235, 85.08842056546014 -15.959596563581107, 85.63735158294936 -15.757584874882369 M85.63735158294936 -15.757584874882369 C85.86050067932518 -15.658803389399544, 86.08364977570102 -15.56002190391672, 86.63383606499849 -15.316470754341125 M85.63735158294936 -15.757584874882369 C85.87211171671812 -15.65366352757488, 86.10687185048688 -15.54974218026739, 86.63383606499849 -15.316470754341125 M86.63383606499849 -15.316470754341125 C86.87310464220973 -15.191644490868862, 87.11237321942096 -15.066818227396599, 87.60001088406693 -14.812417970097622 M86.63383606499849 -15.316470754341125 C86.97364205991813 -15.139194184447677, 87.31344805483776 -14.961917614554228, 87.60001088406693 -14.812417970097622 M87.60001088406693 -14.812417970097622 C87.855486557519 -14.657547115509278, 88.11096223097107 -14.502676260920932, 88.53190582057933 -14.247497783161291 M87.60001088406693 -14.812417970097622 C87.92663666281663 -14.614415503553419, 88.25326244156633 -14.416413037009216, 88.53190582057933 -14.247497783161291 M88.53190582057933 -14.247497783161291 C88.74933512598459 -14.09582851207351, 88.96676443138986 -13.944159240985728, 89.42569151835067 -13.624031571755262 M88.53190582057933 -14.247497783161291 C88.78621809323081 -14.070100550760465, 89.0405303658823 -13.892703318359636, 89.42569151835067 -13.624031571755262 M89.42569151835067 -13.624031571755262 C89.74788242385104 -13.367092898478802, 90.07007332935139 -13.110154225202342, 90.2776952202324 -12.944581292275288 M89.42569151835067 -13.624031571755262 C89.65673702014796 -13.439778932450952, 89.88778252194523 -13.255526293146643, 90.2776952202324 -12.944581292275288 M90.2776952202324 -12.944581292275288 C90.53978249324457 -12.706560565374877, 90.80186976625676 -12.468539838474467, 91.08441586025927 -12.21193895166137 M90.2776952202324 -12.944581292275288 C90.46668925091328 -12.772941914118945, 90.65568328159416 -12.601302535962605, 91.08441586025927 -12.21193895166137 M91.08441586025927 -12.21193895166137 C91.37046469606028 -11.916570043650648, 91.65651353186128 -11.621201135639925, 91.84253845028036 -11.42911513444239 M91.08441586025927 -12.21193895166137 C91.38285964502468 -11.90377124120066, 91.6813034297901 -11.59560353073995, 91.84253845028036 -11.42911513444239 M91.84253845028036 -11.42911513444239 C92.10408689152243 -11.121885452831549, 92.3656353327645 -10.814655771220707, 92.54894770195651 -10.59932663159847 M91.84253845028036 -11.42911513444239 C92.04078230502297 -11.196246622266816, 92.2390261597656 -10.963378110091243, 92.54894770195651 -10.59932663159847 M92.54894770195651 -10.59932663159847 C92.805403227342 -10.2556995911609, 93.0618587527275 -9.912072550723327, 93.20074082814824 -9.725983222076888 M92.54894770195651 -10.59932663159847 C92.79154925411659 -10.27426265316003, 93.03415080627667 -9.949198674721588, 93.20074082814824 -9.725983222076888 M93.20074082814824 -9.725983222076888 C93.3956669091724 -9.426524416642021, 93.59059299019658 -9.127065611207152, 93.79523947109088 -8.812673661278927 M93.20074082814824 -9.725983222076888 C93.38912183495219 -9.436579408242798, 93.57750284175613 -9.14717559440871, 93.79523947109088 -8.812673661278927 M93.79523947109088 -8.812673661278927 C93.90751483197468 -8.61331738891662, 94.0197901928585 -8.413961116554312, 94.330000708341 -7.863150934094199 M93.79523947109088 -8.812673661278927 C93.93617235648952 -8.56243305225149, 94.07710524188818 -8.312192443224053, 94.330000708341 -7.863150934094199 M94.330000708341 -7.863150934094199 C94.43214732944938 -7.651041289775096, 94.53429395055775 -7.438931645455993, 94.80282709126881 -6.881316833080699 M94.330000708341 -7.863150934094199 C94.43375475127606 -7.6477034439586875, 94.53750879421109 -7.4322559538231765, 94.80282709126881 -6.881316833080699 M94.80282709126881 -6.881316833080699 C94.91731698695159 -6.598524577232669, 95.03180688263438 -6.315732321384639, 95.21177567484592 -5.871205925162238 M94.80282709126881 -6.881316833080699 C94.91377391170403 -6.60727604159488, 95.02472073213923 -6.333235250109062, 95.21177567484592 -5.871205925162238 M95.21177567484592 -5.871205925162238 C95.28779184664083 -5.642257327248194, 95.36380801843573 -5.41330872933415, 95.55516600162323 -4.836968972727556 M95.21177567484592 -5.871205925162238 C95.30221612533612 -5.598813698014678, 95.39265657582632 -5.326421470867117, 95.55516600162323 -4.836968972727556 M95.55516600162323 -4.836968972727556 C95.62702500946449 -4.562939431937851, 95.69888401730574 -4.288909891148146, 95.831587007091 -3.7828558772573464 M95.55516600162323 -4.836968972727556 C95.66230576815948 -4.428398608256256, 95.76944553469575 -4.019828243784955, 95.831587007091 -3.7828558772573464 M95.831587007091 -3.7828558772573464 C95.89376716032133 -3.463573932199622, 95.95594731355166 -3.144291987141898, 96.03990281804565 -2.713198215567453 M95.831587007091 -3.7828558772573464 C95.90628188384669 -3.399313471884717, 95.98097676060236 -3.0157710665120874, 96.03990281804565 -2.713198215567453 M96.03990281804565 -2.713198215567453 C96.07827639240901 -2.415580350524591, 96.11664996677237 -2.117962485481729, 96.17925742013637 -1.632391440430593 M96.03990281804565 -2.713198215567453 C96.09108406683686 -2.3162465568235833, 96.14226531562807 -1.9192948980797135, 96.17925742013637 -1.632391440430593 M96.17925742013637 -1.632391440430593 C96.20097582928193 -1.2941096872041566, 96.2226942384275 -0.9558279339777203, 96.2490781754117 -0.5448768187181379 M96.17925742013637 -1.632391440430593 C96.20437803058384 -1.2411176557193369, 96.22949864103133 -0.8498438710080807, 96.2490781754117 -0.5448768187181379 M96.2490781754117 -0.5448768187181379 C96.2490781754117 -0.11110152163548698, 96.2490781754117 0.3226737754471639, 96.2490781754117 0.5448768187181336 M96.2490781754117 -0.5448768187181379 C96.2490781754117 -0.24215611471651372, 96.2490781754117 0.06056458928511044, 96.2490781754117 0.5448768187181336 M96.2490781754117 0.5448768187181336 C96.22560352974476 0.9105133733734808, 96.20212888407784 1.276149928028828, 96.17925742013637 1.6323914404305815 M96.2490781754117 0.5448768187181336 C96.22431639337195 0.930561561337854, 96.1995546113322 1.3162463039575742, 96.17925742013637 1.6323914404305815 M96.17925742013637 1.6323914404305815 C96.14195931755508 1.9216681587076345, 96.10466121497379 2.210944876984688, 96.03990281804565 2.7131982155674415 M96.17925742013637 1.6323914404305815 C96.13797780196403 1.9525480073926111, 96.09669818379169 2.272704574354641, 96.03990281804565 2.7131982155674415 M96.03990281804565 2.7131982155674415 C95.95660365416695 3.140921816800028, 95.87330449028826 3.5686454180326153, 95.831587007091 3.782855877257343 M96.03990281804565 2.7131982155674415 C95.96597018018541 3.0928266853112203, 95.89203754232517 3.472455155054999, 95.831587007091 3.782855877257343 M95.831587007091 3.782855877257343 C95.7492389702245 4.096884631694299, 95.66689093335798 4.410913386131255, 95.55516600162323 4.836968972727545 M95.831587007091 3.782855877257343 C95.77278806285891 4.007081735237957, 95.71398911862681 4.231307593218571, 95.55516600162323 4.836968972727545 M95.55516600162323 4.836968972727545 C95.48341775207166 5.0530632688457615, 95.41166950252008 5.269157564963977, 95.21177567484592 5.871205925162227 M95.55516600162323 4.836968972727545 C95.47678340833508 5.073044855141183, 95.39840081504694 5.30912073755482, 95.21177567484592 5.871205925162227 M95.21177567484592 5.871205925162227 C95.10035721714806 6.146411669805287, 94.98893875945019 6.421617414448347, 94.80282709126881 6.881316833080694 M95.21177567484592 5.871205925162227 C95.12363828405532 6.0889069844355586, 95.03550089326471 6.306608043708891, 94.80282709126881 6.881316833080694 M94.80282709126881 6.881316833080694 C94.65581877553583 7.186582746174291, 94.50881045980285 7.491848659267887, 94.330000708341 7.863150934094196 M94.80282709126881 6.881316833080694 C94.69607601722801 7.1029877224335, 94.58932494318721 7.324658611786306, 94.330000708341 7.863150934094196 M94.330000708341 7.863150934094196 C94.1730062691405 8.141910458305519, 94.01601182993998 8.420669982516841, 93.79523947109088 8.812673661278923 M94.330000708341 7.863150934094196 C94.1899753927859 8.111780060963003, 94.0499500772308 8.360409187831811, 93.79523947109088 8.812673661278923 M93.79523947109088 8.812673661278923 C93.65095242244617 9.03433731449478, 93.50666537380147 9.256000967710635, 93.20074082814826 9.725983222076879 M93.79523947109088 8.812673661278923 C93.60966055821413 9.09777270637326, 93.4240816453374 9.382871751467595, 93.20074082814826 9.725983222076879 M93.20074082814826 9.725983222076879 C93.04364624896489 9.936475646572005, 92.88655166978153 10.14696807106713, 92.54894770195651 10.599326631598467 M93.20074082814826 9.725983222076879 C93.05049435485878 9.92729980854947, 92.90024788156931 10.128616395022064, 92.54894770195651 10.599326631598467 M92.54894770195651 10.599326631598467 C92.31875968373676 10.86971857586867, 92.08857166551702 11.140110520138872, 91.84253845028037 11.42911513444238 M92.54894770195651 10.599326631598467 C92.3825257824978 10.794815287870163, 92.21610386303907 10.990303944141859, 91.84253845028037 11.42911513444238 M91.84253845028037 11.42911513444238 C91.59897216214219 11.680617324109202, 91.355405874004 11.932119513776023, 91.08441586025927 12.211938951661365 M91.84253845028037 11.42911513444238 C91.62910585293808 11.649501814340422, 91.41567325559579 11.869888494238463, 91.08441586025927 12.211938951661365 M91.08441586025927 12.211938951661365 C90.83607172336824 12.43747852596002, 90.58772758647719 12.663018100258673, 90.27769522023242 12.944581292275275 M91.08441586025927 12.211938951661365 C90.89781158035211 12.381408021394359, 90.71120730044495 12.55087709112735, 90.27769522023242 12.944581292275275 M90.27769522023242 12.944581292275275 C90.04096356115663 13.133368490694192, 89.80423190208086 13.322155689113108, 89.42569151835067 13.62403157175526 M90.27769522023242 12.944581292275275 C90.10487065811733 13.082404281507307, 89.93204609600225 13.22022727073934, 89.42569151835067 13.62403157175526 M89.42569151835067 13.62403157175526 C89.0879485958147 13.859626413860893, 88.7502056732787 14.095221255966527, 88.53190582057934 14.247497783161286 M89.42569151835067 13.62403157175526 C89.24028956917235 13.753359945581034, 89.05488761999403 13.882688319406808, 88.53190582057934 14.247497783161286 M88.53190582057934 14.247497783161286 C88.27382611997815 14.403947214310392, 88.01574641937697 14.560396645459498, 87.60001088406695 14.81241797009762 M88.53190582057934 14.247497783161286 C88.33660738595552 14.36588884193124, 88.14130895133171 14.484279900701193, 87.60001088406695 14.81241797009762 M87.60001088406695 14.81241797009762 C87.34374610213665 14.94611114268523, 87.08748132020634 15.079804315272844, 86.63383606499849 15.316470754341124 M87.60001088406695 14.81241797009762 C87.26358854703297 14.987929287839455, 86.92716620999899 15.163440605581288, 86.63383606499849 15.316470754341124 M86.63383606499849 15.316470754341124 C86.25703194939689 15.483270758821002, 85.88022783379527 15.650070763300882, 85.63735158294936 15.757584874882367 M86.63383606499849 15.316470754341124 C86.40053875531765 15.419744552818022, 86.16724144563683 15.52301835129492, 85.63735158294936 15.757584874882367 M85.63735158294936 15.757584874882367 C85.27972834976408 15.88919353052748, 84.92210511657879 16.02080218617259, 84.61465220640156 16.133947699181363 M85.63735158294936 15.757584874882367 C85.3681289526998 15.856661291480917, 85.09890632245025 15.955737708079468, 84.61465220640156 16.133947699181363 M84.61465220640156 16.133947699181363 C84.2541917074495 16.24093048317457, 83.89373120849743 16.347913267167772, 83.56994042646164 16.444012671663497 M84.61465220640156 16.133947699181363 C84.38320086417976 16.202641242639906, 84.15174952195795 16.271334786098453, 83.56994042646164 16.444012671663497 M83.56994042646164 16.444012671663497 C83.35570418724733 16.49291069524205, 83.14146794803302 16.541808718820604, 82.50750918792333 16.68650566884811 M83.56994042646164 16.444012671663497 C83.1585657904674 16.537906247858803, 82.74719115447317 16.631799824054113, 82.50750918792333 16.68650566884811 M82.50750918792333 16.68650566884811 C82.25950027478083 16.726601826587142, 82.01149136163833 16.766697984326175, 81.43172424863661 16.86043023499518 M82.50750918792333 16.68650566884811 C82.13635126199293 16.746511603939833, 81.76519333606254 16.806517539031557, 81.43172424863661 16.86043023499518 M81.43172424863661 16.86043023499518 C81.10453627116085 16.891993665681152, 80.7773482936851 16.923557096367126, 80.34700623967211 16.965071676755716 M81.43172424863661 16.86043023499518 C81.04509474359855 16.897727918356193, 80.6584652385605 16.935025601717204, 80.34700623967211 16.965071676755716 M80.34700623967211 16.965071676755716 C79.99288006178064 16.976427814015906, 79.63875388388917 16.987783951276096, 79.2578125 17 M80.34700623967211 16.965071676755716 C80.06053800209648 16.974258155558168, 79.77406976452086 16.98344463436062, 79.2578125 17 M79.2578125 17 C79.2578125 17, 79.2578125 17, 79.2578125 17 M79.2578125 17 C79.2578125 17, 79.2578125 17, 79.2578125 17 M79.2578125 17 C18.715589278061223 17, -41.82663394387755 17, -79.2578125 17 M79.2578125 17 C16.17706605438528 17, -46.90368039122944 17, -79.2578125 17 M-79.2578125 17 C-79.50635450082731 16.992029741791125, -79.75489650165464 16.98405948358225, -80.34700623967211 16.965071676755716 M-79.2578125 17 C-79.62934588601284 16.988085647456433, -80.00087927202567 16.976171294912866, -80.34700623967211 16.965071676755716 M-80.34700623967211 16.965071676755716 C-80.74024855595364 16.927136063447115, -81.13349087223516 16.889200450138517, -81.4317242486366 16.86043023499518 M-80.34700623967211 16.965071676755716 C-80.73288312208871 16.927846597993835, -81.11876000450532 16.890621519231953, -81.4317242486366 16.86043023499518 M-81.4317242486366 16.86043023499518 C-81.71527257583331 16.814588340404136, -81.99882090303004 16.76874644581309, -82.50750918792333 16.68650566884811 M-81.4317242486366 16.86043023499518 C-81.80986671459773 16.79929509363721, -82.18800918055886 16.738159952279233, -82.50750918792333 16.68650566884811 M-82.50750918792333 16.68650566884811 C-82.88990219259153 16.59922696088015, -83.27229519725974 16.51194825291219, -83.56994042646161 16.4440126716635 M-82.50750918792333 16.68650566884811 C-82.72582797865404 16.63667582952708, -82.94414676938474 16.586845990206047, -83.56994042646161 16.4440126716635 M-83.56994042646161 16.4440126716635 C-83.96848737559219 16.325726029177172, -84.36703432472277 16.207439386690844, -84.61465220640154 16.13394769918137 M-83.56994042646161 16.4440126716635 C-83.83209620933009 16.366206211391926, -84.09425199219855 16.288399751120348, -84.61465220640154 16.13394769918137 M-84.61465220640154 16.13394769918137 C-84.94313323219333 16.013063645244674, -85.27161425798512 15.892179591307983, -85.63735158294936 15.757584874882369 M-84.61465220640154 16.13394769918137 C-84.86251650356222 16.042731346593794, -85.11038080072291 15.951514994006217, -85.63735158294936 15.757584874882369 M-85.63735158294936 15.757584874882369 C-86.00332041167023 15.59558133048723, -86.3692892403911 15.43357778609209, -86.63383606499849 15.316470754341127 M-85.63735158294936 15.757584874882369 C-86.0350655852269 15.581528683840807, -86.43277958750444 15.405472492799245, -86.63383606499849 15.316470754341127 M-86.63383606499849 15.316470754341127 C-86.83606373139912 15.210968710312917, -87.03829139779977 15.105466666284707, -87.60001088406693 14.812417970097624 M-86.63383606499849 15.316470754341127 C-86.95689976662463 15.147928628134943, -87.27996346825077 14.979386501928762, -87.60001088406693 14.812417970097624 M-87.60001088406693 14.812417970097624 C-87.82806085615165 14.67417273684947, -88.05611082823638 14.535927503601318, -88.53190582057931 14.247497783161299 M-87.60001088406693 14.812417970097624 C-87.95308235644245 14.598383968665301, -88.30615382881798 14.384349967232978, -88.53190582057931 14.247497783161299 M-88.53190582057931 14.247497783161299 C-88.72676289348571 14.111573924328527, -88.92161996639211 13.975650065495753, -89.42569151835067 13.624031571755264 M-88.53190582057931 14.247497783161299 C-88.84439457284874 14.029519156998205, -89.15688332511819 13.81154053083511, -89.42569151835067 13.624031571755264 M-89.42569151835067 13.624031571755264 C-89.6415028361617 13.451927788781322, -89.85731415397274 13.27982400580738, -90.2776952202324 12.94458129227529 M-89.42569151835067 13.624031571755264 C-89.59788135608868 13.48671475832323, -89.77007119382668 13.349397944891196, -90.2776952202324 12.94458129227529 M-90.2776952202324 12.94458129227529 C-90.50417781912643 12.738895788360932, -90.73066041802045 12.533210284446573, -91.08441586025926 12.211938951661377 M-90.2776952202324 12.94458129227529 C-90.5490810843615 12.698115830949718, -90.82046694849062 12.451650369624147, -91.08441586025926 12.211938951661377 M-91.08441586025926 12.211938951661377 C-91.35728677860672 11.930177325348582, -91.63015769695419 11.64841569903579, -91.84253845028036 11.429115134442386 M-91.08441586025926 12.211938951661377 C-91.3206775415253 11.967979368309413, -91.55693922279134 11.72401978495745, -91.84253845028036 11.429115134442386 M-91.84253845028036 11.429115134442386 C-92.050467766788 11.184869527759224, -92.25839708329565 10.940623921076062, -92.54894770195651 10.599326631598473 M-91.84253845028036 11.429115134442386 C-92.10414433462931 11.1218179768896, -92.36575021897825 10.814520819336817, -92.54894770195651 10.599326631598473 M-92.54894770195651 10.599326631598473 C-92.7961565918936 10.26808924027593, -93.0433654818307 9.93685184895339, -93.20074082814824 9.72598322207689 M-92.54894770195651 10.599326631598473 C-92.7524094686653 10.326706399956944, -92.9558712353741 10.054086168315417, -93.20074082814824 9.72598322207689 M-93.20074082814824 9.72598322207689 C-93.32329718714854 9.537703743662059, -93.44585354614885 9.349424265247226, -93.79523947109088 8.812673661278936 M-93.20074082814824 9.72598322207689 C-93.340696797892 9.510973269110442, -93.48065276763573 9.295963316143997, -93.79523947109088 8.812673661278936 M-93.79523947109088 8.812673661278936 C-93.98234811539565 8.480443316511062, -94.16945675970042 8.14821297174319, -94.330000708341 7.863150934094201 M-93.79523947109088 8.812673661278936 C-94.00226093588529 8.445086087339973, -94.20928240067971 8.07749851340101, -94.330000708341 7.863150934094201 M-94.330000708341 7.863150934094201 C-94.4935248567742 7.52358954101641, -94.65704900520738 7.184028147938617, -94.80282709126881 6.881316833080701 M-94.330000708341 7.863150934094201 C-94.48012644726462 7.55141162504307, -94.63025218618824 7.239672315991939, -94.80282709126881 6.881316833080701 M-94.80282709126881 6.881316833080701 C-94.88692677599776 6.673588985843405, -94.9710264607267 6.465861138606108, -95.21177567484592 5.87120592516224 M-94.80282709126881 6.881316833080701 C-94.91458244958854 6.605278937388109, -95.02633780790826 6.329241041695515, -95.21177567484592 5.87120592516224 M-95.21177567484592 5.87120592516224 C-95.33857642862696 5.489302257730228, -95.46537718240802 5.107398590298216, -95.55516600162323 4.8369689727275516 M-95.21177567484592 5.87120592516224 C-95.30702027976349 5.584344350317494, -95.40226488468106 5.297482775472749, -95.55516600162323 4.8369689727275516 M-95.55516600162323 4.8369689727275516 C-95.65635680383564 4.451084587520566, -95.75754760604804 4.06520020231358, -95.831587007091 3.782855877257349 M-95.55516600162323 4.8369689727275516 C-95.66544513786123 4.416426830972124, -95.7757242740992 3.9958846892166973, -95.831587007091 3.782855877257349 M-95.831587007091 3.782855877257349 C-95.90905255897817 3.385086640666904, -95.98651811086535 2.9873174040764585, -96.03990281804565 2.713198215567455 M-95.831587007091 3.782855877257349 C-95.91212678601927 3.3693011345489756, -95.99266656494754 2.955746391840602, -96.03990281804565 2.713198215567455 M-96.03990281804565 2.713198215567455 C-96.08078064277501 2.3961578792060765, -96.12165846750436 2.0791175428446977, -96.17925742013637 1.6323914404306026 M-96.03990281804565 2.713198215567455 C-96.09293296421978 2.3019068738276456, -96.14596311039394 1.890615532087836, -96.17925742013637 1.6323914404306026 M-96.17925742013637 1.6323914404306026 C-96.20676333714812 1.203964580596113, -96.23426925415986 0.7755377207616236, -96.2490781754117 0.54487681871814 M-96.17925742013637 1.6323914404306026 C-96.19496144372668 1.3877885969517145, -96.210665467317 1.1431857534728265, -96.2490781754117 0.54487681871814 M-96.2490781754117 0.54487681871814 C-96.2490781754117 0.1307722243846598, -96.2490781754117 -0.2833323699488204, -96.2490781754117 -0.5448768187181317 M-96.2490781754117 0.54487681871814 C-96.2490781754117 0.18665719850638635, -96.2490781754117 -0.17156242170536729, -96.2490781754117 -0.5448768187181317 M-96.2490781754117 -0.5448768187181317 C-96.23101162813073 -0.8262778756737124, -96.21294508084975 -1.107678932629293, -96.17925742013637 -1.6323914404305793 M-96.2490781754117 -0.5448768187181317 C-96.23493654026707 -0.7651442010180449, -96.22079490512245 -0.9854115833179581, -96.17925742013637 -1.6323914404305793 M-96.17925742013637 -1.6323914404305793 C-96.14651738636456 -1.8863166771137436, -96.11377735259276 -2.140241913796908, -96.03990281804565 -2.713198215567447 M-96.17925742013637 -1.6323914404305793 C-96.14749564004951 -1.8787295347113078, -96.11573385996266 -2.1250676289920363, -96.03990281804565 -2.713198215567447 M-96.03990281804565 -2.713198215567447 C-95.99451106703003 -2.946275263482689, -95.9491193160144 -3.1793523113979307, -95.831587007091 -3.782855877257341 M-96.03990281804565 -2.713198215567447 C-95.98745861404541 -2.982488119022226, -95.93501441004517 -3.251778022477005, -95.831587007091 -3.782855877257341 M-95.831587007091 -3.782855877257341 C-95.72334968677426 -4.195611689976458, -95.61511236645751 -4.608367502695574, -95.55516600162323 -4.836968972727544 M-95.831587007091 -3.782855877257341 C-95.7473074448059 -4.104250375243785, -95.66302788252081 -4.425644873230228, -95.55516600162323 -4.836968972727544 M-95.55516600162323 -4.836968972727544 C-95.47328738811636 -5.083574311024826, -95.39140877460947 -5.330179649322108, -95.21177567484594 -5.871205925162218 M-95.55516600162323 -4.836968972727544 C-95.43646149890013 -5.194488021935451, -95.31775699617704 -5.5520070711433585, -95.21177567484594 -5.871205925162218 M-95.21177567484594 -5.871205925162218 C-95.11414191529931 -6.112363198862709, -95.01650815575269 -6.353520472563199, -94.80282709126881 -6.881316833080692 M-95.21177567484594 -5.871205925162218 C-95.08087228478179 -6.194539829465532, -94.94996889471764 -6.5178737337688455, -94.80282709126881 -6.881316833080692 M-94.80282709126881 -6.881316833080692 C-94.65912808283979 -7.179710898749788, -94.51542907441076 -7.4781049644188835, -94.330000708341 -7.863150934094194 M-94.80282709126881 -6.881316833080692 C-94.63978939666251 -7.21986809437851, -94.4767517020562 -7.558419355676328, -94.330000708341 -7.863150934094194 M-94.330000708341 -7.863150934094194 C-94.21673176737805 -8.064271408497932, -94.10346282641508 -8.265391882901671, -93.79523947109088 -8.812673661278929 M-94.330000708341 -7.863150934094194 C-94.1198345636137 -8.236322205687385, -93.90966841888638 -8.609493477280576, -93.79523947109088 -8.812673661278929 M-93.79523947109088 -8.812673661278929 C-93.57537979593413 -9.150437162908961, -93.35552012077736 -9.488200664538994, -93.20074082814826 -9.725983222076884 M-93.79523947109088 -8.812673661278929 C-93.6643128661198 -9.013812085230622, -93.53338626114873 -9.214950509182318, -93.20074082814826 -9.725983222076884 M-93.20074082814826 -9.725983222076884 C-93.00164942818769 -9.992747560424379, -92.80255802822712 -10.259511898771873, -92.54894770195651 -10.599326631598467 M-93.20074082814826 -9.725983222076884 C-92.98559965658019 -10.014252792214151, -92.77045848501213 -10.30252236235142, -92.54894770195651 -10.599326631598467 M-92.54894770195651 -10.599326631598467 C-92.39596346157407 -10.77903062540156, -92.24297922119163 -10.958734619204655, -91.84253845028037 -11.42911513444238 M-92.54894770195651 -10.599326631598467 C-92.36814044528344 -10.811713123511014, -92.18733318861037 -11.02409961542356, -91.84253845028037 -11.42911513444238 M-91.84253845028037 -11.42911513444238 C-91.54990907447734 -11.731278990277573, -91.2572796986743 -12.033442846112766, -91.08441586025927 -12.21193895166136 M-91.84253845028037 -11.42911513444238 C-91.55907980509068 -11.721809457988316, -91.27562115990098 -12.014503781534252, -91.08441586025927 -12.21193895166136 M-91.08441586025927 -12.21193895166136 C-90.88248106621776 -12.395330788707986, -90.68054627217627 -12.57872262575461, -90.27769522023242 -12.944581292275274 M-91.08441586025927 -12.21193895166136 C-90.87734522762577 -12.3999950214304, -90.67027459499226 -12.588051091199441, -90.27769522023242 -12.944581292275274 M-90.27769522023242 -12.944581292275274 C-90.05191911214223 -13.124631730322635, -89.82614300405204 -13.304682168369997, -89.42569151835067 -13.624031571755259 M-90.27769522023242 -12.944581292275274 C-90.0421802226897 -13.1323982354983, -89.80666522514697 -13.320215178721327, -89.42569151835067 -13.624031571755259 M-89.42569151835067 -13.624031571755259 C-89.23993319723667 -13.753608535216271, -89.05417487612267 -13.883185498677284, -88.53190582057934 -14.247497783161284 M-89.42569151835067 -13.624031571755259 C-89.10686394801436 -13.846431882998795, -88.78803637767805 -14.06883219424233, -88.53190582057934 -14.247497783161284 M-88.53190582057934 -14.247497783161284 C-88.33209194430077 -14.368626129198029, -88.1322780680222 -14.489754475234774, -87.60001088406695 -14.812417970097618 M-88.53190582057934 -14.247497783161284 C-88.16937344346536 -14.46726704064451, -87.80684106635137 -14.687036298127735, -87.60001088406695 -14.812417970097618 M-87.60001088406695 -14.812417970097618 C-87.3745571528928 -14.930037037241162, -87.14910342171866 -15.047656104384705, -86.63383606499849 -15.316470754341124 M-87.60001088406695 -14.812417970097618 C-87.22086562215544 -15.010217810382715, -86.84172036024395 -15.208017650667813, -86.63383606499849 -15.316470754341124 M-86.63383606499849 -15.316470754341124 C-86.2391923329374 -15.491167827834193, -85.84454860087632 -15.665864901327263, -85.63735158294936 -15.757584874882365 M-86.63383606499849 -15.316470754341124 C-86.37059779661358 -15.432998527069332, -86.10735952822868 -15.549526299797538, -85.63735158294936 -15.757584874882365 M-85.63735158294936 -15.757584874882365 C-85.4017107656039 -15.844302873905336, -85.16606994825841 -15.93102087292831, -84.61465220640156 -16.133947699181363 M-85.63735158294936 -15.757584874882365 C-85.34591501721884 -15.864836225081277, -85.05447845148834 -15.972087575280188, -84.61465220640156 -16.133947699181363 M-84.61465220640156 -16.133947699181363 C-84.30820172587916 -16.224900593209014, -84.00175124535674 -16.315853487236666, -83.56994042646164 -16.444012671663494 M-84.61465220640156 -16.133947699181363 C-84.37754608760551 -16.204319550644616, -84.14043996880946 -16.274691402107866, -83.56994042646164 -16.444012671663494 M-83.56994042646164 -16.444012671663494 C-83.17750831161776 -16.53358274101774, -82.78507619677386 -16.623152810371984, -82.50750918792333 -16.68650566884811 M-83.56994042646164 -16.444012671663494 C-83.16376650441546 -16.536719218837987, -82.75759258236928 -16.62942576601248, -82.50750918792333 -16.68650566884811 M-82.50750918792333 -16.68650566884811 C-82.2577239900783 -16.726889002522555, -82.00793879223328 -16.767272336196996, -81.43172424863661 -16.86043023499518 M-82.50750918792333 -16.68650566884811 C-82.28953645793035 -16.721745809429606, -82.07156372793736 -16.756985950011106, -81.43172424863661 -16.86043023499518 M-81.43172424863661 -16.86043023499518 C-81.17094539699103 -16.885587257180976, -80.91016654534543 -16.91074427936677, -80.34700623967213 -16.965071676755716 M-81.43172424863661 -16.86043023499518 C-81.15628565522806 -16.88700146483793, -80.88084706181951 -16.91357269468068, -80.34700623967213 -16.965071676755716 M-80.34700623967213 -16.965071676755716 C-80.08955815403758 -16.973327535769716, -79.83211006840304 -16.98158339478372, -79.2578125 -17 M-80.34700623967213 -16.965071676755716 C-80.0123506511342 -16.975803430112542, -79.67769506259629 -16.986535183469364, -79.2578125 -17 M-79.2578125 -17 C-79.2578125 -17, -79.2578125 -17, -79.2578125 -17 M-79.2578125 -17 C-79.2578125 -17, -79.2578125 -17, -79.2578125 -17" stroke="#555555" stroke-width="1.3" fill="none" stroke-dasharray="0 0" style=""></path></g><g class="label" style="" transform="translate(0, -9.5)"><rect></rect><g><rect class="background" style="stroke: none"></rect><text y="-10.1" style=""><tspan class="text-outer-tspan row" x="0" y="-0.1em" dy="1.1em"><tspan font-style="normal" class="text-inner-tspan" font-weight="normal">Project</tspan><tspan font-style="normal" class="text-inner-tspan" font-weight="normal"> or</tspan><tspan font-style="normal" class="text-inner-tspan" font-weight="normal"> existing</tspan><tspan font-style="normal" class="text-inner-tspan" font-weight="normal"> repo</tspan></tspan></text></g></g></g><g class="node default" id="g6eb94159-bb74-4ed7-a93c-a058b27fd9e0-dark-flowchart-init-1" data-look="classic" transform="translate(203.07421875, 134.0999984741211)"><rect class="basic label-container" style="" x="-122.1640625" y="-42.099998474121094" width="244.328125" height="84.19999694824219"></rect><g class="label" style="" transform="translate(0, -27.099998474121094)"><rect></rect><g><rect class="background" style="stroke: none"></rect><text y="-10.1" style=""><tspan class="text-outer-tspan row" x="0" y="-0.1em" dy="1.1em"><tspan font-style="normal" class="text-inner-tspan" font-weight="normal">pagesmith-docs</tspan><tspan font-style="normal" class="text-inner-tspan" font-weight="normal"> init</tspan></tspan><tspan class="text-outer-tspan row" x="0" y="1em" dy="1.1em"><tspan font-style="normal" class="text-inner-tspan" font-weight="normal">Scaffold</tspan><tspan font-style="normal" class="text-inner-tspan" font-weight="normal"> or</tspan><tspan font-style="normal" class="text-inner-tspan" font-weight="normal"> backfill</tspan><tspan font-style="normal" class="text-inner-tspan" font-weight="normal"> config</tspan></tspan><tspan class="text-outer-tspan row" x="0" y="2.1em" dy="1.1em"><tspan font-style="normal" class="text-inner-tspan" font-weight="normal">and</tspan><tspan font-style="normal" class="text-inner-tspan" font-weight="normal"> starter</tspan><tspan font-style="normal" class="text-inner-tspan" font-weight="normal"> docs</tspan></tspan></text></g></g></g><g class="node default" id="g6eb94159-bb74-4ed7-a93c-a058b27fd9e0-dark-flowchart-dev-2" data-look="classic" transform="translate(124.4921875, 291.2999954223633)"><rect class="basic label-container" style="" x="-115.5" y="-33.29999923706055" width="231" height="66.5999984741211"></rect><g class="label" style="" transform="translate(0, -18.299999237060547)"><rect></rect><g><rect class="background" style="stroke: none"></rect><text y="-10.1" style=""><tspan class="text-outer-tspan row" x="0" y="-0.1em" dy="1.1em"><tspan font-style="normal" class="text-inner-tspan" font-weight="normal">pagesmith-docs</tspan><tspan font-style="normal" class="text-inner-tspan" font-weight="normal"> dev</tspan></tspan><tspan class="text-outer-tspan row" x="0" y="1em" dy="1.1em"><tspan font-style="normal" class="text-inner-tspan" font-weight="normal">Live-reload</tspan><tspan font-style="normal" class="text-inner-tspan" font-weight="normal"> editing</tspan><tspan font-style="normal" class="text-inner-tspan" font-weight="normal"> loop</tspan></tspan></text></g></g></g><g class="node default" id="g6eb94159-bb74-4ed7-a93c-a058b27fd9e0-dark-flowchart-build-3" data-look="classic" transform="translate(124.4921875, 425.49999237060547)"><rect class="basic label-container" style="" x="-113.9765625" y="-42.099998474121094" width="227.953125" height="84.19999694824219"></rect><g class="label" style="" transform="translate(0, -27.099998474121094)"><rect></rect><g><rect class="background" style="stroke: none"></rect><text y="-10.1" style=""><tspan class="text-outer-tspan row" x="0" y="-0.1em" dy="1.1em"><tspan font-style="normal" class="text-inner-tspan" font-weight="normal">pagesmith-docs</tspan><tspan font-style="normal" class="text-inner-tspan" font-weight="normal"> build</tspan></tspan><tspan class="text-outer-tspan row" x="0" y="1em" dy="1.1em"><tspan font-style="normal" class="text-inner-tspan" font-weight="normal">Static</tspan><tspan font-style="normal" class="text-inner-tspan" font-weight="normal"> output</tspan><tspan font-style="normal" class="text-inner-tspan" font-weight="normal"> +</tspan><tspan font-style="normal" class="text-inner-tspan" font-weight="normal"> assets</tspan><tspan font-style="normal" class="text-inner-tspan" font-weight="normal"> +</tspan></tspan><tspan class="text-outer-tspan row" x="0" y="2.1em" dy="1.1em"><tspan font-style="normal" class="text-inner-tspan" font-weight="normal">Pagefind</tspan></tspan></text></g></g></g><g class="node default" id="g6eb94159-bb74-4ed7-a93c-a058b27fd9e0-dark-flowchart-preview-4" data-look="classic" transform="translate(124.4921875, 559.6999893188477)"><rect class="basic label-container" style="" x="-116.4921875" y="-42.099998474121094" width="232.984375" height="84.19999694824219"></rect><g class="label" style="" transform="translate(0, -27.099998474121094)"><rect></rect><g><rect class="background" style="stroke: none"></rect><text y="-10.1" style=""><tspan class="text-outer-tspan row" x="0" y="-0.1em" dy="1.1em"><tspan font-style="normal" class="text-inner-tspan" font-weight="normal">pagesmith-docs</tspan><tspan font-style="normal" class="text-inner-tspan" font-weight="normal"> preview</tspan></tspan><tspan class="text-outer-tspan row" x="0" y="1em" dy="1.1em"><tspan font-style="normal" class="text-inner-tspan" font-weight="normal">Serve</tspan><tspan font-style="normal" class="text-inner-tspan" font-weight="normal"> built</tspan><tspan font-style="normal" class="text-inner-tspan" font-weight="normal"> output</tspan><tspan font-style="normal" class="text-inner-tspan" font-weight="normal"> from</tspan></tspan><tspan class="text-outer-tspan row" x="0" y="2.1em" dy="1.1em"><tspan font-style="normal" class="text-inner-tspan" font-weight="normal">disk</tspan></tspan></text></g></g></g><g class="node default" id="g6eb94159-bb74-4ed7-a93c-a058b27fd9e0-dark-flowchart-mcp-5" data-look="classic" transform="translate(516.66015625, 291.2999954223633)"><rect class="basic label-container" style="" x="-128.828125" y="-42.099998474121094" width="257.65625" height="84.19999694824219"></rect><g class="label" style="" transform="translate(0, -27.099998474121094)"><rect></rect><g><rect class="background" style="stroke: none"></rect><text y="-10.1" style=""><tspan class="text-outer-tspan row" x="0" y="-0.1em" dy="1.1em"><tspan font-style="normal" class="text-inner-tspan" font-weight="normal">pagesmith-docs</tspan><tspan font-style="normal" class="text-inner-tspan" font-weight="normal"> mcp</tspan><tspan font-style="normal" class="text-inner-tspan" font-weight="normal"> --stdio</tspan></tspan><tspan class="text-outer-tspan row" x="0" y="1em" dy="1.1em"><tspan font-style="normal" class="text-inner-tspan" font-weight="normal">Expose</tspan><tspan font-style="normal" class="text-inner-tspan" font-weight="normal"> docs-aware</tspan><tspan font-style="normal" class="text-inner-tspan" font-weight="normal"> MCP</tspan></tspan><tspan class="text-outer-tspan row" x="0" y="2.1em" dy="1.1em"><tspan font-style="normal" class="text-inner-tspan" font-weight="normal">tools</tspan></tspan></text></g></g></g></g></g></g><defs><filter id="g6eb94159-bb74-4ed7-a93c-a058b27fd9e0-dark-drop-shadow" height="130%" width="130%"><feDropShadow dx="4" dy="4" stdDeviation="0" flood-opacity="0.06" flood-color="#000000"></feDropShadow></filter></defs><defs><filter id="g6eb94159-bb74-4ed7-a93c-a058b27fd9e0-dark-drop-shadow-small" height="150%" width="150%"><feDropShadow dx="2" dy="2" stdDeviation="0" flood-opacity="0.06" flood-color="#000000"></feDropShadow></filter></defs><linearGradient id="g6eb94159-bb74-4ed7-a93c-a058b27fd9e0-dark-gradient" gradientUnits="objectBoundingBox" x1="0%" y1="0%" x2="100%" y2="0%"><stop offset="0%" stop-color="#555555" stop-opacity="1"></stop><stop offset="100%" stop-color="#555555" stop-opacity="1"></stop></linearGradient></svg>