<svg id="g878879ad-90ec-42ad-b54e-4007473491bd-light" width="100%" xmlns="http://www.w3.org/2000/svg" xmlns:xlink="http://www.w3.org/1999/xlink" class="flowchart" style="max-width: 653.48828125px;" viewBox="0 0 653.48828125 609.800048828125" role="graphics-document document" aria-roledescription="flowchart-v2"><style>#g878879ad-90ec-42ad-b54e-4007473491bd-light{font-family:"trebuchet ms",verdana,arial,sans-serif;font-size:16px;fill:#333;}@keyframes edge-animation-frame{from{stroke-dashoffset:0;}}@keyframes dash{to{stroke-dashoffset:0;}}#g878879ad-90ec-42ad-b54e-4007473491bd-light .edge-animation-slow{stroke-dasharray:9,5!important;stroke-dashoffset:900;animation:dash 50s linear infinite;stroke-linecap:round;}#g878879ad-90ec-42ad-b54e-4007473491bd-light .edge-animation-fast{stroke-dasharray:9,5!important;stroke-dashoffset:900;animation:dash 20s linear infinite;stroke-linecap:round;}#g878879ad-90ec-42ad-b54e-4007473491bd-light .error-icon{fill:#552222;}#g878879ad-90ec-42ad-b54e-4007473491bd-light .error-text{fill:#552222;stroke:#552222;}#g878879ad-90ec-42ad-b54e-4007473491bd-light .edge-thickness-normal{stroke-width:1px;}#g878879ad-90ec-42ad-b54e-4007473491bd-light .edge-thickness-thick{stroke-width:3.5px;}#g878879ad-90ec-42ad-b54e-4007473491bd-light .edge-pattern-solid{stroke-dasharray:0;}#g878879ad-90ec-42ad-b54e-4007473491bd-light .edge-thickness-invisible{stroke-width:0;fill:none;}#g878879ad-90ec-42ad-b54e-4007473491bd-light .edge-pattern-dashed{stroke-dasharray:3;}#g878879ad-90ec-42ad-b54e-4007473491bd-light .edge-pattern-dotted{stroke-dasharray:2;}#g878879ad-90ec-42ad-b54e-4007473491bd-light .marker{fill:#333333;stroke:#333333;}#g878879ad-90ec-42ad-b54e-4007473491bd-light .marker.cross{stroke:#333333;}#g878879ad-90ec-42ad-b54e-4007473491bd-light svg{font-family:"trebuchet ms",verdana,arial,sans-serif;font-size:16px;}#g878879ad-90ec-42ad-b54e-4007473491bd-light p{margin:0;}#g878879ad-90ec-42ad-b54e-4007473491bd-light .label{font-family:"trebuchet ms",verdana,arial,sans-serif;color:#333;}#g878879ad-90ec-42ad-b54e-4007473491bd-light .cluster-label text{fill:#333;}#g878879ad-90ec-42ad-b54e-4007473491bd-light .cluster-label span{color:#333;}#g878879ad-90ec-42ad-b54e-4007473491bd-light .cluster-label span p{background-color:transparent;}#g878879ad-90ec-42ad-b54e-4007473491bd-light .label text,#g878879ad-90ec-42ad-b54e-4007473491bd-light span{fill:#333;color:#333;}#g878879ad-90ec-42ad-b54e-4007473491bd-light .node rect,#g878879ad-90ec-42ad-b54e-4007473491bd-light .node circle,#g878879ad-90ec-42ad-b54e-4007473491bd-light .node ellipse,#g878879ad-90ec-42ad-b54e-4007473491bd-light .node polygon,#g878879ad-90ec-42ad-b54e-4007473491bd-light .node path{fill:#ECECFF;stroke:#9370DB;stroke-width:1px;}#g878879ad-90ec-42ad-b54e-4007473491bd-light .rough-node .label text,#g878879ad-90ec-42ad-b54e-4007473491bd-light .node .label text,#g878879ad-90ec-42ad-b54e-4007473491bd-light .image-shape .label,#g878879ad-90ec-42ad-b54e-4007473491bd-light .icon-shape .label{text-anchor:middle;}#g878879ad-90ec-42ad-b54e-4007473491bd-light .node .katex path{fill:#000;stroke:#000;stroke-width:1px;}#g878879ad-90ec-42ad-b54e-4007473491bd-light .rough-node .label,#g878879ad-90ec-42ad-b54e-4007473491bd-light .node .label,#g878879ad-90ec-42ad-b54e-4007473491bd-light .image-shape .label,#g878879ad-90ec-42ad-b54e-4007473491bd-light .icon-shape .label{text-align:center;}#g878879ad-90ec-42ad-b54e-4007473491bd-light .node.clickable{cursor:pointer;}#g878879ad-90ec-42ad-b54e-4007473491bd-light .root .anchor path{fill:#333333!important;stroke-width:0;stroke:#333333;}#g878879ad-90ec-42ad-b54e-4007473491bd-light .arrowheadPath{fill:#333333;}#g878879ad-90ec-42ad-b54e-4007473491bd-light .edgePath .path{stroke:#333333;stroke-width:1px;}#g878879ad-90ec-42ad-b54e-4007473491bd-light .flowchart-link{stroke:#333333;fill:none;}#g878879ad-90ec-42ad-b54e-4007473491bd-light .edgeLabel{background-color:rgba(232,232,232, 0.8);text-align:center;}#g878879ad-90ec-42ad-b54e-4007473491bd-light .edgeLabel p{background-color:rgba(232,232,232, 0.8);}#g878879ad-90ec-42ad-b54e-4007473491bd-light .edgeLabel rect{opacity:0.5;background-color:rgba(232,232,232, 0.8);fill:rgba(232,232,232, 0.8);}#g878879ad-90ec-42ad-b54e-4007473491bd-light .labelBkg{background-color:rgba(232, 232, 232, 0.5);}#g878879ad-90ec-42ad-b54e-4007473491bd-light .cluster rect{fill:#ffffde;stroke:#aaaa33;stroke-width:1px;}#g878879ad-90ec-42ad-b54e-4007473491bd-light .cluster text{fill:#333;}#g878879ad-90ec-42ad-b54e-4007473491bd-light .cluster span{color:#333;}#g878879ad-90ec-42ad-b54e-4007473491bd-light div.mermaidTooltip{position:absolute;text-align:center;max-width:200px;padding:2px;font-family:"trebuchet ms",verdana,arial,sans-serif;font-size:12px;background:hsl(80, 100%, 96.2745098039%);border:1px solid #aaaa33;border-radius:2px;pointer-events:none;z-index:100;}#g878879ad-90ec-42ad-b54e-4007473491bd-light .flowchartTitleText{text-anchor:middle;font-size:18px;fill:#333;}#g878879ad-90ec-42ad-b54e-4007473491bd-light rect.text{fill:none;stroke-width:0;}#g878879ad-90ec-42ad-b54e-4007473491bd-light .icon-shape,#g878879ad-90ec-42ad-b54e-4007473491bd-light .image-shape{background-color:rgba(232,232,232, 0.8);text-align:center;}#g878879ad-90ec-42ad-b54e-4007473491bd-light .icon-shape p,#g878879ad-90ec-42ad-b54e-4007473491bd-light .image-shape p{background-color:rgba(232,232,232, 0.8);padding:2px;}#g878879ad-90ec-42ad-b54e-4007473491bd-light .icon-shape .label rect,#g878879ad-90ec-42ad-b54e-4007473491bd-light .image-shape .label rect{opacity:0.5;background-color:rgba(232,232,232, 0.8);fill:rgba(232,232,232, 0.8);}#g878879ad-90ec-42ad-b54e-4007473491bd-light .label-icon{display:inline-block;height:1em;overflow:visible;vertical-align:-0.125em;}#g878879ad-90ec-42ad-b54e-4007473491bd-light .node .label-icon path{fill:currentColor;stroke:revert;stroke-width:revert;}#g878879ad-90ec-42ad-b54e-4007473491bd-light .node .neo-node{stroke:#9370DB;}#g878879ad-90ec-42ad-b54e-4007473491bd-light [data-look="neo"].node rect,#g878879ad-90ec-42ad-b54e-4007473491bd-light [data-look="neo"].cluster rect,#g878879ad-90ec-42ad-b54e-4007473491bd-light [data-look="neo"].node polygon{stroke:#9370DB;filter:drop-shadow(1px 2px 2px rgba(185, 185, 185, 1));}#g878879ad-90ec-42ad-b54e-4007473491bd-light [data-look="neo"].node path{stroke:#9370DB;stroke-width:1px;}#g878879ad-90ec-42ad-b54e-4007473491bd-light [data-look="neo"].node .outer-path{filter:drop-shadow(1px 2px 2px rgba(185, 185, 185, 1));}#g878879ad-90ec-42ad-b54e-4007473491bd-light [data-look="neo"].node .neo-line path{stroke:#9370DB;filter:none;}#g878879ad-90ec-42ad-b54e-4007473491bd-light [data-look="neo"].node circle{stroke:#9370DB;filter:drop-shadow(1px 2px 2px rgba(185, 185, 185, 1));}#g878879ad-90ec-42ad-b54e-4007473491bd-light [data-look="neo"].node circle .state-start{fill:#000000;}#g878879ad-90ec-42ad-b54e-4007473491bd-light [data-look="neo"].icon-shape .icon{fill:#9370DB;filter:drop-shadow(1px 2px 2px rgba(185, 185, 185, 1));}#g878879ad-90ec-42ad-b54e-4007473491bd-light [data-look="neo"].icon-shape .icon-neo path{stroke:#9370DB;filter:drop-shadow(1px 2px 2px rgba(185, 185, 185, 1));}#g878879ad-90ec-42ad-b54e-4007473491bd-light :root{--mermaid-font-family:"trebuchet ms",verdana,arial,sans-serif;}</style><g><marker id="g878879ad-90ec-42ad-b54e-4007473491bd-light_flowchart-v2-pointEnd" class="marker flowchart-v2" viewBox="0 0 10 10" refX="5" refY="5" markerUnits="userSpaceOnUse" markerWidth="8" markerHeight="8" orient="auto"><path d="M 0 0 L 10 5 L 0 10 z" class="arrowMarkerPath" style="stroke-width: 1; stroke-dasharray: 1, 0;"></path></marker><marker id="g878879ad-90ec-42ad-b54e-4007473491bd-light_flowchart-v2-pointStart" class="marker flowchart-v2" viewBox="0 0 10 10" refX="4.5" refY="5" markerUnits="userSpaceOnUse" markerWidth="8" markerHeight="8" orient="auto"><path d="M 0 5 L 10 10 L 10 0 z" class="arrowMarkerPath" style="stroke-width: 1; stroke-dasharray: 1, 0;"></path></marker><marker id="g878879ad-90ec-42ad-b54e-4007473491bd-light_flowchart-v2-pointEnd-margin" class="marker flowchart-v2" viewBox="0 0 11.5 14" refX="11.5" refY="7" markerUnits="userSpaceOnUse" markerWidth="10.5" markerHeight="14" orient="auto"><path d="M 0 0 L 11.5 7 L 0 14 z" class="arrowMarkerPath" style="stroke-width: 0; stroke-dasharray: 1, 0;"></path></marker><marker id="g878879ad-90ec-42ad-b54e-4007473491bd-light_flowchart-v2-pointStart-margin" class="marker flowchart-v2" viewBox="0 0 11.5 14" refX="1" refY="7" markerUnits="userSpaceOnUse" markerWidth="11.5" markerHeight="14" orient="auto"><polygon points="0,7 11.5,14 11.5,0" class="arrowMarkerPath" style="stroke-width: 0; stroke-dasharray: 1, 0;"></polygon></marker><marker id="g878879ad-90ec-42ad-b54e-4007473491bd-light_flowchart-v2-circleEnd" class="marker flowchart-v2" viewBox="0 0 10 10" refX="11" refY="5" markerUnits="userSpaceOnUse" markerWidth="11" markerHeight="11" orient="auto"><circle cx="5" cy="5" r="5" class="arrowMarkerPath" style="stroke-width: 1; stroke-dasharray: 1, 0;"></circle></marker><marker id="g878879ad-90ec-42ad-b54e-4007473491bd-light_flowchart-v2-circleStart" class="marker flowchart-v2" viewBox="0 0 10 10" refX="-1" refY="5" markerUnits="userSpaceOnUse" markerWidth="11" markerHeight="11" orient="auto"><circle cx="5" cy="5" r="5" class="arrowMarkerPath" style="stroke-width: 1; stroke-dasharray: 1, 0;"></circle></marker><marker id="g878879ad-90ec-42ad-b54e-4007473491bd-light_flowchart-v2-circleEnd-margin" class="marker flowchart-v2" viewBox="0 0 10 10" refY="5" refX="12.25" markerUnits="userSpaceOnUse" markerWidth="14" markerHeight="14" orient="auto"><circle cx="5" cy="5" r="5" class="arrowMarkerPath" style="stroke-width: 0; stroke-dasharray: 1, 0;"></circle></marker><marker id="g878879ad-90ec-42ad-b54e-4007473491bd-light_flowchart-v2-circleStart-margin" class="marker flowchart-v2" viewBox="0 0 10 10" refX="-2" refY="5" markerUnits="userSpaceOnUse" markerWidth="14" markerHeight="14" orient="auto"><circle cx="5" cy="5" r="5" class="arrowMarkerPath" style="stroke-width: 0; stroke-dasharray: 1, 0;"></circle></marker><marker id="g878879ad-90ec-42ad-b54e-4007473491bd-light_flowchart-v2-crossEnd" class="marker cross flowchart-v2" viewBox="0 0 11 11" refX="12" refY="5.2" markerUnits="userSpaceOnUse" markerWidth="11" markerHeight="11" orient="auto"><path d="M 1,1 l 9,9 M 10,1 l -9,9" class="arrowMarkerPath" style="stroke-width: 2; stroke-dasharray: 1, 0;"></path></marker><marker id="g878879ad-90ec-42ad-b54e-4007473491bd-light_flowchart-v2-crossStart" class="marker cross flowchart-v2" viewBox="0 0 11 11" refX="-1" refY="5.2" markerUnits="userSpaceOnUse" markerWidth="11" markerHeight="11" orient="auto"><path d="M 1,1 l 9,9 M 10,1 l -9,9" class="arrowMarkerPath" style="stroke-width: 2; stroke-dasharray: 1, 0;"></path></marker><marker id="g878879ad-90ec-42ad-b54e-4007473491bd-light_flowchart-v2-crossEnd-margin" class="marker cross flowchart-v2" viewBox="0 0 15 15" refX="17.7" refY="7.5" markerUnits="userSpaceOnUse" markerWidth="12" markerHeight="12" orient="auto"><path d="M 1,1 L 14,14 M 1,14 L 14,1" class="arrowMarkerPath" style="stroke-width: 2.5;"></path></marker><marker id="g878879ad-90ec-42ad-b54e-4007473491bd-light_flowchart-v2-crossStart-margin" class="marker cross flowchart-v2" viewBox="0 0 15 15" refX="-3.5" refY="7.5" markerUnits="userSpaceOnUse" markerWidth="12" markerHeight="12" orient="auto"><path d="M 1,1 L 14,14 M 1,14 L 14,1" class="arrowMarkerPath" style="stroke-width: 2.5; stroke-dasharray: 1, 0;"></path></marker><g class="root"><g class="clusters"></g><g class="edgePaths"><path d="M203.574,42.5L203.491,46.583C203.408,50.667,203.241,58.833,203.158,66.417C203.074,74,203.074,81,203.074,84.5L203.074,88" id="g878879ad-90ec-42ad-b54e-4007473491bd-light-L_start_init_0" class="edge-thickness-normal edge-pattern-solid edge-thickness-normal edge-pattern-solid flowchart-link" style=";" data-edge="true" data-et="edge" data-id="L_start_init_0" data-points="W3sieCI6MjAzLjU3NDIxODc1LCJ5Ijo0Mi41fSx7IngiOjIwMy4wNzQyMTg3NSwieSI6Njd9LHsieCI6MjAzLjA3NDIxODc1LCJ5Ijo5Mn1d" data-look="classic" marker-end="url(#g878879ad-90ec-42ad-b54e-4007473491bd-light_flowchart-v2-pointEnd)"></path><path d="M139.96,42.5L124.285,46.583C108.61,50.667,77.26,58.833,61.585,74.1C45.91,89.367,45.91,111.733,45.91,136.017C45.91,160.3,45.91,186.5,52.987,206.679C60.064,226.857,74.218,241.014,81.295,248.093L88.372,255.171" id="g878879ad-90ec-42ad-b54e-4007473491bd-light-L_start_dev_0" class="edge-thickness-normal edge-pattern-solid edge-thickness-normal edge-pattern-solid flowchart-link" style=";" data-edge="true" data-et="edge" data-id="L_start_dev_0" data-points="W3sieCI6MTM5Ljk2MDE5MzQ1MjM4MDk2LCJ5Ijo0Mi41fSx7IngiOjQ1LjkxMDE1NjI1LCJ5Ijo2N30seyJ4Ijo0NS45MTAxNTYyNSwieSI6MTM0LjA5OTk5ODQ3NDEyMTF9LHsieCI6NDUuOTEwMTU2MjUsInkiOjIxMi42OTk5OTY5NDgyNDIyfSx7IngiOjkxLjE5OTgwMDMzMTE0NzM0LCJ5IjoyNTcuOTk5OTk2MTg1MzAyNzN9XQ==" data-look="classic" marker-end="url(#g878879ad-90ec-42ad-b54e-4007473491bd-light_flowchart-v2-pointEnd)"></path><path d="M203.074,176.2L203.074,182.283C203.074,188.367,203.074,200.533,195.997,213.695C188.92,226.857,174.767,241.014,167.69,248.093L160.613,255.171" id="g878879ad-90ec-42ad-b54e-4007473491bd-light-L_init_dev_0" class="edge-thickness-normal edge-pattern-solid edge-thickness-normal edge-pattern-solid flowchart-link" style=";" data-edge="true" data-et="edge" data-id="L_init_dev_0" data-points="W3sieCI6MjAzLjA3NDIxODc1LCJ5IjoxNzYuMTk5OTk2OTQ4MjQyMn0seyJ4IjoyMDMuMDc0MjE4NzUsInkiOjIxMi42OTk5OTY5NDgyNDIyfSx7IngiOjE1Ny43ODQ1NzQ2Njg4NTI2NiwieSI6MjU3Ljk5OTk5NjE4NTMwMjczfV0=" data-look="classic" marker-end="url(#g878879ad-90ec-42ad-b54e-4007473491bd-light_flowchart-v2-pointEnd)"></path><path d="M124.492,324.6L124.492,330.233C124.492,335.867,124.492,347.133,124.492,356.267C124.492,365.4,124.492,372.4,124.492,375.9L124.492,379.4" id="g878879ad-90ec-42ad-b54e-4007473491bd-light-L_dev_build_0" class="edge-thickness-normal edge-pattern-solid edge-thickness-normal edge-pattern-solid flowchart-link" style=";" data-edge="true" data-et="edge" data-id="L_dev_build_0" data-points="W3sieCI6MTI0LjQ5MjE4NzUsInkiOjMyNC41OTk5OTQ2NTk0MjM4fSx7IngiOjEyNC40OTIxODc1LCJ5IjozNTguMzk5OTkzODk2NDg0NH0seyJ4IjoxMjQuNDkyMTg3NSwieSI6MzgzLjM5OTk5Mzg5NjQ4NDR9XQ==" data-look="classic" marker-end="url(#g878879ad-90ec-42ad-b54e-4007473491bd-light_flowchart-v2-pointEnd)"></path><path d="M124.492,467.6L124.492,471.767C124.492,475.933,124.492,484.267,124.492,491.933C124.492,499.6,124.492,506.6,124.492,510.1L124.492,513.6" id="g878879ad-90ec-42ad-b54e-4007473491bd-light-L_build_preview_0" class="edge-thickness-normal edge-pattern-solid edge-thickness-normal edge-pattern-solid flowchart-link" style=";" data-edge="true" data-et="edge" data-id="L_build_preview_0" data-points="W3sieCI6MTI0LjQ5MjE4NzUsInkiOjQ2Ny41OTk5OTA4NDQ3MjY1Nn0seyJ4IjoxMjQuNDkyMTg3NSwieSI6NDkyLjU5OTk5MDg0NDcyNjU2fSx7IngiOjEyNC40OTIxODc1LCJ5Ijo1MTcuNTk5OTkwODQ0NzI2Nn1d" data-look="classic" marker-end="url(#g878879ad-90ec-42ad-b54e-4007473491bd-light_flowchart-v2-pointEnd)"></path><path d="M291.499,40.116L318.872,44.596C346.245,49.077,400.992,58.039,428.365,73.703C455.738,89.367,455.738,111.733,455.738,136.017C455.738,160.3,455.738,186.5,460.045,205.156C464.352,223.813,472.965,234.926,477.272,240.482L481.579,246.038" id="g878879ad-90ec-42ad-b54e-4007473491bd-light-L_start_mcp_0" class="edge-thickness-normal edge-pattern-dotted edge-thickness-normal edge-pattern-solid flowchart-link" style=";" data-edge="true" data-et="edge" data-id="L_start_mcp_0" data-points="W3sieCI6MjkxLjQ5ODkwMzUyMTg2ODQ0LCJ5Ijo0MC4xMTU1OTk1NTg4NzQ2NH0seyJ4Ijo0NTUuNzM4MjgxMjUsInkiOjY3fSx7IngiOjQ1NS43MzgyODEyNSwieSI6MTM0LjA5OTk5ODQ3NDEyMTF9LHsieCI6NDU1LjczODI4MTI1LCJ5IjoyMTIuNjk5OTk2OTQ4MjQyMn0seyJ4Ijo0ODQuMDI4OTc0Mzg4MjcxOSwieSI6MjQ5LjE5OTk5Njk0ODI0MjJ9XQ==" data-look="classic" marker-end="url(#g878879ad-90ec-42ad-b54e-4007473491bd-light_flowchart-v2-pointEnd)"></path><path d="M325.238,159.739L367.296,168.566C409.353,177.393,493.467,195.046,531.218,209.43C568.969,223.813,560.355,234.926,556.049,240.482L551.742,246.038" id="g878879ad-90ec-42ad-b54e-4007473491bd-light-L_init_mcp_0" class="edge-thickness-normal edge-pattern-dotted edge-thickness-normal edge-pattern-solid flowchart-link" style=";" data-edge="true" data-et="edge" data-id="L_init_mcp_0" data-points="W3sieCI6MzI1LjIzODI4MTI1LCJ5IjoxNTkuNzM5MjM2OTc3NTcwMDJ9LHsieCI6NTc3LjU4MjAzMTI1LCJ5IjoyMTIuNjk5OTk2OTQ4MjQyMn0seyJ4Ijo1NDkuMjkxMzM4MTExNzI4MSwieSI6MjQ5LjE5OTk5Njk0ODI0MjJ9XQ==" data-look="classic" marker-end="url(#g878879ad-90ec-42ad-b54e-4007473491bd-light_flowchart-v2-pointEnd)"></path></g><g class="edgeLabels"><g class="edgeLabel"><g class="label" data-id="L_start_init_0" transform="translate(0, 0)"><text y="-10.1" text-anchor="middle"><tspan class="text-outer-tspan row" x="0" y="-0.1em" dy="1.1em" text-anchor="middle"></tspan></text></g></g><g><rect class="background" style="stroke: none"></rect></g><g class="edgeLabel"><g class="label" data-id="L_start_dev_0" transform="translate(0, 0)"><text y="-10.1" text-anchor="middle"><tspan class="text-outer-tspan row" x="0" y="-0.1em" dy="1.1em" text-anchor="middle"></tspan></text></g></g><g><rect class="background" style="stroke: none"></rect></g><g class="edgeLabel"><g class="label" data-id="L_init_dev_0" transform="translate(0, 0)"><text y="-10.1" text-anchor="middle"><tspan class="text-outer-tspan row" x="0" y="-0.1em" dy="1.1em" text-anchor="middle"></tspan></text></g></g><g><rect class="background" style="stroke: none"></rect></g><g class="edgeLabel"><g class="label" data-id="L_dev_build_0" transform="translate(0, 0)"><text y="-10.1" text-anchor="middle"><tspan class="text-outer-tspan row" x="0" y="-0.1em" dy="1.1em" text-anchor="middle"></tspan></text></g></g><g><rect class="background" style="stroke: none"></rect></g><g class="edgeLabel"><g class="label" data-id="L_build_preview_0" transform="translate(0, 0)"><text y="-10.1" text-anchor="middle"><tspan class="text-outer-tspan row" x="0" y="-0.1em" dy="1.1em" text-anchor="middle"></tspan></text></g></g><g><rect class="background" style="stroke: none"></rect></g><g class="edgeLabel" transform="translate(455.73828125, 134.0999984741211)"><g class="label" data-id="L_start_mcp_0" transform="translate(0, -10.5)"><g><rect class="background" style="" x="-95.5" y="-1" width="191" height="23"></rect><text y="-10.1" text-anchor="middle" style=""><tspan class="text-outer-tspan row" x="0" y="-0.1em" dy="1.1em" text-anchor="middle"><tspan font-style="normal" class="text-inner-tspan" font-weight="normal">assistant</tspan><tspan font-style="normal" class="text-inner-tspan" font-weight="normal"> or</tspan><tspan font-style="normal" class="text-inner-tspan" font-weight="normal"> tooling</tspan><tspan font-style="normal" class="text-inner-tspan" font-weight="normal"> access</tspan></tspan></text></g></g></g><g class="edgeLabel" transform="translate(474.00794, 190.96234)"><g class="label" data-id="L_init_mcp_0" transform="translate(0, -10.5)"><g><rect class="background" style="" x="-101.84375" y="-1" width="203.6875" height="23"></rect><text y="-10.1" text-anchor="middle" style=""><tspan class="text-outer-tspan row" x="0" y="-0.1em" dy="1.1em" text-anchor="middle"><tspan font-style="normal" class="text-inner-tspan" font-weight="normal">project</tspan><tspan font-style="normal" class="text-inner-tspan" font-weight="normal"> metadata</tspan><tspan font-style="normal" class="text-inner-tspan" font-weight="normal"> +</tspan><tspan font-style="normal" class="text-inner-tspan" font-weight="normal"> content</tspan></tspan></text></g></g></g></g><g class="nodes"><g class="node default" id="g878879ad-90ec-42ad-b54e-4007473491bd-light-flowchart-start-0" data-look="classic" transform="translate(203.07421875, 25)"><g class="basic label-container outer-path"><path d="M-79.2578125 -17 C-29.46237811794999 -17, 20.333056264100023 -17, 79.2578125 -17 C79.2578125 -17, 79.2578125 -17, 79.2578125 -17 C79.58199565009436 -16.989604077360696, 79.90617880018871 -16.97920815472139, 80.34700623967211 -16.965071676755716 C80.73362268870096 -16.927775252892214, 81.1202391377298 -16.89047882902871, 81.4317242486366 -16.860430234995185 C81.740307345422 -16.81054091300458, 82.04889044220738 -16.760651591013975, 82.50750918792333 -16.686505668848113 C82.78185331297693 -16.623888412567354, 83.05619743803054 -16.561271156286594, 83.56994042646163 -16.4440126716635 C83.8862035923596 -16.350147424124216, 84.20246675825759 -16.25628217658493, 84.61465220640156 -16.133947699181366 C84.86572731392619 -16.04154973869945, 85.1168024214508 -15.949151778217539, 85.63735158294936 -15.757584874882369 C85.87765700862322 -15.651208791343732, 86.11796243429707 -15.544832707805098, 86.63383606499849 -15.316470754341125 C86.83597714761575 -15.211013881017239, 87.03811823023302 -15.105557007693353, 87.60001088406693 -14.812417970097622 C87.95568031612359 -14.596809070239292, 88.31134974818025 -14.381200170380964, 88.53190582057933 -14.247497783161291 C88.87639648956399 -14.007196005238297, 89.22088715854866 -13.766894227315303, 89.42569151835067 -13.624031571755262 C89.67115380445944 -13.428281930609291, 89.91661609056818 -13.23253228946332, 90.2776952202324 -12.944581292275288 C90.58959483707339 -12.661322312671944, 90.90149445391438 -12.378063333068601, 91.08441586025927 -12.21193895166137 C91.29059867780099 -11.999038264625403, 91.49678149534272 -11.786137577589436, 91.84253845028036 -11.42911513444239 C92.05307092694336 -11.181811707716733, 92.26360340360637 -10.934508280991075, 92.54894770195651 -10.59932663159847 C92.79652259593766 -10.267598828200548, 93.04409748991883 -9.935871024802625, 93.20074082814824 -9.725983222076888 C93.39365227669063 -9.429619433138603, 93.58656372523302 -9.133255644200318, 93.79523947109088 -8.812673661278927 C93.94829585814493 -8.54090654742465, 94.101352245199 -8.26913943357037, 94.330000708341 -7.863150934094199 C94.50055421252544 -7.508992933394827, 94.67110771670987 -7.154834932695456, 94.80282709126881 -6.881316833080699 C94.90901710731931 -6.619025440391652, 95.01520712336982 -6.356734047702604, 95.21177567484592 -5.871205925162238 C95.30960600048002 -5.576556571497963, 95.40743632611411 -5.281907217833687, 95.55516600162323 -4.836968972727556 C95.6252444358451 -4.569729530854049, 95.69532287006697 -4.302490088980542, 95.831587007091 -3.7828558772573464 C95.89607975099926 -3.451699267834645, 95.96057249490754 -3.1205426584119436, 96.03990281804565 -2.713198215567453 C96.07372295876709 -2.450895882674111, 96.10754309948854 -2.188593549780769, 96.17925742013637 -1.632391440430593 C96.20167457422919 -1.283226170633835, 96.22409172832201 -0.934060900837077, 96.2490781754117 -0.5448768187181379 C96.2490781754117 -0.18205140725656305, 96.2490781754117 0.18077400420501177, 96.2490781754117 0.5448768187181336 C96.22989739184155 0.8436330052729524, 96.21071660827141 1.142389191827771, 96.17925742013637 1.6323914404305815 C96.13631973804421 1.9654076237329525, 96.09338205595206 2.2984238070353236, 96.03990281804565 2.7131982155674415 C95.97289831940144 3.0572521546996336, 95.90589382075724 3.4013060938318262, 95.831587007091 3.782855877257343 C95.75588692687091 4.071533091758835, 95.68018684665083 4.360210306260326, 95.55516600162323 4.836968972727545 C95.44446373106891 5.170386573625659, 95.33376146051458 5.503804174523772, 95.21177567484592 5.871205925162227 C95.06730995926739 6.228039035695813, 94.92284424368886 6.584872146229401, 94.80282709126881 6.881316833080694 C94.61460282962305 7.272168539742146, 94.4263785679773 7.6630202464035975, 94.330000708341 7.863150934094196 C94.12348817709294 8.229834844986499, 93.91697564584487 8.596518755878801, 93.79523947109088 8.812673661278923 C93.57990901496875 9.143479066206169, 93.3645785588466 9.474284471133414, 93.20074082814826 9.725983222076879 C92.98307686574682 10.017633102099891, 92.76541290334539 10.309282982122905, 92.54894770195651 10.599326631598467 C92.39414763454025 10.78116359915897, 92.239347567124 10.963000566719474, 91.84253845028037 11.42911513444238 C91.66396194600115 11.613510036514336, 91.48538544172193 11.797904938586294, 91.08441586025927 12.211938951661365 C90.77352030920886 12.494286065279823, 90.46262475815847 12.77663317889828, 90.27769522023242 12.944581292275275 C90.02730512801612 13.144260727657576, 89.77691503579985 13.343940163039877, 89.42569151835067 13.62403157175526 C89.22962148668535 13.760801538110124, 89.03355145502 13.897571504464988, 88.53190582057934 14.247497783161286 C88.2691737952005 14.406767480930695, 88.00644176982168 14.566037178700105, 87.60001088406695 14.81241797009762 C87.23009271268147 15.005404043165525, 86.86017454129599 15.198390116233432, 86.63383606499849 15.316470754341124 C86.33032968185218 15.450824026963026, 86.02682329870585 15.585177299584931, 85.63735158294936 15.757584874882367 C85.33161029593865 15.870100494743788, 85.02586900892793 15.982616114605209, 84.61465220640156 16.133947699181363 C84.3662466313856 16.207673169938634, 84.11784105636961 16.2813986406959, 83.56994042646164 16.444012671663497 C83.2265721753506 16.52238423429235, 82.88320392423955 16.600755796921206, 82.50750918792333 16.68650566884811 C82.1600087384841 16.74268684660721, 81.81250828904486 16.798868024366314, 81.43172424863661 16.86043023499518 C81.10419982471016 16.892026122265616, 80.77667540078372 16.92362200953605, 80.34700623967211 16.965071676755716 C80.04371689610838 16.97479757568691, 79.74042755254465 16.984523474618104, 79.2578125 17 C79.2578125 17, 79.2578125 17, 79.2578125 17 C17.636397779299763 17, -43.985016941400474 17, -79.2578125 17 C-79.48834155504098 16.99260738190242, -79.71887061008194 16.98521476380484, -80.34700623967211 16.965071676755716 C-80.600494181729 16.94061799984934, -80.8539821237859 16.916164322942965, -81.4317242486366 16.86043023499518 C-81.77516424975184 16.80490551903186, -82.11860425086707 16.749380803068533, -82.50750918792333 16.68650566884811 C-82.8392778249719 16.61078164243446, -83.17104646202047 16.53505761602081, -83.56994042646161 16.4440126716635 C-83.91599274779766 16.341306159156662, -84.26204506913372 16.238599646649828, -84.61465220640154 16.13394769918137 C-84.91096098376636 16.024903330062806, -85.20726976113117 15.915858960944245, -85.63735158294936 15.757584874882369 C-85.97414443985977 15.608496667733265, -86.31093729677019 15.45940846058416, -86.63383606499849 15.316470754341127 C-86.93517105359336 15.15926448380545, -87.23650604218825 15.00205821326977, -87.60001088406693 14.812417970097624 C-87.79029616763464 14.69706591295843, -87.98058145120235 14.581713855819235, -88.53190582057931 14.247497783161299 C-88.79413517546193 14.064577936921005, -89.05636453034454 13.88165809068071, -89.42569151835067 13.624031571755264 C-89.6630615593335 13.434735280753532, -89.90043160031634 13.2454389897518, -90.2776952202324 12.94458129227529 C-90.58817208630701 12.662614417274046, -90.89864895238162 12.380647542272802, -91.08441586025926 12.211938951661377 C-91.38743073849884 11.89905121189484, -91.69044561673842 11.586163472128302, -91.84253845028036 11.429115134442386 C-92.08670756149304 11.142300202795946, -92.33087667270574 10.855485271149506, -92.54894770195651 10.599326631598473 C-92.70612185561193 10.388727584560167, -92.86329600926736 10.17812853752186, -93.20074082814824 9.72598322207689 C-93.37624930127149 9.456355076735646, -93.55175777439473 9.186726931394404, -93.79523947109088 8.812673661278936 C-93.94677739386654 8.54360273451213, -94.0983153166422 8.274531807745324, -94.330000708341 7.863150934094201 C-94.50694186517013 7.495728836004237, -94.68388302199928 7.128306737914272, -94.80282709126881 6.881316833080701 C-94.96530553047924 6.47999194692401, -95.12778396968967 6.078667060767319, -95.21177567484592 5.87120592516224 C-95.28931420004454 5.6376722413502645, -95.36685272524316 5.404138557538288, -95.55516600162323 4.8369689727275516 C-95.62655276501707 4.564740304687918, -95.69793952841088 4.292511636648285, -95.831587007091 3.782855877257349 C-95.879332536736 3.537692673551513, -95.92707806638101 3.2925294698456775, -96.03990281804565 2.713198215567455 C-96.09042381525624 2.3213673377013455, -96.14094481246686 1.929536459835236, -96.17925742013637 1.6323914404306026 C-96.20478623997218 1.2347594649953861, -96.23031505980799 0.8371274895601698, -96.2490781754117 0.54487681871814 C-96.2490781754117 0.19960374153681337, -96.2490781754117 -0.14566933564451323, -96.2490781754117 -0.5448768187181317 C-96.22557800890077 -0.9109108811188615, -96.20207784238983 -1.2769449435195914, -96.17925742013637 -1.6323914404305793 C-96.13537501088861 -1.9727347409943645, -96.09149260164085 -2.3130780415581498, -96.03990281804565 -2.713198215567447 C-95.97769503886035 -3.0326220140651983, -95.91548725967505 -3.3520458125629498, -95.831587007091 -3.782855877257341 C-95.74373788935983 -4.1178626372147455, -95.65588877162867 -4.45286939717215, -95.55516600162323 -4.836968972727544 C-95.45134966650157 -5.149647233227302, -95.3475333313799 -5.46232549372706, -95.21177567484594 -5.871205925162218 C-95.06660236845268 -6.229786798688512, -94.9214290620594 -6.5883676722148055, -94.80282709126881 -6.881316833080692 C-94.64946484582818 -7.199776817164547, -94.49610260038754 -7.518236801248401, -94.330000708341 -7.863150934094194 C-94.13475526588476 -8.209828987920153, -93.93950982342854 -8.55650704174611, -93.79523947109088 -8.812673661278929 C-93.62753847937218 -9.070307418580494, -93.45983748765347 -9.327941175882062, -93.20074082814826 -9.725983222076884 C-93.02749964188912 -9.958110629067383, -92.85425845562997 -10.190238036057881, -92.54894770195651 -10.599326631598467 C-92.29628481324482 -10.896118837604863, -92.04362192453314 -11.192911043611259, -91.84253845028037 -11.42911513444238 C-91.58752135035253 -11.692441227411154, -91.33250425042469 -11.955767320379927, -91.08441586025927 -12.21193895166136 C-90.89787002131281 -12.381354946860101, -90.71132418236637 -12.550770942058842, -90.27769522023242 -12.944581292275274 C-90.01584993527672 -13.153395939031775, -89.75400465032101 -13.362210585788278, -89.42569151835067 -13.624031571755259 C-89.09695683181906 -13.853342658384491, -88.76822214528745 -14.082653745013722, -88.53190582057934 -14.247497783161284 C-88.27749630525817 -14.401722326425237, -88.02308678993701 -14.55594686968919, -87.60001088406695 -14.812417970097618 C-87.26761218002383 -14.98583016108538, -86.93521347598072 -15.159242352073141, -86.63383606499849 -15.316470754341124 C-86.34414167585692 -15.444709866935373, -86.05444728671533 -15.572948979529622, -85.63735158294936 -15.757584874882365 C-85.40006673263547 -15.844907893234993, -85.16278188232155 -15.932230911587622, -84.61465220640156 -16.133947699181363 C-84.35055517860793 -16.212330310756926, -84.0864581508143 -16.290712922332485, -83.56994042646164 -16.444012671663494 C-83.2987398926299 -16.505912423761714, -83.02753935879815 -16.567812175859938, -82.50750918792333 -16.68650566884811 C-82.12327751101883 -16.748625266608872, -81.73904583411432 -16.810744864369635, -81.43172424863661 -16.86043023499518 C-81.09327157949966 -16.893080356937936, -80.75481891036272 -16.925730478880688, -80.34700623967213 -16.965071676755716 C-80.06812651773015 -16.974014806631946, -79.78924679578816 -16.98295793650818, -79.2578125 -17 C-79.2578125 -17, -79.2578125 -17, -79.2578125 -17" stroke="none" stroke-width="0" fill="#ECECFF" style=""></path><path d="M-79.2578125 -17 C-17.795566032456527 -17, 43.666680435086946 -17, 79.2578125 -17 M-79.2578125 -17 C-42.75069695699376 -17, -6.243581413987513 -17, 79.2578125 -17 M79.2578125 -17 C79.2578125 -17, 79.2578125 -17, 79.2578125 -17 M79.2578125 -17 C79.2578125 -17, 79.2578125 -17, 79.2578125 -17 M79.2578125 -17 C79.55854134603818 -16.990356211240744, 79.85927019207635 -16.98071242248149, 80.34700623967211 -16.965071676755716 M79.2578125 -17 C79.62084597729257 -16.988358222985024, 79.98387945458515 -16.976716445970048, 80.34700623967211 -16.965071676755716 M80.34700623967211 -16.965071676755716 C80.74998599680627 -16.92619670423905, 81.15296575394045 -16.887321731722384, 81.4317242486366 -16.860430234995185 M80.34700623967211 -16.965071676755716 C80.69897265478374 -16.931117899991445, 81.05093906989536 -16.89716412322717, 81.4317242486366 -16.860430234995185 M81.4317242486366 -16.860430234995185 C81.80085037133313 -16.800752786093444, 82.16997649402967 -16.741075337191706, 82.50750918792333 -16.686505668848113 M81.4317242486366 -16.860430234995185 C81.70213481824615 -16.816712351166, 81.97254538785569 -16.77299446733682, 82.50750918792333 -16.686505668848113 M82.50750918792333 -16.686505668848113 C82.8331472677575 -16.612180902113025, 83.15878534759166 -16.53785613537794, 83.56994042646163 -16.4440126716635 M82.50750918792333 -16.686505668848113 C82.72822583655011 -16.636128534109787, 82.94894248517689 -16.58575139937146, 83.56994042646163 -16.4440126716635 M83.56994042646163 -16.4440126716635 C83.95347056812643 -16.330182938808182, 84.33700070979124 -16.21635320595286, 84.61465220640156 -16.133947699181366 M83.56994042646163 -16.4440126716635 C83.85451567101732 -16.35955223284531, 84.13909091557301 -16.275091794027123, 84.61465220640156 -16.133947699181366 M84.61465220640156 -16.133947699181366 C85.01660838848179 -15.986024108533625, 85.41856457056201 -15.838100517885886, 85.63735158294936 -15.757584874882369 M84.61465220640156 -16.133947699181366 C84.99483271732853 -15.994037756810119, 85.37501322825553 -15.854127814438872, 85.63735158294936 -15.757584874882369 M85.63735158294936 -15.757584874882369 C85.98305226779142 -15.604553436549253, 86.32875295263347 -15.451521998216137, 86.63383606499849 -15.316470754341125 M85.63735158294936 -15.757584874882369 C85.96681331322701 -15.611741940023448, 86.29627504350464 -15.465899005164527, 86.63383606499849 -15.316470754341125 M86.63383606499849 -15.316470754341125 C86.88074081559255 -15.187660704106246, 87.1276455661866 -15.05885065387137, 87.60001088406693 -14.812417970097622 M86.63383606499849 -15.316470754341125 C86.98660347649763 -15.132432221720332, 87.33937088799678 -14.94839368909954, 87.60001088406693 -14.812417970097622 M87.60001088406693 -14.812417970097622 C87.92496126684857 -14.61543113843498, 88.2499116496302 -14.418444306772338, 88.53190582057933 -14.247497783161291 M87.60001088406693 -14.812417970097622 C87.94580952226642 -14.602792803482734, 88.2916081604659 -14.393167636867844, 88.53190582057933 -14.247497783161291 M88.53190582057933 -14.247497783161291 C88.7486277966552 -14.096321914393899, 88.96534977273107 -13.945146045626508, 89.42569151835067 -13.624031571755262 M88.53190582057933 -14.247497783161291 C88.77338016385845 -14.079055734545625, 89.01485450713756 -13.910613685929958, 89.42569151835067 -13.624031571755262 M89.42569151835067 -13.624031571755262 C89.6962211206064 -13.408291413051389, 89.9667507228621 -13.192551254347514, 90.2776952202324 -12.944581292275288 M89.42569151835067 -13.624031571755262 C89.67782443988291 -13.422962276372127, 89.92995736141515 -13.221892980988994, 90.2776952202324 -12.944581292275288 M90.2776952202324 -12.944581292275288 C90.51056725263444 -12.733093073904096, 90.74343928503649 -12.521604855532903, 91.08441586025927 -12.21193895166137 M90.2776952202324 -12.944581292275288 C90.46502159422634 -12.774456435798239, 90.6523479682203 -12.60433157932119, 91.08441586025927 -12.21193895166137 M91.08441586025927 -12.21193895166137 C91.38713570943685 -11.899355853623685, 91.68985555861443 -11.586772755586, 91.84253845028036 -11.42911513444239 M91.08441586025927 -12.21193895166137 C91.3842519802619 -11.902333540755388, 91.68408810026453 -11.592728129849407, 91.84253845028036 -11.42911513444239 M91.84253845028036 -11.42911513444239 C92.10613452537764 -11.119480185591549, 92.36973060047492 -10.80984523674071, 92.54894770195651 -10.59932663159847 M91.84253845028036 -11.42911513444239 C92.11667199478548 -11.10710227442611, 92.39080553929058 -10.785089414409832, 92.54894770195651 -10.59932663159847 M92.54894770195651 -10.59932663159847 C92.71323897453148 -10.379191293590848, 92.87753024710645 -10.159055955583224, 93.20074082814824 -9.725983222076888 M92.54894770195651 -10.59932663159847 C92.7559641872051 -10.321943400955151, 92.96298067245367 -10.044560170311833, 93.20074082814824 -9.725983222076888 M93.20074082814824 -9.725983222076888 C93.33651973119292 -9.51739036525966, 93.47229863423762 -9.308797508442431, 93.79523947109088 -8.812673661278927 M93.20074082814824 -9.725983222076888 C93.42746355802056 -9.37767622541553, 93.65418628789288 -9.029369228754172, 93.79523947109088 -8.812673661278927 M93.79523947109088 -8.812673661278927 C94.00712733897787 -8.436445295872367, 94.21901520686484 -8.060216930465806, 94.330000708341 -7.863150934094199 M93.79523947109088 -8.812673661278927 C93.95546485989162 -8.52817725888328, 94.11569024869235 -8.243680856487634, 94.330000708341 -7.863150934094199 M94.330000708341 -7.863150934094199 C94.48327849591479 -7.544866328577977, 94.63655628348856 -7.226581723061755, 94.80282709126881 -6.881316833080699 M94.330000708341 -7.863150934094199 C94.50635381981616 -7.496949924763945, 94.6827069312913 -7.13074891543369, 94.80282709126881 -6.881316833080699 M94.80282709126881 -6.881316833080699 C94.90706822533487 -6.623839216572296, 95.01130935940094 -6.366361600063894, 95.21177567484592 -5.871205925162238 M94.80282709126881 -6.881316833080699 C94.91958449288312 -6.592923793742579, 95.03634189449741 -6.3045307544044595, 95.21177567484592 -5.871205925162238 M95.21177567484592 -5.871205925162238 C95.32928802894546 -5.5172774376654505, 95.44680038304499 -5.163348950168662, 95.55516600162323 -4.836968972727556 M95.21177567484592 -5.871205925162238 C95.3182480956712 -5.5505279577130215, 95.42472051649646 -5.229849990263805, 95.55516600162323 -4.836968972727556 M95.55516600162323 -4.836968972727556 C95.61167254746734 -4.6214850233321085, 95.66817909331144 -4.406001073936662, 95.831587007091 -3.7828558772573464 M95.55516600162323 -4.836968972727556 C95.63984049632157 -4.514068426284681, 95.72451499101989 -4.191167879841806, 95.831587007091 -3.7828558772573464 M95.831587007091 -3.7828558772573464 C95.9076768645795 -3.39215054065101, 95.98376672206798 -3.001445204044674, 96.03990281804565 -2.713198215567453 M95.831587007091 -3.7828558772573464 C95.89272749386578 -3.468912399715328, 95.95386798064055 -3.1549689221733095, 96.03990281804565 -2.713198215567453 M96.03990281804565 -2.713198215567453 C96.08084624231094 -2.395649102159495, 96.12178966657622 -2.078099988751536, 96.17925742013637 -1.632391440430593 M96.03990281804565 -2.713198215567453 C96.09215423763594 -2.3079465234350645, 96.14440565722622 -1.9026948313026764, 96.17925742013637 -1.632391440430593 M96.17925742013637 -1.632391440430593 C96.20540666046313 -1.2250959150544285, 96.23155590078989 -0.8178003896782639, 96.2490781754117 -0.5448768187181379 M96.17925742013637 -1.632391440430593 C96.20172738203665 -1.2824036464068522, 96.22419734393694 -0.9324158523831113, 96.2490781754117 -0.5448768187181379 M96.2490781754117 -0.5448768187181379 C96.2490781754117 -0.24922344146546171, 96.2490781754117 0.04642993578721444, 96.2490781754117 0.5448768187181336 M96.2490781754117 -0.5448768187181379 C96.2490781754117 -0.31744434264433496, 96.2490781754117 -0.09001186657053212, 96.2490781754117 0.5448768187181336 M96.2490781754117 0.5448768187181336 C96.22301408705569 0.9508460334164377, 96.19694999869968 1.3568152481147417, 96.17925742013637 1.6323914404305815 M96.2490781754117 0.5448768187181336 C96.2341390046228 0.7775664624367384, 96.21919983383391 1.0102561061553432, 96.17925742013637 1.6323914404305815 M96.17925742013637 1.6323914404305815 C96.12702029277926 2.037532284824669, 96.07478316542218 2.4426731292187562, 96.03990281804565 2.7131982155674415 M96.17925742013637 1.6323914404305815 C96.12471277177278 2.0554289620794326, 96.0701681234092 2.4784664837282837, 96.03990281804565 2.7131982155674415 M96.03990281804565 2.7131982155674415 C95.98199506394431 3.010542294069651, 95.92408730984297 3.3078863725718604, 95.831587007091 3.782855877257343 M96.03990281804565 2.7131982155674415 C95.98827633006466 2.978289320087733, 95.93664984208367 3.2433804246080244, 95.831587007091 3.782855877257343 M95.831587007091 3.782855877257343 C95.7654074180454 4.03522733270356, 95.6992278289998 4.287598788149777, 95.55516600162323 4.836968972727545 M95.831587007091 3.782855877257343 C95.74420735463536 4.1160723626516145, 95.65682770217973 4.449288848045887, 95.55516600162323 4.836968972727545 M95.55516600162323 4.836968972727545 C95.45871792036453 5.1274552265638444, 95.36226983910585 5.4179414804001444, 95.21177567484592 5.871205925162227 M95.55516600162323 4.836968972727545 C95.47345875650564 5.083058176740136, 95.39175151138805 5.329147380752727, 95.21177567484592 5.871205925162227 M95.21177567484592 5.871205925162227 C95.1184776110013 6.101653946653826, 95.02517954715665 6.332101968145426, 94.80282709126881 6.881316833080694 M95.21177567484592 5.871205925162227 C95.09795976422605 6.152333424874258, 94.98414385360617 6.43346092458629, 94.80282709126881 6.881316833080694 M94.80282709126881 6.881316833080694 C94.67762529883126 7.141301033966477, 94.55242350639371 7.40128523485226, 94.330000708341 7.863150934094196 M94.80282709126881 6.881316833080694 C94.61867593666283 7.263710645823532, 94.43452478205684 7.646104458566369, 94.330000708341 7.863150934094196 M94.330000708341 7.863150934094196 C94.19676760605705 8.099719798513906, 94.0635345037731 8.336288662933615, 93.79523947109088 8.812673661278923 M94.330000708341 7.863150934094196 C94.16233245014068 8.16086290478107, 93.99466419194036 8.458574875467942, 93.79523947109088 8.812673661278923 M93.79523947109088 8.812673661278923 C93.57552149813341 9.150219470278472, 93.35580352517594 9.487765279278019, 93.20074082814826 9.725983222076879 M93.79523947109088 8.812673661278923 C93.66497487593291 9.012795060383164, 93.53471028077495 9.212916459487403, 93.20074082814826 9.725983222076879 M93.20074082814826 9.725983222076879 C93.0645855160922 9.908418936227902, 92.92843020403613 10.090854650378924, 92.54894770195651 10.599326631598467 M93.20074082814826 9.725983222076879 C93.02722784276051 9.958474815138302, 92.85371485737276 10.190966408199724, 92.54894770195651 10.599326631598467 M92.54894770195651 10.599326631598467 C92.26737938441045 10.930072799079223, 91.98581106686437 11.26081896655998, 91.84253845028037 11.42911513444238 M92.54894770195651 10.599326631598467 C92.32134851626866 10.86667758586797, 92.09374933058079 11.134028540137473, 91.84253845028037 11.42911513444238 M91.84253845028037 11.42911513444238 C91.6182756718057 11.660684865534005, 91.39401289333104 11.89225459662563, 91.08441586025927 12.211938951661365 M91.84253845028037 11.42911513444238 C91.63467758498298 11.643748543556358, 91.42681671968558 11.858381952670337, 91.08441586025927 12.211938951661365 M91.08441586025927 12.211938951661365 C90.89753211290513 12.381661826335401, 90.710648365551 12.551384701009438, 90.27769522023242 12.944581292275275 M91.08441586025927 12.211938951661365 C90.79703524855356 12.472930419538178, 90.50965463684784 12.733921887414992, 90.27769522023242 12.944581292275275 M90.27769522023242 12.944581292275275 C90.07596575744496 13.105455170601811, 89.8742362946575 13.266329048928347, 89.42569151835067 13.62403157175526 M90.27769522023242 12.944581292275275 C90.03013078041239 13.142007345065327, 89.78256634059235 13.339433397855379, 89.42569151835067 13.62403157175526 M89.42569151835067 13.62403157175526 C89.07031085868725 13.87192973575566, 88.71493019902383 14.11982789975606, 88.53190582057934 14.247497783161286 M89.42569151835067 13.62403157175526 C89.11513840558204 13.840659979595078, 88.80458529281343 14.057288387434893, 88.53190582057934 14.247497783161286 M88.53190582057934 14.247497783161286 C88.20229933029307 14.44730717455556, 87.8726928400068 14.647116565949833, 87.60001088406695 14.81241797009762 M88.53190582057934 14.247497783161286 C88.24927857044423 14.41882808309527, 87.96665132030911 14.590158383029255, 87.60001088406695 14.81241797009762 M87.60001088406695 14.81241797009762 C87.23277302333013 15.004005726816944, 86.8655351625933 15.19559348353627, 86.63383606499849 15.316470754341124 M87.60001088406695 14.81241797009762 C87.31977196074098 14.958618436895177, 87.03953303741503 15.104818903692733, 86.63383606499849 15.316470754341124 M86.63383606499849 15.316470754341124 C86.38152692159187 15.428160527642417, 86.12921777818526 15.53985030094371, 85.63735158294936 15.757584874882367 M86.63383606499849 15.316470754341124 C86.31074763603071 15.459492417767438, 85.98765920706293 15.602514081193751, 85.63735158294936 15.757584874882367 M85.63735158294936 15.757584874882367 C85.37844716629138 15.852864093498699, 85.1195427496334 15.948143312115029, 84.61465220640156 16.133947699181363 M85.63735158294936 15.757584874882367 C85.22902057174832 15.90785446157484, 84.8206895605473 16.05812404826731, 84.61465220640156 16.133947699181363 M84.61465220640156 16.133947699181363 C84.23181759915212 16.247571001073133, 83.8489829919027 16.361194302964904, 83.56994042646164 16.444012671663497 M84.61465220640156 16.133947699181363 C84.23781096732353 16.245792200859697, 83.86096972824548 16.35763670253803, 83.56994042646164 16.444012671663497 M83.56994042646164 16.444012671663497 C83.24028987765044 16.519253258258786, 82.91063932883922 16.594493844854075, 82.50750918792333 16.68650566884811 M83.56994042646164 16.444012671663497 C83.22968519663489 16.521673707498575, 82.88942996680812 16.599334743333653, 82.50750918792333 16.68650566884811 M82.50750918792333 16.68650566884811 C82.08272262327918 16.755181866350767, 81.65793605863502 16.823858063853425, 81.43172424863661 16.86043023499518 M82.50750918792333 16.68650566884811 C82.22316080238278 16.732476910667643, 81.93881241684221 16.778448152487176, 81.43172424863661 16.86043023499518 M81.43172424863661 16.86043023499518 C81.1410209021481 16.888474037209, 80.8503175556596 16.916517839422823, 80.34700623967211 16.965071676755716 M81.43172424863661 16.86043023499518 C81.20751352129737 16.882059574208746, 80.98330279395812 16.903688913422314, 80.34700623967211 16.965071676755716 M80.34700623967211 16.965071676755716 C80.0169290561422 16.97565660957526, 79.68685187261228 16.9862415423948, 79.2578125 17 M80.34700623967211 16.965071676755716 C79.99904475722673 16.9762301242318, 79.65108327478136 16.987388571707886, 79.2578125 17 M79.2578125 17 C79.2578125 17, 79.2578125 17, 79.2578125 17 M79.2578125 17 C79.2578125 17, 79.2578125 17, 79.2578125 17 M79.2578125 17 C31.094954585084373 17, -17.067903329831253 17, -79.2578125 17 M79.2578125 17 C41.30808539207068 17, 3.35835828414136 17, -79.2578125 17 M-79.2578125 17 C-79.5421913381058 16.990880524171775, -79.82657017621159 16.98176104834355, -80.34700623967211 16.965071676755716 M-79.2578125 17 C-79.64532962376666 16.987573080097125, -80.03284674753331 16.975146160194253, -80.34700623967211 16.965071676755716 M-80.34700623967211 16.965071676755716 C-80.65908420192109 16.93496589106622, -80.97116216417005 16.904860105376724, -81.4317242486366 16.86043023499518 M-80.34700623967211 16.965071676755716 C-80.71434618446574 16.929634834072395, -81.08168612925937 16.894197991389074, -81.4317242486366 16.86043023499518 M-81.4317242486366 16.86043023499518 C-81.80837362886922 16.79953648415874, -82.18502300910184 16.7386427333223, -82.50750918792333 16.68650566884811 M-81.4317242486366 16.86043023499518 C-81.81861613297079 16.797880555527403, -82.205508017305 16.735330876059624, -82.50750918792333 16.68650566884811 M-82.50750918792333 16.68650566884811 C-82.87987741681307 16.60151505053381, -83.25224564570281 16.516524432219505, -83.56994042646161 16.4440126716635 M-82.50750918792333 16.68650566884811 C-82.86999692654068 16.603770207962256, -83.23248466515803 16.521034747076403, -83.56994042646161 16.4440126716635 M-83.56994042646161 16.4440126716635 C-83.82039041819628 16.369680428755487, -84.07084040993095 16.29534818584747, -84.61465220640154 16.13394769918137 M-83.56994042646161 16.4440126716635 C-83.88286895751511 16.351137126242204, -84.1957974885686 16.258261580820907, -84.61465220640154 16.13394769918137 M-84.61465220640154 16.13394769918137 C-84.90672413835212 16.02646252834022, -85.19879607030268 15.918977357499067, -85.63735158294936 15.757584874882369 M-84.61465220640154 16.13394769918137 C-84.84169786279341 16.050392798842122, -85.06874351918528 15.966837898502876, -85.63735158294936 15.757584874882369 M-85.63735158294936 15.757584874882369 C-86.01524091295859 15.590304478175979, -86.39313024296781 15.423024081469588, -86.63383606499849 15.316470754341127 M-85.63735158294936 15.757584874882369 C-85.9747925263145 15.608209779084559, -86.31223346967964 15.45883468328675, -86.63383606499849 15.316470754341127 M-86.63383606499849 15.316470754341127 C-86.88397754773617 15.185972103020145, -87.13411903047385 15.055473451699164, -87.60001088406693 14.812417970097624 M-86.63383606499849 15.316470754341127 C-86.93130527461628 15.16128125822165, -87.22877448423407 15.006091762102171, -87.60001088406693 14.812417970097624 M-87.60001088406693 14.812417970097624 C-87.82936868871965 14.673379921061077, -88.05872649337236 14.534341872024532, -88.53190582057931 14.247497783161299 M-87.60001088406693 14.812417970097624 C-87.90033769708364 14.630358091130638, -88.20066451010035 14.448298212163651, -88.53190582057931 14.247497783161299 M-88.53190582057931 14.247497783161299 C-88.74973888423517 14.095546867796314, -88.96757194789103 13.94359595243133, -89.42569151835067 13.624031571755264 M-88.53190582057931 14.247497783161299 C-88.79496587148955 14.063998479332385, -89.05802592239979 13.88049917550347, -89.42569151835067 13.624031571755264 M-89.42569151835067 13.624031571755264 C-89.69238132160015 13.411353550577525, -89.95907112484963 13.198675529399784, -90.2776952202324 12.94458129227529 M-89.42569151835067 13.624031571755264 C-89.62133334424769 13.468012421850029, -89.81697517014472 13.311993271944793, -90.2776952202324 12.94458129227529 M-90.2776952202324 12.94458129227529 C-90.56279410386394 12.685662029464234, -90.84789298749546 12.42674276665318, -91.08441586025926 12.211938951661377 M-90.2776952202324 12.94458129227529 C-90.56272891558902 12.685721231730717, -90.84776261094565 12.426861171186143, -91.08441586025926 12.211938951661377 M-91.08441586025926 12.211938951661377 C-91.25199863918729 12.038895973616155, -91.41958141811531 11.865852995570933, -91.84253845028036 11.429115134442386 M-91.08441586025926 12.211938951661377 C-91.34496066232474 11.942905052402697, -91.60550546439022 11.673871153144017, -91.84253845028036 11.429115134442386 M-91.84253845028036 11.429115134442386 C-91.99052110142202 11.255286291959997, -92.1385037525637 11.081457449477607, -92.54894770195651 10.599326631598473 M-91.84253845028036 11.429115134442386 C-91.99262374019023 11.25281641281933, -92.1427090301001 11.076517691196273, -92.54894770195651 10.599326631598473 M-92.54894770195651 10.599326631598473 C-92.73939041632813 10.344150744028676, -92.92983313069978 10.08897485645888, -93.20074082814824 9.72598322207689 M-92.54894770195651 10.599326631598473 C-92.78025772208689 10.289392277400106, -93.01156774221727 9.979457923201739, -93.20074082814824 9.72598322207689 M-93.20074082814824 9.72598322207689 C-93.4153164761653 9.396337405093416, -93.62989212418235 9.066691588109943, -93.79523947109088 8.812673661278936 M-93.20074082814824 9.72598322207689 C-93.35402592816074 9.490496145645013, -93.50731102817323 9.255009069213136, -93.79523947109088 8.812673661278936 M-93.79523947109088 8.812673661278936 C-93.95299220019935 8.532567716550854, -94.11074492930781 8.252461771822775, -94.330000708341 7.863150934094201 M-93.79523947109088 8.812673661278936 C-93.95578526786198 8.52760834208708, -94.11633106463307 8.242543022895223, -94.330000708341 7.863150934094201 M-94.330000708341 7.863150934094201 C-94.49813140988395 7.514023934919544, -94.6662621114269 7.164896935744887, -94.80282709126881 6.881316833080701 M-94.330000708341 7.863150934094201 C-94.490426030434 7.530024320216093, -94.65085135252698 7.1968977063379835, -94.80282709126881 6.881316833080701 M-94.80282709126881 6.881316833080701 C-94.92840410835866 6.5711391730023205, -95.0539811254485 6.26096151292394, -95.21177567484592 5.87120592516224 M-94.80282709126881 6.881316833080701 C-94.91906759864864 6.594200532495201, -95.03530810602847 6.307084231909699, -95.21177567484592 5.87120592516224 M-95.21177567484592 5.87120592516224 C-95.32536683913021 5.529087436632196, -95.4389580034145 5.186968948102153, -95.55516600162323 4.8369689727275516 M-95.21177567484592 5.87120592516224 C-95.30284293561515 5.596925845322912, -95.39391019638437 5.322645765483584, -95.55516600162323 4.8369689727275516 M-95.55516600162323 4.8369689727275516 C-95.62785098455873 4.5597896309236186, -95.70053596749423 4.282610289119686, -95.831587007091 3.782855877257349 M-95.55516600162323 4.8369689727275516 C-95.64142245941119 4.508035715396804, -95.72767891719914 4.179102458066056, -95.831587007091 3.782855877257349 M-95.831587007091 3.782855877257349 C-95.8879897580484 3.493239671816739, -95.9443925090058 3.203623466376129, -96.03990281804565 2.713198215567455 M-95.831587007091 3.782855877257349 C-95.89451132002335 3.4597528294079747, -95.95743563295571 3.1366497815586, -96.03990281804565 2.713198215567455 M-96.03990281804565 2.713198215567455 C-96.07522257300747 2.43926517075813, -96.11054232796927 2.1653321259488045, -96.17925742013637 1.6323914404306026 M-96.03990281804565 2.713198215567455 C-96.06959307221952 2.482926467198774, -96.09928332639338 2.252654718830092, -96.17925742013637 1.6323914404306026 M-96.17925742013637 1.6323914404306026 C-96.19947819798142 1.3174365035757343, -96.21969897582649 1.0024815667208662, -96.2490781754117 0.54487681871814 M-96.17925742013637 1.6323914404306026 C-96.20705314910978 1.1994505253610939, -96.2348488780832 0.7665096102915849, -96.2490781754117 0.54487681871814 M-96.2490781754117 0.54487681871814 C-96.2490781754117 0.23181427194619142, -96.2490781754117 -0.08124827482575714, -96.2490781754117 -0.5448768187181317 M-96.2490781754117 0.54487681871814 C-96.2490781754117 0.1895423326183142, -96.2490781754117 -0.16579215348151155, -96.2490781754117 -0.5448768187181317 M-96.2490781754117 -0.5448768187181317 C-96.23041135807155 -0.8356275663745629, -96.21174454073142 -1.1263783140309942, -96.17925742013637 -1.6323914404305793 M-96.2490781754117 -0.5448768187181317 C-96.22937423506022 -0.8517815944266821, -96.20967029470874 -1.1586863701352326, -96.17925742013637 -1.6323914404305793 M-96.17925742013637 -1.6323914404305793 C-96.15111503290717 -1.8506582384372547, -96.12297264567798 -2.06892503644393, -96.03990281804565 -2.713198215567447 M-96.17925742013637 -1.6323914404305793 C-96.14419921451376 -1.9042959602137577, -96.10914100889116 -2.176200479996936, -96.03990281804565 -2.713198215567447 M-96.03990281804565 -2.713198215567447 C-95.99523502780451 -2.9425578779148913, -95.95056723756336 -3.171917540262336, -95.831587007091 -3.782855877257341 M-96.03990281804565 -2.713198215567447 C-95.99454196760112 -2.9461165955809174, -95.94918111715661 -3.1790349755943876, -95.831587007091 -3.782855877257341 M-95.831587007091 -3.782855877257341 C-95.7616127208328 -4.049698157807343, -95.69163843457461 -4.316540438357345, -95.55516600162323 -4.836968972727544 M-95.831587007091 -3.782855877257341 C-95.76775546899574 -4.026273196778152, -95.7039239309005 -4.2696905162989625, -95.55516600162323 -4.836968972727544 M-95.55516600162323 -4.836968972727544 C-95.46650338412492 -5.104006650162775, -95.37784076662662 -5.371044327598006, -95.21177567484594 -5.871205925162218 M-95.55516600162323 -4.836968972727544 C-95.46882037609001 -5.097028239526462, -95.3824747505568 -5.35708750632538, -95.21177567484594 -5.871205925162218 M-95.21177567484594 -5.871205925162218 C-95.12647430474749 -6.081901958495177, -95.04117293464904 -6.292597991828135, -94.80282709126881 -6.881316833080692 M-95.21177567484594 -5.871205925162218 C-95.10619436401004 -6.13199380420266, -95.00061305317413 -6.392781683243101, -94.80282709126881 -6.881316833080692 M-94.80282709126881 -6.881316833080692 C-94.6462826177857 -7.206384781783528, -94.48973814430259 -7.531452730486363, -94.330000708341 -7.863150934094194 M-94.80282709126881 -6.881316833080692 C-94.70450555469594 -7.085483607518113, -94.60618401812309 -7.289650381955535, -94.330000708341 -7.863150934094194 M-94.330000708341 -7.863150934094194 C-94.15479935245929 -8.174238682523235, -93.97959799657757 -8.485326430952277, -93.79523947109088 -8.812673661278929 M-94.330000708341 -7.863150934094194 C-94.12499069854825 -8.227166965995808, -93.91998068875549 -8.591182997897423, -93.79523947109088 -8.812673661278929 M-93.79523947109088 -8.812673661278929 C-93.63251843388399 -9.062656871145325, -93.4697973966771 -9.312640081011722, -93.20074082814826 -9.725983222076884 M-93.79523947109088 -8.812673661278929 C-93.58096516791683 -9.141856531661146, -93.36669086474276 -9.471039402043363, -93.20074082814826 -9.725983222076884 M-93.20074082814826 -9.725983222076884 C-93.00359035454186 -9.99014689593183, -92.80643988093544 -10.254310569786774, -92.54894770195651 -10.599326631598467 M-93.20074082814826 -9.725983222076884 C-92.96509497833169 -10.041727193052521, -92.72944912851513 -10.357471164028157, -92.54894770195651 -10.599326631598467 M-92.54894770195651 -10.599326631598467 C-92.36973252151888 -10.80984298017315, -92.19051734108128 -11.020359328747832, -91.84253845028037 -11.42911513444238 M-92.54894770195651 -10.599326631598467 C-92.34840926073737 -10.834890495615028, -92.14787081951825 -11.070454359631587, -91.84253845028037 -11.42911513444238 M-91.84253845028037 -11.42911513444238 C-91.5747219262579 -11.70565768364113, -91.30690540223542 -11.982200232839878, -91.08441586025927 -12.21193895166136 M-91.84253845028037 -11.42911513444238 C-91.5459923398454 -11.735323340354947, -91.24944622941042 -12.041531546267514, -91.08441586025927 -12.21193895166136 M-91.08441586025927 -12.21193895166136 C-90.77310580200285 -12.494662509757076, -90.4617957437464 -12.77738606785279, -90.27769522023242 -12.944581292275274 M-91.08441586025927 -12.21193895166136 C-90.8095368286693 -12.461576815250751, -90.5346577970793 -12.711214678840143, -90.27769522023242 -12.944581292275274 M-90.27769522023242 -12.944581292275274 C-90.06740440320885 -13.1122826227779, -89.85711358618529 -13.279983953280526, -89.42569151835067 -13.624031571755259 M-90.27769522023242 -12.944581292275274 C-90.01008622896259 -13.157992341438625, -89.74247723769277 -13.371403390601975, -89.42569151835067 -13.624031571755259 M-89.42569151835067 -13.624031571755259 C-89.1089263537173 -13.844993238060535, -88.79216118908391 -14.065954904365812, -88.53190582057934 -14.247497783161284 M-89.42569151835067 -13.624031571755259 C-89.13869591678184 -13.824227279570323, -88.85170031521301 -14.024422987385387, -88.53190582057934 -14.247497783161284 M-88.53190582057934 -14.247497783161284 C-88.23469125474521 -14.427670999596591, -87.93747668891109 -14.607844216031896, -87.60001088406695 -14.812417970097618 M-88.53190582057934 -14.247497783161284 C-88.30542093142125 -14.384794253941863, -88.07893604226317 -14.522090724722442, -87.60001088406695 -14.812417970097618 M-87.60001088406695 -14.812417970097618 C-87.28967417648812 -14.974320431661344, -86.97933746890929 -15.136222893225067, -86.63383606499849 -15.316470754341124 M-87.60001088406695 -14.812417970097618 C-87.24360701070435 -14.998353642543309, -86.88720313734176 -15.184289314989, -86.63383606499849 -15.316470754341124 M-86.63383606499849 -15.316470754341124 C-86.34217341100829 -15.445581159397355, -86.05051075701809 -15.574691564453586, -85.63735158294936 -15.757584874882365 M-86.63383606499849 -15.316470754341124 C-86.34726056771952 -15.443329226026435, -86.06068507044054 -15.570187697711749, -85.63735158294936 -15.757584874882365 M-85.63735158294936 -15.757584874882365 C-85.22911050030841 -15.907821367033435, -84.82086941766747 -16.058057859184505, -84.61465220640156 -16.133947699181363 M-85.63735158294936 -15.757584874882365 C-85.39767716239587 -15.845787277172109, -85.15800274184237 -15.933989679461853, -84.61465220640156 -16.133947699181363 M-84.61465220640156 -16.133947699181363 C-84.33964173519145 -16.215569363477105, -84.06463126398133 -16.297191027772843, -83.56994042646164 -16.444012671663494 M-84.61465220640156 -16.133947699181363 C-84.28733273214921 -16.23109440100448, -83.96001325789685 -16.328241102827597, -83.56994042646164 -16.444012671663494 M-83.56994042646164 -16.444012671663494 C-83.24064591573998 -16.519171994888215, -82.9113514050183 -16.594331318112932, -82.50750918792333 -16.68650566884811 M-83.56994042646164 -16.444012671663494 C-83.21179510903949 -16.52575700324849, -82.85364979161734 -16.607501334833486, -82.50750918792333 -16.68650566884811 M-82.50750918792333 -16.68650566884811 C-82.1490166265072 -16.744463966026533, -81.79052406509108 -16.80242226320496, -81.43172424863661 -16.86043023499518 M-82.50750918792333 -16.68650566884811 C-82.14739528897293 -16.744726091305417, -81.78728139002253 -16.80294651376272, -81.43172424863661 -16.86043023499518 M-81.43172424863661 -16.86043023499518 C-81.00949190769776 -16.901162481116867, -80.58725956675893 -16.94189472723855, -80.34700623967213 -16.965071676755716 M-81.43172424863661 -16.86043023499518 C-81.21031378307522 -16.881789436322844, -80.98890331751383 -16.90314863765051, -80.34700623967213 -16.965071676755716 M-80.34700623967213 -16.965071676755716 C-79.94119213567234 -16.978085345201755, -79.53537803167255 -16.991099013647794, -79.2578125 -17 M-80.34700623967213 -16.965071676755716 C-79.97920273585952 -16.976866419236895, -79.61139923204692 -16.988661161718078, -79.2578125 -17 M-79.2578125 -17 C-79.2578125 -17, -79.2578125 -17, -79.2578125 -17 M-79.2578125 -17 C-79.2578125 -17, -79.2578125 -17, -79.2578125 -17" stroke="#9370DB" stroke-width="1.3" fill="none" stroke-dasharray="0 0" style=""></path></g><g class="label" style="" transform="translate(0, -9.5)"><rect></rect><g><rect class="background" style="stroke: none"></rect><text y="-10.1" style=""><tspan class="text-outer-tspan row" x="0" y="-0.1em" dy="1.1em"><tspan font-style="normal" class="text-inner-tspan" font-weight="normal">Project</tspan><tspan font-style="normal" class="text-inner-tspan" font-weight="normal"> or</tspan><tspan font-style="normal" class="text-inner-tspan" font-weight="normal"> existing</tspan><tspan font-style="normal" class="text-inner-tspan" font-weight="normal"> repo</tspan></tspan></text></g></g></g><g class="node default" id="g878879ad-90ec-42ad-b54e-4007473491bd-light-flowchart-init-1" data-look="classic" transform="translate(203.07421875, 134.0999984741211)"><rect class="basic label-container" style="" x="-122.1640625" y="-42.099998474121094" width="244.328125" height="84.19999694824219"></rect><g class="label" style="" transform="translate(0, -27.099998474121094)"><rect></rect><g><rect class="background" style="stroke: none"></rect><text y="-10.1" style=""><tspan class="text-outer-tspan row" x="0" y="-0.1em" dy="1.1em"><tspan font-style="normal" class="text-inner-tspan" font-weight="normal">pagesmith-docs</tspan><tspan font-style="normal" class="text-inner-tspan" font-weight="normal"> init</tspan></tspan><tspan class="text-outer-tspan row" x="0" y="1em" dy="1.1em"><tspan font-style="normal" class="text-inner-tspan" font-weight="normal">Scaffold</tspan><tspan font-style="normal" class="text-inner-tspan" font-weight="normal"> or</tspan><tspan font-style="normal" class="text-inner-tspan" font-weight="normal"> backfill</tspan><tspan font-style="normal" class="text-inner-tspan" font-weight="normal"> config</tspan></tspan><tspan class="text-outer-tspan row" x="0" y="2.1em" dy="1.1em"><tspan font-style="normal" class="text-inner-tspan" font-weight="normal">and</tspan><tspan font-style="normal" class="text-inner-tspan" font-weight="normal"> starter</tspan><tspan font-style="normal" class="text-inner-tspan" font-weight="normal"> docs</tspan></tspan></text></g></g></g><g class="node default" id="g878879ad-90ec-42ad-b54e-4007473491bd-light-flowchart-dev-2" data-look="classic" transform="translate(124.4921875, 291.2999954223633)"><rect class="basic label-container" style="" x="-115.5" y="-33.29999923706055" width="231" height="66.5999984741211"></rect><g class="label" style="" transform="translate(0, -18.299999237060547)"><rect></rect><g><rect class="background" style="stroke: none"></rect><text y="-10.1" style=""><tspan class="text-outer-tspan row" x="0" y="-0.1em" dy="1.1em"><tspan font-style="normal" class="text-inner-tspan" font-weight="normal">pagesmith-docs</tspan><tspan font-style="normal" class="text-inner-tspan" font-weight="normal"> dev</tspan></tspan><tspan class="text-outer-tspan row" x="0" y="1em" dy="1.1em"><tspan font-style="normal" class="text-inner-tspan" font-weight="normal">Live-reload</tspan><tspan font-style="normal" class="text-inner-tspan" font-weight="normal"> editing</tspan><tspan font-style="normal" class="text-inner-tspan" font-weight="normal"> loop</tspan></tspan></text></g></g></g><g class="node default" id="g878879ad-90ec-42ad-b54e-4007473491bd-light-flowchart-build-3" data-look="classic" transform="translate(124.4921875, 425.49999237060547)"><rect class="basic label-container" style="" x="-113.9765625" y="-42.099998474121094" width="227.953125" height="84.19999694824219"></rect><g class="label" style="" transform="translate(0, -27.099998474121094)"><rect></rect><g><rect class="background" style="stroke: none"></rect><text y="-10.1" style=""><tspan class="text-outer-tspan row" x="0" y="-0.1em" dy="1.1em"><tspan font-style="normal" class="text-inner-tspan" font-weight="normal">pagesmith-docs</tspan><tspan font-style="normal" class="text-inner-tspan" font-weight="normal"> build</tspan></tspan><tspan class="text-outer-tspan row" x="0" y="1em" dy="1.1em"><tspan font-style="normal" class="text-inner-tspan" font-weight="normal">Static</tspan><tspan font-style="normal" class="text-inner-tspan" font-weight="normal"> output</tspan><tspan font-style="normal" class="text-inner-tspan" font-weight="normal"> +</tspan><tspan font-style="normal" class="text-inner-tspan" font-weight="normal"> assets</tspan><tspan font-style="normal" class="text-inner-tspan" font-weight="normal"> +</tspan></tspan><tspan class="text-outer-tspan row" x="0" y="2.1em" dy="1.1em"><tspan font-style="normal" class="text-inner-tspan" font-weight="normal">Pagefind</tspan></tspan></text></g></g></g><g class="node default" id="g878879ad-90ec-42ad-b54e-4007473491bd-light-flowchart-preview-4" data-look="classic" transform="translate(124.4921875, 559.6999893188477)"><rect class="basic label-container" style="" x="-116.4921875" y="-42.099998474121094" width="232.984375" height="84.19999694824219"></rect><g class="label" style="" transform="translate(0, -27.099998474121094)"><rect></rect><g><rect class="background" style="stroke: none"></rect><text y="-10.1" style=""><tspan class="text-outer-tspan row" x="0" y="-0.1em" dy="1.1em"><tspan font-style="normal" class="text-inner-tspan" font-weight="normal">pagesmith-docs</tspan><tspan font-style="normal" class="text-inner-tspan" font-weight="normal"> preview</tspan></tspan><tspan class="text-outer-tspan row" x="0" y="1em" dy="1.1em"><tspan font-style="normal" class="text-inner-tspan" font-weight="normal">Serve</tspan><tspan font-style="normal" class="text-inner-tspan" font-weight="normal"> built</tspan><tspan font-style="normal" class="text-inner-tspan" font-weight="normal"> output</tspan><tspan font-style="normal" class="text-inner-tspan" font-weight="normal"> from</tspan></tspan><tspan class="text-outer-tspan row" x="0" y="2.1em" dy="1.1em"><tspan font-style="normal" class="text-inner-tspan" font-weight="normal">disk</tspan></tspan></text></g></g></g><g class="node default" id="g878879ad-90ec-42ad-b54e-4007473491bd-light-flowchart-mcp-5" data-look="classic" transform="translate(516.66015625, 291.2999954223633)"><rect class="basic label-container" style="" x="-128.828125" y="-42.099998474121094" width="257.65625" height="84.19999694824219"></rect><g class="label" style="" transform="translate(0, -27.099998474121094)"><rect></rect><g><rect class="background" style="stroke: none"></rect><text y="-10.1" style=""><tspan class="text-outer-tspan row" x="0" y="-0.1em" dy="1.1em"><tspan font-style="normal" class="text-inner-tspan" font-weight="normal">pagesmith-docs</tspan><tspan font-style="normal" class="text-inner-tspan" font-weight="normal"> mcp</tspan><tspan font-style="normal" class="text-inner-tspan" font-weight="normal"> --stdio</tspan></tspan><tspan class="text-outer-tspan row" x="0" y="1em" dy="1.1em"><tspan font-style="normal" class="text-inner-tspan" font-weight="normal">Expose</tspan><tspan font-style="normal" class="text-inner-tspan" font-weight="normal"> docs-aware</tspan><tspan font-style="normal" class="text-inner-tspan" font-weight="normal"> MCP</tspan></tspan><tspan class="text-outer-tspan row" x="0" y="2.1em" dy="1.1em"><tspan font-style="normal" class="text-inner-tspan" font-weight="normal">tools</tspan></tspan></text></g></g></g></g></g></g><defs><filter id="g878879ad-90ec-42ad-b54e-4007473491bd-light-drop-shadow" height="130%" width="130%"><feDropShadow dx="4" dy="4" stdDeviation="0" flood-opacity="0.06" flood-color="#000000"></feDropShadow></filter></defs><defs><filter id="g878879ad-90ec-42ad-b54e-4007473491bd-light-drop-shadow-small" height="150%" width="150%"><feDropShadow dx="2" dy="2" stdDeviation="0" flood-opacity="0.06" flood-color="#000000"></feDropShadow></filter></defs></svg>