<svg xmlns="http://www.w3.org/2000/svg" id="gddc7e719-aba6-48e4-abf9-461ca478d1a5-light" width="100%" aria-roledescription="flowchart-v2" class="flowchart" role="graphics-document document" style="max-width:653.48828125px" viewBox="0 0 653.488 609.8"><style>#gddc7e719-aba6-48e4-abf9-461ca478d1a5-light{fill:#333}#gddc7e719-aba6-48e4-abf9-461ca478d1a5-light .edge-thickness-normal{stroke-width:1px}#gddc7e719-aba6-48e4-abf9-461ca478d1a5-light .edge-pattern-solid{stroke-dasharray:0}#gddc7e719-aba6-48e4-abf9-461ca478d1a5-light .edge-pattern-dotted{stroke-dasharray:2}#gddc7e719-aba6-48e4-abf9-461ca478d1a5-light .marker{fill:#333;stroke:#333}#gddc7e719-aba6-48e4-abf9-461ca478d1a5-light .marker.cross{stroke:#333}#gddc7e719-aba6-48e4-abf9-461ca478d1a5-light,#gddc7e719-aba6-48e4-abf9-461ca478d1a5-light svg{font-family:&quot;trebuchet ms&quot;,verdana,arial,sans-serif;font-size:16px}#gddc7e719-aba6-48e4-abf9-461ca478d1a5-light .label{font-family:&quot;trebuchet ms&quot;,verdana,arial,sans-serif;color:#333}#gddc7e719-aba6-48e4-abf9-461ca478d1a5-light .label text,#gddc7e719-aba6-48e4-abf9-461ca478d1a5-light span{fill:#333;color:#333}#gddc7e719-aba6-48e4-abf9-461ca478d1a5-light .node circle,#gddc7e719-aba6-48e4-abf9-461ca478d1a5-light .node ellipse,#gddc7e719-aba6-48e4-abf9-461ca478d1a5-light .node path,#gddc7e719-aba6-48e4-abf9-461ca478d1a5-light .node polygon,#gddc7e719-aba6-48e4-abf9-461ca478d1a5-light .node rect{fill:#ececff;stroke:#9370db;stroke-width:1px}#gddc7e719-aba6-48e4-abf9-461ca478d1a5-light .icon-shape .label,#gddc7e719-aba6-48e4-abf9-461ca478d1a5-light .image-shape .label,#gddc7e719-aba6-48e4-abf9-461ca478d1a5-light .node .label text,#gddc7e719-aba6-48e4-abf9-461ca478d1a5-light .rough-node .label text{text-anchor:middle}#gddc7e719-aba6-48e4-abf9-461ca478d1a5-light .icon-shape .label,#gddc7e719-aba6-48e4-abf9-461ca478d1a5-light .image-shape .label,#gddc7e719-aba6-48e4-abf9-461ca478d1a5-light .node .label,#gddc7e719-aba6-48e4-abf9-461ca478d1a5-light .rough-node .label{text-align:center}#gddc7e719-aba6-48e4-abf9-461ca478d1a5-light .flowchart-link{stroke:#333;fill:none}#gddc7e719-aba6-48e4-abf9-461ca478d1a5-light .edgeLabel{background-color:rgba(232,232,232,.8);text-align:center}#gddc7e719-aba6-48e4-abf9-461ca478d1a5-light .edgeLabel rect{opacity:.5;background-color:rgba(232,232,232,.8);fill:rgba(232,232,232,.8)}#gddc7e719-aba6-48e4-abf9-461ca478d1a5-light [data-look=neo].cluster rect,#gddc7e719-aba6-48e4-abf9-461ca478d1a5-light [data-look=neo].node circle,#gddc7e719-aba6-48e4-abf9-461ca478d1a5-light [data-look=neo].node polygon,#gddc7e719-aba6-48e4-abf9-461ca478d1a5-light [data-look=neo].node rect{stroke:#9370db;filter:drop-shadow(1px 2px 2px #b9b9b9)}#gddc7e719-aba6-48e4-abf9-461ca478d1a5-light [data-look=neo].swimlane.cluster rect{filter:none}#gddc7e719-aba6-48e4-abf9-461ca478d1a5-light [data-look=neo].node path{stroke:#9370db;stroke-width:1px}#gddc7e719-aba6-48e4-abf9-461ca478d1a5-light [data-look=neo].node .outer-path{filter:drop-shadow(1px 2px 2px #b9b9b9)}#gddc7e719-aba6-48e4-abf9-461ca478d1a5-light [data-look=neo].node .neo-line path{stroke:#9370db;filter:none}#gddc7e719-aba6-48e4-abf9-461ca478d1a5-light [data-look=neo].node circle .state-start{fill:#000}#gddc7e719-aba6-48e4-abf9-461ca478d1a5-light [data-look=neo].icon-shape .icon{fill:#9370db;filter:drop-shadow(1px 2px 2px #b9b9b9)}#gddc7e719-aba6-48e4-abf9-461ca478d1a5-light [data-look=neo].icon-shape .icon-neo path{stroke:#9370db;filter:drop-shadow(1px 2px 2px #b9b9b9)}#gddc7e719-aba6-48e4-abf9-461ca478d1a5-light .edgeLabel .background{fill:#fff}#gddc7e719-aba6-48e4-abf9-461ca478d1a5-light :root{--mermaid-font-family:&quot;trebuchet ms&quot;,verdana,arial,sans-serif}</style><marker id="gddc7e719-aba6-48e4-abf9-461ca478d1a5-light_flowchart-v2-pointEnd" class="marker flowchart-v2" markerHeight="8" markerUnits="userSpaceOnUse" markerWidth="8" orient="auto" refX="5" refY="5" viewBox="0 0 10 10"><path d="m0 0 10 5-10 5z" class="arrowMarkerPath" style="stroke-width:1;stroke-dasharray:1,0"/></marker><marker id="gddc7e719-aba6-48e4-abf9-461ca478d1a5-light_flowchart-v2-pointStart" class="marker flowchart-v2" markerHeight="8" markerUnits="userSpaceOnUse" markerWidth="8" orient="auto" refX="4.5" refY="5" viewBox="0 0 10 10"><path d="m0 5 10 5V0z" class="arrowMarkerPath" style="stroke-width:1;stroke-dasharray:1,0"/></marker><marker id="gddc7e719-aba6-48e4-abf9-461ca478d1a5-light_flowchart-v2-pointEnd-margin" class="marker flowchart-v2" markerHeight="14" markerUnits="userSpaceOnUse" markerWidth="10.5" orient="auto" refX="11.5" refY="7" viewBox="0 0 11.5 14"><path d="m0 0 11.5 7L0 14z" class="arrowMarkerPath" style="stroke-width:0;stroke-dasharray:1,0"/></marker><marker id="gddc7e719-aba6-48e4-abf9-461ca478d1a5-light_flowchart-v2-pointStart-margin" class="marker flowchart-v2" markerHeight="14" markerUnits="userSpaceOnUse" markerWidth="11.5" orient="auto" refX="1" refY="7" viewBox="0 0 11.5 14"><path d="m0 7 11.5 7V0z" class="arrowMarkerPath" style="stroke-width:0;stroke-dasharray:1,0"/></marker><marker id="gddc7e719-aba6-48e4-abf9-461ca478d1a5-light_flowchart-v2-circleEnd" class="marker flowchart-v2" markerHeight="11" markerUnits="userSpaceOnUse" markerWidth="11" orient="auto" refX="11" refY="5" viewBox="0 0 10 10"><circle cx="5" cy="5" r="5" class="arrowMarkerPath" style="stroke-width:1;stroke-dasharray:1,0"/></marker><marker id="gddc7e719-aba6-48e4-abf9-461ca478d1a5-light_flowchart-v2-circleStart" class="marker flowchart-v2" markerHeight="11" markerUnits="userSpaceOnUse" markerWidth="11" orient="auto" refX="-1" refY="5" viewBox="0 0 10 10"><circle cx="5" cy="5" r="5" class="arrowMarkerPath" style="stroke-width:1;stroke-dasharray:1,0"/></marker><marker id="gddc7e719-aba6-48e4-abf9-461ca478d1a5-light_flowchart-v2-circleEnd-margin" class="marker flowchart-v2" markerHeight="14" markerUnits="userSpaceOnUse" markerWidth="14" orient="auto" refX="12.25" refY="5" viewBox="0 0 10 10"><circle cx="5" cy="5" r="5" class="arrowMarkerPath" style="stroke-width:0;stroke-dasharray:1,0"/></marker><marker id="gddc7e719-aba6-48e4-abf9-461ca478d1a5-light_flowchart-v2-circleStart-margin" class="marker flowchart-v2" markerHeight="14" markerUnits="userSpaceOnUse" markerWidth="14" orient="auto" refX="-2" refY="5" viewBox="0 0 10 10"><circle cx="5" cy="5" r="5" class="arrowMarkerPath" style="stroke-width:0;stroke-dasharray:1,0"/></marker><marker id="gddc7e719-aba6-48e4-abf9-461ca478d1a5-light_flowchart-v2-crossEnd" class="marker cross flowchart-v2" markerHeight="11" markerUnits="userSpaceOnUse" markerWidth="11" orient="auto" refX="12" refY="5.2" viewBox="0 0 11 11"><path d="m1 1 9 9m0-9-9 9" class="arrowMarkerPath" style="stroke-width:2;stroke-dasharray:1,0"/></marker><marker id="gddc7e719-aba6-48e4-abf9-461ca478d1a5-light_flowchart-v2-crossStart" class="marker cross flowchart-v2" markerHeight="11" markerUnits="userSpaceOnUse" markerWidth="11" orient="auto" refX="-1" refY="5.2" viewBox="0 0 11 11"><path d="m1 1 9 9m0-9-9 9" class="arrowMarkerPath" style="stroke-width:2;stroke-dasharray:1,0"/></marker><marker id="gddc7e719-aba6-48e4-abf9-461ca478d1a5-light_flowchart-v2-crossEnd-margin" class="marker cross flowchart-v2" markerHeight="12" markerUnits="userSpaceOnUse" markerWidth="12" orient="auto" refX="17.7" refY="7.5" viewBox="0 0 15 15"><path d="m1 1 13 13M1 14 14 1" class="arrowMarkerPath" style="stroke-width:2.5"/></marker><marker id="gddc7e719-aba6-48e4-abf9-461ca478d1a5-light_flowchart-v2-crossStart-margin" class="marker cross flowchart-v2" markerHeight="12" markerUnits="userSpaceOnUse" markerWidth="12" orient="auto" refX="-3.5" refY="7.5" viewBox="0 0 15 15"><path d="m1 1 13 13M1 14 14 1" class="arrowMarkerPath" style="stroke-width:2.5;stroke-dasharray:1,0"/></marker><g class="root"><g class="edgePaths"><path id="gddc7e719-aba6-48e4-abf9-461ca478d1a5-light-L_start_init_0" marker-end="url(#gddc7e719-aba6-48e4-abf9-461ca478d1a5-light_flowchart-v2-pointEnd)" d="m203.574 42.5-.083 4.083c-.083 4.084-.25 12.25-.333 19.834S203.074 81 203.074 84.5V88" class="edge-thickness-normal edge-pattern-solid edge-thickness-normal edge-pattern-solid flowchart-link" data-edge="true" data-et="edge" data-id="L_start_init_0" data-look="classic" data-points="W3sieCI6MjAzLjU3NDIxODc1LCJ5Ijo0Mi41fSx7IngiOjIwMy4wNzQyMTg3NSwieSI6Njd9LHsieCI6MjAzLjA3NDIxODc1LCJ5Ijo5Mn1d"/><path id="gddc7e719-aba6-48e4-abf9-461ca478d1a5-light-L_start_dev_0" marker-end="url(#gddc7e719-aba6-48e4-abf9-461ca478d1a5-light_flowchart-v2-pointEnd)" d="m139.96 42.5-15.675 4.083c-15.675 4.084-47.025 12.25-62.7 27.517S45.91 111.733 45.91 136.017s0 50.483 7.077 70.662c7.077 20.178 21.231 34.335 28.308 41.414l7.077 7.078" class="edge-thickness-normal edge-pattern-solid edge-thickness-normal edge-pattern-solid flowchart-link" data-edge="true" data-et="edge" data-id="L_start_dev_0" data-look="classic" data-points="W3sieCI6MTM5Ljk2MDE5MzQ1MjM4MDk2LCJ5Ijo0Mi41fSx7IngiOjQ1LjkxMDE1NjI1LCJ5Ijo2N30seyJ4Ijo0NS45MTAxNTYyNSwieSI6MTM0LjA5OTk5ODQ3NDEyMTF9LHsieCI6NDUuOTEwMTU2MjUsInkiOjIxMi42OTk5OTY5NDgyNDIyfSx7IngiOjkxLjE5OTgwMDMzMTE0NzM0LCJ5IjoyNTcuOTk5OTk2MTg1MzAyNzN9XQ=="/><path id="gddc7e719-aba6-48e4-abf9-461ca478d1a5-light-L_init_dev_0" marker-end="url(#gddc7e719-aba6-48e4-abf9-461ca478d1a5-light_flowchart-v2-pointEnd)" d="M203.074 176.2v6.083c0 6.084 0 18.25-7.077 31.412s-21.23 27.319-28.307 34.398l-7.077 7.078" class="edge-thickness-normal edge-pattern-solid edge-thickness-normal edge-pattern-solid flowchart-link" data-edge="true" data-et="edge" data-id="L_init_dev_0" data-look="classic" data-points="W3sieCI6MjAzLjA3NDIxODc1LCJ5IjoxNzYuMTk5OTk2OTQ4MjQyMn0seyJ4IjoyMDMuMDc0MjE4NzUsInkiOjIxMi42OTk5OTY5NDgyNDIyfSx7IngiOjE1Ny43ODQ1NzQ2Njg4NTI2NiwieSI6MjU3Ljk5OTk5NjE4NTMwMjczfV0="/><path id="gddc7e719-aba6-48e4-abf9-461ca478d1a5-light-L_dev_build_0" marker-end="url(#gddc7e719-aba6-48e4-abf9-461ca478d1a5-light_flowchart-v2-pointEnd)" d="M124.492 324.6v54.8" class="edge-thickness-normal edge-pattern-solid edge-thickness-normal edge-pattern-solid flowchart-link" data-edge="true" data-et="edge" data-id="L_dev_build_0" data-look="classic" data-points="W3sieCI6MTI0LjQ5MjE4NzUsInkiOjMyNC41OTk5OTQ2NTk0MjM4fSx7IngiOjEyNC40OTIxODc1LCJ5IjozNTguMzk5OTkzODk2NDg0NH0seyJ4IjoxMjQuNDkyMTg3NSwieSI6MzgzLjM5OTk5Mzg5NjQ4NDR9XQ=="/><path id="gddc7e719-aba6-48e4-abf9-461ca478d1a5-light-L_build_preview_0" marker-end="url(#gddc7e719-aba6-48e4-abf9-461ca478d1a5-light_flowchart-v2-pointEnd)" d="M124.492 467.6v46" class="edge-thickness-normal edge-pattern-solid edge-thickness-normal edge-pattern-solid flowchart-link" data-edge="true" data-et="edge" data-id="L_build_preview_0" data-look="classic" data-points="W3sieCI6MTI0LjQ5MjE4NzUsInkiOjQ2Ny41OTk5OTA4NDQ3MjY1Nn0seyJ4IjoxMjQuNDkyMTg3NSwieSI6NDkyLjU5OTk5MDg0NDcyNjU2fSx7IngiOjEyNC40OTIxODc1LCJ5Ijo1MTcuNTk5OTkwODQ0NzI2Nn1d"/><path id="gddc7e719-aba6-48e4-abf9-461ca478d1a5-light-L_start_mcp_0" marker-end="url(#gddc7e719-aba6-48e4-abf9-461ca478d1a5-light_flowchart-v2-pointEnd)" d="m291.499 40.116 27.373 4.48c27.373 4.481 82.12 13.443 109.493 29.107s27.373 38.03 27.373 62.314 0 50.483 4.307 69.139c4.307 18.657 12.92 29.77 17.227 35.326l4.307 5.556" class="edge-thickness-normal edge-pattern-dotted edge-thickness-normal edge-pattern-solid flowchart-link" data-edge="true" data-et="edge" data-id="L_start_mcp_0" data-look="classic" data-points="W3sieCI6MjkxLjQ5ODkwMzUyMTg2ODQ0LCJ5Ijo0MC4xMTU1OTk1NTg4NzQ2NH0seyJ4Ijo0NTUuNzM4MjgxMjUsInkiOjY3fSx7IngiOjQ1NS43MzgyODEyNSwieSI6MTM0LjA5OTk5ODQ3NDEyMTF9LHsieCI6NDU1LjczODI4MTI1LCJ5IjoyMTIuNjk5OTk2OTQ4MjQyMn0seyJ4Ijo0ODQuMDI4OTc0Mzg4MjcxOSwieSI6MjQ5LjE5OTk5Njk0ODI0MjJ9XQ=="/><path id="gddc7e719-aba6-48e4-abf9-461ca478d1a5-light-L_init_mcp_0" marker-end="url(#gddc7e719-aba6-48e4-abf9-461ca478d1a5-light_flowchart-v2-pointEnd)" d="m325.238 159.739 42.058 8.827c42.057 8.827 126.171 26.48 163.922 40.864s29.137 25.496 24.831 31.052l-4.307 5.556" class="edge-thickness-normal edge-pattern-dotted edge-thickness-normal edge-pattern-solid flowchart-link" data-edge="true" data-et="edge" data-id="L_init_mcp_0" data-look="classic" data-points="W3sieCI6MzI1LjIzODI4MTI1LCJ5IjoxNTkuNzM5MjM2OTc3NTcwMDJ9LHsieCI6NTc3LjU4MjAzMTI1LCJ5IjoyMTIuNjk5OTk2OTQ4MjQyMn0seyJ4Ijo1NDkuMjkxMzM4MTExNzI4MSwieSI6MjQ5LjE5OTk5Njk0ODI0MjJ9XQ=="/></g><g class="edgeLabels"><g class="edgeLabel"><text y="-10.1" class="label" data-id="L_start_init_0" text-anchor="middle"/></g><rect class="background" style="stroke:none"/><g class="edgeLabel"><text y="-10.1" class="label" data-id="L_start_dev_0" text-anchor="middle"/></g><rect class="background" style="stroke:none"/><g class="edgeLabel"><text y="-10.1" class="label" data-id="L_init_dev_0" text-anchor="middle"/></g><rect class="background" style="stroke:none"/><g class="edgeLabel"><text y="-10.1" class="label" data-id="L_dev_build_0" text-anchor="middle"/></g><rect class="background" style="stroke:none"/><g class="edgeLabel"><text y="-10.1" class="label" data-id="L_build_preview_0" text-anchor="middle"/></g><rect class="background" style="stroke:none"/><g class="edgeLabel"><g class="label" data-id="L_start_mcp_0"><path d="M360.238 122.6h191v23h-191z" class="background"/><text y="-10.1" text-anchor="middle" transform="translate(455.738 123.6)"><tspan x="0" y="-.1em" class="text-outer-tspan row" dy="1.1em" text-anchor="middle"><tspan class="text-inner-tspan" font-style="normal" font-weight="normal">assistant</tspan><tspan class="text-inner-tspan" font-style="normal" font-weight="normal"> or</tspan><tspan class="text-inner-tspan" font-style="normal" font-weight="normal"> tooling</tspan><tspan class="text-inner-tspan" font-style="normal" font-weight="normal"> access</tspan></tspan></text></g></g><g class="edgeLabel"><g class="label" data-id="L_init_mcp_0"><path d="M372.164 179.462h203.688v23H372.164z" class="background"/><text y="-10.1" text-anchor="middle" transform="translate(474.008 180.462)"><tspan x="0" y="-.1em" class="text-outer-tspan row" dy="1.1em" text-anchor="middle"><tspan class="text-inner-tspan" font-style="normal" font-weight="normal">project</tspan><tspan class="text-inner-tspan" font-style="normal" font-weight="normal"> metadata</tspan><tspan class="text-inner-tspan" font-style="normal" font-weight="normal"> +</tspan><tspan class="text-inner-tspan" font-style="normal" font-weight="normal"> content</tspan></tspan></text></g></g></g><g class="nodes"><g id="gddc7e719-aba6-48e4-abf9-461ca478d1a5-light-flowchart-start-0" class="node default" data-look="classic"><g class="basic label-container outer-path"><path fill="#ececff" stroke="none" stroke-width="0" d="M123.816 8h158.516l1.09.035 1.084.105 1.076.173 1.062.243 1.045.31 1.023.376.996.442.966.504.932.565.894.623.852.68.807.732.758.783.706.83.652.873.594.913.535.95.473.982.409 1.01.343 1.034.277 1.054.208 1.07.14 1.08c.021.342.043.683.07 1.088v1.09l-.07 1.087-.14 1.081-.208 1.07-.277 1.054-.343 1.034-.409 1.01-.473.982-.535.95-.594.913-.652.873-.706.83-.758.783-.807.733-.852.679-.894.623c-.303.185-.607.369-.932.565l-.966.504-.996.442-1.023.376-1.045.31-1.062.243-1.076.173-1.085.105-1.089.035H123.816l-1.089-.035-1.085-.105-1.075-.173-1.063-.243-1.044-.31-1.023-.376-.997-.442-.966-.504-.932-.565-.893-.623-.852-.68-.807-.732-.758-.783-.707-.83-.652-.873-.594-.913-.535-.95-.473-.982-.409-1.01-.343-1.034-.276-1.054-.209-1.07-.139-1.08-.07-1.088v-1.09l.07-1.087.14-1.081.208-1.07.276-1.054.343-1.034.41-1.01.472-.982.535-.95.594-.913.652-.873.707-.83.758-.783.807-.733.852-.679.893-.623.932-.565.966-.504.997-.442 1.023-.376 1.044-.31 1.063-.243 1.075-.173 1.085-.105 1.09-.035"/><path fill="none" stroke="#9370db" stroke-dasharray="0 0" stroke-width="1.3" d="M123.816 8h158.516M123.816 8h158.516m0 0 1.09.035M282.331 8l1.09.035m0 0 1.084.105m-1.085-.105 1.085.105m0 0 1.076.173m-1.076-.173 1.076.173m0 0 1.062.243m-1.062-.243 1.062.243m0 0 1.045.31m-1.045-.31 1.045.31m0 0c.296.11.593.218 1.023.376m-1.023-.376 1.023.376m0 0 .996.442m-.996-.442.996.442m0 0 .966.504m-.966-.504c.235.122.47.244.966.504m0 0 .932.565m-.932-.565.932.565m0 0 .894.623m-.894-.623.894.623m0 0 .852.68m-.852-.68.852.68m0 0 .807.732m-.807-.733.807.733m0 0 .758.783m-.758-.783.758.783m0 0 .706.83m-.706-.83.706.83m0 0c.23.306.458.613.652.873m-.652-.873.652.873m0 0 .594.913m-.594-.913.594.913m0 0 .535.95m-.535-.95.535.95m0 0 .473.982m-.473-.982.473.982m0 0 .409 1.01m-.409-1.01.409 1.01m0 0 .343 1.034m-.343-1.034.343 1.034m0 0 .277 1.054m-.277-1.054.277 1.054m0 0 .208 1.07m-.208-1.07.208 1.07m0 0 .14 1.08m-.14-1.08.14 1.08m0 0c.025.405.051.81.07 1.088m-.07-1.087c.019.303.038.607.07 1.087m0 0v1.09m0-1.09v1.09m0 0-.07 1.087m.07-1.087-.07 1.087m0 0-.14 1.081m.14-1.08-.14 1.08m0 0-.208 1.07m.208-1.07-.208 1.07m0 0-.277 1.054m.277-1.054-.277 1.054m0 0-.343 1.034m.343-1.034-.343 1.034m0 0-.409 1.01m.409-1.01-.409 1.01m0 0-.473.982m.473-.982-.473.982m0 0-.535.95m.535-.95-.535.95m0 0-.594.913m.594-.913-.594.913m0 0-.652.873m.652-.873-.652.873m0 0-.706.83m.706-.83-.706.83m0 0-.758.783m.758-.783-.758.783m0 0-.807.733m.807-.733-.807.733m0 0-.852.679m.852-.68-.852.68m0 0-.894.623m.894-.623-.894.623m0 0-.932.565m.932-.565-.932.565m0 0-.966.504m.966-.504-.966.504m0 0-.996.442m.996-.442-.996.442m0 0-1.023.376m1.023-.376-1.023.376m0 0-1.045.31m1.045-.31-1.045.31m0 0-1.062.243m1.062-.243-1.062.243m0 0-1.076.173m1.076-.173-1.076.173m0 0-1.085.105m1.085-.105-1.085.105m0 0-1.089.035m1.09-.035-1.09.035m0 0H123.816m158.516 0H123.816m0 0-1.089-.035m1.09.035-1.09-.035m0 0-1.085-.105m1.085.105-1.085-.105m0 0-1.075-.173m1.075.173-1.075-.173m0 0-1.063-.243m1.063.243-1.063-.243m0 0-1.044-.31m1.044.31-1.044-.31m0 0-1.023-.376m1.023.376-1.023-.376m0 0-.997-.442m.997.442-.997-.442m0 0-.966-.504m.966.504-.966-.504m0 0-.932-.565m.932.565-.932-.565m0 0-.893-.623m.893.623-.893-.623m0 0-.852-.68m.852.68c-.201-.16-.403-.32-.852-.68m0 0-.807-.732m.807.733-.807-.733m0 0-.758-.783m.758.783-.758-.783m0 0-.707-.83m.707.83-.707-.83m0 0-.652-.873m.652.873-.652-.873m0 0-.594-.913m.594.913-.594-.913m0 0-.535-.95m.535.95-.535-.95m0 0-.473-.982m.473.982-.473-.982m0 0-.409-1.01m.41 1.01-.41-1.01m0 0-.343-1.034m.343 1.034-.343-1.034m0 0c-.095-.36-.19-.721-.276-1.054m.276 1.054-.276-1.054m0 0-.209-1.07m.209 1.07-.209-1.07m0 0-.139-1.08m.14 1.08-.14-1.08m0 0-.07-1.088m.07 1.087-.07-1.087m0 0v-1.09m0 1.09v-1.09m0 0 .07-1.087m-.07 1.087.07-1.087m0 0 .14-1.081m-.14 1.08.14-1.08m0 0 .208-1.07m-.209 1.07.209-1.07m0 0 .276-1.054m-.276 1.054.276-1.054m0 0 .343-1.034m-.343 1.034.343-1.034m0 0 .41-1.01m-.41 1.01.41-1.01m0 0 .472-.982m-.473.982.473-.982m0 0 .535-.95m-.535.95.535-.95m0 0 .594-.913m-.594.913.594-.913m0 0 .652-.873m-.652.873.652-.873m0 0 .707-.83m-.707.83.707-.83m0 0 .758-.783m-.758.783.758-.783m0 0 .807-.733m-.807.733.807-.733m0 0 .852-.679m-.852.68c.205-.165.411-.329.852-.68m0 0 .893-.623m-.893.623.893-.623m0 0 .932-.565m-.932.565.932-.565m0 0 .966-.504m-.966.504.966-.504m0 0 .997-.442m-.997.442.997-.442m0 0 1.023-.376m-1.023.376 1.023-.376m0 0 1.044-.31m-1.044.31 1.044-.31m0 0c.221-.05.442-.1 1.063-.243m-1.063.243 1.063-.243m0 0 1.075-.173m-1.075.173 1.075-.173m0 0 1.085-.105m-1.085.105 1.085-.105m0 0 1.09-.035m-1.09.035 1.09-.035m0 0"/></g><g class="label" transform="translate(203.074 15.5)"><rect/><rect class="background" style="stroke:none"/><text y="-10.1"><tspan x="0" y="-.1em" class="text-outer-tspan row" dy="1.1em"><tspan class="text-inner-tspan" font-style="normal" font-weight="normal">Project</tspan><tspan class="text-inner-tspan" font-style="normal" font-weight="normal"> or</tspan><tspan class="text-inner-tspan" font-style="normal" font-weight="normal"> existing</tspan><tspan class="text-inner-tspan" font-style="normal" font-weight="normal"> repo</tspan></tspan></text></g></g><g id="gddc7e719-aba6-48e4-abf9-461ca478d1a5-light-flowchart-init-1" class="node default" data-look="classic"><path d="M80.91 92h244.328v84.2H80.91z" class="basic label-container"/><g class="label" transform="translate(203.074 107)"><rect/><rect class="background" style="stroke:none"/><text y="-10.1"><tspan x="0" y="-.1em" class="text-outer-tspan row" dy="1.1em"><tspan class="text-inner-tspan" font-style="normal" font-weight="normal">pagesmith-docs</tspan><tspan class="text-inner-tspan" font-style="normal" font-weight="normal"> init</tspan></tspan><tspan x="0" y="1em" class="text-outer-tspan row" dy="1.1em"><tspan class="text-inner-tspan" font-style="normal" font-weight="normal">Scaffold</tspan><tspan class="text-inner-tspan" font-style="normal" font-weight="normal"> or</tspan><tspan class="text-inner-tspan" font-style="normal" font-weight="normal"> backfill</tspan><tspan class="text-inner-tspan" font-style="normal" font-weight="normal"> config</tspan></tspan><tspan x="0" y="2.1em" class="text-outer-tspan row" dy="1.1em"><tspan class="text-inner-tspan" font-style="normal" font-weight="normal">and</tspan><tspan class="text-inner-tspan" font-style="normal" font-weight="normal"> starter</tspan><tspan class="text-inner-tspan" font-style="normal" font-weight="normal"> docs</tspan></tspan></text></g></g><g id="gddc7e719-aba6-48e4-abf9-461ca478d1a5-light-flowchart-dev-2" class="node default" data-look="classic"><path d="M8.992 258h231v66.6h-231z" class="basic label-container"/><g class="label" transform="translate(124.492 273)"><rect/><rect class="background" style="stroke:none"/><text y="-10.1"><tspan x="0" y="-.1em" class="text-outer-tspan row" dy="1.1em"><tspan class="text-inner-tspan" font-style="normal" font-weight="normal">pagesmith-docs</tspan><tspan class="text-inner-tspan" font-style="normal" font-weight="normal"> dev</tspan></tspan><tspan x="0" y="1em" class="text-outer-tspan row" dy="1.1em"><tspan class="text-inner-tspan" font-style="normal" font-weight="normal">Live-reload</tspan><tspan class="text-inner-tspan" font-style="normal" font-weight="normal"> editing</tspan><tspan class="text-inner-tspan" font-style="normal" font-weight="normal"> loop</tspan></tspan></text></g></g><g id="gddc7e719-aba6-48e4-abf9-461ca478d1a5-light-flowchart-build-3" class="node default" data-look="classic"><path d="M10.515 383.4h227.953v84.2H10.515z" class="basic label-container"/><g class="label" transform="translate(124.492 398.4)"><rect/><rect class="background" style="stroke:none"/><text y="-10.1"><tspan x="0" y="-.1em" class="text-outer-tspan row" dy="1.1em"><tspan class="text-inner-tspan" font-style="normal" font-weight="normal">pagesmith-docs</tspan><tspan class="text-inner-tspan" font-style="normal" font-weight="normal"> build</tspan></tspan><tspan x="0" y="1em" class="text-outer-tspan row" dy="1.1em"><tspan class="text-inner-tspan" font-style="normal" font-weight="normal">Static</tspan><tspan class="text-inner-tspan" font-style="normal" font-weight="normal"> output</tspan><tspan class="text-inner-tspan" font-style="normal" font-weight="normal"> +</tspan><tspan class="text-inner-tspan" font-style="normal" font-weight="normal"> assets</tspan><tspan class="text-inner-tspan" font-style="normal" font-weight="normal"> +</tspan></tspan><tspan x="0" y="2.1em" class="text-outer-tspan row" dy="1.1em"><tspan class="text-inner-tspan" font-style="normal" font-weight="normal">Pagefind</tspan></tspan></text></g></g><g id="gddc7e719-aba6-48e4-abf9-461ca478d1a5-light-flowchart-preview-4" class="node default" data-look="classic"><path d="M8 517.6h232.984v84.2H8z" class="basic label-container"/><g class="label" transform="translate(124.492 532.6)"><rect/><rect class="background" style="stroke:none"/><text y="-10.1"><tspan x="0" y="-.1em" class="text-outer-tspan row" dy="1.1em"><tspan class="text-inner-tspan" font-style="normal" font-weight="normal">pagesmith-docs</tspan><tspan class="text-inner-tspan" font-style="normal" font-weight="normal"> preview</tspan></tspan><tspan x="0" y="1em" class="text-outer-tspan row" dy="1.1em"><tspan class="text-inner-tspan" font-style="normal" font-weight="normal">Serve</tspan><tspan class="text-inner-tspan" font-style="normal" font-weight="normal"> built</tspan><tspan class="text-inner-tspan" font-style="normal" font-weight="normal"> output</tspan><tspan class="text-inner-tspan" font-style="normal" font-weight="normal"> from</tspan></tspan><tspan x="0" y="2.1em" class="text-outer-tspan row" dy="1.1em"><tspan class="text-inner-tspan" font-style="normal" font-weight="normal">disk</tspan></tspan></text></g></g><g id="gddc7e719-aba6-48e4-abf9-461ca478d1a5-light-flowchart-mcp-5" class="node default" data-look="classic"><path d="M387.832 249.2h257.656v84.2H387.832z" class="basic label-container"/><g class="label" transform="translate(516.66 264.2)"><rect/><rect class="background" style="stroke:none"/><text y="-10.1"><tspan x="0" y="-.1em" class="text-outer-tspan row" dy="1.1em"><tspan class="text-inner-tspan" font-style="normal" font-weight="normal">pagesmith-docs</tspan><tspan class="text-inner-tspan" font-style="normal" font-weight="normal"> mcp</tspan><tspan class="text-inner-tspan" font-style="normal" font-weight="normal"> --stdio</tspan></tspan><tspan x="0" y="1em" class="text-outer-tspan row" dy="1.1em"><tspan class="text-inner-tspan" font-style="normal" font-weight="normal">Expose</tspan><tspan class="text-inner-tspan" font-style="normal" font-weight="normal"> docs-aware</tspan><tspan class="text-inner-tspan" font-style="normal" font-weight="normal"> MCP</tspan></tspan><tspan x="0" y="2.1em" class="text-outer-tspan row" dy="1.1em"><tspan class="text-inner-tspan" font-style="normal" font-weight="normal">tools</tspan></tspan></text></g></g></g></g><defs><filter id="gddc7e719-aba6-48e4-abf9-461ca478d1a5-light-drop-shadow" width="130%" height="130%"><feDropShadow dx="4" dy="4" flood-color="#000" flood-opacity=".06" stdDeviation="0"/></filter></defs><defs><filter id="gddc7e719-aba6-48e4-abf9-461ca478d1a5-light-drop-shadow-small" width="150%" height="150%"><feDropShadow dx="2" dy="2" flood-color="#000" flood-opacity=".06" stdDeviation="0"/></filter></defs></svg>