<svg id="c3639692-ecc5-4646-97b6-0855b36249fc-light" width="100%" xmlns="http://www.w3.org/2000/svg" xmlns:xlink="http://www.w3.org/1999/xlink" class="flowchart" style="max-width: 653.48828125px;" viewBox="0 0 653.48828125 609.800048828125" role="graphics-document document" aria-roledescription="flowchart-v2"><style>#c3639692-ecc5-4646-97b6-0855b36249fc-light{font-family:"trebuchet ms",verdana,arial,sans-serif;font-size:16px;fill:#333;}@keyframes edge-animation-frame{from{stroke-dashoffset:0;}}@keyframes dash{to{stroke-dashoffset:0;}}#c3639692-ecc5-4646-97b6-0855b36249fc-light .edge-animation-slow{stroke-dasharray:9,5!important;stroke-dashoffset:900;animation:dash 50s linear infinite;stroke-linecap:round;}#c3639692-ecc5-4646-97b6-0855b36249fc-light .edge-animation-fast{stroke-dasharray:9,5!important;stroke-dashoffset:900;animation:dash 20s linear infinite;stroke-linecap:round;}#c3639692-ecc5-4646-97b6-0855b36249fc-light .error-icon{fill:#552222;}#c3639692-ecc5-4646-97b6-0855b36249fc-light .error-text{fill:#552222;stroke:#552222;}#c3639692-ecc5-4646-97b6-0855b36249fc-light .edge-thickness-normal{stroke-width:1px;}#c3639692-ecc5-4646-97b6-0855b36249fc-light .edge-thickness-thick{stroke-width:3.5px;}#c3639692-ecc5-4646-97b6-0855b36249fc-light .edge-pattern-solid{stroke-dasharray:0;}#c3639692-ecc5-4646-97b6-0855b36249fc-light .edge-thickness-invisible{stroke-width:0;fill:none;}#c3639692-ecc5-4646-97b6-0855b36249fc-light .edge-pattern-dashed{stroke-dasharray:3;}#c3639692-ecc5-4646-97b6-0855b36249fc-light .edge-pattern-dotted{stroke-dasharray:2;}#c3639692-ecc5-4646-97b6-0855b36249fc-light .marker{fill:#333333;stroke:#333333;}#c3639692-ecc5-4646-97b6-0855b36249fc-light .marker.cross{stroke:#333333;}#c3639692-ecc5-4646-97b6-0855b36249fc-light svg{font-family:"trebuchet ms",verdana,arial,sans-serif;font-size:16px;}#c3639692-ecc5-4646-97b6-0855b36249fc-light p{margin:0;}#c3639692-ecc5-4646-97b6-0855b36249fc-light .label{font-family:"trebuchet ms",verdana,arial,sans-serif;color:#333;}#c3639692-ecc5-4646-97b6-0855b36249fc-light .cluster-label text{fill:#333;}#c3639692-ecc5-4646-97b6-0855b36249fc-light .cluster-label span{color:#333;}#c3639692-ecc5-4646-97b6-0855b36249fc-light .cluster-label span p{background-color:transparent;}#c3639692-ecc5-4646-97b6-0855b36249fc-light .label text,#c3639692-ecc5-4646-97b6-0855b36249fc-light span{fill:#333;color:#333;}#c3639692-ecc5-4646-97b6-0855b36249fc-light .node rect,#c3639692-ecc5-4646-97b6-0855b36249fc-light .node circle,#c3639692-ecc5-4646-97b6-0855b36249fc-light .node ellipse,#c3639692-ecc5-4646-97b6-0855b36249fc-light .node polygon,#c3639692-ecc5-4646-97b6-0855b36249fc-light .node path{fill:#ECECFF;stroke:#9370DB;stroke-width:1px;}#c3639692-ecc5-4646-97b6-0855b36249fc-light .rough-node .label text,#c3639692-ecc5-4646-97b6-0855b36249fc-light .node .label text,#c3639692-ecc5-4646-97b6-0855b36249fc-light .image-shape .label,#c3639692-ecc5-4646-97b6-0855b36249fc-light .icon-shape .label{text-anchor:middle;}#c3639692-ecc5-4646-97b6-0855b36249fc-light .node .katex path{fill:#000;stroke:#000;stroke-width:1px;}#c3639692-ecc5-4646-97b6-0855b36249fc-light .rough-node .label,#c3639692-ecc5-4646-97b6-0855b36249fc-light .node .label,#c3639692-ecc5-4646-97b6-0855b36249fc-light .image-shape .label,#c3639692-ecc5-4646-97b6-0855b36249fc-light .icon-shape .label{text-align:center;}#c3639692-ecc5-4646-97b6-0855b36249fc-light .node.clickable{cursor:pointer;}#c3639692-ecc5-4646-97b6-0855b36249fc-light .root .anchor path{fill:#333333!important;stroke-width:0;stroke:#333333;}#c3639692-ecc5-4646-97b6-0855b36249fc-light .arrowheadPath{fill:#333333;}#c3639692-ecc5-4646-97b6-0855b36249fc-light .edgePath .path{stroke:#333333;stroke-width:1px;}#c3639692-ecc5-4646-97b6-0855b36249fc-light .flowchart-link{stroke:#333333;fill:none;}#c3639692-ecc5-4646-97b6-0855b36249fc-light .edgeLabel{background-color:rgba(232,232,232, 0.8);text-align:center;}#c3639692-ecc5-4646-97b6-0855b36249fc-light .edgeLabel p{background-color:rgba(232,232,232, 0.8);}#c3639692-ecc5-4646-97b6-0855b36249fc-light .edgeLabel rect{opacity:0.5;background-color:rgba(232,232,232, 0.8);fill:rgba(232,232,232, 0.8);}#c3639692-ecc5-4646-97b6-0855b36249fc-light .labelBkg{background-color:rgba(232, 232, 232, 0.5);}#c3639692-ecc5-4646-97b6-0855b36249fc-light .cluster rect{fill:#ffffde;stroke:#aaaa33;stroke-width:1px;}#c3639692-ecc5-4646-97b6-0855b36249fc-light .cluster text{fill:#333;}#c3639692-ecc5-4646-97b6-0855b36249fc-light .cluster span{color:#333;}#c3639692-ecc5-4646-97b6-0855b36249fc-light div.mermaidTooltip{position:absolute;text-align:center;max-width:200px;padding:2px;font-family:"trebuchet ms",verdana,arial,sans-serif;font-size:12px;background:hsl(80, 100%, 96.2745098039%);border:1px solid #aaaa33;border-radius:2px;pointer-events:none;z-index:100;}#c3639692-ecc5-4646-97b6-0855b36249fc-light .flowchartTitleText{text-anchor:middle;font-size:18px;fill:#333;}#c3639692-ecc5-4646-97b6-0855b36249fc-light rect.text{fill:none;stroke-width:0;}#c3639692-ecc5-4646-97b6-0855b36249fc-light .icon-shape,#c3639692-ecc5-4646-97b6-0855b36249fc-light .image-shape{background-color:rgba(232,232,232, 0.8);text-align:center;}#c3639692-ecc5-4646-97b6-0855b36249fc-light .icon-shape p,#c3639692-ecc5-4646-97b6-0855b36249fc-light .image-shape p{background-color:rgba(232,232,232, 0.8);padding:2px;}#c3639692-ecc5-4646-97b6-0855b36249fc-light .icon-shape .label rect,#c3639692-ecc5-4646-97b6-0855b36249fc-light .image-shape .label rect{opacity:0.5;background-color:rgba(232,232,232, 0.8);fill:rgba(232,232,232, 0.8);}#c3639692-ecc5-4646-97b6-0855b36249fc-light .label-icon{display:inline-block;height:1em;overflow:visible;vertical-align:-0.125em;}#c3639692-ecc5-4646-97b6-0855b36249fc-light .node .label-icon path{fill:currentColor;stroke:revert;stroke-width:revert;}#c3639692-ecc5-4646-97b6-0855b36249fc-light .node .neo-node{stroke:#9370DB;}#c3639692-ecc5-4646-97b6-0855b36249fc-light [data-look="neo"].node rect,#c3639692-ecc5-4646-97b6-0855b36249fc-light [data-look="neo"].cluster rect,#c3639692-ecc5-4646-97b6-0855b36249fc-light [data-look="neo"].node polygon{stroke:#9370DB;filter:drop-shadow(1px 2px 2px rgba(185, 185, 185, 1));}#c3639692-ecc5-4646-97b6-0855b36249fc-light [data-look="neo"].node path{stroke:#9370DB;stroke-width:1px;}#c3639692-ecc5-4646-97b6-0855b36249fc-light [data-look="neo"].node .outer-path{filter:drop-shadow(1px 2px 2px rgba(185, 185, 185, 1));}#c3639692-ecc5-4646-97b6-0855b36249fc-light [data-look="neo"].node .neo-line path{stroke:#9370DB;filter:none;}#c3639692-ecc5-4646-97b6-0855b36249fc-light [data-look="neo"].node circle{stroke:#9370DB;filter:drop-shadow(1px 2px 2px rgba(185, 185, 185, 1));}#c3639692-ecc5-4646-97b6-0855b36249fc-light [data-look="neo"].node circle .state-start{fill:#000000;}#c3639692-ecc5-4646-97b6-0855b36249fc-light [data-look="neo"].icon-shape .icon{fill:#9370DB;filter:drop-shadow(1px 2px 2px rgba(185, 185, 185, 1));}#c3639692-ecc5-4646-97b6-0855b36249fc-light [data-look="neo"].icon-shape .icon-neo path{stroke:#9370DB;filter:drop-shadow(1px 2px 2px rgba(185, 185, 185, 1));}#c3639692-ecc5-4646-97b6-0855b36249fc-light :root{--mermaid-font-family:"trebuchet ms",verdana,arial,sans-serif;}</style><g><marker id="c3639692-ecc5-4646-97b6-0855b36249fc-light_flowchart-v2-pointEnd" class="marker flowchart-v2" viewBox="0 0 10 10" refX="5" refY="5" markerUnits="userSpaceOnUse" markerWidth="8" markerHeight="8" orient="auto"><path d="M 0 0 L 10 5 L 0 10 z" class="arrowMarkerPath" style="stroke-width: 1; stroke-dasharray: 1, 0;"></path></marker><marker id="c3639692-ecc5-4646-97b6-0855b36249fc-light_flowchart-v2-pointStart" class="marker flowchart-v2" viewBox="0 0 10 10" refX="4.5" refY="5" markerUnits="userSpaceOnUse" markerWidth="8" markerHeight="8" orient="auto"><path d="M 0 5 L 10 10 L 10 0 z" class="arrowMarkerPath" style="stroke-width: 1; stroke-dasharray: 1, 0;"></path></marker><marker id="c3639692-ecc5-4646-97b6-0855b36249fc-light_flowchart-v2-pointEnd-margin" class="marker flowchart-v2" viewBox="0 0 11.5 14" refX="11.5" refY="7" markerUnits="userSpaceOnUse" markerWidth="10.5" markerHeight="14" orient="auto"><path d="M 0 0 L 11.5 7 L 0 14 z" class="arrowMarkerPath" style="stroke-width: 0; stroke-dasharray: 1, 0;"></path></marker><marker id="c3639692-ecc5-4646-97b6-0855b36249fc-light_flowchart-v2-pointStart-margin" class="marker flowchart-v2" viewBox="0 0 11.5 14" refX="1" refY="7" markerUnits="userSpaceOnUse" markerWidth="11.5" markerHeight="14" orient="auto"><polygon points="0,7 11.5,14 11.5,0" class="arrowMarkerPath" style="stroke-width: 0; stroke-dasharray: 1, 0;"></polygon></marker><marker id="c3639692-ecc5-4646-97b6-0855b36249fc-light_flowchart-v2-circleEnd" class="marker flowchart-v2" viewBox="0 0 10 10" refX="11" refY="5" markerUnits="userSpaceOnUse" markerWidth="11" markerHeight="11" orient="auto"><circle cx="5" cy="5" r="5" class="arrowMarkerPath" style="stroke-width: 1; stroke-dasharray: 1, 0;"></circle></marker><marker id="c3639692-ecc5-4646-97b6-0855b36249fc-light_flowchart-v2-circleStart" class="marker flowchart-v2" viewBox="0 0 10 10" refX="-1" refY="5" markerUnits="userSpaceOnUse" markerWidth="11" markerHeight="11" orient="auto"><circle cx="5" cy="5" r="5" class="arrowMarkerPath" style="stroke-width: 1; stroke-dasharray: 1, 0;"></circle></marker><marker id="c3639692-ecc5-4646-97b6-0855b36249fc-light_flowchart-v2-circleEnd-margin" class="marker flowchart-v2" viewBox="0 0 10 10" refY="5" refX="12.25" markerUnits="userSpaceOnUse" markerWidth="14" markerHeight="14" orient="auto"><circle cx="5" cy="5" r="5" class="arrowMarkerPath" style="stroke-width: 0; stroke-dasharray: 1, 0;"></circle></marker><marker id="c3639692-ecc5-4646-97b6-0855b36249fc-light_flowchart-v2-circleStart-margin" class="marker flowchart-v2" viewBox="0 0 10 10" refX="-2" refY="5" markerUnits="userSpaceOnUse" markerWidth="14" markerHeight="14" orient="auto"><circle cx="5" cy="5" r="5" class="arrowMarkerPath" style="stroke-width: 0; stroke-dasharray: 1, 0;"></circle></marker><marker id="c3639692-ecc5-4646-97b6-0855b36249fc-light_flowchart-v2-crossEnd" class="marker cross flowchart-v2" viewBox="0 0 11 11" refX="12" refY="5.2" markerUnits="userSpaceOnUse" markerWidth="11" markerHeight="11" orient="auto"><path d="M 1,1 l 9,9 M 10,1 l -9,9" class="arrowMarkerPath" style="stroke-width: 2; stroke-dasharray: 1, 0;"></path></marker><marker id="c3639692-ecc5-4646-97b6-0855b36249fc-light_flowchart-v2-crossStart" class="marker cross flowchart-v2" viewBox="0 0 11 11" refX="-1" refY="5.2" markerUnits="userSpaceOnUse" markerWidth="11" markerHeight="11" orient="auto"><path d="M 1,1 l 9,9 M 10,1 l -9,9" class="arrowMarkerPath" style="stroke-width: 2; stroke-dasharray: 1, 0;"></path></marker><marker id="c3639692-ecc5-4646-97b6-0855b36249fc-light_flowchart-v2-crossEnd-margin" class="marker cross flowchart-v2" viewBox="0 0 15 15" refX="17.7" refY="7.5" markerUnits="userSpaceOnUse" markerWidth="12" markerHeight="12" orient="auto"><path d="M 1,1 L 14,14 M 1,14 L 14,1" class="arrowMarkerPath" style="stroke-width: 2.5;"></path></marker><marker id="c3639692-ecc5-4646-97b6-0855b36249fc-light_flowchart-v2-crossStart-margin" class="marker cross flowchart-v2" viewBox="0 0 15 15" refX="-3.5" refY="7.5" markerUnits="userSpaceOnUse" markerWidth="12" markerHeight="12" orient="auto"><path d="M 1,1 L 14,14 M 1,14 L 14,1" class="arrowMarkerPath" style="stroke-width: 2.5; stroke-dasharray: 1, 0;"></path></marker><g class="root"><g class="clusters"></g><g class="edgePaths"><path d="M203.574,42.5L203.491,46.583C203.408,50.667,203.241,58.833,203.158,66.417C203.074,74,203.074,81,203.074,84.5L203.074,88" id="c3639692-ecc5-4646-97b6-0855b36249fc-light-L_start_init_0" class="edge-thickness-normal edge-pattern-solid edge-thickness-normal edge-pattern-solid flowchart-link" style=";" data-edge="true" data-et="edge" data-id="L_start_init_0" data-points="W3sieCI6MjAzLjU3NDIxODc1LCJ5Ijo0Mi41fSx7IngiOjIwMy4wNzQyMTg3NSwieSI6Njd9LHsieCI6MjAzLjA3NDIxODc1LCJ5Ijo5Mn1d" data-look="classic" marker-end="url(#c3639692-ecc5-4646-97b6-0855b36249fc-light_flowchart-v2-pointEnd)"></path><path d="M139.96,42.5L124.285,46.583C108.61,50.667,77.26,58.833,61.585,74.1C45.91,89.367,45.91,111.733,45.91,136.017C45.91,160.3,45.91,186.5,52.987,206.679C60.064,226.857,74.218,241.014,81.295,248.093L88.372,255.171" id="c3639692-ecc5-4646-97b6-0855b36249fc-light-L_start_dev_0" class="edge-thickness-normal edge-pattern-solid edge-thickness-normal edge-pattern-solid flowchart-link" style=";" data-edge="true" data-et="edge" data-id="L_start_dev_0" data-points="W3sieCI6MTM5Ljk2MDE5MzQ1MjM4MDk2LCJ5Ijo0Mi41fSx7IngiOjQ1LjkxMDE1NjI1LCJ5Ijo2N30seyJ4Ijo0NS45MTAxNTYyNSwieSI6MTM0LjA5OTk5ODQ3NDEyMTF9LHsieCI6NDUuOTEwMTU2MjUsInkiOjIxMi42OTk5OTY5NDgyNDIyfSx7IngiOjkxLjE5OTgwMDMzMTE0NzM0LCJ5IjoyNTcuOTk5OTk2MTg1MzAyNzN9XQ==" data-look="classic" marker-end="url(#c3639692-ecc5-4646-97b6-0855b36249fc-light_flowchart-v2-pointEnd)"></path><path d="M203.074,176.2L203.074,182.283C203.074,188.367,203.074,200.533,195.997,213.695C188.92,226.857,174.767,241.014,167.69,248.093L160.613,255.171" id="c3639692-ecc5-4646-97b6-0855b36249fc-light-L_init_dev_0" class="edge-thickness-normal edge-pattern-solid edge-thickness-normal edge-pattern-solid flowchart-link" style=";" data-edge="true" data-et="edge" data-id="L_init_dev_0" data-points="W3sieCI6MjAzLjA3NDIxODc1LCJ5IjoxNzYuMTk5OTk2OTQ4MjQyMn0seyJ4IjoyMDMuMDc0MjE4NzUsInkiOjIxMi42OTk5OTY5NDgyNDIyfSx7IngiOjE1Ny43ODQ1NzQ2Njg4NTI2NiwieSI6MjU3Ljk5OTk5NjE4NTMwMjczfV0=" data-look="classic" marker-end="url(#c3639692-ecc5-4646-97b6-0855b36249fc-light_flowchart-v2-pointEnd)"></path><path d="M124.492,324.6L124.492,330.233C124.492,335.867,124.492,347.133,124.492,356.267C124.492,365.4,124.492,372.4,124.492,375.9L124.492,379.4" id="c3639692-ecc5-4646-97b6-0855b36249fc-light-L_dev_build_0" class="edge-thickness-normal edge-pattern-solid edge-thickness-normal edge-pattern-solid flowchart-link" style=";" data-edge="true" data-et="edge" data-id="L_dev_build_0" data-points="W3sieCI6MTI0LjQ5MjE4NzUsInkiOjMyNC41OTk5OTQ2NTk0MjM4fSx7IngiOjEyNC40OTIxODc1LCJ5IjozNTguMzk5OTkzODk2NDg0NH0seyJ4IjoxMjQuNDkyMTg3NSwieSI6MzgzLjM5OTk5Mzg5NjQ4NDR9XQ==" data-look="classic" marker-end="url(#c3639692-ecc5-4646-97b6-0855b36249fc-light_flowchart-v2-pointEnd)"></path><path d="M124.492,467.6L124.492,471.767C124.492,475.933,124.492,484.267,124.492,491.933C124.492,499.6,124.492,506.6,124.492,510.1L124.492,513.6" id="c3639692-ecc5-4646-97b6-0855b36249fc-light-L_build_preview_0" class="edge-thickness-normal edge-pattern-solid edge-thickness-normal edge-pattern-solid flowchart-link" style=";" data-edge="true" data-et="edge" data-id="L_build_preview_0" data-points="W3sieCI6MTI0LjQ5MjE4NzUsInkiOjQ2Ny41OTk5OTA4NDQ3MjY1Nn0seyJ4IjoxMjQuNDkyMTg3NSwieSI6NDkyLjU5OTk5MDg0NDcyNjU2fSx7IngiOjEyNC40OTIxODc1LCJ5Ijo1MTcuNTk5OTkwODQ0NzI2Nn1d" data-look="classic" marker-end="url(#c3639692-ecc5-4646-97b6-0855b36249fc-light_flowchart-v2-pointEnd)"></path><path d="M291.499,40.116L318.872,44.596C346.245,49.077,400.992,58.039,428.365,73.703C455.738,89.367,455.738,111.733,455.738,136.017C455.738,160.3,455.738,186.5,460.045,205.156C464.352,223.813,472.965,234.926,477.272,240.482L481.579,246.038" id="c3639692-ecc5-4646-97b6-0855b36249fc-light-L_start_mcp_0" class="edge-thickness-normal edge-pattern-dotted edge-thickness-normal edge-pattern-solid flowchart-link" style=";" data-edge="true" data-et="edge" data-id="L_start_mcp_0" data-points="W3sieCI6MjkxLjQ5ODkwMzUyMTg2ODQ0LCJ5Ijo0MC4xMTU1OTk1NTg4NzQ2NH0seyJ4Ijo0NTUuNzM4MjgxMjUsInkiOjY3fSx7IngiOjQ1NS43MzgyODEyNSwieSI6MTM0LjA5OTk5ODQ3NDEyMTF9LHsieCI6NDU1LjczODI4MTI1LCJ5IjoyMTIuNjk5OTk2OTQ4MjQyMn0seyJ4Ijo0ODQuMDI4OTc0Mzg4MjcxOSwieSI6MjQ5LjE5OTk5Njk0ODI0MjJ9XQ==" data-look="classic" marker-end="url(#c3639692-ecc5-4646-97b6-0855b36249fc-light_flowchart-v2-pointEnd)"></path><path d="M325.238,159.739L367.296,168.566C409.353,177.393,493.467,195.046,531.218,209.43C568.969,223.813,560.355,234.926,556.049,240.482L551.742,246.038" id="c3639692-ecc5-4646-97b6-0855b36249fc-light-L_init_mcp_0" class="edge-thickness-normal edge-pattern-dotted edge-thickness-normal edge-pattern-solid flowchart-link" style=";" data-edge="true" data-et="edge" data-id="L_init_mcp_0" data-points="W3sieCI6MzI1LjIzODI4MTI1LCJ5IjoxNTkuNzM5MjM2OTc3NTcwMDJ9LHsieCI6NTc3LjU4MjAzMTI1LCJ5IjoyMTIuNjk5OTk2OTQ4MjQyMn0seyJ4Ijo1NDkuMjkxMzM4MTExNzI4MSwieSI6MjQ5LjE5OTk5Njk0ODI0MjJ9XQ==" data-look="classic" marker-end="url(#c3639692-ecc5-4646-97b6-0855b36249fc-light_flowchart-v2-pointEnd)"></path></g><g class="edgeLabels"><g class="edgeLabel"><g class="label" data-id="L_start_init_0" transform="translate(0, 0)"><text y="-10.1" text-anchor="middle"><tspan class="text-outer-tspan row" x="0" y="-0.1em" dy="1.1em" text-anchor="middle"></tspan></text></g></g><g><rect class="background" style="stroke: none"></rect></g><g class="edgeLabel"><g class="label" data-id="L_start_dev_0" transform="translate(0, 0)"><text y="-10.1" text-anchor="middle"><tspan class="text-outer-tspan row" x="0" y="-0.1em" dy="1.1em" text-anchor="middle"></tspan></text></g></g><g><rect class="background" style="stroke: none"></rect></g><g class="edgeLabel"><g class="label" data-id="L_init_dev_0" transform="translate(0, 0)"><text y="-10.1" text-anchor="middle"><tspan class="text-outer-tspan row" x="0" y="-0.1em" dy="1.1em" text-anchor="middle"></tspan></text></g></g><g><rect class="background" style="stroke: none"></rect></g><g class="edgeLabel"><g class="label" data-id="L_dev_build_0" transform="translate(0, 0)"><text y="-10.1" text-anchor="middle"><tspan class="text-outer-tspan row" x="0" y="-0.1em" dy="1.1em" text-anchor="middle"></tspan></text></g></g><g><rect class="background" style="stroke: none"></rect></g><g class="edgeLabel"><g class="label" data-id="L_build_preview_0" transform="translate(0, 0)"><text y="-10.1" text-anchor="middle"><tspan class="text-outer-tspan row" x="0" y="-0.1em" dy="1.1em" text-anchor="middle"></tspan></text></g></g><g><rect class="background" style="stroke: none"></rect></g><g class="edgeLabel" transform="translate(455.73828125, 134.0999984741211)"><g class="label" data-id="L_start_mcp_0" transform="translate(0, -10.5)"><g><rect class="background" style="" x="-95.5" y="-1" width="191" height="23"></rect><text y="-10.1" text-anchor="middle" style=""><tspan class="text-outer-tspan row" x="0" y="-0.1em" dy="1.1em" text-anchor="middle"><tspan font-style="normal" class="text-inner-tspan" font-weight="normal">assistant</tspan><tspan font-style="normal" class="text-inner-tspan" font-weight="normal"> or</tspan><tspan font-style="normal" class="text-inner-tspan" font-weight="normal"> tooling</tspan><tspan font-style="normal" class="text-inner-tspan" font-weight="normal"> access</tspan></tspan></text></g></g></g><g class="edgeLabel" transform="translate(474.00794, 190.96234)"><g class="label" data-id="L_init_mcp_0" transform="translate(0, -10.5)"><g><rect class="background" style="" x="-101.84375" y="-1" width="203.6875" height="23"></rect><text y="-10.1" text-anchor="middle" style=""><tspan class="text-outer-tspan row" x="0" y="-0.1em" dy="1.1em" text-anchor="middle"><tspan font-style="normal" class="text-inner-tspan" font-weight="normal">project</tspan><tspan font-style="normal" class="text-inner-tspan" font-weight="normal"> metadata</tspan><tspan font-style="normal" class="text-inner-tspan" font-weight="normal"> +</tspan><tspan font-style="normal" class="text-inner-tspan" font-weight="normal"> content</tspan></tspan></text></g></g></g></g><g class="nodes"><g class="node default" id="c3639692-ecc5-4646-97b6-0855b36249fc-light-flowchart-start-0" data-look="classic" transform="translate(203.07421875, 25)"><g class="basic label-container outer-path"><path d="M-79.2578125 -17 C-26.880693825383027 -17, 25.496424849233946 -17, 79.2578125 -17 C79.2578125 -17, 79.2578125 -17, 79.2578125 -17 C79.49414103302993 -16.992421403931314, 79.73046956605987 -16.984842807862627, 80.34700623967211 -16.965071676755716 C80.74609950508935 -16.926571629420792, 81.14519277050657 -16.888071582085868, 81.4317242486366 -16.860430234995185 C81.72592627347862 -16.812865933189507, 82.02012829832064 -16.765301631383824, 82.50750918792333 -16.686505668848113 C82.73020029413394 -16.635677877050817, 82.95289140034454 -16.584850085253525, 83.56994042646163 -16.4440126716635 C83.95126168810307 -16.33083852280447, 84.3325829497445 -16.217664373945436, 84.61465220640156 -16.133947699181366 C84.83962699549166 -16.051154897152056, 85.06460178458177 -15.968362095122744, 85.63735158294936 -15.757584874882369 C85.8831877462415 -15.64876049786362, 86.12902390953364 -15.539936120844871, 86.63383606499849 -15.316470754341125 C86.93694093298824 -15.158341138858805, 87.240045800978 -15.000211523376484, 87.60001088406693 -14.812417970097622 C87.83905316733733 -14.667509133210727, 88.07809545060772 -14.522600296323834, 88.53190582057933 -14.247497783161291 C88.74801331931398 -14.096750547186831, 88.96412081804866 -13.946003311212372, 89.42569151835067 -13.624031571755262 C89.61643249215642 -13.471920720975662, 89.80717346596217 -13.319809870196062, 90.2776952202324 -12.944581292275288 C90.48932365482926 -12.75238594735596, 90.70095208942612 -12.56019060243663, 91.08441586025927 -12.21193895166137 C91.24621786618988 -12.044865096346273, 91.40801987212049 -11.877791241031176, 91.84253845028036 -11.42911513444239 C92.12440144612347 -11.09802282106626, 92.40626444196658 -10.766930507690132, 92.54894770195651 -10.59932663159847 C92.7632023953997 -10.312244861388702, 92.9774570888429 -10.025163091178936, 93.20074082814824 -9.725983222076888 C93.3614041682733 -9.479161187497237, 93.52206750839834 -9.232339152917588, 93.79523947109088 -8.812673661278927 C93.92447452386526 -8.583203738609892, 94.05370957663962 -8.35373381594086, 94.330000708341 -7.863150934094199 C94.49795793780466 -7.514384153403913, 94.66591516726831 -7.165617372713628, 94.80282709126881 -6.881316833080699 C94.9141263799872 -6.6064054381209365, 95.02542566870558 -6.331494043161174, 95.21177567484592 -5.871205925162238 C95.3138639893092 -5.563732187562863, 95.41595230377247 -5.256258449963487, 95.55516600162323 -4.836968972727556 C95.61807967249433 -4.59705187873864, 95.68099334336542 -4.357134784749722, 95.831587007091 -3.7828558772573464 C95.89146938113831 -3.4753725426686373, 95.95135175518563 -3.167889208079928, 96.03990281804565 -2.713198215567453 C96.08183021353446 -2.3880176156569037, 96.12375760902329 -2.0628370157463545, 96.17925742013637 -1.632391440430593 C96.20274490823726 -1.2665548545000536, 96.22623239633815 -0.9007182685695143, 96.2490781754117 -0.5448768187181379 C96.2490781754117 -0.17724350398456878, 96.2490781754117 0.1903898107490003, 96.2490781754117 0.5448768187181336 C96.22122601429717 0.9786967099365634, 96.19337385318265 1.4125166011549932, 96.17925742013637 1.6323914404305815 C96.13465793629966 1.9782962299037967, 96.09005845246297 2.3242010193770124, 96.03990281804565 2.7131982155674415 C95.97924032296869 3.024687306764711, 95.91857782789175 3.3361763979619807, 95.831587007091 3.782855877257343 C95.7721569662941 4.009488379958533, 95.71272692549721 4.2361208826597245, 95.55516600162323 4.836968972727545 C95.44969798630301 5.154621830825842, 95.3442299709828 5.472274688924138, 95.21177567484592 5.871205925162227 C95.0859085746538 6.182100096111595, 94.96004147446169 6.492994267060963, 94.80282709126881 6.881316833080694 C94.6664153002487 7.164578835878693, 94.5300035092286 7.447840838676693, 94.330000708341 7.863150934094196 C94.21308060718356 8.070754413143309, 94.09616050602611 8.278357892192423, 93.79523947109088 8.812673661278923 C93.67536449558051 8.99683381460094, 93.55548952007014 9.180993967922957, 93.20074082814826 9.725983222076879 C92.97104159958964 10.033759262315217, 92.74134237103102 10.341535302553552, 92.54894770195651 10.599326631598467 C92.39902072534963 10.775439389407554, 92.24909374874275 10.95155214721664, 91.84253845028037 11.42911513444238 C91.68477854763015 11.592015186257624, 91.52701864497992 11.754915238072869, 91.08441586025927 12.211938951661365 C90.8611804048824 12.41467548574815, 90.63794494950554 12.617412019834934, 90.27769522023242 12.944581292275275 C89.97725825346275 13.184171778310636, 89.67682128669307 13.423762264345996, 89.42569151835067 13.62403157175526 C89.21249995276895 13.772744778990942, 88.99930838718723 13.921457986226622, 88.53190582057934 14.247497783161286 C88.22034148130079 14.43636991658723, 87.90877714202225 14.625242050013176, 87.60001088406695 14.81241797009762 C87.35873798623636 14.938289886353166, 87.1174650884058 15.06416180260871, 86.63383606499849 15.316470754341124 C86.33679904823845 15.447960230370759, 86.0397620314784 15.579449706400395, 85.63735158294936 15.757584874882367 C85.33887555565751 15.86742681200792, 85.04039952836565 15.977268749133474, 84.61465220640156 16.133947699181363 C84.21508486689586 16.25253718817489, 83.81551752739016 16.37112667716842, 83.56994042646164 16.444012671663497 C83.30992656148553 16.503359139595254, 83.04991269650942 16.562705607527015, 82.50750918792333 16.68650566884811 C82.2278253774141 16.731722778350896, 81.94814156690488 16.776939887853683, 81.43172424863661 16.86043023499518 C81.04980456731461 16.897273567326696, 80.6678848859926 16.93411689965821, 80.34700623967211 16.965071676755716 C80.10888006761662 16.97270791960906, 79.87075389556114 16.980344162462405, 79.2578125 17 C79.2578125 17, 79.2578125 17, 79.2578125 17 C41.74289811141264 17, 4.227983722825286 17, -79.2578125 17 C-79.60999177542679 16.988706296112436, -79.96217105085358 16.977412592224873, -80.34700623967211 16.965071676755716 C-80.76805527896441 16.924453582320744, -81.1891043182567 16.883835487885772, -81.4317242486366 16.86043023499518 C-81.76817213762523 16.80603594949585, -82.10462002661384 16.751641663996516, -82.50750918792333 16.68650566884811 C-82.89540021978307 16.59797207205166, -83.28329125164281 16.509438475255216, -83.56994042646161 16.4440126716635 C-83.81761941784956 16.370502847113116, -84.06529840923751 16.296993022562727, -84.61465220640154 16.13394769918137 C-85.0135753801987 15.987140283618622, -85.41249855399586 15.840332868055874, -85.63735158294936 15.757584874882369 C-85.97133662789282 15.60973960280025, -86.30532167283629 15.461894330718131, -86.63383606499849 15.316470754341127 C-87.00842182247798 15.121049604597705, -87.38300757995746 14.925628454854282, -87.60001088406693 14.812417970097624 C-87.96513399612076 14.591078193869023, -88.33025710817456 14.369738417640423, -88.53190582057931 14.247497783161299 C-88.78448371376636 14.071310378794788, -89.03706160695342 13.895122974428277, -89.42569151835067 13.624031571755264 C-89.71336279499354 13.394621383886754, -90.0010340716364 13.165211196018245, -90.2776952202324 12.94458129227529 C-90.56979876827876 12.679300578575951, -90.86190231632511 12.414019864876613, -91.08441586025926 12.211938951661377 C-91.33726575184714 11.950850679234716, -91.59011564343503 11.689762406808054, -91.84253845028036 11.429115134442386 C-92.02932575753834 11.209704134838276, -92.21611306479635 10.990293135234165, -92.54894770195651 10.599326631598473 C-92.72976785654377 10.357044097506504, -92.91058801113103 10.114761563414536, -93.20074082814824 9.72598322207689 C-93.34229627003295 9.50851605038353, -93.48385171191764 9.291048878690171, -93.79523947109088 8.812673661278936 C-93.990014283013 8.466831259622811, -94.18478909493511 8.120988857966688, -94.330000708341 7.863150934094201 C-94.45289120618897 7.607966185877491, -94.57578170403691 7.3527814376607825, -94.80282709126881 6.881316833080701 C-94.92547181962004 6.57838198287864, -95.04811654797128 6.27544713267658, -95.21177567484592 5.87120592516224 C-95.28399455428446 5.653694166809193, -95.356213433723 5.436182408456145, -95.55516600162323 4.8369689727275516 C-95.66082403454438 4.4340491007180844, -95.76648206746553 4.031129228708617, -95.831587007091 3.782855877257349 C-95.88412056996762 3.513107134858364, -95.93665413284424 3.2433583924593785, -96.03990281804565 2.713198215567455 C-96.0928054837004 2.3028955875621007, -96.14570814935516 1.8925929595567466, -96.17925742013637 1.6323914404306026 C-96.201221769783 1.290278965380336, -96.22318611942964 0.9481664903300695, -96.2490781754117 0.54487681871814 C-96.2490781754117 0.22170163745425892, -96.2490781754117 -0.10147354380962215, -96.2490781754117 -0.5448768187181317 C-96.23022805646924 -0.8384826367889409, -96.21137793752679 -1.13208845485975, -96.17925742013637 -1.6323914404305793 C-96.13430781463485 -1.9810117043967188, -96.08935820913334 -2.3296319683628584, -96.03990281804565 -2.713198215567447 C-95.95954634968145 -3.125811697272051, -95.87918988131723 -3.538425178976655, -95.831587007091 -3.782855877257341 C-95.73366253390282 -4.156284334259065, -95.63573806071462 -4.529712791260789, -95.55516600162323 -4.836968972727544 C-95.48139358608502 -5.059159734290487, -95.40762117054679 -5.28135049585343, -95.21177567484594 -5.871205925162218 C-95.06552422140561 -6.232449842739299, -94.9192727679653 -6.5936937603163805, -94.80282709126881 -6.881316833080692 C-94.67042732443922 -7.156247781803542, -94.53802755760961 -7.431178730526392, -94.330000708341 -7.863150934094194 C-94.13925575970627 -8.201837905415656, -93.94851081107154 -8.54052487673712, -93.79523947109088 -8.812673661278929 C-93.64596835696227 -9.04199417748704, -93.49669724283366 -9.27131469369515, -93.20074082814826 -9.725983222076884 C-93.02002748558434 -9.968122637788337, -92.83931414302043 -10.21026205349979, -92.54894770195651 -10.599326631598467 C-92.33111896293 -10.85520066326537, -92.11329022390352 -11.111074694932272, -91.84253845028037 -11.42911513444238 C-91.61617519726401 -11.66285377795047, -91.38981194424765 -11.896592421458559, -91.08441586025927 -12.21193895166136 C-90.82377997442816 -12.448641567125525, -90.56314408859706 -12.685344182589693, -90.27769522023242 -12.944581292275274 C-90.03559685048938 -13.137648299637156, -89.79349848074635 -13.330715306999041, -89.42569151835067 -13.624031571755259 C-89.22137166149633 -13.766556259032798, -89.017051804642 -13.909080946310338, -88.53190582057934 -14.247497783161284 C-88.16144277907472 -14.472074656003873, -87.79097973757008 -14.696651528846461, -87.60001088406695 -14.812417970097618 C-87.37293108221017 -14.930885357274741, -87.1458512803534 -15.049352744451864, -86.63383606499849 -15.316470754341124 C-86.39012817993718 -15.424353005720214, -86.14642029487587 -15.532235257099304, -85.63735158294936 -15.757584874882365 C-85.23297613083221 -15.906398779267178, -84.82860067871508 -16.05521268365199, -84.61465220640156 -16.133947699181363 C-84.36823942216817 -16.207081720094735, -84.12182663793479 -16.280215741008103, -83.56994042646164 -16.444012671663494 C-83.26075585807153 -16.51458203178067, -82.95157128968143 -16.58515139189785, -82.50750918792333 -16.68650566884811 C-82.12794795922147 -16.747870184763336, -81.74838673051961 -16.809234700678562, -81.43172424863661 -16.86043023499518 C-81.08534062537034 -16.893845446544425, -80.73895700210406 -16.927260658093665, -80.34700623967213 -16.965071676755716 C-79.96050528931119 -16.97746600995533, -79.57400433895025 -16.989860343154945, -79.2578125 -17 C-79.2578125 -17, -79.2578125 -17, -79.2578125 -17" stroke="none" stroke-width="0" fill="#ECECFF" style=""></path><path d="M-79.2578125 -17 C-25.096954611795624 -17, 29.06390327640875 -17, 79.2578125 -17 M-79.2578125 -17 C-20.558879661554087 -17, 38.140053176891826 -17, 79.2578125 -17 M79.2578125 -17 C79.2578125 -17, 79.2578125 -17, 79.2578125 -17 M79.2578125 -17 C79.2578125 -17, 79.2578125 -17, 79.2578125 -17 M79.2578125 -17 C79.60843384020325 -16.988756256062718, 79.95905518040651 -16.977512512125436, 80.34700623967211 -16.965071676755716 M79.2578125 -17 C79.68650214419954 -16.986252757504293, 80.11519178839907 -16.972505515008585, 80.34700623967211 -16.965071676755716 M80.34700623967211 -16.965071676755716 C80.6637347578933 -16.934517257524693, 80.98046327611446 -16.903962838293673, 81.4317242486366 -16.860430234995185 M80.34700623967211 -16.965071676755716 C80.7349287820716 -16.927649255635554, 81.12285132447111 -16.89022683451539, 81.4317242486366 -16.860430234995185 M81.4317242486366 -16.860430234995185 C81.81622239825401 -16.798267555992727, 82.20072054787144 -16.736104876990265, 82.50750918792333 -16.686505668848113 M81.4317242486366 -16.860430234995185 C81.74421002333948 -16.809909958304598, 82.05669579804237 -16.759389681614014, 82.50750918792333 -16.686505668848113 M82.50750918792333 -16.686505668848113 C82.77766832758782 -16.624843608172835, 83.0478274672523 -16.56318154749756, 83.56994042646163 -16.4440126716635 M82.50750918792333 -16.686505668848113 C82.90084587242107 -16.59672913737325, 83.2941825569188 -16.50695260589838, 83.56994042646163 -16.4440126716635 M83.56994042646163 -16.4440126716635 C83.95482968948542 -16.329779558723008, 84.33971895250922 -16.215546445782515, 84.61465220640156 -16.133947699181366 M83.56994042646163 -16.4440126716635 C83.8600325614905 -16.357914848711623, 84.15012469651937 -16.271817025759745, 84.61465220640156 -16.133947699181366 M84.61465220640156 -16.133947699181366 C84.89140910700267 -16.032098601447412, 85.16816600760377 -15.930249503713462, 85.63735158294936 -15.757584874882369 M84.61465220640156 -16.133947699181366 C84.88393602866822 -16.03484876335487, 85.15321985093489 -15.935749827528369, 85.63735158294936 -15.757584874882369 M85.63735158294936 -15.757584874882369 C85.88440948996276 -15.648219668159959, 86.13146739697616 -15.53885446143755, 86.63383606499849 -15.316470754341125 M85.63735158294936 -15.757584874882369 C85.85902663972153 -15.659455903006249, 86.08070169649372 -15.561326931130129, 86.63383606499849 -15.316470754341125 M86.63383606499849 -15.316470754341125 C86.84959377780964 -15.203910093766956, 87.0653514906208 -15.091349433192784, 87.60001088406693 -14.812417970097622 M86.63383606499849 -15.316470754341125 C86.9102550726816 -15.172263135087674, 87.1866740803647 -15.028055515834223, 87.60001088406693 -14.812417970097622 M87.60001088406693 -14.812417970097622 C87.84574363347717 -14.663453333319211, 88.09147638288741 -14.5144886965408, 88.53190582057933 -14.247497783161291 M87.60001088406693 -14.812417970097622 C87.8011400020658 -14.690492316800821, 88.00226912006465 -14.568566663504019, 88.53190582057933 -14.247497783161291 M88.53190582057933 -14.247497783161291 C88.86995650032712 -14.011688262947297, 89.20800718007492 -13.775878742733301, 89.42569151835067 -13.624031571755262 M88.53190582057933 -14.247497783161291 C88.75090168279341 -14.094735749858826, 88.9698975450075 -13.94197371655636, 89.42569151835067 -13.624031571755262 M89.42569151835067 -13.624031571755262 C89.63198287922818 -13.459519701099124, 89.83827424010566 -13.295007830442984, 90.2776952202324 -12.944581292275288 M89.42569151835067 -13.624031571755262 C89.6236891396529 -13.466133737704723, 89.82168676095512 -13.308235903654186, 90.2776952202324 -12.944581292275288 M90.2776952202324 -12.944581292275288 C90.57492885624733 -12.67464156841759, 90.87216249226225 -12.404701844559893, 91.08441586025927 -12.21193895166137 M90.2776952202324 -12.944581292275288 C90.54893832999788 -12.698245476685692, 90.82018143976336 -12.451909661096094, 91.08441586025927 -12.21193895166137 M91.08441586025927 -12.21193895166137 C91.3227283469703 -11.965861743313207, 91.5610408336813 -11.719784534965044, 91.84253845028036 -11.42911513444239 M91.08441586025927 -12.21193895166137 C91.27175595148074 -12.018494926567659, 91.45909604270223 -11.825050901473949, 91.84253845028036 -11.42911513444239 M91.84253845028036 -11.42911513444239 C92.00299478395232 -11.240633994687267, 92.16345111762429 -11.052152854932142, 92.54894770195651 -10.59932663159847 M91.84253845028036 -11.42911513444239 C92.10710951434335 -11.118334908073987, 92.37168057840633 -10.807554681705582, 92.54894770195651 -10.59932663159847 M92.54894770195651 -10.59932663159847 C92.7233736449337 -10.365611758539341, 92.89779958791088 -10.13189688548021, 93.20074082814824 -9.725983222076888 M92.54894770195651 -10.59932663159847 C92.68994724878424 -10.410400084172272, 92.83094679561198 -10.221473536746075, 93.20074082814824 -9.725983222076888 M93.20074082814824 -9.725983222076888 C93.34596915534154 -9.502873512241724, 93.49119748253483 -9.27976380240656, 93.79523947109088 -8.812673661278927 M93.20074082814824 -9.725983222076888 C93.39341334145506 -9.429986501823544, 93.58608585476186 -9.133989781570198, 93.79523947109088 -8.812673661278927 M93.79523947109088 -8.812673661278927 C93.90572506085229 -8.616495308778404, 94.0162106506137 -8.420316956277881, 94.330000708341 -7.863150934094199 M93.79523947109088 -8.812673661278927 C93.91798463567741 -8.594727192259848, 94.04072980026393 -8.37678072324077, 94.330000708341 -7.863150934094199 M94.330000708341 -7.863150934094199 C94.46985469977338 -7.572741128488813, 94.60970869120577 -7.282331322883428, 94.80282709126881 -6.881316833080699 M94.330000708341 -7.863150934094199 C94.43202096162796 -7.651303695260104, 94.53404121491492 -7.43945645642601, 94.80282709126881 -6.881316833080699 M94.80282709126881 -6.881316833080699 C94.94016451415276 -6.542090743318904, 95.07750193703671 -6.20286465355711, 95.21177567484592 -5.871205925162238 M94.80282709126881 -6.881316833080699 C94.93304854523838 -6.559667324115313, 95.06326999920796 -6.238017815149929, 95.21177567484592 -5.871205925162238 M95.21177567484592 -5.871205925162238 C95.34800157018934 -5.460915233036747, 95.48422746553275 -5.050624540911256, 95.55516600162323 -4.836968972727556 M95.21177567484592 -5.871205925162238 C95.33814169878035 -5.490611594763446, 95.46450772271479 -5.110017264364654, 95.55516600162323 -4.836968972727556 M95.55516600162323 -4.836968972727556 C95.6317233529907 -4.545022611797397, 95.70828070435819 -4.253076250867238, 95.831587007091 -3.7828558772573464 M95.55516600162323 -4.836968972727556 C95.63960351597825 -4.514972135041642, 95.72404103033328 -4.192975297355729, 95.831587007091 -3.7828558772573464 M95.831587007091 -3.7828558772573464 C95.9130664000709 -3.364476414981372, 95.99454579305079 -2.946096952705398, 96.03990281804565 -2.713198215567453 M95.831587007091 -3.7828558772573464 C95.88613426156776 -3.5027672540854753, 95.94068151604453 -3.222678630913604, 96.03990281804565 -2.713198215567453 M96.03990281804565 -2.713198215567453 C96.07175954002851 -2.466123770689722, 96.10361626201136 -2.2190493258119903, 96.17925742013637 -1.632391440430593 M96.03990281804565 -2.713198215567453 C96.06818968511739 -2.4938108604327196, 96.09647655218913 -2.274423505297986, 96.17925742013637 -1.632391440430593 M96.17925742013637 -1.632391440430593 C96.1977581725101 -1.3442272886711246, 96.21625892488385 -1.0560631369116562, 96.2490781754117 -0.5448768187181379 M96.17925742013637 -1.632391440430593 C96.20328657392658 -1.2581179741643227, 96.22731572771679 -0.8838445078980522, 96.2490781754117 -0.5448768187181379 M96.2490781754117 -0.5448768187181379 C96.2490781754117 -0.13194057974487694, 96.2490781754117 0.280995659228384, 96.2490781754117 0.5448768187181336 M96.2490781754117 -0.5448768187181379 C96.2490781754117 -0.1652626511110769, 96.2490781754117 0.21435151649598405, 96.2490781754117 0.5448768187181336 M96.2490781754117 0.5448768187181336 C96.23427910037863 0.7753843579565244, 96.21948002534556 1.0058918971949151, 96.17925742013637 1.6323914404305815 M96.2490781754117 0.5448768187181336 C96.23226501462942 0.8067553692412195, 96.21545185384714 1.0686339197643053, 96.17925742013637 1.6323914404305815 M96.17925742013637 1.6323914404305815 C96.14343089745732 1.9102548755821604, 96.10760437477828 2.1881183107337394, 96.03990281804565 2.7131982155674415 M96.17925742013637 1.6323914404305815 C96.13595598887714 1.968228790442375, 96.09265455761792 2.3040661404541685, 96.03990281804565 2.7131982155674415 M96.03990281804565 2.7131982155674415 C95.97017957933785 3.071212310320264, 95.90045634063006 3.429226405073087, 95.831587007091 3.782855877257343 M96.03990281804565 2.7131982155674415 C95.97997304514679 3.0209249332410737, 95.92004327224794 3.3286516509147055, 95.831587007091 3.782855877257343 M95.831587007091 3.782855877257343 C95.75716848675495 4.066645948489467, 95.68274996641888 4.350436019721591, 95.55516600162323 4.836968972727545 M95.831587007091 3.782855877257343 C95.72579845246261 4.186273485104989, 95.62000989783422 4.589691092952635, 95.55516600162323 4.836968972727545 M95.55516600162323 4.836968972727545 C95.42722497396588 5.222306963397016, 95.29928394630853 5.607644954066487, 95.21177567484592 5.871205925162227 M95.55516600162323 4.836968972727545 C95.4559347108409 5.135837810204813, 95.35670342005858 5.434706647682082, 95.21177567484592 5.871205925162227 M95.21177567484592 5.871205925162227 C95.10011798413932 6.147002579962125, 94.98846029343272 6.4227992347620235, 94.80282709126881 6.881316833080694 M95.21177567484592 5.871205925162227 C95.12852997518978 6.076824412759021, 95.04528427553363 6.282442900355816, 94.80282709126881 6.881316833080694 M94.80282709126881 6.881316833080694 C94.62061954901445 7.259674693188725, 94.4384120067601 7.638032553296756, 94.330000708341 7.863150934094196 M94.80282709126881 6.881316833080694 C94.65844108043831 7.181137473935971, 94.51405506960779 7.480958114791249, 94.330000708341 7.863150934094196 M94.330000708341 7.863150934094196 C94.1838572191591 8.122643497769653, 94.0377137299772 8.38213606144511, 93.79523947109088 8.812673661278923 M94.330000708341 7.863150934094196 C94.15475953849949 8.174309376240467, 93.97951836865796 8.485467818386738, 93.79523947109088 8.812673661278923 M93.79523947109088 8.812673661278923 C93.57559567709433 9.150105511474678, 93.35595188309776 9.487537361670432, 93.20074082814826 9.725983222076879 M93.79523947109088 8.812673661278923 C93.62548209407038 9.073466578620824, 93.45572471704988 9.334259495962723, 93.20074082814826 9.725983222076879 M93.20074082814826 9.725983222076879 C92.98951106709987 10.009011858454606, 92.77828130605148 10.292040494832332, 92.54894770195651 10.599326631598467 M93.20074082814826 9.725983222076879 C92.97274204747124 10.03148081706785, 92.74474326679423 10.336978412058821, 92.54894770195651 10.599326631598467 M92.54894770195651 10.599326631598467 C92.29794921572417 10.894163735745432, 92.04695072949184 11.189000839892396, 91.84253845028037 11.42911513444238 M92.54894770195651 10.599326631598467 C92.30164751192282 10.889819506591486, 92.05434732188914 11.180312381584507, 91.84253845028037 11.42911513444238 M91.84253845028037 11.42911513444238 C91.59026523534475 11.689607940879544, 91.33799202040913 11.950100747316707, 91.08441586025927 12.211938951661365 M91.84253845028037 11.42911513444238 C91.64847249359056 11.629504167835975, 91.45440653690073 11.829893201229568, 91.08441586025927 12.211938951661365 M91.08441586025927 12.211938951661365 C90.90287615281208 12.37680851068745, 90.7213364453649 12.541678069713537, 90.27769522023242 12.944581292275275 M91.08441586025927 12.211938951661365 C90.78461051978293 12.48421422946735, 90.4848051793066 12.756489507273335, 90.27769522023242 12.944581292275275 M90.27769522023242 12.944581292275275 C90.08194434560913 13.100687405637801, 89.88619347098584 13.256793519000325, 89.42569151835067 13.62403157175526 M90.27769522023242 12.944581292275275 C90.02685094324418 13.14462292792684, 89.77600666625595 13.344664563578403, 89.42569151835067 13.62403157175526 M89.42569151835067 13.62403157175526 C89.07364127419815 13.869606582066615, 88.72159103004564 14.11518159237797, 88.53190582057934 14.247497783161286 M89.42569151835067 13.62403157175526 C89.24437717389976 13.750508609472748, 89.06306282944885 13.876985647190233, 88.53190582057934 14.247497783161286 M88.53190582057934 14.247497783161286 C88.27638375865438 14.402396758714517, 88.0208616967294 14.557295734267745, 87.60001088406695 14.81241797009762 M88.53190582057934 14.247497783161286 C88.2883240611655 14.39515847716326, 88.04474230175167 14.542819171165236, 87.60001088406695 14.81241797009762 M87.60001088406695 14.81241797009762 C87.33507840432613 14.950633075081056, 87.07014592458529 15.088848180064494, 86.63383606499849 15.316470754341124 M87.60001088406695 14.81241797009762 C87.38052553171273 14.926923337833736, 87.16104017935851 15.041428705569855, 86.63383606499849 15.316470754341124 M86.63383606499849 15.316470754341124 C86.29907575919611 15.464659211408186, 85.96431545339375 15.612847668475249, 85.63735158294936 15.757584874882367 M86.63383606499849 15.316470754341124 C86.40712474047183 15.41682913255658, 86.18041341594515 15.517187510772038, 85.63735158294936 15.757584874882367 M85.63735158294936 15.757584874882367 C85.2529393468659 15.89905213122884, 84.86852711078242 16.040519387575312, 84.61465220640156 16.133947699181363 M85.63735158294936 15.757584874882367 C85.40922319877973 15.841538229052459, 85.18109481461009 15.92549158322255, 84.61465220640156 16.133947699181363 M84.61465220640156 16.133947699181363 C84.22854843766082 16.248541271043578, 83.84244466892008 16.36313484290579, 83.56994042646164 16.444012671663497 M84.61465220640156 16.133947699181363 C84.29570748905346 16.228608817115294, 83.97676277170537 16.323269935049225, 83.56994042646164 16.444012671663497 M83.56994042646164 16.444012671663497 C83.1692108516985 16.535476582098326, 82.76848127693535 16.62694049253315, 82.50750918792333 16.68650566884811 M83.56994042646164 16.444012671663497 C83.21706015588217 16.524555290664292, 82.86417988530268 16.60509790966509, 82.50750918792333 16.68650566884811 M82.50750918792333 16.68650566884811 C82.20624274844475 16.735212090426874, 81.90497630896617 16.78391851200564, 81.43172424863661 16.86043023499518 M82.50750918792333 16.68650566884811 C82.14764764810182 16.74468529183853, 81.7877861082803 16.80286491482895, 81.43172424863661 16.86043023499518 M81.43172424863661 16.86043023499518 C81.03890503154294 16.89832503243398, 80.64608581444925 16.93621982987278, 80.34700623967211 16.965071676755716 M81.43172424863661 16.86043023499518 C81.13989981727708 16.888582186918207, 80.84807538591754 16.916734138841235, 80.34700623967211 16.965071676755716 M80.34700623967211 16.965071676755716 C79.93279250651362 16.978354704959987, 79.51857877335513 16.99163773316426, 79.2578125 17 M80.34700623967211 16.965071676755716 C80.06554368455859 16.974097633064577, 79.78408112944508 16.98312358937344, 79.2578125 17 M79.2578125 17 C79.2578125 17, 79.2578125 17, 79.2578125 17 M79.2578125 17 C79.2578125 17, 79.2578125 17, 79.2578125 17 M79.2578125 17 C16.49700112268839 17, -46.26381025462322 17, -79.2578125 17 M79.2578125 17 C31.933272065057572 17, -15.391268369884855 17, -79.2578125 17 M-79.2578125 17 C-79.51921859847612 16.991617215217975, -79.78062469695222 16.98323443043595, -80.34700623967211 16.965071676755716 M-79.2578125 17 C-79.47687496608447 16.992975093091893, -79.69593743216893 16.98595018618379, -80.34700623967211 16.965071676755716 M-80.34700623967211 16.965071676755716 C-80.64747784295136 16.93608554255734, -80.94794944623061 16.907099408358963, -81.4317242486366 16.86043023499518 M-80.34700623967211 16.965071676755716 C-80.61707700141217 16.939018275178263, -80.88714776315223 16.912964873600814, -81.4317242486366 16.86043023499518 M-81.4317242486366 16.86043023499518 C-81.647072852437 16.825614342786096, -81.86242145623741 16.790798450577014, -82.50750918792333 16.68650566884811 M-81.4317242486366 16.86043023499518 C-81.7526833767064 16.80854005224407, -82.07364250477622 16.756649869492957, -82.50750918792333 16.68650566884811 M-82.50750918792333 16.68650566884811 C-82.75770042614523 16.62940115137437, -83.00789166436714 16.572296633900628, -83.56994042646161 16.4440126716635 M-82.50750918792333 16.68650566884811 C-82.82292648073917 16.614513730053087, -83.13834377355501 16.542521791258064, -83.56994042646161 16.4440126716635 M-83.56994042646161 16.4440126716635 C-83.81909906738431 16.37006369489804, -84.06825770830702 16.29611471813258, -84.61465220640154 16.13394769918137 M-83.56994042646161 16.4440126716635 C-83.9073360925685 16.34387540898897, -84.24473175867539 16.24373814631444, -84.61465220640154 16.13394769918137 M-84.61465220640154 16.13394769918137 C-84.94264952097507 16.013241655444375, -85.27064683554859 15.892535611707377, -85.63735158294936 15.757584874882369 M-84.61465220640154 16.13394769918137 C-85.01139993722215 15.98794086674357, -85.40814766804274 15.841934034305767, -85.63735158294936 15.757584874882369 M-85.63735158294936 15.757584874882369 C-85.86189690193993 15.65818532306547, -86.0864422209305 15.558785771248573, -86.63383606499849 15.316470754341127 M-85.63735158294936 15.757584874882369 C-85.8939274169436 15.644006364224817, -86.15050325093783 15.530427853567263, -86.63383606499849 15.316470754341127 M-86.63383606499849 15.316470754341127 C-86.97508340837878 15.138442233878987, -87.31633075175905 14.960413713416845, -87.60001088406693 14.812417970097624 M-86.63383606499849 15.316470754341127 C-86.86131125662214 15.19779709257588, -87.0887864482458 15.079123430810636, -87.60001088406693 14.812417970097624 M-87.60001088406693 14.812417970097624 C-87.82800924904276 14.67420402138216, -88.0560076140186 14.535990072666696, -88.53190582057931 14.247497783161299 M-87.60001088406693 14.812417970097624 C-87.92709729042149 14.614136268392409, -88.25418369677605 14.415854566687193, -88.53190582057931 14.247497783161299 M-88.53190582057931 14.247497783161299 C-88.73021947480056 14.109162762836284, -88.92853312902182 13.97082774251127, -89.42569151835067 13.624031571755264 M-88.53190582057931 14.247497783161299 C-88.8066038880099 14.055880302809397, -89.08130195544051 13.864262822457496, -89.42569151835067 13.624031571755264 M-89.42569151835067 13.624031571755264 C-89.6979228623647 13.406934319284387, -89.97015420637872 13.18983706681351, -90.2776952202324 12.94458129227529 M-89.42569151835067 13.624031571755264 C-89.70372361374008 13.402308374427001, -89.98175570912949 13.180585177098736, -90.2776952202324 12.94458129227529 M-90.2776952202324 12.94458129227529 C-90.58550479902112 12.665036777014535, -90.89331437780984 12.385492261753782, -91.08441586025926 12.211938951661377 M-90.2776952202324 12.94458129227529 C-90.49395164118414 12.748182932598278, -90.71020806213586 12.551784572921266, -91.08441586025926 12.211938951661377 M-91.08441586025926 12.211938951661377 C-91.30215525562383 11.987105149210626, -91.51989465098842 11.762271346759876, -91.84253845028036 11.429115134442386 M-91.08441586025926 12.211938951661377 C-91.28173992334612 12.008185655917318, -91.47906398643299 11.804432360173257, -91.84253845028036 11.429115134442386 M-91.84253845028036 11.429115134442386 C-92.11161682115916 11.113040369015106, -92.38069519203796 10.796965603587825, -92.54894770195651 10.599326631598473 M-91.84253845028036 11.429115134442386 C-91.99612266327277 11.248706378672212, -92.14970687626518 11.068297622902039, -92.54894770195651 10.599326631598473 M-92.54894770195651 10.599326631598473 C-92.79786843652631 10.265795524420364, -93.04678917109611 9.932264417242257, -93.20074082814824 9.72598322207689 M-92.54894770195651 10.599326631598473 C-92.7007203023297 10.395965173866733, -92.85249290270289 10.192603716134991, -93.20074082814824 9.72598322207689 M-93.20074082814824 9.72598322207689 C-93.33796842975295 9.515164775241429, -93.47519603135767 9.304346328405968, -93.79523947109088 8.812673661278936 M-93.20074082814824 9.72598322207689 C-93.33559239108276 9.518815008694576, -93.47044395401727 9.311646795312262, -93.79523947109088 8.812673661278936 M-93.79523947109088 8.812673661278936 C-93.97104469723885 8.500513680043673, -94.14684992338681 8.18835369880841, -94.330000708341 7.863150934094201 M-93.79523947109088 8.812673661278936 C-93.9479689858807 8.54148694222921, -94.10069850067053 8.270300223179483, -94.330000708341 7.863150934094201 M-94.330000708341 7.863150934094201 C-94.48803788485867 7.534983355601396, -94.64607506137632 7.2068157771085914, -94.80282709126881 6.881316833080701 M-94.330000708341 7.863150934094201 C-94.4820677831754 7.547380399486423, -94.63413485800979 7.231609864878646, -94.80282709126881 6.881316833080701 M-94.80282709126881 6.881316833080701 C-94.90932472357196 6.6182656223002825, -95.0158223558751 6.355214411519864, -95.21177567484592 5.87120592516224 M-94.80282709126881 6.881316833080701 C-94.933095765576 6.559550688968474, -95.06336443988317 6.237784544856248, -95.21177567484592 5.87120592516224 M-95.21177567484592 5.87120592516224 C-95.28827421466899 5.640804511602269, -95.36477275449205 5.410403098042298, -95.55516600162323 4.8369689727275516 M-95.21177567484592 5.87120592516224 C-95.30948665152431 5.576916031536885, -95.4071976282027 5.28262613791153, -95.55516600162323 4.8369689727275516 M-95.55516600162323 4.8369689727275516 C-95.64021917581803 4.512624357243899, -95.72527235001283 4.188279741760246, -95.831587007091 3.782855877257349 M-95.55516600162323 4.8369689727275516 C-95.62242351579305 4.580486921607006, -95.68968102996287 4.32400487048646, -95.831587007091 3.782855877257349 M-95.831587007091 3.782855877257349 C-95.89195255396828 3.4728915523053567, -95.95231810084556 3.162927227353365, -96.03990281804565 2.713198215567455 M-95.831587007091 3.782855877257349 C-95.87850976432188 3.5419174360050834, -95.92543252155274 3.300978994752817, -96.03990281804565 2.713198215567455 M-96.03990281804565 2.713198215567455 C-96.08107495251228 2.3938752710017566, -96.12224708697893 2.0745523264360575, -96.17925742013637 1.6323914404306026 M-96.03990281804565 2.713198215567455 C-96.09282551515243 2.3027402275759314, -96.14574821225919 1.8922822395844072, -96.17925742013637 1.6323914404306026 M-96.17925742013637 1.6323914404306026 C-96.20137576904997 1.2878803024913064, -96.22349411796358 0.9433691645520101, -96.2490781754117 0.54487681871814 M-96.17925742013637 1.6323914404306026 C-96.19808485551027 1.3391389372496099, -96.2169122908842 1.045886434068617, -96.2490781754117 0.54487681871814 M-96.2490781754117 0.54487681871814 C-96.2490781754117 0.14004019138733703, -96.2490781754117 -0.2647964359434659, -96.2490781754117 -0.5448768187181317 M-96.2490781754117 0.54487681871814 C-96.2490781754117 0.27992544485510257, -96.2490781754117 0.014974070992065158, -96.2490781754117 -0.5448768187181317 M-96.2490781754117 -0.5448768187181317 C-96.2232696398053 -0.9468655930628909, -96.19746110419888 -1.3488543674076499, -96.17925742013637 -1.6323914404305793 M-96.2490781754117 -0.5448768187181317 C-96.22682052961066 -0.8915576181175663, -96.20456288380963 -1.238238417517001, -96.17925742013637 -1.6323914404305793 M-96.17925742013637 -1.6323914404305793 C-96.12369340255097 -2.063334988466533, -96.06812938496559 -2.494278536502486, -96.03990281804565 -2.713198215567447 M-96.17925742013637 -1.6323914404305793 C-96.12737623922602 -2.0347716344731794, -96.0754950583157 -2.4371518285157796, -96.03990281804565 -2.713198215567447 M-96.03990281804565 -2.713198215567447 C-95.96908186333089 -3.07684885001367, -95.89826090861612 -3.4404994844598935, -95.831587007091 -3.782855877257341 M-96.03990281804565 -2.713198215567447 C-95.95666773901489 -3.1405927546501973, -95.87343265998413 -3.5679872937329478, -95.831587007091 -3.782855877257341 M-95.831587007091 -3.782855877257341 C-95.77587535042203 -3.99530856972091, -95.72016369375304 -4.207761262184479, -95.55516600162323 -4.836968972727544 M-95.831587007091 -3.782855877257341 C-95.77148123805212 -4.012065224607711, -95.71137546901322 -4.24127457195808, -95.55516600162323 -4.836968972727544 M-95.55516600162323 -4.836968972727544 C-95.44371630488935 -5.17263770219231, -95.33226660815546 -5.508306431657075, -95.21177567484594 -5.871205925162218 M-95.55516600162323 -4.836968972727544 C-95.42518703472722 -5.228444911682364, -95.2952080678312 -5.619920850637183, -95.21177567484594 -5.871205925162218 M-95.21177567484594 -5.871205925162218 C-95.09862801076747 -6.15068284299729, -94.985480346689 -6.430159760832363, -94.80282709126881 -6.881316833080692 M-95.21177567484594 -5.871205925162218 C-95.07711491123347 -6.203820614773773, -94.94245414762099 -6.536435304385328, -94.80282709126881 -6.881316833080692 M-94.80282709126881 -6.881316833080692 C-94.66632875146783 -7.1647585562740215, -94.52983041166686 -7.448200279467351, -94.330000708341 -7.863150934094194 M-94.80282709126881 -6.881316833080692 C-94.70189826035829 -7.09089770999741, -94.60096942944779 -7.300478586914128, -94.330000708341 -7.863150934094194 M-94.330000708341 -7.863150934094194 C-94.188965541253 -8.113573154618226, -94.04793037416499 -8.36399537514226, -93.79523947109088 -8.812673661278929 M-94.330000708341 -7.863150934094194 C-94.11889437059106 -8.23799161360393, -93.90778803284113 -8.612832293113664, -93.79523947109088 -8.812673661278929 M-93.79523947109088 -8.812673661278929 C-93.61336362605164 -9.092083799761925, -93.43148778101238 -9.371493938244921, -93.20074082814826 -9.725983222076884 M-93.79523947109088 -8.812673661278929 C-93.66542008295976 -9.012111102835117, -93.53560069482862 -9.211548544391304, -93.20074082814826 -9.725983222076884 M-93.20074082814826 -9.725983222076884 C-93.01191989057193 -9.978986076487855, -92.82309895299562 -10.231988930898826, -92.54894770195651 -10.599326631598467 M-93.20074082814826 -9.725983222076884 C-92.99035537832277 -10.007880558334245, -92.77996992849731 -10.289777894591605, -92.54894770195651 -10.599326631598467 M-92.54894770195651 -10.599326631598467 C-92.37269837842365 -10.80635911589078, -92.19644905489079 -11.013391600183093, -91.84253845028037 -11.42911513444238 M-92.54894770195651 -10.599326631598467 C-92.32685451627498 -10.86020992496026, -92.10476133059345 -11.121093218322054, -91.84253845028037 -11.42911513444238 M-91.84253845028037 -11.42911513444238 C-91.54119898459518 -11.740272873192577, -91.23985951891 -12.051430611942772, -91.08441586025927 -12.21193895166136 M-91.84253845028037 -11.42911513444238 C-91.63482243827778 -11.643598970636798, -91.42710642627519 -11.858082806831218, -91.08441586025927 -12.21193895166136 M-91.08441586025927 -12.21193895166136 C-90.87646657435708 -12.400792991081124, -90.6685172884549 -12.589647030500888, -90.27769522023242 -12.944581292275274 M-91.08441586025927 -12.21193895166136 C-90.82700399448326 -12.445713597414388, -90.56959212870724 -12.679488243167414, -90.27769522023242 -12.944581292275274 M-90.27769522023242 -12.944581292275274 C-90.10158443897441 -13.085024953823819, -89.92547365771641 -13.225468615372366, -89.42569151835067 -13.624031571755259 M-90.27769522023242 -12.944581292275274 C-90.02895497205746 -13.1429450209388, -89.78021472388252 -13.341308749602325, -89.42569151835067 -13.624031571755259 M-89.42569151835067 -13.624031571755259 C-89.09339347589271 -13.855828301223518, -88.76109543343476 -14.087625030691779, -88.53190582057934 -14.247497783161284 M-89.42569151835067 -13.624031571755259 C-89.09040162718479 -13.857915285367124, -88.7551117360189 -14.091798998978987, -88.53190582057934 -14.247497783161284 M-88.53190582057934 -14.247497783161284 C-88.19630750304572 -14.450939455444788, -87.8607091855121 -14.65438112772829, -87.60001088406695 -14.812417970097618 M-88.53190582057934 -14.247497783161284 C-88.16245136477666 -14.47146324542425, -87.79299690897398 -14.695428707687213, -87.60001088406695 -14.812417970097618 M-87.60001088406695 -14.812417970097618 C-87.35711953792845 -14.939134229798736, -87.11422819178996 -15.065850489499855, -86.63383606499849 -15.316470754341124 M-87.60001088406695 -14.812417970097618 C-87.32691303226 -14.954892944457784, -87.05381518045303 -15.09736791881795, -86.63383606499849 -15.316470754341124 M-86.63383606499849 -15.316470754341124 C-86.29200135981569 -15.467790838159305, -85.95016665463287 -15.619110921977486, -85.63735158294936 -15.757584874882365 M-86.63383606499849 -15.316470754341124 C-86.31769422928402 -15.456417366997568, -86.00155239356953 -15.596363979654011, -85.63735158294936 -15.757584874882365 M-85.63735158294936 -15.757584874882365 C-85.23519776656711 -15.90558119678016, -84.83304395018487 -16.053577518677955, -84.61465220640156 -16.133947699181363 M-85.63735158294936 -15.757584874882365 C-85.2737991916899 -15.891375515507312, -84.91024680043044 -16.025166156132258, -84.61465220640156 -16.133947699181363 M-84.61465220640156 -16.133947699181363 C-84.38425640382606 -16.202327964013527, -84.15386060125054 -16.270708228845688, -83.56994042646164 -16.444012671663494 M-84.61465220640156 -16.133947699181363 C-84.29462251436962 -16.228930831906307, -83.97459282233768 -16.323913964631256, -83.56994042646164 -16.444012671663494 M-83.56994042646164 -16.444012671663494 C-83.35468353700031 -16.493143652000565, -83.13942664753897 -16.542274632337637, -82.50750918792333 -16.68650566884811 M-83.56994042646164 -16.444012671663494 C-83.33086829794443 -16.498579324906107, -83.09179616942724 -16.553145978148724, -82.50750918792333 -16.68650566884811 M-82.50750918792333 -16.68650566884811 C-82.1832930349325 -16.738922422129846, -81.85907688194169 -16.791339175411586, -81.43172424863661 -16.86043023499518 M-82.50750918792333 -16.68650566884811 C-82.11060410763214 -16.750674204184723, -81.71369902734094 -16.814842739521335, -81.43172424863661 -16.86043023499518 M-81.43172424863661 -16.86043023499518 C-81.00688496215567 -16.901413970018, -80.58204567567473 -16.942397705040822, -80.34700623967213 -16.965071676755716 M-81.43172424863661 -16.86043023499518 C-81.18537209910428 -16.884195530578758, -80.93901994957197 -16.907960826162334, -80.34700623967213 -16.965071676755716 M-80.34700623967213 -16.965071676755716 C-79.93223426345463 -16.978372606728335, -79.51746228723714 -16.991673536700958, -79.2578125 -17 M-80.34700623967213 -16.965071676755716 C-80.05290868691338 -16.97450281284653, -79.75881113415463 -16.983933948937345, -79.2578125 -17 M-79.2578125 -17 C-79.2578125 -17, -79.2578125 -17, -79.2578125 -17 M-79.2578125 -17 C-79.2578125 -17, -79.2578125 -17, -79.2578125 -17" stroke="#9370DB" stroke-width="1.3" fill="none" stroke-dasharray="0 0" style=""></path></g><g class="label" style="" transform="translate(0, -9.5)"><rect></rect><g><rect class="background" style="stroke: none"></rect><text y="-10.1" style=""><tspan class="text-outer-tspan row" x="0" y="-0.1em" dy="1.1em"><tspan font-style="normal" class="text-inner-tspan" font-weight="normal">Project</tspan><tspan font-style="normal" class="text-inner-tspan" font-weight="normal"> or</tspan><tspan font-style="normal" class="text-inner-tspan" font-weight="normal"> existing</tspan><tspan font-style="normal" class="text-inner-tspan" font-weight="normal"> repo</tspan></tspan></text></g></g></g><g class="node default" id="c3639692-ecc5-4646-97b6-0855b36249fc-light-flowchart-init-1" data-look="classic" transform="translate(203.07421875, 134.0999984741211)"><rect class="basic label-container" style="" x="-122.1640625" y="-42.099998474121094" width="244.328125" height="84.19999694824219"></rect><g class="label" style="" transform="translate(0, -27.099998474121094)"><rect></rect><g><rect class="background" style="stroke: none"></rect><text y="-10.1" style=""><tspan class="text-outer-tspan row" x="0" y="-0.1em" dy="1.1em"><tspan font-style="normal" class="text-inner-tspan" font-weight="normal">pagesmith-docs</tspan><tspan font-style="normal" class="text-inner-tspan" font-weight="normal"> init</tspan></tspan><tspan class="text-outer-tspan row" x="0" y="1em" dy="1.1em"><tspan font-style="normal" class="text-inner-tspan" font-weight="normal">Scaffold</tspan><tspan font-style="normal" class="text-inner-tspan" font-weight="normal"> or</tspan><tspan font-style="normal" class="text-inner-tspan" font-weight="normal"> backfill</tspan><tspan font-style="normal" class="text-inner-tspan" font-weight="normal"> config</tspan></tspan><tspan class="text-outer-tspan row" x="0" y="2.1em" dy="1.1em"><tspan font-style="normal" class="text-inner-tspan" font-weight="normal">and</tspan><tspan font-style="normal" class="text-inner-tspan" font-weight="normal"> starter</tspan><tspan font-style="normal" class="text-inner-tspan" font-weight="normal"> docs</tspan></tspan></text></g></g></g><g class="node default" id="c3639692-ecc5-4646-97b6-0855b36249fc-light-flowchart-dev-2" data-look="classic" transform="translate(124.4921875, 291.2999954223633)"><rect class="basic label-container" style="" x="-115.5" y="-33.29999923706055" width="231" height="66.5999984741211"></rect><g class="label" style="" transform="translate(0, -18.299999237060547)"><rect></rect><g><rect class="background" style="stroke: none"></rect><text y="-10.1" style=""><tspan class="text-outer-tspan row" x="0" y="-0.1em" dy="1.1em"><tspan font-style="normal" class="text-inner-tspan" font-weight="normal">pagesmith-docs</tspan><tspan font-style="normal" class="text-inner-tspan" font-weight="normal"> dev</tspan></tspan><tspan class="text-outer-tspan row" x="0" y="1em" dy="1.1em"><tspan font-style="normal" class="text-inner-tspan" font-weight="normal">Live-reload</tspan><tspan font-style="normal" class="text-inner-tspan" font-weight="normal"> editing</tspan><tspan font-style="normal" class="text-inner-tspan" font-weight="normal"> loop</tspan></tspan></text></g></g></g><g class="node default" id="c3639692-ecc5-4646-97b6-0855b36249fc-light-flowchart-build-3" data-look="classic" transform="translate(124.4921875, 425.49999237060547)"><rect class="basic label-container" style="" x="-113.9765625" y="-42.099998474121094" width="227.953125" height="84.19999694824219"></rect><g class="label" style="" transform="translate(0, -27.099998474121094)"><rect></rect><g><rect class="background" style="stroke: none"></rect><text y="-10.1" style=""><tspan class="text-outer-tspan row" x="0" y="-0.1em" dy="1.1em"><tspan font-style="normal" class="text-inner-tspan" font-weight="normal">pagesmith-docs</tspan><tspan font-style="normal" class="text-inner-tspan" font-weight="normal"> build</tspan></tspan><tspan class="text-outer-tspan row" x="0" y="1em" dy="1.1em"><tspan font-style="normal" class="text-inner-tspan" font-weight="normal">Static</tspan><tspan font-style="normal" class="text-inner-tspan" font-weight="normal"> output</tspan><tspan font-style="normal" class="text-inner-tspan" font-weight="normal"> +</tspan><tspan font-style="normal" class="text-inner-tspan" font-weight="normal"> assets</tspan><tspan font-style="normal" class="text-inner-tspan" font-weight="normal"> +</tspan></tspan><tspan class="text-outer-tspan row" x="0" y="2.1em" dy="1.1em"><tspan font-style="normal" class="text-inner-tspan" font-weight="normal">Pagefind</tspan></tspan></text></g></g></g><g class="node default" id="c3639692-ecc5-4646-97b6-0855b36249fc-light-flowchart-preview-4" data-look="classic" transform="translate(124.4921875, 559.6999893188477)"><rect class="basic label-container" style="" x="-116.4921875" y="-42.099998474121094" width="232.984375" height="84.19999694824219"></rect><g class="label" style="" transform="translate(0, -27.099998474121094)"><rect></rect><g><rect class="background" style="stroke: none"></rect><text y="-10.1" style=""><tspan class="text-outer-tspan row" x="0" y="-0.1em" dy="1.1em"><tspan font-style="normal" class="text-inner-tspan" font-weight="normal">pagesmith-docs</tspan><tspan font-style="normal" class="text-inner-tspan" font-weight="normal"> preview</tspan></tspan><tspan class="text-outer-tspan row" x="0" y="1em" dy="1.1em"><tspan font-style="normal" class="text-inner-tspan" font-weight="normal">Serve</tspan><tspan font-style="normal" class="text-inner-tspan" font-weight="normal"> built</tspan><tspan font-style="normal" class="text-inner-tspan" font-weight="normal"> output</tspan><tspan font-style="normal" class="text-inner-tspan" font-weight="normal"> from</tspan></tspan><tspan class="text-outer-tspan row" x="0" y="2.1em" dy="1.1em"><tspan font-style="normal" class="text-inner-tspan" font-weight="normal">disk</tspan></tspan></text></g></g></g><g class="node default" id="c3639692-ecc5-4646-97b6-0855b36249fc-light-flowchart-mcp-5" data-look="classic" transform="translate(516.66015625, 291.2999954223633)"><rect class="basic label-container" style="" x="-128.828125" y="-42.099998474121094" width="257.65625" height="84.19999694824219"></rect><g class="label" style="" transform="translate(0, -27.099998474121094)"><rect></rect><g><rect class="background" style="stroke: none"></rect><text y="-10.1" style=""><tspan class="text-outer-tspan row" x="0" y="-0.1em" dy="1.1em"><tspan font-style="normal" class="text-inner-tspan" font-weight="normal">pagesmith-docs</tspan><tspan font-style="normal" class="text-inner-tspan" font-weight="normal"> mcp</tspan><tspan font-style="normal" class="text-inner-tspan" font-weight="normal"> --stdio</tspan></tspan><tspan class="text-outer-tspan row" x="0" y="1em" dy="1.1em"><tspan font-style="normal" class="text-inner-tspan" font-weight="normal">Expose</tspan><tspan font-style="normal" class="text-inner-tspan" font-weight="normal"> docs-aware</tspan><tspan font-style="normal" class="text-inner-tspan" font-weight="normal"> MCP</tspan></tspan><tspan class="text-outer-tspan row" x="0" y="2.1em" dy="1.1em"><tspan font-style="normal" class="text-inner-tspan" font-weight="normal">tools</tspan></tspan></text></g></g></g></g></g></g><defs><filter id="c3639692-ecc5-4646-97b6-0855b36249fc-light-drop-shadow" height="130%" width="130%"><feDropShadow dx="4" dy="4" stdDeviation="0" flood-opacity="0.06" flood-color="#000000"></feDropShadow></filter></defs><defs><filter id="c3639692-ecc5-4646-97b6-0855b36249fc-light-drop-shadow-small" height="150%" width="150%"><feDropShadow dx="2" dy="2" stdDeviation="0" flood-opacity="0.06" flood-color="#000000"></feDropShadow></filter></defs></svg>