<svg id="g4be4ac7c-aa7d-44b5-ab9a-3aee1f453d0d-dark" width="100%" xmlns="http://www.w3.org/2000/svg" xmlns:xlink="http://www.w3.org/1999/xlink" class="flowchart" style="max-width: 653.48828125px;" viewBox="0 0 653.48828125 609.800048828125" role="graphics-document document" aria-roledescription="flowchart-v2"><style>#g4be4ac7c-aa7d-44b5-ab9a-3aee1f453d0d-dark{font-family:"trebuchet ms",verdana,arial,sans-serif;font-size:16px;fill:#e5e5e5;}@keyframes edge-animation-frame{from{stroke-dashoffset:0;}}@keyframes dash{to{stroke-dashoffset:0;}}#g4be4ac7c-aa7d-44b5-ab9a-3aee1f453d0d-dark .edge-animation-slow{stroke-dasharray:9,5!important;stroke-dashoffset:900;animation:dash 50s linear infinite;stroke-linecap:round;}#g4be4ac7c-aa7d-44b5-ab9a-3aee1f453d0d-dark .edge-animation-fast{stroke-dasharray:9,5!important;stroke-dashoffset:900;animation:dash 20s linear infinite;stroke-linecap:round;}#g4be4ac7c-aa7d-44b5-ab9a-3aee1f453d0d-dark .error-icon{fill:#252525;}#g4be4ac7c-aa7d-44b5-ab9a-3aee1f453d0d-dark .error-text{fill:#cccccc;stroke:#cccccc;}#g4be4ac7c-aa7d-44b5-ab9a-3aee1f453d0d-dark .edge-thickness-normal{stroke-width:1px;}#g4be4ac7c-aa7d-44b5-ab9a-3aee1f453d0d-dark .edge-thickness-thick{stroke-width:3.5px;}#g4be4ac7c-aa7d-44b5-ab9a-3aee1f453d0d-dark .edge-pattern-solid{stroke-dasharray:0;}#g4be4ac7c-aa7d-44b5-ab9a-3aee1f453d0d-dark .edge-thickness-invisible{stroke-width:0;fill:none;}#g4be4ac7c-aa7d-44b5-ab9a-3aee1f453d0d-dark .edge-pattern-dashed{stroke-dasharray:3;}#g4be4ac7c-aa7d-44b5-ab9a-3aee1f453d0d-dark .edge-pattern-dotted{stroke-dasharray:2;}#g4be4ac7c-aa7d-44b5-ab9a-3aee1f453d0d-dark .marker{fill:#cccccc;stroke:#cccccc;}#g4be4ac7c-aa7d-44b5-ab9a-3aee1f453d0d-dark .marker.cross{stroke:#cccccc;}#g4be4ac7c-aa7d-44b5-ab9a-3aee1f453d0d-dark svg{font-family:"trebuchet ms",verdana,arial,sans-serif;font-size:16px;}#g4be4ac7c-aa7d-44b5-ab9a-3aee1f453d0d-dark p{margin:0;}#g4be4ac7c-aa7d-44b5-ab9a-3aee1f453d0d-dark .label{font-family:"trebuchet ms",verdana,arial,sans-serif;color:#e5e5e5;}#g4be4ac7c-aa7d-44b5-ab9a-3aee1f453d0d-dark .cluster-label text{fill:#e5e5e5;}#g4be4ac7c-aa7d-44b5-ab9a-3aee1f453d0d-dark .cluster-label span{color:#e5e5e5;}#g4be4ac7c-aa7d-44b5-ab9a-3aee1f453d0d-dark .cluster-label span p{background-color:transparent;}#g4be4ac7c-aa7d-44b5-ab9a-3aee1f453d0d-dark .label text,#g4be4ac7c-aa7d-44b5-ab9a-3aee1f453d0d-dark span{fill:#e5e5e5;color:#e5e5e5;}#g4be4ac7c-aa7d-44b5-ab9a-3aee1f453d0d-dark .node rect,#g4be4ac7c-aa7d-44b5-ab9a-3aee1f453d0d-dark .node circle,#g4be4ac7c-aa7d-44b5-ab9a-3aee1f453d0d-dark .node ellipse,#g4be4ac7c-aa7d-44b5-ab9a-3aee1f453d0d-dark .node polygon,#g4be4ac7c-aa7d-44b5-ab9a-3aee1f453d0d-dark .node path{fill:#2d2d2d;stroke:#555555;stroke-width:1px;}#g4be4ac7c-aa7d-44b5-ab9a-3aee1f453d0d-dark .rough-node .label text,#g4be4ac7c-aa7d-44b5-ab9a-3aee1f453d0d-dark .node .label text,#g4be4ac7c-aa7d-44b5-ab9a-3aee1f453d0d-dark .image-shape .label,#g4be4ac7c-aa7d-44b5-ab9a-3aee1f453d0d-dark .icon-shape .label{text-anchor:middle;}#g4be4ac7c-aa7d-44b5-ab9a-3aee1f453d0d-dark .node .katex path{fill:#000;stroke:#000;stroke-width:1px;}#g4be4ac7c-aa7d-44b5-ab9a-3aee1f453d0d-dark .rough-node .label,#g4be4ac7c-aa7d-44b5-ab9a-3aee1f453d0d-dark .node .label,#g4be4ac7c-aa7d-44b5-ab9a-3aee1f453d0d-dark .image-shape .label,#g4be4ac7c-aa7d-44b5-ab9a-3aee1f453d0d-dark .icon-shape .label{text-align:center;}#g4be4ac7c-aa7d-44b5-ab9a-3aee1f453d0d-dark .node.clickable{cursor:pointer;}#g4be4ac7c-aa7d-44b5-ab9a-3aee1f453d0d-dark .root .anchor path{fill:#cccccc!important;stroke-width:0;stroke:#cccccc;}#g4be4ac7c-aa7d-44b5-ab9a-3aee1f453d0d-dark .arrowheadPath{fill:#cccccc;}#g4be4ac7c-aa7d-44b5-ab9a-3aee1f453d0d-dark .edgePath .path{stroke:#cccccc;stroke-width:1px;}#g4be4ac7c-aa7d-44b5-ab9a-3aee1f453d0d-dark .flowchart-link{stroke:#cccccc;fill:none;}#g4be4ac7c-aa7d-44b5-ab9a-3aee1f453d0d-dark .edgeLabel{background-color:#1e1e1e;text-align:center;}#g4be4ac7c-aa7d-44b5-ab9a-3aee1f453d0d-dark .edgeLabel p{background-color:#1e1e1e;}#g4be4ac7c-aa7d-44b5-ab9a-3aee1f453d0d-dark .edgeLabel rect{opacity:0.5;background-color:#1e1e1e;fill:#1e1e1e;}#g4be4ac7c-aa7d-44b5-ab9a-3aee1f453d0d-dark .labelBkg{background-color:rgba(30, 30, 30, 0.5);}#g4be4ac7c-aa7d-44b5-ab9a-3aee1f453d0d-dark .cluster rect{fill:#1e1e1e;stroke:#555555;stroke-width:1px;}#g4be4ac7c-aa7d-44b5-ab9a-3aee1f453d0d-dark .cluster text{fill:#e5e5e5;}#g4be4ac7c-aa7d-44b5-ab9a-3aee1f453d0d-dark .cluster span{color:#e5e5e5;}#g4be4ac7c-aa7d-44b5-ab9a-3aee1f453d0d-dark div.mermaidTooltip{position:absolute;text-align:center;max-width:200px;padding:2px;font-family:"trebuchet ms",verdana,arial,sans-serif;font-size:12px;background:#252525;border:1px solid #555555;border-radius:2px;pointer-events:none;z-index:100;}#g4be4ac7c-aa7d-44b5-ab9a-3aee1f453d0d-dark .flowchartTitleText{text-anchor:middle;font-size:18px;fill:#e5e5e5;}#g4be4ac7c-aa7d-44b5-ab9a-3aee1f453d0d-dark rect.text{fill:none;stroke-width:0;}#g4be4ac7c-aa7d-44b5-ab9a-3aee1f453d0d-dark .icon-shape,#g4be4ac7c-aa7d-44b5-ab9a-3aee1f453d0d-dark .image-shape{background-color:#1e1e1e;text-align:center;}#g4be4ac7c-aa7d-44b5-ab9a-3aee1f453d0d-dark .icon-shape p,#g4be4ac7c-aa7d-44b5-ab9a-3aee1f453d0d-dark .image-shape p{background-color:#1e1e1e;padding:2px;}#g4be4ac7c-aa7d-44b5-ab9a-3aee1f453d0d-dark .icon-shape .label rect,#g4be4ac7c-aa7d-44b5-ab9a-3aee1f453d0d-dark .image-shape .label rect{opacity:0.5;background-color:#1e1e1e;fill:#1e1e1e;}#g4be4ac7c-aa7d-44b5-ab9a-3aee1f453d0d-dark .label-icon{display:inline-block;height:1em;overflow:visible;vertical-align:-0.125em;}#g4be4ac7c-aa7d-44b5-ab9a-3aee1f453d0d-dark .node .label-icon path{fill:currentColor;stroke:revert;stroke-width:revert;}#g4be4ac7c-aa7d-44b5-ab9a-3aee1f453d0d-dark .node .neo-node{stroke:#555555;}#g4be4ac7c-aa7d-44b5-ab9a-3aee1f453d0d-dark [data-look="neo"].node rect,#g4be4ac7c-aa7d-44b5-ab9a-3aee1f453d0d-dark [data-look="neo"].cluster rect,#g4be4ac7c-aa7d-44b5-ab9a-3aee1f453d0d-dark [data-look="neo"].node polygon{stroke:url(#g4be4ac7c-aa7d-44b5-ab9a-3aee1f453d0d-dark-gradient);filter:drop-shadow( 1px 2px 2px rgba(185,185,185,1));}#g4be4ac7c-aa7d-44b5-ab9a-3aee1f453d0d-dark [data-look="neo"].node path{stroke:url(#g4be4ac7c-aa7d-44b5-ab9a-3aee1f453d0d-dark-gradient);stroke-width:1px;}#g4be4ac7c-aa7d-44b5-ab9a-3aee1f453d0d-dark [data-look="neo"].node .outer-path{filter:drop-shadow( 1px 2px 2px rgba(185,185,185,1));}#g4be4ac7c-aa7d-44b5-ab9a-3aee1f453d0d-dark [data-look="neo"].node .neo-line path{stroke:#555555;filter:none;}#g4be4ac7c-aa7d-44b5-ab9a-3aee1f453d0d-dark [data-look="neo"].node circle{stroke:url(#g4be4ac7c-aa7d-44b5-ab9a-3aee1f453d0d-dark-gradient);filter:drop-shadow( 1px 2px 2px rgba(185,185,185,1));}#g4be4ac7c-aa7d-44b5-ab9a-3aee1f453d0d-dark [data-look="neo"].node circle .state-start{fill:#000000;}#g4be4ac7c-aa7d-44b5-ab9a-3aee1f453d0d-dark [data-look="neo"].icon-shape .icon{fill:url(#g4be4ac7c-aa7d-44b5-ab9a-3aee1f453d0d-dark-gradient);filter:drop-shadow( 1px 2px 2px rgba(185,185,185,1));}#g4be4ac7c-aa7d-44b5-ab9a-3aee1f453d0d-dark [data-look="neo"].icon-shape .icon-neo path{stroke:url(#g4be4ac7c-aa7d-44b5-ab9a-3aee1f453d0d-dark-gradient);filter:drop-shadow( 1px 2px 2px rgba(185,185,185,1));}#g4be4ac7c-aa7d-44b5-ab9a-3aee1f453d0d-dark :root{--mermaid-font-family:"trebuchet ms",verdana,arial,sans-serif;}</style><g><marker id="g4be4ac7c-aa7d-44b5-ab9a-3aee1f453d0d-dark_flowchart-v2-pointEnd" class="marker flowchart-v2" viewBox="0 0 10 10" refX="5" refY="5" markerUnits="userSpaceOnUse" markerWidth="8" markerHeight="8" orient="auto"><path d="M 0 0 L 10 5 L 0 10 z" class="arrowMarkerPath" style="stroke-width: 1; stroke-dasharray: 1, 0;"></path></marker><marker id="g4be4ac7c-aa7d-44b5-ab9a-3aee1f453d0d-dark_flowchart-v2-pointStart" class="marker flowchart-v2" viewBox="0 0 10 10" refX="4.5" refY="5" markerUnits="userSpaceOnUse" markerWidth="8" markerHeight="8" orient="auto"><path d="M 0 5 L 10 10 L 10 0 z" class="arrowMarkerPath" style="stroke-width: 1; stroke-dasharray: 1, 0;"></path></marker><marker id="g4be4ac7c-aa7d-44b5-ab9a-3aee1f453d0d-dark_flowchart-v2-pointEnd-margin" class="marker flowchart-v2" viewBox="0 0 11.5 14" refX="11.5" refY="7" markerUnits="userSpaceOnUse" markerWidth="10.5" markerHeight="14" orient="auto"><path d="M 0 0 L 11.5 7 L 0 14 z" class="arrowMarkerPath" style="stroke-width: 0; stroke-dasharray: 1, 0;"></path></marker><marker id="g4be4ac7c-aa7d-44b5-ab9a-3aee1f453d0d-dark_flowchart-v2-pointStart-margin" class="marker flowchart-v2" viewBox="0 0 11.5 14" refX="1" refY="7" markerUnits="userSpaceOnUse" markerWidth="11.5" markerHeight="14" orient="auto"><polygon points="0,7 11.5,14 11.5,0" class="arrowMarkerPath" style="stroke-width: 0; stroke-dasharray: 1, 0;"></polygon></marker><marker id="g4be4ac7c-aa7d-44b5-ab9a-3aee1f453d0d-dark_flowchart-v2-circleEnd" class="marker flowchart-v2" viewBox="0 0 10 10" refX="11" refY="5" markerUnits="userSpaceOnUse" markerWidth="11" markerHeight="11" orient="auto"><circle cx="5" cy="5" r="5" class="arrowMarkerPath" style="stroke-width: 1; stroke-dasharray: 1, 0;"></circle></marker><marker id="g4be4ac7c-aa7d-44b5-ab9a-3aee1f453d0d-dark_flowchart-v2-circleStart" class="marker flowchart-v2" viewBox="0 0 10 10" refX="-1" refY="5" markerUnits="userSpaceOnUse" markerWidth="11" markerHeight="11" orient="auto"><circle cx="5" cy="5" r="5" class="arrowMarkerPath" style="stroke-width: 1; stroke-dasharray: 1, 0;"></circle></marker><marker id="g4be4ac7c-aa7d-44b5-ab9a-3aee1f453d0d-dark_flowchart-v2-circleEnd-margin" class="marker flowchart-v2" viewBox="0 0 10 10" refY="5" refX="12.25" markerUnits="userSpaceOnUse" markerWidth="14" markerHeight="14" orient="auto"><circle cx="5" cy="5" r="5" class="arrowMarkerPath" style="stroke-width: 0; stroke-dasharray: 1, 0;"></circle></marker><marker id="g4be4ac7c-aa7d-44b5-ab9a-3aee1f453d0d-dark_flowchart-v2-circleStart-margin" class="marker flowchart-v2" viewBox="0 0 10 10" refX="-2" refY="5" markerUnits="userSpaceOnUse" markerWidth="14" markerHeight="14" orient="auto"><circle cx="5" cy="5" r="5" class="arrowMarkerPath" style="stroke-width: 0; stroke-dasharray: 1, 0;"></circle></marker><marker id="g4be4ac7c-aa7d-44b5-ab9a-3aee1f453d0d-dark_flowchart-v2-crossEnd" class="marker cross flowchart-v2" viewBox="0 0 11 11" refX="12" refY="5.2" markerUnits="userSpaceOnUse" markerWidth="11" markerHeight="11" orient="auto"><path d="M 1,1 l 9,9 M 10,1 l -9,9" class="arrowMarkerPath" style="stroke-width: 2; stroke-dasharray: 1, 0;"></path></marker><marker id="g4be4ac7c-aa7d-44b5-ab9a-3aee1f453d0d-dark_flowchart-v2-crossStart" class="marker cross flowchart-v2" viewBox="0 0 11 11" refX="-1" refY="5.2" markerUnits="userSpaceOnUse" markerWidth="11" markerHeight="11" orient="auto"><path d="M 1,1 l 9,9 M 10,1 l -9,9" class="arrowMarkerPath" style="stroke-width: 2; stroke-dasharray: 1, 0;"></path></marker><marker id="g4be4ac7c-aa7d-44b5-ab9a-3aee1f453d0d-dark_flowchart-v2-crossEnd-margin" class="marker cross flowchart-v2" viewBox="0 0 15 15" refX="17.7" refY="7.5" markerUnits="userSpaceOnUse" markerWidth="12" markerHeight="12" orient="auto"><path d="M 1,1 L 14,14 M 1,14 L 14,1" class="arrowMarkerPath" style="stroke-width: 2.5;"></path></marker><marker id="g4be4ac7c-aa7d-44b5-ab9a-3aee1f453d0d-dark_flowchart-v2-crossStart-margin" class="marker cross flowchart-v2" viewBox="0 0 15 15" refX="-3.5" refY="7.5" markerUnits="userSpaceOnUse" markerWidth="12" markerHeight="12" orient="auto"><path d="M 1,1 L 14,14 M 1,14 L 14,1" class="arrowMarkerPath" style="stroke-width: 2.5; stroke-dasharray: 1, 0;"></path></marker><g class="root"><g class="clusters"></g><g class="edgePaths"><path d="M203.574,42.5L203.491,46.583C203.408,50.667,203.241,58.833,203.158,66.417C203.074,74,203.074,81,203.074,84.5L203.074,88" id="g4be4ac7c-aa7d-44b5-ab9a-3aee1f453d0d-dark-L_start_init_0" class="edge-thickness-normal edge-pattern-solid edge-thickness-normal edge-pattern-solid flowchart-link" style=";" data-edge="true" data-et="edge" data-id="L_start_init_0" data-points="W3sieCI6MjAzLjU3NDIxODc1LCJ5Ijo0Mi41fSx7IngiOjIwMy4wNzQyMTg3NSwieSI6Njd9LHsieCI6MjAzLjA3NDIxODc1LCJ5Ijo5Mn1d" data-look="classic" marker-end="url(#g4be4ac7c-aa7d-44b5-ab9a-3aee1f453d0d-dark_flowchart-v2-pointEnd)"></path><path d="M139.96,42.5L124.285,46.583C108.61,50.667,77.26,58.833,61.585,74.1C45.91,89.367,45.91,111.733,45.91,136.017C45.91,160.3,45.91,186.5,52.987,206.679C60.064,226.857,74.218,241.014,81.295,248.093L88.372,255.171" id="g4be4ac7c-aa7d-44b5-ab9a-3aee1f453d0d-dark-L_start_dev_0" class="edge-thickness-normal edge-pattern-solid edge-thickness-normal edge-pattern-solid flowchart-link" style=";" data-edge="true" data-et="edge" data-id="L_start_dev_0" data-points="W3sieCI6MTM5Ljk2MDE5MzQ1MjM4MDk2LCJ5Ijo0Mi41fSx7IngiOjQ1LjkxMDE1NjI1LCJ5Ijo2N30seyJ4Ijo0NS45MTAxNTYyNSwieSI6MTM0LjA5OTk5ODQ3NDEyMTF9LHsieCI6NDUuOTEwMTU2MjUsInkiOjIxMi42OTk5OTY5NDgyNDIyfSx7IngiOjkxLjE5OTgwMDMzMTE0NzM0LCJ5IjoyNTcuOTk5OTk2MTg1MzAyNzN9XQ==" data-look="classic" marker-end="url(#g4be4ac7c-aa7d-44b5-ab9a-3aee1f453d0d-dark_flowchart-v2-pointEnd)"></path><path d="M203.074,176.2L203.074,182.283C203.074,188.367,203.074,200.533,195.997,213.695C188.92,226.857,174.767,241.014,167.69,248.093L160.613,255.171" id="g4be4ac7c-aa7d-44b5-ab9a-3aee1f453d0d-dark-L_init_dev_0" class="edge-thickness-normal edge-pattern-solid edge-thickness-normal edge-pattern-solid flowchart-link" style=";" data-edge="true" data-et="edge" data-id="L_init_dev_0" data-points="W3sieCI6MjAzLjA3NDIxODc1LCJ5IjoxNzYuMTk5OTk2OTQ4MjQyMn0seyJ4IjoyMDMuMDc0MjE4NzUsInkiOjIxMi42OTk5OTY5NDgyNDIyfSx7IngiOjE1Ny43ODQ1NzQ2Njg4NTI2NiwieSI6MjU3Ljk5OTk5NjE4NTMwMjczfV0=" data-look="classic" marker-end="url(#g4be4ac7c-aa7d-44b5-ab9a-3aee1f453d0d-dark_flowchart-v2-pointEnd)"></path><path d="M124.492,324.6L124.492,330.233C124.492,335.867,124.492,347.133,124.492,356.267C124.492,365.4,124.492,372.4,124.492,375.9L124.492,379.4" id="g4be4ac7c-aa7d-44b5-ab9a-3aee1f453d0d-dark-L_dev_build_0" class="edge-thickness-normal edge-pattern-solid edge-thickness-normal edge-pattern-solid flowchart-link" style=";" data-edge="true" data-et="edge" data-id="L_dev_build_0" data-points="W3sieCI6MTI0LjQ5MjE4NzUsInkiOjMyNC41OTk5OTQ2NTk0MjM4fSx7IngiOjEyNC40OTIxODc1LCJ5IjozNTguMzk5OTkzODk2NDg0NH0seyJ4IjoxMjQuNDkyMTg3NSwieSI6MzgzLjM5OTk5Mzg5NjQ4NDR9XQ==" data-look="classic" marker-end="url(#g4be4ac7c-aa7d-44b5-ab9a-3aee1f453d0d-dark_flowchart-v2-pointEnd)"></path><path d="M124.492,467.6L124.492,471.767C124.492,475.933,124.492,484.267,124.492,491.933C124.492,499.6,124.492,506.6,124.492,510.1L124.492,513.6" id="g4be4ac7c-aa7d-44b5-ab9a-3aee1f453d0d-dark-L_build_preview_0" class="edge-thickness-normal edge-pattern-solid edge-thickness-normal edge-pattern-solid flowchart-link" style=";" data-edge="true" data-et="edge" data-id="L_build_preview_0" data-points="W3sieCI6MTI0LjQ5MjE4NzUsInkiOjQ2Ny41OTk5OTA4NDQ3MjY1Nn0seyJ4IjoxMjQuNDkyMTg3NSwieSI6NDkyLjU5OTk5MDg0NDcyNjU2fSx7IngiOjEyNC40OTIxODc1LCJ5Ijo1MTcuNTk5OTkwODQ0NzI2Nn1d" data-look="classic" marker-end="url(#g4be4ac7c-aa7d-44b5-ab9a-3aee1f453d0d-dark_flowchart-v2-pointEnd)"></path><path d="M291.499,40.116L318.872,44.596C346.245,49.077,400.992,58.039,428.365,73.703C455.738,89.367,455.738,111.733,455.738,136.017C455.738,160.3,455.738,186.5,460.045,205.156C464.352,223.813,472.965,234.926,477.272,240.482L481.579,246.038" id="g4be4ac7c-aa7d-44b5-ab9a-3aee1f453d0d-dark-L_start_mcp_0" class="edge-thickness-normal edge-pattern-dotted edge-thickness-normal edge-pattern-solid flowchart-link" style=";" data-edge="true" data-et="edge" data-id="L_start_mcp_0" data-points="W3sieCI6MjkxLjQ5ODkwMzUyMTg2ODQ0LCJ5Ijo0MC4xMTU1OTk1NTg4NzQ2NH0seyJ4Ijo0NTUuNzM4MjgxMjUsInkiOjY3fSx7IngiOjQ1NS43MzgyODEyNSwieSI6MTM0LjA5OTk5ODQ3NDEyMTF9LHsieCI6NDU1LjczODI4MTI1LCJ5IjoyMTIuNjk5OTk2OTQ4MjQyMn0seyJ4Ijo0ODQuMDI4OTc0Mzg4MjcxOSwieSI6MjQ5LjE5OTk5Njk0ODI0MjJ9XQ==" data-look="classic" marker-end="url(#g4be4ac7c-aa7d-44b5-ab9a-3aee1f453d0d-dark_flowchart-v2-pointEnd)"></path><path d="M325.238,159.739L367.296,168.566C409.353,177.393,493.467,195.046,531.218,209.43C568.969,223.813,560.355,234.926,556.049,240.482L551.742,246.038" id="g4be4ac7c-aa7d-44b5-ab9a-3aee1f453d0d-dark-L_init_mcp_0" class="edge-thickness-normal edge-pattern-dotted edge-thickness-normal edge-pattern-solid flowchart-link" style=";" data-edge="true" data-et="edge" data-id="L_init_mcp_0" data-points="W3sieCI6MzI1LjIzODI4MTI1LCJ5IjoxNTkuNzM5MjM2OTc3NTcwMDJ9LHsieCI6NTc3LjU4MjAzMTI1LCJ5IjoyMTIuNjk5OTk2OTQ4MjQyMn0seyJ4Ijo1NDkuMjkxMzM4MTExNzI4MSwieSI6MjQ5LjE5OTk5Njk0ODI0MjJ9XQ==" data-look="classic" marker-end="url(#g4be4ac7c-aa7d-44b5-ab9a-3aee1f453d0d-dark_flowchart-v2-pointEnd)"></path></g><g class="edgeLabels"><g class="edgeLabel"><g class="label" data-id="L_start_init_0" transform="translate(0, 0)"><text y="-10.1" text-anchor="middle"><tspan class="text-outer-tspan row" x="0" y="-0.1em" dy="1.1em" text-anchor="middle"></tspan></text></g></g><g><rect class="background" style="stroke: none"></rect></g><g class="edgeLabel"><g class="label" data-id="L_start_dev_0" transform="translate(0, 0)"><text y="-10.1" text-anchor="middle"><tspan class="text-outer-tspan row" x="0" y="-0.1em" dy="1.1em" text-anchor="middle"></tspan></text></g></g><g><rect class="background" style="stroke: none"></rect></g><g class="edgeLabel"><g class="label" data-id="L_init_dev_0" transform="translate(0, 0)"><text y="-10.1" text-anchor="middle"><tspan class="text-outer-tspan row" x="0" y="-0.1em" dy="1.1em" text-anchor="middle"></tspan></text></g></g><g><rect class="background" style="stroke: none"></rect></g><g class="edgeLabel"><g class="label" data-id="L_dev_build_0" transform="translate(0, 0)"><text y="-10.1" text-anchor="middle"><tspan class="text-outer-tspan row" x="0" y="-0.1em" dy="1.1em" text-anchor="middle"></tspan></text></g></g><g><rect class="background" style="stroke: none"></rect></g><g class="edgeLabel"><g class="label" data-id="L_build_preview_0" transform="translate(0, 0)"><text y="-10.1" text-anchor="middle"><tspan class="text-outer-tspan row" x="0" y="-0.1em" dy="1.1em" text-anchor="middle"></tspan></text></g></g><g><rect class="background" style="stroke: none"></rect></g><g class="edgeLabel" transform="translate(455.73828125, 134.0999984741211)"><g class="label" data-id="L_start_mcp_0" transform="translate(0, -10.5)"><g><rect class="background" style="" x="-95.5" y="-1" width="191" height="23"></rect><text y="-10.1" text-anchor="middle" style=""><tspan class="text-outer-tspan row" x="0" y="-0.1em" dy="1.1em" text-anchor="middle"><tspan font-style="normal" class="text-inner-tspan" font-weight="normal">assistant</tspan><tspan font-style="normal" class="text-inner-tspan" font-weight="normal"> or</tspan><tspan font-style="normal" class="text-inner-tspan" font-weight="normal"> tooling</tspan><tspan font-style="normal" class="text-inner-tspan" font-weight="normal"> access</tspan></tspan></text></g></g></g><g class="edgeLabel" transform="translate(474.00794, 190.96234)"><g class="label" data-id="L_init_mcp_0" transform="translate(0, -10.5)"><g><rect class="background" style="" x="-101.84375" y="-1" width="203.6875" height="23"></rect><text y="-10.1" text-anchor="middle" style=""><tspan class="text-outer-tspan row" x="0" y="-0.1em" dy="1.1em" text-anchor="middle"><tspan font-style="normal" class="text-inner-tspan" font-weight="normal">project</tspan><tspan font-style="normal" class="text-inner-tspan" font-weight="normal"> metadata</tspan><tspan font-style="normal" class="text-inner-tspan" font-weight="normal"> +</tspan><tspan font-style="normal" class="text-inner-tspan" font-weight="normal"> content</tspan></tspan></text></g></g></g></g><g class="nodes"><g class="node default" id="g4be4ac7c-aa7d-44b5-ab9a-3aee1f453d0d-dark-flowchart-start-0" data-look="classic" transform="translate(203.07421875, 25)"><g class="basic label-container outer-path"><path d="M-79.2578125 -17 C-17.826336583476106 -17, 43.60513933304779 -17, 79.2578125 -17 C79.2578125 -17, 79.2578125 -17, 79.2578125 -17 C79.4842485733225 -16.992738635859627, 79.71068464664499 -16.98547727171925, 80.34700623967211 -16.965071676755716 C80.61041043226072 -16.939661391086585, 80.87381462484933 -16.91425110541745, 81.4317242486366 -16.860430234995185 C81.7573050898024 -16.80779284951263, 82.0828859309682 -16.75515546403008, 82.50750918792333 -16.686505668848113 C82.88204315103955 -16.60102073582935, 83.25657711415579 -16.515535802810593, 83.56994042646163 -16.4440126716635 C83.91395052017668 -16.341912281594702, 84.25796061389174 -16.239811891525907, 84.61465220640156 -16.133947699181366 C85.01514854431686 -15.986561344680972, 85.41564488223216 -15.839174990180576, 85.63735158294936 -15.757584874882369 C86.01490883793538 -15.590451477938096, 86.39246609292141 -15.423318080993823, 86.63383606499849 -15.316470754341125 C86.99843562494317 -15.126259397455145, 87.36303518488786 -14.936048040569167, 87.60001088406693 -14.812417970097622 C87.84183060993071 -14.665825431188555, 88.08365033579447 -14.519232892279488, 88.53190582057933 -14.247497783161291 C88.85467003728009 -14.022351437828593, 89.17743425398083 -13.797205092495895, 89.42569151835067 -13.624031571755262 C89.67654486797238 -13.423982700919932, 89.9273982175941 -13.2239338300846, 90.2776952202324 -12.944581292275288 C90.43928976997661 -12.797825397755089, 90.60088431972082 -12.651069503234888, 91.08441586025927 -12.21193895166137 C91.24244262602396 -12.048763341770574, 91.40046939178865 -11.88558773187978, 91.84253845028036 -11.42911513444239 C92.08495746768139 -11.144355962570282, 92.32737648508243 -10.859596790698173, 92.54894770195651 -10.59932663159847 C92.74852097262898 -10.331916630396337, 92.94809424330145 -10.064506629194202, 93.20074082814824 -9.725983222076888 C93.39917710210432 -9.421131817679836, 93.5976133760604 -9.116280413282784, 93.79523947109088 -8.812673661278927 C93.9212235392987 -8.588976190905692, 94.04720760750652 -8.365278720532459, 94.330000708341 -7.863150934094199 C94.45553456469905 -7.602477195372476, 94.5810684210571 -7.341803456650752, 94.80282709126881 -6.881316833080699 C94.96628645695287 -6.477569039569214, 95.12974582263693 -6.073821246057729, 95.21177567484592 -5.871205925162238 C95.3292054087453 -5.517526276544598, 95.44663514264465 -5.163846627926957, 95.55516600162323 -4.836968972727556 C95.66011364904963 -4.436758108492583, 95.76506129647603 -4.036547244257611, 95.831587007091 -3.7828558772573464 C95.9106959284099 -3.3766482859612763, 95.98980484972878 -2.970440694665206, 96.03990281804565 -2.713198215567453 C96.07010485847826 -2.478957154039551, 96.10030689891087 -2.24471609251165, 96.17925742013637 -1.632391440430593 C96.20098954405182 -1.2938960685926986, 96.22272166796728 -0.9554006967548042, 96.2490781754117 -0.5448768187181379 C96.2490781754117 -0.2272976933041463, 96.2490781754117 0.0902814321098453, 96.2490781754117 0.5448768187181336 C96.23209802088961 0.8093564315336621, 96.21511786636752 1.0738360443491906, 96.17925742013637 1.6323914404305815 C96.12780931976621 2.031412747324932, 96.07636121939606 2.4304340542192833, 96.03990281804565 2.7131982155674415 C95.98131332814025 3.0140428633386342, 95.92272383823483 3.314887511109827, 95.831587007091 3.782855877257343 C95.76736466693502 4.027763494410369, 95.70314232677906 4.272671111563396, 95.55516600162323 4.836968972727545 C95.46262280674772 5.115694330936888, 95.37007961187219 5.394419689146231, 95.21177567484592 5.871205925162227 C95.11960725640623 6.098863700663418, 95.02743883796654 6.326521476164609, 94.80282709126881 6.881316833080694 C94.63534633185631 7.229094213514939, 94.46786557244381 7.576871593949185, 94.330000708341 7.863150934094196 C94.13572081791042 8.208114552525865, 93.94144092747983 8.553078170957535, 93.79523947109088 8.812673661278923 C93.67108368172292 9.003410294245668, 93.54692789235496 9.194146927212415, 93.20074082814826 9.725983222076879 C92.9888252194992 10.00993083175749, 92.77690961085017 10.293878441438103, 92.54894770195651 10.599326631598467 C92.31527712683403 10.87380938536971, 92.08160655171157 11.148292139140956, 91.84253845028037 11.42911513444238 C91.62992848396536 11.6486523802655, 91.41731851765034 11.868189626088617, 91.08441586025927 12.211938951661365 C90.81354729173918 12.457934618801708, 90.54267872321911 12.703930285942054, 90.27769522023242 12.944581292275275 C90.08630565830799 13.097209374819862, 89.89491609638357 13.24983745736445, 89.42569151835067 13.62403157175526 C89.19528223194854 13.784755115692137, 88.9648729455464 13.945478659629014, 88.53190582057934 14.247497783161286 C88.24256890727835 14.422895520336779, 87.95323199397737 14.598293257512273, 87.60001088406695 14.81241797009762 C87.3510843147031 14.942282801889661, 87.10215774533926 15.072147633681702, 86.63383606499849 15.316470754341124 C86.33887257395976 15.447042342042888, 86.04390908292103 15.577613929744652, 85.63735158294936 15.757584874882367 C85.35515675600398 15.861435179778656, 85.07296192905858 15.965285484674945, 84.61465220640156 16.133947699181363 C84.34176561823804 16.214939006137364, 84.06887903007453 16.295930313093365, 83.56994042646164 16.444012671663497 C83.33757393582623 16.49704880681797, 83.10520744519081 16.550084941972443, 82.50750918792333 16.68650566884811 C82.22942180814337 16.731464679811094, 81.95133442836341 16.77642369077408, 81.43172424863661 16.86043023499518 C81.11833805653285 16.890662224045393, 80.8049518644291 16.920894213095604, 80.34700623967211 16.965071676755716 C79.97274137403626 16.97707362253429, 79.59847650840041 16.989075568312867, 79.2578125 17 C79.2578125 17, 79.2578125 17, 79.2578125 17 C43.73237671431721 17, 8.206940928634424 17, -79.2578125 17 C-79.57539049709592 16.989815891761204, -79.89296849419183 16.97963178352241, -80.34700623967211 16.965071676755716 C-80.65093628045035 16.93575191125119, -80.9548663212286 16.906432145746667, -81.4317242486366 16.86043023499518 C-81.6592124049868 16.82365171407348, -81.88670056133701 16.78687319315178, -82.50750918792333 16.68650566884811 C-82.76589040471148 16.627531842211226, -83.02427162149964 16.568558015574343, -83.56994042646161 16.4440126716635 C-83.86821722067593 16.355485684827535, -84.16649401489023 16.266958697991573, -84.61465220640154 16.13394769918137 C-84.82938835526187 16.05492281140157, -85.04412450412218 15.975897923621773, -85.63735158294936 15.757584874882369 C-86.02856308900891 15.58440714602681, -86.41977459506847 15.411229417171253, -86.63383606499849 15.316470754341127 C-86.96390787494937 15.144272502510834, -87.29397968490026 14.97207425068054, -87.60001088406693 14.812417970097624 C-87.846457078348 14.663020838845851, -88.09290327262904 14.513623707594078, -88.53190582057931 14.247497783161299 C-88.72152158482031 14.11523003436092, -88.9111373490613 13.982962285560541, -89.42569151835067 13.624031571755264 C-89.60186691678372 13.483536379729157, -89.77804231521677 13.343041187703049, -90.2776952202324 12.94458129227529 C-90.53085502918097 12.714668252029687, -90.78401483812955 12.484755211784085, -91.08441586025926 12.211938951661377 C-91.30462020461752 11.984559886998577, -91.52482454897577 11.757180822335775, -91.84253845028036 11.429115134442386 C-92.04613514495742 11.189958871894595, -92.24973183963448 10.950802609346804, -92.54894770195651 10.599326631598473 C-92.80033469024104 10.26249096912296, -93.05172167852558 9.925655306647446, -93.20074082814824 9.72598322207689 C-93.35789939996685 9.484545452777997, -93.51505797178547 9.243107683479103, -93.79523947109088 8.812673661278936 C-93.93929087272595 8.556895810889724, -94.08334227436102 8.30111796050051, -94.330000708341 7.863150934094201 C-94.4250839751038 7.665708496205248, -94.5201672418666 7.468266058316294, -94.80282709126881 6.881316833080701 C-94.96248073118988 6.486969255782491, -95.12213437111097 6.0926216784842815, -95.21177567484592 5.87120592516224 C-95.33917756755498 5.4874917230575555, -95.46657946026403 5.103777520952871, -95.55516600162323 4.8369689727275516 C-95.61072939715302 4.625081664244534, -95.6662927926828 4.413194355761516, -95.831587007091 3.782855877257349 C-95.89992445311711 3.43195753503762, -95.96826189914322 3.081059192817891, -96.03990281804565 2.713198215567455 C-96.07842159813788 2.4144541635655536, -96.11694037823011 2.115710111563652, -96.17925742013637 1.6323914404306026 C-96.20655657899785 1.207185005678628, -96.23385573785933 0.7819785709266532, -96.2490781754117 0.54487681871814 C-96.2490781754117 0.312879951648778, -96.2490781754117 0.08088308457941606, -96.2490781754117 -0.5448768187181317 C-96.23321479513389 -0.7919617712350654, -96.21735141485608 -1.0390467237519991, -96.17925742013637 -1.6323914404305793 C-96.14216870021173 -1.920044228169988, -96.10507998028707 -2.207697015909397, -96.03990281804565 -2.713198215567447 C-95.95839806458105 -3.1317078985724365, -95.87689331111645 -3.5502175815774266, -95.831587007091 -3.782855877257341 C-95.75346540316589 -4.080767411141134, -95.67534379924076 -4.378678945024927, -95.55516600162323 -4.836968972727544 C-95.45722904267748 -5.131939488936829, -95.35929208373173 -5.426910005146113, -95.21177567484594 -5.871205925162218 C-95.09323043589472 -6.16401495728798, -94.97468519694351 -6.456823989413742, -94.80282709126881 -6.881316833080692 C-94.67584470823762 -7.144998468432691, -94.54886232520644 -7.40868010378469, -94.330000708341 -7.863150934094194 C-94.13758664148932 -8.204801593826408, -93.94517257463762 -8.546452253558623, -93.79523947109088 -8.812673661278929 C-93.65906835698586 -9.021869059608264, -93.52289724288083 -9.231064457937599, -93.20074082814826 -9.725983222076884 C-92.94035981137372 -10.074870063356139, -92.67997879459918 -10.423756904635392, -92.54894770195651 -10.599326631598467 C-92.39905612060154 -10.775397812130606, -92.24916453924658 -10.951468992662745, -91.84253845028037 -11.42911513444238 C-91.60735932178247 -11.671956893182, -91.37218019328456 -11.914798651921618, -91.08441586025927 -12.21193895166136 C-90.83509092799679 -12.438369258365936, -90.5857659957343 -12.664799565070513, -90.27769522023242 -12.944581292275274 C-89.96269017488139 -13.195789433306414, -89.64768512953036 -13.446997574337553, -89.42569151835067 -13.624031571755259 C-89.12953069794702 -13.830620539473568, -88.83336987754336 -14.037209507191879, -88.53190582057934 -14.247497783161284 C-88.23313600774989 -14.4286137994648, -87.93436619492046 -14.609729815768317, -87.60001088406695 -14.812417970097618 C-87.28167952662234 -14.9784912353755, -86.96334816917775 -15.144564500653384, -86.63383606499849 -15.316470754341124 C-86.4138135759235 -15.413868183519382, -86.19379108684849 -15.511265612697638, -85.63735158294936 -15.757584874882365 C-85.40230387449809 -15.844084604349634, -85.16725616604681 -15.9305843338169, -84.61465220640156 -16.133947699181363 C-84.38179185790047 -16.203059428307576, -84.14893150939938 -16.272171157433785, -83.56994042646164 -16.444012671663494 C-83.20309487835466 -16.52774277412799, -82.83624933024767 -16.61147287659249, -82.50750918792333 -16.68650566884811 C-82.15669892207536 -16.743221952056167, -81.80588865622738 -16.799938235264225, -81.43172424863661 -16.86043023499518 C-81.19248214119366 -16.88350963336947, -80.95324003375072 -16.906589031743763, -80.34700623967213 -16.965071676755716 C-80.01648226891315 -16.975670937172076, -79.68595829815419 -16.986270197588436, -79.2578125 -17 C-79.2578125 -17, -79.2578125 -17, -79.2578125 -17" stroke="none" stroke-width="0" fill="#2d2d2d" style=""></path><path d="M-79.2578125 -17 C-20.613009846427623 -17, 38.031792807144754 -17, 79.2578125 -17 M-79.2578125 -17 C-32.92229528550565 -17, 13.413221928988705 -17, 79.2578125 -17 M79.2578125 -17 C79.2578125 -17, 79.2578125 -17, 79.2578125 -17 M79.2578125 -17 C79.2578125 -17, 79.2578125 -17, 79.2578125 -17 M79.2578125 -17 C79.63575210732121 -16.987880212408026, 80.0136917146424 -16.975760424816055, 80.34700623967211 -16.965071676755716 M79.2578125 -17 C79.53705137899877 -16.991045352656016, 79.81629025799754 -16.98209070531203, 80.34700623967211 -16.965071676755716 M80.34700623967211 -16.965071676755716 C80.62465569635626 -16.938287167591724, 80.9023051530404 -16.911502658427732, 81.4317242486366 -16.860430234995185 M80.34700623967211 -16.965071676755716 C80.7201199713487 -16.929077843795792, 81.09323370302526 -16.893084010835867, 81.4317242486366 -16.860430234995185 M81.4317242486366 -16.860430234995185 C81.65801464591533 -16.823845358471402, 81.88430504319406 -16.787260481947616, 82.50750918792333 -16.686505668848113 M81.4317242486366 -16.860430234995185 C81.67237648632633 -16.821523447491487, 81.91302872401606 -16.782616659987788, 82.50750918792333 -16.686505668848113 M82.50750918792333 -16.686505668848113 C82.7746970897846 -16.625521773812284, 83.04188499164584 -16.564537878776456, 83.56994042646163 -16.4440126716635 M82.50750918792333 -16.686505668848113 C82.74621567807499 -16.63202247017642, 82.98492216822666 -16.577539271504726, 83.56994042646163 -16.4440126716635 M83.56994042646163 -16.4440126716635 C83.95827384689602 -16.32875735088229, 84.34660726733043 -16.213502030101083, 84.61465220640156 -16.133947699181366 M83.56994042646163 -16.4440126716635 C83.95858607339414 -16.32866468369656, 84.34723172032668 -16.213316695729617, 84.61465220640156 -16.133947699181366 M84.61465220640156 -16.133947699181366 C84.98786509139055 -15.996601907563326, 85.36107797637955 -15.859256115945286, 85.63735158294936 -15.757584874882369 M84.61465220640156 -16.133947699181366 C84.83709574017156 -16.05208642250852, 85.05953927394157 -15.970225145835672, 85.63735158294936 -15.757584874882369 M85.63735158294936 -15.757584874882369 C85.90783533380777 -15.637849741992744, 86.17831908466617 -15.518114609103119, 86.63383606499849 -15.316470754341125 M85.63735158294936 -15.757584874882369 C85.99063990228531 -15.60119461583799, 86.34392822162124 -15.444804356793611, 86.63383606499849 -15.316470754341125 M86.63383606499849 -15.316470754341125 C87.01479738444745 -15.117723478001976, 87.39575870389639 -14.918976201662828, 87.60001088406693 -14.812417970097622 M86.63383606499849 -15.316470754341125 C87.01816055626203 -15.11596891342052, 87.40248504752557 -14.915467072499913, 87.60001088406693 -14.812417970097622 M87.60001088406693 -14.812417970097622 C87.94664258751249 -14.602287794434929, 88.29327429095805 -14.392157618772236, 88.53190582057933 -14.247497783161291 M87.60001088406693 -14.812417970097622 C87.83508017263323 -14.66991758594826, 88.07014946119952 -14.527417201798897, 88.53190582057933 -14.247497783161291 M88.53190582057933 -14.247497783161291 C88.73658887496978 -14.104719745005122, 88.94127192936025 -13.961941706848952, 89.42569151835067 -13.624031571755262 M88.53190582057933 -14.247497783161291 C88.77578798748252 -14.077376141018478, 89.0196701543857 -13.907254498875663, 89.42569151835067 -13.624031571755262 M89.42569151835067 -13.624031571755262 C89.62172875232892 -13.467697094427498, 89.81776598630717 -13.311362617099732, 90.2776952202324 -12.944581292275288 M89.42569151835067 -13.624031571755262 C89.62495731785903 -13.465122399332973, 89.82422311736738 -13.306213226910685, 90.2776952202324 -12.944581292275288 M90.2776952202324 -12.944581292275288 C90.49109377525383 -12.750778370821195, 90.70449233027524 -12.5569754493671, 91.08441586025927 -12.21193895166137 M90.2776952202324 -12.944581292275288 C90.56846749087669 -12.680509609488848, 90.85923976152097 -12.416437926702407, 91.08441586025927 -12.21193895166137 M91.08441586025927 -12.21193895166137 C91.29924739913208 -11.990107749777819, 91.51407893800491 -11.768276547894267, 91.84253845028036 -11.42911513444239 M91.08441586025927 -12.21193895166137 C91.26626851735972 -12.02416115282434, 91.44812117446017 -11.836383353987307, 91.84253845028036 -11.42911513444239 M91.84253845028036 -11.42911513444239 C92.11529315368831 -11.108721939637116, 92.38804785709627 -10.78832874483184, 92.54894770195651 -10.59932663159847 M91.84253845028036 -11.42911513444239 C92.04413668322923 -11.19230637875623, 92.2457349161781 -10.955497623070071, 92.54894770195651 -10.59932663159847 M92.54894770195651 -10.59932663159847 C92.75944306954874 -10.317282015547361, 92.96993843714097 -10.035237399496252, 93.20074082814824 -9.725983222076888 M92.54894770195651 -10.59932663159847 C92.71061484975446 -10.382707381729368, 92.8722819975524 -10.166088131860265, 93.20074082814824 -9.725983222076888 M93.20074082814824 -9.725983222076888 C93.4204617755538 -9.388432843526326, 93.64018272295937 -9.050882464975764, 93.79523947109088 -8.812673661278927 M93.20074082814824 -9.725983222076888 C93.3310652795746 -9.525769867670757, 93.46138973100095 -9.325556513264626, 93.79523947109088 -8.812673661278927 M93.79523947109088 -8.812673661278927 C93.92161510625274 -8.588280924128316, 94.04799074141462 -8.363888186977707, 94.330000708341 -7.863150934094199 M93.79523947109088 -8.812673661278927 C93.91437506190046 -8.601136356009793, 94.03351065271005 -8.38959905074066, 94.330000708341 -7.863150934094199 M94.330000708341 -7.863150934094199 C94.50138197669465 -7.507274063386144, 94.6727632450483 -7.151397192678088, 94.80282709126881 -6.881316833080699 M94.330000708341 -7.863150934094199 C94.47912433323228 -7.553492536273036, 94.62824795812355 -7.243834138451874, 94.80282709126881 -6.881316833080699 M94.80282709126881 -6.881316833080699 C94.94104399499676 -6.539918408630631, 95.0792608987247 -6.198519984180562, 95.21177567484592 -5.871205925162238 M94.80282709126881 -6.881316833080699 C94.9005502127661 -6.639938833634362, 94.9982733342634 -6.398560834188026, 95.21177567484592 -5.871205925162238 M95.21177567484592 -5.871205925162238 C95.28857799615143 -5.63988957017818, 95.36538031745692 -5.408573215194122, 95.55516600162323 -4.836968972727556 M95.21177567484592 -5.871205925162238 C95.30715085734784 -5.58395107143818, 95.40252603984973 -5.296696217714121, 95.55516600162323 -4.836968972727556 M95.55516600162323 -4.836968972727556 C95.6651354362643 -4.417607857386704, 95.77510487090537 -3.9982467420458523, 95.831587007091 -3.7828558772573464 M95.55516600162323 -4.836968972727556 C95.64259382659804 -4.5035687846395795, 95.73002165157286 -4.170168596551602, 95.831587007091 -3.7828558772573464 M95.831587007091 -3.7828558772573464 C95.89047793435888 -3.480463412338661, 95.94936886162677 -3.1780709474199753, 96.03990281804565 -2.713198215567453 M95.831587007091 -3.7828558772573464 C95.88307563124742 -3.518472674338706, 95.93456425540384 -3.254089471420065, 96.03990281804565 -2.713198215567453 M96.03990281804565 -2.713198215567453 C96.08191954955052 -2.387324743157767, 96.12393628105539 -2.0614512707480808, 96.17925742013637 -1.632391440430593 M96.03990281804565 -2.713198215567453 C96.09451738006271 -2.2896184574282588, 96.14913194207976 -1.8660386992890647, 96.17925742013637 -1.632391440430593 M96.17925742013637 -1.632391440430593 C96.20185126904528 -1.2804740062477054, 96.22444511795419 -0.9285565720648176, 96.2490781754117 -0.5448768187181379 M96.17925742013637 -1.632391440430593 C96.20546528441913 -1.2241827996192987, 96.23167314870189 -0.8159741588080041, 96.2490781754117 -0.5448768187181379 M96.2490781754117 -0.5448768187181379 C96.2490781754117 -0.20124209798822523, 96.2490781754117 0.1423926227416874, 96.2490781754117 0.5448768187181336 M96.2490781754117 -0.5448768187181379 C96.2490781754117 -0.2855306351178789, 96.2490781754117 -0.026184451517619944, 96.2490781754117 0.5448768187181336 M96.2490781754117 0.5448768187181336 C96.22702036087952 0.8884450848041254, 96.20496254634735 1.2320133508901172, 96.17925742013637 1.6323914404305815 M96.2490781754117 0.5448768187181336 C96.2350536881185 0.7633195286719693, 96.22102920082531 0.9817622386258049, 96.17925742013637 1.6323914404305815 M96.17925742013637 1.6323914404305815 C96.14674151107157 1.884578410144628, 96.11422560200677 2.136765379858674, 96.03990281804565 2.7131982155674415 M96.17925742013637 1.6323914404305815 C96.1314169552095 2.0034326392349526, 96.08357649028265 2.374473838039324, 96.03990281804565 2.7131982155674415 M96.03990281804565 2.7131982155674415 C95.99030508586993 2.967872087805299, 95.94070735369424 3.2225459600431567, 95.831587007091 3.782855877257343 M96.03990281804565 2.7131982155674415 C95.96436714268482 3.1010579440746775, 95.88883146732398 3.4889176725819135, 95.831587007091 3.782855877257343 M95.831587007091 3.782855877257343 C95.75426991051786 4.077699475932341, 95.67695281394472 4.372543074607338, 95.55516600162323 4.836968972727545 M95.831587007091 3.782855877257343 C95.75365648928707 4.080038716943832, 95.67572597148312 4.377221556630322, 95.55516600162323 4.836968972727545 M95.55516600162323 4.836968972727545 C95.46230120370453 5.116662948062494, 95.3694364057858 5.396356923397443, 95.21177567484592 5.871205925162227 M95.55516600162323 4.836968972727545 C95.47194248808228 5.087624935646762, 95.3887189745413 5.338280898565978, 95.21177567484592 5.871205925162227 M95.21177567484592 5.871205925162227 C95.11182879637167 6.118076647335067, 95.01188191789743 6.364947369507906, 94.80282709126881 6.881316833080694 M95.21177567484592 5.871205925162227 C95.09289254758498 6.164849547945665, 94.97400942032404 6.458493170729103, 94.80282709126881 6.881316833080694 M94.80282709126881 6.881316833080694 C94.61502951394297 7.271282520622259, 94.42723193661712 7.6612482081638245, 94.330000708341 7.863150934094196 M94.80282709126881 6.881316833080694 C94.70143075117312 7.091868502823527, 94.60003441107743 7.302420172566359, 94.330000708341 7.863150934094196 M94.330000708341 7.863150934094196 C94.15985077421706 8.1652693716804, 93.9897008400931 8.467387809266606, 93.79523947109088 8.812673661278923 M94.330000708341 7.863150934094196 C94.14112228800133 8.198523695421304, 93.95224386766165 8.533896456748414, 93.79523947109088 8.812673661278923 M93.79523947109088 8.812673661278923 C93.64381998212754 9.045294658152601, 93.4924004931642 9.277915655026279, 93.20074082814826 9.725983222076879 M93.79523947109088 8.812673661278923 C93.58283511474207 9.138983791186526, 93.37043075839327 9.465293921094126, 93.20074082814826 9.725983222076879 M93.20074082814826 9.725983222076879 C92.9400304797248 10.075311337762953, 92.67932013130135 10.424639453449025, 92.54894770195651 10.599326631598467 M93.20074082814826 9.725983222076879 C93.0180919326744 9.970716102355164, 92.83544303720053 10.215448982633449, 92.54894770195651 10.599326631598467 M92.54894770195651 10.599326631598467 C92.3533395772732 10.82909906526908, 92.1577314525899 11.058871498939693, 91.84253845028037 11.42911513444238 M92.54894770195651 10.599326631598467 C92.39823614499973 10.776361002130429, 92.24752458804295 10.953395372662392, 91.84253845028037 11.42911513444238 M91.84253845028037 11.42911513444238 C91.5981477682565 11.681468578480182, 91.35375708623262 11.933822022517983, 91.08441586025927 12.211938951661365 M91.84253845028037 11.42911513444238 C91.66878110556446 11.608533858604863, 91.49502376084855 11.787952582767346, 91.08441586025927 12.211938951661365 M91.08441586025927 12.211938951661365 C90.76194676790486 12.504796849273008, 90.43947767555044 12.797654746884652, 90.27769522023242 12.944581292275275 M91.08441586025927 12.211938951661365 C90.7904280279948 12.478930922432157, 90.49644019573034 12.74592289320295, 90.27769522023242 12.944581292275275 M90.27769522023242 12.944581292275275 C89.9526474253911 13.203798258776128, 89.6275996305498 13.463015225276981, 89.42569151835067 13.62403157175526 M90.27769522023242 12.944581292275275 C89.96340094848289 13.195222610273696, 89.64910667673337 13.445863928272116, 89.42569151835067 13.62403157175526 M89.42569151835067 13.62403157175526 C89.1344646457895 13.827178831045805, 88.84323777322835 14.030326090336349, 88.53190582057934 14.247497783161286 M89.42569151835067 13.62403157175526 C89.11314656901217 13.842049398561006, 88.80060161967367 14.06006722536675, 88.53190582057934 14.247497783161286 M88.53190582057934 14.247497783161286 C88.25060793766657 14.418022212872854, 87.9693100547538 14.588546642584424, 87.60001088406695 14.81241797009762 M88.53190582057934 14.247497783161286 C88.1719776725288 14.465688341682107, 87.81204952447824 14.683878900202927, 87.60001088406695 14.81241797009762 M87.60001088406695 14.81241797009762 C87.32757629026175 14.954546923183106, 87.05514169645654 15.096675876268593, 86.63383606499849 15.316470754341124 M87.60001088406695 14.81241797009762 C87.2724647917803 14.983298556640284, 86.94491869949363 15.154179143182947, 86.63383606499849 15.316470754341124 M86.63383606499849 15.316470754341124 C86.24534156544395 15.488445745014047, 85.85684706588941 15.660420735686973, 85.63735158294936 15.757584874882367 M86.63383606499849 15.316470754341124 C86.35580522065175 15.439546761641463, 86.077774376305 15.562622768941804, 85.63735158294936 15.757584874882367 M85.63735158294936 15.757584874882367 C85.29568372418791 15.883321805249645, 84.95401586542646 16.009058735616925, 84.61465220640156 16.133947699181363 M85.63735158294936 15.757584874882367 C85.33751028674492 15.867929243588161, 85.03766899054048 15.978273612293954, 84.61465220640156 16.133947699181363 M84.61465220640156 16.133947699181363 C84.33806549330845 16.216037183794114, 84.06147878021535 16.298126668406866, 83.56994042646164 16.444012671663497 M84.61465220640156 16.133947699181363 C84.24025117406359 16.245067960308152, 83.86585014172562 16.35618822143494, 83.56994042646164 16.444012671663497 M83.56994042646164 16.444012671663497 C83.23891796072267 16.519566389344952, 82.9078954949837 16.595120107026407, 82.50750918792333 16.68650566884811 M83.56994042646164 16.444012671663497 C83.16557355343457 16.536306771691475, 82.7612066804075 16.628600871719456, 82.50750918792333 16.68650566884811 M82.50750918792333 16.68650566884811 C82.14236474117348 16.74553939126115, 81.77722029442361 16.80457311367419, 81.43172424863661 16.86043023499518 M82.50750918792333 16.68650566884811 C82.1742597246195 16.740382857686885, 81.84101026131567 16.794260046525665, 81.43172424863661 16.86043023499518 M81.43172424863661 16.86043023499518 C81.05922587145706 16.89636470544685, 80.6867274942775 16.932299175898518, 80.34700623967211 16.965071676755716 M81.43172424863661 16.86043023499518 C81.20485207400806 16.882316320827886, 80.97797989937952 16.904202406660595, 80.34700623967211 16.965071676755716 M80.34700623967211 16.965071676755716 C80.10777633788862 16.972743314073156, 79.86854643610512 16.9804149513906, 79.2578125 17 M80.34700623967211 16.965071676755716 C80.07985189062646 16.973638796745217, 79.81269754158082 16.982205916734713, 79.2578125 17 M79.2578125 17 C79.2578125 17, 79.2578125 17, 79.2578125 17 M79.2578125 17 C79.2578125 17, 79.2578125 17, 79.2578125 17 M79.2578125 17 C45.23502476119231 17, 11.212237022384613 17, -79.2578125 17 M79.2578125 17 C18.27652209535961 17, -42.70476830928078 17, -79.2578125 17 M-79.2578125 17 C-79.48545175598098 16.99270005213362, -79.71309101196195 16.985400104267246, -80.34700623967211 16.965071676755716 M-79.2578125 17 C-79.68425599376762 16.986324787176777, -80.11069948753524 16.972649574353557, -80.34700623967211 16.965071676755716 M-80.34700623967211 16.965071676755716 C-80.64467258157148 16.936356162748837, -80.94233892347084 16.907640648741957, -81.4317242486366 16.86043023499518 M-80.34700623967211 16.965071676755716 C-80.68434902601545 16.93252862387123, -81.02169181235878 16.89998557098675, -81.4317242486366 16.86043023499518 M-81.4317242486366 16.86043023499518 C-81.84252779582724 16.794014703314488, -82.25333134301788 16.727599171633795, -82.50750918792333 16.68650566884811 M-81.4317242486366 16.86043023499518 C-81.6682251392016 16.82219460510043, -81.90472602976659 16.78395897520568, -82.50750918792333 16.68650566884811 M-82.50750918792333 16.68650566884811 C-82.72123448290995 16.637724264955306, -82.93495977789655 16.588942861062502, -83.56994042646161 16.4440126716635 M-82.50750918792333 16.68650566884811 C-82.89918302602867 16.597108671211224, -83.29085686413399 16.507711673574338, -83.56994042646161 16.4440126716635 M-83.56994042646161 16.4440126716635 C-83.89136245732288 16.348616300082547, -84.21278448818416 16.253219928501593, -84.61465220640154 16.13394769918137 M-83.56994042646161 16.4440126716635 C-83.8694940172826 16.355106738296715, -84.1690476081036 16.26620080492993, -84.61465220640154 16.13394769918137 M-84.61465220640154 16.13394769918137 C-84.9974913228329 15.993059365408632, -85.38033043926426 15.852171031635894, -85.63735158294936 15.757584874882369 M-84.61465220640154 16.13394769918137 C-85.01060835128932 15.98823217768419, -85.4065644961771 15.842516656187009, -85.63735158294936 15.757584874882369 M-85.63735158294936 15.757584874882369 C-85.8528554392594 15.662187710388682, -86.06835929556944 15.566790545894996, -86.63383606499849 15.316470754341127 M-85.63735158294936 15.757584874882369 C-85.85042757899348 15.663262452108489, -86.06350357503759 15.568940029334609, -86.63383606499849 15.316470754341127 M-86.63383606499849 15.316470754341127 C-86.97588331678664 15.13802492217497, -87.31793056857478 14.959579090008813, -87.60001088406693 14.812417970097624 M-86.63383606499849 15.316470754341127 C-86.90640893761729 15.174269661287155, -87.17898181023608 15.032068568233186, -87.60001088406693 14.812417970097624 M-87.60001088406693 14.812417970097624 C-87.83249121571072 14.67148702684909, -88.06497154735449 14.530556083600553, -88.53190582057931 14.247497783161299 M-87.60001088406693 14.812417970097624 C-87.81609312831058 14.681427643796905, -88.03217537255424 14.550437317496186, -88.53190582057931 14.247497783161299 M-88.53190582057931 14.247497783161299 C-88.82780228431496 14.041093219210785, -89.1236987480506 13.834688655260273, -89.42569151835067 13.624031571755264 M-88.53190582057931 14.247497783161299 C-88.7672357845852 14.083341787540748, -89.00256574859108 13.919185791920198, -89.42569151835067 13.624031571755264 M-89.42569151835067 13.624031571755264 C-89.76028890351034 13.357199061100793, -90.09488628867001 13.090366550446323, -90.2776952202324 12.94458129227529 M-89.42569151835067 13.624031571755264 C-89.65698742155975 13.439579243988504, -89.88828332476884 13.255126916221743, -90.2776952202324 12.94458129227529 M-90.2776952202324 12.94458129227529 C-90.53638434681004 12.709646672056703, -90.79507347338766 12.474712051838118, -91.08441586025926 12.211938951661377 M-90.2776952202324 12.94458129227529 C-90.58433930163983 12.666095250898856, -90.89098338304726 12.387609209522422, -91.08441586025926 12.211938951661377 M-91.08441586025926 12.211938951661377 C-91.29695454573549 11.992475309156564, -91.50949323121174 11.773011666651751, -91.84253845028036 11.429115134442386 M-91.08441586025926 12.211938951661377 C-91.26125788091926 12.029335046330004, -91.43809990157928 11.846731140998632, -91.84253845028036 11.429115134442386 M-91.84253845028036 11.429115134442386 C-92.02480047733569 11.215019786460052, -92.20706250439103 11.000924438477721, -92.54894770195651 10.599326631598473 M-91.84253845028036 11.429115134442386 C-92.00206249374894 11.241729115808981, -92.1615865372175 11.054343097175577, -92.54894770195651 10.599326631598473 M-92.54894770195651 10.599326631598473 C-92.72803739084287 10.359362763897034, -92.90712707972925 10.119398896195595, -93.20074082814824 9.72598322207689 M-92.54894770195651 10.599326631598473 C-92.77781732177434 10.292662191493886, -93.00668694159215 9.985997751389299, -93.20074082814824 9.72598322207689 M-93.20074082814824 9.72598322207689 C-93.41074257388169 9.403364147265776, -93.62074431961513 9.080745072454661, -93.79523947109088 8.812673661278936 M-93.20074082814824 9.72598322207689 C-93.37937387406947 9.451554893852654, -93.55800691999072 9.177126565628416, -93.79523947109088 8.812673661278936 M-93.79523947109088 8.812673661278936 C-93.99057913010348 8.465828316416696, -94.18591878911607 8.118982971554454, -94.330000708341 7.863150934094201 M-93.79523947109088 8.812673661278936 C-93.91102353691984 8.607087327991609, -94.02680760274879 8.401500994704284, -94.330000708341 7.863150934094201 M-94.330000708341 7.863150934094201 C-94.51804021330312 7.472682878639477, -94.70607971826526 7.082214823184753, -94.80282709126881 6.881316833080701 M-94.330000708341 7.863150934094201 C-94.51437208777217 7.480299819789807, -94.69874346720336 7.097448705485414, -94.80282709126881 6.881316833080701 M-94.80282709126881 6.881316833080701 C-94.9059526579841 6.626594689496737, -95.0090782246994 6.3718725459127725, -95.21177567484592 5.87120592516224 M-94.80282709126881 6.881316833080701 C-94.93152662238421 6.563426502989485, -95.06022615349963 6.2455361728982695, -95.21177567484592 5.87120592516224 M-95.21177567484592 5.87120592516224 C-95.31525291689442 5.559548958971731, -95.41873015894292 5.247891992781222, -95.55516600162323 4.8369689727275516 M-95.21177567484592 5.87120592516224 C-95.30037422481968 5.6043612089031924, -95.38897277479344 5.337516492644144, -95.55516600162323 4.8369689727275516 M-95.55516600162323 4.8369689727275516 C-95.63390979619452 4.5366847562508115, -95.7126535907658 4.236400539774072, -95.831587007091 3.782855877257349 M-95.55516600162323 4.8369689727275516 C-95.66067320872992 4.434624264916957, -95.7661804158366 4.032279557106364, -95.831587007091 3.782855877257349 M-95.831587007091 3.782855877257349 C-95.9128698550133 3.365485632312351, -95.9941527029356 2.948115387367353, -96.03990281804565 2.713198215567455 M-95.831587007091 3.782855877257349 C-95.89907118466925 3.4363388881790247, -95.96655536224749 3.0898218991007, -96.03990281804565 2.713198215567455 M-96.03990281804565 2.713198215567455 C-96.09461611797344 2.288852665690624, -96.14932941790123 1.864507115813792, -96.17925742013637 1.6323914404306026 M-96.03990281804565 2.713198215567455 C-96.06857609777799 2.4908139201429504, -96.09724937751032 2.2684296247184452, -96.17925742013637 1.6323914404306026 M-96.17925742013637 1.6323914404306026 C-96.20109186330845 1.29230236358008, -96.22292630648055 0.9522132867295574, -96.2490781754117 0.54487681871814 M-96.17925742013637 1.6323914404306026 C-96.20031909116072 1.3043389135513466, -96.22138076218509 0.9762863866720907, -96.2490781754117 0.54487681871814 M-96.2490781754117 0.54487681871814 C-96.2490781754117 0.20130261116207676, -96.2490781754117 -0.14227159639398645, -96.2490781754117 -0.5448768187181317 M-96.2490781754117 0.54487681871814 C-96.2490781754117 0.12239029814646168, -96.2490781754117 -0.3000962224252166, -96.2490781754117 -0.5448768187181317 M-96.2490781754117 -0.5448768187181317 C-96.23322230640805 -0.7918447770770506, -96.2173664374044 -1.0388127354359695, -96.17925742013637 -1.6323914404305793 M-96.2490781754117 -0.5448768187181317 C-96.22644732193733 -0.8973706288774792, -96.20381646846296 -1.2498644390368268, -96.17925742013637 -1.6323914404305793 M-96.17925742013637 -1.6323914404305793 C-96.13556764163224 -1.9712407349859802, -96.09187786312812 -2.310090029541381, -96.03990281804565 -2.713198215567447 M-96.17925742013637 -1.6323914404305793 C-96.13801225791924 -1.9522807738080994, -96.0967670957021 -2.2721701071856195, -96.03990281804565 -2.713198215567447 M-96.03990281804565 -2.713198215567447 C-95.96312690542062 -3.1074263003020555, -95.88635099279561 -3.5016543850366637, -95.831587007091 -3.782855877257341 M-96.03990281804565 -2.713198215567447 C-95.9730652041295 -3.0563952368921594, -95.90622759021336 -3.3995922582168716, -95.831587007091 -3.782855877257341 M-95.831587007091 -3.782855877257341 C-95.73275026974511 -4.159763192870148, -95.63391353239922 -4.536670508482956, -95.55516600162323 -4.836968972727544 M-95.831587007091 -3.782855877257341 C-95.76813979506586 -4.024807594904843, -95.70469258304072 -4.266759312552344, -95.55516600162323 -4.836968972727544 M-95.55516600162323 -4.836968972727544 C-95.46068176800846 -5.121540430356999, -95.36619753439369 -5.406111887986456, -95.21177567484594 -5.871205925162218 M-95.55516600162323 -4.836968972727544 C-95.45621115184109 -5.135005213957176, -95.35725630205894 -5.4330414551868085, -95.21177567484594 -5.871205925162218 M-95.21177567484594 -5.871205925162218 C-95.0977334117181 -6.152892519945131, -94.98369114859027 -6.434579114728043, -94.80282709126881 -6.881316833080692 M-95.21177567484594 -5.871205925162218 C-95.1155530415693 -6.108877689693554, -95.01933040829267 -6.34654945422489, -94.80282709126881 -6.881316833080692 M-94.80282709126881 -6.881316833080692 C-94.61394263376184 -7.27353945057387, -94.42505817625488 -7.665762068067049, -94.330000708341 -7.863150934094194 M-94.80282709126881 -6.881316833080692 C-94.70243995885339 -7.089772861481863, -94.60205282643795 -7.298228889883033, -94.330000708341 -7.863150934094194 M-94.330000708341 -7.863150934094194 C-94.19264843961733 -8.107033795638454, -94.05529617089367 -8.350916657182715, -93.79523947109088 -8.812673661278929 M-94.330000708341 -7.863150934094194 C-94.12466810219378 -8.227739768489583, -93.91933549604656 -8.592328602884972, -93.79523947109088 -8.812673661278929 M-93.79523947109088 -8.812673661278929 C-93.57286580218916 -9.154299332403076, -93.35049213328742 -9.495925003527223, -93.20074082814826 -9.725983222076884 M-93.79523947109088 -8.812673661278929 C-93.59185015542478 -9.125134267820512, -93.38846083975868 -9.437594874362093, -93.20074082814826 -9.725983222076884 M-93.20074082814826 -9.725983222076884 C-92.9831872588233 -10.017485185434428, -92.76563368949834 -10.308987148791969, -92.54894770195651 -10.599326631598467 M-93.20074082814826 -9.725983222076884 C-93.03148851420119 -9.952765903562941, -92.86223620025413 -10.179548585049, -92.54894770195651 -10.599326631598467 M-92.54894770195651 -10.599326631598467 C-92.36229252852846 -10.818582419287312, -92.17563735510039 -11.037838206976154, -91.84253845028037 -11.42911513444238 M-92.54894770195651 -10.599326631598467 C-92.28220406102976 -10.912658890374178, -92.01546042010301 -11.225991149149891, -91.84253845028037 -11.42911513444238 M-91.84253845028037 -11.42911513444238 C-91.68199366512472 -11.594890806087578, -91.52144887996907 -11.760666477732775, -91.08441586025927 -12.21193895166136 M-91.84253845028037 -11.42911513444238 C-91.68629163221256 -11.590452802199735, -91.53004481414473 -11.75179046995709, -91.08441586025927 -12.21193895166136 M-91.08441586025927 -12.21193895166136 C-90.80127607469376 -12.469079013443752, -90.51813628912825 -12.726219075226144, -90.27769522023242 -12.944581292275274 M-91.08441586025927 -12.21193895166136 C-90.86188424416977 -12.41403627752992, -90.63935262808029 -12.616133603398483, -90.27769522023242 -12.944581292275274 M-90.27769522023242 -12.944581292275274 C-90.05470895545213 -13.122406904523835, -89.83172269067185 -13.300232516772398, -89.42569151835067 -13.624031571755259 M-90.27769522023242 -12.944581292275274 C-90.08072626254832 -13.101658794464239, -89.88375730486423 -13.258736296653204, -89.42569151835067 -13.624031571755259 M-89.42569151835067 -13.624031571755259 C-89.19008043311082 -13.788383665379092, -88.95446934787095 -13.952735759002925, -88.53190582057934 -14.247497783161284 M-89.42569151835067 -13.624031571755259 C-89.13304966455233 -13.82816586070331, -88.84040781075399 -14.032300149651363, -88.53190582057934 -14.247497783161284 M-88.53190582057934 -14.247497783161284 C-88.19239896564649 -14.45330883378532, -87.85289211071364 -14.659119884409353, -87.60001088406695 -14.812417970097618 M-88.53190582057934 -14.247497783161284 C-88.33330656120616 -14.367889821292101, -88.13470730183298 -14.48828185942292, -87.60001088406695 -14.812417970097618 M-87.60001088406695 -14.812417970097618 C-87.30579403611824 -14.965910711217573, -87.01157718816954 -15.119403452337528, -86.63383606499849 -15.316470754341124 M-87.60001088406695 -14.812417970097618 C-87.22348928388202 -15.008849047740503, -86.84696768369707 -15.20528012538339, -86.63383606499849 -15.316470754341124 M-86.63383606499849 -15.316470754341124 C-86.37899640979477 -15.429280710150032, -86.12415675459104 -15.54209066595894, -85.63735158294936 -15.757584874882365 M-86.63383606499849 -15.316470754341124 C-86.2512950353981 -15.485810320468756, -85.86875400579771 -15.655149886596387, -85.63735158294936 -15.757584874882365 M-85.63735158294936 -15.757584874882365 C-85.27424720148397 -15.891210643761738, -84.91114282001857 -16.024836412641115, -84.61465220640156 -16.133947699181363 M-85.63735158294936 -15.757584874882365 C-85.26897938764077 -15.893149247951174, -84.90060719233217 -16.028713621019982, -84.61465220640156 -16.133947699181363 M-84.61465220640156 -16.133947699181363 C-84.32009782583121 -16.221369893187145, -84.02554344526087 -16.30879208719293, -83.56994042646164 -16.444012671663494 M-84.61465220640156 -16.133947699181363 C-84.23135226081469 -16.247709111049073, -83.84805231522782 -16.361470522916786, -83.56994042646164 -16.444012671663494 M-83.56994042646164 -16.444012671663494 C-83.24519735438366 -16.518133158718705, -82.92045428230568 -16.592253645773912, -82.50750918792333 -16.68650566884811 M-83.56994042646164 -16.444012671663494 C-83.27194065723462 -16.512029174359334, -82.9739408880076 -16.58004567705517, -82.50750918792333 -16.68650566884811 M-82.50750918792333 -16.68650566884811 C-82.0779936640308 -16.75594640780842, -81.64847814013825 -16.82538714676873, -81.43172424863661 -16.86043023499518 M-82.50750918792333 -16.68650566884811 C-82.23409239779667 -16.730709575096913, -81.96067560767001 -16.774913481345717, -81.43172424863661 -16.86043023499518 M-81.43172424863661 -16.86043023499518 C-81.0526543768302 -16.896998649630124, -80.6735845050238 -16.93356706426507, -80.34700623967213 -16.965071676755716 M-81.43172424863661 -16.86043023499518 C-81.08574084223311 -16.893806838105004, -80.73975743582959 -16.927183441214826, -80.34700623967213 -16.965071676755716 M-80.34700623967213 -16.965071676755716 C-80.00660698788029 -16.975987618213733, -79.66620773608844 -16.986903559671745, -79.2578125 -17 M-80.34700623967213 -16.965071676755716 C-80.00013529481387 -16.976195152813986, -79.6532643499556 -16.987318628872256, -79.2578125 -17 M-79.2578125 -17 C-79.2578125 -17, -79.2578125 -17, -79.2578125 -17 M-79.2578125 -17 C-79.2578125 -17, -79.2578125 -17, -79.2578125 -17" stroke="#555555" stroke-width="1.3" fill="none" stroke-dasharray="0 0" style=""></path></g><g class="label" style="" transform="translate(0, -9.5)"><rect></rect><g><rect class="background" style="stroke: none"></rect><text y="-10.1" style=""><tspan class="text-outer-tspan row" x="0" y="-0.1em" dy="1.1em"><tspan font-style="normal" class="text-inner-tspan" font-weight="normal">Project</tspan><tspan font-style="normal" class="text-inner-tspan" font-weight="normal"> or</tspan><tspan font-style="normal" class="text-inner-tspan" font-weight="normal"> existing</tspan><tspan font-style="normal" class="text-inner-tspan" font-weight="normal"> repo</tspan></tspan></text></g></g></g><g class="node default" id="g4be4ac7c-aa7d-44b5-ab9a-3aee1f453d0d-dark-flowchart-init-1" data-look="classic" transform="translate(203.07421875, 134.0999984741211)"><rect class="basic label-container" style="" x="-122.1640625" y="-42.099998474121094" width="244.328125" height="84.19999694824219"></rect><g class="label" style="" transform="translate(0, -27.099998474121094)"><rect></rect><g><rect class="background" style="stroke: none"></rect><text y="-10.1" style=""><tspan class="text-outer-tspan row" x="0" y="-0.1em" dy="1.1em"><tspan font-style="normal" class="text-inner-tspan" font-weight="normal">pagesmith-docs</tspan><tspan font-style="normal" class="text-inner-tspan" font-weight="normal"> init</tspan></tspan><tspan class="text-outer-tspan row" x="0" y="1em" dy="1.1em"><tspan font-style="normal" class="text-inner-tspan" font-weight="normal">Scaffold</tspan><tspan font-style="normal" class="text-inner-tspan" font-weight="normal"> or</tspan><tspan font-style="normal" class="text-inner-tspan" font-weight="normal"> backfill</tspan><tspan font-style="normal" class="text-inner-tspan" font-weight="normal"> config</tspan></tspan><tspan class="text-outer-tspan row" x="0" y="2.1em" dy="1.1em"><tspan font-style="normal" class="text-inner-tspan" font-weight="normal">and</tspan><tspan font-style="normal" class="text-inner-tspan" font-weight="normal"> starter</tspan><tspan font-style="normal" class="text-inner-tspan" font-weight="normal"> docs</tspan></tspan></text></g></g></g><g class="node default" id="g4be4ac7c-aa7d-44b5-ab9a-3aee1f453d0d-dark-flowchart-dev-2" data-look="classic" transform="translate(124.4921875, 291.2999954223633)"><rect class="basic label-container" style="" x="-115.5" y="-33.29999923706055" width="231" height="66.5999984741211"></rect><g class="label" style="" transform="translate(0, -18.299999237060547)"><rect></rect><g><rect class="background" style="stroke: none"></rect><text y="-10.1" style=""><tspan class="text-outer-tspan row" x="0" y="-0.1em" dy="1.1em"><tspan font-style="normal" class="text-inner-tspan" font-weight="normal">pagesmith-docs</tspan><tspan font-style="normal" class="text-inner-tspan" font-weight="normal"> dev</tspan></tspan><tspan class="text-outer-tspan row" x="0" y="1em" dy="1.1em"><tspan font-style="normal" class="text-inner-tspan" font-weight="normal">Live-reload</tspan><tspan font-style="normal" class="text-inner-tspan" font-weight="normal"> editing</tspan><tspan font-style="normal" class="text-inner-tspan" font-weight="normal"> loop</tspan></tspan></text></g></g></g><g class="node default" id="g4be4ac7c-aa7d-44b5-ab9a-3aee1f453d0d-dark-flowchart-build-3" data-look="classic" transform="translate(124.4921875, 425.49999237060547)"><rect class="basic label-container" style="" x="-113.9765625" y="-42.099998474121094" width="227.953125" height="84.19999694824219"></rect><g class="label" style="" transform="translate(0, -27.099998474121094)"><rect></rect><g><rect class="background" style="stroke: none"></rect><text y="-10.1" style=""><tspan class="text-outer-tspan row" x="0" y="-0.1em" dy="1.1em"><tspan font-style="normal" class="text-inner-tspan" font-weight="normal">pagesmith-docs</tspan><tspan font-style="normal" class="text-inner-tspan" font-weight="normal"> build</tspan></tspan><tspan class="text-outer-tspan row" x="0" y="1em" dy="1.1em"><tspan font-style="normal" class="text-inner-tspan" font-weight="normal">Static</tspan><tspan font-style="normal" class="text-inner-tspan" font-weight="normal"> output</tspan><tspan font-style="normal" class="text-inner-tspan" font-weight="normal"> +</tspan><tspan font-style="normal" class="text-inner-tspan" font-weight="normal"> assets</tspan><tspan font-style="normal" class="text-inner-tspan" font-weight="normal"> +</tspan></tspan><tspan class="text-outer-tspan row" x="0" y="2.1em" dy="1.1em"><tspan font-style="normal" class="text-inner-tspan" font-weight="normal">Pagefind</tspan></tspan></text></g></g></g><g class="node default" id="g4be4ac7c-aa7d-44b5-ab9a-3aee1f453d0d-dark-flowchart-preview-4" data-look="classic" transform="translate(124.4921875, 559.6999893188477)"><rect class="basic label-container" style="" x="-116.4921875" y="-42.099998474121094" width="232.984375" height="84.19999694824219"></rect><g class="label" style="" transform="translate(0, -27.099998474121094)"><rect></rect><g><rect class="background" style="stroke: none"></rect><text y="-10.1" style=""><tspan class="text-outer-tspan row" x="0" y="-0.1em" dy="1.1em"><tspan font-style="normal" class="text-inner-tspan" font-weight="normal">pagesmith-docs</tspan><tspan font-style="normal" class="text-inner-tspan" font-weight="normal"> preview</tspan></tspan><tspan class="text-outer-tspan row" x="0" y="1em" dy="1.1em"><tspan font-style="normal" class="text-inner-tspan" font-weight="normal">Serve</tspan><tspan font-style="normal" class="text-inner-tspan" font-weight="normal"> built</tspan><tspan font-style="normal" class="text-inner-tspan" font-weight="normal"> output</tspan><tspan font-style="normal" class="text-inner-tspan" font-weight="normal"> from</tspan></tspan><tspan class="text-outer-tspan row" x="0" y="2.1em" dy="1.1em"><tspan font-style="normal" class="text-inner-tspan" font-weight="normal">disk</tspan></tspan></text></g></g></g><g class="node default" id="g4be4ac7c-aa7d-44b5-ab9a-3aee1f453d0d-dark-flowchart-mcp-5" data-look="classic" transform="translate(516.66015625, 291.2999954223633)"><rect class="basic label-container" style="" x="-128.828125" y="-42.099998474121094" width="257.65625" height="84.19999694824219"></rect><g class="label" style="" transform="translate(0, -27.099998474121094)"><rect></rect><g><rect class="background" style="stroke: none"></rect><text y="-10.1" style=""><tspan class="text-outer-tspan row" x="0" y="-0.1em" dy="1.1em"><tspan font-style="normal" class="text-inner-tspan" font-weight="normal">pagesmith-docs</tspan><tspan font-style="normal" class="text-inner-tspan" font-weight="normal"> mcp</tspan><tspan font-style="normal" class="text-inner-tspan" font-weight="normal"> --stdio</tspan></tspan><tspan class="text-outer-tspan row" x="0" y="1em" dy="1.1em"><tspan font-style="normal" class="text-inner-tspan" font-weight="normal">Expose</tspan><tspan font-style="normal" class="text-inner-tspan" font-weight="normal"> docs-aware</tspan><tspan font-style="normal" class="text-inner-tspan" font-weight="normal"> MCP</tspan></tspan><tspan class="text-outer-tspan row" x="0" y="2.1em" dy="1.1em"><tspan font-style="normal" class="text-inner-tspan" font-weight="normal">tools</tspan></tspan></text></g></g></g></g></g></g><defs><filter id="g4be4ac7c-aa7d-44b5-ab9a-3aee1f453d0d-dark-drop-shadow" height="130%" width="130%"><feDropShadow dx="4" dy="4" stdDeviation="0" flood-opacity="0.06" flood-color="#000000"></feDropShadow></filter></defs><defs><filter id="g4be4ac7c-aa7d-44b5-ab9a-3aee1f453d0d-dark-drop-shadow-small" height="150%" width="150%"><feDropShadow dx="2" dy="2" stdDeviation="0" flood-opacity="0.06" flood-color="#000000"></feDropShadow></filter></defs><linearGradient id="g4be4ac7c-aa7d-44b5-ab9a-3aee1f453d0d-dark-gradient" gradientUnits="objectBoundingBox" x1="0%" y1="0%" x2="100%" y2="0%"><stop offset="0%" stop-color="#555555" stop-opacity="1"></stop><stop offset="100%" stop-color="#555555" stop-opacity="1"></stop></linearGradient></svg>